<svg id="Capa_1" data-name="Capa 1" xmlns="http://www.w3.org/2000/svg" viewBox="0 0 512 488.02"><defs><style>.cls-1{fill:#316fea;}</style></defs><title>api</title><path class="cls-1" d="M0,358.15v6.17A35.73,35.73,0,0,0,35.69,400h174.4l-8,40H310l-8-40H476.3A35.73,35.73,0,0,0,512,364.32v-6.17Z" transform="translate(0 -11.99)"/><path class="cls-1" d="M476.3,12H35.69A35.73,35.73,0,0,0,0,47.69v6.56H512V47.69A35.73,35.73,0,0,0,476.3,12Z" transform="translate(0 -11.99)"/><path class="cls-1" d="M376.18,470H135.09a15,15,0,1,0,0,30H376.18a15,15,0,1,0,0-30Z" transform="translate(0 -11.99)"/><path class="cls-1" d="M288.27,166.48H271.19v36.4h17.08q15.53,0,15.52-17.25v-1.9Q303.79,166.48,288.27,166.48Z" transform="translate(0 -11.99)"/><polygon class="cls-1" points="184.08 163.63 171.49 209.86 196.67 209.86 184.08 163.63"/><path class="cls-1" d="M0,84.25v243.9H512V84.25ZM228.67,265.84A22.72,22.72,0,0,1,217,269.12q-7.42,0-8.8-5l-5.87-21.56H166l-5.86,21.56q-1.38,5-8.8,5a22.67,22.67,0,0,1-11.64-3.28q-5.61-3.27-5.61-7.76a8.88,8.88,0,0,1,.35-1.9L166.48,151q1.38-4.3,6.3-6.64a28.57,28.57,0,0,1,22.6,0,11.13,11.13,0,0,1,6.29,6.64l32.26,105.23a9.59,9.59,0,0,1,.35,1.9C234.28,261.07,232.4,263.66,228.67,265.84Zm102-82.28q0,20.52-11.64,30.27t-30.79,9.75H271.19v37.26c0,2.64-1.32,4.69-4,6.12a21.91,21.91,0,0,1-19,0q-4-2.16-4-6.12V151.12h0a7.35,7.35,0,0,1,2.76-5.69,10.6,10.6,0,0,1,7.25-2.41H290q18.47,0,29.59,9.57t11.12,30.1v.87Zm38.64,77.28c0,2.64-1.32,4.69-4,6.12a21.93,21.93,0,0,1-19,0q-4-2.16-4-6.12V151.12q0-4,4-6a22.79,22.79,0,0,1,19,0q4,2.07,4,6Z" transform="translate(0 -11.99)"/></svg>