<svg id="Capa_1" data-name="Capa 1" xmlns="http://www.w3.org/2000/svg" viewBox="0 0 512 512"><defs><style>.cls-1{fill:#9ea2a9;}</style></defs><path class="cls-1" d="M209,77.75a50.06,50.06,0,0,1,50-50h17.3l-5.22-14.51a20,20,0,0,0-25.66-12L70.57,64.85A20,20,0,0,0,58.63,90.53l9.24,25.22H209Z" transform="translate(0 0)"/><path class="cls-1" d="M259,57.74a20,20,0,0,0-20,20v38H414v-38a20,20,0,0,0-20-20Z" transform="translate(0 0)"/><path class="cls-1" d="M467,404.24H397a75,75,0,0,1,0-150h70v-68.5a40,40,0,0,0-40-40H40a40,40,0,0,0-40,40V472a40,40,0,0,0,40,40H427a40,40,0,0,0,40-40Z" transform="translate(0 0)"/><path class="cls-1" d="M497,284.24H397a45,45,0,0,0,0,90H497a15,15,0,0,0,15-15v-60A15,15,0,0,0,497,284.24Zm-100,60a15,15,0,1,1,15-15A15,15,0,0,1,397,344.24Z" transform="translate(0 0)"/></svg>