<svg id="Layer_1" data-name="Layer 1" xmlns="http://www.w3.org/2000/svg" viewBox="0 0 512 512"><defs><style>.cls-1{fill:#316fea;}</style></defs><title>cdn</title><path class="cls-1" d="M271,32.51V151h77.17C332.19,88.27,303.23,43.07,271,32.51Z" transform="translate(0)"/><path class="cls-1" d="M271,331h69.63c-19.09-30-47.13-78.58-47.13-105a74.25,74.25,0,0,1,15.38-45H271Z" transform="translate(0)"/><path class="cls-1" d="M126.75,331a492,492,0,0,1,0-150H11.29a254.76,254.76,0,0,0,0,150Z" transform="translate(0)"/><path class="cls-1" d="M241,32.69C207.88,43.38,179.22,89.44,163.61,151H241Z" transform="translate(0)"/><path class="cls-1" d="M368.5,181a45.05,45.05,0,0,0-45,45c0,16.41,23.41,59.15,45,92.89,21.59-33.75,45-76.51,45-92.89a45.05,45.05,0,0,0-45-45ZM384,241H354V211h30Z" transform="translate(0)"/><path class="cls-1" d="M151,256a444.52,444.52,0,0,0,6.38,75H241V181H157.38A444.52,444.52,0,0,0,151,256Z" transform="translate(0)"/><path class="cls-1" d="M271,479.49c32.27-10.56,61.2-55.73,77.18-118.49H271Z" transform="translate(0)"/><path class="cls-1" d="M132.66,361H22.89C63,449.32,152.84,512,256,512,200.25,512,153.49,450.14,132.66,361Z" transform="translate(0)"/><path class="cls-1" d="M22.89,151H132.66C153.49,61.86,200.25,0,256,0,152.84,0,63,62.68,22.89,151Z" transform="translate(0)"/><path class="cls-1" d="M241,479.31V361H163.61C179.22,422.56,207.88,468.62,241,479.31Z" transform="translate(0)"/><path class="cls-1" d="M489.11,361H378.94C357.5,452.36,310.27,512,256,512,359.16,512,449,449.32,489.11,361Z" transform="translate(0)"/><path class="cls-1" d="M428.12,181a74.25,74.25,0,0,1,15.38,45c0,26.42-28,75-47.13,105H500.71a254.76,254.76,0,0,0,0-150Z" transform="translate(0)"/><path class="cls-1" d="M256,0c54.22,0,101.52,59.66,123,151H489.11C449,62.68,359.16,0,256,0Z" transform="translate(0)"/></svg>