<svg id="Layer_1" data-name="Layer 1" xmlns="http://www.w3.org/2000/svg" viewBox="0 0 512 512"><defs><style>.cls-1{fill:#9ea2a9;}</style></defs><title>dashboard</title><path class="cls-1" d="M197.33,0h-160A37.38,37.38,0,0,0,0,37.33v96a37.38,37.38,0,0,0,37.33,37.34h160a37.38,37.38,0,0,0,37.34-37.34v-96A37.38,37.38,0,0,0,197.33,0Z"/><path class="cls-1" d="M197.33,213.33h-160A37.38,37.38,0,0,0,0,250.67v224A37.38,37.38,0,0,0,37.33,512h160a37.38,37.38,0,0,0,37.34-37.33v-224A37.38,37.38,0,0,0,197.33,213.33Z"/><path class="cls-1" d="M474.67,341.33h-160a37.38,37.38,0,0,0-37.34,37.34v96A37.38,37.38,0,0,0,314.67,512h160A37.38,37.38,0,0,0,512,474.67v-96A37.38,37.38,0,0,0,474.67,341.33Z"/><path class="cls-1" d="M474.67,0h-160a37.38,37.38,0,0,0-37.34,37.33v224a37.38,37.38,0,0,0,37.34,37.34h160A37.38,37.38,0,0,0,512,261.33v-224A37.38,37.38,0,0,0,474.67,0Z"/></svg>