<svg id="Capa_1" data-name="Capa 1" xmlns="http://www.w3.org/2000/svg" viewBox="0 0 512 512"><defs><style>.cls-1{fill:#316fea;}</style></defs><title>exit</title><path class="cls-1" d="M182.7,81.9,26.7,0C13.08,5.1,0,21.81,0,41.1V390.8a44.7,44.7,0,0,0,20.1,37.5l120,76.13c28.69,19.51,69.9-.72,69.9-37.5V123.6C210,105.9,200.1,90.6,182.7,81.9ZM150,286a15,15,0,0,1-30,0V226a15,15,0,0,1,30,0Z" transform="translate(0)"/><path class="cls-1" d="M506.07,244.05,400.61,170.42A15,15,0,0,0,375,181v45H255a15,15,0,0,0-15,15v30a15,15,0,0,0,15,15H375v45a15,15,0,0,0,25.61,10.61L506.07,268A15,15,0,0,0,506.07,244.05Z" transform="translate(0)"/><path class="cls-1" d="M240,316V452h45a45,45,0,0,0,45-45V316Z" transform="translate(0)"/><path class="cls-1" d="M285,0H91.24L196.06,55l.06,0h0l.52.27C223.6,68.8,240,94.42,240,123.6V196h90V45A45,45,0,0,0,285,0Z" transform="translate(0)"/></svg>