<svg id="Layer_1" data-name="Layer 1" xmlns="http://www.w3.org/2000/svg" viewBox="0 0 512 443.39"><defs><style>.cls-1{fill:#316fea;}</style></defs><title>projects</title><path class="cls-1" d="M247.83,95.84,222.6,47a15,15,0,0,0-13.32-8.11h-172A15,15,0,0,0,23.09,49.14L7.3,96.51a44.37,44.37,0,0,1,7.7-.67Z" transform="translate(0 -34)"/><path class="cls-1" d="M427.46,233.05A114.68,114.68,0,0,1,313.17,125.84H15a15,15,0,0,0-15,15V462.39a15,15,0,0,0,15,15H497a15,15,0,0,0,15-15V195.7A114.25,114.25,0,0,1,427.46,233.05Z" transform="translate(0 -34)"/><path class="cls-1" d="M427.46,203.05a84.53,84.53,0,1,0-84.53-84.52A84.52,84.52,0,0,0,427.46,203.05Zm-24.53-99.52h9.53V94a15,15,0,0,1,30,0v9.53H452a15,15,0,0,1,0,30h-9.52v9.52a15,15,0,0,1-30,0v-9.52h-9.53a15,15,0,0,1,0-30Z" transform="translate(0 -34)"/></svg>