<svg id="Layer_1" data-name="Layer 1" xmlns="http://www.w3.org/2000/svg" viewBox="0 0 512 512"><defs><style>.cls-1{fill:#316fea;}</style></defs><title>sdk</title><path class="cls-1" d="M432.73,0H79.27A79.36,79.36,0,0,0,0,79.27v34.27H512V79.27A79.36,79.36,0,0,0,432.73,0ZM79.27,71.77a15,15,0,1,1,15-15A15,15,0,0,1,79.27,71.77Zm64.26,0a15,15,0,1,1,15-15A15,15,0,0,1,143.53,71.77Zm64.27,0a15,15,0,1,1,15-15A15,15,0,0,1,207.8,71.77Z"/><path class="cls-1" d="M0,432.73A79.36,79.36,0,0,0,79.27,512H432.73A79.36,79.36,0,0,0,512,432.73V143.53H0ZM341.79,234.47A15,15,0,1,1,363,213.26l64.26,64.27a15,15,0,0,1,0,21.21L363,363a15,15,0,0,1-21.22-21.21l53.66-53.66ZM210.45,345.69l64.27-128.53a15,15,0,0,1,26.83,13.41L237.28,359.11a15,15,0,1,1-26.83-13.42ZM84.73,277.53,149,213.26a15,15,0,0,1,21.22,21.21l-53.66,53.66,53.65,53.66A15,15,0,0,1,149,363L84.73,298.74A15,15,0,0,1,84.73,277.53Z"/></svg>