<svg id="Layer_1" data-name="Layer 1" xmlns="http://www.w3.org/2000/svg" viewBox="0 0 640 640"><defs><style>.cls-1{fill:#316fea;}</style></defs><title>stats</title><path class="cls-1" d="M152.25,491a18.74,18.74,0,0,0-18.75-18.75H39.75A18.74,18.74,0,0,0,21,491V642.25A18.74,18.74,0,0,0,39.75,661H133.5a18.74,18.74,0,0,0,18.75-18.75Z" transform="translate(-21 -21)"/><path class="cls-1" d="M303.5,359.75H209.75A18.74,18.74,0,0,0,191,378.5V642.25A18.74,18.74,0,0,0,209.75,661H303.5a18.74,18.74,0,0,0,18.75-18.75V378.5A18.74,18.74,0,0,0,303.5,359.75Z" transform="translate(-21 -21)"/><path class="cls-1" d="M472.25,322.25H378.5A18.74,18.74,0,0,0,359.75,341V642.25A18.74,18.74,0,0,0,378.5,661h93.75A18.74,18.74,0,0,0,491,642.25V341A18.74,18.74,0,0,0,472.25,322.25Z" transform="translate(-21 -21)"/><path class="cls-1" d="M642.25,172.25H548.5A18.74,18.74,0,0,0,529.75,191V642.25A18.74,18.74,0,0,0,548.5,661h93.75A18.74,18.74,0,0,0,661,642.25V191A18.74,18.74,0,0,0,642.25,172.25Z" transform="translate(-21 -21)"/><path class="cls-1" d="M87.88,433.5a56.31,56.31,0,0,0,56.24-56.25,55.39,55.39,0,0,0-2.32-15.1l73.06-51.57a55.85,55.85,0,0,0,87.88-38.35l74.81-15.75a56.1,56.1,0,0,0,99.86-50.41l89.74-79.77a55.49,55.49,0,0,0,27,7.2,56.47,56.47,0,1,0-52-35.07L452.35,178.2a55.49,55.49,0,0,0-27-7.2,56.15,56.15,0,0,0-55.5,48.77l-74.8,15.75A56.1,56.1,0,0,0,191,264.75a55.39,55.39,0,0,0,2.32,15.1l-73,51.57A56.2,56.2,0,1,0,87.88,433.5Z" transform="translate(-21 -21)"/></svg>