<svg id="Capa_1" data-name="Capa 1" xmlns="http://www.w3.org/2000/svg" viewBox="0 0 60 58"><title>storage</title><path d="M.83,22A4.53,4.53,0,0,0,0,24.61V36.39A4.62,4.62,0,0,0,4.61,41H29v8.1A5,5,0,0,0,25.1,53H1a1,1,0,0,0,0,2H25.1a5,5,0,0,0,9.8,0H59a1,1,0,0,0,0-2H34.9A5,5,0,0,0,31,49.1V41H55.39A4.62,4.62,0,0,0,60,36.39V24.61A4.5,4.5,0,0,0,59.17,22ZM10.5,35A4.5,4.5,0,1,1,15,30.5,4.51,4.51,0,0,1,10.5,35ZM33,54a3,3,0,1,1-3-3A3,3,0,0,1,33,54Zm1-24a1,1,0,1,1,1-1A1,1,0,0,1,34,30Zm2,3a1,1,0,1,1,1-1A1,1,0,0,1,36,33Zm2-3a1,1,0,1,1,1-1A1,1,0,0,1,38,30Zm2,3a1,1,0,1,1,1-1A1,1,0,0,1,40,33Zm2-3a1,1,0,1,1,1-1A1,1,0,0,1,42,30Zm2,3a1,1,0,1,1,1-1A1,1,0,0,1,44,33Zm2-3a1,1,0,1,1,1-1A1,1,0,0,1,46,30Zm2,3a1,1,0,1,1,1-1A1,1,0,0,1,48,33Zm2-3a1,1,0,1,1,1-1A1,1,0,0,1,50,30Zm2,3a1,1,0,1,1,1-1A1,1,0,0,1,52,33Z" transform="translate(0 -1)"/><path d="M55.39,1H4.61A4.62,4.62,0,0,0,0,5.61V17.39A4.53,4.53,0,0,0,.83,20H59.16A4.47,4.47,0,0,0,60,17.39V5.61A4.62,4.62,0,0,0,55.39,1ZM10.5,16A4.5,4.5,0,1,1,15,11.5,4.51,4.51,0,0,1,10.5,16ZM34,11a1,1,0,1,1,1-1A1,1,0,0,1,34,11Zm2,3a1,1,0,1,1,1-1A1,1,0,0,1,36,14Zm2-3a1,1,0,1,1,1-1A1,1,0,0,1,38,11Zm2,3a1,1,0,1,1,1-1A1,1,0,0,1,40,14Zm2-3a1,1,0,1,1,1-1A1,1,0,0,1,42,11Zm2,3a1,1,0,1,1,1-1A1,1,0,0,1,44,14Zm2-3a1,1,0,1,1,1-1A1,1,0,0,1,46,11Zm2,3a1,1,0,1,1,1-1A1,1,0,0,1,48,14Zm2-3a1,1,0,1,1,1-1A1,1,0,0,1,50,11Zm2,3a1,1,0,1,1,1-1A1,1,0,0,1,52,14Z" transform="translate(0 -1)"/></svg>