<svg id="Layer_1" data-name="Layer 1" xmlns="http://www.w3.org/2000/svg" viewBox="0 0 512 512"><defs><style>.cls-1{fill:#316fea;}</style></defs><title>ui</title><path class="cls-1" d="M456.84,0H55.17A55.23,55.23,0,0,0,0,55.17V456.84A55.23,55.23,0,0,0,55.17,512H456.84A55.23,55.23,0,0,0,512,456.84V55.17A55.23,55.23,0,0,0,456.84,0ZM406.05,84.73a15,15,0,1,1-4.39,10.61A15.1,15.1,0,0,1,406.05,84.73Zm-80.32,0a15,15,0,1,1-4.39,10.61A15.07,15.07,0,0,1,325.73,84.73Zm-80.34,0A15,15,0,1,1,241,95.34,15.07,15.07,0,0,1,245.39,84.73Zm-150-4.4h80.33a15,15,0,0,1,0,30H95.34a15,15,0,0,1,0-30ZM482,456.84A25.19,25.19,0,0,1,456.84,482H55.17A25.19,25.19,0,0,1,30,456.84V190.67H482Z"/><path class="cls-1" d="M95.34,431.67H416.67a15,15,0,0,0,0-30H95.34a15,15,0,1,0,0,30Z"/><path class="cls-1" d="M135.5,351.34a55.17,55.17,0,1,0-55.16-55.17A55.23,55.23,0,0,0,135.5,351.34Z"/><path class="cls-1" d="M256,271H416.67a15,15,0,1,0,0-30H256a15,15,0,0,0,0,30Z"/><path class="cls-1" d="M256,351.34H416.67a15,15,0,0,0,0-30H256a15,15,0,1,0,0,30Z"/></svg>