<svg id="Capa_1" data-name="Capa 1" xmlns="http://www.w3.org/2000/svg" viewBox="0 0 478.7 478.7"><defs><style>.cls-1{fill:#45b31e;}</style></defs><title>complete</title><path class="cls-1" d="M239.35,0C107.37,0,0,107.37,0,239.35S107.37,478.7,239.35,478.7,478.7,371.33,478.7,239.35,371.33,0,239.35,0Zm0,440.12c-110.71,0-200.77-90.06-200.77-200.78S128.64,38.57,239.35,38.57s200.77,90.07,200.77,200.78S350.06,440.12,239.35,440.12Z" transform="translate(0 0)"/><path class="cls-1" d="M323.81,154.87,200.14,278.54l-45.25-45.25a21.35,21.35,0,1,0-30.19,30.19l60.35,60.35a21.33,21.33,0,0,0,30.19,0L354,185.06a21.35,21.35,0,0,0-30.19-30.19Z" transform="translate(0 0)"/></svg>