<svg id="Capa_1" data-name="Capa 1" xmlns="http://www.w3.org/2000/svg" viewBox="0 0 472 458"><defs><style>.cls-1{fill:#e48600;}</style></defs><title>downloading</title><path class="cls-1" d="M426.58,302.36V425.09h-374V302.36h-49V443.05C3.59,460.69,16.78,475,33.13,475H446c16.34,0,29.55-14.29,29.55-31.95V302.36Z" transform="translate(-3.59 -17)"/><path class="cls-1" d="M241.22,347.57c-4.87,0-72.48-112.59-72.48-112.59s-12.85-13.15,1.08-13.15h47.61v-197s-1.89-7.84,9-7.84h35c7.86,0,7.68,6.61,7.68,6.61V220.52h43.94c16.91,0,4.18,13.76,4.18,13.76S246.08,347.57,241.22,347.57Z" transform="translate(-3.59 -17)"/></svg>