<svg id="Capa_1" data-name="Capa 1" xmlns="http://www.w3.org/2000/svg" viewBox="0 0 445.57 408.35"><defs><style>.cls-1{fill:#e48600;}</style></defs><title>queue</title><path class="cls-1" d="M444.06,31.61H122.84a18.94,18.94,0,0,0-18.93,18.93V73.45a18.94,18.94,0,0,0,18.93,18.93H444.07A18.93,18.93,0,0,0,463,73.45V50.54A19,19,0,0,0,444.06,31.61ZM78.19,62A30.39,30.39,0,1,1,47.81,31.61,30.39,30.39,0,0,1,78.19,62Z" transform="translate(-17.42 -31.61)"/><path class="cls-1" d="M444.06,147.47H122.84a18.94,18.94,0,0,0-18.93,18.93v22.91a18.94,18.94,0,0,0,18.93,18.93H444.07A18.93,18.93,0,0,0,463,189.31V166.4A19,19,0,0,0,444.06,147.47ZM78.19,177.85a30.39,30.39,0,1,1-30.38-30.38A30.39,30.39,0,0,1,78.19,177.85Z" transform="translate(-17.42 -31.61)"/><path class="cls-1" d="M444.06,263.33H122.84a18.94,18.94,0,0,0-18.93,18.93v22.91a18.94,18.94,0,0,0,18.93,18.93H444.07A18.93,18.93,0,0,0,463,305.17V282.26A19,19,0,0,0,444.06,263.33ZM78.19,293.72a30.39,30.39,0,1,1-30.38-30.39A30.38,30.38,0,0,1,78.19,293.72Z" transform="translate(-17.42 -31.61)"/><path class="cls-1" d="M444.06,379.19H122.84a18.94,18.94,0,0,0-18.93,18.93V421A18.94,18.94,0,0,0,122.84,440H444.07A18.93,18.93,0,0,0,463,421V398.12A19,19,0,0,0,444.06,379.19ZM78.19,409.58a30.39,30.39,0,1,1-30.38-30.39A30.38,30.38,0,0,1,78.19,409.58Z" transform="translate(-17.42 -31.61)"/></svg>