<svg id="Capa_1" data-name="Capa 1" xmlns="http://www.w3.org/2000/svg" viewBox="0 0 468.38 379.67"><defs><style>.cls-1{fill:#ffffff;}</style></defs><title>resubmit</title><path class="cls-1" d="M134.18,235.61H108.54v-.21c0-71.43,57-131.53,129.68-131.19a129.12,129.12,0,0,1,91.19,37.88l42.31-40.82a187.36,187.36,0,0,0-133.5-55.75C134,45.52,49.58,130.59,49.43,235.58H23.5c-15.9,0-22.4,10.62-14.45,23.64l55.34,54.86c11,11,17.58,11.31,28.9,0l55.34-54.86C156.58,246.22,150.06,235.61,134.18,235.61Zm336.46-22.84L415.3,158C404,146.75,397,147.42,386.42,158l-55.34,54.74c-7.95,13-1.47,23.61,14.43,23.61h25.6c-.41,71-57.22,130.53-129.65,130.2a129.14,129.14,0,0,1-91.19-37.82L108,369.52a187.61,187.61,0,0,0,133.51,55.66c103.86,0,188.08-84.45,188.75-188.78h26C472.1,236.38,478.59,225.74,470.64,212.77Z" transform="translate(-5.66 -45.52)"/></svg>