<svg id="Capa_1" data-name="Capa 1" xmlns="http://www.w3.org/2000/svg" viewBox="0 0 470.82 466.67"><defs><style>.cls-1{fill:#e48600;}</style></defs><title>saving</title><path class="cls-1" d="M244,141.13c4.86,0,72.47,112.59,72.47,112.59s12.86,13.15-1.08,13.15h-47.6v197s1.89,7.84-9,7.84h-35c-7.86,0-7.68-6.6-7.68-6.6V268.19H172.11c-16.91,0-4.17-13.77-4.17-13.77S239.1,141.13,244,141.13Z" transform="translate(-2.94 -5.04)"/><path class="cls-1" d="M385.6,149.64C383.43,69.54,317.59,5,237,5A148.74,148.74,0,0,0,91.25,124.11a112,112,0,0,0,23.66,221.43h19.27V308.82H114.8a75.34,75.34,0,0,1-75.15-75.25c0-39,30.38-71.91,69.15-75L124,157.34l1.56-15.21a112,112,0,0,1,223.34,11.59v32.12h26.62a61.49,61.49,0,1,1,0,123H343.44v36.71h32.12a98.21,98.21,0,0,0,10-195.9Z" transform="translate(-2.94 -5.04)"/></svg>