<svg id="Layer_1" data-name="Layer 1" xmlns="http://www.w3.org/2000/svg" viewBox="0 0 5.57 5.54"><defs><style>.cls-1{fill:#346df0;stroke:#346df0;stroke-miterlimit:10;stroke-width:0.2px;}</style></defs><title>copy</title><path class="cls-1" d="M1.54,1.14A.59.59,0,0,1,2.11.55H5.34a.59.59,0,0,1,.57.57V4.18a.93.93,0,0,1,0,.41.53.53,0,0,1-.21.21.53.53,0,0,1-.32.1V1.14Z" transform="translate(-0.44 -0.45)"/><path class="cls-1" d="M1,1.91l.17,0H4a.55.55,0,0,1,.53.53V5.34a.55.55,0,0,1-.31.51.74.74,0,0,1-.33.05c-1,0-1.91,0-2.87,0a.55.55,0,0,1-.52-.53V2.42A.54.54,0,0,1,1,1.91Zm.13.52V5.36H4c0-1,0-1.95,0-2.93Z" transform="translate(-0.44 -0.45)"/></svg>