<svg id="Isolation_Mode" data-name="Isolation Mode" xmlns="http://www.w3.org/2000/svg" viewBox="0 0 31.31 35.58"><defs><style>.cls-1{fill:#346df0;}</style></defs><title>search</title><path class="cls-1" d="M28,31.08a.71.71,0,0,0-.71.71v2.14a.71.71,0,0,1-.71.71H2.39a.71.71,0,0,1-.71-.71V2.61a.71.71,0,0,1,.71-.71H19.47V7.6a2.14,2.14,0,0,0,2.14,2.13H27.3V23.25a.71.71,0,1,0,1.42,0V9a.7.7,0,0,0-.2-.5L20.69.69a.71.71,0,0,0-.51-.21H2.39A2.13,2.13,0,0,0,.26,2.61V33.93a2.13,2.13,0,0,0,2.13,2.13h24.2a2.13,2.13,0,0,0,2.13-2.13V31.79A.71.71,0,0,0,28,31.08ZM20.9,7.6V2.91l5.39,5.4H21.61A.71.71,0,0,1,20.9,7.6Z" transform="translate(-0.26 -0.48)"/><path class="cls-1" d="M31.25,28.75l-7.8-5a8.65,8.65,0,1,0-.78,1.19l7.8,5a.71.71,0,0,0,.39.12.73.73,0,0,0,.6-.33A.71.71,0,0,0,31.25,28.75ZM15.91,26.88a7.19,7.19,0,1,1,7.19-7.19A7.19,7.19,0,0,1,15.91,26.88Z" transform="translate(-0.26 -0.48)"/></svg>