<svg id="Layer_1" data-name="Layer 1" xmlns="http://www.w3.org/2000/svg" viewBox="0 0 497.17 499.17"><defs><style>.cls-1{fill:#316fea;}</style></defs><g id="Icons"><path class="cls-1" d="M453,284.6a28.43,28.43,0,0,1-26.06-28.53,28.78,28.78,0,0,1,26-28.53q.31,0,.63-.09a6.92,6.92,0,0,0,5.6-8A206.66,206.66,0,0,0,292.61,52.9a6,6,0,0,0-.63-.08,6.91,6.91,0,0,0-7.47,6.31,28.65,28.65,0,0,1-57.07,0c0-.21-.05-.42-.08-.63a6.93,6.93,0,0,0-8-5.6A206.67,206.67,0,0,0,52.81,219.43c0,.21-.06.42-.08.63A6.93,6.93,0,0,0,59,227.54,28.77,28.77,0,0,1,85.1,256.07a28.44,28.44,0,0,1-26,28.53q-.31,0-.63.09a6.92,6.92,0,0,0-5.6,8,206.67,206.67,0,0,0,166.5,166.55l.63.09a6.92,6.92,0,0,0,7.48-6.31,28.65,28.65,0,0,1,57.07,0,6.91,6.91,0,0,0,6.91,6.31,7.09,7.09,0,0,0,1.22-.1,202.23,202.23,0,0,0,48.08-14.85A34.16,34.16,0,0,1,339,435a26.19,26.19,0,0,1,.29-5.18A188.32,188.32,0,0,1,297,444.28a42.53,42.53,0,0,0-82,0A192.85,192.85,0,0,1,67.81,297.05a42.53,42.53,0,0,0,0-82A192.88,192.88,0,0,1,215,67.85a42.53,42.53,0,0,0,82,0A192.9,192.9,0,0,1,444.17,215.06a42.53,42.53,0,0,0,0,82,191.3,191.3,0,0,1-15.43,44.28,6.94,6.94,0,0,0,12.46,6.11,205.71,205.71,0,0,0,18-54.71c0-.2.06-.41.08-.62A6.93,6.93,0,0,0,453,284.6Z" transform="translate(-13.86 -13.93)"/><path class="cls-1" d="M256,99a42.22,42.22,0,0,1-42.32-38.7,29.3,29.3,0,0,1-.23-3.86,42.55,42.55,0,0,1,85.1,0,31.09,31.09,0,0,1-.26,4.09A42.15,42.15,0,0,1,256,99Zm0-71.27a28.75,28.75,0,0,0-28.71,28.72,19.49,19.49,0,0,0,.15,2.41,28.65,28.65,0,0,0,57.09.24,19.66,19.66,0,0,0,.18-2.65A28.75,28.75,0,0,0,256,27.74Z" transform="translate(-13.86 -13.93)"/><path class="cls-1" d="M256,498.23a42.59,42.59,0,0,1-42.55-42.55,31.09,31.09,0,0,1,.26-4.09,42.48,42.48,0,0,1,84.61.24,29,29,0,0,1,.23,3.85A42.59,42.59,0,0,1,256,498.23ZM256,427A28.44,28.44,0,0,0,227.47,453a19.41,19.41,0,0,0-.18,2.64,28.71,28.71,0,0,0,57.42,0,19.49,19.49,0,0,0-.15-2.41A28.52,28.52,0,0,0,256,427Z" transform="translate(-13.86 -13.93)"/><path class="cls-1" d="M455.61,298.62a33.88,33.88,0,0,1-4.15-.26,42.49,42.49,0,0,1,.3-84.57,30.85,30.85,0,0,1,3.85-.24,42.56,42.56,0,0,1,0,85.11h0Zm0-71.26a18.38,18.38,0,0,0-2.34.15,28.87,28.87,0,0,0-26.37,28.56A28.43,28.43,0,0,0,453,284.6a19.55,19.55,0,0,0,2.65.18,28.71,28.71,0,1,0,0-57.42Z" transform="translate(-13.86 -13.93)"/><path class="cls-1" d="M56.39,298.62a42.55,42.55,0,0,1,0-85.1,32,32,0,0,1,4.15.27,42.48,42.48,0,0,1-.31,84.6A29,29,0,0,1,56.39,298.62Zm0-71.26a28.71,28.71,0,1,0,0,57.42h0a18.37,18.37,0,0,0,2.34-.14,28.65,28.65,0,0,0,.31-57.1A19.55,19.55,0,0,0,56.39,227.36Z" transform="translate(-13.86 -13.93)"/><path class="cls-1" d="M256,394.45A138.38,138.38,0,1,1,394.38,256.07,138.39,138.39,0,0,1,256,394.45Zm0-262.92A124.54,124.54,0,1,0,380.54,256.07,124.54,124.54,0,0,0,256,131.53Z" transform="translate(-13.86 -13.93)"/><path class="cls-1" d="M256,394.45c-38.18,0-68.08-60.79-68.08-138.38S217.82,117.69,256,117.69s68.08,60.78,68.08,138.38S294.18,394.45,256,394.45Zm0-262.92c-29.41,0-54.24,57-54.24,124.54S226.59,380.61,256,380.61s54.24-57,54.24-124.54S285.41,131.53,256,131.53Z" transform="translate(-13.86 -13.93)"/><path class="cls-1" d="M256,394.45a6.92,6.92,0,0,1-6.92-6.92V124.61a6.92,6.92,0,0,1,13.84,0V387.53A6.92,6.92,0,0,1,256,394.45Z" transform="translate(-13.86 -13.93)"/><path class="cls-1" d="M387.46,263H124.54a6.92,6.92,0,1,1,0-13.84H387.46a6.92,6.92,0,1,1,0,13.84Z" transform="translate(-13.86 -13.93)"/><path class="cls-1" d="M371.91,200.84H140.17a6.92,6.92,0,1,1,0-13.84H371.91a6.92,6.92,0,0,1,0,13.84Z" transform="translate(-13.86 -13.93)"/><path class="cls-1" d="M371.91,325.14H140.17a6.92,6.92,0,0,1,0-13.84H371.91a6.92,6.92,0,0,1,0,13.84Z" transform="translate(-13.86 -13.93)"/></g><path class="cls-1" d="M422.9,336.83A88.14,88.14,0,1,0,511,425,88.23,88.23,0,0,0,422.9,336.83Zm0,163.21A75.08,75.08,0,1,1,498,425,75.16,75.16,0,0,1,422.9,500Zm30.48-55.69c0,12.39-10.27,22.76-23.95,25.31v5.69a6.53,6.53,0,0,1-13.06,0v-5.67c-9.87-1.8-18.1-7.63-21.87-15.86a6.52,6.52,0,0,1,11.86-5.44c2.43,5.28,9.07,8.83,16.54,8.83,9.45,0,17.43-5.89,17.43-12.86s-8-12.86-17.43-12.86c-16.81,0-30.49-11.62-30.49-25.91,0-12.39,10.28-22.76,24-25.31v-5.69a6.53,6.53,0,1,1,13.05,0v5.69c10.95,2,19.94,9.09,22.92,18.54a6.53,6.53,0,1,1-12.45,3.92c-1.83-5.8-9-10-17-10-9.45,0-17.43,5.89-17.43,12.86s8,12.86,17.43,12.86c16.81,0,30.48,11.62,30.48,25.91Z" transform="translate(-13.86 -13.93)"/></svg>