<svg id="Layer_1" data-name="Layer 1" xmlns="http://www.w3.org/2000/svg" viewBox="0 0 512 512"><defs><style>.cls-1{fill:#316fea;}</style></defs><path class="cls-1" d="M397,381a16,16,0,0,1-16,16H131a16,16,0,0,1,0-32H381A16,16,0,0,1,397,381ZM244.69,323.12a16,16,0,0,0,22.62,0l63.27-63.27A16,16,0,0,0,308,237.22l-35.95,36V131a16,16,0,0,0-32,0V273.18l-36-36a16,16,0,0,0-22.62,22.63ZM512,256c0,141.16-114.84,256-256,256S0,397.16,0,256,114.84,0,256,0,512,114.84,512,256Zm-32,0C480,132.49,379.51,32,256,32S32,132.49,32,256,132.49,480,256,480,480,379.51,480,256Z"/></svg>