<svg id="Layer_1" data-name="Layer 1" xmlns="http://www.w3.org/2000/svg" viewBox="0 0 553.93 554.83"><defs><style>.cls-1{fill:#316fea;}.cls-2{fill:#416fea;}</style></defs><path class="cls-1" d="M128.05,0H25.55A25.58,25.58,0,0,0,0,25.55v102.5A25.58,25.58,0,0,0,25.55,153.6h102.5a25.58,25.58,0,0,0,25.55-25.55V25.55A25.58,25.58,0,0,0,128.05,0Zm8.48,128.05a8.48,8.48,0,0,1-8.48,8.48H25.55a8.48,8.48,0,0,1-8.48-8.48V25.55a8.48,8.48,0,0,1,8.48-8.48h102.5a8.48,8.48,0,0,1,8.48,8.48Z"/><path class="cls-1" d="M128.67,330A38.71,38.71,0,0,1,124,315.73H25.55a8.48,8.48,0,0,1-8.48-8.48V204.75a8.48,8.48,0,0,1,8.48-8.48h100c-4.7-6.05-2-13.41,3.2-17.05l-.66,0H25.55A25.58,25.58,0,0,0,0,204.75v102.5A25.58,25.58,0,0,0,25.55,332.8h102.5a25.88,25.88,0,0,0,2.66-.14A11.53,11.53,0,0,1,128.67,330Z"/><path class="cls-1" d="M128.05,358.4H25.55A25.58,25.58,0,0,0,0,384v102.5A25.58,25.58,0,0,0,25.55,512h102.5a25.58,25.58,0,0,0,25.55-25.55V384A25.58,25.58,0,0,0,128.05,358.4Zm8.48,128.05a8.48,8.48,0,0,1-8.48,8.48H25.55a8.48,8.48,0,0,1-8.48-8.48V384a8.48,8.48,0,0,1,8.48-8.48h102.5a8.48,8.48,0,0,1,8.48,8.48Z"/><path class="cls-1" d="M308.05,0H205.55A25.58,25.58,0,0,0,180,25.55v102.5a25.32,25.32,0,0,0,.35,4.2c1.55-6.77,8.77-12.62,16.72-9.06V25.55a8.48,8.48,0,0,1,8.48-8.48h102.5a8.48,8.48,0,0,1,8.48,8.48V124A55.27,55.27,0,0,1,327,129.67a12.94,12.94,0,0,1,5.17,6.67,25.35,25.35,0,0,0,1.39-8.29V25.55A25.58,25.58,0,0,0,308.05,0Z"/><path class="cls-1" d="M332,374.94a20.62,20.62,0,0,1-2.62,5.1c-3.2,4.62-8.06,6.54-12.8,5.51v100.9a8.48,8.48,0,0,1-8.48,8.48H205.55a8.48,8.48,0,0,1-8.48-8.48V388.26a12.55,12.55,0,0,1-9.25,1.28,11.45,11.45,0,0,1-7.77-7.14c0,.51-.05,1-.05,1.55v102.5A25.58,25.58,0,0,0,205.55,512h102.5a25.58,25.58,0,0,0,25.55-25.55V384A25.41,25.41,0,0,0,332,374.94Z"/><path class="cls-1" d="M486.05,0H383.55A25.58,25.58,0,0,0,358,25.55v102.5a25.58,25.58,0,0,0,25.55,25.55h102.5a25.58,25.58,0,0,0,25.55-25.55V25.55A25.58,25.58,0,0,0,486.05,0Zm8.48,128.05a8.48,8.48,0,0,1-8.48,8.48H383.55a8.48,8.48,0,0,1-8.48-8.48V25.55a8.48,8.48,0,0,1,8.48-8.48h102.5a8.48,8.48,0,0,1,8.48,8.48Z"/><path class="cls-1" d="M486.05,179.2h-100l.37.34c4.32,4.32,4.81,12.38.2,16.73h99.39a8.48,8.48,0,0,1,8.48,8.48v102.5a8.48,8.48,0,0,1-8.48,8.48H385.89A83.11,83.11,0,0,1,381.33,328a9.16,9.16,0,0,1-3.66,4.07,25.37,25.37,0,0,0,5.88.69h102.5a25.58,25.58,0,0,0,25.55-25.55V204.75A25.58,25.58,0,0,0,486.05,179.2Z"/><path id="Search" class="cls-2" d="M553.93,512.17a42.66,42.66,0,0,1-72.83,30.16l-112-112a10.67,10.67,0,0,1,0-15.08l15.08-15.08-23.65-23.66a159.29,159.29,0,0,1-105.26,39.66c-88.23,0-160-71.78-160-160s71.77-160,160-160,160,71.77,160,160a159.29,159.29,0,0,1-39.66,105.26l23.66,23.65L414.35,370a10.67,10.67,0,0,1,15.08,0l112,112A42.32,42.32,0,0,1,553.93,512.17Zm-155.47-256c0-79-64.23-143.2-143.19-143.2s-143.2,64.24-143.2,143.2,64.24,143.19,143.2,143.19S398.46,335.12,398.46,256.17Zm139.44,260a22.47,22.47,0,0,0-6.63-16L420.43,389.33l-32,32L499.26,532.18c8.56,8.55,23.46,8.55,32,0a22.48,22.48,0,0,0,6.63-16Z"/><g id="Layer_1-2" data-name="Layer 1"><path class="cls-1" d="M164.83,327.15a19.65,19.65,0,0,0,19.62,19.62H330a19.64,19.64,0,0,0,19.62-19.62V181.63A19.65,19.65,0,0,0,330,162H184.45a19.65,19.65,0,0,0-19.62,19.62Zm163.6,4.75H186a6.29,6.29,0,0,1-6.29-6.29v-10l57.91-46.33,54.07,48.05a6.45,6.45,0,1,0,8.57-9.65l-14.78-13.14,16.35-12.26,32.9,32.9v10.41a6.29,6.29,0,0,1-6.29,6.29ZM186,176.88H328.43a6.29,6.29,0,0,1,6.29,6.29V296.93L307,269.2a6.44,6.44,0,0,0-8.44-.6l-22.93,17.2L242.12,256a6.45,6.45,0,0,0-8.32-.22l-54.1,43.28V183.17A6.29,6.29,0,0,1,186,176.88Z"/><path class="cls-1" d="M289.51,241.47a25.84,25.84,0,1,0-25.84-25.83A25.85,25.85,0,0,0,289.51,241.47Zm0-38.75a12.92,12.92,0,1,1-12.92,12.92A12.93,12.93,0,0,1,289.51,202.72Z"/></g></svg>