<svg id="Layer_1" data-name="Layer 1" xmlns="http://www.w3.org/2000/svg" viewBox="0 0 512 509.8"><defs><style>.cls-1{fill:#316fea;}</style></defs><g id="_004---Money-Off" data-name="004---Money-Off"><path id="Shape" class="cls-1" d="M486.4,1.11H25.6A25.6,25.6,0,0,0,0,26.71V248.58a25.6,25.6,0,0,0,25.6,25.6H486.4a25.6,25.6,0,0,0,25.6-25.6V26.71A25.6,25.6,0,0,0,486.4,1.11Zm8.53,247.47a8.53,8.53,0,0,1-8.53,8.53H25.6a8.53,8.53,0,0,1-8.53-8.53V26.71a8.53,8.53,0,0,1,8.53-8.53H486.4a8.53,8.53,0,0,1,8.53,8.53Z" transform="translate(0 -1.11)"/><path id="Shape-2" data-name="Shape" class="cls-1" d="M469.33,77.91A34.13,34.13,0,0,1,435.2,43.78a8.53,8.53,0,0,0-8.53-8.54H85.33a8.53,8.53,0,0,0-8.53,8.54A34.14,34.14,0,0,1,42.67,77.91a8.53,8.53,0,0,0-8.54,8.53v102.4a8.54,8.54,0,0,0,8.54,8.54A34.13,34.13,0,0,1,76.8,231.51,8.53,8.53,0,0,0,85.33,240H426.67a8.53,8.53,0,0,0,8.53-8.53,34.13,34.13,0,0,1,34.13-34.13,8.54,8.54,0,0,0,8.54-8.54V86.44A8.53,8.53,0,0,0,469.33,77.91ZM93.18,223a51.2,51.2,0,0,0-42-42V93.87a51.21,51.21,0,0,0,42-41.9H199.51a102.39,102.39,0,0,0,0,170.66ZM256,52.31a85.34,85.34,0,1,1-85.33,85.33A85.33,85.33,0,0,1,256,52.31ZM460.8,181a51.2,51.2,0,0,0-42,42H312.49a102.4,102.4,0,0,0,0-170.67H418.82a51.2,51.2,0,0,0,42,41.56Z" transform="translate(0 -1.11)"/><path id="Shape-3" data-name="Shape" class="cls-1" d="M256,180.31a17.07,17.07,0,0,1-17.07-17.07,8.53,8.53,0,0,0-17.06,0,34.14,34.14,0,0,0,25.6,33v9.81a8.53,8.53,0,1,0,17.06,0v-9.81a34.13,34.13,0,0,0-8.53-67,17.07,17.07,0,1,1,17.07-17.07,8.53,8.53,0,1,0,17.06,0,34.15,34.15,0,0,0-25.6-32.94V69.38a8.53,8.53,0,1,0-17.06,0V79.1A34.14,34.14,0,0,0,256,146.18a17.07,17.07,0,1,1,0,34.13Z" transform="translate(0 -1.11)"/><path id="Shape-4" data-name="Shape" class="cls-1" d="M157.87,368a12.8,12.8,0,0,0,12.8-12.8V304a12.8,12.8,0,0,0-12.8-12.8H81.07A12.8,12.8,0,0,0,68.27,304v51.2A12.8,12.8,0,0,0,81.07,368ZM85.33,308.31H153.6V351H85.33Z" transform="translate(0 -1.11)"/><path id="Shape-5" data-name="Shape" class="cls-1" d="M294.4,402.18a12.8,12.8,0,0,0,12.8-12.8V304a12.8,12.8,0,0,0-12.8-12.8H217.6A12.8,12.8,0,0,0,204.8,304v85.34a12.8,12.8,0,0,0,12.8,12.8Zm-72.53-93.87h68.26v76.8H221.87Z" transform="translate(0 -1.11)"/><path id="Shape-6" data-name="Shape" class="cls-1" d="M430.93,291.24h-76.8a12.8,12.8,0,0,0-12.8,12.8v115.2h-7.59a12.8,12.8,0,0,0-9.47,21.25l58.79,66.13a12.8,12.8,0,0,0,19.12,0l58.62-66.13a12.8,12.8,0,0,0-9.56-21.25h-7.51V304a12.8,12.8,0,0,0-12.8-12.8Zm-38.4,200.45L343.3,436.31h2.3a12.8,12.8,0,0,0,12.8-12.8V308.31h68.27v115.2a12.8,12.8,0,0,0,12.8,12.8h2.3Z" transform="translate(0 -1.11)"/></g></svg>