<svg id="Layer_1" data-name="Layer 1" xmlns="http://www.w3.org/2000/svg" viewBox="0 0 486.38 488.17"><defs><style>.cls-1,.cls-2{fill:#316fea;}.cls-2{stroke:#316fea;stroke-miterlimit:10;stroke-width:6px;}</style></defs><g id="Box"><path class="cls-1" d="M448,21.33H64A42.73,42.73,0,0,0,21.33,64V448A42.73,42.73,0,0,0,64,490.67H357.42a64,64,0,0,1-11.22-13,26.68,26.68,0,0,1-3.6-8.34H64A21.34,21.34,0,0,1,42.67,448V64A21.34,21.34,0,0,1,64,42.67H448A21.34,21.34,0,0,1,469.33,64V343.62a31.11,31.11,0,0,1,10.47,10.71c1,2.48,2.09,4.95,3.13,7.42.17.61.31,1.23.43,1.84.56.48,1.09,1,1.59,1.46a28.29,28.29,0,0,1,5.72,8.18V64A42.73,42.73,0,0,0,448,21.33Z" transform="translate(-21.33 -21.33)"/><path class="cls-1" d="M476.47,479.74a42.54,42.54,0,0,0,14.18-31.19C488,459.78,483.47,470.57,476.47,479.74Z" transform="translate(-21.33 -21.33)"/></g><path class="cls-2" d="M411,319.06a93.72,93.72,0,1,0,93.72,93.72A93.83,93.83,0,0,0,411,319.06Zm0,173.56a79.84,79.84,0,1,1,79.83-79.84A79.93,79.93,0,0,1,411,492.62Zm32.42-59.22c0,13.17-10.93,24.2-25.48,26.91v6.05a6.94,6.94,0,0,1-13.88,0v-6c-10.49-1.92-19.24-8.11-23.26-16.86a6.94,6.94,0,1,1,12.62-5.79c2.58,5.61,9.64,9.39,17.58,9.39,10.05,0,18.54-6.26,18.54-13.67s-8.49-13.68-18.54-13.68c-17.88,0-32.42-12.36-32.42-27.55,0-13.17,10.93-24.21,25.48-26.92V359.2a6.94,6.94,0,0,1,13.88,0v6.05c11.64,2.17,21.2,9.67,24.37,19.71a6.94,6.94,0,1,1-13.24,4.18c-1.95-6.17-9.55-10.65-18.07-10.65-10.05,0-18.53,6.26-18.53,13.68S401,405.84,411,405.84c17.88,0,32.42,12.36,32.42,27.56Z" transform="translate(-21.33 -21.33)"/><path class="cls-1" d="M372.33,206.23a9.28,9.28,0,0,0-6.21-2.38H318V42.75S318,28,318,24.18l-122.58,0-.26,179.69H147a9.29,9.29,0,0,0-6.9,15.5L249.64,341.06a9.57,9.57,0,0,0,13.53.27l.27-.27L373,219.35A9.29,9.29,0,0,0,372.33,206.23ZM256.54,321l-88.69-98.54h36.6a9.28,9.28,0,0,0,9.29-9.28V42.75h85.6V213.14a9.28,9.28,0,0,0,9.29,9.28h36.6Z" transform="translate(-21.33 -21.33)"/></svg>