<svg id="Isolation_Mode" data-name="Isolation Mode" xmlns="http://www.w3.org/2000/svg" viewBox="0 0 238.13 205.08"><defs><style>.cls-1{fill:none;}.cls-1,.cls-2{stroke:#316fea;stroke-miterlimit:10;stroke-width:4px;}</style></defs><path class="cls-1" d="M491,556A96.91,96.91,0,1,1,394.06,459,96.91,96.91,0,0,1,491,556Z" transform="translate(-275.1 -453.37)"/><path class="cls-2" d="M394.06,654.4A98.45,98.45,0,1,1,492.52,556,98.56,98.56,0,0,1,394.06,654.4Zm0-193.81A95.36,95.36,0,1,0,489.43,556,95.47,95.47,0,0,0,394.06,460.59Z" transform="translate(-275.1 -453.37)"/><polygon class="cls-1" points="95.95 64.36 166.74 105.23 95.95 146.1 95.95 64.36"/><path class="cls-2" d="M371.05,600.63a1.19,1.19,0,0,1-.58-.15,1.18,1.18,0,0,1-.58-1V517.73a1.16,1.16,0,0,1,.58-1,1.15,1.15,0,0,1,1.16,0l70.79,40.87a1.16,1.16,0,0,1,.58,1,1.18,1.18,0,0,1-.58,1l-70.79,40.87A1.19,1.19,0,0,1,371.05,600.63Zm1.17-80.88v77.7l67.29-38.85Z" transform="translate(-275.1 -453.37)"/><path class="cls-2" d="M509.68,557.49a1.54,1.54,0,0,1-1.54-1.54,113.16,113.16,0,0,0-55.29-97.71,1.55,1.55,0,1,1,1.59-2.65A116.24,116.24,0,0,1,511.23,556,1.54,1.54,0,0,1,509.68,557.49Z" transform="translate(-275.1 -453.37)"/><path class="cls-2" d="M334.54,656.44a1.53,1.53,0,0,1-.8-.22A116.26,116.26,0,0,1,277.1,556a1.55,1.55,0,1,1,3.09,0,113.2,113.2,0,0,0,55.15,97.62,1.56,1.56,0,0,1,.52,2.13A1.54,1.54,0,0,1,334.54,656.44Z" transform="translate(-275.1 -453.37)"/></svg>