<svg id="Layer_1" data-name="Layer 1" xmlns="http://www.w3.org/2000/svg" viewBox="0 0 491.89 492.01"><defs><style>.cls-1{fill:#316fea;stroke:#316fea;stroke-miterlimit:10;}</style></defs><path class="cls-1" d="M459.92,277.67a51.64,51.64,0,0,0-64.72,22.65l-43.32-17.84A25,25,0,0,0,307,264l-45-18.54L307,226.74a25,25,0,0,0,44.77-18.65l43.24-18a51.6,51.6,0,1,0-4.6-11.06l-43.25,18a25,25,0,0,0-44.78,18.65l-44.93,18.72,18.53-45a25.63,25.63,0,0,0,3.71.28,25,25,0,0,0,14.77-45.13l17.85-43.35a51.58,51.58,0,1,0-11.07-4.56L283.36,140a25,25,0,0,0-18.47,44.85l-18.54,45-18.73-44.94A25,25,0,0,0,209,140.14L191,96.88a51.69,51.69,0,1,0-11,4.61l18,43.26a25,25,0,0,0,18.65,44.78l18.72,44.93-45-18.54a25,25,0,0,0-44.85-18.47L102.1,179.6a51.51,51.51,0,1,0-4.55,11.08l43.31,17.84A25,25,0,0,0,185.7,227l45,18.55-44.94,18.72A25,25,0,0,0,141,282.9l-43.25,18A51.55,51.55,0,1,0,102.37,312l43.26-18A25,25,0,0,0,190.4,275.3l44.93-18.72-18.54,45a25,25,0,0,0-18.47,44.85l-17.85,43.34a51.57,51.57,0,1,0,11.08,4.56L209.39,351a24.29,24.29,0,0,0,3.71.28,25,25,0,0,0,14.76-45.12l18.54-45,18.73,44.95a25,25,0,0,0,18.64,44.77l18,43.25a51.56,51.56,0,1,0,11.06-4.61l-18-43.26a25,25,0,0,0-18.65-44.77l-18.72-44.93,45,18.53a25,25,0,0,0,44.85,18.47l43.34,17.85a51.57,51.57,0,1,0,69.29-33.72ZM424.73,128.3a39.34,39.34,0,1,1-21.49,21.43A39.6,39.6,0,0,1,424.73,128.3ZM315,206.94a13,13,0,1,1,0,9.95,13,13,0,0,1,0-9.95ZM289.68,66.81A39.61,39.61,0,1,1,311.16,88.2,39.59,39.59,0,0,1,289.68,66.81Zm-22.06,92.94a13,13,0,1,1,7.08,17,13,13,0,0,1-7.08-17ZM129.17,67.14a39.34,39.34,0,1,1,21.44,21.49,39.62,39.62,0,0,1-21.44-21.49Zm78.64,109.72a13,13,0,1,1,10,0A13,13,0,0,1,207.81,176.86ZM67.69,202.19a39.6,39.6,0,1,1,21.39-21.48A39.63,39.63,0,0,1,67.69,202.19Zm92.93,22.05a13,13,0,1,1,17-7.08,13,13,0,0,1-17,7.08ZM68,362.69A39.33,39.33,0,1,1,89.5,341.26,39.61,39.61,0,0,1,68,362.69ZM177.73,284a13,13,0,1,1,0-10,13,13,0,0,1,0,10Zm25.33,140.14a39.7,39.7,0,1,1-21.48-21.39A39.7,39.7,0,0,1,203.06,424.18Zm22.05-92.93a13,13,0,1,1-7.07-17,13,13,0,0,1,7.07,17Zm138.45,92.61A39.6,39.6,0,1,1,327,399.48a39.59,39.59,0,0,1,36.6,24.38ZM284.92,314.13a12.92,12.92,0,1,1-4.95-1A12.92,12.92,0,0,1,284.92,314.13Zm47.25-23.35a13,13,0,1,1,7-7.06,13,13,0,0,1-7,7.06ZM476.9,340.44a39.6,39.6,0,1,1-.06-30.31A39.6,39.6,0,0,1,476.9,340.44Z" transform="translate(-0.49 0.5)"/></svg>