<svg id="Isolation_Mode" data-name="Isolation Mode" xmlns="http://www.w3.org/2000/svg" viewBox="0 0 512 512"><defs><style>.cls-1{fill:#316fea;}</style></defs><path class="cls-1" d="M398.33,421.83a34.6,34.6,0,0,1-34.53,34.53H346.2v41.07h125a26.38,26.38,0,0,0,26.25-26.22v-125H456.35v17.6a34.54,34.54,0,0,1-69.08,0V346.2H346.2v41.07h17.6a34.6,34.6,0,0,1,34.53,34.56ZM14.57,165.8H55.65V148.2a34.54,34.54,0,0,1,69.08,0v17.6H165.8V117.44a7.31,7.31,0,0,1,7.32-7.28H198a20,20,0,0,0,0-39.94H173.11a7.31,7.31,0,0,1-7.31-7.29V14.54h-125A26.38,26.38,0,0,0,14.57,40.82Zm48.36,14.6H14.57V239A7.29,7.29,0,1,1,0,239V40.82A40.89,40.89,0,0,1,40.82,0H172.69l0,0h.39Q322.22,0,471.38,0A40.78,40.78,0,0,1,512,40.65V172.49l0,.08V279a7.29,7.29,0,0,1-14.57,0v-98.6H456.35V198a34.54,34.54,0,0,1-69.08,0V180.39H346.2v41.08h17.6a34.54,34.54,0,0,1,0,69.08H346.2v41.08h48.36a7.28,7.28,0,0,1,7.28,7.28V363.8a20,20,0,0,0,39.94,0V338.91a7.28,7.28,0,0,1,7.29-7.28h48.36V273A7.29,7.29,0,0,1,512,273q0,99.12,0,198.21A40.78,40.78,0,0,1,471.21,512H40.82A40.89,40.89,0,0,1,0,471.21V223a7.29,7.29,0,1,1,14.57,0V331.63H55.65V314a34.54,34.54,0,0,1,69.08,0v17.6H165.8V290.55H148.2a34.54,34.54,0,0,1,0-69.08h17.6V180.4H117.44a7.3,7.3,0,0,1-7.28-7.29V148.19a20,20,0,0,0-39.92,0v24.92a7.32,7.32,0,0,1-7.31,7.29ZM180.4,14.57V55.64H198a34.55,34.55,0,0,1,0,69.09H180.4V165.8h41.07V148.2a34.55,34.55,0,0,1,69.09,0v17.6h41.07V117.44a7.28,7.28,0,0,1,7.29-7.28h24.89a20,20,0,0,0,0-39.94H338.92a7.29,7.29,0,0,1-7.29-7.29V14.57ZM346.2,124.73V165.8h48.36a7.31,7.31,0,0,1,7.28,7.31V198a20,20,0,0,0,40,0V173.11a7.31,7.31,0,0,1,7.28-7.31h48.39V40.71a26.43,26.43,0,0,0-26.14-26.17H346.2v41.1h17.6a34.55,34.55,0,0,1,0,69.09ZM331.63,346.2H290.55v17.6a34.54,34.54,0,0,1-69.08,0V346.2H180.4v41.07H198a34.55,34.55,0,0,1,0,69.09H180.4v41.07H331.63V449.07a7.28,7.28,0,0,1,7.28-7.28H363.8a20,20,0,0,0,0-40H338.91a7.28,7.28,0,0,1-7.28-7.28V346.2ZM228.76,180.4H180.4v48.36a7.3,7.3,0,0,1-7.29,7.28H148.2a20,20,0,0,0,0,39.94h24.91a7.3,7.3,0,0,1,7.29,7.29v48.36h48.36a7.28,7.28,0,0,1,7.28,7.29V363.8a20,20,0,0,0,39.94,0V338.92a7.29,7.29,0,0,1,7.29-7.29h48.36V283.27a7.28,7.28,0,0,1,7.28-7.29H363.8a20,20,0,0,0,0-39.94H338.91a7.28,7.28,0,0,1-7.28-7.28V180.4H283.27a7.31,7.31,0,0,1-7.29-7.29V148.2a20,20,0,0,0-39.94,0v24.91A7.3,7.3,0,0,1,228.76,180.4Zm-187.94,317h125V449.07a7.31,7.31,0,0,1,7.31-7.28H198a20,20,0,0,0,0-40H173.11a7.31,7.31,0,0,1-7.31-7.28V346.2H117.44a7.28,7.28,0,0,1-7.28-7.29V314a20,20,0,0,0-39.94,0v24.88a7.29,7.29,0,0,1-7.29,7.29H14.57v125a26.32,26.32,0,0,0,26.25,26.22Z" transform="translate(0 0)"/></svg>