<svg id="Layer_1" data-name="Layer 1" xmlns="http://www.w3.org/2000/svg" viewBox="0 0 429.44 639.39"><defs><style>.cls-1{fill:#d3daef;}</style></defs><path class="cls-1" d="M504.68,503.54C386.42,503.54,290,407.09,290,288.82S386.42,74.1,504.68,74.1,719.4,170.55,719.4,288.82C719.4,407.43,623,503.54,504.68,503.54Zm0-322.08c-59.3,0-107.36,48.4-107.36,107.36s48.4,107.36,107.36,107.36C564,396.18,612,347.78,612,288.82S564,181.46,504.68,181.46Z" transform="translate(-289.96 -74.1)"/><path class="cls-1" d="M347.9,691s28.63-21.48,65.1-21.48c42.26,0,79.41,44,156.1,44,80.78,0,129.17-61.69,129.17-61.69l-38.51-61.35s-28.63,21.47-65.1,21.47c-42.26,0-79.41-44-156.1-44-80.77,0-129.17,61.69-129.17,61.69Z" transform="translate(-289.96 -74.1)"/></svg>