<svg id="Capa_1" data-name="Capa 1" xmlns="http://www.w3.org/2000/svg" viewBox="0 0 483.19 512"><defs><style>.cls-1{fill:#316fea;}</style></defs><path class="cls-1" d="M256,84.17c-95.39,0-173,77.61-173,173s77.61,173,173,173,173-77.6,173-173S351.39,84.17,256,84.17Zm0,326.23c-84.49,0-153.23-68.74-153.23-153.23S171.51,103.94,256,103.94s153.23,68.74,153.23,153.23S340.49,410.4,256,410.4Z" transform="translate(-14.4)"/><path class="cls-1" d="M256,118.77A138.32,138.32,0,0,0,185.55,138l10.08,17a118.69,118.69,0,0,1,172.3,141.53l18.65,6.57a138,138,0,0,0,7.82-46C394.4,180.86,332.31,118.77,256,118.77Z" transform="translate(-14.4)"/><path class="cls-1" d="M163.75,331.77a118.66,118.66,0,0,1,15.72-165.25l-12.76-15.1A138.43,138.43,0,0,0,225.49,392.2l4.34-19.29A119.15,119.15,0,0,1,163.75,331.77Z" transform="translate(-14.4)"/><path class="cls-1" d="M277.76,373.81a119.83,119.83,0,0,1-21.76,2v19.77a139.51,139.51,0,0,0,25.36-2.32Z" transform="translate(-14.4)"/><path class="cls-1" d="M361,312.53A118.5,118.5,0,0,1,296,368.89l6.67,18.62a138.28,138.28,0,0,0,75.76-65.74Z" transform="translate(-14.4)"/><path class="cls-1" d="M307.31,242.58l-65.38-37.75a21,21,0,0,0-31.57,18.23v75.5a20.82,20.82,0,0,0,10.52,18.22,20.84,20.84,0,0,0,21,0L307.31,279a21,21,0,0,0,0-36.45Zm-9.89,19.33L232,299.66a1.28,1.28,0,0,1-1.91-1.1v-75.5a1.16,1.16,0,0,1,.64-1.1,1.28,1.28,0,0,1,.64-.19,1.17,1.17,0,0,1,.63.19l65.38,37.75a1.15,1.15,0,0,1,.64,1.1A1.16,1.16,0,0,1,297.42,261.91Z" transform="translate(-14.4)"/><path class="cls-1" d="M201,473.71l-3.47,14.8c5.17,1.21,10.45,2.27,15.71,3.13l2.46-15C210.76,475.83,205.82,474.84,201,473.71Z" transform="translate(-14.4)"/><path class="cls-1" d="M250.23,0,239.48,10.75l9,9A237.66,237.66,0,0,0,32.6,348.57l14-5.85A222.4,222.4,0,0,1,250.17,34.91l-10.69,10.7,10.75,10.75,28.18-28.18Z" transform="translate(-14.4)"/><path class="cls-1" d="M54,358.56l-13.53,6.93a237.58,237.58,0,0,0,51,66.91l10.27-11.21A222.24,222.24,0,0,1,54,358.56Z" transform="translate(-14.4)"/><path class="cls-1" d="M110.73,429l-9.66,11.74a238.14,238.14,0,0,0,41.46,27.41l7-13.49A223.14,223.14,0,0,1,110.73,429Z" transform="translate(-14.4)"/><path class="cls-1" d="M160.57,460l-6.26,13.86a238,238,0,0,0,29.45,11l4.36-14.57A219.78,219.78,0,0,1,160.57,460Z" transform="translate(-14.4)"/><path class="cls-1" d="M298.78,19.79l-2.46,15c4.92.81,9.86,1.79,14.7,2.93l3.47-14.8C309.32,21.7,304,20.65,298.78,19.79Z" transform="translate(-14.4)"/><path class="cls-1" d="M497.6,254.19a236.18,236.18,0,0,0-18.2-91.33l-14,5.85a222.38,222.38,0,0,1-203.61,307.8l10.13-10.12-10.75-10.75L233,483.82,261.14,512l10.75-10.75-9.54-9.54A237.53,237.53,0,0,0,497.6,254.19Z" transform="translate(-14.4)"/><path class="cls-1" d="M420.51,79,410.24,90.24A222.29,222.29,0,0,1,458,152.87l13.53-6.94A237.68,237.68,0,0,0,420.51,79Z" transform="translate(-14.4)"/><path class="cls-1" d="M369.47,43.29l-7,13.49a223.71,223.71,0,0,1,38.81,25.66l9.66-11.73A238.2,238.2,0,0,0,369.47,43.29Z" transform="translate(-14.4)"/><path class="cls-1" d="M328.24,26.58l-4.36,14.57a221.31,221.31,0,0,1,27.55,10.28l6.26-13.85A238,238,0,0,0,328.24,26.58Z" transform="translate(-14.4)"/></svg>