<svg id="Layer_1" data-name="Layer 1" xmlns="http://www.w3.org/2000/svg" viewBox="0 0 512 512"><defs><style>.cls-1{fill:#316fea;}</style></defs><path class="cls-1" d="M332.78,226.75H179.22a39.61,39.61,0,0,0-39.55,39.56V472.45A39.6,39.6,0,0,0,179.22,512H332.78a39.59,39.59,0,0,0,39.55-39.55V266.31a39.6,39.6,0,0,0-39.55-39.56Zm23.55,245.7A23.57,23.57,0,0,1,332.78,496H179.22a23.58,23.58,0,0,1-23.55-23.55V266.31a23.58,23.58,0,0,1,23.55-23.55H332.78a23.57,23.57,0,0,1,23.55,23.55ZM326.64,263.56H185.36a15.68,15.68,0,0,0-15.65,15.66v37.26a15.67,15.67,0,0,0,15.65,15.65H326.64a15.67,15.67,0,0,0,15.65-15.65V279.22A15.68,15.68,0,0,0,326.64,263.56Zm-.35,52.57H185.71V279.56H326.29ZM212.88,368.35a8,8,0,0,1-8,8H178.46a8,8,0,0,1,0-16h26.42A8,8,0,0,1,212.88,368.35Zm128.66,0a8,8,0,0,1-8,8H307.12a8,8,0,0,1,0-16h26.42A8,8,0,0,1,341.54,368.35Zm-64.33,0a8,8,0,0,1-8,8H242.79a8,8,0,1,1,0-16h26.42A8,8,0,0,1,277.21,368.35ZM212.88,417.1a8,8,0,0,1-8,8H178.46a8,8,0,0,1,0-16h26.42A8,8,0,0,1,212.88,417.1Zm128.66,0a8,8,0,0,1-8,8H307.12a8,8,0,0,1,0-16h26.42A8,8,0,0,1,341.54,417.1Zm-64.33,0a8,8,0,0,1-8,8H242.79a8,8,0,1,1,0-16h26.42A8,8,0,0,1,277.21,417.1Zm-64.33,48.75a8,8,0,0,1-8,8H178.46a8,8,0,0,1,0-16h26.42A8,8,0,0,1,212.88,465.85Zm128.66,0a8,8,0,0,1-8,8H307.12a8,8,0,0,1,0-16h26.42A8,8,0,0,1,341.54,465.85Zm-64.33,0a8,8,0,0,1-8,8H242.79a8,8,0,1,1,0-16h26.42A8,8,0,0,1,277.21,465.85ZM256,177.2a8,8,0,0,1,8,8v18.6a8,8,0,0,1-16,0V185.2A8,8,0,0,1,256,177.2ZM186.72,128,252,165.69a8,8,0,0,0,8,0L325.28,128a8,8,0,0,0,4-6.93V45.69a8,8,0,0,0-4-6.93L260,1.07a8,8,0,0,0-8,0L186.72,38.76a8,8,0,0,0-4,6.93v75.38a8,8,0,0,0,4,6.93Zm12-68.45L248,88v56.9l-49.28-28.45ZM264,144.9V88l49.28-28.45v56.9ZM256,17.24l49.28,28.45L256,74.14,206.72,45.69Zm190.72,282v29.4a8,8,0,0,1-2.34,5.66L402.68,376a8,8,0,0,1-11.32-11.31l39.36-39.36V299.19a8,8,0,0,1,16,0Zm61.28-160L442.72,101.5a8,8,0,0,0-8,0l-65.28,37.69a8,8,0,0,0-4,6.93V221.5a8,8,0,0,0,4,6.93l65.28,37.69a8,8,0,0,0,8,0L508,228.43a8,8,0,0,0,4-6.93V146.12a8,8,0,0,0-4-6.93Zm-69.28-21.52L488,146.12l-49.28,28.45-49.28-28.45ZM381.44,160l49.28,28.45v56.9l-49.28-28.45Zm65.28,85.35v-56.9L496,160v56.9ZM120.64,364.63A8,8,0,0,1,109.4,376l-.07-.07-41.7-41.7a8,8,0,0,1-2.35-5.66v-29.4a8,8,0,0,1,16,0v26.09ZM73.28,267.19a8,8,0,0,0,4-1.07l65.28-37.69a8,8,0,0,0,4-6.93V146.12a8,8,0,0,0-4-6.93L77.28,101.5a8,8,0,0,0-8,0L4,139.19a8,8,0,0,0-4,6.93V221.5a8,8,0,0,0,4,6.93l65.28,37.69A8,8,0,0,0,73.28,267.19Zm8-21.86v-56.9L130.56,160v56.9Zm-8-127.66,49.29,28.45L73.28,174.57,24,146.12ZM16,160l49.28,28.45v56.9L16,216.88Z" transform="translate(0 0)"/></svg>