<svg id="Capa_1" data-name="Capa 1" xmlns="http://www.w3.org/2000/svg" viewBox="0 0 512 512"><path d="M462,92H420V50A50.06,50.06,0,0,0,370,0H50A50.06,50.06,0,0,0,0,50V370a50.06,50.06,0,0,0,50,50H92v42a50.06,50.06,0,0,0,50,50H462a50.06,50.06,0,0,0,50-50V142A50.06,50.06,0,0,0,462,92ZM50,400a30,30,0,0,1-30-30V50A30,30,0,0,1,50,20H370a30,30,0,0,1,30,30V370a30,30,0,0,1-30,30Zm442,62a30,30,0,0,1-30,30H142a30,30,0,0,1-30-30V420H370a50.06,50.06,0,0,0,50-50V112h42a30,30,0,0,1,30,30Z" transform="translate(0)"/><path d="M142.25,457H142a10,10,0,0,0,0,20h.27a10,10,0,0,0,0-20Z" transform="translate(0)"/><path d="M462,457H171a10,10,0,0,0,0,20H462a10,10,0,0,0,0-20Z" transform="translate(0)"/><path d="M110,35h-.27a10,10,0,1,0,0,20H110a10,10,0,1,0,0-20Z" transform="translate(0)"/><path d="M81,35H50a10,10,0,0,0,0,20H81a10,10,0,0,0,0-20Z" transform="translate(0)"/><path d="M293.48,201.13a33.84,33.84,0,0,0-15.92-20.68l-48.92-28.24c-.49-.32-1-.62-1.48-.91l-48.79-28.17a34.23,34.23,0,0,0-53,28.59V268.33a12.09,12.09,0,0,0,.07,1.21,34.18,34.18,0,0,0,51.27,28.37l50.49-29.16a9,9,0,0,0,.83-.53l49.21-28.41a34.11,34.11,0,0,0,16.28-38.68Zm-20.69,15.93a14.11,14.11,0,0,1-5.37,5.31l-.15.08-50.13,28.94a9,9,0,0,0-.83.53l-49.65,28.67a14.19,14.19,0,0,1-21.28-12.25,8.44,8.44,0,0,0,0-1V151.72h0a14.24,14.24,0,0,1,22.16-11.81l.6.38,49.09,28.34c.25.14.48.29.72.45s.33.21.5.31l49.18,28.39a14.12,14.12,0,0,1,5.21,19.28Z" transform="translate(0)"/></svg>