<svg id="Capa_1" data-name="Capa 1" xmlns="http://www.w3.org/2000/svg" viewBox="0 0 512 512"><defs><style>.cls-1{fill:#316fea;}</style></defs><circle class="cls-1" cx="296" cy="356" r="10"/><circle class="cls-1" cx="256" cy="256" r="10"/><circle class="cls-1" cx="256" cy="356" r="10"/><circle class="cls-1" cx="216" cy="356" r="10"/><path class="cls-1" d="M256,0C118,0,0,117.71,0,256v20a10,10,0,0,0,10,10H48.16A208.12,208.12,0,0,0,61.1,333.89L33.15,350a10,10,0,0,0-3.66,13.66l20,34.64A10,10,0,0,0,63.15,402l28-16.17a210.64,210.64,0,0,0,35,35l-16.17,28a10,10,0,0,0,3.66,13.66l34.64,20A10,10,0,0,0,162,478.85l16.13-28A208.12,208.12,0,0,0,226,463.84V502a10,10,0,0,0,10,10h40a10,10,0,0,0,10-10V463.84a208,208,0,0,0,47.89-12.94l16.13,28a10,10,0,0,0,13.66,3.66l34.64-20A10,10,0,0,0,402,448.85l-16.17-28a210.26,210.26,0,0,0,35-35l28,16.17a10,10,0,0,0,13.66-3.66l20-34.64A10,10,0,0,0,478.85,350l-27.94-16.13A208.63,208.63,0,0,0,463.85,286H502a10,10,0,0,0,10-10V256C512,118.09,394.39,0,256,0ZM47.85,147.38l29.94,17.28a10,10,0,0,0,10-17.32l-29.7-17.15a248,248,0,0,1,72.14-72l17.11,29.63a10,10,0,1,0,17.32-10L147.42,47.94A229.45,229.45,0,0,1,246,20.24V56a10,10,0,0,0,20,0V20.24a229.45,229.45,0,0,1,98.58,27.7L347.34,77.79a10,10,0,0,0,17.32,10l17.11-29.63a248.09,248.09,0,0,1,72.14,72l-29.7,17.15a10,10,0,0,0,10,17.32l29.93-17.28A230.57,230.57,0,0,1,490,226H423.34C409.26,147.42,340.86,86,256,86c-82.62,0-153,59.59-167.35,140H22a230.5,230.5,0,0,1,25.82-78.62ZM492,266H455a10,10,0,0,0-9.95,9,188.36,188.36,0,0,1-15.93,59,10,10,0,0,0,4.12,12.77l27,15.56-10,17.32-27-15.59a10,10,0,0,0-13.11,2.81,190.74,190.74,0,0,1-43.19,43.19,10,10,0,0,0-2.81,13.11l15.59,27-17.32,10-15.56-27A10,10,0,0,0,334,429.12,188.61,188.61,0,0,1,275,445a10,10,0,0,0-9,9.95v37H246V455a10,10,0,0,0-9-9.95,188.36,188.36,0,0,1-59-15.93,10,10,0,0,0-12.77,4.12l-15.56,27-17.32-10,15.59-27a10,10,0,0,0-2.81-13.11,190.74,190.74,0,0,1-43.19-43.19,10,10,0,0,0-13.11-2.81l-27,15.59-10-17.32,27-15.56A10,10,0,0,0,82.88,334,188.61,188.61,0,0,1,67,275,10,10,0,0,0,57,266H20V256q0-5,.23-10H86.3c-.19,3.34-.3,6.68-.3,10,0,93.74,76.26,170,170,170A170.18,170.18,0,0,0,338,405a10,10,0,1,0-9.66-17.51A150.16,150.16,0,0,1,256,406c-82.71,0-150-67.29-150-150,0-82.91,67.34-150,150-150a148.91,148.91,0,0,1,97.46,36L265,206.82A50,50,0,1,0,305.18,247L370,158.56a150.08,150.08,0,0,1,17.41,169.78A10,10,0,1,0,405,338,170.18,170.18,0,0,0,426,256c0-3.33-.11-6.67-.3-10h66.07c.15,3.33.23,6.67.23,10v10ZM284.8,247.57a30,30,0,1,1-20.37-20.37,10,10,0,0,0,8.71-1.54l49.48-36.29-36.29,49.48a10,10,0,0,0-1.53,8.72Z" transform="translate(0 0)"/><circle class="cls-1" cx="369" cy="369" r="10"/></svg>