<svg id="transfer" xmlns="http://www.w3.org/2000/svg" viewBox="0 0 180.04 430.09"><defs><style>.cls-1{fill:#316fea;}</style></defs><path class="cls-1" d="M329.56,401.15a6.83,6.83,0,0,0-5.24-11.2H290.18v-82c31.09-13,53.86-43.13,55.8-78,.87-15.45-12.25-50.87-19-64.61a6.82,6.82,0,0,0-12.26,6c5.69,11.65,18.33,44.82,17.59,57.85-2.12,38.34-33.81,69.94-72.15,72a76.5,76.5,0,0,1-69.67-115.72,149,149,0,0,0-.74,24,6.83,6.83,0,0,0,7.93,6.29c1.21-.2,29.49-5.43,29.49-50.33,0-22.71,15.77-54.61,28.07-76.05a223.2,223.2,0,0,0,7.86,43.08c1.41,5.08,14.34,49.63,32.29,47.17,11.06-1.5,11.06-17,11.06-22.13A100.14,100.14,0,0,1,307,147,156.71,156.71,0,0,0,315.21,172a6.83,6.83,0,1,0,12.58-5.31c-5.44-12.92-11.49-31.78-9.48-48a6.82,6.82,0,0,0-10.55-6.53c-1.53,1-14.93,11-14.93,45.32a42,42,0,0,1-.44,6.63c-4.08-4.62-10.88-16.54-16.11-35.32-8.57-30.8-9.1-54.49-5.83-64.28a6.83,6.83,0,0,0-12.1-6c-1.83,2.66-44.8,65.64-44.8,106.93,0,18.16-5.35,27.46-10.23,32.18.39-11.13,2.21-26.28,7.86-35.14a6.83,6.83,0,0,0-9.91-9.09,90,90,0,0,0,20.64,154.81V390h-27.3a6.83,6.83,0,0,0-6.11,3.77,6.91,6.91,0,0,0-.72,3.06,6.78,6.78,0,0,0,1.37,4.09l61.44,81.92a6.82,6.82,0,0,0,10.7.28Zm-121.3,2.45h20.48a6.82,6.82,0,0,0,6.83-6.82V312.46a91,91,0,0,0,25.34,2.27,87.68,87.68,0,0,0,15.62-2.29v84.34a6.82,6.82,0,0,0,6.83,6.82h26.38l-53.41,64.1Z" transform="translate(-165.98 -55.44)"/><path class="cls-1" d="M310.66,321.68a6.83,6.83,0,0,0-13.65,0v34.14a6.83,6.83,0,0,0,13.65,0Z" transform="translate(-165.98 -55.44)"/><path class="cls-1" d="M215.09,369.47V321.68a6.83,6.83,0,0,0-13.65,0v47.79a6.83,6.83,0,1,0,13.65,0Z" transform="translate(-165.98 -55.44)"/><path class="cls-1" d="M256.05,287.55a34.17,34.17,0,0,0,34.13-34.13c0-13-11.37-68.27-34.13-68.27s-34.13,55.23-34.13,68.27A34.17,34.17,0,0,0,256.05,287.55Zm0-88.75c6.89,0,20.48,36.24,20.48,54.62a20.48,20.48,0,1,1-41,0C235.57,235,249.16,198.8,256.05,198.8Z" transform="translate(-165.98 -55.44)"/></svg>