<svg id="Capa_1" data-name="Capa 1" xmlns="http://www.w3.org/2000/svg" viewBox="0 0 508.5 508.5"><defs><style>.cls-1{fill:#316fea;stroke:#316fea;stroke-miterlimit:10;stroke-width:0.5px;}</style></defs><path class="cls-1" d="M192,182v49.83H163.85V182h-45V326h45.05V276.17H192V326h45V182Zm33.77,133H203.25V265.15H152.57V315H130V193.09h22.56v49.82h50.68V193.09h22.56Z" transform="translate(0.25 0.25)"/><path class="cls-1" d="M316,182H259.64V326H316c40.43,0,73.24-32.32,73.24-72S356.33,182,316,182Zm0,132.91h-45V193.09h45c34.18,0,62,27.31,62,60.91S350.14,314.91,316,314.91Z" transform="translate(0.25 0.25)"/><path class="cls-1" d="M316,215.19H293.4v77.55H316c21.8.07,39.47-17.38,39.47-38.74S337.76,215.19,316,215.19Zm0,66.53H304.68V226.28H316c15.54,0,28.19,12.44,28.19,27.72S331.5,281.72,316,281.72Z" transform="translate(0.25 0.25)"/><path class="cls-1" d="M0,0V508H508V0ZM491.6,491.6H16.4V442.4H491.6Zm0-65.6H16.4V81.9H491.6Zm0-360.4H16.4V16.4H491.6Z" transform="translate(0.25 0.25)"/><rect class="cls-1" x="246.05" y="33.05" width="16.4" height="16.4"/><rect class="cls-1" x="205.05" y="33.05" width="16.4" height="16.4"/><rect class="cls-1" x="164.15" y="33.05" width="16.4" height="16.4"/><rect class="cls-1" x="123.15" y="33.05" width="16.4" height="16.4"/><rect class="cls-1" x="82.15" y="33.05" width="16.4" height="16.4"/><rect class="cls-1" x="41.25" y="33.05" width="16.4" height="16.4"/><rect class="cls-1" x="450.85" y="33.05" width="16.4" height="16.4"/><rect class="cls-1" x="409.95" y="33.05" width="16.4" height="16.4"/><rect class="cls-1" x="368.95" y="33.05" width="16.4" height="16.4"/><rect class="cls-1" x="327.95" y="33.05" width="16.4" height="16.4"/><rect class="cls-1" x="287.05" y="33.05" width="16.4" height="16.4"/><rect class="cls-1" x="246.05" y="459.05" width="16.4" height="16.4"/><rect class="cls-1" x="205.05" y="459.05" width="16.4" height="16.4"/><rect class="cls-1" x="164.15" y="459.05" width="16.4" height="16.4"/><rect class="cls-1" x="123.15" y="459.05" width="16.4" height="16.4"/><rect class="cls-1" x="82.15" y="459.05" width="16.4" height="16.4"/><rect class="cls-1" x="41.25" y="459.05" width="16.4" height="16.4"/><rect class="cls-1" x="450.85" y="459.05" width="16.4" height="16.4"/><rect class="cls-1" x="409.95" y="459.05" width="16.4" height="16.4"/><rect class="cls-1" x="368.95" y="459.05" width="16.4" height="16.4"/><rect class="cls-1" x="327.95" y="459.05" width="16.4" height="16.4"/><rect class="cls-1" x="287.05" y="459.05" width="16.4" height="16.4"/></svg>