<svg id="Layer_1" data-name="Layer 1" xmlns="http://www.w3.org/2000/svg" viewBox="0 0 435.64 435.64"><defs><style>.cls-1{fill:#316fea;}</style></defs><path class="cls-1" d="M297.82,112h-160a26,26,0,0,0-26,26V298a26,26,0,0,0,26,26h160a26,26,0,0,0,26-26V138A26,26,0,0,0,297.82,112Zm14,186a14,14,0,0,1-14,14h-160a14,14,0,0,1-14-14V138a14,14,0,0,1,14-14h160a14,14,0,0,1,14,14Z"/><path class="cls-1" d="M317.82,82h-200a36,36,0,0,0-36,36V318a36,36,0,0,0,36,36h200a36,36,0,0,0,36-36V118A36,36,0,0,0,317.82,82Zm24,236a24,24,0,0,1-24,24h-200a24,24,0,0,1-24-24V118a24,24,0,0,1,24-24h200a24,24,0,0,1,24,24Z"/><path class="cls-1" d="M239.44,373.64a6,6,0,0,0-6,6v50a6,6,0,0,0,12,0v-50A6,6,0,0,0,239.44,373.64Z"/><path class="cls-1" d="M196.21,373.64a6,6,0,0,0-6,6v50a6,6,0,0,0,12,0v-50A6,6,0,0,0,196.21,373.64Z"/><path class="cls-1" d="M153,373.64a6,6,0,0,0-6,6v50a6,6,0,0,0,12,0v-50A6,6,0,0,0,153,373.64Z"/><path class="cls-1" d="M282.68,373.64a6,6,0,0,0-6,6v50a6,6,0,0,0,12,0v-50A6,6,0,0,0,282.68,373.64Z"/><path class="cls-1" d="M202.21,56V6a6,6,0,0,0-12,0V56a6,6,0,0,0,12,0Z"/><path class="cls-1" d="M245.44,56V6a6,6,0,0,0-12,0V56a6,6,0,0,0,12,0Z"/><path class="cls-1" d="M288.68,56V6a6,6,0,0,0-12,0V56a6,6,0,0,0,12,0Z"/><path class="cls-1" d="M159,56V6a6,6,0,0,0-12,0V56a6,6,0,0,0,12,0Z"/><path class="cls-1" d="M429.64,190.21h-50a6,6,0,0,0,0,12h50a6,6,0,0,0,0-12Z"/><path class="cls-1" d="M429.64,233.44h-50a6,6,0,0,0,0,12h50a6,6,0,0,0,0-12Z"/><path class="cls-1" d="M429.64,276.68h-50a6,6,0,0,0,0,12h50a6,6,0,0,0,0-12Z"/><path class="cls-1" d="M429.64,147h-50a6,6,0,0,0,0,12h50a6,6,0,0,0,0-12Z"/><path class="cls-1" d="M56,233.44H6a6,6,0,0,0,0,12H56a6,6,0,0,0,0-12Z"/><path class="cls-1" d="M56,190.21H6a6,6,0,0,0,0,12H56a6,6,0,0,0,0-12Z"/><path class="cls-1" d="M56,147H6a6,6,0,0,0,0,12H56a6,6,0,0,0,0-12Z"/><path class="cls-1" d="M56,276.68H6a6,6,0,0,0,0,12H56a6,6,0,0,0,0-12Z"/><path class="cls-1" d="M212.21,175.28c-.88-2.64-4.17-4-7.48-4s-6.49,1.32-7.37,4l-21.89,71.28a3.31,3.31,0,0,0-.11,1c0,2.86,4.07,4.84,7.26,4.84,2,0,3.52-.66,4.08-2.42l4.5-15.62h27.18l4.5,15.62c.55,1.76,2.09,2.42,4,2.42,3.3,0,7.37-2.09,7.37-4.84a2.84,2.84,0,0,0-.22-1ZM193.73,225l11-37.73,11,37.73Z"/><path class="cls-1" d="M248.73,172c-2.85,0-5.83,1.1-5.83,3.74v72.82c0,2.53,3,3.85,5.83,3.85s5.83-1.32,5.83-3.85V175.72C254.56,173.08,251.7,172,248.73,172Z"/></svg>