<svg id="Layer_1" data-name="Layer 1" xmlns="http://www.w3.org/2000/svg" viewBox="0 0 511.98 512"><defs><style>.cls-1{fill:#316fea;}</style></defs><title>3</title><path class="cls-1" d="M214.72,419.57a33.86,33.86,0,1,0,24.14-10.11A34.13,34.13,0,0,0,214.72,419.57Zm36.17,36.19a17.06,17.06,0,1,1,5-12A17.07,17.07,0,0,1,250.89,455.76Z" transform="translate(-0.02)"/><path class="cls-1" d="M444,477.85a34.14,34.14,0,1,0-24.16-10A34.12,34.12,0,0,0,444,477.85Zm-12.07-46.19a17.07,17.07,0,0,1,24.14,24.13,17.52,17.52,0,0,1-24.14,0A17.07,17.07,0,0,1,431.93,431.66Z" transform="translate(-0.02)"/><path class="cls-1" d="M494.94,0H17.09A17.07,17.07,0,0,0,0,17.07V290.12a17.07,17.07,0,0,0,17.07,17.07H259.22l34,34-36.69,36.69a68.22,68.22,0,1,0,48.29,48.21l36.65-36.69,36.69,36.69A68.21,68.21,0,0,0,444,512h.69a67.94,67.94,0,0,0,48.64-21,69,69,0,0,0,.4-93.92,68.16,68.16,0,0,0-67.41-19.2l-36.4-36.5,34.46-34.13h70.61A17.06,17.06,0,0,0,512,290.12v-273A17.06,17.06,0,0,0,494.94,0ZM289.06,417.63a8.55,8.55,0,0,0-2,8.9,51.19,51.19,0,1,1-99.4,17.11,51,51,0,0,1,68.4-48.13,8.54,8.54,0,0,0,8.93-2l40.27-40.24,24.15,24.06Zm137.76-22.11a51,51,0,0,1,54.46,13.21,51.16,51.16,0,1,1-85.5,17.83,8.53,8.53,0,0,0-2-8.9L283.32,307.19h48.22l3.82,3.81,36.34,36.35,46.17,46.16A8.55,8.55,0,0,0,426.82,395.52Zm34-213.77a17.85,17.85,0,0,0-3.27.31h0a16.43,16.43,0,0,0-4.27,1.5c-.26.13-.51.26-.75.4a16.73,16.73,0,0,0-3.77,2.75l-70,69.28H84.5a42.77,42.77,0,0,0-33.28-33.28V84.48A42.78,42.78,0,0,0,84.5,51.2h343A42.78,42.78,0,0,0,460.8,84.48ZM353.49,305l3.42-3.35L460.8,198.82v44.71a8.28,8.28,0,0,1-2.56,6.05l-43.44,43-.12.16-36.86,36.53Zm141.45-14.85H441.55l28.64-28.36a25.28,25.28,0,0,0,7.68-18.23V76.8a8.54,8.54,0,0,0-8.54-8.54,25.59,25.59,0,0,1-25.59-25.59,8.54,8.54,0,0,0-8.54-8.54H76.82a8.53,8.53,0,0,0-8.53,8.54A25.6,25.6,0,0,1,42.68,68.26a8.53,8.53,0,0,0-8.53,8.54V230.39a8.53,8.53,0,0,0,8.53,8.53,25.61,25.61,0,0,1,25.61,25.6,8.53,8.53,0,0,0,8.53,8.53H361.46l-17.23,17.07H17.09v-273H494.94Z" transform="translate(-0.02)"/><path class="cls-1" d="M119.48,119.46a34.14,34.14,0,1,0,34.13,34.14A34.13,34.13,0,0,0,119.48,119.46Zm0,51.2a17.07,17.07,0,1,1,17.07-17.06A17.06,17.06,0,0,1,119.48,170.66Z" transform="translate(-0.02)"/><path class="cls-1" d="M256,93.86a59.73,59.73,0,1,0,59.73,59.74A59.73,59.73,0,0,0,256,93.86Zm0,102.4a42.67,42.67,0,1,1,42.66-42.66A42.66,42.66,0,0,1,256,196.26Z" transform="translate(-0.02)"/><path class="cls-1" d="M392.54,119.46a34.14,34.14,0,1,0,34.13,34.14A34.13,34.13,0,0,0,392.54,119.46Zm0,51.2A17.07,17.07,0,1,1,409.6,153.6,17.06,17.06,0,0,1,392.54,170.66Z" transform="translate(-0.02)"/><path class="cls-1" d="M196.28,221.86H153.61a8.53,8.53,0,0,0,0,17.06h42.67a8.53,8.53,0,1,0,0-17.06Z" transform="translate(-0.02)"/><path class="cls-1" d="M119.48,221.86H111a8.53,8.53,0,0,0,0,17.06h8.53a8.53,8.53,0,1,0,0-17.06Z" transform="translate(-0.02)"/><path class="cls-1" d="M349.87,68.89H307.21a8.53,8.53,0,1,0,0,17.06h42.66a8.53,8.53,0,1,0,0-17.06Z" transform="translate(-0.02)"/><path class="cls-1" d="M384,86h8.53a8.53,8.53,0,0,0,0-17.06H384A8.53,8.53,0,1,0,384,86Z" transform="translate(-0.02)"/></svg>