<svg id="Capa_1" data-name="Capa 1" xmlns="http://www.w3.org/2000/svg" viewBox="0 0 508 508"><defs><style>.cls-1{fill:#316fea;}</style></defs><title>2</title><path class="cls-1" d="M163.9,147.5v73.7h-41V147.5H57.4v213h65.5V286.8h41v73.7h65.5v-213ZM213,344.2H180.2V270.5H106.5v73.7H73.7V163.9h32.8v73.7h73.7V163.9H213Z"/><path class="cls-1" d="M344.1,147.5H262.2v213h81.9a106.5,106.5,0,0,0,0-213Zm0,196.6H278.6V163.9h65.5a90.1,90.1,0,0,1,0,180.2Z"/><path class="cls-1" d="M344.1,196.6H311.3V311.3h32.8a57.35,57.35,0,1,0,0-114.7Zm0,98.4H327.7V213h16.4a41,41,0,0,1,0,82Z"/><path class="cls-1" d="M0,0V508H508V0ZM491.6,491.6H16.4V442.4H491.6Zm0-65.6H16.4V81.9H491.6Zm0-360.4H16.4V16.4H491.6Z"/><rect class="cls-1" x="245.8" y="32.8" width="16.4" height="16.4"/><rect class="cls-1" x="204.8" y="32.8" width="16.4" height="16.4"/><rect class="cls-1" x="163.9" y="32.8" width="16.4" height="16.4"/><rect class="cls-1" x="122.9" y="32.8" width="16.4" height="16.4"/><rect class="cls-1" x="81.9" y="32.8" width="16.4" height="16.4"/><rect class="cls-1" x="41" y="32.8" width="16.4" height="16.4"/><rect class="cls-1" x="450.6" y="32.8" width="16.4" height="16.4"/><rect class="cls-1" x="409.7" y="32.8" width="16.4" height="16.4"/><rect class="cls-1" x="368.7" y="32.8" width="16.4" height="16.4"/><rect class="cls-1" x="327.7" y="32.8" width="16.4" height="16.4"/><rect class="cls-1" x="286.8" y="32.8" width="16.4" height="16.4"/><rect class="cls-1" x="245.8" y="458.8" width="16.4" height="16.4"/><rect class="cls-1" x="204.8" y="458.8" width="16.4" height="16.4"/><rect class="cls-1" x="163.9" y="458.8" width="16.4" height="16.4"/><rect class="cls-1" x="122.9" y="458.8" width="16.4" height="16.4"/><rect class="cls-1" x="81.9" y="458.8" width="16.4" height="16.4"/><rect class="cls-1" x="41" y="458.8" width="16.4" height="16.4"/><rect class="cls-1" x="450.6" y="458.8" width="16.4" height="16.4"/><rect class="cls-1" x="409.7" y="458.8" width="16.4" height="16.4"/><rect class="cls-1" x="368.7" y="458.8" width="16.4" height="16.4"/><rect class="cls-1" x="327.7" y="458.8" width="16.4" height="16.4"/><rect class="cls-1" x="286.8" y="458.8" width="16.4" height="16.4"/></svg>