<svg id="Layer_1" data-name="Layer 1" xmlns="http://www.w3.org/2000/svg" viewBox="0 0 447.07 479"><defs><style>.cls-1{fill:#316fea;}</style></defs><title>4</title><path class="cls-1" d="M135.72,311.35h-16V223.53h-16v95.8a8,8,0,0,0,8,8h4.67L87.82,356,59.19,327.32h4.68a8,8,0,0,0,8-8v-95.8h-16v87.82h-16A8,8,0,0,0,34.27,325l47.9,47.9a8,8,0,0,0,11.29,0l47.9-47.9a8,8,0,0,0-5.64-13.63Z" transform="translate(-15.97)"/><path class="cls-1" d="M287.4,415.13h-16V343.28h-16v79.84a8,8,0,0,0,8,8h4.68L239.5,459.73,210.87,431.1h4.68a8,8,0,0,0,8-8V343.28h-16v71.85h-16A8,8,0,0,0,186,428.76l47.9,47.9a8,8,0,0,0,11.28,0l47.9-47.9a8,8,0,0,0-5.64-13.63Z" transform="translate(-15.97)"/><path class="cls-1" d="M439.08,367.23h-16V279.42h-16v95.8a8,8,0,0,0,8,8h4.68l-28.63,28.63L362.56,383.2h4.67a8,8,0,0,0,8-8v-95.8h-16v87.81h-16a8,8,0,0,0-5.64,13.63l47.9,47.9a8,8,0,0,0,11.29,0l47.9-47.9a8,8,0,0,0-5.65-13.63Z" transform="translate(-15.97)"/><path class="cls-1" d="M207.57,295.38h16v31.94h-16Z" transform="translate(-15.97)"/><path class="cls-1" d="M207.57,263.45h16v16h-16Z" transform="translate(-15.97)"/><path class="cls-1" d="M255.47,279.42h16v31.93h-16Z" transform="translate(-15.97)"/><path class="cls-1" d="M359.25,231.52h16v31.93h-16Z" transform="translate(-15.97)"/><path class="cls-1" d="M359.25,199.58h16v16h-16Z" transform="translate(-15.97)"/><path class="cls-1" d="M407.15,231.52h16v16h-16Z" transform="translate(-15.97)"/><path class="cls-1" d="M407.15,183.62h16v16h-16Z" transform="translate(-15.97)"/><path class="cls-1" d="M55.88,191.6h16v16h-16Z" transform="translate(-15.97)"/><path class="cls-1" d="M55.88,159.67h16v16h-16Z" transform="translate(-15.97)"/><path class="cls-1" d="M87.82,47.9a8,8,0,0,1,8,8h16a24,24,0,0,0-16-22.48V24h-16V33.4a23.89,23.89,0,0,0,8,46.43,8,8,0,1,1-8,8h-16a24,24,0,0,0,16,22.48v9.45h16V110.3a23.89,23.89,0,0,0-8-46.43,8,8,0,1,1,0-16Z" transform="translate(-15.97)"/><path class="cls-1" d="M87.82,0a71.85,71.85,0,1,0,71.85,71.85A71.85,71.85,0,0,0,87.82,0Zm0,127.73A55.88,55.88,0,1,1,143.7,71.85,55.88,55.88,0,0,1,87.82,127.73Z" transform="translate(-15.97)"/><path class="cls-1" d="M391.18,119.75a8,8,0,0,1-8-8h-16a24,24,0,0,0,16,22.48v9.45h16v-9.45a23.89,23.89,0,0,0-8-46.43,8,8,0,1,1,8-8h16a24,24,0,0,0-16-22.48V47.9h-16v9.45a23.89,23.89,0,0,0,8,46.43,8,8,0,1,1,0,16Z" transform="translate(-15.97)"/><path class="cls-1" d="M391.18,167.65A71.85,71.85,0,1,0,319.33,95.8,71.85,71.85,0,0,0,391.18,167.65Zm0-127.73A55.88,55.88,0,1,1,335.3,95.8,55.88,55.88,0,0,1,391.18,39.92Z" transform="translate(-15.97)"/><path class="cls-1" d="M239.5,127.73a8,8,0,0,1,8,8h16a23.94,23.94,0,0,0-16-22.48v-9.46h-16v9.46a23.89,23.89,0,0,0,8,46.43,8,8,0,1,1-8,8h-16a23.94,23.94,0,0,0,16,22.48v9.45h16v-9.45a23.89,23.89,0,0,0-8-46.43,8,8,0,0,1,0-16Z" transform="translate(-15.97)"/><path class="cls-1" d="M239.5,79.83a71.85,71.85,0,1,0,71.85,71.85A71.85,71.85,0,0,0,239.5,79.83Zm0,127.74a55.89,55.89,0,1,1,55.88-55.89A55.88,55.88,0,0,1,239.5,207.57Z" transform="translate(-15.97)"/><path class="cls-1" d="M255.47,247.48h16v16h-16Z" transform="translate(-15.97)"/><path class="cls-1" d="M103.78,175.63h16v31.94h-16Z" transform="translate(-15.97)"/></svg>