<svg id="Isolation_Mode" data-name="Isolation Mode" xmlns="http://www.w3.org/2000/svg" viewBox="0 0 40.21 40.05"><defs><style>.cls-1{fill:#316fea;}</style></defs><title>m_calc</title><path class="cls-1" d="M5,1.56a5.44,5.44,0,0,1,.58-.05H38.25a3.82,3.82,0,0,1,3.24,1.83A4,4,0,0,1,42,5.46q0,16.24,0,32.48a3.8,3.8,0,0,1-3.77,3.62H5.43a3.81,3.81,0,0,1-3.61-3.63q0-16.32,0-32.63A3.81,3.81,0,0,1,5,1.56ZM3.3,5.29c0,5.22,0,10.44,0,15.66,6,0,12,0,18,0,0-6,0-12,0-18H5.59A2.32,2.32,0,0,0,3.3,5.29ZM22.75,3V21c5.93,0,11.87,0,17.81,0,0-5.21,0-10.43,0-15.65A2.31,2.31,0,0,0,38.25,3C33.08,3,27.91,3,22.75,3ZM3.3,22.45q0,7.66,0,15.33a2.26,2.26,0,0,0,1.12,2,3,3,0,0,0,1.67.34c5.06,0,10.12,0,15.19,0V22.44C15.28,22.44,9.29,22.43,3.3,22.45Zm19.45,0V40.07c5,.06,10,0,15,0a3,3,0,0,0,1.68-.33,2.33,2.33,0,0,0,1.12-2c0-5.12,0-10.24,0-15.35Z" transform="translate(-1.82 -1.51)"/><path class="cls-1" d="M11.57,7.5a.71.71,0,0,1,1-.67A.69.69,0,0,1,13,7.5c0,1.25,0,2.5,0,3.76,1.31,0,2.62,0,3.93,0a.74.74,0,0,1,0,1.42c-1.31,0-2.62,0-3.92,0,0,1.26,0,2.52,0,3.79a.74.74,0,0,1-1.26.46c-.24-.19-.17-.53-.19-.8V12.72H7.79a.72.72,0,0,1-.66-1,.65.65,0,0,1,.68-.45c1.25,0,2.5,0,3.75,0C11.58,10,11.56,8.75,11.57,7.5Z" transform="translate(-1.82 -1.51)"/><path class="cls-1" d="M26.93,11.3a3.78,3.78,0,0,1,.75,0h8.37a.73.73,0,1,1,0,1.45H27.19A.75.75,0,0,1,26.93,11.3Z" transform="translate(-1.82 -1.51)"/><path class="cls-1" d="M8.89,27.81a.75.75,0,0,1,1,.15l2.42,2.41c.86-.85,1.7-1.74,2.59-2.56.59-.49,1.5.42,1,1-.82.89-1.71,1.72-2.56,2.59.83.83,1.67,1.65,2.49,2.5a.73.73,0,0,1-.58,1.22c-.27,0-.45-.2-.63-.36L12.3,32.45c-.87.83-1.7,1.71-2.57,2.54a.81.81,0,0,1-1.14-.26c0-.25-.09-.57.12-.76.83-.87,1.7-1.7,2.54-2.56-.82-.83-1.65-1.64-2.47-2.48A.73.73,0,0,1,8.89,27.81Z" transform="translate(-1.82 -1.51)"/><path class="cls-1" d="M26.93,28.49a3.23,3.23,0,0,1,.76,0c2.84,0,5.68,0,8.52,0a.73.73,0,0,1,0,1.43c-3,0-6,0-9,0A.75.75,0,0,1,26.93,28.49Z" transform="translate(-1.82 -1.51)"/><path class="cls-1" d="M27.11,32.93c2.92,0,5.86,0,8.79,0a.79.79,0,0,1,.8.42.71.71,0,0,1-.65,1.05H27.2A.73.73,0,0,1,27.11,32.93Z" transform="translate(-1.82 -1.51)"/></svg>