<svg id="Isolation_Mode" data-name="Isolation Mode" xmlns="http://www.w3.org/2000/svg" viewBox="0 0 41.16 39.18"><defs><style>.cls-1{fill:#316fea;}</style></defs><title>m_demo</title><path class="cls-1" d="M2.42,2.94a2.08,2.08,0,0,1,1.45-.63H40a2.23,2.23,0,0,1,1.89,1,3.15,3.15,0,0,1,.68,1.92V12H1.45V5.2A3.23,3.23,0,0,1,2.42,2.94Zm1,.73a1.74,1.74,0,0,0-.59,1.38c0,1,0,2,0,2.93C4.39,6.49,5.93,5,7.48,3.51c-1,0-2.08,0-3.12,0C4,3.51,3.67,3.45,3.42,3.67ZM2.83,9.75v1H6.68l7.65-7.22c-1.67,0-3.34,0-5,0C7.16,5.58,5,7.67,2.83,9.75ZM16.2,3.5c-2.53,2.42-5.11,4.8-7.63,7.22h5q3.81-3.63,7.64-7.22C19.55,3.49,17.87,3.51,16.2,3.5Zm6.89,0-7.65,7.21h5.72c2.53-2.42,5.09-4.82,7.64-7.22Zm7.58,0c-2.56,2.4-5.1,4.82-7.66,7.21h4.78c.27,0,.41-.2.59-.33l7.31-6.89Zm6.06.78c-2.29,2.13-4.55,4.29-6.83,6.43,1.67,0,3.34,0,5,0a20.27,20.27,0,0,0,2.28-2.36c1.32-1.25,2.62-2.51,3.92-3.78A1.07,1.07,0,0,0,40,3.5c-.86,0-1.73,0-2.59,0C37.06,3.66,37,4,36.73,4.29Zm.43,5.89a2.12,2.12,0,0,0-.36.54h4.43c0-1.48,0-3,0-4.45C39.85,7.58,38.52,8.89,37.16,10.18Z" transform="translate(-1.45 -2.3)"/><path class="cls-1" d="M1.45,13.32H42.6V38.18a3.32,3.32,0,0,1-3.23,3.3H4.67a3.32,3.32,0,0,1-3.22-3.31Zm1.38,1.41s0,16.5,0,23.75a1.73,1.73,0,0,0,1.84,1.63H39.21a1.78,1.78,0,0,0,2-1.78c0-7.2,0-23.6,0-23.6Z" transform="translate(-1.45 -2.3)"/><path class="cls-1" d="M17.76,20.08c.19-.16.4-.42.64-.26s.51.19.75.33c2.9,1.93,5.81,3.87,8.72,5.79a.73.73,0,0,1,0,1.2c-3.12,2.07-6.24,4.16-9.37,6.22-.33.3-.81-.08-.75-.61Zm1,1.18c0,3.53,0,7.06,0,10.59q4-2.67,8-5.29C24,24.76,21.37,23,18.73,21.26Z" transform="translate(-1.45 -2.3)"/></svg>