<svg id="Layer_1" data-name="Layer 1" xmlns="http://www.w3.org/2000/svg" viewBox="0 0 415.14 479"><defs><style>.cls-1{fill:#316fea;}</style></defs><title>drm_2</title><path class="cls-1" d="M239.5,479a8,8,0,0,1-3.9-1L158.5,434.8A247.69,247.69,0,0,1,31.93,218.88V87.81a8,8,0,0,1,8-8H54.28a232.75,232.75,0,0,0,141.14-48L234.64,1.65a8,8,0,0,1,9.72,0l39.21,30.16a232.77,232.77,0,0,0,141.14,48h14.37a8,8,0,0,1,8,8V218.88A247.71,247.71,0,0,1,320.5,434.8L243.39,478A8,8,0,0,1,239.5,479ZM47.89,95.79V218.88a231.78,231.78,0,0,0,118.4,202l73.21,41,73.2-41a231.74,231.74,0,0,0,118.4-202V95.79h-6.39A248.75,248.75,0,0,1,273.82,44.47L239.5,18.05,205.16,44.47A248.7,248.7,0,0,1,54.28,95.79Z" transform="translate(-31.93 0)"/><path class="cls-1" d="M302.26,205.47V170.11a62.41,62.41,0,1,0-124.81,0v35.36a34.73,34.73,0,0,0-27.74,34v97.08a34.71,34.71,0,0,0,34.67,34.67h111A34.71,34.71,0,0,0,330,336.53V239.45A34.74,34.74,0,0,0,302.26,205.47ZM191.32,170.11a48.54,48.54,0,1,1,97.07,0v34.67H274.53V170.11a34.68,34.68,0,0,0-69.35,0v34.67H191.32Zm27.73,0a20.81,20.81,0,0,1,41.61,0v34.67H219.05Zm97.08,166.42a20.8,20.8,0,0,1-20.8,20.8H184.38a20.8,20.8,0,0,1-20.8-20.8V239.45a20.8,20.8,0,0,1,20.8-20.8h111a20.8,20.8,0,0,1,20.8,20.8Z" transform="translate(-31.93 0)"/><path class="cls-1" d="M239.85,330.76a16,16,0,0,1-16-16V293.33A26.73,26.73,0,0,1,246.34,246a26.42,26.42,0,0,1,19.44,19.31,26.79,26.79,0,0,1-9.89,28v21.39A16,16,0,0,1,239.85,330.76Zm0-74.85a15.69,15.69,0,0,0-9.9,3.45,16,16,0,0,0,1.9,26.45,5.36,5.36,0,0,1,2.68,4.64v24.27a5.35,5.35,0,1,0,10.69,0V290.44a5.35,5.35,0,0,1,2.67-4.63,16.13,16.13,0,0,0,7.49-18,15.83,15.83,0,0,0-11.52-11.42A16.92,16.92,0,0,0,239.82,255.91Z" transform="translate(-31.93 0)"/></svg>