<svg id="Isolation_Mode" data-name="Isolation Mode" xmlns="http://www.w3.org/2000/svg" viewBox="0 0 40.18 40.05"><defs><style>.cls-1{fill:#316fea;}.cls-2{fill:none;stroke:#316fea;stroke-miterlimit:10;}</style></defs><title>m_formats</title><path class="cls-1" d="M39.67,1.83A3.83,3.83,0,0,0,36.43,0H3.76a5.67,5.67,0,0,0-.58.05A3.82,3.82,0,0,0,0,3.79V36.42a3.81,3.81,0,0,0,3.61,3.63h32.8a3.8,3.8,0,0,0,3.77-3.62V4A4,4,0,0,0,39.67,1.83Zm-.93,17.66V36.23a2.32,2.32,0,0,1-1.12,2,3,3,0,0,1-1.68.33c-5,0-16.47,0-16.47,0H4.27a3,3,0,0,1-1.67-.34,2.25,2.25,0,0,1-1.12-2V3.78A2.32,2.32,0,0,1,3.77,1.44H19.48l1.45.05H36.47a2.31,2.31,0,0,1,2.27,2.35Z" transform="translate(0 0)"/><path class="cls-1" d="M12.42,23l-2.06,5.27H9.68L7.61,23v5.27H6.06V20.91H8.24L10,25.48l1.77-4.57H14v7.32H12.42Z" transform="translate(0 0)"/><path class="cls-1" d="M15.43,20.91h3.43a2.35,2.35,0,1,1,0,4.7H17v2.62H15.43Zm3.22,1.34H17v2h1.66a1,1,0,1,0,0-2Z" transform="translate(0 0)"/><path class="cls-1" d="M25.33,26.72h-3.5V25.49l2.9-4.58h2.16v4.43h.94v1.38h-.94v1.51H25.33Zm-2-1.38h2V22.29Z" transform="translate(0 0)"/><rect class="cls-2" x="1.02" y="16.61" width="32.6" height="15.85"/></svg>