<svg id="Layer_1" data-name="Layer 1" xmlns="http://www.w3.org/2000/svg" viewBox="0 0 427 433"><defs><style>.cls-1,.cls-2{fill:#316fea;}.cls-2{stroke:#316fea;stroke-miterlimit:10;stroke-width:8px;}</style></defs><title>per_title_2</title><g id="_09_file_setting" data-name="09 file setting"><path class="cls-1" d="M469.47,170.72v-3.05c0-.55,0-1.07,0-1.56.06-4,.14-9-5.33-14L388.63,82.81l-.26-.24a11.36,11.36,0,0,0-9-3.57H108.82A20.7,20.7,0,0,0,88.15,99.68V292.89L67.64,313.41a19,19,0,0,0,0,26.91l5,5A103.64,103.64,0,0,0,68.72,355h-7.2a19,19,0,0,0-19,19v30.62a19,19,0,0,0,19,19h7.79q1.71,4.71,3.84,9.16l-5.52,5.52a19,19,0,0,0,0,26.92L89.29,486.9a18.9,18.9,0,0,0,13.46,5.56h0a18.83,18.83,0,0,0,13.4-5.55l5.57-5.54q4.5,2.14,9.18,3.84V493a19,19,0,0,0,19,19h30.64a19,19,0,0,0,19-19V485.8a101,101,0,0,0,9.71-3.92l5,5a19.05,19.05,0,0,0,26.9,0l21.66-21.64a18.66,18.66,0,0,0,2-2.32H448.81a20.7,20.7,0,0,0,20.66-20.68V171.88c0-.19,0-.38,0-.58s0-.39,0-.58ZM454,163.19c.22.21.36.36.44.45a.92.92,0,0,0,0,.16H380.8c-.86,0-1.9,0-2.75,0V94h.59ZM230.65,476.29a4,4,0,0,1-5.7,0l-8.84-8.83a7.48,7.48,0,0,0-8.83-1.31,88,88,0,0,1-17.22,6.94,7.5,7.5,0,0,0-5.45,7.21V493a4.07,4.07,0,0,1-4,4H150a4.07,4.07,0,0,1-4-4V479.81a7.52,7.52,0,0,0-5.33-7.18,88.27,88.27,0,0,1-16.7-7A7.48,7.48,0,0,0,115,466.9l-9.45,9.41a4,4,0,0,1-2.81,1.15h0a4,4,0,0,1-2.86-1.17L78.23,454.65a4.06,4.06,0,0,1,0-5.7l9.39-9.38a7.51,7.51,0,0,0,1.27-8.93,87,87,0,0,1-7-16.67,7.51,7.51,0,0,0-7.18-5.31H61.52a4.07,4.07,0,0,1-4-4V374a4,4,0,0,1,4-4h12.7a7.51,7.51,0,0,0,7.22-5.47,88.47,88.47,0,0,1,6.94-17.21A7.51,7.51,0,0,0,87,338.51l-8.81-8.8a4,4,0,0,1-1.17-2.86A4,4,0,0,1,78.23,324l21.65-21.65a4.11,4.11,0,0,1,5.71,0l8.35,8.34a7.51,7.51,0,0,0,9,1.23,88,88,0,0,1,17.67-7.53,7.51,7.51,0,0,0,5.33-7.18V285.67a4.06,4.06,0,0,1,4-4h30.64a4.06,4.06,0,0,1,4,4v11.08a7.5,7.5,0,0,0,5.47,7.21,86.88,86.88,0,0,1,18.19,7.45,7.5,7.5,0,0,0,8.9-1.27l7.76-7.76a4.1,4.1,0,0,1,5.72,0l21.68,21.69a4,4,0,0,1,1.15,2.81,4,4,0,0,1-1.17,2.85l-7.75,7.74a7.52,7.52,0,0,0-1.28,8.9,88.93,88.93,0,0,1,7.47,18.21A7.5,7.5,0,0,0,258,370H269a4.1,4.1,0,0,1,4.05,4v30.62a4.09,4.09,0,0,1-4.05,4H257.47a7.51,7.51,0,0,0-7.18,5.32,87.65,87.65,0,0,1-7.56,17.66,7.5,7.5,0,0,0,1.24,9l8.34,8.31a4.06,4.06,0,0,1,0,5.7Zm218.16-28.35H268.09a18.83,18.83,0,0,0-5.19-9.61l-4.42-4.41a103.06,103.06,0,0,0,4.39-10.26H269a19.06,19.06,0,0,0,19.05-19V374A19.07,19.07,0,0,0,269,355h-5.57A104.77,104.77,0,0,0,259,344.21l3.88-3.89a19,19,0,0,0,0-26.89l-21.68-21.69a19.13,19.13,0,0,0-26.89,0l-3.92,3.91a98.64,98.64,0,0,0-10.82-4.43v-5.57a19,19,0,0,0-19-19H150a19,19,0,0,0-19,19v6.16a99.57,99.57,0,0,0-10.29,4.37l-4.45-4.44a18.92,18.92,0,0,0-13-5.53V99.68A5.75,5.75,0,0,1,108.82,94H363.05v70.11c0,7.87,3.84,11.42,7.06,13,3.39,1.68,7.1,1.68,10.69,1.68h73.67V442.26a5.75,5.75,0,0,1-5.66,5.68Z" transform="translate(-42.5 -79)"/><path class="cls-2" d="M205,378.82l-54.57-31.5a15.17,15.17,0,0,0-7.58-2.26c-6.35,0-10.62,5.14-10.62,12.77v63c0,7.63,4.27,12.76,10.62,12.76a15.26,15.26,0,0,0,7.58-2.25L205,399.84c4.61-2.66,7.15-6.4,7.15-10.51S209.62,381.48,205,378.82Zm-3,15.75-54.56,31.5a9.44,9.44,0,0,1-4.54,1.44c-4.09,0-4.53-4.68-4.53-6.68v-63c0-2,.44-6.68,4.53-6.68a9.44,9.44,0,0,1,4.54,1.44L202,384.09c2.61,1.51,4.11,3.42,4.11,5.24S204.57,393.06,202,394.57Z" transform="translate(-42.5 -79)"/></g></svg>