<svg id="Layer_1" xmlns="http://www.w3.org/2000/svg" xmlns:xlink="http://www.w3.org/1999/xlink" viewBox="0 0 620 389"><style>.st0{fill:#f6f8fa}.st1{fill:none;stroke:#d3dbe5;stroke-width:.25;stroke-linecap:round;stroke-linejoin:round;stroke-miterlimit:10}.st2{fill:#fff}.st4{fill:#43aa82}.st7{fill:#d3dbe5}.st16{opacity:.18}.st17{clip-path:url(#SVGID_9_);fill:none;stroke:#99c3e4;stroke-width:.5;stroke-linecap:round;stroke-linejoin:round;stroke-miterlimit:10}.st18{opacity:.3;fill:#b3b3b3}.st21{opacity:.24;fill:#db5437}.st22{fill:#24497e}.st23{stroke:#24497e;stroke-linejoin:round}.st23,.st27,.st33{fill:none;stroke-width:.25;stroke-linecap:round;stroke-miterlimit:10}.st27{stroke-linejoin:round;stroke:#43aa82}.st33{stroke:#a7b6cb}.st37{opacity:.41;fill:#fff}.st38,.st40{fill:none;stroke-width:.25;stroke-linecap:round;stroke-linejoin:round;stroke-miterlimit:10}.st38{stroke-dasharray:3,3,3,3;stroke:#59e3ad}.st40{stroke:#f6f8fa}</style><path class="st0" d="M452.7 301.6s3.8-2.1 5.7 4.9c7.5 29.3 72.6 15.7 60.4-34.2 0 0 23.7 36.1-22.7 56.2 0 0-23.5 7.5-42.6-4.7l-.8-22.2zM497.3 207.6s15.1 26.8-2.6 47.8c0 0 12.3 5 16.1 8.4-.1 0 17.5-33.4-13.5-56.2zM92.8 293.2s14-9 13-25.2c0 0 4.9 13.2-5.4 25.2h-7.6zM21.4 264.9c-29.3 67.5 41.4 106 164.5 90.9-166.3 8.1-166.6-60.1-164.5-90.9zM195 345.2c0 7 31.4 7.1 114.3 7.1s150.1-5.7 150.1-12.8-67.3-17.2-150.1-12.8c-82.6 4.5-114.3 11.5-114.3 18.5z"/><path class="st1" d="M468.1 198.1c26.4 0 47.7 20.3 47.7 45.3 0 7.3-1.8 14.2-5.1 20.4"/><path class="st1" d="M489 254c20.6 3.6 36.1 19.3 36.1 38.1 0 21.5-20.2 38.9-45.2 38.9-12.5 0-23.8-4.4-31.9-11.4M80.8 192c1.8-29.4 25.7-52.6 54.9-52.6 1.9 0 3.8.1 5.6.3"/><path class="st0" d="M136.1 261.9l-.5-49.3V85.3h326.6l2.1 168.5c-28.6 6.3-35.2 27.7-35.5 30.8H218.3s-73.6-21.3-82.2-22.7z"/><path class="st2" d="M168.6 54.6h293.7v30.7H135.7V54.7h32.9zm283.2 16.8c0-2.4-1.9-4.3-4.3-4.3s-4.3 1.9-4.3 4.3 1.9 4.3 4.3 4.3 4.3-1.9 4.3-4.3zm-15.6 0c0-2.4-1.9-4.3-4.3-4.3s-4.3 1.9-4.3 4.3 1.9 4.3 4.3 4.3 4.3-1.9 4.3-4.3zm-15.5 0c0-2.4-1.9-4.3-4.3-4.3S412 69 412 71.4s1.9 4.3 4.3 4.3 4.4-1.9 4.4-4.3z"/><linearGradient id="SVGID_1_" gradientUnits="userSpaceOnUse" x1="264.6555" y1="28.2448" x2="309.8718" y2="83.5092"><stop offset="0" stop-color="#9fefcf"/><stop offset="1" stop-color="#59e3ad"/></linearGradient><path d="M168.1 54.6H462.3v30.7H135.2V54.7h32.9z" fill="url(#SVGID_1_)"/><circle class="st2" cx="180.8" cy="71.4" r="4.3"/><circle class="st2" cx="165.2" cy="71.4" r="4.3"/><circle class="st2" cx="149.6" cy="71.4" r="4.3"/><path class="st4" d="M471 252.9c-3.1 1.2-5.8 0-8.7 1.6V54.6h9.1v164.3"/><path fill="none" stroke="#fff" stroke-miterlimit="10" d="M458 371.4h13.1v13.1H458z"/><path class="st1" d="M380.9 221.1v-10.3M389.9 210.9v10"/><path class="st7" d="M380.9 210.4h9v10.8h-9z"/><path class="st1" d="M313.5 221.9c0 2.2-1.7 3.9-3.9 3.9s-3.9-1.7-3.9-3.9 1.7-3.9 3.9-3.9 3.9 1.7 3.9 3.9zM380.9 221.1h-43.8v-10.4H380.9"/><path fill="#d3dbe5" stroke="#d3dbe5" stroke-width=".25" stroke-miterlimit="10" d="M322.9 209.1h14.2v20.3h-14.2z"/><path class="st1" d="M296.2 209.1h26.7v25.2M342.4 233.9h104.4v6.4H342.4z"/><path class="st1" d="M339.5 234.1v-13h55.1v13M394.6 221.1h5v12.8h-5z"/><path class="st7" d="M394.4 221h5.1v12.8h-5.1z"/><path class="st1" d="M184.4 167.2V105.6h2.9V167.2M172.1 167.2v-36.7h12.3v36.7M184.4 126.9v3.6h-12.3v-3.6zM187.3 105.9v61.6M163.6 167.3h148.5v6.4H163.6zM285.6 154.3H241.8v-10.4h12.9"/><path class="st1" d="M244.2 167.2v-12.9h55.1v12.9M302.7 130.7v13.1h-42.2v.1h-12.9v-13.2zM241.8 154.6v12.7h-12.1v-55.6h12.1v32.5zM210.4 120.5l16.7 44.2-7.2 2.8-16.7-43.9.7-.3 6.2-2.7z"/><path class="st1" d="M210.4 120.5l-.3.1-6.2 2.7-.7.3-3.1-8.3 7.3-2.8zM197.4 167.2V105.6h2.5v61.6M187.3 167.2V105.6h10.1V167.2M290.5 143.8v.1h-42.9v-13.2h42.9zM197.4 105.9v61.6"/><path class="st1" d="M261 138.2c0 1.4-1.1 2.5-2.5 2.5s-2.5-1.1-2.5-2.5 1.1-2.5 2.5-2.5 2.5 1.1 2.5 2.5zM271.2 138.2c0 1.4-1.1 2.5-2.5 2.5s-2.5-1.1-2.5-2.5 1.1-2.5 2.5-2.5 2.5 1.1 2.5 2.5zM281.4 138.2c0 1.4-1.1 2.5-2.5 2.5s-2.5-1.1-2.5-2.5 1.1-2.5 2.5-2.5 2.5 1.1 2.5 2.5zM199.9 105.6h7.8v6.9H222l7.3 17M207.7 136v31.4M227.1 164.7h2.5M241.8 111.7h15.7v19.1M302.6 167.6v5.9"/><path class="st7" d="M302.6 167h9.6v6.7h-9.6zM241.6 111.7l.2 32.2h5.8v-13.2h9.7l.2-19.2zM200 105.8v61.5h7.6v-32.1l-6.5-20.4 6.7-2.5-.3-7zM220.7 167.2l6.8-2.7 1.8.3.3 2.1zM241.9 154.5l-.3 12.7h2.5l-.3-12.7z"/><path class="st1" d="M285.6 154.3v-10.4M294.5 144.1v9.9M299.3 154.3h5v12.8h-5z"/><path class="st7" d="M290.5 130.7h12.2v13.1h-12.2z"/><path class="st7" d="M285.5 143.5h9v10.8h-9zM299.1 154.2h5.1V167h-5.1z"/><path class="st1" d="M329.7 192.2h112.4v6.4H329.7zM370.1 190.7h4.7M400.3 192.2v-25.6h.2M390 142v6.1H375.1V142zM349.8 149v40.6h-15V145h15zM349.8 142v3h-15v-3z"/><path class="st1" d="M334.8 192.3V142h15V192.3M375.1 191.9V142H390v50M334.9 145h14.6"/><path class="st1" d="M383.5 179c0 .6-.5 1.2-1.2 1.2-.6 0-1.2-.5-1.2-1.2 0-.6.5-1.2 1.2-1.2.6.1 1.2.6 1.2 1.2zM383.5 171.1c0 .6-.5 1.2-1.2 1.2-.6 0-1.2-.5-1.2-1.2 0-.6.5-1.2 1.2-1.2.6 0 1.2.6 1.2 1.2zM383.5 163.2c0 .6-.5 1.2-1.2 1.2-.6 0-1.2-.5-1.2-1.2 0-.6.5-1.2 1.2-1.2.6 0 1.2.5 1.2 1.2zM383.5 155.3c0 .6-.5 1.2-1.2 1.2-.6 0-1.2-.5-1.2-1.2 0-.6.5-1.2 1.2-1.2.6 0 1.2.5 1.2 1.2zM375.3 148.1h14.2M362.8 192.1L350 149l7.1-2.1 13 43.8-5.3 1.5M354.6 152l10.8 35.7M417.5 192.1v-25.5h-17M400.3 166.6v-7.9h-10M357.1 146.9h15.1l2.6 7.7M349.8 142h12v4.8M390 142h13.9v16.7M400.3 158.7h9.7v7.7M417.5 166.6h7.2v25.7M427.6 192.5v6.1"/><path class="st7" d="M390 142v16.8l13.8-.1v-16.8zM349.6 142l.3 50.2h13.3L350.6 149l6.6-2.2h4.6V142z"/><path class="st7" d="M400.1 158.7h10v8h-10zM417.4 166.8h7.5V192h-7.5zM427.3 192.3h14.8v6.4h-14.8z"/><g><path class="st1" d="M291.6 196.5v4.7h-55.8v-4.7z"/><path class="st1" d="M291.6 233.6v.2h-55.8v-32.7h55.7v32.5zM227.7 233.9h77.6v6.4h-77.6z"/><path class="st1" d="M235.8 233.2v-36.7h55.8v37.1M235.8 201.2h55.8"/><path class="st1" d="M288.1 196.5h8.2V234"/><path class="st7" d="M291.6 196.5h4.7V234h-4.7z"/><path class="st1" d="M242.6 209.8h40.3M242.6 214.8h40.3M242.6 219.9h40.3M242.6 225h40.3"/></g><radialGradient id="SVGID_2_" cx="435.5579" cy="326.8797" r="32.5046" gradientUnits="userSpaceOnUse"><stop offset=".1464" stop-color="#1b375f"/><stop offset="1" stop-color="#24497e"/></radialGradient><path d="M455.2 327.3c.3 2.7.5 5.6-.9 7.9-2.5 4-8.2 3.9-12.8 3.3l-1.7.2c-.7-7.7-2.5-15.2-5.1-22.4l.6-.2c3.3-8.5 6.5-16.9 9.8-25.4.7-1.8 2-4 3.9-3.6 1.8.3 2.3 2.5 2.5 4.3 1.2 11.9 2.4 23.9 3.7 35.9z" fill="url(#SVGID_2_)"/><g><path class="st0" d="M354.6 243.1s6.9 1 5.4 11.4-3.6 47-3.6 47l-8.3-1.9 6.5-56.5z"/></g><radialGradient id="SVGID_3_" cx="390.1787" cy="320.3589" r="100.9919" gradientUnits="userSpaceOnUse"><stop offset="0" stop-color="#f6f8fa"/><stop offset=".1245" stop-color="#eef1f4"/><stop offset=".2969" stop-color="#e8ecf0"/></radialGradient><path d="M439.8 339.1l-1 .5h-68l-68.1.1v-.1h-67c6-2.5 12-5.8 18-10.3 12.9-9.7 22.9-22.7 33.5-34.9 1.4-1.6 2.8-3.2 4.2-4.7l.1.1c9.2.9 114.2 19.1 142.4 26l.6.1c0 .1.1.2.1.4 2.7 7.2 4.4 14.8 5.1 22.4.1.2.1.3.1.4z" fill="url(#SVGID_3_)"/><linearGradient id="SVGID_4_" gradientUnits="userSpaceOnUse" x1="185.9349" y1="232.6438" x2="212.5913" y2="275.9605"><stop offset=".3474" stop-color="#4891fb"/><stop offset=".749" stop-color="#227bfb"/><stop offset="1" stop-color="#2f71d1"/></linearGradient><path d="M234 271.5c-7 4.2-9.1 5.5-16.2 9.7l-.9-2.1c-4.8-7.3-10-29.2-11.4-37.9h-.1v-2.8c.2-.1.5-.2.7-.3 2.2-1.2 3.6-5.1 3.5-7.6l-.4-.2c.9-.9-1.8-7-1.8-8.3 0-.2.4 0 1 .4 1.5 1 2.7 2.5 3.5 4.1 4.8 10 22.1 45 22.1 45zm-28.6-30.2l-.1 27.7h-26.7c6.4 6.7 29.6 19.3 29.6 19.5 2.9-1.7 6.7-5.5 9.5-7.2l-.9-2.1c-4.8-7.4-9.9-29.3-11.4-37.9z" fill="url(#SVGID_4_)"/><radialGradient id="SVGID_5_" cx="325.2673" cy="312.64" r="31.4594" gradientUnits="userSpaceOnUse"><stop offset=".1464" stop-color="#1b375f"/><stop offset="1" stop-color="#24497e"/></radialGradient><path d="M327.4 342.1c-1.4 0-3-.1-3.9-1.1-.2-.2-.4-.5-.5-.8-.3-.9-.3-1.9-.2-2.8.3-4.5.7-9 1-13.6v-.1l21.4-1.5c7.1 5.1 16 10.3 23.1 15.4.6.5 1.3 1 1.4 1.7.1.3 0 .6-.1.8-.2.5-.7 1-1.2 1.3-.8.4-1.7.4-2.6.4" fill="url(#SVGID_5_)"/><path fill="none" stroke="#d3dbe5" stroke-width=".5277" stroke-linecap="round" stroke-linejoin="round" stroke-miterlimit="10" d="M349.4 234.5l-5.3 3v-6z"/><path class="st7" d="M319.8 228.1l-.2 11.5h2.2l-.3-11.5z"/><radialGradient id="SVGID_6_" cx="358.424" cy="215.0276" r="142.4543" gradientUnits="userSpaceOnUse"><stop offset="0" stop-color="#f6f8fa"/><stop offset=".0699525" stop-color="#f3f5f8"/><stop offset=".4968" stop-color="#e2e7ee"/><stop offset=".8197" stop-color="#dce2ea"/></radialGradient><path d="M323.6 268.9c-9 8.2-17.7 16.8-25.8 25.9-1.3 1.4-2.6 2.9-3.8 4.3-9.7 11.1-18.8 22.9-30.6 31.8-5.4 4.1-10.9 7.1-16.4 9.4-11.3 4.7-22.3 5.9-31.9 5.6-1 .3-2 .6-3 .8 0 0-65.6-28.2-65.6-28.8 2.6-1.6 61.5-31 64.1-32.5 6.4-3.8 12.9-7.6 19.3-11.5 10.8-6.4 21.7-12.9 32.6-19.4 1.1-.6 2.2-1.3 3.3-1.9 2-1.1 3.9-2.3 5.8-3.4 15.2-9 30.6-17.8 46.7-25.1 3.2-1.5 6.4-2.8 9.7-4 4.8-1.7 9.7-2.8 14.7-3h.3c3.2 0 6.4 1 9 3 1.1.8 2 1.7 2.9 2.8 2.5 3.4 2.8 7.9 2.6 12-.2 5.1-.5 10.2-1 15.3-1 11.4-2.7 22.6-4.5 33.8-1 6-1.9 11.9-2.8 17.9 0 .2-.1.4-.1.5-.9 6.3-1.9 12.6-2.8 19l-.5.7-.8.1-21.4 1.5h-.6v-.3c-.2-8.2-.2-16.9-.2-25.7.1-9.8.3-19.6.7-28.7l.1-.1z" fill="url(#SVGID_6_)"/><path class="st0" d="M323.6 268.9c2.6-2.3 4.7-5.7 7.3-8l-7.4 24.1.2-15.9M135.4 335.3s9.7 19.4 69 5.4c0 0-2.9-.6-4.1-3.5-1.4-3.5-8.9-8.7-8.9-8.7l-45.7 8.8-10.3-2z"/><linearGradient id="SVGID_7_" gradientUnits="userSpaceOnUse" x1="166.1674" y1="245.1884" x2="109.2323" y2="359.0585"><stop offset=".0202301" stop-color="#4891fb"/><stop offset=".6531" stop-color="#227bfb"/><stop offset=".7561" stop-color="#2479f4"/><stop offset=".9044" stop-color="#2a75e1"/><stop offset="1" stop-color="#2f71d1"/></linearGradient><path d="M91.3 248.8c-.5-.4-2.9-1.5-3.7-1.7.8-2.3 2.7-5.4 4.2-7.2 15-17.4 61-13.7 61.6-13.4 19.8 7.6 60.3 56.2 60.2 57.2-.3 9.2-.5 37.2-16.8 41.9-1.7.5-5.2 2.1-7 2-1.5-.1-2.3-1.7-2.5-1.8 3.9 5.8 6.2 12.7 6.4 19.7v.1c-13.6 2.1-27.2 3.1-40.8 3.4-7.8.2-18.5-1.8-22.9-5.6.1-.8 1.1-2.9 1.5-4.7 1.3-5.3 2.5-13.8-2.1-24.5-5.2-9.5-10-13-15.1-16.1-5.2-3.1-14-4.8-14-4.8 2.1-2.2 5.7-9.5 6.4-15.3.7-12.9-5.5-23.4-15.4-29.2z" fill="url(#SVGID_7_)"/><g class="st16"><defs><path id="SVGID_8_" class="st16" d="M233.9 271.5c-7.1 4.2-9.2 5.6-16.2 9.7-1.3.7-2.6 1.9-4.1 3-.3 9.7-.9 36.8-16.8 41.3-1.7.5-5.1 2.1-6.9 2-1.5-.1-2.3-1.7-2.6-1.8 3.9 5.8 6.2 12.7 6.4 19.7v.1c-13.7 2.2-27.2 3.2-40.8 3.4-7.8.2-18.5-1.8-22.9-5.6.1-.8 1.1-2.9 1.5-4.7 1.3-5.3 2.5-13.8-2.1-24.5-5.2-9.5-10-13-15.1-16.1-5.2-3.1-13.9-4.8-13.9-4.8 2.1-2.2 5.7-9.5 6.4-15.3.6-12.9-5.7-23.4-15.5-29.2-.5-.4-3-1.5-3.7-1.7.8-2.3 2.8-5.4 4.2-7.2 15-17.4 61-13.7 61.6-13.4 12.9 5 34.5 27.3 48.1 42.5h3.8v-30.5c.2-.1.5-.2.7-.3 2.2-1.2 3.6-5.1 3.4-7.6l-.4-.2c.9-.9-1.8-7-1.8-8.3 0-.2.5 0 1 .3 1.5 1 2.7 2.5 3.5 4.1 4.9 10.1 22.2 45.1 22.2 45.1z"/></defs><clipPath id="SVGID_9_"><use xlink:href="#SVGID_8_" overflow="visible"/></clipPath><path class="st17" d="M121.5 217.5c-3.2 11.7-1 24.7 5.7 34.8 6.7 10.1 17.9 17 29.9 18.6 8.9 1.1 18.2-.7 25.5-5.9 7.2-5.3 11.9-14.1 11.2-23"/><path class="st17" d="M147.6 221.1c-1.3 1.8-1.6 4.2-1 6.4.6 2.1 1.9 4 3.5 5.6 6.4 6.6 17.2 8.6 25.6 4.7M126.6 288.4c31.8-2.4 64.7 7.9 88.8 29M96.6 292c8.9-3.2 18.2-5.2 27.5-6.1M114.9 323.1c29-7.7 61.7.4 83.8 20.8M208 269.8c4.7-1.2 8.9-4.1 11.7-8 2.8-3.9 4.2-8.8 3.8-13.6M111.6 225c2 6.8 1.8 14.2-.5 20.9-2.3 6.7-6.8 12.6-12.7 16.7"/></g><path class="st18" d="M119.6 232.4s8.9 13.3 23.2 7.1c13.2-5.7-5.6-12.3-5.6-12.3l-17.6 5.2z"/><g><linearGradient id="SVGID_10_" gradientUnits="userSpaceOnUse" x1="118.6025" y1="212.9012" x2="179.8663" y2="212.4872"><stop offset=".1718" stop-color="#ffd672"/><stop offset="1" stop-color="#f3ad5f"/></linearGradient><path d="M169.6 199.2c-.2 1.3-1.4 2.2-2.2 3.3-2.3 2.9-2.1 7.1-3.2 10.6-1.8 5.5-7.3 9.5-13 9.5-1.3 0-2.7-.2-3.9-.6-.1 0-.2-.1-.2-.1 0 .1-.1.3-.1.4-.4 1.6-.7 3.3-.9 4.9-.1.6-.1 1.2-.2 1.8-.1.7-.1 1.5-.1 2.2 0 .6-.1 1.1-.1 1.7 0 1.8-3.9 4.5-9.9 5.6-.8.1-1.6.2-2.3.2-9.6.1-14.4-7.7-14.4-7.7 3.5-8.4 4.5-10.8 5.3-19 1.2.1 3-.5 3.8-1.4 2.5-2.9 3.5-6.6 4-10.3.1-.7 0-1.4-.2-2.2l-2.8-1.8c-.4-1.9-1.3-1.4.1-2.8l2.6-4.7c-.3-.3 4.6-2 4.6-2.4l3.3 2.1 17.4 2.1c-.3 3.3.8 6.1 2.7 6.3 1.8.2 3.7-2.2 4.1-5.5l3.8.4c0 .1 0 .3.1.4l.2.9c.1.6.3 1.1.5 1.7.4 1.6 1.3 3 1 4.4z" fill="url(#SVGID_10_)"/><linearGradient id="SVGID_11_" gradientUnits="userSpaceOnUse" x1="1836.5259" y1="-581.9702" x2="1916.1774" y2="-582.5083" gradientTransform="matrix(-.6551 .7556 .7556 .6551 1800.099 -823.738)"><stop offset=".1718" stop-color="#ffd672"/><stop offset="1" stop-color="#f3ad5f"/></linearGradient><path d="M139.7 188.8l17.4 2.1v-.1c.4-3.3 2.2-5.8 4.1-5.6 1.9.2 3 3.1 2.7 6.4v.1l3.8.5c-.5-3.7.4-7.8-1.3-11.2v-.1h-1c-5.2.1-10.4-1-15.2-3.2-2.6 1.3-5.8 1.9-9.1 2.1v.2c.9 2.9.4 6.3-1.4 8.8z" fill="url(#SVGID_11_)"/><path class="st21" d="M157.3 198.2c-2.4-1.4-1.6-6.5-.5-7.3.3 1.1 0 2.1.5 3.2s.6 2.4 1.6 2.9c.9.4 3-.5 1.9.7-.8.7-1.8 1.3-3.5.5z"/><path class="st22" d="M163 191.6c.4-3.4-.8-6.2-2.7-6.4-1.9-.2-3.7 2.3-4.1 5.6v.1c-.4 3.3.8 6.1 2.7 6.3 1.9.2 3.7-2.3 4.1-5.6z"/><path class="st2" d="M157.1 190.9c-.4 3.3.8 6.1 2.7 6.3 1.8.2 3.7-2.2 4.1-5.5v-.1c.4-3.3-.8-6.1-2.7-6.4-1.9-.2-3.7 2.3-4.1 5.7z"/><path class="st21" d="M153.6 180.6c-.9-.4-1.8-1-2.8-1.1-1.1-.1-2.1.4-3.1.7-1.4.5-2.8.8-4.3 1-.9.1-1.9.1-2.7-.3-.8-.4-1.4-1.5-1-2.3.2-.5.8-.8 1.3-1 .5-.1 1.1-.2 1.7-.2 2.8-.2 5.5-1.1 7.8-2.7 2.6 2.3 6 3.6 9.5 3.8 1 0 2 0 3 .1.9.1 3.4.8 1.7 1.8-1.1.6-2.4.9-3.6 1.1-2.6.5-5.2.2-7.5-.9zM165.9 201c-.2 0-.5.1-.7.2-.2.1-.4.3-.5.6 0 .3.2.5.4.6.5.3 1.3.5 1.9.6.5-.3 2.5-2.9 2.7-3.8-.4-.2-1.4.9-1.8 1.2-.7.2-1.4.5-2 .6zM147 222c-.1.1-.1.3-.1.4-.4 1.3-.7 3-.9 4.9-.1.6-.1 1.2-.2 1.8-.1.7-.1 1.5-.1 2.2 0 .6-.1 1.1-.1 1.7 0 1.8-3.9 4.5-9.9 5.6-.8.1-1.6.2-2.3.2 5.2-5.8 9-14.6 4.8-24.5 3.3 6 8.3 7.4 8.8 7.7zM143.8 191.1c-1.7-.1-3.6-.3-4.8-1.6 5.2 0 10.4.5 15.5 1.5.7.1 1.6 1.1.4 1-1 0-2.2-.3-3.3-.4-2.5-.1-5.2-.3-7.8-.5z"/><path class="st23" d="M163.9 191.7c.4-3.4-.8-6.2-2.7-6.4-1.9-.2-3.7 2.3-4.1 5.6v.1c-.4 3.3.8 6.1 2.7 6.3 1.8.1 3.7-2.3 4.1-5.6z"/><path class="st21" d="M163.9 193.4h.8c1.1 0 2.2.2 3.3.2h.1l-.2-.9c-.1-.1-.3-.1-.4-.1-1.1-.1-2.2-.3-3.3-.3-.1.4-.2.8-.3 1.1z"/><path class="st22" d="M167.9 192c-.1 3.3 1.2 6.1 3.1 6.2 1.9.1 3.5-2.5 3.7-5.8.2-3.3-1.2-6.1-3.1-6.2-1.8-.1-3.5 2.5-3.7 5.8z"/><path class="st2" d="M168.7 192.4c-.1 3.3 1.2 6 3.1 6.1 1.9.1 3.5-2.5 3.7-5.8.2-3.3-1.2-6.1-3.1-6.2-1.9-.1-3.5 2.5-3.7 5.9z"/><path d="M168.7 192.4c-.1 3.3 1.2 6.1 3.1 6.2 1.9.1 3.5-2.5 3.7-5.8.2-3.3-1.2-6.1-3.1-6.2-1.9-.2-3.5 2.4-3.7 5.8z" fill="#fff" stroke="#24497e" stroke-width=".25" stroke-linecap="round" stroke-linejoin="round" stroke-miterlimit="10"/><path class="st23" d="M168.7 192.4h-1l-3.8-.2M157.1 190.9l-17.4-2.1-2.2-.2"/><radialGradient id="SVGID_12_" cx="1838.8151" cy="-620.4081" r="0" gradientTransform="matrix(-.6551 .7556 .7556 .6551 1800.099 -823.738)" gradientUnits="userSpaceOnUse"><stop offset=".1464" stop-color="#1b375f"/><stop offset="1" stop-color="#24497e"/></radialGradient><path class="st22" d="M123.4 166.9c-1.3 2.1-1.7 4.4-1 6.2.2.6.5 1.1.9 1.6 1 1.3 2.6 2.1 4.2 2.2 3.2 2.4 8.2 3.7 13.6 3.5 3.4-.1 6.6-.8 9.1-2 4.8 2.2 10.1 3.3 15.2 3.2.3 0 .7 0 1-.1 6.7-.4 13.7-4 14.8-11.3.6-3.9-1.1-8.2-4.4-10.3-3-1.9-6.7-2-10-3.4-3.3-1.5-5.8-4.3-9.2-5.4-2-.6-4.2-.6-6.3-.2-1.5.3-2.9.9-4.4 1.1-1.6.2-3-.3-4.6-.4-8.6-.5-16.5 7.1-18.9 14.9.1.2.1.3 0 .4z"/><path class="st22" d="M125.5 213.2c1-.1 1.8-.7 2.4-1.3 1.2-1.2 2.1-2.6 2.8-4 .7-1.5 1.2-3 1.5-4.6.2-.8.3-1.6.4-2.4.1-.4.1-.9.1-1.3s-.1-.9-.2-1.3c-.5-1.6-1.1-2.9-1.1-4.4 0-1.4.4-2.9 1.3-3.9s2.3-1.6 3.6-1.3c1.3.3 2.4 1.5 2.4 2.9 0 .2.1.3.3.3.2 0 .3-.1.3-.3.1-.5.1-1-.1-1.5h.1c.3-.4.6-.7.8-1 1.9-2.7 2.5-5.7 1.6-8.8-3.5 0-11.1-1.6-14.1-4-1.5 0-2.9-.7-3.8-1.7 0-.2-.1-.4-.3-.5-.3-.1-.6 0-.8.3-1.4 2.9-2 6.2-2.1 9.3-.1 3.2.2 6.4.6 9.5.3 3.1.6 6.2.4 9.3-.1 1.6-.2 3.1-.1 4.8 0 .8.1 1.6.3 2.4.2.8.4 1.7 1.1 2.4.6.7 1.6 1.2 2.6 1.1z"/></g><path class="st18" d="M213.7 283.7c-4.8-7.3-8.5-41.3-8.3-42.4-.5.2-.1 27.7-.1 27.7s-52.4-31.9-37-11.1c13.6 18.1 45.4 25.8 45.4 25.8z"/><path class="st18" d="M171.6 262s-11.9-20.1-17.6-22c.3 1 17.6 22 17.6 22z"/><g><path class="st4" d="M220.8 208l-5.7-16.5-3.1 16.8 7.7 7z"/><linearGradient id="SVGID_13_" gradientUnits="userSpaceOnUse" x1="-478.8466" y1="1521.782" x2="-425.2767" y2="1612.4388" gradientTransform="rotate(9.474 7846.44512327 4788.91294145)"><stop offset="0" stop-color="#9fefcf"/><stop offset=".6961" stop-color="#59e3ad"/></linearGradient><path d="M182.4 276.1L158 272l7.2-42.9.2-1.3 4.7-28.4 50.7 8.5-3 18-.9 5.1c-3.8 1.3-8 3.1-11.1 5.2-.7.5-1.5 1.2-1.4 2.1.2 1.1 1.6 1.5 2.8 1.5 1.3 0 2.6-.2 3.9-.4v.2c-3.5 1.6-6.1 2.7-9.6 4.4-.7.3-1.3.6-1.8 1.2s-.6 1.4-.2 2c.5.7 1.5.6 2.3.6 1.8-.2 3.7-.3 5.5-.6v.1c-.7.1-1.5.2-2.1.6-.6.4-1.1 1.2-.9 1.9.3 1 1.6 1.2 2.7 1.3 2.2.1 4.5.1 6.7-.5l-.5 2.8-4.6 27.3-23.3-3.9-2.9-.7z" fill="url(#SVGID_13_)"/><path class="st27" d="M176.6 215.8l35.1 5.9M175.3 223.7l35.1 5.9M174 231.6l30.9 5.2M172.6 239.5l28 4.7M171.3 247.4l35.1 5.9"/></g><path d="M188.6 326.3c2.4 1.2 4.6 2.6 6.4 4.6 3.5 3.8 5.2 10.3 1.8 14.1-.3 0-.5.1-.8.1-.7.1-1.5.2-2.2.4v-.1c-.2-7-2.5-13.9-6.4-19.7l1.2.6z" fill="#91bdfd"/><path class="st18" d="M187.4 325.7c-12-5.6-32.4-6.1-49.4-21.2s-20.4-54.9-22.8-54.9c-.9.4 9.5 40.3 16.2 59.9"/><g><linearGradient id="SVGID_14_" gradientUnits="userSpaceOnUse" x1="-444.0945" y1="1560.7739" x2="-423.6505" y2="1560.7739" gradientTransform="rotate(9.474 7846.44512327 4788.91294145)"><stop offset=".1718" stop-color="#ffd672"/><stop offset="1" stop-color="#f3ad5f"/></linearGradient><path d="M220.9 237.6c.3.8.4 1.8.2 2.4-.3 1.3-1.3 2.2-2.3 3-3.3 2.5-7.3 3.5-11.4 4.1-1.8.3-3.7.4-5.5.6-.8.1-1.8.1-2.3-.6-.4-.6-.3-1.5.2-2 .5-.6 1.1-.9 1.8-1.2 3.5-1.6 6.1-2.7 9.6-4.4v-.2c2.7-.6 5.3-1.8 7.7-3.2.2-.1.4-.2.5-.3l.1.2c.7.3 1.1.9 1.4 1.6z" fill="url(#SVGID_14_)"/><linearGradient id="SVGID_15_" gradientUnits="userSpaceOnUse" x1="-430.5681" y1="1544.0137" x2="-428.5399" y2="1546.4644" gradientTransform="rotate(9.474 7846.44512327 4788.91294145)"><stop offset=".1718" stop-color="#ffd672"/><stop offset="1" stop-color="#f3ad5f"/></linearGradient><path d="M222.8 230.8s-2.1-3.2-4.9-4.8l-1.3 6.3 6.2-1.5z" fill="url(#SVGID_15_)"/><linearGradient id="SVGID_16_" gradientUnits="userSpaceOnUse" x1="-440.2948" y1="1553.2274" x2="-423.4457" y2="1553.2274" gradientTransform="rotate(9.474 7846.44512327 4788.91294145)"><stop offset=".1718" stop-color="#ffd672"/><stop offset="1" stop-color="#f3ad5f"/></linearGradient><path d="M220.9 229.9c3.6-.4 1.2 4.1-1.5 6-.2.1-.4.2-.5.3-2.4 1.4-5 2.6-7.7 3.2-1.3.3-2.6.5-3.9.4-1.2 0-2.6-.4-2.8-1.5-.1-.9.6-1.6 1.4-2.1 3.1-2.1 7.3-3.9 11.1-5.2.8-.3 1.6-.5 2.3-.8.6-.1 1.2-.2 1.6-.3z" fill="url(#SVGID_16_)"/><linearGradient id="SVGID_17_" gradientUnits="userSpaceOnUse" x1="-438.6371" y1="1565.4227" x2="-425.0061" y2="1565.4227" gradientTransform="rotate(9.474 7846.44512327 4788.91294145)"><stop offset=".1718" stop-color="#ffd672"/><stop offset="1" stop-color="#f3ad5f"/></linearGradient><path d="M219.1 243.3c-.2 2.5-2.3 6.1-4.7 6.9-.2.1-.5.2-.7.2-2.1.6-4.4.6-6.7.5-1.1 0-2.4-.2-2.7-1.3-.2-.7.2-1.5.9-1.9.6-.4 1.4-.5 2.1-.6v-.1c4.1-.6 8.1-1.6 11.4-4.1l.4.4z" fill="url(#SVGID_17_)"/><path class="st21" d="M218.8 243.1c-3.3 2.5-7.3 3.5-11.4 4.1 0 0 8.6 1 11.4-4.1zM219.4 236c-.2.1-.4.2-.5.3-2.4 1.4-6.4 3.2-7.7 3.2 0 0 6.5.6 8.4-3.3"/></g><path class="st0" d="M247.8 340s47.5-1.9 63.8-47.1l-10.8-1.9c-10.3 12.1-22.5 27.8-35.5 38-5.8 4.7-11.6 8.6-17.5 11M349.7 299.5l-3 21.7s-.2.7-1.5.9c0 0 24.3 15.4 24.7 17l20.4.4s3.8-1.1-5.6-3.3c-9.4-2.2-32.2-12.1-35-36.7zM213.3 283.5s3.8 5.5 2.9 20.6c0 0 24.1 1.7 24.1 5 0 3.4-.4 5.2-.4 5.2s1.8 3.9 1.2 6c0 0 1.1 1.8.4 3.3-.7 1.4-1.9 8.4-4.5 10.4 0 0 1.6 7.7-4 7.9-5.6.2-5.9 3.4-10.5 3.5-4.6.1-12.5-4.5-12.5-4.5l1.1-35.8c.1-.1 2.6-9.2 2.2-21.6z"/><path class="st1" d="M222.2 344.4c-21.7 9.6-49 15.4-78.5 15.4-71.1 0-128.7-17.7-128.7-66.1 0-28.3 15.5-48.4 40.3-61.9"/><path class="st33" d="M237.4 314.5c9.7-8.6 62.8-48.6 82.1-64.2 7.4-5.9 22.9-16.5 22.1-1.3-1.2 23.7-3.4 46.8-5.1 70.5"/><g><path class="st2" d="M228.6 343.7h-10.5c-3.8 0-6.9-2.9-7.3-6.7l-2.6-30.7h30.2l-2.6 30.7c-.3 3.8-3.4 6.7-7.2 6.7z"/><radialGradient id="SVGID_18_" cx="226.6839" cy="305.524" r="16.5089" gradientTransform="matrix(1.0016 0 0 1 -5.9586 0)" gradientUnits="userSpaceOnUse"><stop offset="0" stop-color="#f6f8fa"/><stop offset=".0699525" stop-color="#f3f5f8"/><stop offset=".4968" stop-color="#e2e7ee"/><stop offset=".8197" stop-color="#dce2ea"/></radialGradient><path d="M223.3 304.5c8.6 0 15.1.9 15.1 1.9 0 1-6.5 1.6-15.1 1.6s-15.1-.8-15.1-1.8c0-.9 6.5-1.7 15.1-1.7z" fill="url(#SVGID_18_)"/><path class="st0" d="M225.1 343.7s9.1-.9 10.9-9.5l.2-2.5-11.1 12z"/><linearGradient id="SVGID_19_" gradientUnits="userSpaceOnUse" x1="188.576" y1="329.1353" x2="241.785" y2="329.1353"><stop offset=".1718" stop-color="#ffd672"/><stop offset="1" stop-color="#f3ad5f"/></linearGradient><path d="M239.5 313.8c.1 0 .1.1.2.1 1.5.9.9 3.2 0 4.6h.9c.8.3 1.3 1.3 1.1 2.2s-.6 1.6-1.1 2.4c-.5.7-.9 1.3-1.4 1.9l.1.1c-1.7 4.5-4.3 9.7-7.7 13.2-3.4 3.5-7.4 6.5-12 8-.3.1-.6.2-1 .3-7.2 2-15.3.1-22.6-1.4.3 0 .5-.1.8-.1 3.4-3.9 1.7-10.3-1.8-14.1-1.8-2-4-3.4-6.4-4.6 2.7-.2 5.2-.9 7.3-1.9 3.3-1.5 5.8-3.9 7.2-6.7 1.2-2.4 2.3-5.3 4.8-6.5l.8-.4.4 4.2c0 8 4.9 9.7 7.5 10.2 2.7.5 8.3-.6 11.5-2.5s5.4-4.2 8.1-6.8c.9-1 2.1-2.6 3.3-2.2z" fill="url(#SVGID_19_)"/><path class="st21" d="M226.9 332.4c5.2-3.6 9.6-8.4 12.8-13.8 0 0-1.7 9.5-12.8 13.8zM228.9 336.6c3.8-3.6 7.2-7.4 10.3-11.6.5-.6-6.1 11.7-10.3 11.6z"/><g><defs><path id="SVGID_20_" d="M208.2 306.5l.6 6.4L238 311l.4-4.5z"/></defs><clipPath id="SVGID_21_"><use xlink:href="#SVGID_20_" overflow="visible"/></clipPath><path d="M207.6 308c7.7 4.5 28.7 3.3 30.7.3" clip-path="url(#SVGID_21_)" fill="none" stroke="#a7b6cb" stroke-width=".25" stroke-linecap="round" stroke-miterlimit="10"/></g></g><path class="st37" d="M216.8 296.2c.6-3 1.9-6 1.8-9.1-.1-2.9-1.4-5.6-2.6-8.2-1.3-2.6-2.6-5.3-2.8-8.2-.2-2.9 1.1-6.1 3.8-7.2 2.9-1.2 6.3.4 8.2 3 1.8 2.5 2.5 5.7 3 8.8.7 3.9 1.5 7.8 2.2 11.7.6 3.1 1.2 6.3.9 9.4-.3 3.1-1.6 6.3-4.2 8.2-6.6 4.8-11.5-2.1-10.3-8.4zM236.5 291.3c.5 1.8 1.4 3.7 3.1 4.3 1.2.4 2.6 0 3.7-.8 1-.8 1.8-1.9 2.3-3.1 1.2-2.3 1.9-4.8 1.6-7.3-.3-2.5-2-5-4.4-5.7-7.4-2.4-7.4 8.4-6.3 12.6z"/><path class="st0" d="M135.7 85h326.9v3.9H135.7zM476 252.9h-5l-.1-54.7 5 .5z"/><path class="st7" d="M543.9 14.8l-18.4 10.6.1-21.2zM60.5 89.8l-18.4 10.6V79.1z"/><path class="st1" d="M44.5 238c-.7-2.8-1-5.8-1-8.8 0-20.6 16.7-37.3 37.3-37.3 5.9 0 11.5 1.4 16.5 3.8M77.1 245.2c16.4 0 29.7 13.3 29.7 29.7 0 7-2.4 13.4-6.4 18.4M88.9 294c2.4-.5 4.8-.7 7.4-.7 20.1 0 36.5 16.3 36.5 36.5 0 5.9-1.4 11.5-3.9 16.5M428.1 291.9c0-21.6 21.7-39.1 48.5-39.1 1.4 0 2.7 0 4.1.1"/><path class="st38" d="M47.6 124.8c-1.3 37.3 11.5 75 35.3 103.8M487.2 194.5c7.1-16.4 14.1-32.8 21.2-49.2 12.9-29.9 29.6-61.5 26.4-93.9"/><path class="st33" d="M323.5 318.8c7.5 1.7 15.9 1.7 23.4.1"/><path class="st40" d="M346.9 224.8v-.3"/><path d="M279.4 250c19.7-13.3 41.5-23.4 64.4-29.8" opacity=".5" fill="none" stroke="#f6f8fa" stroke-width=".25" stroke-linecap="round" stroke-linejoin="round" stroke-miterlimit="10"/><path d="M238.8 281c-1.8 3.3-1.7 7.5.2 10.8" fill="none"/><g opacity=".5"><path class="st40" d="M92.8 243.5c5.2-6.4 12.8-10.8 20.9-12M220.9 266.8c2.3 4.8 4.5 9.7 5.6 14.8 1.1 5.2 1.3 10.7-.4 15.7M183.3 326.7c2.4 2.1 4.1 5 4.6 8.2M455.6 59.7v19.8"/></g><path class="st1" d="M226.7 248.3c2.7 5.4 5.4 10.9 8.2 16.3M231.9 250.9l-.6-.9c1.4 2.5 2.9 5.1 4.3 7.6"/><path class="st33" d="M86.4 78V49.2M90.3 84.6V71M10.4 110.8v25.5M5.6 115.2v5.8M490.7 26.1v30.7M486.4 18.6v17.1M428.1 314.7s8.4 19.1 5.2 24.8"/><path class="st2" d="M161.5 210.5c-.1 0-.2-.1-.2-.1l-.9-.3c-.7-.2-1.5-.4-2.2-.4-.3 0-.6 0-.7.3-.1.2 0 .3 0 .5.2.6.6 1.2 1.1 1.6.5.4 1.2.6 1.9.4.5-.1 1-.5 1.2-1 .1-.2.1-.5.1-.7-.1-.2-.2-.3-.3-.3z"/></svg>