<svg xmlns="http://www.w3.org/2000/svg" xmlns:xlink="http://www.w3.org/1999/xlink" viewBox="0 0 550.83 381.54"><defs><style>.cls-1,.cls-12,.cls-16,.cls-22,.cls-27,.cls-3,.cls-33,.cls-37,.cls-4,.cls-43,.cls-48,.cls-49,.cls-50,.cls-6,.cls-8{fill:none;}.cls-2{isolation:isolate;}.cls-3,.cls-48,.cls-8{stroke:#59e3ad;}.cls-12,.cls-22,.cls-27,.cls-3,.cls-33,.cls-34,.cls-37,.cls-43,.cls-48,.cls-49,.cls-50{stroke-linecap:round;}.cls-12,.cls-22,.cls-27,.cls-3,.cls-33,.cls-34,.cls-37,.cls-48,.cls-49,.cls-50{stroke-linejoin:round;}.cls-3,.cls-48{stroke-dasharray:3 3 3 3;}.cls-12,.cls-22,.cls-4,.cls-5,.cls-6,.cls-7{stroke:#d3dbe5;}.cls-16,.cls-4,.cls-43,.cls-5,.cls-6,.cls-7,.cls-8{stroke-miterlimit:10;}.cls-12,.cls-33,.cls-34,.cls-37,.cls-4,.cls-43,.cls-48,.cls-49,.cls-5,.cls-50,.cls-6,.cls-7,.cls-8{stroke-width:0.25px;}.cls-17,.cls-5,.cls-7{fill:#d3dbe5;}.cls-6,.cls-7{fill-rule:evenodd;}.cls-9{fill:url(#Sfumatura_senza_nome_11);}.cls-10,.cls-11{fill:#f6f8fa;}.cls-11,.cls-28{mix-blend-mode:multiply;}.cls-13,.cls-34,.cls-47{fill:#fff;}.cls-14{fill:url(#Sfumatura_senza_nome_10);}.cls-15{fill:#43aa82;}.cls-16{stroke:#fff;}.cls-18{fill:url(#Sfumatura_senza_nome_60);}.cls-19{fill:url(#Sfumatura_senza_nome_8);}.cls-20{fill:url(#Sfumatura_senza_nome_5);}.cls-21{fill:url(#Sfumatura_senza_nome_60-2);}.cls-22{stroke-width:0.53px;}.cls-23{fill:url(#Sfumatura_senza_nome_11-2);}.cls-24{fill:url(#Sfumatura_senza_nome_9);}.cls-25{opacity:0.18;}.cls-26{clip-path:url(#clip-path);}.cls-27{stroke:#99c3e4;stroke-width:0.5px;}.cls-28{fill:#b3b3b3;opacity:0.3;}.cls-29{fill:url(#Sfumatura_senza_nome_182);}.cls-30{fill:url(#Sfumatura_senza_nome_182-2);}.cls-31{fill:#db5437;opacity:0.24;}.cls-32{fill:#24497e;}.cls-33,.cls-34{stroke:#24497e;}.cls-35{fill:url(#Sfumatura_senza_nome_60-3);}.cls-36{fill:url(#Sfumatura_senza_nome_4);}.cls-37{stroke:#43aa82;}.cls-38{fill:#91bdfd;}.cls-39{fill:url(#Sfumatura_senza_nome_182-3);}.cls-40{fill:url(#Sfumatura_senza_nome_182-4);}.cls-41{fill:url(#Sfumatura_senza_nome_182-5);}.cls-42{fill:url(#Sfumatura_senza_nome_182-6);}.cls-43{stroke:#a7b6cb;}.cls-44{fill:url(#Sfumatura_senza_nome_11-3);}.cls-45{fill:url(#Sfumatura_senza_nome_182-7);}.cls-46{clip-path:url(#clip-path-2);}.cls-47{opacity:0.41;}.cls-49,.cls-50{stroke:#f6f8fa;}.cls-50,.cls-51{opacity:0.5;}</style><radialGradient id="Sfumatura_senza_nome_11" cx="231.69" cy="67.72" r="24.54" gradientUnits="userSpaceOnUse"><stop offset="0" stop-color="#f6f8fa"/><stop offset="0.07" stop-color="#f3f5f8"/><stop offset="0.5" stop-color="#e2e7ee"/><stop offset="0.82" stop-color="#dce2ea"/></radialGradient><linearGradient id="Sfumatura_senza_nome_10" x1="262.25" y1="41.6" x2="306.17" y2="95.29" gradientUnits="userSpaceOnUse"><stop offset="0" stop-color="#9fefcf"/><stop offset="1" stop-color="#59e3ad"/></linearGradient><radialGradient id="Sfumatura_senza_nome_60" cx="428.26" cy="331.69" r="31.57" gradientUnits="userSpaceOnUse"><stop offset="0.15" stop-color="#1b375f"/><stop offset="1" stop-color="#24497e"/></radialGradient><radialGradient id="Sfumatura_senza_nome_8" cx="384.18" cy="325.36" r="98.1" gradientUnits="userSpaceOnUse"><stop offset="0" stop-color="#f6f8fa"/><stop offset="0.12" stop-color="#eef1f4"/><stop offset="0.3" stop-color="#e8ecf0"/></radialGradient><linearGradient id="Sfumatura_senza_nome_5" x1="185.78" y1="240.15" x2="211.67" y2="282.23" gradientUnits="userSpaceOnUse"><stop offset="0.35" stop-color="#4891fb"/><stop offset="0.75" stop-color="#227bfb"/><stop offset="1" stop-color="#2f71d1"/></linearGradient><radialGradient id="Sfumatura_senza_nome_60-2" cx="321.12" cy="317.86" r="30.56" xlink:href="#Sfumatura_senza_nome_60"/><radialGradient id="Sfumatura_senza_nome_11-2" cx="353.33" cy="223.04" r="138.38" xlink:href="#Sfumatura_senza_nome_11"/><linearGradient id="Sfumatura_senza_nome_9" x1="166.58" y1="252.34" x2="111.27" y2="362.95" gradientUnits="userSpaceOnUse"><stop offset="0.02" stop-color="#4891fb"/><stop offset="0.65" stop-color="#227bfb"/><stop offset="0.76" stop-color="#2479f4"/><stop offset="0.9" stop-color="#2a75e1"/><stop offset="1" stop-color="#2f71d1"/></linearGradient><clipPath id="clip-path" transform="translate(-10.45 -6.62)"><path class="cls-1" d="M232.33,277.88c-6.86,4.07-8.91,5.39-15.76,9.44a36.88,36.88,0,0,0-4,3c-.29,9.42-.83,35.71-16.35,40.13-1.69.46-5,2-6.75,1.89-1.5-.1-2.2-1.63-2.49-1.74v0a36.22,36.22,0,0,1,6.2,19.1l0,.05a293.79,293.79,0,0,1-39.66,3.35c-7.55.18-18-1.71-22.22-5.4.08-.8,1-2.83,1.48-4.59a36.06,36.06,0,0,0-2-23.78c-5.09-9.21-9.71-12.64-14.72-15.67S102.56,299,102.56,299c2-2.1,5.55-9.19,6.22-14.85a30.46,30.46,0,0,0-15-28.34,23.53,23.53,0,0,0-3.58-1.66,26,26,0,0,1,4.13-7c14.56-16.87,59.25-13.26,59.82-13,12.54,4.83,33.56,26.5,46.69,41.29h3.71V245.82a5.39,5.39,0,0,0,.68-.34c2.1-1.19,3.5-4.95,3.35-7.37l-.42-.15c.86-.91-1.79-6.83-1.71-8.07,0-.24.44,0,1,.33a10.65,10.65,0,0,1,3.42,4C215.56,243.93,232.33,277.88,232.33,277.88Z"/></clipPath><linearGradient id="Sfumatura_senza_nome_182" x1="120.37" y1="220.97" x2="179.88" y2="220.57" gradientUnits="userSpaceOnUse"><stop offset="0.17" stop-color="#ffd672"/><stop offset="1" stop-color="#f3ad5f"/></linearGradient><linearGradient id="Sfumatura_senza_nome_182-2" x1="1335.19" y1="-343.86" x2="1412.57" y2="-344.39" gradientTransform="matrix(-0.66, 0.76, 0.76, 0.66, 1292.45, -591.99)" xlink:href="#Sfumatura_senza_nome_182"/><radialGradient id="Sfumatura_senza_nome_60-3" cx="1337.42" cy="-381.2" r="0" gradientTransform="matrix(-0.66, 0.76, 0.76, 0.66, 1292.45, -591.99)" xlink:href="#Sfumatura_senza_nome_60"/><linearGradient id="Sfumatura_senza_nome_4" x1="-450.61" y1="1462.43" x2="-398.57" y2="1550.49" gradientTransform="translate(857.88 -1163.75) rotate(9.47)" gradientUnits="userSpaceOnUse"><stop offset="0" stop-color="#9fefcf"/><stop offset="0.7" stop-color="#59e3ad"/></linearGradient><linearGradient id="Sfumatura_senza_nome_182-3" x1="-416.85" y1="1500.3" x2="-396.99" y2="1500.3" gradientTransform="translate(857.88 -1163.75) rotate(9.47)" xlink:href="#Sfumatura_senza_nome_182"/><linearGradient id="Sfumatura_senza_nome_182-4" x1="-403.71" y1="1484.02" x2="-401.74" y2="1486.4" gradientTransform="translate(857.88 -1163.75) rotate(9.47)" xlink:href="#Sfumatura_senza_nome_182"/><linearGradient id="Sfumatura_senza_nome_182-5" x1="-413.16" y1="1492.97" x2="-396.79" y2="1492.97" gradientTransform="translate(857.88 -1163.75) rotate(9.47)" xlink:href="#Sfumatura_senza_nome_182"/><linearGradient id="Sfumatura_senza_nome_182-6" x1="-411.55" y1="1504.82" x2="-398.31" y2="1504.82" gradientTransform="translate(857.88 -1163.75) rotate(9.47)" xlink:href="#Sfumatura_senza_nome_182"/><radialGradient id="Sfumatura_senza_nome_11-3" cx="224.9" cy="310.95" r="16.04" gradientTransform="translate(-5.34)" xlink:href="#Sfumatura_senza_nome_11"/><linearGradient id="Sfumatura_senza_nome_182-7" x1="188.34" y1="333.88" x2="240.03" y2="333.88" xlink:href="#Sfumatura_senza_nome_182"/><clipPath id="clip-path-2" transform="translate(-10.45 -6.62)"><polygon class="cls-1" points="207.44 311.86 207.99 318.09 236.4 316.23 236.74 311.86 207.44 311.86"/></clipPath></defs><title>api</title><g class="cls-2"><g id="Layer_1" data-name="Layer 1"><path class="cls-3" d="M647.7,244.4" transform="translate(-10.45 -6.62)"/><rect class="cls-4" x="477.99" y="0.13" width="64.92" height="43.46"/><rect class="cls-5" x="542.92" y="0.13" width="7.79" height="43.46"/><polygon class="cls-6" points="17.07 119.84 72.04 119.85 72.04 69.64 17.07 69.64 17.07 119.84"/><polygon class="cls-7" points="9.94 119.84 18.11 119.85 18.11 69.25 9.94 69.25 9.94 119.84"/><rect class="cls-8" x="245.34" y="27.28" width="28.76" height="28.76"/><rect class="cls-9" x="232.68" y="49.63" width="16.5" height="16.5"/><path class="cls-10" d="M444.9,307.13s3.66-2,5.5,4.75c7.26,28.47,70.56,15.25,58.65-33.22,0,0,23,35-22,54.55,0,0-22.85,7.25-41.34-4.62Z" transform="translate(-10.45 -6.62)"/><path class="cls-10" d="M488.19,215.8s14.62,26-2.53,46.44c0,0,11.95,4.82,15.63,8.14C501.29,270.38,518.32,238,488.19,215.8Z" transform="translate(-10.45 -6.62)"/><path class="cls-11" d="M95.35,299s13.56-8.71,12.61-24.49a25.54,25.54,0,0,1-5.28,24.5Z" transform="translate(-10.45 -6.62)"/><path class="cls-10" d="M25.93,271.46C-2.56,337.05,66.1,374.38,185.68,359.72,24.21,367.69,24,301.45,25.93,271.46Z" transform="translate(-10.45 -6.62)"/><path class="cls-10" d="M194.58,349.52c0,6.85,30.53,6.87,111.06,6.87s145.82-5.55,145.82-12.4-65.33-16.67-145.82-12.4C225.35,335.86,194.58,342.67,194.58,349.52Z" transform="translate(-10.45 -6.62)"/><path class="cls-12" d="M459.87,206.63c25.61,0,46.37,19.69,46.37,44a41.84,41.84,0,0,1-4.95,19.77" transform="translate(-10.45 -6.62)"/><path class="cls-12" d="M480.16,260.93c20,3.52,35,18.75,35,37,0,20.87-19.65,37.78-43.89,37.78a47.52,47.52,0,0,1-31-11.07" transform="translate(-10.45 -6.62)"/><path class="cls-12" d="M83.63,200.64c1.72-28.54,24.92-51.14,53.3-51.14a51.65,51.65,0,0,1,5.45.28" transform="translate(-10.45 -6.62)"/><path class="cls-10" d="M137.39,268.61l-.46-47.93L137,97H454.27l2.06,163.65c-27.8,6.14-34.17,26.91-34.52,30H217.22S145.77,270,137.39,268.61Z" transform="translate(-10.45 -6.62)"/><path class="cls-13" d="M168.93,67.2H454.27V97H137V67.2h31.94ZM444.07,83.49a4.22,4.22,0,1,0-4.22,4.22A4.22,4.22,0,0,0,444.07,83.49Zm-15.14,0a4.22,4.22,0,1,0-4.22,4.22A4.22,4.22,0,0,0,428.93,83.49Zm-15.14,0a4.22,4.22,0,1,0-4.22,4.22A4.22,4.22,0,0,0,413.79,83.49Z" transform="translate(-10.45 -6.62)"/><path class="cls-14" d="M168.48,67.2H454.27V97H136.48V67.2h32Z" transform="translate(-10.45 -6.62)"/><circle class="cls-13" cx="170.3" cy="76.87" r="4.22"/><circle class="cls-13" cx="155.16" cy="76.87" r="4.22"/><circle class="cls-13" cx="140.02" cy="76.87" r="4.22"/><path class="cls-15" d="M462.69,259.8c-3,1.2-5.6,0-8.42,1.56V67.2h8.82V226.83" transform="translate(-10.45 -6.62)"/><rect class="cls-16" x="439.64" y="368.28" width="12.76" height="12.76"/><line class="cls-12" x1="364.71" y1="222.34" x2="364.71" y2="212.26"/><line class="cls-12" x1="373.45" y1="212.41" x2="373.45" y2="222.11"/><rect class="cls-17" x="364.68" y="211.91" width="8.73" height="10.51"/><path class="cls-12" d="M309.71,229.68a3.79,3.79,0,1,1-3.79-3.8A3.79,3.79,0,0,1,309.71,229.68Z" transform="translate(-10.45 -6.62)"/><polyline class="cls-12" points="364.71 222.34 322.46 222.34 322.17 222.34 322.17 212.22 322.25 212.22 364.71 212.22"/><rect class="cls-5" x="308.4" y="210.7" width="13.78" height="19.68"/><polyline class="cls-12" points="282.42 210.7 308.4 210.7 308.4 235.1"/><rect class="cls-12" x="327.34" y="234.72" width="101.38" height="6.19"/><polyline class="cls-12" points="324.51 234.91 324.51 222.34 378.02 222.34 378.02 234.91"/><rect class="cls-12" x="378.02" y="222.34" width="4.9" height="12.45"/><rect class="cls-17" x="377.86" y="222.26" width="4.93" height="12.44"/><polyline class="cls-12" points="173.84 169.96 173.84 134.35 173.84 130.84 173.84 110.14 176.62 110.14 176.62 110.42 176.62 169.96"/><polyline class="cls-12" points="161.92 169.96 161.92 134.35 162.14 134.35 172.86 134.35 173.84 134.35 173.84 169.96"/><polygon class="cls-12" points="173.84 130.84 173.84 134.35 172.86 134.35 162.14 134.35 161.92 134.35 161.92 130.84 173.84 130.84"/><polyline class="cls-12" points="176.62 110.42 176.62 169.96 176.62 170.15 176.62 170.24"/><rect class="cls-12" x="153.64" y="170.01" width="144.29" height="6.22"/><polyline class="cls-12" points="272.09 157.42 229.83 157.42 229.55 157.42 229.55 147.3 229.63 147.3 242.17 147.3"/><polyline class="cls-12" points="231.88 169.99 231.88 157.42 285.4 157.42 285.4 169.99"/><polygon class="cls-12" points="288.77 134.48 288.77 147.24 247.8 147.24 247.8 147.3 235.26 147.3 235.26 134.48 288.77 134.48"/><polygon class="cls-12" points="229.55 157.7 229.55 170.06 217.8 170.06 217.8 116.04 229.55 116.04 229.55 147.58 229.55 157.7"/><polygon class="cls-12" points="199.06 124.56 215.36 167.54 208.31 170.22 192.12 127.56 192.78 127.31 198.76 124.67 199.06 124.56"/><polygon class="cls-12" points="199.06 124.56 198.76 124.67 192.78 127.31 192.12 127.56 189.07 119.54 196.13 116.86 199.06 124.56"/><polyline class="cls-12" points="186.49 169.96 186.49 110.42 186.49 110.14 188.92 110.14 188.92 118.5 188.92 169.96"/><polyline class="cls-12" points="176.62 169.96 176.62 110.42 176.62 110.14 186.49 110.14 186.49 110.42 186.49 169.96"/><polygon class="cls-12" points="276.9 147.24 276.9 147.3 245.01 147.3 235.26 147.3 235.26 134.48 276.9 134.48 276.9 147.24"/><polyline class="cls-12" points="186.49 110.42 186.49 169.96 186.49 170.15 186.49 170.24"/><path class="cls-12" d="M258.69,148.39A2.39,2.39,0,1,1,256.3,146,2.39,2.39,0,0,1,258.69,148.39Z" transform="translate(-10.45 -6.62)"/><path class="cls-12" d="M268.62,148.39a2.39,2.39,0,1,1-2.39-2.39A2.39,2.39,0,0,1,268.62,148.39Z" transform="translate(-10.45 -6.62)"/><path class="cls-12" d="M278.55,148.39a2.39,2.39,0,1,1-2.39-2.39A2.39,2.39,0,0,1,278.55,148.39Z" transform="translate(-10.45 -6.62)"/><polyline class="cls-12" points="188.92 110.14 196.43 110.14 196.43 113.73 196.43 116.86 210.33 116.86 217.49 133.32"/><line class="cls-12" x1="196.42" y1="139.62" x2="196.42" y2="170.18"/><line class="cls-12" x1="215.36" y1="167.54" x2="217.7" y2="167.54"/><polyline class="cls-12" points="229.55 116.04 244.87 116.04 244.87 134.59"/><line class="cls-12" x1="288.64" y1="170.31" x2="288.64" y2="176.04"/><rect class="cls-17" x="288.65" y="169.8" width="9.35" height="6.53"/><polygon class="cls-17" points="229.43 116.09 229.57 147.31 235.22 147.31 235.22 134.46 244.69 134.46 244.83 115.81 229.43 116.09"/><polygon class="cls-17" points="189.03 110.3 189.03 170.05 196.38 170.05 196.38 138.84 190.02 119.06 196.52 116.66 196.23 109.88 189.03 110.3"/><polygon class="cls-17" points="209.09 169.91 215.73 167.37 217.42 167.65 217.71 169.63 209.09 169.91"/><polygon class="cls-17" points="229.71 157.62 229.43 169.91 231.83 169.91 231.55 157.62 229.71 157.62"/><line class="cls-12" x1="272.09" y1="157.42" x2="272.09" y2="147.34"/><line class="cls-12" x1="280.82" y1="147.49" x2="280.82" y2="157.18"/><rect class="cls-12" x="285.4" y="157.42" width="4.9" height="12.45"/><rect class="cls-17" x="276.9" y="134.48" width="11.88" height="12.77"/><rect class="cls-17" x="272.06" y="146.98" width="8.73" height="10.51"/><rect class="cls-17" x="285.23" y="157.33" width="4.93" height="12.44"/><rect class="cls-12" x="315.02" y="194.27" width="109.2" height="6.19"/><line class="cls-12" x1="354.23" y1="192.76" x2="358.78" y2="192.76"/><polyline class="cls-12" points="383.56 194.26 383.56 169.42 383.74 169.42"/><polygon class="cls-12" points="373.57 145.51 373.57 151.4 373.11 151.4 359.3 151.4 359.04 151.4 359.04 145.51 373.57 145.51"/><polygon class="cls-12" points="334.5 152.31 334.5 191.75 334.25 191.75 320.07 191.75 319.98 191.75 319.98 148.41 320.07 148.41 334.25 148.41 334.5 148.41 334.5 152.31"/><polygon class="cls-12" points="334.5 145.51 334.5 148.41 334.25 148.41 320.07 148.41 319.98 148.41 319.98 145.51 334.5 145.51"/><polyline class="cls-12" points="319.98 194.34 319.98 191.75 319.98 148.41 319.98 145.51 334.5 145.51 334.5 148.41 334.5 152.31 334.5 191.75 334.5 194.34"/><polyline class="cls-12" points="359.04 194 359.04 151.4 359.04 145.51 373.57 145.51 373.57 151.4 373.57 161.72 373.57 194.06"/><line class="cls-12" x1="320.07" y1="148.41" x2="334.25" y2="148.41"/><path class="cls-12" d="M377.65,188.08a1.13,1.13,0,0,1-2.25,0,1.13,1.13,0,1,1,2.25,0Z" transform="translate(-10.45 -6.62)"/><path class="cls-12" d="M377.65,180.38a1.13,1.13,0,0,1-2.25,0,1.13,1.13,0,1,1,2.25,0Z" transform="translate(-10.45 -6.62)"/><path class="cls-12" d="M377.65,172.68a1.13,1.13,0,0,1-2.25,0,1.13,1.13,0,1,1,2.25,0Z" transform="translate(-10.45 -6.62)"/><path class="cls-12" d="M377.65,165a1.13,1.13,0,0,1-2.25,0,1.13,1.13,0,1,1,2.25,0Z" transform="translate(-10.45 -6.62)"/><line class="cls-12" x1="359.3" y1="151.4" x2="373.11" y2="151.4"/><polyline class="cls-12" points="347.15 194.18 334.69 152.31 341.6 150.26 354.23 192.76 349.06 194.29"/><line class="cls-12" x1="339.15" y1="155.15" x2="349.65" y2="189.86"/><polyline class="cls-12" points="400.22 194.14 400.22 169.42 399.86 169.42 383.74 169.42"/><polyline class="cls-12" points="383.56 169.42 383.56 161.72 373.89 161.72"/><polyline class="cls-12" points="341.6 150.26 356.25 150.26 358.78 157.7"/><polyline class="cls-12" points="334.5 145.51 346.14 145.51 346.14 150.11"/><polyline class="cls-12" points="373.57 145.51 387.03 145.51 387.03 161.69"/><polyline class="cls-12" points="383.56 161.72 393.01 161.72 393.01 169.17"/><polyline class="cls-12" points="400.22 169.42 407.27 169.42 407.27 194.31"/><line class="cls-12" x1="410.1" y1="194.57" x2="410.1" y2="200.49"/><polygon class="cls-17" points="373.56 145.52 373.54 161.77 386.93 161.69 386.93 145.38 373.56 145.52"/><polygon class="cls-17" points="334.31 145.44 334.59 194.27 347.56 194.27 335.29 152.28 341.7 150.18 346.14 150.11 346.14 145.51 334.31 145.44"/><rect class="cls-17" x="383.36" y="161.69" width="9.67" height="7.74"/><rect class="cls-17" x="400.13" y="169.58" width="7.25" height="24.5"/><rect class="cls-17" x="409.8" y="194.36" width="14.35" height="6.18"/><polygon class="cls-12" points="277.98 198.4 277.98 202.97 277.45 202.97 223.8 202.97 223.8 198.4 277.98 198.4"/><path class="cls-12" d="M288.43,241.07v.2H234.25V209.59h54.18Z" transform="translate(-10.45 -6.62)"/><rect class="cls-12" x="215.88" y="234.72" width="75.43" height="6.19"/><polyline class="cls-12" points="223.8 234.1 223.8 202.97 223.8 198.4 277.98 198.4 277.98 202.97 277.98 234.45"/><line class="cls-12" x1="223.8" y1="202.97" x2="277.98" y2="202.97"/><polyline class="cls-12" points="274.6 198.4 282.56 198.4 282.56 234.83"/><rect class="cls-17" x="277.98" y="198.4" width="4.58" height="36.43"/><line class="cls-12" x1="230.39" y1="211.3" x2="269.47" y2="211.3"/><line class="cls-12" x1="230.39" y1="216.23" x2="269.47" y2="216.23"/><line class="cls-12" x1="230.39" y1="221.16" x2="269.47" y2="221.16"/><line class="cls-12" x1="230.39" y1="226.09" x2="269.47" y2="226.09"/><path class="cls-18" d="M447.3,332.12c.26,2.6.48,5.43-.89,7.66-2.39,3.85-7.93,3.78-12.44,3.24l-1.61.16a86.28,86.28,0,0,0-5-21.8l.6-.23q4.77-12.33,9.53-24.65c.67-1.76,1.93-3.87,3.79-3.53,1.71.32,2.26,2.47,2.43,4.21Q445.51,314.65,447.3,332.12Z" transform="translate(-10.45 -6.62)"/><path class="cls-11" d="M349.6,250.29s6.67.92,5.25,11.07S351.39,307,351.39,307l-8.05-1.89Z" transform="translate(-10.45 -6.62)"/><path class="cls-19" d="M432.4,343.6l-.93.47h-66l-66.19.1,0-.1H234.16a79.56,79.56,0,0,0,17.44-10c12.56-9.42,22.25-22.05,32.59-33.88q2-2.31,4.08-4.58l.1.09c8.94.85,110.89,18.58,138.31,25.24l.57.1.12.35a85.85,85.85,0,0,1,5,21.8C432.37,343.33,432.39,343.46,432.4,343.6Z" transform="translate(-10.45 -6.62)"/><path class="cls-20" d="M232.45,277.88c-6.85,4.07-8.88,5.38-15.75,9.45l-.89-2c-4.68-7.13-9.68-28.36-11.11-36.77h-.07v-2.73c.23-.1.45-.21.67-.33,2.11-1.19,3.52-5,3.35-7.38l-.41-.15c.86-.91-1.79-6.82-1.7-8.08,0-.23.43,0,1,.35a10.47,10.47,0,0,1,3.41,4ZM204.7,248.55h-.07v26.9h-26c6.23,6.5,28.76,18.79,28.76,18.92,2.81-1.66,6.47-5.38,9.27-7l-.89-2C211.13,278.19,206.13,257,204.7,248.55Z" transform="translate(-10.45 -6.62)"/><path class="cls-21" d="M323.24,346.51c-1.37,0-2.92-.06-3.8-1.09a2.53,2.53,0,0,1-.48-.82,6.75,6.75,0,0,1-.2-2.73q.5-6.6,1-13.18v-.06l20.81-1.5c6.86,5,15.56,10,22.41,14.95a3.08,3.08,0,0,1,1.39,1.68,1.57,1.57,0,0,1-.08.83,2.36,2.36,0,0,1-1.17,1.24,6.12,6.12,0,0,1-2.55.39" transform="translate(-10.45 -6.62)"/><polygon class="cls-22" points="334.07 235.33 328.98 238.28 328.98 232.39 334.07 235.33"/><polygon class="cls-17" points="305.38 229.13 305.12 240.32 307.31 240.32 307.05 229.13 305.38 229.13"/><path class="cls-23" d="M319.49,275.39a351.83,351.83,0,0,0-25.07,25.14q-1.87,2.07-3.72,4.17C281.29,315.48,272.45,327,261,335.56a72.9,72.9,0,0,1-15.88,9.13,74.69,74.69,0,0,1-30.94,5.45l-2.87.82S147.63,323.61,147.64,323c2.56-1.51,59.71-30.08,62.26-31.59l18.73-11.13c10.51-6.26,21-12.53,31.71-18.83l3.18-1.88,5.68-3.34c14.8-8.7,29.71-17.26,45.32-24.36,3.1-1.41,6.24-2.77,9.46-3.89a46.28,46.28,0,0,1,14.3-2.86h.3a14.8,14.8,0,0,1,8.75,2.86,13,13,0,0,1,2.77,2.73c2.47,3.31,2.73,7.69,2.57,11.65-.19,5-.51,9.9-.93,14.83-.95,11-2.65,22-4.41,32.88-.93,5.79-1.88,11.57-2.74,17.36,0,.17,0,.35-.08.53q-1.35,9.19-2.72,18.41l-.44.69-.81.05-20.81,1.5-.59,0,0-.27c-.18-7.95-.23-16.42-.16-24.93.08-9.5.32-19,.71-27.88Z" transform="translate(-10.45 -6.62)"/><path class="cls-11" d="M319.49,275.39c2.51-2.27,4.55-5.55,7.12-7.75L319.44,291l.23-15.44" transform="translate(-10.45 -6.62)"/><path class="cls-11" d="M136.68,339.9s9.42,18.87,67.06,5.23a5.93,5.93,0,0,1-4-3.39c-1.34-3.36-8.68-8.49-8.68-8.49l-44.41,8.52Z" transform="translate(-10.45 -6.62)"/><path class="cls-24" d="M93.86,255.84a23,23,0,0,0-3.57-1.66,25.14,25.14,0,0,1,4.13-7c14.55-16.88,59.24-13.26,59.82-13,19.24,7.4,58.55,54.62,58.51,55.58-.28,8.9-.53,36.17-16.36,40.65-1.7.49-5,2-6.76,1.9-1.49-.1-2.2-1.63-2.48-1.75l0,0a36.33,36.33,0,0,1,6.23,19.09v.07a295.15,295.15,0,0,1-39.66,3.35c-7.55.16-18-1.71-22.22-5.41.08-.81,1.06-2.82,1.49-4.59a36.17,36.17,0,0,0-2-23.79c-5.08-9.21-9.69-12.62-14.71-15.66S102.68,299,102.68,299c2-2.1,5.56-9.19,6.23-14.85A30.39,30.39,0,0,0,93.86,255.84Z" transform="translate(-10.45 -6.62)"/><g class="cls-25"><g class="cls-26"><path class="cls-27" d="M123.24,225.47a41.35,41.35,0,0,0,34.62,51.79c8.59,1.11,17.72-.66,24.72-5.76s11.59-13.74,10.93-22.38" transform="translate(-10.45 -6.62)"/><path class="cls-27" d="M148.59,229a7.24,7.24,0,0,0-.94,6.18A13.1,13.1,0,0,0,151,240.6a22.41,22.41,0,0,0,24.86,4.6" transform="translate(-10.45 -6.62)"/><path class="cls-27" d="M128.16,294.27C159.08,292,191,302,214.4,322.43" transform="translate(-10.45 -6.62)"/><path class="cls-27" d="M99,297.77a111.7,111.7,0,0,1,26.75-5.89" transform="translate(-10.45 -6.62)"/><path class="cls-27" d="M116.73,328c28.19-7.48,60,.39,81.41,20.17" transform="translate(-10.45 -6.62)"/><path class="cls-27" d="M207.17,276.28a20.13,20.13,0,0,0,15.07-21" transform="translate(-10.45 -6.62)"/><path class="cls-27" d="M113.56,232.74a33.06,33.06,0,0,1-12.78,36.49" transform="translate(-10.45 -6.62)"/></g></g><path class="cls-28" d="M121.37,239.91s8.68,13,22.55,6.93c12.78-5.56-5.46-11.91-5.46-11.91Z" transform="translate(-10.45 -6.62)"/><path class="cls-29" d="M169.94,207.65c-.23,1.29-1.35,2.17-2.15,3.21-2.21,2.86-2,6.88-3.15,10.33A13.76,13.76,0,0,1,152,230.43a12.56,12.56,0,0,1-3.81-.57c-.08,0-.16-.08-.23-.1v0h0c0,.13-.08.29-.1.42a43.12,43.12,0,0,0-.91,4.77c-.08.6-.13,1.2-.18,1.77-.06.73-.11,1.43-.11,2.15,0,.55,0,1.12,0,1.66,0,1.77-3.76,4.34-9.65,5.48a13.74,13.74,0,0,1-2.26.18c-9.32.08-14-7.5-14-7.5,3.39-8.12,4.41-10.51,5.16-18.45a5.23,5.23,0,0,0,3.74-1.33c2.41-2.77,3.37-6.43,3.86-10a5.33,5.33,0,0,0-.23-2.1l-2.67-1.74c-.37-1.87-1.25-1.37.05-2.75l2.54-4.54c-.26-.34,4.52-1.95,4.52-2.29l3.22,2h0l16.87,2c-.33,3.19.81,5.92,2.6,6.12s3.55-2.18,3.94-5.34l3.74.41v0c0,.13,0,.26.05.36l.16.86a9,9,0,0,0,.49,1.66C169.29,205,170.2,206.27,169.94,207.65Z" transform="translate(-10.45 -6.62)"/><path class="cls-30" d="M140.89,197.6l16.9,2s0,0,0-.06c.37-3.2,2.15-5.62,4-5.41s3,3,2.58,6.19c0,0,0,0,0,.06l3.73.43c-.44-3.62.42-7.58-1.26-10.84v-.1l-1,0A33.13,33.13,0,0,1,151,186.79v0a22.12,22.12,0,0,1-8.83,2V189A10.18,10.18,0,0,1,140.89,197.6Z" transform="translate(-10.45 -6.62)"/><path class="cls-31" d="M158,206.66c-2.34-1.35-1.52-6.36-.52-7.1.24,1.05,0,2.07.46,3.06s.6,2.3,1.6,2.81c.85.43,2.94-.44,1.86.65A2.61,2.61,0,0,1,158,206.66Z" transform="translate(-10.45 -6.62)"/><path class="cls-32" d="M163.52,200.33s0,0,0-.06c.39-3.21-.77-6-2.57-6.18s-3.6,2.2-4,5.4v.06c-.35,3.17.8,5.91,2.6,6.13S163.13,203.5,163.52,200.33Z" transform="translate(-10.45 -6.62)"/><path class="cls-13" d="M157.79,199.6c-.35,3.17.8,5.91,2.6,6.13s3.56-2.18,4-5.35c0,0,0,0,0-.06.38-3.21-.78-6-2.58-6.19s-3.6,2.21-4,5.41C157.8,199.56,157.79,199.58,157.79,199.6Z" transform="translate(-10.45 -6.62)"/><path class="cls-31" d="M154.34,189.57a7.93,7.93,0,0,0-2.73-1,7.29,7.29,0,0,0-3,.72,19.15,19.15,0,0,1-4.15,1,4.62,4.62,0,0,1-2.66-.27,1.85,1.85,0,0,1-1-2.26,1.94,1.94,0,0,1,1.26-.95,8.62,8.62,0,0,1,1.6-.18,14.84,14.84,0,0,0,7.56-2.59,15.43,15.43,0,0,0,9.24,3.68c1,.05,2,0,2.92.15s3.3.82,1.67,1.73a10.52,10.52,0,0,1-3.51,1.07A12.36,12.36,0,0,1,154.34,189.57Z" transform="translate(-10.45 -6.62)"/><path class="cls-31" d="M166.29,209.4a2.61,2.61,0,0,0-.7.19.81.81,0,0,0-.47.58.69.69,0,0,0,.38.62,4.75,4.75,0,0,0,1.86.56c.51-.34,2.46-2.79,2.58-3.69-.43-.17-1.35.91-1.79,1.12A7.53,7.53,0,0,1,166.29,209.4Z" transform="translate(-10.45 -6.62)"/><path class="cls-31" d="M148,229.78a3.49,3.49,0,0,0-.13.42,27.58,27.58,0,0,0-.91,4.77c-.08.58-.13,1.17-.18,1.77s-.11,1.43-.11,2.15c0,.55,0,1.12,0,1.66,0,1.77-3.76,4.34-9.65,5.48a13.74,13.74,0,0,1-2.26.18c5-5.66,8.77-14.22,4.64-23.77a16.58,16.58,0,0,0,8.62,7.34Z" transform="translate(-10.45 -6.62)"/><path class="cls-31" d="M144.87,199.8c-1.67-.12-3.51-.32-4.62-1.57a78.94,78.94,0,0,1,15,1.49c.71.14,1.55,1,.41,1s-2.13-.32-3.16-.39Z" transform="translate(-10.45 -6.62)"/><path class="cls-33" d="M164.34,200.38s0,0,0-.06c.38-3.21-.78-6-2.58-6.19s-3.6,2.21-4,5.41c0,0,0,0,0,.06-.35,3.17.8,5.91,2.6,6.13S164,203.55,164.34,200.38Z" transform="translate(-10.45 -6.62)"/><path class="cls-31" d="M164.35,202.07h.75c1,0,2.18.23,3.18.17l.11,0-.21-.83a1.65,1.65,0,0,0-.38-.12c-1-.15-2.11-.25-3.16-.33C164.55,201.32,164.47,201.69,164.35,202.07Z" transform="translate(-10.45 -6.62)"/><path class="cls-32" d="M168.29,200.66v.06c-.14,3.19,1.2,5.84,3,5.94s3.44-2.44,3.6-5.67-1.18-5.89-3-6S168.46,197.44,168.29,200.66Z" transform="translate(-10.45 -6.62)"/><path class="cls-13" d="M169,201.08c-.14,3.19,1.2,5.84,3,5.94s3.43-2.44,3.6-5.66-1.18-5.9-3-6-3.43,2.44-3.6,5.67C169,201,169,201.07,169,201.08Z" transform="translate(-10.45 -6.62)"/><path class="cls-34" d="M169,201s0,0,0,.05c-.14,3.19,1.2,5.84,3,5.94s3.43-2.44,3.6-5.66-1.18-5.9-3-6S169.19,197.8,169,201Z" transform="translate(-10.45 -6.62)"/><polyline class="cls-33" points="158.57 194.46 157.64 194.41 153.89 194.22"/><polyline class="cls-33" points="147.34 192.97 130.44 190.97 128.25 190.71"/><path class="cls-35" d="M128.31,168.8" transform="translate(-10.45 -6.62)"/><path class="cls-32" d="M125,176.33a7.27,7.27,0,0,0-1,6,4.8,4.8,0,0,0,.83,1.52A5.43,5.43,0,0,0,129,186c3.07,2.32,8,3.58,13.25,3.38a22.57,22.57,0,0,0,8.86-2,33.81,33.81,0,0,0,14.75,3.06l1-.05c6.51-.36,13.34-3.91,14.42-10.95a10.2,10.2,0,0,0-4.31-10c-2.89-1.84-6.55-1.91-9.67-3.31s-5.66-4.18-9-5.24a11.54,11.54,0,0,0-6.09-.15c-1.43.33-2.83.87-4.29,1.07s-2.95-.25-4.47-.34c-8.38-.49-16,6.86-18.34,14.48A1.4,1.4,0,0,1,125,176.33Z" transform="translate(-10.45 -6.62)"/><path class="cls-32" d="M127.09,221.26a4.27,4.27,0,0,0,2.35-1.23,13,13,0,0,0,2.74-3.92,20.53,20.53,0,0,0,1.47-4.47c.17-.76.3-1.52.41-2.29a5.3,5.3,0,0,0,.07-1.28,6.18,6.18,0,0,0-.23-1.24c-.45-1.58-1.1-2.84-1-4.24a5.63,5.63,0,0,1,1.31-3.78,3.73,3.73,0,0,1,3.48-1.31,3,3,0,0,1,2.31,2.81h0a.31.31,0,0,0,.3.32.3.3,0,0,0,.31-.25,3,3,0,0,0-.07-1.43s0,0,.06-.05a8.46,8.46,0,0,0,.77-1,9.58,9.58,0,0,0,1.53-8.56c-3.39,0-10.74-1.56-13.73-3.9a4.86,4.86,0,0,1-3.67-1.67.5.5,0,0,0-.3-.45.55.55,0,0,0-.74.25,22.74,22.74,0,0,0-2.06,9.08,69.89,69.89,0,0,0,.55,9.19,51.3,51.3,0,0,1,.38,9c-.08,1.51-.21,3-.14,4.63a12.81,12.81,0,0,0,.3,2.37,5,5,0,0,0,1,2.36A3,3,0,0,0,127.09,221.26Z" transform="translate(-10.45 -6.62)"/><path class="cls-28" d="M212.75,289.75c-4.67-7.14-8.23-40.14-8.05-41.2-.51.18-.07,26.9-.07,26.9s-50.92-31-35.91-10.81C181.81,282.27,212.75,289.75,212.75,289.75Z" transform="translate(-10.45 -6.62)"/><path class="cls-28" d="M171.81,268.65s-11.6-19.55-17.09-21.33C155,248.24,171.81,268.65,171.81,268.65Z" transform="translate(-10.45 -6.62)"/><polygon class="cls-15" points="209.24 209.57 203.66 193.54 200.6 209.91 208.09 216.7 209.24 209.57"/><path class="cls-36" d="M182.31,282.4l-23.67-3.95,7-41.65.22-1.28,4.6-27.55,49.28,8.22-2.92,17.5-.83,5a51.07,51.07,0,0,0-10.77,5.07c-.7.47-1.43,1.17-1.32,2,.15,1.11,1.56,1.49,2.68,1.49a16.3,16.3,0,0,0,3.76-.43l0,.15c-3.4,1.58-6,2.67-9.36,4.23a4.71,4.71,0,0,0-1.76,1.16,1.67,1.67,0,0,0-.19,2,2.43,2.43,0,0,0,2.21.55c1.78-.15,3.58-.31,5.37-.56v.07a4.8,4.8,0,0,0-2.05.57,1.7,1.7,0,0,0-.85,1.81c.31,1,1.59,1.19,2.63,1.22a21.82,21.82,0,0,0,6.46-.5l-.45,2.69-4.42,26.53-22.6-3.77Z" transform="translate(-10.45 -6.62)"/><line class="cls-37" x1="166.24" y1="217.19" x2="200.35" y2="222.88"/><line class="cls-37" x1="164.97" y1="224.86" x2="199.07" y2="230.55"/><line class="cls-37" x1="163.69" y1="232.53" x2="193.71" y2="237.55"/><line class="cls-37" x1="162.4" y1="240.21" x2="189.53" y2="244.74"/><line class="cls-37" x1="161.13" y1="247.89" x2="195.23" y2="253.58"/><path class="cls-38" d="M188.34,331.09a20,20,0,0,1,6.24,4.44c3.37,3.71,5,10,1.75,13.74l-.8.13c-.72.13-1.45.24-2.16.35v-.07a36.33,36.33,0,0,0-6.23-19.09l0,0C187.55,330.72,188,330.9,188.34,331.09Z" transform="translate(-10.45 -6.62)"/><path class="cls-28" d="M187.15,330.55c-11.63-5.43-31.47-6-48-20.61S119.29,256.61,117,256.61c-.83.39,9.24,39.17,15.74,58.19" transform="translate(-10.45 -6.62)"/><path class="cls-39" d="M219.71,245a4.44,4.44,0,0,1,.19,2.36,5.47,5.47,0,0,1-2.24,2.94c-3.18,2.4-7.07,3.43-11.06,4-1.79.25-3.59.41-5.37.56a2.43,2.43,0,0,1-2.21-.55,1.67,1.67,0,0,1,.19-2,4.71,4.71,0,0,1,1.76-1.16c3.4-1.56,6-2.65,9.36-4.23l0-.15a26.37,26.37,0,0,0,7.53-3.07,4,4,0,0,0,.51-.33l.11.16A2.11,2.11,0,0,1,219.71,245Z" transform="translate(-10.45 -6.62)"/><path class="cls-40" d="M221.54,238.33a16.69,16.69,0,0,0-4.77-4.64l-1.22,6.14Z" transform="translate(-10.45 -6.62)"/><path class="cls-41" d="M219.77,237.51c3.5-.36,1.16,4-1.44,5.87a4,4,0,0,1-.51.33,26.37,26.37,0,0,1-7.53,3.07,16.3,16.3,0,0,1-3.76.43c-1.12,0-2.53-.38-2.68-1.49-.11-.83.62-1.53,1.32-2a51.07,51.07,0,0,1,10.77-5.07c.76-.28,1.51-.53,2.23-.76A7.24,7.24,0,0,1,219.77,237.51Z" transform="translate(-10.45 -6.62)"/><path class="cls-42" d="M218,250.51c-.24,2.41-2.24,5.89-4.52,6.71-.24.09-.48.16-.72.23a21.82,21.82,0,0,1-6.46.5c-1,0-2.32-.23-2.63-1.22a1.7,1.7,0,0,1,.85-1.81,4.8,4.8,0,0,1,2.05-.57v-.07c4-.56,7.88-1.59,11.06-4Z" transform="translate(-10.45 -6.62)"/><path class="cls-31" d="M217.66,250.29c-3.18,2.4-7.07,3.43-11.06,4C206.6,254.28,215,255.28,217.66,250.29Z" transform="translate(-10.45 -6.62)"/><path class="cls-31" d="M218.33,243.38a4,4,0,0,1-.51.33c-2.35,1.37-6.25,3.08-7.53,3.07,0,0,6.33.59,8.15-3.24" transform="translate(-10.45 -6.62)"/><path class="cls-11" d="M245.87,344.47s46.15-1.85,61.95-45.77l-10.46-1.8c-10,11.71-21.85,27-34.45,36.91-5.7,4.49-11.26,8.27-17,10.66" transform="translate(-10.45 -6.62)"/><path class="cls-11" d="M344.82,305.14,342,326.19s-.23.69-1.5.92c0,0,23.57,14.94,24,16.55l19.78.35s3.68-1-5.41-3.22S347.58,329,344.82,305.14Z" transform="translate(-10.45 -6.62)"/><path class="cls-11" d="M212.4,289.52s3.67,5.3,2.85,20c0,0,23.43,1.63,23.43,4.89a25.72,25.72,0,0,1-.41,5.09s1.74,3.79,1.13,5.82c0,0,1.08,1.78.39,3.17s-1.88,8.2-4.35,10.08c0,0,1.58,7.51-3.85,7.71s-5.73,3.26-10.18,3.36-12.16-4.35-12.16-4.35l1.09-34.79A77.42,77.42,0,0,0,212.4,289.52Z" transform="translate(-10.45 -6.62)"/><path class="cls-12" d="M221,348.72c-21.11,9.38-47.56,14.95-76.27,14.95-69,0-125-17.16-125-64.22,0-27.53,15.06-47,39.19-60.14" transform="translate(-10.45 -6.62)"/><path class="cls-43" d="M235.78,319.68c9.42-8.32,61-47.22,79.79-62.32,7.19-5.78,22.22-16,21.47-1.23-1.17,23.05-3.3,45.42-5,68.45" transform="translate(-10.45 -6.62)"/><path class="cls-13" d="M227.2,348H217A7.09,7.09,0,0,1,210,341.5l-2.53-29.85h29.35l-2.53,29.85A7.09,7.09,0,0,1,227.2,348Z" transform="translate(-10.45 -6.62)"/><path class="cls-44" d="M222.07,309.94c8.38,0,14.72.88,14.72,1.83s-6.34,1.6-14.72,1.6-14.63-.77-14.63-1.72S213.71,309.94,222.07,309.94Z" transform="translate(-10.45 -6.62)"/><path class="cls-11" d="M223.87,348s8.86-.91,10.62-9.19l.21-2.45Z" transform="translate(-10.45 -6.62)"/><path class="cls-45" d="M237.77,319a1,1,0,0,1,.21.1c1.44.86.86,3.07,0,4.51l.9,0a1.9,1.9,0,0,1,1.11,2.09A5.21,5.21,0,0,1,238.9,328c-.45.64-.9,1.25-1.36,1.88l.08.06c-1.67,4.4-4.2,9.39-7.48,12.8a28.92,28.92,0,0,1-11.69,7.81,9.12,9.12,0,0,1-.93.28c-7,1.92-14.85.12-22-1.4v-.05l.8-.13c3.3-3.77,1.62-10-1.75-13.74a20,20,0,0,0-6.24-4.44,19.65,19.65,0,0,0,7.1-1.83,14.42,14.42,0,0,0,7-6.53c1.17-2.38,2.24-5.1,4.63-6.28l.74-.37.42,4.05c0,7.81,4.72,9.43,7.33,9.95s8-.55,11.12-2.45,5.21-4.11,7.88-6.56C235.5,320.16,236.61,318.58,237.77,319Z" transform="translate(-10.45 -6.62)"/><path class="cls-31" d="M225.6,337.05A42,42,0,0,0,238,323.62S236.39,332.85,225.6,337.05Z" transform="translate(-10.45 -6.62)"/><path class="cls-31" d="M227.53,341.15a88.44,88.44,0,0,0,10-11.25C238,329.27,231.56,341.22,227.53,341.15Z" transform="translate(-10.45 -6.62)"/><g class="cls-46"><path class="cls-43" d="M206.85,313.36c7.52,4.38,27.83,3.17,29.84.29" transform="translate(-10.45 -6.62)"/></g><path class="cls-47" d="M215.74,301.89c.57-2.95,1.84-5.8,1.77-8.8-.07-2.82-1.33-5.46-2.58-8s-2.55-5.14-2.71-8,1.1-5.93,3.71-7c2.81-1.18,6.16.44,8,2.9s2.39,5.57,3,8.57q1.07,5.69,2.12,11.38a32.87,32.87,0,0,1,.83,9.15,11.11,11.11,0,0,1-4.07,8C219.33,314.74,214.57,308,215.74,301.89Z" transform="translate(-10.45 -6.62)"/><path class="cls-47" d="M234.87,297.14c.44,1.74,1.33,3.61,3,4.16a4,4,0,0,0,3.56-.78,8.73,8.73,0,0,0,2.28-3,12.3,12.3,0,0,0,1.55-7.14,6.7,6.7,0,0,0-4.29-5.56C233.82,282.58,233.82,293,234.87,297.14Z" transform="translate(-10.45 -6.62)"/><rect class="cls-11" x="126.48" y="90.14" width="317.56" height="3.77"/><polygon class="cls-11" points="457.11 253.18 452.24 253.18 452.13 200.08 457 200.54 457.11 253.18"/><polygon class="cls-17" points="523.09 21.93 505.22 32.26 505.23 11.61 523.09 21.93"/><polygon class="cls-17" points="53.49 94.74 35.62 105.07 35.63 84.42 53.49 94.74"/><path class="cls-12" d="M48.34,245.35a36.21,36.21,0,0,1,51.23-41" transform="translate(-10.45 -6.62)"/><path class="cls-12" d="M80.1,252.33A28.8,28.8,0,0,1,102.68,299" transform="translate(-10.45 -6.62)"/><path class="cls-12" d="M91.47,299.73a35.8,35.8,0,0,1,7.14-.72,35.45,35.45,0,0,1,31.62,51.46" transform="translate(-10.45 -6.62)"/><path class="cls-12" d="M421,297.69c0-21,21.1-38,47.11-38,1.34,0,2.65.05,4,.13" transform="translate(-10.45 -6.62)"/><path class="cls-48" d="M51.38,135.39A151.73,151.73,0,0,0,85.7,236.22" transform="translate(-10.45 -6.62)"/><path class="cls-48" d="M478.44,203.11,499,155.28c12.48-29.06,28.76-59.7,25.62-91.17" transform="translate(-10.45 -6.62)"/><path class="cls-43" d="M319.44,323.85a54.37,54.37,0,0,0,22.72.06" transform="translate(-10.45 -6.62)"/><path class="cls-27" d="M20.73,309.94" transform="translate(-10.45 -6.62)"/><path class="cls-49" d="M342.11,232.53v-.32" transform="translate(-10.45 -6.62)"/><path class="cls-50" d="M276.58,257a214.31,214.31,0,0,1,62.53-29" transform="translate(-10.45 -6.62)"/><path class="cls-1" d="M237.14,287.17a10.68,10.68,0,0,0,.2,10.45" transform="translate(-10.45 -6.62)"/><g class="cls-51"><path class="cls-49" d="M95.32,250.72a32.69,32.69,0,0,1,20.33-11.65" transform="translate(-10.45 -6.62)"/><path class="cls-49" d="M219.73,273.29a65.65,65.65,0,0,1,5.45,14.4,29.07,29.07,0,0,1-.37,15.24" transform="translate(-10.45 -6.62)"/><path class="cls-49" d="M183.18,331.52a13.28,13.28,0,0,1,4.49,7.93" transform="translate(-10.45 -6.62)"/><line class="cls-49" x1="437.27" y1="65.55" x2="437.27" y2="84.76"/></g><path class="cls-12" d="M225.41,255.4l7.92,15.83" transform="translate(-10.45 -6.62)"/><path class="cls-12" d="M230.43,257.89l-.57-.89,4.19,7.39" transform="translate(-10.45 -6.62)"/><line class="cls-43" x1="78.62" y1="83.35" x2="78.62" y2="55.35"/><line class="cls-43" x1="82.44" y1="89.72" x2="82.44" y2="76.56"/><line class="cls-43" x1="4.79" y1="115.17" x2="4.79" y2="139.96"/><line class="cls-43" x1="0.13" y1="119.42" x2="0.13" y2="125.08"/><line class="cls-43" x1="471.41" y1="32.86" x2="471.41" y2="62.67"/><line class="cls-43" x1="467.21" y1="25.65" x2="467.21" y2="42.25"/><path class="cls-43" d="M421,319.85S429.13,338.37,426,344" transform="translate(-10.45 -6.62)"/><path class="cls-13" d="M162,218.59l-.22-.08c-.29-.1-.58-.18-.88-.26a9.9,9.9,0,0,0-2.16-.39c-.26,0-.57,0-.68.26a.64.64,0,0,0,0,.47,3.22,3.22,0,0,0,1.1,1.56,2.28,2.28,0,0,0,1.83.43,1.82,1.82,0,0,0,1.21-1,1.07,1.07,0,0,0,.06-.68A.5.5,0,0,0,162,218.59Z" transform="translate(-10.45 -6.62)"/></g></g></svg>