<svg xmlns="http://www.w3.org/2000/svg" xmlns:xlink="http://www.w3.org/1999/xlink" viewBox="0 0 550.83 381.54"><defs><style>.cls-1,.cls-11,.cls-15,.cls-21,.cls-26,.cls-3,.cls-32,.cls-36,.cls-42,.cls-47,.cls-48,.cls-49,.cls-5,.cls-7{fill:none;}.cls-2{isolation:isolate;}.cls-11,.cls-21,.cls-3,.cls-4,.cls-5,.cls-6{stroke:#d3dbe5;}.cls-15,.cls-3,.cls-4,.cls-42,.cls-5,.cls-6,.cls-7{stroke-miterlimit:10;}.cls-11,.cls-3,.cls-32,.cls-33,.cls-36,.cls-4,.cls-42,.cls-47,.cls-48,.cls-49,.cls-5,.cls-6,.cls-7{stroke-width:0.25px;}.cls-16,.cls-4,.cls-6{fill:#d3dbe5;}.cls-5,.cls-6{fill-rule:evenodd;}.cls-47,.cls-7{stroke:#59e3ad;}.cls-8{fill:url(#Sfumatura_senza_nome_11);}.cls-10,.cls-9{fill:#f6f8fa;}.cls-10,.cls-27{mix-blend-mode:multiply;}.cls-11,.cls-21,.cls-26,.cls-32,.cls-33,.cls-36,.cls-42,.cls-47,.cls-48,.cls-49{stroke-linecap:round;}.cls-11,.cls-21,.cls-26,.cls-32,.cls-33,.cls-36,.cls-47,.cls-48,.cls-49{stroke-linejoin:round;}.cls-12,.cls-33,.cls-46{fill:#fff;}.cls-13{fill:url(#Sfumatura_senza_nome_10);}.cls-14{fill:#43aa82;}.cls-15{stroke:#fff;}.cls-17{fill:url(#Sfumatura_senza_nome_60);}.cls-18{fill:url(#Sfumatura_senza_nome_8);}.cls-19{fill:url(#Sfumatura_senza_nome_5);}.cls-20{fill:url(#Sfumatura_senza_nome_60-2);}.cls-21{stroke-width:0.53px;}.cls-22{fill:url(#Sfumatura_senza_nome_11-2);}.cls-23{fill:url(#Sfumatura_senza_nome_9);}.cls-24{opacity:0.18;}.cls-25{clip-path:url(#clip-path);}.cls-26{stroke:#99c3e4;stroke-width:0.5px;}.cls-27{fill:#b3b3b3;opacity:0.3;}.cls-28{fill:url(#Sfumatura_senza_nome_182);}.cls-29{fill:url(#Sfumatura_senza_nome_182-2);}.cls-30{fill:#db5437;opacity:0.24;}.cls-31{fill:#24497e;}.cls-32,.cls-33{stroke:#24497e;}.cls-34{fill:url(#Sfumatura_senza_nome_60-3);}.cls-35{fill:url(#Sfumatura_senza_nome_4);}.cls-36{stroke:#43aa82;}.cls-37{fill:#91bdfd;}.cls-38{fill:url(#Sfumatura_senza_nome_182-3);}.cls-39{fill:url(#Sfumatura_senza_nome_182-4);}.cls-40{fill:url(#Sfumatura_senza_nome_182-5);}.cls-41{fill:url(#Sfumatura_senza_nome_182-6);}.cls-42{stroke:#a7b6cb;}.cls-43{fill:url(#Sfumatura_senza_nome_11-3);}.cls-44{fill:url(#Sfumatura_senza_nome_182-7);}.cls-45{clip-path:url(#clip-path-2);}.cls-46{opacity:0.41;}.cls-47{stroke-dasharray:3 3 3 3;}.cls-48,.cls-49{stroke:#f6f8fa;}.cls-49,.cls-50{opacity:0.5;}</style><radialGradient id="Sfumatura_senza_nome_11" cx="231.69" cy="67.72" r="24.54" gradientUnits="userSpaceOnUse"><stop offset="0" stop-color="#f6f8fa"/><stop offset="0.07" stop-color="#f3f5f8"/><stop offset="0.5" stop-color="#e2e7ee"/><stop offset="0.82" stop-color="#dce2ea"/></radialGradient><linearGradient id="Sfumatura_senza_nome_10" x1="251.25" y1="34.6" x2="295.17" y2="88.29" gradientUnits="userSpaceOnUse"><stop offset="0" stop-color="#9fefcf"/><stop offset="1" stop-color="#59e3ad"/></linearGradient><radialGradient id="Sfumatura_senza_nome_60" cx="417.26" cy="324.69" r="31.57" gradientUnits="userSpaceOnUse"><stop offset="0.15" stop-color="#1b375f"/><stop offset="1" stop-color="#24497e"/></radialGradient><radialGradient id="Sfumatura_senza_nome_8" cx="373.18" cy="318.36" r="98.1" gradientUnits="userSpaceOnUse"><stop offset="0" stop-color="#f6f8fa"/><stop offset="0.12" stop-color="#eef1f4"/><stop offset="0.3" stop-color="#e8ecf0"/></radialGradient><linearGradient id="Sfumatura_senza_nome_5" x1="174.78" y1="233.15" x2="200.67" y2="275.23" gradientUnits="userSpaceOnUse"><stop offset="0.35" stop-color="#4891fb"/><stop offset="0.75" stop-color="#227bfb"/><stop offset="1" stop-color="#2f71d1"/></linearGradient><radialGradient id="Sfumatura_senza_nome_60-2" cx="310.12" cy="310.86" r="30.56" xlink:href="#Sfumatura_senza_nome_60"/><radialGradient id="Sfumatura_senza_nome_11-2" cx="342.33" cy="216.04" r="138.38" xlink:href="#Sfumatura_senza_nome_11"/><linearGradient id="Sfumatura_senza_nome_9" x1="155.58" y1="245.34" x2="100.27" y2="355.95" gradientUnits="userSpaceOnUse"><stop offset="0.02" stop-color="#4891fb"/><stop offset="0.65" stop-color="#227bfb"/><stop offset="0.76" stop-color="#2479f4"/><stop offset="0.9" stop-color="#2a75e1"/><stop offset="1" stop-color="#2f71d1"/></linearGradient><clipPath id="clip-path" transform="translate(0.55 0.38)"><path class="cls-1" d="M221.33,270.88c-6.86,4.07-8.91,5.39-15.76,9.44a36.88,36.88,0,0,0-4,3c-.29,9.42-.83,35.71-16.35,40.13-1.69.46-5,2-6.75,1.89-1.5-.1-2.2-1.63-2.49-1.74v0a36.22,36.22,0,0,1,6.2,19.1l0,.05a293.79,293.79,0,0,1-39.66,3.35c-7.55.18-18-1.71-22.22-5.4.08-.8,1-2.83,1.48-4.59a36.06,36.06,0,0,0-2-23.78c-5.09-9.21-9.71-12.64-14.72-15.67S91.56,292,91.56,292c2-2.1,5.55-9.19,6.22-14.85a30.46,30.46,0,0,0-15-28.34,23.53,23.53,0,0,0-3.58-1.66,26,26,0,0,1,4.13-7c14.56-16.87,59.25-13.26,59.82-13,12.54,4.83,33.56,26.5,46.69,41.29h3.71V238.82a5.39,5.39,0,0,0,.68-.34c2.1-1.19,3.5-4.95,3.35-7.37l-.42-.15c.86-.91-1.79-6.83-1.71-8.07,0-.24.44,0,1,.33a10.65,10.65,0,0,1,3.42,4C204.56,236.93,221.33,270.88,221.33,270.88Z"/></clipPath><linearGradient id="Sfumatura_senza_nome_182" x1="109.37" y1="213.97" x2="168.88" y2="213.57" gradientUnits="userSpaceOnUse"><stop offset="0.17" stop-color="#ffd672"/><stop offset="1" stop-color="#f3ad5f"/></linearGradient><linearGradient id="Sfumatura_senza_nome_182-2" x1="1323.44" y1="-350.52" x2="1400.81" y2="-351.04" gradientTransform="matrix(-0.66, 0.76, 0.76, 0.66, 1278.77, -585.75)" xlink:href="#Sfumatura_senza_nome_182"/><radialGradient id="Sfumatura_senza_nome_60-3" cx="1325.66" cy="-387.86" r="0" gradientTransform="matrix(-0.66, 0.76, 0.76, 0.66, 1278.77, -585.75)" xlink:href="#Sfumatura_senza_nome_60"/><linearGradient id="Sfumatura_senza_nome_4" x1="-461.77" y1="1455.44" x2="-409.74" y2="1543.5" gradientTransform="translate(856.74 -1162.02) rotate(9.47)" gradientUnits="userSpaceOnUse"><stop offset="0" stop-color="#9fefcf"/><stop offset="0.7" stop-color="#59e3ad"/></linearGradient><linearGradient id="Sfumatura_senza_nome_182-3" x1="-428.02" y1="1493.32" x2="-408.16" y2="1493.32" gradientTransform="translate(856.74 -1162.02) rotate(9.47)" xlink:href="#Sfumatura_senza_nome_182"/><linearGradient id="Sfumatura_senza_nome_182-4" x1="-414.88" y1="1477.04" x2="-412.91" y2="1479.42" gradientTransform="translate(856.74 -1162.02) rotate(9.47)" xlink:href="#Sfumatura_senza_nome_182"/><linearGradient id="Sfumatura_senza_nome_182-5" x1="-424.33" y1="1485.99" x2="-407.96" y2="1485.99" gradientTransform="translate(856.74 -1162.02) rotate(9.47)" xlink:href="#Sfumatura_senza_nome_182"/><linearGradient id="Sfumatura_senza_nome_182-6" x1="-422.72" y1="1497.83" x2="-409.47" y2="1497.83" gradientTransform="translate(856.74 -1162.02) rotate(9.47)" xlink:href="#Sfumatura_senza_nome_182"/><radialGradient id="Sfumatura_senza_nome_11-3" cx="213.9" cy="303.95" r="16.04" gradientTransform="translate(-5.32)" xlink:href="#Sfumatura_senza_nome_11"/><linearGradient id="Sfumatura_senza_nome_182-7" x1="177.34" y1="326.88" x2="229.03" y2="326.88" xlink:href="#Sfumatura_senza_nome_182"/><clipPath id="clip-path-2" transform="translate(0.55 0.38)"><polygon class="cls-1" points="196.44 304.86 196.99 311.09 225.4 309.23 225.74 304.86 196.44 304.86"/></clipPath></defs><title>api</title><g class="cls-2"><g id="Layer_1" data-name="Layer 1"><rect class="cls-3" x="477.99" y="0.13" width="64.92" height="43.46"/><rect class="cls-4" x="542.92" y="0.13" width="7.79" height="43.46"/><polygon class="cls-5" points="17.07 119.84 72.04 119.85 72.04 69.64 17.07 69.64 17.07 119.84"/><polygon class="cls-6" points="9.94 119.84 18.11 119.85 18.11 69.25 9.94 69.25 9.94 119.84"/><rect class="cls-7" x="245.34" y="27.28" width="28.76" height="28.76"/><rect class="cls-8" x="232.68" y="49.63" width="16.5" height="16.5"/><path class="cls-9" d="M433.9,300.13s3.66-2,5.5,4.75c7.26,28.47,70.56,15.25,58.65-33.22,0,0,23,35-22,54.55,0,0-22.85,7.25-41.34-4.62Z" transform="translate(0.55 0.38)"/><path class="cls-9" d="M477.19,208.8s14.62,26-2.53,46.44c0,0,11.95,4.82,15.63,8.14C490.29,263.38,507.32,231,477.19,208.8Z" transform="translate(0.55 0.38)"/><path class="cls-10" d="M84.35,292S97.91,283.3,97,267.52A25.54,25.54,0,0,1,91.68,292Z" transform="translate(0.55 0.38)"/><path class="cls-9" d="M14.93,264.46c-28.49,65.59,40.17,102.92,159.75,88.26C13.21,360.69,13,294.45,14.93,264.46Z" transform="translate(0.55 0.38)"/><path class="cls-9" d="M183.58,342.52c0,6.85,30.53,6.87,111.06,6.87s145.82-5.55,145.82-12.4-65.33-16.67-145.82-12.4C214.35,328.86,183.58,335.67,183.58,342.52Z" transform="translate(0.55 0.38)"/><path class="cls-11" d="M448.87,199.63c25.61,0,46.37,19.69,46.37,44a41.84,41.84,0,0,1-4.95,19.77" transform="translate(0.55 0.38)"/><path class="cls-11" d="M469.16,253.93c20,3.52,35,18.75,35,37,0,20.87-19.65,37.78-43.89,37.78a47.52,47.52,0,0,1-31-11.07" transform="translate(0.55 0.38)"/><path class="cls-11" d="M72.63,193.64c1.72-28.54,24.92-51.14,53.3-51.14a51.65,51.65,0,0,1,5.45.28" transform="translate(0.55 0.38)"/><path class="cls-9" d="M126.39,261.61l-.46-47.93L126,90H443.27l2.06,163.65c-27.8,6.14-34.17,26.91-34.52,30H206.22S134.77,263,126.39,261.61Z" transform="translate(0.55 0.38)"/><path class="cls-12" d="M157.93,60.2H443.27V90H126V60.2h31.94ZM433.07,76.49a4.22,4.22,0,1,0-4.22,4.22A4.22,4.22,0,0,0,433.07,76.49Zm-15.14,0a4.22,4.22,0,1,0-4.22,4.22A4.22,4.22,0,0,0,417.93,76.49Zm-15.14,0a4.22,4.22,0,1,0-4.22,4.22A4.22,4.22,0,0,0,402.79,76.49Z" transform="translate(0.55 0.38)"/><path class="cls-13" d="M157.48,60.2H443.27V90H125.48V60.2h32Z" transform="translate(0.55 0.38)"/><circle class="cls-12" cx="170.3" cy="76.87" r="4.22"/><circle class="cls-12" cx="155.16" cy="76.87" r="4.22"/><circle class="cls-12" cx="140.02" cy="76.87" r="4.22"/><path class="cls-14" d="M451.69,252.8c-3,1.2-5.6,0-8.42,1.56V60.2h8.82V219.83" transform="translate(0.55 0.38)"/><rect class="cls-15" x="439.64" y="368.28" width="12.76" height="12.76"/><line class="cls-11" x1="364.71" y1="222.34" x2="364.71" y2="212.26"/><line class="cls-11" x1="373.45" y1="212.41" x2="373.45" y2="222.11"/><rect class="cls-16" x="364.68" y="211.91" width="8.73" height="10.51"/><path class="cls-11" d="M298.71,222.68a3.79,3.79,0,1,1-3.79-3.8A3.79,3.79,0,0,1,298.71,222.68Z" transform="translate(0.55 0.38)"/><polyline class="cls-11" points="364.71 222.34 322.46 222.34 322.17 222.34 322.17 212.22 322.25 212.22 364.71 212.22"/><rect class="cls-4" x="308.4" y="210.7" width="13.78" height="19.68"/><polyline class="cls-11" points="282.42 210.7 308.4 210.7 308.4 235.1"/><rect class="cls-11" x="327.34" y="234.72" width="101.38" height="6.19"/><polyline class="cls-11" points="324.51 234.91 324.51 222.34 378.02 222.34 378.02 234.91"/><rect class="cls-11" x="378.02" y="222.34" width="4.9" height="12.45"/><rect class="cls-16" x="377.86" y="222.26" width="4.93" height="12.44"/><polyline class="cls-11" points="173.84 169.96 173.84 134.35 173.84 130.84 173.84 110.14 176.62 110.14 176.62 110.42 176.62 169.96"/><polyline class="cls-11" points="161.92 169.96 161.92 134.35 162.14 134.35 172.86 134.35 173.84 134.35 173.84 169.96"/><polygon class="cls-11" points="173.84 130.84 173.84 134.35 172.86 134.35 162.14 134.35 161.92 134.35 161.92 130.84 173.84 130.84"/><polyline class="cls-11" points="176.62 110.42 176.62 169.96 176.62 170.15 176.62 170.24"/><rect class="cls-11" x="153.64" y="170.01" width="144.29" height="6.22"/><polyline class="cls-11" points="272.09 157.42 229.83 157.42 229.55 157.42 229.55 147.3 229.63 147.3 242.17 147.3"/><polyline class="cls-11" points="231.88 169.99 231.88 157.42 285.4 157.42 285.4 169.99"/><polygon class="cls-11" points="288.77 134.48 288.77 147.24 247.8 147.24 247.8 147.3 235.26 147.3 235.26 134.48 288.77 134.48"/><polygon class="cls-11" points="229.55 157.7 229.55 170.06 217.8 170.06 217.8 116.04 229.55 116.04 229.55 147.58 229.55 157.7"/><polygon class="cls-11" points="199.06 124.56 215.36 167.54 208.31 170.22 192.12 127.56 192.78 127.31 198.76 124.67 199.06 124.56"/><polygon class="cls-11" points="199.06 124.56 198.76 124.67 192.78 127.31 192.12 127.56 189.07 119.54 196.13 116.86 199.06 124.56"/><polyline class="cls-11" points="186.49 169.96 186.49 110.42 186.49 110.14 188.92 110.14 188.92 118.5 188.92 169.96"/><polyline class="cls-11" points="176.62 169.96 176.62 110.42 176.62 110.14 186.49 110.14 186.49 110.42 186.49 169.96"/><polygon class="cls-11" points="276.9 147.24 276.9 147.3 245.01 147.3 235.26 147.3 235.26 134.48 276.9 134.48 276.9 147.24"/><polyline class="cls-11" points="186.49 110.42 186.49 169.96 186.49 170.15 186.49 170.24"/><path class="cls-11" d="M247.69,141.39A2.39,2.39,0,1,1,245.3,139,2.39,2.39,0,0,1,247.69,141.39Z" transform="translate(0.55 0.38)"/><path class="cls-11" d="M257.62,141.39a2.39,2.39,0,1,1-2.39-2.39A2.39,2.39,0,0,1,257.62,141.39Z" transform="translate(0.55 0.38)"/><path class="cls-11" d="M267.55,141.39a2.39,2.39,0,1,1-2.39-2.39A2.39,2.39,0,0,1,267.55,141.39Z" transform="translate(0.55 0.38)"/><polyline class="cls-11" points="188.92 110.14 196.43 110.14 196.43 113.73 196.43 116.86 210.33 116.86 217.49 133.32"/><line class="cls-11" x1="196.42" y1="139.62" x2="196.42" y2="170.18"/><line class="cls-11" x1="215.36" y1="167.54" x2="217.7" y2="167.54"/><polyline class="cls-11" points="229.55 116.04 244.87 116.04 244.87 134.59"/><line class="cls-11" x1="288.64" y1="170.31" x2="288.64" y2="176.04"/><rect class="cls-16" x="288.65" y="169.8" width="9.35" height="6.53"/><polygon class="cls-16" points="229.43 116.09 229.57 147.31 235.22 147.31 235.22 134.46 244.69 134.46 244.83 115.81 229.43 116.09"/><polygon class="cls-16" points="189.03 110.3 189.03 170.05 196.38 170.05 196.38 138.84 190.02 119.06 196.52 116.66 196.23 109.88 189.03 110.3"/><polygon class="cls-16" points="209.09 169.91 215.73 167.37 217.42 167.65 217.71 169.63 209.09 169.91"/><polygon class="cls-16" points="229.71 157.62 229.43 169.91 231.83 169.91 231.55 157.62 229.71 157.62"/><line class="cls-11" x1="272.09" y1="157.42" x2="272.09" y2="147.34"/><line class="cls-11" x1="280.82" y1="147.49" x2="280.82" y2="157.18"/><rect class="cls-11" x="285.4" y="157.42" width="4.9" height="12.45"/><rect class="cls-16" x="276.9" y="134.48" width="11.88" height="12.77"/><rect class="cls-16" x="272.06" y="146.98" width="8.73" height="10.51"/><rect class="cls-16" x="285.23" y="157.33" width="4.93" height="12.44"/><rect class="cls-11" x="315.02" y="194.27" width="109.2" height="6.19"/><line class="cls-11" x1="354.23" y1="192.76" x2="358.78" y2="192.76"/><polyline class="cls-11" points="383.56 194.26 383.56 169.42 383.74 169.42"/><polygon class="cls-11" points="373.57 145.51 373.57 151.4 373.11 151.4 359.3 151.4 359.04 151.4 359.04 145.51 373.57 145.51"/><polygon class="cls-11" points="334.5 152.31 334.5 191.75 334.25 191.75 320.07 191.75 319.98 191.75 319.98 148.41 320.07 148.41 334.25 148.41 334.5 148.41 334.5 152.31"/><polygon class="cls-11" points="334.5 145.51 334.5 148.41 334.25 148.41 320.07 148.41 319.98 148.41 319.98 145.51 334.5 145.51"/><polyline class="cls-11" points="319.98 194.34 319.98 191.75 319.98 148.41 319.98 145.51 334.5 145.51 334.5 148.41 334.5 152.31 334.5 191.75 334.5 194.34"/><polyline class="cls-11" points="359.04 194 359.04 151.4 359.04 145.51 373.57 145.51 373.57 151.4 373.57 161.72 373.57 194.06"/><line class="cls-11" x1="320.07" y1="148.41" x2="334.25" y2="148.41"/><path class="cls-11" d="M366.65,181.08a1.13,1.13,0,0,1-2.25,0,1.13,1.13,0,1,1,2.25,0Z" transform="translate(0.55 0.38)"/><path class="cls-11" d="M366.65,173.38a1.13,1.13,0,0,1-2.25,0,1.13,1.13,0,1,1,2.25,0Z" transform="translate(0.55 0.38)"/><path class="cls-11" d="M366.65,165.68a1.13,1.13,0,0,1-2.25,0,1.13,1.13,0,1,1,2.25,0Z" transform="translate(0.55 0.38)"/><path class="cls-11" d="M366.65,158a1.13,1.13,0,0,1-2.25,0,1.13,1.13,0,1,1,2.25,0Z" transform="translate(0.55 0.38)"/><line class="cls-11" x1="359.3" y1="151.4" x2="373.11" y2="151.4"/><polyline class="cls-11" points="347.15 194.18 334.69 152.31 341.6 150.26 354.23 192.76 349.06 194.29"/><line class="cls-11" x1="339.15" y1="155.15" x2="349.65" y2="189.86"/><polyline class="cls-11" points="400.22 194.14 400.22 169.42 399.86 169.42 383.74 169.42"/><polyline class="cls-11" points="383.56 169.42 383.56 161.72 373.89 161.72"/><polyline class="cls-11" points="341.6 150.26 356.25 150.26 358.78 157.7"/><polyline class="cls-11" points="334.5 145.51 346.14 145.51 346.14 150.11"/><polyline class="cls-11" points="373.57 145.51 387.03 145.51 387.03 161.69"/><polyline class="cls-11" points="383.56 161.72 393.01 161.72 393.01 169.17"/><polyline class="cls-11" points="400.22 169.42 407.27 169.42 407.27 194.31"/><line class="cls-11" x1="410.1" y1="194.57" x2="410.1" y2="200.49"/><polygon class="cls-16" points="373.56 145.52 373.54 161.77 386.93 161.69 386.93 145.38 373.56 145.52"/><polygon class="cls-16" points="334.31 145.44 334.59 194.27 347.56 194.27 335.29 152.28 341.7 150.18 346.14 150.11 346.14 145.51 334.31 145.44"/><rect class="cls-16" x="383.36" y="161.69" width="9.67" height="7.74"/><rect class="cls-16" x="400.13" y="169.58" width="7.25" height="24.5"/><rect class="cls-16" x="409.8" y="194.36" width="14.35" height="6.18"/><polygon class="cls-11" points="277.98 198.4 277.98 202.97 277.45 202.97 223.8 202.97 223.8 198.4 277.98 198.4"/><path class="cls-11" d="M277.43,234.07v.2H223.25V202.59h54.18Z" transform="translate(0.55 0.38)"/><rect class="cls-11" x="215.88" y="234.72" width="75.43" height="6.19"/><polyline class="cls-11" points="223.8 234.1 223.8 202.97 223.8 198.4 277.98 198.4 277.98 202.97 277.98 234.45"/><line class="cls-11" x1="223.8" y1="202.97" x2="277.98" y2="202.97"/><polyline class="cls-11" points="274.6 198.4 282.56 198.4 282.56 234.83"/><rect class="cls-16" x="277.98" y="198.4" width="4.58" height="36.43"/><line class="cls-11" x1="230.39" y1="211.3" x2="269.47" y2="211.3"/><line class="cls-11" x1="230.39" y1="216.23" x2="269.47" y2="216.23"/><line class="cls-11" x1="230.39" y1="221.16" x2="269.47" y2="221.16"/><line class="cls-11" x1="230.39" y1="226.09" x2="269.47" y2="226.09"/><path class="cls-17" d="M436.3,325.12c.26,2.6.48,5.43-.89,7.66-2.39,3.85-7.93,3.78-12.44,3.24l-1.61.16a86.28,86.28,0,0,0-5-21.8l.6-.23q4.77-12.33,9.53-24.65c.67-1.76,1.93-3.87,3.79-3.53,1.71.32,2.26,2.47,2.43,4.21Q434.51,307.65,436.3,325.12Z" transform="translate(0.55 0.38)"/><path class="cls-10" d="M338.6,243.29s6.67.92,5.25,11.07S340.39,300,340.39,300l-8.05-1.89Z" transform="translate(0.55 0.38)"/><path class="cls-18" d="M421.4,336.6l-.93.47h-66l-66.19.1,0-.1H223.16a79.56,79.56,0,0,0,17.44-10c12.56-9.42,22.25-22.05,32.59-33.88q2-2.31,4.08-4.58l.1.09c8.94.85,110.89,18.58,138.31,25.24l.57.1.12.35a85.85,85.85,0,0,1,5,21.8C421.37,336.33,421.39,336.46,421.4,336.6Z" transform="translate(0.55 0.38)"/><path class="cls-19" d="M221.45,270.88c-6.85,4.07-8.88,5.38-15.75,9.45l-.89-2c-4.68-7.13-9.68-28.36-11.11-36.77h-.07v-2.73c.23-.1.45-.21.67-.33,2.11-1.19,3.52-5,3.35-7.38l-.41-.15c.86-.91-1.79-6.82-1.7-8.08,0-.23.43,0,1,.35a10.47,10.47,0,0,1,3.41,4ZM193.7,241.55h-.07v26.9h-26c6.23,6.5,28.76,18.79,28.76,18.92,2.81-1.66,6.47-5.38,9.27-7l-.89-2C200.13,271.19,195.13,250,193.7,241.55Z" transform="translate(0.55 0.38)"/><path class="cls-20" d="M312.24,339.51c-1.37,0-2.92-.06-3.8-1.09a2.53,2.53,0,0,1-.48-.82,6.75,6.75,0,0,1-.2-2.73q.5-6.6,1-13.18v-.06l20.81-1.5c6.86,5,15.56,10,22.41,14.95a3.08,3.08,0,0,1,1.39,1.68,1.57,1.57,0,0,1-.08.83,2.36,2.36,0,0,1-1.17,1.24,6.12,6.12,0,0,1-2.55.39" transform="translate(0.55 0.38)"/><polygon class="cls-21" points="334.07 235.33 328.98 238.28 328.98 232.39 334.07 235.33"/><polygon class="cls-16" points="305.38 229.13 305.12 240.32 307.31 240.32 307.05 229.13 305.38 229.13"/><path class="cls-22" d="M308.49,268.39a351.83,351.83,0,0,0-25.07,25.14q-1.87,2.07-3.72,4.17C270.29,308.48,261.45,320,250,328.56a72.9,72.9,0,0,1-15.88,9.13,74.69,74.69,0,0,1-30.94,5.45l-2.87.82S136.63,316.61,136.64,316c2.56-1.51,59.71-30.08,62.26-31.59l18.73-11.13c10.51-6.26,21-12.53,31.71-18.83l3.18-1.88,5.68-3.34c14.8-8.7,29.71-17.26,45.32-24.36,3.1-1.41,6.24-2.77,9.46-3.89a46.28,46.28,0,0,1,14.3-2.86h.3a14.8,14.8,0,0,1,8.75,2.86,13,13,0,0,1,2.77,2.73c2.47,3.31,2.73,7.69,2.57,11.65-.19,5-.51,9.9-.93,14.83-.95,11-2.65,22-4.41,32.88-.93,5.79-1.88,11.57-2.74,17.36,0,.17,0,.35-.08.53q-1.35,9.19-2.72,18.41l-.44.69-.81.05-20.81,1.5-.59,0,0-.27c-.18-7.95-.23-16.42-.16-24.93.08-9.5.32-19,.71-27.88Z" transform="translate(0.55 0.38)"/><path class="cls-10" d="M308.49,268.39c2.51-2.27,4.55-5.55,7.12-7.75L308.44,284l.23-15.44" transform="translate(0.55 0.38)"/><path class="cls-10" d="M125.68,332.9s9.42,18.87,67.06,5.23a5.93,5.93,0,0,1-4-3.39c-1.34-3.36-8.68-8.49-8.68-8.49l-44.41,8.52Z" transform="translate(0.55 0.38)"/><path class="cls-23" d="M82.86,248.84a23,23,0,0,0-3.57-1.66,25.14,25.14,0,0,1,4.13-7c14.55-16.88,59.24-13.26,59.82-13,19.24,7.4,58.55,54.62,58.51,55.58-.28,8.9-.53,36.17-16.36,40.65-1.7.49-5,2-6.76,1.9-1.49-.1-2.2-1.63-2.48-1.75l0,0a36.33,36.33,0,0,1,6.23,19.09v.07a295.15,295.15,0,0,1-39.66,3.35c-7.55.16-18-1.71-22.22-5.41.08-.81,1.06-2.82,1.49-4.59a36.17,36.17,0,0,0-2-23.79c-5.08-9.21-9.69-12.62-14.71-15.66S91.68,292,91.68,292c2-2.1,5.56-9.19,6.23-14.85A30.39,30.39,0,0,0,82.86,248.84Z" transform="translate(0.55 0.38)"/><g class="cls-24"><g class="cls-25"><path class="cls-26" d="M112.24,218.47a41.35,41.35,0,0,0,34.62,51.79c8.59,1.11,17.72-.66,24.72-5.76s11.59-13.74,10.93-22.38" transform="translate(0.55 0.38)"/><path class="cls-26" d="M137.59,222a7.24,7.24,0,0,0-.94,6.18A13.1,13.1,0,0,0,140,233.6a22.41,22.41,0,0,0,24.86,4.6" transform="translate(0.55 0.38)"/><path class="cls-26" d="M117.16,287.27C148.08,285,180,295,203.4,315.43" transform="translate(0.55 0.38)"/><path class="cls-26" d="M88,290.77a111.7,111.7,0,0,1,26.75-5.89" transform="translate(0.55 0.38)"/><path class="cls-26" d="M105.73,321c28.19-7.48,60,.39,81.41,20.17" transform="translate(0.55 0.38)"/><path class="cls-26" d="M196.17,269.28a20.13,20.13,0,0,0,15.07-21" transform="translate(0.55 0.38)"/><path class="cls-26" d="M102.56,225.74a33.06,33.06,0,0,1-12.78,36.49" transform="translate(0.55 0.38)"/></g></g><path class="cls-27" d="M110.37,232.91s8.68,13,22.55,6.93c12.78-5.56-5.46-11.91-5.46-11.91Z" transform="translate(0.55 0.38)"/><path class="cls-28" d="M158.94,200.65c-.23,1.29-1.35,2.17-2.15,3.21-2.21,2.86-2,6.88-3.15,10.33A13.76,13.76,0,0,1,141,223.43a12.56,12.56,0,0,1-3.81-.57c-.08,0-.16-.08-.23-.1v0h0c0,.13-.08.29-.1.42a43.12,43.12,0,0,0-.91,4.77c-.08.6-.13,1.2-.18,1.77-.06.73-.11,1.43-.11,2.15,0,.55,0,1.12,0,1.66,0,1.77-3.76,4.34-9.65,5.48a13.74,13.74,0,0,1-2.26.18c-9.32.08-14-7.5-14-7.5,3.39-8.12,4.41-10.51,5.16-18.45a5.23,5.23,0,0,0,3.74-1.33c2.41-2.77,3.37-6.43,3.86-10a5.33,5.33,0,0,0-.23-2.1l-2.67-1.74c-.37-1.87-1.25-1.37.05-2.75l2.54-4.54c-.26-.34,4.52-1.95,4.52-2.29l3.22,2h0l16.87,2c-.33,3.19.81,5.92,2.6,6.12s3.55-2.18,3.94-5.34l3.74.41v0c0,.13,0,.26.05.36l.16.86a9,9,0,0,0,.49,1.66C158.29,198,159.2,199.27,158.94,200.65Z" transform="translate(0.55 0.38)"/><path class="cls-29" d="M129.89,190.6l16.9,2s0,0,0-.06c.37-3.2,2.15-5.62,4-5.41s3,3,2.58,6.19c0,0,0,0,0,.06l3.73.43c-.44-3.62.42-7.58-1.26-10.84v-.1l-1,0A33.13,33.13,0,0,1,140,179.79v0a22.12,22.12,0,0,1-8.83,2V182A10.18,10.18,0,0,1,129.89,190.6Z" transform="translate(0.55 0.38)"/><path class="cls-30" d="M147,199.66c-2.34-1.35-1.52-6.36-.52-7.1.24,1.05,0,2.07.46,3.06s.6,2.3,1.6,2.81c.85.43,2.94-.44,1.86.65A2.61,2.61,0,0,1,147,199.66Z" transform="translate(0.55 0.38)"/><path class="cls-31" d="M152.52,193.33s0,0,0-.06c.39-3.21-.77-6-2.57-6.18s-3.6,2.2-4,5.4v.06c-.35,3.17.8,5.91,2.6,6.13S152.13,196.5,152.52,193.33Z" transform="translate(0.55 0.38)"/><path class="cls-12" d="M146.79,192.6c-.35,3.17.8,5.91,2.6,6.13s3.56-2.18,4-5.35c0,0,0,0,0-.06.38-3.21-.78-6-2.58-6.19s-3.6,2.21-4,5.41C146.8,192.56,146.79,192.58,146.79,192.6Z" transform="translate(0.55 0.38)"/><path class="cls-30" d="M143.34,182.57a7.93,7.93,0,0,0-2.73-1,7.29,7.29,0,0,0-3,.72,19.15,19.15,0,0,1-4.15,1,4.62,4.62,0,0,1-2.66-.27,1.85,1.85,0,0,1-1-2.26,1.94,1.94,0,0,1,1.26-.95,8.62,8.62,0,0,1,1.6-.18,14.84,14.84,0,0,0,7.56-2.59,15.43,15.43,0,0,0,9.24,3.68c1,.05,2,0,2.92.15s3.3.82,1.67,1.73a10.52,10.52,0,0,1-3.51,1.07A12.36,12.36,0,0,1,143.34,182.57Z" transform="translate(0.55 0.38)"/><path class="cls-30" d="M155.29,202.4a2.61,2.61,0,0,0-.7.19.81.81,0,0,0-.47.58.69.69,0,0,0,.38.62,4.75,4.75,0,0,0,1.86.56c.51-.34,2.46-2.79,2.58-3.69-.43-.17-1.35.91-1.79,1.12A7.53,7.53,0,0,1,155.29,202.4Z" transform="translate(0.55 0.38)"/><path class="cls-30" d="M137,222.78a3.49,3.49,0,0,0-.13.42,27.58,27.58,0,0,0-.91,4.77c-.08.58-.13,1.17-.18,1.77s-.11,1.43-.11,2.15c0,.55,0,1.12,0,1.66,0,1.77-3.76,4.34-9.65,5.48a13.74,13.74,0,0,1-2.26.18c5-5.66,8.77-14.22,4.64-23.77a16.58,16.58,0,0,0,8.62,7.34Z" transform="translate(0.55 0.38)"/><path class="cls-30" d="M133.87,192.8c-1.67-.12-3.51-.32-4.62-1.57a78.94,78.94,0,0,1,15,1.49c.71.14,1.55,1,.41,1s-2.13-.32-3.16-.39Z" transform="translate(0.55 0.38)"/><path class="cls-32" d="M153.34,193.38s0,0,0-.06c.38-3.21-.78-6-2.58-6.19s-3.6,2.21-4,5.41c0,0,0,0,0,.06-.35,3.17.8,5.91,2.6,6.13S153,196.55,153.34,193.38Z" transform="translate(0.55 0.38)"/><path class="cls-30" d="M153.35,195.07h.75c1,0,2.18.23,3.18.17l.11,0-.21-.83a1.65,1.65,0,0,0-.38-.12c-1-.15-2.11-.25-3.16-.33C153.55,194.32,153.47,194.69,153.35,195.07Z" transform="translate(0.55 0.38)"/><path class="cls-31" d="M157.29,193.66v.06c-.14,3.19,1.2,5.84,3,5.94s3.44-2.44,3.6-5.67-1.18-5.89-3-6S157.46,190.44,157.29,193.66Z" transform="translate(0.55 0.38)"/><path class="cls-12" d="M158,194.08c-.14,3.19,1.2,5.84,3,5.94s3.43-2.44,3.6-5.66-1.18-5.9-3-6-3.43,2.44-3.6,5.67C158,194,158,194.07,158,194.08Z" transform="translate(0.55 0.38)"/><path class="cls-33" d="M158,194s0,0,0,.05c-.14,3.19,1.2,5.84,3,5.94s3.43-2.44,3.6-5.66-1.18-5.9-3-6S158.19,190.8,158,194Z" transform="translate(0.55 0.38)"/><polyline class="cls-32" points="158.57 194.46 157.64 194.41 153.89 194.22"/><polyline class="cls-32" points="147.34 192.97 130.44 190.97 128.25 190.71"/><path class="cls-34" d="M117.31,161.8" transform="translate(0.55 0.38)"/><path class="cls-31" d="M114,169.33a7.27,7.27,0,0,0-1,6,4.8,4.8,0,0,0,.83,1.52A5.43,5.43,0,0,0,118,179c3.07,2.32,8,3.58,13.25,3.38a22.57,22.57,0,0,0,8.86-2,33.81,33.81,0,0,0,14.75,3.06l1-.05c6.51-.36,13.34-3.91,14.42-10.95a10.2,10.2,0,0,0-4.31-10c-2.89-1.84-6.55-1.91-9.67-3.31s-5.66-4.18-9-5.24a11.54,11.54,0,0,0-6.09-.15c-1.43.33-2.83.87-4.29,1.07s-2.95-.25-4.47-.34c-8.38-.49-16,6.86-18.34,14.48A1.4,1.4,0,0,1,114,169.33Z" transform="translate(0.55 0.38)"/><path class="cls-31" d="M116.09,214.26a4.27,4.27,0,0,0,2.35-1.23,13,13,0,0,0,2.74-3.92,20.53,20.53,0,0,0,1.47-4.47c.17-.76.3-1.52.41-2.29a5.3,5.3,0,0,0,.07-1.28,6.18,6.18,0,0,0-.23-1.24c-.45-1.58-1.1-2.84-1-4.24a5.63,5.63,0,0,1,1.31-3.78,3.73,3.73,0,0,1,3.48-1.31,3,3,0,0,1,2.31,2.81h0a.31.31,0,0,0,.3.32.3.3,0,0,0,.31-.25,3,3,0,0,0-.07-1.43s0,0,.06-.05a8.46,8.46,0,0,0,.77-1,9.58,9.58,0,0,0,1.53-8.56c-3.39,0-10.74-1.56-13.73-3.9a4.86,4.86,0,0,1-3.67-1.67.5.5,0,0,0-.3-.45.55.55,0,0,0-.74.25,22.74,22.74,0,0,0-2.06,9.08,69.89,69.89,0,0,0,.55,9.19,51.3,51.3,0,0,1,.38,9c-.08,1.51-.21,3-.14,4.63a12.81,12.81,0,0,0,.3,2.37,5,5,0,0,0,1,2.36A3,3,0,0,0,116.09,214.26Z" transform="translate(0.55 0.38)"/><path class="cls-27" d="M201.75,282.75c-4.67-7.14-8.23-40.14-8.05-41.2-.51.18-.07,26.9-.07,26.9s-50.92-31-35.91-10.81C170.81,275.27,201.75,282.75,201.75,282.75Z" transform="translate(0.55 0.38)"/><path class="cls-27" d="M160.81,261.65s-11.6-19.55-17.09-21.33C144,241.24,160.81,261.65,160.81,261.65Z" transform="translate(0.55 0.38)"/><polygon class="cls-14" points="209.24 209.57 203.66 193.54 200.6 209.91 208.09 216.7 209.24 209.57"/><path class="cls-35" d="M171.31,275.4l-23.67-3.95,7-41.65.22-1.28,4.6-27.55,49.28,8.22-2.92,17.5-.83,5a51.07,51.07,0,0,0-10.77,5.07c-.7.47-1.43,1.17-1.32,2,.15,1.11,1.56,1.49,2.68,1.49a16.3,16.3,0,0,0,3.76-.43l0,.15c-3.4,1.58-6,2.67-9.36,4.23a4.71,4.71,0,0,0-1.76,1.16,1.67,1.67,0,0,0-.19,2,2.43,2.43,0,0,0,2.21.55c1.78-.15,3.58-.31,5.37-.56v.07a4.8,4.8,0,0,0-2.05.57,1.7,1.7,0,0,0-.85,1.81c.31,1,1.59,1.19,2.63,1.22a21.82,21.82,0,0,0,6.46-.5l-.45,2.69-4.42,26.53-22.6-3.77Z" transform="translate(0.55 0.38)"/><line class="cls-36" x1="166.24" y1="217.19" x2="200.35" y2="222.88"/><line class="cls-36" x1="164.97" y1="224.86" x2="199.07" y2="230.55"/><line class="cls-36" x1="163.69" y1="232.53" x2="193.71" y2="237.55"/><line class="cls-36" x1="162.4" y1="240.21" x2="189.53" y2="244.74"/><line class="cls-36" x1="161.13" y1="247.89" x2="195.23" y2="253.58"/><path class="cls-37" d="M177.34,324.09a20,20,0,0,1,6.24,4.44c3.37,3.71,5,10,1.75,13.74l-.8.13c-.72.13-1.45.24-2.16.35v-.07a36.33,36.33,0,0,0-6.23-19.09l0,0C176.55,323.72,177,323.9,177.34,324.09Z" transform="translate(0.55 0.38)"/><path class="cls-27" d="M176.15,323.55c-11.63-5.43-31.47-6-48-20.61S108.29,249.61,106,249.61c-.83.39,9.24,39.17,15.74,58.19" transform="translate(0.55 0.38)"/><path class="cls-38" d="M208.71,238a4.44,4.44,0,0,1,.19,2.36,5.47,5.47,0,0,1-2.24,2.94c-3.18,2.4-7.07,3.43-11.06,4-1.79.25-3.59.41-5.37.56a2.43,2.43,0,0,1-2.21-.55,1.67,1.67,0,0,1,.19-2,4.71,4.71,0,0,1,1.76-1.16c3.4-1.56,6-2.65,9.36-4.23l0-.15a26.37,26.37,0,0,0,7.53-3.07,4,4,0,0,0,.51-.33l.11.16A2.11,2.11,0,0,1,208.71,238Z" transform="translate(0.55 0.38)"/><path class="cls-39" d="M210.54,231.33a16.69,16.69,0,0,0-4.77-4.64l-1.22,6.14Z" transform="translate(0.55 0.38)"/><path class="cls-40" d="M208.77,230.51c3.5-.36,1.16,4-1.44,5.87a4,4,0,0,1-.51.33,26.37,26.37,0,0,1-7.53,3.07,16.3,16.3,0,0,1-3.76.43c-1.12,0-2.53-.38-2.68-1.49-.11-.83.62-1.53,1.32-2a51.07,51.07,0,0,1,10.77-5.07c.76-.28,1.51-.53,2.23-.76A7.24,7.24,0,0,1,208.77,230.51Z" transform="translate(0.55 0.38)"/><path class="cls-41" d="M207,243.51c-.24,2.41-2.24,5.89-4.52,6.71-.24.09-.48.16-.72.23a21.82,21.82,0,0,1-6.46.5c-1,0-2.32-.23-2.63-1.22a1.7,1.7,0,0,1,.85-1.81,4.8,4.8,0,0,1,2.05-.57v-.07c4-.56,7.88-1.59,11.06-4Z" transform="translate(0.55 0.38)"/><path class="cls-30" d="M206.66,243.29c-3.18,2.4-7.07,3.43-11.06,4C195.6,247.28,204,248.28,206.66,243.29Z" transform="translate(0.55 0.38)"/><path class="cls-30" d="M207.33,236.38a4,4,0,0,1-.51.33c-2.35,1.37-6.25,3.08-7.53,3.07,0,0,6.33.59,8.15-3.24" transform="translate(0.55 0.38)"/><path class="cls-10" d="M234.87,337.47s46.15-1.85,61.95-45.77l-10.46-1.8c-10,11.71-21.85,27-34.45,36.91-5.7,4.49-11.26,8.27-17,10.66" transform="translate(0.55 0.38)"/><path class="cls-10" d="M333.82,298.14,331,319.19s-.23.69-1.5.92c0,0,23.57,14.94,24,16.55l19.78.35s3.68-1-5.41-3.22S336.58,322,333.82,298.14Z" transform="translate(0.55 0.38)"/><path class="cls-10" d="M201.4,282.52s3.67,5.3,2.85,20c0,0,23.43,1.63,23.43,4.89a25.72,25.72,0,0,1-.41,5.09s1.74,3.79,1.13,5.82c0,0,1.08,1.78.39,3.17s-1.88,8.2-4.35,10.08c0,0,1.58,7.51-3.85,7.71s-5.73,3.26-10.18,3.36-12.16-4.35-12.16-4.35l1.09-34.79A77.42,77.42,0,0,0,201.4,282.52Z" transform="translate(0.55 0.38)"/><path class="cls-11" d="M210,341.72c-21.11,9.38-47.56,14.95-76.27,14.95-69,0-125-17.16-125-64.22,0-27.53,15.06-47,39.19-60.14" transform="translate(0.55 0.38)"/><path class="cls-42" d="M224.78,312.68c9.42-8.32,61-47.22,79.79-62.32,7.19-5.78,22.22-16,21.47-1.23-1.17,23.05-3.3,45.42-5,68.45" transform="translate(0.55 0.38)"/><path class="cls-12" d="M216.2,341H206A7.09,7.09,0,0,1,199,334.5l-2.53-29.85h29.35l-2.53,29.85A7.09,7.09,0,0,1,216.2,341Z" transform="translate(0.55 0.38)"/><path class="cls-43" d="M211.07,302.94c8.38,0,14.72.88,14.72,1.83s-6.34,1.6-14.72,1.6-14.63-.77-14.63-1.72S202.71,302.94,211.07,302.94Z" transform="translate(0.55 0.38)"/><path class="cls-10" d="M212.87,341s8.86-.91,10.62-9.19l.21-2.45Z" transform="translate(0.55 0.38)"/><path class="cls-44" d="M226.77,312a1,1,0,0,1,.21.1c1.44.86.86,3.07,0,4.51l.9,0a1.9,1.9,0,0,1,1.11,2.09A5.21,5.21,0,0,1,227.9,321c-.45.64-.9,1.25-1.36,1.88l.08.06c-1.67,4.4-4.2,9.39-7.48,12.8a28.92,28.92,0,0,1-11.69,7.81,9.12,9.12,0,0,1-.93.28c-7,1.92-14.85.12-22-1.4v-.05l.8-.13c3.3-3.77,1.62-10-1.75-13.74a20,20,0,0,0-6.24-4.44,19.65,19.65,0,0,0,7.1-1.83,14.42,14.42,0,0,0,7-6.53c1.17-2.38,2.24-5.1,4.63-6.28l.74-.37.42,4.05c0,7.81,4.72,9.43,7.33,9.95s8-.55,11.12-2.45,5.21-4.11,7.88-6.56C224.5,313.16,225.61,311.58,226.77,312Z" transform="translate(0.55 0.38)"/><path class="cls-30" d="M214.6,330.05A42,42,0,0,0,227,316.62S225.39,325.85,214.6,330.05Z" transform="translate(0.55 0.38)"/><path class="cls-30" d="M216.53,334.15a88.44,88.44,0,0,0,10-11.25C227,322.27,220.56,334.22,216.53,334.15Z" transform="translate(0.55 0.38)"/><g class="cls-45"><path class="cls-42" d="M195.85,306.36c7.52,4.38,27.83,3.17,29.84.29" transform="translate(0.55 0.38)"/></g><path class="cls-46" d="M204.74,294.89c.57-2.95,1.84-5.8,1.77-8.8-.07-2.82-1.33-5.46-2.58-8s-2.55-5.14-2.71-8,1.1-5.93,3.71-7c2.81-1.18,6.16.44,8,2.9s2.39,5.57,3,8.57q1.07,5.69,2.12,11.38a32.87,32.87,0,0,1,.83,9.15,11.11,11.11,0,0,1-4.07,8C208.33,307.74,203.57,301,204.74,294.89Z" transform="translate(0.55 0.38)"/><path class="cls-46" d="M223.87,290.14c.44,1.74,1.33,3.61,3,4.16a4,4,0,0,0,3.56-.78,8.73,8.73,0,0,0,2.28-3,12.3,12.3,0,0,0,1.55-7.14,6.7,6.7,0,0,0-4.29-5.56C222.82,275.58,222.82,286,223.87,290.14Z" transform="translate(0.55 0.38)"/><rect class="cls-10" x="126.48" y="90.14" width="317.56" height="3.77"/><polygon class="cls-10" points="457.11 253.18 452.24 253.18 452.13 200.08 457 200.54 457.11 253.18"/><polygon class="cls-16" points="523.09 21.93 505.22 32.26 505.23 11.61 523.09 21.93"/><polygon class="cls-16" points="53.49 94.74 35.62 105.07 35.63 84.42 53.49 94.74"/><path class="cls-11" d="M37.34,238.35a36.21,36.21,0,0,1,51.23-41" transform="translate(0.55 0.38)"/><path class="cls-11" d="M69.1,245.33A28.8,28.8,0,0,1,91.68,292" transform="translate(0.55 0.38)"/><path class="cls-11" d="M80.47,292.73a35.8,35.8,0,0,1,7.14-.72,35.45,35.45,0,0,1,31.62,51.46" transform="translate(0.55 0.38)"/><path class="cls-11" d="M410,290.69c0-21,21.1-38,47.11-38,1.34,0,2.65.05,4,.13" transform="translate(0.55 0.38)"/><path class="cls-47" d="M40.38,128.39A151.73,151.73,0,0,0,74.7,229.22" transform="translate(0.55 0.38)"/><path class="cls-47" d="M467.44,196.11,488,148.28c12.48-29.06,28.76-59.7,25.62-91.17" transform="translate(0.55 0.38)"/><path class="cls-42" d="M308.44,316.85a54.37,54.37,0,0,0,22.72.06" transform="translate(0.55 0.38)"/><path class="cls-26" d="M9.73,302.94" transform="translate(0.55 0.38)"/><path class="cls-48" d="M331.11,225.53v-.32" transform="translate(0.55 0.38)"/><path class="cls-49" d="M265.58,250a214.31,214.31,0,0,1,62.53-29" transform="translate(0.55 0.38)"/><path class="cls-1" d="M226.14,280.17a10.68,10.68,0,0,0,.2,10.45" transform="translate(0.55 0.38)"/><g class="cls-50"><path class="cls-48" d="M84.32,243.72a32.69,32.69,0,0,1,20.33-11.65" transform="translate(0.55 0.38)"/><path class="cls-48" d="M208.73,266.29a65.65,65.65,0,0,1,5.45,14.4,29.07,29.07,0,0,1-.37,15.24" transform="translate(0.55 0.38)"/><path class="cls-48" d="M172.18,324.52a13.28,13.28,0,0,1,4.49,7.93" transform="translate(0.55 0.38)"/><line class="cls-48" x1="437.27" y1="65.55" x2="437.27" y2="84.76"/></g><path class="cls-11" d="M214.41,248.4l7.92,15.83" transform="translate(0.55 0.38)"/><path class="cls-11" d="M219.43,250.89l-.57-.89,4.19,7.39" transform="translate(0.55 0.38)"/><line class="cls-42" x1="78.62" y1="83.35" x2="78.62" y2="55.35"/><line class="cls-42" x1="82.44" y1="89.72" x2="82.44" y2="76.56"/><line class="cls-42" x1="4.79" y1="115.17" x2="4.79" y2="139.96"/><line class="cls-42" x1="0.13" y1="119.42" x2="0.13" y2="125.08"/><line class="cls-42" x1="471.41" y1="32.86" x2="471.41" y2="62.67"/><line class="cls-42" x1="467.21" y1="25.65" x2="467.21" y2="42.25"/><path class="cls-42" d="M410,312.85S418.13,331.37,415,337" transform="translate(0.55 0.38)"/><path class="cls-12" d="M151,211.59l-.22-.08c-.29-.1-.58-.18-.88-.26a9.9,9.9,0,0,0-2.16-.39c-.26,0-.57,0-.68.26a.64.64,0,0,0,0,.47,3.22,3.22,0,0,0,1.1,1.56,2.28,2.28,0,0,0,1.83.43,1.82,1.82,0,0,0,1.21-1,1.07,1.07,0,0,0,.06-.68A.5.5,0,0,0,151,211.59Z" transform="translate(0.55 0.38)"/></g></g></svg>