<svg xmlns="http://www.w3.org/2000/svg" xmlns:xlink="http://www.w3.org/1999/xlink" viewBox="0 0 572.04 396.21"><defs><style>.cls-1,.cls-13,.cls-20,.cls-25,.cls-3,.cls-31,.cls-35,.cls-41,.cls-46,.cls-47,.cls-48,.cls-5,.cls-9{fill:none;}.cls-2{isolation:isolate;}.cls-15,.cls-20,.cls-3,.cls-4,.cls-9{stroke:#d3dbe5;}.cls-13,.cls-15,.cls-3,.cls-4,.cls-41,.cls-5{stroke-miterlimit:10;}.cls-15,.cls-3,.cls-31,.cls-32,.cls-35,.cls-4,.cls-41,.cls-46,.cls-47,.cls-48,.cls-5,.cls-9{stroke-width:0.25px;}.cls-3,.cls-4{fill-rule:evenodd;}.cls-14,.cls-15,.cls-4{fill:#d3dbe5;}.cls-46,.cls-5{stroke:#59e3ad;}.cls-6{fill:url(#Sfumatura_senza_nome_11);}.cls-7,.cls-8{fill:#f6f8fa;}.cls-26,.cls-8{mix-blend-mode:multiply;}.cls-20,.cls-25,.cls-31,.cls-32,.cls-35,.cls-41,.cls-46,.cls-47,.cls-48,.cls-9{stroke-linecap:round;}.cls-20,.cls-25,.cls-31,.cls-32,.cls-35,.cls-46,.cls-47,.cls-48,.cls-9{stroke-linejoin:round;}.cls-10,.cls-32,.cls-45{fill:#fff;}.cls-11{fill:url(#Sfumatura_senza_nome_10);}.cls-12{fill:#43aa82;}.cls-13{stroke:#fff;}.cls-16{fill:url(#Sfumatura_senza_nome_60);}.cls-17{fill:url(#Sfumatura_senza_nome_8);}.cls-18{fill:url(#Sfumatura_senza_nome_5);}.cls-19{fill:url(#Sfumatura_senza_nome_60-2);}.cls-20{stroke-width:0.53px;}.cls-21{fill:url(#Sfumatura_senza_nome_11-2);}.cls-22{fill:url(#Sfumatura_senza_nome_9);}.cls-23{opacity:0.18;}.cls-24{clip-path:url(#clip-path);}.cls-25{stroke:#99c3e4;stroke-width:0.5px;}.cls-26{fill:#b3b3b3;opacity:0.3;}.cls-27{fill:url(#Sfumatura_senza_nome_182);}.cls-28{fill:url(#Sfumatura_senza_nome_182-2);}.cls-29{fill:#db5437;opacity:0.24;}.cls-30{fill:#24497e;}.cls-31,.cls-32{stroke:#24497e;}.cls-33{fill:url(#Sfumatura_senza_nome_60-3);}.cls-34{fill:url(#Sfumatura_senza_nome_4);}.cls-35{stroke:#43aa82;}.cls-36{fill:#91bdfd;}.cls-37{fill:url(#Sfumatura_senza_nome_182-3);}.cls-38{fill:url(#Sfumatura_senza_nome_182-4);}.cls-39{fill:url(#Sfumatura_senza_nome_182-5);}.cls-40{fill:url(#Sfumatura_senza_nome_182-6);}.cls-41{stroke:#a7b6cb;}.cls-42{fill:url(#Sfumatura_senza_nome_11-3);}.cls-43{fill:url(#Sfumatura_senza_nome_182-7);}.cls-44{clip-path:url(#clip-path-2);}.cls-45{opacity:0.41;}.cls-46{stroke-dasharray:3 3 3 3;}.cls-47,.cls-48{stroke:#f6f8fa;}.cls-48,.cls-49{opacity:0.5;}</style><radialGradient id="Sfumatura_senza_nome_11" cx="240.61" cy="70.32" r="25.48" gradientUnits="userSpaceOnUse"><stop offset="0" stop-color="#f6f8fa"/><stop offset="0.07" stop-color="#f3f5f8"/><stop offset="0.5" stop-color="#e2e7ee"/><stop offset="0.82" stop-color="#dce2ea"/></radialGradient><linearGradient id="Sfumatura_senza_nome_10" x1="269.34" y1="42.61" x2="314.95" y2="98.36" gradientUnits="userSpaceOnUse"><stop offset="0" stop-color="#9fefcf"/><stop offset="1" stop-color="#59e3ad"/></linearGradient><radialGradient id="Sfumatura_senza_nome_60" cx="441.74" cy="343.87" r="32.79" gradientUnits="userSpaceOnUse"><stop offset="0.15" stop-color="#1b375f"/><stop offset="1" stop-color="#24497e"/></radialGradient><radialGradient id="Sfumatura_senza_nome_8" cx="395.96" cy="337.29" r="101.88" gradientUnits="userSpaceOnUse"><stop offset="0" stop-color="#f6f8fa"/><stop offset="0.12" stop-color="#eef1f4"/><stop offset="0.3" stop-color="#e8ecf0"/></radialGradient><linearGradient id="Sfumatura_senza_nome_5" x1="189.92" y1="248.81" x2="216.81" y2="292.5" gradientUnits="userSpaceOnUse"><stop offset="0.35" stop-color="#4891fb"/><stop offset="0.75" stop-color="#227bfb"/><stop offset="1" stop-color="#2f71d1"/></linearGradient><radialGradient id="Sfumatura_senza_nome_60-2" cx="330.48" cy="329.51" r="31.74" xlink:href="#Sfumatura_senza_nome_60"/><radialGradient id="Sfumatura_senza_nome_11-2" cx="363.93" cy="231.04" r="143.71" xlink:href="#Sfumatura_senza_nome_11"/><linearGradient id="Sfumatura_senza_nome_9" x1="169.98" y1="261.46" x2="112.54" y2="376.33" gradientUnits="userSpaceOnUse"><stop offset="0.02" stop-color="#4891fb"/><stop offset="0.65" stop-color="#227bfb"/><stop offset="0.76" stop-color="#2479f4"/><stop offset="0.9" stop-color="#2a75e1"/><stop offset="1" stop-color="#2f71d1"/></linearGradient><clipPath id="clip-path" transform="translate(-7.85 -6.29)"><path class="cls-1" d="M238.26,288c-7.11,4.24-9.24,5.61-16.36,9.81a38.15,38.15,0,0,0-4.12,3.08c-.3,9.78-.86,37.08-17,41.67-1.75.48-5.18,2.1-7,2-1.56-.1-2.29-1.69-2.59-1.8v0a37.51,37.51,0,0,1,6.44,19.83l0,.06a304.93,304.93,0,0,1-41.18,3.48c-7.85.18-18.71-1.78-23.08-5.61.08-.84,1.08-2.94,1.54-4.77a37.44,37.44,0,0,0-2.1-24.69c-5.29-9.57-10.08-13.13-15.29-16.28s-14.07-4.8-14.07-4.8c2.08-2.18,5.77-9.54,6.47-15.42.6-13-5.71-23.61-15.63-29.43a26,26,0,0,0-3.72-1.73,27.28,27.28,0,0,1,4.29-7.25C110,238.6,156.43,242.35,157,242.59c13,5,34.86,27.52,48.49,42.89h3.86V254.7a7.75,7.75,0,0,0,.7-.36c2.18-1.24,3.64-5.14,3.48-7.65l-.43-.16c.88-.95-1.86-7.09-1.78-8.38,0-.25.45,0,1,.35a10.89,10.89,0,0,1,3.56,4.15C220.85,252.73,238.26,288,238.26,288Z"/></clipPath><linearGradient id="Sfumatura_senza_nome_182" x1="122" y1="228.89" x2="183.8" y2="228.47" gradientUnits="userSpaceOnUse"><stop offset="0.17" stop-color="#ffd672"/><stop offset="1" stop-color="#f3ad5f"/></linearGradient><linearGradient id="Sfumatura_senza_nome_182-2" x1="1344.6" y1="-339.97" x2="1424.96" y2="-340.52" gradientTransform="matrix(-0.66, 0.76, 0.76, 0.66, 1298.74, -594.86)" xlink:href="#Sfumatura_senza_nome_182"/><radialGradient id="Sfumatura_senza_nome_60-3" cx="1346.91" cy="-378.75" r="0" gradientTransform="matrix(-0.66, 0.76, 0.76, 0.66, 1298.74, -594.86)" xlink:href="#Sfumatura_senza_nome_60"/><linearGradient id="Sfumatura_senza_nome_4" x1="-446.88" y1="1470.26" x2="-392.84" y2="1561.72" gradientTransform="translate(859.13 -1164.81) rotate(9.47)" gradientUnits="userSpaceOnUse"><stop offset="0" stop-color="#9fefcf"/><stop offset="0.7" stop-color="#59e3ad"/></linearGradient><linearGradient id="Sfumatura_senza_nome_182-3" x1="-411.82" y1="1509.6" x2="-391.19" y2="1509.6" gradientTransform="translate(859.13 -1164.81) rotate(9.47)" xlink:href="#Sfumatura_senza_nome_182"/><linearGradient id="Sfumatura_senza_nome_182-4" x1="-398.17" y1="1492.69" x2="-396.13" y2="1495.16" gradientTransform="translate(859.13 -1164.81) rotate(9.47)" xlink:href="#Sfumatura_senza_nome_182"/><linearGradient id="Sfumatura_senza_nome_182-5" x1="-407.99" y1="1501.98" x2="-390.99" y2="1501.98" gradientTransform="translate(859.13 -1164.81) rotate(9.47)" xlink:href="#Sfumatura_senza_nome_182"/><linearGradient id="Sfumatura_senza_nome_182-6" x1="-406.31" y1="1514.29" x2="-392.56" y2="1514.29" gradientTransform="translate(859.13 -1164.81) rotate(9.47)" xlink:href="#Sfumatura_senza_nome_182"/><radialGradient id="Sfumatura_senza_nome_11-3" cx="230.37" cy="322.33" r="16.65" gradientTransform="translate(-5.35)" xlink:href="#Sfumatura_senza_nome_11"/><linearGradient id="Sfumatura_senza_nome_182-7" x1="192.59" y1="346.15" x2="246.26" y2="346.15" xlink:href="#Sfumatura_senza_nome_182"/><clipPath id="clip-path-2" transform="translate(-7.85 -6.29)"><polygon class="cls-1" points="212.42 323.27 212.99 329.75 242.49 327.81 242.85 323.27 212.42 323.27"/></clipPath></defs><title>api</title><g class="cls-2"><g id="Layer_1" data-name="Layer 1"><polygon class="cls-3" points="496.4 45.26 563.83 45.27 563.83 0.13 496.4 0.13 496.4 45.26"/><polygon class="cls-4" points="563.83 45.26 571.91 45.27 571.91 0.13 563.83 0.13 563.83 45.26"/><polygon class="cls-3" points="17.73 124.45 74.81 124.46 74.81 72.31 17.73 72.32 17.73 124.45"/><polygon class="cls-4" points="10.32 124.45 18.8 124.46 18.8 71.91 10.32 71.92 10.32 124.45"/><rect class="cls-5" x="254.78" y="28.33" width="29.87" height="29.87"/><rect class="cls-6" x="241.64" y="51.54" width="17.13" height="17.13"/><path class="cls-7" d="M459,318.37s3.8-2.09,5.71,4.93c7.54,29.56,73.28,15.84,60.91-34.51,0,0,23.89,36.38-22.87,56.66,0,0-23.74,7.52-42.94-4.79Z" transform="translate(-7.85 -6.29)"/><path class="cls-7" d="M504,223.52s15.19,27-2.62,48.23c0,0,12.4,5,16.23,8.45C517.59,280.2,535.28,246.53,504,223.52Z" transform="translate(-7.85 -6.29)"/><path class="cls-8" d="M96,309.93s14.08-9,13.1-25.44a26.54,26.54,0,0,1-5.49,25.45Z" transform="translate(-7.85 -6.29)"/><path class="cls-7" d="M23.91,281.32C-5.67,349.44,65.63,388.21,189.82,373,22.13,381.26,21.87,312.47,23.91,281.32Z" transform="translate(-7.85 -6.29)"/><path class="cls-7" d="M199.07,362.39c0,7.11,31.7,7.13,115.34,7.13s151.43-5.76,151.43-12.87S398,339.33,314.41,343.77C231,348.2,199.07,355.28,199.07,362.39Z" transform="translate(-7.85 -6.29)"/><path class="cls-9" d="M474.57,214c26.6,0,48.15,20.45,48.15,45.68a43.47,43.47,0,0,1-5.13,20.53" transform="translate(-7.85 -6.29)"/><path class="cls-9" d="M495.64,270.38C516.41,274,532,289.86,532,308.81c0,21.67-20.41,39.23-45.58,39.23a49.38,49.38,0,0,1-32.23-11.49" transform="translate(-7.85 -6.29)"/><path class="cls-9" d="M83.84,207.77c1.79-29.64,25.88-53.11,55.35-53.11a56.05,56.05,0,0,1,5.67.29" transform="translate(-7.85 -6.29)"/><path class="cls-7" d="M139.67,278.36l-.47-49.78,0-128.46H468.76l2.14,170C442,276.45,435.41,298,435,301.19H222.57S148.37,279.76,139.67,278.36Z" transform="translate(-7.85 -6.29)"/><path class="cls-10" d="M172.42,69.19H468.76v30.93H139.24l0-21.72V69.19h33.16ZM458.16,86.11a4.38,4.38,0,1,0-4.38,4.38A4.39,4.39,0,0,0,458.16,86.11Zm-15.72,0a4.39,4.39,0,1,0-4.38,4.38A4.39,4.39,0,0,0,442.44,86.11Zm-15.72,0a4.39,4.39,0,1,0-4.39,4.38A4.4,4.4,0,0,0,426.72,86.11Z" transform="translate(-7.85 -6.29)"/><path class="cls-11" d="M172,69.19h296.8v30.93h-330V69.19H172Z" transform="translate(-7.85 -6.29)"/><circle class="cls-10" cx="176.85" cy="79.82" r="4.38"/><circle class="cls-10" cx="161.13" cy="79.82" r="4.38"/><circle class="cls-10" cx="145.41" cy="79.82" r="4.38"/><path class="cls-12" d="M477.5,269.22c-3.11,1.24-5.81,0-8.74,1.61V69.19h9.16V235" transform="translate(-7.85 -6.29)"/><rect class="cls-13" x="456.57" y="382.46" width="13.25" height="13.25"/><line class="cls-9" x1="378.76" y1="230.9" x2="378.76" y2="220.44"/><line class="cls-9" x1="387.83" y1="220.59" x2="387.83" y2="230.66"/><rect class="cls-14" x="378.72" y="220.06" width="9.07" height="10.92"/><path class="cls-9" d="M318.63,237.93a3.94,3.94,0,1,1-3.94-3.94A3.94,3.94,0,0,1,318.63,237.93Z" transform="translate(-7.85 -6.29)"/><polyline class="cls-9" points="378.76 230.9 334.87 230.9 334.58 230.9 334.58 220.39 334.66 220.39 378.76 220.39"/><rect class="cls-15" x="320.28" y="218.81" width="14.31" height="20.44"/><polyline class="cls-9" points="293.29 218.81 320.28 218.81 320.28 244.16"/><rect class="cls-9" x="339.94" y="243.76" width="105.29" height="6.42"/><polyline class="cls-9" points="337 243.95 337 230.9 392.58 230.9 392.58 243.95"/><rect class="cls-9" x="392.58" y="230.9" width="5.09" height="12.93"/><rect class="cls-14" x="392.41" y="230.81" width="5.12" height="12.92"/><polyline class="cls-9" points="180.53 176.5 180.53 139.53 180.53 135.88 180.53 114.38 183.42 114.38 183.42 114.67 183.42 176.5"/><polyline class="cls-9" points="168.15 176.5 168.15 139.53 168.38 139.53 179.51 139.53 180.53 139.53 180.53 176.5"/><polygon class="cls-9" points="180.53 135.88 180.53 139.53 179.51 139.53 168.38 139.53 168.15 139.53 168.15 135.88 180.53 135.88"/><polyline class="cls-9" points="183.42 114.67 183.42 176.5 183.42 176.7 183.42 176.79"/><rect class="cls-9" x="159.56" y="176.55" width="149.85" height="6.46"/><polyline class="cls-9" points="282.57 163.48 238.68 163.48 238.39 163.48 238.39 152.97 238.47 152.97 251.49 152.97"/><polyline class="cls-9" points="240.81 176.53 240.81 163.48 296.39 163.48 296.39 176.53"/><polygon class="cls-9" points="299.89 139.65 299.89 152.91 257.34 152.91 257.34 152.97 244.32 152.97 244.32 139.65 299.89 139.65"/><polygon class="cls-9" points="238.39 163.77 238.39 176.61 226.18 176.61 226.18 120.5 238.39 120.5 238.39 153.26 238.39 163.77"/><polygon class="cls-9" points="206.72 129.35 223.65 173.99 216.33 176.77 199.52 132.47 200.2 132.21 206.42 129.47 206.72 129.35"/><polygon class="cls-9" points="206.72 129.35 206.42 129.47 200.2 132.21 199.52 132.47 196.35 124.14 203.68 121.35 206.72 129.35"/><polyline class="cls-9" points="193.67 176.5 193.67 114.67 193.67 114.38 196.2 114.38 196.2 123.06 196.2 176.5"/><polyline class="cls-9" points="183.42 176.5 183.42 114.67 183.42 114.38 193.67 114.38 193.67 114.67 193.67 176.5"/><polygon class="cls-9" points="287.56 152.91 287.56 152.97 254.45 152.97 244.32 152.97 244.32 139.65 287.56 139.65 287.56 152.91"/><polyline class="cls-9" points="193.67 114.67 193.67 176.5 193.67 176.7 193.67 176.79"/><path class="cls-9" d="M265.64,153.51a2.48,2.48,0,1,1-2.48-2.48A2.48,2.48,0,0,1,265.64,153.51Z" transform="translate(-7.85 -6.29)"/><path class="cls-9" d="M276,153.51a2.48,2.48,0,1,1-2.48-2.48A2.48,2.48,0,0,1,276,153.51Z" transform="translate(-7.85 -6.29)"/><path class="cls-9" d="M286.27,153.51a2.48,2.48,0,1,1-2.48-2.48A2.48,2.48,0,0,1,286.27,153.51Z" transform="translate(-7.85 -6.29)"/><polyline class="cls-9" points="196.2 114.38 203.99 114.38 203.99 118.11 203.99 121.35 218.42 121.35 225.86 138.45"/><line class="cls-9" x1="203.99" y1="145" x2="203.99" y2="176.73"/><line class="cls-9" x1="223.65" y1="173.98" x2="226.08" y2="173.98"/><polyline class="cls-9" points="238.39 120.5 254.3 120.5 254.3 139.77"/><line class="cls-9" x1="299.76" y1="176.86" x2="299.76" y2="182.81"/><rect class="cls-14" x="299.76" y="176.34" width="9.71" height="6.78"/><polygon class="cls-14" points="238.26 120.56 238.41 152.98 244.28 152.98 244.28 139.63 254.11 139.63 254.25 120.27 238.26 120.56"/><polygon class="cls-14" points="196.31 114.54 196.31 176.6 203.94 176.6 203.94 144.18 197.33 123.64 204.08 121.14 203.79 114.1 196.31 114.54"/><polygon class="cls-14" points="217.14 176.45 224.03 173.81 225.79 174.11 226.09 176.16 217.14 176.45"/><polygon class="cls-14" points="238.56 163.69 238.26 176.45 240.76 176.45 240.47 163.69 238.56 163.69"/><line class="cls-9" x1="282.57" y1="163.48" x2="282.57" y2="153.01"/><line class="cls-9" x1="291.64" y1="153.16" x2="291.64" y2="163.24"/><rect class="cls-9" x="296.39" y="163.48" width="5.09" height="12.93"/><rect class="cls-14" x="287.56" y="139.65" width="12.34" height="13.26"/><rect class="cls-14" x="282.53" y="152.64" width="9.07" height="10.92"/><rect class="cls-14" x="296.21" y="163.39" width="5.12" height="12.92"/><rect class="cls-9" x="327.15" y="201.75" width="113.4" height="6.42"/><line class="cls-9" x1="367.87" y1="200.18" x2="372.6" y2="200.18"/><polyline class="cls-9" points="398.33 201.74 398.33 175.94 398.51 175.94"/><polygon class="cls-9" points="387.96 151.11 387.96 157.22 387.48 157.22 373.13 157.22 372.87 157.22 372.87 151.11 387.96 151.11"/><polygon class="cls-9" points="347.38 158.17 347.38 199.14 347.12 199.14 332.39 199.14 332.3 199.14 332.3 154.13 332.39 154.13 347.12 154.13 347.38 154.13 347.38 158.17"/><polygon class="cls-9" points="347.38 151.11 347.38 154.13 347.12 154.13 332.39 154.13 332.3 154.13 332.3 151.11 347.38 151.11"/><polyline class="cls-9" points="332.3 201.82 332.3 199.14 332.3 154.13 332.3 151.11 347.38 151.11 347.38 154.13 347.38 158.17 347.38 199.14 347.38 201.82"/><polyline class="cls-9" points="372.87 201.47 372.87 157.22 372.87 151.11 387.96 151.11 387.96 157.22 387.96 167.94 387.96 201.53"/><line class="cls-9" x1="332.39" y1="154.13" x2="347.12" y2="154.13"/><path class="cls-9" d="M389.19,194.72a1.17,1.17,0,1,1-1.17-1.18A1.17,1.17,0,0,1,389.19,194.72Z" transform="translate(-7.85 -6.29)"/><path class="cls-9" d="M389.19,186.73a1.17,1.17,0,1,1-1.17-1.18A1.18,1.18,0,0,1,389.19,186.73Z" transform="translate(-7.85 -6.29)"/><path class="cls-9" d="M389.19,178.73a1.17,1.17,0,1,1-1.17-1.18A1.18,1.18,0,0,1,389.19,178.73Z" transform="translate(-7.85 -6.29)"/><path class="cls-9" d="M389.19,170.74a1.17,1.17,0,1,1-1.17-1.19A1.18,1.18,0,0,1,389.19,170.74Z" transform="translate(-7.85 -6.29)"/><line class="cls-9" x1="373.13" y1="157.22" x2="387.48" y2="157.22"/><polyline class="cls-9" points="360.51 201.65 347.58 158.17 354.76 156.04 367.87 200.18 362.5 201.77"/><line class="cls-9" x1="352.21" y1="161.12" x2="363.12" y2="197.17"/><polyline class="cls-9" points="415.63 201.61 415.63 175.94 415.25 175.94 398.51 175.94"/><polyline class="cls-9" points="398.33 175.94 398.33 167.94 388.29 167.94"/><polyline class="cls-9" points="354.76 156.04 369.97 156.04 372.6 163.77"/><polyline class="cls-9" points="347.38 151.11 359.47 151.11 359.47 155.89"/><polyline class="cls-9" points="387.96 151.11 401.93 151.11 401.93 167.91"/><polyline class="cls-9" points="398.33 167.94 408.15 167.94 408.15 175.68"/><polyline class="cls-9" points="415.63 175.94 422.95 175.94 422.95 201.79"/><line class="cls-9" x1="425.89" y1="202.06" x2="425.89" y2="208.2"/><polygon class="cls-14" points="387.94 151.12 387.92 167.99 401.83 167.91 401.83 150.97 387.94 151.12"/><polygon class="cls-14" points="347.18 151.04 347.47 201.75 360.95 201.75 348.2 158.14 354.86 155.97 359.47 155.89 359.47 151.11 347.18 151.04"/><rect class="cls-14" x="398.12" y="167.91" width="10.05" height="8.04"/><rect class="cls-14" x="415.53" y="176.11" width="7.53" height="25.45"/><rect class="cls-14" x="425.58" y="201.84" width="14.9" height="6.42"/><polygon class="cls-9" points="288.68 206.03 288.68 210.78 288.13 210.78 232.41 210.78 232.41 206.03 288.68 206.03"/><path class="cls-9" d="M296.53,249.76v.2H240.26V217.07h56.27Z" transform="translate(-7.85 -6.29)"/><rect class="cls-9" x="224.2" y="243.76" width="78.33" height="6.42"/><polyline class="cls-9" points="232.41 243.12 232.41 210.78 232.41 206.03 288.68 206.03 288.68 210.78 288.68 243.48"/><line class="cls-9" x1="232.41" y1="210.78" x2="288.68" y2="210.78"/><polyline class="cls-9" points="285.17 206.03 293.44 206.03 293.44 243.87"/><rect class="cls-14" x="288.68" y="206.03" width="4.76" height="37.83"/><line class="cls-9" x1="239.26" y1="219.44" x2="279.85" y2="219.44"/><line class="cls-9" x1="239.26" y1="224.56" x2="279.85" y2="224.56"/><line class="cls-9" x1="239.26" y1="229.68" x2="279.85" y2="229.68"/><line class="cls-9" x1="239.26" y1="234.8" x2="279.85" y2="234.8"/><path class="cls-16" d="M461.52,344.32c.27,2.7.5,5.64-.93,7.95-2.48,4-8.23,3.93-12.91,3.37l-1.68.17a89.33,89.33,0,0,0-5.18-22.65l.63-.23q4.95-12.81,9.89-25.61c.7-1.82,2-4,3.94-3.66,1.77.33,2.34,2.57,2.52,4.37Z" transform="translate(-7.85 -6.29)"/><path class="cls-8" d="M360.06,259.33s6.92,1,5.45,11.5-3.6,47.43-3.6,47.43l-8.36-2Z" transform="translate(-7.85 -6.29)"/><path class="cls-17" d="M446.05,356.24l-1,.49H376.5l-68.75.1,0-.1H240.17a83.09,83.09,0,0,0,18.11-10.4c13-9.78,23.11-22.9,33.84-35.19,1.4-1.59,2.81-3.18,4.24-4.75l.11.09c9.28.88,115.16,19.3,143.64,26.21l.58.11c.05.12.09.24.13.36A89.35,89.35,0,0,1,446,355.81C446,356,446,356.09,446.05,356.24Z" transform="translate(-7.85 -6.29)"/><path class="cls-18" d="M238.39,288c-7.11,4.23-9.22,5.59-16.36,9.81l-.92-2.08c-4.86-7.41-10.05-29.46-11.54-38.19h-.07V254.7c.24-.11.47-.23.7-.35,2.19-1.24,3.65-5.15,3.48-7.66l-.43-.16c.9-.95-1.86-7.08-1.77-8.39,0-.24.45,0,1,.36a10.91,10.91,0,0,1,3.55,4.16Zm-28.82-30.46h-.07v27.93h-27c6.47,6.75,29.87,19.52,29.87,19.65,2.92-1.72,6.72-5.58,9.62-7.31l-.92-2.08C216.25,288.31,211.06,266.26,209.57,257.53Z" transform="translate(-7.85 -6.29)"/><path class="cls-19" d="M332.68,359.26c-1.42,0-3-.06-3.95-1.13a2.69,2.69,0,0,1-.49-.85,6.92,6.92,0,0,1-.21-2.84q.51-6.85,1-13.68v-.07l21.62-1.55c7.12,5.17,16.16,10.34,23.26,15.52a3.18,3.18,0,0,1,1.45,1.75,1.54,1.54,0,0,1-.08.85,2.44,2.44,0,0,1-1.22,1.29,6.23,6.23,0,0,1-2.65.41" transform="translate(-7.85 -6.29)"/><polygon class="cls-20" points="346.93 244.39 341.64 247.45 341.64 241.34 346.93 244.39"/><polygon class="cls-14" points="317.13 237.95 316.87 249.57 319.14 249.57 318.87 237.95 317.13 237.95"/><path class="cls-21" d="M328.79,285.4a364.45,364.45,0,0,0-26,26.11c-1.3,1.43-2.59,2.88-3.86,4.33C289.11,327,279.94,339,268.06,347.89a75.51,75.51,0,0,1-16.5,9.48A77.49,77.49,0,0,1,219.43,363l-3,.86s-66.14-28.41-66.13-29c2.65-1.57,62-31.24,64.65-32.81q9.75-5.78,19.45-11.56c10.92-6.5,21.85-13,32.94-19.55l3.3-1.95c2-1.16,3.92-2.32,5.89-3.47,15.38-9,30.86-17.93,47.08-25.31,3.21-1.46,6.48-2.87,9.81-4a48.09,48.09,0,0,1,14.86-3h.31a15.41,15.41,0,0,1,9.09,3,13.79,13.79,0,0,1,2.88,2.83c2.56,3.43,2.83,8,2.67,12.1q-.31,7.71-1,15.41c-1,11.45-2.76,22.8-4.58,34.14-1,6-1.95,12-2.84,18l-.09.55L352,338.37l-.47.71-.83.06L329,340.69l-.61,0,0-.28c-.18-8.26-.24-17.06-.16-25.9.07-9.86.33-19.74.73-28.95Z" transform="translate(-7.85 -6.29)"/><path class="cls-8" d="M328.79,285.4c2.6-2.36,4.72-5.77,7.38-8l-7.44,24.29.24-16" transform="translate(-7.85 -6.29)"/><path class="cls-8" d="M138.93,352.4s9.78,19.59,69.65,5.43a6.11,6.11,0,0,1-4.12-3.53c-1.4-3.48-9-8.81-9-8.81l-46.12,8.85Z" transform="translate(-7.85 -6.29)"/><path class="cls-22" d="M94.47,265.1a24.37,24.37,0,0,0-3.71-1.73A26.42,26.42,0,0,1,95,256.13c15.11-17.52,61.52-13.77,62.13-13.53,20,7.68,60.8,56.72,60.77,57.71-.3,9.25-.56,37.57-17,42.23-1.77.5-5.2,2.1-7,2-1.54-.11-2.28-1.7-2.57-1.82l0,0a37.71,37.71,0,0,1,6.46,19.83v.07a306.26,306.26,0,0,1-41.18,3.47c-7.84.17-18.69-1.77-23.08-5.61.08-.85,1.1-2.93,1.56-4.77A37.56,37.56,0,0,0,133,331c-5.27-9.57-10.06-13.11-15.28-16.27s-14.08-4.81-14.08-4.81c2.08-2.18,5.78-9.54,6.47-15.42C110.71,281.56,104.4,270.93,94.47,265.1Z" transform="translate(-7.85 -6.29)"/><g class="cls-23"><g class="cls-24"><path class="cls-25" d="M125,233.55a42.94,42.94,0,0,0,36,53.79c8.93,1.16,18.4-.68,25.68-6s12-14.27,11.34-23.24" transform="translate(-7.85 -6.29)"/><path class="cls-25" d="M151.3,237.19a7.5,7.5,0,0,0-1,6.42,13.54,13.54,0,0,0,3.49,5.66,23.27,23.27,0,0,0,25.82,4.78" transform="translate(-7.85 -6.29)"/><path class="cls-25" d="M130.08,305c32.12-2.39,65.28,8,89.57,29.25" transform="translate(-7.85 -6.29)"/><path class="cls-25" d="M99.75,308.65a116.21,116.21,0,0,1,27.78-6.12" transform="translate(-7.85 -6.29)"/><path class="cls-25" d="M118.22,340.06c29.27-7.77,62.28.41,84.54,20.95" transform="translate(-7.85 -6.29)"/><path class="cls-25" d="M212.14,286.33a20.92,20.92,0,0,0,15.64-21.82" transform="translate(-7.85 -6.29)"/><path class="cls-25" d="M114.92,241.11A34.29,34.29,0,0,1,101.65,279" transform="translate(-7.85 -6.29)"/></g></g><path class="cls-26" d="M123,248.55s9,13.47,23.41,7.2c13.27-5.78-5.67-12.37-5.67-12.37Z" transform="translate(-7.85 -6.29)"/><path class="cls-27" d="M173.47,215.05c-.24,1.34-1.4,2.26-2.23,3.34-2.29,3-2.08,7.14-3.26,10.73a14.34,14.34,0,0,1-13.13,9.59,13.14,13.14,0,0,1-4-.59l-.25-.11v0h0c0,.13-.08.29-.11.43a42.07,42.07,0,0,0-.94,5c-.09.62-.14,1.24-.19,1.83-.06.76-.11,1.48-.11,2.24,0,.57-.06,1.16-.06,1.72,0,1.84-3.9,4.5-10,5.69a13.69,13.69,0,0,1-2.35.19c-9.67.08-14.5-7.79-14.5-7.79,3.53-8.44,4.58-10.92,5.37-19.16a5.46,5.46,0,0,0,3.88-1.38c2.5-2.88,3.5-6.68,4-10.38a5.55,5.55,0,0,0-.24-2.18l-2.78-1.81c-.37-1.94-1.29-1.42.06-2.85l2.64-4.72c-.27-.35,4.69-2,4.69-2.37l3.34,2.13h0l17.52,2.1c-.35,3.32.83,6.15,2.69,6.36s3.7-2.26,4.1-5.55l3.88.43v0c0,.13,0,.27.06.38l.16.88a10.41,10.41,0,0,0,.51,1.73C172.8,212.27,173.74,213.62,173.47,215.05Z" transform="translate(-7.85 -6.29)"/><path class="cls-28" d="M143.3,204.61l17.56,2.08v-.06c.39-3.32,2.24-5.84,4.13-5.61s3.07,3.09,2.68,6.42c0,0,0,0,0,.06l3.88.45c-.46-3.76.43-7.87-1.32-11.25v-.12c-.34,0-.69,0-1,0a34.52,34.52,0,0,1-15.34-3.24v0a23.05,23.05,0,0,1-9.17,2.08v.16A10.53,10.53,0,0,1,143.3,204.61Z" transform="translate(-7.85 -6.29)"/><path class="cls-29" d="M161.06,214c-2.43-1.39-1.59-6.6-.55-7.37.26,1.09,0,2.15.49,3.18s.62,2.39,1.66,2.92c.87.44,3-.46,1.93.67A2.71,2.71,0,0,1,161.06,214Z" transform="translate(-7.85 -6.29)"/><path class="cls-30" d="M166.81,207.45v-.06c.4-3.33-.81-6.2-2.68-6.42s-3.73,2.29-4.12,5.61c0,0,0,0,0,.06-.36,3.3.83,6.14,2.7,6.37S166.4,210.74,166.81,207.45Z" transform="translate(-7.85 -6.29)"/><path class="cls-10" d="M160.86,206.69c-.37,3.3.83,6.14,2.7,6.36s3.69-2.26,4.1-5.55c0,0,0,0,0-.06.39-3.33-.81-6.2-2.68-6.42s-3.74,2.29-4.13,5.61Z" transform="translate(-7.85 -6.29)"/><path class="cls-29" d="M157.28,196.28a8.38,8.38,0,0,0-2.84-1.1,7.67,7.67,0,0,0-3.16.75,19.34,19.34,0,0,1-4.31,1,4.71,4.71,0,0,1-2.76-.28,1.92,1.92,0,0,1-1-2.35,2,2,0,0,1,1.3-1,8.46,8.46,0,0,1,1.67-.19,15.34,15.34,0,0,0,7.84-2.69,16,16,0,0,0,9.6,3.83,27.82,27.82,0,0,1,3,.15c.9.13,3.43.85,1.74,1.79a11.06,11.06,0,0,1-3.65,1.12A12.94,12.94,0,0,1,157.28,196.28Z" transform="translate(-7.85 -6.29)"/><path class="cls-29" d="M169.69,216.87a2.33,2.33,0,0,0-.73.2.84.84,0,0,0-.49.6.72.72,0,0,0,.39.65,4.94,4.94,0,0,0,1.93.58c.53-.36,2.55-2.9,2.68-3.84-.45-.18-1.4.94-1.85,1.16A7.45,7.45,0,0,1,169.69,216.87Z" transform="translate(-7.85 -6.29)"/><path class="cls-29" d="M150.64,238c0,.13-.08.27-.13.43a27.61,27.61,0,0,0-.94,5c-.09.59-.14,1.21-.19,1.83s-.11,1.48-.11,2.24c0,.57-.06,1.16-.06,1.72,0,1.84-3.9,4.5-10,5.69a13.69,13.69,0,0,1-2.35.19c5.21-5.88,9.11-14.77,4.83-24.69a17.21,17.21,0,0,0,9,7.63Z" transform="translate(-7.85 -6.29)"/><path class="cls-29" d="M147.44,206.9c-1.73-.12-3.65-.33-4.8-1.63a82.59,82.59,0,0,1,15.6,1.54c.73.15,1.61,1.07.43,1.05s-2.22-.33-3.29-.4Z" transform="translate(-7.85 -6.29)"/><path class="cls-31" d="M167.66,207.5s0,0,0-.06c.39-3.33-.81-6.2-2.68-6.42s-3.74,2.29-4.13,5.61v.06c-.37,3.3.83,6.14,2.7,6.36S167.25,210.79,167.66,207.5Z" transform="translate(-7.85 -6.29)"/><path class="cls-29" d="M167.67,209.26h.78c1.08,0,2.27.25,3.3.18h.11l-.22-.87a1.46,1.46,0,0,0-.39-.12c-1.08-.15-2.19-.26-3.28-.35C167.88,208.47,167.79,208.87,167.67,209.26Z" transform="translate(-7.85 -6.29)"/><path class="cls-30" d="M171.76,207.8v0c-.15,3.32,1.24,6.07,3.11,6.17s3.56-2.53,3.74-5.88-1.23-6.12-3.12-6.23S171.93,204.45,171.76,207.8Z" transform="translate(-7.85 -6.29)"/><path class="cls-10" d="M172.52,208.23c-.14,3.32,1.25,6.07,3.11,6.17s3.57-2.53,3.74-5.88-1.23-6.13-3.12-6.23-3.55,2.53-3.73,5.88C172.53,208.19,172.52,208.22,172.52,208.23Z" transform="translate(-7.85 -6.29)"/><path class="cls-32" d="M172.52,208.17s0,.05,0,.06c-.14,3.32,1.25,6.07,3.11,6.17s3.57-2.53,3.74-5.88-1.23-6.13-3.12-6.23S172.7,204.82,172.52,208.17Z" transform="translate(-7.85 -6.29)"/><polyline class="cls-31" points="164.67 201.95 163.71 201.89 159.81 201.69"/><polyline class="cls-31" points="153.01 200.4 135.46 198.32 133.18 198.06"/><path class="cls-33" d="M130.24,174.7" transform="translate(-7.85 -6.29)"/><path class="cls-30" d="M126.84,182.52a7.58,7.58,0,0,0-1,6.28,4.64,4.64,0,0,0,.86,1.57,5.6,5.6,0,0,0,4.26,2.19c3.19,2.41,8.32,3.72,13.77,3.51a23.65,23.65,0,0,0,9.2-2,35.08,35.08,0,0,0,15.32,3.18l1.05-.06c6.77-.36,13.85-4.05,15-11.36a10.62,10.62,0,0,0-4.47-10.39c-3-1.91-6.81-2-10-3.44s-5.87-4.33-9.3-5.44a12,12,0,0,0-6.32-.15c-1.5.34-3,.9-4.47,1.11s-3.06-.26-4.63-.36c-8.7-.51-16.66,7.13-19.05,15A1.89,1.89,0,0,1,126.84,182.52Z" transform="translate(-7.85 -6.29)"/><path class="cls-30" d="M129,229.19a4.4,4.4,0,0,0,2.43-1.28,13.38,13.38,0,0,0,2.85-4.07,21.57,21.57,0,0,0,1.53-4.64c.17-.79.31-1.59.42-2.38a5.22,5.22,0,0,0,.07-1.33,6.69,6.69,0,0,0-.23-1.29c-.47-1.63-1.14-2.95-1.06-4.4a5.89,5.89,0,0,1,1.35-3.93,3.91,3.91,0,0,1,3.62-1.36,3.07,3.07,0,0,1,2.4,2.92h0a.31.31,0,0,0,.31.33.32.32,0,0,0,.33-.26,3.08,3.08,0,0,0-.08-1.48L143,206a12.28,12.28,0,0,0,.8-1.06,10,10,0,0,0,1.58-8.88c-3.52,0-11.15-1.62-14.26-4a5,5,0,0,1-3.8-1.74.58.58,0,0,0-.32-.47.57.57,0,0,0-.76.27,23.56,23.56,0,0,0-2.15,9.42,71.67,71.67,0,0,0,.58,9.54,55.47,55.47,0,0,1,.39,9.36,47.35,47.35,0,0,0-.15,4.8,14.65,14.65,0,0,0,.31,2.46,5.21,5.21,0,0,0,1.08,2.46A3.09,3.09,0,0,0,129,229.19Z" transform="translate(-7.85 -6.29)"/><path class="cls-26" d="M217.94,300.31c-4.86-7.41-8.55-41.68-8.37-42.78-.53.19-.07,27.93-.07,27.93s-52.88-32.19-37.29-11.22C185.8,292.54,217.94,300.31,217.94,300.31Z" transform="translate(-7.85 -6.29)"/><path class="cls-26" d="M175.42,278.41s-12-20.31-17.75-22.16C158,257.21,175.42,278.41,175.42,278.41Z" transform="translate(-7.85 -6.29)"/><polygon class="cls-12" points="217.29 217.64 211.5 201 208.33 217.99 216.1 225.04 217.29 217.64"/><path class="cls-34" d="M186.32,292.68l-24.58-4.11L169,245.32l.22-1.32L174,215.38l51.18,8.54-3,18.17-.86,5.16a52.6,52.6,0,0,0-11.19,5.27c-.73.48-1.49,1.2-1.37,2.07.15,1.15,1.62,1.55,2.78,1.55a16.52,16.52,0,0,0,3.91-.45l0,.16c-3.53,1.63-6.19,2.76-9.72,4.39a4.84,4.84,0,0,0-1.83,1.21,1.7,1.7,0,0,0-.2,2,2.53,2.53,0,0,0,2.3.58c1.84-.15,3.72-.32,5.57-.58v.07a5,5,0,0,0-2.12.59,1.78,1.78,0,0,0-.88,1.89c.32,1,1.65,1.23,2.73,1.26a22.83,22.83,0,0,0,6.71-.52l-.47,2.79-4.6,27.56-23.47-3.92Z" transform="translate(-7.85 -6.29)"/><line class="cls-35" x1="172.64" y1="225.55" x2="208.07" y2="231.46"/><line class="cls-35" x1="171.32" y1="233.52" x2="206.73" y2="239.43"/><line class="cls-35" x1="169.99" y1="241.49" x2="201.17" y2="246.7"/><line class="cls-35" x1="168.65" y1="249.46" x2="196.82" y2="254.16"/><line class="cls-35" x1="167.33" y1="257.43" x2="202.74" y2="263.34"/><path class="cls-36" d="M192.59,343.24a20.81,20.81,0,0,1,6.47,4.62c3.5,3.85,5.25,10.35,1.82,14.27l-.83.14c-.74.13-1.5.24-2.25.36v-.07a37.71,37.71,0,0,0-6.46-19.83l0,0C191.77,342.86,192.18,343.05,192.59,343.24Z" transform="translate(-7.85 -6.29)"/><path class="cls-26" d="M191.35,342.69c-12.08-5.64-32.69-6.19-49.85-21.41s-20.63-55.38-23-55.38c-.86.4,9.6,40.67,16.35,60.43" transform="translate(-7.85 -6.29)"/><path class="cls-37" d="M225.16,253.83a4.58,4.58,0,0,1,.2,2.45,5.71,5.71,0,0,1-2.33,3.05c-3.3,2.5-7.34,3.57-11.49,4.15-1.85.26-3.73.43-5.57.58a2.53,2.53,0,0,1-2.3-.58,1.7,1.7,0,0,1,.2-2,4.84,4.84,0,0,1,1.83-1.21c3.53-1.63,6.19-2.76,9.72-4.39l0-.16a27.56,27.56,0,0,0,7.82-3.18,4.41,4.41,0,0,0,.53-.35l.11.16A2.19,2.19,0,0,1,225.16,253.83Z" transform="translate(-7.85 -6.29)"/><path class="cls-38" d="M227.07,246.91a17.48,17.48,0,0,0-5-4.82l-1.27,6.38Z" transform="translate(-7.85 -6.29)"/><path class="cls-39" d="M225.22,246.07c3.64-.38,1.21,4.14-1.49,6.09a4.41,4.41,0,0,1-.53.35,27.56,27.56,0,0,1-7.82,3.18,16.52,16.52,0,0,1-3.91.45c-1.16,0-2.63-.4-2.78-1.55-.12-.87.64-1.59,1.37-2.07a52.6,52.6,0,0,1,11.19-5.27c.79-.29,1.57-.55,2.31-.79A7.31,7.31,0,0,1,225.22,246.07Z" transform="translate(-7.85 -6.29)"/><path class="cls-40" d="M223.42,259.56c-.24,2.51-2.32,6.12-4.69,7-.24.09-.49.16-.74.23a22.83,22.83,0,0,1-6.71.52c-1.08,0-2.41-.24-2.73-1.26a1.78,1.78,0,0,1,.88-1.89,5,5,0,0,1,2.12-.59v-.07c4.15-.58,8.19-1.65,11.49-4.15Z" transform="translate(-7.85 -6.29)"/><path class="cls-29" d="M223,259.33c-3.3,2.5-7.34,3.57-11.49,4.15C211.54,263.48,220.3,264.52,223,259.33Z" transform="translate(-7.85 -6.29)"/><path class="cls-29" d="M223.73,252.16a4.41,4.41,0,0,1-.53.35c-2.44,1.41-6.49,3.19-7.82,3.18,0,0,6.57.61,8.46-3.37" transform="translate(-7.85 -6.29)"/><path class="cls-8" d="M252.33,357.15s47.93-1.93,64.34-47.54l-10.87-1.87c-10.36,12.16-22.69,28-35.78,38.33-5.91,4.66-11.69,8.59-17.69,11.08" transform="translate(-7.85 -6.29)"/><path class="cls-8" d="M355.09,316.3l-3,21.85s-.24.72-1.56,1c0,0,24.48,15.52,25,17.2l20.54.35s3.82-1.07-5.61-3.34S358,341,355.09,316.3Z" transform="translate(-7.85 -6.29)"/><path class="cls-8" d="M217.57,300.08s3.81,5.5,3,20.73c0,0,24.33,1.69,24.33,5.08a27.21,27.21,0,0,1-.42,5.29s1.8,3.93,1.17,6.05c0,0,1.13,1.84.41,3.28s-2,8.52-4.52,10.47c0,0,1.64,7.8-4,8s-6,3.38-10.57,3.49S214.3,358,214.3,358l1.13-36.13A80.59,80.59,0,0,0,217.57,300.08Z" transform="translate(-7.85 -6.29)"/><path class="cls-9" d="M226.52,361.56c-21.92,9.73-49.39,15.52-79.21,15.52-71.71,0-129.84-17.82-129.84-66.69,0-28.59,15.64-48.83,40.7-62.46" transform="translate(-7.85 -6.29)"/><path class="cls-41" d="M241.85,331.4c9.78-8.64,63.34-49,82.86-64.73,7.47-6,23.08-16.63,22.3-1.27-1.22,23.94-3.42,47.17-5.16,71.08" transform="translate(-7.85 -6.29)"/><path class="cls-10" d="M232.94,360.79H222.38a7.34,7.34,0,0,1-7.33-6.73l-2.63-31H242.9l-2.63,31A7.35,7.35,0,0,1,232.94,360.79Z" transform="translate(-7.85 -6.29)"/><path class="cls-42" d="M227.62,321.28c8.7,0,15.28.91,15.28,1.9s-6.58,1.67-15.28,1.67-15.2-.8-15.2-1.79S218.93,321.28,227.62,321.28Z" transform="translate(-7.85 -6.29)"/><path class="cls-8" d="M229.48,360.79s9.2-.94,11-9.54l.22-2.54Z" transform="translate(-7.85 -6.29)"/><path class="cls-43" d="M243.91,330.7a1.2,1.2,0,0,1,.23.11c1.49.89.89,3.18,0,4.68l.94,0a2,2,0,0,1,1.15,2.18,5.58,5.58,0,0,1-1.15,2.37c-.47.66-.94,1.3-1.42,1.95l.08.06c-1.73,4.57-4.36,9.75-7.77,13.3a30.13,30.13,0,0,1-12.13,8.11c-.32.11-.64.2-1,.29-7.29,2-15.43.13-22.83-1.46v0l.83-.14c3.43-3.92,1.68-10.42-1.82-14.27a20.81,20.81,0,0,0-6.47-4.62,20.41,20.41,0,0,0,7.36-1.89,15,15,0,0,0,7.23-6.78c1.22-2.47,2.33-5.31,4.82-6.53l.77-.38.43,4.2c0,8.11,4.9,9.79,7.61,10.34s8.35-.58,11.55-2.55,5.41-4.26,8.18-6.81C241.56,331.89,242.71,330.25,243.91,330.7Z" transform="translate(-7.85 -6.29)"/><path class="cls-29" d="M231.28,349.44a43.84,43.84,0,0,0,12.88-13.95S242.48,345.07,231.28,349.44Z" transform="translate(-7.85 -6.29)"/><path class="cls-29" d="M233.28,353.7A92.35,92.35,0,0,0,243.68,342C244.16,341.36,237.47,353.76,233.28,353.7Z" transform="translate(-7.85 -6.29)"/><g class="cls-44"><path class="cls-41" d="M211.8,324.84c7.82,4.54,28.91,3.29,31,.29" transform="translate(-7.85 -6.29)"/></g><path class="cls-45" d="M221,312.93c.59-3.07,1.91-6,1.83-9.15-.07-2.93-1.37-5.67-2.67-8.3s-2.65-5.34-2.82-8.26,1.15-6.16,3.85-7.29c2.92-1.22,6.4.45,8.27,3s2.49,5.78,3.07,8.9q1.1,5.91,2.2,11.82a34.28,34.28,0,0,1,.86,9.5,11.52,11.52,0,0,1-4.23,8.28C224.76,326.27,219.82,319.25,221,312.93Z" transform="translate(-7.85 -6.29)"/><path class="cls-45" d="M240.9,308c.46,1.81,1.38,3.75,3.16,4.32a4.16,4.16,0,0,0,3.7-.81,9,9,0,0,0,2.37-3.11,12.79,12.79,0,0,0,1.61-7.41,7,7,0,0,0-4.45-5.78C239.81,292.87,239.82,303.72,240.9,308Z" transform="translate(-7.85 -6.29)"/><rect class="cls-8" x="131.35" y="93.61" width="329.79" height="3.91"/><polygon class="cls-8" points="474.71 262.93 469.65 262.93 469.54 207.78 474.6 208.26 474.71 262.93"/><polygon class="cls-14" points="543.24 22.77 524.68 33.5 524.68 12.05 543.24 22.77"/><polygon class="cls-14" points="55.55 98.38 36.99 109.11 36.99 87.66 55.55 98.38"/><path class="cls-9" d="M47.19,254.21a38,38,0,0,1-1-8.85,37.6,37.6,0,0,1,54.24-33.72" transform="translate(-7.85 -6.29)"/><path class="cls-9" d="M80.18,261.45a29.91,29.91,0,0,1,23.44,48.49" transform="translate(-7.85 -6.29)"/><path class="cls-9" d="M92,310.68a36.82,36.82,0,0,1,40.24,52.7" transform="translate(-7.85 -6.29)"/><path class="cls-9" d="M434.19,308.56c0-21.79,21.9-39.46,48.92-39.46,1.39,0,2.75,0,4.11.13" transform="translate(-7.85 -6.29)"/><path class="cls-46" d="M50.35,140A157.58,157.58,0,0,0,86,244.73" transform="translate(-7.85 -6.29)"/><path class="cls-46" d="M493.86,210.34l21.34-49.67c13-30.18,29.87-62,26.61-94.69" transform="translate(-7.85 -6.29)"/><path class="cls-41" d="M328.73,335.72a56.38,56.38,0,0,0,23.6.07" transform="translate(-7.85 -6.29)"/><path class="cls-25" d="M18.52,321.28" transform="translate(-7.85 -6.29)"/><path class="cls-47" d="M352.27,240.9v-.34" transform="translate(-7.85 -6.29)"/><path class="cls-48" d="M284.22,266.3a222.82,222.82,0,0,1,64.94-30.09" transform="translate(-7.85 -6.29)"/><path class="cls-1" d="M243.26,297.64a11.1,11.1,0,0,0,.21,10.84" transform="translate(-7.85 -6.29)"/><g class="cls-49"><path class="cls-47" d="M96,259.78a34,34,0,0,1,21.12-12.1" transform="translate(-7.85 -6.29)"/><path class="cls-47" d="M225.18,283.22a67.94,67.94,0,0,1,5.66,14.95,30.14,30.14,0,0,1-.38,15.83" transform="translate(-7.85 -6.29)"/><path class="cls-47" d="M187.22,343.69a13.83,13.83,0,0,1,4.67,8.24" transform="translate(-7.85 -6.29)"/><line class="cls-47" x1="454.11" y1="68.07" x2="454.11" y2="88.02"/></g><path class="cls-9" d="M231.08,264.64l8.22,16.45" transform="translate(-7.85 -6.29)"/><path class="cls-9" d="M236.29,267.23l-.59-.93,4.36,7.68" transform="translate(-7.85 -6.29)"/><line class="cls-41" x1="81.64" y1="86.56" x2="81.64" y2="57.47"/><line class="cls-41" x1="85.61" y1="93.17" x2="85.61" y2="79.5"/><line class="cls-41" x1="4.97" y1="119.61" x2="4.97" y2="145.35"/><line class="cls-41" x1="0.13" y1="124.01" x2="0.13" y2="129.89"/><line class="cls-41" x1="489.56" y1="34.12" x2="489.56" y2="65.08"/><line class="cls-41" x1="485.2" y1="26.63" x2="485.2" y2="43.87"/><path class="cls-41" d="M434.2,331.58s8.45,19.23,5.24,25.06" transform="translate(-7.85 -6.29)"/><path class="cls-10" d="M165.24,226.42l-.23-.09c-.3-.1-.61-.19-.91-.27a10.13,10.13,0,0,0-2.25-.41c-.27,0-.59,0-.7.27a.64.64,0,0,0,0,.49,3.37,3.37,0,0,0,1.14,1.63,2.4,2.4,0,0,0,1.9.44,1.88,1.88,0,0,0,1.26-1,1.09,1.09,0,0,0,.06-.71A.49.49,0,0,0,165.24,226.42Z" transform="translate(-7.85 -6.29)"/></g></g></svg>