<?xml version="1.0" encoding="utf-8"?>
<!-- Generator: Adobe Illustrator 23.0.1, SVG Export Plug-In . SVG Version: 6.00 Build 0)  -->
<svg version="1.1" id="Layer_1" xmlns="http://www.w3.org/2000/svg" xmlns:xlink="http://www.w3.org/1999/xlink" x="0px" y="0px"
	 viewBox="0 0 572 394" style="enable-background:new 0 0 572 394;" xml:space="preserve">
<style type="text/css">
	.st0{fill-rule:evenodd;clip-rule:evenodd;fill:none;stroke:#D3DBE5;stroke-width:0.25;stroke-miterlimit:10;}
	.st1{fill-rule:evenodd;clip-rule:evenodd;fill:#D3DBE5;stroke:#D3DBE5;stroke-width:0.25;stroke-miterlimit:10;}
	.st2{fill:none;stroke:#59E3AD;stroke-width:0.25;stroke-miterlimit:10;}
	.st3{fill:url(#SVGID_1_);}
	.st4{fill:#F6F8FA;}
	.st5{fill:none;stroke:#D3DBE5;stroke-width:0.25;stroke-linecap:round;stroke-linejoin:round;stroke-miterlimit:10;}
	.st6{fill:#FFFFFF;}
	.st7{fill:url(#SVGID_2_);}
	.st8{fill:#43AA82;}
	.st9{fill:none;stroke:#59E3AD;stroke-linecap:round;stroke-linejoin:round;stroke-miterlimit:10;stroke-dasharray:3,3,3,3;}
	.st10{fill:none;stroke:#FFFFFF;stroke-miterlimit:10;}
	.st11{fill:#D3DBE5;}
	.st12{fill:#D3DBE5;stroke:#D3DBE5;stroke-width:0.25;stroke-miterlimit:10;}
	.st13{fill:url(#SVGID_3_);}
	.st14{fill:url(#SVGID_4_);}
	.st15{fill:url(#SVGID_5_);}
	.st16{fill:url(#SVGID_6_);}
	.st17{fill:none;stroke:#D3DBE5;stroke-width:0.5277;stroke-linecap:round;stroke-linejoin:round;stroke-miterlimit:10;}
	.st18{fill:url(#SVGID_7_);}
	.st19{fill:url(#SVGID_8_);}
	.st20{opacity:0.18;}
	
		.st21{clip-path:url(#SVGID_10_);fill:none;stroke:#99C3E4;stroke-width:0.5;stroke-linecap:round;stroke-linejoin:round;stroke-miterlimit:10;}
	.st22{opacity:0.3;fill:#B3B3B3;}
	.st23{fill:url(#SVGID_11_);}
	.st24{fill:url(#SVGID_12_);}
	.st25{opacity:0.24;fill:#DB5437;}
	.st26{fill:#24497E;}
	.st27{fill:none;stroke:#24497E;stroke-width:0.25;stroke-linecap:round;stroke-linejoin:round;stroke-miterlimit:10;}
	.st28{fill:#FFFFFF;stroke:#24497E;stroke-width:0.25;stroke-linecap:round;stroke-linejoin:round;stroke-miterlimit:10;}
	.st29{fill:url(#SVGID_13_);}
	.st30{fill:url(#SVGID_14_);}
	.st31{fill:none;stroke:#43AA82;stroke-width:0.25;stroke-linecap:round;stroke-linejoin:round;stroke-miterlimit:10;}
	.st32{fill:#91BDFD;}
	.st33{fill:url(#SVGID_15_);}
	.st34{fill:url(#SVGID_16_);}
	.st35{fill:url(#SVGID_17_);}
	.st36{fill:url(#SVGID_18_);}
	.st37{fill:none;stroke:#A7B6CB;stroke-width:0.25;stroke-linecap:round;stroke-miterlimit:10;}
	.st38{fill:url(#SVGID_19_);}
	.st39{fill:url(#SVGID_20_);}
	.st40{clip-path:url(#SVGID_22_);fill:none;stroke:#A7B6CB;stroke-width:0.25;stroke-linecap:round;stroke-miterlimit:10;}
	.st41{opacity:0.41;fill:#FFFFFF;}
	
		.st42{fill:none;stroke:#59E3AD;stroke-width:0.25;stroke-linecap:round;stroke-linejoin:round;stroke-miterlimit:10;stroke-dasharray:3,3,3,3;}
	.st43{fill:none;stroke:#99C3E4;stroke-width:0.5;stroke-linecap:round;stroke-linejoin:round;stroke-miterlimit:10;}
	.st44{fill:none;stroke:#F6F8FA;stroke-width:0.25;stroke-linecap:round;stroke-linejoin:round;stroke-miterlimit:10;}
	.st45{opacity:0.5;fill:none;stroke:#F6F8FA;stroke-width:0.25;stroke-linecap:round;stroke-linejoin:round;stroke-miterlimit:10;}
	.st46{fill:none;}
	.st47{opacity:0.5;}
</style>
<rect x="484.4" y="7.7" class="st0" width="64.9" height="43.5"/>
<rect x="549.4" y="7.7" class="st1" width="7.8" height="43.5"/>
<polygon class="st0" points="23.5,127.5 78.5,127.5 78.5,77.3 23.5,77.3 "/>
<polygon class="st1" points="16.4,127.5 24.6,127.5 24.6,76.9 16.4,76.9 "/>
<rect x="251.8" y="34.9" class="st2" width="28.8" height="28.8"/>
<radialGradient id="SVGID_1_" cx="238.1428" cy="75.3393" r="24.5383" gradientUnits="userSpaceOnUse">
	<stop  offset="0" style="stop-color:#F6F8FA"/>
	<stop  offset="6.995250e-02" style="stop-color:#F3F5F8"/>
	<stop  offset="0.4968" style="stop-color:#E2E7EE"/>
	<stop  offset="0.8197" style="stop-color:#DCE2EA"/>
</radialGradient>
<rect x="239.1" y="57.3" class="st3" width="16.5" height="16.5"/>
<path class="st4" d="M440.9,308.1c0,0,3.7-2,5.5,4.7c7.3,28.5,70.6,15.3,58.7-33.2c0,0,23,35-22,54.6c0,0-22.9,7.2-41.3-4.6
	L440.9,308.1z"/>
<path class="st4" d="M484.2,216.8c0,0,14.6,26-2.5,46.4c0,0,11.9,4.8,15.6,8.1C497.3,271.4,514.3,239,484.2,216.8z"/>
<g>
	<path class="st4" d="M91.3,300c0,0,13.6-8.7,12.6-24.5c0,0,4.8,12.8-5.3,24.5L91.3,300z"/>
</g>
<path class="st4" d="M21.9,272.5c-28.5,65.6,40.2,102.9,159.8,88.3C20.2,368.7,20,302.5,21.9,272.5z"/>
<path class="st4" d="M190.6,350.5c0,6.8,30.5,6.9,111.1,6.9s145.8-5.6,145.8-12.4s-65.3-16.7-145.8-12.4
	C221.3,336.9,190.6,343.7,190.6,350.5z"/>
<path class="st5" d="M455.9,207.6c25.6,0,46.4,19.7,46.4,44c0,7.1-1.8,13.8-4.9,19.8"/>
<path class="st5" d="M476.2,261.9c20,3.5,35,18.8,35,37c0,20.9-19.7,37.8-43.9,37.8c-12.1,0-23.1-4.2-31-11.1"/>
<path class="st5" d="M79.6,201.6c1.7-28.5,24.9-51.1,53.3-51.1c1.8,0,3.7,0.1,5.5,0.3"/>
<path class="st4" d="M133.4,269.6l-0.5-47.9L133,98h317.2h0.1l2.1,163.6c-27.8,6.1-34.2,26.9-34.5,30H213.2
	C213.2,291.6,141.8,271,133.4,269.6z"/>
<path class="st6" d="M164.9,68.2h193.3h92V98h-0.1H133l0-20.9v-8.9h8.8H164.9z M440.1,84.5c0-2.3-1.9-4.2-4.2-4.2
	c-2.3,0-4.2,1.9-4.2,4.2s1.9,4.2,4.2,4.2C438.2,88.7,440.1,86.8,440.1,84.5z M424.9,84.5c0-2.3-1.9-4.2-4.2-4.2
	c-2.3,0-4.2,1.9-4.2,4.2s1.9,4.2,4.2,4.2C423,88.7,424.9,86.8,424.9,84.5z M409.8,84.5c0-2.3-1.9-4.2-4.2-4.2
	c-2.3,0-4.2,1.9-4.2,4.2s1.9,4.2,4.2,4.2C407.9,88.7,409.8,86.8,409.8,84.5z"/>
<linearGradient id="SVGID_2_" gradientUnits="userSpaceOnUse" x1="258.2463" y1="42.6022" x2="302.1689" y2="96.2853">
	<stop  offset="0" style="stop-color:#9FEFCF"/>
	<stop  offset="1" style="stop-color:#59E3AD"/>
</linearGradient>
<path class="st7" d="M164.5,68.2h193.6h92.1V98h-0.1H132.5l0-20.9v-8.9h8.8H164.5z"/>
<circle class="st6" cx="176.8" cy="84.5" r="4.2"/>
<circle class="st6" cx="161.6" cy="84.5" r="4.2"/>
<circle class="st6" cx="146.5" cy="84.5" r="4.2"/>
<path class="st8" d="M458.7,260.8c-3,1.2-5.6,0-8.4,1.6v-60V98V68.2h0h8.8v154.3v5.4"/>
<path class="st9" d="M647.7,244.4"/>
<rect x="446.1" y="375.9" class="st10" width="12.8" height="12.8"/>
<g>
	<line class="st5" x1="371.2" y1="230" x2="371.2" y2="219.9"/>
	<line class="st5" x1="379.9" y1="220" x2="379.9" y2="229.7"/>
	<rect x="371.1" y="219.5" class="st11" width="8.7" height="10.5"/>
	<path class="st5" d="M305.7,230.7c0,2.1-1.7,3.8-3.8,3.8c-2.1,0-3.8-1.7-3.8-3.8c0-2.1,1.7-3.8,3.8-3.8
		C304,226.9,305.7,228.6,305.7,230.7z"/>
	<g>
		<polyline class="st5" points="371.2,230 328.9,230 328.6,230 328.6,219.8 328.7,219.8 371.2,219.8 		"/>
		<rect x="314.9" y="218.3" class="st12" width="13.8" height="19.7"/>
		<polyline class="st5" points="288.9,218.3 314.9,218.3 314.9,242.7 		"/>
		<g>
			<rect x="333.8" y="242.3" class="st5" width="101.4" height="6.2"/>
			<polyline class="st5" points="331,242.5 331,230 384.5,230 384.5,242.5 			"/>
			<rect x="384.5" y="230" class="st5" width="4.9" height="12.5"/>
			<rect x="384.3" y="229.9" class="st11" width="4.9" height="12.4"/>
			<g>
				<g>
					<polyline class="st5" points="180.3,177.6 180.3,142 180.3,138.5 180.3,117.8 183.1,117.8 183.1,118 183.1,177.6 					"/>
					<polyline class="st5" points="168.4,177.6 168.4,142 168.6,142 179.3,142 180.3,142 180.3,177.6 					"/>
					<polygon class="st5" points="180.3,138.5 180.3,142 179.3,142 168.6,142 168.4,142 168.4,138.5 					"/>
					<polyline class="st5" points="183.1,118 183.1,177.6 183.1,177.8 183.1,177.9 					"/>
					<g>
						<rect x="160.1" y="177.6" class="st5" width="144.3" height="6.2"/>
						<polyline class="st5" points="278.5,165 236.3,165 236,165 236,154.9 236.1,154.9 248.6,154.9 						"/>
						<polyline class="st5" points="238.3,177.6 238.3,165 291.9,165 291.9,177.6 						"/>
						<polygon class="st5" points="295.2,142.1 295.2,154.9 254.3,154.9 254.3,154.9 241.7,154.9 241.7,142.1 						"/>
						<polygon class="st5" points="236,165.3 236,177.7 224.3,177.7 224.3,123.7 236,123.7 236,155.2 						"/>
						<polygon class="st5" points="205.5,132.2 221.8,175.2 214.8,177.8 198.6,135.2 199.2,134.9 205.2,132.3 						"/>
						<polygon class="st5" points="205.5,132.2 205.2,132.3 199.2,134.9 198.6,135.2 195.5,127.2 202.6,124.5 						"/>
						<polyline class="st5" points="192.9,177.6 192.9,118 192.9,117.8 195.4,117.8 195.4,126.1 195.4,177.6 						"/>
						<polyline class="st5" points="183.1,177.6 183.1,118 183.1,117.8 192.9,117.8 192.9,118 192.9,177.6 						"/>
						<polygon class="st5" points="283.3,154.9 283.3,154.9 251.5,154.9 241.7,154.9 241.7,142.1 283.3,142.1 						"/>
						<polyline class="st5" points="192.9,118 192.9,177.6 192.9,177.8 192.9,177.9 						"/>
						<path class="st5" d="M254.7,149.4c0,1.3-1.1,2.4-2.4,2.4c-1.3,0-2.4-1.1-2.4-2.4c0-1.3,1.1-2.4,2.4-2.4
							C253.6,147,254.7,148.1,254.7,149.4z"/>
						<path class="st5" d="M264.6,149.4c0,1.3-1.1,2.4-2.4,2.4s-2.4-1.1-2.4-2.4c0-1.3,1.1-2.4,2.4-2.4S264.6,148.1,264.6,149.4z"/>
						<path class="st5" d="M274.6,149.4c0,1.3-1.1,2.4-2.4,2.4s-2.4-1.1-2.4-2.4c0-1.3,1.1-2.4,2.4-2.4S274.6,148.1,274.6,149.4z"/>
						<polyline class="st5" points="195.4,117.8 202.9,117.8 202.9,121.4 202.9,124.5 216.8,124.5 223.9,140.9 						"/>
						<line class="st5" x1="202.9" y1="147.2" x2="202.9" y2="177.8"/>
						<line class="st5" x1="221.8" y1="175.2" x2="224.2" y2="175.2"/>
						<polyline class="st5" points="236,123.7 251.3,123.7 251.3,142.2 						"/>
						<line class="st5" x1="295.1" y1="177.9" x2="295.1" y2="183.7"/>
						<rect x="295.1" y="177.4" class="st11" width="9.3" height="6.5"/>
						<polygon class="st11" points="235.9,123.7 236,154.9 241.7,154.9 241.7,142.1 251.1,142.1 251.3,123.4 						"/>
						<polygon class="st11" points="195.5,117.9 195.5,177.7 202.8,177.7 202.8,146.5 196.5,126.7 203,124.3 202.7,117.5 						"/>
						<polygon class="st11" points="215.5,177.5 222.2,175 223.9,175.3 224.2,177.3 						"/>
						<polygon class="st11" points="236.2,165.2 235.9,177.5 238.3,177.5 238,165.2 						"/>
						<line class="st5" x1="278.5" y1="165" x2="278.5" y2="155"/>
						<line class="st5" x1="287.3" y1="155.1" x2="287.3" y2="164.8"/>
						<rect x="291.9" y="165" class="st5" width="4.9" height="12.5"/>
						<rect x="283.3" y="142.1" class="st11" width="11.9" height="12.8"/>
						<rect x="278.5" y="154.6" class="st11" width="8.7" height="10.5"/>
						<rect x="291.7" y="165" class="st11" width="4.9" height="12.4"/>
						<g>
							<rect x="321.5" y="201.9" class="st5" width="109.2" height="6.2"/>
							<g>
								<line class="st5" x1="360.7" y1="200.4" x2="365.2" y2="200.4"/>
								<g>
									<polyline class="st5" points="390,201.9 390,177 390.2,177 									"/>
									<polygon class="st5" points="380,153.1 380,159 379.6,159 365.8,159 365.5,159 365.5,153.1 									"/>
									<polygon class="st5" points="341,159.9 341,199.4 340.7,199.4 326.5,199.4 326.4,199.4 326.4,156 326.5,156 340.7,156 
										341,156 									"/>
									<polygon class="st5" points="341,153.1 341,156 340.7,156 326.5,156 326.4,156 326.4,153.1 									"/>
									<polyline class="st5" points="326.4,202 326.4,199.4 326.4,156 326.4,153.1 341,153.1 341,156 341,159.9 341,199.4 
										341,202 									"/>
									<polyline class="st5" points="365.5,201.6 365.5,159 365.5,153.1 380,153.1 380,159 380,169.3 380,201.7 									"/>
									<line class="st5" x1="326.5" y1="156" x2="340.7" y2="156"/>
									<path class="st5" d="M373.7,189.1c0,0.6-0.5,1.1-1.1,1.1c-0.6,0-1.1-0.5-1.1-1.1c0-0.6,0.5-1.1,1.1-1.1
										C373.1,187.9,373.7,188.4,373.7,189.1z"/>
									<path class="st5" d="M373.7,181.4c0,0.6-0.5,1.1-1.1,1.1c-0.6,0-1.1-0.5-1.1-1.1c0-0.6,0.5-1.1,1.1-1.1
										C373.1,180.2,373.7,180.7,373.7,181.4z"/>
									<path class="st5" d="M373.7,173.7c0,0.6-0.5,1.1-1.1,1.1c-0.6,0-1.1-0.5-1.1-1.1c0-0.6,0.5-1.1,1.1-1.1
										C373.1,172.5,373.7,173,373.7,173.7z"/>
									<path class="st5" d="M373.7,166c0,0.6-0.5,1.1-1.1,1.1c-0.6,0-1.1-0.5-1.1-1.1c0-0.6,0.5-1.1,1.1-1.1
										C373.1,164.8,373.7,165.3,373.7,166z"/>
									<line class="st5" x1="365.8" y1="159" x2="379.6" y2="159"/>
									<polyline class="st5" points="353.6,201.8 341.1,159.9 348.1,157.9 360.7,200.4 355.5,201.9 									"/>
									<line class="st5" x1="345.6" y1="162.8" x2="356.1" y2="197.5"/>
									<polyline class="st5" points="406.7,201.8 406.7,177 406.3,177 390.2,177 									"/>
									<polyline class="st5" points="390,177 390,169.3 380.3,169.3 									"/>
									<polyline class="st5" points="348.1,157.9 362.7,157.9 365.2,165.3 									"/>
									<polyline class="st5" points="341,153.1 352.6,153.1 352.6,157.7 									"/>
									<polyline class="st5" points="380,153.1 393.5,153.1 393.5,169.3 									"/>
									<polyline class="st5" points="390,169.3 399.5,169.3 399.5,176.8 									"/>
									<polyline class="st5" points="406.7,177 413.7,177 413.7,201.9 									"/>
								</g>
							</g>
							<line class="st5" x1="416.6" y1="202.2" x2="416.6" y2="208.1"/>
							<polygon class="st11" points="380,153.1 380,169.4 393.4,169.3 393.4,153 							"/>
							<polygon class="st11" points="340.8,153.1 341,201.9 354,201.9 341.7,159.9 348.2,157.8 352.6,157.7 352.6,153.1 							"/>
							<rect x="389.8" y="169.3" class="st11" width="9.7" height="7.7"/>
							<rect x="406.6" y="177.2" class="st11" width="7.3" height="24.5"/>
							<rect x="416.3" y="202" class="st11" width="14.3" height="6.2"/>
						</g>
					</g>
				</g>
				<g>
					<polygon class="st5" points="284.4,206 284.4,210.6 283.9,210.6 230.3,210.6 230.3,206 					"/>
					<path class="st5" d="M284.4,242.1v0.2h-54.2v-0.5v-31.1h53.7h0.5V242.1z"/>
					<rect x="222.3" y="242.3" class="st5" width="75.4" height="6.2"/>
					<polyline class="st5" points="230.3,241.7 230.3,210.6 230.3,206 284.4,206 284.4,210.6 284.4,242.1 					"/>
					<line class="st5" x1="230.3" y1="210.6" x2="284.4" y2="210.6"/>
					<polyline class="st5" points="281.1,206 289,206 289,242.4 					"/>
					<rect x="284.4" y="206" class="st11" width="4.6" height="36.4"/>
					<line class="st5" x1="236.8" y1="218.9" x2="275.9" y2="218.9"/>
					<line class="st5" x1="236.8" y1="223.9" x2="275.9" y2="223.9"/>
					<line class="st5" x1="236.8" y1="228.8" x2="275.9" y2="228.8"/>
					<line class="st5" x1="236.8" y1="233.7" x2="275.9" y2="233.7"/>
				</g>
			</g>
		</g>
	</g>
</g>
<radialGradient id="SVGID_3_" cx="424.2585" cy="332.6919" r="31.5745" gradientUnits="userSpaceOnUse">
	<stop  offset="0.1464" style="stop-color:#1B375F"/>
	<stop  offset="1" style="stop-color:#24497E"/>
</radialGradient>
<path class="st13" d="M443.3,333.1c0.3,2.6,0.5,5.4-0.9,7.7c-2.4,3.9-7.9,3.8-12.4,3.2l-1.6,0.2c-0.7-7.5-2.4-14.8-5-21.8l0.6-0.2
	c3.2-8.2,6.3-16.4,9.5-24.7c0.7-1.8,1.9-3.9,3.8-3.5c1.7,0.3,2.3,2.5,2.4,4.2C440.9,309.8,442.1,321.5,443.3,333.1z"/>
<g>
	<path class="st4" d="M345.6,251.3c0,0,6.7,0.9,5.3,11.1c-1.4,10.1-3.5,45.7-3.5,45.7l-8-1.9L345.6,251.3z"/>
</g>
<radialGradient id="SVGID_4_" cx="380.1778" cy="326.3577" r="98.1021" gradientUnits="userSpaceOnUse">
	<stop  offset="0" style="stop-color:#F6F8FA"/>
	<stop  offset="0.1245" style="stop-color:#EEF1F4"/>
	<stop  offset="0.2969" style="stop-color:#E8ECF0"/>
</radialGradient>
<path class="st14" d="M428.4,344.6l-0.9,0.5h-66l-66.2,0.1c0,0,0,0,0-0.1h-65.1c5.8-2.4,11.6-5.7,17.4-10
	c12.6-9.4,22.3-22.1,32.6-33.9c1.3-1.5,2.7-3.1,4.1-4.6l0.1,0.1c8.9,0.9,110.9,18.6,138.3,25.2l0.6,0.1c0,0.1,0.1,0.2,0.1,0.3
	c2.6,7,4.3,14.4,5,21.8C428.4,344.3,428.4,344.5,428.4,344.6z"/>
<linearGradient id="SVGID_5_" gradientUnits="userSpaceOnUse" x1="181.7782" y1="241.1525" x2="207.672" y2="283.2297">
	<stop  offset="0.3474" style="stop-color:#4891FB"/>
	<stop  offset="0.749" style="stop-color:#227BFB"/>
	<stop  offset="1" style="stop-color:#2F71D1"/>
</linearGradient>
<path class="st15" d="M228.4,278.9c-6.8,4.1-8.9,5.4-15.8,9.5l-0.9-2c-4.7-7.1-9.7-28.4-11.1-36.8h-0.1v-2.7
	c0.2-0.1,0.5-0.2,0.7-0.3c2.1-1.2,3.5-5,3.4-7.4l-0.4-0.2c0.9-0.9-1.8-6.8-1.7-8.1c0-0.2,0.4,0,1,0.3c1.5,1,2.6,2.4,3.4,4
	C211.7,244.9,228.4,278.9,228.4,278.9z M200.7,249.6L200.7,249.6l-0.1,26.9h-26c6.2,6.5,28.8,18.8,28.8,18.9c2.8-1.7,6.5-5.4,9.3-7
	l-0.9-2C207.1,279.2,202.1,258,200.7,249.6z"/>
<radialGradient id="SVGID_6_" cx="317.1238" cy="318.8597" r="30.5593" gradientUnits="userSpaceOnUse">
	<stop  offset="0.1464" style="stop-color:#1B375F"/>
	<stop  offset="1" style="stop-color:#24497E"/>
</radialGradient>
<path class="st16" d="M319.2,347.5c-1.4,0-2.9-0.1-3.8-1.1c-0.2-0.2-0.4-0.5-0.5-0.8c-0.3-0.8-0.3-1.8-0.2-2.7
	c0.3-4.4,0.6-8.8,1-13.2l0-0.1l20.8-1.5c6.9,5,15.6,10,22.4,15c0.6,0.4,1.3,0.9,1.4,1.7c0.1,0.3,0,0.6-0.1,0.8
	c-0.2,0.5-0.7,1-1.2,1.2c-0.8,0.4-1.7,0.4-2.5,0.4"/>
<polygon class="st17" points="340.5,243 335.4,245.9 335.4,240 "/>
<polygon class="st11" points="311.8,236.8 311.6,247.9 313.8,247.9 313.5,236.8 "/>
<radialGradient id="SVGID_7_" cx="349.3318" cy="224.0403" r="138.3781" gradientUnits="userSpaceOnUse">
	<stop  offset="0" style="stop-color:#F6F8FA"/>
	<stop  offset="6.995250e-02" style="stop-color:#F3F5F8"/>
	<stop  offset="0.4968" style="stop-color:#E2E7EE"/>
	<stop  offset="0.8197" style="stop-color:#DCE2EA"/>
</radialGradient>
<path class="st18" d="M315.5,276.4c-8.8,8-17.1,16.3-25.1,25.1c-1.3,1.4-2.5,2.8-3.7,4.2c-9.4,10.8-18.2,22.3-29.7,30.9
	c-5.3,4-10.6,6.9-15.9,9.1c-11,4.6-21.7,5.7-30.9,5.5c-1,0.3-1.9,0.6-2.9,0.8c0,0-63.7-27.4-63.7-27.9c2.6-1.5,59.7-30.1,62.3-31.6
	c6.3-3.7,12.5-7.4,18.7-11.1c10.5-6.3,21-12.5,31.7-18.8c1.1-0.6,2.1-1.3,3.2-1.9c1.9-1.1,3.8-2.2,5.7-3.3
	c14.8-8.7,29.7-17.3,45.3-24.4c3.1-1.4,6.2-2.8,9.5-3.9c4.6-1.6,9.4-2.8,14.3-2.9c0.1,0,0.2,0,0.3,0c3.1,0,6.2,1,8.8,2.9
	c1,0.8,2,1.7,2.8,2.7c2.5,3.3,2.7,7.7,2.6,11.7c-0.2,4.9-0.5,9.9-0.9,14.8c-1,11-2.7,22-4.4,32.9c-0.9,5.8-1.9,11.6-2.7,17.4
	c0,0.2-0.1,0.4-0.1,0.5c-0.9,6.1-1.8,12.3-2.7,18.4l-0.4,0.7l-0.8,0.1l-20.8,1.5l-0.6,0l0-0.3c-0.2-7.9-0.2-16.4-0.2-24.9
	c0.1-9.5,0.3-19,0.7-27.9L315.5,276.4z"/>
<path class="st4" d="M315.5,276.4c2.5-2.3,4.5-5.6,7.1-7.7l-7.2,23.4l0.2-15.4"/>
<path class="st4" d="M132.7,340.9c0,0,9.4,18.9,67.1,5.2c0,0-2.8-0.6-4-3.4c-1.3-3.4-8.7-8.5-8.7-8.5l-44.4,8.5L132.7,340.9z"/>
<linearGradient id="SVGID_8_" gradientUnits="userSpaceOnUse" x1="162.5765" y1="253.3381" x2="107.2704" y2="363.95">
	<stop  offset="2.023010e-02" style="stop-color:#4891FB"/>
	<stop  offset="0.6531" style="stop-color:#227BFB"/>
	<stop  offset="0.7561" style="stop-color:#2479F4"/>
	<stop  offset="0.9044" style="stop-color:#2A75E1"/>
	<stop  offset="1" style="stop-color:#2F71D1"/>
</linearGradient>
<path class="st19" d="M89.9,256.8c-0.5-0.4-2.9-1.4-3.6-1.7c0.8-2.2,2.7-5.3,4.1-7c14.5-16.9,59.2-13.3,59.8-13
	c19.2,7.4,58.5,54.6,58.5,55.6c-0.3,8.9-0.5,36.2-16.4,40.7c-1.7,0.5-5,2-6.8,1.9c-1.5-0.1-2.2-1.6-2.5-1.7l0,0
	c3.8,5.6,6,12.3,6.2,19.1l0,0.1c-13.3,2.1-26.4,3.1-39.7,3.3c-7.5,0.2-18-1.7-22.2-5.4c0.1-0.8,1.1-2.8,1.5-4.6
	c1.3-5.2,2.4-13.4-2-23.8c-5.1-9.2-9.7-12.6-14.7-15.7c-5-3-13.6-4.6-13.6-4.6c2-2.1,5.6-9.2,6.2-14.9
	C105.5,272.7,99.4,262.5,89.9,256.8z"/>
<g class="st20">
	<defs>
		<path id="SVGID_9_" class="st20" d="M228.3,278.9c-6.9,4.1-8.9,5.4-15.8,9.4c-1.2,0.7-2.6,1.8-4,3c-0.3,9.4-0.8,35.7-16.4,40.1
			c-1.7,0.5-5,2-6.7,1.9c-1.5-0.1-2.2-1.6-2.5-1.7v0c3.8,5.6,6,12.3,6.2,19.1l0,0.1c-13.3,2.1-26.4,3.1-39.7,3.3
			c-7.6,0.2-18-1.7-22.2-5.4c0.1-0.8,1-2.8,1.5-4.6c1.3-5.2,2.4-13.4-2-23.8c-5.1-9.2-9.7-12.6-14.7-15.7c-5-3-13.5-4.6-13.5-4.6
			c2-2.1,5.6-9.2,6.2-14.8c0.6-12.5-5.5-22.7-15.1-28.3c-0.5-0.4-2.9-1.4-3.6-1.7c0.8-2.2,2.7-5.3,4.1-7
			c14.6-16.9,59.3-13.3,59.8-13c12.5,4.8,33.6,26.5,46.7,41.3h3.7v-29.6c0.2-0.1,0.4-0.2,0.7-0.3c2.1-1.2,3.5-5,3.3-7.4l-0.4-0.2
			c0.9-0.9-1.8-6.8-1.7-8.1c0-0.2,0.4,0,1,0.3c1.5,1,2.6,2.4,3.4,4C211.6,244.9,228.3,278.9,228.3,278.9z"/>
	</defs>
	<clipPath id="SVGID_10_">
		<use xlink:href="#SVGID_9_"  style="overflow:visible;"/>
	</clipPath>
	<path class="st21" d="M119.2,226.5c-3.1,11.4-1,24,5.5,33.8c6.5,9.8,17.4,16.5,29.1,18c8.6,1.1,17.7-0.7,24.7-5.8
		s11.6-13.7,10.9-22.4"/>
	<path class="st21" d="M144.6,230c-1.3,1.7-1.5,4.1-0.9,6.2c0.6,2.1,1.9,3.9,3.4,5.4c6.3,6.5,16.7,8.4,24.9,4.6"/>
	<path class="st21" d="M124.2,295.3c30.9-2.3,62.9,7.7,86.2,28.2"/>
	<path class="st21" d="M95,298.8c8.6-3.1,17.6-5,26.7-5.9"/>
	<path class="st21" d="M112.7,329c28.2-7.5,60,0.4,81.4,20.2"/>
	<path class="st21" d="M203.2,277.3c4.5-1.2,8.6-4,11.4-7.8c2.7-3.8,4.1-8.6,3.7-13.2"/>
	<path class="st21" d="M109.6,233.7c2,6.6,1.8,13.8-0.5,20.3s-6.6,12.2-12.3,16.2"/>
</g>
<path class="st22" d="M117.4,240.9c0,0,8.7,13,22.5,6.9c12.8-5.6-5.5-11.9-5.5-11.9L117.4,240.9z"/>
<g>
	<g>
		<linearGradient id="SVGID_11_" gradientUnits="userSpaceOnUse" x1="116.3725" y1="221.9748" x2="175.8834" y2="221.5727">
			<stop  offset="0.1718" style="stop-color:#FFD672"/>
			<stop  offset="1" style="stop-color:#F3AD5F"/>
		</linearGradient>
		<path class="st23" d="M165.9,208.6c-0.2,1.3-1.3,2.2-2.2,3.2c-2.2,2.9-2,6.9-3.1,10.3c-1.7,5.3-7.1,9.2-12.6,9.2
			c-1.3,0-2.6-0.2-3.8-0.6c-0.1,0-0.2-0.1-0.2-0.1v0c0,0,0,0,0,0c0,0.1-0.1,0.3-0.1,0.4c-0.4,1.6-0.7,3.2-0.9,4.8
			c-0.1,0.6-0.1,1.2-0.2,1.8c-0.1,0.7-0.1,1.4-0.1,2.2c0,0.5-0.1,1.1-0.1,1.7c0,1.8-3.8,4.3-9.7,5.5c-0.8,0.1-1.5,0.2-2.3,0.2
			c-9.3,0.1-14-7.5-14-7.5c3.4-8.1,4.4-10.5,5.2-18.5c1.1,0.1,2.9-0.4,3.7-1.3c2.4-2.8,3.4-6.4,3.9-10c0.1-0.7,0-1.4-0.2-2.1
			l-2.7-1.7c-0.4-1.9-1.2-1.4,0.1-2.8l2.5-4.5c-0.3-0.3,4.5-1.9,4.5-2.3l3.2,2.1h0l16.9,2c-0.3,3.2,0.8,5.9,2.6,6.1
			c1.8,0.2,3.6-2.2,3.9-5.3l3.7,0.4v0c0,0.1,0,0.3,0.1,0.4l0.2,0.9c0.1,0.6,0.3,1.1,0.5,1.7C165.3,206,166.2,207.3,165.9,208.6z"/>
		
			<linearGradient id="SVGID_12_" gradientUnits="userSpaceOnUse" x1="1846.2224" y1="-577.9809" x2="1923.5947" y2="-578.5037" gradientTransform="matrix(-0.6551 0.7556 0.7556 0.6551 1800.099 -823.738)">
			<stop  offset="0.1718" style="stop-color:#FFD672"/>
			<stop  offset="1" style="stop-color:#F3AD5F"/>
		</linearGradient>
		<path class="st24" d="M136.9,198.6l16.9,2c0,0,0,0,0-0.1c0.4-3.2,2.2-5.6,4-5.4c1.8,0.2,3,3,2.6,6.2c0,0,0,0,0,0.1l3.7,0.4
			c-0.4-3.6,0.4-7.6-1.3-10.8l0-0.1c-0.3,0-0.7,0-1,0c-5,0.1-10.1-1-14.8-3.1l0,0c-2.5,1.2-5.6,1.9-8.8,2l0,0.2
			C139.1,192.8,138.6,196.1,136.9,198.6z"/>
	</g>
	<path class="st25" d="M154,207.7c-2.3-1.3-1.5-6.4-0.5-7.1c0.2,1,0,2.1,0.5,3.1c0.5,1,0.6,2.3,1.6,2.8c0.8,0.4,2.9-0.4,1.9,0.6
		C156.6,207.8,155.6,208.5,154,207.7z"/>
	<path class="st26" d="M159.5,201.3C159.5,201.3,159.5,201.3,159.5,201.3c0.4-3.3-0.8-6-2.6-6.2c-1.8-0.2-3.6,2.2-4,5.4
		c0,0,0,0,0,0.1c-0.4,3.2,0.8,5.9,2.6,6.1C157.4,206.9,159.1,204.5,159.5,201.3z"/>
	<path class="st6" d="M153.8,200.6c-0.4,3.2,0.8,5.9,2.6,6.1c1.8,0.2,3.6-2.2,4-5.4c0,0,0,0,0-0.1c0.4-3.2-0.8-6-2.6-6.2
		C156,194.9,154.2,197.3,153.8,200.6C153.8,200.6,153.8,200.6,153.8,200.6z"/>
	<path class="st25" d="M150.3,190.6c-0.9-0.4-1.8-1-2.7-1.1c-1-0.1-2.1,0.4-3,0.7c-1.3,0.5-2.7,0.8-4.2,1c-0.9,0.1-1.9,0.1-2.7-0.3
		c-0.8-0.4-1.4-1.4-1-2.3c0.2-0.5,0.7-0.8,1.3-0.9c0.5-0.1,1.1-0.1,1.6-0.2c2.7-0.2,5.3-1.1,7.6-2.6c2.6,2.2,5.9,3.5,9.2,3.7
		c1,0,2,0,2.9,0.1c0.9,0.1,3.3,0.8,1.7,1.7c-1,0.6-2.3,0.9-3.5,1.1C155.1,192,152.6,191.6,150.3,190.6z"/>
	<path class="st25" d="M162.3,210.4c-0.2,0-0.5,0.1-0.7,0.2c-0.2,0.1-0.4,0.3-0.5,0.6c0,0.3,0.2,0.5,0.4,0.6
		c0.5,0.3,1.3,0.5,1.9,0.6c0.5-0.3,2.5-2.8,2.6-3.7c-0.4-0.2-1.4,0.9-1.8,1.1C163.5,210.1,162.9,210.3,162.3,210.4z"/>
	<path class="st25" d="M144,230.8c-0.1,0.1-0.1,0.3-0.1,0.4c-0.4,1.3-0.7,2.9-0.9,4.8c-0.1,0.6-0.1,1.2-0.2,1.8
		c-0.1,0.7-0.1,1.4-0.1,2.2c0,0.5-0.1,1.1-0.1,1.7c0,1.8-3.8,4.3-9.7,5.5c-0.8,0.1-1.5,0.2-2.3,0.2c5-5.7,8.8-14.2,4.6-23.8
		C138.6,229.1,143.5,230.5,144,230.8C144,230.8,144,230.8,144,230.8z"/>
	<path class="st25" d="M140.9,200.8c-1.7-0.1-3.5-0.3-4.6-1.6c5,0,10.1,0.5,15,1.5c0.7,0.1,1.6,1,0.4,1c-1,0-2.1-0.3-3.2-0.4
		C146,201.2,143.4,201,140.9,200.8z"/>
	<path class="st27" d="M160.3,201.4C160.3,201.4,160.3,201.3,160.3,201.4c0.4-3.3-0.8-6-2.6-6.2c-1.8-0.2-3.6,2.2-4,5.4
		c0,0,0,0,0,0.1c-0.4,3.2,0.8,5.9,2.6,6.1C158.2,206.9,160,204.5,160.3,201.4z"/>
	<g>
		<path class="st25" d="M160.4,203.1c0.2,0,0.5,0,0.7,0c1,0,2.2,0.2,3.2,0.2c0,0,0.1,0,0.1,0l-0.2-0.8c-0.1-0.1-0.3-0.1-0.4-0.1
			c-1-0.1-2.1-0.2-3.2-0.3C160.6,202.3,160.5,202.7,160.4,203.1z"/>
		<g>
			<path class="st26" d="M164.3,201.7C164.3,201.7,164.3,201.7,164.3,201.7c-0.1,3.2,1.2,5.9,3,6c1.8,0.1,3.4-2.4,3.6-5.7
				c0.2-3.2-1.2-5.9-3-6C166.1,195.9,164.5,198.4,164.3,201.7z"/>
			<path class="st6" d="M165,202.1c-0.1,3.2,1.2,5.8,3,5.9c1.8,0.1,3.4-2.4,3.6-5.7c0.2-3.2-1.2-5.9-3-6
				C166.8,196.3,165.2,198.8,165,202.1C165,202,165,202.1,165,202.1z"/>
			<path class="st28" d="M165,202C165,202,165,202.1,165,202c-0.1,3.2,1.2,5.9,3,6c1.8,0.1,3.4-2.4,3.6-5.7c0.2-3.2-1.2-5.9-3-6
				C166.8,196.3,165.2,198.8,165,202z"/>
		</g>
		<polyline class="st27" points="165,202.1 164.1,202 160.3,201.8 		"/>
	</g>
	<polyline class="st27" points="153.8,200.6 136.9,198.6 134.7,198.3 	"/>
	
		<radialGradient id="SVGID_13_" cx="1848.446" cy="-615.319" r="0" gradientTransform="matrix(-0.6551 0.7556 0.7556 0.6551 1800.099 -823.738)" gradientUnits="userSpaceOnUse">
		<stop  offset="0.1464" style="stop-color:#1B375F"/>
		<stop  offset="1" style="stop-color:#24497E"/>
	</radialGradient>
	<path class="st29" d="M124.3,169.8"/>
	<path class="st26" d="M121,177.3c-1.3,2-1.6,4.2-1,6c0.2,0.5,0.5,1.1,0.8,1.5c1,1.3,2.5,2.1,4.1,2.1c3.1,2.3,8,3.6,13.3,3.4
		c3.3-0.1,6.4-0.8,8.9-2c4.7,2.1,9.8,3.2,14.8,3.1c0.3,0,0.7,0,1,0c6.5-0.4,13.3-3.9,14.4-10.9c0.6-3.8-1.1-7.9-4.3-10
		c-2.9-1.8-6.6-1.9-9.7-3.3c-3.2-1.4-5.7-4.2-9-5.2c-2-0.6-4.1-0.6-6.1-0.2c-1.4,0.3-2.8,0.9-4.3,1.1c-1.5,0.2-2.9-0.3-4.5-0.3
		c-8.4-0.5-16,6.9-18.3,14.5C121.1,177.1,121.1,177.2,121,177.3z"/>
	<path class="st26" d="M123.1,222.3c1-0.1,1.7-0.7,2.3-1.2c1.2-1.1,2.1-2.5,2.7-3.9c0.7-1.4,1.1-2.9,1.5-4.5
		c0.2-0.8,0.3-1.5,0.4-2.3c0.1-0.3,0.1-0.9,0.1-1.3c0-0.4-0.1-0.8-0.2-1.2c-0.5-1.6-1.1-2.8-1-4.2c0-1.4,0.4-2.8,1.3-3.8
		c0.9-1,2.3-1.6,3.5-1.3c1.2,0.3,2.3,1.5,2.3,2.8l0,0c0,0.2,0.1,0.3,0.3,0.3c0.2,0,0.3-0.1,0.3-0.2c0.1-0.5,0.1-1-0.1-1.4
		c0,0,0,0,0.1,0c0.3-0.3,0.5-0.7,0.8-1c1.8-2.7,2.5-5.5,1.5-8.6c-3.4,0-10.7-1.6-13.7-3.9c-1.5,0-2.8-0.7-3.7-1.7
		c0-0.2-0.1-0.4-0.3-0.5c-0.3-0.1-0.6,0-0.7,0.3c-1.4,2.8-1.9,6-2.1,9.1c-0.1,3.1,0.2,6.2,0.6,9.2c0.3,3,0.6,6,0.4,9
		c-0.1,1.5-0.2,3-0.1,4.6c0,0.8,0.1,1.6,0.3,2.4c0.2,0.7,0.4,1.7,1,2.4C121.1,221.9,122.1,222.4,123.1,222.3z"/>
</g>
<path class="st22" d="M208.8,290.7c-4.7-7.1-8.2-40.1-8.1-41.2c-0.5,0.2-0.1,26.9-0.1,26.9s-50.9-31-35.9-10.8
	C177.8,283.3,208.8,290.7,208.8,290.7z"/>
<path class="st22" d="M167.8,269.7c0,0-11.6-19.6-17.1-21.3C151,249.2,167.8,269.7,167.8,269.7z"/>
<g>
	<polygon class="st8" points="215.7,217.2 210.1,201.2 207.1,217.5 214.5,224.3 	"/>
	<g>
		
			<linearGradient id="SVGID_14_" gradientUnits="userSpaceOnUse" x1="-480.9932" y1="1531.8274" x2="-428.9561" y2="1619.8903" gradientTransform="matrix(0.9864 0.1646 -0.1646 0.9864 895.2732 -1226.2086)">
			<stop  offset="0" style="stop-color:#9FEFCF"/>
			<stop  offset="0.6961" style="stop-color:#59E3AD"/>
		</linearGradient>
		<path class="st30" d="M178.3,283.4l-23.7-4l7-41.6l0.2-1.3l4.6-27.6l49.3,8.2l-2.9,17.5l-0.8,5c-3.7,1.3-7.8,3-10.8,5.1
			c-0.7,0.5-1.4,1.2-1.3,2c0.1,1.1,1.6,1.5,2.7,1.5c1.3,0,2.5-0.1,3.8-0.4l0,0.2c-3.4,1.6-6,2.7-9.4,4.2c-0.6,0.3-1.3,0.6-1.8,1.2
			c-0.5,0.5-0.6,1.4-0.2,2c0.5,0.6,1.4,0.6,2.2,0.6c1.8-0.2,3.6-0.3,5.4-0.6l0,0.1c-0.7,0.1-1.4,0.2-2,0.6c-0.6,0.4-1.1,1.1-0.8,1.8
			c0.3,1,1.6,1.2,2.6,1.2c2.2,0,4.4,0.1,6.5-0.5l-0.4,2.7l-4.4,26.5l-22.6-3.8L178.3,283.4z"/>
		<g>
			<line class="st31" x1="172.7" y1="224.8" x2="206.8" y2="230.5"/>
			<line class="st31" x1="171.4" y1="232.5" x2="205.5" y2="238.2"/>
			<line class="st31" x1="170.1" y1="240.2" x2="200.2" y2="245.2"/>
			<line class="st31" x1="168.9" y1="247.8" x2="196" y2="252.4"/>
			<line class="st31" x1="167.6" y1="255.5" x2="201.7" y2="261.2"/>
		</g>
	</g>
</g>
<path class="st32" d="M184.3,332.1c2.3,1.1,4.5,2.5,6.2,4.4c3.4,3.7,5.1,10,1.8,13.7c-0.3,0-0.5,0.1-0.8,0.1
	c-0.7,0.1-1.4,0.2-2.2,0.3l0-0.1c-0.2-6.8-2.4-13.5-6.2-19.1l0,0C183.6,331.7,184,331.9,184.3,332.1z"/>
<path class="st22" d="M183.2,331.6c-11.6-5.4-31.5-6-48-20.6s-19.9-53.3-22.2-53.3c-0.8,0.4,9.2,39.2,15.7,58.2"/>
<g>
	
		<linearGradient id="SVGID_15_" gradientUnits="userSpaceOnUse" x1="-447.2355" y1="1569.7036" x2="-427.3765" y2="1569.7036" gradientTransform="matrix(0.9864 0.1646 -0.1646 0.9864 895.2732 -1226.2086)">
		<stop  offset="0.1718" style="stop-color:#FFD672"/>
		<stop  offset="1" style="stop-color:#F3AD5F"/>
	</linearGradient>
	<path class="st33" d="M215.7,246c0.3,0.8,0.4,1.7,0.2,2.4c-0.3,1.2-1.2,2.2-2.2,2.9c-3.2,2.4-7.1,3.4-11.1,4
		c-1.8,0.3-3.6,0.4-5.4,0.6c-0.8,0.1-1.7,0.1-2.2-0.6c-0.4-0.6-0.3-1.4,0.2-2c0.4-0.5,1.1-0.9,1.8-1.2c3.4-1.6,6-2.7,9.4-4.2l0-0.2
		c2.6-0.6,5.2-1.7,7.5-3.1c0.2-0.1,0.3-0.2,0.5-0.3l0.1,0.2C215,244.7,215.5,245.3,215.7,246z"/>
	
		<linearGradient id="SVGID_16_" gradientUnits="userSpaceOnUse" x1="-434.0961" y1="1553.4231" x2="-432.126" y2="1555.8036" gradientTransform="matrix(0.9864 0.1646 -0.1646 0.9864 895.2732 -1226.2086)">
		<stop  offset="0.1718" style="stop-color:#FFD672"/>
		<stop  offset="1" style="stop-color:#F3AD5F"/>
	</linearGradient>
	<path class="st34" d="M217.5,239.3c0,0-2.1-3.1-4.8-4.6l-1.2,6.1L217.5,239.3z"/>
	
		<linearGradient id="SVGID_17_" gradientUnits="userSpaceOnUse" x1="-443.5445" y1="1562.373" x2="-427.1775" y2="1562.373" gradientTransform="matrix(0.9864 0.1646 -0.1646 0.9864 895.2732 -1226.2086)">
		<stop  offset="0.1718" style="stop-color:#FFD672"/>
		<stop  offset="1" style="stop-color:#F3AD5F"/>
	</linearGradient>
	<path class="st35" d="M215.8,238.5c3.5-0.4,1.2,4-1.4,5.9c-0.2,0.1-0.3,0.2-0.5,0.3c-2.3,1.4-4.9,2.5-7.5,3.1
		c-1.2,0.3-2.5,0.4-3.8,0.4c-1.1,0-2.5-0.4-2.7-1.5c-0.1-0.8,0.6-1.5,1.3-2c3-2,7.1-3.8,10.8-5.1c0.8-0.3,1.5-0.5,2.2-0.8
		C214.8,238.7,215.3,238.6,215.8,238.5z"/>
	
		<linearGradient id="SVGID_18_" gradientUnits="userSpaceOnUse" x1="-441.9342" y1="1574.2195" x2="-428.6932" y2="1574.2195" gradientTransform="matrix(0.9864 0.1646 -0.1646 0.9864 895.2732 -1226.2086)">
		<stop  offset="0.1718" style="stop-color:#FFD672"/>
		<stop  offset="1" style="stop-color:#F3AD5F"/>
	</linearGradient>
	<path class="st36" d="M214,251.5c-0.2,2.4-2.2,5.9-4.5,6.7c-0.2,0.1-0.5,0.2-0.7,0.2c-2.1,0.6-4.3,0.6-6.5,0.5
		c-1,0-2.3-0.2-2.6-1.2c-0.2-0.7,0.2-1.4,0.8-1.8c0.6-0.4,1.3-0.5,2-0.6l0-0.1c4-0.6,7.9-1.6,11.1-4L214,251.5z"/>
	<path class="st25" d="M213.7,251.3c-3.2,2.4-7.1,3.4-11.1,4C202.6,255.3,211,256.3,213.7,251.3z"/>
	<path class="st25" d="M214.3,244.4c-0.2,0.1-0.3,0.2-0.5,0.3c-2.3,1.4-6.2,3.1-7.5,3.1c0,0,6.3,0.6,8.1-3.2"/>
</g>
<path class="st4" d="M241.9,345.5c0,0,46.2-1.9,62-45.8l-10.5-1.8c-10,11.7-21.8,27-34.4,36.9C253.2,339.3,247.7,343.1,241.9,345.5"
	/>
<path class="st4" d="M340.8,306.1l-2.9,21c0,0-0.2,0.7-1.5,0.9c0,0,23.6,14.9,24,16.6l19.8,0.3c0,0,3.7-1-5.4-3.2
	C365.8,339.6,343.6,329.9,340.8,306.1z"/>
<path class="st4" d="M208.4,290.5c0,0,3.7,5.3,2.9,20c0,0,23.4,1.6,23.4,4.9c0,3.3-0.4,5.1-0.4,5.1s1.7,3.8,1.1,5.8
	c0,0,1.1,1.8,0.4,3.2c-0.7,1.4-1.9,8.2-4.3,10.1c0,0,1.6,7.5-3.9,7.7c-5.4,0.2-5.7,3.3-10.2,3.4c-4.4,0.1-12.2-4.3-12.2-4.3
	l1.1-34.8C206.3,311.5,208.8,302.6,208.4,290.5z"/>
<path class="st5" d="M217,349.7c-21.1,9.4-47.6,14.9-76.3,14.9c-69,0-125-17.2-125-64.2c0-27.5,15.1-47,39.2-60.1"/>
<path class="st37" d="M231.8,320.7c9.4-8.3,61-47.2,79.8-62.3c7.2-5.8,22.2-16,21.5-1.2c-1.2,23.1-3.3,45.4-5,68.5"/>
<g>
	<g>
		<path class="st6" d="M223.2,349H213c-3.7,0-6.8-2.8-7.1-6.5l-2.5-29.8h29.3l-2.5,29.8C230,346.2,226.9,349,223.2,349z"/>
		
			<radialGradient id="SVGID_19_" cx="221.5297" cy="311.9472" r="16.0365" gradientTransform="matrix(1.0016 0 0 1 -5.9586 0)" gradientUnits="userSpaceOnUse">
			<stop  offset="0" style="stop-color:#F6F8FA"/>
			<stop  offset="6.995250e-02" style="stop-color:#F3F5F8"/>
			<stop  offset="0.4968" style="stop-color:#E2E7EE"/>
			<stop  offset="0.8197" style="stop-color:#DCE2EA"/>
		</radialGradient>
		<path class="st38" d="M218.1,310.9c8.4,0,14.7,0.9,14.7,1.8c0,0.9-6.3,1.6-14.7,1.6c-8.4,0-14.6-0.8-14.6-1.7
			C203.4,311.7,209.7,310.9,218.1,310.9z"/>
		<path class="st4" d="M219.9,349c0,0,8.9-0.9,10.6-9.2l0.2-2.5L219.9,349z"/>
		<linearGradient id="SVGID_20_" gradientUnits="userSpaceOnUse" x1="184.3439" y1="334.883" x2="236.0303" y2="334.883">
			<stop  offset="0.1718" style="stop-color:#FFD672"/>
			<stop  offset="1" style="stop-color:#F3AD5F"/>
		</linearGradient>
		<path class="st39" d="M233.8,320c0.1,0,0.1,0.1,0.2,0.1c1.4,0.9,0.9,3.1,0,4.5l0.9,0c0.8,0.3,1.2,1.2,1.1,2.1
			c-0.1,0.9-0.6,1.6-1.1,2.3c-0.5,0.6-0.9,1.3-1.4,1.9l0.1,0.1c-1.7,4.4-4.2,9.4-7.5,12.8c-3.3,3.4-7.2,6.3-11.7,7.8
			c-0.3,0.1-0.6,0.2-0.9,0.3c-7,1.9-14.9,0.1-22-1.4l0,0c0.3,0,0.5-0.1,0.8-0.1c3.3-3.8,1.6-10-1.8-13.7c-1.7-1.9-3.9-3.3-6.2-4.4
			c2.6-0.2,5-0.8,7.1-1.8c3.2-1.5,5.6-3.8,7-6.5c1.2-2.4,2.2-5.1,4.6-6.3l0.7-0.4l0.4,4c0,7.8,4.7,9.4,7.3,10
			c2.6,0.5,8-0.6,11.1-2.5c3.1-1.9,5.2-4.1,7.9-6.6C231.5,321.2,232.6,319.6,233.8,320z"/>
	</g>
	<path class="st25" d="M221.6,338.1c5.1-3.5,9.3-8.1,12.4-13.4C234,324.6,232.4,333.8,221.6,338.1z"/>
	<path class="st25" d="M223.5,342.2c3.6-3.5,7-7.2,10-11.3C234,330.3,227.6,342.2,223.5,342.2z"/>
	<g>
		<defs>
			<polygon id="SVGID_21_" points="203.4,312.9 204,319.1 232.4,317.2 232.7,312.9 			"/>
		</defs>
		<clipPath id="SVGID_22_">
			<use xlink:href="#SVGID_21_"  style="overflow:visible;"/>
		</clipPath>
		<path class="st40" d="M202.8,314.4c7.5,4.4,27.8,3.2,29.8,0.3"/>
	</g>
</g>
<path class="st41" d="M211.7,302.9c0.6-2.9,1.8-5.8,1.8-8.8c-0.1-2.8-1.3-5.5-2.6-8c-1.3-2.5-2.5-5.1-2.7-8c-0.2-2.8,1.1-5.9,3.7-7
	c2.8-1.2,6.2,0.4,8,2.9c1.8,2.5,2.4,5.6,3,8.6c0.7,3.8,1.4,7.6,2.1,11.4c0.6,3,1.1,6.1,0.8,9.1c-0.3,3.1-1.6,6.2-4.1,8
	C215.3,315.7,210.6,309,211.7,302.9z"/>
<path class="st41" d="M230.9,298.1c0.4,1.7,1.3,3.6,3,4.2c1.2,0.4,2.6,0,3.6-0.8c1-0.8,1.7-1.9,2.3-3c1.1-2.2,1.9-4.7,1.6-7.1
	c-0.3-2.4-1.9-4.8-4.3-5.6C229.8,283.6,229.8,294,230.9,298.1z"/>
<rect x="132.9" y="97.8" class="st4" width="317.6" height="3.8"/>
<polygon class="st4" points="463.6,260.8 458.7,260.8 458.6,207.7 463.5,208.2 "/>
<polygon class="st11" points="529.5,29.6 511.7,39.9 511.7,19.2 "/>
<polygon class="st11" points="59.9,102.4 42.1,112.7 42.1,92 "/>
<path class="st5" d="M44.3,246.4c-0.7-2.7-1-5.6-1-8.5c0-20,16.2-36.2,36.2-36.2c5.8,0,11.2,1.3,16,3.7"/>
<path class="st5" d="M76.1,253.3c15.9,0,28.8,12.9,28.8,28.8c0,6.8-2.3,13-6.2,17.9"/>
<path class="st5" d="M87.5,300.7c2.3-0.5,4.7-0.7,7.1-0.7c19.6,0,35.4,15.9,35.4,35.4c0,5.8-1.4,11.2-3.8,16"/>
<path class="st5" d="M417,298.7c0-21,21.1-38,47.1-38c1.3,0,2.6,0,4,0.1"/>
<path class="st42" d="M47.4,136.4c-1.3,36.3,11.2,72.9,34.3,100.8"/>
<path class="st42" d="M474.4,204.1c6.8-15.9,13.7-31.9,20.5-47.8c12.5-29.1,28.8-59.7,25.6-91.2"/>
<path class="st37" d="M315.4,324.8c7.3,1.6,15.4,1.6,22.7,0.1"/>
<path class="st43" d="M16.7,310.9"/>
<path class="st44" d="M338.1,233.5c0-0.1,0-0.2,0-0.3"/>
<path class="st45" d="M272.6,258c19.1-12.9,40.3-22.8,62.5-29"/>
<path class="st46" d="M233.1,288.2c-1.8,3.2-1.7,7.3,0.2,10.4"/>
<g class="st47">
	<path class="st44" d="M91.3,251.7c5-6.2,12.4-10.5,20.3-11.7"/>
	<path class="st44" d="M215.7,274.3c2.3,4.6,4.3,9.4,5.4,14.4c1.1,5,1.2,10.4-0.4,15.2"/>
	<path class="st44" d="M179.2,332.5c2.4,2,4,4.9,4.5,7.9"/>
	<line class="st44" x1="443.7" y1="73.2" x2="443.7" y2="92.4"/>
</g>
<path class="st5" d="M221.4,256.4c2.6,5.3,5.3,10.6,7.9,15.8"/>
<path class="st5" d="M226.4,258.9c-0.2-0.3-0.4-0.6-0.6-0.9c1.4,2.5,2.8,4.9,4.2,7.4"/>
<line class="st37" x1="85.1" y1="91" x2="85.1" y2="63"/>
<line class="st37" x1="88.9" y1="97.3" x2="88.9" y2="84.2"/>
<line class="st37" x1="11.2" y1="122.8" x2="11.2" y2="147.6"/>
<line class="st37" x1="6.6" y1="127" x2="6.6" y2="132.7"/>
<line class="st37" x1="477.9" y1="40.5" x2="477.9" y2="70.3"/>
<line class="st37" x1="473.7" y1="33.3" x2="473.7" y2="49.9"/>
<path class="st37" d="M417,320.9c0,0,8.1,18.5,5.1,24.1"/>
<path class="st6" d="M158,219.6c-0.1,0-0.1-0.1-0.2-0.1c-0.3-0.1-0.6-0.2-0.9-0.3c-0.7-0.2-1.4-0.4-2.2-0.4c-0.3,0-0.6,0-0.7,0.3
	c-0.1,0.1,0,0.3,0,0.5c0.2,0.6,0.6,1.2,1.1,1.6c0.5,0.4,1.2,0.6,1.8,0.4c0.5-0.1,1-0.5,1.2-1c0.1-0.2,0.1-0.5,0.1-0.7
	C158.2,219.7,158.1,219.7,158,219.6z"/>
</svg>
