<svg id="Layer_1" data-name="Layer 1" xmlns="http://www.w3.org/2000/svg" viewBox="0 0 448.23 156.82"><defs><style>.cls-1{fill:#316fea;}.cls-2{fill:#fff;}</style></defs><title>drm</title><path class="cls-1" d="M143.34,60.56V51.12a11.8,11.8,0,0,0-11.79-11.79V29.89a11.82,11.82,0,0,0-11.8-11.8H49.81A11.82,11.82,0,0,0,38,29.89v9.44A11.8,11.8,0,0,0,26.22,51.12v9.44a11.81,11.81,0,0,0-11.8,11.79v75.49a11.82,11.82,0,0,0,11.8,11.8H143.34a11.82,11.82,0,0,0,11.8-11.8V72.35A11.81,11.81,0,0,0,143.34,60.56ZM42.73,29.89a7.08,7.08,0,0,1,7.08-7.08h69.94a7.08,7.08,0,0,1,7.08,7.08v9.44H42.73ZM30.94,51.12A7.08,7.08,0,0,1,38,44h93.54a7.07,7.07,0,0,1,7.07,7.08v9.44H30.94Zm119.48,96.72a7.08,7.08,0,0,1-7.08,7.08H26.22a7.08,7.08,0,0,1-7.08-7.08V72.35a7.07,7.07,0,0,1,7.08-7.07H143.34a7.07,7.07,0,0,1,7.08,7.07Z" transform="translate(-14.42 -17.51)"/><path class="cls-1" d="M102.65,108.89l-38.27-24a4.61,4.61,0,0,0-4.68-.13,4.19,4.19,0,0,0-2.22,3.69v48.07a4.19,4.19,0,0,0,2.22,3.7,4.61,4.61,0,0,0,4.68-.13l38.27-24a4.17,4.17,0,0,0,0-7.13Zm-40.45,27V89.05l37.27,23.41Z" transform="translate(-14.42 -17.51)"/><path class="cls-1" d="M42.73,70H30.94a7.08,7.08,0,0,0-7.08,7.08v11.8a2.36,2.36,0,0,0,4.72,0V77.07a2.36,2.36,0,0,1,2.36-2.36H42.73a2.36,2.36,0,1,0,0-4.72Z" transform="translate(-14.42 -17.51)"/><path class="cls-1" d="M138.62,70H126.83a2.36,2.36,0,0,0,0,4.72h11.79A2.36,2.36,0,0,1,141,77.07v11.8a2.36,2.36,0,1,0,4.72,0V77.07A7.08,7.08,0,0,0,138.62,70Z" transform="translate(-14.42 -17.51)"/><rect class="cls-2" x="107.96" width="43.88" height="142.13"/><g id="_15_Encryption" data-name=" 15 Encryption"><path class="cls-1" d="M129.65,49.83a2.44,2.44,0,0,0,2.44-2.44V32.74a2.45,2.45,0,0,0-4.89,0V47.39A2.45,2.45,0,0,0,129.65,49.83Z" transform="translate(-14.42 -17.51)"/><path class="cls-1" d="M144.29,49.83a7.33,7.33,0,0,0,7.33-7.33V37.62a7.33,7.33,0,0,0-14.65,0V42.5A7.33,7.33,0,0,0,144.29,49.83Zm-2.44-12.21a2.44,2.44,0,0,1,4.88,0V42.5a2.44,2.44,0,1,1-4.88,0Z" transform="translate(-14.42 -17.51)"/><path class="cls-1" d="M141.85,66.92V62a7.33,7.33,0,0,0-14.65,0v4.89a7.33,7.33,0,0,0,14.65,0Zm-4.88,0a2.44,2.44,0,0,1-4.88,0V62A2.44,2.44,0,0,1,137,62Z" transform="translate(-14.42 -17.51)"/><path class="cls-1" d="M154.06,54.71A7.33,7.33,0,0,0,146.73,62v4.89a7.33,7.33,0,0,0,14.65,0V62A7.32,7.32,0,0,0,154.06,54.71Zm2.44,12.21a2.44,2.44,0,1,1-4.88,0V62a2.44,2.44,0,0,1,4.88,0Z" transform="translate(-14.42 -17.51)"/><path class="cls-1" d="M158.94,30.3a2.44,2.44,0,0,0-2.44,2.44V47.39a2.44,2.44,0,0,0,4.88,0V32.74A2.44,2.44,0,0,0,158.94,30.3Z" transform="translate(-14.42 -17.51)"/><path class="cls-1" d="M168.7,54.71a2.44,2.44,0,0,0-2.44,2.44V71.8a2.44,2.44,0,1,0,4.88,0V57.15A2.44,2.44,0,0,0,168.7,54.71Z" transform="translate(-14.42 -17.51)"/><path class="cls-1" d="M193.11,54.71A7.32,7.32,0,0,0,185.79,62v4.89a7.33,7.33,0,0,0,14.65,0V62A7.33,7.33,0,0,0,193.11,54.71Zm2.45,12.21a2.45,2.45,0,0,1-4.89,0V62a2.45,2.45,0,0,1,4.89,0Z" transform="translate(-14.42 -17.51)"/><path class="cls-1" d="M210.2,71.8V57.15a2.44,2.44,0,1,0-4.88,0V71.8a2.44,2.44,0,1,0,4.88,0Z" transform="translate(-14.42 -17.51)"/><path class="cls-1" d="M217.53,76.68A2.44,2.44,0,0,0,220,74.24V59.59a2.45,2.45,0,0,0-4.89,0V74.24A2.45,2.45,0,0,0,217.53,76.68Z" transform="translate(-14.42 -17.51)"/><path class="cls-1" d="M180.91,71.8V57.15a2.44,2.44,0,0,0-4.88,0V71.8a2.44,2.44,0,0,0,4.88,0Z" transform="translate(-14.42 -17.51)"/><path class="cls-1" d="M205.32,86.44v4.89a7.33,7.33,0,0,0,14.65,0V86.44a7.33,7.33,0,0,0-14.65,0Zm4.88,0a2.44,2.44,0,0,1,4.88,0v4.89a2.44,2.44,0,1,1-4.88,0Z" transform="translate(-14.42 -17.51)"/><path class="cls-1" d="M190.67,91.33V86.44a7.32,7.32,0,1,0-14.64,0v4.89a7.32,7.32,0,1,0,14.64,0Zm-9.76,0V86.44a2.44,2.44,0,1,1,4.88,0v4.89a2.44,2.44,0,1,1-4.88,0Z" transform="translate(-14.42 -17.51)"/><path class="cls-1" d="M198,79.12a2.44,2.44,0,0,0-2.44,2.44V96.21a2.44,2.44,0,1,0,4.88,0V81.56A2.44,2.44,0,0,0,198,79.12Z" transform="translate(-14.42 -17.51)"/><path class="cls-1" d="M154.06,79.12a7.33,7.33,0,0,0-7.33,7.32v4.89a7.33,7.33,0,0,0,14.65,0V86.44A7.32,7.32,0,0,0,154.06,79.12Zm2.44,12.21a2.44,2.44,0,0,1-4.88,0V86.44a2.44,2.44,0,0,1,4.88,0Z" transform="translate(-14.42 -17.51)"/><path class="cls-1" d="M137,81.56V96.21a2.44,2.44,0,0,0,4.88,0V81.56a2.44,2.44,0,0,0-4.88,0Z" transform="translate(-14.42 -17.51)"/><path class="cls-1" d="M129.65,79.12a2.45,2.45,0,0,0-2.45,2.44V96.21a2.45,2.45,0,0,0,4.89,0V81.56A2.44,2.44,0,0,0,129.65,79.12Z" transform="translate(-14.42 -17.51)"/><path class="cls-1" d="M168.7,79.12a2.44,2.44,0,0,0-2.44,2.44V96.21a2.44,2.44,0,1,0,4.88,0V81.56A2.44,2.44,0,0,0,168.7,79.12Z" transform="translate(-14.42 -17.51)"/><path class="cls-1" d="M220,115.74v-4.88a7.33,7.33,0,1,0-14.65,0v4.88a7.33,7.33,0,0,0,14.65,0Zm-9.77,0v-4.88a2.44,2.44,0,1,1,4.88,0v4.88a2.44,2.44,0,0,1-4.88,0Z" transform="translate(-14.42 -17.51)"/><path class="cls-1" d="M193.11,103.53a7.33,7.33,0,0,0-7.32,7.33v4.88a7.33,7.33,0,0,0,14.65,0v-4.88A7.33,7.33,0,0,0,193.11,103.53Zm2.45,12.21a2.45,2.45,0,0,1-4.89,0v-4.88a2.45,2.45,0,1,1,4.89,0Z" transform="translate(-14.42 -17.51)"/><path class="cls-1" d="M176,106v14.65a2.44,2.44,0,1,0,4.88,0V106a2.44,2.44,0,0,0-4.88,0Z" transform="translate(-14.42 -17.51)"/><path class="cls-1" d="M151.62,115.74v-4.88a7.33,7.33,0,1,0-14.65,0v4.88a7.33,7.33,0,0,0,14.65,0Zm-4.89,0a2.44,2.44,0,0,1-4.88,0v-4.88a2.44,2.44,0,1,1,4.88,0Z" transform="translate(-14.42 -17.51)"/><path class="cls-1" d="M158.94,103.53A2.44,2.44,0,0,0,156.5,106v14.65a2.44,2.44,0,0,0,4.88,0V106A2.44,2.44,0,0,0,158.94,103.53Z" transform="translate(-14.42 -17.51)"/><path class="cls-1" d="M129.65,103.53A2.45,2.45,0,0,0,127.2,106v14.65a2.45,2.45,0,0,0,4.89,0V106A2.45,2.45,0,0,0,129.65,103.53Z" transform="translate(-14.42 -17.51)"/><path class="cls-1" d="M168.7,103.53a2.45,2.45,0,0,0-2.44,2.44v14.65a2.44,2.44,0,0,0,4.88,0V106A2.44,2.44,0,0,0,168.7,103.53Z" transform="translate(-14.42 -17.51)"/><path class="cls-1" d="M183.35,127.94a7.33,7.33,0,0,0-7.32,7.33v4.88a7.32,7.32,0,0,0,14.64,0v-4.88A7.33,7.33,0,0,0,183.35,127.94Zm2.44,12.21a2.44,2.44,0,0,1-4.88,0v-4.88a2.44,2.44,0,0,1,4.88,0Z" transform="translate(-14.42 -17.51)"/><path class="cls-1" d="M198,127.94a2.44,2.44,0,0,0-2.44,2.44V145a2.44,2.44,0,0,0,4.88,0V130.38A2.45,2.45,0,0,0,198,127.94Z" transform="translate(-14.42 -17.51)"/><path class="cls-1" d="M154.06,127.94a7.33,7.33,0,0,0-7.33,7.33v4.88a7.33,7.33,0,0,0,14.65,0v-4.88A7.33,7.33,0,0,0,154.06,127.94Zm2.44,12.21a2.44,2.44,0,1,1-4.88,0v-4.88a2.44,2.44,0,0,1,4.88,0Z" transform="translate(-14.42 -17.51)"/><path class="cls-1" d="M139.41,127.94a2.44,2.44,0,0,0-2.44,2.44V145a2.44,2.44,0,0,0,4.88,0V130.38A2.44,2.44,0,0,0,139.41,127.94Z" transform="translate(-14.42 -17.51)"/><path class="cls-1" d="M129.65,127.94a2.45,2.45,0,0,0-2.45,2.44V145a2.45,2.45,0,0,0,4.89,0V130.38A2.45,2.45,0,0,0,129.65,127.94Z" transform="translate(-14.42 -17.51)"/><path class="cls-1" d="M168.7,127.94a2.45,2.45,0,0,0-2.44,2.44V145a2.44,2.44,0,1,0,4.88,0V130.38A2.44,2.44,0,0,0,168.7,127.94Z" transform="translate(-14.42 -17.51)"/><path class="cls-1" d="M180.91,42.5V37.62a7.33,7.33,0,0,0-14.65,0V42.5a7.33,7.33,0,1,0,14.65,0Zm-4.88,0a2.45,2.45,0,1,1-4.89,0V37.62a2.45,2.45,0,0,1,4.89,0Z" transform="translate(-14.42 -17.51)"/><path class="cls-1" d="M188.23,49.83a2.44,2.44,0,0,0,2.44-2.44V32.74a2.44,2.44,0,1,0-4.88,0V47.39A2.44,2.44,0,0,0,188.23,49.83Z" transform="translate(-14.42 -17.51)"/><path class="cls-1" d="M210.2,42.5V37.62a7.32,7.32,0,0,0-14.64,0V42.5a7.32,7.32,0,1,0,14.64,0Zm-4.88,0a2.44,2.44,0,1,1-4.88,0V37.62a2.44,2.44,0,0,1,4.88,0Z" transform="translate(-14.42 -17.51)"/><path class="cls-1" d="M217.53,49.83A2.44,2.44,0,0,0,220,47.39V32.74a2.45,2.45,0,0,0-4.89,0V47.39A2.45,2.45,0,0,0,217.53,49.83Z" transform="translate(-14.42 -17.51)"/><path class="cls-1" d="M202.88,164.56H190.67a2.44,2.44,0,1,0,0,4.88h12.21a2.44,2.44,0,0,0,0-4.88Z" transform="translate(-14.42 -17.51)"/><path class="cls-1" d="M179.2,165.27a2.4,2.4,0,0,0-.73,1.73,2.52,2.52,0,0,0,.71,1.73,2.46,2.46,0,0,0,3.46,0,2.52,2.52,0,0,0,.71-1.73,2.44,2.44,0,0,0-2.45-2.43A2.4,2.4,0,0,0,179.2,165.27Z" transform="translate(-14.42 -17.51)"/><path class="cls-1" d="M169.41,165.27a2.48,2.48,0,0,0-.71,1.73,2.44,2.44,0,0,0,.71,1.73,2.56,2.56,0,0,0,1.73.71,2.42,2.42,0,0,0,2.45-2.39V167a2.44,2.44,0,0,0-2.43-2.45A2.39,2.39,0,0,0,169.41,165.27Z" transform="translate(-14.42 -17.51)"/><path class="cls-1" d="M237.05,130.38a2.45,2.45,0,0,0,2.45-2.44V108.41a2.45,2.45,0,0,0-4.89,0v19.53A2.44,2.44,0,0,0,237.05,130.38Z" transform="translate(-14.42 -17.51)"/><path class="cls-1" d="M237.05,101.09a2.43,2.43,0,0,0,1.71-.71,2.41,2.41,0,0,0,.74-1.73,2.48,2.48,0,0,0-.71-1.73,2.44,2.44,0,1,0-3.44,3.46A2.41,2.41,0,0,0,237.05,101.09Z" transform="translate(-14.42 -17.51)"/><path class="cls-1" d="M237.05,91.33a2.48,2.48,0,0,0,2.45-2.44,2.52,2.52,0,0,0-.71-1.74,2.45,2.45,0,0,0-3.47,3.47h0A2.56,2.56,0,0,0,237.05,91.33Z" transform="translate(-14.42 -17.51)"/><path class="cls-1" d="M241.94,149.91H239.5v-2.44a12.23,12.23,0,0,0-9.77-12V25.42a7.33,7.33,0,0,0-7.32-7.33H124.76a7.33,7.33,0,0,0-7.32,7.33V152.35a7.33,7.33,0,0,0,7.32,7.33H210.2v12.2a2.44,2.44,0,0,0,2.44,2.44h29.3a2.44,2.44,0,0,0,2.44-2.44V152.35A2.45,2.45,0,0,0,241.94,149.91Zm-7.33-2.44v2.44H220v-2.44a7.32,7.32,0,0,1,14.64,0ZM124.76,154.8a2.45,2.45,0,0,1-2.44-2.45V25.42A2.44,2.44,0,0,1,124.76,23h97.65a2.44,2.44,0,0,1,2.44,2.44V135.51h0s-.08,0-.13,0a12.22,12.22,0,0,0-2,.63,7.18,7.18,0,0,0-.68.34,10.72,10.72,0,0,0-1.29.7,7,7,0,0,0-.7.51,12.16,12.16,0,0,0-1,.86c-.22.2-.42.42-.63.64a12.24,12.24,0,0,0-.85,1c-.17.24-.35.48-.51.73a11,11,0,0,0-.65,1.22,8,8,0,0,0-.37.78,12.92,12.92,0,0,0-.45,1.46c-.06.25-.15.47-.19.72a11.91,11.91,0,0,0-.25,2.3v2.44h-2.44a2.44,2.44,0,0,0-2.44,2.44v2.45Zm90.32,14.64v-4.88h2.45a2.44,2.44,0,0,0,0-4.88h-2.45V154.8H239.5v4.88h-2.45a2.44,2.44,0,0,0,0,4.88h2.45v4.88Z" transform="translate(-14.42 -17.51)"/></g><g id="_15_Encryption-2" data-name=" 15 Encryption"><path class="cls-1" d="M261.9,45.12V173.93l193.43-.15c4.05,0,7.32-3.59,7.32-8V26.67c0-4.44-3.27-8-7.32-8H262.08ZM455.33,24a2.57,2.57,0,0,1,2.44,2.68V165.75a2.57,2.57,0,0,1-2.44,2.68H266.73l0-123.31h0c.05,0,0-21.13,0-21.13Z" transform="translate(-14.42 -17.51)"/></g><path class="cls-1" d="M311,116.89a3.49,3.49,0,0,1-2.3-1.2,3.63,3.63,0,0,1-.89-2.44V79.32a3.65,3.65,0,0,1,.89-2.44,3.49,3.49,0,0,1,2.3-1.2,64.94,64.94,0,0,1,7.45-.39q9.92,0,15,5.12t5.13,15.32q0,21.55-20.16,21.56A62.62,62.62,0,0,1,311,116.89Zm3-35.67v30.13a.53.53,0,0,0,.45.56,23.46,23.46,0,0,0,4,.34q7.44,0,10.86-3.84t3.42-12.68q0-8-3.5-11.68t-10.78-3.72a23.49,23.49,0,0,0-4,.33A.53.53,0,0,0,314,81.22Z" transform="translate(-14.42 -17.51)"/><path class="cls-1" d="M350.55,115.83a3,3,0,0,1-2.19.9,3.07,3.07,0,0,1-3.08-3.08V79.32a3.61,3.61,0,0,1,.9-2.44,3.27,3.27,0,0,1,2.29-1.15,77,77,0,0,1,8-.44q8.07,0,12.15,3a9.61,9.61,0,0,1,4.09,8.24,12.15,12.15,0,0,1-2.15,7.25,11.14,11.14,0,0,1-5.91,4.17.05.05,0,0,0-.06.06c0,.07,0,.11.06.11,1.6,1.08,3.08,3.28,4.42,6.61l3.59,9.07a2,2,0,0,1-.23,2,2.08,2.08,0,0,1-1.79,1,4.46,4.46,0,0,1-2.63-.82,4.4,4.4,0,0,1-1.68-2.15l-3.53-9.07q-1.17-3-2.6-3.9t-5.41-.86H352a.44.44,0,0,0-.51.5v13.22A3,3,0,0,1,350.55,115.83Zm.89-34.72v13.5a.45.45,0,0,0,.51.5h2.85q11.88,0,11.87-8.06a5.78,5.78,0,0,0-2.54-5.13q-2.55-1.71-8.21-1.71a23.55,23.55,0,0,0-4,.34A.53.53,0,0,0,351.44,81.11Z" transform="translate(-14.42 -17.51)"/><path class="cls-1" d="M384.85,115.86a3,3,0,0,1-5.07-2.1V78.81a2.94,2.94,0,0,1,3-3,4.52,4.52,0,0,1,4.32,2.63l11,21.39s0,.06.05.06a.05.05,0,0,0,.06-.06l11-21.28a4.68,4.68,0,0,1,4.48-2.74,3.06,3.06,0,0,1,3.08,3.08v34.72a3.09,3.09,0,0,1-5.27,2.18,3,3,0,0,1-.89-2.18V86.54s0-.05-.06-.05,0,0,0,.05L402.18,103a4.49,4.49,0,0,1-8.07,0l-8.29-16.47s0-.05-.05-.05-.06,0-.06.05v27.22A2.89,2.89,0,0,1,384.85,115.86Z" transform="translate(-14.42 -17.51)"/></svg>