<?xml version="1.0" encoding="utf-8"?>
<!-- Generator: Adobe Illustrator 23.0.1, SVG Export Plug-In . SVG Version: 6.00 Build 0)  -->
<svg version="1.1" id="Layer_1" xmlns="http://www.w3.org/2000/svg" xmlns:xlink="http://www.w3.org/1999/xlink" x="0px" y="0px"
	 viewBox="0 0 513 483" style="enable-background:new 0 0 513 483;" xml:space="preserve">
<style type="text/css">
	.st0{fill:none;stroke:#59E3AD;stroke-linecap:round;stroke-linejoin:round;stroke-miterlimit:10;stroke-dasharray:3,3,3,3;}
	.st1{clip-path:url(#SVGID_2_);}
	.st2{fill:#F6F8FA;}
	.st3{fill:#D3DBE5;}
	.st4{font-family:'Roboto-Bold';}
	.st5{font-size:18.3228px;}
	.st6{fill:#43AA82;}
	.st7{fill:url(#SVGID_3_);}
	.st8{fill:none;}
	.st9{fill:none;stroke:#43AA82;stroke-width:0.25;stroke-miterlimit:10;}
	.st10{fill:#FFFFFF;}
	.st11{fill:url(#SVGID_4_);}
	.st12{fill:url(#SVGID_5_);}
	.st13{opacity:0.24;fill:#DB5437;}
	.st14{fill:url(#SVGID_6_);}
	.st15{fill:#91BDFD;}
	.st16{enable-background:new    ;}
	.st17{clip-path:url(#SVGID_11_);}
	.st18{clip-path:url(#SVGID_12_);}
	.st19{clip-path:url(#SVGID_13_);}
	
		.st20{clip-path:url(#SVGID_14_);fill:none;stroke:#D3DBE5;stroke-width:0.25;stroke-linecap:round;stroke-linejoin:round;stroke-miterlimit:10;}
	
		.st21{clip-path:url(#SVGID_16_);fill:none;stroke:#D3DBE5;stroke-width:0.25;stroke-linecap:round;stroke-linejoin:round;stroke-miterlimit:10;}
	.st22{fill:none;stroke:#D3DBE5;stroke-width:0.25;stroke-linecap:round;stroke-linejoin:round;stroke-miterlimit:10;}
	.st23{fill:url(#SVGID_17_);}
	.st24{fill:url(#SVGID_18_);}
	.st25{fill:url(#SVGID_19_);}
	.st26{fill:url(#SVGID_20_);}
	.st27{fill:url(#SVGID_21_);}
	.st28{fill:none;stroke:#000000;stroke-width:0.25;stroke-miterlimit:10;}
	.st29{fill:url(#SVGID_22_);}
	.st30{fill:none;stroke:#A7B6CB;stroke-width:0.25;stroke-linecap:round;stroke-miterlimit:10;}
	.st31{fill:url(#SVGID_23_);}
	.st32{fill:url(#SVGID_24_);}
	.st33{opacity:0.18;}
	
		.st34{clip-path:url(#SVGID_26_);fill:none;stroke:#99C3E4;stroke-width:0.5;stroke-linecap:round;stroke-linejoin:round;stroke-miterlimit:10;}
	.st35{opacity:0.3;}
	.st36{fill:#B3B3B3;}
	.st37{fill:#1B375F;}
	.st38{fill:none;stroke:#1B375F;stroke-width:0.25;stroke-miterlimit:10;}
	
		.st39{fill:none;stroke:#59E3AD;stroke-width:0.25;stroke-linecap:round;stroke-linejoin:round;stroke-miterlimit:10;stroke-dasharray:3,3,3,3;}
	.st40{fill:url(#SVGID_27_);}
	.st41{fill:none;stroke:#59E3AD;stroke-width:0.25;stroke-miterlimit:10;}
	.st42{fill:none;stroke:#D3DBE5;stroke-width:0.25;stroke-miterlimit:10;}
	.st43{fill:url(#SVGID_28_);}
	.st44{fill:url(#SVGID_29_);}
	.st45{opacity:0.5;fill:none;stroke:#F6F8FA;stroke-width:0.25;stroke-linecap:round;stroke-linejoin:round;stroke-miterlimit:10;}
	.st46{fill-rule:evenodd;clip-rule:evenodd;fill:none;stroke:#D3DBE5;stroke-width:0.25;stroke-miterlimit:10;}
	
		.st47{fill-rule:evenodd;clip-rule:evenodd;fill:none;stroke:#D3DBE5;stroke-width:0.25;stroke-linecap:round;stroke-linejoin:round;stroke-miterlimit:10;}
	.st48{fill-rule:evenodd;clip-rule:evenodd;fill:url(#SVGID_30_);}
	.st49{fill-rule:evenodd;clip-rule:evenodd;fill:url(#SVGID_31_);}
	.st50{clip-path:url(#SVGID_33_);}
	.st51{fill:url(#SVGID_34_);}
	.st52{fill:url(#SVGID_35_);}
	.st53{fill:#24497E;}
	.st54{fill:none;stroke:#24497E;stroke-width:0.25;stroke-linecap:round;stroke-linejoin:round;stroke-miterlimit:10;}
	.st55{fill:#FFFFFF;stroke:#24497E;stroke-width:0.25;stroke-linecap:round;stroke-linejoin:round;stroke-miterlimit:10;}
	.st56{fill:url(#SVGID_36_);}
	.st57{opacity:0.3;fill:#B3B3B3;}
	.st58{fill:none;stroke:#FFFFFF;stroke-width:0.25;stroke-linecap:round;stroke-linejoin:round;stroke-miterlimit:10;}
	.st59{fill:none;stroke:#B3B3B3;stroke-width:0.25;stroke-linecap:round;stroke-linejoin:round;stroke-miterlimit:10;}
	.st60{fill:none;stroke:#43AA82;stroke-width:0.5;stroke-miterlimit:10;}
</style>
<path class="st0" d="M507.7,244.4"/>
<g>
	<defs>
		<path id="SVGID_1_" d="M343.6,79.6c2.5-11.9,15.6-16.6,17.2-16.4c-0.6-2.9,4.7-13.7,15.7-10.6c0,0,0.5-3.6,4.9-8.3L380.9,18
			L358.7,11l-29.7,4.9l-0.7,59.7l6,8.1C334.2,83.8,343.2,80.1,343.6,79.6z"/>
	</defs>
	<clipPath id="SVGID_2_">
		<use xlink:href="#SVGID_1_"  style="overflow:visible;"/>
	</clipPath>
	<g class="st1">
		<path class="st2" d="M376.7,61.2c0,0-0.7,4.8,1.7,6.2c0,0,0.3-3.6,1.1-5.7C379.5,61.7,377.6,60.6,376.7,61.2z"/>
		<g>
			<text transform="matrix(1 0 0 1 342.7309 59.9014)" class="st3 st4 st5">VP9</text>
			<text transform="matrix(1 0 0 1 342.7309 59.9014)" class="st3 st4 st5">VP9</text>
		</g>
		<rect x="368.6" y="69.3" class="st3" width="4" height="5.6"/>
		<rect x="375.2" y="69.3" class="st3" width="4" height="5.6"/>
		<polygon class="st6" points="379.3,76.6 336.3,76.6 336.3,18.6 379.3,46 		"/>
		<linearGradient id="SVGID_3_" gradientUnits="userSpaceOnUse" x1="334.4674" y1="21.4598" x2="383.8556" y2="82.1507">
			<stop  offset="0.137" style="stop-color:#9FEFCF"/>
			<stop  offset="0.7363" style="stop-color:#59E3AD"/>
		</linearGradient>
		<polygon class="st7" points="379.3,27.1 379.3,73.3 336.4,73.3 336.4,18.6 371.1,18.6 371.1,27.1 		"/>
		<polygon class="st6" points="379.3,27.1 371.1,27.1 371.1,18.6 371.2,18.6 		"/>
		<polyline class="st8" points="370.5,17.9 371.2,18.6 371.2,18.6 		"/>
		<line class="st8" x1="380.1" y1="27.9" x2="379.3" y2="27.1"/>
		<line class="st9" x1="336.4" y1="35.9" x2="379.3" y2="35.9"/>
		<path class="st6" d="M379.4,22.6"/>
		<path class="st6" d="M336.3,22.6"/>
		<polygon class="st6" points="364.7,55.9 353.5,62.4 353.5,49.4 		"/>
		<g>
			<g>
				<path class="st10" d="M343.2,29.8l2.1-7h2.1l-3.2,9.2h-2l-3.2-9.2h2.1L343.2,29.8z"/>
				<path class="st10" d="M350.2,28.8v3.3h-1.9v-9.2h3.6c0.7,0,1.3,0.1,1.8,0.4c0.5,0.3,0.9,0.6,1.2,1.1s0.4,1,0.4,1.6
					c0,0.9-0.3,1.6-0.9,2.1s-1.5,0.8-2.6,0.8H350.2z M350.2,27.3h1.7c0.5,0,0.9-0.1,1.2-0.4s0.4-0.6,0.4-1c0-0.5-0.1-0.8-0.4-1.1
					c-0.3-0.3-0.6-0.4-1.1-0.4h-1.7V27.3z"/>
				<path class="st10" d="M360.7,28.4c-0.5,0.5-1,0.7-1.7,0.7c-0.8,0-1.5-0.3-2-0.8s-0.7-1.3-0.7-2.3c0-0.6,0.1-1.2,0.4-1.7
					s0.6-0.9,1.1-1.2c0.5-0.3,1-0.4,1.6-0.4c0.6,0,1.2,0.2,1.6,0.5c0.5,0.3,0.8,0.7,1.1,1.3c0.3,0.6,0.4,1.2,0.4,2v0.7
					c0,1.5-0.4,2.8-1.1,3.6c-0.8,0.9-1.9,1.3-3.3,1.4l-0.5,0v-1.5l0.4,0C359.7,30.6,360.6,29.8,360.7,28.4z M359.5,27.7
					c0.3,0,0.6-0.1,0.8-0.2s0.4-0.3,0.5-0.6v-0.8c0-0.6-0.1-1.1-0.4-1.4c-0.2-0.3-0.6-0.5-1-0.5c-0.4,0-0.7,0.2-0.9,0.5
					c-0.2,0.3-0.4,0.8-0.4,1.3c0,0.5,0.1,0.9,0.3,1.2C358.8,27.5,359.1,27.7,359.5,27.7z"/>
			</g>
			<g>
				<path class="st6" d="M343.2,29.8l2.1-7h2.1l-3.2,9.2h-2l-3.2-9.2h2.1L343.2,29.8z"/>
				<path class="st6" d="M350.2,28.8v3.3h-1.9v-9.2h3.6c0.7,0,1.3,0.1,1.8,0.4c0.5,0.3,0.9,0.6,1.2,1.1s0.4,1,0.4,1.6
					c0,0.9-0.3,1.6-0.9,2.1s-1.5,0.8-2.6,0.8H350.2z M350.2,27.3h1.7c0.5,0,0.9-0.1,1.2-0.4s0.4-0.6,0.4-1c0-0.5-0.1-0.8-0.4-1.1
					c-0.3-0.3-0.6-0.4-1.1-0.4h-1.7V27.3z"/>
				<path class="st6" d="M360.7,28.4c-0.5,0.5-1,0.7-1.7,0.7c-0.8,0-1.5-0.3-2-0.8s-0.7-1.3-0.7-2.3c0-0.6,0.1-1.2,0.4-1.7
					s0.6-0.9,1.1-1.2c0.5-0.3,1-0.4,1.6-0.4c0.6,0,1.2,0.2,1.6,0.5c0.5,0.3,0.8,0.7,1.1,1.3c0.3,0.6,0.4,1.2,0.4,2v0.7
					c0,1.5-0.4,2.8-1.1,3.6c-0.8,0.9-1.9,1.3-3.3,1.4l-0.5,0v-1.5l0.4,0C359.7,30.6,360.6,29.8,360.7,28.4z M359.5,27.7
					c0.3,0,0.6-0.1,0.8-0.2s0.4-0.3,0.5-0.6v-0.8c0-0.6-0.1-1.1-0.4-1.4c-0.2-0.3-0.6-0.5-1-0.5c-0.4,0-0.7,0.2-0.9,0.5
					c-0.2,0.3-0.4,0.8-0.4,1.3c0,0.5,0.1,0.9,0.3,1.2C358.8,27.5,359.1,27.7,359.5,27.7z"/>
			</g>
		</g>
		<g>
			<rect x="340.8" y="41.7" class="st6" width="5.7" height="1.9"/>
			<rect x="350.3" y="41.7" class="st6" width="5.7" height="1.9"/>
			<rect x="359.8" y="41.7" class="st6" width="5.7" height="1.9"/>
			<rect x="369.3" y="41.7" class="st6" width="5.7" height="1.9"/>
		</g>
		<g>
			<rect x="340.8" y="67.7" class="st6" width="5.7" height="1.9"/>
			<rect x="350.3" y="67.7" class="st6" width="5.7" height="1.9"/>
			<rect x="359.8" y="67.7" class="st6" width="5.7" height="1.9"/>
			<rect x="369.3" y="67.7" class="st6" width="5.7" height="1.9"/>
		</g>
	</g>
</g>
<g>
	<g>
		<path class="st3" d="M167.8,281l65.9,22.2L187.5,272l10.7-4.9l82.6,37.6l-9.6,3.7l-23.4-10.9l-37.3-18.1l49.4,33.3l-6.4,2.4
			l-70.2-23.8l37,17.2l22.2,10.8l-8.9,3.4l-75.8-37.4L167.8,281z"/>
		<path class="st3" d="M267.7,283.7l31.6,14l-9.9,3.8l-83.8-37.6l16.1-7.3c3.2-1.4,7.1-2.2,11.8-2.4c4.7-0.1,9.9,0.4,15.5,1.6
			c5.7,1.2,11.3,3,16.9,5.3c8.6,3.6,13.9,7.2,15.8,10.6c1.9,3.5,0.1,6.4-5.5,8.6L267.7,283.7z M253.3,277.3l8.3-3.5
			c2.5-1,3.3-2.3,2.3-3.8c-0.9-1.5-3.4-3.1-7.5-4.9c-4.2-1.8-8.2-2.9-12-3.5c-3.8-0.5-6.8-0.3-9.1,0.6l-8.1,3.6L253.3,277.3z"/>
		<path class="st3" d="M326.8,257.6l5.8-2.4l15.9,6.2l-6,2.4l22,8.7l-10.7,4.1l-21.6-8.7l-20.8,8.3l-12.1-4.7L260.2,239l9.2-4.2
			L326.8,257.6z M305.8,266.2l11-4.5l-32.7-13.2l1.4,1.1L305.8,266.2z"/>
	</g>
	<g>
		<path class="st3" d="M167.8,281l65.9,22.2L187.5,272l10.7-4.9l82.6,37.6l-9.6,3.7l-23.4-10.9l-37.3-18.1l49.4,33.3l-6.4,2.4
			l-70.2-23.8l37,17.2l22.2,10.8l-8.9,3.4l-75.8-37.4L167.8,281z"/>
		<path class="st3" d="M267.7,283.7l31.6,14l-9.9,3.8l-83.8-37.6l16.1-7.3c3.2-1.4,7.1-2.2,11.8-2.4c4.7-0.1,9.9,0.4,15.5,1.6
			c5.7,1.2,11.3,3,16.9,5.3c8.6,3.6,13.9,7.2,15.8,10.6c1.9,3.5,0.1,6.4-5.5,8.6L267.7,283.7z M253.3,277.3l8.3-3.5
			c2.5-1,3.3-2.3,2.3-3.8c-0.9-1.5-3.4-3.1-7.5-4.9c-4.2-1.8-8.2-2.9-12-3.5c-3.8-0.5-6.8-0.3-9.1,0.6l-8.1,3.6L253.3,277.3z"/>
		<path class="st3" d="M326.8,257.6l5.8-2.4l15.9,6.2l-6,2.4l22,8.7l-10.7,4.1l-21.6-8.7l-20.8,8.3l-12.1-4.7L260.2,239l9.2-4.2
			L326.8,257.6z M305.8,266.2l11-4.5l-32.7-13.2l1.4,1.1L305.8,266.2z"/>
	</g>
</g>
<polyline class="st6" points="131.8,131.4 85.7,131.4 85.7,73.8 123.6,73.8 "/>
<linearGradient id="SVGID_4_" gradientUnits="userSpaceOnUse" x1="1427.1389" y1="-580.1606" x2="1426.1716" y2="-588.769" gradientTransform="matrix(0.9739 -0.227 0.227 0.9739 -1143.9021 1033.7195)">
	<stop  offset="0.1718" style="stop-color:#FFD672"/>
	<stop  offset="1" style="stop-color:#F3AD5F"/>
</linearGradient>
<path class="st11" d="M110.9,149.8c0,0-2-6.7-7.4-12.4l15.5-2.2c0,0-0.9,1.9,0.8,8.4"/>
<linearGradient id="SVGID_5_" gradientUnits="userSpaceOnUse" x1="107.9175" y1="130.0804" x2="124.5257" y2="140.3008">
	<stop  offset="0" style="stop-color:#FFD672"/>
	<stop  offset="0.3251" style="stop-color:#F9C369"/>
	<stop  offset="0.7045" style="stop-color:#F5B362"/>
	<stop  offset="1" style="stop-color:#F3AD5F"/>
</linearGradient>
<path class="st12" d="M119.4,133.6c0,0.1,0,0.1,0,0.2c-1.7,9.9-11.8,9.3-15.8,3.7c-0.6-0.9-1.1-1.9-1.4-3c-0.3-1-0.4-2.1-0.6-3.2
	c-0.2-0.9-0.4-1.7-0.6-2.6l17.1-3.4"/>
<path class="st13" d="M114.8,131.4c0,0-0.7,0.8-1.2,2.9c0,0-2.9-1.6-11.8-1.5C99.2,123.7,114.8,131.4,114.8,131.4z"/>
<linearGradient id="SVGID_6_" gradientUnits="userSpaceOnUse" x1="96.5472" y1="82.7553" x2="125.4095" y2="128.935">
	<stop  offset="0.137" style="stop-color:#9FEFCF"/>
	<stop  offset="0.7363" style="stop-color:#59E3AD"/>
</linearGradient>
<polygon class="st14" points="135.9,86.4 135.9,131.4 89.8,131.4 89.8,73.8 124.9,73.8 "/>
<g>
	<g>
		<path class="st10" d="M107.7,106.7h-2.6v-5.4H100v5.4h-2.6V94h2.6v5.1h5.1V94h2.6V106.7z"/>
		<path class="st10" d="M112.6,104.6h5.6v2.1H110V94h2.6V104.6z"/>
		<path class="st10" d="M126.2,103.3c0-0.5-0.2-0.9-0.5-1.1c-0.3-0.3-1-0.5-1.9-0.8c-0.9-0.3-1.6-0.6-2.2-0.9
			c-1.4-0.8-2.2-1.8-2.2-3.1c0-0.7,0.2-1.3,0.6-1.8c0.4-0.5,0.9-1,1.7-1.3c0.7-0.3,1.5-0.5,2.4-0.5c0.9,0,1.7,0.2,2.4,0.5
			s1.3,0.8,1.7,1.4c0.4,0.6,0.6,1.3,0.6,2h-2.6c0-0.6-0.2-1-0.5-1.4s-0.9-0.5-1.5-0.5c-0.6,0-1.1,0.1-1.5,0.4
			c-0.4,0.3-0.5,0.6-0.5,1.1c0,0.4,0.2,0.8,0.6,1c0.4,0.3,1,0.5,1.8,0.8c1.5,0.4,2.6,1,3.3,1.7c0.7,0.7,1,1.5,1,2.5
			c0,1.1-0.4,2-1.2,2.6c-0.8,0.6-2,0.9-3.4,0.9c-1,0-1.9-0.2-2.7-0.5s-1.4-0.8-1.8-1.5c-0.4-0.6-0.6-1.3-0.6-2.2h2.6
			c0,1.4,0.8,2.1,2.5,2.1c0.6,0,1.1-0.1,1.5-0.4S126.2,103.8,126.2,103.3z"/>
	</g>
	<g>
		<path class="st6" d="M107.7,106.7h-2.6v-5.4H100v5.4h-2.6V94h2.6v5.1h5.1V94h2.6V106.7z"/>
		<path class="st6" d="M112.6,104.6h5.6v2.1H110V94h2.6V104.6z"/>
		<path class="st6" d="M126.2,103.3c0-0.5-0.2-0.9-0.5-1.1c-0.3-0.3-1-0.5-1.9-0.8c-0.9-0.3-1.6-0.6-2.2-0.9
			c-1.4-0.8-2.2-1.8-2.2-3.1c0-0.7,0.2-1.3,0.6-1.8c0.4-0.5,0.9-1,1.7-1.3c0.7-0.3,1.5-0.5,2.4-0.5c0.9,0,1.7,0.2,2.4,0.5
			s1.3,0.8,1.7,1.4c0.4,0.6,0.6,1.3,0.6,2h-2.6c0-0.6-0.2-1-0.5-1.4s-0.9-0.5-1.5-0.5c-0.6,0-1.1,0.1-1.5,0.4
			c-0.4,0.3-0.5,0.6-0.5,1.1c0,0.4,0.2,0.8,0.6,1c0.4,0.3,1,0.5,1.8,0.8c1.5,0.4,2.6,1,3.3,1.7c0.7,0.7,1,1.5,1,2.5
			c0,1.1-0.4,2-1.2,2.6c-0.8,0.6-2,0.9-3.4,0.9c-1,0-1.9-0.2-2.7-0.5s-1.4-0.8-1.8-1.5c-0.4-0.6-0.6-1.3-0.6-2.2h2.6
			c0,1.4,0.8,2.1,2.5,2.1c0.6,0,1.1-0.1,1.5-0.4S126.2,103.8,126.2,103.3z"/>
	</g>
</g>
<path class="st15" d="M120.4,145.1c0,0-10.2,4.4-10.9,4.1c-1-1.4-1-10.8,12-5.7C122.8,146,120.4,145.1,120.4,145.1z"/>
<g>
	<g class="st16">
		<g class="st16">
			<defs>
				<line id="SVGID_7_" class="st16" x1="213.8" y1="213.2" x2="255.5" y2="194.9"/>
			</defs>
			<defs>
				<polyline id="SVGID_8_" class="st16" points="134,322.9 48.8,285.7 178,228.8 				"/>
			</defs>
			<defs>
				<path id="SVGID_9_" class="st16" d="M151.8,330.7"/>
			</defs>
			<defs>
				<polyline id="SVGID_10_" class="st16" points="255.5,194.9 464.3,285.7 257.2,376.7 185.1,345.2 				"/>
			</defs>
			<clipPath id="SVGID_11_">
				<use xlink:href="#SVGID_7_"  style="overflow:visible;"/>
			</clipPath>
			<clipPath id="SVGID_12_" class="st17">
				<use xlink:href="#SVGID_8_"  style="overflow:visible;"/>
			</clipPath>
			<clipPath id="SVGID_13_" class="st18">
				<use xlink:href="#SVGID_9_"  style="overflow:visible;"/>
			</clipPath>
			<clipPath id="SVGID_14_" class="st19">
				<use xlink:href="#SVGID_10_"  style="overflow:visible;"/>
			</clipPath>
			<line class="st20" x1="263.6" y1="198.1" x2="465.3" y2="286.2"/>
			<polyline class="st20" points="151.8,330.7 48.8,285.7 179.3,228.4 			"/>
			<line class="st20" x1="257.2" y1="376.7" x2="207.3" y2="354.9"/>
			
				<use xlink:href="#SVGID_7_"  style="overflow:visible;fill:none;stroke:#D3DBE5;stroke-width:0.25;stroke-linecap:round;stroke-linejoin:round;stroke-miterlimit:10;"/>
			
				<use xlink:href="#SVGID_8_"  style="overflow:visible;fill:none;stroke:#D3DBE5;stroke-width:0.25;stroke-linecap:round;stroke-linejoin:round;stroke-miterlimit:10;"/>
			
				<use xlink:href="#SVGID_9_"  style="overflow:visible;fill:none;stroke:#D3DBE5;stroke-width:0.25;stroke-linecap:round;stroke-linejoin:round;stroke-miterlimit:10;"/>
			
				<use xlink:href="#SVGID_10_"  style="overflow:visible;fill:none;stroke:#D3DBE5;stroke-width:0.25;stroke-linecap:round;stroke-linejoin:round;stroke-miterlimit:10;"/>
		</g>
		<g class="st16">
			<defs>
				<polygon id="SVGID_15_" class="st16" points="464.3,285.7 464.2,316.1 257.1,407.1 257.2,376.7 				"/>
			</defs>
			<clipPath id="SVGID_16_">
				<use xlink:href="#SVGID_15_"  style="overflow:visible;"/>
			</clipPath>
			<polyline class="st21" points="417.8,336.5 257.1,407.1 257.2,376.7 464.3,285.7 464.2,316.1 421.8,334.7 			"/>
			<line class="st21" x1="421.8" y1="334.7" x2="417.8" y2="336.5"/>
			
				<use xlink:href="#SVGID_15_"  style="overflow:visible;fill:none;stroke:#D3DBE5;stroke-width:0.25;stroke-linecap:round;stroke-linejoin:round;stroke-miterlimit:10;"/>
		</g>
		<g class="st16">
			<polyline class="st22" points="133.9,353.3 48.7,316.1 48.8,285.7 			"/>
			<line class="st22" x1="257.1" y1="407.1" x2="180.4" y2="373.6"/>
		</g>
	</g>
</g>
<polygon class="st3" points="48.8,285.7 48.7,316.1 257.1,407.1 257.2,376.7 "/>
<path class="st2" d="M251,348.6c-6.2,1-13.7-4.3-20.8-5.7c-1.3-0.5-5.3-14.4-9-11c-3.7,3.4-26.7,17.3-26.7,17.3l-3.8,28.9l-5-1.9
	l-0.3-33.1l35.7-28.4l3.8-7.1v14.6c-1.6,6.1,9.4-5.1,6.1,6.9c-3.4-1.8,18.9,13.8,19.3,14.2C251.6,344.4,253.4,348.2,251,348.6z"/>
<path class="st2" d="M234,326c-0.1,0.6-0.4,1.3-0.6,2c-0.8,2.6-2.4,4.9-4.5,7c-0.9,1-1.9,1.8-3,2.7c-0.2-1-0.3-1.9-0.4-2.6
	c-0.1-1.4-0.1-2.3-0.1-2.3c-0.1-0.6-0.2-7.4,0.1-7.9C226.5,322.7,230.5,324.2,234,326z"/>
<radialGradient id="SVGID_17_" cx="128.317" cy="431.5785" r="0" gradientUnits="userSpaceOnUse">
	<stop  offset="0.1464" style="stop-color:#1B375F"/>
	<stop  offset="1" style="stop-color:#24497E"/>
</radialGradient>
<path class="st23" d="M128.3,431.6"/>
<radialGradient id="SVGID_18_" cx="147.9479" cy="420.6004" r="28.3794" gradientUnits="userSpaceOnUse">
	<stop  offset="0.1464" style="stop-color:#1B375F"/>
	<stop  offset="1" style="stop-color:#24497E"/>
</radialGradient>
<path class="st24" d="M135.4,419h19.9c0,0,5.3,14.3-8.3,23.5c-6.9,4.7-11.9,12.8-20.4,15.7c-2.8,0.9-6.3,1.4-8.3-0.7
	c-1.3-1.3-1.5-3.4-1.2-5.2s1.3-3.4,2.2-5C124.2,438.5,130.4,427.7,135.4,419"/>
<radialGradient id="SVGID_19_" cx="119.4557" cy="309.589" r="60.2374" gradientTransform="matrix(0.533 0.8461 -0.5808 0.3658 235.5909 95.2618)" gradientUnits="userSpaceOnUse">
	<stop  offset="0" style="stop-color:#F6F8FA"/>
	<stop  offset="1" style="stop-color:#DCE2EA"/>
</radialGradient>
<path class="st25" d="M167.9,288.8c0,0-35.3,21.5-35.5,41.9s2.6,88.9,2.6,88.9s9.8,7.3,20.2-0.6l4.2-51.3l17.7-36.1l20.2-26.3
	C197.4,305.3,178.5,287,167.9,288.8z"/>
<radialGradient id="SVGID_20_" cx="741.2413" cy="53.4822" r="36.1185" gradientTransform="matrix(0.9943 -0.1064 0.1064 0.9943 -571.4578 451.8337)" gradientUnits="userSpaceOnUse">
	<stop  offset="0.1464" style="stop-color:#1B375F"/>
	<stop  offset="1" style="stop-color:#24497E"/>
</radialGradient>
<path class="st26" d="M157.3,442.2c1.4-3.9,3-7.7,5-11.3c-4,9.2-9,20.6-13.1,29.9c-0.7,1.7-1.5,3.4-1.7,5.2c-0.2,1.8,0.3,3.8,1.7,5
	c2.2,1.9,5.7,1.1,8.4-0.2c9.7-4.5,14.9-11.7,21.2-19.8c2.8-3.6,3.6-4.4,4.5-8.9c0.9-4.5-0.5-13.3-4.2-15.9l-16.9,4.6"/>
<radialGradient id="SVGID_21_" cx="728.6227" cy="-36.5452" r="62.8939" gradientTransform="matrix(0.9943 -0.1064 0.1064 0.9943 -571.4578 451.8337)" gradientUnits="userSpaceOnUse">
	<stop  offset="0" style="stop-color:#F6F8FA"/>
	<stop  offset="4.284587e-02" style="stop-color:#F3F5F8"/>
	<stop  offset="0.3043" style="stop-color:#E2E7EE"/>
	<stop  offset="0.502" style="stop-color:#DCE2EA"/>
</radialGradient>
<path class="st27" d="M180.8,309.9c0,0-23.8,16.9-22.7,40.8c1,21,2,65.8,3.6,79.1c0.2,1.8,1.6,3.1,3.3,3.3
	c4.4,0.5,12.6,0.5,15.3-6.2l10.6-80.1c0,0,56.8-28.7,31.7-49.2C222.7,297.7,183.4,298.3,180.8,309.9z"/>
<path class="st28" d="M204.7,200.5"/>
<path class="st28" d="M140.6,385.8"/>
<path class="st28" d="M120.6,368.7"/>
<polygon class="st6" points="483.6,421.7 430.1,421.7 430.1,349.5 483.6,383.6 "/>
<linearGradient id="SVGID_22_" gradientUnits="userSpaceOnUse" x1="427.7174" y1="352.996" x2="489.2818" y2="428.6498">
	<stop  offset="0.137" style="stop-color:#9FEFCF"/>
	<stop  offset="0.7363" style="stop-color:#59E3AD"/>
</linearGradient>
<polygon class="st29" points="483.6,360 483.6,417.6 430.1,417.6 430.1,349.5 473.4,349.5 473.4,360 "/>
<g>
	<g>
		<path class="st10" d="M437.3,353.7l2.1,5.8l2-5.8h2.2v8h-1.7v-2.2l0.2-3.8l-2.2,6h-1.1l-2.2-6l0.2,3.8v2.2h-1.6v-8H437.3z"/>
		<path class="st10" d="M446.7,358.9v2.8H445v-8h3.1c0.6,0,1.1,0.1,1.6,0.3c0.5,0.2,0.8,0.5,1.1,0.9c0.2,0.4,0.4,0.9,0.4,1.4
			c0,0.8-0.3,1.4-0.8,1.9c-0.5,0.5-1.3,0.7-2.2,0.7H446.7z M446.7,357.6h1.5c0.4,0,0.8-0.1,1-0.3c0.2-0.2,0.3-0.5,0.3-0.9
			c0-0.4-0.1-0.7-0.3-1c-0.2-0.2-0.6-0.4-1-0.4h-1.5V357.6z"/>
		<path class="st10" d="M456.8,358.7h0.9v1.3h-0.9v1.7h-1.6V360h-3.3l-0.1-1l3.3-5.3h1.6V358.7z M453.4,358.7h1.8v-2.8l-0.1,0.2
			L453.4,358.7z"/>
	</g>
	<g>
		<path class="st6" d="M437.3,353.7l2.1,5.8l2-5.8h2.2v8h-1.7v-2.2l0.2-3.8l-2.2,6h-1.1l-2.2-6l0.2,3.8v2.2h-1.6v-8H437.3z"/>
		<path class="st6" d="M446.7,358.9v2.8H445v-8h3.1c0.6,0,1.1,0.1,1.6,0.3c0.5,0.2,0.8,0.5,1.1,0.9c0.2,0.4,0.4,0.9,0.4,1.4
			c0,0.8-0.3,1.4-0.8,1.9c-0.5,0.5-1.3,0.7-2.2,0.7H446.7z M446.7,357.6h1.5c0.4,0,0.8-0.1,1-0.3c0.2-0.2,0.3-0.5,0.3-0.9
			c0-0.4-0.1-0.7-0.3-1c-0.2-0.2-0.6-0.4-1-0.4h-1.5V357.6z"/>
		<path class="st6" d="M456.8,358.7h0.9v1.3h-0.9v1.7h-1.6V360h-3.3l-0.1-1l3.3-5.3h1.6V358.7z M453.4,358.7h1.8v-2.8l-0.1,0.2
			L453.4,358.7z"/>
	</g>
</g>
<path class="st2" d="M166,289.3c0,0,21,24.4,60.1,12.8l3.2-1l-0.8-7.4L166,289.3z"/>
<path class="st2" d="M218.7,304.9c4.8,19.1-22.7,34.3-30.3,43.6c4.9-2.6,37.5-21.1,35.4-29.6c0,0,4.2-12.5,1.8-22.1
	C223.1,287.1,213.9,285.8,218.7,304.9z"/>
<path class="st30" d="M166.3,289.8c7,9.1,13.2,11.6,24.5,14.9c9.8,2.9,29.9,3.3,38.5-3.6"/>
<g>
	<path class="st2" d="M257.1,344.4c0,0,0,0.1,0,0.1s-0.1,0.1-0.1,0.2c0,0.1-0.1,0.1-0.2,0.2c-0.5,0.4-1.4,0.3-2.6,0
		c-0.2-0.1-0.4-0.1-0.7-0.2c-0.2,0-0.4-0.1-0.6-0.2c-0.4-0.1-0.9-0.3-1.4-0.5c-1.3-0.5-2.8-1.1-4.8-2c-0.4-0.2-0.7-0.3-1-0.5
		c-0.9-0.4-1.8-0.9-2.9-1.4c-0.1-0.1-0.2-0.1-0.3-0.1c-0.1-0.1-0.1-0.1-0.1-0.1c3.6,4,11.4,5.4,11,7.2c-0.3,1.2-2.5,1.1-5.4,0.4
		c0,0,0,0-0.1,0c0,0,0,0-0.1,0c-0.1,0-0.3-0.1-0.5-0.1c-4-1-9.1-3.1-12.2-4.9c0,0-0.1,0-0.1,0c-1.5-0.8-2.5-1.5-2.9-1.9
		c-0.1,2.1,3.7,3.3,3.3,4.9c-0.3,1-2,1.3-5.8-0.9c-2.1-1.2-3.2-4.2-3.7-6.9c-0.2-1-0.3-1.9-0.4-2.6c1.2-0.1,2.4-0.1,3.4-0.1h0.1
		c5.9-0.1,11.9,0.7,17.6,2.1c0.6,0.1,1.2,0.3,1.8,0.4c1,0.3,2.1,0.6,3.1,0.9c1.3,0.4,2.6,0.9,3.7,1.6c0.5,1.1,0,1.5,0,1.5l-0.4,0.3
		C256.2,342.7,257.1,343.6,257.1,344.4z"/>
	<g>
		<g>
			<linearGradient id="SVGID_23_" gradientUnits="userSpaceOnUse" x1="225.306" y1="335.8943" x2="257.0992" y2="335.8943">
				<stop  offset="0.1718" style="stop-color:#FFD672"/>
				<stop  offset="1" style="stop-color:#F3AD5F"/>
			</linearGradient>
			<path class="st31" d="M257.1,344.4c0,0,0,0.1,0,0.1s-0.1,0.1-0.1,0.2c0,0.1-0.1,0.1-0.2,0.2c-0.5,0.4-1.4,0.3-2.6,0
				c-0.2-0.1-0.4-0.1-0.7-0.2c-0.2,0-0.4-0.1-0.6-0.2c-0.4-0.1-0.9-0.3-1.4-0.5c-1.6-0.6-3.3-1.4-4.8-2c-0.4-0.2-0.7-0.3-1-0.5
				c-0.9-0.4-1.8-0.9-2.9-1.4c-0.1-0.1-0.2-0.1-0.3-0.1c-0.1-0.1-0.1-0.1-0.1-0.1c3.6,4,11.4,5.4,11,7.2c-0.3,1.2-2.5,1.1-5.4,0.4
				c0,0,0,0-0.1,0c0,0,0,0-0.1,0c-0.1,0-0.3-0.1-0.5-0.1c-4-1-9.1-3.1-12.2-4.9c0,0-0.1,0-0.1,0c-1.5-0.8-2.5-1.5-2.9-1.9
				c-0.1,2.1,3.7,3.3,3.3,4.9c-0.3,1-2,1.3-5.8-0.9c-2.1-1.2-3.2-4.2-3.7-6.9c-0.2-1-0.3-1.9-0.4-2.6c-0.1-1.4-0.1-2.3-0.1-2.3
				c-0.1-0.6-0.2-7.4,0.1-7.9c1.1-2.1,5.1-0.6,8.5,1.2c2.9,1.5,5.4,3.2,5.4,3.2c12,5.6,15.2,9,15.9,10.8c0.5,1.1,0,1.5,0,1.5
				l-0.4,0.3C256.2,342.7,257.1,343.6,257.1,344.4z"/>
		</g>
		<path class="st13" d="M245.6,346.7c-2.7-0.9-7.2-2.5-10.5-4.3c0,0-0.1,0-0.1,0c-1.1-0.6-2.1-1.3-2.9-1.9c0,0-0.1-1,0.3-1
			C236.8,342.9,241.7,345.4,245.6,346.7z"/>
		<path class="st13" d="M254.8,341.8c-2.6-1.8-6.7-3.7-8.9-5.3C245.9,336.5,247.2,336.1,254.8,341.8z"/>
		<path class="st13" d="M257.1,344.4c0,0,0,0.1,0,0.1s-0.1,0.1-0.1,0.2c0,0.1-0.1,0.1-0.2,0.2c-0.4,0.2-1.1,0.4-2.6,0
			c-0.2-0.1-0.4-0.1-0.7-0.2c-0.2,0-0.4-0.1-0.6-0.2c-0.4-0.1-0.9-0.3-1.4-0.5c-1.3-0.5-2.8-1.1-4.8-2c-0.4-0.2-0.7-0.3-1-0.5
			c-0.9-0.4-1.8-0.9-2.9-1.4c0,0-0.1-0.1-0.2-0.1C244.5,340.8,255.6,345.4,257.1,344.4z"/>
	</g>
</g>
<path class="st15" d="M224.7,329.5c0,0,3.3,6.8,12.8,3.6c5.7-2,5-10.8,5-10.8L224.7,329.5z"/>
<linearGradient id="SVGID_24_" gradientUnits="userSpaceOnUse" x1="163.2705" y1="189.593" x2="206.107" y2="273.9873">
	<stop  offset="0.2355" style="stop-color:#4891FB"/>
	<stop  offset="0.8147" style="stop-color:#227BFB"/>
</linearGradient>
<path class="st32" d="M120.3,143.6c0.7-0.1,1.4,0.3,1.7,0.9c12.4,22.4,28.4,45.9,72.7,51.7c5.1,1,5.6-0.5,18.8,5.1
	c29.7,14.6,33.7,78.2,28.5,127.8c-7.4,6.6-17.2,0.5-17.2,0.5l-1.4-24.5c0,0-10.7,7.3-32.8,3.7c-0.5-0.1-1.1-0.2-1.7-0.3
	c-4.7-1.1-8.9-2.6-12.5-4.3c-0.1,0-0.1,0-0.1,0c-7.3-3.4-11.3-7.7-11.8-9.6c-0.8-3.3,5.4-67.9,5.4-67.9c-39.3-17.7-54-58-60.6-77.4
	c-0.1-0.3-0.1-0.5,0.1-0.8C109.8,147.5,112,144.7,120.3,143.6z"/>
<g class="st33">
	<defs>
		<path id="SVGID_25_" class="st33" d="M120,143.6c0.7-0.1,1.4,0.3,1.7,0.9c12.4,22.4,28.4,45.9,72.7,51.7c5.1,1,5.6-0.5,18.8,5.1
			c29.7,14.6,33.7,78.2,28.5,127.8c-7.4,6.6-17.2,0.5-17.2,0.5s1-29-1.1-24.5c-2.1,4.5-43.7,10.9-58.9-10.6
			c-0.8-3.3,5.2-67.9,5.2-67.9c-39.3-17.7-54-58-60.6-77.4c-0.1-0.3-0.1-0.5,0.1-0.8C109.5,147.5,111.7,144.7,120,143.6z"/>
	</defs>
	<clipPath id="SVGID_26_">
		<use xlink:href="#SVGID_25_"  style="overflow:visible;"/>
	</clipPath>
	<path class="st34" d="M152.2,258.4c10.1,1.5,19.3,8,24,17s4.9,20.3,0.5,29.4"/>
	<path class="st34" d="M153.7,242.6c14.9,1.9,28.9,10.3,37.5,22.6c8.7,12.3,11.9,28.2,8.8,42.9"/>
	<path class="st34" d="M162.4,244.5c11.7-6.3,20.6-14.4,25.3-26.8c4.7-12.4,4.7-26.5,0-39"/>
	<path class="st34" d="M108.6,119.1c-5.5,12.1-8.9,25.6-6.7,38.7c2.2,13.1,10.7,25.7,23.3,30.1c10.1,3.6,22.1,1.3,30.2-5.8
		c8.1-7,12-18.6,9.9-29.1"/>
	<path class="st34" d="M122.2,144.8c-3.5,6.4-0.9,15.3,5.4,18.9c6.3,3.6,15.3,1.2,19-5"/>
	<path class="st34" d="M229.9,197.5c-7.9,20.4-9,43.3-3.1,64.3s18.6,40.1,35.8,53.5"/>
	<path class="st34" d="M242.2,274.2c-5.2-7.1-8-15.9-7.8-24.7s3.5-17.5,9-24.3"/>
	<path class="st34" d="M188.9,213.7c11.1,6.1,27.9,4.2,37.3-4.3"/>
	<path class="st34" d="M165,245.2c15.2,7.1,33.4,7.6,49,1.5"/>
</g>
<g class="st35">
	<path class="st36" d="M218.9,234.1c-0.1-2,4.3,58.4,4.4,70.8c0,0-20.3,11.9-49.2-1.6C174.1,303.2,223.5,311.8,218.9,234.1z"/>
	<polyline class="st8" points="159.3,221.2 159.3,221.2 159.2,221.1 158.3,220.3 	"/>
	<path class="st36" d="M170.8,218.5l-2.7,25.5l1.7-17.5c-1.5-1-32-11.2-52.3-56.1c9.6,23.3,39.5,51,50.1,50.4
		C169.9,220.7,170.7,218.5,170.8,218.5z"/>
	<path class="st36" d="M214.5,211.7c-10.9-2-26.8-2.8-25.5-12.8c0-0.5,0.5-1.7-1.8-2.4c-7.2-2.2-18.7-4.8-17.9-6.5
		c20.1,8.6,41.4,3.3,55.1,19.8c5.1,6.8,18.8,29.1,19,82C240.8,267.3,237.1,218.7,214.5,211.7z"/>
</g>
<g>
	<g>
		<path class="st37" d="M190.9,436.9c0.1,0,0.1-0.1,0-0.1C190.8,436.8,190.8,436.9,190.9,436.9L190.9,436.9z"/>
	</g>
</g>
<path class="st38" d="M229.5,325.9"/>
<polygon class="st3" points="464.3,285.7 464.2,316.1 257.1,407.1 257.2,376.7 "/>
<path class="st39" d="M273.1,271.3c0,0-7.6-130.7,61.5-167.1"/>
<g>
	<radialGradient id="SVGID_27_" cx="370.2848" cy="446.9477" r="14.5512" gradientUnits="userSpaceOnUse">
		<stop  offset="0" style="stop-color:#F6F8FA"/>
		<stop  offset="6.995250e-02" style="stop-color:#F3F5F8"/>
		<stop  offset="0.4968" style="stop-color:#E2E7EE"/>
		<stop  offset="0.8197" style="stop-color:#DCE2EA"/>
	</radialGradient>
	<rect x="362.4" y="436" class="st40" width="11.3" height="11.3"/>
	<rect x="333.9" y="414.3" class="st41" width="24" height="24"/>
</g>
<path class="st36" d="M191.4,197.3"/>
<path class="st42" d="M386.9,252"/>
<rect x="33.2" y="190.8" class="st41" width="33.2" height="33.2"/>
<radialGradient id="SVGID_28_" cx="17.3862" cy="237.5188" r="28.3638" gradientUnits="userSpaceOnUse">
	<stop  offset="0" style="stop-color:#F6F8FA"/>
	<stop  offset="6.995250e-02" style="stop-color:#F3F5F8"/>
	<stop  offset="0.4968" style="stop-color:#E2E7EE"/>
	<stop  offset="0.8197" style="stop-color:#DCE2EA"/>
</radialGradient>
<rect x="18.5" y="216.6" class="st43" width="19.1" height="19.1"/>
<polygon class="st6" points="483.6,360 473.4,360 473.4,349.5 473.5,349.5 "/>
<polyline class="st8" points="472.7,348.6 473.5,349.4 473.5,349.5 "/>
<line class="st8" x1="484.6" y1="361.1" x2="483.6" y2="360"/>
<path class="st2" d="M118.6,126.5c0,0,3.4,1.1,3.4,4.9l-3.5-0.1L118.6,126.5z"/>
<linearGradient id="SVGID_29_" gradientUnits="userSpaceOnUse" x1="115.3836" y1="127.838" x2="118.348" y2="140.0159">
	<stop  offset="0.1718" style="stop-color:#FFD672"/>
	<stop  offset="1" style="stop-color:#F3AD5F"/>
</linearGradient>
<path class="st44" d="M119.4,133.6c0.6-6.9-0.9-8.9-1.9-8.1c-0.8,0.6,1.1,1.9-2.2,5c-5.3,6.7,1.9,14.6,4,3.3"/>
<path class="st45" d="M136.4,170.4c7.9,9.1,23.2,22,43.8,25.1"/>
<g>
	<g>
		<rect x="359.4" y="149.3" class="st3" width="2.4" height="56.1"/>
		<polygon class="st46" points="404.7,159.6 404.7,205.4 359.4,205.4 359.4,149.4 393.7,149.4 		"/>
	</g>
	<polygon class="st47" points="393.7,149.4 393.7,159.6 404.7,159.6 	"/>
	<linearGradient id="SVGID_30_" gradientUnits="userSpaceOnUse" x1="387.4146" y1="159.2062" x2="402.3051" y2="196.9643">
		<stop  offset="0.137" style="stop-color:#9FEFCF"/>
		<stop  offset="0.7363" style="stop-color:#59E3AD"/>
	</linearGradient>
	<rect x="371" y="173.2" class="st48" width="51.7" height="20"/>
	<g>
		<g>
			<path class="st6" d="M385.3,188.8H383v-4.9h-4.6v4.9H376v-11.4h2.4v4.6h4.6v-4.6h2.4V188.8z"/>
			<path class="st6" d="M387.3,187.6c0-0.4,0.1-0.7,0.4-0.9c0.2-0.2,0.5-0.3,0.9-0.3c0.4,0,0.7,0.1,0.9,0.3c0.2,0.2,0.4,0.5,0.4,0.9
				c0,0.4-0.1,0.6-0.4,0.9c-0.2,0.2-0.5,0.3-0.9,0.3c-0.4,0-0.7-0.1-0.9-0.3C387.5,188.3,387.3,188,387.3,187.6z"/>
			<path class="st6" d="M399.7,188.8h-7.8v-1.6l3.7-3.9c0.5-0.6,0.9-1,1.1-1.5c0.2-0.4,0.4-0.8,0.4-1.2c0-0.5-0.1-0.9-0.4-1.2
				s-0.6-0.4-1.1-0.4c-0.5,0-0.9,0.2-1.2,0.5c-0.3,0.4-0.4,0.8-0.4,1.4h-2.3c0-0.7,0.2-1.3,0.5-1.9c0.3-0.6,0.8-1,1.4-1.4
				c0.6-0.3,1.3-0.5,2.1-0.5c1.2,0,2.1,0.3,2.7,0.8c0.7,0.6,1,1.4,1,2.4c0,0.6-0.1,1.1-0.4,1.7c-0.3,0.6-0.8,1.3-1.5,2.1l-2.6,2.7
				h4.9V188.8z"/>
			<path class="st6" d="M407.2,177.2v1.9H407c-1,0-1.9,0.3-2.5,0.8c-0.6,0.5-1,1.2-1.1,2.2c0.6-0.6,1.4-0.9,2.3-0.9
				c1,0,1.8,0.4,2.4,1.1s0.9,1.7,0.9,2.8c0,0.7-0.2,1.4-0.5,2s-0.8,1.1-1.4,1.4c-0.6,0.3-1.3,0.5-2,0.5c-1.2,0-2.2-0.4-2.9-1.3
				s-1.1-2-1.1-3.4v-0.8c0-1.2,0.2-2.3,0.7-3.3c0.5-1,1.1-1.7,2-2.2s1.9-0.8,3.1-0.8H407.2z M405,182.9c-0.4,0-0.7,0.1-1,0.3
				c-0.3,0.2-0.5,0.4-0.7,0.8v0.7c0,0.8,0.1,1.4,0.4,1.8c0.3,0.4,0.7,0.6,1.3,0.6c0.5,0,0.9-0.2,1.2-0.6c0.3-0.4,0.5-0.9,0.5-1.5
				c0-0.6-0.2-1.1-0.5-1.5C405.9,183.1,405.5,182.9,405,182.9z"/>
			<path class="st6" d="M410.6,183.1l0.7-5.8h6.4v1.9h-4.6l-0.3,2.5c0.5-0.3,1.1-0.4,1.7-0.4c1.1,0,1.9,0.3,2.6,1
				c0.6,0.7,0.9,1.6,0.9,2.8c0,0.7-0.2,1.4-0.5,2c-0.3,0.6-0.8,1-1.3,1.4s-1.3,0.5-2.1,0.5c-0.7,0-1.3-0.1-1.9-0.4
				c-0.6-0.3-1.1-0.7-1.4-1.2c-0.3-0.5-0.5-1.1-0.5-1.7h2.2c0,0.5,0.2,0.8,0.5,1.1c0.3,0.3,0.7,0.4,1.1,0.4c0.5,0,0.9-0.2,1.2-0.6
				c0.3-0.4,0.4-0.9,0.4-1.6c0-0.6-0.2-1.1-0.5-1.5c-0.3-0.3-0.8-0.5-1.4-0.5c-0.5,0-1,0.1-1.3,0.4l-0.2,0.2L410.6,183.1z"/>
		</g>
		<g>
			<path class="st6" d="M385.3,188.8H383v-4.9h-4.6v4.9H376v-11.4h2.4v4.6h4.6v-4.6h2.4V188.8z"/>
			<path class="st6" d="M387.3,187.6c0-0.4,0.1-0.7,0.4-0.9c0.2-0.2,0.5-0.3,0.9-0.3c0.4,0,0.7,0.1,0.9,0.3c0.2,0.2,0.4,0.5,0.4,0.9
				c0,0.4-0.1,0.6-0.4,0.9c-0.2,0.2-0.5,0.3-0.9,0.3c-0.4,0-0.7-0.1-0.9-0.3C387.5,188.3,387.3,188,387.3,187.6z"/>
			<path class="st6" d="M399.7,188.8h-7.8v-1.6l3.7-3.9c0.5-0.6,0.9-1,1.1-1.5c0.2-0.4,0.4-0.8,0.4-1.2c0-0.5-0.1-0.9-0.4-1.2
				s-0.6-0.4-1.1-0.4c-0.5,0-0.9,0.2-1.2,0.5c-0.3,0.4-0.4,0.8-0.4,1.4h-2.3c0-0.7,0.2-1.3,0.5-1.9c0.3-0.6,0.8-1,1.4-1.4
				c0.6-0.3,1.3-0.5,2.1-0.5c1.2,0,2.1,0.3,2.7,0.8c0.7,0.6,1,1.4,1,2.4c0,0.6-0.1,1.1-0.4,1.7c-0.3,0.6-0.8,1.3-1.5,2.1l-2.6,2.7
				h4.9V188.8z"/>
			<path class="st6" d="M407.2,177.2v1.9H407c-1,0-1.9,0.3-2.5,0.8c-0.6,0.5-1,1.2-1.1,2.2c0.6-0.6,1.4-0.9,2.3-0.9
				c1,0,1.8,0.4,2.4,1.1s0.9,1.7,0.9,2.8c0,0.7-0.2,1.4-0.5,2s-0.8,1.1-1.4,1.4c-0.6,0.3-1.3,0.5-2,0.5c-1.2,0-2.2-0.4-2.9-1.3
				s-1.1-2-1.1-3.4v-0.8c0-1.2,0.2-2.3,0.7-3.3c0.5-1,1.1-1.7,2-2.2s1.9-0.8,3.1-0.8H407.2z M405,182.9c-0.4,0-0.7,0.1-1,0.3
				c-0.3,0.2-0.5,0.4-0.7,0.8v0.7c0,0.8,0.1,1.4,0.4,1.8c0.3,0.4,0.7,0.6,1.3,0.6c0.5,0,0.9-0.2,1.2-0.6c0.3-0.4,0.5-0.9,0.5-1.5
				c0-0.6-0.2-1.1-0.5-1.5C405.9,183.1,405.5,182.9,405,182.9z"/>
			<path class="st6" d="M410.6,183.1l0.7-5.8h6.4v1.9h-4.6l-0.3,2.5c0.5-0.3,1.1-0.4,1.7-0.4c1.1,0,1.9,0.3,2.6,1
				c0.6,0.7,0.9,1.6,0.9,2.8c0,0.7-0.2,1.4-0.5,2c-0.3,0.6-0.8,1-1.3,1.4s-1.3,0.5-2.1,0.5c-0.7,0-1.3-0.1-1.9-0.4
				c-0.6-0.3-1.1-0.7-1.4-1.2c-0.3-0.5-0.5-1.1-0.5-1.7h2.2c0,0.5,0.2,0.8,0.5,1.1c0.3,0.3,0.7,0.4,1.1,0.4c0.5,0,0.9-0.2,1.2-0.6
				c0.3-0.4,0.4-0.9,0.4-1.6c0-0.6-0.2-1.1-0.5-1.5c-0.3-0.3-0.8-0.5-1.4-0.5c-0.5,0-1,0.1-1.3,0.4l-0.2,0.2L410.6,183.1z"/>
		</g>
	</g>
</g>
<g>
	<g>
		<rect x="11.6" y="365.7" class="st3" width="2.3" height="52.1"/>
		<polygon class="st46" points="53.7,375.3 53.7,417.8 11.6,417.8 11.6,365.9 43.5,365.9 		"/>
	</g>
	<polygon class="st47" points="43.5,365.9 43.5,375.3 53.7,375.3 	"/>
	<linearGradient id="SVGID_31_" gradientUnits="userSpaceOnUse" x1="37.6412" y1="374.9239" x2="51.4731" y2="409.9976">
		<stop  offset="0.137" style="stop-color:#9FEFCF"/>
		<stop  offset="0.7363" style="stop-color:#59E3AD"/>
	</linearGradient>
	<rect x="22.4" y="387.9" class="st49" width="48" height="18.5"/>
	<g>
		<g>
			<path class="st6" d="M35.7,402.4h-2.2v-4.6h-4.3v4.6H27v-10.6h2.2v4.3h4.3v-4.3h2.2V402.4z"/>
			<path class="st6" d="M37.6,401.3c0-0.3,0.1-0.6,0.3-0.8c0.2-0.2,0.5-0.3,0.9-0.3c0.3,0,0.6,0.1,0.9,0.3c0.2,0.2,0.3,0.5,0.3,0.8
				c0,0.3-0.1,0.6-0.3,0.8c-0.2,0.2-0.5,0.3-0.9,0.3c-0.3,0-0.6-0.1-0.9-0.3C37.7,401.9,37.6,401.7,37.6,401.3z"/>
			<path class="st6" d="M49,402.4h-7.3v-1.4l3.4-3.7c0.5-0.5,0.8-1,1-1.4c0.2-0.4,0.3-0.7,0.3-1.1c0-0.5-0.1-0.8-0.4-1.1
				c-0.2-0.3-0.6-0.4-1-0.4c-0.5,0-0.9,0.2-1.1,0.5c-0.3,0.3-0.4,0.8-0.4,1.3h-2.1c0-0.6,0.2-1.2,0.5-1.8c0.3-0.5,0.7-1,1.3-1.3
				c0.6-0.3,1.2-0.5,1.9-0.5c1.1,0,1.9,0.3,2.6,0.8c0.6,0.5,0.9,1.3,0.9,2.2c0,0.5-0.1,1.1-0.4,1.6c-0.3,0.5-0.7,1.2-1.4,1.9
				l-2.4,2.5H49V402.4z"/>
			<path class="st6" d="M56,391.6v1.7h-0.2c-1,0-1.7,0.3-2.3,0.7c-0.6,0.5-0.9,1.2-1,2c0.6-0.6,1.3-0.9,2.1-0.9c0.9,0,1.7,0.3,2.2,1
				s0.8,1.5,0.8,2.6c0,0.7-0.2,1.3-0.4,1.9c-0.3,0.6-0.7,1-1.3,1.3s-1.2,0.5-1.9,0.5c-1.1,0-2-0.4-2.7-1.2c-0.7-0.8-1-1.8-1-3.1
				v-0.8c0-1.2,0.2-2.2,0.7-3.1s1.1-1.6,1.9-2.1s1.8-0.7,2.8-0.7H56z M54,397c-0.3,0-0.7,0.1-0.9,0.3c-0.3,0.2-0.5,0.4-0.6,0.7v0.6
				c0,0.7,0.1,1.3,0.4,1.7c0.3,0.4,0.7,0.6,1.2,0.6c0.5,0,0.8-0.2,1.1-0.5c0.3-0.4,0.4-0.8,0.4-1.4c0-0.6-0.1-1-0.4-1.4
				C54.8,397.1,54.5,397,54,397z"/>
			<path class="st6" d="M65.1,398.4h1.2v1.7h-1.2v2.3H63v-2.3h-4.4l-0.1-1.3l4.4-7h2.1V398.4z M60.7,398.4H63v-3.8l-0.1,0.2
				L60.7,398.4z"/>
		</g>
		<g>
			<path class="st6" d="M35.7,402.4h-2.2v-4.6h-4.3v4.6H27v-10.6h2.2v4.3h4.3v-4.3h2.2V402.4z"/>
			<path class="st6" d="M37.6,401.3c0-0.3,0.1-0.6,0.3-0.8c0.2-0.2,0.5-0.3,0.9-0.3c0.3,0,0.6,0.1,0.9,0.3c0.2,0.2,0.3,0.5,0.3,0.8
				c0,0.3-0.1,0.6-0.3,0.8c-0.2,0.2-0.5,0.3-0.9,0.3c-0.3,0-0.6-0.1-0.9-0.3C37.7,401.9,37.6,401.7,37.6,401.3z"/>
			<path class="st6" d="M49,402.4h-7.3v-1.4l3.4-3.7c0.5-0.5,0.8-1,1-1.4c0.2-0.4,0.3-0.7,0.3-1.1c0-0.5-0.1-0.8-0.4-1.1
				c-0.2-0.3-0.6-0.4-1-0.4c-0.5,0-0.9,0.2-1.1,0.5c-0.3,0.3-0.4,0.8-0.4,1.3h-2.1c0-0.6,0.2-1.2,0.5-1.8c0.3-0.5,0.7-1,1.3-1.3
				c0.6-0.3,1.2-0.5,1.9-0.5c1.1,0,1.9,0.3,2.6,0.8c0.6,0.5,0.9,1.3,0.9,2.2c0,0.5-0.1,1.1-0.4,1.6c-0.3,0.5-0.7,1.2-1.4,1.9
				l-2.4,2.5H49V402.4z"/>
			<path class="st6" d="M56,391.6v1.7h-0.2c-1,0-1.7,0.3-2.3,0.7c-0.6,0.5-0.9,1.2-1,2c0.6-0.6,1.3-0.9,2.1-0.9c0.9,0,1.7,0.3,2.2,1
				s0.8,1.5,0.8,2.6c0,0.7-0.2,1.3-0.4,1.9c-0.3,0.6-0.7,1-1.3,1.3s-1.2,0.5-1.9,0.5c-1.1,0-2-0.4-2.7-1.2c-0.7-0.8-1-1.8-1-3.1
				v-0.8c0-1.2,0.2-2.2,0.7-3.1s1.1-1.6,1.9-2.1s1.8-0.7,2.8-0.7H56z M54,397c-0.3,0-0.7,0.1-0.9,0.3c-0.3,0.2-0.5,0.4-0.6,0.7v0.6
				c0,0.7,0.1,1.3,0.4,1.7c0.3,0.4,0.7,0.6,1.2,0.6c0.5,0,0.8-0.2,1.1-0.5c0.3-0.4,0.4-0.8,0.4-1.4c0-0.6-0.1-1-0.4-1.4
				C54.8,397.1,54.5,397,54,397z"/>
			<path class="st6" d="M65.1,398.4h1.2v1.7h-1.2v2.3H63v-2.3h-4.4l-0.1-1.3l4.4-7h2.1V398.4z M60.7,398.4H63v-3.8l-0.1,0.2
				L60.7,398.4z"/>
		</g>
	</g>
</g>
<line class="st9" x1="430.2" y1="364.8" x2="483.7" y2="364.8"/>
<polygon class="st6" points="135.9,86.4 124.9,86.4 124.9,73.8 "/>
<g>
	<g>
		<circle class="st6" cx="112.9" cy="116.3" r="3.5"/>
		<circle class="st6" cx="104.6" cy="116.3" r="2.5"/>
		<circle class="st6" cx="98" cy="116.3" r="1.9"/>
	</g>
	<circle class="st6" cx="121.1" cy="116.3" r="2.5"/>
	<circle class="st6" cx="127.8" cy="116.3" r="1.9"/>
</g>
<path class="st2" d="M412.1,66c0,0,3.9-18.4-6.3-25.1c0,0,16.7,9.3,9.2,27.7C412.9,67,412.1,66,412.1,66z"/>
<path class="st2" d="M418,74.4c2.8,27.5-34.1,27.9-38.1,15.8c0,0,5.9,16,24.1,12.1C423.6,97.4,419.7,76.2,418,74.4z"/>
<g>
	<g>
		<defs>
			<path id="SVGID_32_" d="M191.6,201.4c0,0,4.5,8,20.5,5.2s24.1-36.1,24.1-36.1l-4.7-28.9l-14.6-8.5l-30.9-0.8l-12.1,19.1l5.3,30.1
				l4.5,15.9L191.6,201.4z"/>
		</defs>
		<clipPath id="SVGID_33_">
			<use xlink:href="#SVGID_32_"  style="overflow:visible;"/>
		</clipPath>
		<g class="st50">
			<g>
				
					<linearGradient id="SVGID_34_" gradientUnits="userSpaceOnUse" x1="-2390.2964" y1="7493.5938" x2="-2330.4871" y2="7493.1895" gradientTransform="matrix(0.3014 0.9535 -0.9535 0.3014 8060.7979 182.3977)">
					<stop  offset="0.1718" style="stop-color:#FFD672"/>
					<stop  offset="1" style="stop-color:#F3AD5F"/>
				</linearGradient>
				<path class="st51" d="M206.3,209.5l-12.8-4.7c-1.6-0.6-2.4-2.5-1.7-4.1c0.1-0.3,0.3-0.6,0.4-0.9c1.2-2.7,2-5.5,2.4-8.4l0,0
					c-0.1,0-0.1,0-0.2,0c-1-0.1-2.1-0.4-3-0.8c-4.1-1.8-6.8-6.4-6.4-10.8c0.3-2.9,1.7-5.8,1-8.6c-0.3-1-0.8-2-0.6-3.1
					c0.2-1.1,1.3-1.8,2.1-2.6c0.3-0.3,0.6-0.7,0.9-1.1l0.4-0.6c0.1-0.1,0.1-0.2,0.2-0.3l2.9,0.9c-0.7,2.5-0.2,4.8,1.2,5.2
					c1,0.3,2.1-0.4,3-1.8c0.7-1.1,2.1-1.6,3.3-1.2l10,3c0.4,0.1,0.9,0.2,1.3,0.1l2.4-0.4c-0.4,0,2.9,3,2.6,3.1l0.4,4.2
					c0.5,1.4,0,0.8-0.8,2.1l-2.5,0.4c-0.4,0.5-0.7,0.9-0.8,1.5c-0.8,2.8-1.2,5.8-0.3,8.6c0.2,0.5,0.4,1.1,0.8,1.6
					c0.5,0.7,0.6,1.6,0.4,2.5c-1,3.9-1.5,8.3-1.4,12.5C211.5,208.6,208.8,210.4,206.3,209.5z"/>
				
					<linearGradient id="SVGID_35_" gradientUnits="userSpaceOnUse" x1="-2390.3303" y1="7489.1533" x2="-2328.0566" y2="7488.7324" gradientTransform="matrix(0.3014 0.9535 -0.9535 0.3014 8060.7979 182.3977)">
					<stop  offset="0.1718" style="stop-color:#FFD672"/>
					<stop  offset="1" style="stop-color:#F3AD5F"/>
				</linearGradient>
				<path class="st52" d="M210.2,170l-13.1-3.9c0,0,0,0,0,0c0.7-2.5,0.2-4.8-1.2-5.3c-1.4-0.4-3.1,1.3-3.9,3.7c0,0,0,0,0,0l-2.9-0.9
					c1.5-2.5,2.1-5.7,4.4-7.6l0-0.1c0.2,0.1,0.5,0.2,0.7,0.4c3.7,1.7,7.8,2.5,11.9,2.4l0,0c1.5,1.7,3.6,3.2,5.9,4.3l-0.1,0.1
					C210.4,165,209.7,167.6,210.2,170z"/>
			</g>
			<path class="st13" d="M194.6,171.2c2.2-0.2,3.2-4.2,2.7-5.1c-0.5,0.7-0.6,1.5-1.3,2.1s-1.2,1.5-2.1,1.6c-0.8,0-2-1.3-1.6-0.1
				C192.6,170.5,193.2,171.3,194.6,171.2z"/>
			<path class="st53" d="M192.6,164.8C192.6,164.8,192.6,164.8,192.6,164.8c0.8-2.5,2.5-4.2,3.9-3.8c1.4,0.4,2,2.8,1.2,5.3
				c0,0,0,0,0,0c-0.8,2.5-2.5,4.1-3.9,3.7C192.4,169.6,191.9,167.3,192.6,164.8z"/>
			<path class="st10" d="M197,166.1c-0.8,2.5-2.5,4.1-3.9,3.7c-1.4-0.4-1.9-2.7-1.2-5.2c0,0,0,0,0,0c0.7-2.5,2.5-4.2,3.9-3.7
				C197.3,161.2,197.8,163.5,197,166.1C197,166,197,166.1,197,166.1z"/>
			<path class="st13" d="M202.8,159.8c0.8,0,1.6-0.2,2.4,0.1c0.8,0.3,1.4,0.9,2,1.5c0.8,0.8,1.8,1.5,2.7,2.1c0.6,0.4,1.3,0.7,2,0.6
				c0.7-0.1,1.5-0.6,1.4-1.4c0-0.4-0.3-0.8-0.6-1.1c-0.3-0.3-0.7-0.4-1.1-0.6c-1.9-1-3.6-2.5-4.8-4.3c-2.6,0.8-5.5,0.7-8-0.2
				c-0.7-0.3-1.4-0.6-2.2-0.8c-0.7-0.2-2.7-0.5-1.8,0.7c0.6,0.8,1.4,1.4,2.2,1.9C198.8,159.3,200.8,159.8,202.8,159.8z"/>
			<path class="st13" d="M187.6,170.6c0.2,0.1,0.3,0.2,0.5,0.4c0.1,0.2,0.2,0.4,0.2,0.6c-0.1,0.2-0.3,0.3-0.5,0.3
				c-0.4,0.1-1.1,0-1.6-0.2c-0.3-0.4-0.9-2.8-0.7-3.6c0.4,0,0.7,1.1,1,1.4C186.8,170,187.2,170.3,187.6,170.6z"/>
			<path class="st13" d="M194.7,191.5c0.3-0.1,5.6,0.3,8.7-2.7c0.6-0.5,0.1,1.4-2.6,2.9S194.7,193.2,194.7,191.5z"/>
			<path class="st13" d="M206.5,170.4c1.3,0.4,2.7,0.9,3.9,0.3c-3.7-1.6-7.6-2.8-11.6-3.7c-0.6-0.1-1.5,0.3-0.6,0.6
				c0.8,0.3,1.7,0.4,2.5,0.7C202.6,169,204.6,169.7,206.5,170.4z"/>
			<path class="st54" d="M192,164.6C192,164.5,192,164.5,192,164.6c0.8-2.5,2.5-4.2,3.9-3.8c1.4,0.4,2,2.8,1.2,5.3c0,0,0,0,0,0
				c-0.8,2.5-2.5,4.1-3.9,3.7C191.8,169.4,191.2,167,192,164.6z"/>
			<g>
				<path class="st13" d="M191.4,165.8c-0.2-0.1-0.4-0.2-0.6-0.2c-0.8-0.3-1.7-0.5-2.4-0.9c0,0-0.1,0-0.1,0l0.4-0.5
					c0.1,0,0.2,0,0.3,0c0.8,0.2,1.6,0.5,2.4,0.8C191.5,165.2,191.4,165.5,191.4,165.8z"/>
				<g>
					<path class="st53" d="M188.9,163.5C188.9,163.5,188.9,163.5,188.9,163.5c-0.9,2.4-2.8,4-4.1,3.5c-1.4-0.5-1.8-2.9-0.9-5.3
						c0.9-2.4,2.8-4,4.1-3.5C189.5,158.7,189.9,161.1,188.9,163.5z"/>
					<path class="st10" d="M188.3,163.6c-0.9,2.4-2.7,3.9-4.1,3.4c-1.4-0.5-1.8-2.9-0.9-5.3c0.9-2.4,2.8-4,4.1-3.5
						C188.8,158.7,189.2,161.1,188.3,163.6C188.3,163.6,188.3,163.6,188.3,163.6z"/>
					<path class="st55" d="M188.3,163.5C188.3,163.6,188.3,163.6,188.3,163.5c-0.9,2.4-2.8,4-4.1,3.5c-1.4-0.5-1.8-2.9-0.9-5.3
						c0.9-2.4,2.8-4,4.1-3.5C188.8,158.7,189.2,161.1,188.3,163.5z"/>
				</g>
				<polyline class="st54" points="188.3,163.6 189,163.8 191.8,164.9 				"/>
			</g>
			<polyline class="st54" points="197,166.1 210.2,170 211.9,170.5 			"/>
			
				<radialGradient id="SVGID_36_" cx="-2388.5405" cy="7459.1016" r="0" gradientTransform="matrix(0.3014 0.9535 -0.9535 0.3014 8060.7979 182.3977)" gradientUnits="userSpaceOnUse">
				<stop  offset="0.1464" style="stop-color:#1B375F"/>
				<stop  offset="1" style="stop-color:#24497E"/>
			</radialGradient>
			<path class="st56" d="M228.7,152.7"/>
			<path class="st53" d="M228.7,159.3c0.3,1.9-0.2,3.7-1.2,4.8c-0.3,0.3-0.7,0.6-1.1,0.9c-1.1,0.6-2.5,0.7-3.7,0.2
				c-3,0.7-7.1,0.1-10.9-1.7c-2.4-1.2-4.5-2.6-5.9-4.3c-4.2,0.1-8.3-0.8-11.9-2.5c-0.2-0.1-0.5-0.2-0.7-0.4
				c-4.7-2.3-8.6-7.1-7.2-12.7c0.8-3,3.3-5.5,6.4-6c2.7-0.4,5.5,0.7,8.2,0.6c2.8,0,5.5-1.3,8.3-1c1.6,0.2,3.2,0.9,4.5,1.8
				c1,0.7,1.8,1.5,2.8,2.2c1.1,0.6,2.3,0.8,3.4,1.2c6.3,2.3,9.7,10.2,8.9,16.6C228.7,159.1,228.7,159.3,228.7,159.3z"/>
			<path class="st53" d="M215.1,191.9c0.7-0.3,1.2-0.9,1.5-1.4c0.4-0.5,0.7-1.1,1-1.7c0.6-1.1,1-2.3,1.4-3.5c0.8-2.3,2-4.4,3.2-6.5
				c1.2-2.1,2.4-4.3,3.3-6.6c0.9-2.3,1.5-4.8,1.4-7.4c0-0.2-0.2-0.4-0.5-0.4c-0.2,0-0.3,0.1-0.4,0.2c-1,0.5-2.2,0.5-3.2,0.1
				c-3,0.8-8.9-0.4-11.4-1.5c-1.7,1.9-2.1,4.3-1.6,6.8c0.1,0.3,0.1,0.6,0.2,1c0,0,0,0,0,0.1c-0.2,0.3-0.4,0.6-0.5,1
				c0,0.1,0,0.2,0.2,0.3c0.1,0.1,0.3,0,0.3-0.1l0,0c0.4-1,1.6-1.5,2.6-1.3c1,0.2,1.8,1.1,2.2,2.1c0.3,1,0.2,2.2-0.2,3.2
				c-0.4,1.1-1.3,1.8-2.1,2.8c-0.2,0.3-0.4,0.5-0.6,0.8c-0.2,0.3-0.3,0.7-0.4,1c-0.2,0.6-0.3,1.2-0.4,1.8c-0.2,1.2-0.4,2.5-0.3,3.8
				c0,1.3,0.3,2.5,0.8,3.8c0.3,0.6,0.6,1.2,1.3,1.7C213.5,192.3,214.4,192.3,215.1,191.9z"/>
			<path class="st13" d="M212.8,191.9c0,0-3.6,18.2-12.6,15.4l11.5,4.2c0,0-1.1-11.8,1.5-19.4L212.8,191.9z"/>
		</g>
	</g>
	<path class="st10" d="M189.3,178.6c-0.2,0.6-1,0.8-1.8,0.6c-0.9-0.2-1.4-0.9-1.3-1.4c0.2-0.6,0.5-0.3,1.4,0
		C188.5,177.9,189.4,178,189.3,178.6z"/>
</g>
<path class="st57" d="M190.9,346.9c0,0-1.1,0.8-2.6,1.6c1.3,4.1-0.8,23.8-1.2,27.3c0,0,3.4-24.9,3.8-28.6"/>
<path class="st58" d="M177.7,311.4c0,0-20.5,16.7-19.7,37.2c1.7,26.7,1.8,62.7,1.8,62.7"/>
<path class="st2" d="M158.1,366.3c0.7,32.4-5.6-23.1-2.7-31.6c3.2-9.5,14.8-21.5,22.3-23.3c0,0-17.5,16.5-18.5,27.5
	C158.1,349.9,158.1,366.3,158.1,366.3z"/>
<path class="st58" d="M135.8,342.5c0.1-8.2-0.7-14.8,2-17.3"/>
<path class="st30" d="M162.3,427c3.3,1.3,7,1.6,10.4,0.8c2.8-0.7,5.5-2.1,7.6-4.1"/>
<path class="st30" d="M175.9,426.5c-0.2-22.3,0.8-44.5,3.1-66.7c0.5-4.8,1.1-9.8,3.3-14.1c3.4-6.8,10.2-11.1,16.2-15.9
	c8.1-6.6,14.1-12,19.4-21"/>
<path class="st30" d="M135.4,416.1c6.8,1.4,14.1,0,20-3.7"/>
<line class="st59" x1="412.1" y1="291.8" x2="412.1" y2="232.8"/>
<line class="st59" x1="421.1" y1="259.4" x2="421.1" y2="242"/>
<line class="st59" x1="67.8" y1="304.7" x2="67.8" y2="355.6"/>
<line class="st59" x1="74.5" y1="342.9" x2="74.5" y2="361.7"/>
<path class="st59" d="M97.9,151.2c8.1,24.9,22.6,47.6,41.9,65.4"/>
<path class="st59" d="M126.6,211c3.3,3.2,6.6,6.4,9.9,9.6"/>
<path class="st6" d="M483.7,354.4"/>
<path class="st6" d="M430,354.4"/>
<path class="st6" d="M479.4,163.8"/>
<line class="st45" x1="223.9" y1="280.2" x2="225.3" y2="318.2"/>
<line class="st45" x1="226.9" y1="308" x2="227.2" y2="316.6"/>
<g>
	<polygon class="st6" points="467.4,392.4 450.7,402.1 450.7,382.8 	"/>
	<circle class="st60" cx="456.9" cy="392.4" r="17.9"/>
</g>
</svg>
