<svg id="Layer_1" xmlns="http://www.w3.org/2000/svg" xmlns:xlink="http://www.w3.org/1999/xlink" viewBox="0 0 493 470"><style>.st1{fill:#f6f8fa}.st2{fill:#d3dbe5}.st3{font-family:&apos;Roboto-Bold&apos;}.st4{font-size:18.3228px}.st5{fill:#43aa82}.st7,.st8{fill:none}.st8{stroke:#43aa82;stroke-width:.25;stroke-miterlimit:10}.st9{fill:#fff}.st10{font-size:9.7277px}.st13{opacity:.24;fill:#db5437}.st15{font-size:17.8518px}.st16{fill:#91bdfd}.st17{enable-background:new}.st21,.st22{stroke:#d3dbe5;stroke-linecap:round;stroke-linejoin:round}.st21{fill:none;stroke-width:.25;stroke-miterlimit:10;clip-path:url(#SVGID_14_)}.st22{clip-path:url(#SVGID_16_)}.st22,.st23,.st29,.st31{fill:none;stroke-width:.25;stroke-miterlimit:10}.st23{stroke-linecap:round;stroke-linejoin:round;stroke:#d3dbe5}.st29,.st31{stroke:#000}.st31{stroke:#a7b6cb;stroke-linecap:round}.st34{opacity:.18}.st35{clip-path:url(#SVGID_26_);fill:none;stroke:#99c3e4;stroke-width:.5;stroke-linecap:round;stroke-linejoin:round;stroke-miterlimit:10}.st37{fill:#b3b3b3}.st42{stroke:#59e3ad}.st42,.st46,.st47,.st48{fill:none;stroke-width:.25;stroke-miterlimit:10}.st46{opacity:.5;stroke-linecap:round;stroke-linejoin:round;stroke:#f6f8fa}.st47,.st48{fill-rule:evenodd;clip-rule:evenodd;stroke:#d3dbe5}.st48{stroke-linecap:round;stroke-linejoin:round}.st50{font-size:16.0996px}.st52{font-size:14.955px}.st56{fill:#24497e}.st57,.st61,.st62{fill:none;stroke:#24497e;stroke-width:.25;stroke-linecap:round;stroke-linejoin:round;stroke-miterlimit:10}.st61,.st62{stroke:#fff}.st62{stroke:#b3b3b3}</style><defs><path id="SVGID_1_" d="M334.6 70.6c2.5-11.9 15.6-16.6 17.2-16.4-.6-2.9 4.7-13.7 15.7-10.6 0 0 .5-3.6 4.9-8.3L371.9 9l-22.2-7L320 6.9l-.7 59.7 6 8.1c-.1.1 8.9-3.6 9.3-4.1z"/></defs><clipPath id="SVGID_2_"><use xlink:href="#SVGID_1_" overflow="visible"/></clipPath><g clip-path="url(#SVGID_2_)"><path class="st1" d="M367.7 52.2s-.7 4.8 1.7 6.2c0 0 .3-3.6 1.1-5.7 0 0-1.9-1.1-2.8-.5z"/><text transform="translate(333.7309 50.9014)" class="st2 st3 st4">VP9</text><text transform="translate(333.7309 50.9014)" class="st2 st3 st4">VP9</text><path class="st2" d="M359.6 60.3h4v5.6h-4zM366.2 60.3h4v5.6h-4z"/><path class="st5" d="M370.3 67.6h-43v-58l43 27.4z"/><linearGradient id="SVGID_3_" gradientUnits="userSpaceOnUse" x1="325.4674" y1="12.4598" x2="374.8556" y2="73.1507"><stop offset=".137" stop-color="#9fefcf"/><stop offset=".7363" stop-color="#59e3ad"/></linearGradient><path fill="url(#SVGID_3_)" d="M370.3 18.1v46.2h-42.9V9.6h34.7v8.5z"/><path class="st5" d="M370.3 18.1h-8.2V9.6h.1z"/><path class="st7" d="M361.5 8.9l.7.7M371.1 18.9l-.8-.8"/><path class="st8" d="M327.4 21.9h42.9"/><path class="st5" d="M355.7 41.9l-11.2 6.5v-13z"/><text transform="translate(329.936 19.1045)" class="st9 st3 st10">VP9</text><text transform="translate(329.936 19.1045)" class="st5 st3 st10">VP9</text><g><path class="st5" d="M331.8 27.1h5.7v4.4h-5.7zM341.3 27.1h5.7v4.4h-5.7zM350.8 27.1h5.7v4.4h-5.7zM360.3 27.1h5.7v4.4h-5.7z"/></g><g><path class="st5" d="M332.5 52.6h5.7V57h-5.7zM342 52.6h5.7V57H342zM351.4 52.6h5.7V57h-5.7zM360.9 52.6h5.7V57h-5.7z"/></g></g><path class="st2" d="M158.8 272l65.9 22.2-46.2-31.2 10.7-4.9 82.6 37.6-9.6 3.7-23.4-10.9-37.3-18.1 49.4 33.3-6.4 2.4-70.2-23.8 37 17.2 22.2 10.8-8.9 3.4-75.8-37.4 10-4.3zM258.7 274.7l31.6 14-9.9 3.8-83.8-37.6 16.1-7.3c3.2-1.4 7.1-2.2 11.8-2.4 4.7-.1 9.9.4 15.5 1.6 5.7 1.2 11.3 3 16.9 5.3 8.6 3.6 13.9 7.2 15.8 10.6 1.9 3.5.1 6.4-5.5 8.6l-8.5 3.4zm-14.4-6.4l8.3-3.5c2.5-1 3.3-2.3 2.3-3.8-.9-1.5-3.4-3.1-7.5-4.9-4.2-1.8-8.2-2.9-12-3.5-3.8-.5-6.8-.3-9.1.6l-8.1 3.6 26.1 11.5zM317.8 248.6l5.8-2.4 15.9 6.2-6 2.4 22 8.7-10.7 4.1-21.6-8.7-20.8 8.3-12.1-4.7-39.1-32.5 9.2-4.2 57.4 22.8zm-21 8.6l11-4.5-32.7-13.2 1.4 1.1 20.3 16.6z"/><path class="st2" d="M158.8 272l65.9 22.2-46.2-31.2 10.7-4.9 82.6 37.6-9.6 3.7-23.4-10.9-37.3-18.1 49.4 33.3-6.4 2.4-70.2-23.8 37 17.2 22.2 10.8-8.9 3.4-75.8-37.4 10-4.3zM258.7 274.7l31.6 14-9.9 3.8-83.8-37.6 16.1-7.3c3.2-1.4 7.1-2.2 11.8-2.4 4.7-.1 9.9.4 15.5 1.6 5.7 1.2 11.3 3 16.9 5.3 8.6 3.6 13.9 7.2 15.8 10.6 1.9 3.5.1 6.4-5.5 8.6l-8.5 3.4zm-14.4-6.4l8.3-3.5c2.5-1 3.3-2.3 2.3-3.8-.9-1.5-3.4-3.1-7.5-4.9-4.2-1.8-8.2-2.9-12-3.5-3.8-.5-6.8-.3-9.1.6l-8.1 3.6 26.1 11.5zM317.8 248.6l5.8-2.4 15.9 6.2-6 2.4 22 8.7-10.7 4.1-21.6-8.7-20.8 8.3-12.1-4.7-39.1-32.5 9.2-4.2 57.4 22.8zm-21 8.6l11-4.5-32.7-13.2 1.4 1.1 20.3 16.6z"/><path class="st5" d="M122.8 122.4H76.7V64.8h37.9"/><linearGradient id="SVGID_4_" gradientUnits="userSpaceOnUse" x1="1419.2821" y1="-591.0996" x2="1418.3148" y2="-599.7079" gradientTransform="rotate(-13.12 3922.57537941 5485.22562732)"><stop offset=".1718" stop-color="#ffd672"/><stop offset="1" stop-color="#f3ad5f"/></linearGradient><path d="M101.9 140.8s-2-6.7-7.4-12.4l15.5-2.2s-.9 1.9.8 8.4" fill="url(#SVGID_4_)"/><linearGradient id="SVGID_5_" gradientUnits="userSpaceOnUse" x1="98.9175" y1="121.0804" x2="115.5257" y2="131.3008"><stop offset="0" stop-color="#ffd672"/><stop offset=".3251" stop-color="#f9c369"/><stop offset=".7045" stop-color="#f5b362"/><stop offset="1" stop-color="#f3ad5f"/></linearGradient><path d="M110.4 124.6v.2c-1.7 9.9-11.8 9.3-15.8 3.7-.6-.9-1.1-1.9-1.4-3-.3-1-.4-2.1-.6-3.2-.2-.9-.4-1.7-.6-2.6l17.1-3.4" fill="url(#SVGID_5_)"/><path class="st13" d="M105.8 122.4s-.7.8-1.2 2.9c0 0-2.9-1.6-11.8-1.5-2.6-9.1 13-1.4 13-1.4z"/><linearGradient id="SVGID_6_" gradientUnits="userSpaceOnUse" x1="87.5472" y1="73.7553" x2="116.4095" y2="119.935"><stop offset=".137" stop-color="#9fefcf"/><stop offset=".7363" stop-color="#59e3ad"/></linearGradient><path fill="url(#SVGID_6_)" d="M126.9 77.4v45H80.8V64.8h35.1z"/><text transform="translate(87.2153 97.6553)" class="st9 st3 st15">HSL</text><text transform="translate(87.2153 97.6553)" class="st5 st3 st15">HSL</text><path class="st16" d="M111.4 136.1s-10.2 4.4-10.9 4.1c-1-1.4-1-10.8 12-5.7 1.3 2.5-1.1 1.6-1.1 1.6z"/><g class="st17"><g class="st17"><defs><path id="SVGID_7_" class="st17" d="M204.8 204.2l41.7-18.3"/></defs><defs><path id="SVGID_8_" class="st17" d="M125 313.9l-85.2-37.2L169 219.8"/></defs><defs><path id="SVGID_10_" class="st17" d="M246.5 185.9l208.8 90.8-207.1 91-72.1-31.5"/></defs><clipPath id="SVGID_11_"><use xlink:href="#SVGID_7_" overflow="visible"/></clipPath><clipPath id="SVGID_12_" clip-path="url(#SVGID_11_)"><use xlink:href="#SVGID_8_" overflow="visible"/></clipPath><clipPath id="SVGID_13_" clip-path="url(#SVGID_12_)"><use xlink:href="#SVGID_9_" overflow="visible"/></clipPath><clipPath id="SVGID_14_" clip-path="url(#SVGID_13_)"><use xlink:href="#SVGID_10_" overflow="visible"/></clipPath><path class="st21" d="M254.6 189.1l201.7 88.1M142.8 321.7l-103-45 130.5-57.3M248.2 367.7l-49.9-21.8"/><use xlink:href="#SVGID_7_" overflow="visible" fill="none" stroke="#d3dbe5" stroke-width=".25" stroke-linecap="round" stroke-linejoin="round" stroke-miterlimit="10"/><use xlink:href="#SVGID_8_" overflow="visible" fill="none" stroke="#d3dbe5" stroke-width=".25" stroke-linecap="round" stroke-linejoin="round" stroke-miterlimit="10"/><use xlink:href="#SVGID_9_" overflow="visible" fill="none" stroke="#d3dbe5" stroke-width=".25" stroke-linecap="round" stroke-linejoin="round" stroke-miterlimit="10"/><use xlink:href="#SVGID_10_" overflow="visible" fill="none" stroke="#d3dbe5" stroke-width=".25" stroke-linecap="round" stroke-linejoin="round" stroke-miterlimit="10"/></g><g class="st17"><defs><path id="SVGID_15_" class="st17" d="M455.3 276.7l-.1 30.4-207.1 91 .1-30.4z"/></defs><clipPath id="SVGID_16_"><use xlink:href="#SVGID_15_" overflow="visible"/></clipPath><path class="st22" d="M408.8 327.5l-160.7 70.6.1-30.4 207.1-91-.1 30.4-42.4 18.6M412.8 325.7l-4 1.8"/><use xlink:href="#SVGID_15_" overflow="visible" fill="none" stroke="#d3dbe5" stroke-width=".25" stroke-linecap="round" stroke-linejoin="round" stroke-miterlimit="10"/></g><g class="st17"><path class="st23" d="M124.9 344.3l-85.2-37.2.1-30.4M248.1 398.1l-76.7-33.5"/></g></g><path class="st2" d="M39.8 276.7l-.1 30.4 208.4 91 .1-30.4z"/><path class="st1" d="M242 339.6c-6.2 1-13.7-4.3-20.8-5.7-1.3-.5-5.3-14.4-9-11-3.7 3.4-26.7 17.3-26.7 17.3l-3.8 28.9-5-1.9-.3-33.1 35.7-28.4 3.8-7.1v14.6c-1.6 6.1 9.4-5.1 6.1 6.9-3.4-1.8 18.9 13.8 19.3 14.2 1.3 1.1 3.1 4.9.7 5.3z"/><path class="st1" d="M225 317c-.1.6-.4 1.3-.6 2-.8 2.6-2.4 4.9-4.5 7-.9 1-1.9 1.8-3 2.7-.2-1-.3-1.9-.4-2.6-.1-1.4-.1-2.3-.1-2.3-.1-.6-.2-7.4.1-7.9 1-2.2 5-.7 8.5 1.1z"/><radialGradient id="SVGID_17_" cx="119.317" cy="422.5785" r="0" gradientUnits="userSpaceOnUse"><stop offset=".1464" stop-color="#1b375f"/><stop offset="1" stop-color="#24497e"/></radialGradient><radialGradient id="SVGID_18_" cx="138.9479" cy="411.6004" r="28.3794" gradientUnits="userSpaceOnUse"><stop offset=".1464" stop-color="#1b375f"/><stop offset="1" stop-color="#24497e"/></radialGradient><path d="M126.4 410h19.9s5.3 14.3-8.3 23.5c-6.9 4.7-11.9 12.8-20.4 15.7-2.8.9-6.3 1.4-8.3-.7-1.3-1.3-1.5-3.4-1.2-5.2s1.3-3.4 2.2-5c4.9-8.8 11.1-19.6 16.1-28.3" fill="url(#SVGID_18_)"/><radialGradient id="SVGID_19_" cx="110.4557" cy="300.589" r="60.2374" gradientTransform="matrix(.533 .8461 -.5808 .3658 226.1606 97.1694)" gradientUnits="userSpaceOnUse"><stop offset="0" stop-color="#f6f8fa"/><stop offset="1" stop-color="#dce2ea"/></radialGradient><path d="M158.9 279.8s-35.3 21.5-35.5 41.9c-.2 20.4 2.6 88.9 2.6 88.9s9.8 7.3 20.2-.6l4.2-51.3 17.7-36.1 20.2-26.3c.1 0-18.8-18.3-29.4-16.5z" fill="url(#SVGID_19_)"/><radialGradient id="SVGID_20_" cx="732.718" cy="43.5474" r="36.1185" gradientTransform="rotate(-6.12 3947.50549745 5577.3184336)" gradientUnits="userSpaceOnUse"><stop offset=".1464" stop-color="#1b375f"/><stop offset="1" stop-color="#24497e"/></radialGradient><path d="M148.3 433.2c1.4-3.9 3-7.7 5-11.3-4 9.2-9 20.6-13.1 29.9-.7 1.7-1.5 3.4-1.7 5.2-.2 1.8.3 3.8 1.7 5 2.2 1.9 5.7 1.1 8.4-.2 9.7-4.5 14.9-11.7 21.2-19.8 2.8-3.6 3.6-4.4 4.5-8.9.9-4.5-.5-13.3-4.2-15.9l-16.9 4.6" fill="url(#SVGID_20_)"/><radialGradient id="SVGID_21_" cx="720.0994" cy="-46.48" r="62.8939" gradientTransform="rotate(-6.12 3947.50549745 5577.3184336)" gradientUnits="userSpaceOnUse"><stop offset="0" stop-color="#f6f8fa"/><stop offset=".04284587" stop-color="#f3f5f8"/><stop offset=".3043" stop-color="#e2e7ee"/><stop offset=".502" stop-color="#dce2ea"/></radialGradient><path d="M171.8 300.9s-23.8 16.9-22.7 40.8c1 21 2 65.8 3.6 79.1.2 1.8 1.6 3.1 3.3 3.3 4.4.5 12.6.5 15.3-6.2l10.6-80.1s56.8-28.7 31.7-49.2c.1.1-39.2.7-41.8 12.3z" fill="url(#SVGID_21_)"/><path class="st5" d="M474.6 412.7h-53.5v-72.2l53.5 34.1z"/><linearGradient id="SVGID_22_" gradientUnits="userSpaceOnUse" x1="418.7174" y1="343.996" x2="480.2818" y2="419.6498"><stop offset=".137" stop-color="#9fefcf"/><stop offset=".7363" stop-color="#59e3ad"/></linearGradient><path fill="url(#SVGID_22_)" d="M474.6 351v57.6h-53.5v-68.1h43.3V351z"/><path class="st9" d="M428.3 344.7l2.1 5.8 2-5.8h2.2v8h-1.7v-2.2l.2-3.8-2.2 6h-1.1l-2.2-6 .2 3.8v2.2h-1.6v-8h2.1zM437.7 349.9v2.8H436v-8h3.1c.6 0 1.1.1 1.6.3.5.2.8.5 1.1.9.2.4.4.9.4 1.4 0 .8-.3 1.4-.8 1.9s-1.3.7-2.2.7h-1.5zm0-1.3h1.5c.4 0 .8-.1 1-.3.2-.2.3-.5.3-.9s-.1-.7-.3-1c-.2-.2-.6-.4-1-.4h-1.5v2.6zM447.8 349.7h.9v1.3h-.9v1.7h-1.6V351h-3.3l-.1-1 3.3-5.3h1.6v5zm-3.4 0h1.8v-2.8l-.1.2-1.7 2.6z"/><path class="st5" d="M428.3 344.7l2.1 5.8 2-5.8h2.2v8h-1.7v-2.2l.2-3.8-2.2 6h-1.1l-2.2-6 .2 3.8v2.2h-1.6v-8h2.1zM437.7 349.9v2.8H436v-8h3.1c.6 0 1.1.1 1.6.3.5.2.8.5 1.1.9.2.4.4.9.4 1.4 0 .8-.3 1.4-.8 1.9s-1.3.7-2.2.7h-1.5zm0-1.3h1.5c.4 0 .8-.1 1-.3.2-.2.3-.5.3-.9s-.1-.7-.3-1c-.2-.2-.6-.4-1-.4h-1.5v2.6zM447.8 349.7h.9v1.3h-.9v1.7h-1.6V351h-3.3l-.1-1 3.3-5.3h1.6v5zm-3.4 0h1.8v-2.8l-.1.2-1.7 2.6z"/><path class="st1" d="M157 280.3s21 24.4 60.1 12.8l3.2-1-.8-7.4-62.5-4.4z"/><path class="st1" d="M209.7 295.9c4.8 19.1-22.7 34.3-30.3 43.6 4.9-2.6 37.5-21.1 35.4-29.6 0 0 4.2-12.5 1.8-22.1-2.5-9.7-11.7-11-6.9 8.1z"/><path class="st31" d="M157.3 280.8c7 9.1 13.2 11.6 24.5 14.9 9.8 2.9 29.9 3.3 38.5-3.6"/><path class="st1" d="M248.1 335.4v.1s-.1.1-.1.2-.1.1-.2.2c-.5.4-1.4.3-2.6 0-.2-.1-.4-.1-.7-.2-.2 0-.4-.1-.6-.2-.4-.1-.9-.3-1.4-.5-1.3-.5-2.8-1.1-4.8-2-.4-.2-.7-.3-1-.5-.9-.4-1.8-.9-2.9-1.4-.1-.1-.2-.1-.3-.1l-.1-.1c3.6 4 11.4 5.4 11 7.2-.3 1.2-2.5 1.1-5.4.4h-.1-.1c-.1 0-.3-.1-.5-.1-4-1-9.1-3.1-12.2-4.9h-.1c-1.5-.8-2.5-1.5-2.9-1.9-.1 2.1 3.7 3.3 3.3 4.9-.3 1-2 1.3-5.8-.9-2.1-1.2-3.2-4.2-3.7-6.9-.2-1-.3-1.9-.4-2.6 1.2-.1 2.4-.1 3.4-.1h.1c5.9-.1 11.9.7 17.6 2.1.6.1 1.2.3 1.8.4 1 .3 2.1.6 3.1.9 1.3.4 2.6.9 3.7 1.6.5 1.1 0 1.5 0 1.5l-.4.3c1.4.9 2.3 1.8 2.3 2.6z"/><linearGradient id="SVGID_23_" gradientUnits="userSpaceOnUse" x1="216.306" y1="326.8943" x2="248.0992" y2="326.8943"><stop offset=".1718" stop-color="#ffd672"/><stop offset="1" stop-color="#f3ad5f"/></linearGradient><path d="M248.1 335.4v.1s-.1.1-.1.2-.1.1-.2.2c-.5.4-1.4.3-2.6 0-.2-.1-.4-.1-.7-.2-.2 0-.4-.1-.6-.2-.4-.1-.9-.3-1.4-.5-1.6-.6-3.3-1.4-4.8-2-.4-.2-.7-.3-1-.5-.9-.4-1.8-.9-2.9-1.4-.1-.1-.2-.1-.3-.1l-.1-.1c3.6 4 11.4 5.4 11 7.2-.3 1.2-2.5 1.1-5.4.4h-.1-.1c-.1 0-.3-.1-.5-.1-4-1-9.1-3.1-12.2-4.9h-.1c-1.5-.8-2.5-1.5-2.9-1.9-.1 2.1 3.7 3.3 3.3 4.9-.3 1-2 1.3-5.8-.9-2.1-1.2-3.2-4.2-3.7-6.9-.2-1-.3-1.9-.4-2.6-.1-1.4-.1-2.3-.1-2.3-.1-.6-.2-7.4.1-7.9 1.1-2.1 5.1-.6 8.5 1.2 2.9 1.5 5.4 3.2 5.4 3.2 12 5.6 15.2 9 15.9 10.8.5 1.1 0 1.5 0 1.5l-.4.3c1.3.8 2.2 1.7 2.2 2.5z" fill="url(#SVGID_23_)"/><path class="st13" d="M236.6 337.7c-2.7-.9-7.2-2.5-10.5-4.3h-.1c-1.1-.6-2.1-1.3-2.9-1.9 0 0-.1-1 .3-1 4.4 3.4 9.3 5.9 13.2 7.2zM245.8 332.8c-2.6-1.8-6.7-3.7-8.9-5.3 0 0 1.3-.4 8.9 5.3zM248.1 335.4v.1s-.1.1-.1.2-.1.1-.2.2c-.4.2-1.1.4-2.6 0-.2-.1-.4-.1-.7-.2-.2 0-.4-.1-.6-.2-.4-.1-.9-.3-1.4-.5-1.3-.5-2.8-1.1-4.8-2-.4-.2-.7-.3-1-.5-.9-.4-1.8-.9-2.9-1.4 0 0-.1-.1-.2-.1 1.9.8 13 5.4 14.5 4.4z"/><path class="st16" d="M215.7 320.5s3.3 6.8 12.8 3.6c5.7-2 5-10.8 5-10.8l-17.8 7.2z"/><linearGradient id="SVGID_24_" gradientUnits="userSpaceOnUse" x1="154.2705" y1="180.593" x2="197.107" y2="264.9873"><stop offset=".2355" stop-color="#4891fb"/><stop offset=".8147" stop-color="#227bfb"/></linearGradient><path d="M111.3 134.6c.7-.1 1.4.3 1.7.9 12.4 22.4 28.4 45.9 72.7 51.7 5.1 1 5.6-.5 18.8 5.1 29.7 14.6 33.7 78.2 28.5 127.8-7.4 6.6-17.2.5-17.2.5l-1.4-24.5s-10.7 7.3-32.8 3.7c-.5-.1-1.1-.2-1.7-.3-4.7-1.1-8.9-2.6-12.5-4.3h-.1c-7.3-3.4-11.3-7.7-11.8-9.6-.8-3.3 5.4-67.9 5.4-67.9-39.3-17.7-54-58-60.6-77.4-.1-.3-.1-.5.1-.8.4-1 2.6-3.8 10.9-4.9z" fill="url(#SVGID_24_)"/><g class="st34"><defs><path id="SVGID_25_" class="st34" d="M111 134.6c.7-.1 1.4.3 1.7.9 12.4 22.4 28.4 45.9 72.7 51.7 5.1 1 5.6-.5 18.8 5.1 29.7 14.6 33.7 78.2 28.5 127.8-7.4 6.6-17.2.5-17.2.5s1-29-1.1-24.5-43.7 10.9-58.9-10.6c-.8-3.3 5.2-67.9 5.2-67.9-39.3-17.7-54-58-60.6-77.4-.1-.3-.1-.5.1-.8.3-.9 2.5-3.7 10.8-4.8z"/></defs><clipPath id="SVGID_26_"><use xlink:href="#SVGID_25_" overflow="visible"/></clipPath><path class="st35" d="M143.2 249.4c10.1 1.5 19.3 8 24 17s4.9 20.3.5 29.4"/><path class="st35" d="M144.7 233.6c14.9 1.9 28.9 10.3 37.5 22.6 8.7 12.3 11.9 28.2 8.8 42.9"/><path class="st35" d="M153.4 235.5c11.7-6.3 20.6-14.4 25.3-26.8 4.7-12.4 4.7-26.5 0-39M99.6 110.1c-5.5 12.1-8.9 25.6-6.7 38.7 2.2 13.1 10.7 25.7 23.3 30.1 10.1 3.6 22.1 1.3 30.2-5.8 8.1-7 12-18.6 9.9-29.1"/><path class="st35" d="M113.2 135.8c-3.5 6.4-.9 15.3 5.4 18.9s15.3 1.2 19-5M220.9 188.5c-7.9 20.4-9 43.3-3.1 64.3s18.6 40.1 35.8 53.5"/><path class="st35" d="M233.2 265.2c-5.2-7.1-8-15.9-7.8-24.7.2-8.8 3.5-17.5 9-24.3M179.9 204.7c11.1 6.1 27.9 4.2 37.3-4.3M156 236.2c15.2 7.1 33.4 7.6 49 1.5"/></g><g opacity=".3"><path class="st37" d="M209.9 225.1c-.1-2 4.3 58.4 4.4 70.8 0 0-20.3 11.9-49.2-1.6 0-.1 49.4 8.5 44.8-69.2z"/><path class="st7" d="M150.3 212.2l-.1-.1-.9-.8"/><path class="st37" d="M161.8 209.5l-2.7 25.5 1.7-17.5c-1.5-1-32-11.2-52.3-56.1 9.6 23.3 39.5 51 50.1 50.4 2.3-.1 3.1-2.3 3.2-2.3zM205.5 202.7c-10.9-2-26.8-2.8-25.5-12.8 0-.5.5-1.7-1.8-2.4-7.2-2.2-18.7-4.8-17.9-6.5 20.1 8.6 41.4 3.3 55.1 19.8 5.1 6.8 18.8 29.1 19 82-2.6-24.5-6.3-73.1-28.9-80.1z"/></g><path d="M181.9 427.9c.1 0 .1-.1 0-.1s-.1.1 0 .1z" fill="#1b375f"/><path class="st2" d="M455.3 276.7l-.1 30.4-207.1 91 .1-30.4z"/><path d="M264.1 262.3s-7.6-130.7 61.5-167.1" fill="none" stroke="#59e3ad" stroke-width=".25" stroke-linecap="round" stroke-linejoin="round" stroke-miterlimit="10" stroke-dasharray="3,3,3,3"/><radialGradient id="SVGID_27_" cx="361.2848" cy="437.9477" r="14.5512" gradientUnits="userSpaceOnUse"><stop offset="0" stop-color="#f6f8fa"/><stop offset=".0699525" stop-color="#f3f5f8"/><stop offset=".4968" stop-color="#e2e7ee"/><stop offset=".8197" stop-color="#dce2ea"/></radialGradient><path fill="url(#SVGID_27_)" d="M353.4 427h11.3v11.3h-11.3z"/><path class="st42" d="M324.9 405.3h24v24h-24zM24.2 181.8h33.2V215H24.2z"/><radialGradient id="SVGID_28_" cx="8.3862" cy="228.5188" r="28.3638" gradientUnits="userSpaceOnUse"><stop offset="0" stop-color="#f6f8fa"/><stop offset=".0699525" stop-color="#f3f5f8"/><stop offset=".4968" stop-color="#e2e7ee"/><stop offset=".8197" stop-color="#dce2ea"/></radialGradient><path fill="url(#SVGID_28_)" d="M9.5 207.6h19.1v19.1H9.5z"/><path class="st5" d="M474.6 351h-10.2v-10.5h.1z"/><path class="st7" d="M463.7 339.6l.8.8v.1M475.6 352.1l-1-1.1"/><path class="st1" d="M109.6 117.5s3.4 1.1 3.4 4.9l-3.5-.1.1-4.8z"/><linearGradient id="SVGID_29_" gradientUnits="userSpaceOnUse" x1="106.3836" y1="118.838" x2="109.348" y2="131.0159"><stop offset=".1718" stop-color="#ffd672"/><stop offset="1" stop-color="#f3ad5f"/></linearGradient><path d="M110.4 124.6c.6-6.9-.9-8.9-1.9-8.1-.8.6 1.1 1.9-2.2 5-5.3 6.7 1.9 14.6 4 3.3" fill="url(#SVGID_29_)"/><path class="st46" d="M127.4 161.4c7.9 9.1 23.2 22 43.8 25.1"/><path class="st2" d="M350.4 140.3h2.4v56.1h-2.4z"/><path class="st47" d="M395.7 150.6v45.8h-45.3v-56h34.3z"/><path class="st48" d="M384.7 140.4v10.2h11z"/><linearGradient id="SVGID_30_" gradientUnits="userSpaceOnUse" x1="378.4146" y1="150.2062" x2="393.3051" y2="187.9643"><stop offset=".137" stop-color="#9fefcf"/><stop offset=".7363" stop-color="#59e3ad"/></linearGradient><path fill-rule="evenodd" clip-rule="evenodd" fill="url(#SVGID_30_)" d="M362 164.2h51.7v20H362z"/><g><text transform="translate(365.9809 179.7588)" class="st5 st3 st50">H.265</text><text transform="translate(365.9809 179.7588)" class="st5 st3 st50">H.265</text></g><g><path class="st2" d="M2.6 356.7h2.3v52.1H2.6z"/><path class="st47" d="M44.7 366.3v42.5H2.6v-51.9h31.9z"/><path class="st48" d="M34.5 356.9v9.4h10.2z"/><linearGradient id="SVGID_31_" gradientUnits="userSpaceOnUse" x1="28.6412" y1="365.9239" x2="42.4731" y2="400.9976"><stop offset=".137" stop-color="#9fefcf"/><stop offset=".7363" stop-color="#59e3ad"/></linearGradient><path fill-rule="evenodd" clip-rule="evenodd" fill="url(#SVGID_31_)" d="M13.4 378.9h48v18.5h-48z"/><g><text transform="translate(17.0981 393.374)" class="st5 st3 st52">H.264</text><text transform="translate(17.0981 393.374)" class="st5 st3 st52">H.264</text></g></g><path class="st8" d="M421.2 355.8h53.5"/><path class="st5" d="M126.9 77.4h-11V64.8z"/><g><circle class="st5" cx="103.9" cy="107.3" r="3.5"/><circle class="st5" cx="95.6" cy="107.3" r="2.5"/><circle class="st5" cx="89" cy="107.3" r="1.9"/><circle class="st5" cx="112.1" cy="107.3" r="2.5"/><circle class="st5" cx="118.8" cy="107.3" r="1.9"/></g><path class="st1" d="M403.1 57s3.9-18.4-6.3-25.1c0 0 16.7 9.3 9.2 27.7-2.1-1.6-2.9-2.6-2.9-2.6zM409 65.4c2.8 27.5-34.1 27.9-38.1 15.8 0 0 5.9 16 24.1 12.1 19.6-4.9 15.7-26.1 14-27.9z"/><g><defs><path id="SVGID_32_" d="M182.6 192.4s4.5 8 20.5 5.2 24.1-36.1 24.1-36.1l-4.7-28.9-14.6-8.5-30.9-.8-12.1 19.1 5.3 30.1 4.5 15.9 7.9 4z"/></defs><clipPath id="SVGID_33_"><use xlink:href="#SVGID_32_" overflow="visible"/></clipPath><g clip-path="url(#SVGID_33_)"><linearGradient id="SVGID_34_" gradientUnits="userSpaceOnUse" x1="-2396.8228" y1="7495.9697" x2="-2337.0132" y2="7495.5659" gradientTransform="rotate(72.458 3905.91245558 5587.162935)"><stop offset=".1718" stop-color="#ffd672"/><stop offset="1" stop-color="#f3ad5f"/></linearGradient><path d="M197.3 200.5l-12.8-4.7c-1.6-.6-2.4-2.5-1.7-4.1.1-.3.3-.6.4-.9 1.2-2.7 2-5.5 2.4-8.4h-.2c-1-.1-2.1-.4-3-.8-4.1-1.8-6.8-6.4-6.4-10.8.3-2.9 1.7-5.8 1-8.6-.3-1-.8-2-.6-3.1.2-1.1 1.3-1.8 2.1-2.6.3-.3.6-.7.9-1.1l.4-.6c.1-.1.1-.2.2-.3l2.9.9c-.7 2.5-.2 4.8 1.2 5.2 1 .3 2.1-.4 3-1.8.7-1.1 2.1-1.6 3.3-1.2l10 3c.4.1.9.2 1.3.1l2.4-.4c-.4 0 2.9 3 2.6 3.1l.4 4.2c.5 1.4 0 .8-.8 2.1l-2.5.4c-.4.5-.7.9-.8 1.5-.8 2.8-1.2 5.8-.3 8.6.2.5.4 1.1.8 1.6.5.7.6 1.6.4 2.5-1 3.9-1.5 8.3-1.4 12.5 0 2.8-2.7 4.6-5.2 3.7z" fill="url(#SVGID_34_)"/><linearGradient id="SVGID_35_" gradientUnits="userSpaceOnUse" x1="-2396.8564" y1="7491.5293" x2="-2334.5828" y2="7491.1084" gradientTransform="rotate(72.458 3905.91245558 5587.162935)"><stop offset=".1718" stop-color="#ffd672"/><stop offset="1" stop-color="#f3ad5f"/></linearGradient><path d="M201.2 161l-13.1-3.9c.7-2.5.2-4.8-1.2-5.3-1.4-.4-3.1 1.3-3.9 3.7l-2.9-.9c1.5-2.5 2.1-5.7 4.4-7.6v-.1c.2.1.5.2.7.4 3.7 1.7 7.8 2.5 11.9 2.4 1.5 1.7 3.6 3.2 5.9 4.3l-.1.1c-1.5 1.9-2.2 4.5-1.7 6.9z" fill="url(#SVGID_35_)"/><path class="st13" d="M185.6 162.2c2.2-.2 3.2-4.2 2.7-5.1-.5.7-.6 1.5-1.3 2.1s-1.2 1.5-2.1 1.6c-.8 0-2-1.3-1.6-.1.3.8.9 1.6 2.3 1.5z"/><path class="st56" d="M183.6 155.8c.8-2.5 2.5-4.2 3.9-3.8 1.4.4 2 2.8 1.2 5.3s-2.5 4.1-3.9 3.7c-1.4-.4-1.9-2.7-1.2-5.2z"/><path class="st9" d="M188 157.1c-.8 2.5-2.5 4.1-3.9 3.7-1.4-.4-1.9-2.7-1.2-5.2s2.5-4.2 3.9-3.7c1.5.3 2 2.6 1.2 5.2 0-.1 0 0 0 0z"/><path class="st13" d="M193.8 150.8c.8 0 1.6-.2 2.4.1.8.3 1.4.9 2 1.5.8.8 1.8 1.5 2.7 2.1.6.4 1.3.7 2 .6.7-.1 1.5-.6 1.4-1.4 0-.4-.3-.8-.6-1.1-.3-.3-.7-.4-1.1-.6-1.9-1-3.6-2.5-4.8-4.3-2.6.8-5.5.7-8-.2-.7-.3-1.4-.6-2.2-.8-.7-.2-2.7-.5-1.8.7.6.8 1.4 1.4 2.2 1.9 1.8 1 3.8 1.5 5.8 1.5zM178.6 161.6c.2.1.3.2.5.4.1.2.2.4.2.6-.1.2-.3.3-.5.3-.4.1-1.1 0-1.6-.2-.3-.4-.9-2.8-.7-3.6.4 0 .7 1.1 1 1.4.3.5.7.8 1.1 1.1zM185.7 182.5c.3-.1 5.6.3 8.7-2.7.6-.5.1 1.4-2.6 2.9s-6.1 1.5-6.1-.2zM197.5 161.4c1.3.4 2.7.9 3.9.3-3.7-1.6-7.6-2.8-11.6-3.7-.6-.1-1.5.3-.6.6.8.3 1.7.4 2.5.7 1.9.7 3.9 1.4 5.8 2.1z"/><path class="st57" d="M183 155.6c0-.1 0-.1 0 0 .8-2.5 2.5-4.2 3.9-3.8 1.4.4 2 2.8 1.2 5.3s-2.5 4.1-3.9 3.7c-1.4-.4-2-2.8-1.2-5.2z"/><path class="st13" d="M182.4 156.8c-.2-.1-.4-.2-.6-.2-.8-.3-1.7-.5-2.4-.9h-.1l.4-.5h.3c.8.2 1.6.5 2.4.8.1.2 0 .5 0 .8z"/><path class="st56" d="M179.9 154.5c-.9 2.4-2.8 4-4.1 3.5-1.4-.5-1.8-2.9-.9-5.3s2.8-4 4.1-3.5c1.5.5 1.9 2.9.9 5.3z"/><path class="st9" d="M179.3 154.6c-.9 2.4-2.7 3.9-4.1 3.4-1.4-.5-1.8-2.9-.9-5.3s2.8-4 4.1-3.5c1.4.5 1.8 2.9.9 5.4z"/><path d="M179.3 154.5c0 .1 0 .1 0 0-.9 2.4-2.8 4-4.1 3.5-1.4-.5-1.8-2.9-.9-5.3s2.8-4 4.1-3.5c1.4.5 1.8 2.9.9 5.3z" fill="#fff" stroke="#24497e" stroke-width=".25" stroke-linecap="round" stroke-linejoin="round" stroke-miterlimit="10"/><path class="st57" d="M179.3 154.6l.7.2 2.8 1.1M188 157.1l13.2 3.9 1.7.5"/><radialGradient id="SVGID_36_" cx="-2395.0669" cy="7461.4775" r="0" gradientTransform="rotate(72.458 3905.91245558 5587.162935)" gradientUnits="userSpaceOnUse"><stop offset=".1464" stop-color="#1b375f"/><stop offset="1" stop-color="#24497e"/></radialGradient><path class="st56" d="M219.7 150.3c.3 1.9-.2 3.7-1.2 4.8-.3.3-.7.6-1.1.9-1.1.6-2.5.7-3.7.2-3 .7-7.1.1-10.9-1.7-2.4-1.2-4.5-2.6-5.9-4.3-4.2.1-8.3-.8-11.9-2.5-.2-.1-.5-.2-.7-.4-4.7-2.3-8.6-7.1-7.2-12.7.8-3 3.3-5.5 6.4-6 2.7-.4 5.5.7 8.2.6 2.8 0 5.5-1.3 8.3-1 1.6.2 3.2.9 4.5 1.8 1 .7 1.8 1.5 2.8 2.2 1.1.6 2.3.8 3.4 1.2 6.3 2.3 9.7 10.2 8.9 16.6.1.1.1.3.1.3z"/><path class="st56" d="M206.1 182.9c.7-.3 1.2-.9 1.5-1.4.4-.5.7-1.1 1-1.7.6-1.1 1-2.3 1.4-3.5.8-2.3 2-4.4 3.2-6.5 1.2-2.1 2.4-4.3 3.3-6.6.9-2.3 1.5-4.8 1.4-7.4 0-.2-.2-.4-.5-.4-.2 0-.3.1-.4.2-1 .5-2.2.5-3.2.1-3 .8-8.9-.4-11.4-1.5-1.7 1.9-2.1 4.3-1.6 6.8.1.3.1.6.2 1v.1c-.2.3-.4.6-.5 1 0 .1 0 .2.2.3.1.1.3 0 .3-.1.4-1 1.6-1.5 2.6-1.3 1 .2 1.8 1.1 2.2 2.1.3 1 .2 2.2-.2 3.2-.4 1.1-1.3 1.8-2.1 2.8-.2.3-.4.5-.6.8-.2.3-.3.7-.4 1-.2.6-.3 1.2-.4 1.8-.2 1.2-.4 2.5-.3 3.8 0 1.3.3 2.5.8 3.8.3.6.6 1.2 1.3 1.7.6.3 1.5.3 2.2-.1z"/><path class="st13" d="M203.8 182.9s-3.6 18.2-12.6 15.4l11.5 4.2s-1.1-11.8 1.5-19.4l-.4-.2z"/></g><path class="st9" d="M180.3 169.6c-.2.6-1 .8-1.8.6-.9-.2-1.4-.9-1.3-1.4.2-.6.5-.3 1.4 0 .9.1 1.8.2 1.7.8z"/></g><path d="M181.9 337.9s-1.1.8-2.6 1.6c1.3 4.1-.8 23.8-1.2 27.3 0 0 3.4-24.9 3.8-28.6" opacity=".3" fill="#b3b3b3"/><path class="st61" d="M168.7 302.4s-20.5 16.7-19.7 37.2c1.7 26.7 1.8 62.7 1.8 62.7"/><path class="st1" d="M149.1 357.3c.7 32.4-5.6-23.1-2.7-31.6 3.2-9.5 14.8-21.5 22.3-23.3 0 0-17.5 16.5-18.5 27.5-1.1 11-1.1 27.4-1.1 27.4z"/><path class="st61" d="M126.8 333.5c.1-8.2-.7-14.8 2-17.3"/><path class="st31" d="M153.3 418c3.3 1.3 7 1.6 10.4.8 2.8-.7 5.5-2.1 7.6-4.1"/><path class="st31" d="M166.9 417.5c-.2-22.3.8-44.5 3.1-66.7.5-4.8 1.1-9.8 3.3-14.1 3.4-6.8 10.2-11.1 16.2-15.9 8.1-6.6 14.1-12 19.4-21M126.4 407.1c6.8 1.4 14.1 0 20-3.7"/><path class="st62" d="M403.1 282.8v-59M412.1 250.4V233M58.8 295.7v50.9M65.5 333.9v18.8M88.9 142.2c8.1 24.9 22.6 47.6 41.9 65.4M117.6 202l9.9 9.6"/><path class="st46" d="M214.9 271.2l1.4 38M217.9 299l.3 8.6"/><g><path class="st5" d="M458.4 383.4l-16.7 9.7v-19.3z"/><circle cx="447.9" cy="383.4" r="17.9" fill="none" stroke="#43aa82" stroke-width=".5" stroke-miterlimit="10"/></g></svg>