<svg xmlns="http://www.w3.org/2000/svg" xmlns:xlink="http://www.w3.org/1999/xlink" viewBox="0 0 473.15 454.19"><defs><style>.cls-1,.cls-2,.cls-27,.cls-29,.cls-3,.cls-34,.cls-38,.cls-39,.cls-4,.cls-41,.cls-42,.cls-45,.cls-46,.cls-47,.cls-5,.cls-50,.cls-55,.cls-59,.cls-60,.cls-61{fill:none;}.cls-2,.cls-3,.cls-4,.cls-42,.cls-46,.cls-47,.cls-5{stroke:#d3dbe5;}.cls-2,.cls-29,.cls-3,.cls-34,.cls-39,.cls-4,.cls-45,.cls-47,.cls-5,.cls-55,.cls-56,.cls-59,.cls-60{stroke-linecap:round;}.cls-2,.cls-3,.cls-34,.cls-39,.cls-4,.cls-45,.cls-47,.cls-5,.cls-55,.cls-56,.cls-59,.cls-60{stroke-linejoin:round;}.cls-2,.cls-27,.cls-29,.cls-3,.cls-38,.cls-39,.cls-4,.cls-41,.cls-42,.cls-45,.cls-46,.cls-47,.cls-5,.cls-50,.cls-55,.cls-56,.cls-59,.cls-60{stroke-width:0.25px;}.cls-3{clip-path:url(#clip-path);}.cls-4{clip-path:url(#clip-path-2);}.cls-5{clip-path:url(#clip-path-3);}.cls-6{isolation:isolate;}.cls-7{clip-path:url(#clip-path-4);}.cls-21,.cls-8{fill:#f6f8fa;}.cls-9{font-size:18.32px;font-family:Roboto-Bold, Roboto;font-weight:700;}.cls-10,.cls-9{fill:#d3dbe5;}.cls-11{fill:#43aa82;}.cls-12{fill:url(#Sfumatura_senza_nome_6);}.cls-13,.cls-56{fill:#fff;}.cls-14{fill:url(#Sfumatura_senza_nome_17);}.cls-15{fill:url(#Sfumatura_senza_nome_16);}.cls-16{fill:#db5437;opacity:0.24;}.cls-17{fill:url(#Sfumatura_senza_nome_6-2);}.cls-18{fill:#91bdfd;}.cls-19{clip-path:url(#clip-path-5);}.cls-20{clip-path:url(#clip-path-6);}.cls-21,.cls-35{mix-blend-mode:multiply;}.cls-22{fill:url(#Sfumatura_senza_nome_60);}.cls-23{fill:url(#Sfumatura_senza_nome_60-2);}.cls-24{fill:url(#Sfumatura_senza_nome_14);}.cls-25{fill:url(#Sfumatura_senza_nome_60-3);}.cls-26{fill:url(#Sfumatura_senza_nome_13);}.cls-27{stroke:#000;}.cls-27,.cls-29,.cls-38,.cls-41,.cls-42,.cls-46,.cls-50,.cls-61{stroke-miterlimit:10;}.cls-28{fill:url(#Sfumatura_senza_nome_6-3);}.cls-29{stroke:#a7b6cb;}.cls-30{fill:url(#Sfumatura_senza_nome_17-2);}.cls-31{fill:url(#Sfumatura_senza_nome_32);}.cls-32{opacity:0.18;}.cls-33{clip-path:url(#clip-path-7);}.cls-34{stroke:#99c3e4;}.cls-34,.cls-61{stroke-width:0.5px;}.cls-35,.cls-58{opacity:0.3;}.cls-36,.cls-58{fill:#b3b3b3;}.cls-37{fill:#1b375f;}.cls-38{stroke:#1b375f;}.cls-39,.cls-41{stroke:#59e3ad;}.cls-39{stroke-dasharray:3 3 3 3;}.cls-40{fill:url(#Sfumatura_senza_nome_11);}.cls-43{fill:url(#Sfumatura_senza_nome_11-2);}.cls-44{fill:url(#Sfumatura_senza_nome_17-3);}.cls-45{stroke:#f6f8fa;opacity:0.5;}.cls-46,.cls-47{fill-rule:evenodd;}.cls-48{fill:url(#Sfumatura_senza_nome_6-4);}.cls-49{fill:url(#Sfumatura_senza_nome_6-5);}.cls-50,.cls-61{stroke:#43aa82;}.cls-51{clip-path:url(#clip-path-8);}.cls-52{fill:url(#Sfumatura_senza_nome_17-4);}.cls-53{fill:url(#Sfumatura_senza_nome_17-5);}.cls-54{fill:#24497e;}.cls-55,.cls-56{stroke:#24497e;}.cls-57{fill:url(#Sfumatura_senza_nome_60-4);}.cls-59{stroke:#fff;}.cls-60{stroke:#b3b3b3;}</style><clipPath id="clip-path"><line class="cls-2" x1="210.75" y1="206.95" x2="252.5" y2="188.61"/></clipPath><clipPath id="clip-path-2"><polyline class="cls-3" points="131.01 316.65 45.77 279.44 174.98 222.55"/></clipPath><clipPath id="clip-path-3"><path class="cls-4" d="M148.77,324.4"/></clipPath><clipPath id="clip-path-4" transform="translate(-8.46 -11.62)"><path class="cls-1" d="M340.64,73.36c2.52-11.94,15.57-16.63,17.17-16.36-.62-2.92,4.67-13.65,15.68-10.56,0,0,.48-3.59,4.91-8.26l-.48-26.48L355.64,4.76,325.93,9.67l-.72,59.66,6,8.14S340.18,73.84,340.64,73.36Z"/></clipPath><linearGradient id="Sfumatura_senza_nome_6" x1="323" y1="3.56" x2="372.39" y2="64.25" gradientUnits="userSpaceOnUse"><stop offset="0.14" stop-color="#9fefcf"/><stop offset="0.74" stop-color="#59e3ad"/></linearGradient><linearGradient id="Sfumatura_senza_nome_17" x1="1378.7" y1="-491.94" x2="1377.73" y2="-500.55" gradientTransform="translate(-1119.77 930.53) rotate(-13.12)" gradientUnits="userSpaceOnUse"><stop offset="0.17" stop-color="#ffd672"/><stop offset="1" stop-color="#f3ad5f"/></linearGradient><linearGradient id="Sfumatura_senza_nome_16" x1="104.9" y1="123.8" x2="121.51" y2="134.02" gradientUnits="userSpaceOnUse"><stop offset="0" stop-color="#ffd672"/><stop offset="0.33" stop-color="#f9c369"/><stop offset="0.7" stop-color="#f5b362"/><stop offset="1" stop-color="#f3ad5f"/></linearGradient><linearGradient id="Sfumatura_senza_nome_6-2" x1="85.08" y1="64.85" x2="113.94" y2="111.03" xlink:href="#Sfumatura_senza_nome_6"/><clipPath id="clip-path-5" transform="translate(-8.46 -11.62)"><polyline class="cls-5" points="252.5 188.61 461.27 279.44 254.19 370.42 182.09 338.95"/></clipPath><clipPath id="clip-path-6" transform="translate(-8.46 -11.62)"><polygon class="cls-2" points="461.27 279.44 461.15 309.8 254.08 400.79 254.19 370.42 461.27 279.44"/></clipPath><radialGradient id="Sfumatura_senza_nome_60" cx="125.3" cy="425.3" r="0" gradientUnits="userSpaceOnUse"><stop offset="0.15" stop-color="#1b375f"/><stop offset="1" stop-color="#24497e"/></radialGradient><radialGradient id="Sfumatura_senza_nome_60-2" cx="144.94" cy="414.32" r="28.38" xlink:href="#Sfumatura_senza_nome_60"/><radialGradient id="Sfumatura_senza_nome_14" cx="116.44" cy="303.31" r="60.24" gradientTransform="matrix(0.53, 0.85, -0.58, 0.37, 230.54, 93.83)" gradientUnits="userSpaceOnUse"><stop offset="0" stop-color="#f6f8fa"/><stop offset="1" stop-color="#dce2ea"/></radialGradient><radialGradient id="Sfumatura_senza_nome_60-3" cx="719.79" cy="92.47" r="36.12" gradientTransform="translate(-557.29 404.5) rotate(-6.11)" xlink:href="#Sfumatura_senza_nome_60"/><radialGradient id="Sfumatura_senza_nome_13" cx="707.17" cy="2.44" r="62.89" gradientTransform="translate(-557.29 404.5) rotate(-6.11)" gradientUnits="userSpaceOnUse"><stop offset="0" stop-color="#f6f8fa"/><stop offset="0.04" stop-color="#f3f5f8"/><stop offset="0.3" stop-color="#e2e7ee"/><stop offset="0.5" stop-color="#dce2ea"/></radialGradient><linearGradient id="Sfumatura_senza_nome_6-3" x1="416.25" y1="335.09" x2="477.81" y2="410.75" xlink:href="#Sfumatura_senza_nome_6"/><linearGradient id="Sfumatura_senza_nome_17-2" x1="222.29" y1="329.61" x2="254.09" y2="329.61" gradientTransform="matrix(1, 0, 0, 1, 0, 0)" xlink:href="#Sfumatura_senza_nome_17"/><linearGradient id="Sfumatura_senza_nome_32" x1="160.26" y1="183.31" x2="203.09" y2="267.7" gradientUnits="userSpaceOnUse"><stop offset="0.24" stop-color="#4891fb"/><stop offset="0.81" stop-color="#227bfb"/></linearGradient><clipPath id="clip-path-7" transform="translate(-8.46 -11.62)"><path class="cls-1" d="M117,137.33a1.72,1.72,0,0,1,1.7.86c12.42,22.44,28.4,45.94,72.66,51.7,5.14,1,5.6-.47,18.8,5.06,29.69,14.55,33.67,78.16,28.49,127.78-7.41,6.63-17.24.53-17.24.53s1-29-1.12-24.53-43.65,10.89-58.92-10.55c-.82-3.26,5.15-67.85,5.15-67.85-39.34-17.7-54-58-60.58-77.36a.9.9,0,0,1,0-.75C106.5,141.17,108.71,138.41,117,137.33Z"/></clipPath><radialGradient id="Sfumatura_senza_nome_11" cx="358.82" cy="429.04" r="14.55" gradientUnits="userSpaceOnUse"><stop offset="0" stop-color="#f6f8fa"/><stop offset="0.07" stop-color="#f3f5f8"/><stop offset="0.5" stop-color="#e2e7ee"/><stop offset="0.82" stop-color="#dce2ea"/></radialGradient><radialGradient id="Sfumatura_senza_nome_11-2" cx="5.92" cy="219.62" r="28.36" xlink:href="#Sfumatura_senza_nome_11"/><linearGradient id="Sfumatura_senza_nome_17-3" x1="112.37" y1="121.56" x2="115.34" y2="133.73" gradientTransform="matrix(1, 0, 0, 1, 0, 0)" xlink:href="#Sfumatura_senza_nome_17"/><linearGradient id="Sfumatura_senza_nome_6-4" x1="374.51" y1="137.65" x2="391.66" y2="181.16" xlink:href="#Sfumatura_senza_nome_6"/><linearGradient id="Sfumatura_senza_nome_6-5" x1="25.09" y1="354.27" x2="40.63" y2="393.68" xlink:href="#Sfumatura_senza_nome_6"/><clipPath id="clip-path-8" transform="translate(-8.46 -11.62)"><path class="cls-1" d="M188.54,195.1s4.48,8,20.45,5.17,24.07-36.05,24.07-36.05l-4.75-28.91-14.62-8.52L182.82,126l-12.1,19.1L176,175.24l4.48,15.86Z"/></clipPath><linearGradient id="Sfumatura_senza_nome_17-4" x1="-2552.94" y1="6969.01" x2="-2493.13" y2="6968.61" gradientTransform="matrix(0.3, 0.95, -0.95, 0.3, 7606.6, 489.28)" xlink:href="#Sfumatura_senza_nome_17"/><linearGradient id="Sfumatura_senza_nome_17-5" x1="-2552.97" y1="6964.57" x2="-2490.7" y2="6964.15" gradientTransform="matrix(0.3, 0.95, -0.95, 0.3, 7606.6, 489.28)" xlink:href="#Sfumatura_senza_nome_17"/><radialGradient id="Sfumatura_senza_nome_60-4" cx="-2551.18" cy="6934.52" gradientTransform="matrix(0.3, 0.95, -0.95, 0.3, 7606.6, 489.28)" xlink:href="#Sfumatura_senza_nome_60"/></defs><title>formats</title><g class="cls-6"><g id="Layer_1" data-name="Layer 1"><g class="cls-7"><path class="cls-8" d="M373.68,54.94s-.72,4.85,1.7,6.19a27,27,0,0,1,1.06-5.68S374.61,54.32,373.68,54.94Z" transform="translate(-8.46 -11.62)"/><text class="cls-9" transform="translate(331.26 42)">VP9</text><text class="cls-9" transform="translate(331.26 42)">VP9</text><rect class="cls-10" x="357.08" y="51.4" width="3.98" height="5.61"/><rect class="cls-10" x="363.71" y="51.4" width="3.98" height="5.61"/><polygon class="cls-11" points="367.85 58.66 324.88 58.66 324.88 0.71 367.84 28.11 367.85 58.66"/><polygon class="cls-12" points="367.86 9.19 367.86 55.36 324.88 55.36 324.88 0.72 359.62 0.72 359.62 9.19 367.86 9.19"/><polygon class="cls-11" points="367.86 9.19 359.62 9.19 359.62 0.72 359.75 0.72 367.86 9.19"/><polyline class="cls-1" points="359.06 0 359.72 0.69 359.75 0.72"/><line class="cls-1" x1="368.65" y1="10.02" x2="367.86" y2="9.19"/><path class="cls-11" d="M376.4,16.33" transform="translate(-8.46 -11.62)"/><path class="cls-11" d="M333.27,16.33" transform="translate(-8.46 -11.62)"/><polygon class="cls-11" points="353.18 35.01 341.98 41.49 341.99 28.54 353.18 35.01"/><path class="cls-13" d="M340.84,23.71l1.93-6.42h2l-3,8.53h-1.84l-3-8.53h2Z" transform="translate(-8.46 -11.62)"/><path class="cls-13" d="M347.29,22.82v3h-1.76V17.29h3.33a3.92,3.92,0,0,1,1.69.35,2.6,2.6,0,0,1,1.12,1,2.8,2.8,0,0,1,.39,1.48,2.44,2.44,0,0,1-.85,2,3.56,3.56,0,0,1-2.38.73Zm0-1.43h1.57a1.53,1.53,0,0,0,1.06-.33,1.16,1.16,0,0,0,.37-.93,1.41,1.41,0,0,0-.37-1,1.39,1.39,0,0,0-1-.39h-1.61Z" transform="translate(-8.46 -11.62)"/><path class="cls-13" d="M357.05,22.41a2.12,2.12,0,0,1-1.55.65,2.32,2.32,0,0,1-1.81-.77,3.1,3.1,0,0,1-.68-2.1,3.33,3.33,0,0,1,.37-1.54,2.68,2.68,0,0,1,1-1.09,2.85,2.85,0,0,1,1.48-.39,2.66,2.66,0,0,1,1.5.43,2.71,2.71,0,0,1,1,1.21,4.5,4.5,0,0,1,.37,1.81v.63a5,5,0,0,1-1.06,3.35,4,4,0,0,1-3,1.3h-.42V24.49h.38A2.17,2.17,0,0,0,357.05,22.41Zm-1.13-.64a1.21,1.21,0,0,0,.71-.21,1.43,1.43,0,0,0,.44-.51v-.7a2.44,2.44,0,0,0-.32-1.34,1,1,0,0,0-.88-.47A1,1,0,0,0,355,19a2.21,2.21,0,0,0,0,2.31A1,1,0,0,0,355.92,21.77Z" transform="translate(-8.46 -11.62)"/><path class="cls-11" d="M340.84,23.71l1.93-6.42h2l-3,8.53h-1.84l-3-8.53h2Z" transform="translate(-8.46 -11.62)"/><path class="cls-11" d="M347.29,22.82v3h-1.76V17.29h3.33a3.92,3.92,0,0,1,1.69.35,2.6,2.6,0,0,1,1.12,1,2.8,2.8,0,0,1,.39,1.48,2.44,2.44,0,0,1-.85,2,3.56,3.56,0,0,1-2.38.73Zm0-1.43h1.57a1.53,1.53,0,0,0,1.06-.33,1.16,1.16,0,0,0,.37-.93,1.41,1.41,0,0,0-.37-1,1.39,1.39,0,0,0-1-.39h-1.61Z" transform="translate(-8.46 -11.62)"/><path class="cls-11" d="M357.05,22.41a2.12,2.12,0,0,1-1.55.65,2.32,2.32,0,0,1-1.81-.77,3.1,3.1,0,0,1-.68-2.1,3.33,3.33,0,0,1,.37-1.54,2.68,2.68,0,0,1,1-1.09,2.85,2.85,0,0,1,1.48-.39,2.66,2.66,0,0,1,1.5.43,2.71,2.71,0,0,1,1,1.21,4.5,4.5,0,0,1,.37,1.81v.63a5,5,0,0,1-1.06,3.35,4,4,0,0,1-3,1.3h-.42V24.49h.38A2.17,2.17,0,0,0,357.05,22.41Zm-1.13-.64a1.21,1.21,0,0,0,.71-.21,1.43,1.43,0,0,0,.44-.51v-.7a2.44,2.44,0,0,0-.32-1.34,1,1,0,0,0-.88-.47A1,1,0,0,0,355,19a2.21,2.21,0,0,0,0,2.31A1,1,0,0,0,355.92,21.77Z" transform="translate(-8.46 -11.62)"/><rect class="cls-11" x="329.37" y="19.62" width="5.67" height="1.92"/><rect class="cls-11" x="338.85" y="19.62" width="5.67" height="1.92"/><rect class="cls-11" x="348.33" y="19.62" width="5.67" height="1.92"/><rect class="cls-11" x="357.81" y="19.62" width="5.67" height="1.92"/><rect class="cls-11" x="329.37" y="48.54" width="5.67" height="1.92"/><rect class="cls-11" x="338.85" y="48.54" width="5.67" height="1.92"/><rect class="cls-11" x="348.33" y="48.54" width="5.67" height="1.92"/><rect class="cls-11" x="357.81" y="48.54" width="5.67" height="1.92"/></g><path class="cls-10" d="M164.82,274.7l65.92,22.18-46.21-31.15,10.75-4.88,82.55,37.61-9.62,3.7-23.44-10.85-37.35-18.05,49.41,33.28L250.48,309l-70.23-23.82,37,17.25,22.23,10.79-8.92,3.44-75.82-37.38Z" transform="translate(-8.46 -11.62)"/><path class="cls-10" d="M264.68,277.41l31.59,13.95-9.92,3.82-83.8-37.64,16.14-7.34a30.83,30.83,0,0,1,11.76-2.39,65.27,65.27,0,0,1,15.47,1.57,94.2,94.2,0,0,1,16.85,5.34c8.58,3.62,13.86,7.18,15.76,10.64s.06,6.35-5.5,8.63Zm-14.35-6.35,8.28-3.49c2.48-1,3.27-2.32,2.35-3.83s-3.43-3.14-7.51-4.89a46.8,46.8,0,0,0-11.95-3.48c-3.78-.53-6.8-.32-9.08.62l-8.09,3.59Z" transform="translate(-8.46 -11.62)"/><path class="cls-10" d="M323.82,251.3l5.82-2.39,15.89,6.24-6,2.39,21.95,8.71-10.73,4.13-21.55-8.71L308.46,270l-12.11-4.71-39.14-32.59,9.16-4.17Zm-21,8.66,11-4.52L281.1,242.25l1.43,1.09Z" transform="translate(-8.46 -11.62)"/><path class="cls-10" d="M164.82,274.7l65.92,22.18-46.21-31.15,10.75-4.88,82.55,37.61-9.62,3.7-23.44-10.85-37.35-18.05,49.41,33.28L250.48,309l-70.23-23.82,37,17.25,22.23,10.79-8.92,3.44-75.82-37.38Z" transform="translate(-8.46 -11.62)"/><path class="cls-10" d="M264.68,277.41l31.59,13.95-9.92,3.82-83.8-37.64,16.14-7.34a30.83,30.83,0,0,1,11.76-2.39,65.27,65.27,0,0,1,15.47,1.57,94.2,94.2,0,0,1,16.85,5.34c8.58,3.62,13.86,7.18,15.76,10.64s.06,6.35-5.5,8.63Zm-14.35-6.35,8.28-3.49c2.48-1,3.27-2.32,2.35-3.83s-3.43-3.14-7.51-4.89a46.8,46.8,0,0,0-11.95-3.48c-3.78-.53-6.8-.32-9.08.62l-8.09,3.59Z" transform="translate(-8.46 -11.62)"/><path class="cls-10" d="M323.82,251.3l5.82-2.39,15.89,6.24-6,2.39,21.95,8.71-10.73,4.13-21.55-8.71L308.46,270l-12.11-4.71-39.14-32.59,9.16-4.17Zm-21,8.66,11-4.52L281.1,242.25l1.43,1.09Z" transform="translate(-8.46 -11.62)"/><polyline class="cls-11" points="120.36 113.47 74.28 113.47 74.28 55.94 112.17 55.94"/><path class="cls-14" d="M107.9,143.55a34.39,34.39,0,0,0-7.37-12.36L116,129s-.91,1.88.79,8.42" transform="translate(-8.46 -11.62)"/><path class="cls-15" d="M116.39,127.31l0,.18c-1.72,9.89-11.82,9.31-15.83,3.7a9.49,9.49,0,0,1-1.36-3c-.29-1-.39-2.11-.64-3.16-.2-.85-.42-1.7-.62-2.55l17.14-3.41" transform="translate(-8.46 -11.62)"/><path class="cls-16" d="M111.76,125.09a6.32,6.32,0,0,0-1.15,2.88s-2.86-1.59-11.8-1.47C96.2,117.38,111.76,125.09,111.76,125.09Z" transform="translate(-8.46 -11.62)"/><polygon class="cls-17" points="124.44 68.48 124.44 113.47 78.37 113.47 78.37 55.94 113.41 55.94 124.44 68.48"/><path class="cls-13" d="M104,101.16h-2.94V95.05H95.33v6.11H92.39V86.9h2.94v5.78h5.73V86.9H104Z" transform="translate(-8.46 -11.62)"/><path class="cls-13" d="M109.5,98.8h6.24v2.36h-9.18V86.9h2.94Z" transform="translate(-8.46 -11.62)"/><path class="cls-13" d="M124.82,97.42a1.5,1.5,0,0,0-.59-1.28,7.63,7.63,0,0,0-2.12-.94,15,15,0,0,1-2.41-1,3.94,3.94,0,0,1-2.43-3.53,3.39,3.39,0,0,1,.65-2.06,4.21,4.21,0,0,1,1.87-1.42,7,7,0,0,1,2.74-.51,6.42,6.42,0,0,1,2.72.56,4.3,4.3,0,0,1,1.85,1.56,4.07,4.07,0,0,1,.66,2.29h-2.93a1.92,1.92,0,0,0-.62-1.52,2.5,2.5,0,0,0-1.73-.55,2.69,2.69,0,0,0-1.68.46,1.43,1.43,0,0,0-.6,1.2,1.37,1.37,0,0,0,.71,1.16,7.42,7.42,0,0,0,2.06.88,9,9,0,0,1,3.65,1.87,3.76,3.76,0,0,1,1.14,2.79,3.41,3.41,0,0,1-1.4,2.9,6.13,6.13,0,0,1-3.77,1,7.29,7.29,0,0,1-3-.6,4.7,4.7,0,0,1-2.06-1.65,4.19,4.19,0,0,1-.71-2.43h2.94c0,1.57.94,2.36,2.82,2.36a2.78,2.78,0,0,0,1.64-.42A1.41,1.41,0,0,0,124.82,97.42Z" transform="translate(-8.46 -11.62)"/><path class="cls-11" d="M104,101.16h-2.94V95.05H95.33v6.11H92.39V86.9h2.94v5.78h5.73V86.9H104Z" transform="translate(-8.46 -11.62)"/><path class="cls-11" d="M109.5,98.8h6.24v2.36h-9.18V86.9h2.94Z" transform="translate(-8.46 -11.62)"/><path class="cls-11" d="M124.82,97.42a1.5,1.5,0,0,0-.59-1.28,7.63,7.63,0,0,0-2.12-.94,15,15,0,0,1-2.41-1,3.94,3.94,0,0,1-2.43-3.53,3.39,3.39,0,0,1,.65-2.06,4.21,4.21,0,0,1,1.87-1.42,7,7,0,0,1,2.74-.51,6.42,6.42,0,0,1,2.72.56,4.3,4.3,0,0,1,1.85,1.56,4.07,4.07,0,0,1,.66,2.29h-2.93a1.92,1.92,0,0,0-.62-1.52,2.5,2.5,0,0,0-1.73-.55,2.69,2.69,0,0,0-1.68.46,1.43,1.43,0,0,0-.6,1.2,1.37,1.37,0,0,0,.71,1.16,7.42,7.42,0,0,0,2.06.88,9,9,0,0,1,3.65,1.87,3.76,3.76,0,0,1,1.14,2.79,3.41,3.41,0,0,1-1.4,2.9,6.13,6.13,0,0,1-3.77,1,7.29,7.29,0,0,1-3-.6,4.7,4.7,0,0,1-2.06-1.65,4.19,4.19,0,0,1-.71-2.43h2.94c0,1.57.94,2.36,2.82,2.36a2.78,2.78,0,0,0,1.64-.42A1.41,1.41,0,0,0,124.82,97.42Z" transform="translate(-8.46 -11.62)"/><path class="cls-18" d="M117.39,138.83s-10.17,4.41-10.88,4.13c-1-1.35-1-10.76,12-5.66C119.82,139.71,117.39,138.83,117.39,138.83Z" transform="translate(-8.46 -11.62)"/><g class="cls-6"><g class="cls-6"><g class="cls-19"><line class="cls-2" x1="252.14" y1="180.22" x2="453.82" y2="268.26"/><polyline class="cls-2" points="140.31 312.78 37.31 267.82 167.84 210.47"/><line class="cls-2" x1="245.74" y1="358.8" x2="195.88" y2="337.04"/></g><line class="cls-2" x1="202.29" y1="195.33" x2="244.05" y2="176.99"/><polyline class="cls-2" points="122.56 305.03 37.31 267.82 166.52 210.93"/><path class="cls-2" d="M148.77,324.4" transform="translate(-8.46 -11.62)"/><polyline class="cls-2" points="244.05 176.99 452.81 267.82 245.74 358.8 173.63 327.33"/></g><g class="cls-6"><g class="cls-20"><polyline class="cls-2" points="406.33 318.56 245.63 389.17 245.74 358.8 452.81 267.82 452.69 298.18 410.31 316.81"/><line class="cls-2" x1="410.31" y1="316.81" x2="406.33" y2="318.55"/></g><polygon class="cls-2" points="452.81 267.82 452.69 298.18 245.63 389.17 245.74 358.8 452.81 267.82"/></g><g class="cls-6"><polyline class="cls-2" points="122.45 335.4 37.2 298.18 37.31 267.82"/><line class="cls-2" x1="245.62" y1="389.17" x2="168.89" y2="355.67"/></g></g><polygon class="cls-10" points="37.31 267.82 37.2 298.18 245.63 389.17 245.74 358.8 37.31 267.82"/><path class="cls-21" d="M248,342.29c-6.18,1-13.7-4.33-20.79-5.74-1.32-.54-5.29-14.36-9-11s-26.73,17.33-26.73,17.33l-3.77,28.88-5-1.88-.31-33.13L218,308.35l3.84-7.08v14.55c-1.62,6.12,9.39-5.07,6.15,6.87-3.45-1.8,18.93,13.82,19.32,14.18C248.63,338.13,250.37,341.88,248,342.29Z" transform="translate(-8.46 -11.62)"/><path class="cls-21" d="M231,319.69c-.15.6-.36,1.29-.6,2a18,18,0,0,1-4.47,7,26,26,0,0,1-3,2.67c-.15-1-.27-1.86-.36-2.61-.12-1.38-.12-2.34-.12-2.34a69,69,0,0,1,.06-7.89C223.52,316.45,227.51,317.89,231,319.69Z" transform="translate(-8.46 -11.62)"/><path class="cls-22" d="M125.3,425.3" transform="translate(-8.46 -11.62)"/><path class="cls-23" d="M132.35,412.67H152.2s5.33,14.28-8.27,23.52c-6.88,4.67-11.91,12.8-20.42,15.67-2.8.95-6.31,1.42-8.34-.73A5.85,5.85,0,0,1,114,446a17.35,17.35,0,0,1,2.2-5l16.16-28.3" transform="translate(-8.46 -11.62)"/><path class="cls-24" d="M164.85,282.47S129.52,304,129.36,324.4,132,413.32,132,413.32s9.75,7.35,20.22-.65l4.24-51.25,17.7-36.11L194.35,299S175.5,280.76,164.85,282.47Z" transform="translate(-8.46 -11.62)"/><path class="cls-25" d="M154.25,436a79.7,79.7,0,0,1,5-11.35L146.2,454.46a17.11,17.11,0,0,0-1.65,5.21,5.84,5.84,0,0,0,1.71,5c2.25,1.92,5.69,1.08,8.37-.15,9.69-4.47,14.87-11.7,21.22-19.76,2.82-3.58,3.61-4.4,4.53-8.87s-.45-13.26-4.2-15.85l-16.92,4.56" transform="translate(-8.46 -11.62)"/><path class="cls-26" d="M177.78,303.64s-23.84,16.94-22.65,40.79c1,21,2,65.81,3.64,79.12a3.84,3.84,0,0,0,3.33,3.35c4.44.53,12.58.5,15.26-6.21L188,340.63s56.76-28.7,31.69-49.2C219.67,291.43,180.35,292.07,177.78,303.64Z" transform="translate(-8.46 -11.62)"/><path class="cls-27" d="M201.66,194.17" transform="translate(-8.46 -11.62)"/><path class="cls-27" d="M137.6,379.53" transform="translate(-8.46 -11.62)"/><path class="cls-27" d="M117.57,362.43" transform="translate(-8.46 -11.62)"/><polygon class="cls-11" points="472.16 403.79 418.59 403.79 418.59 331.55 472.15 365.71 472.16 403.79"/><polygon class="cls-28" points="472.17 342.12 472.17 399.67 418.6 399.67 418.6 331.56 461.9 331.56 461.9 342.12 472.17 342.12"/><path class="cls-13" d="M436,352.43l2.56,7.24,2.55-7.24h2.7v10h-2.06v-2.72L442,355l-2.7,7.43h-1.41L435.19,355l.21,4.71v2.72h-2.06v-10Z" transform="translate(-8.46 -11.62)"/><path class="cls-13" d="M447.7,358.9v3.51h-2.06v-10h3.89a4.58,4.58,0,0,1,2,.41,3.05,3.05,0,0,1,1.31,1.17,3.24,3.24,0,0,1,.46,1.73,2.86,2.86,0,0,1-1,2.31,4.22,4.22,0,0,1-2.78.85Zm0-1.67h1.83a1.85,1.85,0,0,0,1.25-.38,1.42,1.42,0,0,0,.43-1.1,1.66,1.66,0,0,0-.44-1.19,1.61,1.61,0,0,0-1.19-.46H447.7Z" transform="translate(-8.46 -11.62)"/><path class="cls-13" d="M460.34,358.66h1.13v1.59h-1.13v2.16h-2v-2.16h-4.09l-.09-1.24,4.16-6.58h2Zm-4.19,0h2.21v-3.53l-.13.23Z" transform="translate(-8.46 -11.62)"/><path class="cls-11" d="M436,352.43l2.56,7.24,2.55-7.24h2.7v10h-2.06v-2.72L442,355l-2.7,7.43h-1.41L435.19,355l.21,4.71v2.72h-2.06v-10Z" transform="translate(-8.46 -11.62)"/><path class="cls-11" d="M447.7,358.9v3.51h-2.06v-10h3.89a4.58,4.58,0,0,1,2,.41,3.05,3.05,0,0,1,1.31,1.17,3.24,3.24,0,0,1,.46,1.73,2.86,2.86,0,0,1-1,2.31,4.22,4.22,0,0,1-2.78.85Zm0-1.67h1.83a1.85,1.85,0,0,0,1.25-.38,1.42,1.42,0,0,0,.43-1.1,1.66,1.66,0,0,0-.44-1.19,1.61,1.61,0,0,0-1.19-.46H447.7Z" transform="translate(-8.46 -11.62)"/><path class="cls-11" d="M460.34,358.66h1.13v1.59h-1.13v2.16h-2v-2.16h-4.09l-.09-1.24,4.16-6.58h2Zm-4.19,0h2.21v-3.53l-.13.23Z" transform="translate(-8.46 -11.62)"/><path class="cls-21" d="M163,283s21,24.36,60.08,12.77l3.17-1-.8-7.35Z" transform="translate(-8.46 -11.62)"/><path class="cls-21" d="M215.67,298.67c4.79,19.12-22.7,34.31-30.34,43.56,4.88-2.61,37.45-21.12,35.35-29.65,0,0,4.21-12.47,1.79-22.09S210.87,279.54,215.67,298.67Z" transform="translate(-8.46 -11.62)"/><path class="cls-29" d="M163.26,283.53c7,9.12,13.22,11.56,24.47,14.88,9.81,2.89,29.9,3.27,38.54-3.57" transform="translate(-8.46 -11.62)"/><path class="cls-21" d="M254.09,338.08a.3.3,0,0,1,0,.12l-.09.18a.65.65,0,0,1-.21.18,3.47,3.47,0,0,1-2.64,0c-.18-.06-.42-.09-.66-.18a2.49,2.49,0,0,1-.63-.18c-.42-.12-.9-.27-1.44-.48a45.81,45.81,0,0,1-4.77-2l-1-.48q-1.31-.63-2.88-1.44l-.27-.15c-.06-.06-.09-.06-.12-.06,3.57,4,11.43,5.37,11,7.2-.27,1.2-2.49,1.14-5.43.42h-.06s0,0-.06,0l-.51-.15a60.61,60.61,0,0,1-12.21-4.86l-.09,0a10.25,10.25,0,0,1-2.85-1.92c-.09,2.13,3.69,3.27,3.27,5-.27,1-2,1.29-5.85-.87-2.1-1.2-3.15-4.23-3.69-6.93-.15-1-.27-1.86-.36-2.61,1.2-.09,2.43-.06,3.39-.06H226a71.28,71.28,0,0,1,17.64,2.07q.9.18,1.8.45,1.58.41,3.15.9a16.72,16.72,0,0,1,3.69,1.59c.48,1.05,0,1.53,0,1.53l-.45.27C253.19,336.43,254.09,337.33,254.09,338.08Z" transform="translate(-8.46 -11.62)"/><path class="cls-30" d="M254.09,338.08a.3.3,0,0,1,0,.12l-.09.18a.65.65,0,0,1-.21.18,3.47,3.47,0,0,1-2.64,0c-.18-.06-.42-.09-.66-.18a2.49,2.49,0,0,1-.63-.18c-.42-.12-.9-.27-1.44-.48-1.59-.6-3.3-1.35-4.77-2l-1-.48q-1.31-.63-2.88-1.44l-.27-.15c-.06-.06-.09-.06-.12-.06,3.57,4,11.43,5.37,11,7.2-.27,1.2-2.49,1.14-5.43.42h-.06s0,0-.06,0l-.51-.15a60.61,60.61,0,0,1-12.21-4.86l-.09,0a10.25,10.25,0,0,1-2.85-1.92c-.09,2.13,3.69,3.27,3.27,5-.27,1-2,1.29-5.85-.87-2.1-1.2-3.15-4.23-3.69-6.93-.15-1-.27-1.86-.36-2.61-.12-1.38-.12-2.34-.12-2.34a69,69,0,0,1,.06-7.89c1.08-2.07,5.07-.63,8.52,1.17a58.29,58.29,0,0,1,5.37,3.21c12,5.61,15.24,9,15.93,10.8.48,1.05,0,1.53,0,1.53l-.45.27C253.19,336.43,254.09,337.33,254.09,338.08Z" transform="translate(-8.46 -11.62)"/><path class="cls-16" d="M242.54,340.45a67.28,67.28,0,0,1-10.47-4.29l-.09,0a15.14,15.14,0,0,1-2.85-1.92s-.06-1,.33-1A48.22,48.22,0,0,0,242.54,340.45Z" transform="translate(-8.46 -11.62)"/><path class="cls-16" d="M251.81,335.52c-2.58-1.76-6.74-3.67-8.94-5.28C242.87,330.24,244.22,329.84,251.81,335.52Z" transform="translate(-8.46 -11.62)"/><path class="cls-16" d="M254.09,338.08a.3.3,0,0,1,0,.12l-.09.18a.65.65,0,0,1-.21.18,3.87,3.87,0,0,1-2.64,0c-.18-.06-.42-.09-.66-.18a2.49,2.49,0,0,1-.63-.18c-.42-.12-.9-.27-1.44-.48a45.81,45.81,0,0,1-4.77-2l-1-.48q-1.31-.63-2.88-1.44s-.09-.06-.15-.12C241.49,334.48,252.62,339.13,254.09,338.08Z" transform="translate(-8.46 -11.62)"/><path class="cls-18" d="M221.66,323.26s3.33,6.81,12.76,3.55c5.67-2,5-10.81,5-10.81Z" transform="translate(-8.46 -11.62)"/><path class="cls-31" d="M117.25,137.33a1.72,1.72,0,0,1,1.7.86c12.42,22.44,28.4,45.94,72.66,51.7,5.14,1,5.6-.47,18.8,5.06,29.69,14.55,33.67,78.16,28.49,127.78-7.41,6.63-17.24.53-17.24.53l-1.41-24.53s-10.71,7.25-32.79,3.71c-.54-.09-1.11-.21-1.71-.33a64.94,64.94,0,0,1-12.51-4.29.23.23,0,0,0-.12,0c-7.35-3.39-11.31-7.65-11.79-9.61-.82-3.26,5.44-67.85,5.44-67.85-39.34-17.7-54-58-60.58-77.36a.94.94,0,0,1,0-.75C106.79,141.17,109,138.41,117.25,137.33Z" transform="translate(-8.46 -11.62)"/><g class="cls-32"><g class="cls-33"><path class="cls-34" d="M149.15,252.16a32.51,32.51,0,0,1,24.51,46.39" transform="translate(-8.46 -11.62)"/><path class="cls-34" d="M150.65,236.3A54.45,54.45,0,0,1,197,301.78" transform="translate(-8.46 -11.62)"/><path class="cls-34" d="M159.38,238.19c11.69-6.3,20.64-14.4,25.3-26.83a56.09,56.09,0,0,0,0-39" transform="translate(-8.46 -11.62)"/><path class="cls-34" d="M105.62,112.83c-5.52,12.1-8.89,25.62-6.7,38.75s10.73,25.67,23.28,30.07a30.56,30.56,0,0,0,40.09-34.89" transform="translate(-8.46 -11.62)"/><path class="cls-34" d="M119.16,138.47c-3.48,6.37-.94,15.31,5.37,18.89s15.29,1.2,19-5" transform="translate(-8.46 -11.62)"/><path class="cls-34" d="M226.87,191.18A102.63,102.63,0,0,0,259.53,309" transform="translate(-8.46 -11.62)"/><path class="cls-34" d="M239.14,267.94A39.73,39.73,0,0,1,240.35,219" transform="translate(-8.46 -11.62)"/><path class="cls-34" d="M185.89,207.41c11.08,6.12,27.93,4.19,37.34-4.26" transform="translate(-8.46 -11.62)"/><path class="cls-34" d="M162,238.89a63.08,63.08,0,0,0,49,1.53" transform="translate(-8.46 -11.62)"/></g></g><g class="cls-35"><path class="cls-36" d="M215.89,227.77c-.12-2,4.32,58.36,4.36,70.77,0,0-20.25,11.9-49.17-1.62C171.08,296.92,220.5,305.53,215.89,227.77Z" transform="translate(-8.46 -11.62)"/><polyline class="cls-1" points="147.84 203.28 147.81 203.28 147.72 203.19 146.88 202.35"/><path class="cls-36" d="M167.8,212.2l-2.66,25.49,1.73-17.53c-1.5-1-32-11.19-52.35-56.11,9.58,23.33,39.5,51,50.07,50.44C166.84,214.38,167.71,212.18,167.8,212.2Z" transform="translate(-8.46 -11.62)"/><path class="cls-36" d="M211.47,205.41c-10.92-2-26.77-2.79-25.48-12.75,0-.55.49-1.68-1.81-2.38-7.2-2.19-18.68-4.84-17.91-6.53,20.12,8.63,41.39,3.35,55.09,19.8,5.13,6.8,18.81,29.08,19,82C237.74,261,234.06,212.45,211.47,205.41Z" transform="translate(-8.46 -11.62)"/></g><path class="cls-37" d="M187.85,430.59a.06.06,0,0,0,0-.11.06.06,0,0,0,0,.11Z" transform="translate(-8.46 -11.62)"/><path class="cls-38" d="M226.49,319.57" transform="translate(-8.46 -11.62)"/><polygon class="cls-10" points="452.81 267.82 452.69 298.18 245.63 389.17 245.74 358.8 452.81 267.82"/><path class="cls-39" d="M270.13,265.05S262.5,134.32,331.62,98" transform="translate(-8.46 -11.62)"/><rect class="cls-40" x="350.88" y="418.09" width="11.28" height="11.28"/><rect class="cls-41" x="322.4" y="396.35" width="24.01" height="24.01"/><path class="cls-36" d="M188.44,191" transform="translate(-8.46 -11.62)"/><path class="cls-42" d="M383.84,245.68" transform="translate(-8.46 -11.62)"/><rect class="cls-41" x="21.69" y="172.88" width="33.24" height="33.24"/><rect class="cls-43" x="7.06" y="198.71" width="19.07" height="19.07"/><polygon class="cls-11" points="472.17 342.12 461.9 342.12 461.9 331.56 462.06 331.56 472.17 342.12"/><polyline class="cls-1" points="461.2 330.66 462.02 331.52 462.06 331.56"/><line class="cls-1" x1="473.15" y1="343.15" x2="472.17" y2="342.12"/><path class="cls-21" d="M115.57,120.17a5.25,5.25,0,0,1,3.45,4.9l-3.51-.06Z" transform="translate(-8.46 -11.62)"/><path class="cls-44" d="M116.39,127.31c.64-6.86-.88-8.87-1.86-8.11s1,1.89-2.2,5c-5.32,6.7,2,14.64,4,3.34" transform="translate(-8.46 -11.62)"/><path class="cls-45" d="M133.43,164.14c7.86,9.09,23.23,22,43.84,25.07" transform="translate(-8.46 -11.62)"/><rect class="cls-10" x="347.91" y="131.41" width="2.45" height="56.14"/><polygon class="cls-46" points="393.25 141.74 393.25 187.45 347.9 187.45 347.9 131.54 382.2 131.54 393.25 141.74"/><polygon class="cls-47" points="382.2 131.54 382.2 141.74 393.25 141.74 382.2 131.54"/><rect class="cls-48" x="355.61" y="153.77" width="59.57" height="23"/><path class="cls-11" d="M382.31,182.48H380v-4.91h-4.6v4.91H373V171h2.36v4.64H380V171h2.36Z" transform="translate(-8.46 -11.62)"/><path class="cls-11" d="M384.33,181.36a1.17,1.17,0,0,1,.37-.88,1.31,1.31,0,0,1,.91-.34,1.33,1.33,0,0,1,.93.34,1.16,1.16,0,0,1,.36.88,1.12,1.12,0,0,1-.36.87,1.32,1.32,0,0,1-.93.33,1.29,1.29,0,0,1-.91-.33A1.1,1.1,0,0,1,384.33,181.36Z" transform="translate(-8.46 -11.62)"/><path class="cls-11" d="M396.64,182.48H388.8v-1.56l3.7-3.95a8.79,8.79,0,0,0,1.13-1.45,2.38,2.38,0,0,0,.37-1.18,1.73,1.73,0,0,0-.39-1.2,1.39,1.39,0,0,0-1.1-.43,1.47,1.47,0,0,0-1.21.53,2.06,2.06,0,0,0-.45,1.39h-2.28a3.78,3.78,0,0,1,.5-1.91,3.4,3.4,0,0,1,1.41-1.35,4.28,4.28,0,0,1,2.07-.5,4.11,4.11,0,0,1,2.75.85,3,3,0,0,1,1,2.4,3.88,3.88,0,0,1-.43,1.73,9.84,9.84,0,0,1-1.51,2.05l-2.61,2.74h4.92Z" transform="translate(-8.46 -11.62)"/><path class="cls-11" d="M404.2,170.91v1.87H404a3.86,3.86,0,0,0-2.48.81,3.24,3.24,0,0,0-1.13,2.16,3.1,3.1,0,0,1,2.3-.93,2.93,2.93,0,0,1,2.38,1.07,4.31,4.31,0,0,1,.88,2.81,4.11,4.11,0,0,1-.49,2,3.36,3.36,0,0,1-1.36,1.41,3.93,3.93,0,0,1-2,.5,3.69,3.69,0,0,1-2.92-1.25A4.86,4.86,0,0,1,398,178v-.82a7.34,7.34,0,0,1,.71-3.29,5.15,5.15,0,0,1,2-2.21,5.94,5.94,0,0,1,3.05-.79ZM402,176.65a1.83,1.83,0,0,0-1,.29,1.74,1.74,0,0,0-.66.76v.69a3,3,0,0,0,.45,1.77,1.45,1.45,0,0,0,1.26.64,1.43,1.43,0,0,0,1.18-.57,2.74,2.74,0,0,0,0-3A1.5,1.5,0,0,0,402,176.65Z" transform="translate(-8.46 -11.62)"/><path class="cls-11" d="M407.61,176.85l.66-5.82h6.42v1.89h-4.56l-.28,2.47a3.61,3.61,0,0,1,1.72-.44,3.31,3.31,0,0,1,2.57,1,4.08,4.08,0,0,1,.92,2.84,4.16,4.16,0,0,1-.46,2,3.31,3.31,0,0,1-1.34,1.36,4.24,4.24,0,0,1-2.06.48,4.43,4.43,0,0,1-1.93-.42,3.38,3.38,0,0,1-1.4-1.18,3.18,3.18,0,0,1-.55-1.74h2.25a1.7,1.7,0,0,0,.5,1.12,1.59,1.59,0,0,0,1.12.39,1.37,1.37,0,0,0,1.18-.55,2.55,2.55,0,0,0,.42-1.57,2.1,2.1,0,0,0-.48-1.49,1.74,1.74,0,0,0-1.36-.52,2,2,0,0,0-1.31.42l-.22.21Z" transform="translate(-8.46 -11.62)"/><path class="cls-11" d="M382.31,182.48H380v-4.91h-4.6v4.91H373V171h2.36v4.64H380V171h2.36Z" transform="translate(-8.46 -11.62)"/><path class="cls-11" d="M384.33,181.36a1.17,1.17,0,0,1,.37-.88,1.31,1.31,0,0,1,.91-.34,1.33,1.33,0,0,1,.93.34,1.16,1.16,0,0,1,.36.88,1.12,1.12,0,0,1-.36.87,1.32,1.32,0,0,1-.93.33,1.29,1.29,0,0,1-.91-.33A1.1,1.1,0,0,1,384.33,181.36Z" transform="translate(-8.46 -11.62)"/><path class="cls-11" d="M396.64,182.48H388.8v-1.56l3.7-3.95a8.79,8.79,0,0,0,1.13-1.45,2.38,2.38,0,0,0,.37-1.18,1.73,1.73,0,0,0-.39-1.2,1.39,1.39,0,0,0-1.1-.43,1.47,1.47,0,0,0-1.21.53,2.06,2.06,0,0,0-.45,1.39h-2.28a3.78,3.78,0,0,1,.5-1.91,3.4,3.4,0,0,1,1.41-1.35,4.28,4.28,0,0,1,2.07-.5,4.11,4.11,0,0,1,2.75.85,3,3,0,0,1,1,2.4,3.88,3.88,0,0,1-.43,1.73,9.84,9.84,0,0,1-1.51,2.05l-2.61,2.74h4.92Z" transform="translate(-8.46 -11.62)"/><path class="cls-11" d="M404.2,170.91v1.87H404a3.86,3.86,0,0,0-2.48.81,3.24,3.24,0,0,0-1.13,2.16,3.1,3.1,0,0,1,2.3-.93,2.93,2.93,0,0,1,2.38,1.07,4.31,4.31,0,0,1,.88,2.81,4.11,4.11,0,0,1-.49,2,3.36,3.36,0,0,1-1.36,1.41,3.93,3.93,0,0,1-2,.5,3.69,3.69,0,0,1-2.92-1.25A4.86,4.86,0,0,1,398,178v-.82a7.34,7.34,0,0,1,.71-3.29,5.15,5.15,0,0,1,2-2.21,5.94,5.94,0,0,1,3.05-.79ZM402,176.65a1.83,1.83,0,0,0-1,.29,1.74,1.74,0,0,0-.66.76v.69a3,3,0,0,0,.45,1.77,1.45,1.45,0,0,0,1.26.64,1.43,1.43,0,0,0,1.18-.57,2.74,2.74,0,0,0,0-3A1.5,1.5,0,0,0,402,176.65Z" transform="translate(-8.46 -11.62)"/><path class="cls-11" d="M407.61,176.85l.66-5.82h6.42v1.89h-4.56l-.28,2.47a3.61,3.61,0,0,1,1.72-.44,3.31,3.31,0,0,1,2.57,1,4.08,4.08,0,0,1,.92,2.84,4.16,4.16,0,0,1-.46,2,3.31,3.31,0,0,1-1.34,1.36,4.24,4.24,0,0,1-2.06.48,4.43,4.43,0,0,1-1.93-.42,3.38,3.38,0,0,1-1.4-1.18,3.18,3.18,0,0,1-.55-1.74h2.25a1.7,1.7,0,0,0,.5,1.12,1.59,1.59,0,0,0,1.12.39,1.37,1.37,0,0,0,1.18-.55,2.55,2.55,0,0,0,.42-1.57,2.1,2.1,0,0,0-.48-1.49,1.74,1.74,0,0,0-1.36-.52,2,2,0,0,0-1.31.42l-.22.21Z" transform="translate(-8.46 -11.62)"/><rect class="cls-10" x="0.13" y="347.83" width="2.28" height="52.15"/><polygon class="cls-46" points="42.24 357.43 42.24 399.88 0.13 399.89 0.13 347.95 31.98 347.95 42.24 357.43"/><polygon class="cls-47" points="31.98 347.95 31.98 357.43 42.25 357.43 31.98 347.95"/><rect class="cls-49" x="7.97" y="368.87" width="53.96" height="20.83"/><path class="cls-11" d="M32.69,396.09H30.5v-4.55H26.23v4.55H24V385.46h2.2v4.31H30.5v-4.31h2.19Z" transform="translate(-8.46 -11.62)"/><path class="cls-11" d="M34.57,395.05a1.08,1.08,0,0,1,.34-.81,1.3,1.3,0,0,1,1.71,0,1,1,0,0,1,.34.81,1,1,0,0,1-.34.81,1.33,1.33,0,0,1-1.71,0A1,1,0,0,1,34.57,395.05Z" transform="translate(-8.46 -11.62)"/><path class="cls-11" d="M46,396.09H38.72v-1.44L42.16,391a9.32,9.32,0,0,0,1.05-1.35,2.22,2.22,0,0,0,.34-1.1,1.61,1.61,0,0,0-.36-1.11,1.3,1.3,0,0,0-1-.41,1.39,1.39,0,0,0-1.13.5,1.92,1.92,0,0,0-.41,1.29H38.51A3.49,3.49,0,0,1,39,387a3.25,3.25,0,0,1,1.31-1.26,4.06,4.06,0,0,1,1.92-.46,3.78,3.78,0,0,1,2.55.79,2.79,2.79,0,0,1,.91,2.23,3.61,3.61,0,0,1-.4,1.61,9,9,0,0,1-1.41,1.9l-2.41,2.55H46Z" transform="translate(-8.46 -11.62)"/><path class="cls-11" d="M53,385.35v1.74h-.2a3.56,3.56,0,0,0-2.3.74,3,3,0,0,0-1.05,2,2.89,2.89,0,0,1,2.14-.86,2.7,2.7,0,0,1,2.2,1,4,4,0,0,1,.82,2.62,3.89,3.89,0,0,1-.45,1.87,3.21,3.21,0,0,1-1.27,1.31,3.72,3.72,0,0,1-1.86.47,3.44,3.44,0,0,1-2.71-1.17,4.53,4.53,0,0,1-1-3.12v-.76a6.74,6.74,0,0,1,.65-3.05,4.81,4.81,0,0,1,1.88-2.06,5.57,5.57,0,0,1,2.83-.73ZM51,390.68A1.64,1.64,0,0,0,50,391a1.62,1.62,0,0,0-.62.7v.64a2.79,2.79,0,0,0,.42,1.65,1.35,1.35,0,0,0,1.17.6,1.33,1.33,0,0,0,1.1-.54,2.19,2.19,0,0,0,.42-1.39,2.15,2.15,0,0,0-.43-1.4A1.38,1.38,0,0,0,51,390.68Z" transform="translate(-8.46 -11.62)"/><path class="cls-11" d="M62.12,392.09h1.21v1.7H62.12v2.3H60v-2.3H55.65l-.09-1.33,4.43-7h2.13Zm-4.46,0H60v-3.75l-.14.24Z" transform="translate(-8.46 -11.62)"/><path class="cls-11" d="M32.69,396.09H30.5v-4.55H26.23v4.55H24V385.46h2.2v4.31H30.5v-4.31h2.19Z" transform="translate(-8.46 -11.62)"/><path class="cls-11" d="M34.57,395.05a1.08,1.08,0,0,1,.34-.81,1.3,1.3,0,0,1,1.71,0,1,1,0,0,1,.34.81,1,1,0,0,1-.34.81,1.33,1.33,0,0,1-1.71,0A1,1,0,0,1,34.57,395.05Z" transform="translate(-8.46 -11.62)"/><path class="cls-11" d="M46,396.09H38.72v-1.44L42.16,391a9.32,9.32,0,0,0,1.05-1.35,2.22,2.22,0,0,0,.34-1.1,1.61,1.61,0,0,0-.36-1.11,1.3,1.3,0,0,0-1-.41,1.39,1.39,0,0,0-1.13.5,1.92,1.92,0,0,0-.41,1.29H38.51A3.49,3.49,0,0,1,39,387a3.25,3.25,0,0,1,1.31-1.26,4.06,4.06,0,0,1,1.92-.46,3.78,3.78,0,0,1,2.55.79,2.79,2.79,0,0,1,.91,2.23,3.61,3.61,0,0,1-.4,1.61,9,9,0,0,1-1.41,1.9l-2.41,2.55H46Z" transform="translate(-8.46 -11.62)"/><path class="cls-11" d="M53,385.35v1.74h-.2a3.56,3.56,0,0,0-2.3.74,3,3,0,0,0-1.05,2,2.89,2.89,0,0,1,2.14-.86,2.7,2.7,0,0,1,2.2,1,4,4,0,0,1,.82,2.62,3.89,3.89,0,0,1-.45,1.87,3.21,3.21,0,0,1-1.27,1.31,3.72,3.72,0,0,1-1.86.47,3.44,3.44,0,0,1-2.71-1.17,4.53,4.53,0,0,1-1-3.12v-.76a6.74,6.74,0,0,1,.65-3.05,4.81,4.81,0,0,1,1.88-2.06,5.57,5.57,0,0,1,2.83-.73ZM51,390.68A1.64,1.64,0,0,0,50,391a1.62,1.62,0,0,0-.62.7v.64a2.79,2.79,0,0,0,.42,1.65,1.35,1.35,0,0,0,1.17.6,1.33,1.33,0,0,0,1.1-.54,2.19,2.19,0,0,0,.42-1.39,2.15,2.15,0,0,0-.43-1.4A1.38,1.38,0,0,0,51,390.68Z" transform="translate(-8.46 -11.62)"/><path class="cls-11" d="M62.12,392.09h1.21v1.7H62.12v2.3H60v-2.3H55.65l-.09-1.33,4.43-7h2.13Zm-4.46,0H60v-3.75l-.14.24Z" transform="translate(-8.46 -11.62)"/><path class="cls-50" d="M480.65,364.5" transform="translate(-8.46 -11.62)"/><path class="cls-50" d="M427.17,364.5" transform="translate(-8.46 -11.62)"/><polygon class="cls-11" points="124.42 68.49 113.47 68.49 113.47 55.86 124.42 68.49"/><circle class="cls-11" cx="101.39" cy="99.43" r="2.5"/><circle class="cls-11" cx="95.42" cy="99.43" r="1.83"/><circle class="cls-11" cx="90.59" cy="99.43" r="1.36"/><circle class="cls-11" cx="107.39" cy="99.43" r="1.83"/><circle class="cls-11" cx="112.22" cy="99.43" r="1.36"/><path class="cls-8" d="M409.08,59.72s3.87-18.36-6.3-25.06c0,0,16.66,9.3,9.19,27.74A22,22,0,0,1,409.08,59.72Z" transform="translate(-8.46 -11.62)"/><path class="cls-8" d="M415,68.16c2.85,27.47-34.1,27.92-38.06,15.77,0,0,5.91,16,24.07,12.14C420.62,91.07,416.66,69.94,415,68.16Z" transform="translate(-8.46 -11.62)"/><g class="cls-51"><path class="cls-52" d="M203.3,203.25l-12.82-4.66a3,3,0,0,1-1.66-4.06c.14-.3.28-.6.41-.9a33.52,33.52,0,0,0,2.44-8.39v0h-.2a9.88,9.88,0,0,1-3-.81,11.07,11.07,0,0,1-6.38-10.84c.26-2.93,1.7-5.84,1-8.65-.26-1-.8-2-.55-3s1.32-1.79,2.12-2.56a6.64,6.64,0,0,0,.89-1.08l.38-.57a1.67,1.67,0,0,0,.17-.26l2.89.88c-.72,2.46-.19,4.79,1.22,5.21,1,.3,2.13-.44,3-1.78a2.94,2.94,0,0,1,3.31-1.2l10,3a2.89,2.89,0,0,0,1.34.08l2.36-.39c-.35,0,2.89,3,2.59,3.14l.43,4.16c.52,1.42,0,.79-.83,2.05l-2.54.44a4.37,4.37,0,0,0-.84,1.47c-.77,2.79-1.23,5.8-.34,8.61a5,5,0,0,0,.77,1.55,2.81,2.81,0,0,1,.38,2.46,46.13,46.13,0,0,0-1.41,12.53A3.8,3.8,0,0,1,203.3,203.25Z" transform="translate(-8.46 -11.62)"/><path class="cls-53" d="M207.15,163.71,194,159.79v0c.75-2.49.21-4.84-1.2-5.27s-3.14,1.26-3.89,3.75c0,0,0,0,0,0l-2.9-.86c1.49-2.54,2.12-5.74,4.4-7.61l0-.08.72.36a26.62,26.62,0,0,0,11.91,2.41v0a17.87,17.87,0,0,0,5.88,4.29l-.05.12A8.19,8.19,0,0,0,207.15,163.71Z" transform="translate(-8.46 -11.62)"/><path class="cls-16" d="M191.63,164.94c2.16-.24,3.16-4.21,2.66-5.07-.52.69-.65,1.53-1.33,2.11s-1.17,1.51-2.07,1.57-2-1.27-1.59-.12A2.09,2.09,0,0,0,191.63,164.94Z" transform="translate(-8.46 -11.62)"/><path class="cls-54" d="M189.56,158.5s0,0,0,0c.74-2.49,2.48-4.16,3.88-3.75s1.95,2.78,1.21,5.27l0,0c-.75,2.46-2.48,4.11-3.88,3.7S188.84,161,189.56,158.5Z" transform="translate(-8.46 -11.62)"/><path class="cls-13" d="M194,159.79c-.76,2.46-2.48,4.11-3.88,3.7s-1.93-2.75-1.21-5.22c0,0,0,0,0,0,.75-2.49,2.49-4.16,3.89-3.75s1.95,2.78,1.2,5.27Z" transform="translate(-8.46 -11.62)"/><path class="cls-16" d="M199.78,153.49a6.38,6.38,0,0,1,2.35.09,5.71,5.71,0,0,1,2,1.51,15.79,15.79,0,0,0,2.75,2.06,3.73,3.73,0,0,0,2,.64,1.49,1.49,0,0,0,1.44-1.36,1.59,1.59,0,0,0-.63-1.1,6,6,0,0,0-1.13-.64,12,12,0,0,1-4.75-4.33,12.52,12.52,0,0,1-8-.23c-.74-.28-1.45-.63-2.2-.83s-2.71-.45-1.79.74a8.42,8.42,0,0,0,2.24,1.92A10.15,10.15,0,0,0,199.78,153.49Z" transform="translate(-8.46 -11.62)"/><path class="cls-16" d="M184.62,164.31a2.27,2.27,0,0,1,.45.37.71.71,0,0,1,.17.58.58.58,0,0,1-.48.34,3.77,3.77,0,0,1-1.55-.18,8.57,8.57,0,0,1-.73-3.56c.37,0,.71,1.11,1,1.4A5.56,5.56,0,0,0,184.62,164.31Z" transform="translate(-8.46 -11.62)"/><path class="cls-16" d="M191.66,185.24c.34-.07,5.57.29,8.71-2.67.63-.52.06,1.44-2.64,2.93S191.64,186.89,191.66,185.24Z" transform="translate(-8.46 -11.62)"/><path class="cls-16" d="M203.51,164.07c1.27.44,2.69.89,3.91.32a63.12,63.12,0,0,0-11.57-3.7c-.57-.13-1.47.26-.63.61s1.68.45,2.47.72Z" transform="translate(-8.46 -11.62)"/><path class="cls-55" d="M188.94,158.27s0,0,0,0c.75-2.49,2.49-4.16,3.89-3.75s1.95,2.78,1.2,5.27v0c-.76,2.46-2.48,4.11-3.88,3.7S188.22,160.74,188.94,158.27Z" transform="translate(-8.46 -11.62)"/><path class="cls-16" d="M188.39,159.53l-.55-.25c-.77-.32-1.69-.52-2.4-.89l-.08,0,.42-.55a1.09,1.09,0,0,1,.32,0c.82.23,1.64.49,2.44.77A9,9,0,0,0,188.39,159.53Z" transform="translate(-8.46 -11.62)"/><path class="cls-54" d="M185.93,157.23s0,0,0,0c-.92,2.4-2.75,3.93-4.11,3.43s-1.76-2.9-.85-5.34,2.75-4,4.13-3.47S186.84,154.79,185.93,157.23Z" transform="translate(-8.46 -11.62)"/><path class="cls-13" d="M185.26,157.3c-.92,2.4-2.75,3.93-4.11,3.43s-1.76-2.9-.85-5.33,2.75-4,4.13-3.48,1.75,2.9.84,5.34C185.27,157.27,185.26,157.29,185.26,157.3Z" transform="translate(-8.46 -11.62)"/><path class="cls-56" d="M185.27,157.26s0,0,0,0c-.92,2.4-2.75,3.93-4.11,3.43s-1.76-2.9-.85-5.33,2.75-4,4.13-3.48S186.18,154.82,185.27,157.26Z" transform="translate(-8.46 -11.62)"/><polyline class="cls-55" points="176.8 145.68 177.5 145.94 180.34 147"/><polyline class="cls-55" points="185.57 148.17 198.7 152.09 200.4 152.6"/><path class="cls-57" d="M225.64,146.46" transform="translate(-8.46 -11.62)"/><path class="cls-54" d="M225.66,153.07a5.87,5.87,0,0,1-1.18,4.78,3.85,3.85,0,0,1-1.1.86,4.33,4.33,0,0,1-3.7.24c-3,.73-7.06.09-10.88-1.73a18.42,18.42,0,0,1-5.91-4.29A27.13,27.13,0,0,1,191,150.48l-.73-.36c-4.7-2.34-8.61-7.15-7.16-12.69a8.24,8.24,0,0,1,6.38-6c2.72-.43,5.45.69,8.2.65s5.51-1.28,8.29-1a9.37,9.37,0,0,1,4.55,1.83c1,.7,1.81,1.55,2.83,2.17a18.3,18.3,0,0,0,3.41,1.17c6.34,2.31,9.66,10.2,8.92,16.56A1.35,1.35,0,0,0,225.66,153.07Z" transform="translate(-8.46 -11.62)"/><path class="cls-54" d="M212,185.65a4.1,4.1,0,0,0,1.52-1.42,10.18,10.18,0,0,0,1-1.65,36.8,36.8,0,0,0,1.38-3.47,42.59,42.59,0,0,1,3.15-6.53,56.08,56.08,0,0,0,3.35-6.61,18.28,18.28,0,0,0,1.37-7.36.45.45,0,0,0-.46-.43.46.46,0,0,0-.37.24,3.89,3.89,0,0,1-3.24.06c-3,.78-8.89-.41-11.39-1.5a7.7,7.7,0,0,0-1.6,6.81,6.46,6.46,0,0,0,.24,1l0,.06a2.38,2.38,0,0,0-.51,1,.25.25,0,0,0,.48.15h0a2.37,2.37,0,0,1,2.6-1.34,3,3,0,0,1,2.16,2.08,4.59,4.59,0,0,1-.24,3.21,11,11,0,0,1-2.12,2.81,5.11,5.11,0,0,0-.56.84,4.12,4.12,0,0,0-.36,1c-.16.6-.31,1.21-.43,1.82a16.91,16.91,0,0,0-.34,3.77,10.63,10.63,0,0,0,.77,3.78,3.53,3.53,0,0,0,1.34,1.66A2.44,2.44,0,0,0,212,185.65Z" transform="translate(-8.46 -11.62)"/><path class="cls-16" d="M209.78,185.61s-3.55,18.15-12.6,15.41l11.49,4.18s-1.11-11.79,1.49-19.42Z" transform="translate(-8.46 -11.62)"/></g><path class="cls-13" d="M186.28,172.28c-.16.56-1,.83-1.83.59s-1.41-.89-1.25-1.45.54-.27,1.39,0S186.44,171.72,186.28,172.28Z" transform="translate(-8.46 -11.62)"/><path class="cls-58" d="M187.92,340.67s-1.12.76-2.59,1.56c1.35,4.11-.77,23.85-1.22,27.26,0,0,3.44-24.92,3.81-28.62" transform="translate(-8.46 -11.62)"/><path class="cls-59" d="M174.65,305.14S154.13,321.8,155,342.3C156.7,369,156.75,405,156.75,405" transform="translate(-8.46 -11.62)"/><path class="cls-21" d="M155.08,360c.72,32.38-5.58-23.11-2.73-31.61,3.19-9.53,14.84-21.46,22.3-23.29,0,0-17.5,16.45-18.55,27.45S155.08,360,155.08,360Z" transform="translate(-8.46 -11.62)"/><path class="cls-59" d="M132.74,336.22c.12-8.19-.68-14.83,2-17.34" transform="translate(-8.46 -11.62)"/><path class="cls-29" d="M159.29,420.76a16.88,16.88,0,0,0,18-3.33" transform="translate(-8.46 -11.62)"/><path class="cls-29" d="M172.92,420.18a591.88,591.88,0,0,1,3.08-66.7c.5-4.84,1.09-9.79,3.28-14.13,3.44-6.81,10.24-11.11,16.16-15.91,8.14-6.58,14.06-12,19.38-21" transform="translate(-8.46 -11.62)"/><path class="cls-29" d="M132.42,409.81a27.56,27.56,0,0,0,20-3.71" transform="translate(-8.46 -11.62)"/><line class="cls-60" x1="400.64" y1="273.92" x2="400.64" y2="214.92"/><line class="cls-60" x1="409.64" y1="241.49" x2="409.64" y2="224.08"/><line class="cls-60" x1="56.33" y1="286.78" x2="56.33" y2="337.73"/><line class="cls-60" x1="63.03" y1="324.99" x2="63.03" y2="343.76"/><path class="cls-60" d="M94.86,144.94a154.15,154.15,0,0,0,41.86,65.36" transform="translate(-8.46 -11.62)"/><path class="cls-60" d="M123.59,204.76l9.86,9.55" transform="translate(-8.46 -11.62)"/><path class="cls-11" d="M480.73,348.15" transform="translate(-8.46 -11.62)"/><path class="cls-11" d="M427,348.15" transform="translate(-8.46 -11.62)"/><path class="cls-11" d="M476.35,157.54" transform="translate(-8.46 -11.62)"/><line class="cls-45" x1="212.4" y1="262.26" x2="213.82" y2="300.29"/><line class="cls-45" x1="215.44" y1="290.13" x2="215.76" y2="298.67"/><polygon class="cls-11" points="455.43 376.53 439.58 385.7 439.58 367.37 455.43 376.53"/><circle class="cls-61" cx="445.38" cy="376.54" r="17.04"/></g></g></svg>