<svg xmlns="http://www.w3.org/2000/svg" xmlns:xlink="http://www.w3.org/1999/xlink" viewBox="0 0 289.14 344.37"><defs><style>.cls-1,.cls-24,.cls-30,.cls-33,.cls-34,.cls-36,.cls-37,.cls-38,.cls-39,.cls-4,.cls-40,.cls-43,.cls-9{fill:none;}.cls-2{isolation:isolate;}.cls-12,.cls-3{fill:#f6f8fa;}.cls-31,.cls-4{stroke:#d3dbe5;}.cls-24,.cls-25,.cls-31,.cls-33,.cls-34,.cls-36,.cls-37,.cls-38,.cls-39,.cls-4,.cls-43{stroke-linecap:round;}.cls-24,.cls-25,.cls-31,.cls-33,.cls-34,.cls-37,.cls-38,.cls-4,.cls-43{stroke-linejoin:round;}.cls-24,.cls-25,.cls-31,.cls-34,.cls-36,.cls-37,.cls-38,.cls-39,.cls-4,.cls-40,.cls-43{stroke-width:0.25px;}.cls-5{clip-path:url(#clip-path);}.cls-31,.cls-6{fill:#d3dbe5;}.cls-25,.cls-7{fill:#fff;}.cls-8{fill:url(#Sfumatura_senza_nome_10);}.cls-37,.cls-38,.cls-39,.cls-9{stroke:#fff;}.cls-30,.cls-36,.cls-39,.cls-40,.cls-9{stroke-miterlimit:10;}.cls-10{fill:#43aa82;}.cls-11{fill:url(#Sfumatura_senza_nome_10-2);}.cls-12,.cls-15{mix-blend-mode:multiply;}.cls-13{fill:url(#Sfumatura_senza_nome_60);}.cls-14{fill:url(#Sfumatura_senza_nome_11);}.cls-15{fill:#b3b3b3;opacity:0.3;}.cls-16{fill:url(#Sfumatura_senza_nome_179);}.cls-17{fill:#db5437;opacity:0.24;}.cls-18{fill:#91bdfd;}.cls-19{clip-path:url(#clip-path-2);}.cls-20{fill:url(#Sfumatura_senza_nome_179-2);}.cls-21{fill:url(#Sfumatura_senza_nome_17);}.cls-22{fill:url(#Sfumatura_senza_nome_17-2);}.cls-23{fill:#24497e;}.cls-24,.cls-25,.cls-33{stroke:#24497e;}.cls-26{fill:url(#Sfumatura_senza_nome_60-2);}.cls-27{fill:url(#Sfumatura_senza_nome_27);}.cls-28{opacity:0.18;}.cls-29{clip-path:url(#clip-path-3);}.cls-30{stroke:#99c3e4;stroke-width:0.5px;}.cls-32{fill:url(#Sfumatura_senza_nome_3);}.cls-34,.cls-40{stroke:#59e3ad;}.cls-34{stroke-dasharray:3 3 3 3;}.cls-35{fill:url(#Sfumatura_senza_nome_2);}.cls-36{stroke:#a7b6cb;}.cls-38{opacity:0.5;}.cls-41{fill:url(#Sfumatura_senza_nome_11-2);}.cls-42{fill:url(#Sfumatura_senza_nome_11-3);}.cls-43{stroke:#b3b3b3;}.cls-44{fill:url(#Sfumatura_senza_nome_179-3);}</style><clipPath id="clip-path" transform="translate(-6.44 -8.77)"><path class="cls-1" d="M218.14,274.75s22.93-2.55,39.41-9.59c16.06-6.87,31.75,19.73,31.75,19.73v39.32l-35.58,38.1-53.34-1.71L180.25,306l9.49-10.56Z"/></clipPath><linearGradient id="Sfumatura_senza_nome_10" x1="175.31" y1="414.01" x2="178.35" y2="446.49" gradientTransform="translate(79.7 -147.98) rotate(1.44)" gradientUnits="userSpaceOnUse"><stop offset="0" stop-color="#9fefcf"/><stop offset="1" stop-color="#59e3ad"/></linearGradient><linearGradient id="Sfumatura_senza_nome_10-2" x1="125" y1="150.94" x2="85.26" y2="196.32" gradientTransform="matrix(1, 0, 0, 1, 0, 0)" xlink:href="#Sfumatura_senza_nome_10"/><radialGradient id="Sfumatura_senza_nome_60" cx="200.09" cy="207.47" r="48.33" gradientUnits="userSpaceOnUse"><stop offset="0.15" stop-color="#1b375f"/><stop offset="1" stop-color="#24497e"/></radialGradient><radialGradient id="Sfumatura_senza_nome_11" cx="139.29" cy="158.3" r="60.17" gradientUnits="userSpaceOnUse"><stop offset="0" stop-color="#f6f8fa"/><stop offset="0.07" stop-color="#f3f5f8"/><stop offset="0.5" stop-color="#e2e7ee"/><stop offset="0.82" stop-color="#dce2ea"/></radialGradient><linearGradient id="Sfumatura_senza_nome_179" x1="103.66" y1="148.04" x2="129.92" y2="148.04" gradientUnits="userSpaceOnUse"><stop offset="0.17" stop-color="#ffd672"/><stop offset="1" stop-color="#ee9a57"/></linearGradient><clipPath id="clip-path-2" transform="translate(-6.44 -8.77)"><path class="cls-1" d="M86,149.91a42.15,42.15,0,0,1,11.68-19.78l-13.83-3L68.75,138.82l-4.26,6,7.84,6.75Z"/></clipPath><linearGradient id="Sfumatura_senza_nome_179-2" x1="37.28" y1="167.76" x2="65.11" y2="167.76" gradientTransform="translate(38.96 -28.96) rotate(0.49)" xlink:href="#Sfumatura_senza_nome_179"/><linearGradient id="Sfumatura_senza_nome_17" x1="81.3" y1="37.31" x2="133.05" y2="36.96" gradientUnits="userSpaceOnUse"><stop offset="0.17" stop-color="#ffd672"/><stop offset="1" stop-color="#f3ad5f"/></linearGradient><linearGradient id="Sfumatura_senza_nome_17-2" x1="81.28" y1="33.04" x2="132.24" y2="32.69" xlink:href="#Sfumatura_senza_nome_17"/><radialGradient id="Sfumatura_senza_nome_60-2" cx="82.75" cy="26.18" r="0" xlink:href="#Sfumatura_senza_nome_60"/><linearGradient id="Sfumatura_senza_nome_27" x1="91.48" y1="71.34" x2="167.12" y2="108.5" gradientUnits="userSpaceOnUse"><stop offset="0.34" stop-color="#4891fb"/><stop offset="0.8" stop-color="#227bfb"/></linearGradient><clipPath id="clip-path-3" transform="translate(-6.44 -8.77)"><path class="cls-1" d="M121.89,83.26c-3,12.16-17,39.85-18.28,42.14l-.22.14a50.66,50.66,0,0,1-12.09-4.8l-.07,0a678.13,678.13,0,0,0,19.26-72.48,25.88,25.88,0,0,1,2.56,2.57s5.66-.66,6.93-8.48a11.54,11.54,0,0,1,4.28-7,12.53,12.53,0,0,1,2.93-1.81c7.16-3.19,15.85-.17,21.54,5.24s9.08,12.76,12.4,19.88c6.17,13.24,12.6,26.37,19.68,39.15a4.1,4.1,0,0,1,.7,3.21c-.31,1.06-1.25,2-2.47,3.47a87.62,87.62,0,0,1-7.23,7.81,88.62,88.62,0,0,1-16.57,12.52,37.66,37.66,0,0,1-4.1,2.1q-.94.4-1.92.72l-.31.4a41.53,41.53,0,0,0-11.43-6.41l-.74-.21a144.38,144.38,0,0,1-4.9,14.33,25.37,25.37,0,0,1-2.5,5l-.13-.12a21.87,21.87,0,0,1-14.51-2.14l-.46-.14c1.83-6.16,3.36-12.45,4.58-18.81q1.23-6.33,2.06-12.76c.73-5.57,1.23-11.2,1.51-16.85C122.39,88.52,122.36,84.32,121.89,83.26Z"/></clipPath><linearGradient id="Sfumatura_senza_nome_3" x1="45.49" y1="275.88" x2="46.99" y2="344.47" gradientUnits="userSpaceOnUse"><stop offset="0.34" stop-color="#9fefcf"/><stop offset="0.75" stop-color="#59e3ad"/></linearGradient><linearGradient id="Sfumatura_senza_nome_2" x1="140.49" y1="269.66" x2="140.87" y2="343.14" gradientUnits="userSpaceOnUse"><stop offset="0.36" stop-color="#9fefcf"/><stop offset="0.78" stop-color="#59e3ad"/></linearGradient><radialGradient id="Sfumatura_senza_nome_11-2" cx="266.74" cy="134.07" r="22.6" xlink:href="#Sfumatura_senza_nome_11"/><radialGradient id="Sfumatura_senza_nome_11-3" cx="30.56" cy="129.51" r="17.5" xlink:href="#Sfumatura_senza_nome_11"/><linearGradient id="Sfumatura_senza_nome_179-3" x1="124.42" y1="146.27" x2="124.42" y2="146.27" xlink:href="#Sfumatura_senza_nome_179"/></defs><title>hero</title><g class="cls-2"><g id="Layer_1" data-name="Layer 1"><path class="cls-3" d="M130.79,145.58s9.75-14.86,8.92-26.19l-12.38-1.88-6.24,30.38Z" transform="translate(-6.44 -8.77)"/><path class="cls-4" d="M136,119.16a45.45,45.45,0,0,1,10.51,3.2" transform="translate(-6.44 -8.77)"/><path class="cls-3" d="M38.17,166.69s-2,8.08,1.14,9.64l-5.06.52S36.47,167.26,38.17,166.69Z" transform="translate(-6.44 -8.77)"/><path class="cls-4" d="M34.25,176.85c5.16-21.37,23.92-37.22,46.27-37.22" transform="translate(-6.44 -8.77)"/><path class="cls-3" d="M99.53,129.11s13.72-8.48,17.4-.84l1.93-9S103.52,122.56,99.53,129.11Z" transform="translate(-6.44 -8.77)"/><path class="cls-3" d="M271.42,179.32s2-11.59,9.57-6.94a33.32,33.32,0,0,0-11.37-5.56S271.75,171.58,271.42,179.32Z" transform="translate(-6.44 -8.77)"/><path class="cls-3" d="M241.47,168.87s4.11-22.51,17.66-16.86c0,0-6.93-6.87-21-6.82C238.14,145.19,241.17,151,241.47,168.87Z" transform="translate(-6.44 -8.77)"/><g class="cls-5"><path class="cls-6" d="M263.59,335.63l-.07,6.07a.66.66,0,0,1-.43.62l-29.68,10.6a4.56,4.56,0,0,1-4.61-1.18L185,309.26a1.46,1.46,0,0,1-.47-1c0-.23-.13-2.38-.13-2.38h0a1.49,1.49,0,0,0,.45.92l.39.37,43.42,42.1a4.57,4.57,0,0,0,4.61,1.19L263,339.89a.68.68,0,0,0,.43-.6Z" transform="translate(-6.44 -8.77)"/><path class="cls-7" d="M263,338.45a1,1,0,0,1,.34.84.68.68,0,0,1-.43.6l-29.69,10.59a4.57,4.57,0,0,1-4.61-1.19l-43.42-42.1-.39-.37a1.49,1.49,0,0,1-.45-.92,1,1,0,0,1,.7-1.15L214.31,296Z" transform="translate(-6.44 -8.77)"/><polygon class="cls-4" points="225.33 336.71 184.94 298.62 208.3 291.4 249.47 328.12 225.33 336.71"/><line class="cls-4" x1="242.14" y1="321.79" x2="218.37" y2="330.05"/><line class="cls-4" x1="235.02" y1="315.44" x2="211.42" y2="323.45"/><line class="cls-4" x1="228.07" y1="309.23" x2="204.61" y2="317.01"/><line class="cls-4" x1="221.28" y1="303.17" x2="197.95" y2="310.73"/><line class="cls-4" x1="214.64" y1="297.25" x2="191.44" y2="304.59"/><line class="cls-4" x1="202.54" y1="293.28" x2="243.35" y2="330.19"/><line class="cls-4" x1="196.75" y1="295.07" x2="237.37" y2="332.32"/><line class="cls-4" x1="190.89" y1="296.88" x2="231.36" y2="334.51"/><path class="cls-7" d="M279.05,292.44a3.67,3.67,0,0,1,1.12,4l-14.75,40.78a2.53,2.53,0,0,1-3.65,1.19,3.51,3.51,0,0,1-.4-.27l-45.59-40a6.25,6.25,0,0,1-1.12-1.25c-.07-.09-.13-.19-.19-.28s-.21-.38-.31-.57a5.94,5.94,0,0,1-.28-4.59l13-37a1.89,1.89,0,0,1,.74-.92,2.16,2.16,0,0,1,2.59.17Z" transform="translate(-6.44 -8.77)"/><path class="cls-6" d="M267.17,337.64c-.36,1-1.8,1.48-3.17,1.47a3.38,3.38,0,0,1-1-.32,2.43,2.43,0,0,0,2.45-1.54l14.75-40.78a3.67,3.67,0,0,0-1.12-4L230.2,253.73a2.16,2.16,0,0,0-2.59-.17c.81-1.34,3.67-.76,4.58-.1L281,292.4a3.65,3.65,0,0,1,1.11,4.05Z" transform="translate(-6.44 -8.77)"/><path class="cls-8" d="M229.13,259.59a1.37,1.37,0,0,1,2.14-.49l43.24,35.28a2.63,2.63,0,0,1,.82,2.91L263,332.91a1.16,1.16,0,0,1-1.82.41L218,295.62a2.64,2.64,0,0,1-.82-2.91Z" transform="translate(-6.44 -8.77)"/><path class="cls-7" d="M214.47,296.62c.06.09.12.19.19.28A2.31,2.31,0,0,1,214.47,296.62Z" transform="translate(-6.44 -8.77)"/><path class="cls-7" d="M214.16,296.05c.1.19.2.39.31.57A5.18,5.18,0,0,1,214.16,296.05Z" transform="translate(-6.44 -8.77)"/><line class="cls-4" x1="254.93" y1="329.39" x2="209.34" y2="289.38"/><path class="cls-4" d="M261.37,338.17" transform="translate(-6.44 -8.77)"/><path class="cls-4" d="M261.77,338.44" transform="translate(-6.44 -8.77)"/><rect class="cls-9" x="169.66" y="279.63" width="5.6" height="5.6"/></g><path class="cls-10" d="M129.28,142.67l2.95.83s-26.68,33.33-40.87,42.95c-3.63,0-9.45.24-10.59.3l-.32-22.31Z" transform="translate(-6.44 -8.77)"/><path class="cls-11" d="M132.23,143.5v31.74l-26.72,12.39a114.91,114.91,0,0,0-22.47-1V166.29L103.2,157C104,156.76,132.23,143.5,132.23,143.5Z" transform="translate(-6.44 -8.77)"/><path class="cls-12" d="M69.47,188.67c15.64-4.39,48.32-2.32,68.13,8.55C113.58,178.44,83.59,179.8,69.47,188.67Z" transform="translate(-6.44 -8.77)"/><polygon class="cls-10" points="99.13 156.67 99.13 158.27 99.15 169.21 109.94 160.54 99.13 156.67"/><path class="cls-3" d="M234.48,140.88q-9.39.3-18.76.63c-2.7.09-5.65.11-7.78-1.55-1.4-1.08-2.69-3.58-3.21-6-1.38,1.13-2.83,2.19-4.24,3.21-7.18,5.26-14.33,11.93-15.65,20.73-.85,5.63.85,11.3,2.54,16.74,3.47,11.23,9,28.57,12.46,39.81-7.07-15.64-18.16-37.05-25.23-52.7-.79-1.76-2.26-5.1-2.13-7,.17-2.87,4.3-5.57,6.11-7.79a39.18,39.18,0,0,0,6.58-39.14c3.14-.48,7.48-.81,10.58-.09l-.23,0,5.4,1.84a24.75,24.75,0,0,0-5.17-1.8,21.58,21.58,0,0,1,11.42,5.3c3.13,3,5,7.52,4.08,11.76a11.25,11.25,0,0,1-.92,2.69,3.2,3.2,0,0,1,1.68,2.15c.34,1.19.05,2.54.66,3.6.83,1.48,2.85,1.65,4.54,1.65H227c2,0,3.83-1,5.52,0S234.58,139.21,234.48,140.88Z" transform="translate(-6.44 -8.77)"/><rect class="cls-7" x="211.7" y="186.99" width="39.42" height="3.55"/><path class="cls-3" d="M207,235c2.42-2.08,4.82-4.57,5.3-7.73a6.81,6.81,0,0,0-1.92-5.89,5.66,5.66,0,0,0-6-1.18c-2.21.93-3.45,3.24-4.53,5.37-1.25,2.49-9.67,16-7.85,17.72S207,237,207,235Z" transform="translate(-6.44 -8.77)"/><path class="cls-13" d="M203.26,221.44c0,2.46-1.07,4.8-2.22,7a131.76,131.76,0,0,1-9.7,15.46,11.64,11.64,0,0,1-2.86,3.07,3.74,3.74,0,0,1-6.15-2.85,12.64,12.64,0,0,1,.45-4.14c1.56-6.92,3.11-13.83,4.9-20.68a7.92,7.92,0,0,0,4.17,1.18,7,7,0,0,0,6.36-4.8,7.23,7.23,0,0,0,.2-3.73C200.76,214.71,203.22,217.8,203.26,221.44Z" transform="translate(-6.44 -8.77)"/><path class="cls-14" d="M198.41,211.93a7.23,7.23,0,0,1-.2,3.73,7,7,0,0,1-6.36,4.8,7.92,7.92,0,0,1-4.17-1.18,22.7,22.7,0,0,1-3.59-2.76c-13-11.6-26.5-30.33-36.77-44.21a27.8,27.8,0,0,1-4.52-24,109.49,109.49,0,0,1,7.38-19.23c-.39-.32-.78-.65-1.19-1l-.48-.57c.64-.2,2.09-.28,2.73-.55a38.18,38.18,0,0,0,4.13-2.11,88.79,88.79,0,0,0,23.94-20.36c1.23-1.49,2.17-2.42,2.48-3.48l.17.08a28.81,28.81,0,0,1,3.9,6.61,37.17,37.17,0,0,1,.86,25.25c-2.58,8.21-7.52,15.46-13.56,21.67h0q10.8,23.37,21.58,46.73A109.64,109.64,0,0,1,198.41,211.93Z" transform="translate(-6.44 -8.77)"/><path class="cls-15" d="M104.54,153.56s3.06.4,3.06,1.09-3.93,8-2.92,9.65c.5.81,2.23-.55,3.27-1.88s-.35,4.55,1.58,3.26a23.41,23.41,0,0,0,3.27-2.62s.25,2.77,2,1.39,6.78-8.51,6.78-11.48S106.56,150,104.54,153.56Z" transform="translate(-6.44 -8.77)"/><path class="cls-16" d="M118.49,135.61c-1.23,5.86-15.08,17-14.83,18.43,0,.23,1.43-.65,2.34-1a1.56,1.56,0,0,1,2,1c1.59,3.69-4,11.2-2,11.86s7.17-9.56,7.81-12.07c-.32,4.09-5.76,11.65-4.08,12.63.61.35,2.09-.53,3-2.18,0,0-.07.6.43.68,1.93-.45,4.52-4.23,7.06-9.24,1.47-2.87,3.21-4.63,4.2-9.44,2-9.76,7.39-17.87,4.81-16.58C124.17,132.24,119.73,129.76,118.49,135.61Z" transform="translate(-6.44 -8.77)"/><path class="cls-17" d="M114.26,142.57a11.41,11.41,0,0,0-1.13,1.12c10.77,1.79,6.17,17.13,10.92,4.28l1-4.14-.8-1.44Z" transform="translate(-6.44 -8.77)"/><path class="cls-18" d="M114.26,142.57a11.55,11.55,0,0,1-1-1.17c.3-1,.75-1.91,1-2.88l.31.13a22.18,22.18,0,0,0,14.6,2.15,24.37,24.37,0,0,1-3.1,3.13,10.1,10.1,0,0,1-5.65,1.42A9.24,9.24,0,0,1,114.26,142.57Z" transform="translate(-6.44 -8.77)"/><g class="cls-19"><path class="cls-3" d="M67.55,145.06s.38.76,1.92.2c0,0-1,1.77.48,1.68s12.55-4.44,14-1.74,2.33,2.8,3.06,2.45c0,0,1.66-4.85,2.79-5.67s-5.08-2-5.08-2S70.54,142.19,67.55,145.06Z" transform="translate(-6.44 -8.77)"/><path class="cls-20" d="M68.56,145.66a1.21,1.21,0,0,1,.4-.38l.62-.41v0a.64.64,0,0,1-.81-.25,1,1,0,0,1,0-1,2.77,2.77,0,0,1,.7-.75l.87-.72-.1-.12a4.78,4.78,0,0,1,2.27-2.41c4.79-3.12,9-5.54,14.52-6.42a3.07,3.07,0,0,0,1.75-.95,4.2,4.2,0,0,0,.86-1.37l.1,0a12.79,12.79,0,0,0,6.65,5.27c-3.27,2.87-6.44,5.77-8.56,9.6a6.19,6.19,0,0,1-3,1.84.94.94,0,0,1-.82,0c-.32-.22-.31-.71-.2-1.09a11.56,11.56,0,0,1,1.63-3c.13-.2.25-.41.37-.62-5.46-.3-10.93,2.27-16.4,3.41-.33.07-.78.08-.89-.24A.41.41,0,0,1,68.56,145.66Z" transform="translate(-6.44 -8.77)"/><path class="cls-17" d="M89.76,130.83s4.22,9.94-5.86,16.51c.38,1.11,3.43-1.09,3.43-1.09A25.34,25.34,0,0,1,92,138.44l3.09-3.33S92.26,134.42,89.76,130.83Z" transform="translate(-6.44 -8.77)"/><path class="cls-17" d="M69.28,145.07s7.17-5.17,12.37-5.76A19,19,0,0,0,69.28,145.07Z" transform="translate(-6.44 -8.77)"/><path class="cls-17" d="M69.49,142.87s6.26-4.28,11.42-5.37A23.84,23.84,0,0,0,69.49,142.87Z" transform="translate(-6.44 -8.77)"/><path class="cls-18" d="M101.93,134.78a40.63,40.63,0,0,0-4.73,3.66,13,13,0,0,1-8-6.09L89,132c.23-.69.45-1.39.68-2.08l.08,0A51.46,51.46,0,0,0,101.93,134.78Z" transform="translate(-6.44 -8.77)"/></g><path class="cls-21" d="M124.51,36s-4.34,4.12-4.77,6.8c-1.24,7.52-6.69,8.14-6.69,8.14a24.1,24.1,0,0,0-2.48-2.47,27,27,0,0,0-5.94-4h0l0,.16a7.89,7.89,0,0,1-1.37,2.14,9.06,9.06,0,0,1-10,2.31c-2.22-.92-4.14-2.77-6.51-2.89a5.39,5.39,0,0,1-2.52-.32c-.8-.46-1.07-1.47-1.47-2.29a7.12,7.12,0,0,0-.62-1l-.36-.44c0-.07-.11-.12-.16-.19l1.4-2c1.74,1.17,3.69,1.33,4.37.33s-.2-2.73-1.94-3.93l6.3-9.28.35-2.5c0,.28,3-1.53,3.09-1.24l3.35.69c1.24-.05.62.18,1.4,1.15l-.28,2.1a3.51,3.51,0,0,0,.94,1,12.43,12.43,0,0,0,6.63,2.39,2.66,2.66,0,0,0,2.15-.76A37.5,37.5,0,0,0,124.51,36Z" transform="translate(-6.44 -8.77)"/><path class="cls-22" d="M91.65,27.13l-6.3,9.27,0,0C83.57,35.19,81.6,35,80.92,36s.21,2.76,2,4l0,0-1.39,2c-1.62-1.78-4-3.06-4.85-5.3l-.05-.05.45-.48a21.76,21.76,0,0,0,4.82-8.7h0A14.52,14.52,0,0,0,86.72,24l.08.07A6.73,6.73,0,0,0,91.65,27.13Z" transform="translate(-6.44 -8.77)"/><path class="cls-7" d="M92.07,44c.09-.35.2-.8.55-.87a.71.71,0,0,1,.68.44,2,2,0,0,1,0,1.66,2.53,2.53,0,0,1-1.14,1.23,1.38,1.38,0,0,1-1.16.17c-.81-.3-.38-.76,0-1.08A3.16,3.16,0,0,0,92.07,44Z" transform="translate(-6.44 -8.77)"/><path class="cls-17" d="M88.78,39.54c.35-1.74-2.5-3.5-3.3-3.32.42.57,1,.88,1.32,1.55s.89,1.29.71,2S86,41.05,87,41A1.71,1.71,0,0,0,88.78,39.54Z" transform="translate(-6.44 -8.77)"/><path class="cls-23" d="M83.25,39.57l0,0c-1.76-1.2-2.64-3-2-4s2.65-.83,4.41.36l0,0c1.73,1.2,2.59,3,1.92,3.94S85,40.74,83.25,39.57Z" transform="translate(-6.44 -8.77)"/><path class="cls-7" d="M85.35,36.4c1.74,1.2,2.6,3,1.93,3.94s-2.62.83-4.36-.34l0,0c-1.76-1.2-2.64-3-2-4s2.65-.83,4.41.36Z" transform="translate(-6.44 -8.77)"/><path class="cls-17" d="M81.85,30.36a5.39,5.39,0,0,1,.66-1.81,4.85,4.85,0,0,1,1.67-1.21,12.7,12.7,0,0,0,2.29-1.63,2.93,2.93,0,0,0,1-1.44,1.22,1.22,0,0,0-.7-1.46,1.23,1.23,0,0,0-1,.22,4.47,4.47,0,0,0-.79.72,9.75,9.75,0,0,1-4.55,2.64,10.22,10.22,0,0,1-2.15,6.19c-.4.5-.84,1-1.19,1.51s-1,2,.14,1.58a7.06,7.06,0,0,0,2-1.28A8.15,8.15,0,0,0,81.85,30.36Z" transform="translate(-6.44 -8.77)"/><path class="cls-17" d="M86.56,44.86a2.16,2.16,0,0,1,.4-.27.56.56,0,0,1,.49,0,.44.44,0,0,1,.15.46,3.1,3.1,0,0,1-.52,1.16,7,7,0,0,1-3-.31c.11-.28,1-.28,1.33-.4A4.72,4.72,0,0,0,86.56,44.86Z" transform="translate(-6.44 -8.77)"/><path class="cls-17" d="M114.09,50.72c-.31.12-.52.09-1,.24a27.22,27.22,0,0,0-8.43-6.43,10.92,10.92,0,0,0,.07-7.46c3.13,6.48,9.48,8.16,14.61,7.9A9.63,9.63,0,0,1,114.09,50.72Z" transform="translate(-6.44 -8.77)"/><path class="cls-17" d="M91,30.06a4.37,4.37,0,0,0,1.22-3A52.3,52.3,0,0,0,86.5,35.2c-.23.41-.16,1.21.33.64s.76-1.2,1.17-1.74Z" transform="translate(-6.44 -8.77)"/><path class="cls-24" d="M82.92,40l0,0c-1.76-1.2-2.64-3-2-4s2.65-.83,4.41.36l0,0c1.74,1.2,2.6,3,1.93,3.94S84.66,41.17,82.92,40Z" transform="translate(-6.44 -8.77)"/><path class="cls-17" d="M83.76,40.74c-.12.11-.23.25-.33.36-.44.53-.82,1.19-1.28,1.66l-.06.05-.32-.47a1,1,0,0,1,.1-.24c.38-.58.79-1.15,1.2-1.71C83.29,40.51,83.52,40.63,83.76,40.74Z" transform="translate(-6.44 -8.77)"/><path class="cls-23" d="M81.36,42.09l0,0c1.64,1.31,2.38,3.11,1.66,4s-2.7.66-4.37-.65S76.25,42.38,77,41.43,79.68,40.78,81.36,42.09Z" transform="translate(-6.44 -8.77)"/><path class="cls-7" d="M81.25,42.63c1.65,1.31,2.39,3.12,1.66,4s-2.69.66-4.37-.65S76.12,42.9,76.85,42s2.69-.65,4.37.66Z" transform="translate(-6.44 -8.77)"/><path class="cls-25" d="M81.22,42.61l0,0c1.65,1.31,2.39,3.12,1.66,4s-2.69.66-4.37-.65S76.12,42.9,76.85,42,79.54,41.3,81.22,42.61Z" transform="translate(-6.44 -8.77)"/><polyline class="cls-24" points="74.81 33.86 75.19 33.37 76.71 31.43"/><polyline class="cls-24" points="78.92 27.63 85.21 18.36 86.03 17.15"/><path class="cls-26" d="M82.75,26.18" transform="translate(-6.44 -8.77)"/><path class="cls-23" d="M87.91,10.06a4.83,4.83,0,0,1,3.44,2.1,3.15,3.15,0,0,1,.4,1.07A3.58,3.58,0,0,1,91,16.18a14.18,14.18,0,0,1-4,8.06,15,15,0,0,1-4.8,3.56,22.32,22.32,0,0,1-4.84,8.66c-.15.16-.31.33-.47.48-3,3.09-7.69,5-11.66,2.46a6.71,6.71,0,0,1-3.12-6.46c.33-2.23,1.88-4.09,2.52-6.25S65,22.08,65.88,20a7.61,7.61,0,0,1,2.55-3.1c.79-.57,1.66-1,2.39-1.67a15.83,15.83,0,0,0,1.76-2.37c3.36-4.38,10.33-5,15.11-2.88A1.07,1.07,0,0,0,87.91,10.06Z" transform="translate(-6.44 -8.77)"/><path class="cls-23" d="M110,28.73a3.26,3.26,0,0,0-.73-1.54,9,9,0,0,0-1-1.17,27.56,27.56,0,0,0-2.36-1.92A34.63,34.63,0,0,1,101.51,20a45.8,45.8,0,0,0-4.34-4.24,15,15,0,0,0-5.4-2.89.38.38,0,0,0-.45.26.37.37,0,0,0,.1.35A3.2,3.2,0,0,1,90.67,16c-.13,2.5-2.52,6.84-4,8.52a6.34,6.34,0,0,0,4.91,2.93,5.66,5.66,0,0,0,.84.05h0a1.87,1.87,0,0,0,.68.66.2.2,0,0,0,.26-.05.21.21,0,0,0,0-.29h0a2,2,0,0,1-.4-2.36,2.48,2.48,0,0,1,2.16-1.17,3.72,3.72,0,0,1,2.44,1,8.72,8.72,0,0,1,1.67,2.34,4.42,4.42,0,0,0,.52.64,3.11,3.11,0,0,0,.67.52c.43.28.86.54,1.32.79a13.51,13.51,0,0,0,2.85,1.19,8.67,8.67,0,0,0,3.14.33,2.81,2.81,0,0,0,1.62-.64A1.93,1.93,0,0,0,110,28.73Z" transform="translate(-6.44 -8.77)"/><path class="cls-27" d="M121.81,83.35c-3,12.19-17.15,39.92-18.39,42.22,0,0-3.46,2.59-5.91,4.74a24.31,24.31,0,0,0-2.46,2.59c-.68-.17-.69,1.84-1.28,1.58a11.2,11.2,0,0,1-4.49-3.33C97,107.67,105.35,72.4,110.34,48.27a26.08,26.08,0,0,1,2.58,2.57s5.69-.66,7-8.49a11.57,11.57,0,0,1,4.31-7.06,13.3,13.3,0,0,1,2.94-1.81c7.21-3.19,16-.16,21.68,5.25S158,51.51,161.29,58.65C167.5,71.91,174,85.06,181.1,97.86a4.07,4.07,0,0,1,.69,3.22c-.31,1.06-1.25,2-2.48,3.48a88.79,88.79,0,0,1-23.94,20.36c-1.32.77-4.75,2.81-6.17,3.42-7-9.06-8.91-13.15-10.34-15.93-.06,2.43-5.17,18.88-7,23.46a50,50,0,0,1-2.64,4.93c-8.16,3.51-15.07-2.29-15.07-2.29a193.31,193.31,0,0,0,4.61-18.85c.83-4.22,1.51-8.48,2.08-12.77q1.1-8.39,1.52-16.89C122.32,88.62,122.29,84.42,121.81,83.35Z" transform="translate(-6.44 -8.77)"/><g class="cls-28"><g class="cls-29"><path class="cls-30" d="M149.26,127.3a183.07,183.07,0,0,1,4-48.63c.92-4.19,2.07-8.5,4.83-11.77s7.58-5.17,11.43-3.31" transform="translate(-6.44 -8.77)"/><path class="cls-30" d="M161.74,120.7a112.56,112.56,0,0,1,3.43-31.23,27.16,27.16,0,0,1,3.42-8.58,10.77,10.77,0,0,1,7.48-5" transform="translate(-6.44 -8.77)"/><path class="cls-30" d="M106.07,68.43a61.18,61.18,0,0,1,2.45,36.63c-1,4-2.62,8.2-6.18,10.2-4,2.24-9,.93-13.32-.42" transform="translate(-6.44 -8.77)"/><path class="cls-30" d="M97.22,102.67a5.63,5.63,0,0,0,5-2.88,11.27,11.27,0,0,0,1.35-5.89,23.33,23.33,0,0,0-4.17-13.3l-.52.86" transform="translate(-6.44 -8.77)"/><path class="cls-30" d="M147.46,33a18.82,18.82,0,0,0,.86,21.84,18.62,18.62,0,0,0,21.1,5.34" transform="translate(-6.44 -8.77)"/><path class="cls-30" d="M117.72,40.21a74.93,74.93,0,0,1,36.2,36.2" transform="translate(-6.44 -8.77)"/><path class="cls-30" d="M154.11,42.48a5.26,5.26,0,0,0,5.44,9" transform="translate(-6.44 -8.77)"/><path class="cls-30" d="M174.43,87.63c.13-.4.28-.79.45-1.18a31.13,31.13,0,0,0,1.43,27.15c.23.41.54.86,1,.88s.78-.75.34-.89" transform="translate(-6.44 -8.77)"/><path class="cls-30" d="M120.82,105.69a32.86,32.86,0,0,1,0,26.72c-1.29,2.84-3.4,5.76-6.48,6.14" transform="translate(-6.44 -8.77)"/><path class="cls-30" d="M122,100.16a41.41,41.41,0,0,1,4.43,41.72" transform="translate(-6.44 -8.77)"/></g></g><path class="cls-3" d="M219.86,274.61v-.05c0-.46,15-2.5,14.6-2.52-29.42-1.42-38-3.56-49.58-7.77a74.55,74.55,0,0,1-22.67-12.58,47.25,47.25,0,0,1-14.75-21.06,29.32,29.32,0,0,1-1.54-8.34c-.07-2.37,1.09-5.25.6-7.45-6.4,1.58-11.39,12.06-12.64,17.92a28.23,28.23,0,0,0-.54,4.1,48.48,48.48,0,0,0,3,10.62c2.42,5.8,6.29,10,11.31,13.76a96.86,96.86,0,0,0,9.88,6.46c4.75.71,9,4.3,14.16,4.37a3.38,3.38,0,0,1,2.05.68,151.09,151.09,0,0,0,43.65,2.11C217.34,274.67,219.85,274.81,219.86,274.61Z" transform="translate(-6.44 -8.77)"/><path class="cls-3" d="M136.3,247.16a19.89,19.89,0,0,1-1-3.48c-.91-1.49,0-3.91-.93-5.24-1.26-1.82-103.36,23.86-117.25-25.24-5.42,7.78-17.25,42.69,40.71,48,9.14,1.17,18.61,1,27.82.78,3.89-.1,7.73-.39,11.54-.84,4.9-.72,9.8-1.6,14.68-2.57a160.73,160.73,0,0,0,24.58-7.95,4.12,4.12,0,0,0,.32-.78,4.54,4.54,0,0,0,.18-.95C136.73,248.3,136.5,247.71,136.3,247.16Z" transform="translate(-6.44 -8.77)"/><path class="cls-7" d="M200.92,109.55l-5.4-1.84.23,0A24.75,24.75,0,0,1,200.92,109.55Z" transform="translate(-6.44 -8.77)"/><path class="cls-4" d="M86.45,261.84A159.16,159.16,0,0,0,137,249.94" transform="translate(-6.44 -8.77)"/><path class="cls-4" d="M12.75,225.59A25.93,25.93,0,0,0,14.56,240c2.68,6,7.8,10.57,13.57,13.63s12.18,4.68,18.6,5.88a157.86,157.86,0,0,0,39.72,2.3" transform="translate(-6.44 -8.77)"/><path class="cls-3" d="M28.19,200.7s-14.16,7.94-12.93,0c0,0-.95,7.37,2.43,11.67C17.69,212.37,22.94,203.9,28.19,200.7Z" transform="translate(-6.44 -8.77)"/><path class="cls-4" d="M17.17,213.2a33.91,33.91,0,0,0-4.42,12.39" transform="translate(-6.44 -8.77)"/><path class="cls-4" d="M17.69,212.37c-.19.27-.35.55-.52.83" transform="translate(-6.44 -8.77)"/><path class="cls-4" d="M37.36,194.16c-7.65,4.77-14.9,10.59-19.67,18.21" transform="translate(-6.44 -8.77)"/><path class="cls-4" d="M150,211.09a29.7,29.7,0,0,0-15,19.63,27.21,27.21,0,0,0,2.25,19.13c7.36,14,26.76,21.28,42.14,23.91,36.42,8.13,126.11-9.24,115.23-56.83-.25-.83-.54-1.64-.87-2.45-.08-.2-.17-.4-.26-.59a23.78,23.78,0,0,0-1.34-2.67,26.13,26.13,0,0,0-2.25-3.35A30.82,30.82,0,0,0,268,196.23" transform="translate(-6.44 -8.77)"/><path class="cls-4" d="M238.14,145.19h0a32.93,32.93,0,0,1,22.72,8.28A32.86,32.86,0,0,1,271,183.24" transform="translate(-6.44 -8.77)"/><path class="cls-4" d="M269.62,166.82c.49.11,1,.25,1.45.4s1.26.39,1.87.63a29.74,29.74,0,0,1,16.89,40" transform="translate(-6.44 -8.77)"/><path class="cls-4" d="M240.38,176.86" transform="translate(-6.44 -8.77)"/><path class="cls-4" d="M233.31,134.62h0a58.17,58.17,0,0,1,4.83,10.56" transform="translate(-6.44 -8.77)"/><path class="cls-4" d="M238.15,145.19a62.4,62.4,0,0,1,2.23,31.67" transform="translate(-6.44 -8.77)"/><path class="cls-4" d="M185.86,107.77a46.86,46.86,0,0,1,6,.14,50.56,50.56,0,0,1,14.18,3.4" transform="translate(-6.44 -8.77)"/><path class="cls-4" d="M103.42,125.57a37.82,37.82,0,0,1,15-5.87" transform="translate(-6.44 -8.77)"/><path class="cls-4" d="M85.44,153.49A36.58,36.58,0,0,1,88,144.12a41.13,41.13,0,0,1,10.52-14.75,39,39,0,0,1,4.73-3.66" transform="translate(-6.44 -8.77)"/><path class="cls-4" d="M243.55,230.65c-7.58-13.58-18.93-19.85-25.41-23-.51-.25-1-.49-1.54-.72a69.93,69.93,0,0,0-8.62-3.25" transform="translate(-6.44 -8.77)"/><path class="cls-15" d="M119.44,44.59c-1.49,4.82-5.26,6.1-6.52,6.25-.69-.69-1.64-1.8-2.58-2.57,0,.45.55.48,3.39,4.54,10.33,26.1-5.81,62.2-10.2,72.15a1.85,1.85,0,0,1-.26.43l.38-.27c1.67-3.63,3.5-6.87,4.95-9.91,7-14.57,10.74-23.08,13.21-31.86C123.91,73.73,123.09,63.74,119.44,44.59Z" transform="translate(-6.44 -8.77)"/><path class="cls-15" d="M142,94.73c0,.12,0,.22,0,.33,0-.11,0-.19,0-.29A.07.07,0,0,1,142,94.73Z" transform="translate(-6.44 -8.77)"/><polygon class="cls-31" points="237.37 198.17 229.06 202.97 229.06 193.37 237.37 198.17"/><path class="cls-15" d="M171.69,157.38a3.54,3.54,0,0,1,2.56,1.1c.14.14.59-.13.52-.32l-1.61-3.47-1.77,1.94A.44.44,0,0,0,171.69,157.38Z" transform="translate(-6.44 -8.77)"/><path class="cls-6" d="M84.64,324c1,1.33.41,4.69-1.08,5.2l-38.42,13a3.16,3.16,0,0,1-3.61-1.21L7.12,293.55c-1-1.29-.89-3.69.39-4.42a2.18,2.18,0,0,0,0,2.5L41.7,339.1a3.15,3.15,0,0,0,3.58,1.22l38-12.86A2.57,2.57,0,0,0,84.64,324Z" transform="translate(-6.44 -8.77)"/><path class="cls-7" d="M84.64,324a2.57,2.57,0,0,1-1.32,3.49l-38,12.86a3.15,3.15,0,0,1-3.58-1.22L7.49,291.63a2.18,2.18,0,0,1,0-2.5,1.76,1.76,0,0,1,.89-.69l37.4-12.31a5.24,5.24,0,0,1,6,2.06l32.66,45.4A2.08,2.08,0,0,1,84.64,324ZM78,323.6a1.13,1.13,0,0,0,.48-1.69l-28.83-40a2.25,2.25,0,0,0-2.55-.87L14.52,292a1.33,1.33,0,0,0-.56,2l28.67,39.8a2.25,2.25,0,0,0,2.56.87Z" transform="translate(-6.44 -8.77)"/><path class="cls-32" d="M78.46,321.91A1.13,1.13,0,0,1,78,323.6L45.19,334.69a2.25,2.25,0,0,1-2.56-.87L14,294a1.33,1.33,0,0,1,.56-2l32.56-11a2.25,2.25,0,0,1,2.55.87Z" transform="translate(-6.44 -8.77)"/><line class="cls-4" x1="11.98" y1="279.59" x2="35.71" y2="271.42"/><polyline class="cls-4" points="211.7 186.99 251.11 186.99 251.11 190.54 251.11 210.96 228.97 210.96"/><path class="cls-33" d="M14.16,219.73" transform="translate(-6.44 -8.77)"/><path class="cls-33" d="M131.17,250.59" transform="translate(-6.44 -8.77)"/><path class="cls-31" d="M218.14,207.7,216.6,207l-.27-10.74a.48.48,0,0,1,.5-.48h1.31Z" transform="translate(-6.44 -8.77)"/><path class="cls-12" d="M210.33,204.49c3.2,1.33,19.17,4.37,33,25.7C239.65,220.82,236.49,207.23,210.33,204.49Z" transform="translate(-6.44 -8.77)"/><path class="cls-4" d="M141.79,199.31a112.17,112.17,0,0,0-36.28-11.68,114.91,114.91,0,0,0-22.47-1l-2.27.14A111.16,111.16,0,0,0,57,191.11" transform="translate(-6.44 -8.77)"/><polygon class="cls-4" points="242.82 124.61 207.76 124.61 197.7 89.55 232.77 89.55 242.82 124.61"/><polygon class="cls-31" points="227.96 105.27 218.11 112.55 215.11 99.79 227.96 105.27"/><polygon class="cls-31" points="226.88 125.86 206.33 125.86 196.28 90.79 197.71 89.55 207.76 124.61 242.83 124.61 241.39 125.86 226.88 125.86"/><line class="cls-34" x1="41.9" y1="253.53" x2="41.9" y2="297.94"/><path class="cls-34" d="M248.9,220.59v74.87" transform="translate(-6.44 -8.77)"/><path class="cls-34" d="M151.2,180.18c6.21,13.15,17.23,9.89,31.32,8.31,11-1.23,21.38-5.9,32.37-7.2s23.89,2,28.66,12" transform="translate(-6.44 -8.77)"/><path class="cls-6" d="M129.59,337l-7.92-47.84c-.22-1.3,1.39-2.76,2.6-3.39a3,3,0,0,0-1.48,3.12l7.91,46.91a3,3,0,0,0,3.49,2.49L156,334.62a3,3,0,0,0,2-1.34c-.46,1-1.17,2.2-2,2.34l-23,3.87A3,3,0,0,1,129.59,337Z" transform="translate(-6.44 -8.77)"/><path class="cls-7" d="M147.06,281.75a3,3,0,0,1,3.49,2.48l7.91,46.9a2.85,2.85,0,0,1,0,1,8.84,8.84,0,0,1-.44,1.14,3,3,0,0,1-2,1.34l-21.79,3.68a3,3,0,0,1-3.49-2.49l-7.91-46.91a3,3,0,0,1,1.48-3.12,1.06,1.06,0,0,1,.21-.11,2.67,2.67,0,0,1,.8-.25Z" transform="translate(-6.44 -8.77)"/><path class="cls-35" d="M155.27,327.19a2.76,2.76,0,0,1-2.26,3.18L135.6,333.3a2.74,2.74,0,0,1-3.18-2.25l-6.29-37.31a2.77,2.77,0,0,1,2.26-3.18l17.41-2.93a2.76,2.76,0,0,1,3.18,2.26Z" transform="translate(-6.44 -8.77)"/><path class="cls-6" d="M143.62,283.89a.64.64,0,0,1-.38.83.64.64,0,0,1-.83-.38.64.64,0,0,1,.39-.83A.62.62,0,0,1,143.62,283.89Z" transform="translate(-6.44 -8.77)"/><line class="cls-4" x1="120.27" y1="280.16" x2="139.25" y2="277"/><line class="cls-34" x1="132.55" y1="245.74" x2="132.55" y2="293.79"/><path class="cls-36" d="M150.77,129.7a80.16,80.16,0,0,0,32.38-26.34" transform="translate(-6.44 -8.77)"/><path class="cls-36" d="M195.87,219c-7.49-13.92-18.38-33.91-27.9-46.53-3.83-5.08-8-10.43-8.54-16.77-.54-6,2.31-11.86,6.11-16.55s8.53-8.5,12.7-12.85c3.92-4.11,7.44-8.92,8.63-14.45" transform="translate(-6.44 -8.77)"/><path class="cls-37" d="M146.63,146.4a29.8,29.8,0,0,0,4.51,26.11" transform="translate(-6.44 -8.77)"/><path class="cls-38" d="M121.67,45.72a428.26,428.26,0,0,1,2.17,49.62" transform="translate(-6.44 -8.77)"/><path class="cls-38" d="M126.81,35.37A13.67,13.67,0,0,1,138,34.49a22.65,22.65,0,0,1,9.4,6.52,68.51,68.51,0,0,1,6.72,9.39" transform="translate(-6.44 -8.77)"/><path class="cls-38" d="M97.72,104.41a447.68,447.68,0,0,0,12.1-48.31" transform="translate(-6.44 -8.77)"/><path class="cls-38" d="M123.77,49.94l1.11,16.51" transform="translate(-6.44 -8.77)"/><path class="cls-38" d="M100.59,102.76c.67-2.51,1.34-5,2-7.52" transform="translate(-6.44 -8.77)"/><line class="cls-39" x1="78.87" y1="158.09" x2="93.09" y2="151.76"/><line class="cls-39" x1="123.85" y1="137.63" x2="124.13" y2="165.58"/><rect class="cls-40" x="40.29" y="100.67" width="20.51" height="20.51"/><rect class="cls-41" x="254.42" y="117.06" width="17.52" height="17.52"/><rect class="cls-42" x="31.27" y="116.61" width="11.76" height="11.76"/><rect class="cls-40" x="270.88" y="133.51" width="5.83" height="5.83"/><path class="cls-43" d="M153.66,37.94A118.34,118.34,0,0,1,171.52,69.3" transform="translate(-6.44 -8.77)"/><path class="cls-43" d="M154,34.85l-.32-.33,4.86,5.74" transform="translate(-6.44 -8.77)"/><path class="cls-17" d="M112.66,164.38c2.06-1,4.46-8.58,4.46-8.58S114.52,162.09,112.66,164.38Z" transform="translate(-6.44 -8.77)"/><path class="cls-44" d="M124.42,146.27" transform="translate(-6.44 -8.77)"/><line class="cls-43" x1="119.13" y1="165.4" x2="119.13" y2="178.96"/><line class="cls-43" x1="120.71" y1="163.36" x2="120.71" y2="169.24"/><path class="cls-4" d="M17.82,211.86a23.93,23.93,0,0,1,30.29-33.55" transform="translate(-6.44 -8.77)"/><path class="cls-15" d="M142,94.46c.57-4.11,1.1-8.52,1.59-13.29-.76.15-7.15,29.09-8.94,35.16-2.5,8.52-5.25,17.13-10.3,24.44-.38.53-3.6,4.54-1.44,4.34s4.92-2.33,5.8-3.42c.69-.88,5.7-8.63,10.13-29.17,2.51,4.37,10.34,15.81,10.34,15.81,11.2-3.27,23.37-16.34,27.95-21.63C166.23,116.51,140,114.31,142,94.46Z" transform="translate(-6.44 -8.77)"/><path class="cls-15" d="M179,104.5a11.33,11.33,0,0,1-1.85,2.2C178.18,105.5,178.81,104.7,179,104.5Z" transform="translate(-6.44 -8.77)"/></g></g></svg>