<svg xmlns="http://www.w3.org/2000/svg" xmlns:xlink="http://www.w3.org/1999/xlink" viewBox="0 0 426.12 507.58"><defs><style>.cls-1,.cls-24,.cls-30,.cls-33,.cls-34,.cls-36,.cls-37,.cls-38,.cls-39,.cls-4,.cls-40,.cls-43,.cls-9{fill:none;}.cls-2{isolation:isolate;}.cls-12,.cls-3{fill:#f6f8fa;}.cls-31,.cls-4{stroke:#d3dbe5;}.cls-24,.cls-25,.cls-31,.cls-33,.cls-34,.cls-36,.cls-37,.cls-38,.cls-39,.cls-4,.cls-43{stroke-linecap:round;}.cls-24,.cls-25,.cls-31,.cls-33,.cls-34,.cls-37,.cls-38,.cls-4,.cls-43{stroke-linejoin:round;}.cls-24,.cls-25,.cls-31,.cls-34,.cls-36,.cls-37,.cls-38,.cls-39,.cls-4,.cls-40,.cls-43{stroke-width:0.25px;}.cls-5{clip-path:url(#clip-path);}.cls-31,.cls-6{fill:#d3dbe5;}.cls-25,.cls-7{fill:#fff;}.cls-8{fill:url(#Sfumatura_senza_nome_10);}.cls-37,.cls-38,.cls-39,.cls-9{stroke:#fff;}.cls-30,.cls-36,.cls-39,.cls-40,.cls-9{stroke-miterlimit:10;}.cls-10{fill:#43aa82;}.cls-11{fill:url(#Sfumatura_senza_nome_10-2);}.cls-12,.cls-15{mix-blend-mode:multiply;}.cls-13{fill:url(#Sfumatura_senza_nome_60);}.cls-14{fill:url(#Sfumatura_senza_nome_11);}.cls-15{fill:#b3b3b3;opacity:0.3;}.cls-16{fill:url(#Sfumatura_senza_nome_179);}.cls-17{fill:#db5437;opacity:0.24;}.cls-18{fill:#91bdfd;}.cls-19{clip-path:url(#clip-path-2);}.cls-20{fill:url(#Sfumatura_senza_nome_179-2);}.cls-21{fill:url(#Sfumatura_senza_nome_17);}.cls-22{fill:url(#Sfumatura_senza_nome_17-2);}.cls-23{fill:#24497e;}.cls-24,.cls-25,.cls-33{stroke:#24497e;}.cls-26{fill:url(#Sfumatura_senza_nome_60-2);}.cls-27{fill:url(#Sfumatura_senza_nome_27);}.cls-28{opacity:0.18;}.cls-29{clip-path:url(#clip-path-3);}.cls-30{stroke:#99c3e4;stroke-width:0.5px;}.cls-32{fill:url(#Sfumatura_senza_nome_3);}.cls-34,.cls-40{stroke:#59e3ad;}.cls-34{stroke-dasharray:3 3 3 3;}.cls-35{fill:url(#Sfumatura_senza_nome_2);}.cls-36{stroke:#a7b6cb;}.cls-38{opacity:0.5;}.cls-41{fill:url(#Sfumatura_senza_nome_11-2);}.cls-42{fill:url(#Sfumatura_senza_nome_11-3);}.cls-43{stroke:#b3b3b3;}.cls-44{fill:url(#Sfumatura_senza_nome_179-3);}</style><clipPath id="clip-path" transform="translate(-9.55 -10.15)"><path class="cls-1" d="M321.58,402.18s33.81-3.75,58.1-14.14c23.67-10.12,46.8,29.08,46.8,29.08v58L374,531.25l-78.62-2.53-29.67-80.44,14-15.57Z"/></clipPath><linearGradient id="Sfumatura_senza_nome_10" x1="289.38" y1="549.72" x2="293.86" y2="597.6" gradientTransform="translate(85.04 -161.18) rotate(1.44)" gradientUnits="userSpaceOnUse"><stop offset="0" stop-color="#9fefcf"/><stop offset="1" stop-color="#59e3ad"/></linearGradient><linearGradient id="Sfumatura_senza_nome_10-2" x1="184.31" y1="219.69" x2="125.72" y2="286.59" gradientTransform="matrix(1, 0, 0, 1, 0, 0)" xlink:href="#Sfumatura_senza_nome_10"/><radialGradient id="Sfumatura_senza_nome_60" cx="294.98" cy="303.01" r="71.24" gradientUnits="userSpaceOnUse"><stop offset="0.15" stop-color="#1b375f"/><stop offset="1" stop-color="#24497e"/></radialGradient><radialGradient id="Sfumatura_senza_nome_11" cx="205.37" cy="230.54" r="88.69" gradientUnits="userSpaceOnUse"><stop offset="0" stop-color="#f6f8fa"/><stop offset="0.07" stop-color="#f3f5f8"/><stop offset="0.5" stop-color="#e2e7ee"/><stop offset="0.82" stop-color="#dce2ea"/></radialGradient><linearGradient id="Sfumatura_senza_nome_179" x1="152.85" y1="215.42" x2="191.55" y2="215.42" gradientUnits="userSpaceOnUse"><stop offset="0.17" stop-color="#ffd672"/><stop offset="1" stop-color="#ee9a57"/></linearGradient><clipPath id="clip-path-2" transform="translate(-9.55 -10.15)"><path class="cls-1" d="M126.88,218.18s3.76-16.9,17.22-29.15l-20.39-4.41-22.32,17.21-6.28,8.83,11.56,10Z"/></clipPath><linearGradient id="Sfumatura_senza_nome_179-2" x1="71.58" y1="235.16" x2="112.6" y2="235.16" gradientTransform="translate(40.76 -33.49) rotate(0.49)" xlink:href="#Sfumatura_senza_nome_179"/><linearGradient id="Sfumatura_senza_nome_17" x1="119.9" y1="52.21" x2="196.16" y2="51.69" gradientUnits="userSpaceOnUse"><stop offset="0.17" stop-color="#ffd672"/><stop offset="1" stop-color="#f3ad5f"/></linearGradient><linearGradient id="Sfumatura_senza_nome_17-2" x1="119.87" y1="45.91" x2="194.98" y2="45.41" xlink:href="#Sfumatura_senza_nome_17"/><radialGradient id="Sfumatura_senza_nome_60-2" cx="122.03" cy="35.81" r="0" xlink:href="#Sfumatura_senza_nome_60"/><linearGradient id="Sfumatura_senza_nome_27" x1="134.89" y1="102.37" x2="246.39" y2="157.14" gradientUnits="userSpaceOnUse"><stop offset="0.34" stop-color="#4891fb"/><stop offset="0.8" stop-color="#227bfb"/></linearGradient><clipPath id="clip-path-3" transform="translate(-9.55 -10.15)"><path class="cls-1" d="M179.73,119.94c-4.44,17.93-25.13,58.74-27,62.11l-.32.21a74.45,74.45,0,0,1-17.81-7.07l-.11,0A996,996,0,0,0,162.91,68.32a38.74,38.74,0,0,1,3.79,3.79s8.33-1,10.21-12.5a17,17,0,0,1,6.31-10.38,18.63,18.63,0,0,1,4.31-2.66c10.56-4.71,23.37-.25,31.76,7.72s13.37,18.8,18.27,29.31c9.09,19.51,18.57,38.86,29,57.69,1.15,2.07,1.39,3.47,1,4.74-.45,1.55-1.83,2.92-3.64,5.12a130.17,130.17,0,0,1-35.07,29.95,55.5,55.5,0,0,1-6,3.11c-.94.39-1.88.75-2.83,1l-.47.59a61,61,0,0,0-16.83-9.44l-1.11-.31a209.54,209.54,0,0,1-7.22,21.12,36.31,36.31,0,0,1-3.68,7.41l-.19-.17a32.33,32.33,0,0,1-21.39-3.16l-.68-.2a285.18,285.18,0,0,0,6.76-27.73c1.21-6.22,2.21-12.49,3-18.8q1.59-12.33,2.22-24.85C180.47,127.7,180.42,121.51,179.73,119.94Z"/></clipPath><linearGradient id="Sfumatura_senza_nome_3" x1="67.11" y1="403.84" x2="69.32" y2="504.95" gradientUnits="userSpaceOnUse"><stop offset="0.34" stop-color="#9fefcf"/><stop offset="0.75" stop-color="#59e3ad"/></linearGradient><linearGradient id="Sfumatura_senza_nome_2" x1="207.14" y1="394.69" x2="207.69" y2="502.98" gradientUnits="userSpaceOnUse"><stop offset="0.36" stop-color="#9fefcf"/><stop offset="0.78" stop-color="#59e3ad"/></linearGradient><radialGradient id="Sfumatura_senza_nome_11-2" cx="393.16" cy="197.61" r="33.31" xlink:href="#Sfumatura_senza_nome_11"/><radialGradient id="Sfumatura_senza_nome_11-3" cx="45.04" cy="190.88" r="25.79" xlink:href="#Sfumatura_senza_nome_11"/><linearGradient id="Sfumatura_senza_nome_179-3" x1="183.45" y1="212.81" x2="183.45" y2="212.81" xlink:href="#Sfumatura_senza_nome_179"/></defs><title>hero</title><g class="cls-2"><g id="Layer_1" data-name="Layer 1"><path class="cls-3" d="M192.83,211.79s14.39-21.89,13.16-38.6l-18.24-2.76-9.2,44.77Z" transform="translate(-9.55 -10.15)"/><path class="cls-4" d="M200.48,172.86A66,66,0,0,1,216,177.57" transform="translate(-9.55 -10.15)"/><path class="cls-3" d="M56.33,242.91S53.4,254.82,58,257.12l-7.45.76S53.82,243.74,56.33,242.91Z" transform="translate(-9.55 -10.15)"/><path class="cls-4" d="M50.55,257.88c7.6-31.5,35.25-54.85,68.2-54.85" transform="translate(-9.55 -10.15)"/><path class="cls-3" d="M146.76,187.52S167,175,172.41,186.29l2.84-13.21S152.64,177.87,146.76,187.52Z" transform="translate(-9.55 -10.15)"/><path class="cls-3" d="M400.12,261.53s2.95-17.09,14.1-10.23a49.11,49.11,0,0,0-16.75-8.2S400.6,250.12,400.12,261.53Z" transform="translate(-9.55 -10.15)"/><path class="cls-3" d="M356,246.13s6.06-33.19,26-24.85c0,0-10.22-10.13-30.95-10.05C351.06,211.23,355.54,219.8,356,246.13Z" transform="translate(-9.55 -10.15)"/><g class="cls-5"><path class="cls-6" d="M388.57,491.92l-.09,8.95a1,1,0,0,1-.64.91L344.1,517.4a6.73,6.73,0,0,1-6.8-1.74l-64.58-62.61a2.14,2.14,0,0,1-.68-1.45c-.05-.34-.2-3.5-.2-3.5h0a2.09,2.09,0,0,0,.66,1.36l.57.54,64,62a6.71,6.71,0,0,0,6.79,1.75l43.75-15.61a1,1,0,0,0,.64-.88Z" transform="translate(-9.55 -10.15)"/><path class="cls-7" d="M387.76,496.08a1.46,1.46,0,0,1,.51,1.23,1,1,0,0,1-.64.88L343.88,513.8a6.71,6.71,0,0,1-6.79-1.75l-64-62-.57-.54a2.09,2.09,0,0,1-.66-1.36,1.48,1.48,0,0,1,1-1.69L316,433.47Z" transform="translate(-9.55 -10.15)"/><polygon class="cls-4" points="332.12 496.29 272.59 440.15 307.02 429.51 367.7 483.62 332.12 496.29"/><line class="cls-4" x1="356.9" y1="474.29" x2="321.86" y2="486.47"/><line class="cls-4" x1="346.41" y1="464.93" x2="311.61" y2="476.74"/><line class="cls-4" x1="336.16" y1="455.79" x2="301.58" y2="467.25"/><line class="cls-4" x1="326.15" y1="446.86" x2="291.76" y2="457.99"/><line class="cls-4" x1="316.37" y1="438.13" x2="282.17" y2="448.94"/><line class="cls-4" x1="298.53" y1="432.28" x2="358.69" y2="486.68"/><line class="cls-4" x1="289.99" y1="434.92" x2="349.87" y2="489.82"/><line class="cls-4" x1="281.37" y1="437.58" x2="341.01" y2="493.04"/><path class="cls-7" d="M411.36,428.26a5.4,5.4,0,0,1,1.66,5.93L391.27,494.3a3.73,3.73,0,0,1-5.38,1.76,5.56,5.56,0,0,1-.58-.41l-67.2-59a10.25,10.25,0,0,1-1.66-1.85l-.27-.41a8.52,8.52,0,0,1-.46-.84,8.79,8.79,0,0,1-.41-6.77l19.15-54.5a2.75,2.75,0,0,1,1.09-1.36,3.17,3.17,0,0,1,3.81.25Z" transform="translate(-9.55 -10.15)"/><path class="cls-6" d="M393.85,494.88c-.52,1.43-2.64,2.19-4.66,2.17a5.12,5.12,0,0,1-1.52-.47,3.59,3.59,0,0,0,3.6-2.28L413,434.19a5.4,5.4,0,0,0-1.66-5.93l-72-57.06a3.17,3.17,0,0,0-3.81-.25c1.19-2,5.4-1.12,6.75-.15l71.87,57.4a5.42,5.42,0,0,1,1.64,6Z" transform="translate(-9.55 -10.15)"/><path class="cls-8" d="M337.79,379.84a2,2,0,0,1,3.15-.72l63.73,52a3.88,3.88,0,0,1,1.21,4.3L387.77,487.9a1.7,1.7,0,0,1-2.69.61L321.37,433a3.89,3.89,0,0,1-1.21-4.3Z" transform="translate(-9.55 -10.15)"/><path class="cls-7" d="M316.18,434.42l.27.41C316.36,434.7,316.26,434.56,316.18,434.42Z" transform="translate(-9.55 -10.15)"/><path class="cls-7" d="M315.72,433.58a8.52,8.52,0,0,0,.46.84A7.51,7.51,0,0,1,315.72,433.58Z" transform="translate(-9.55 -10.15)"/><line class="cls-4" x1="375.76" y1="485.5" x2="308.56" y2="426.53"/><path class="cls-4" d="M385.31,495.65" transform="translate(-9.55 -10.15)"/><path class="cls-4" d="M385.89,496.06" transform="translate(-9.55 -10.15)"/><rect class="cls-9" x="250.07" y="412.15" width="8.25" height="8.25"/></g><path class="cls-10" d="M190.62,207.51l4.34,1.22S155.64,257.85,134.73,272c-5.36,0-13.93.35-15.61.44l-.48-32.89Z" transform="translate(-9.55 -10.15)"/><path class="cls-11" d="M195,208.73v46.79l-39.39,18.25a169.78,169.78,0,0,0-33.11-1.5V242.32l29.72-13.76C153.33,228.28,195,208.73,195,208.73Z" transform="translate(-9.55 -10.15)"/><path class="cls-12" d="M102.46,275.31c23-6.48,71.22-3.42,100.41,12.6C167.47,260.24,123.27,262.24,102.46,275.31Z" transform="translate(-9.55 -10.15)"/><polygon class="cls-10" points="146.12 230.92 146.12 233.28 146.14 249.41 162.04 236.63 146.12 230.92"/><path class="cls-3" d="M345.67,204.87q-13.83.45-27.65.93c-4,.13-8.33.15-11.47-2.29-2.06-1.59-4-5.28-4.73-8.79-2,1.67-4.17,3.23-6.25,4.74C285,207.21,274.45,217.05,272.5,230c-1.24,8.3,1.26,16.65,3.75,24.67,5.12,16.56,13.23,42.12,18.36,58.68-10.42-23.05-26.76-54.61-37.19-77.68-1.16-2.58-3.32-7.51-3.14-10.34.26-4.22,6.34-8.2,9-11.47,13.59-16.62,17-37.52,9.69-57.7,4.64-.71,11-1.19,15.6-.13l-.35-.07,8,2.71a35.92,35.92,0,0,0-7.61-2.64c6.19,1.06,12.29,3.45,16.83,7.8s7.33,11.09,6,17.35a16.49,16.49,0,0,1-1.37,3.95,4.77,4.77,0,0,1,2.48,3.18c.5,1.75.08,3.74,1,5.31,1.23,2.17,4.2,2.43,6.7,2.43l14.38,0c2.89,0,5.65-1.52,8.14-.07S345.81,202.4,345.67,204.87Z" transform="translate(-9.55 -10.15)"/><rect class="cls-7" x="312.03" y="275.61" width="58.1" height="5.23"/><path class="cls-3" d="M305.15,343.58c3.57-3.07,7.11-6.74,7.81-11.39a10,10,0,0,0-2.82-8.68,8.38,8.38,0,0,0-8.79-1.75c-3.25,1.38-5.09,4.77-6.68,7.93-1.84,3.65-14.25,23.59-11.57,26.1C286,358.47,305.15,346.49,305.15,343.58Z" transform="translate(-9.55 -10.15)"/><path class="cls-13" d="M299.66,323.6c0,3.64-1.58,7.08-3.27,10.29a193.55,193.55,0,0,1-14.31,22.79,17,17,0,0,1-4.21,4.53A6.14,6.14,0,0,1,272,362a6.21,6.21,0,0,1-3.17-5,18.28,18.28,0,0,1,.66-6.1c2.3-10.2,4.58-20.38,7.22-30.48a11.72,11.72,0,0,0,6.15,1.75,10.25,10.25,0,0,0,9.37-7.08,10.69,10.69,0,0,0,.29-5.5C296,313.68,299.59,318.24,299.66,323.6Z" transform="translate(-9.55 -10.15)"/><path class="cls-14" d="M292.5,309.59a10.69,10.69,0,0,1-.29,5.5,10.25,10.25,0,0,1-9.37,7.08,11.72,11.72,0,0,1-6.15-1.75,33.48,33.48,0,0,1-5.29-4.06c-19.2-17.1-39.07-44.71-54.19-65.16a41,41,0,0,1-6.67-35.34,161.26,161.26,0,0,1,10.88-28.34c-.57-.48-1.16-1-1.75-1.42l-.71-.83c.95-.3,3.09-.42,4-.81a58,58,0,0,0,6.08-3.12,131.24,131.24,0,0,0,24.57-18.47,132.76,132.76,0,0,0,10.72-11.53c1.81-2.21,3.2-3.57,3.66-5.13l.24.11a42,42,0,0,1,5.75,9.74c4.91,11.52,5,25.15,1.26,37.22s-11.08,22.8-20,31.94h0q15.92,34.46,31.82,68.88A162.91,162.91,0,0,1,292.5,309.59Z" transform="translate(-9.55 -10.15)"/><path class="cls-15" d="M154.14,223.56s4.52.58,4.52,1.6-5.79,11.75-4.3,14.23c.73,1.2,3.28-.81,4.82-2.78s-.52,6.71,2.33,4.82a35.19,35.19,0,0,0,4.81-3.87s.37,4.09,2.92,2,10-12.54,10-16.92S157.13,218.31,154.14,223.56Z" transform="translate(-9.55 -10.15)"/><path class="cls-16" d="M174.72,197.11c-1.83,8.62-22.24,25-21.86,27.16.06.34,2.1-1,3.44-1.47a2.29,2.29,0,0,1,2.91,1.46c2.35,5.44-5.89,16.5-3,17.48s10.58-14.11,11.52-17.8c-.47,6-8.48,17.17-6,18.61.89.52,3.07-.77,4.5-3.21,0,0-.11.88.63,1,2.84-.67,6.66-6.24,10.41-13.62,2.15-4.23,4.73-6.83,6.18-13.92,2.94-14.38,10.89-26.33,7.09-24.43C183.08,192.13,176.54,188.48,174.72,197.11Z" transform="translate(-9.55 -10.15)"/><path class="cls-17" d="M168.48,207.36a18.23,18.23,0,0,0-1.67,1.65c15.88,2.63,9.09,25.25,16.1,6.3l1.4-6.1-1.18-2.11Z" transform="translate(-9.55 -10.15)"/><path class="cls-18" d="M168.48,207.36a14.85,14.85,0,0,1-1.51-1.73c.45-1.41,1.1-2.81,1.52-4.24l.45.19a32.58,32.58,0,0,0,21.52,3.16s-3.31,3.9-4.56,4.63a14.94,14.94,0,0,1-8.33,2.09A13.58,13.58,0,0,1,168.48,207.36Z" transform="translate(-9.55 -10.15)"/><g class="cls-19"><path class="cls-3" d="M99.62,211s.57,1.12,2.83.29c0,0-1.47,2.61.72,2.48s18.5-6.54,20.59-2.57,3.43,4.13,4.51,3.61c0,0,2.44-7.15,4.1-8.35s-7.48-2.94-7.48-2.94S104,206.8,99.62,211Z" transform="translate(-9.55 -10.15)"/><path class="cls-20" d="M101.12,211.91a1.76,1.76,0,0,1,.59-.56c.3-.21.61-.4.91-.6l0,0a1,1,0,0,1-1.2-.37,1.45,1.45,0,0,1,.06-1.44,3.86,3.86,0,0,1,1-1.11l1.29-1.06-.14-.17c.44-1.61,1.94-2.65,3.33-3.56,7.06-4.6,13.29-8.16,21.41-9.47a4.38,4.38,0,0,0,2.57-1.4,5.75,5.75,0,0,0,1.27-2l.16-.08a18.79,18.79,0,0,0,9.8,7.77c-4.82,4.24-9.5,8.5-12.62,14.15a9.12,9.12,0,0,1-4.45,2.72,1.42,1.42,0,0,1-1.21,0,1.44,1.44,0,0,1-.3-1.6,17.15,17.15,0,0,1,2.4-4.4,9.32,9.32,0,0,0,.55-.92c-8.05-.44-16.11,3.36-24.17,5-.49.11-1.16.12-1.32-.36A.63.63,0,0,1,101.12,211.91Z" transform="translate(-9.55 -10.15)"/><path class="cls-17" d="M132.37,190.05s6.22,14.66-8.64,24.33c.56,1.65,5-1.6,5-1.6a37.42,37.42,0,0,1,6.88-11.51l4.56-4.91S136.06,195.35,132.37,190.05Z" transform="translate(-9.55 -10.15)"/><path class="cls-17" d="M102.17,211.05s10.57-7.63,18.24-8.49A28,28,0,0,0,102.17,211.05Z" transform="translate(-9.55 -10.15)"/><path class="cls-17" d="M102.48,207.8s9.23-6.3,16.84-7.91A35.25,35.25,0,0,0,102.48,207.8Z" transform="translate(-9.55 -10.15)"/><path class="cls-18" d="M150.3,195.87a59.66,59.66,0,0,0-7,5.4,19.19,19.19,0,0,1-11.83-9c-.09-.16-.18-.31-.26-.47.34-1,.68-2,1-3.07l.11,0A75.54,75.54,0,0,0,150.3,195.87Z" transform="translate(-9.55 -10.15)"/></g><path class="cls-21" d="M183.59,50.32s-6.41,6.06-7,10c-1.83,11.08-9.85,12-9.85,12A38.12,38.12,0,0,0,163,68.69a40.46,40.46,0,0,0-8.76-5.85h0l-.08.23a11.86,11.86,0,0,1-2,3.17,13.37,13.37,0,0,1-14.79,3.4c-3.27-1.36-6.09-4.08-9.59-4.27-1.29-.07-2.65.19-3.72-.47s-1.57-2.17-2.17-3.37a8.08,8.08,0,0,0-.91-1.41l-.52-.65a2.17,2.17,0,0,0-.24-.29l2.07-3c2.56,1.73,5.43,2,6.43.5s-.29-4-2.85-5.8l9.28-13.68.52-3.68c-.08.42,4.44-2.25,4.55-1.83l4.94,1c1.83-.08.91.26,2.06,1.7l-.41,3.08A5,5,0,0,0,148.19,39c2.93,1.91,6.22,3.53,9.78,3.53,1.17,0,2.51-.21,3.16-1.12A55.64,55.64,0,0,0,183.59,50.32Z" transform="translate(-9.55 -10.15)"/><path class="cls-22" d="M135.15,37.2l-9.28,13.68,0,0c-2.59-1.76-5.5-2-6.49-.52s.3,4.06,2.89,5.82l0,0-2,3c-2.39-2.63-5.83-4.52-7.15-7.82l-.07-.08c.22-.22.45-.46.66-.69a32.16,32.16,0,0,0,7.1-12.83h0a21.45,21.45,0,0,0,7.08-5.2l.11.11A9.83,9.83,0,0,0,135.15,37.2Z" transform="translate(-9.55 -10.15)"/><path class="cls-7" d="M135.77,62c.14-.52.29-1.17.82-1.28s.78.27,1,.64a2.9,2.9,0,0,1,.09,2.46A3.76,3.76,0,0,1,136,65.67a2.08,2.08,0,0,1-1.71.25c-1.19-.45-.55-1.11,0-1.59A4.59,4.59,0,0,0,135.77,62Z" transform="translate(-9.55 -10.15)"/><path class="cls-17" d="M130.93,55.5c.5-2.57-3.7-5.16-4.87-4.9.61.85,1.53,1.31,1.94,2.29s1.31,1.91,1.05,3c-.22.9-2.19,1.88-.71,1.78A2.54,2.54,0,0,0,130.93,55.5Z" transform="translate(-9.55 -10.15)"/><path class="cls-23" d="M122.76,55.54l0,0c-2.6-1.76-3.88-4.37-2.9-5.83s3.91-1.23,6.5.53l0,0c2.55,1.76,3.83,4.35,2.84,5.81S125.34,57.27,122.76,55.54Z" transform="translate(-9.55 -10.15)"/><path class="cls-7" d="M125.87,50.88c2.55,1.75,3.83,4.34,2.84,5.8s-3.86,1.22-6.43-.5l0,0c-2.59-1.76-3.88-4.36-2.89-5.82s3.9-1.24,6.49.52Z" transform="translate(-9.55 -10.15)"/><path class="cls-17" d="M120.71,42a7.71,7.71,0,0,1,1-2.67,7.11,7.11,0,0,1,2.46-1.78,18.15,18.15,0,0,0,3.37-2.41A4.4,4.4,0,0,0,129,33a1.79,1.79,0,0,0-1-2.15,1.88,1.88,0,0,0-1.5.32,8.21,8.21,0,0,0-1.15,1.06,14.34,14.34,0,0,1-6.71,3.89,15,15,0,0,1-3.17,9.13,26.81,26.81,0,0,0-1.75,2.23c-.46.72-1.5,2.94.2,2.33a10.31,10.31,0,0,0,3-1.89A12.07,12.07,0,0,0,120.71,42Z" transform="translate(-9.55 -10.15)"/><path class="cls-17" d="M127.65,63.34a2.87,2.87,0,0,1,.59-.39.82.82,0,0,1,.72,0,.66.66,0,0,1,.22.67,4.35,4.35,0,0,1-.77,1.72,10.24,10.24,0,0,1-4.35-.45c.15-.43,1.53-.41,2-.6A6.82,6.82,0,0,0,127.65,63.34Z" transform="translate(-9.55 -10.15)"/><path class="cls-17" d="M168.22,72c-.45.18-.76.14-1.52.37a40.49,40.49,0,0,0-12.43-9.49,16.09,16.09,0,0,0,.1-11c4.61,9.54,14,12,21.54,11.64A14.19,14.19,0,0,1,168.22,72Z" transform="translate(-9.55 -10.15)"/><path class="cls-17" d="M134.24,41.53c1-1.3,2-2.78,1.79-4.39a75.78,75.78,0,0,0-8.46,12c-.35.61-.24,1.79.47.95s1.12-1.77,1.73-2.57Z" transform="translate(-9.55 -10.15)"/><path class="cls-24" d="M122.28,56.18l0,0c-2.59-1.76-3.88-4.36-2.89-5.82s3.9-1.24,6.49.52l0,0c2.55,1.75,3.83,4.34,2.84,5.8S124.85,57.9,122.28,56.18Z" transform="translate(-9.55 -10.15)"/><path class="cls-17" d="M123.52,57.26a6.09,6.09,0,0,0-.48.55c-.66.76-1.22,1.75-1.9,2.44l-.08.07-.48-.69a1.61,1.61,0,0,1,.16-.35c.55-.86,1.16-1.71,1.76-2.53A10.78,10.78,0,0,0,123.52,57.26Z" transform="translate(-9.55 -10.15)"/><path class="cls-23" d="M120,59.25l0,0c2.43,1.92,3.52,4.59,2.45,6s-4,1-6.44-1-3.57-4.62-2.49-6S117.51,57.32,120,59.25Z" transform="translate(-9.55 -10.15)"/><path class="cls-7" d="M119.82,60.06c2.43,1.92,3.52,4.59,2.45,6s-4,1-6.44-1-3.58-4.62-2.49-6,4-1,6.44,1Z" transform="translate(-9.55 -10.15)"/><path class="cls-25" d="M119.78,60l0,0c2.43,1.92,3.52,4.59,2.45,6s-4,1-6.44-1-3.58-4.62-2.49-6S117.3,58.09,119.78,60Z" transform="translate(-9.55 -10.15)"/><polyline class="cls-24" points="110.27 49.91 110.82 49.19 113.07 46.32"/><polyline class="cls-24" points="116.32 40.73 125.6 27.05 126.8 25.28"/><path class="cls-26" d="M122,35.81" transform="translate(-9.55 -10.15)"/><path class="cls-23" d="M129.64,12.05a7.06,7.06,0,0,1,5.07,3.1,4.36,4.36,0,0,1,.58,1.58,5.22,5.22,0,0,1-1.06,4.34c-.25,3.73-2.47,8.15-5.95,11.88a22,22,0,0,1-7.08,5.24A32.72,32.72,0,0,1,114.07,51c-.22.24-.45.48-.69.71C109,56.23,102,59,96.19,55.29a9.9,9.9,0,0,1-4.6-9.52c.49-3.29,2.77-6,3.72-9.2s.54-6.81,1.86-9.9a11.12,11.12,0,0,1,3.76-4.56c1.15-.85,2.43-1.53,3.52-2.47a21.8,21.8,0,0,0,2.58-3.5c5-6.45,15.24-7.4,22.29-4.24A1.57,1.57,0,0,0,129.64,12.05Z" transform="translate(-9.55 -10.15)"/><path class="cls-23" d="M162.16,39.56a4.92,4.92,0,0,0-1.08-2.26,13.47,13.47,0,0,0-1.55-1.73c-1.11-1-2.32-1.94-3.48-2.84a50.77,50.77,0,0,1-6.37-6,66.27,66.27,0,0,0-6.39-6.25,22,22,0,0,0-8-4.26.54.54,0,0,0-.65.38.53.53,0,0,0,.14.51,4.67,4.67,0,0,1-1.11,3.75c-.18,3.69-3.7,10.08-5.87,12.56a9.33,9.33,0,0,0,7.25,4.32,9.53,9.53,0,0,0,1.23.08l.08,0a2.9,2.9,0,0,0,1,1,.3.3,0,0,0,.38-.08.29.29,0,0,0,0-.42h0a2.87,2.87,0,0,1-.59-3.48,3.64,3.64,0,0,1,3.17-1.72,5.48,5.48,0,0,1,3.61,1.45c1.07.83,1.59,2.11,2.46,3.44a6.81,6.81,0,0,0,.76,1,4.85,4.85,0,0,0,1,.76c.63.41,1.27.8,1.94,1.16a20.25,20.25,0,0,0,4.21,1.76,12.76,12.76,0,0,0,4.62.49,4.31,4.31,0,0,0,2.4-.94A3,3,0,0,0,162.16,39.56Z" transform="translate(-9.55 -10.15)"/><path class="cls-27" d="M179.61,120.08c-4.47,18-25.28,58.83-27.12,62.22-.07,0-5.09,3.81-8.7,7a34.91,34.91,0,0,0-3.63,3.82c-1-.26-1,2.7-1.89,2.33a16.52,16.52,0,0,1-6.61-4.91c11.35-34.61,23.69-86.6,31-122.17a39,39,0,0,1,3.81,3.8s8.39-1,10.28-12.52a17,17,0,0,1,6.35-10.4,18.79,18.79,0,0,1,4.33-2.67c10.62-4.71,23.51-.24,31.95,7.74s13.46,18.83,18.39,29.36C247,103.22,256.49,122.6,267,141.46c1.15,2.07,1.4,3.47,1,4.75-.46,1.56-1.85,2.92-3.66,5.13a132.76,132.76,0,0,1-10.72,11.53,131.24,131.24,0,0,1-24.57,18.47c-1.95,1.13-7,4.15-9.1,5C209.6,173,206.84,167,204.73,162.91c-.08,3.57-7.62,27.83-10.37,34.58a71.39,71.39,0,0,1-3.9,7.25c-12,5.18-22.2-3.37-22.2-3.37,2.72-9.1,5-18.38,6.79-27.77q1.83-9.34,3.06-18.84,1.62-12.34,2.24-24.89C180.35,127.85,180.3,121.64,179.61,120.08Z" transform="translate(-9.55 -10.15)"/><g class="cls-28"><g class="cls-29"><path class="cls-30" d="M220.06,184.85A269.65,269.65,0,0,1,226,113.18c1.35-6.17,3-12.53,7.11-17.35S244.28,88.21,250,91" transform="translate(-9.55 -10.15)"/><path class="cls-30" d="M238.46,175.13a165.64,165.64,0,0,1,5.06-46c1.13-4.42,2.48-8.87,5-12.65s6.5-6.82,11-7.29" transform="translate(-9.55 -10.15)"/><path class="cls-30" d="M156.41,98.08a90.39,90.39,0,0,1,3.61,54c-1.43,5.86-3.86,12.08-9.11,15-5.89,3.29-13.2,1.37-19.64-.62" transform="translate(-9.55 -10.15)"/><path class="cls-30" d="M143.36,148.55c3,.25,5.85-1.67,7.41-4.24a16.64,16.64,0,0,0,2-8.68A34.43,34.43,0,0,0,146.62,116c-.26.42-.51.84-.76,1.26" transform="translate(-9.55 -10.15)"/><path class="cls-30" d="M217.41,45.91a27.77,27.77,0,0,0,1.26,32.19A27.49,27.49,0,0,0,249.78,86" transform="translate(-9.55 -10.15)"/><path class="cls-30" d="M173.57,56.49a110.4,110.4,0,0,1,53.36,53.36" transform="translate(-9.55 -10.15)"/><path class="cls-30" d="M227.21,59.83a7.75,7.75,0,0,0,8,13.21" transform="translate(-9.55 -10.15)"/><path class="cls-30" d="M257.16,126.38a15.09,15.09,0,0,1,.67-1.73,45.88,45.88,0,0,0,2.1,40c.34.6.8,1.26,1.48,1.3s1.15-1.12.5-1.31" transform="translate(-9.55 -10.15)"/><path class="cls-30" d="M178.14,153a48.41,48.41,0,0,1-.06,39.38c-1.91,4.19-5,8.49-9.56,9.05" transform="translate(-9.55 -10.15)"/><path class="cls-30" d="M179.94,144.84c13.1,17.23,15.72,41.88,6.54,61.5" transform="translate(-9.55 -10.15)"/></g></g><path class="cls-3" d="M324.12,402v-.08c0-.67,22.19-3.69,21.52-3.72-43.36-2.08-56-5.24-73.08-11.44-12-4.37-23.61-10.3-33.4-18.54s-17.78-18.88-21.76-31.05a44,44,0,0,1-2.27-12.29c-.1-3.5,1.62-7.73.9-11-9.45,2.33-16.79,17.77-18.63,26.41a40.63,40.63,0,0,0-.8,6A71.63,71.63,0,0,0,201,362c3.57,8.54,9.27,14.81,16.67,20.28a143.38,143.38,0,0,0,14.56,9.53c7,1,13.31,6.33,20.88,6.43a4.94,4.94,0,0,1,3,1c22.39,4.31,41.63,5,64.35,3.12C320.41,402.07,324.11,402.27,324.12,402Z" transform="translate(-9.55 -10.15)"/><path class="cls-3" d="M201,361.52a28.93,28.93,0,0,1-1.4-5.13c-1.34-2.2,0-5.76-1.38-7.72-1.84-2.69-152.34,35.17-172.81-37.2-8,11.46-25.42,62.91,60,70.75,13.48,1.73,27.44,1.5,41,1.15q8.6-.22,17-1.23c7.24-1.06,14.46-2.36,21.64-3.8a235,235,0,0,0,36.24-11.71,6.45,6.45,0,0,0,.47-1.15,7.5,7.5,0,0,0,.26-1.4C201.59,363.2,201.25,362.33,201,361.52Z" transform="translate(-9.55 -10.15)"/><path class="cls-7" d="M296.2,158.68l-8-2.71.35.07A35.92,35.92,0,0,1,296.2,158.68Z" transform="translate(-9.55 -10.15)"/><path class="cls-4" d="M127.48,383.15A234,234,0,0,0,202,365.61" transform="translate(-9.55 -10.15)"/><path class="cls-4" d="M18.85,329.73A38.33,38.33,0,0,0,21.52,351c3.95,8.78,11.5,15.58,20,20.09s17.94,6.9,27.41,8.67a233,233,0,0,0,58.54,3.38" transform="translate(-9.55 -10.15)"/><path class="cls-3" d="M41.61,293s-20.87,11.72-19.06,0c0,0-1.39,10.87,3.58,17.21C26.13,310.24,33.88,297.76,41.61,293Z" transform="translate(-9.55 -10.15)"/><path class="cls-4" d="M25.37,311.47a50.06,50.06,0,0,0-6.52,18.26" transform="translate(-9.55 -10.15)"/><path class="cls-4" d="M26.13,310.24c-.27.4-.51.81-.76,1.23" transform="translate(-9.55 -10.15)"/><path class="cls-4" d="M55.13,283.4c-11.27,7-22,15.61-29,26.84" transform="translate(-9.55 -10.15)"/><path class="cls-4" d="M221.12,308.36A43.74,43.74,0,0,0,199,337.29c-2.42,10.95-.87,20.3,3.31,28.2,10.85,20.57,39.45,31.36,62.11,35.24,53.68,12,185.87-13.62,169.83-83.78a35.91,35.91,0,0,0-1.27-3.6c-.12-.29-.25-.58-.38-.87a37.93,37.93,0,0,0-2-3.93,39.9,39.9,0,0,0-3.33-4.94,45.45,45.45,0,0,0-32.2-17.17" transform="translate(-9.55 -10.15)"/><path class="cls-4" d="M351.06,211.23h0a48.5,48.5,0,0,1,33.49,12.19,48.41,48.41,0,0,1,14.87,43.88" transform="translate(-9.55 -10.15)"/><path class="cls-4" d="M397.47,243.1c.72.17,1.42.37,2.13.59.93.26,1.86.58,2.76.92a43.85,43.85,0,0,1,24.89,59" transform="translate(-9.55 -10.15)"/><path class="cls-4" d="M354.37,257.9" transform="translate(-9.55 -10.15)"/><path class="cls-4" d="M344,195.64a0,0,0,0,0,0,0,85.24,85.24,0,0,1,7.12,15.58" transform="translate(-9.55 -10.15)"/><path class="cls-4" d="M351.08,211.23a91.79,91.79,0,0,1,3.29,46.67" transform="translate(-9.55 -10.15)"/><path class="cls-4" d="M274,156.06a69.62,69.62,0,0,1,8.9.22,74.71,74.71,0,0,1,20.9,5" transform="translate(-9.55 -10.15)"/><path class="cls-4" d="M152.49,182.3a55.79,55.79,0,0,1,22.19-8.65" transform="translate(-9.55 -10.15)"/><path class="cls-4" d="M126,223.45a54.4,54.4,0,0,1,3.71-13.8,60.27,60.27,0,0,1,15.5-21.74,58.47,58.47,0,0,1,7-5.4" transform="translate(-9.55 -10.15)"/><path class="cls-4" d="M359,337.18c-11.18-20-27.9-29.25-37.46-33.83-.75-.36-1.5-.72-2.26-1.05a103.54,103.54,0,0,0-12.71-4.79" transform="translate(-9.55 -10.15)"/><path class="cls-15" d="M176.11,62.94c-2.2,7.11-7.75,9-9.61,9.22a50.59,50.59,0,0,0-3.81-3.8c-.05.66.81.72,5,6.7,15.23,38.47-8.56,91.68-15,106.34a2.58,2.58,0,0,1-.39.63l.57-.38c2.46-5.36,5.15-10.13,7.29-14.61,10.27-21.49,15.84-34,19.48-47C182.7,105.89,181.49,91.18,176.11,62.94Z" transform="translate(-9.55 -10.15)"/><path class="cls-15" d="M209.32,136.85c0,.18,0,.33-.06.48,0-.15,0-.27,0-.42A.1.1,0,0,1,209.32,136.85Z" transform="translate(-9.55 -10.15)"/><polygon class="cls-31" points="349.87 292.08 337.62 299.16 337.62 285.01 349.87 292.08"/><path class="cls-15" d="M253.13,229.18a5.21,5.21,0,0,1,3.76,1.63c.21.21.88-.2.77-.47l-2.37-5.12-2.61,2.87A.63.63,0,0,0,253.13,229.18Z" transform="translate(-9.55 -10.15)"/><path class="cls-6" d="M124.82,474.74c1.41,1.95.6,6.91-1.59,7.66L66.6,501.52a4.63,4.63,0,0,1-5.32-1.78L10.55,429.89c-1.51-1.9-1.3-5.43.58-6.51a3.23,3.23,0,0,0,0,3.69l50.41,70a4.63,4.63,0,0,0,5.28,1.8l56.07-18.95A3.8,3.8,0,0,0,124.82,474.74Z" transform="translate(-9.55 -10.15)"/><path class="cls-7" d="M124.82,474.74a3.8,3.8,0,0,1-1.95,5.14L66.8,498.83a4.63,4.63,0,0,1-5.28-1.8l-50.41-70a3.23,3.23,0,0,1,0-3.69,2.66,2.66,0,0,1,1.31-1l55.13-18.15a7.72,7.72,0,0,1,8.78,3.05l48.14,66.91A3.25,3.25,0,0,1,124.82,474.74Zm-9.82-.55a1.65,1.65,0,0,0,.7-2.49l-42.48-59a3.33,3.33,0,0,0-3.77-1.28l-48,16.22a2,2,0,0,0-.84,2.93L62.9,489.25a3.31,3.31,0,0,0,3.77,1.28Z" transform="translate(-9.55 -10.15)"/><path class="cls-32" d="M115.7,471.7a1.65,1.65,0,0,1-.7,2.49L66.67,490.53a3.31,3.31,0,0,1-3.77-1.28L20.63,430.59a2,2,0,0,1,.84-2.93l48-16.22a3.33,3.33,0,0,1,3.77,1.28Z" transform="translate(-9.55 -10.15)"/><line class="cls-4" x1="17.66" y1="412.1" x2="52.64" y2="400.06"/><polyline class="cls-4" points="312.03 275.61 370.13 275.61 370.13 280.84 370.13 310.94 337.48 310.94"/><path class="cls-33" d="M20.94,321.09" transform="translate(-9.55 -10.15)"/><path class="cls-33" d="M193.4,366.58" transform="translate(-9.55 -10.15)"/><path class="cls-31" d="M321.58,303.35c-1.09-.53-2.26-1.05-2.26-1.05l-.4-15.84a.72.72,0,0,1,.74-.7h1.92Z" transform="translate(-9.55 -10.15)"/><path class="cls-12" d="M310.08,298.63c4.72,2,28.25,6.43,48.63,37.88C353.29,322.69,348.63,302.67,310.08,298.63Z" transform="translate(-9.55 -10.15)"/><path class="cls-4" d="M209.05,291a165.59,165.59,0,0,0-53.48-17.22,169.78,169.78,0,0,0-33.11-1.5l-3.34.21a163.28,163.28,0,0,0-35.07,6.42" transform="translate(-9.55 -10.15)"/><polygon class="cls-4" points="357.91 183.67 306.23 183.67 291.4 131.99 343.08 131.99 357.91 183.67"/><polygon class="cls-31" points="336 155.16 321.48 165.89 317.06 147.08 336 155.16"/><polygon class="cls-31" points="334.41 185.5 304.11 185.5 289.3 133.82 291.4 131.98 306.23 183.67 357.91 183.67 355.8 185.5 334.41 185.5"/><line class="cls-34" x1="61.75" y1="373.69" x2="61.75" y2="439.15"/><path class="cls-34" d="M366.93,322.36V432.71" transform="translate(-9.55 -10.15)"/><path class="cls-34" d="M222.93,262.79c9.15,19.39,25.38,14.59,46.16,12.26,16.21-1.82,31.51-8.7,47.71-10.62s35.21,3,42.24,17.69" transform="translate(-9.55 -10.15)"/><path class="cls-6" d="M191.07,494,179.4,423.43c-.33-1.91,2-4.06,3.82-5a4.47,4.47,0,0,0-2.17,4.61l11.65,69.14a4.49,4.49,0,0,0,5.15,3.66L230,490.43a4.46,4.46,0,0,0,3-2c-.68,1.53-1.73,3.24-2.93,3.44l-33.83,5.7A4.44,4.44,0,0,1,191.07,494Z" transform="translate(-9.55 -10.15)"/><path class="cls-7" d="M216.82,412.5a4.44,4.44,0,0,1,5.14,3.65l11.66,69.14a4.08,4.08,0,0,1,0,1.48,15.1,15.1,0,0,1-.65,1.69,4.46,4.46,0,0,1-3,2l-32.12,5.42a4.49,4.49,0,0,1-5.15-3.66l-11.65-69.14a4.47,4.47,0,0,1,2.17-4.61,1.91,1.91,0,0,1,.32-.16,4.58,4.58,0,0,1,1.17-.38Z" transform="translate(-9.55 -10.15)"/><path class="cls-35" d="M228.92,479.48a4.07,4.07,0,0,1-3.33,4.68l-25.66,4.33a4,4,0,0,1-4.68-3.33l-9.28-55a4.07,4.07,0,0,1,3.33-4.68L215,421.16a4.07,4.07,0,0,1,4.68,3.34Z" transform="translate(-9.55 -10.15)"/><path class="cls-6" d="M211.76,415.65a1,1,0,0,1-1.8.66,1,1,0,0,1,1.8-.66Z" transform="translate(-9.55 -10.15)"/><line class="cls-4" x1="177.26" y1="412.93" x2="205.25" y2="408.29"/><line class="cls-34" x1="195.37" y1="362.2" x2="195.37" y2="433.03"/><path class="cls-36" d="M222.28,188.39A118,118,0,0,0,270,149.56" transform="translate(-9.55 -10.15)"/><path class="cls-36" d="M288.77,320c-11-20.52-27.1-50-41.12-68.58-5.65-7.49-11.76-15.38-12.6-24.73-.79-8.85,3.41-17.48,9-24.38s12.58-12.53,18.72-18.95c5.79-6.05,11-13.15,12.72-21.29" transform="translate(-9.55 -10.15)"/><path class="cls-37" d="M216.19,213a44,44,0,0,0,6.64,38.48" transform="translate(-9.55 -10.15)"/><path class="cls-38" d="M179.4,64.61a631.26,631.26,0,0,1,3.2,73.14" transform="translate(-9.55 -10.15)"/><path class="cls-38" d="M187,49.35c4.89-2.9,11.09-3.09,16.48-1.29a33.33,33.33,0,0,1,13.85,9.61,99,99,0,0,1,9.92,13.84" transform="translate(-9.55 -10.15)"/><path class="cls-38" d="M144.09,151.12c7.54-25,13.38-47.24,17.84-71.22" transform="translate(-9.55 -10.15)"/><path class="cls-38" d="M182.49,70.83q.82,12.17,1.64,24.34" transform="translate(-9.55 -10.15)"/><path class="cls-38" d="M148.32,148.69q1.49-5.55,3-11.1" transform="translate(-9.55 -10.15)"/><line class="cls-39" x1="116.25" y1="233.01" x2="137.21" y2="223.68"/><line class="cls-39" x1="182.55" y1="202.86" x2="182.95" y2="244.06"/><rect class="cls-40" x="59.39" y="148.39" width="30.22" height="30.22"/><rect class="cls-41" x="375.01" y="172.53" width="25.82" height="25.82"/><rect class="cls-42" x="46.08" y="171.88" width="17.34" height="17.34"/><rect class="cls-40" x="399.26" y="196.79" width="8.59" height="8.59"/><path class="cls-43" d="M226.55,53.14a174.22,174.22,0,0,1,26.32,46.23" transform="translate(-9.55 -10.15)"/><path class="cls-43" d="M227.05,48.58l-.47-.48,7.16,8.46" transform="translate(-9.55 -10.15)"/><path class="cls-17" d="M166.12,239.5c3-1.46,6.56-12.64,6.56-12.64S168.85,236.13,166.12,239.5Z" transform="translate(-9.55 -10.15)"/><path class="cls-44" d="M183.45,212.81" transform="translate(-9.55 -10.15)"/><line class="cls-43" x1="175.59" y1="243.78" x2="175.59" y2="263.78"/><line class="cls-43" x1="177.92" y1="240.78" x2="177.92" y2="249.45"/><path class="cls-4" d="M26.33,309.5A35.28,35.28,0,0,1,71,260" transform="translate(-9.55 -10.15)"/><path class="cls-15" d="M209.38,136.46c.84-6.06,1.62-12.57,2.34-19.59-1.11.21-10.53,42.87-13.17,51.81-3.69,12.57-7.74,25.26-15.18,36-.57.78-5.31,6.69-2.13,6.39s7.26-3.42,8.55-5c1-1.29,8.4-12.72,14.94-43,3.69,6.45,15.24,23.31,15.24,23.31,16.5-4.83,34.44-24.09,41.19-31.89C245.08,169,206.35,165.71,209.38,136.46Z" transform="translate(-9.55 -10.15)"/><path class="cls-15" d="M263.89,151.25a16.4,16.4,0,0,1-2.73,3.24C262.69,152.72,263.62,151.55,263.89,151.25Z" transform="translate(-9.55 -10.15)"/></g></g></svg>