<svg xmlns="http://www.w3.org/2000/svg" xmlns:xlink="http://www.w3.org/1999/xlink" viewBox="0 0 437.15 507.58"><defs><style>.cls-1,.cls-24,.cls-30,.cls-33,.cls-34,.cls-36,.cls-37,.cls-38,.cls-39,.cls-4,.cls-40,.cls-43,.cls-9{fill:none;}.cls-2{isolation:isolate;}.cls-12,.cls-3{fill:#f6f8fa;}.cls-31,.cls-4{stroke:#d3dbe5;}.cls-24,.cls-25,.cls-31,.cls-33,.cls-34,.cls-36,.cls-37,.cls-38,.cls-39,.cls-4,.cls-43{stroke-linecap:round;}.cls-24,.cls-25,.cls-31,.cls-33,.cls-34,.cls-37,.cls-38,.cls-4,.cls-43{stroke-linejoin:round;}.cls-24,.cls-25,.cls-31,.cls-34,.cls-36,.cls-37,.cls-38,.cls-39,.cls-4,.cls-40,.cls-43{stroke-width:0.25px;}.cls-5{clip-path:url(#clip-path);}.cls-31,.cls-6{fill:#d3dbe5;}.cls-25,.cls-7{fill:#fff;}.cls-8{fill:url(#Sfumatura_senza_nome_10);}.cls-37,.cls-38,.cls-39,.cls-9{stroke:#fff;}.cls-30,.cls-36,.cls-39,.cls-40,.cls-9{stroke-miterlimit:10;}.cls-10{fill:#43aa82;}.cls-11{fill:url(#Sfumatura_senza_nome_10-2);}.cls-12,.cls-15{mix-blend-mode:multiply;}.cls-13{fill:url(#Sfumatura_senza_nome_60);}.cls-14{fill:url(#Sfumatura_senza_nome_11);}.cls-15{fill:#b3b3b3;opacity:0.3;}.cls-16{fill:url(#Sfumatura_senza_nome_179);}.cls-17{fill:#db5437;opacity:0.24;}.cls-18{fill:#91bdfd;}.cls-19{clip-path:url(#clip-path-2);}.cls-20{fill:url(#Sfumatura_senza_nome_179-2);}.cls-21{fill:url(#Sfumatura_senza_nome_17);}.cls-22{fill:url(#Sfumatura_senza_nome_17-2);}.cls-23{fill:#24497e;}.cls-24,.cls-25,.cls-33{stroke:#24497e;}.cls-26{fill:url(#Sfumatura_senza_nome_60-2);}.cls-27{fill:url(#Sfumatura_senza_nome_27);}.cls-28{opacity:0.18;}.cls-29{clip-path:url(#clip-path-3);}.cls-30{stroke:#99c3e4;stroke-width:0.5px;}.cls-32{fill:url(#Sfumatura_senza_nome_3);}.cls-34,.cls-40{stroke:#59e3ad;}.cls-34{stroke-dasharray:3 3 3 3;}.cls-35{fill:url(#Sfumatura_senza_nome_2);}.cls-36{stroke:#a7b6cb;}.cls-38{opacity:0.5;}.cls-41{fill:url(#Sfumatura_senza_nome_11-2);}.cls-42{fill:url(#Sfumatura_senza_nome_11-3);}.cls-43{stroke:#b3b3b3;}.cls-44{fill:url(#Sfumatura_senza_nome_179-3);}</style><clipPath id="clip-path" transform="translate(-11.36 -10.14)"><path class="cls-1" d="M334.42,402.18s33.81-3.76,58.1-14.14c23.67-10.12,46.8,29.08,46.8,29.08v58l-52.45,56.16-78.61-2.53-29.68-80.44,14-15.57Z"/></clipPath><linearGradient id="Sfumatura_senza_nome_10" x1="423.06" y1="456.69" x2="427.54" y2="504.57" gradientTransform="translate(-38.09 -71.54) rotate(1.44)" gradientUnits="userSpaceOnUse"><stop offset="0" stop-color="#9fefcf"/><stop offset="1" stop-color="#59e3ad"/></linearGradient><linearGradient id="Sfumatura_senza_nome_10-2" x1="197.15" y1="219.69" x2="138.57" y2="286.58" gradientTransform="matrix(1, 0, 0, 1, 0, 0)" xlink:href="#Sfumatura_senza_nome_10"/><radialGradient id="Sfumatura_senza_nome_60" cx="307.82" cy="303.01" r="71.24" gradientUnits="userSpaceOnUse"><stop offset="0.15" stop-color="#1b375f"/><stop offset="1" stop-color="#24497e"/></radialGradient><radialGradient id="Sfumatura_senza_nome_11" cx="218.22" cy="230.54" r="88.69" gradientUnits="userSpaceOnUse"><stop offset="0" stop-color="#f6f8fa"/><stop offset="0.07" stop-color="#f3f5f8"/><stop offset="0.5" stop-color="#e2e7ee"/><stop offset="0.82" stop-color="#dce2ea"/></radialGradient><linearGradient id="Sfumatura_senza_nome_179" x1="165.69" y1="215.42" x2="204.39" y2="215.42" gradientUnits="userSpaceOnUse"><stop offset="0.17" stop-color="#ffd672"/><stop offset="1" stop-color="#ee9a57"/></linearGradient><clipPath id="clip-path-2" transform="translate(-11.36 -10.14)"><path class="cls-1" d="M139.72,218.18s3.76-16.9,17.22-29.16l-20.39-4.41-22.32,17.22L108,210.65l11.56,9.95Z"/></clipPath><linearGradient id="Sfumatura_senza_nome_179-2" x1="126.07" y1="203.67" x2="167.09" y2="203.67" gradientTransform="translate(-1.16 -2.48) rotate(0.49)" xlink:href="#Sfumatura_senza_nome_179"/><linearGradient id="Sfumatura_senza_nome_17" x1="132.74" y1="52.2" x2="209.01" y2="51.68" gradientUnits="userSpaceOnUse"><stop offset="0.17" stop-color="#ffd672"/><stop offset="1" stop-color="#f3ad5f"/></linearGradient><linearGradient id="Sfumatura_senza_nome_17-2" x1="132.71" y1="45.91" x2="207.82" y2="45.4" xlink:href="#Sfumatura_senza_nome_17"/><radialGradient id="Sfumatura_senza_nome_60-2" cx="134.87" cy="35.8" r="0" xlink:href="#Sfumatura_senza_nome_60"/><linearGradient id="Sfumatura_senza_nome_27" x1="147.74" y1="102.36" x2="259.23" y2="157.13" gradientUnits="userSpaceOnUse"><stop offset="0.34" stop-color="#4891fb"/><stop offset="0.8" stop-color="#227bfb"/></linearGradient><clipPath id="clip-path-3" transform="translate(-11.36 -10.14)"><path class="cls-1" d="M192.57,119.93c-4.44,17.93-25.13,58.74-26.95,62.12a2.3,2.3,0,0,0-.33.21,75.07,75.07,0,0,1-17.81-7.08l-.11,0A996,996,0,0,0,175.75,68.31a39.88,39.88,0,0,1,3.79,3.79s8.33-1,10.21-12.49a17,17,0,0,1,6.31-10.39,18.84,18.84,0,0,1,4.31-2.66c10.56-4.7,23.37-.24,31.76,7.73s13.37,18.8,18.27,29.3c9.09,19.52,18.57,38.86,29,57.69,1.15,2.07,1.39,3.47,1,4.74-.46,1.56-1.84,2.92-3.64,5.12a131.83,131.83,0,0,1-10.65,11.51,130.62,130.62,0,0,1-24.43,18.45,57.26,57.26,0,0,1-6,3.1c-.94.39-1.88.75-2.83,1.05l-.47.6a61,61,0,0,0-16.83-9.45l-1.1-.31a211.22,211.22,0,0,1-7.23,21.12,36.05,36.05,0,0,1-3.68,7.41l-.19-.17A32.21,32.21,0,0,1,182,201.29l-.67-.2q4.05-13.64,6.75-27.73c1.21-6.21,2.21-12.48,3-18.8,1.07-8.21,1.81-16.51,2.22-24.84C193.31,127.69,193.26,121.5,192.57,119.93Z"/></clipPath><linearGradient id="Sfumatura_senza_nome_3" x1="79.96" y1="403.84" x2="82.17" y2="504.95" gradientUnits="userSpaceOnUse"><stop offset="0.34" stop-color="#9fefcf"/><stop offset="0.75" stop-color="#59e3ad"/></linearGradient><linearGradient id="Sfumatura_senza_nome_2" x1="219.98" y1="394.68" x2="220.53" y2="502.97" gradientUnits="userSpaceOnUse"><stop offset="0.36" stop-color="#9fefcf"/><stop offset="0.78" stop-color="#59e3ad"/></linearGradient><radialGradient id="Sfumatura_senza_nome_11-2" cx="400.68" cy="114.01" r="33.31" xlink:href="#Sfumatura_senza_nome_11"/><radialGradient id="Sfumatura_senza_nome_11-3" cx="-1.04" cy="158.14" r="25.79" xlink:href="#Sfumatura_senza_nome_11"/><linearGradient id="Sfumatura_senza_nome_179-3" x1="196.29" y1="212.81" x2="196.29" y2="212.81" xlink:href="#Sfumatura_senza_nome_179"/></defs><title>hero_new</title><g class="cls-2"><g id="Livello_8" data-name="Livello 8"><path class="cls-3" d="M205.68,211.79s14.38-21.9,13.15-38.61l-18.24-2.76-9.2,44.77Z" transform="translate(-11.36 -10.14)"/><path class="cls-4" d="M213.32,172.85a66.51,66.51,0,0,1,15.48,4.71" transform="translate(-11.36 -10.14)"/><path class="cls-3" d="M69.17,242.9s-2.93,11.92,1.67,14.22l-7.45.76S66.66,243.74,69.17,242.9Z" transform="translate(-11.36 -10.14)"/><path class="cls-4" d="M63.39,257.88C71,226.37,98.64,203,131.59,203" transform="translate(-11.36 -10.14)"/><path class="cls-3" d="M159.6,187.52s20.23-12.5,25.65-1.24l2.85-13.21S165.48,177.86,159.6,187.52Z" transform="translate(-11.36 -10.14)"/><path class="cls-3" d="M413,261.52s3-17.09,14.1-10.22a48.9,48.9,0,0,0-16.75-8.2S413.44,250.11,413,261.52Z" transform="translate(-11.36 -10.14)"/><path class="cls-3" d="M368.82,246.12s6.06-33.19,26-24.85c0,0-10.22-10.12-31-10.05C363.9,211.22,368.38,219.79,368.82,246.12Z" transform="translate(-11.36 -10.14)"/><g class="cls-5"><path class="cls-6" d="M401.41,491.92l-.09,8.94a1,1,0,0,1-.64.92L356.94,517.4a6.74,6.74,0,0,1-6.8-1.75L285.56,453a2.14,2.14,0,0,1-.68-1.44c-.05-.35-.2-3.51-.2-3.51h0a2,2,0,0,0,.66,1.36l.57.54,64,62a6.71,6.71,0,0,0,6.79,1.75l43.75-15.6a1,1,0,0,0,.64-.89Z" transform="translate(-11.36 -10.14)"/><path class="cls-7" d="M400.61,496.07a1.47,1.47,0,0,1,.5,1.23,1,1,0,0,1-.64.89l-43.75,15.6a6.71,6.71,0,0,1-6.79-1.75l-64-62-.57-.54a2,2,0,0,1-.66-1.36,1.49,1.49,0,0,1,1-1.69l43.07-12.93Z" transform="translate(-11.36 -10.14)"/><polygon class="cls-4" points="343.15 496.29 283.62 440.15 318.06 429.51 378.73 483.62 343.15 496.29"/><line class="cls-4" x1="367.93" y1="474.29" x2="332.9" y2="486.47"/><line class="cls-4" x1="357.44" y1="464.93" x2="322.65" y2="476.74"/><line class="cls-4" x1="347.19" y1="455.79" x2="312.61" y2="467.25"/><line class="cls-4" x1="337.18" y1="446.86" x2="302.79" y2="457.99"/><line class="cls-4" x1="327.4" y1="438.13" x2="293.2" y2="448.94"/><line class="cls-4" x1="309.56" y1="432.28" x2="369.72" y2="486.68"/><line class="cls-4" x1="301.03" y1="434.92" x2="360.9" y2="489.82"/><line class="cls-4" x1="292.4" y1="437.58" x2="352.04" y2="493.04"/><path class="cls-7" d="M424.21,428.25a5.41,5.41,0,0,1,1.65,5.93L404.11,494.3a3.72,3.72,0,0,1-5.38,1.75,5,5,0,0,1-.58-.4l-67.2-59a9.78,9.78,0,0,1-1.65-1.84,4.94,4.94,0,0,1-.27-.42,5.73,5.73,0,0,1-.46-.84,8.74,8.74,0,0,1-.42-6.77l19.15-54.5a2.75,2.75,0,0,1,1.09-1.36,3.18,3.18,0,0,1,3.81.25Z" transform="translate(-11.36 -10.14)"/><path class="cls-6" d="M406.69,494.88c-.52,1.43-2.64,2.18-4.66,2.17a5,5,0,0,1-1.52-.48,3.57,3.57,0,0,0,3.6-2.27l21.75-60.12a5.41,5.41,0,0,0-1.65-5.93l-72-57.06a3.18,3.18,0,0,0-3.81-.25c1.19-2,5.41-1.12,6.75-.14L427,428.19a5.43,5.43,0,0,1,1.64,6Z" transform="translate(-11.36 -10.14)"/><path class="cls-8" d="M350.63,379.83a2,2,0,0,1,3.16-.71l63.72,52a3.85,3.85,0,0,1,1.21,4.29l-18.11,52.5a1.7,1.7,0,0,1-2.68.6l-63.72-55.56a3.87,3.87,0,0,1-1.21-4.29Z" transform="translate(-11.36 -10.14)"/><path class="cls-7" d="M329,434.41a4.94,4.94,0,0,0,.27.42A3.3,3.3,0,0,1,329,434.41Z" transform="translate(-11.36 -10.14)"/><path class="cls-7" d="M328.57,433.57a5.73,5.73,0,0,0,.46.84A5.26,5.26,0,0,1,328.57,433.57Z" transform="translate(-11.36 -10.14)"/><line class="cls-4" x1="386.79" y1="485.5" x2="319.59" y2="426.53"/><path class="cls-4" d="M398.15,495.65" transform="translate(-11.36 -10.14)"/><path class="cls-4" d="M398.73,496.05" transform="translate(-11.36 -10.14)"/><rect class="cls-9" x="261.1" y="412.15" width="8.25" height="8.25"/></g><path class="cls-10" d="M203.46,207.5l4.34,1.22S168.48,257.85,147.57,272c-5.36,0-13.93.36-15.61.45l-.48-32.9Z" transform="translate(-11.36 -10.14)"/><path class="cls-11" d="M207.8,208.72v46.79l-39.39,18.25a169.68,169.68,0,0,0-33.1-1.5V242.31L165,228.55C166.18,228.27,207.8,208.72,207.8,208.72Z" transform="translate(-11.36 -10.14)"/><path class="cls-12" d="M115.3,275.3c23-6.48,71.22-3.42,100.41,12.6C180.31,260.23,136.11,262.23,115.3,275.3Z" transform="translate(-11.36 -10.14)"/><polygon class="cls-10" points="157.15 230.92 157.15 233.28 157.18 249.41 173.07 236.63 157.15 230.92"/><path class="cls-3" d="M308.42,199.45C297.84,207.2,287.29,217,285.34,230c-1.24,8.29,1.27,16.65,3.75,24.66,5.12,16.56,13.23,42.12,18.36,58.68-10.42-23.05-26.76-54.61-37.19-77.67-1.16-2.59-3.32-7.52-3.14-10.35.26-4.22,6.34-8.2,9-11.47,13.59-16.62,17-37.51,9.69-57.7,4.64-.71,11-1.19,15.6-.13l-.35-.06,8,2.71a36,36,0,0,0-7.61-2.65C343.91,171,310.49,197.94,308.42,199.45Z" transform="translate(-11.36 -10.14)"/><rect class="cls-7" x="323.06" y="275.61" width="58.1" height="5.23"/><path class="cls-3" d="M318,343.57c3.58-3.07,7.12-6.74,7.82-11.39A10,10,0,0,0,323,323.5a8.35,8.35,0,0,0-8.79-1.74c-3.25,1.37-5.09,4.77-6.67,7.92-1.85,3.66-14.26,23.59-11.58,26.11C298.8,358.46,318,346.48,318,343.57Z" transform="translate(-11.36 -10.14)"/><path class="cls-13" d="M312.5,323.6c0,3.63-1.58,7.07-3.27,10.29a194.25,194.25,0,0,1-14.31,22.78,16.86,16.86,0,0,1-4.21,4.53,6.14,6.14,0,0,1-5.89.78,6.24,6.24,0,0,1-3.17-5,18.6,18.6,0,0,1,.66-6.1c2.3-10.2,4.58-20.37,7.23-30.47a11.68,11.68,0,0,0,6.14,1.74,10.26,10.26,0,0,0,9.37-7.07,10.73,10.73,0,0,0,.29-5.51C308.82,313.68,312.43,318.23,312.5,323.6Z" transform="translate(-11.36 -10.14)"/><path class="cls-14" d="M305.34,309.58a10.73,10.73,0,0,1-.29,5.51,10.26,10.26,0,0,1-9.37,7.07,11.68,11.68,0,0,1-6.14-1.74,33.62,33.62,0,0,1-5.3-4.07c-19.2-17.1-39.06-44.7-54.19-65.16a41,41,0,0,1-6.67-35.33,161,161,0,0,1,10.88-28.34c-.57-.48-1.15-1-1.75-1.42l-.71-.84c.95-.3,3.09-.42,4-.81a58,58,0,0,0,6.08-3.11,131.61,131.61,0,0,0,35.29-30c1.81-2.2,3.2-3.57,3.66-5.13l.25.11a42.21,42.21,0,0,1,5.74,9.75c4.91,11.52,5,25.14,1.26,37.21s-11.08,22.8-20,31.95h0q15.92,34.44,31.82,68.88A161.76,161.76,0,0,1,305.34,309.58Z" transform="translate(-11.36 -10.14)"/><path class="cls-15" d="M167,223.55s4.52.59,4.52,1.61-5.8,11.74-4.31,14.22c.73,1.2,3.29-.8,4.82-2.77s-.51,6.71,2.33,4.81a34.84,34.84,0,0,0,4.81-3.86s.37,4.08,2.92,2,10-12.55,10-16.92S170,218.3,167,223.55Z" transform="translate(-11.36 -10.14)"/><path class="cls-16" d="M187.56,197.1c-1.83,8.62-22.24,25-21.86,27.16.06.34,2.11-1,3.44-1.47a2.3,2.3,0,0,1,2.91,1.46c2.35,5.44-5.88,16.51-3,17.48s10.58-14.1,11.52-17.8c-.47,6-8.48,17.17-6,18.61.89.53,3.08-.77,4.5-3.21,0,0-.11.88.63,1,2.84-.67,6.66-6.24,10.41-13.61,2.15-4.24,4.73-6.84,6.18-13.92,2.94-14.38,10.89-26.34,7.1-24.44C195.92,192.12,189.38,188.47,187.56,197.1Z" transform="translate(-11.36 -10.14)"/><path class="cls-17" d="M181.32,207.36a16.88,16.88,0,0,0-1.67,1.65c15.88,2.63,9.09,25.24,16.1,6.3l1.4-6.1L196,207.09Z" transform="translate(-11.36 -10.14)"/><path class="cls-18" d="M181.32,207.36a17,17,0,0,1-1.51-1.74c.45-1.41,1.11-2.81,1.52-4.23l.45.18a32.65,32.65,0,0,0,21.52,3.17s-3.31,3.89-4.55,4.62a15.08,15.08,0,0,1-8.33,2.1A13.63,13.63,0,0,1,181.32,207.36Z" transform="translate(-11.36 -10.14)"/><g class="cls-19"><path class="cls-3" d="M112.47,211s.56,1.13,2.82.29c0,0-1.47,2.62.72,2.49s18.5-6.55,20.59-2.57,3.44,4.12,4.51,3.61c0,0,2.44-7.15,4.1-8.35s-7.47-3-7.47-3S116.87,206.8,112.47,211Z" transform="translate(-11.36 -10.14)"/><path class="cls-20" d="M114,211.9a1.76,1.76,0,0,1,.59-.56l.92-.6,0,0a.94.94,0,0,1-1.19-.37,1.45,1.45,0,0,1,0-1.44,4,4,0,0,1,1-1.11l1.29-1-.14-.18c.45-1.6,1.94-2.65,3.33-3.55,7.06-4.61,13.29-8.17,21.41-9.47a4.46,4.46,0,0,0,2.57-1.4,6,6,0,0,0,1.28-2l.15-.08a18.79,18.79,0,0,0,9.8,7.77c-4.82,4.24-9.5,8.5-12.62,14.15a9.12,9.12,0,0,1-4.45,2.72,1.38,1.38,0,0,1-1.21,0c-.48-.32-.46-1-.3-1.6a17.35,17.35,0,0,1,2.41-4.4c.19-.29.37-.6.54-.92-8-.44-16.11,3.36-24.17,5-.49.11-1.15.12-1.32-.35A.65.65,0,0,1,114,211.9Z" transform="translate(-11.36 -10.14)"/><path class="cls-17" d="M145.21,190s6.22,14.66-8.64,24.34c.56,1.64,5.06-1.61,5.06-1.61a37.4,37.4,0,0,1,6.87-11.51l4.56-4.91S148.9,195.35,145.21,190Z" transform="translate(-11.36 -10.14)"/><path class="cls-17" d="M115,211s10.58-7.63,18.24-8.49A28,28,0,0,0,115,211Z" transform="translate(-11.36 -10.14)"/><path class="cls-17" d="M115.32,207.79s9.23-6.3,16.84-7.9A35.18,35.18,0,0,0,115.32,207.79Z" transform="translate(-11.36 -10.14)"/><path class="cls-18" d="M163.14,195.87a58.52,58.52,0,0,0-7,5.39,19.12,19.12,0,0,1-11.83-9c-.09-.15-.17-.31-.25-.47.33-1,.67-2,1-3.07l.12,0A75.73,75.73,0,0,0,163.14,195.87Z" transform="translate(-11.36 -10.14)"/></g><path class="cls-21" d="M196.43,50.31s-6.41,6.06-7,10c-1.83,11.09-9.86,12-9.86,12a35.85,35.85,0,0,0-3.66-3.63,40.14,40.14,0,0,0-8.76-5.86h0l-.08.24a12,12,0,0,1-2,3.16,13.39,13.39,0,0,1-14.8,3.4c-3.27-1.36-6.09-4.08-9.59-4.26-1.28-.08-2.64.18-3.71-.47s-1.57-2.17-2.17-3.38a9,9,0,0,0-.92-1.41l-.52-.65c-.05-.11-.16-.18-.24-.29l2.07-3c2.56,1.72,5.43,2,6.43.49s-.29-4-2.85-5.8L148,37.19l.52-3.69c-.08.42,4.45-2.25,4.55-1.83l4.94,1c1.83-.08.92.26,2.07,1.7l-.42,3.09A5.07,5.07,0,0,0,161,39c2.93,1.9,6.22,3.52,9.78,3.52,1.18,0,2.51-.2,3.16-1.12A55.36,55.36,0,0,0,196.43,50.31Z" transform="translate(-11.36 -10.14)"/><path class="cls-22" d="M148,37.2l-9.28,13.67,0,0c-2.59-1.76-5.49-2-6.49-.53s.3,4.07,2.9,5.83l0,0-2.05,3c-2.38-2.62-5.83-4.51-7.15-7.82l-.07-.07c.22-.23.45-.46.66-.7a32.14,32.14,0,0,0,7.11-12.82h0a21.38,21.38,0,0,0,7.08-5.21l.11.11A9.89,9.89,0,0,0,148,37.2Z" transform="translate(-11.36 -10.14)"/><path class="cls-7" d="M148.61,62c.14-.52.29-1.18.82-1.28s.79.26,1,.64a2.91,2.91,0,0,1,.08,2.45,3.76,3.76,0,0,1-1.69,1.81,2.09,2.09,0,0,1-1.71.26c-1.19-.45-.55-1.12,0-1.6A4.61,4.61,0,0,0,148.61,62Z" transform="translate(-11.36 -10.14)"/><path class="cls-17" d="M143.77,55.5c.5-2.57-3.69-5.17-4.87-4.9.61.84,1.53,1.3,1.95,2.29s1.3,1.9,1,3c-.22.89-2.19,1.87-.71,1.77A2.51,2.51,0,0,0,143.77,55.5Z" transform="translate(-11.36 -10.14)"/><path class="cls-23" d="M135.61,55.53l-.05,0c-2.59-1.76-3.88-4.36-2.89-5.82s3.9-1.24,6.49.52l0,0C141.75,52,143,54.58,142,56S138.18,57.26,135.61,55.53Z" transform="translate(-11.36 -10.14)"/><path class="cls-7" d="M138.71,50.87c2.56,1.76,3.83,4.34,2.85,5.8s-3.87,1.23-6.44-.5l0,0c-2.6-1.76-3.89-4.37-2.9-5.83s3.9-1.23,6.49.53Z" transform="translate(-11.36 -10.14)"/><path class="cls-17" d="M133.55,42a7.92,7.92,0,0,1,1-2.67A7.11,7.11,0,0,1,137,37.51a18.15,18.15,0,0,0,3.37-2.41A4.49,4.49,0,0,0,141.84,33a1.61,1.61,0,0,0-2.53-1.83,7.33,7.33,0,0,0-1.16,1.07,14.42,14.42,0,0,1-6.71,3.89,14.94,14.94,0,0,1-3.17,9.12c-.58.74-1.24,1.43-1.75,2.23s-1.5,2.95.2,2.33a10.36,10.36,0,0,0,3-1.89A12.07,12.07,0,0,0,133.55,42Z" transform="translate(-11.36 -10.14)"/><path class="cls-17" d="M140.5,63.34a2.45,2.45,0,0,1,.59-.4.77.77,0,0,1,.71,0,.68.68,0,0,1,.23.67,4.59,4.59,0,0,1-.78,1.72,10.25,10.25,0,0,1-4.35-.46c.15-.42,1.53-.41,2-.6A7.21,7.21,0,0,0,140.5,63.34Z" transform="translate(-11.36 -10.14)"/><path class="cls-17" d="M181.07,72c-.45.19-.77.14-1.53.37a40.58,40.58,0,0,0-12.42-9.49,16.22,16.22,0,0,0,.1-11c4.6,9.55,14,12,21.53,11.64A14.16,14.16,0,0,1,181.07,72Z" transform="translate(-11.36 -10.14)"/><path class="cls-17" d="M147.08,41.52c1-1.3,2-2.78,1.79-4.39a77.38,77.38,0,0,0-8.46,12c-.35.61-.24,1.79.47.95s1.13-1.77,1.73-2.57Z" transform="translate(-11.36 -10.14)"/><path class="cls-24" d="M135.12,56.17l0,0c-2.6-1.76-3.89-4.37-2.9-5.83s3.9-1.23,6.49.53l0,0c2.56,1.76,3.83,4.34,2.85,5.8S137.69,57.9,135.12,56.17Z" transform="translate(-11.36 -10.14)"/><path class="cls-17" d="M136.36,57.25c-.17.18-.34.37-.48.55-.66.77-1.22,1.75-1.89,2.44l-.09.07-.48-.68a1.7,1.7,0,0,1,.16-.36c.55-.85,1.16-1.7,1.77-2.53A9.53,9.53,0,0,0,136.36,57.25Z" transform="translate(-11.36 -10.14)"/><path class="cls-23" d="M132.82,59.25l0,0c2.43,1.93,3.52,4.59,2.45,6s-4,1-6.44-1-3.57-4.61-2.49-6S130.35,57.32,132.82,59.25Z" transform="translate(-11.36 -10.14)"/><path class="cls-7" d="M132.66,60.05c2.43,1.93,3.52,4.59,2.45,6s-4,1-6.44-1-3.57-4.61-2.49-6,4-1,6.44,1Z" transform="translate(-11.36 -10.14)"/><path class="cls-25" d="M132.62,60l0,0c2.43,1.93,3.52,4.59,2.45,6s-4,1-6.44-1-3.57-4.61-2.49-6S130.15,58.09,132.62,60Z" transform="translate(-11.36 -10.14)"/><polyline class="cls-24" points="121.3 49.91 121.85 49.19 124.1 46.32"/><polyline class="cls-24" points="127.35 40.73 136.63 27.05 137.84 25.28"/><path class="cls-26" d="M134.87,35.8" transform="translate(-11.36 -10.14)"/><path class="cls-23" d="M142.48,12a7.1,7.1,0,0,1,5.08,3.1,4.76,4.76,0,0,1,.58,1.58,5.29,5.29,0,0,1-1.07,4.35c-.25,3.72-2.46,8.14-5.95,11.87a21.94,21.94,0,0,1-7.07,5.24A32.79,32.79,0,0,1,126.91,51l-.68.72c-4.4,4.55-11.35,7.29-17.2,3.61a9.92,9.92,0,0,1-4.6-9.52c.49-3.28,2.77-6,3.72-9.2s.54-6.8,1.86-9.9a11.25,11.25,0,0,1,3.76-4.56c1.15-.85,2.44-1.53,3.52-2.47a21.62,21.62,0,0,0,2.59-3.49c5-6.46,15.23-7.4,22.28-4.25A1.33,1.33,0,0,0,142.48,12Z" transform="translate(-11.36 -10.14)"/><path class="cls-23" d="M175,39.55a4.92,4.92,0,0,0-1.08-2.26,12.11,12.11,0,0,0-1.55-1.72,41.2,41.2,0,0,0-3.48-2.84,50.13,50.13,0,0,1-6.37-6,66.17,66.17,0,0,0-6.39-6.24,21.91,21.91,0,0,0-8-4.26.53.53,0,0,0-.52.89,4.72,4.72,0,0,1-1.1,3.75c-.19,3.68-3.71,10.07-5.87,12.55a9.31,9.31,0,0,0,7.24,4.32,9.65,9.65,0,0,0,1.23.08l.08,0a2.9,2.9,0,0,0,1,1,.3.3,0,0,0,.34-.5h0a2.86,2.86,0,0,1-.59-3.47,3.66,3.66,0,0,1,3.18-1.73,5.48,5.48,0,0,1,3.6,1.45c1.08.83,1.6,2.11,2.46,3.45a6.68,6.68,0,0,0,.77.95,4.72,4.72,0,0,0,1,.76c.63.41,1.28.8,1.94,1.16a20.84,20.84,0,0,0,4.21,1.77,12.78,12.78,0,0,0,4.62.48,4.17,4.17,0,0,0,2.4-.94A2.94,2.94,0,0,0,175,39.55Z" transform="translate(-11.36 -10.14)"/><path class="cls-27" d="M192.45,120.07c-4.47,18-25.28,58.84-27.11,62.22-.08,0-5.09,3.82-8.71,7A36.08,36.08,0,0,0,153,193.1c-1-.25-1,2.71-1.88,2.33a16.55,16.55,0,0,1-6.62-4.9c11.36-34.61,23.69-86.6,31-122.18a40.09,40.09,0,0,1,3.8,3.8s8.39-1,10.28-12.52A17,17,0,0,1,196,49.23a19,19,0,0,1,4.33-2.66c10.63-4.72,23.51-.25,32,7.73s13.45,18.84,18.38,29.36c9.15,19.55,18.69,38.93,29.19,57.8,1.15,2.07,1.4,3.47,1,4.74-.46,1.56-1.85,2.93-3.66,5.13a131.61,131.61,0,0,1-35.29,30c-1.95,1.13-7,4.14-9.1,5C222.44,173,219.68,167,217.57,162.9c-.08,3.58-7.62,27.83-10.37,34.58a70.77,70.77,0,0,1-3.9,7.26c-12,5.17-22.2-3.37-22.2-3.37,2.72-9.11,5-18.39,6.8-27.78,1.22-6.23,2.22-12.51,3-18.83q1.62-12.34,2.24-24.89C193.2,127.84,193.15,121.64,192.45,120.07Z" transform="translate(-11.36 -10.14)"/><g class="cls-28"><g class="cls-29"><path class="cls-30" d="M232.9,184.84a270.06,270.06,0,0,1,5.93-71.67c1.36-6.17,3-12.53,7.11-17.35s11.18-7.62,16.85-4.88" transform="translate(-11.36 -10.14)"/><path class="cls-30" d="M251.31,175.12a165.26,165.26,0,0,1,5.05-46c1.13-4.42,2.48-8.87,5-12.64s6.51-6.83,11-7.3" transform="translate(-11.36 -10.14)"/><path class="cls-30" d="M169.25,98.08a90.28,90.28,0,0,1,3.61,54c-1.43,5.87-3.86,12.09-9.11,15-5.89,3.29-13.2,1.38-19.64-.62" transform="translate(-11.36 -10.14)"/><path class="cls-30" d="M156.2,148.54c3,.25,5.86-1.67,7.41-4.24a16.64,16.64,0,0,0,2-8.68A34.43,34.43,0,0,0,159.46,116c-.25.42-.51.84-.76,1.27" transform="translate(-11.36 -10.14)"/><path class="cls-30" d="M230.25,45.9a27.77,27.77,0,0,0,1.26,32.19A27.47,27.47,0,0,0,262.62,86" transform="translate(-11.36 -10.14)"/><path class="cls-30" d="M186.41,56.48a110.36,110.36,0,0,1,53.36,53.36" transform="translate(-11.36 -10.14)"/><path class="cls-30" d="M240.06,59.82a7.76,7.76,0,0,0,8,13.22" transform="translate(-11.36 -10.14)"/><path class="cls-30" d="M270,126.38a14.51,14.51,0,0,1,.66-1.74,45.91,45.91,0,0,0,2.1,40c.34.59.8,1.25,1.48,1.29s1.15-1.11.5-1.31" transform="translate(-11.36 -10.14)"/><path class="cls-30" d="M191,153a48.44,48.44,0,0,1-.06,39.39c-1.91,4.18-5,8.49-9.56,9" transform="translate(-11.36 -10.14)"/><path class="cls-30" d="M192.78,144.84c13.1,17.22,15.72,41.87,6.54,61.49" transform="translate(-11.36 -10.14)"/></g></g><path class="cls-3" d="M337,402v-.08c0-.67,22.19-3.68,21.52-3.71-43.35-2.09-56-5.25-73.08-11.45-12-4.37-23.6-10.3-33.4-18.54s-17.77-18.88-21.76-31a44.08,44.08,0,0,1-2.26-12.3c-.1-3.5,1.61-7.73.89-11-9.44,2.33-16.79,17.77-18.63,26.41a41,41,0,0,0-.8,6A72,72,0,0,0,213.83,362c3.57,8.55,9.27,14.81,16.67,20.29a146.15,146.15,0,0,0,14.56,9.52c7,1,13.31,6.33,20.88,6.43a5.06,5.06,0,0,1,3,1c22.38,4.32,41.62,5,64.34,3.12C333.25,402.06,337,402.26,337,402Z" transform="translate(-11.36 -10.14)"/><path class="cls-3" d="M213.8,361.51a28.93,28.93,0,0,1-1.4-5.13c-1.33-2.2,0-5.75-1.37-7.72-1.85-2.69-152.34,35.17-172.82-37.2-8,11.46-25.42,62.92,60,70.76,13.48,1.73,27.44,1.49,41,1.14,5.73-.14,11.4-.57,17-1.23,7.24-1.06,14.46-2.35,21.65-3.79a235.31,235.31,0,0,0,36.23-11.72,6.35,6.35,0,0,0,.47-1.14,7,7,0,0,0,.26-1.4C214.43,363.2,214.09,362.32,213.8,361.51Z" transform="translate(-11.36 -10.14)"/><path class="cls-7" d="M309,158.68l-8-2.71.35.06A36,36,0,0,1,309,158.68Z" transform="translate(-11.36 -10.14)"/><path class="cls-4" d="M140.32,383.15a234.53,234.53,0,0,0,74.56-17.54" transform="translate(-11.36 -10.14)"/><path class="cls-4" d="M31.69,329.72A38.37,38.37,0,0,0,34.36,351c4,8.77,11.5,15.57,20,20.08s17.95,6.9,27.41,8.67a233.5,233.5,0,0,0,58.54,3.39" transform="translate(-11.36 -10.14)"/><path class="cls-3" d="M54.45,293s-20.86,11.71-19.06,0c0,0-1.39,10.86,3.58,17.2C39,310.23,46.72,297.75,54.45,293Z" transform="translate(-11.36 -10.14)"/><path class="cls-4" d="M38.21,311.46a50.06,50.06,0,0,0-6.52,18.26" transform="translate(-11.36 -10.14)"/><path class="cls-4" d="M39,310.23c-.27.4-.51.82-.76,1.23" transform="translate(-11.36 -10.14)"/><path class="cls-4" d="M68,283.39C56.7,290.42,46,299,39,310.23" transform="translate(-11.36 -10.14)"/><path class="cls-4" d="M234,308.35a43.74,43.74,0,0,0-22.17,28.93c-2.42,11-.86,20.3,3.31,28.2,10.85,20.57,39.45,31.36,62.11,35.24,53.69,12,185.88-13.62,169.84-83.77-.36-1.21-.79-2.41-1.28-3.61-.12-.29-.25-.58-.38-.87a36,36,0,0,0-2-3.93,40.66,40.66,0,0,0-3.33-4.94,45.44,45.44,0,0,0-32.2-17.16" transform="translate(-11.36 -10.14)"/><path class="cls-4" d="M363.9,211.22h0a48.55,48.55,0,0,1,33.49,12.19,48.43,48.43,0,0,1,14.87,43.88" transform="translate(-11.36 -10.14)"/><path class="cls-4" d="M410.31,243.1c.72.16,1.42.37,2.13.58.93.27,1.86.58,2.76.93a43.84,43.84,0,0,1,24.89,59" transform="translate(-11.36 -10.14)"/><path class="cls-4" d="M367.22,257.9" transform="translate(-11.36 -10.14)"/><path class="cls-4" d="M356.79,195.63s0,0,0,0a84.85,84.85,0,0,1,7.12,15.57" transform="translate(-11.36 -10.14)"/><path class="cls-4" d="M363.92,211.22a91.94,91.94,0,0,1,3.3,46.68" transform="translate(-11.36 -10.14)"/><path class="cls-4" d="M286.85,156.43a51.64,51.64,0,0,1,20.89,1.6c16.85,4.79,33.38,17.75,49.06,37.62" transform="translate(-11.36 -10.14)"/><path class="cls-4" d="M165.34,182.29a55.83,55.83,0,0,1,22.19-8.65" transform="translate(-11.36 -10.14)"/><path class="cls-4" d="M138.83,223.45a54.36,54.36,0,0,1,3.71-13.81,60.39,60.39,0,0,1,15.51-21.74,58.6,58.6,0,0,1,7-5.4" transform="translate(-11.36 -10.14)"/><path class="cls-4" d="M371.89,337.17c-11.18-20-27.91-29.25-37.47-33.83-.75-.35-1.5-.71-2.26-1a102.93,102.93,0,0,0-12.71-4.79" transform="translate(-11.36 -10.14)"/><path class="cls-15" d="M189,62.93c-2.2,7.11-7.75,9-9.61,9.22-1-1-2.42-2.65-3.8-3.8-.06.67.81.72,5,6.71,15.24,38.46-8.56,91.68-15,106.34a2.63,2.63,0,0,1-.39.62l.57-.38c2.46-5.36,5.15-10.13,7.29-14.61,10.27-21.48,15.84-34,19.48-47C195.54,105.89,194.33,91.17,189,62.93Z" transform="translate(-11.36 -10.14)"/><path class="cls-15" d="M222.16,136.84c0,.18,0,.33-.06.48,0-.15,0-.27,0-.42A.1.1,0,0,1,222.16,136.84Z" transform="translate(-11.36 -10.14)"/><polygon class="cls-31" points="360.9 292.08 348.65 299.16 348.65 285.01 360.9 292.08"/><path class="cls-15" d="M266,229.18a5.19,5.19,0,0,1,3.77,1.63c.2.21.87-.2.76-.47l-2.37-5.12-2.61,2.86A.64.64,0,0,0,266,229.18Z" transform="translate(-11.36 -10.14)"/><path class="cls-6" d="M137.66,474.73c1.41,1.95.6,6.91-1.59,7.66L79.44,501.52a4.62,4.62,0,0,1-5.31-1.79L23.4,429.88c-1.52-1.9-1.31-5.43.57-6.51a3.24,3.24,0,0,0,0,3.69l50.42,70a4.61,4.61,0,0,0,5.27,1.79l56.07-18.95A3.79,3.79,0,0,0,137.66,474.73Z" transform="translate(-11.36 -10.14)"/><path class="cls-7" d="M137.66,474.73a3.79,3.79,0,0,1-1.95,5.14L79.64,498.82A4.61,4.61,0,0,1,74.37,497L24,427.06a3.24,3.24,0,0,1,0-3.69,2.62,2.62,0,0,1,1.32-1L80.41,404.2a7.73,7.73,0,0,1,8.78,3.05l48.14,66.91A3.25,3.25,0,0,1,137.66,474.73Zm-9.82-.54a1.66,1.66,0,0,0,.7-2.5l-42.48-59a3.29,3.29,0,0,0-3.76-1.28l-48,16.21a2,2,0,0,0-.83,2.94l42.27,58.65a3.28,3.28,0,0,0,3.76,1.28Z" transform="translate(-11.36 -10.14)"/><path class="cls-32" d="M128.54,471.69a1.66,1.66,0,0,1-.7,2.5L79.51,490.52a3.28,3.28,0,0,1-3.76-1.28L33.48,430.59a2,2,0,0,1,.83-2.94l48-16.21a3.29,3.29,0,0,1,3.76,1.28Z" transform="translate(-11.36 -10.14)"/><line class="cls-4" x1="28.69" y1="412.1" x2="63.67" y2="400.06"/><polyline class="cls-4" points="323.06 275.61 381.16 275.61 381.16 280.84 381.16 310.94 348.51 310.94"/><path class="cls-33" d="M33.78,321.08" transform="translate(-11.36 -10.14)"/><path class="cls-33" d="M206.25,366.57" transform="translate(-11.36 -10.14)"/><path class="cls-31" d="M334.42,303.34c-1.09-.52-2.26-1-2.26-1l-.39-15.84a.72.72,0,0,1,.73-.7h1.92Z" transform="translate(-11.36 -10.14)"/><path class="cls-12" d="M322.92,298.62c4.72,2,28.25,6.43,48.64,37.88C366.14,322.69,361.47,302.66,322.92,298.62Z" transform="translate(-11.36 -10.14)"/><path class="cls-4" d="M221.89,291a165.83,165.83,0,0,0-53.48-17.22,169.68,169.68,0,0,0-33.1-1.5c-1.12.06-2.23.14-3.35.22a163.88,163.88,0,0,0-35.07,6.41" transform="translate(-11.36 -10.14)"/><line class="cls-34" x1="72.79" y1="373.69" x2="72.79" y2="439.15"/><path class="cls-34" d="M379.77,322.35V432.7" transform="translate(-11.36 -10.14)"/><path class="cls-34" d="M215.77,262.78c9.15,19.39,25.39,14.59,46.16,12.26,16.21-1.82,31.52-8.7,47.71-10.62s35.21,3,42.25,17.7" transform="translate(-11.36 -10.14)"/><path class="cls-6" d="M203.91,493.94l-11.67-70.51c-.33-1.91,2-4.07,3.83-5a4.47,4.47,0,0,0-2.18,4.61l11.65,69.14a4.47,4.47,0,0,0,5.15,3.66l32.12-5.41a4.5,4.5,0,0,0,3-2c-.68,1.53-1.73,3.24-2.93,3.44L209,497.59A4.44,4.44,0,0,1,203.91,493.94Z" transform="translate(-11.36 -10.14)"/><path class="cls-7" d="M229.66,412.49a4.47,4.47,0,0,1,5.15,3.65l11.65,69.14a4.33,4.33,0,0,1,0,1.48,16.77,16.77,0,0,1-.66,1.69,4.5,4.5,0,0,1-3,2l-32.12,5.41a4.47,4.47,0,0,1-5.15-3.66L193.89,423a4.47,4.47,0,0,1,2.18-4.61,2.29,2.29,0,0,1,.31-.16,4.57,4.57,0,0,1,1.17-.37Z" transform="translate(-11.36 -10.14)"/><path class="cls-35" d="M241.76,479.47a4.06,4.06,0,0,1-3.33,4.68l-25.66,4.33a4,4,0,0,1-4.68-3.32l-9.28-55a4.07,4.07,0,0,1,3.33-4.68l25.67-4.33a4.06,4.06,0,0,1,4.68,3.33Z" transform="translate(-11.36 -10.14)"/><path class="cls-6" d="M224.6,415.65a1,1,0,0,1-.56,1.22,1,1,0,1,1-.66-1.79A1,1,0,0,1,224.6,415.65Z" transform="translate(-11.36 -10.14)"/><line class="cls-4" x1="188.3" y1="412.93" x2="216.28" y2="408.29"/><line class="cls-34" x1="206.4" y1="362.2" x2="206.4" y2="433.03"/><path class="cls-36" d="M235.12,188.38a117.92,117.92,0,0,0,47.73-38.83" transform="translate(-11.36 -10.14)"/><path class="cls-36" d="M301.61,320c-11-20.52-27.09-50-41.12-68.58-5.65-7.49-11.76-15.38-12.6-24.72-.79-8.85,3.41-17.48,9-24.39s12.57-12.53,18.71-19c5.79-6,11-13.15,12.72-21.29" transform="translate(-11.36 -10.14)"/><path class="cls-37" d="M229,213a44,44,0,0,0,6.64,38.48" transform="translate(-11.36 -10.14)"/><path class="cls-38" d="M192.24,64.61a631.09,631.09,0,0,1,3.2,73.13" transform="translate(-11.36 -10.14)"/><path class="cls-38" d="M199.81,49.34c4.89-2.9,11.09-3.08,16.48-1.29a33.27,33.27,0,0,1,13.85,9.61,99.14,99.14,0,0,1,9.92,13.85" transform="translate(-11.36 -10.14)"/><path class="cls-38" d="M156.94,151.11c7.53-25,13.37-47.23,17.83-71.21" transform="translate(-11.36 -10.14)"/><path class="cls-38" d="M195.33,70.83Q196.15,83,197,95.16" transform="translate(-11.36 -10.14)"/><path class="cls-38" d="M161.16,148.68q1.5-5.55,3-11.09" transform="translate(-11.36 -10.14)"/><line class="cls-39" x1="127.28" y1="233.01" x2="148.24" y2="223.68"/><line class="cls-39" x1="193.58" y1="202.86" x2="193.99" y2="244.06"/><rect class="cls-40" x="13.3" y="115.64" width="30.22" height="30.22"/><rect class="cls-41" x="382.53" y="88.94" width="25.82" height="25.82"/><rect class="cls-42" y="139.14" width="17.34" height="17.34"/><rect class="cls-40" x="406.78" y="113.19" width="8.59" height="8.59"/><path class="cls-43" d="M239.39,53.13a174.54,174.54,0,0,1,26.32,46.23" transform="translate(-11.36 -10.14)"/><path class="cls-43" d="M239.89,48.57l-.47-.48,7.16,8.46" transform="translate(-11.36 -10.14)"/><path class="cls-17" d="M179,239.49c3-1.46,6.57-12.63,6.57-12.63S181.69,236.12,179,239.49Z" transform="translate(-11.36 -10.14)"/><path class="cls-44" d="M196.29,212.81" transform="translate(-11.36 -10.14)"/><line class="cls-43" x1="186.62" y1="243.78" x2="186.62" y2="263.78"/><line class="cls-43" x1="188.95" y1="240.78" x2="188.95" y2="249.45"/><path class="cls-4" d="M39.17,309.49A35.28,35.28,0,0,1,83.82,260" transform="translate(-11.36 -10.14)"/></g><g id="Livello_2" data-name="Livello 2"><path class="cls-15" d="M222.22,136.45c.84-6.06,1.62-12.57,2.34-19.59-1.11.21-10.53,42.87-13.17,51.81-3.69,12.57-7.74,25.26-15.18,36-.57.78-5.31,6.69-2.13,6.39s7.26-3.42,8.55-5c1-1.29,8.4-12.72,14.94-43,3.69,6.45,15.24,23.31,15.24,23.31,16.5-4.83,34.44-24.09,41.19-31.89C257.92,168.94,219.19,165.7,222.22,136.45Z" transform="translate(-11.36 -10.14)"/><path class="cls-15" d="M276.73,151.24a16.4,16.4,0,0,1-2.73,3.24C275.53,152.71,276.46,151.54,276.73,151.24Z" transform="translate(-11.36 -10.14)"/><polygon class="cls-7" points="355.06 428.24 361.52 410.29 373.25 431.51 355.06 428.24"/><polygon class="cls-7" points="68.67 449.72 58.33 435.43 78.88 436.94 68.67 449.72"/><polygon class="cls-7" points="204.88 451.11 202.77 438.25 216.63 442.58 204.88 451.11"/></g></g></svg>