<svg id="Layer_1" xmlns="http://www.w3.org/2000/svg" xmlns:xlink="http://www.w3.org/1999/xlink" viewBox="0 0 437 542"><style>.st0{fill:#f6f8fa}.st1{fill:none;stroke:#d3dbe5;stroke-width:.25;stroke-linecap:round;stroke-linejoin:round;stroke-miterlimit:10}.st3{fill:#d3dbe5}.st4{fill:#fff}.st7{fill:#43aa82}.st11{opacity:.3;fill:#b3b3b3}.st13{opacity:.24;fill:#db5437}.st21{fill:#24497e}.st22{fill:none;stroke:#24497e;stroke-width:.25;stroke-linecap:round;stroke-linejoin:round;stroke-miterlimit:10}.st26{opacity:.18}.st27{clip-path:url(#SVGID_16_);fill:none;stroke:#99c3e4;stroke-width:.5;stroke-miterlimit:10}.st28,.st30,.st31{stroke-linejoin:round;stroke-miterlimit:10}.st28{stroke:#d3dbe5;stroke-width:.25;stroke-linecap:round;fill:#d3dbe5}.st30,.st31{fill:none}.st30{stroke-linecap:round;stroke:#24497e}.st31{stroke:#59e3ad;stroke-width:.25;stroke-dasharray:3,3,3,3}.st31,.st33,.st35{stroke-linecap:round}.st33{fill:none;stroke-width:.25;stroke-miterlimit:10;stroke:#a7b6cb}.st35{opacity:.5;stroke:#fff;stroke-linejoin:round}.st35,.st36,.st37,.st40{fill:none;stroke-width:.25;stroke-miterlimit:10}.st36{stroke-linecap:round;stroke:#fff}.st37,.st40{stroke:#59e3ad}.st40{stroke:#b3b3b3;stroke-linecap:round;stroke-linejoin:round}</style><path class="st0" d="M188.8 208.3s14.4-21.9 13.2-38.6l-18.2-2.8-9.2 44.8 14.2-3.4z"/><path class="st1" d="M196.5 169.4c5.4 1 10.6 2.6 15.5 4.7"/><path class="st0" d="M52.3 239.4s-2.9 11.9 1.7 14.2l-7.5.8c.1 0 3.3-14.2 5.8-15z"/><path class="st1" d="M46.6 254.4c7.6-31.5 35.2-54.9 68.2-54.9"/><path class="st0" d="M142.8 184s20.2-12.5 25.7-1.2l2.8-13.2s-22.6 4.8-28.5 14.4zM396.1 258s2.9-17.1 14.1-10.2c0 0-6.9-5.6-16.7-8.2 0 0 3.1 7 2.6 18.4zM352 242.6s6.1-33.2 26-24.8c0 0-10.2-10.1-31-10.1.1 0 4.6 8.6 5 34.9z"/><defs><path id="SVGID_1_" d="M317.6 398.7s33.8-3.8 58.1-14.1c23.7-10.1 46.8 29.1 46.8 29.1v58l-52.5 56-78.6-2.5-29.7-80.4 14-15.6 41.9-30.5z"/></defs><clipPath id="SVGID_2_"><use xlink:href="#SVGID_1_" overflow="visible"/></clipPath><g clip-path="url(#SVGID_2_)"><path class="st3" d="M384.6 488.4l-.1 8.9c0 .4-.2.8-.6.9l-43.7 15.6c-2.2.8-4.8.1-6.8-1.7l-64.6-62.6c-.4-.4-.7-.9-.7-1.4 0-.3-.2-3.5-.2-3.5 0 .5.3 1 .7 1.4l.6.5 64 62c2 1.9 4.6 2.5 6.8 1.7l43.8-15.6c.4-.1.6-.5.6-.9l.2-5.3z"/><path class="st4" d="M383.8 492.6c.4.3.5.8.5 1.2 0 .4-.2.8-.6.9l-43.8 15.6c-2.2.8-4.8.1-6.8-1.7l-64-62-.6-.5c-.4-.4-.6-.9-.7-1.4-.1-.8.3-1.5 1-1.7l43.2-13 71.8 62.6z"/><path class="st1" d="M337.7 502.9l-59.5-56.1 34.4-10.6 60.7 54.1zM362.5 480.9l-35.1 12.2M352 471.6l-34.8 11.8M341.7 462.4l-34.6 11.5M331.7 453.5l-34.4 11.1M321.9 444.8l-34.2 10.8M304.1 438.9l60.2 54.4M295.6 441.6l59.8 54.9M286.9 444.2l59.7 55.5"/><path class="st4" d="M407.4 424.8c1.8 1.5 2.4 3.8 1.7 5.9l-21.8 60.1c-.8 2.1-3.4 2.9-5.4 1.8-.2-.1-.4-.3-.6-.4l-67.2-59c-.6-.6-1.2-1.2-1.7-1.8-.1-.1-.2-.3-.3-.4-.2-.3-.3-.6-.5-.8-1-2.1-1.2-4.5-.4-6.8l19.2-54.5c.2-.6.6-1 1.1-1.4 1.1-.7 2.7-.7 3.8.3l72.1 57z"/><path class="st3" d="M389.9 491.4c-.5 1.4-2.6 2.2-4.7 2.2-.7-.1-1.5-.5-1.5-.5 1.5.1 3.1-.8 3.6-2.3l21.8-60.1c.7-2.1.1-4.4-1.7-5.9l-72-57.1c-1.1-1-2.7-1-3.8-.3 1.2-2 5.4-1.1 6.7-.1l71.9 57.4c1.8 1.5 2.4 3.9 1.6 6l-21.9 60.7z"/><linearGradient id="SVGID_3_" gradientUnits="userSpaceOnUse" x1="285.4312" y1="546.3176" x2="289.9112" y2="594.1982" gradientTransform="rotate(1.403 6461.13832725 3305.90671322)"><stop offset="0" stop-color="#9fefcf"/><stop offset="1" stop-color="#59e3ad"/></linearGradient><path d="M333.8 376.3c.4-1.2 2.1-1.6 3.2-.7l63.7 52c1.3 1.1 1.8 2.8 1.2 4.3l-18.1 52.5c-.4 1-1.8 1.4-2.7.6l-63.7-55.6c-1.3-1.1-1.8-2.8-1.2-4.3l17.6-48.8z" fill="url(#SVGID_3_)"/><path class="st4" d="M312.2 430.9c.1.1.2.3.3.4-.1-.1-.2-.2-.3-.4zM311.7 430.1c.1.3.3.6.5.8-.2-.3-.3-.5-.5-.8z"/><g><path class="st1" d="M381.3 492.2l-67.2-59"/></g></g><path clip-path="url(#SVGID_2_)" fill="none" stroke="#fff" stroke-miterlimit="10" d="M255.6 418.8h8.2v8.2h-8.2z"/><path class="st7" d="M186.6 204l4.3 1.2s-39.3 49.1-60.2 63.3c-5.4 0-13.9.4-15.6.4l-.5-32.9 72-32z"/><linearGradient id="SVGID_4_" gradientUnits="userSpaceOnUse" x1="180.3259" y1="216.1929" x2="121.7407" y2="283.0851"><stop offset="0" stop-color="#9fefcf"/><stop offset="1" stop-color="#59e3ad"/></linearGradient><path d="M191 205.2V252l-39.4 18.3c-11-1.6-22.1-2.1-33.1-1.5v-30l29.7-13.8c1.1-.2 42.8-19.8 42.8-19.8z" fill="url(#SVGID_4_)"/><path class="st0" d="M98.5 271.8c23-6.5 71.2-3.4 100.4 12.6-35.4-27.7-79.6-25.7-100.4-12.6z"/><path class="st7" d="M151.7 237.6v18.5l15.9-12.8z"/><path class="st0" d="M341.7 201.4l-27.6.9c-4 .1-8.3.2-11.5-2.3-2.1-1.6-4-5.3-4.7-8.8-2 1.7-4.2 3.2-6.2 4.7-10.6 7.7-21.1 17.6-23.1 30.6-1.2 8.3 1.3 16.6 3.8 24.7 5.1 16.6 13.2 42.1 18.4 58.7-10.4-23.1-26.8-54.6-37.2-77.7-1.2-2.6-3.3-7.5-3.1-10.3.3-4.2 6.3-8.2 9-11.5 13.6-16.6 17-37.5 9.7-57.7 4.6-.7 11-1.2 15.6-.1-.1 0-.2 0-.3-.1l8 2.7c-2.4-1.2-5-2-7.6-2.6 6.2 1.1 12.3 3.4 16.8 7.8 4.6 4.4 7.3 11.1 6 17.3-.3 1.4-.8 2.7-1.4 4 1.1.5 2 1.6 2.5 3.2.5 1.7.1 3.7 1 5.3 1.2 2.2 4.2 2.4 6.7 2.4h14.4c2.9 0 5.6-1.5 8.1-.1 2.3 1.4 2.8 6.4 2.7 8.9z"/><path class="st4" d="M317.6 282.3h58.1v5.2h-58.1z"/><path class="st0" d="M301.2 340.1c3.6-3.1 7.1-6.7 7.8-11.4.5-3.1-.5-6.5-2.8-8.7-2.3-2.2-5.9-3-8.8-1.7-3.2 1.4-5.1 4.8-6.7 7.9-1.8 3.7-14.3 23.6-11.6 26.1 2.9 2.7 22.1-9.3 22.1-12.2z"/><radialGradient id="SVGID_5_" cx="290.9974" cy="299.5147" r="71.2366" gradientUnits="userSpaceOnUse"><stop offset=".1464" stop-color="#1b375f"/><stop offset="1" stop-color="#24497e"/></radialGradient><path d="M295.7 320.1c0 3.6-1.6 7.1-3.3 10.3-4.2 7.9-9.1 15.5-14.3 22.8-1.2 1.7-2.5 3.4-4.2 4.5-1.7 1.2-4 1.7-5.9.8-1.9-.9-2.9-2.9-3.2-5-.2-2 .2-4.1.7-6.1 2.3-10.2 4.6-20.4 7.2-30.5 1.9 1.1 3.9 1.8 6.1 1.7 4.3-.1 8-3 9.4-7.1.6-1.9.6-3.7.3-5.5 3.5 4.2 7.1 8.7 7.2 14.1z" fill="url(#SVGID_5_)"/><radialGradient id="SVGID_6_" cx="201.3891" cy="227.0442" r="88.6918" gradientUnits="userSpaceOnUse"><stop offset="0" stop-color="#f6f8fa"/><stop offset=".0699525" stop-color="#f3f5f8"/><stop offset=".4968" stop-color="#e2e7ee"/><stop offset=".8197" stop-color="#dce2ea"/></radialGradient><path d="M288.5 306.1c.3 1.8.3 3.6-.3 5.5-1.4 4.1-5.1 7-9.4 7.1-2.2 0-4.3-.7-6.1-1.7-1.9-1.1-3.6-2.6-5.3-4.1-19.2-17.1-39.1-44.7-54.2-65.2-7.5-10.1-10.1-23.2-6.7-35.3 2.7-9.8 6.4-19.3 10.9-28.3-.6-.5-1.2-1-1.7-1.4l-.7-.8c1-.3 3.1-.4 4-.8 2.1-.9 4.1-2 6.1-3.1 8.9-5.2 17.1-11.4 24.6-18.5 3.8-3.6 7.4-7.5 10.7-11.5 1.8-2.2 3.2-3.6 3.7-5.1l.2.1c2.4 3 4.3 6.3 5.7 9.7 4.9 11.5 5 25.1 1.3 37.2-3.8 12.1-11.1 22.8-20 31.9 10.6 23 21.2 45.9 31.8 68.9 1 2 5 13.1 5.4 15.4z" fill="url(#SVGID_6_)"/><path class="st11" d="M150.2 220.1s4.5.6 4.5 1.6-5.8 11.7-4.3 14.2c.7 1.2 3.3-.8 4.8-2.8 1.5-2-.5 6.7 2.3 4.8 2.8-1.9 4.8-3.9 4.8-3.9s.4 4.1 2.9 2c2.6-2 10-12.5 10-16.9s-22.1-4.3-25 1z"/><linearGradient id="SVGID_7_" gradientUnits="userSpaceOnUse" x1="148.8678" y1="211.923" x2="187.5676" y2="211.923"><stop offset=".1718" stop-color="#ffd672"/><stop offset="1" stop-color="#ee9a57"/></linearGradient><path d="M170.7 193.6c-1.8 8.6-22.2 25-21.9 27.2.1.3 2.1-1 3.4-1.5 1.1-.3 2.3 0 2.9 1.5 2.4 5.4-5.9 16.5-3 17.5 3 1 10.6-14.1 11.5-17.8-.5 6-8.5 17.2-6 18.6.9.5 3.1-.8 4.5-3.2 0 0-.1.9.6 1 2.8-.7 6.7-6.2 10.4-13.6 2.2-4.2 4.7-6.8 6.2-13.9 2.9-14.4 10.9-26.3 7.1-24.4-7.3 3.6-13.8 0-15.7 8.6z" fill="url(#SVGID_7_)"/><path class="st13" d="M164.5 203.9s-1 .9-1.7 1.7c15.9 2.6 9.1 25.2 16.1 6.3l1.4-6.1-1.2-2.1-14.6.2z"/><path d="M164.5 203.9c-.5-.5-1-1.1-1.5-1.7.4-1.4 1.1-2.8 1.5-4.2l.5.2c6.5 3.5 14.3 4.6 21.5 3.2 0 0-3.3 3.9-4.6 4.6-2.5 1.5-5.4 2.2-8.3 2.1-3.6-.3-6.7-1.8-9.1-4.2z" fill="#91bdfd"/><defs><path id="SVGID_8_" d="M122.9 214.7s3.8-16.9 17.2-29.2l-20.4-4.4-22.3 17.2-6.3 8.8 11.6 9.9 20.2-2.3z"/></defs><clipPath id="SVGID_9_"><use xlink:href="#SVGID_8_" overflow="visible"/></clipPath><path d="M95.6 207.5s.6 1.1 2.8.3c0 0-1.5 2.6.7 2.5 2.2-.1 18.5-6.5 20.6-2.6 2.1 4 3.4 4.1 4.5 3.6 0 0 2.4-7.1 4.1-8.4 1.7-1.2-7.5-2.9-7.5-2.9s-20.8 3.3-25.2 7.5z" clip-path="url(#SVGID_9_)" fill="#f6f8fa"/><g clip-path="url(#SVGID_9_)"><linearGradient id="SVGID_10_" gradientUnits="userSpaceOnUse" x1="67.6113" y1="231.6952" x2="108.6275" y2="231.6952" gradientTransform="matrix(1 .0086 -.0086 1 40.7152 -33.4926)"><stop offset=".1718" stop-color="#ffd672"/><stop offset="1" stop-color="#ee9a57"/></linearGradient><path d="M97.1 208.4c.1-.2.4-.4.6-.6l.9-.6c-.4.2-1 0-1.2-.4-.3-.4-.2-1 .1-1.4.2-.4.6-.8 1-1.1.4-.3.8-.7 1.3-1.1l-.1-.2c.4-1.6 1.9-2.6 3.3-3.6 7.1-4.6 13.3-8.2 21.4-9.5 1-.2 1.9-.7 2.6-1.4.5-.6.8-.8 1.3-2l.2-.1c1.7 3.2 6.3 6.8 9.8 7.8-4.8 4.2-9.5 8.5-12.6 14.2-1.1 1.3-2.9 2.2-4.4 2.7-.4.1-.9.2-1.2 0-.5-.3-.5-1-.3-1.6.5-1.6 1.5-3 2.4-4.4.2-.3.4-.6.5-.9-8-.4-16.1 3.4-24.2 5-.5.1-1.2.1-1.3-.4-.2-.1-.2-.2-.1-.4z" fill="url(#SVGID_10_)"/><path class="st13" d="M128.4 186.6s6.2 14.7-8.6 24.3c.6 1.6 5.1-1.6 5.1-1.6s2.3-6.6 6.9-11.5l4.6-4.9s-4.3-1-8-6.3zM98.2 207.5s10.6-7.6 18.2-8.5c0 .1-10.3.2-18.2 8.5zM98.5 204.3s9.2-6.3 16.8-7.9c0 0-9.3 1.2-16.8 7.9z"/></g><path d="M146.3 192.4c-2.5 1.6-4.8 3.4-7 5.4-4.9-1.3-9.3-4.5-11.8-9-.1-.2-.2-.3-.3-.5.3-1 .7-2 1-3.1h.1c5.7 3.2 11.8 5.6 18 7.2z" clip-path="url(#SVGID_9_)" fill="#91bdfd"/><linearGradient id="SVGID_11_" gradientUnits="userSpaceOnUse" x1="115.9168" y1="48.7072" x2="192.1799" y2="48.1919"><stop offset=".1718" stop-color="#ffd672"/><stop offset="1" stop-color="#f3ad5f"/></linearGradient><path d="M179.6 46.8s-6.4 6.1-7 10c-1.8 11.1-9.9 12-9.9 12-1.1-1.3-2.4-2.5-3.7-3.6-2.6-2.3-5.6-4.3-8.8-5.9 0 .1-.1.2-.1.2-.5 1.2-1.2 2.2-2 3.2-3.6 4.1-9.8 5.5-14.8 3.4-3.3-1.4-6.1-4.1-9.6-4.3-1.3-.1-2.6.2-3.7-.5-1.2-.7-1.6-2.2-2.2-3.4-.3-.5-.5-1-.9-1.4l-.5-.7c-.1-.1-.2-.2-.2-.3l2.1-3c2.6 1.7 5.4 2 6.4.5 1-1.4-.3-4-2.8-5.8l9.3-13.7.5-3.7c-.1.4 4.4-2.2 4.5-1.8l4.9 1c1.8-.1.9.3 2.1 1.7l-.4 3.1c.4.6.8 1.1 1.4 1.5 2.9 1.9 6.2 3.5 9.8 3.5 1.2 0 2.5-.2 3.2-1.1 6.2 4.7 14.8 7.9 22.4 9.1z" fill="url(#SVGID_11_)"/><linearGradient id="SVGID_12_" gradientUnits="userSpaceOnUse" x1="115.8845" y1="42.4139" x2="190.9949" y2="41.9064"><stop offset=".1718" stop-color="#ffd672"/><stop offset="1" stop-color="#f3ad5f"/></linearGradient><path d="M131.2 33.7l-9.3 13.7c-2.6-1.8-5.5-2-6.5-.5s.3 4.1 2.9 5.8l-2 3c-2.4-2.6-5.8-4.5-7.1-7.8l-.1-.1.7-.7c3.3-3.6 5.7-8 7.1-12.8 2.5-1.1 5-2.9 7.1-5.2l.1.1c1.4 2.5 4.2 4.2 7.1 4.5z" fill="url(#SVGID_12_)"/><path class="st4" d="M131.8 58.5c.1-.5.3-1.2.8-1.3.4-.1.8.3 1 .6.4.7.4 1.7.1 2.5-.3.8-.9 1.4-1.7 1.8-.5.3-1.2.5-1.7.3-1.2-.5-.6-1.1 0-1.6.7-.6 1.2-1.4 1.5-2.3z"/><path class="st13" d="M126.9 52c.5-2.6-3.7-5.2-4.9-4.9.6.8 1.5 1.3 1.9 2.3s1.3 1.9 1 3c-.2.9-2.2 1.9-.7 1.8 1.2-.1 2.3-.5 2.7-2.2z"/><path class="st21" d="M118.8 52s-.1 0 0 0c-2.6-1.8-3.9-4.4-2.9-5.9s3.9-1.2 6.5.5c2.6 1.8 3.8 4.3 2.8 5.8-1 1.6-3.8 1.4-6.4-.4z"/><path class="st4" d="M121.9 47.4c2.6 1.8 3.8 4.3 2.8 5.8-1 1.4-3.9 1.2-6.4-.5-2.6-1.8-3.9-4.4-2.9-5.8.9-1.6 3.9-1.3 6.5.5z"/><path class="st13" d="M116.7 38.5c.3-.9.4-1.9 1-2.7.6-.8 1.6-1.3 2.5-1.8 1.2-.7 2.3-1.5 3.4-2.4.7-.6 1.3-1.3 1.5-2.1.2-.9-.2-1.9-1-2.1-.5-.1-1.1 0-1.5.3-.4.3-.8.7-1.2 1.1-1.8 1.9-4.2 3.2-6.7 3.9 0 3.3-1.1 6.5-3.2 9.1-.6.7-1.2 1.4-1.7 2.2-.5.7-1.5 2.9.2 2.3 1.1-.4 2.1-1.1 3-1.9 1.7-1.5 3.1-3.6 3.7-5.9zM123.7 59.8c.2-.1.4-.3.6-.4s.5-.1.7 0c.2.2.2.4.2.7-.1.5-.5 1.3-.8 1.7-.6.2-3.6 0-4.4-.5.2-.4 1.5-.4 2-.6.6-.1 1.2-.5 1.7-.9zM164.2 68.5c-.5.2-.8.1-1.5.4-3.1-3.7-9-8-12.4-9.5 0-.4 2.2-4.9.1-11 4.6 9.5 14 12 21.5 11.6-1.7 5.8-7.1 8.2-7.7 8.5zM130.3 38c1-1.3 2-2.8 1.8-4.4-3.2 3.7-6 7.7-8.5 12-.3.6-.2 1.8.5.9.6-.7 1.1-1.8 1.7-2.6 1.5-1.9 3-3.9 4.5-5.9z"/><path class="st22" d="M118.3 52.7c-2.6-1.8-3.9-4.4-2.9-5.9s3.9-1.2 6.5.5c2.6 1.8 3.8 4.3 2.8 5.8s-3.8 1.3-6.4-.4z"/><path class="st13" d="M119.5 53.8c-.2.2-.3.4-.5.5-.7.8-1.2 1.8-1.9 2.4 0 0-.1 0-.1.1l-.5-.7c0-.1.1-.3.2-.4.6-.9 1.2-1.7 1.8-2.5.3.2.7.4 1 .6z"/><path class="st21" d="M116 55.8c2.5 2 3.6 4.6 2.5 6-1.1 1.4-4 1-6.4-1-2.5-1.9-3.6-4.6-2.5-6 1-1.4 3.9-1 6.4 1z"/><path class="st4" d="M115.8 56.6c2.4 1.9 3.5 4.6 2.4 6-1.1 1.4-4 1-6.4-1-2.5-1.9-3.6-4.6-2.5-6 1.1-1.4 4-1 6.5 1 0-.1 0-.1 0 0z"/><path d="M115.8 56.5c2.5 2 3.6 4.6 2.5 6-1.1 1.4-4 1-6.4-1-2.5-1.9-3.6-4.6-2.5-6 1-1.3 3.9-.9 6.4 1z" fill="#fff" stroke="#24497e" stroke-width=".25" stroke-linecap="round" stroke-linejoin="round" stroke-miterlimit="10"/><path class="st22" d="M115.8 56.6l.6-.8 2.2-2.8M121.9 47.4l9.3-13.7 1.2-1.8"/><radialGradient id="SVGID_13_" cx="118.0431" cy="32.3081" r="0" gradientUnits="userSpaceOnUse"><stop offset=".1464" stop-color="#1b375f"/><stop offset="1" stop-color="#24497e"/></radialGradient><path class="st21" d="M125.7 8.5c2.3.4 4.1 1.5 5.1 3.1.3.5.5 1 .6 1.6.3 1.5-.1 3.1-1.1 4.3-.3 3.7-2.5 8.1-5.9 11.9-2.2 2.4-4.7 4.2-7.1 5.2-1.4 4.8-3.9 9.2-7.1 12.8l-.7.7c-4.4 4.6-11.3 7.3-17.2 3.6-3.2-2-5.2-5.8-4.6-9.5.5-3.3 2.8-6 3.7-9.2 1-3.2.5-6.8 1.9-9.9.8-1.8 2.1-3.4 3.8-4.6 1.2-.8 2.4-1.5 3.5-2.5s1.7-2.3 2.6-3.5c5-6.5 15.2-7.4 22.3-4.2-.1.1.1.2.2.2z"/><path class="st21" d="M158.2 36.1c-.1-.9-.6-1.7-1.1-2.3-.5-.6-1-1.2-1.6-1.7-1.1-1.1-2.3-1.9-3.5-2.8-2.3-1.8-4.3-3.9-6.4-6-2-2.2-4.1-4.3-6.4-6.2-2.3-1.9-5-3.5-8-4.3-.3-.1-.6.1-.7.4-.1.2 0 .4.1.5.2 1.3-.2 2.7-1.1 3.7-.2 3.7-3.7 10.1-5.9 12.6 1.6 2.6 4.1 4 7.2 4.3.4.1.8.1 1.2.1h.1c.3.4.6.7 1 1 .1.1.3 0 .4-.1.1-.1.1-.3 0-.4-1-.8-1.2-2.4-.6-3.5s1.9-1.7 3.2-1.7c1.3 0 2.6.6 3.6 1.4 1.1.8 1.6 2.1 2.5 3.4.2.3.5.7.8 1 .3.3.7.6 1 .8.6.4 1.3.8 1.9 1.2 1.3.7 2.7 1.4 4.2 1.8 1.5.4 3 .6 4.6.5.8-.1 1.7-.3 2.4-.9.9-.9 1.2-1.9 1.1-2.8z"/><linearGradient id="SVGID_14_" gradientUnits="userSpaceOnUse" x1="130.9095" y1="98.868" x2="242.4035" y2="153.6371"><stop offset=".3413" stop-color="#4891fb"/><stop offset=".8012" stop-color="#227bfb"/></linearGradient><path d="M175.6 116.6c-4.5 18-25.3 58.8-27.1 62.2-.1 0-5.1 3.8-8.7 7-2 1.8-3.6 3.8-3.6 3.8-1-.3-1 2.7-1.9 2.3-4.6-2-6.6-4.9-6.6-4.9 11.4-34.6 23.7-86.6 31-122.2 1.4 1.2 2.6 2.4 3.8 3.8 0 0 8.4-1 10.3-12.5.7-4.1 3.1-7.8 6.3-10.4 1.3-1.1 2.8-2 4.3-2.7 10.6-4.7 23.5-.2 32 7.7 8.5 8 13.5 18.8 18.4 29.4 9.1 19.5 18.7 38.9 29.2 57.8 1.2 2.1 1.4 3.5 1 4.7-.5 1.6-1.8 2.9-3.7 5.1-3.3 4.1-6.9 7.9-10.7 11.5-7.4 7.1-15.7 13.3-24.6 18.5-1.9 1.1-7 4.1-9.1 5-10.4-13.3-13.1-19.4-15.2-23.5-.1 3.6-7.6 27.8-10.4 34.6-1 2.6-3.9 7.3-3.9 7.3-12 5.2-22.2-3.4-22.2-3.4 2.7-9.1 5-18.4 6.8-27.8 1.2-6.2 2.2-12.5 3.1-18.8 1.1-8.2 1.8-16.5 2.2-24.9.1-1.9 0-8.1-.7-9.6z" fill="url(#SVGID_14_)"/><g class="st26"><defs><path id="SVGID_15_" class="st26" d="M175.7 116.4c-4.4 17.9-25.1 58.7-27 62.1-.1.1-.2.1-.3.2-6.2-1.6-12.2-4-17.8-7.1h-.1c11.3-34.5 21.1-71.3 28.4-106.8 1.3 1.2 2.6 2.4 3.8 3.8 0 0 8.3-1 10.2-12.5.7-4.1 3.1-7.8 6.3-10.4 1.3-1.1 2.8-2 4.3-2.7 10.6-4.7 23.4-.2 31.8 7.7 8.4 8 13.4 18.8 18.3 29.3 9.1 19.5 18.6 38.9 29 57.7 1.1 2.1 1.4 3.5 1 4.7-.5 1.6-1.8 2.9-3.6 5.1-3.3 4-6.9 7.9-10.6 11.5-7.4 7.1-15.6 13.3-24.4 18.4-1.9 1.1-4 2.2-6 3.1-.9.4-1.9.7-2.8 1.1l-.5.6c-5.1-4-10.8-7.2-16.8-9.4l-1.1-.3c-2.1 7.3-4.5 14.4-7.2 21.1-1 2.6-2.1 5.2-3.7 7.4l-.2-.2c-7.2 1.5-14.9.3-21.4-3.2l-.7-.2c2.7-9.1 5-18.4 6.8-27.7 1.2-6.2 2.2-12.5 3-18.8 1.1-8.2 1.8-16.5 2.2-24.8-.1-1.9-.2-8.1-.9-9.7z"/></defs><clipPath id="SVGID_16_"><use xlink:href="#SVGID_15_" overflow="visible"/></clipPath><path class="st27" d="M216.1 181.4c-1.2-24 .8-48.2 5.9-71.7 1.4-6.2 3-12.5 7.1-17.3 4.1-4.8 11.2-7.6 16.8-4.9M234.5 171.6c-.5-15.5 1.2-31 5.1-46 1.1-4.4 2.5-8.9 5-12.6 2.6-3.8 6.5-6.8 11-7.3M152.4 94.6c6.7 17.1 8 36.2 3.6 54-1.4 5.9-3.9 12.1-9.1 15-5.9 3.3-13.2 1.4-19.6-.6"/><path class="st27" d="M139.4 145c3 .3 5.9-1.7 7.4-4.2 1.6-2.6 2-5.7 2-8.7 0-7-2.2-13.9-6.2-19.6-.3.4-.5.8-.8 1.3M213.4 42.4c-6.5 9.5-6 23.3 1.3 32.2 7.2 8.9 20.5 12.3 31.1 7.9M169.6 53c23.3 10.7 42.6 30 53.4 53.4"/><path class="st27" d="M223.2 56.3c-3.1 2.3-4.1 7-2.1 10.3 2 3.3 6.6 4.6 10.1 2.9M253.2 122.9c.2-.6.4-1.2.7-1.7-5.5 12.7-4.7 28 2.1 40 .3.6.8 1.3 1.5 1.3s1.1-1.1.5-1.3M174.2 149.5c5.6 12.3 5.5 27.1-.1 39.4-1.9 4.2-5 8.5-9.6 9M176 141.3c13.1 17.2 15.7 41.9 6.5 61.5"/></g><path class="st0" d="M320.1 398.5s0-.1 0 0c0-.1 0-.1 0 0 0-.8 22.2-3.8 21.5-3.8-43.4-2.1-56-5.2-73.1-11.4-12-4.4-23.6-10.3-33.4-18.5-9.8-8.2-17.8-18.9-21.8-31-1.3-4-2.1-8.1-2.3-12.3-.1-3.5 1.6-7.7.9-11-9.4 2.3-16.8 17.8-18.6 26.4-.4 2-.7 4-.8 6 .9 5.4 2.3 10.6 4.4 15.7 3.6 8.5 9.3 14.8 16.7 20.3 4.7 3.5 9.5 6.7 14.6 9.5 7 1 13.3 6.3 20.9 6.4 1.2 0 2.2.4 3 1 22.4 4.3 41.6 5 64.3 3.1 0-.3 3.7-.1 3.7-.4z"/><path class="st0" d="M197 358c-.6-1.6-1.1-3.3-1.4-5.1-1.3-2.2 0-5.8-1.4-7.7-1.8-2.7-152.3 35.2-172.8-37.2-8 11.5-25.4 62.9 60 70.8 13.5 1.7 27.4 1.5 41 1.1 5.7-.1 11.4-.6 17-1.2 7.2-1.1 14.5-2.4 21.6-3.8 12.3-2.9 24.4-6.8 36.2-11.7.2-.4.3-.7.5-1.1.1-.5.2-.9.3-1.4-.4-1-.7-1.9-1-2.7z"/><path class="st4" d="M292.2 155.2l-8-2.7c.1 0 .2 0 .3.1 2.7.5 5.3 1.4 7.7 2.6z"/><path class="st1" d="M123.5 379.7c25.6-1.7 50.9-7.6 74.6-17.5M14.9 326.2c-1 7.2-.3 14.6 2.7 21.3 4 8.8 11.5 15.6 20 20.1 8.5 4.5 17.9 6.9 27.4 8.7 19.3 3.6 39 4.7 58.5 3.4"/><path class="st0" d="M37.6 289.5s-20.9 11.7-19.1 0c0 0-1.4 10.9 3.6 17.2 0 0 7.8-12.4 15.5-17.2z"/><path class="st1" d="M21.4 308c-3.3 5.6-5.6 11.9-6.5 18.3M22.1 306.7c-.3.4-.5.8-.8 1.2M51.1 279.9c-11.3 7-22 15.6-29 26.8M217.1 304.9c-11.1 5.8-19.5 16.7-22.2 28.9-2.4 11-.9 20.3 3.3 28.2 10.8 20.6 39.4 31.4 62.1 35.2 53.7 12 185.9-13.6 169.8-83.8-.4-1.2-.8-2.4-1.3-3.6-.1-.3-.2-.6-.4-.9-.6-1.4-1.2-2.7-2-3.9-1-1.7-2.1-3.4-3.3-4.9-7.7-9.9-19.6-16.2-32.2-17.2M347.1 207.7c12.2-.3 24.5 4 33.5 12.2 5.9 5.3 10.3 12.2 12.9 19.7 2.7 7.7 3.5 16.1 2 24.2"/><path class="st1" d="M393.5 239.6l2.1.6c.9.3 1.9.6 2.8.9 10.4 3.9 19.3 11.9 24.2 21.9 5.6 11.5 5.8 25.4.7 37.1M340 192.1s0 .1 0 0c2.9 4.9 5.3 10.2 7.1 15.6M347.1 207.7c5.1 14.9 6.2 31.2 3.3 46.7M270 152.6c3-.1 5.9 0 8.9.2 7.2.6 14.2 2.4 20.9 5M148.5 178.8c6.7-4.4 14.3-7.4 22.2-8.6M122 220c.6-4.8 1.9-9.4 3.7-13.8 3.4-8.3 8.8-15.8 15.5-21.7 2.2-2 4.5-3.8 7-5.4M355.1 333.7c-11.2-20-27.9-29.2-37.5-33.8-.8-.4-1.5-.7-2.3-1.1-4.1-1.9-8.4-3.5-12.7-4.8"/><path class="st11" d="M172.1 59.4c-2.2 7.1-7.7 9-9.6 9.2-1-1-2.4-2.7-3.8-3.8-.1.7.8.7 5 6.7 15.2 38.5-8.6 91.7-15 106.3-.2.4-.4.6-.4.6l.6-.4c2.5-5.4 5.2-10.1 7.3-14.6 10.3-21.5 15.8-34 19.5-47 3-14 1.8-28.7-3.6-57zM205.3 133.3c0 .2 0 .3-.1.5.1-.1.1-.2.1-.5 0 .1 0 0 0 0z"/><path class="st28" d="M355.4 298.7l-12.2 7.1v-14.1z"/><path class="st11" d="M249.1 225.7c1.1 0 2.5.3 3.8 1.6.2.2.9-.2.8-.5l-2.4-5.1-2.6 2.9c-.4.4-.1 1.1.4 1.1z"/><path class="st3" d="M120.8 471.2c1.4 1.9.6 6.9-1.6 7.7L62.6 498c-2 .7-4 0-5.3-1.8L6.6 426.4c-1.5-1.9-1.3-5.4.6-6.5-.7 1-.8 2.6 0 3.7l50.4 70c1.3 1.7 3.3 2.5 5.3 1.8l56.1-19c1.9-.7 2.7-3.2 1.8-5.2z"/><path class="st4" d="M120.8 471.2c.9 1.9 0 4.5-2 5.1l-56.1 19c-1.9.7-4-.1-5.3-1.8L7 423.5c-.8-1.1-.7-2.7 0-3.7.3-.5.8-.8 1.3-1l55.1-18.2c3.2-1.1 6.7.1 8.8 3l48.1 66.9c.3.4.4.5.5.7zm-9.8-.5c1-.3 1.3-1.7.7-2.5l-42.5-59c-.9-1.2-2.4-1.7-3.8-1.3l-48 16.2c-1.1.4-1.6 1.9-.8 2.9l42.3 58.7c.9 1.2 2.4 1.7 3.8 1.3l48.3-16.3z"/><linearGradient id="SVGID_17_" gradientUnits="userSpaceOnUse" x1="63.129" y1="400.3431" x2="65.339" y2="501.4536"><stop offset=".3362" stop-color="#9fefcf"/><stop offset=".7489" stop-color="#59e3ad"/></linearGradient><path d="M111.7 468.2c.6.8.2 2.2-.7 2.5L62.7 487c-1.4.5-2.9 0-3.8-1.3L16.6 427c-.7-1-.3-2.6.8-2.9l48-16.2c1.4-.5 2.9 0 3.8 1.3l42.5 59z" fill="url(#SVGID_17_)"/><path class="st1" d="M23.2 418.7l35-12M317.6 282.3h58.1V317.6H343"/><path class="st28" d="M317.6 299.9c-1.1-.5-2.3-1.1-2.3-1.1l-.4-15.8c0-.4.3-.7.7-.7h1.9v17.6z"/><path class="st0" d="M306.1 295.1c4.7 2 28.3 6.4 48.6 37.9-5.4-13.8-10.1-33.8-48.6-37.9z"/><path class="st1" d="M205.1 287.5c-16.7-8.8-34.8-14.5-53.5-17.2-11-1.6-22.1-2.1-33.1-1.5-1.1.1-2.2.1-3.3.2-11.9.9-23.7 3-35.1 6.4M363.5 190.3h-51.7L297 138.6h51.7z"/><path class="st28" d="M341.6 161.8l-14.5 10.7-4.5-18.8z"/><path class="st28" d="M340 192.2h-30.3l-14.8-51.7 2.1-1.9 14.8 51.7h51.7l-2.1 1.9z"/><path class="st31" d="M67.3 380.3v65.5M362.9 318.9V429.3M218.9 259.3c9.2 19.4 25.4 14.6 46.2 12.3 16.2-1.8 31.5-8.7 47.7-10.6 16.2-1.9 35.2 3 42.2 17.7"/><path class="st3" d="M187.1 490.4l-11.7-70.5c-.3-1.9 2.1-4.1 3.8-5-1.6.9-2.5 2.7-2.2 4.6l11.7 69.1c.4 2.4 2.7 4.1 5.1 3.7l32.1-5.4c1.3-.2 2.3-1 3-2-.7 1.5-1.7 3.2-2.9 3.4l-33.8 5.7c-2.4.5-4.7-1.1-5.1-3.6z"/><path class="st4" d="M212.8 409c2.4-.4 4.7 1.2 5.1 3.7l11.7 69.1c.1.5.1 1 0 1.5-.1.4-.4 1.1-.7 1.7-.7 1-1.7 1.8-3 2l-32.1 5.4c-2.4.4-4.7-1.2-5.1-3.7L177 419.6c-.3-1.9.6-3.7 2.2-4.6.1-.1.2-.1.3-.2.4-.2.8-.3 1.2-.4l32.1-5.4z"/><linearGradient id="SVGID_18_" gradientUnits="userSpaceOnUse" x1="203.1538" y1="391.1883" x2="203.7064" y2="499.4815"><stop offset=".3555" stop-color="#9fefcf"/><stop offset=".7849" stop-color="#59e3ad"/></linearGradient><path d="M224.9 476c.4 2.2-1.1 4.3-3.3 4.7l-25.7 4.3c-2.2.4-4.3-1.1-4.7-3.3l-9.3-55c-.4-2.2 1.1-4.3 3.3-4.7l25.7-4.3c2.2-.4 4.3 1.1 4.7 3.3l9.3 55z" fill="url(#SVGID_18_)"/><path class="st3" d="M207.8 412.2c.2.5-.1 1-.6 1.2-.5.2-1-.1-1.2-.6-.2-.5.1-1 .6-1.2.4-.2 1 .1 1.2.6z"/><path class="st1" d="M182.8 419.6l28-4.7"/><path class="st31" d="M200.9 368.9v70.8"/><path class="st33" d="M218.3 184.9c19-8.4 35.6-22 47.7-38.8M284.8 316.5c-11-20.5-27.1-50-41.1-68.6-5.6-7.5-11.8-15.4-12.6-24.7-.8-8.8 3.4-17.5 9-24.4 5.6-6.9 12.6-12.5 18.7-19 5.8-6.1 11-13.1 12.7-21.3"/><path d="M212.2 209.5c-3.9 13-1.5 27.6 6.6 38.5" fill="none" stroke="#fff" stroke-width=".25" stroke-linecap="round" stroke-linejoin="round" stroke-miterlimit="10"/><g><path class="st35" d="M175.4 61.1c2.5 24.3 3.6 48.7 3.2 73.1M183 45.9c4.9-2.9 11.1-3.1 16.5-1.3s10 5.4 13.9 9.6c3.8 4.2 6.9 9 9.9 13.8M140.1 147.6c7.5-25 13.4-47.2 17.8-71.2M178.5 67.3c.5 8.1 1.1 16.2 1.6 24.3M144.3 145.2l3-11.1"/></g><path class="st36" d="M121.8 239.7l21-9.4M188.1 209.5l.4 41.2"/><path class="st37" d="M65 155h30.2v30.2H65z"/><radialGradient id="SVGID_19_" cx="398.7306" cy="204.258" r="33.3138" gradientUnits="userSpaceOnUse"><stop offset="0" stop-color="#f6f8fa"/><stop offset=".0699525" stop-color="#f3f5f8"/><stop offset=".4968" stop-color="#e2e7ee"/><stop offset=".8197" stop-color="#dce2ea"/></radialGradient><path fill="url(#SVGID_19_)" d="M380.6 179.2h25.8V205h-25.8z"/><radialGradient id="SVGID_20_" cx="50.6095" cy="197.5353" r="25.7888" gradientUnits="userSpaceOnUse"><stop offset="0" stop-color="#f6f8fa"/><stop offset=".0699525" stop-color="#f3f5f8"/><stop offset=".4968" stop-color="#e2e7ee"/><stop offset=".8197" stop-color="#dce2ea"/></radialGradient><path fill="url(#SVGID_20_)" d="M51.7 178.5H69v17.3H51.7z"/><path class="st37" d="M404.8 203.4h8.6v8.6h-8.6z"/><path class="st40" d="M222.6 49.6c11.1 13.9 20 29.6 26.3 46.2M223.1 45.1l-.5-.5c2.4 2.8 4.8 5.6 7.2 8.5"/><path class="st13" d="M162.1 236c3-1.5 6.6-12.6 6.6-12.6s-3.8 9.2-6.6 12.6z"/><linearGradient id="SVGID_21_" gradientUnits="userSpaceOnUse" x1="179.4615" y1="209.3147" x2="179.4615" y2="209.3147"><stop offset=".1718" stop-color="#ffd672"/><stop offset="1" stop-color="#ee9a57"/></linearGradient><path class="st40" d="M181.2 250.4v20M183.5 247.4v8.7"/><path class="st1" d="M22.3 306c-2.8-5-4.3-10.8-4.3-17 0-19.5 15.8-35.3 35.3-35.3 4.9 0 9.5 1 13.7 2.8"/><path class="st11" d="M205.4 133c.8-6.1 1.6-12.6 2.3-19.6-1.1.2-10.5 42.9-13.2 51.8-3.7 12.6-7.7 25.3-15.2 36-.6.8-5.3 6.7-2.1 6.4 3.2-.3 7.3-3.4 8.6-5 1-1.3 8.4-12.7 14.9-43 3.7 6.4 15.2 23.3 15.2 23.3 16.5-4.8 34.4-24.1 41.2-31.9-16 14.4-54.7 11.2-51.7-18zM259.9 147.7c-.8 1.3-1.7 2.3-2.7 3.2 1.5-1.7 2.4-2.9 2.7-3.2z"/></svg>