<?xml version="1.0" encoding="utf-8"?>
<!-- Generator: Adobe Illustrator 23.0.1, SVG Export Plug-In . SVG Version: 6.00 Build 0)  -->
<svg version="1.1" id="Layer_1" xmlns="http://www.w3.org/2000/svg" xmlns:xlink="http://www.w3.org/1999/xlink" x="0px" y="0px"
	 viewBox="0 0 446 541" style="enable-background:new 0 0 446 541;" xml:space="preserve">
<style type="text/css">
	.st0{fill:#F6F8FA;}
	.st1{fill:none;stroke:#D3DBE5;stroke-width:0.25;stroke-linecap:round;stroke-linejoin:round;stroke-miterlimit:10;}
	.st2{clip-path:url(#SVGID_2_);}
	.st3{fill:#D3DBE5;}
	.st4{fill:#FFFFFF;}
	.st5{fill:url(#SVGID_3_);}
	.st6{clip-path:url(#SVGID_2_);fill:none;stroke:#FFFFFF;stroke-miterlimit:10;}
	.st7{fill:#43AA82;}
	.st8{fill:url(#SVGID_4_);}
	.st9{fill:url(#SVGID_5_);}
	.st10{fill:url(#SVGID_6_);}
	.st11{opacity:0.3;fill:#B3B3B3;}
	.st12{fill:url(#SVGID_7_);}
	.st13{opacity:0.24;fill:#DB5437;}
	.st14{fill:#91BDFD;}
	.st15{clip-path:url(#SVGID_9_);fill:#F6F8FA;}
	.st16{clip-path:url(#SVGID_9_);}
	.st17{fill:url(#SVGID_10_);}
	.st18{clip-path:url(#SVGID_9_);fill:#91BDFD;}
	.st19{fill:url(#SVGID_11_);}
	.st20{fill:url(#SVGID_12_);}
	.st21{fill:#24497E;}
	.st22{fill:none;stroke:#24497E;stroke-width:0.25;stroke-linecap:round;stroke-linejoin:round;stroke-miterlimit:10;}
	.st23{fill:#FFFFFF;stroke:#24497E;stroke-width:0.25;stroke-linecap:round;stroke-linejoin:round;stroke-miterlimit:10;}
	.st24{fill:url(#SVGID_13_);}
	.st25{fill:url(#SVGID_14_);}
	.st26{opacity:0.18;}
	.st27{clip-path:url(#SVGID_16_);fill:none;stroke:#99C3E4;stroke-width:0.5;stroke-miterlimit:10;}
	.st28{fill:#D3DBE5;stroke:#D3DBE5;stroke-width:0.25;stroke-linecap:round;stroke-linejoin:round;stroke-miterlimit:10;}
	.st29{fill:url(#SVGID_17_);}
	.st30{fill:none;stroke:#24497E;stroke-linecap:round;stroke-linejoin:round;stroke-miterlimit:10;}
	
		.st31{fill:none;stroke:#59E3AD;stroke-width:0.25;stroke-linecap:round;stroke-linejoin:round;stroke-miterlimit:10;stroke-dasharray:3,3,3,3;}
	.st32{fill:url(#SVGID_18_);}
	.st33{fill:none;stroke:#A7B6CB;stroke-width:0.25;stroke-linecap:round;stroke-miterlimit:10;}
	.st34{fill:none;stroke:#FFFFFF;stroke-width:0.25;stroke-linecap:round;stroke-linejoin:round;stroke-miterlimit:10;}
	.st35{opacity:0.5;fill:none;stroke:#FFFFFF;stroke-width:0.25;stroke-linecap:round;stroke-linejoin:round;stroke-miterlimit:10;}
	.st36{fill:none;stroke:#FFFFFF;stroke-width:0.25;stroke-linecap:round;stroke-miterlimit:10;}
	.st37{fill:none;stroke:#59E3AD;stroke-width:0.25;stroke-miterlimit:10;}
	.st38{fill:url(#SVGID_19_);}
	.st39{fill:url(#SVGID_20_);}
	.st40{fill:none;stroke:#B3B3B3;stroke-width:0.25;stroke-linecap:round;stroke-linejoin:round;stroke-miterlimit:10;}
	.st41{fill:url(#SVGID_21_);}
</style>
<path class="st0" d="M192.8,211.8c0,0,14.4-21.9,13.2-38.6l-18.2-2.8l-9.2,44.8L192.8,211.8z"/>
<path class="st1" d="M200.5,172.9c5.4,1,10.6,2.6,15.5,4.7"/>
<path class="st0" d="M56.3,242.9c0,0-2.9,11.9,1.7,14.2l-7.5,0.8C50.6,257.9,53.8,243.7,56.3,242.9z"/>
<path class="st1" d="M50.6,257.9c7.6-31.5,35.2-54.9,68.2-54.9"/>
<path class="st0" d="M146.8,187.5c0,0,20.2-12.5,25.7-1.2l2.8-13.2C175.3,173.1,152.6,177.9,146.8,187.5z"/>
<path class="st0" d="M400.1,261.5c0,0,2.9-17.1,14.1-10.2c0,0-6.9-5.6-16.7-8.2C397.5,243.1,400.6,250.1,400.1,261.5z"/>
<path class="st0" d="M356,246.1c0,0,6.1-33.2,26-24.8c0,0-10.2-10.1-31-10.1C351.1,211.2,355.5,219.8,356,246.1z"/>
<g>
	<defs>
		<path id="SVGID_1_" d="M321.6,402.2c0,0,33.8-3.8,58.1-14.1c23.7-10.1,46.8,29.1,46.8,29.1v58L374,531.2l-78.6-2.5l-29.7-80.4
			l14-15.6L321.6,402.2z"/>
	</defs>
	<clipPath id="SVGID_2_">
		<use xlink:href="#SVGID_1_"  style="overflow:visible;"/>
	</clipPath>
	<g class="st2">
		<path class="st3" d="M388.6,491.9l-0.1,8.9c0,0.4-0.2,0.8-0.6,0.9l-43.7,15.6c-2.2,0.8-4.8,0.1-6.8-1.7l-64.6-62.6
			c-0.4-0.4-0.7-0.9-0.7-1.4c0-0.3-0.2-3.5-0.2-3.5l0,0c0,0.5,0.3,1,0.7,1.4l0.6,0.5l64,62c2,1.9,4.6,2.5,6.8,1.7l43.8-15.6
			c0.4-0.1,0.6-0.5,0.6-0.9L388.6,491.9z"/>
		<path class="st4" d="M387.8,496.1c0.4,0.3,0.5,0.8,0.5,1.2c0,0.4-0.2,0.8-0.6,0.9l-43.8,15.6c-2.2,0.8-4.8,0.1-6.8-1.7l-64-62
			l-0.6-0.5c-0.4-0.4-0.6-0.9-0.7-1.4c-0.1-0.8,0.3-1.5,1-1.7l43.1-12.9L387.8,496.1z"/>
		<g>
			<g>
				<polygon class="st1" points="341.7,506.4 282.1,450.3 316.6,439.7 377.3,493.8 				"/>
			</g>
			<g>
				<line class="st1" x1="366.4" y1="484.4" x2="331.4" y2="496.6"/>
			</g>
			<g>
				<line class="st1" x1="356" y1="475.1" x2="321.2" y2="486.9"/>
			</g>
			<g>
				<line class="st1" x1="345.7" y1="465.9" x2="311.1" y2="477.4"/>
			</g>
			<g>
				<line class="st1" x1="335.7" y1="457" x2="301.3" y2="468.1"/>
			</g>
			<g>
				<line class="st1" x1="325.9" y1="448.3" x2="291.7" y2="459.1"/>
			</g>
			<g>
				<line class="st1" x1="308.1" y1="442.4" x2="368.2" y2="496.8"/>
			</g>
			<g>
				<line class="st1" x1="299.5" y1="445.1" x2="359.4" y2="500"/>
			</g>
			<g>
				<line class="st1" x1="290.9" y1="447.7" x2="350.6" y2="503.2"/>
			</g>
		</g>
		<path class="st4" d="M411.4,428.3c1.8,1.5,2.4,3.8,1.7,5.9l-21.8,60.1c-0.8,2.1-3.4,2.9-5.4,1.8c-0.2-0.1-0.4-0.3-0.6-0.4
			l-67.2-59c-0.6-0.6-1.2-1.2-1.7-1.8c-0.1-0.1-0.2-0.3-0.3-0.4c-0.2-0.3-0.3-0.6-0.5-0.8c-1-2.1-1.2-4.5-0.4-6.8l19.2-54.5
			c0.2-0.6,0.6-1,1.1-1.4c1.1-0.7,2.7-0.7,3.8,0.3L411.4,428.3z"/>
		<path class="st3" d="M393.9,494.9c-0.5,1.4-2.6,2.2-4.7,2.2c-0.7-0.1-1.5-0.5-1.5-0.5c1.5,0.1,3.1-0.8,3.6-2.3l21.8-60.1
			c0.7-2.1,0.1-4.4-1.7-5.9l-72-57.1c-1.1-1-2.7-1-3.8-0.3c1.2-2,5.4-1.1,6.7-0.1l71.9,57.4c1.8,1.5,2.4,3.9,1.6,6L393.9,494.9z"/>
		
			<linearGradient id="SVGID_3_" gradientUnits="userSpaceOnUse" x1="289.3764" y1="549.7181" x2="293.8564" y2="597.5987" gradientTransform="matrix(0.9997 2.510000e-02 -2.510000e-02 0.9997 85.0421 -161.1813)">
			<stop  offset="0" style="stop-color:#9FEFCF"/>
			<stop  offset="1" style="stop-color:#59E3AD"/>
		</linearGradient>
		<path class="st5" d="M337.8,379.8c0.4-1.2,2.1-1.6,3.2-0.7l63.7,52c1.3,1.1,1.8,2.8,1.2,4.3l-18.1,52.5c-0.4,1-1.8,1.4-2.7,0.6
			L321.4,433c-1.3-1.1-1.8-2.8-1.2-4.3L337.8,379.8z"/>
		<path class="st4" d="M316.2,434.4c0.1,0.1,0.2,0.3,0.3,0.4C316.4,434.7,316.3,434.6,316.2,434.4z"/>
		<path class="st4" d="M315.7,433.6c0.1,0.3,0.3,0.6,0.5,0.8C316,434.1,315.9,433.9,315.7,433.6z"/>
		<g>
			<line class="st1" x1="385.3" y1="495.7" x2="318.1" y2="436.7"/>
			<path class="st1" d="M385.3,495.7"/>
			<path class="st1" d="M385.9,496.1"/>
		</g>
	</g>
	<rect x="259.6" y="422.3" class="st6" width="8.2" height="8.2"/>
</g>
<path class="st7" d="M190.6,207.5l4.3,1.2c0,0-39.3,49.1-60.2,63.3c-5.4,0-13.9,0.4-15.6,0.4l-0.5-32.9L190.6,207.5z"/>
<linearGradient id="SVGID_4_" gradientUnits="userSpaceOnUse" x1="184.3101" y1="219.6929" x2="125.7249" y2="286.5851">
	<stop  offset="0" style="stop-color:#9FEFCF"/>
	<stop  offset="1" style="stop-color:#59E3AD"/>
</linearGradient>
<path class="st8" d="M195,208.7v46.8l-39.4,18.3c-11-1.6-22.1-2.1-33.1-1.5v-30l29.7-13.8C153.3,228.3,195,208.7,195,208.7z"/>
<path class="st0" d="M102.5,275.3c23-6.5,71.2-3.4,100.4,12.6C167.5,260.2,123.3,262.2,102.5,275.3z"/>
<polygon class="st7" points="155.7,241.1 155.7,243.4 155.7,259.6 171.6,246.8 "/>
<path class="st0" d="M345.7,204.9c-9.2,0.3-18.4,0.6-27.6,0.9c-4,0.1-8.3,0.2-11.5-2.3c-2.1-1.6-4-5.3-4.7-8.8
	c-2,1.7-4.2,3.2-6.2,4.7c-10.6,7.7-21.1,17.6-23.1,30.6c-1.2,8.3,1.3,16.6,3.8,24.7c5.1,16.6,13.2,42.1,18.4,58.7
	c-10.4-23.1-26.8-54.6-37.2-77.7c-1.2-2.6-3.3-7.5-3.1-10.3c0.3-4.2,6.3-8.2,9-11.5c13.6-16.6,17-37.5,9.7-57.7
	c4.6-0.7,11-1.2,15.6-0.1c-0.1,0-0.2,0-0.3-0.1l8,2.7c-2.4-1.2-5-2-7.6-2.6c6.2,1.1,12.3,3.4,16.8,7.8c4.6,4.4,7.3,11.1,6,17.3
	c-0.3,1.4-0.8,2.7-1.4,4c1.1,0.5,2,1.6,2.5,3.2c0.5,1.7,0.1,3.7,1,5.3c1.2,2.2,4.2,2.4,6.7,2.4c4.8,0,9.6,0,14.4,0
	c2.9,0,5.6-1.5,8.1-0.1C345.2,197.4,345.8,202.4,345.7,204.9z"/>
<rect x="321.6" y="285.8" class="st4" width="58.1" height="5.2"/>
<path class="st0" d="M305.2,343.6c3.6-3.1,7.1-6.7,7.8-11.4c0.5-3.1-0.5-6.5-2.8-8.7c-2.3-2.2-5.9-3-8.8-1.7
	c-3.2,1.4-5.1,4.8-6.7,7.9c-1.8,3.7-14.3,23.6-11.6,26.1C286,358.5,305.2,346.5,305.2,343.6z"/>
<radialGradient id="SVGID_5_" cx="294.9816" cy="303.0147" r="71.2366" gradientUnits="userSpaceOnUse">
	<stop  offset="0.1464" style="stop-color:#1B375F"/>
	<stop  offset="1" style="stop-color:#24497E"/>
</radialGradient>
<path class="st9" d="M299.7,323.6c0,3.6-1.6,7.1-3.3,10.3c-4.2,7.9-9.1,15.5-14.3,22.8c-1.2,1.7-2.5,3.4-4.2,4.5
	c-1.7,1.2-4,1.7-5.9,0.8c-1.9-0.9-2.9-2.9-3.2-5c-0.2-2,0.2-4.1,0.7-6.1c2.3-10.2,4.6-20.4,7.2-30.5c1.9,1.1,3.9,1.8,6.1,1.7
	c4.3-0.1,8-3,9.4-7.1c0.6-1.9,0.6-3.7,0.3-5.5C296,313.7,299.6,318.2,299.7,323.6z"/>
<radialGradient id="SVGID_6_" cx="205.3732" cy="230.5442" r="88.6918" gradientUnits="userSpaceOnUse">
	<stop  offset="0" style="stop-color:#F6F8FA"/>
	<stop  offset="6.995250e-02" style="stop-color:#F3F5F8"/>
	<stop  offset="0.4968" style="stop-color:#E2E7EE"/>
	<stop  offset="0.8197" style="stop-color:#DCE2EA"/>
</radialGradient>
<path class="st10" d="M292.5,309.6c0.3,1.8,0.3,3.6-0.3,5.5c-1.4,4.1-5.1,7-9.4,7.1c-2.2,0-4.3-0.7-6.1-1.7
	c-1.9-1.1-3.7-2.6-5.3-4.1c-19.2-17.1-39.1-44.7-54.2-65.2c-7.5-10.1-10.1-23.2-6.7-35.3c2.7-9.8,6.4-19.3,10.9-28.3
	c-0.6-0.5-1.2-1-1.7-1.4l-0.7-0.8c1-0.3,3.1-0.4,4-0.8c2.1-0.9,4.1-2,6.1-3.1c8.9-5.2,17.1-11.4,24.6-18.5
	c3.8-3.6,7.4-7.5,10.7-11.5c1.8-2.2,3.2-3.6,3.7-5.1l0.2,0.1c2.4,3,4.3,6.3,5.7,9.7c4.9,11.5,5,25.1,1.3,37.2
	c-3.8,12.1-11.1,22.8-20,31.9l0,0c10.6,23,21.2,45.9,31.8,68.9C288.1,296.2,292.1,307.3,292.5,309.6z"/>
<path class="st11" d="M154.1,223.6c0,0,4.5,0.6,4.5,1.6c0,1-5.8,11.7-4.3,14.2c0.7,1.2,3.3-0.8,4.8-2.8c1.5-2-0.5,6.7,2.3,4.8
	c2.8-1.9,4.8-3.9,4.8-3.9s0.4,4.1,2.9,2s10-12.5,10-16.9S157.1,218.3,154.1,223.6z"/>
<linearGradient id="SVGID_7_" gradientUnits="userSpaceOnUse" x1="152.852" y1="215.423" x2="191.5518" y2="215.423">
	<stop  offset="0.1718" style="stop-color:#FFD672"/>
	<stop  offset="1" style="stop-color:#EE9A57"/>
</linearGradient>
<path class="st12" d="M174.7,197.1c-1.8,8.6-22.2,25-21.9,27.2c0.1,0.3,2.1-1,3.4-1.5c1.1-0.3,2.3,0,2.9,1.5
	c2.4,5.4-5.9,16.5-3,17.5c3,1,10.6-14.1,11.5-17.8c-0.5,6-8.5,17.2-6,18.6c0.9,0.5,3.1-0.8,4.5-3.2c0,0-0.1,0.9,0.6,1
	c2.8-0.7,6.7-6.2,10.4-13.6c2.2-4.2,4.7-6.8,6.2-13.9c2.9-14.4,10.9-26.3,7.1-24.4C183.1,192.1,176.5,188.5,174.7,197.1z"/>
<path class="st13" d="M168.5,207.4c0,0-1,0.9-1.7,1.7c15.9,2.6,9.1,25.2,16.1,6.3l1.4-6.1l-1.2-2.1L168.5,207.4z"/>
<path class="st14" d="M168.5,207.4c-0.5-0.5-1-1.1-1.5-1.7c0.4-1.4,1.1-2.8,1.5-4.2l0.5,0.2c6.5,3.5,14.3,4.6,21.5,3.2
	c0,0-3.3,3.9-4.6,4.6c-2.5,1.5-5.4,2.2-8.3,2.1C174,211.3,170.9,209.8,168.5,207.4z"/>
<g>
	<defs>
		<path id="SVGID_8_" d="M126.9,218.2c0,0,3.8-16.9,17.2-29.2l-20.4-4.4l-22.3,17.2l-6.3,8.8l11.6,9.9L126.9,218.2z"/>
	</defs>
	<clipPath id="SVGID_9_">
		<use xlink:href="#SVGID_8_"  style="overflow:visible;"/>
	</clipPath>
	<path class="st15" d="M99.6,211c0,0,0.6,1.1,2.8,0.3c0,0-1.5,2.6,0.7,2.5c2.2-0.1,18.5-6.5,20.6-2.6c2.1,4,3.4,4.1,4.5,3.6
		c0,0,2.4-7.1,4.1-8.4s-7.5-2.9-7.5-2.9S104,206.8,99.6,211z"/>
	<g class="st16">
		
			<linearGradient id="SVGID_10_" gradientUnits="userSpaceOnUse" x1="71.5825" y1="235.161" x2="112.5986" y2="235.161" gradientTransform="matrix(1 8.593603e-03 -8.593603e-03 1 40.7581 -33.4924)">
			<stop  offset="0.1718" style="stop-color:#FFD672"/>
			<stop  offset="1" style="stop-color:#EE9A57"/>
		</linearGradient>
		<path class="st17" d="M101.1,211.9c0.1-0.2,0.4-0.4,0.6-0.6c0.3-0.2,0.6-0.4,0.9-0.6l0,0c-0.4,0.2-1,0-1.2-0.4
			c-0.3-0.4-0.2-1,0.1-1.4c0.2-0.4,0.6-0.8,1-1.1c0.4-0.3,0.8-0.7,1.3-1.1l-0.1-0.2c0.4-1.6,1.9-2.6,3.3-3.6
			c7.1-4.6,13.3-8.2,21.4-9.5c1-0.2,1.9-0.7,2.6-1.4c0.5-0.6,0.8-0.8,1.3-2l0.2-0.1c1.7,3.2,6.3,6.8,9.8,7.8
			c-4.8,4.2-9.5,8.5-12.6,14.2c-1.1,1.3-2.9,2.2-4.4,2.7c-0.4,0.1-0.9,0.2-1.2,0c-0.5-0.3-0.5-1-0.3-1.6c0.5-1.6,1.5-3,2.4-4.4
			c0.2-0.3,0.4-0.6,0.5-0.9c-8-0.4-16.1,3.4-24.2,5c-0.5,0.1-1.2,0.1-1.3-0.4C101,212.2,101,212.1,101.1,211.9z"/>
		<path class="st13" d="M132.4,190.1c0,0,6.2,14.7-8.6,24.3c0.6,1.6,5.1-1.6,5.1-1.6s2.3-6.6,6.9-11.5c4.6-4.9,4.6-4.9,4.6-4.9
			S136.1,195.4,132.4,190.1z"/>
		<path class="st13" d="M102.2,211c0,0,10.6-7.6,18.2-8.5C120.4,202.6,110.1,202.7,102.2,211z"/>
		<path class="st13" d="M102.5,207.8c0,0,9.2-6.3,16.8-7.9C119.3,199.9,110,201.1,102.5,207.8z"/>
	</g>
	<path class="st18" d="M150.3,195.9c-2.5,1.6-4.8,3.4-7,5.4c-4.9-1.3-9.3-4.5-11.8-9c-0.1-0.2-0.2-0.3-0.3-0.5c0.3-1,0.7-2,1-3.1
		l0.1,0C138,191.9,144.1,194.3,150.3,195.9z"/>
</g>
<g>
	<g>
		<linearGradient id="SVGID_11_" gradientUnits="userSpaceOnUse" x1="119.901" y1="52.2072" x2="196.1641" y2="51.6919">
			<stop  offset="0.1718" style="stop-color:#FFD672"/>
			<stop  offset="1" style="stop-color:#F3AD5F"/>
		</linearGradient>
		<path class="st19" d="M183.6,50.3c0,0-6.4,6.1-7,10c-1.8,11.1-9.9,12-9.9,12c-1.1-1.3-2.4-2.5-3.7-3.6c-2.6-2.3-5.6-4.3-8.8-5.9h0
			c0,0.1-0.1,0.2-0.1,0.2c-0.5,1.2-1.2,2.2-2,3.2c-3.6,4.1-9.8,5.5-14.8,3.4c-3.3-1.4-6.1-4.1-9.6-4.3c-1.3-0.1-2.6,0.2-3.7-0.5
			c-1.2-0.7-1.6-2.2-2.2-3.4c-0.3-0.5-0.5-1-0.9-1.4l-0.5-0.7c-0.1-0.1-0.2-0.2-0.2-0.3l2.1-3c2.6,1.7,5.4,2,6.4,0.5
			c1-1.4-0.3-4-2.8-5.8l9.3-13.7l0.5-3.7c-0.1,0.4,4.4-2.2,4.5-1.8l4.9,1c1.8-0.1,0.9,0.3,2.1,1.7l-0.4,3.1c0.4,0.6,0.8,1.1,1.4,1.5
			c2.9,1.9,6.2,3.5,9.8,3.5c1.2,0,2.5-0.2,3.2-1.1C167.4,45.9,176,49.1,183.6,50.3z"/>
		<linearGradient id="SVGID_12_" gradientUnits="userSpaceOnUse" x1="119.8686" y1="45.9139" x2="194.9791" y2="45.4064">
			<stop  offset="0.1718" style="stop-color:#FFD672"/>
			<stop  offset="1" style="stop-color:#F3AD5F"/>
		</linearGradient>
		<path class="st20" d="M135.2,37.2l-9.3,13.7c0,0,0,0,0,0c-2.6-1.8-5.5-2-6.5-0.5c-1,1.5,0.3,4.1,2.9,5.8c0,0,0,0,0,0l-2,3
			c-2.4-2.6-5.8-4.5-7.1-7.8l-0.1-0.1c0.2-0.2,0.5-0.5,0.7-0.7c3.3-3.6,5.7-8,7.1-12.8l0,0c2.5-1.1,5-2.9,7.1-5.2l0.1,0.1
			C129.5,35.2,132.2,36.9,135.2,37.2z"/>
	</g>
	<path class="st4" d="M135.8,62c0.1-0.5,0.3-1.2,0.8-1.3c0.4-0.1,0.8,0.3,1,0.6c0.4,0.7,0.4,1.7,0.1,2.5c-0.3,0.8-0.9,1.4-1.7,1.8
		c-0.5,0.3-1.2,0.5-1.7,0.3c-1.2-0.5-0.6-1.1,0-1.6C135,63.7,135.5,62.9,135.8,62z"/>
	<path class="st13" d="M130.9,55.5c0.5-2.6-3.7-5.2-4.9-4.9c0.6,0.8,1.5,1.3,1.9,2.3c0.4,1,1.3,1.9,1,3c-0.2,0.9-2.2,1.9-0.7,1.8
		C129.4,57.6,130.5,57.2,130.9,55.5z"/>
	<path class="st21" d="M122.8,55.5C122.8,55.5,122.7,55.5,122.8,55.5c-2.6-1.8-3.9-4.4-2.9-5.9c1-1.5,3.9-1.2,6.5,0.5c0,0,0,0,0,0
		c2.6,1.8,3.8,4.3,2.8,5.8C128.2,57.5,125.3,57.3,122.8,55.5z"/>
	<path class="st4" d="M125.9,50.9c2.6,1.8,3.8,4.3,2.8,5.8c-1,1.4-3.9,1.2-6.4-0.5c0,0,0,0,0,0c-2.6-1.8-3.9-4.4-2.9-5.8
		C120.3,48.8,123.2,49.1,125.9,50.9C125.8,50.9,125.9,50.9,125.9,50.9z"/>
	<path class="st13" d="M120.7,42c0.3-0.9,0.4-1.9,1-2.7c0.6-0.8,1.6-1.3,2.5-1.8c1.2-0.7,2.3-1.5,3.4-2.4c0.7-0.6,1.3-1.3,1.5-2.1
		c0.2-0.9-0.2-1.9-1-2.1c-0.5-0.1-1.1,0-1.5,0.3c-0.4,0.3-0.8,0.7-1.2,1.1c-1.8,1.9-4.2,3.2-6.7,3.9c0,3.3-1.1,6.5-3.2,9.1
		c-0.6,0.7-1.2,1.4-1.7,2.2c-0.5,0.7-1.5,2.9,0.2,2.3c1.1-0.4,2.1-1.1,3-1.9C118.7,46.4,120.1,44.3,120.7,42z"/>
	<path class="st13" d="M127.7,63.3c0.2-0.1,0.4-0.3,0.6-0.4c0.2-0.1,0.5-0.1,0.7,0c0.2,0.2,0.2,0.4,0.2,0.7
		c-0.1,0.5-0.5,1.3-0.8,1.7c-0.6,0.2-3.6,0-4.4-0.5c0.2-0.4,1.5-0.4,2-0.6C126.6,64.1,127.2,63.7,127.7,63.3z"/>
	<path class="st13" d="M168.2,72c-0.5,0.2-0.8,0.1-1.5,0.4c-3.1-3.7-9-8-12.4-9.5c0-0.4,2.2-4.9,0.1-11c4.6,9.5,14,12,21.5,11.6
		C174.2,69.3,168.8,71.7,168.2,72z"/>
	<path class="st13" d="M134.2,41.5c1-1.3,2-2.8,1.8-4.4c-3.2,3.7-6,7.7-8.5,12c-0.3,0.6-0.2,1.8,0.5,0.9c0.6-0.7,1.1-1.8,1.7-2.6
		C131.3,45.5,132.7,43.5,134.2,41.5z"/>
	<path class="st22" d="M122.3,56.2C122.3,56.2,122.2,56.2,122.3,56.2c-2.6-1.8-3.9-4.4-2.9-5.9c1-1.5,3.9-1.2,6.5,0.5c0,0,0,0,0,0
		c2.6,1.8,3.8,4.3,2.8,5.8C127.7,58.1,124.9,57.9,122.3,56.2z"/>
	<g>
		<path class="st13" d="M123.5,57.3c-0.2,0.2-0.3,0.4-0.5,0.5c-0.7,0.8-1.2,1.8-1.9,2.4c0,0-0.1,0-0.1,0.1l-0.5-0.7
			c0-0.1,0.1-0.3,0.2-0.4c0.6-0.9,1.2-1.7,1.8-2.5C122.8,56.9,123.2,57.1,123.5,57.3z"/>
		<g>
			<path class="st21" d="M120,59.3C120,59.3,120,59.3,120,59.3c2.5,2,3.6,4.6,2.5,6c-1.1,1.4-4,1-6.4-1c-2.5-1.9-3.6-4.6-2.5-6
				C114.6,56.9,117.5,57.3,120,59.3z"/>
			<path class="st4" d="M119.8,60.1c2.4,1.9,3.5,4.6,2.4,6c-1.1,1.4-4,1-6.4-1c-2.5-1.9-3.6-4.6-2.5-6
				C114.4,57.7,117.3,58.1,119.8,60.1C119.8,60,119.8,60,119.8,60.1z"/>
			<path class="st23" d="M119.8,60C119.8,60,119.8,60,119.8,60c2.5,2,3.6,4.6,2.5,6c-1.1,1.4-4,1-6.4-1c-2.5-1.9-3.6-4.6-2.5-6
				C114.4,57.7,117.3,58.1,119.8,60z"/>
		</g>
		<polyline class="st22" points="119.8,60.1 120.4,59.3 122.6,56.5 		"/>
	</g>
	<polyline class="st22" points="125.9,50.9 135.2,37.2 136.4,35.4 	"/>
	<radialGradient id="SVGID_13_" cx="122.0273" cy="35.8081" r="0" gradientUnits="userSpaceOnUse">
		<stop  offset="0.1464" style="stop-color:#1B375F"/>
		<stop  offset="1" style="stop-color:#24497E"/>
	</radialGradient>
	<path class="st24" d="M122,35.8"/>
	<path class="st21" d="M129.6,12c2.3,0.4,4.1,1.5,5.1,3.1c0.3,0.5,0.5,1,0.6,1.6c0.3,1.5-0.1,3.1-1.1,4.3c-0.3,3.7-2.5,8.1-5.9,11.9
		c-2.2,2.4-4.7,4.2-7.1,5.2c-1.4,4.8-3.9,9.2-7.1,12.8c-0.2,0.2-0.5,0.5-0.7,0.7C109,56.2,102,59,96.2,55.3c-3.2-2-5.2-5.8-4.6-9.5
		c0.5-3.3,2.8-6,3.7-9.2c1-3.2,0.5-6.8,1.9-9.9c0.8-1.8,2.1-3.4,3.8-4.6c1.2-0.8,2.4-1.5,3.5-2.5c1.1-1,1.7-2.3,2.6-3.5
		c5-6.5,15.2-7.4,22.3-4.2C129.4,11.9,129.5,12,129.6,12z"/>
	<path class="st21" d="M162.2,39.6c-0.1-0.9-0.6-1.7-1.1-2.3c-0.5-0.6-1-1.2-1.6-1.7c-1.1-1.1-2.3-1.9-3.5-2.8
		c-2.3-1.8-4.3-3.9-6.4-6c-2-2.2-4.1-4.3-6.4-6.2c-2.3-1.9-5-3.5-8-4.3c-0.3-0.1-0.6,0.1-0.7,0.4c-0.1,0.2,0,0.4,0.1,0.5
		c0.2,1.3-0.2,2.7-1.1,3.7c-0.2,3.7-3.7,10.1-5.9,12.6c1.6,2.6,4.1,4,7.2,4.3c0.4,0.1,0.8,0.1,1.2,0.1c0,0,0,0,0.1,0
		c0.3,0.4,0.6,0.7,1,1c0.1,0.1,0.3,0,0.4-0.1c0.1-0.1,0.1-0.3,0-0.4l0,0c-1-0.8-1.2-2.4-0.6-3.5c0.6-1.1,1.9-1.7,3.2-1.7
		c1.3,0,2.6,0.6,3.6,1.4c1.1,0.8,1.6,2.1,2.5,3.4c0.2,0.3,0.5,0.7,0.8,1c0.3,0.3,0.7,0.6,1,0.8c0.6,0.4,1.3,0.8,1.9,1.2
		c1.3,0.7,2.7,1.4,4.2,1.8c1.5,0.4,3,0.6,4.6,0.5c0.8-0.1,1.7-0.3,2.4-0.9C162,41.5,162.3,40.5,162.2,39.6z"/>
</g>
<linearGradient id="SVGID_14_" gradientUnits="userSpaceOnUse" x1="134.8936" y1="102.368" x2="246.3877" y2="157.1371">
	<stop  offset="0.3413" style="stop-color:#4891FB"/>
	<stop  offset="0.8012" style="stop-color:#227BFB"/>
</linearGradient>
<path class="st25" d="M179.6,120.1c-4.5,18-25.3,58.8-27.1,62.2c-0.1,0-5.1,3.8-8.7,7c-2,1.8-3.6,3.8-3.6,3.8c-1-0.3-1,2.7-1.9,2.3
	c-4.6-2-6.6-4.9-6.6-4.9c11.4-34.6,23.7-86.6,31-122.2c1.4,1.2,2.6,2.4,3.8,3.8c0,0,8.4-1,10.3-12.5c0.7-4.1,3.1-7.8,6.3-10.4
	c1.3-1.1,2.8-2,4.3-2.7c10.6-4.7,23.5-0.2,32,7.7c8.5,8,13.5,18.8,18.4,29.4c9.1,19.5,18.7,38.9,29.2,57.8c1.2,2.1,1.4,3.5,1,4.7
	c-0.5,1.6-1.8,2.9-3.7,5.1c-3.3,4.1-6.9,7.9-10.7,11.5c-7.4,7.1-15.7,13.3-24.6,18.5c-1.9,1.1-7,4.1-9.1,5
	c-10.4-13.3-13.1-19.4-15.2-23.5c-0.1,3.6-7.6,27.8-10.4,34.6c-1,2.6-3.9,7.3-3.9,7.3c-12,5.2-22.2-3.4-22.2-3.4
	c2.7-9.1,5-18.4,6.8-27.8c1.2-6.2,2.2-12.5,3.1-18.8c1.1-8.2,1.8-16.5,2.2-24.9C180.4,127.8,180.3,121.6,179.6,120.1z"/>
<g>
	<g class="st26">
		<defs>
			<path id="SVGID_15_" class="st26" d="M179.7,119.9c-4.4,17.9-25.1,58.7-27,62.1c-0.1,0.1-0.2,0.1-0.3,0.2
				c-6.2-1.6-12.2-4-17.8-7.1l-0.1,0c11.3-34.5,21.1-71.3,28.4-106.8c1.3,1.2,2.6,2.4,3.8,3.8c0,0,8.3-1,10.2-12.5
				c0.7-4.1,3.1-7.8,6.3-10.4c1.3-1.1,2.8-2,4.3-2.7c10.6-4.7,23.4-0.2,31.8,7.7c8.4,8,13.4,18.8,18.3,29.3
				c9.1,19.5,18.6,38.9,29,57.7c1.1,2.1,1.4,3.5,1,4.7c-0.5,1.6-1.8,2.9-3.6,5.1c-3.3,4-6.9,7.9-10.6,11.5
				c-7.4,7.1-15.6,13.3-24.4,18.4c-1.9,1.1-4,2.2-6,3.1c-0.9,0.4-1.9,0.7-2.8,1.1l-0.5,0.6c-5.1-4-10.8-7.2-16.8-9.4l-1.1-0.3
				c-2.1,7.3-4.5,14.4-7.2,21.1c-1,2.6-2.1,5.2-3.7,7.4l-0.2-0.2c-7.2,1.5-14.9,0.3-21.4-3.2l-0.7-0.2c2.7-9.1,5-18.4,6.8-27.7
				c1.2-6.2,2.2-12.5,3-18.8c1.1-8.2,1.8-16.5,2.2-24.8C180.5,127.7,180.4,121.5,179.7,119.9z"/>
		</defs>
		<clipPath id="SVGID_16_">
			<use xlink:href="#SVGID_15_"  style="overflow:visible;"/>
		</clipPath>
		<path class="st27" d="M220.1,184.9c-1.2-24,0.8-48.2,5.9-71.7c1.4-6.2,3-12.5,7.1-17.3c4.1-4.8,11.2-7.6,16.8-4.9"/>
		<path class="st27" d="M238.5,175.1c-0.5-15.5,1.2-31,5.1-46c1.1-4.4,2.5-8.9,5-12.6c2.6-3.8,6.5-6.8,11-7.3"/>
		<path class="st27" d="M156.4,98.1c6.7,17.1,8,36.2,3.6,54c-1.4,5.9-3.9,12.1-9.1,15c-5.9,3.3-13.2,1.4-19.6-0.6"/>
		<path class="st27" d="M143.4,148.5c3,0.3,5.9-1.7,7.4-4.2c1.6-2.6,2-5.7,2-8.7c0-7-2.2-13.9-6.2-19.6c-0.3,0.4-0.5,0.8-0.8,1.3"/>
		<path class="st27" d="M217.4,45.9c-6.5,9.5-6,23.3,1.3,32.2c7.2,8.9,20.5,12.3,31.1,7.9"/>
		<path class="st27" d="M173.6,56.5c23.3,10.7,42.6,30,53.4,53.4"/>
		<path class="st27" d="M227.2,59.8c-3.1,2.3-4.1,7-2.1,10.3c2,3.3,6.6,4.6,10.1,2.9"/>
		<path class="st27" d="M257.2,126.4c0.2-0.6,0.4-1.2,0.7-1.7c-5.5,12.7-4.7,28,2.1,40c0.3,0.6,0.8,1.3,1.5,1.3
			c0.7,0,1.1-1.1,0.5-1.3"/>
		<path class="st27" d="M178.1,153c5.6,12.3,5.5,27.1-0.1,39.4c-1.9,4.2-5,8.5-9.6,9"/>
		<path class="st27" d="M179.9,144.8c13.1,17.2,15.7,41.9,6.5,61.5"/>
	</g>
</g>
<path class="st0" d="M324.1,402C324.1,402,324.1,401.9,324.1,402C324.1,401.9,324.1,401.9,324.1,402c0-0.8,22.2-3.8,21.5-3.8
	c-43.4-2.1-56-5.2-73.1-11.4c-12-4.4-23.6-10.3-33.4-18.5c-9.8-8.2-17.8-18.9-21.8-31c-1.3-4-2.1-8.1-2.3-12.3
	c-0.1-3.5,1.6-7.7,0.9-11c-9.4,2.3-16.8,17.8-18.6,26.4c-0.4,2-0.7,4-0.8,6c0.9,5.4,2.3,10.6,4.4,15.7c3.6,8.5,9.3,14.8,16.7,20.3
	c4.7,3.5,9.5,6.7,14.6,9.5c7,1,13.3,6.3,20.9,6.4c1.2,0,2.2,0.4,3,1c22.4,4.3,41.6,5,64.3,3.1C320.4,402.1,324.1,402.3,324.1,402z"
	/>
<path class="st0" d="M201,361.5c-0.6-1.6-1.1-3.3-1.4-5.1c-1.3-2.2,0-5.8-1.4-7.7c-1.8-2.7-152.3,35.2-172.8-37.2
	c-8,11.5-25.4,62.9,60,70.8c13.5,1.7,27.4,1.5,41,1.1c5.7-0.1,11.4-0.6,17-1.2c7.2-1.1,14.5-2.4,21.6-3.8
	c12.3-2.9,24.4-6.8,36.2-11.7c0.2-0.4,0.3-0.7,0.5-1.1c0.1-0.5,0.2-0.9,0.3-1.4C201.6,363.2,201.2,362.3,201,361.5z"/>
<path class="st4" d="M296.2,158.7l-8-2.7c0.1,0,0.2,0,0.3,0.1C291.2,156.6,293.8,157.5,296.2,158.7z"/>
<path class="st1" d="M127.5,383.2c25.6-1.7,50.9-7.6,74.6-17.5"/>
<path class="st1" d="M18.8,329.7c-1,7.2-0.3,14.6,2.7,21.3c4,8.8,11.5,15.6,20,20.1c8.5,4.5,17.9,6.9,27.4,8.7
	c19.3,3.6,39,4.7,58.5,3.4"/>
<path class="st0" d="M41.6,293c0,0-20.9,11.7-19.1,0c0,0-1.4,10.9,3.6,17.2C26.1,310.2,33.9,297.8,41.6,293z"/>
<path class="st1" d="M25.4,311.5c-3.3,5.6-5.6,11.9-6.5,18.3"/>
<path class="st1" d="M26.1,310.2c-0.3,0.4-0.5,0.8-0.8,1.2"/>
<path class="st1" d="M55.1,283.4c-11.3,7-22,15.6-29,26.8"/>
<path class="st1" d="M221.1,308.4c-11.1,5.8-19.5,16.7-22.2,28.9c-2.4,11-0.9,20.3,3.3,28.2c10.8,20.6,39.4,31.4,62.1,35.2
	c53.7,12,185.9-13.6,169.8-83.8c-0.4-1.2-0.8-2.4-1.3-3.6c-0.1-0.3-0.2-0.6-0.4-0.9c-0.6-1.4-1.2-2.7-2-3.9c-1-1.7-2.1-3.4-3.3-4.9
	c-7.7-9.9-19.6-16.2-32.2-17.2"/>
<g>
	<path class="st1" d="M351.1,211.2C351.1,211.2,351.1,211.2,351.1,211.2c12.2-0.3,24.5,4,33.5,12.2c5.9,5.3,10.3,12.2,12.9,19.7
		c2.7,7.7,3.5,16.1,2,24.2"/>
	<path class="st1" d="M397.5,243.1c0.7,0.2,1.4,0.4,2.1,0.6c0.9,0.3,1.9,0.6,2.8,0.9c10.4,3.9,19.3,11.9,24.2,21.9
		c5.6,11.5,5.8,25.4,0.7,37.1"/>
	<path class="st1" d="M354.4,257.9"/>
	<path class="st1" d="M344,195.6C344,195.6,344,195.7,344,195.6c2.9,4.9,5.3,10.2,7.1,15.6"/>
	<path class="st1" d="M351.1,211.2c5.1,14.9,6.2,31.2,3.3,46.7"/>
	<path class="st1" d="M274,156.1c3-0.1,5.9,0,8.9,0.2c7.2,0.6,14.2,2.4,20.9,5"/>
</g>
<path class="st1" d="M152.5,182.3c6.7-4.4,14.3-7.4,22.2-8.6"/>
<path class="st1" d="M126,223.5c0.6-4.8,1.9-9.4,3.7-13.8c3.4-8.3,8.8-15.8,15.5-21.7c2.2-2,4.5-3.8,7-5.4"/>
<path class="st1" d="M359,337.2c-11.2-20-27.9-29.2-37.5-33.8c-0.8-0.4-1.5-0.7-2.3-1.1c-4.1-1.9-8.4-3.5-12.7-4.8"/>
<path class="st11" d="M176.1,62.9c-2.2,7.1-7.7,9-9.6,9.2c-1-1-2.4-2.7-3.8-3.8c-0.1,0.7,0.8,0.7,5,6.7c15.2,38.5-8.6,91.7-15,106.3
	c-0.2,0.4-0.4,0.6-0.4,0.6l0.6-0.4c2.5-5.4,5.2-10.1,7.3-14.6c10.3-21.5,15.8-34,19.5-47C182.7,105.9,181.5,91.2,176.1,62.9z"/>
<path class="st11" d="M209.3,136.8c0,0.2,0,0.3-0.1,0.5C209.3,137.2,209.3,137.1,209.3,136.8C209.3,136.9,209.3,136.8,209.3,136.8z"
	/>
<polygon class="st28" points="359.4,302.2 347.2,309.3 347.2,295.2 "/>
<path class="st11" d="M253.1,229.2c1.1,0,2.5,0.3,3.8,1.6c0.2,0.2,0.9-0.2,0.8-0.5l-2.4-5.1l-2.6,2.9
	C252.3,228.5,252.5,229.2,253.1,229.2z"/>
<path class="st3" d="M124.8,474.7c1.4,1.9,0.6,6.9-1.6,7.7l-56.6,19.1c-2,0.7-4,0-5.3-1.8l-50.7-69.9c-1.5-1.9-1.3-5.4,0.6-6.5
	c-0.7,1-0.8,2.6,0,3.7l50.4,70c1.3,1.7,3.3,2.5,5.3,1.8l56.1-19C124.8,479.2,125.7,476.7,124.8,474.7z"/>
<path class="st4" d="M124.8,474.7c0.9,1.9,0,4.5-2,5.1l-56.1,19c-1.9,0.7-4-0.1-5.3-1.8l-50.4-70c-0.8-1.1-0.7-2.7,0-3.7
	c0.3-0.5,0.8-0.8,1.3-1l55.1-18.2c3.2-1.1,6.7,0.1,8.8,3l48.1,66.9C124.6,474.4,124.7,474.5,124.8,474.7z M115,474.2
	c1-0.3,1.3-1.7,0.7-2.5l-42.5-59c-0.9-1.2-2.4-1.7-3.8-1.3l-48,16.2c-1.1,0.4-1.6,1.9-0.8,2.9l42.3,58.7c0.9,1.2,2.4,1.7,3.8,1.3
	L115,474.2z"/>
<linearGradient id="SVGID_17_" gradientUnits="userSpaceOnUse" x1="67.1131" y1="403.8431" x2="69.3232" y2="504.9536">
	<stop  offset="0.3362" style="stop-color:#9FEFCF"/>
	<stop  offset="0.7489" style="stop-color:#59E3AD"/>
</linearGradient>
<path class="st29" d="M115.7,471.7c0.6,0.8,0.2,2.2-0.7,2.5l-48.3,16.3c-1.4,0.5-2.9,0-3.8-1.3l-42.3-58.7c-0.7-1-0.3-2.6,0.8-2.9
	l48-16.2c1.4-0.5,2.9,0,3.8,1.3L115.7,471.7z"/>
<line class="st1" x1="27.2" y1="422.2" x2="62.2" y2="410.2"/>
<polyline class="st1" points="321.6,285.8 379.7,285.8 379.7,291 379.7,321.1 347,321.1 "/>
<path class="st30" d="M20.9,321.1"/>
<path class="st30" d="M193.4,366.6"/>
<path class="st28" d="M321.6,303.4c-1.1-0.5-2.3-1.1-2.3-1.1l-0.4-15.8c0-0.4,0.3-0.7,0.7-0.7h1.9V303.4z"/>
<path class="st0" d="M310.1,298.6c4.7,2,28.3,6.4,48.6,37.9C353.3,322.7,348.6,302.7,310.1,298.6z"/>
<path class="st1" d="M209,291c-16.7-8.8-34.8-14.5-53.5-17.2c-11-1.6-22.1-2.1-33.1-1.5c-1.1,0.1-2.2,0.1-3.3,0.2
	c-11.9,0.9-23.7,3-35.1,6.4"/>
<polygon class="st1" points="367.5,193.8 315.8,193.8 301,142.1 352.6,142.1 "/>
<polygon class="st28" points="345.6,165.3 331,176 326.6,157.2 "/>
<polygon class="st28" points="344,195.7 313.7,195.7 298.9,144 301,142.1 315.8,193.8 367.5,193.8 365.3,195.7 "/>
<line class="st31" x1="71.3" y1="383.8" x2="71.3" y2="449.3"/>
<path class="st31" d="M366.9,322.4c0,2.3,0,27,0,29.3v81.1"/>
<path class="st31" d="M222.9,262.8c9.2,19.4,25.4,14.6,46.2,12.3c16.2-1.8,31.5-8.7,47.7-10.6c16.2-1.9,35.2,3,42.2,17.7"/>
<path class="st3" d="M191.1,493.9l-11.7-70.5c-0.3-1.9,2.1-4.1,3.8-5c-1.6,0.9-2.5,2.7-2.2,4.6l11.7,69.1c0.4,2.4,2.7,4.1,5.1,3.7
	l32.1-5.4c1.3-0.2,2.3-1,3-2c-0.7,1.5-1.7,3.2-2.9,3.4l-33.8,5.7C193.8,498,191.5,496.4,191.1,493.9z"/>
<path class="st4" d="M216.8,412.5c2.4-0.4,4.7,1.2,5.1,3.7l11.7,69.1c0.1,0.5,0.1,1,0,1.5c-0.1,0.4-0.4,1.1-0.7,1.7
	c-0.7,1-1.7,1.8-3,2l-32.1,5.4c-2.4,0.4-4.7-1.2-5.1-3.7L181,423c-0.3-1.9,0.6-3.7,2.2-4.6c0.1-0.1,0.2-0.1,0.3-0.2
	c0.4-0.2,0.8-0.3,1.2-0.4L216.8,412.5z"/>
<linearGradient id="SVGID_18_" gradientUnits="userSpaceOnUse" x1="207.138" y1="394.6883" x2="207.6905" y2="502.9815">
	<stop  offset="0.3555" style="stop-color:#9FEFCF"/>
	<stop  offset="0.7849" style="stop-color:#59E3AD"/>
</linearGradient>
<path class="st32" d="M228.9,479.5c0.4,2.2-1.1,4.3-3.3,4.7l-25.7,4.3c-2.2,0.4-4.3-1.1-4.7-3.3l-9.3-55c-0.4-2.2,1.1-4.3,3.3-4.7
	l25.7-4.3c2.2-0.4,4.3,1.1,4.7,3.3L228.9,479.5z"/>
<path class="st3" d="M211.8,415.7c0.2,0.5-0.1,1-0.6,1.2c-0.5,0.2-1-0.1-1.2-0.6c-0.2-0.5,0.1-1,0.6-1.2
	C211,414.9,211.6,415.2,211.8,415.7z"/>
<line class="st1" x1="186.8" y1="423.1" x2="214.8" y2="418.4"/>
<line class="st31" x1="204.9" y1="372.4" x2="204.9" y2="443.2"/>
<path class="st33" d="M222.3,188.4c19-8.4,35.6-22,47.7-38.8"/>
<path class="st33" d="M288.8,320c-11-20.5-27.1-50-41.1-68.6c-5.6-7.5-11.8-15.4-12.6-24.7c-0.8-8.8,3.4-17.5,9-24.4
	c5.6-6.9,12.6-12.5,18.7-19c5.8-6.1,11-13.1,12.7-21.3"/>
<path class="st34" d="M216.2,213c-3.9,13-1.5,27.6,6.6,38.5"/>
<g>
	<path class="st35" d="M179.4,64.6c2.5,24.3,3.6,48.7,3.2,73.1"/>
	<path class="st35" d="M187,49.4c4.9-2.9,11.1-3.1,16.5-1.3c5.4,1.8,10,5.4,13.9,9.6c3.8,4.2,6.9,9,9.9,13.8"/>
	<path class="st35" d="M144.1,151.1c7.5-25,13.4-47.2,17.8-71.2"/>
	<path class="st35" d="M182.5,70.8c0.5,8.1,1.1,16.2,1.6,24.3"/>
	<path class="st35" d="M148.3,148.7c1-3.7,2-7.4,3-11.1"/>
</g>
<line class="st36" x1="125.8" y1="243.2" x2="146.8" y2="233.8"/>
<line class="st36" x1="192.1" y1="213" x2="192.5" y2="254.2"/>
<rect x="68.9" y="158.5" class="st37" width="30.2" height="30.2"/>
<radialGradient id="SVGID_19_" cx="402.7148" cy="207.758" r="33.3138" gradientUnits="userSpaceOnUse">
	<stop  offset="0" style="stop-color:#F6F8FA"/>
	<stop  offset="6.995250e-02" style="stop-color:#F3F5F8"/>
	<stop  offset="0.4968" style="stop-color:#E2E7EE"/>
	<stop  offset="0.8197" style="stop-color:#DCE2EA"/>
</radialGradient>
<rect x="384.6" y="182.7" class="st38" width="25.8" height="25.8"/>
<radialGradient id="SVGID_20_" cx="54.5937" cy="201.0353" r="25.7888" gradientUnits="userSpaceOnUse">
	<stop  offset="0" style="stop-color:#F6F8FA"/>
	<stop  offset="6.995250e-02" style="stop-color:#F3F5F8"/>
	<stop  offset="0.4968" style="stop-color:#E2E7EE"/>
	<stop  offset="0.8197" style="stop-color:#DCE2EA"/>
</radialGradient>
<rect x="55.6" y="182" class="st39" width="17.3" height="17.3"/>
<rect x="408.8" y="206.9" class="st37" width="8.6" height="8.6"/>
<path class="st40" d="M226.5,53.1c11.1,13.9,20,29.6,26.3,46.2"/>
<path class="st40" d="M227,48.6c-0.2-0.2-0.3-0.3-0.5-0.5c2.4,2.8,4.8,5.6,7.2,8.5"/>
<path class="st13" d="M166.1,239.5c3-1.5,6.6-12.6,6.6-12.6S168.9,236.1,166.1,239.5z"/>
<linearGradient id="SVGID_21_" gradientUnits="userSpaceOnUse" x1="183.4456" y1="212.8147" x2="183.4456" y2="212.8147">
	<stop  offset="0.1718" style="stop-color:#FFD672"/>
	<stop  offset="1" style="stop-color:#EE9A57"/>
</linearGradient>
<path class="st41" d="M183.4,212.8"/>
<line class="st40" x1="185.1" y1="253.9" x2="185.1" y2="273.9"/>
<line class="st40" x1="187.5" y1="250.9" x2="187.5" y2="259.6"/>
<path class="st1" d="M26.3,309.5c-2.8-5-4.3-10.8-4.3-17c0-19.5,15.8-35.3,35.3-35.3c4.9,0,9.5,1,13.7,2.8"/>
<path class="st11" d="M209.4,136.5c0.8-6.1,1.6-12.6,2.3-19.6c-1.1,0.2-10.5,42.9-13.2,51.8c-3.7,12.6-7.7,25.3-15.2,36
	c-0.6,0.8-5.3,6.7-2.1,6.4c3.2-0.3,7.3-3.4,8.6-5c1-1.3,8.4-12.7,14.9-43c3.7,6.4,15.2,23.3,15.2,23.3c16.5-4.8,34.4-24.1,41.2-31.9
	C245.1,168.9,206.4,165.7,209.4,136.5z"/>
<path class="st11" d="M263.9,151.2c-0.8,1.3-1.7,2.3-2.7,3.2C262.7,152.7,263.6,151.5,263.9,151.2z"/>
</svg>
