<?xml version="1.0" encoding="utf-8"?>
<!-- Generator: Adobe Illustrator 23.0.1, SVG Export Plug-In . SVG Version: 6.00 Build 0)  -->
<svg version="1.1" id="Layer_1" xmlns="http://www.w3.org/2000/svg" xmlns:xlink="http://www.w3.org/1999/xlink" x="0px" y="0px"
	 viewBox="0 0 156 162" style="enable-background:new 0 0 156 162;" xml:space="preserve">
<style type="text/css">
	.st0{fill:#43AA82;}
	.st1{fill:url(#SVGID_1_);}
	.st2{fill:none;stroke:#F2F2F2;stroke-width:0.25;stroke-linecap:round;stroke-linejoin:round;stroke-miterlimit:10;}
	.st3{fill:#FFFFFF;}
	.st4{fill:url(#SVGID_2_);}
	.st5{fill:url(#SVGID_3_);}
	.st6{fill:#F6F8FA;}
	.st7{fill:url(#SVGID_4_);}
	.st8{fill:url(#SVGID_5_);}
	.st9{fill:url(#SVGID_6_);}
	.st10{fill:url(#SVGID_7_);}
	.st11{fill:url(#SVGID_8_);}
	.st12{fill:url(#SVGID_9_);}
	.st13{fill:none;stroke:#FFFFFF;stroke-width:0.25;stroke-linecap:round;stroke-linejoin:round;stroke-miterlimit:10;}
	.st14{fill:none;stroke:#24497E;stroke-width:1.1426;stroke-linecap:round;stroke-linejoin:round;stroke-miterlimit:10;}
	.st15{fill:url(#SVGID_10_);}
	.st16{fill:url(#SVGID_11_);}
</style>
<g>
	<path class="st0" d="M90.9,4c-7.8-4-17.4-1-21.5,6.8c-4,7.8-1,17.4,6.8,21.5c7.8,4,17.4,1,21.5-6.8C101.8,17.7,98.7,8.1,90.9,4z"/>
	
		<linearGradient id="SVGID_1_" gradientUnits="userSpaceOnUse" x1="9495.0439" y1="331.4227" x2="9526.8975" y2="331.4227" gradientTransform="matrix(-0.8878 -0.4601 -0.4601 0.8878 8679.9248 4098.7876)">
		<stop  offset="0.137" style="stop-color:#9FEFCF"/>
		<stop  offset="0.7363" style="stop-color:#59E3AD"/>
	</linearGradient>
	<path class="st1" d="M90.9,2.9c-7.8-4-17.4-1-21.5,6.8c-4,7.8-1,17.4,6.8,21.5c7.8,4,17.4,1,21.5-6.8C101.8,16.6,98.7,6.9,90.9,2.9
		z"/>
	<path class="st2" d="M71.2,21c2.2,6.9,9.5,10.6,16.3,8.5S98.2,20,96,13.2c-2.2-6.9-9.5-10.6-16.3-8.5S69,14.2,71.2,21z"/>
	<g>
		<g>
			<path class="st3" d="M83,24.8l0-1.9c-1.1,0-2.2-0.3-2.9-0.8l0.4-1.3c0.7,0.4,1.7,0.8,2.7,0.8c1.3,0,2.2-0.8,2.2-1.9
				c0-1-0.8-1.7-2.2-2.2c-1.9-0.7-3.1-1.6-3.2-3.3c0-1.6,1.1-2.8,2.8-3.1l0-1.9l1.2,0l0,1.8c1.1,0,1.9,0.3,2.5,0.6L86.2,13
				c-0.4-0.2-1.2-0.6-2.4-0.6c-1.5,0-2,0.9-2,1.6c0,1,0.7,1.5,2.4,2.1c2,0.8,3,1.8,3,3.4c0,1.5-1,2.9-3,3.2l0,2L83,24.8z"/>
		</g>
	</g>
</g>
<linearGradient id="SVGID_2_" gradientUnits="userSpaceOnUse" x1="7555.8022" y1="34.7601" x2="7567.9355" y2="52.2859" gradientTransform="matrix(-1 0 0 1 7607.4575 0)">
	<stop  offset="0.137" style="stop-color:#9FEFCF"/>
	<stop  offset="0.7363" style="stop-color:#59E3AD"/>
</linearGradient>
<path class="st4" d="M40.1,37.7c-1.8,6.4-1.6,13.3,0.7,19.6l0.4,0.1c0.9-2.1,2.3-4,4-5.5c2-1.8,4.5-3,7.2-3.6L52.4,48
	c-2.1-0.3-3.4-2.6-3.7-4.7c-0.4-2.1-0.2-4.3-0.9-6.4c-0.7-2-2.9-3.8-4.9-3C41.3,34.5,40.6,36.1,40.1,37.7z"/>
<linearGradient id="SVGID_3_" gradientUnits="userSpaceOnUse" x1="7536.4829" y1="141.9218" x2="7539.0225" y2="133.5771" gradientTransform="matrix(-1 0 0 1 7607.4575 0)">
	<stop  offset="0" style="stop-color:#9FEFCF"/>
	<stop  offset="1" style="stop-color:#59E3AD"/>
</linearGradient>
<path class="st5" d="M76.5,138.5c-2,2.3-5.4,3.2-8.3,2.3l-4.5-0.9l1.1-8.5l8.7-0.2L76.5,138.5z"/>
<path class="st6" d="M104.6,158c1.3-0.4,2.6-0.9,3.9-1.5c3.2-1.7,6.3-4,9.2-6.1c3.9-2.9,13.3-10.6,2.8-10.6
	c-23.9,0-46.3-8.2-69.9-11.4c-10.7-1.4-69.2,10.2-41.7,18.3c26.7,7.8,54.3,13.7,81.6,12.5C95.2,159.1,100.1,159.3,104.6,158z"/>
<linearGradient id="SVGID_4_" gradientUnits="userSpaceOnUse" x1="7487.3721" y1="47.998" x2="7547.6504" y2="148.0476" gradientTransform="matrix(-1 0 0 1 7607.4575 0)">
	<stop  offset="0.137" style="stop-color:#9FEFCF"/>
	<stop  offset="0.7363" style="stop-color:#59E3AD"/>
</linearGradient>
<path class="st7" d="M32.5,99.6c0.9,6.7,3.1,13.1,6.1,19.1c1.9,3.8,4.3,7.4,6.9,10.8l-0.1,0.1c1.2,2.5,0.8,6.4,0.7,9.2
	c-0.1,2.8,0.1,6.8,2,8.7c1.8,1.8,4.5,2.2,7,2.6c2,0.3,4.1,0.5,6.1,0.1c2-0.3,4-2.3,5-4.1c0.8-1.5,0.9-3.3,1.3-5
	c0.4-1.7,0.9-3.3,2.6-3.7c2.8-0.5,5.8,0.3,8.1,2c2.2,1.8,3.6,4.6,3.8,7.4c0.1,2.4-0.6,5.1,0.9,7c0.9,1.1,2.3,1.6,3.6,2
	c4.4,1.2,8.7,1.5,13.2,1.2c3.4-0.3,7.4-0.8,9.1-3.8c1.4-2.3,0.7-5.3,1.2-8c0.1-0.8,0.3-1.6,0.6-2.3c1.3-3.2,4.1-5.8,7.2-7.6
	c2.6-1.5,5.4-2.6,8.1-3.8c1.2-0.5,2.5-1.1,3.7-1.7c3.9-2,8.1-5,9.4-9.2c3.1,0.1,8.6-3.1,11.1-5.1c-0.5,0.3-1,0.4-1.6,0.4
	c-3.5,0-5.9-6-5.9-13.8c0-6,2.9-13.5,7-13.5c2.6,0,4.7,5.9,4.7,5.9c-0.9-5.5-4.1-8.5-7.2-9.9l0-0.1c-1.7-7.3-4.9-14.3-9.3-20.3
	c-2.9-4-6.2-7.6-10-10.7c-4-3.3-8.4-6.1-13.1-8.1l-0.2,0c0,0.1,0,0.2,0,0.3c0.2,2.9-7.4,9.8-10.2,12.6c-2.9,2.9-4.5,7.1-4.2,11.2
	l-0.4,0.1c0.4,2.5,0.9,4.9,0,7.2c-1,2.4-3.6,3.8-6.2,3.9c-2.6,0.1-5.1-1.1-7-2.7c-2-1.7-3.5-3.8-4.8-6L80,66.6
	c-0.6-5.2,0.6-10.6,3.2-15.1c2.6-4.5,6.7-8.1,11.5-10.2c0.2-0.1,2.2-0.3,2.4-0.3l-2-0.2c-6.2-0.2-12.4-0.1-18.5,0.4
	c-13.4,1.1-28.3,10.5-35.9,21.4c-0.4,0.5-0.7,1-1,1.6C33.2,74.6,30.7,87.5,32.5,99.6z M112.7,41.1c-0.4-0.9-1.1-1.7-1.7-2.3l0,0
	c-0.1-0.1-0.2-0.1-0.4-0.2c-1.7-0.7-3.6-0.4-5.3,0c-0.2,0-0.3,0.1-0.5,0.1c0.2,0,0.3,0,0.5,0c0.7,0,1.4,0,2.2,0
	c1.2,0.1,2.3,0.3,3.4,0.8C111.6,39.7,112.3,40.4,112.7,41.1z"/>
<linearGradient id="SVGID_5_" gradientUnits="userSpaceOnUse" x1="7497.1152" y1="36.9529" x2="7501.0093" y2="63.655" gradientTransform="matrix(-1 0 0 1 7607.4575 0)">
	<stop  offset="0.137" style="stop-color:#9FEFCF"/>
	<stop  offset="0.7363" style="stop-color:#59E3AD"/>
</linearGradient>
<path class="st8" d="M99.4,66.8c0,1,0.2,1.9,0.4,2.9l0.4-0.1c-0.3-4.1,1.2-8.3,4.2-11.2c2.3-2.3,5.5-3.8,8.8-4.1
	c1-0.1,1.8-1.1,1.6-2.1c-0.3-2.1-0.1-4.3-0.3-6.5c0-0.1,0-0.2,0-0.3c0-0.7-0.1-1.4-0.3-2.1c-0.5-2-1.4-3.8-3.2-4.7l0,0
	c0.6,0.6,1.3,1.4,1.7,2.3c0,0.1,0.1,0.2,0.1,0.2c0.3,0.7,0.5,1.5,0.4,2.2c0,0.1,0,0.3-0.1,0.4c-0.5,1.7-1.7,3.2-2.9,4.5
	c-2.4,2.7-5.1,5.2-7.2,8.2C100.9,59.6,99.3,63.1,99.4,66.8z"/>
<linearGradient id="SVGID_6_" gradientUnits="userSpaceOnUse" x1="7479.1133" y1="136.848" x2="7496.3491" y2="139.699" gradientTransform="matrix(-1 0 0 1 7607.4575 0)">
	<stop  offset="0.137" style="stop-color:#9FEFCF"/>
	<stop  offset="0.7363" style="stop-color:#59E3AD"/>
</linearGradient>
<path class="st9" d="M110.5,143l0.7,0.1c4,1,8.2,1.1,12.3,0.2c1.1-0.3,2.3-0.7,2.9-1.7c0.3-0.7,0.3-1.5,0.2-2.3
	c-0.3-2.6-0.5-5.1-0.7-7.7c-2.7,1.2-5.5,2.3-8.1,3.8C114.7,137.2,111.8,139.8,110.5,143z"/>
<linearGradient id="SVGID_7_" gradientUnits="userSpaceOnUse" x1="7466.6045" y1="36.3405" x2="7485.8296" y2="47.9113" gradientTransform="matrix(-1 0 0 1 7607.4575 0)">
	<stop  offset="0.137" style="stop-color:#9FEFCF"/>
	<stop  offset="0.7363" style="stop-color:#59E3AD"/>
</linearGradient>
<path class="st10" d="M114.6,43.3l-0.4,0.1c0.2,0.7,0.3,1.4,0.3,2.1l0.2,0c4.7,2.1,9.2,4.8,13.1,8.1l0.2-0.2
	c-0.3-4.6,1.4-9.2,4.5-12.5c3.1-3.3,7.7-5.2,12.2-5.2c2.4,0,5.1,0.8,6.4,2.8l0.2,0c-0.2-0.9-0.5-1.8-1.1-2.5c-1.4-1.6-3.6-2-5.7-2.2
	C133.9,32.8,122.7,36.3,114.6,43.3z"/>
<linearGradient id="SVGID_8_" gradientUnits="userSpaceOnUse" x1="143.8184" y1="55.764" x2="134.8143" y2="35.0225">
	<stop  offset="0.137" style="stop-color:#9FEFCF"/>
	<stop  offset="0.7363" style="stop-color:#59E3AD"/>
</linearGradient>
<path class="st11" d="M128,53.4l-0.2,0.2c3.8,3.1,7.1,6.7,10,10.7l0.5-0.3c4.4-5.8,8.3-11.9,11.5-18.5c0.7-1.5,1.5-3.1,1.7-4.8
	c0.1-0.8,0.1-1.5,0-2.3l-0.2,0c-1.3-2.1-3.9-2.8-6.4-2.8c-4.6-0.1-9.1,1.9-12.2,5.2C129.4,44.2,127.7,48.8,128,53.4z"/>
<path class="st0" d="M135,77.3c-0.5,0-0.8,0.7-0.8,1.6c0,0.9,0.4,1.6,0.8,1.6c0.5,0,0.8-0.7,0.8-1.6C135.8,78,135.5,77.3,135,77.3z"
	/>
<path class="st0" d="M139,75.4c-0.3,0.2-0.1,0.9,0.3,1.7c0.4,0.8,1,1.3,1.3,1.1c0.3-0.2,0.1-0.9-0.3-1.7
	C139.9,75.7,139.3,75.2,139,75.4z"/>
<linearGradient id="SVGID_9_" gradientUnits="userSpaceOnUse" x1="7450.9287" y1="88.7283" x2="7466.1528" y2="115.6638" gradientTransform="matrix(-1 0 0 1 7607.4575 0)">
	<stop  offset="0.137" style="stop-color:#9FEFCF"/>
	<stop  offset="0.7363" style="stop-color:#59E3AD"/>
</linearGradient>
<path class="st12" d="M149.5,88.8c2.6,0,3.9,2,4.6,5.4c0,0.1,0,0.3,0.1,0.4c0.4,2,1,19-4.2,21c0,0,0,0,0,0c-0.5,0.3-1,0.4-1.6,0.4
	c-3.5,0-5.9-6-5.9-13.8C142.5,96.3,145.4,88.8,149.5,88.8z M147.7,105.7c0.4,0,0.8-1.7,0.8-3.8c0-2.1-0.3-3.8-0.8-3.8
	c-0.4,0-0.8,1.7-0.8,3.8C146.9,104,147.3,105.7,147.7,105.7z M151.9,104.8c0.3,0,0.5-1.7,0.5-3.8c0-2.1-0.2-3.8-0.5-3.8
	c-0.3,0-0.5,1.7-0.5,3.8C151.4,103.1,151.6,104.8,151.9,104.8z"/>
<path class="st0" d="M147.7,98c-0.4,0-0.8,1.7-0.8,3.8c0,2.1,0.3,3.8,0.8,3.8c0.4,0,0.8-1.7,0.8-3.8C148.4,99.8,148.1,98,147.7,98z"
	/>
<path class="st13" d="M143.7,83.6c0.6,0.1,1.9,0.4,3.4,1.1c3.1,1.4,8.2,4,8.2,11.5"/>
<path class="st14" d="M114.5,45.8"/>
<path class="st0" d="M90,45.9c0,0-11-2.8-19.9,0l-2.6,1.2c0,0,12.8-1.8,19.5,0.7L90,45.9z"/>
<linearGradient id="SVGID_10_" gradientUnits="userSpaceOnUse" x1="7506.8013" y1="38.4904" x2="7520.5078" y2="83.3493" gradientTransform="matrix(-1 0 0 1 7607.4575 0)">
	<stop  offset="0.137" style="stop-color:#9FEFCF"/>
	<stop  offset="0.7363" style="stop-color:#59E3AD"/>
</linearGradient>
<path class="st15" d="M80,66.6l1.7,5.4c1.3,2.2,2.8,4.3,4.8,6c2,1.7,4.5,2.8,7,2.7c2.6-0.1,5.2-1.5,6.2-3.9c1-2.2,0.4-4.7,0-7.2
	c-0.2-1-0.3-1.9-0.4-2.9c-0.1-3.6,1.4-7.2,3.6-10.1c2.1-3,4.8-5.5,7.2-8.2c1.2-1.3,2.4-2.8,2.9-4.5c0-0.1,0.1-0.3,0.1-0.4
	c0.1-0.7-0.1-1.5-0.4-2.2c0-0.1-0.1-0.2-0.1-0.2c-0.5-0.7-1.1-1.4-1.8-1.8c-1-0.5-2.2-0.7-3.4-0.8c-0.7,0-1.4,0-2.2,0
	c-0.2,0-0.3,0-0.5,0c-3.2,0.6-6.5,1.2-9.6,2.5c-0.2,0.1-0.3,0.1-0.5,0.2c-4.8,2.1-8.9,5.7-11.5,10.2C80.6,56,79.5,61.4,80,66.6z"/>
<path class="st13" d="M149.5,88.8c-4.2,0-7,7.5-7,13.5c0,7.8,2.6,15.1,8.9,13.6"/>
<path class="st13" d="M135.9,87.2c-4.9,8.6-5.3,19.6-1,28.5"/>
<path class="st13" d="M129.8,130.2c0,0-17.8,7.2-18.8,9.7c-0.7,1.6-1.4,8.8-1.9,13.6"/>
<linearGradient id="SVGID_11_" gradientUnits="userSpaceOnUse" x1="7549.4277" y1="55.8308" x2="7567.7466" y2="55.8308" gradientTransform="matrix(-1 0 0 1 7607.4575 0)">
	<stop  offset="0.137" style="stop-color:#9FEFCF"/>
	<stop  offset="0.7363" style="stop-color:#59E3AD"/>
</linearGradient>
<path class="st16" d="M40.5,56.6c-1,2.3-0.8,7.7-0.8,7.7c0.3-0.5,0.7-1.1,1-1.6c2.9-4.2,6.5-7.8,10.5-10.8c2.2-1.6,4.4-2.8,6.7-3.9
	c0,0-4.3-0.8-6.3-0.4c-2.7,0.6-5.2,1.8-7.2,3.6C42.8,52.6,41.4,54.5,40.5,56.6z"/>
<path class="st13" d="M62.1,136.1c0,0,3.2,1.7,12,2"/>
</svg>
