<svg id="Layer_1" data-name="Layer 1" xmlns="http://www.w3.org/2000/svg" xmlns:xlink="http://www.w3.org/1999/xlink" viewBox="0 0 153.83 158.31"><defs><style>.cls-1{fill:#43aa82;}.cls-2{fill:url(#Sfumatura_senza_nome_6);}.cls-14,.cls-15,.cls-3{fill:none;stroke-linecap:round;stroke-linejoin:round;}.cls-3{stroke:#f2f2f2;}.cls-14,.cls-3{stroke-width:0.25px;}.cls-4{fill:#fff;}.cls-5{fill:url(#Sfumatura_senza_nome_6-2);}.cls-6{fill:url(#Sfumatura_senza_nome_10);}.cls-7{fill:#f6f8fa;}.cls-8{fill:url(#Sfumatura_senza_nome_6-3);}.cls-9{fill:url(#Sfumatura_senza_nome_6-4);}.cls-10{fill:url(#Sfumatura_senza_nome_6-5);}.cls-11{fill:url(#Sfumatura_senza_nome_6-6);}.cls-12{fill:url(#Sfumatura_senza_nome_6-7);}.cls-13{fill:url(#Sfumatura_senza_nome_6-8);}.cls-14{stroke:#fff;}.cls-15{stroke:#24497e;stroke-width:1.14px;}.cls-16{fill:url(#Sfumatura_senza_nome_6-9);}.cls-17{fill:url(#Sfumatura_senza_nome_6-10);}</style><linearGradient id="Sfumatura_senza_nome_6" x1="8212.78" y1="18.91" x2="8244.64" y2="18.91" gradientTransform="matrix(-0.89, -0.46, -0.46, 0.89, 7397.75, 3786.27)" gradientUnits="userSpaceOnUse"><stop offset="0.14" stop-color="#9fefcf"/><stop offset="0.74" stop-color="#59e3ad"/></linearGradient><linearGradient id="Sfumatura_senza_nome_6-2" x1="6348.77" y1="34.76" x2="6360.9" y2="52.29" gradientTransform="matrix(-1, 0, 0, 1, 6400.43, 0)" xlink:href="#Sfumatura_senza_nome_6"/><linearGradient id="Sfumatura_senza_nome_10" x1="6329.45" y1="141.92" x2="6331.99" y2="133.58" gradientTransform="matrix(-1, 0, 0, 1, 6400.43, 0)" gradientUnits="userSpaceOnUse"><stop offset="0" stop-color="#9fefcf"/><stop offset="1" stop-color="#59e3ad"/></linearGradient><linearGradient id="Sfumatura_senza_nome_6-3" x1="6280.34" y1="48" x2="6340.62" y2="148.05" gradientTransform="matrix(-1, 0, 0, 1, 6400.43, 0)" xlink:href="#Sfumatura_senza_nome_6"/><linearGradient id="Sfumatura_senza_nome_6-4" x1="6290.08" y1="36.95" x2="6293.98" y2="63.65" gradientTransform="matrix(-1, 0, 0, 1, 6400.43, 0)" xlink:href="#Sfumatura_senza_nome_6"/><linearGradient id="Sfumatura_senza_nome_6-5" x1="6272.08" y1="136.85" x2="6289.32" y2="139.7" gradientTransform="matrix(-1, 0, 0, 1, 6400.43, 0)" xlink:href="#Sfumatura_senza_nome_6"/><linearGradient id="Sfumatura_senza_nome_6-6" x1="6259.57" y1="36.34" x2="6278.8" y2="47.91" gradientTransform="matrix(-1, 0, 0, 1, 6400.43, 0)" xlink:href="#Sfumatura_senza_nome_6"/><linearGradient id="Sfumatura_senza_nome_6-7" x1="143.82" y1="55.76" x2="134.81" y2="35.02" gradientTransform="matrix(1, 0, 0, 1, 0, 0)" xlink:href="#Sfumatura_senza_nome_6"/><linearGradient id="Sfumatura_senza_nome_6-8" x1="6243.9" y1="88.73" x2="6259.12" y2="115.66" gradientTransform="matrix(-1, 0, 0, 1, 6400.43, 0)" xlink:href="#Sfumatura_senza_nome_6"/><linearGradient id="Sfumatura_senza_nome_6-9" x1="6299.77" y1="38.49" x2="6313.48" y2="83.35" gradientTransform="matrix(-1, 0, 0, 1, 6400.43, 0)" xlink:href="#Sfumatura_senza_nome_6"/><linearGradient id="Sfumatura_senza_nome_6-10" x1="6342.4" y1="55.83" x2="6360.71" y2="55.83" gradientTransform="matrix(-1, 0, 0, 1, 6400.43, 0)" xlink:href="#Sfumatura_senza_nome_6"/></defs><title>save</title><path class="cls-1" d="M90.92,4.05A15.92,15.92,0,1,0,97.74,25.5,15.92,15.92,0,0,0,90.92,4.05Z" transform="translate(-1.49 -1.1)"/><path class="cls-2" d="M90.92,2.9a15.92,15.92,0,1,0,6.82,21.45A15.91,15.91,0,0,0,90.92,2.9Z" transform="translate(-1.49 -1.1)"/><path class="cls-3" d="M71.19,21A13,13,0,1,0,79.66,4.68,13,13,0,0,0,71.19,21Z" transform="translate(-1.49 -1.1)"/><path class="cls-4" d="M83,24.81l0-1.91a5.52,5.52,0,0,1-2.91-.81l.45-1.27a5.11,5.11,0,0,0,2.73.79c1.35,0,2.25-.8,2.24-1.88s-.75-1.68-2.16-2.24c-1.94-.74-3.14-1.6-3.15-3.25A3.09,3.09,0,0,1,83,11.17l0-1.92h1.18l0,1.84a5.07,5.07,0,0,1,2.47.64L86.18,13a4.51,4.51,0,0,0-2.39-.63c-1.46,0-2,.89-2,1.65,0,1,.72,1.47,2.37,2.14,2,.78,3,1.75,3,3.44a3.3,3.3,0,0,1-3,3.25l0,2Z" transform="translate(-1.49 -1.1)"/><path class="cls-5" d="M40.11,37.7a31.75,31.75,0,0,0,.74,19.56l.4.08a15.65,15.65,0,0,1,11.19-9l-.06-.3c-2.12-.35-3.37-2.62-3.74-4.74s-.19-4.33-.94-6.35-2.91-3.78-4.92-3C41.27,34.45,40.55,36.14,40.11,37.7Z" transform="translate(-1.49 -1.1)"/><path class="cls-6" d="M76.51,138.53a8.08,8.08,0,0,1-8.27,2.25l-4.46-.93,1.11-8.48,8.71-.22Z" transform="translate(-1.49 -1.1)"/><path class="cls-7" d="M104.62,158a19.07,19.07,0,0,0,3.85-1.5,74.58,74.58,0,0,0,9.18-6.1c3.93-2.88,13.27-10.61,2.76-10.61-23.87,0-46.31-8.18-69.94-11.35C39.77,127-18.74,138.69,8.78,146.73c26.73,7.82,54.31,13.66,81.65,12.55C95.21,159.08,100.1,159.25,104.62,158Z" transform="translate(-1.49 -1.1)"/><path class="cls-8" d="M32.46,99.64a59.85,59.85,0,0,0,6.12,19.08,64.78,64.78,0,0,0,7,10.81l-.11.08c1.17,2.52.79,6.41.67,9.19s.1,6.76,2,8.74c1.78,1.82,4.51,2.23,7,2.55a20.35,20.35,0,0,0,6.08.14c2-.34,4-2.32,5-4.11.83-1.51.85-3.3,1.27-5s.94-3.34,2.64-3.66a10,10,0,0,1,11.8,9.46c.11,2.38-.57,5.08.91,7a6.64,6.64,0,0,0,3.58,2,38.78,38.78,0,0,0,13.22,1.23c3.43-.25,7.39-.82,9.11-3.79,1.35-2.35.73-5.3,1.15-8a11.38,11.38,0,0,1,.64-2.32c1.32-3.22,4.14-5.8,7.18-7.6a72.44,72.44,0,0,1,8.13-3.8c1.24-.54,2.49-1.1,3.69-1.74,3.86-2,8.07-5,9.35-9.21,3.08.14,8.64-3.13,11.08-5.11a3.23,3.23,0,0,1-1.6.45c-3.52,0-5.86-6-5.86-13.76,0-6,2.89-13.47,7-13.47,2.55,0,4.69,5.91,4.69,5.91a12.6,12.6,0,0,0-7.18-9.91l0-.07a55.88,55.88,0,0,0-9.26-20.35,57.86,57.86,0,0,0-10-10.7,55.19,55.19,0,0,0-13.12-8.13h-.21a1.24,1.24,0,0,1,0,.27c.17,2.87-7.36,9.78-10.21,12.62a14.43,14.43,0,0,0-4.16,11.17l-.38.07c.42,2.47.94,4.93,0,7.17a7,7,0,0,1-6.2,3.88,10.82,10.82,0,0,1-7-2.74,24.16,24.16,0,0,1-4.8-6L80,66.58a24.52,24.52,0,0,1,14.7-25.27c.17-.07,2.21-.25,2.39-.31l-2-.18a154.33,154.33,0,0,0-18.5.43c-13.43,1.13-28.3,10.5-35.86,21.44-.36.51-.7,1-1,1.57A53,53,0,0,0,32.46,99.64Zm80.26-58.52A8.29,8.29,0,0,0,111,38.81l0,0a2.53,2.53,0,0,0-.37-.18c-1.67-.69-3.56-.38-5.34-.05l-.5.1.5,0a19.5,19.5,0,0,1,2.16,0,8.26,8.26,0,0,1,3.39.79A5,5,0,0,1,112.72,41.12Z" transform="translate(-1.49 -1.1)"/><path class="cls-9" d="M99.43,66.76a20.56,20.56,0,0,0,.36,2.89l.38-.07a14.2,14.2,0,0,1,13-15.24,1.82,1.82,0,0,0,1.63-2.07c-.32-2.11-.13-4.33-.25-6.48a1.24,1.24,0,0,0,0-.27,10,10,0,0,0-.32-2.09A6.8,6.8,0,0,0,111,38.77l0,0a8.29,8.29,0,0,1,1.72,2.31,2.4,2.4,0,0,0,.11.23,4,4,0,0,1,.39,2.18,1.6,1.6,0,0,1-.1.42,12.67,12.67,0,0,1-2.93,4.52,96.16,96.16,0,0,0-7.2,8.18C100.87,59.61,99.3,63.12,99.43,66.76Z" transform="translate(-1.49 -1.1)"/><path class="cls-10" d="M110.52,143l.75.1a26.06,26.06,0,0,0,12.26.16,4,4,0,0,0,2.85-1.73,4.27,4.27,0,0,0,.19-2.25c-.25-2.55-.5-5.13-.74-7.68a72.44,72.44,0,0,0-8.13,3.8C114.66,137.2,111.84,139.78,110.52,143Z" transform="translate(-1.49 -1.1)"/><path class="cls-11" d="M114.56,43.35l-.37.08a10,10,0,0,1,.32,2.09h.21a55.19,55.19,0,0,1,13.12,8.13l.2-.24a16.58,16.58,0,0,1,16.77-17.67c2.43,0,5.09.78,6.36,2.84l.23,0a5.15,5.15,0,0,0-1.13-2.5c-1.35-1.58-3.59-2-5.67-2.24A40.6,40.6,0,0,0,114.56,43.35Z" transform="translate(-1.49 -1.1)"/><path class="cls-12" d="M128,53.4l-.2.24a57.86,57.86,0,0,1,10,10.7l.46-.32a109.37,109.37,0,0,0,11.45-18.45,16.43,16.43,0,0,0,1.7-4.76,7,7,0,0,0,0-2.28l-.23,0c-1.27-2.06-3.93-2.8-6.36-2.84A16.58,16.58,0,0,0,128,53.4Z" transform="translate(-1.49 -1.1)"/><path class="cls-1" d="M135,77.32c-.45,0-.84.72-.84,1.62s.39,1.62.84,1.62.84-.72.84-1.62S135.47,77.32,135,77.32Z" transform="translate(-1.49 -1.1)"/><path class="cls-1" d="M139,75.38c-.26.16-.12.89.32,1.65s1,1.26,1.27,1.12.11-.89-.33-1.66S139.29,75.24,139,75.38Z" transform="translate(-1.49 -1.1)"/><path class="cls-13" d="M149.54,88.76c2.55,0,3.93,2,4.6,5.38,0,.12.05.25.06.37.38,2,1,19-4.22,21l0,0a3.23,3.23,0,0,1-1.6.45c-3.52,0-5.86-6-5.86-13.76C142.49,96.26,145.38,88.76,149.54,88.76Zm-1.86,16.9c.43,0,.77-1.7.77-3.8s-.34-3.81-.77-3.81-.75,1.7-.75,3.81S147.26,105.66,147.68,105.66Zm4.17-.89c.28,0,.49-1.7.49-3.8s-.21-3.8-.49-3.8-.49,1.71-.49,3.8S151.59,104.77,151.85,104.77Z" transform="translate(-1.49 -1.1)"/><path class="cls-1" d="M147.68,98.05c-.42,0-.75,1.7-.75,3.81s.33,3.8.75,3.8.77-1.7.77-3.8S148.11,98.05,147.68,98.05Z" transform="translate(-1.49 -1.1)"/><path class="cls-1" d="M151.85,97.17c-.26,0-.49,1.71-.49,3.8s.23,3.8.49,3.8.49-1.7.49-3.8S152.13,97.17,151.85,97.17Z" transform="translate(-1.49 -1.1)"/><path class="cls-14" d="M143.68,83.63a13.17,13.17,0,0,1,3.37,1.1c3.09,1.44,8.15,4,8.15,11.51" transform="translate(-1.49 -1.1)"/><path class="cls-15" d="M114.54,45.79" transform="translate(-1.49 -1.1)"/><path class="cls-1" d="M90,45.92s-11-2.8-19.87,0l-2.57,1.15s12.79-1.76,19.49.68Z" transform="translate(-1.49 -1.1)"/><path class="cls-16" d="M80,66.58l1.69,5.36a24.16,24.16,0,0,0,4.8,6,10.82,10.82,0,0,0,7,2.74,7,7,0,0,0,6.2-3.88c1-2.24.45-4.7,0-7.17a20.56,20.56,0,0,1-.36-2.89c-.13-3.64,1.44-7.15,3.56-10.11a96.16,96.16,0,0,1,7.2-8.18A12.67,12.67,0,0,0,113.12,44a1.6,1.6,0,0,0,.1-.42,4,4,0,0,0-.39-2.18,2.4,2.4,0,0,1-.11-.23,5,5,0,0,0-1.85-1.76,8.26,8.26,0,0,0-3.39-.79,19.5,19.5,0,0,0-2.16,0l-.5,0a47.39,47.39,0,0,0-9.57,2.47l-.52.2A24.52,24.52,0,0,0,80,66.58Z" transform="translate(-1.49 -1.1)"/><path class="cls-14" d="M149.54,88.76c-4.16,0-7,7.5-7,13.47,0,7.78,2.6,15.08,8.87,13.58" transform="translate(-1.49 -1.1)"/><path class="cls-14" d="M135.9,87.16a31.15,31.15,0,0,0-1,28.53" transform="translate(-1.49 -1.1)"/><path class="cls-14" d="M129.79,130.19s-17.82,7.23-18.85,9.73c-.67,1.63-1.44,8.8-1.9,13.62" transform="translate(-1.49 -1.1)"/><path class="cls-17" d="M40.5,56.57c-1,2.26-.76,7.69-.76,7.69.34-.53.68-1.06,1-1.57A45.88,45.88,0,0,1,51.3,51.85,39.54,39.54,0,0,1,58,47.93s-4.35-.84-6.34-.4a15.63,15.63,0,0,0-11.19,9Z" transform="translate(-1.49 -1.1)"/><path class="cls-14" d="M62.11,136.14s3.22,1.66,12,2" transform="translate(-1.49 -1.1)"/></svg>