<svg id="Layer_1" xmlns="http://www.w3.org/2000/svg" viewBox="0 0 170 165"><style>.st0{fill:#43aa82}.st13{fill:none;stroke:#fff;stroke-width:.25;stroke-linecap:round;stroke-linejoin:round;stroke-miterlimit:10}</style><path class="st0" d="M92.9 7c-7.8-4-17.4-1-21.5 6.8-4 7.8-1 17.4 6.8 21.5 7.8 4 17.4 1 21.5-6.8 4.1-7.8 1-17.4-6.8-21.5z"/><linearGradient id="SVGID_1_" gradientUnits="userSpaceOnUse" x1="9490.0469" y1="332.7177" x2="9521.9004" y2="332.7177" gradientTransform="matrix(-.8878 -.4601 -.4601 .8878 8678.084 4098.3389)"><stop offset=".137" stop-color="#9fefcf"/><stop offset=".7363" stop-color="#59e3ad"/></linearGradient><path d="M92.9 5.9c-7.8-4-17.4-1-21.5 6.8-4 7.8-1 17.4 6.8 21.5 7.8 4 17.4 1 21.5-6.8 4.1-7.8 1-17.5-6.8-21.5z" fill="url(#SVGID_1_)"/><path d="M73.2 24c2.2 6.9 9.5 10.6 16.3 8.5S100.2 23 98 16.2c-2.2-6.9-9.5-10.6-16.3-8.5S71 17.2 73.2 24z" fill="none" stroke="#f2f2f2" stroke-width=".25" stroke-linecap="round" stroke-linejoin="round" stroke-miterlimit="10"/><path d="M85 27.8v-1.9c-1.1 0-2.2-.3-2.9-.8l.4-1.3c.7.4 1.7.8 2.7.8 1.3 0 2.2-.8 2.2-1.9 0-1-.8-1.7-2.2-2.2-1.9-.7-3.1-1.6-3.2-3.3 0-1.6 1.1-2.8 2.8-3.1v-1.9H86V14c1.1 0 1.9.3 2.5.6l-.3 1.4c-.4-.2-1.2-.6-2.4-.6-1.5 0-2 .9-2 1.6 0 1 .7 1.5 2.4 2.1 2 .8 3 1.8 3 3.4 0 1.5-1 2.9-3 3.2v2l-1.2.1z" fill="#fff"/><linearGradient id="SVGID_2_" gradientUnits="userSpaceOnUse" x1="7553.8022" y1="37.7601" x2="7565.9355" y2="55.2859" gradientTransform="matrix(-1 0 0 1 7607.4575 0)"><stop offset=".137" stop-color="#9fefcf"/><stop offset=".7363" stop-color="#59e3ad"/></linearGradient><path d="M42.1 40.7c-1.8 6.4-1.6 13.3.7 19.6l.4.1c.9-2.1 2.3-4 4-5.5 2-1.8 4.5-3 7.2-3.6V51c-2.1-.3-3.4-2.6-3.7-4.7-.4-2.1-.2-4.3-.9-6.4-.7-2-2.9-3.8-4.9-3-1.6.6-2.3 2.2-2.8 3.8z" fill="url(#SVGID_2_)"/><linearGradient id="SVGID_3_" gradientUnits="userSpaceOnUse" x1="7534.4829" y1="144.9218" x2="7537.0225" y2="136.5771" gradientTransform="matrix(-1 0 0 1 7607.4575 0)"><stop offset="0" stop-color="#9fefcf"/><stop offset="1" stop-color="#59e3ad"/></linearGradient><path d="M78.5 141.5c-2 2.3-5.4 3.2-8.3 2.3l-4.5-.9 1.1-8.5 8.7-.2 3 7.3z" fill="url(#SVGID_3_)"/><path d="M106.6 161c1.3-.4 2.6-.9 3.9-1.5 3.2-1.7 6.3-4 9.2-6.1 3.9-2.9 13.3-10.6 2.8-10.6-23.9 0-46.3-8.2-69.9-11.4-10.7-1.4-69.2 10.2-41.7 18.3 26.7 7.8 54.3 13.7 81.6 12.5 4.7-.1 9.6.1 14.1-1.2z" fill="#f6f8fa"/><linearGradient id="SVGID_4_" gradientUnits="userSpaceOnUse" x1="7485.3721" y1="50.998" x2="7545.6504" y2="151.0476" gradientTransform="matrix(-1 0 0 1 7607.4575 0)"><stop offset=".137" stop-color="#9fefcf"/><stop offset=".7363" stop-color="#59e3ad"/></linearGradient><path d="M34.5 102.6c.9 6.7 3.1 13.1 6.1 19.1 1.9 3.8 4.3 7.4 6.9 10.8l-.1.1c1.2 2.5.8 6.4.7 9.2-.1 2.8.1 6.8 2 8.7 1.8 1.8 4.5 2.2 7 2.6 2 .3 4.1.5 6.1.1 2-.3 4-2.3 5-4.1.8-1.5.9-3.3 1.3-5 .4-1.7.9-3.3 2.6-3.7 2.8-.5 5.8.3 8.1 2 2.2 1.8 3.6 4.6 3.8 7.4.1 2.4-.6 5.1.9 7 .9 1.1 2.3 1.6 3.6 2 4.4 1.2 8.7 1.5 13.2 1.2 3.4-.3 7.4-.8 9.1-3.8 1.4-2.3.7-5.3 1.2-8 .1-.8.3-1.6.6-2.3 1.3-3.2 4.1-5.8 7.2-7.6 2.6-1.5 5.4-2.6 8.1-3.8 1.2-.5 2.5-1.1 3.7-1.7 3.9-2 8.1-5 9.4-9.2 3.1.1 8.6-3.1 11.1-5.1-.5.3-1 .4-1.6.4-3.5 0-5.9-6-5.9-13.8 0-6 2.9-13.5 7-13.5 2.6 0 4.7 5.9 4.7 5.9-.9-5.5-4.1-8.5-7.2-9.9v-.1c-1.7-7.3-4.9-14.3-9.3-20.3-2.9-4-6.2-7.6-10-10.7-4-3.3-8.4-6.1-13.1-8.1h-.2v.3c.2 2.9-7.4 9.8-10.2 12.6-2.9 2.9-4.5 7.1-4.2 11.2l-.4.1c.4 2.5.9 4.9 0 7.2-1 2.4-3.6 3.8-6.2 3.9-2.6.1-5.1-1.1-7-2.7-2-1.7-3.5-3.8-4.8-6L82 69.6c-.6-5.2.6-10.6 3.2-15.1s6.7-8.1 11.5-10.2c.2-.1 2.2-.3 2.4-.3l-2-.2c-6.2-.2-12.4-.1-18.5.4-13.4 1.1-28.3 10.5-35.9 21.4-.4.5-.7 1-1 1.6-6.5 10.4-9 23.3-7.2 35.4zm80.2-58.5c-.4-.9-1.1-1.7-1.7-2.3-.1-.1-.2-.1-.4-.2-1.7-.7-3.6-.4-5.3 0-.2 0-.3.1-.5.1h2.7c1.2.1 2.3.3 3.4.8.7.2 1.4.9 1.8 1.6z" fill="url(#SVGID_4_)"/><linearGradient id="SVGID_5_" gradientUnits="userSpaceOnUse" x1="7495.1152" y1="39.9529" x2="7499.0093" y2="66.655" gradientTransform="matrix(-1 0 0 1 7607.4575 0)"><stop offset=".137" stop-color="#9fefcf"/><stop offset=".7363" stop-color="#59e3ad"/></linearGradient><path d="M101.4 69.8c0 1 .2 1.9.4 2.9l.4-.1c-.3-4.1 1.2-8.3 4.2-11.2 2.3-2.3 5.5-3.8 8.8-4.1 1-.1 1.8-1.1 1.6-2.1-.3-2.1-.1-4.3-.3-6.5v-.3c0-.7-.1-1.4-.3-2.1-.5-2-1.4-3.8-3.2-4.7.6.6 1.3 1.4 1.7 2.3 0 .1.1.2.1.2.3.7.5 1.5.4 2.2 0 .1 0 .3-.1.4-.5 1.7-1.7 3.2-2.9 4.5-2.4 2.7-5.1 5.2-7.2 8.2-2.1 3.2-3.7 6.7-3.6 10.4z" fill="url(#SVGID_5_)"/><linearGradient id="SVGID_6_" gradientUnits="userSpaceOnUse" x1="7477.1133" y1="139.848" x2="7494.3491" y2="142.699" gradientTransform="matrix(-1 0 0 1 7607.4575 0)"><stop offset=".137" stop-color="#9fefcf"/><stop offset=".7363" stop-color="#59e3ad"/></linearGradient><path d="M112.5 146l.7.1c4 1 8.2 1.1 12.3.2 1.1-.3 2.3-.7 2.9-1.7.3-.7.3-1.5.2-2.3-.3-2.6-.5-5.1-.7-7.7-2.7 1.2-5.5 2.3-8.1 3.8-3.1 1.8-6 4.4-7.3 7.6z" fill="url(#SVGID_6_)"/><linearGradient id="SVGID_7_" gradientUnits="userSpaceOnUse" x1="7464.6045" y1="39.3405" x2="7483.8296" y2="50.9113" gradientTransform="matrix(-1 0 0 1 7607.4575 0)"><stop offset=".137" stop-color="#9fefcf"/><stop offset=".7363" stop-color="#59e3ad"/></linearGradient><path d="M116.6 46.3l-.4.1c.2.7.3 1.4.3 2.1h.2c4.7 2.1 9.2 4.8 13.1 8.1l.2-.2c-.3-4.6 1.4-9.2 4.5-12.5 3.1-3.3 7.7-5.2 12.2-5.2 2.4 0 5.1.8 6.4 2.8h.2c-.2-.9-.5-1.8-1.1-2.5-1.4-1.6-3.6-2-5.7-2.2-10.6-1-21.8 2.5-29.9 9.5z" fill="url(#SVGID_7_)"/><linearGradient id="SVGID_8_" gradientUnits="userSpaceOnUse" x1="145.8184" y1="58.764" x2="136.8143" y2="38.0225"><stop offset=".137" stop-color="#9fefcf"/><stop offset=".7363" stop-color="#59e3ad"/></linearGradient><path d="M130 56.4l-.2.2c3.8 3.1 7.1 6.7 10 10.7l.5-.3c4.4-5.8 8.3-11.9 11.5-18.5.7-1.5 1.5-3.1 1.7-4.8.1-.8.1-1.5 0-2.3h-.2c-1.3-2.1-3.9-2.8-6.4-2.8-4.6-.1-9.1 1.9-12.2 5.2-3.3 3.4-5 8-4.7 12.6z" fill="url(#SVGID_8_)"/><path class="st0" d="M137 80.3c-.5 0-.8.7-.8 1.6 0 .9.4 1.6.8 1.6.5 0 .8-.7.8-1.6 0-.9-.3-1.6-.8-1.6zM141 78.4c-.3.2-.1.9.3 1.7.4.8 1 1.3 1.3 1.1.3-.2.1-.9-.3-1.7-.4-.8-1-1.3-1.3-1.1z"/><linearGradient id="SVGID_9_" gradientUnits="userSpaceOnUse" x1="7448.9287" y1="91.7283" x2="7464.1528" y2="118.6638" gradientTransform="matrix(-1 0 0 1 7607.4575 0)"><stop offset=".137" stop-color="#9fefcf"/><stop offset=".7363" stop-color="#59e3ad"/></linearGradient><path d="M151.5 91.8c2.6 0 3.9 2 4.6 5.4 0 .1 0 .3.1.4.4 2 1 19-4.2 21-.5.3-1 .4-1.6.4-3.5 0-5.9-6-5.9-13.8 0-5.9 2.9-13.4 7-13.4zm-1.8 16.9c.4 0 .8-1.7.8-3.8 0-2.1-.3-3.8-.8-3.8-.4 0-.8 1.7-.8 3.8 0 2.1.4 3.8.8 3.8zm4.2-.9c.3 0 .5-1.7.5-3.8 0-2.1-.2-3.8-.5-3.8s-.5 1.7-.5 3.8c0 2.1.2 3.8.5 3.8z" fill="url(#SVGID_9_)"/><path class="st0" d="M149.7 101c-.4 0-.8 1.7-.8 3.8 0 2.1.3 3.8.8 3.8.4 0 .8-1.7.8-3.8-.1-2-.4-3.8-.8-3.8zM153.9 100.2c-.3 0-.5 1.7-.5 3.8 0 2.1.2 3.8.5 3.8s.5-1.7.5-3.8c-.1-2.1-.3-3.8-.5-3.8z"/><path class="st13" d="M145.7 86.6c.6.1 1.9.4 3.4 1.1 3.1 1.4 8.2 4 8.2 11.5"/><path class="st0" d="M92 48.9s-11-2.8-19.9 0l-2.6 1.2s12.8-1.8 19.5.7l3-1.9z"/><linearGradient id="SVGID_10_" gradientUnits="userSpaceOnUse" x1="7504.8013" y1="41.4904" x2="7518.5078" y2="86.3493" gradientTransform="matrix(-1 0 0 1 7607.4575 0)"><stop offset=".137" stop-color="#9fefcf"/><stop offset=".7363" stop-color="#59e3ad"/></linearGradient><path d="M82 69.6l1.7 5.4c1.3 2.2 2.8 4.3 4.8 6 2 1.7 4.5 2.8 7 2.7 2.6-.1 5.2-1.5 6.2-3.9 1-2.2.4-4.7 0-7.2-.2-1-.3-1.9-.4-2.9-.1-3.6 1.4-7.2 3.6-10.1 2.1-3 4.8-5.5 7.2-8.2 1.2-1.3 2.4-2.8 2.9-4.5 0-.1.1-.3.1-.4.1-.7-.1-1.5-.4-2.2 0-.1-.1-.2-.1-.2-.5-.7-1.1-1.4-1.8-1.8-1-.5-2.2-.7-3.4-.8h-2.7c-3.2.6-6.5 1.2-9.6 2.5-.2.1-.3.1-.5.2-4.8 2.1-8.9 5.7-11.5 10.2-2.5 4.6-3.6 10-3.1 15.2z" fill="url(#SVGID_10_)"/><path class="st13" d="M151.5 91.8c-4.2 0-7 7.5-7 13.5 0 7.8 2.6 15.1 8.9 13.6M137.9 90.2c-4.9 8.6-5.3 19.6-1 28.5M131.8 133.2s-17.8 7.2-18.8 9.7c-.7 1.6-1.4 8.8-1.9 13.6"/><linearGradient id="SVGID_11_" gradientUnits="userSpaceOnUse" x1="7547.4277" y1="58.8308" x2="7565.7466" y2="58.8308" gradientTransform="matrix(-1 0 0 1 7607.4575 0)"><stop offset=".137" stop-color="#9fefcf"/><stop offset=".7363" stop-color="#59e3ad"/></linearGradient><path d="M42.5 59.6c-1 2.3-.8 7.7-.8 7.7.3-.5.7-1.1 1-1.6 2.9-4.2 6.5-7.8 10.5-10.8 2.2-1.6 4.4-2.8 6.7-3.9 0 0-4.3-.8-6.3-.4-2.7.6-5.2 1.8-7.2 3.6-1.6 1.4-3 3.3-3.9 5.4z" fill="url(#SVGID_11_)"/><path class="st13" d="M64.1 139.1s3.2 1.7 12 2"/></svg>