<?xml version="1.0" encoding="utf-8"?>
<!-- Generator: Adobe Illustrator 23.0.1, SVG Export Plug-In . SVG Version: 6.00 Build 0)  -->
<svg version="1.1" id="Layer_1" xmlns="http://www.w3.org/2000/svg" xmlns:xlink="http://www.w3.org/1999/xlink" x="0px" y="0px"
	 viewBox="0 0 472 472" style="enable-background:new 0 0 472 472;" xml:space="preserve">
<style type="text/css">
	.st0{fill:none;stroke:#D3DBE5;stroke-width:0.75;stroke-linecap:round;stroke-linejoin:round;stroke-miterlimit:10;}
	.st1{fill:#91BDFD;}
	.st2{fill:#F6F8FA;}
	.st3{fill:none;stroke:#D3DBE5;stroke-width:0.25;stroke-linecap:round;stroke-linejoin:round;stroke-miterlimit:10;}
	.st4{clip-path:url(#SVGID_2_);fill:#43AA82;}
	.st5{clip-path:url(#SVGID_2_);fill:url(#SVGID_3_);}
	.st6{clip-path:url(#SVGID_2_);}
	.st7{fill:url(#SVGID_4_);}
	.st8{fill:#FFFFFF;}
	.st9{fill:none;stroke:#43AA82;stroke-width:0.25;stroke-linecap:round;stroke-linejoin:round;stroke-miterlimit:10;}
	.st10{fill:url(#SVGID_5_);}
	.st11{fill:none;}
	.st12{fill:url(#SVGID_6_);}
	.st13{fill:#DCE2EA;}
	.st14{fill:none;stroke:#A7B6CB;stroke-width:0.25;stroke-linecap:round;stroke-miterlimit:10;}
	.st15{fill:url(#SVGID_7_);}
	.st16{fill:url(#SVGID_8_);}
	.st17{fill:url(#SVGID_9_);}
	.st18{fill:none;stroke:#D3DBE5;stroke-width:0.25;stroke-linecap:round;stroke-miterlimit:10;}
	.st19{fill:url(#SVGID_10_);}
	.st20{fill:url(#SVGID_11_);}
	.st21{fill:url(#SVGID_12_);}
	.st22{fill:url(#SVGID_13_);}
	.st23{fill:url(#SVGID_14_);}
	.st24{fill:url(#SVGID_15_);}
	.st25{fill:url(#SVGID_16_);}
	.st26{fill:url(#SVGID_17_);}
	.st27{fill:url(#SVGID_18_);}
	.st28{opacity:0.1;fill:#B3B3B3;}
	.st29{fill:none;stroke:#7C7C7C;stroke-miterlimit:10;}
	.st30{fill:url(#SVGID_19_);}
	.st31{opacity:0.3;}
	.st32{clip-path:url(#SVGID_21_);fill:none;stroke:#99C3E4;stroke-width:0.25;stroke-miterlimit:10;}
	.st33{fill:#B3B3B3;}
	.st34{fill:#D3DBE5;}
	.st35{fill-rule:evenodd;clip-rule:evenodd;fill:none;stroke:#D3DBE5;stroke-width:0.25;stroke-miterlimit:10;}
	
		.st36{fill:none;stroke:#59E3AD;stroke-width:0.25;stroke-linecap:round;stroke-linejoin:round;stroke-miterlimit:10;stroke-dasharray:3,3,3,3;}
	.st37{fill:none;stroke:#FFFFFF;stroke-width:0.25;stroke-linecap:round;stroke-linejoin:round;stroke-miterlimit:10;}
	.st38{opacity:0.5;fill:none;stroke:#FFFFFF;stroke-width:0.25;stroke-linecap:round;stroke-linejoin:round;stroke-miterlimit:10;}
	.st39{fill:url(#SVGID_22_);}
	.st40{fill:#43AA82;}
	.st41{fill:url(#SVGID_23_);}
	.st42{fill:url(#SVGID_24_);}
	.st43{fill:url(#SVGID_25_);}
	.st44{fill:#D3DBE5;stroke:#D3DBE5;stroke-width:0.25;stroke-miterlimit:10;}
	.st45{fill:url(#SVGID_26_);}
	.st46{fill:none;stroke:#59E3AD;stroke-width:0.25;stroke-miterlimit:10;}
	.st47{fill:url(#SVGID_27_);}
	.st48{fill:url(#SVGID_28_);}
	.st49{fill:url(#SVGID_29_);}
	.st50{opacity:0.24;fill:#DB5437;}
	.st51{fill:#24497E;}
	.st52{fill:none;stroke:#24497E;stroke-width:0.25;stroke-linecap:round;stroke-linejoin:round;stroke-miterlimit:10;}
	.st53{fill:#FFFFFF;stroke:#24497E;stroke-width:0.25;stroke-linecap:round;stroke-linejoin:round;stroke-miterlimit:10;}
	.st54{fill:url(#SVGID_30_);}
	.st55{fill:#FFFFFF;stroke:#D3DBE5;stroke-width:0.25;stroke-miterlimit:10;}
</style>
<path class="st0" d="M86.8,316.2"/>
<path class="st1" d="M148,93c0,0,2.2-1.5,4.1-0.8c2,0.7,6.7,12.2,6.7,12.2l-4.1,2.4L148,93z"/>
<path class="st2" d="M261.2,364.5c0,0-12.4-23.6-9.1-27.9c2.1-2.8,3.9,0.1,3.9,0.1l13.8,25.9l-0.5,4.9L261.2,364.5z"/>
<path class="st2" d="M269.5,364.1c-0.5,8-0.8,15.9-2.8,24.5c-0.2,0.8-1.1,3.4-1.3,4.2c-1.4,0.2-8.1,0.8-9.6,1
	c-2.7,0.3-5.4,0.6-8.2,0.9c-15.4,1.1-30.3-0.1-45.5-2.1c0-18-0.1-36-0.1-54c0.9,0,1.9,0,2.8,0c0,12.6,0,25.1,0,37.7
	c0,2.5,1.9,4.6,4.4,4.7c15.3,1.1,32.1,1.4,49-0.1c0.5-3.1,0.9-6.3,1.3-9.5c0.6-5.5,1.5-11.9,1.5-18.3"/>
<polygon class="st2" points="144.4,280.5 135.5,278.2 135.1,209.4 144.4,209.4 "/>
<path class="st2" d="M150.7,369.6c-23.8,15.3-123.9,10.5-117.5-49.9c0,0,12.2,22,39.6,35.6c1.5-7.2,10.8-16.8,10.8-16.8l2.7,3.6
	c0.2,0,0.5-0.1,0.8-0.1c1.3-0.4,2.6-0.7,3.8-1.1c0.2-0.1,0.3-0.1,0.5-0.1c0.3-0.1,0.5-0.2,0.7-0.3c0,0,0,0,0.1,0
	c0.4-0.2,0.7-0.3,1-0.6c2-0.7,3.2-2.8,2.7-4.5c0-0.1-0.1-0.1-0.1-0.2c0-0.1,0-0.1,0-0.2c0-1-0.4-2.1-1.3-2.9
	c-0.1-0.1-0.3-0.2-0.4-0.3c-0.4-1.6-1.9-3-4.4-3.1c-3.4-0.2-6.7,0.9-9.8,1.9c1.6-2.5,4.3-4.9,7.6-5.4c3.7-0.5,7.7,0.7,10.2,3
	c2.5,2.3,3.5,5.6,2.7,8.6c-1,3.5-4.5,6.4-8.8,7.2c-1.6,0.3-3.2,0.3-4.8-0.1c-5.6,3.8-8,9-9,13.5c18.1,7.8,42.1,11.6,72.7,4.3
	C150.4,361.9,173,358.4,150.7,369.6z"/>
<path class="st2" d="M92.1,340.6C92,340.6,92,340.6,92.1,340.6c-0.3,0.1-0.5,0.2-0.8,0.3C92.3,340.3,92.9,340,92.1,340.6z"/>
<path class="st2" d="M31.9,269.5c0,0,4.9,29,18.3,25.1c0,0-11,8.6-11.9,12.8C38.3,307.3,28.2,293.9,31.9,269.5z"/>
<path class="st3" d="M87.2,228.1c-0.1-1.2-0.1-2.4-0.1-3.7c0-32,25.1-57.9,56-57.9c11.6,0,22.4,3.6,31.3,9.9"/>
<path class="st3" d="M81.9,228.6c7,0,13.7,1.5,19.9,4.1"/>
<path class="st3" d="M37.8,307.4c-3.8-7.4-6.9-17.2-6.9-26.1c0-29.1,22.8-52.7,51-52.7"/>
<g>
	<defs>
		<path id="SVGID_1_" d="M71.5,282.3c0,0,34.2-14.1,72.8-1.8l-2-88.9l-72.6,2.8L71.5,282.3z"/>
	</defs>
	<clipPath id="SVGID_2_">
		<use xlink:href="#SVGID_1_"  style="overflow:visible;"/>
	</clipPath>
	<polygon class="st4" points="80.8,288.7 75.7,288.7 75.7,203.3 80.8,203.3 	"/>
	<linearGradient id="SVGID_3_" gradientUnits="userSpaceOnUse" x1="93.0763" y1="202.0403" x2="125.073" y2="288.116">
		<stop  offset="0.137" style="stop-color:#9FEFCF"/>
		<stop  offset="0.7363" style="stop-color:#59E3AD"/>
	</linearGradient>
	<path class="st5" d="M141.1,203.3l0,85.4H77.8l0-65.3l0-20.1H141.1z"/>
	<g class="st6">
		<linearGradient id="SVGID_4_" gradientUnits="userSpaceOnUse" x1="125.2534" y1="271.2856" x2="125.4046" y2="262.139">
			<stop  offset="0.2355" style="stop-color:#4891FB"/>
			<stop  offset="1" style="stop-color:#227BFB"/>
		</linearGradient>
		<polyline class="st7" points="128.9,260.5 129,260.5 129.2,260.5 129.2,273.4 125.5,270.2 121.4,273.4 121.4,260.5 121.5,260.5 		
			"/>
		<path class="st8" d="M131.3,256.1c0,3.3-2.7,6-6,6c-3.3,0-6-2.7-6-6c0-3.3,2.7-6,6-6C128.7,250.1,131.3,252.8,131.3,256.1z"/>
		<line class="st9" x1="87.2" y1="212.6" x2="128.5" y2="212.6"/>
		<line class="st9" x1="87.2" y1="220.9" x2="128.5" y2="220.9"/>
		<line class="st9" x1="87.2" y1="229.2" x2="128.5" y2="229.2"/>
		<line class="st9" x1="87.2" y1="237.5" x2="128.5" y2="237.5"/>
		<line class="st9" x1="87.2" y1="245.8" x2="128.5" y2="245.8"/>
		<g>
			<radialGradient id="SVGID_5_" cx="132.3134" cy="251.8639" r="13.3276" gradientUnits="userSpaceOnUse">
				<stop  offset="0.3105" style="stop-color:#FFFFFF"/>
				<stop  offset="1" style="stop-color:#E1E1E1"/>
			</radialGradient>
			<path class="st10" d="M125.3,262.4c-1.5,0-3-0.6-4.1-1.6c-1.4-1.2-2.2-2.9-2.2-4.7c0-1.7,0.7-3.3,1.8-4.4
				c1.2-1.2,2.8-1.8,4.4-1.8c0,0,0,0,0,0c1.7,0,3.3,0.7,4.4,1.8c1.2,1.2,1.8,2.8,1.8,4.4c0,1.9-0.8,3.6-2.2,4.8
				C128.2,261.8,126.8,262.4,125.3,262.4z M125.3,250.9c-1.4,0-2.7,0.5-3.7,1.5c-1,1-1.5,2.3-1.5,3.7c0,1.5,0.6,2.9,1.8,3.9l0,0
				c0.9,0.8,2.2,1.3,3.4,1.3c1.2,0,2.4-0.4,3.4-1.2c1.2-1,1.8-2.4,1.8-4c0-1.4-0.5-2.7-1.5-3.7C128,251.4,126.7,250.9,125.3,250.9
				C125.3,250.9,125.3,250.9,125.3,250.9z"/>
		</g>
	</g>
</g>
<g>
	<path class="st11" d="M42.7,312.8c0-0.3-0.4-0.5-0.7-0.3c-0.2,0.2-0.1,0.7,0.2,0.7"/>
</g>
<g>
	<path class="st2" d="M292.6,285.9c2.1-2.7,2.8-4.7,5.2-7.1c-8,1-18,3.7-25.4,6.8c0.7-0.3,5.8,4,6.9,4.4c2.3,0.8,6.3-1.1,8.6-2.1
		C288.9,287.4,291.6,286.4,292.6,285.9z"/>
</g>
<path class="st2" d="M260.7,390.8l-0.4,2.4c-0.1,0-0.1,0-0.2,0C260.3,392.5,260.5,391.6,260.7,390.8z"/>
<radialGradient id="SVGID_6_" cx="266.2954" cy="394.7946" r="30.7173" gradientUnits="userSpaceOnUse">
	<stop  offset="0.1464" style="stop-color:#1B375F"/>
	<stop  offset="1" style="stop-color:#24497E"/>
</radialGradient>
<path class="st12" d="M295,431.6c0.7,2.3,1.1,5.5-1.1,6.7c-2,1.1-4.4-0.4-6.1-1.8c-5.6-4.5-11.2-9-16.8-13.5
	c-3.7-2.9-7.5-6-9.7-10.1c-2.2-4.1-0.1-14.1,2.9-17.7c3.9,4,9,10.4,17.7,7.4C287.7,411.4,291.8,421.6,295,431.6z"/>
<g>
	<path class="st2" d="M354.9,335.5c0,0-1.9,33.9-65.5,52.1l1.3-8.1c5.1-11.4,12.9-21.5,18-32.9c2.2-5,4-10.9,4.9-16.3
		c0.9-5.4,0.8-13.9-2.3-18.4c1.3,1.9,26.1-19,28.2-20.6c0.3,4.5-9,21-17.2,24.8c3.9,10.8-15.6,55.2-15.6,55.3
		C323.9,364.2,343.9,350.9,354.9,335.5z"/>
</g>
<path class="st13" d="M289,292.2l-28,31.6c-13.4-5.1-30.9-11.8-44.3-16.9c-8.7-3.3-17.4-6.6-25.2-11.7c-2.9-1.9-5.7-4.2-8.3-6.6
	c-6.1-5.5-7.5-19.8-7.5-19.8c4.2,2.9,30.9,2.8,50.9-6.7l50.7,24.4l4.6,2.1C284.2,289.7,288.3,291.8,289,292.2z M265.4,388.8
	c-0.5,3.8-1,6.9-1.3,9.1c3.6,4.6,10,8.1,19.2,5.7c6.1-15,43.6-76.8,29.9-92.8c-14.7,9.7-23.1,13.3-37.5,22.9
	C271.8,346.8,267.6,373.3,265.4,388.8"/>
<path class="st14" d="M181.3,284.9c7.9-2,48-13.2,53.8-37.5"/>
<radialGradient id="SVGID_7_" cx="262.182" cy="322.2224" r="34.4904" gradientUnits="userSpaceOnUse">
	<stop  offset="0.1464" style="stop-color:#1B375F"/>
	<stop  offset="1" style="stop-color:#24497E"/>
</radialGradient>
<path class="st15" d="M281.3,366.1c0.1,2.6-0.3,5.9-2.8,6.6c-2.3,0.6-4.3-1.5-5.6-3.4c-4.4-6.1-8.8-12.1-13.1-18.2
	c-2.5-3.4-4.7-7-6.5-10.8c-2-4.1-1.6-8.1,0.9-12c1.1-1.8,2.5-3.3,4-4.8c0.3-0.3,4.8-5,4.7-5.2c2.8,5.2,2.5,15.5,12,14.7
	C278.1,343.6,280.7,355,281.3,366.1z"/>
<radialGradient id="SVGID_8_" cx="354.4313" cy="241.8414" r="100.0144" gradientUnits="userSpaceOnUse">
	<stop  offset="0" style="stop-color:#F6F8FA"/>
	<stop  offset="6.995250e-02" style="stop-color:#F3F5F8"/>
	<stop  offset="0.4968" style="stop-color:#E2E7EE"/>
	<stop  offset="0.8197" style="stop-color:#DCE2EA"/>
</radialGradient>
<path class="st16" d="M274.5,334.3c-6.1-0.7-11.6-7.6-12.4-14.6c5.1-5.9,32.2-37,36.1-41.2c-6.9,1.8-16.6,4.4-23.9,6.3l-0.1,0.1
	c2.9,1.4,5.5,2.7,7.6,3.7l-4.6-2.1l-50.7-24.4c8.4-4,13.8-13.8,13.8-13.8c29.5-4.9,64.3-6.5,94.1-3.4c1.7,0.2,3.3,0.4,5,0.7
	c2.6,0.5,5.2,1.4,7.3,3c4.4,3.3,6.7,9.2,7.3,14.4C354.9,297.3,280.2,330.6,274.5,334.3z"/>
<g>
	<radialGradient id="SVGID_9_" cx="307.1577" cy="82.8365" r="149.6214" gradientUnits="userSpaceOnUse">
		<stop  offset="0" style="stop-color:#59E3AD"/>
		<stop  offset="0.2129" style="stop-color:#61E4B1"/>
		<stop  offset="0.538" style="stop-color:#76E8BB"/>
		<stop  offset="0.933" style="stop-color:#98EECC"/>
		<stop  offset="1" style="stop-color:#9FEFCF"/>
	</radialGradient>
	<path class="st17" d="M195.3,31l0-0.5L314.2,32l107.4,43.5c0,0-6.3,30.7,36.5,59.7l-0.1,0.2c-0.8-0.2-24.8-7.9-43.5,7.4
		c-14.2,13.6-7.3,30-7.1,30.5c-0.5-0.5-15.4-16.8-47.6-19c-31.2-2.1-50.5,10.3-52.3,11.4c-0.1,0.1-5-6.7-11.6-13.3l-3.4-3.2
		c-7.8-7.1-18.2-14.5-30.5-18c-27.1-7.8-50.2-0.4-50.2-0.4s0.4-28.3-18-44.3c-15.3-13.2-26.8-14.7-30.3-14.8
		C179.1,71.3,203.2,60.9,195.3,31z"/>
	<g>
		<path class="st18" d="M314.9,79.5c36.3,24.8,68,57.4,92.6,93.8"/>
		<g>
			<path class="st18" d="M458.1,135.1c-16.9-9.6-127.3-58.4-143.3-55.7c35.6-5.3,71.2-9.7,106.8-4"/>
			<path class="st18" d="M195.4,30.5c41.3,8.2,85.3,24.5,119.5,49c0.3-16-0.4-31.2-0.7-47.5"/>
			<path class="st18" d="M163.6,71.7c21.3-2.1,124.1,4.4,151.3,7.8"/>
			<path class="st18" d="M211.9,130.8c33.4-19.5,66.5-38.2,102.9-51.3"/>
			<path class="st18" d="M307.5,165.2c6.5-28.6,8.4-56.5,6.8-85.8"/>
		</g>
	</g>
</g>
<g>
	<path class="st2" d="M354,94.1c-3.3,10.9-22.7,14.6-44.1,8.5l6.3-22.7c-0.8-2.2-4-1-4-1l-6.3,22.5c-21-7.1-35.6-21.2-32.3-32
		c3.4-11.2,24.2-14.8,46.4-7.9C342.3,68.3,357.5,82.9,354,94.1z"/>
</g>
<g>
	<linearGradient id="SVGID_10_" gradientUnits="userSpaceOnUse" x1="161.7548" y1="101.2448" x2="211.9387" y2="101.2448">
		<stop  offset="0.137" style="stop-color:#9FEFCF"/>
		<stop  offset="0.7363" style="stop-color:#59E3AD"/>
	</linearGradient>
	<path class="st19" d="M162.5,71.7c0.4,0,0.7,0,1.1,0c3.5,0.1,15,1.5,30.3,14.8c18.5,16,18,44.3,18,44.3l-0.1,0.2l-0.3-0.1
		l-49.8-58.7l0.5-0.6L162.5,71.7z"/>
</g>
<g>
	<linearGradient id="SVGID_11_" gradientUnits="userSpaceOnUse" x1="196.546" y1="66.3253" x2="173.2436" y2="46.2213">
		<stop  offset="0.137" style="stop-color:#9FEFCF"/>
		<stop  offset="0.7363" style="stop-color:#59E3AD"/>
	</linearGradient>
	<path class="st20" d="M162.2,71.5l32.6-41l0.5,0l0,0.5c7.9,29.9-16.3,40.3-31.7,40.7c-0.7,0-1.1,0-1.1,0L162.2,71.5z"/>
</g>
<g>
	<linearGradient id="SVGID_12_" gradientUnits="userSpaceOnUse" x1="323.4856" y1="22.6304" x2="189.6936" y2="21.2071">
		<stop  offset="0.137" style="stop-color:#9FEFCF"/>
		<stop  offset="0.7363" style="stop-color:#59E3AD"/>
	</linearGradient>
	<polygon class="st21" points="320.1,13.7 320.1,13.8 314.2,32 195.4,30.5 194.8,30.5 235.4,12.3 	"/>
</g>
<g>
	<linearGradient id="SVGID_13_" gradientUnits="userSpaceOnUse" x1="395.449" y1="52.7238" x2="307.1802" y2="23.5637">
		<stop  offset="0.137" style="stop-color:#9FEFCF"/>
		<stop  offset="0.7363" style="stop-color:#59E3AD"/>
	</linearGradient>
	<polygon class="st22" points="406.4,49.8 421.9,75.3 421.6,75.5 314.2,32 320.1,13.8 320.1,13.7 320.1,13.7 	"/>
</g>
<g>
	<linearGradient id="SVGID_14_" gradientUnits="userSpaceOnUse" x1="411.074" y1="122.3681" x2="466.36" y2="89.9276">
		<stop  offset="0.137" style="stop-color:#9FEFCF"/>
		<stop  offset="0.7363" style="stop-color:#59E3AD"/>
	</linearGradient>
	<path class="st23" d="M421.9,75.3l36.5,60h0c-0.1-0.1-0.2-0.1-0.3-0.2c-42.8-29-36.5-59.7-36.5-59.7L421.9,75.3z"/>
</g>
<g>
	<linearGradient id="SVGID_15_" gradientUnits="userSpaceOnUse" x1="414.0956" y1="138.3054" x2="447.45" y2="166.6338">
		<stop  offset="0.137" style="stop-color:#9FEFCF"/>
		<stop  offset="0.7363" style="stop-color:#59E3AD"/>
	</linearGradient>
	<path class="st24" d="M458.4,135.3L458.4,135.3l-50.7,38.2l-0.2-0.2c0,0,0,0,0,0c-0.2-0.5-7.1-16.9,7.1-30.5
		c18.7-15.4,42.7-7.7,43.5-7.4l0.1-0.2C458.2,135.2,458.3,135.3,458.4,135.3z"/>
</g>
<g>
	<linearGradient id="SVGID_16_" gradientUnits="userSpaceOnUse" x1="356.3663" y1="140.2139" x2="357.8962" y2="175.4021">
		<stop  offset="0.137" style="stop-color:#9FEFCF"/>
		<stop  offset="0.7363" style="stop-color:#59E3AD"/>
	</linearGradient>
	<path class="st25" d="M407.5,173.2l0.2,0.2l-0.2,0.1l-99.6-7.8l-0.2-0.1c1.8-1.2,21.1-13.5,52.3-11.4
		C392.1,156.5,407,172.7,407.5,173.2C407.5,173.2,407.5,173.2,407.5,173.2z"/>
</g>
<g>
	<linearGradient id="SVGID_17_" gradientUnits="userSpaceOnUse" x1="267.8938" y1="123.8915" x2="257.6943" y2="154.49">
		<stop  offset="0.137" style="stop-color:#9FEFCF"/>
		<stop  offset="0.7363" style="stop-color:#59E3AD"/>
	</linearGradient>
	<path class="st26" d="M307.6,165.7l-0.3-0.1l-13.6-4.9l-3.9-1.4l-78-28.3l0.1-0.2c0,0,23.1-7.4,50.2,0.4c12.3,3.5,22.8,11,30.5,18
		l3.4,3.2C302.6,159,307.5,165.8,307.6,165.7z"/>
</g>
<radialGradient id="SVGID_18_" cx="297.2831" cy="142.6544" r="47.3761" gradientTransform="matrix(1 0 0 1.2565 0 -36.5909)" gradientUnits="userSpaceOnUse">
	<stop  offset="5.021430e-02" style="stop-color:#F6F8FA"/>
	<stop  offset="0.1159" style="stop-color:#F3F5F8"/>
	<stop  offset="0.5166" style="stop-color:#E2E7EE"/>
	<stop  offset="0.8197" style="stop-color:#DCE2EA"/>
</radialGradient>
<path class="st27" d="M316.2,80l-18.8,67.7l-2.3,8.2l-14,50.4l0,0.5c-0.5,0-1.1,0-1.6,0c-0.2-0.5-0.7,0.4-0.9-0.1
	c-0.3-0.9,0.1-3.5-0.3-4.4l12.9-47.8l2.8-10l18.2-65.7C312.6,77.8,316.5,78.7,316.2,80z"/>
<path class="st28" d="M314,87.7l2.2-7.9c0,0-0.2-1.1-1.9-1.3C312.7,78.3,315.3,82.4,314,87.7z"/>
<g>
	<g>
		<path class="st29" d="M314.2,32"/>
	</g>
</g>
<g>
	<path class="st2" d="M228.4,262.1c-27.9,11.8-51.4,14.2-52.2,11.5c0.8,1.6,0.9,8.1,5.1,12.6C211.1,286.7,228.4,262.1,228.4,262.1z"
		/>
</g>
<g>
	<path class="st2" d="M311.5,263.1c-1.1,0.6-11.9,14.2-13,14.8c-7.2,3.5-16.5,4.4-24.1,6.9l-45.8-22.1
		C235.1,261.5,279.3,289.9,311.5,263.1z"/>
</g>
<g>
	<path class="st2" d="M346.7,248.6c8.7,28.4-20.1,48.4-28.5,54.8c-5.5,4.2-11.2,8.2-16.9,12.1c-17.7,12.2-9.2,6.4-26.9,18.7
		c1.1,0.5,4-1.6,4.9-2.1c3.7-2,7.3-4.2,10.8-6.4c10.7-6.4,64.5-34.8,63.6-61.6c-0.1-2.9-0.9-7-2.1-9.7
		C351.3,253.7,346.8,248,346.7,248.6z"/>
</g>
<g>
	<path class="st2" d="M277.5,404.5c1.8,0.4,3.9-0.1,5.9-0.9c23-42.9,38.9-80.7,30.4-91.1c-2.7,1.8-8.2,4.6-14.1,8
		c-10,5.7-21.4,12.4-25.1,13.8C279.6,333.5,340.7,283.6,277.5,404.5z"/>
</g>
<g>
	<path class="st2" d="M183,288.6c76.9,36.4,104.1,2.9,103.8,2.7c-0.3-0.2-3.3,3.7-3.4,4L258.7,323C258.7,323,190.8,299.4,183,288.6z
		"/>
</g>
<g>
	<path class="st2" d="M261,323.8l-4.5,4.6c-58.6-15.4-79.8-35.4-80.8-35.1c0.7-0.5,7.2-4.9,7.4-4.7c9.9,11.5,70.4,32.2,70.4,32.2
		L261,323.8z"/>
	<path class="st2" d="M260.1,393.3c-0.1,0.3-0.1,0.5-0.2,0.8c-1.4,0-2.8,0.1-4.2,0.1c0-0.1,0.1-0.2,0.1-0.3
		C257.3,393.6,258.7,393.5,260.1,393.3z"/>
</g>
<g>
	<path class="st2" d="M25,194l1.7-3.4c-0.8,1.3-1.5,2.6-2.2,3.9C24.7,194.3,24.9,194.1,25,194z"/>
</g>
<g>
	<path class="st2" d="M241.2,248.5c3.5-0.5,3.9-0.5,7.4-1c-6.8-14.5-12.4-78.4-11.3-81.2c0.5-1.3-4.1,0.2-4.7,0.7
		C231.6,167.8,238.5,230.3,241.2,248.5z"/>
	<path class="st2" d="M277.3,213.6c0,0,17.4-5.9,28.8-2.9c-11.1-4.5-27.9-3.9-27.9-3.9L277.3,213.6z"/>
</g>
<path class="st28" d="M278.2,200.6c0,0,3,5.4,9.4-17.6c-2,6.5-6.3,23.4-6.3,23.4l-2.6,0.3c0,0,0.5-5.1-0.1-6.4"/>
<path class="st3" d="M232.7,166.5c1.8-0.6,5.1-0.8,7-0.8c21.4,0,38.8,17.4,38.8,38.8c0,3.1-0.4,6.2-1.1,9.1"/>
<linearGradient id="SVGID_19_" gradientUnits="userSpaceOnUse" x1="185.7304" y1="141.2113" x2="267.3764" y2="232.9929">
	<stop  offset="0.2355" style="stop-color:#4891FB"/>
	<stop  offset="0.8147" style="stop-color:#227BFB"/>
</linearGradient>
<path class="st30" d="M279.8,107.2c-3.1-6.7-11.1-9.2-18.2-11.1c-17.9-4.6-64.9-11.1-70.7-12.3l-1,0.1l-6.2,11.4l56.1,23.3
	c-6.4,3.6-13,7.7-20.7,12.1c-6.2,3.6-13.1,7.3-21,11.2l-23.9,3.7c-5.4-1.6-10.6-3.3-15.7-5c-12.6-4.3-24.6-8.7-37.6-12.8l0.1-0.4
	c0,0,30-17.8,33.7-20.7s-2.5-16.4-8-14.2c-3.6,2-70.6,18.4-71.5,32.6c-0.2,3.7,3.1,8.6,8.6,14c15.7,15.5,71.1,48.2,71.1,48.2
	c5.5,25.5,17.8,82.9,23.2,85.9c14.9,8.4,59.9-9.7,63.8-23c1.3-6.3-5.9-63.1-9.3-83.2c0,0,14.8-11.1,21.5-16.9
	c6.9-5.9,13.3-12.2,19-19.4c1.2-1.6,2.4-3.3,3.5-5c2.6-4.2,4.5-8.7,4.4-13.2C281,110.7,280.6,108.9,279.8,107.2z M157.1,105.3
	 M189.9,84l-6.2,11.4"/>
<g class="st31">
	<g>
		<defs>
			<path id="SVGID_20_" d="M158.4,140.7c5.1,1.7,10.3,3.4,15.7,5l23.9-3.7c7.9-3.9,14.8-7.6,21-11.2c7.7-4.4,14.3-8.6,20.7-12.1
				l-55.9-22l-24.9,5.1l-38,25.8l-0.1,0.4C133.8,131.9,145.8,136.4,158.4,140.7z M164.2,89.6c0,0,25.2-6.5,29.7-5.5
				c36.5,7.7,49.6,7.4,67.5,12c7.1,1.8,15.1,4.4,18.2,11.1c0.8,1.7,1.2,3.5,1.2,5.2c0.1,4.5-1.8,9-4.4,13.2c-1.1,1.8-2.3,3.4-3.5,5
				c-5.6,7.3-12.1,13.6-19,19.4c-6.7,5.8-21.5,16.9-21.5,16.9c3.4,20.1,10.7,76.9,9.5,83.2c-4.1,15.8-56.6,31-63.8,23
				c-6.6-7.3-16.9-58.4-23.2-85.9c0,0-55.5-32.7-71.2-48.2c-5.5-5.4-8.8-10.3-8.6-14c0.7-12.6,53.9-28.1,74.1-36"/>
		</defs>
		<clipPath id="SVGID_21_">
			<use xlink:href="#SVGID_20_"  style="overflow:visible;"/>
		</clipPath>
		<path class="st32" d="M193.1,274.3c4.3-36.6,25.5-71.1,56.5-91.1"/>
		<path class="st32" d="M210.6,268.4c3.6-15.4,10.9-29.9,21.3-41.8c4.4-5.1,9.8-10,16.5-11.2c0,0.8-0.1,1.6-0.1,2.4"/>
		<path class="st32" d="M129.1,98.2c5,11.7,7.4,24.6,6.8,37.3c-0.8,17.9-7.5,35.5-18.7,49.4"/>
		<path class="st32" d="M102,107.8c2.4,13.8,0.6,28.3-5.2,41.1"/>
		<path class="st32" d="M230.6,114.5c8.3-0.3,16.5-3.6,23.5-8.3c8-5.3,14.7-12.3,21.3-19.3c-1-0.7-2-1.5-3-2.2"/>
		<path class="st32" d="M208.6,75.8c-5.9,6.1-7.7,15.8-4.4,23.6c0.9,2.1,2.1,4,3.5,5.7"/>
		<path class="st32" d="M229.3,78.7c-2.6,2.9-5.2,5.9-6.5,9.6c-1.3,3.7-0.8,8.2,2,10.8c4,3.6,10.3,2,15.1-0.4
			c6.9-3.4,13.3-8,18.7-13.5"/>
		<path class="st32" d="M210.1,159.7c34.7-9.8,65.1-34.1,82.3-65.8"/>
		<path class="st32" d="M150.8,137.6c-5.5,16.7-9.2,34-10.7,51.5c-0.5,5.9-0.8,12,1,17.6c1.8,5.6,6.1,10.8,11.9,12.1
			c8.2,1.8,15.9-4.4,21.8-10.5c24.2-25.4,42.3-56.6,52.2-90.2"/>
	</g>
</g>
<g class="st31">
	<path class="st33" d="M271.3,132.7c-1,1.3-14.6,10.7-17.8,12.6c-4.3,2.6-15.3,9.8-22.4,12.5c-0.6,0.2,1.4,6.4,1.4,9.2
		C235.7,164.3,260.6,147.1,271.3,132.7z"/>
</g>
<g class="st31">
	<path class="st33" d="M79.8,135c7.6,9.9,51.6,39,75.2,52.3c0,0-1.8-3.3-2.6-7.4c-13.5-3.9-19.8-9.9-31.5-17.6
		c-12.1-8-23.9-17-33.7-27.7c-1.9-2.1-4.1-4.3-5.7-6.7c-0.9-1.5-1.6-3.1-1.5-4.9c0.1-2,1.1-3.8,1.5-5.7c-1.4,1-2.7,2-3.8,3.4
		c-0.9,1-2.1,2.4-2.3,3.8c-0.2,1.2-0.1,2.4,0.2,3.5C76.9,130.3,78.3,132.7,79.8,135z"/>
</g>
<g class="st31">
	<path class="st33" d="M116,126.5c-0.4-0.3,41.9-26.9,41.9-26.9l-0.3,5.3l-37.3,22.7L116,126.5z"/>
</g>
<g class="st31">
	<path class="st33" d="M239.4,118.4l5.4-2.8c0,0-40.9-16.7-41.3-16.8l0.2,4.8L239.4,118.4z"/>
</g>
<g class="st31">
	<path class="st33" d="M202.8,273.5c21.2-6.3,36.3-14.7,39.2-23.2c0.7-12.8-4.7-55.3-7.9-73C241.6,239.4,223.1,266.8,202.8,273.5z"
		/>
</g>
<g class="st31">
	<path class="st33" d="M198.4,141.8c1,0.3-14.9,5.6-23.5,9.5c-0.6,0.3-0.7,1.1-0.1,1.5C196.8,167.4,212.9,144.4,198.4,141.8z"/>
</g>
<rect x="350.1" y="194.5" class="st34" width="5.7" height="44.3"/>
<polygon class="st35" points="402.1,238.6 353.5,238.6 353.5,194.9 402.1,194.9 "/>
<path class="st3" d="M183.3,288.6C183.3,288.6,183.2,288.6,183.3,288.6c-4.1,2.3-8,4.7-11.8,7.3"/>
<path class="st3" d="M264.7,392.5c-6.5,1.7-17.9,2.3-24.3,2.6c-12.8,0.4-25.6-0.4-38.2-2.5"/>
<polygon class="st34" points="387.8,216.7 372.1,225.8 372.1,207.7 "/>
<path class="st36" d="M378.3,246.3c0,0,6,50.2-39.7,79"/>
<path class="st14" d="M297.9,321.3c1.7,26.2-8.4,52.4-20.3,75.7"/>
<path class="st14" d="M219.3,278.9c18.2,8.5,37.4,17.3,55.5,25.8"/>
<line class="st37" x1="289.4" y1="288.4" x2="252.4" y2="329.7"/>
<path class="st14" d="M257.9,246.3c15.7-0.5,69.2-1.4,71.6,14.7c0.9,6-3.3,11.4-7.7,15.6c-16.9,16.4-33.6,32.4-50.4,48.6"/>
<path class="st14" d="M266.3,315.4c1.9,7.7,7,13.2,14.2,16.2"/>
<path class="st14" d="M277.5,420.7"/>
<path class="st14" d="M265.4,388.7c4.6,6.1,12.4,9.7,20,9.1"/>
<line class="st37" x1="319.8" y1="14.7" x2="314.5" y2="30.9"/>
<path class="st38" d="M86.7,116.9c18-11.2,37.6-15.2,57.6-21.6"/>
<path class="st37" d="M327.6,246c5.6,0,11.2,0.9,16.5,2.5"/>
<line class="st37" x1="286.7" y1="15.4" x2="316.2" y2="15.4"/>
<line class="st37" x1="304" y1="17.8" x2="313.5" y2="17.8"/>
<path class="st3" d="M339.6,291.7c6.5,5.9,13.6,17.1,15.7,25.6c3.3,13.6-1.8,28.3-10.9,39c-9.1,10.7-21.6,17.9-34.4,23.4
	c-4.9,2.1-14.3,5.8-19.5,7.5"/>
<path class="st3" d="M278.4,206.9c0.4,0,0.8,0,1.1,0c0.5,0,1,0,1.6,0c24.8,0.1,54.1,11,58.4,38.5"/>
<linearGradient id="SVGID_22_" gradientUnits="userSpaceOnUse" x1="-238.0829" y1="524.1666" x2="-117.0844" y2="596.3411" gradientTransform="matrix(0.9991 4.324308e-02 -4.324308e-02 0.9991 281.1786 -156.8073)">
	<stop  offset="0.137" style="stop-color:#9FEFCF"/>
	<stop  offset="0.7363" style="stop-color:#59E3AD"/>
</linearGradient>
<path class="st39" d="M140.7,373.2c4.4,24.4,9.2,81.6-38,87.9c-1.5,0.2-2.9,0.3-4.3,0.4C51.3,463.5,51,388.8,51,388.8l19.6-5.7
	l24.3-7C110.2,378.2,125.6,375.9,140.7,373.2z M117.2,428.9l-4.9-14.6c2.6-3.1,4.1-8.3,3.7-12.6c-0.8-7.1-6.5-11.1-12.5-8.5
	c-0.7,0.3-1.3,0.6-1.9,1c-4.7,3.2-7.3,9.7-6.2,15.5c0.8,4,3.3,6.8,6.3,7.7l0,1.5l0.3,15L117.2,428.9z"/>
<path class="st40" d="M112.3,414.2l4.9,14.6l-15.1,5l-0.3-15l0-1.5c-3.1-0.9-5.5-3.7-6.3-7.7c-1.2-5.8,1.5-12.4,6.2-15.5
	c0.6-0.4,1.2-0.7,1.9-1c6-2.5,11.7,1.4,12.5,8.5C116.5,406,114.9,411.2,112.3,414.2z"/>
<linearGradient id="SVGID_23_" gradientUnits="userSpaceOnUse" x1="-207.7369" y1="565.9074" x2="-178.0161" y2="619.9994" gradientTransform="matrix(0.9991 4.324308e-02 -4.324308e-02 0.9991 281.1786 -156.8073)">
	<stop  offset="5.884560e-03" style="stop-color:#9FEFCF"/>
	<stop  offset="0.7363" style="stop-color:#59E3AD"/>
</linearGradient>
<path class="st41" d="M98.3,461.4l0,0.1c-12,0.6-36.7-2-51.9-29.8l0,0c-11-21.2-11.1-49.5-11.1-49.5l15.7,6.6l0,0
	C51,388.8,51.3,463.5,98.3,461.4z"/>
<linearGradient id="SVGID_24_" gradientUnits="userSpaceOnUse" x1="-212.6024" y1="552.7246" x2="-176.8187" y2="538.5995" gradientTransform="matrix(0.9991 4.324308e-02 -4.324308e-02 0.9991 281.1786 -156.8073)">
	<stop  offset="0.137" style="stop-color:#9FEFCF"/>
	<stop  offset="0.7363" style="stop-color:#59E3AD"/>
</linearGradient>
<path class="st42" d="M95,376.2l-24.3,7L51,388.8l0,0l-15.7-6.6l25.4-7.3c0.1,0.9,0.2,1.7,0.3,2.6c0.5,3.3,3.3,4.1,6.4,4.2
	c0.4,0,0.8,0,1.2-0.1c0.5-0.1,1-0.2,1.5-0.3c2.8-0.8,4.6-2.6,4.2-5.7c-0.2-1.3-0.3-3.2-0.4-4.6C80.8,373.1,87.9,375.2,95,376.2z"/>
<line class="st37" x1="51" y1="388.8" x2="35.3" y2="382.2"/>
<g>
	<path class="st2" d="M69.7,449.4c-3.2-3.7-6.5-8.2-8.7-13c-3.9-1-8.1-3.9-10.6-5.8c-2.7-2.1-5.2-4.6-7.2-7.3
		c-0.2,0.2-0.3,0.4-0.4,0.8c1.6,3.9,3.4,8,5.5,10.8c1.7,2.2,2.8,4.5,4.2,6.7c3.9,3.6,7.5,7.5,11.6,10.9c0,0,0,0,0,0
		c0.8,0.4,1.5,0.9,2.1,1.5c0,0,0,0,0.1,0c2,0.9,3.9,1.9,5.9,2.7c1.2,0.4,2.5,0.8,3.6,1.2c0.6,0.2,1.2,0.4,1.8,0.7
		c0.4,0.1,0.8,0.2,1.2,0.3c0.6,0.1,1.1,0.3,1.4,0.6c1.8,0.6,3.7,1,5.6,1.2C79.7,458.2,74.1,454.5,69.7,449.4z"/>
</g>
<g>
	<path class="st2" d="M143.6,398.7c-0.1,4,0,7.9-0.3,11.9c-0.5,6.4-1.7,13.1-3.2,19.3c-0.4,1.6-0.9,3.1-1.5,4.6
		c-1.3,2.8-3.2,5.5-5,8.2c-1.4,1.9-2.9,3.7-4.5,5.5c-1,1-2.1,1.9-3.2,2.8c7.6-12.7,11.7-27.5,11.5-42.3c0-4.7-0.5-9.5-3-13.5
		c-2.8-4.7-7.9-7.5-12.8-9.8c-9.3-4-19.4-7.3-29.5-8.6c-1.1-0.1-2.9-0.8-4-0.9c-3.3-0.3-5.8-0.2-8.8,0.8c-0.5,6.2-16.6,8.9-16.9,3.5
		c2.5,1.9,7.6,2.1,10.8-0.5c1.2-1.4,1.1-2.5,1.1-3.4c-0.2-0.1-0.3-0.1-0.4-0.2c-0.1-1.6-0.3-3.2-0.5-4.8c0-0.1,0.1-0.5,0.2-0.5
		c9.4,4.3,20.6,5.6,30.8,6.1c25.6,0.7,30.7-3,36.3-3.8C141.5,374.6,142.9,392.9,143.6,398.7z"/>
</g>
<path class="st37" d="M55.5,391.6c1.6,17.2,6.6,56.9,31,65.4"/>
<path class="st37" d="M68.3,430.4c0,0,2.6,11.6,10.1,16.4"/>
<path class="st3" d="M156.7,367c-12.9,6.1-28.8,9.8-46.1,9.8c-43.1,0-78-22.7-78-50.7c0-28,34.9-50.7,78-50.7
	c14.8,0,28.7,2.7,40.5,7.4"/>
<radialGradient id="SVGID_25_" cx="-201.5149" cy="501.7867" r="27.143" gradientTransform="matrix(0.8018 0.5975 -1.284 1.723 864.0267 -408.3584)" gradientUnits="userSpaceOnUse">
	<stop  offset="0" style="stop-color:#E1E1E1"/>
	<stop  offset="0.2801" style="stop-color:#FFFFFF"/>
	<stop  offset="0.8709" style="stop-color:#E1E1E1"/>
</radialGradient>
<path class="st43" d="M96.2,333.6c0.5,3.7-2.1,7.1-5.7,7.6c-6.8,0.9-10.8,6.9-12.6,10.4c-2.7,5.2-4.1,12.7-3.9,19.5
	c0,0.2,0,0.5,0,0.7c0.1,1.3,0.2,2.6,0.3,3.9c0.4,3.1-1.3,4.9-4.2,5.7c-0.5,0.1-1,0.2-1.5,0.3c-0.4,0.1-0.8,0.1-1.2,0.1
	c-3.2-0.1-6-1-6.4-4.2c-0.1-0.8-0.2-1.7-0.3-2.6c-0.2-2.5-0.3-5.1-0.1-7.7c0.4-7.8,2.2-15.7,5.4-21.8c5.2-10.1,13.2-16.3,22.7-17.6
	C92.3,327.3,95.7,329.9,96.2,333.6z"/>
<g>
	<path class="st2" d="M90.2,341.2c3.7-0.5,4.5-2.1,5.6-4c2.8-8.3-7.3-5.2-10.7-3.5c-5.5,2.9-10,7.6-13,13c-4.7,8.5-6.1,18.4-6.8,28
		c-0.2,2.6,0,5.7,2.2,6.9c2.8,0.6,7.3-1.8,6.8-5.2C71.8,359.5,79.5,342.2,90.2,341.2z"/>
</g>
<polygon class="st44" points="154.9,409 150.9,409 150.9,333.9 154.9,333.9 "/>
<g>
	<radialGradient id="SVGID_26_" cx="42.7718" cy="194.9062" r="12.611" gradientUnits="userSpaceOnUse">
		<stop  offset="0" style="stop-color:#F6F8FA"/>
		<stop  offset="6.995250e-02" style="stop-color:#F3F5F8"/>
		<stop  offset="0.4968" style="stop-color:#E2E7EE"/>
		<stop  offset="0.8197" style="stop-color:#DCE2EA"/>
	</radialGradient>
	<rect x="35.9" y="185.4" class="st45" width="9.8" height="9.8"/>
	<rect x="11.2" y="166.6" class="st46" width="20.8" height="20.8"/>
</g>
<g>
	<path class="st14" d="M345.8,290c4.3-3.6,7.7-8.3,9.6-13.6"/>
	<path class="st14" d="M353.6,285.4c2.5-2.9,4.4-6.3,5.5-9.9"/>
	<path class="st14" d="M66.8,137.4c-1.9-3.6-1.3-8.1,0-11.9c2.7-7.6,8.5-14,15.7-17.4"/>
	<path class="st14" d="M62.7,118.6c-3,4.9-4.1,10.9-3,16.5"/>
</g>
<path class="st36" d="M179.4,416.1c9.1,34,75.9,44.3,90.1,10.7"/>
<path class="st2" d="M68.6,283.1c0,0,42.4-24.7,77.6-2.4C146.2,280.7,113.9,266.6,68.6,283.1z"/>
<radialGradient id="SVGID_27_" cx="-2511.3716" cy="-3553.4399" r="31.7548" gradientTransform="matrix(0.5483 0 0 0.5483 1749.0499 2345.5815)" gradientUnits="userSpaceOnUse">
	<stop  offset="0" style="stop-color:#F6F8FA"/>
	<stop  offset="6.995250e-02" style="stop-color:#F3F5F8"/>
	<stop  offset="0.4968" style="stop-color:#E2E7EE"/>
	<stop  offset="0.8197" style="stop-color:#DCE2EA"/>
</radialGradient>
<rect x="362.6" y="384.2" class="st47" width="13.5" height="13.5"/>
<rect x="351.9" y="370" class="st46" width="8.2" height="8.2"/>
<g>
	<g>
		<g>
			
				<linearGradient id="SVGID_28_" gradientUnits="userSpaceOnUse" x1="3339.9456" y1="-829.1707" x2="3399.5623" y2="-829.5735" gradientTransform="matrix(0.8922 -0.4516 0.4516 0.8922 -2438.7605 2384.5378)">
				<stop  offset="0.1718" style="stop-color:#FFD672"/>
				<stop  offset="1" style="stop-color:#F3AD5F"/>
			</linearGradient>
			<path class="st48" d="M205,102.1c0.4,1.3-0.2,2.6-0.5,3.9c-0.7,3.6,1.3,7.1,1.9,10.7c0.8,5.5-2.2,11.4-7.1,14
				c-1.2,0.6-2.4,1-3.7,1.2c-0.1,0-0.2,0-0.3,0l0,0c0,0,0,0,0,0c0,0.1,0.1,0.3,0.1,0.4c0.4,1.6,0.8,3.1,1.3,4.7
				c0.2,0.6,0.4,1.1,0.6,1.7c0.3,0.7,0.6,1.3,0.9,2c0.2,0.5,0.5,1,0.7,1.5c0.8,1.6-1.4,5.6-6.2,9.3c-0.6,0.5-1.3,0.9-1.9,1.2
				c-8.3,4.3-15.9-0.4-15.9-0.4c-0.6-8.8-0.8-11.4-3.7-18.8c1.1-0.4,2.4-1.7,2.7-2.9c0.9-3.6,0.1-7.3-1.1-10.7
				c-0.2-0.6-0.6-1.2-1.2-1.8l-3.2-0.3c-1.2-1.5-1.7-0.7-1.2-2.5l0.2-5.2c-0.4-0.2,3.2-3.8,3-4.1l3.8,0.4l0,0l16-5.8
				c1.1,3,3.4,4.9,5.1,4.3c1.7-0.6,2.2-3.6,1.1-6.6l3.5-1.3l0,0c0.1,0.1,0.1,0.2,0.2,0.3l0.5,0.7c0.4,0.5,0.8,0.9,1.2,1.3
				C203.2,100,204.6,100.7,205,102.1z"/>
			
				<linearGradient id="SVGID_29_" gradientUnits="userSpaceOnUse" x1="-1059.7542" y1="1169.0657" x2="-982.2441" y2="1168.542" gradientTransform="matrix(-0.2433 0.97 0.97 0.2433 -1204.6708 836.6609)">
				<stop  offset="0.1718" style="stop-color:#FFD672"/>
				<stop  offset="1" style="stop-color:#F3AD5F"/>
			</linearGradient>
			<path class="st49" d="M174.5,106.2l16-5.9c0,0,0,0,0-0.1c-1.1-3-0.6-6,1.1-6.6c1.7-0.6,4,1.3,5.1,4.4c0,0,0,0,0,0.1l3.5-1.3
				c-2-3-3.1-7-6-9.1l-0.1-0.1c-0.3,0.2-0.6,0.3-0.9,0.5c-4.4,2.4-9.4,3.7-14.6,3.9l0,0c-1.7,2.2-4.2,4.2-7,5.8l0.1,0.1
				C173.9,100.1,174.9,103.2,174.5,106.2z"/>
		</g>
		<path class="st50" d="M193.9,106.6c-2.7-0.1-4.2-5-3.7-6.1c0.7,0.8,0.9,1.9,1.8,2.5c0.9,0.7,1.6,1.8,2.7,1.8c0.9,0,2.4-1.7,2-0.3
			C196.3,105.6,195.7,106.6,193.9,106.6z"/>
		<path class="st51" d="M196,98.4C196,98.4,196,98.4,196,98.4c-1.1-3.1-3.4-5-5.1-4.4c-1.7,0.6-2.2,3.6-1.1,6.6c0,0,0,0,0,0.1
			c1.1,3,3.4,4.9,5.1,4.3C196.6,104.4,197.1,101.5,196,98.4z"/>
		<path class="st8" d="M190.5,100.4c1.1,3,3.4,4.9,5.1,4.3c1.7-0.6,2.2-3.6,1.1-6.6c0,0,0,0,0-0.1c-1.1-3-3.4-5-5.1-4.4
			C189.9,94.3,189.4,97.3,190.5,100.4C190.5,100.3,190.5,100.4,190.5,100.4z"/>
		<path class="st50" d="M182.9,93c-1,0-2-0.1-2.9,0.3c-1,0.4-1.7,1.3-2.4,2c-1,1-2.1,2-3.3,2.8c-0.8,0.5-1.6,1-2.5,1
			c-0.9,0-1.9-0.7-1.9-1.6c0-0.5,0.3-1,0.7-1.4c0.4-0.4,0.9-0.6,1.4-0.9c2.3-1.4,4.3-3.4,5.6-5.7c3.3,0.8,6.8,0.5,9.9-0.9
			c0.9-0.4,1.7-0.9,2.7-1.2c0.8-0.3,3.3-0.8,2.3,0.8c-0.7,1-1.7,1.9-2.6,2.6C187.8,92.1,185.4,92.9,182.9,93z"/>
		<path class="st50" d="M202.6,105.3c-0.2,0.1-0.4,0.3-0.5,0.5s-0.2,0.5-0.2,0.7c0.1,0.3,0.4,0.4,0.6,0.4c0.5,0.1,1.4-0.1,1.9-0.3
			c0.3-0.5,0.9-3.6,0.6-4.5c-0.5,0-0.8,1.4-1.1,1.8C203.5,104.4,203.1,104.9,202.6,105.3z"/>
		<path class="st50" d="M195.4,131.8c0,0.1,0,0.3,0.1,0.4c0.2,1.3,0.7,2.9,1.3,4.7c0.2,0.5,0.4,1.1,0.6,1.7c0.3,0.6,0.6,1.3,0.9,2
			c0.2,0.5,0.5,1,0.7,1.5c0.8,1.6-1.4,5.6-6.2,9.3c-0.6,0.5-1.3,0.9-1.9,1.2c-1.1-8.9-1.2-12.5-6.6-23.4
			C189.9,132.8,194.8,131.8,195.4,131.8C195.4,131.8,195.4,131.8,195.4,131.8z"/>
		<path class="st50" d="M179.1,106.4c-1.5,0.6-3.3,1.3-4.8,0.7c4.5-2.3,9.2-4.1,14.1-5.5c0.7-0.2,1.9,0.2,0.8,0.7
			c-0.9,0.4-2,0.7-3,1.1C183.8,104.4,181.4,105.4,179.1,106.4z"/>
		<path class="st52" d="M196.7,98.1C196.7,98.1,196.7,98.1,196.7,98.1c-1.1-3.1-3.4-5-5.1-4.4c-1.7,0.6-2.2,3.6-1.1,6.6
			c0,0,0,0,0,0.1c1.1,3,3.4,4.9,5.1,4.3C197.3,104.1,197.8,101.1,196.7,98.1z"/>
		<g>
			<path class="st50" d="M197.5,99.6c0.2-0.1,0.5-0.2,0.7-0.3c0.9-0.5,2.1-0.8,2.9-1.3c0,0,0.1,0,0.1-0.1l-0.6-0.7
				c-0.1,0-0.3,0-0.4,0.1c-1,0.3-2,0.7-3,1.1C197.4,98.9,197.5,99.2,197.5,99.6z"/>
			<g>
				<path class="st51" d="M200.4,96.6C200.4,96.6,200.4,96.6,200.4,96.6c1.3,3,3.7,4.7,5.4,4c1.7-0.7,2-3.7,0.7-6.7
					c-1.3-2.9-3.7-4.7-5.4-4C199.4,90.6,199.1,93.6,200.4,96.6z"/>
				<path class="st8" d="M201.2,96.6c1.3,2.9,3.7,4.7,5.4,4c1.7-0.7,2-3.7,0.7-6.7c-1.3-2.9-3.7-4.7-5.4-4
					C200.2,90.6,199.9,93.6,201.2,96.6C201.2,96.6,201.2,96.6,201.2,96.6z"/>
				<path class="st53" d="M201.2,96.6C201.2,96.6,201.2,96.6,201.2,96.6c1.3,3,3.7,4.7,5.4,4c1.7-0.7,2-3.7,0.7-6.7
					c-1.3-2.9-3.7-4.7-5.4-4C200.2,90.6,199.9,93.6,201.2,96.6z"/>
			</g>
			<polyline class="st52" points="201.2,96.6 200.4,97 197,98.5 			"/>
		</g>
		<polyline class="st52" points="190.5,100.4 174.5,106.2 172.4,107 		"/>
		
			<radialGradient id="SVGID_30_" cx="-1057.5266" cy="1131.6611" r="0" gradientTransform="matrix(-0.2433 0.97 0.97 0.2433 -1204.6708 836.6609)" gradientUnits="userSpaceOnUse">
			<stop  offset="0.1464" style="stop-color:#1B375F"/>
			<stop  offset="1" style="stop-color:#24497E"/>
		</radialGradient>
		<path class="st54" d="M150.3,86.2"/>
		<path class="st51" d="M150.7,94.4c-0.2,2.4,0.5,4.5,1.8,5.9c0.4,0.4,0.9,0.7,1.4,1c1.4,0.7,3.2,0.7,4.6,0c3.8,0.7,8.8-0.4,13.4-3
			c2.9-1.6,5.4-3.6,7-5.8c5.2-0.2,10.2-1.6,14.6-3.9c0.3-0.2,0.6-0.3,0.9-0.5c5.7-3.3,10.2-9.5,7.9-16.3c-1.2-3.7-4.5-6.6-8.4-7
			c-3.4-0.3-6.7,1.3-10.1,1.4c-3.5,0.2-6.9-1.2-10.4-0.6c-2,0.3-3.9,1.3-5.5,2.6c-1.1,0.9-2.1,2.1-3.4,2.9c-1.3,0.9-2.7,1.1-4.1,1.7
			c-7.7,3.3-11.2,13.4-9.8,21.2C150.7,94.2,150.7,94.3,150.7,94.4z"/>
		<path class="st51" d="M172.9,133.6c0.8-0.6,1.2-1.4,1.5-2.2c0.5-1.6,0.7-3.2,0.7-4.7c0-1.6-0.3-3.1-0.7-4.7
			c-0.2-0.8-0.4-1.5-0.7-2.2c-0.1-0.3-0.3-0.8-0.5-1.2c-0.2-0.4-0.5-0.7-0.8-1c-1.1-1.2-2.3-2-2.8-3.3c-0.6-1.3-0.9-2.7-0.5-4
			c0.3-1.3,1.3-2.4,2.5-2.7c1.2-0.3,2.8,0.2,3.3,1.5l0,0c0.1,0.2,0.3,0.2,0.4,0.1c0.1-0.1,0.2-0.2,0.2-0.4c-0.1-0.5-0.4-0.9-0.7-1.2
			c0,0,0,0,0-0.1c0.1-0.4,0.2-0.8,0.2-1.3c0.4-3.2-0.3-6.1-2.5-8.3c-3,1.5-10.3,3.5-14,2.7c-1.3,0.7-2.8,0.7-4,0.2
			c-0.1-0.2-0.3-0.3-0.5-0.3c-0.3,0-0.5,0.3-0.5,0.6c0.1,3.2,1,6.2,2.3,9c1.3,2.8,3,5.4,4.7,8c1.6,2.6,3.2,5.1,4.4,7.9
			c0.6,1.4,1.2,2.8,2,4.2c0.4,0.7,0.8,1.4,1.3,2c0.5,0.6,1.1,1.3,2,1.6C171,134.2,172.1,134.2,172.9,133.6z"/>
	</g>
	<path class="st8" d="M204,112.3c-0.1,0-0.1,0-0.2,0c-0.3,0-0.5,0.1-0.8,0.1c-0.6,0.1-1.2,0.3-1.7,0.5c-0.2,0.1-0.4,0.2-0.4,0.5
		c0,0.1,0.1,0.2,0.2,0.3c0.4,0.4,0.9,0.6,1.4,0.7c0.5,0.1,1.1,0,1.5-0.4c0.3-0.3,0.5-0.8,0.5-1.2c0-0.2-0.1-0.4-0.2-0.5
		C204.2,112.3,204.1,112.3,204,112.3z"/>
</g>
<rect x="154.1" y="333.9" class="st55" width="48.2" height="75.1"/>
<polygon class="st34" points="188.2,371.4 172.6,380.5 172.6,362.4 "/>
<path class="st38" d="M107,109.8c0,0,12.7-5.4,19.2-6.2"/>
</svg>
