<svg xmlns="http://www.w3.org/2000/svg" xmlns:xlink="http://www.w3.org/1999/xlink" viewBox="0 0 447.34 449.34"><defs><style>.cls-1,.cls-12,.cls-17,.cls-21,.cls-3,.cls-32,.cls-36,.cls-40,.cls-41,.cls-42,.cls-43,.cls-50,.cls-57,.cls-6{fill:none;}.cls-2{isolation:isolate;}.cls-21,.cls-3,.cls-40,.cls-48,.cls-6,.cls-60{stroke:#d3dbe5;}.cls-12,.cls-17,.cls-21,.cls-3,.cls-41,.cls-42,.cls-43,.cls-57,.cls-58,.cls-6{stroke-linecap:round;}.cls-12,.cls-3,.cls-41,.cls-42,.cls-43,.cls-57,.cls-58,.cls-6{stroke-linejoin:round;}.cls-3{stroke-width:0.75px;}.cls-4{fill:#91bdfd;}.cls-5,.cls-51{fill:#f6f8fa;}.cls-12,.cls-17,.cls-21,.cls-36,.cls-40,.cls-41,.cls-42,.cls-43,.cls-48,.cls-50,.cls-57,.cls-58,.cls-6,.cls-60{stroke-width:0.25px;}.cls-7{clip-path:url(#clip-path);}.cls-8{fill:#43aa82;}.cls-9{fill:url(#Sfumatura_senza_nome_6);}.cls-10{fill:url(#Sfumatura_senza_nome_31);}.cls-11,.cls-58,.cls-60{fill:#fff;}.cls-12{stroke:#43aa82;}.cls-13{fill:url(#Sfumatura_senza_nome_108);}.cls-14,.cls-31,.cls-37,.cls-51{mix-blend-mode:multiply;}.cls-15{fill:url(#Sfumatura_senza_nome_60);}.cls-16{fill:#dce2ea;}.cls-17{stroke:#a7b6cb;}.cls-17,.cls-21,.cls-32,.cls-36,.cls-40,.cls-48,.cls-50,.cls-60{stroke-miterlimit:10;}.cls-18{fill:url(#Sfumatura_senza_nome_60-2);}.cls-19{fill:url(#Sfumatura_senza_nome_11);}.cls-20{fill:url(#Sfumatura_senza_nome_28);}.cls-22{fill:url(#Sfumatura_senza_nome_6-2);}.cls-23{fill:url(#Sfumatura_senza_nome_6-3);}.cls-24{fill:url(#Sfumatura_senza_nome_6-4);}.cls-25{fill:url(#Sfumatura_senza_nome_6-5);}.cls-26{fill:url(#Sfumatura_senza_nome_6-6);}.cls-27{fill:url(#Sfumatura_senza_nome_6-7);}.cls-28{fill:url(#Sfumatura_senza_nome_6-8);}.cls-29{fill:url(#Sfumatura_senza_nome_6-9);}.cls-30{fill:url(#Sfumatura_senza_nome_12);}.cls-31,.cls-38{fill:#b3b3b3;}.cls-31{opacity:0.1;}.cls-32{stroke:#7c7c7c;}.cls-33{fill:url(#Sfumatura_senza_nome_32);}.cls-34,.cls-37{opacity:0.3;}.cls-35{clip-path:url(#clip-path-2);}.cls-36{stroke:#99c3e4;}.cls-39,.cls-48{fill:#d3dbe5;}.cls-40{fill-rule:evenodd;}.cls-41,.cls-50{stroke:#59e3ad;}.cls-41{stroke-dasharray:3 3 3 3;}.cls-42,.cls-43{stroke:#fff;}.cls-43{opacity:0.5;}.cls-44{fill:url(#Sfumatura_senza_nome_6-10);}.cls-45{fill:url(#Sfumatura_senza_nome_7);}.cls-46{fill:url(#Sfumatura_senza_nome_6-11);}.cls-47{fill:url(#Sfumatura_senza_nome_34);}.cls-49{fill:url(#Sfumatura_senza_nome_11-2);}.cls-52{fill:url(#Sfumatura_senza_nome_11-3);}.cls-53{fill:url(#Sfumatura_senza_nome_17);}.cls-54{fill:url(#Sfumatura_senza_nome_17-2);}.cls-55{fill:#db5437;opacity:0.24;}.cls-56{fill:#24497e;}.cls-57,.cls-58{stroke:#24497e;}.cls-59{fill:url(#Sfumatura_senza_nome_60-3);}</style><clipPath id="clip-path" transform="translate(-12.08 -10.26)"><path class="cls-1" d="M72.55,280.3s34.18-14.09,72.84-1.75l-2-88.87-72.65,2.78Z"/></clipPath><linearGradient id="Sfumatura_senza_nome_6" x1="94.08" y1="200.04" x2="126.07" y2="286.12" gradientUnits="userSpaceOnUse"><stop offset="0.14" stop-color="#9fefcf"/><stop offset="0.74" stop-color="#59e3ad"/></linearGradient><linearGradient id="Sfumatura_senza_nome_31" x1="114.17" y1="259.03" x2="114.32" y2="249.88" gradientUnits="userSpaceOnUse"><stop offset="0.24" stop-color="#4891fb"/><stop offset="1" stop-color="#227bfb"/></linearGradient><radialGradient id="Sfumatura_senza_nome_108" cx="133.31" cy="249.86" r="13.33" gradientUnits="userSpaceOnUse"><stop offset="0.31" stop-color="#fff"/><stop offset="1" stop-color="#e1e1e1"/></radialGradient><radialGradient id="Sfumatura_senza_nome_60" cx="267.3" cy="392.79" r="30.72" gradientUnits="userSpaceOnUse"><stop offset="0.15" stop-color="#1b375f"/><stop offset="1" stop-color="#24497e"/></radialGradient><radialGradient id="Sfumatura_senza_nome_60-2" cx="263.18" cy="320.22" r="34.49" xlink:href="#Sfumatura_senza_nome_60"/><radialGradient id="Sfumatura_senza_nome_11" cx="355.43" cy="239.84" r="100.01" gradientUnits="userSpaceOnUse"><stop offset="0" stop-color="#f6f8fa"/><stop offset="0.07" stop-color="#f3f5f8"/><stop offset="0.5" stop-color="#e2e7ee"/><stop offset="0.82" stop-color="#dce2ea"/></radialGradient><radialGradient id="Sfumatura_senza_nome_28" cx="308.16" cy="80.84" r="149.62" gradientUnits="userSpaceOnUse"><stop offset="0" stop-color="#59e3ad"/><stop offset="0.21" stop-color="#61e4b1"/><stop offset="0.54" stop-color="#76e8bb"/><stop offset="0.93" stop-color="#98eecc"/><stop offset="1" stop-color="#9fefcf"/></radialGradient><linearGradient id="Sfumatura_senza_nome_6-2" x1="162.75" y1="99.24" x2="212.94" y2="99.24" xlink:href="#Sfumatura_senza_nome_6"/><linearGradient id="Sfumatura_senza_nome_6-3" x1="197.55" y1="64.33" x2="174.24" y2="44.22" xlink:href="#Sfumatura_senza_nome_6"/><linearGradient id="Sfumatura_senza_nome_6-4" x1="312.4" y1="10.37" x2="178.61" y2="8.95" xlink:href="#Sfumatura_senza_nome_6"/><linearGradient id="Sfumatura_senza_nome_6-5" x1="384.36" y1="40.47" x2="296.1" y2="11.31" xlink:href="#Sfumatura_senza_nome_6"/><linearGradient id="Sfumatura_senza_nome_6-6" x1="412.07" y1="120.37" x2="467.36" y2="87.93" xlink:href="#Sfumatura_senza_nome_6"/><linearGradient id="Sfumatura_senza_nome_6-7" x1="415.1" y1="136.31" x2="448.45" y2="164.63" xlink:href="#Sfumatura_senza_nome_6"/><linearGradient id="Sfumatura_senza_nome_6-8" x1="357.37" y1="138.21" x2="358.9" y2="173.4" xlink:href="#Sfumatura_senza_nome_6"/><linearGradient id="Sfumatura_senza_nome_6-9" x1="268.89" y1="121.89" x2="258.69" y2="152.49" xlink:href="#Sfumatura_senza_nome_6"/><radialGradient id="Sfumatura_senza_nome_12" cx="298.28" cy="140.65" r="47.38" gradientTransform="translate(0 -36.08) scale(1 1.26)" gradientUnits="userSpaceOnUse"><stop offset="0.05" stop-color="#f6f8fa"/><stop offset="0.12" stop-color="#f3f5f8"/><stop offset="0.52" stop-color="#e2e7ee"/><stop offset="0.82" stop-color="#dce2ea"/></radialGradient><linearGradient id="Sfumatura_senza_nome_32" x1="186.73" y1="139.21" x2="268.38" y2="230.99" gradientUnits="userSpaceOnUse"><stop offset="0.24" stop-color="#4891fb"/><stop offset="0.81" stop-color="#227bfb"/></linearGradient><clipPath id="clip-path-2" transform="translate(-12.08 -10.26)"><path class="cls-1" d="M159.38,138.66c5.09,1.72,10.28,3.4,15.66,5l24-3.74c7.92-3.85,14.78-7.64,21-11.2,7.69-4.44,14.32-8.55,20.68-12.1l-55.92-22L159.83,99.7l-38,25.8-.13.37C134.76,130,146.79,134.41,159.38,138.66Zm5.85-51S190.4,81.15,195,82.09c36.46,7.66,49.63,7.42,67.55,12,7.13,1.84,15.13,4.39,18.2,11.07a13,13,0,0,1,1.2,5.23c.12,4.46-1.82,9-4.4,13.19-1.1,1.76-2.3,3.44-3.51,5a133.19,133.19,0,0,1-19,19.45C248.29,153.88,233.5,165,233.5,165c3.42,20.13,10.73,76.89,9.46,83.24-4.1,15.81-56.57,31-63.8,23-6.63-7.33-16.92-58.36-23.19-85.91,0,0-55.52-32.72-71.21-48.18-5.5-5.43-8.84-10.29-8.62-14,.74-12.6,53.87-28.12,74.09-36"/></clipPath><linearGradient id="Sfumatura_senza_nome_6-10" x1="-230.86" y1="502.71" x2="-109.86" y2="574.89" gradientTransform="translate(274.04 -137.69) rotate(2.48)" xlink:href="#Sfumatura_senza_nome_6"/><linearGradient id="Sfumatura_senza_nome_7" x1="-200.52" y1="544.46" x2="-170.8" y2="598.55" gradientTransform="translate(274.04 -137.69) rotate(2.48)" gradientUnits="userSpaceOnUse"><stop offset="0.01" stop-color="#9fefcf"/><stop offset="0.74" stop-color="#59e3ad"/></linearGradient><linearGradient id="Sfumatura_senza_nome_6-11" x1="-205.38" y1="531.27" x2="-169.6" y2="517.15" gradientTransform="translate(274.04 -137.69) rotate(2.48)" xlink:href="#Sfumatura_senza_nome_6"/><radialGradient id="Sfumatura_senza_nome_34" cx="-194.29" cy="480.33" r="27.14" gradientTransform="matrix(0.8, 0.6, -1.28, 1.72, 831.69, -377.71)" gradientUnits="userSpaceOnUse"><stop offset="0" stop-color="#e1e1e1"/><stop offset="0.28" stop-color="#fff"/><stop offset="0.87" stop-color="#e1e1e1"/></radialGradient><radialGradient id="Sfumatura_senza_nome_11-2" cx="31.69" cy="182.65" r="12.61" xlink:href="#Sfumatura_senza_nome_11"/><radialGradient id="Sfumatura_senza_nome_11-3" cx="-2142.5" cy="-3428.98" r="31.75" gradientTransform="translate(1535.72 2265.08) scale(0.55 0.55)" xlink:href="#Sfumatura_senza_nome_11"/><linearGradient id="Sfumatura_senza_nome_17" x1="3223.5" y1="-646.07" x2="3283.12" y2="-646.47" gradientTransform="translate(-2416.55 2166.58) rotate(-26.85)" gradientUnits="userSpaceOnUse"><stop offset="0.17" stop-color="#ffd672"/><stop offset="1" stop-color="#f3ad5f"/></linearGradient><linearGradient id="Sfumatura_senza_nome_17-2" x1="-1465" y1="1484.01" x2="-1387.49" y2="1483.49" gradientTransform="matrix(-0.24, 0.97, 0.97, 0.24, -1607.74, 1151.12)" xlink:href="#Sfumatura_senza_nome_17"/><radialGradient id="Sfumatura_senza_nome_60-3" cx="-1462.77" cy="1446.6" r="0" gradientTransform="matrix(-0.24, 0.97, 0.97, 0.24, -1607.74, 1151.12)" xlink:href="#Sfumatura_senza_nome_60"/></defs><title>security</title><g class="cls-2"><g id="Layer_1" data-name="Layer 1"><path class="cls-3" d="M87.78,314.2" transform="translate(-12.08 -10.26)"/><path class="cls-4" d="M149,91s2.16-1.55,4.12-.82,6.71,12.17,6.71,12.17l-4.05,2.41Z" transform="translate(-12.08 -10.26)"/><path class="cls-5" d="M262.21,362.52s-12.45-23.55-9.15-27.93c2.08-2.76,3.87.07,3.87.07l13.76,25.87-.5,4.89Z" transform="translate(-12.08 -10.26)"/><path class="cls-5" d="M270.5,362.12c-.47,8-.76,15.89-2.85,24.48-.21.81-1.07,3.41-1.27,4.22-1.41.2-8.12.83-9.6,1-2.65.34-5.38.65-8.16.94-15.36,1.1-30.27-.09-45.49-2.1l-.09-54h2.81v37.67a4.74,4.74,0,0,0,4.38,4.74,308.1,308.1,0,0,0,49-.09c.49-3.14.91-6.31,1.27-9.46.63-5.51,1.55-11.94,1.5-18.26" transform="translate(-12.08 -10.26)"/><polygon class="cls-5" points="133.3 268.29 124.41 265.92 124.01 197.1 133.3 197.1 133.3 268.29"/><path class="cls-5" d="M151.71,367.62c-23.79,15.27-123.89,10.46-117.54-49.86,0,0,12.17,22,39.57,35.59,1.46-7.18,10.79-16.8,10.79-16.8l2.68,3.64a4.91,4.91,0,0,0,.75-.13c1.28-.36,2.58-.7,3.85-1.06l.47-.13c.26-.08.49-.16.73-.26,0,0,0,0,0,0a4.33,4.33,0,0,0,1-.6,3.82,3.82,0,0,0,2.65-4.47,1.8,1.8,0,0,0-.08-.21c0-.05,0-.13,0-.18a3.75,3.75,0,0,0-1.33-2.89c-.13-.1-.28-.18-.41-.28-.42-1.59-1.87-3-4.42-3.15-3.43-.2-6.69.9-9.76,1.94,1.64-2.47,4.3-4.93,7.65-5.39a12.91,12.91,0,0,1,10.19,3,8.65,8.65,0,0,1,2.66,8.6c-1,3.51-4.48,6.45-8.79,7.23a12.37,12.37,0,0,1-4.81-.08,21.5,21.5,0,0,0-9,13.5c18.1,7.77,42.1,11.59,72.75,4.29C151.43,359.93,174,356.37,151.71,367.62Z" transform="translate(-12.08 -10.26)"/><path class="cls-5" d="M93.06,338.58s0,0,0,0c-.24.1-.47.18-.73.26C93.29,338.3,93.89,338,93.06,338.58Z" transform="translate(-12.08 -10.26)"/><path class="cls-5" d="M32.91,267.47s4.89,29,18.33,25c0,0-11,8.55-11.92,12.83C39.32,305.35,29.24,291.9,32.91,267.47Z" transform="translate(-12.08 -10.26)"/><path class="cls-6" d="M88.2,226.13c-.07-1.22-.11-2.45-.11-3.68,0-32,25.08-57.9,56-57.9a54.51,54.51,0,0,1,31.32,9.88" transform="translate(-12.08 -10.26)"/><path class="cls-6" d="M82.9,226.56a49.53,49.53,0,0,1,19.85,4.14" transform="translate(-12.08 -10.26)"/><path class="cls-6" d="M38.76,305.41c-3.77-7.36-6.86-17.22-6.86-26.13,0-29.12,22.83-52.72,51-52.72" transform="translate(-12.08 -10.26)"/><g class="cls-7"><polygon class="cls-8" points="69.67 276.4 64.61 276.4 64.57 191.03 69.67 191.03 69.67 276.4"/><path class="cls-9" d="M142.06,201.28v85.38H78.75V201.28Z" transform="translate(-12.08 -10.26)"/><polyline class="cls-10" points="117.81 248.2 117.95 248.2 118.15 248.21 118.15 261.17 114.39 257.89 110.33 261.18 110.33 248.21 110.41 248.2"/><path class="cls-11" d="M132.33,254.1a6,6,0,1,1-6-6A6,6,0,0,1,132.33,254.1Z" transform="translate(-12.08 -10.26)"/><line class="cls-12" x1="76.12" y1="200.31" x2="117.42" y2="200.31"/><line class="cls-12" x1="76.12" y1="208.61" x2="117.41" y2="208.61"/><line class="cls-12" x1="76.12" y1="216.92" x2="117.42" y2="216.93"/><line class="cls-12" x1="76.12" y1="225.23" x2="117.42" y2="225.23"/><line class="cls-12" x1="76.13" y1="233.54" x2="117.42" y2="233.54"/><path class="cls-13" d="M126.32,260.36a6.29,6.29,0,1,1,0-12.57h0a6.29,6.29,0,1,1,0,12.57Zm0-11.48a5.19,5.19,0,0,0-3.4,9.1h0a5.18,5.18,0,0,0,6.77.06,5.19,5.19,0,0,0-3.35-9.16Z" transform="translate(-12.08 -10.26)"/></g><path class="cls-1" d="M43.71,310.76a.41.41,0,1,0-.5.41" transform="translate(-12.08 -10.26)"/><g class="cls-14"><path class="cls-5" d="M293.58,283.85c2.11-2.71,2.78-4.69,5.24-7.1a106.8,106.8,0,0,0-25.38,6.79c.71-.29,5.83,4,6.89,4.39,2.32.82,6.33-1.09,8.55-2.1C289.89,285.38,292.65,284.43,293.58,283.85Z" transform="translate(-12.08 -10.26)"/></g><path class="cls-5" d="M261.71,388.83l-.43,2.41-.16,0C261.31,390.45,261.51,389.64,261.71,388.83Z" transform="translate(-12.08 -10.26)"/><path class="cls-15" d="M296,429.6c.74,2.34,1.11,5.5-1.11,6.7-2,1.08-4.39-.39-6.14-1.8L272,421c-3.68-2.95-7.45-6-9.68-10.09s-.11-14.11,2.93-17.71c3.92,4,9,10.4,17.7,7.37C288.68,409.45,292.84,419.63,296,429.6Z" transform="translate(-12.08 -10.26)"/><g class="cls-14"><path class="cls-5" d="M355.9,333.48s-1.87,33.88-65.5,52.14l1.27-8.14c5.06-11.39,12.9-21.48,18-32.87a70.39,70.39,0,0,0,4.92-16.29c.91-5.41.76-13.89-2.29-18.44,1.29,1.92,26.14-19,28.21-20.57.34,4.51-9.05,21-17.17,24.77,3.91,10.77-15.56,55.21-15.6,55.31C324.85,362.21,344.86,348.92,355.9,333.48Z" transform="translate(-12.08 -10.26)"/></g><path class="cls-16" d="M290,290.22l-28,31.59-44.28-16.88c-8.67-3.31-17.41-6.64-25.18-11.71a67.36,67.36,0,0,1-8.28-6.56c-6.1-5.53-7.5-19.82-7.5-19.82,4.19,2.87,30.94,2.79,50.87-6.74l50.7,24.36,4.6,2.13C285.15,287.7,289.3,289.83,290,290.22ZM266.4,386.8c-.55,3.8-1,6.93-1.26,9.05,3.64,4.63,10,8.12,19.18,5.73,6.08-15,43.63-76.81,29.88-92.84-14.71,9.7-23.09,13.3-37.51,22.87-3.93,13.19-8.07,39.7-10.29,55.19" transform="translate(-12.08 -10.26)"/><path class="cls-17" d="M182.33,282.88c7.9-2,47.95-13.2,53.82-37.5" transform="translate(-12.08 -10.26)"/><path class="cls-18" d="M282.26,364.1c.13,2.6-.33,5.94-2.84,6.6-2.27.59-4.26-1.54-5.63-3.44l-13.14-18.17a75.85,75.85,0,0,1-6.52-10.79c-2-4.09-1.62-8.07.85-12a26.9,26.9,0,0,1,4-4.76c.32-.31,4.8-5,4.68-5.2,2.84,5.16,2.53,15.5,12,14.65C279.05,341.59,281.69,353,282.26,364.1Z" transform="translate(-12.08 -10.26)"/><path class="cls-19" d="M275.54,332.3c-6.09-.7-11.6-7.58-12.37-14.64,5.14-5.92,32.22-37,36.08-41.19-6.89,1.82-16.65,4.41-23.89,6.31l-.06.12c2.91,1.4,5.53,2.67,7.59,3.69l-4.6-2.13-50.7-24.36c8.43-4,13.81-13.76,13.81-13.76,29.54-4.93,64.29-6.5,94.06-3.36,1.65.18,3.35.37,5,.7a18,18,0,0,1,7.3,3c4.36,3.25,6.67,9.18,7.29,14.44C355.91,295.31,281.18,328.57,275.54,332.3Z" transform="translate(-12.08 -10.26)"/><path class="cls-20" d="M196.35,29v-.51L315.18,30,422.61,73.46s-6.28,30.72,36.53,59.68l-.11.16c-.77-.24-24.83-7.91-43.48,7.44a27.85,27.85,0,0,0-7.07,30.48c-.46-.5-15.38-16.75-47.58-18.95-31.18-2.11-50.53,10.26-52.28,11.44A155.63,155.63,0,0,0,297,150.44l-3.36-3.2c-7.77-7.06-18.24-14.49-30.53-18a94.48,94.48,0,0,0-50.19-.43s.45-28.28-18-44.32c-15.26-13.24-26.76-14.66-30.3-14.76C180.09,69.34,204.25,58.91,196.35,29Z" transform="translate(-12.08 -10.26)"/><path class="cls-21" d="M315.86,77.46c36.32,24.76,67.95,57.38,92.62,93.76" transform="translate(-12.08 -10.26)"/><path class="cls-21" d="M459.14,133.14c-16.89-9.63-127.27-58.36-143.28-55.68,35.59-5.29,71.22-9.65,106.75-4" transform="translate(-12.08 -10.26)"/><path class="cls-21" d="M196.36,28.49c41.25,8.25,85.25,24.52,119.5,49,.29-16-.44-31.15-.68-47.49" transform="translate(-12.08 -10.26)"/><path class="cls-21" d="M164.6,69.71c21.32-2.14,124.13,4.38,151.26,7.75" transform="translate(-12.08 -10.26)"/><path class="cls-21" d="M212.94,128.79c33.41-19.51,66.53-38.16,102.92-51.33" transform="translate(-12.08 -10.26)"/><path class="cls-21" d="M308.53,163.19c6.54-28.6,8.38-56.54,6.8-85.83" transform="translate(-12.08 -10.26)"/><g class="cls-14"><path class="cls-5" d="M355,92.14c-3.35,10.88-22.67,14.57-44.12,8.55L317.21,78c-.81-2.19-4-1-4-1l-6.34,22.52c-21-7.06-35.6-21.18-32.26-32,3.45-11.21,24.23-14.77,46.44-7.95S358.46,80.93,355,92.14Z" transform="translate(-12.08 -10.26)"/></g><path class="cls-22" d="M163.47,69.72h1.13c3.54.1,15,1.52,30.3,14.76,18.49,16,18,44.32,18,44.32l-.07.18-.29-.11L162.75,70.11l.48-.59Z" transform="translate(-12.08 -10.26)"/><path class="cls-23" d="M163.23,69.52l32.61-41h.52V29c7.9,29.91-16.26,40.34-31.75,40.71a8.85,8.85,0,0,0-1.13,0Z" transform="translate(-12.08 -10.26)"/><polygon class="cls-24" points="309.03 1.49 309.03 1.5 303.09 19.71 184.27 18.23 183.76 18.22 224.28 0 309.03 1.49"/><polygon class="cls-25" points="395.29 37.55 410.8 63.04 410.53 63.21 303.09 19.71 309.03 1.5 309.03 1.49 309.05 1.49 395.29 37.55"/><path class="cls-26" d="M422.89,73.3l36.53,60h0l-.27-.17c-42.81-29-36.53-59.68-36.53-59.68Z" transform="translate(-12.08 -10.26)"/><path class="cls-27" d="M459.41,133.31h0l-50.74,38.16-.18-.24v0a27.85,27.85,0,0,1,7.07-30.48c18.65-15.35,42.71-7.68,43.48-7.44l.11-.16Z" transform="translate(-12.08 -10.26)"/><path class="cls-28" d="M408.49,171.24l.18.24-.18.13-99.63-7.82-.24-.08c1.75-1.18,21.1-13.55,52.28-11.44,32.2,2.2,47.12,18.45,47.58,18.95Z" transform="translate(-12.08 -10.26)"/><path class="cls-29" d="M308.62,163.71l-.25-.09-13.64-5-3.86-1.4-78-28.3.07-.18a94.48,94.48,0,0,1,50.19.43c12.29,3.53,22.76,11,30.53,18l3.36,3.2A155.63,155.63,0,0,1,308.62,163.71Z" transform="translate(-12.08 -10.26)"/><path class="cls-30" d="M317.21,78,298.4,145.71l-2.29,8.23-14,50.43v.49c-.53,0-1.06,0-1.57,0-.18-.53-.7.41-.9-.11-.34-.89.07-3.55-.3-4.42l12.91-47.8,2.79-10,18.21-65.65C313.56,75.78,317.54,76.71,317.21,78Z" transform="translate(-12.08 -10.26)"/><path class="cls-31" d="M315,85.73l2.21-7.86s-.17-1.14-1.87-1.34S316.31,80.45,315,85.73Z" transform="translate(-12.08 -10.26)"/><path class="cls-32" d="M315.18,30" transform="translate(-12.08 -10.26)"/><g class="cls-14"><path class="cls-5" d="M229.36,260.07c-27.93,11.76-51.35,14.23-52.25,11.49.76,1.55.91,8.13,5.08,12.61C212.14,284.73,229.36,260.07,229.36,260.07Z" transform="translate(-12.08 -10.26)"/></g><g class="cls-14"><path class="cls-5" d="M312.54,261.08c-1.15.61-11.88,14.24-13.05,14.8-7.24,3.47-16.46,4.37-24.13,6.9L229.52,260.7C236.06,259.46,280.33,287.93,312.54,261.08Z" transform="translate(-12.08 -10.26)"/></g><g class="cls-14"><path class="cls-5" d="M347.75,246.65c8.66,28.44-20.12,48.37-28.46,54.84-5.48,4.24-11.18,8.2-16.88,12.14-17.7,12.22-9.17,6.45-26.87,18.67,1.06.51,4-1.65,4.86-2.11,3.67-2,7.25-4.21,10.85-6.35,10.68-6.37,64.5-34.78,63.58-61.58a28.87,28.87,0,0,0-2.14-9.69C352.27,251.66,347.85,246.05,347.75,246.65Z" transform="translate(-12.08 -10.26)"/></g><g class="cls-14"><path class="cls-5" d="M278.46,402.48a10.36,10.36,0,0,0,5.86-.9c23-42.94,38.86-80.68,30.44-91.13-2.72,1.81-8.23,4.63-14.12,8-10,5.72-21.4,12.42-25.1,13.84C280.57,331.45,341.74,281.59,278.46,402.48Z" transform="translate(-12.08 -10.26)"/></g><g class="cls-14"><path class="cls-5" d="M184,286.62c76.93,36.36,104.14,2.86,103.79,2.68s-3.35,3.66-3.39,4.05L259.7,321S191.76,297.38,184,286.62Z" transform="translate(-12.08 -10.26)"/></g><g class="cls-14"><path class="cls-5" d="M262,321.81l-4.53,4.65c-58.62-15.36-79.79-35.39-80.82-35.1.7-.46,7.19-4.94,7.38-4.73,9.88,11.46,70.43,32.22,70.43,32.22Z" transform="translate(-12.08 -10.26)"/><path class="cls-5" d="M261.12,391.26c-.07.28-.13.54-.2.81l-4.2.09c0-.11,0-.23.06-.34C258.25,391.65,259.7,391.46,261.12,391.26Z" transform="translate(-12.08 -10.26)"/></g><g class="cls-14"><path class="cls-5" d="M26,192l1.73-3.37c-.78,1.27-1.51,2.58-2.19,3.91Z" transform="translate(-12.08 -10.26)"/></g><g class="cls-14"><path class="cls-5" d="M242.25,246.5c3.5-.49,3.93-.51,7.42-1-6.82-14.48-12.35-78.38-11.29-81.22.47-1.28-4.12.19-4.74.7C232.64,165.8,239.54,228.32,242.25,246.5Z" transform="translate(-12.08 -10.26)"/><path class="cls-5" d="M278.32,211.65s17.43-5.87,28.82-2.91c-11.07-4.49-27.91-3.9-27.91-3.9Z" transform="translate(-12.08 -10.26)"/></g><path class="cls-31" d="M279.21,198.57s3,5.4,9.39-17.58c-2,6.48-6.32,23.42-6.32,23.42l-2.64.35s.49-5.11-.05-6.39" transform="translate(-12.08 -10.26)"/><path class="cls-6" d="M233.71,164.53a26.18,26.18,0,0,1,7-.76,38.8,38.8,0,0,1,37.71,47.85" transform="translate(-12.08 -10.26)"/><path class="cls-33" d="M280.83,105.21c-3.07-6.69-11.07-9.24-18.2-11.08-17.91-4.63-64.95-11-70.74-12.3l-1,.13-6.21,11.36,56,23.3c-6.37,3.56-13,7.67-20.67,12.11-6.18,3.57-13.05,7.34-21,11.21l-23.94,3.72c-5.38-1.59-10.56-3.28-15.66-5-12.58-4.27-24.62-8.71-37.62-12.8l.13-.39s30-17.79,33.74-20.72-2.49-16.37-8-14.21c-3.65,2-70.63,18.4-71.54,32.57-.23,3.69,3.12,8.55,8.63,14C100.57,152.58,156,185.29,156,185.29c5.51,25.51,17.82,82.89,23.19,85.91,14.92,8.39,59.85-9.7,63.8-23,1.27-6.34-5.91-63.11-9.32-83.23,0,0,14.8-11.1,21.53-16.9a131.63,131.63,0,0,0,19-19.45c1.2-1.56,2.42-3.25,3.51-5,2.58-4.16,4.53-8.74,4.4-13.21A13,13,0,0,0,280.83,105.21Zm-122.72-1.93M190.92,82l-6.21,11.36" transform="translate(-12.08 -10.26)"/><g class="cls-34"><g class="cls-35"><path class="cls-36" d="M194.12,272.33c4.27-36.63,25.47-71.06,56.48-91.09" transform="translate(-12.08 -10.26)"/><path class="cls-36" d="M211.6,266.44a98.26,98.26,0,0,1,21.27-41.8c4.44-5.13,9.83-10,16.51-11.22,0,.79,0,1.57-.08,2.36" transform="translate(-12.08 -10.26)"/><path class="cls-36" d="M130.06,96.15a84.86,84.86,0,0,1-11.88,86.78" transform="translate(-12.08 -10.26)"/><path class="cls-36" d="M103,105.78a71.35,71.35,0,0,1-5.17,41.12" transform="translate(-12.08 -10.26)"/><path class="cls-36" d="M231.64,112.52c8.34-.3,16.47-3.63,23.46-8.29,8-5.33,14.67-12.33,21.29-19.28l-3-2.2" transform="translate(-12.08 -10.26)"/><path class="cls-36" d="M209.63,73.81a22.32,22.32,0,0,0-4.37,23.55,21.58,21.58,0,0,0,3.53,5.7" transform="translate(-12.08 -10.26)"/><path class="cls-36" d="M230.29,76.71c-2.57,2.92-5.2,5.94-6.46,9.61s-.85,8.2,2,10.8c4,3.57,10.26,2,15.06-.38a68.59,68.59,0,0,0,18.69-13.49" transform="translate(-12.08 -10.26)"/><path class="cls-36" d="M211.13,157.68a137.21,137.21,0,0,0,82.3-65.76" transform="translate(-12.08 -10.26)"/><path class="cls-36" d="M151.85,135.63a228.75,228.75,0,0,0-10.73,51.5c-.53,5.89-.81,12,1,17.6s6.1,10.81,11.87,12.1c8.24,1.84,15.93-4.4,21.76-10.5A222.91,222.91,0,0,0,228,116.16" transform="translate(-12.08 -10.26)"/></g></g><g class="cls-37"><path class="cls-38" d="M272.32,130.65c-1,1.3-14.65,10.75-17.77,12.64-4.31,2.63-15.32,9.81-22.35,12.51-.56.21,1.4,6.37,1.44,9.17C236.74,162.3,261.59,145.1,272.32,130.65Z" transform="translate(-12.08 -10.26)"/></g><g class="cls-37"><path class="cls-38" d="M80.81,133c7.6,9.87,51.59,39,75.16,52.28a27.21,27.21,0,0,1-2.63-7.41c-13.52-3.91-19.82-9.89-31.51-17.56-12.14-8-23.88-17-33.74-27.74a51.13,51.13,0,0,1-5.69-6.71A8.6,8.6,0,0,1,80.9,121c.08-2,1.07-3.81,1.53-5.74a19.4,19.4,0,0,0-3.83,3.35c-.87,1-2.14,2.41-2.33,3.82a10.37,10.37,0,0,0,.18,3.51C77.94,128.27,79.27,130.68,80.81,133Z" transform="translate(-12.08 -10.26)"/></g><g class="cls-37"><path class="cls-38" d="M117,124.53c-.42-.29,41.9-26.85,41.9-26.85l-.32,5.3-37.27,22.75Z" transform="translate(-12.08 -10.26)"/></g><g class="cls-37"><path class="cls-38" d="M240.42,116.43l5.38-2.83s-40.88-16.67-41.28-16.81l.19,4.79Z" transform="translate(-12.08 -10.26)"/></g><g class="cls-37"><path class="cls-38" d="M203.76,271.46c21.22-6.32,36.33-14.74,39.2-23.25.68-12.79-4.71-55.27-7.87-73C242.56,237.4,224.15,264.78,203.76,271.46Z" transform="translate(-12.08 -10.26)"/></g><g class="cls-37"><path class="cls-38" d="M199.43,139.81c1,.32-15,5.58-23.49,9.51a.84.84,0,0,0-.1,1.47C197.82,165.44,213.87,142.37,199.43,139.81Z" transform="translate(-12.08 -10.26)"/></g><rect class="cls-39" x="338.97" y="182.29" width="5.66" height="44.34"/><polygon class="cls-40" points="390.98 226.36 342.39 226.37 342.39 182.63 390.98 182.63 390.98 226.36"/><path class="cls-6" d="M184.31,286.62l-.09.05q-6,3.38-11.7,7.29" transform="translate(-12.08 -10.26)"/><path class="cls-6" d="M265.68,390.54c-6.46,1.69-17.93,2.34-24.31,2.55a193.83,193.83,0,0,1-38.2-2.49" transform="translate(-12.08 -10.26)"/><polygon class="cls-39" points="376.71 204.49 361.04 213.54 361.05 195.45 376.71 204.49"/><path class="cls-41" d="M379.27,244.3s6,50.2-39.66,79" transform="translate(-12.08 -10.26)"/><path class="cls-17" d="M298.9,319.28c1.68,26.24-8.43,52.44-20.28,75.72" transform="translate(-12.08 -10.26)"/><path class="cls-17" d="M220.29,276.91c18.17,8.45,37.37,17.32,55.54,25.77" transform="translate(-12.08 -10.26)"/><line class="cls-42" x1="278.32" y1="276.17" x2="241.33" y2="317.46"/><path class="cls-17" d="M258.92,244.26c15.75-.46,69.16-1.4,71.64,14.67.92,6-3.34,11.39-7.72,15.64C306,290.92,289.25,307,272.48,323.21" transform="translate(-12.08 -10.26)"/><path class="cls-17" d="M267.33,313.43c1.91,7.72,7,13.17,14.18,16.18" transform="translate(-12.08 -10.26)"/><path class="cls-17" d="M278.53,418.67" transform="translate(-12.08 -10.26)"/><path class="cls-17" d="M266.43,386.69a23,23,0,0,0,20,9.06" transform="translate(-12.08 -10.26)"/><line class="cls-42" x1="308.67" y1="2.42" x2="303.43" y2="18.6"/><path class="cls-43" d="M87.69,114.93c18-11.23,37.59-15.21,57.59-21.6" transform="translate(-12.08 -10.26)"/><path class="cls-42" d="M328.56,244a57.56,57.56,0,0,1,16.53,2.52" transform="translate(-12.08 -10.26)"/><line class="cls-42" x1="275.59" y1="3.17" x2="305.15" y2="3.17"/><line class="cls-42" x1="292.88" y1="5.58" x2="302.46" y2="5.58"/><path class="cls-6" d="M340.61,289.71c6.54,5.87,13.58,17.09,15.68,25.63,3.34,13.59-1.82,28.28-10.87,39S323.84,372.15,311,377.7c-5,2.12-14.35,5.81-19.45,7.5" transform="translate(-12.08 -10.26)"/><path class="cls-6" d="M279.4,204.89l1.14,0c.51,0,1,0,1.57,0,24.84.06,54.09,11,58.4,38.46" transform="translate(-12.08 -10.26)"/><path class="cls-44" d="M141.68,371.15c4.39,24.39,9.16,81.55-38,87.89-1.47.2-2.9.32-4.29.38C52.26,461.47,52,386.85,52,386.85l19.64-5.67,24.33-7C111.22,376.18,126.56,373.88,141.68,371.15Zm-23.49,55.72-4.85-14.63A18,18,0,0,0,117,399.61c-.78-7.11-6.46-11.08-12.49-8.55a11,11,0,0,0-1.88,1,15.62,15.62,0,0,0-6.17,15.53c.81,4,3.29,6.8,6.34,7.73l0,1.52.26,15Z" transform="translate(-12.08 -10.26)"/><path class="cls-8" d="M113.34,412.24l4.85,14.63-15.11,5-.26-15,0-1.52c-3.05-.93-5.53-3.7-6.34-7.73a15.62,15.62,0,0,1,6.17-15.53,11,11,0,0,1,1.88-1c6-2.53,11.71,1.44,12.49,8.55A18,18,0,0,1,113.34,412.24Z" transform="translate(-12.08 -10.26)"/><path class="cls-45" d="M99.35,459.42v.11c-12,.57-36.7-2-51.91-29.83h0c-11-21.25-11.11-49.46-11.11-49.46L52,386.85h0S52.26,461.47,99.35,459.42Z" transform="translate(-12.08 -10.26)"/><path class="cls-46" d="M96,374.16l-24.32,7L52,386.85h0l-15.68-6.61,25.35-7.32c.07.88.17,1.75.29,2.59.45,3.27,3.25,4.08,6.44,4.22a7.11,7.11,0,0,0,1.21-.06,10.9,10.9,0,0,0,1.51-.3c2.83-.76,4.6-2.56,4.16-5.71-.16-1.25-.3-3.23-.36-4.56C81.82,371.07,88.88,373.21,96,374.16Z" transform="translate(-12.08 -10.26)"/><line class="cls-42" x1="39.92" y1="376.59" x2="24.25" y2="369.99"/><g class="cls-14"><path class="cls-5" d="M70.68,447.44a55,55,0,0,1-8.73-13c-3.91-1-8.15-3.92-10.57-5.78a37.27,37.27,0,0,1-7.21-7.31,1.06,1.06,0,0,0-.36.77c1.59,3.9,3.37,7.95,5.47,10.77,1.68,2.24,2.77,4.46,4.2,6.67,3.94,3.56,7.48,7.55,11.6,10.86h0a11.48,11.48,0,0,1,2.13,1.46l.05,0c2,.94,3.89,1.89,5.87,2.73,1.24.4,2.47.78,3.63,1.21l1.81.67c.39.09.77.2,1.16.28a3.72,3.72,0,0,1,1.44.62,24.08,24.08,0,0,0,5.61,1.19A41.78,41.78,0,0,1,70.68,447.44Z" transform="translate(-12.08 -10.26)"/></g><g class="cls-14"><path class="cls-5" d="M144.64,396.72c-.08,3.95,0,7.9-.28,11.85a119.56,119.56,0,0,1-3.25,19.35,47.9,47.9,0,0,1-1.46,4.63,57.9,57.9,0,0,1-5,8.16,65.56,65.56,0,0,1-4.53,5.46q-1.56,1.44-3.19,2.83a80.82,80.82,0,0,0,11.54-42.33c0-4.65-.55-9.49-3-13.46-2.8-4.68-7.85-7.54-12.81-9.75-9.34-4-19.43-7.34-29.52-8.56-1.11-.13-2.91-.79-4-.87a20.94,20.94,0,0,0-8.84.77c-.53,6.2-16.58,8.87-16.92,3.49,2.45,1.9,7.61,2.1,10.83-.53a4.75,4.75,0,0,0,1.15-3.35c-.16-.08-.29-.13-.42-.21-.13-1.61-.28-3.2-.47-4.78,0-.05.13-.47.16-.55,9.36,4.32,20.64,5.56,30.78,6.09,25.61.67,30.66-3,36.3-3.8C142.51,372.56,143.94,390.87,144.64,396.72Z" transform="translate(-12.08 -10.26)"/></g><path class="cls-42" d="M56.55,389.56c1.56,17.16,6.56,56.94,31,65.39" transform="translate(-12.08 -10.26)"/><path class="cls-42" d="M69.32,428.38S71.93,440,79.45,444.74" transform="translate(-12.08 -10.26)"/><path class="cls-6" d="M157.67,365c-12.92,6.15-28.85,9.78-46.09,9.78-43.08,0-78-22.68-78-50.66s34.93-50.65,78-50.65a110.77,110.77,0,0,1,40.54,7.37" transform="translate(-12.08 -10.26)"/><path class="cls-47" d="M97.23,331.56a6.74,6.74,0,0,1-5.75,7.59c-6.79.94-10.81,7-12.61,10.44-2.69,5.25-4.08,12.69-3.94,19.51q0,.34,0,.69c.06,1.32.17,2.62.33,3.88.45,3.14-1.33,4.94-4.16,5.7a11.21,11.21,0,0,1-1.51.3,7.18,7.18,0,0,1-1.22.06c-3.18-.14-6-1-6.43-4.22-.12-.84-.21-1.71-.29-2.58a59.39,59.39,0,0,1-.13-7.68c.36-7.78,2.21-15.71,5.35-21.81,5.17-10.05,13.24-16.31,22.74-17.62A6.74,6.74,0,0,1,97.23,331.56Z" transform="translate(-12.08 -10.26)"/><g class="cls-14"><path class="cls-5" d="M91.16,339.18c3.66-.49,4.5-2.12,5.59-4,2.82-8.31-7.33-5.21-10.69-3.46a32.15,32.15,0,0,0-13,13c-4.69,8.48-6.13,18.35-6.81,28-.18,2.55,0,5.67,2.24,6.88,2.8.6,7.34-1.78,6.84-5.23C72.81,357.48,80.52,340.22,91.16,339.18Z" transform="translate(-12.08 -10.26)"/></g><polygon class="cls-48" points="143.86 396.71 139.78 396.71 139.78 321.65 143.78 321.65 143.86 396.71"/><rect class="cls-49" x="24.81" y="173.16" width="9.78" height="9.78"/><rect class="cls-50" x="0.13" y="154.32" width="20.81" height="20.81"/><path class="cls-17" d="M346.78,288a32.34,32.34,0,0,0,9.6-13.55" transform="translate(-12.08 -10.26)"/><path class="cls-17" d="M354.57,283.38a28.77,28.77,0,0,0,5.51-9.91" transform="translate(-12.08 -10.26)"/><path class="cls-17" d="M67.81,135.45c-1.87-3.63-1.32-8,0-11.9A31,31,0,0,1,83.6,106.18" transform="translate(-12.08 -10.26)"/><path class="cls-17" d="M63.75,116.63a23.1,23.1,0,0,0-3,16.49" transform="translate(-12.08 -10.26)"/><path class="cls-41" d="M180.39,414.15c9.07,34,75.88,44.34,90.12,10.68" transform="translate(-12.08 -10.26)"/><path class="cls-51" d="M69.63,281.13s42.45-24.66,77.62-2.43C147.25,278.7,114.91,264.55,69.63,281.13Z" transform="translate(-12.08 -10.26)"/><rect class="cls-52" x="351.53" y="371.92" width="13.5" height="13.5"/><rect class="cls-50" x="340.81" y="357.73" width="8.19" height="8.19"/><path class="cls-53" d="M206,100.09c.38,1.26-.22,2.55-.47,3.85-.68,3.55,1.33,7,1.87,10.65a13.82,13.82,0,0,1-7.12,14,12.67,12.67,0,0,1-3.67,1.21h-.25v0h0l.09.42a44.66,44.66,0,0,0,1.35,4.68c.2.57.42,1.12.64,1.66s.55,1.32.88,2c.22.5.46,1,.7,1.51.8,1.57-1.4,5.57-6.15,9.26a14.29,14.29,0,0,1-1.93,1.18c-8.3,4.29-15.88-.38-15.88-.38-.63-8.8-.81-11.4-3.73-18.83a5.26,5.26,0,0,0,2.74-2.88c.9-3.57.11-7.28-1.06-10.68a5.47,5.47,0,0,0-1.16-1.77l-3.18-.35c-1.17-1.5-1.73-.66-1.2-2.48l.22-5.21c-.38-.18,3.16-3.78,3-4.08l3.81.37h0l16-5.82c1.14,3,3.39,4.92,5.09,4.3s2.19-3.56,1.1-6.56l3.53-1.32v0c.09.1.15.22.22.3l.52.7a10.1,10.1,0,0,0,1.19,1.26C204.24,98,205.64,98.74,206,100.09Z" transform="translate(-12.08 -10.26)"/><path class="cls-54" d="M175.52,104.24l16-5.85,0-.06c-1.11-3-.61-6,1.11-6.62s4,1.32,5.1,4.36a.11.11,0,0,1,0,.05l3.54-1.3c-2-3-3.06-7-6-9.11l-.06-.1c-.28.17-.57.34-.86.49A33.17,33.17,0,0,1,179.7,90v0a22.07,22.07,0,0,1-7,5.78l.08.14A10.18,10.18,0,0,1,175.52,104.24Z" transform="translate(-12.08 -10.26)"/><path class="cls-55" d="M194.9,104.61c-2.7-.14-4.24-5-3.68-6.11.69.83.92,1.86,1.8,2.53s1.58,1.78,2.7,1.79c.95,0,2.42-1.72,2-.26A2.61,2.61,0,0,1,194.9,104.61Z" transform="translate(-12.08 -10.26)"/><path class="cls-56" d="M197,96.45l0,0c-1.1-3-3.39-5-5.1-4.37s-2.22,3.6-1.1,6.63a.14.14,0,0,0,0,.06c1.12,3,3.39,4.92,5.09,4.3S198.07,99.46,197,96.45Z" transform="translate(-12.08 -10.26)"/><path class="cls-11" d="M191.54,98.39c1.12,3,3.38,4.92,5.09,4.3s2.2-3.56,1.11-6.57a.11.11,0,0,0,0-.05c-1.11-3-3.39-5-5.1-4.36s-2.22,3.59-1.11,6.62Z" transform="translate(-12.08 -10.26)"/><path class="cls-55" d="M183.92,91a8.13,8.13,0,0,0-2.92.3,7.24,7.24,0,0,0-2.4,2,19.19,19.19,0,0,1-3.26,2.77,4.57,4.57,0,0,1-2.49,1A1.85,1.85,0,0,1,171,95.44a1.89,1.89,0,0,1,.69-1.41,7.24,7.24,0,0,1,1.36-.89,14.77,14.77,0,0,0,5.57-5.74,15.41,15.41,0,0,0,9.93-.88c.89-.4,1.75-.88,2.67-1.19s3.33-.77,2.28.78a10.37,10.37,0,0,1-2.65,2.55A12.38,12.38,0,0,1,183.92,91Z" transform="translate(-12.08 -10.26)"/><path class="cls-55" d="M203.57,103.3a2.79,2.79,0,0,0-.54.49.86.86,0,0,0-.16.73.71.71,0,0,0,.61.39,4.79,4.79,0,0,0,1.92-.34c.3-.54.94-3.61.64-4.48-.47,0-.8,1.43-1.09,1.82A7.57,7.57,0,0,1,203.57,103.3Z" transform="translate(-12.08 -10.26)"/><path class="cls-55" d="M196.4,129.82c0,.14,0,.26.07.43a27.68,27.68,0,0,0,1.35,4.68c.19.54.41,1.1.64,1.66s.55,1.32.88,2c.22.5.46,1,.7,1.51.8,1.57-1.4,5.57-6.15,9.26a14.29,14.29,0,0,1-1.93,1.18c-1.13-8.91-1.17-12.5-6.61-23.35a16.62,16.62,0,0,0,11,2.67Z" transform="translate(-12.08 -10.26)"/><path class="cls-55" d="M180.08,104.41c-1.55.65-3.29,1.31-4.84.69a79,79,0,0,1,14.09-5.46c.7-.2,1.85.21.83.71s-2,.68-3,1.08Z" transform="translate(-12.08 -10.26)"/><path class="cls-57" d="M197.74,96.12a.11.11,0,0,0,0-.05c-1.11-3-3.39-5-5.1-4.36s-2.22,3.59-1.11,6.62l0,.06c1.12,3,3.38,4.92,5.09,4.3S198.83,99.13,197.74,96.12Z" transform="translate(-12.08 -10.26)"/><path class="cls-55" d="M198.52,97.63c.21-.12.45-.24.66-.34.94-.46,2.06-.78,2.92-1.28l.1-.07-.57-.65a1.29,1.29,0,0,0-.4.07c-1,.34-2,.73-3,1.13C198.36,96.86,198.45,97.24,198.52,97.63Z" transform="translate(-12.08 -10.26)"/><path class="cls-56" d="M201.4,94.59s0,0,0,0c1.32,2.92,3.72,4.68,5.37,4s2-3.73.65-6.69-3.72-4.73-5.39-4S200.09,91.63,201.4,94.59Z" transform="translate(-12.08 -10.26)"/><path class="cls-11" d="M202.25,94.63c1.31,2.92,3.71,4.68,5.36,4s2-3.72.66-6.68-3.73-4.74-5.4-4-2,3.73-.65,6.69Z" transform="translate(-12.08 -10.26)"/><path class="cls-58" d="M202.22,94.58l0,0c1.31,2.92,3.71,4.68,5.36,4s2-3.72.66-6.68-3.73-4.74-5.4-4S200.91,91.62,202.22,94.58Z" transform="translate(-12.08 -10.26)"/><polyline class="cls-57" points="190.16 84.38 189.31 84.75 185.87 86.28"/><polyline class="cls-57" points="179.45 88.13 163.44 93.99 161.36 94.75"/><path class="cls-59" d="M151.25,84.19" transform="translate(-12.08 -10.26)"/><path class="cls-56" d="M151.73,92.41a7.28,7.28,0,0,0,1.83,5.86,4.61,4.61,0,0,0,1.43,1,5.45,5.45,0,0,0,4.62,0c3.79.68,8.77-.42,13.38-3a22.78,22.78,0,0,0,7-5.77,33.67,33.67,0,0,0,14.57-3.94l.89-.5c5.66-3.26,10.15-9.53,7.93-16.31a10.21,10.21,0,0,0-8.37-7c-3.41-.34-6.72,1.26-10.15,1.42s-6.94-1.18-10.37-.63A11.52,11.52,0,0,0,169,66.2c-1.14.94-2.14,2-3.36,2.9s-2.74,1.11-4.14,1.71c-7.71,3.35-11.23,13.4-9.84,21.24A1.53,1.53,0,0,1,151.73,92.41Z" transform="translate(-12.08 -10.26)"/><path class="cls-56" d="M173.9,131.64a4.28,4.28,0,0,0,1.54-2.16,13.16,13.16,0,0,0,.68-4.75,20.84,20.84,0,0,0-.71-4.66c-.2-.75-.43-1.49-.67-2.23a5.19,5.19,0,0,0-.52-1.17,6.66,6.66,0,0,0-.76-1c-1.12-1.2-2.27-2-2.84-3.33a5.67,5.67,0,0,1-.54-4,3.75,3.75,0,0,1,2.52-2.74,3,3,0,0,1,3.33,1.46h0a.31.31,0,0,0,.42.15.31.31,0,0,0,.16-.36,2.94,2.94,0,0,0-.71-1.25s0,0,0-.07a8.62,8.62,0,0,0,.23-1.26,9.62,9.62,0,0,0-2.5-8.33c-3,1.54-10.3,3.46-14,2.72a4.83,4.83,0,0,1-4,.17.54.54,0,0,0-.48-.27.56.56,0,0,0-.54.56,22.55,22.55,0,0,0,2.26,9,69.74,69.74,0,0,0,4.65,8A52.22,52.22,0,0,1,165.8,124c.61,1.38,1.19,2.82,2,4.2a14.35,14.35,0,0,0,1.34,2,5,5,0,0,0,2,1.64A3,3,0,0,0,173.9,131.64Z" transform="translate(-12.08 -10.26)"/><path class="cls-11" d="M205,110.29l-.2,0-.75.14a8.8,8.8,0,0,0-1.74.55c-.2.1-.41.24-.4.46a.53.53,0,0,0,.2.33,2.74,2.74,0,0,0,1.42.73,1.93,1.93,0,0,0,1.52-.39,1.54,1.54,0,0,0,.5-1.21.78.78,0,0,0-.23-.52A.36.36,0,0,0,205,110.29Z" transform="translate(-12.08 -10.26)"/><rect class="cls-60" x="142.97" y="321.65" width="48.16" height="75.06"/><polygon class="cls-39" points="177.16 359.18 161.49 368.22 161.5 350.13 177.16 359.18"/><path class="cls-43" d="M108,107.82s12.7-5.45,19.2-6.2" transform="translate(-12.08 -10.26)"/></g></g></svg>