<svg id="Layer_1" xmlns="http://www.w3.org/2000/svg" xmlns:xlink="http://www.w3.org/1999/xlink" viewBox="0 0 454 459"><style>.st2{fill:#f6f8fa}.st3{fill:none;stroke:#d3dbe5;stroke-width:.25;stroke-linecap:round;stroke-linejoin:round;stroke-miterlimit:10}.st8{fill:#fff}.st14,.st18,.st9{fill:none;stroke-width:.25;stroke-linecap:round;stroke-miterlimit:10}.st9{stroke-linejoin:round;stroke:#43aa82}.st14,.st18{stroke:#a7b6cb}.st18{stroke:#d3dbe5}.st28{opacity:.1;fill:#b3b3b3}.st31{opacity:.3}.st32{clip-path:url(#SVGID_21_);fill:none;stroke:#99c3e4;stroke-width:.25;stroke-miterlimit:10}.st33{fill:#b3b3b3}.st34{fill:#d3dbe5}.st36,.st37{stroke-linecap:round;stroke-linejoin:round}.st36{fill:none;stroke-width:.25;stroke-miterlimit:10;stroke-dasharray:3,3,3,3;stroke:#59e3ad}.st37{stroke:#fff}.st37,.st38,.st46{fill:none;stroke-width:.25;stroke-miterlimit:10}.st38{opacity:.5;stroke-linecap:round;stroke-linejoin:round;stroke:#fff}.st46{stroke:#59e3ad}.st50{opacity:.24;fill:#db5437}.st51{fill:#24497e}.st52{fill:none;stroke:#24497e;stroke-width:.25;stroke-linecap:round;stroke-linejoin:round;stroke-miterlimit:10}</style><path d="M140 86s2.2-1.5 4.1-.8c2 .7 6.7 12.2 6.7 12.2l-4.1 2.4L140 86z" fill="#91bdfd"/><path class="st2" d="M253.2 357.5s-12.4-23.6-9.1-27.9c2.1-2.8 3.9.1 3.9.1l13.8 25.9-.5 4.9-8.1-3z"/><path class="st2" d="M261.5 357.1c-.5 8-.8 15.9-2.8 24.5-.2.8-1.1 3.4-1.3 4.2-1.4.2-8.1.8-9.6 1-2.7.3-5.4.6-8.2.9-15.4 1.1-30.3-.1-45.5-2.1 0-18-.1-36-.1-54h2.8v37.7c0 2.5 1.9 4.6 4.4 4.7 15.3 1.1 32.1 1.4 49-.1.5-3.1.9-6.3 1.3-9.5.6-5.5 1.5-11.9 1.5-18.3M136.4 273.5l-8.9-2.3-.4-68.8h9.3zM142.7 362.6c-23.8 15.3-123.9 10.5-117.5-49.9 0 0 12.2 22 39.6 35.6 1.5-7.2 10.8-16.8 10.8-16.8l2.7 3.6c.2 0 .5-.1.8-.1 1.3-.4 2.6-.7 3.8-1.1.2-.1.3-.1.5-.1.3-.1.5-.2.7-.3h.1c.4-.2.7-.3 1-.6 2-.7 3.2-2.8 2.7-4.5 0-.1-.1-.1-.1-.2v-.2c0-1-.4-2.1-1.3-2.9-.1-.1-.3-.2-.4-.3-.4-1.6-1.9-3-4.4-3.1-3.4-.2-6.7.9-9.8 1.9 1.6-2.5 4.3-4.9 7.6-5.4 3.7-.5 7.7.7 10.2 3 2.5 2.3 3.5 5.6 2.7 8.6-1 3.5-4.5 6.4-8.8 7.2-1.6.3-3.2.3-4.8-.1-5.6 3.8-8 9-9 13.5 18.1 7.8 42.1 11.6 72.7 4.3-.1.2 22.5-3.3.2 7.9z"/><path class="st2" d="M84.1 333.6c-.1 0-.1 0 0 0-.3.1-.5.2-.8.3 1-.6 1.6-.9.8-.3zM23.9 262.5s4.9 29 18.3 25.1c0 0-11 8.6-11.9 12.8 0-.1-10.1-13.5-6.4-37.9z"/><path class="st3" d="M79.2 221.1c-.1-1.2-.1-2.4-.1-3.7 0-32 25.1-57.9 56-57.9 11.6 0 22.4 3.6 31.3 9.9M73.9 221.6c7 0 13.7 1.5 19.9 4.1M29.8 300.4c-3.8-7.4-6.9-17.2-6.9-26.1 0-29.1 22.8-52.7 51-52.7"/><defs><path id="SVGID_1_" d="M63.5 275.3s34.2-14.1 72.8-1.8l-2-88.9-72.6 2.8 1.8 87.9z"/></defs><clipPath id="SVGID_2_"><use xlink:href="#SVGID_1_" overflow="visible"/></clipPath><path clip-path="url(#SVGID_2_)" fill="#43aa82" d="M72.8 281.7h-5.1v-85.4h5.1z"/><linearGradient id="SVGID_3_" gradientUnits="userSpaceOnUse" x1="85.0763" y1="195.0403" x2="117.073" y2="281.116"><stop offset=".137" stop-color="#9fefcf"/><stop offset=".7363" stop-color="#59e3ad"/></linearGradient><path d="M133.1 196.3v85.4H69.8v-85.4h63.3z" clip-path="url(#SVGID_2_)" fill="url(#SVGID_3_)"/><g clip-path="url(#SVGID_2_)"><linearGradient id="SVGID_4_" gradientUnits="userSpaceOnUse" x1="117.2534" y1="264.2856" x2="117.4046" y2="255.139"><stop offset=".2355" stop-color="#4891fb"/><stop offset="1" stop-color="#227bfb"/></linearGradient><path fill="url(#SVGID_4_)" d="M120.9 253.5H121.2v12.9l-3.7-3.2-4.1 3.2v-12.9h.1"/><path class="st8" d="M123.3 249.1c0 3.3-2.7 6-6 6s-6-2.7-6-6 2.7-6 6-6c3.4 0 6 2.7 6 6z"/><path class="st9" d="M79.2 205.6h41.3M79.2 213.9h41.3M79.2 222.2h41.3M79.2 230.5h41.3M79.2 238.8h41.3"/><radialGradient id="SVGID_5_" cx="124.3134" cy="244.8639" r="13.3276" gradientUnits="userSpaceOnUse"><stop offset=".3105" stop-color="#fff"/><stop offset="1" stop-color="#e1e1e1"/></radialGradient><path d="M117.3 255.4c-1.5 0-3-.6-4.1-1.6-1.4-1.2-2.2-2.9-2.2-4.7 0-1.7.7-3.3 1.8-4.4 1.2-1.2 2.8-1.8 4.4-1.8 1.7 0 3.3.7 4.4 1.8 1.2 1.2 1.8 2.8 1.8 4.4 0 1.9-.8 3.6-2.2 4.8-1 .9-2.4 1.5-3.9 1.5zm0-11.5c-1.4 0-2.7.5-3.7 1.5s-1.5 2.3-1.5 3.7c0 1.5.6 2.9 1.8 3.9.9.8 2.2 1.3 3.4 1.3 1.2 0 2.4-.4 3.4-1.2 1.2-1 1.8-2.4 1.8-4 0-1.4-.5-2.7-1.5-3.7s-2.3-1.5-3.7-1.5z" fill="url(#SVGID_5_)"/></g><path d="M34.7 305.8c0-.3-.4-.5-.7-.3-.2.2-.1.7.2.7" fill="none"/><path class="st2" d="M284.6 278.9c2.1-2.7 2.8-4.7 5.2-7.1-8 1-18 3.7-25.4 6.8.7-.3 5.8 4 6.9 4.4 2.3.8 6.3-1.1 8.6-2.1 1-.5 3.7-1.5 4.7-2zM252.7 383.8l-.4 2.4h-.2c.2-.7.4-1.6.6-2.4z"/><radialGradient id="SVGID_6_" cx="258.2954" cy="387.7946" r="30.7173" gradientUnits="userSpaceOnUse"><stop offset=".1464" stop-color="#1b375f"/><stop offset="1" stop-color="#24497e"/></radialGradient><path d="M287 424.6c.7 2.3 1.1 5.5-1.1 6.7-2 1.1-4.4-.4-6.1-1.8L263 416c-3.7-2.9-7.5-6-9.7-10.1-2.2-4.1-.1-14.1 2.9-17.7 3.9 4 9 10.4 17.7 7.4 5.8 8.8 9.9 19 13.1 29z" fill="url(#SVGID_6_)"/><path class="st2" d="M346.9 328.5s-1.9 33.9-65.5 52.1l1.3-8.1c5.1-11.4 12.9-21.5 18-32.9 2.2-5 4-10.9 4.9-16.3.9-5.4.8-13.9-2.3-18.4 1.3 1.9 26.1-19 28.2-20.6.3 4.5-9 21-17.2 24.8 3.9 10.8-15.6 55.2-15.6 55.3 17.2-7.2 37.2-20.5 48.2-35.9z"/><path d="M281 285.2l-28 31.6c-13.4-5.1-30.9-11.8-44.3-16.9-8.7-3.3-17.4-6.6-25.2-11.7-2.9-1.9-5.7-4.2-8.3-6.6-6.1-5.5-7.5-19.8-7.5-19.8 4.2 2.9 30.9 2.8 50.9-6.7l50.7 24.4 4.6 2.1c2.3 1.1 6.4 3.2 7.1 3.6zm-23.6 96.6c-.5 3.8-1 6.9-1.3 9.1 3.6 4.6 10 8.1 19.2 5.7 6.1-15 43.6-76.8 29.9-92.8-14.7 9.7-23.1 13.3-37.5 22.9-3.9 13.1-8.1 39.6-10.3 55.1" fill="#dce2ea"/><path class="st14" d="M173.3 277.9c7.9-2 48-13.2 53.8-37.5"/><radialGradient id="SVGID_7_" cx="254.182" cy="315.2224" r="34.4904" gradientUnits="userSpaceOnUse"><stop offset=".1464" stop-color="#1b375f"/><stop offset="1" stop-color="#24497e"/></radialGradient><path d="M273.3 359.1c.1 2.6-.3 5.9-2.8 6.6-2.3.6-4.3-1.5-5.6-3.4-4.4-6.1-8.8-12.1-13.1-18.2-2.5-3.4-4.7-7-6.5-10.8-2-4.1-1.6-8.1.9-12 1.1-1.8 2.5-3.3 4-4.8.3-.3 4.8-5 4.7-5.2 2.8 5.2 2.5 15.5 12 14.7 3.2 10.6 5.8 22 6.4 33.1z" fill="url(#SVGID_7_)"/><radialGradient id="SVGID_8_" cx="346.4313" cy="234.8414" r="100.0144" gradientUnits="userSpaceOnUse"><stop offset="0" stop-color="#f6f8fa"/><stop offset=".0699525" stop-color="#f3f5f8"/><stop offset=".4968" stop-color="#e2e7ee"/><stop offset=".8197" stop-color="#dce2ea"/></radialGradient><path d="M266.5 327.3c-6.1-.7-11.6-7.6-12.4-14.6 5.1-5.9 32.2-37 36.1-41.2-6.9 1.8-16.6 4.4-23.9 6.3l-.1.1c2.9 1.4 5.5 2.7 7.6 3.7l-4.6-2.1-50.7-24.4c8.4-4 13.8-13.8 13.8-13.8 29.5-4.9 64.3-6.5 94.1-3.4 1.7.2 3.3.4 5 .7 2.6.5 5.2 1.4 7.3 3 4.4 3.3 6.7 9.2 7.3 14.4.9 34.3-73.8 67.6-79.5 71.3z" fill="url(#SVGID_8_)"/><radialGradient id="SVGID_9_" cx="299.1577" cy="75.8365" r="149.6214" gradientUnits="userSpaceOnUse"><stop offset="0" stop-color="#59e3ad"/><stop offset=".2129" stop-color="#61e4b1"/><stop offset=".538" stop-color="#76e8bb"/><stop offset=".933" stop-color="#98eecc"/><stop offset="1" stop-color="#9fefcf"/></radialGradient><path d="M187.3 24v-.5L306.2 25l107.4 43.5s-6.3 30.7 36.5 59.7l-.1.2c-.8-.2-24.8-7.9-43.5 7.4-14.2 13.6-7.3 30-7.1 30.5-.5-.5-15.4-16.8-47.6-19-31.2-2.1-50.5 10.3-52.3 11.4-.1.1-5-6.7-11.6-13.3l-3.4-3.2c-7.8-7.1-18.2-14.5-30.5-18-27.1-7.8-50.2-.4-50.2-.4s.4-28.3-18-44.3c-15.3-13.2-26.8-14.7-30.3-14.8 15.6-.4 39.7-10.8 31.8-40.7z" fill="url(#SVGID_9_)"/><path class="st18" d="M306.9 72.5c36.3 24.8 68 57.4 92.6 93.8M450.1 128.1c-16.9-9.6-127.3-58.4-143.3-55.7 35.6-5.3 71.2-9.7 106.8-4"/><path class="st18" d="M187.4 23.5c41.3 8.2 85.3 24.5 119.5 49 .3-16-.4-31.2-.7-47.5M155.6 64.7c21.3-2.1 124.1 4.4 151.3 7.8M203.9 123.8c33.4-19.5 66.5-38.2 102.9-51.3M299.5 158.2c6.5-28.6 8.4-56.5 6.8-85.8"/><path class="st2" d="M346 87.1c-3.3 10.9-22.7 14.6-44.1 8.5l6.3-22.7c-.8-2.2-4-1-4-1l-6.3 22.5c-21-7.1-35.6-21.2-32.3-32 3.4-11.2 24.2-14.8 46.4-7.9 22.3 6.8 37.5 21.4 34 32.6z"/><linearGradient id="SVGID_10_" gradientUnits="userSpaceOnUse" x1="153.7548" y1="94.2448" x2="203.9387" y2="94.2448"><stop offset=".137" stop-color="#9fefcf"/><stop offset=".7363" stop-color="#59e3ad"/></linearGradient><path d="M154.5 64.7h1.1c3.5.1 15 1.5 30.3 14.8 18.5 16 18 44.3 18 44.3l-.1.2-.3-.1-49.8-58.7.5-.6.3.1z" fill="url(#SVGID_10_)"/><linearGradient id="SVGID_11_" gradientUnits="userSpaceOnUse" x1="188.546" y1="59.3253" x2="165.2436" y2="39.2213"><stop offset=".137" stop-color="#9fefcf"/><stop offset=".7363" stop-color="#59e3ad"/></linearGradient><path d="M154.2 64.5l32.6-41h.5v.5c7.9 29.9-16.3 40.3-31.7 40.7h-1.1l-.3-.2z" fill="url(#SVGID_11_)"/><linearGradient id="SVGID_12_" gradientUnits="userSpaceOnUse" x1="315.4856" y1="15.6304" x2="181.6936" y2="14.2071"><stop offset=".137" stop-color="#9fefcf"/><stop offset=".7363" stop-color="#59e3ad"/></linearGradient><path fill="url(#SVGID_12_)" d="M312.1 6.7v.1L306.2 25l-118.8-1.5h-.6l40.6-18.2z"/><linearGradient id="SVGID_13_" gradientUnits="userSpaceOnUse" x1="387.449" y1="45.7238" x2="299.1802" y2="16.5637"><stop offset=".137" stop-color="#9fefcf"/><stop offset=".7363" stop-color="#59e3ad"/></linearGradient><path fill="url(#SVGID_13_)" d="M398.4 42.8l15.5 25.5-.3.2L306.2 25l5.9-18.2v-.1z"/><linearGradient id="SVGID_14_" gradientUnits="userSpaceOnUse" x1="403.074" y1="115.3681" x2="458.36" y2="82.9276"><stop offset=".137" stop-color="#9fefcf"/><stop offset=".7363" stop-color="#59e3ad"/></linearGradient><path d="M413.9 68.3l36.5 60c-.1-.1-.2-.1-.3-.2-42.8-29-36.5-59.7-36.5-59.7l.3-.1z" fill="url(#SVGID_14_)"/><linearGradient id="SVGID_15_" gradientUnits="userSpaceOnUse" x1="406.0956" y1="131.3054" x2="439.45" y2="159.6338"><stop offset=".137" stop-color="#9fefcf"/><stop offset=".7363" stop-color="#59e3ad"/></linearGradient><path d="M450.4 128.3l-50.7 38.2-.2-.2c-.2-.5-7.1-16.9 7.1-30.5 18.7-15.4 42.7-7.7 43.5-7.4l.1-.2s.1.1.2.1z" fill="url(#SVGID_15_)"/><linearGradient id="SVGID_16_" gradientUnits="userSpaceOnUse" x1="348.3663" y1="133.2139" x2="349.8962" y2="168.4021"><stop offset=".137" stop-color="#9fefcf"/><stop offset=".7363" stop-color="#59e3ad"/></linearGradient><path d="M399.5 166.2l.2.2-.2.1-99.6-7.8-.2-.1c1.8-1.2 21.1-13.5 52.3-11.4 32.1 2.3 47 18.5 47.5 19z" fill="url(#SVGID_16_)"/><linearGradient id="SVGID_17_" gradientUnits="userSpaceOnUse" x1="259.8938" y1="116.8915" x2="249.6943" y2="147.49"><stop offset=".137" stop-color="#9fefcf"/><stop offset=".7363" stop-color="#59e3ad"/></linearGradient><path d="M299.6 158.7l-.3-.1-13.6-4.9-3.9-1.4-78-28.3.1-.2s23.1-7.4 50.2.4c12.3 3.5 22.8 11 30.5 18l3.4 3.2c6.6 6.6 11.5 13.4 11.6 13.3z" fill="url(#SVGID_17_)"/><radialGradient id="SVGID_18_" cx="289.2831" cy="135.6544" r="47.3761" gradientTransform="matrix(1 0 0 1.2565 0 -34.7954)" gradientUnits="userSpaceOnUse"><stop offset=".0502143" stop-color="#f6f8fa"/><stop offset=".1159" stop-color="#f3f5f8"/><stop offset=".5166" stop-color="#e2e7ee"/><stop offset=".8197" stop-color="#dce2ea"/></radialGradient><path d="M308.2 73l-18.8 67.7-2.3 8.2-14 50.4v.5h-1.6c-.2-.5-.7.4-.9-.1-.3-.9.1-3.5-.3-4.4l12.9-47.8 2.8-10 18.2-65.7c.4-1 4.3-.1 4 1.2z" fill="url(#SVGID_18_)"/><path class="st28" d="M306 80.7l2.2-7.9s-.2-1.1-1.9-1.3c-1.6-.2 1 3.9-.3 9.2z"/><path class="st2" d="M220.4 255.1c-27.9 11.8-51.4 14.2-52.2 11.5.8 1.6.9 8.1 5.1 12.6 29.8.5 47.1-24.1 47.1-24.1zM303.5 256.1c-1.1.6-11.9 14.2-13 14.8-7.2 3.5-16.5 4.4-24.1 6.9l-45.8-22.1c6.5-1.2 50.7 27.2 82.9.4zM338.7 241.6c8.7 28.4-20.1 48.4-28.5 54.8-5.5 4.2-11.2 8.2-16.9 12.1-17.7 12.2-9.2 6.4-26.9 18.7 1.1.5 4-1.6 4.9-2.1 3.7-2 7.3-4.2 10.8-6.4 10.7-6.4 64.5-34.8 63.6-61.6-.1-2.9-.9-7-2.1-9.7-.3-.7-4.8-6.4-4.9-5.8z"/><path class="st2" d="M269.5 397.5c1.8.4 3.9-.1 5.9-.9 23-42.9 38.9-80.7 30.4-91.1-2.7 1.8-8.2 4.6-14.1 8-10 5.7-21.4 12.4-25.1 13.8 5-.8 66.1-50.7 2.9 70.2zM175 281.6c76.9 36.4 104.1 2.9 103.8 2.7-.3-.2-3.3 3.7-3.4 4L250.7 316s-67.9-23.6-75.7-34.4z"/><path class="st2" d="M253 316.8l-4.5 4.6c-58.6-15.4-79.8-35.4-80.8-35.1.7-.5 7.2-4.9 7.4-4.7 9.9 11.5 70.4 32.2 70.4 32.2l7.5 3zM252.1 386.3c-.1.3-.1.5-.2.8-1.4 0-2.8.1-4.2.1 0-.1.1-.2.1-.3 1.5-.3 2.9-.4 4.3-.6zM17 187l1.7-3.4c-.8 1.3-1.5 2.6-2.2 3.9l.5-.5zM233.2 241.5c3.5-.5 3.9-.5 7.4-1-6.8-14.5-12.4-78.4-11.3-81.2.5-1.3-4.1.2-4.7.7-1 .8 5.9 63.3 8.6 81.5zM269.3 206.6s17.4-5.9 28.8-2.9c-11.1-4.5-27.9-3.9-27.9-3.9l-.9 6.8z"/><path class="st28" d="M270.2 193.6s3 5.4 9.4-17.6c-2 6.5-6.3 23.4-6.3 23.4l-2.6.3s.5-5.1-.1-6.4"/><path class="st3" d="M224.7 159.5c1.8-.6 5.1-.8 7-.8 21.4 0 38.8 17.4 38.8 38.8 0 3.1-.4 6.2-1.1 9.1"/><linearGradient id="SVGID_19_" gradientUnits="userSpaceOnUse" x1="177.7304" y1="134.2113" x2="259.3764" y2="225.9929"><stop offset=".2355" stop-color="#4891fb"/><stop offset=".8147" stop-color="#227bfb"/></linearGradient><path d="M271.8 100.2c-3.1-6.7-11.1-9.2-18.2-11.1-17.9-4.6-64.9-11.1-70.7-12.3l-1 .1-6.2 11.4 56.1 23.3c-6.4 3.6-13 7.7-20.7 12.1-6.2 3.6-13.1 7.3-21 11.2l-23.9 3.7c-5.4-1.6-10.6-3.3-15.7-5-12.6-4.3-24.6-8.7-37.6-12.8l.1-.4s30-17.8 33.7-20.7-2.5-16.4-8-14.2c-3.6 2-70.6 18.4-71.5 32.6-.2 3.7 3.1 8.6 8.6 14 15.7 15.5 71.1 48.2 71.1 48.2 5.5 25.5 17.8 82.9 23.2 85.9 14.9 8.4 59.9-9.7 63.8-23 1.3-6.3-5.9-63.1-9.3-83.2 0 0 14.8-11.1 21.5-16.9 6.9-5.9 13.3-12.2 19-19.4 1.2-1.6 2.4-3.2 3.5-5 2.6-4.2 4.5-8.7 4.4-13.2 0-1.8-.4-3.6-1.2-5.3zM181.9 77l-6.2 11.4" fill="url(#SVGID_19_)"/><g class="st31"><defs><path id="SVGID_20_" d="M150.4 133.7c5.1 1.7 10.3 3.4 15.7 5L190 135c7.9-3.9 14.8-7.6 21-11.2 7.7-4.4 14.3-8.6 20.7-12.1l-55.9-22-24.9 5.1-38 25.8-.1.4c13 3.9 25 8.4 37.6 12.7zm5.8-51.1s25.2-6.5 29.7-5.5c36.5 7.7 49.6 7.4 67.5 12 7.1 1.8 15.1 4.4 18.2 11.1.8 1.7 1.2 3.5 1.2 5.2.1 4.5-1.8 9-4.4 13.2-1.1 1.8-2.3 3.4-3.5 5-5.6 7.3-12.1 13.6-19 19.4-6.7 5.8-21.5 16.9-21.5 16.9 3.4 20.1 10.7 76.9 9.5 83.2-4.1 15.8-56.6 31-63.8 23-6.6-7.3-16.9-58.4-23.2-85.9 0 0-55.5-32.7-71.2-48.2-5.5-5.4-8.8-10.3-8.6-14 .7-12.6 53.9-28.1 74.1-36"/></defs><clipPath id="SVGID_21_"><use xlink:href="#SVGID_20_" overflow="visible"/></clipPath><path class="st32" d="M185.1 267.3c4.3-36.6 25.5-71.1 56.5-91.1M202.6 261.4c3.6-15.4 10.9-29.9 21.3-41.8 4.4-5.1 9.8-10 16.5-11.2 0 .8-.1 1.6-.1 2.4M121.1 91.2c5 11.7 7.4 24.6 6.8 37.3-.8 17.9-7.5 35.5-18.7 49.4M94 100.8c2.4 13.8.6 28.3-5.2 41.1M222.6 107.5c8.3-.3 16.5-3.6 23.5-8.3 8-5.3 14.7-12.3 21.3-19.3-1-.7-2-1.5-3-2.2M200.6 68.8c-5.9 6.1-7.7 15.8-4.4 23.6.9 2.1 2.1 4 3.5 5.7M221.3 71.7c-2.6 2.9-5.2 5.9-6.5 9.6-1.3 3.7-.8 8.2 2 10.8 4 3.6 10.3 2 15.1-.4 6.9-3.4 13.3-8 18.7-13.5M202.1 152.7c34.7-9.8 65.1-34.1 82.3-65.8"/><path class="st32" d="M142.8 130.6c-5.5 16.7-9.2 34-10.7 51.5-.5 5.9-.8 12 1 17.6 1.8 5.6 6.1 10.8 11.9 12.1 8.2 1.8 15.9-4.4 21.8-10.5 24.2-25.4 42.3-56.6 52.2-90.2"/></g><g class="st31"><path class="st33" d="M263.3 125.7c-1 1.3-14.6 10.7-17.8 12.6-4.3 2.6-15.3 9.8-22.4 12.5-.6.2 1.4 6.4 1.4 9.2 3.2-2.7 28.1-19.9 38.8-34.3z"/></g><g class="st31"><path class="st33" d="M71.8 128c7.6 9.9 51.6 39 75.2 52.3 0 0-1.8-3.3-2.6-7.4-13.5-3.9-19.8-9.9-31.5-17.6-12.1-8-23.9-17-33.7-27.7-1.9-2.1-4.1-4.3-5.7-6.7-.9-1.5-1.6-3.1-1.5-4.9.1-2 1.1-3.8 1.5-5.7-1.4 1-2.7 2-3.8 3.4-.9 1-2.1 2.4-2.3 3.8-.2 1.2-.1 2.4.2 3.5 1.3 2.3 2.7 4.7 4.2 7z"/></g><g class="st31"><path class="st33" d="M108 119.5c-.4-.3 41.9-26.9 41.9-26.9l-.3 5.3-37.3 22.7-4.3-1.1z"/></g><g class="st31"><path class="st33" d="M231.4 111.4l5.4-2.8s-40.9-16.7-41.3-16.8l.2 4.8 35.7 14.8z"/></g><g class="st31"><path class="st33" d="M194.8 266.5c21.2-6.3 36.3-14.7 39.2-23.2.7-12.8-4.7-55.3-7.9-73 7.5 62.1-11 89.5-31.3 96.2z"/></g><g class="st31"><path class="st33" d="M190.4 134.8c1 .3-14.9 5.6-23.5 9.5-.6.3-.7 1.1-.1 1.5 22 14.6 38.1-8.4 23.6-11z"/></g><path class="st34" d="M342.1 187.5h5.7v44.3h-5.7z"/><path fill-rule="evenodd" clip-rule="evenodd" fill="none" stroke="#d3dbe5" stroke-width=".25" stroke-miterlimit="10" d="M394.1 231.6h-48.6v-43.7h48.6z"/><path class="st3" d="M175.3 281.6s-.1 0 0 0c-4.1 2.3-8 4.7-11.8 7.3M256.7 385.5c-6.5 1.7-17.9 2.3-24.3 2.6-12.8.4-25.6-.4-38.2-2.5"/><path class="st34" d="M379.8 209.7l-15.7 9.1v-18.1z"/><path class="st36" d="M370.3 239.3s6 50.2-39.7 79"/><path class="st14" d="M289.9 314.3c1.7 26.2-8.4 52.4-20.3 75.7M211.3 271.9c18.2 8.5 37.4 17.3 55.5 25.8"/><path class="st37" d="M281.4 281.4l-37 41.3"/><path class="st14" d="M249.9 239.3c15.7-.5 69.2-1.4 71.6 14.7.9 6-3.3 11.4-7.7 15.6-16.9 16.4-33.6 32.4-50.4 48.6M258.3 308.4c1.9 7.7 7 13.2 14.2 16.2M257.4 381.7c4.6 6.1 12.4 9.7 20 9.1"/><path class="st37" d="M311.8 7.7l-5.3 16.2"/><path class="st38" d="M78.7 109.9c18-11.2 37.6-15.2 57.6-21.6"/><path class="st37" d="M319.6 239c5.6 0 11.2.9 16.5 2.5M278.7 8.4h29.5M296 10.8h9.5"/><path class="st3" d="M331.6 284.7c6.5 5.9 13.6 17.1 15.7 25.6 3.3 13.6-1.8 28.3-10.9 39s-21.6 17.9-34.4 23.4c-4.9 2.1-14.3 5.8-19.5 7.5M270.4 199.9h2.7c24.8.1 54.1 11 58.4 38.5"/><linearGradient id="SVGID_22_" gradientUnits="userSpaceOnUse" x1="-246.3782" y1="517.519" x2="-125.3797" y2="589.6935" gradientTransform="matrix(.9991 .04324 -.04324 .9991 281.1786 -156.8073)"><stop offset=".137" stop-color="#9fefcf"/><stop offset=".7363" stop-color="#59e3ad"/></linearGradient><path d="M132.7 366.2c4.4 24.4 9.2 81.6-38 87.9-1.5.2-2.9.3-4.3.4-47.1 2-47.4-72.7-47.4-72.7l19.6-5.7 24.3-7c15.3 2.1 30.7-.2 45.8-2.9zm-23.5 55.7l-4.9-14.6c2.6-3.1 4.1-8.3 3.7-12.6-.8-7.1-6.5-11.1-12.5-8.5-.7.3-1.3.6-1.9 1-4.7 3.2-7.3 9.7-6.2 15.5.8 4 3.3 6.8 6.3 7.7v1.5l.3 15 15.2-5z" fill="url(#SVGID_22_)"/><path d="M104.3 407.2l4.9 14.6-15.1 5-.3-15v-1.5c-3.1-.9-5.5-3.7-6.3-7.7-1.2-5.8 1.5-12.4 6.2-15.5.6-.4 1.2-.7 1.9-1 6-2.5 11.7 1.4 12.5 8.5.4 4.4-1.2 9.6-3.8 12.6z" fill="#43aa82"/><linearGradient id="SVGID_23_" gradientUnits="userSpaceOnUse" x1="-216.0321" y1="559.2599" x2="-186.3113" y2="613.3519" gradientTransform="matrix(.9991 .04324 -.04324 .9991 281.1786 -156.8073)"><stop offset=".00588456" stop-color="#9fefcf"/><stop offset=".7363" stop-color="#59e3ad"/></linearGradient><path d="M90.3 454.4v.1c-12 .6-36.7-2-51.9-29.8-11-21.2-11.1-49.5-11.1-49.5l15.7 6.6s.3 74.7 47.3 72.6z" fill="url(#SVGID_23_)"/><linearGradient id="SVGID_24_" gradientUnits="userSpaceOnUse" x1="-220.8976" y1="546.0771" x2="-185.1139" y2="531.952" gradientTransform="matrix(.9991 .04324 -.04324 .9991 281.1786 -156.8073)"><stop offset=".137" stop-color="#9fefcf"/><stop offset=".7363" stop-color="#59e3ad"/></linearGradient><path d="M87 369.2l-24.3 7-19.7 5.6-15.7-6.6 25.4-7.3c.1.9.2 1.7.3 2.6.5 3.3 3.3 4.1 6.4 4.2.4 0 .8 0 1.2-.1l1.5-.3c2.8-.8 4.6-2.6 4.2-5.7-.2-1.3-.3-3.2-.4-4.6 6.9 2.1 14 4.2 21.1 5.2z" fill="url(#SVGID_24_)"/><path class="st37" d="M43 381.8l-15.7-6.6"/><g><path class="st2" d="M61.7 442.4c-3.2-3.7-6.5-8.2-8.7-13-3.9-1-8.1-3.9-10.6-5.8-2.7-2.1-5.2-4.6-7.2-7.3-.2.2-.3.4-.4.8 1.6 3.9 3.4 8 5.5 10.8 1.7 2.2 2.8 4.5 4.2 6.7 3.9 3.6 7.5 7.5 11.6 10.9.8.4 1.5.9 2.1 1.5h.1c2 .9 3.9 1.9 5.9 2.7 1.2.4 2.5.8 3.6 1.2.6.2 1.2.4 1.8.7l1.2.3c.6.1 1.1.3 1.4.6 1.8.6 3.7 1 5.6 1.2-6.1-2.5-11.7-6.2-16.1-11.3z"/></g><g><path class="st2" d="M135.6 391.7c-.1 4 0 7.9-.3 11.9-.5 6.4-1.7 13.1-3.2 19.3-.4 1.6-.9 3.1-1.5 4.6-1.3 2.8-3.2 5.5-5 8.2-1.4 1.9-2.9 3.7-4.5 5.5-1 1-2.1 1.9-3.2 2.8 7.6-12.7 11.7-27.5 11.5-42.3 0-4.7-.5-9.5-3-13.5-2.8-4.7-7.9-7.5-12.8-9.8-9.3-4-19.4-7.3-29.5-8.6-1.1-.1-2.9-.8-4-.9-3.3-.3-5.8-.2-8.8.8-.5 6.2-16.6 8.9-16.9 3.5 2.5 1.9 7.6 2.1 10.8-.5 1.2-1.4 1.1-2.5 1.1-3.4-.2-.1-.3-.1-.4-.2-.1-1.6-.3-3.2-.5-4.8 0-.1.1-.5.2-.5 9.4 4.3 20.6 5.6 30.8 6.1 25.6.7 30.7-3 36.3-3.8.8 1.5 2.2 19.8 2.9 25.6z"/></g><path class="st37" d="M47.5 384.6c1.6 17.2 6.6 56.9 31 65.4M60.3 423.4s2.6 11.6 10.1 16.4"/><path class="st3" d="M148.7 360c-12.9 6.1-28.8 9.8-46.1 9.8-43.1 0-78-22.7-78-50.7 0-28 34.9-50.7 78-50.7 14.8 0 28.7 2.7 40.5 7.4"/><radialGradient id="SVGID_25_" cx="-209.8101" cy="495.1392" r="27.143" gradientTransform="matrix(.8018 .5975 -1.284 1.723 854.1427 -398.9481)" gradientUnits="userSpaceOnUse"><stop offset="0" stop-color="#e1e1e1"/><stop offset=".2801" stop-color="#fff"/><stop offset=".8709" stop-color="#e1e1e1"/></radialGradient><path d="M88.2 326.6c.5 3.7-2.1 7.1-5.7 7.6-6.8.9-10.8 6.9-12.6 10.4-2.7 5.2-4.1 12.7-3.9 19.5v.7l.3 3.9c.4 3.1-1.3 4.9-4.2 5.7l-1.5.3c-.4.1-.8.1-1.2.1-3.2-.1-6-1-6.4-4.2-.1-.8-.2-1.7-.3-2.6-.2-2.5-.3-5.1-.1-7.7.4-7.8 2.2-15.7 5.4-21.8 5.2-10.1 13.2-16.3 22.7-17.6 3.6-.6 7 2 7.5 5.7z" fill="url(#SVGID_25_)"/><g><path class="st2" d="M82.2 334.2c3.7-.5 4.5-2.1 5.6-4 2.8-8.3-7.3-5.2-10.7-3.5-5.5 2.9-10 7.6-13 13-4.7 8.5-6.1 18.4-6.8 28-.2 2.6 0 5.7 2.2 6.9 2.8.6 7.3-1.8 6.8-5.2-2.5-16.9 5.2-34.2 15.9-35.2z"/></g><path fill="#d3dbe5" stroke="#d3dbe5" stroke-width=".25" stroke-miterlimit="10" d="M146.9 402h-4v-75.1h4z"/><g><radialGradient id="SVGID_26_" cx="34.7718" cy="187.9062" r="12.611" gradientUnits="userSpaceOnUse"><stop offset="0" stop-color="#f6f8fa"/><stop offset=".0699525" stop-color="#f3f5f8"/><stop offset=".4968" stop-color="#e2e7ee"/><stop offset=".8197" stop-color="#dce2ea"/></radialGradient><path fill="url(#SVGID_26_)" d="M27.9 178.4h9.8v9.8h-9.8z"/><path class="st46" d="M3.2 159.6H24v20.8H3.2z"/></g><g><path class="st14" d="M337.8 283c4.3-3.6 7.7-8.3 9.6-13.6M345.6 278.4c2.5-2.9 4.4-6.3 5.5-9.9M58.8 130.4c-1.9-3.6-1.3-8.1 0-11.9 2.7-7.6 8.5-14 15.7-17.4M54.7 111.6c-3 4.9-4.1 10.9-3 16.5"/></g><path class="st36" d="M171.4 409.1c9.1 34 75.9 44.3 90.1 10.7"/><path class="st2" d="M60.6 276.1s42.4-24.7 77.6-2.4c0 0-32.3-14.1-77.6 2.4z"/><radialGradient id="SVGID_27_" cx="-2525.9626" cy="-3566.207" r="31.7548" gradientTransform="translate(1749.0499 2345.5815) scale(.5483)" gradientUnits="userSpaceOnUse"><stop offset="0" stop-color="#f6f8fa"/><stop offset=".0699525" stop-color="#f3f5f8"/><stop offset=".4968" stop-color="#e2e7ee"/><stop offset=".8197" stop-color="#dce2ea"/></radialGradient><path fill="url(#SVGID_27_)" d="M354.6 377.2h13.5v13.5h-13.5z"/><path class="st46" d="M343.9 363h8.2v8.2h-8.2z"/><g><linearGradient id="SVGID_28_" gradientUnits="userSpaceOnUse" x1="3335.969" y1="-839.0291" x2="3395.5857" y2="-839.4318" gradientTransform="rotate(-26.849 3775.96052289 6301.61435865)"><stop offset=".1718" stop-color="#ffd672"/><stop offset="1" stop-color="#f3ad5f"/></linearGradient><path d="M197 95.1c.4 1.3-.2 2.6-.5 3.9-.7 3.6 1.3 7.1 1.9 10.7.8 5.5-2.2 11.4-7.1 14-1.2.6-2.4 1-3.7 1.2h-.3c0 .1.1.3.1.4.4 1.6.8 3.1 1.3 4.7.2.6.4 1.1.6 1.7.3.7.6 1.3.9 2 .2.5.5 1 .7 1.5.8 1.6-1.4 5.6-6.2 9.3-.6.5-1.3.9-1.9 1.2-8.3 4.3-15.9-.4-15.9-.4-.6-8.8-.8-11.4-3.7-18.8 1.1-.4 2.4-1.7 2.7-2.9.9-3.6.1-7.3-1.1-10.7-.2-.6-.6-1.2-1.2-1.8l-3.2-.3c-1.2-1.5-1.7-.7-1.2-2.5l.2-5.2c-.4-.2 3.2-3.8 3-4.1l3.8.4 16-5.8c1.1 3 3.4 4.9 5.1 4.3 1.7-.6 2.2-3.6 1.1-6.6l3.5-1.3c.1.1.1.2.2.3l.5.7c.4.5.8.9 1.2 1.3 1.4.7 2.8 1.4 3.2 2.8z" fill="url(#SVGID_28_)"/><linearGradient id="SVGID_29_" gradientUnits="userSpaceOnUse" x1="-1064.5978" y1="1159.6031" x2="-987.0878" y2="1159.0795" gradientTransform="matrix(-.2433 .97 .97 .2433 -1204.6708 836.6609)"><stop offset=".1718" stop-color="#ffd672"/><stop offset="1" stop-color="#f3ad5f"/></linearGradient><path d="M166.5 99.2l16-5.9v-.1c-1.1-3-.6-6 1.1-6.6 1.7-.6 4 1.3 5.1 4.4v.1l3.5-1.3c-2-3-3.1-7-6-9.1l-.1-.1c-.3.2-.6.3-.9.5-4.4 2.4-9.4 3.7-14.6 3.9-1.7 2.2-4.2 4.2-7 5.8l.1.1c2.2 2.2 3.2 5.3 2.8 8.3z" fill="url(#SVGID_29_)"/><path class="st50" d="M185.9 99.6c-2.7-.1-4.2-5-3.7-6.1.7.8.9 1.9 1.8 2.5.9.7 1.6 1.8 2.7 1.8.9 0 2.4-1.7 2-.3-.4 1.1-1 2.1-2.8 2.1z"/><path class="st51" d="M188 91.4c-1.1-3.1-3.4-5-5.1-4.4-1.7.6-2.2 3.6-1.1 6.6v.1c1.1 3 3.4 4.9 5.1 4.3 1.7-.6 2.2-3.5 1.1-6.6z"/><path class="st8" d="M182.5 93.4c1.1 3 3.4 4.9 5.1 4.3 1.7-.6 2.2-3.6 1.1-6.6V91c-1.1-3-3.4-5-5.1-4.4-1.7.7-2.2 3.7-1.1 6.8 0-.1 0 0 0 0z"/><path class="st50" d="M174.9 86c-1 0-2-.1-2.9.3-1 .4-1.7 1.3-2.4 2-1 1-2.1 2-3.3 2.8-.8.5-1.6 1-2.5 1-.9 0-1.9-.7-1.9-1.6 0-.5.3-1 .7-1.4.4-.4.9-.6 1.4-.9 2.3-1.4 4.3-3.4 5.6-5.7 3.3.8 6.8.5 9.9-.9.9-.4 1.7-.9 2.7-1.2.8-.3 3.3-.8 2.3.8-.7 1-1.7 1.9-2.6 2.6-2.1 1.3-4.5 2.1-7 2.2zM194.6 98.3c-.2.1-.4.3-.5.5s-.2.5-.2.7c.1.3.4.4.6.4.5.1 1.4-.1 1.9-.3.3-.5.9-3.6.6-4.5-.5 0-.8 1.4-1.1 1.8-.4.5-.8 1-1.3 1.4zM187.4 124.8c0 .1 0 .3.1.4.2 1.3.7 2.9 1.3 4.7.2.5.4 1.1.6 1.7.3.6.6 1.3.9 2 .2.5.5 1 .7 1.5.8 1.6-1.4 5.6-6.2 9.3-.6.5-1.3.9-1.9 1.2-1.1-8.9-1.2-12.5-6.6-23.4 5.6 3.6 10.5 2.6 11.1 2.6zM171.1 99.4c-1.5.6-3.3 1.3-4.8.7 4.5-2.3 9.2-4.1 14.1-5.5.7-.2 1.9.2.8.7-.9.4-2 .7-3 1.1-2.4 1-4.8 2-7.1 3z"/><path class="st52" d="M188.7 91.1c-1.1-3.1-3.4-5-5.1-4.4-1.7.6-2.2 3.6-1.1 6.6v.1c1.1 3 3.4 4.9 5.1 4.3 1.7-.6 2.2-3.6 1.1-6.6z"/><path class="st50" d="M189.5 92.6c.2-.1.5-.2.7-.3.9-.5 2.1-.8 2.9-1.3 0 0 .1 0 .1-.1l-.6-.7c-.1 0-.3 0-.4.1-1 .3-2 .7-3 1.1.2.5.3.8.3 1.2z"/><path class="st51" d="M192.4 89.6c1.3 3 3.7 4.7 5.4 4 1.7-.7 2-3.7.7-6.7-1.3-2.9-3.7-4.7-5.4-4-1.7.7-2 3.7-.7 6.7z"/><path class="st8" d="M193.2 89.6c1.3 2.9 3.7 4.7 5.4 4 1.7-.7 2-3.7.7-6.7-1.3-2.9-3.7-4.7-5.4-4-1.7.7-2 3.7-.7 6.7z"/><path d="M193.2 89.6c1.3 3 3.7 4.7 5.4 4 1.7-.7 2-3.7.7-6.7-1.3-2.9-3.7-4.7-5.4-4-1.7.7-2 3.7-.7 6.7z" fill="#fff" stroke="#24497e" stroke-width=".25" stroke-linecap="round" stroke-linejoin="round" stroke-miterlimit="10"/><path class="st52" d="M193.2 89.6l-.8.4-3.4 1.5M182.5 93.4l-16 5.8-2.1.8"/><radialGradient id="SVGID_30_" cx="-1062.3701" cy="1122.1986" r="0" gradientTransform="matrix(-.2433 .97 .97 .2433 -1204.6708 836.6609)" gradientUnits="userSpaceOnUse"><stop offset=".1464" stop-color="#1b375f"/><stop offset="1" stop-color="#24497e"/></radialGradient><path class="st51" d="M142.7 87.4c-.2 2.4.5 4.5 1.8 5.9.4.4.9.7 1.4 1 1.4.7 3.2.7 4.6 0 3.8.7 8.8-.4 13.4-3 2.9-1.6 5.4-3.6 7-5.8 5.2-.2 10.2-1.6 14.6-3.9.3-.2.6-.3.9-.5 5.7-3.3 10.2-9.5 7.9-16.3-1.2-3.7-4.5-6.6-8.4-7-3.4-.3-6.7 1.3-10.1 1.4-3.5.2-6.9-1.2-10.4-.6-2 .3-3.9 1.3-5.5 2.6-1.1.9-2.1 2.1-3.4 2.9-1.3.9-2.7 1.1-4.1 1.7-7.7 3.3-11.2 13.4-9.8 21.2.1.2.1.3.1.4z"/><path class="st51" d="M164.9 126.6c.8-.6 1.2-1.4 1.5-2.2.5-1.6.7-3.2.7-4.7 0-1.6-.3-3.1-.7-4.7-.2-.8-.4-1.5-.7-2.2-.1-.3-.3-.8-.5-1.2-.2-.4-.5-.7-.8-1-1.1-1.2-2.3-2-2.8-3.3-.6-1.3-.9-2.7-.5-4 .3-1.3 1.3-2.4 2.5-2.7 1.2-.3 2.8.2 3.3 1.5.1.2.3.2.4.1.1-.1.2-.2.2-.4-.1-.5-.4-.9-.7-1.2v-.1c.1-.4.2-.8.2-1.3.4-3.2-.3-6.1-2.5-8.3-3 1.5-10.3 3.5-14 2.7-1.3.7-2.8.7-4 .2-.1-.2-.3-.3-.5-.3-.3 0-.5.3-.5.6.1 3.2 1 6.2 2.3 9 1.3 2.8 3 5.4 4.7 8 1.6 2.6 3.2 5.1 4.4 7.9.6 1.4 1.2 2.8 2 4.2.4.7.8 1.4 1.3 2 .5.6 1.1 1.3 2 1.6.8.4 1.9.4 2.7-.2z"/><path class="st8" d="M196 105.3h-.2c-.3 0-.5.1-.8.1-.6.1-1.2.3-1.7.5-.2.1-.4.2-.4.5 0 .1.1.2.2.3.4.4.9.6 1.4.7.5.1 1.1 0 1.5-.4.3-.3.5-.8.5-1.2 0-.2-.1-.4-.2-.5h-.3z"/></g><path fill="#fff" stroke="#d3dbe5" stroke-width=".25" stroke-miterlimit="10" d="M146.1 326.9h48.2V402h-48.2z"/><path class="st34" d="M180.2 364.4l-15.6 9.1v-18.1z"/><path class="st38" d="M99 102.8s12.7-5.4 19.2-6.2"/></svg>