<svg xmlns="http://www.w3.org/2000/svg" xmlns:xlink="http://www.w3.org/1999/xlink" viewBox="0 0 463.67 366.24"><defs><style>.cls-1,.cls-14,.cls-16,.cls-18,.cls-23,.cls-28,.cls-38,.cls-4,.cls-5,.cls-8{fill:none;}.cls-2{isolation:isolate;}.cls-3,.cls-6{fill:#f6f8fa;}.cls-14,.cls-28,.cls-4{stroke:#d3dbe5;}.cls-16,.cls-23,.cls-28,.cls-4,.cls-5,.cls-8{stroke-linecap:round;}.cls-16,.cls-23,.cls-4,.cls-5,.cls-8{stroke-linejoin:round;}.cls-14,.cls-16,.cls-18,.cls-23,.cls-28,.cls-4,.cls-8{stroke-width:0.25px;}.cls-5{stroke:#24497e;}.cls-26,.cls-6,.cls-7{mix-blend-mode:multiply;}.cls-8{stroke:#fff;}.cls-9{fill:url(#Sfumatura_senza_nome_6);}.cls-10{fill:#43aa82;}.cls-11{fill:url(#Sfumatura_senza_nome_7);}.cls-12{fill:url(#Sfumatura_senza_nome_6-2);}.cls-13{fill:url(#Sfumatura_senza_nome_34);}.cls-14,.cls-18,.cls-28,.cls-38{stroke-miterlimit:10;}.cls-15{fill:#d3dbe5;}.cls-16,.cls-18{stroke:#59e3ad;}.cls-16{stroke-dasharray:3 3 3 3;}.cls-17{fill:url(#Sfumatura_senza_nome_11);}.cls-19{clip-path:url(#clip-path);}.cls-20{fill:url(#Sfumatura_senza_nome_6-3);}.cls-21{fill:url(#Sfumatura_senza_nome_31);}.cls-22{fill:#fff;}.cls-23{stroke:#43aa82;}.cls-24{fill:url(#Sfumatura_senza_nome_108);}.cls-25{fill:url(#Sfumatura_senza_nome_11-2);}.cls-26{fill:#b3b3b3;opacity:0.1;}.cls-27{fill:url(#Sfumatura_senza_nome_28);}.cls-29{fill:url(#Sfumatura_senza_nome_6-4);}.cls-30{fill:url(#Sfumatura_senza_nome_6-5);}.cls-31{fill:url(#Sfumatura_senza_nome_6-6);}.cls-32{fill:url(#Sfumatura_senza_nome_6-7);}.cls-33{fill:url(#Sfumatura_senza_nome_6-8);}.cls-34{fill:url(#Sfumatura_senza_nome_6-9);}.cls-35{fill:url(#Sfumatura_senza_nome_6-10);}.cls-36{fill:url(#Sfumatura_senza_nome_6-11);}.cls-37{fill:url(#Sfumatura_senza_nome_12);}.cls-38{stroke:#7c7c7c;}</style><linearGradient id="Sfumatura_senza_nome_6" x1="-218.22" y1="428.5" x2="-105.74" y2="495.6" gradientTransform="translate(272.32 -138.2) rotate(2.48)" gradientUnits="userSpaceOnUse"><stop offset="0.14" stop-color="#9fefcf"/><stop offset="0.74" stop-color="#59e3ad"/></linearGradient><linearGradient id="Sfumatura_senza_nome_7" x1="-189.56" y1="466.52" x2="-162.01" y2="516.66" gradientTransform="translate(272.32 -138.2) rotate(2.48)" gradientUnits="userSpaceOnUse"><stop offset="0.01" stop-color="#9fefcf"/><stop offset="0.74" stop-color="#59e3ad"/></linearGradient><linearGradient id="Sfumatura_senza_nome_6-2" x1="-194.07" y1="454.3" x2="-160.9" y2="441.21" xlink:href="#Sfumatura_senza_nome_6"/><radialGradient id="Sfumatura_senza_nome_34" cx="-183.79" cy="407.08" r="25.16" gradientTransform="matrix(0.8, 0.6, -1.28, 1.72, 741.16, -331.02)" gradientUnits="userSpaceOnUse"><stop offset="0" stop-color="#e1e1e1"/><stop offset="0.28" stop-color="#fff"/><stop offset="0.87" stop-color="#e1e1e1"/></radialGradient><radialGradient id="Sfumatura_senza_nome_11" cx="-2001.05" cy="-3555.61" r="24.96" gradientTransform="translate(1537.14 2243.91) scale(0.55 0.55)" gradientUnits="userSpaceOnUse"><stop offset="0" stop-color="#f6f8fa"/><stop offset="0.07" stop-color="#f3f5f8"/><stop offset="0.5" stop-color="#e2e7ee"/><stop offset="0.82" stop-color="#dce2ea"/></radialGradient><clipPath id="clip-path" transform="translate(-15.63 -13.36)"><path class="cls-1" d="M172.07,222.22s38.49-15.86,82-2l-2.21-100-81.79,3.13Z"/></clipPath><linearGradient id="Sfumatura_senza_nome_6-3" x1="196.31" y1="131.86" x2="232.33" y2="228.77" gradientTransform="matrix(1, 0, 0, 1, 0, 0)" xlink:href="#Sfumatura_senza_nome_6"/><linearGradient id="Sfumatura_senza_nome_31" x1="216.9" y1="196.46" x2="217.07" y2="186.16" gradientUnits="userSpaceOnUse"><stop offset="0.24" stop-color="#4891fb"/><stop offset="1" stop-color="#227bfb"/></linearGradient><radialGradient id="Sfumatura_senza_nome_108" cx="240.48" cy="187.95" r="15" gradientUnits="userSpaceOnUse"><stop offset="0.31" stop-color="#fff"/><stop offset="1" stop-color="#e1e1e1"/></radialGradient><radialGradient id="Sfumatura_senza_nome_11-2" cx="37.9" cy="116.61" r="15.09" gradientTransform="matrix(1, 0, 0, 1, 0, 0)" xlink:href="#Sfumatura_senza_nome_11"/><radialGradient id="Sfumatura_senza_nome_28" cx="320.81" cy="68.83" r="117.59" gradientUnits="userSpaceOnUse"><stop offset="0" stop-color="#59e3ad"/><stop offset="0.21" stop-color="#61e4b1"/><stop offset="0.54" stop-color="#76e8bb"/><stop offset="0.93" stop-color="#98eecc"/><stop offset="1" stop-color="#9fefcf"/></radialGradient><linearGradient id="Sfumatura_senza_nome_6-4" x1="206.54" y1="83.3" x2="245.98" y2="83.3" gradientTransform="matrix(1, 0, 0, 1, 0, 0)" xlink:href="#Sfumatura_senza_nome_6"/><linearGradient id="Sfumatura_senza_nome_6-5" x1="233.88" y1="55.85" x2="215.57" y2="40.05" gradientTransform="matrix(1, 0, 0, 1, 0, 0)" xlink:href="#Sfumatura_senza_nome_6"/><linearGradient id="Sfumatura_senza_nome_6-6" x1="318.01" y1="8.15" x2="212.86" y2="7.03" gradientTransform="matrix(1, 0, 0, 1, 0, 0)" xlink:href="#Sfumatura_senza_nome_6"/><linearGradient id="Sfumatura_senza_nome_6-7" x1="374.57" y1="31.8" x2="305.2" y2="8.89" gradientTransform="matrix(1, 0, 0, 1, 0, 0)" xlink:href="#Sfumatura_senza_nome_6"/><linearGradient id="Sfumatura_senza_nome_6-8" x1="402.48" y1="99.9" x2="445.93" y2="74.4" gradientTransform="matrix(1, 0, 0, 1, 0, 0)" xlink:href="#Sfumatura_senza_nome_6"/><linearGradient id="Sfumatura_senza_nome_6-9" x1="404.85" y1="112.42" x2="431.07" y2="134.69" gradientTransform="matrix(1, 0, 0, 1, 0, 0)" xlink:href="#Sfumatura_senza_nome_6"/><linearGradient id="Sfumatura_senza_nome_6-10" x1="359.48" y1="113.92" x2="360.69" y2="141.58" gradientTransform="matrix(1, 0, 0, 1, 0, 0)" xlink:href="#Sfumatura_senza_nome_6"/><linearGradient id="Sfumatura_senza_nome_6-11" x1="289.95" y1="101.1" x2="281.94" y2="125.14" gradientTransform="matrix(1, 0, 0, 1, 0, 0)" xlink:href="#Sfumatura_senza_nome_6"/><radialGradient id="Sfumatura_senza_nome_12" cx="313.05" cy="115.84" r="37.23" gradientTransform="translate(0 -29.71) scale(1 1.26)" gradientUnits="userSpaceOnUse"><stop offset="0.05" stop-color="#f6f8fa"/><stop offset="0.12" stop-color="#f3f5f8"/><stop offset="0.52" stop-color="#e2e7ee"/><stop offset="0.82" stop-color="#dce2ea"/></radialGradient></defs><title>security</title><g class="cls-2"><g id="Layer_1" data-name="Layer 1"><path class="cls-3" d="M73.8,163.3S71,174.76,75.41,177l-7.17.73S71.38,164.1,73.8,163.3Z" transform="translate(-15.63 -13.36)"/><path class="cls-4" d="M68.24,177.71c7.31-30.32,33.92-52.79,65.62-52.79" transform="translate(-15.63 -13.36)"/><path class="cls-4" d="M130.8,131.29c11.07-24.38,35.21-39,59-33.78" transform="translate(-15.63 -13.36)"/><path class="cls-4" d="M186.63,100.69c18.22-16.21,48.47-17.72,73.52-2" transform="translate(-15.63 -13.36)"/><path class="cls-4" d="M249.41,101.35c44.72-13.3,90.5.59,109.41,36.11" transform="translate(-15.63 -13.36)"/><path class="cls-3" d="M404.63,181.21s2.84-16.44,13.57-9.83a47.13,47.13,0,0,0-16.12-7.9S405.1,170.23,404.63,181.21Z" transform="translate(-15.63 -13.36)"/><path class="cls-3" d="M331.5,316.52v-.06c0-.58,21.35-3.19,20.7-3.22-41.71-1.8-53.89-4.53-70.32-9.89-11.58-3.78-22.72-8.91-32.15-16S232.63,271,228.8,260.47a34.26,34.26,0,0,1-2.18-10.63c-.1-3,1.55-6.68.86-9.49-9.09,2-16.16,15.37-17.93,22.84a31.92,31.92,0,0,0-.77,5.22A57.44,57.44,0,0,0,213,282c3.44,7.39,8.93,12.8,16.05,17.54a140.78,140.78,0,0,0,14,8.23c6.74.9,12.81,5.48,20.09,5.56a5.19,5.19,0,0,1,2.9.87c21.55,3.73,40.06,4.36,61.92,2.7C327.92,316.6,331.49,316.77,331.5,316.52Z" transform="translate(-15.63 -13.36)"/><path class="cls-3" d="M213,277.44a28.11,28.11,0,0,1-1.35-4.94c-1.28-2.12,0-5.54-1.32-7.43-1.78-2.59-146.6,33.85-166.3-35.8-7.69,11-24.47,60.55,57.74,68.09,13,1.67,26.4,1.44,39.46,1.1,5.52-.14,11-.55,16.36-1.18,7-1,13.91-2.27,20.83-3.65a226.31,226.31,0,0,0,34.87-11.28,6.67,6.67,0,0,0,.45-1.1,8,8,0,0,0,.25-1.35C213.58,279.06,213.26,278.22,213,277.44Z" transform="translate(-15.63 -13.36)"/><path class="cls-4" d="M142.27,298.26A225.52,225.52,0,0,0,214,281.38" transform="translate(-15.63 -13.36)"/><path class="cls-4" d="M37.73,246.84a36.91,36.91,0,0,0,2.57,20.49c3.8,8.44,11.06,15,19.25,19.33s17.27,6.63,26.38,8.34a224.94,224.94,0,0,0,56.34,3.26" transform="translate(-15.63 -13.36)"/><path class="cls-3" d="M59.64,211.53s-20.09,11.27-18.35,0c0,0-1.33,10.46,3.45,16.56C44.74,228.09,52.19,216.08,59.64,211.53Z" transform="translate(-15.63 -13.36)"/><path class="cls-4" d="M44,229.27a48.23,48.23,0,0,0-6.28,17.57" transform="translate(-15.63 -13.36)"/><path class="cls-4" d="M44.74,228.09c-.26.38-.5.78-.73,1.18" transform="translate(-15.63 -13.36)"/><path class="cls-4" d="M72.64,202.26c-10.85,6.77-21.12,15-27.9,25.83" transform="translate(-15.63 -13.36)"/><path class="cls-4" d="M232.37,235.57c-10.71,5-18.72,14.43-21.33,25-2.33,9.47-.83,17.55,3.19,24.39,10.44,17.78,38,27.11,59.77,30.46C325.66,325.8,452.87,303.67,437.43,243a29.17,29.17,0,0,0-1.22-3.12l-.37-.76a31.25,31.25,0,0,0-1.9-3.39,34,34,0,0,0-3.2-4.27c-7.38-8.54-18.83-14-31-14.85" transform="translate(-15.63 -13.36)"/><path class="cls-4" d="M356.56,132.81h0a47.58,47.58,0,0,1,32.59,11.73,46.31,46.31,0,0,1,14.47,42.23" transform="translate(-15.63 -13.36)"/><path class="cls-4" d="M401.72,163.48c.7.19,1.38.41,2.07.65.9.3,1.81.64,2.69,1,10.16,4.33,18.82,13.15,23.58,24.26a55.8,55.8,0,0,1,.64,41.16" transform="translate(-15.63 -13.36)"/><path class="cls-4" d="M359.78,177.73" transform="translate(-15.63 -13.36)"/><path class="cls-5" d="M39.74,238.53" transform="translate(-15.63 -13.36)"/><path class="cls-5" d="M205.71,282.31" transform="translate(-15.63 -13.36)"/><path class="cls-4" d="M272.89,226.18a159.46,159.46,0,0,0-53.17-9.75,162.74,162.74,0,0,0-31.78,2.7c-1.06.19-2.11.4-3.17.62a156.71,156.71,0,0,0-32.66,10.5" transform="translate(-15.63 -13.36)"/><path class="cls-6" d="M275.85,172.44c11.44-7.78,37.41-8.21,54.91,5.05C308.51,153.55,285.28,158.52,275.85,172.44Z" transform="translate(-15.63 -13.36)"/><path class="cls-4" d="M334.43,180c-9.95-7.21-20.33-11.46-30.56-12.71a51.16,51.16,0,0,0-17.77.86l-1.75.44a54.63,54.63,0,0,0-17.83,8.56" transform="translate(-15.63 -13.36)"/><path class="cls-4" d="M44.93,227.37a34,34,0,0,1,43-47.59" transform="translate(-15.63 -13.36)"/><path class="cls-3" d="M101.78,268.33l0,0a4.53,4.53,0,0,1-.68.24C102,268.06,102.55,267.78,101.78,268.33Z" transform="translate(-15.63 -13.36)"/><g class="cls-7"><path class="cls-3" d="M81,369.24a51.26,51.26,0,0,1-8.09-12.07c-3.62-.91-7.55-3.62-9.8-5.35A34.61,34.61,0,0,1,56.46,345a.94.94,0,0,0-.33.71,47.33,47.33,0,0,0,5.07,10c1.55,2.07,2.56,4.13,3.89,6.18,3.65,3.3,6.94,7,10.75,10.07h0a10.92,10.92,0,0,1,2,1.35l0,0c1.82.87,3.61,1.75,5.45,2.53,1.14.37,2.28.72,3.36,1.12l1.68.62,1.07.26a3.57,3.57,0,0,1,1.34.57A22.13,22.13,0,0,0,96,379.6,38.89,38.89,0,0,1,81,369.24Z" transform="translate(-15.63 -13.36)"/></g><path class="cls-8" d="M79.77,351.57s2.43,10.76,9.39,15.17" transform="translate(-15.63 -13.36)"/><path class="cls-3" d="M84.62,278.68l10-15.57,2.48,3.37a5.69,5.69,0,0,0,.7-.12l3.57-1,.43-.13a5,5,0,0,0,.68-.24l0,0a3.85,3.85,0,0,0,1-.55,3.55,3.55,0,0,0,2.46-4.15l-.08-.19c0-.05,0-.12,0-.17a3.47,3.47,0,0,0-1.23-2.68c-.12-.09-.27-.16-.39-.26-.38-1.47-1.73-2.77-4.09-2.92-3.18-.19-6.2.84-9,1.8,1.51-2.29,4-4.57,7.09-5a12,12,0,0,1,9.44,2.82,8,8,0,0,1,2.46,8c-.89,3.26-4.14,6-8.15,6.7a11.31,11.31,0,0,1-4.45-.07c-5.19,3.5-8.34,12.51-8.34,12.51Z" transform="translate(-15.63 -13.36)"/><path class="cls-9" d="M147.59,297.23c4.08,22.6,8.5,73.54-35.26,79.41-1.36.19-2.69.3-4,.36-43.66,1.9-43.88-67.27-43.88-67.27l18.2-5.26,22.56-6.5A137,137,0,0,0,147.59,297.23Zm-21.77,49.59-4.5-13.55a16.68,16.68,0,0,0,3.39-11.71c-.72-6.59-6-10.27-11.58-7.93a10.84,10.84,0,0,0-1.74.94,14.48,14.48,0,0,0-5.72,14.4c.75,3.73,3,6.3,5.87,7.16l0,1.41.24,13.89Z" transform="translate(-15.63 -13.36)"/><path class="cls-10" d="M121.32,333.27l4.5,13.55-14,4.61-.24-13.89,0-1.41c-2.83-.86-5.12-3.43-5.87-7.16a14.48,14.48,0,0,1,5.72-14.4,10.84,10.84,0,0,1,1.74-.94c5.59-2.34,10.86,1.34,11.58,7.93A16.68,16.68,0,0,1,121.32,333.27Z" transform="translate(-15.63 -13.36)"/><path class="cls-11" d="M108.36,377v.1c-11.15.54-34-1.89-48.11-27.65h0c-10.22-19.69-10.3-45.84-10.3-45.84l14.53,6.12h0S64.7,378.9,108.36,377Z" transform="translate(-15.63 -13.36)"/><path class="cls-12" d="M105.23,298l-22.55,6.5-18.2,5.26h0l-14.53-6.12,23.5-6.79c.07.82.16,1.62.26,2.4.42,3,3,3.78,6,3.91a6.15,6.15,0,0,0,1.13-.05,11.55,11.55,0,0,0,1.4-.28c2.62-.71,4.27-2.37,3.86-5.29-.16-1.16-.29-3-.34-4.23C92.11,295.11,98.65,297.09,105.23,298Z" transform="translate(-15.63 -13.36)"/><line class="cls-8" x1="48.84" y1="296.37" x2="34.31" y2="290.25"/><g class="cls-7"><path class="cls-3" d="M150.34,318.88c-.07,3.66,0,7.33-.26,11a109.9,109.9,0,0,1-3,17.93,41.12,41.12,0,0,1-1.35,4.29,54.72,54.72,0,0,1-4.67,7.57,59.29,59.29,0,0,1-4.2,5.06c-1,.89-2,1.76-3,2.63a75,75,0,0,0,10.7-39.24c0-4.31-.51-8.8-2.75-12.48-2.6-4.34-7.28-7-11.88-9-8.65-3.69-18-6.81-27.36-7.94-1-.12-2.7-.73-3.73-.8a19.37,19.37,0,0,0-8.19.71c-.49,5.75-15.37,8.22-15.69,3.24,2.28,1.76,7.06,1.94,10-.49a4.44,4.44,0,0,0,1.06-3.11c-.15-.07-.27-.12-.39-.19-.12-1.5-.26-3-.43-4.44,0,0,.12-.43.14-.5,8.68,4,19.14,5.15,28.54,5.64,23.74.62,28.41-.76,33.64-1.48C148.36,298.53,149.69,313.46,150.34,318.88Z" transform="translate(-15.63 -13.36)"/></g><path class="cls-8" d="M68.68,312.25c1.45,15.91,6.09,52.78,28.73,60.61" transform="translate(-15.63 -13.36)"/><path class="cls-13" d="M106.39,258.48a6.26,6.26,0,0,1-5.33,7c-6.29.87-10,6.44-11.68,9.68-2.5,4.86-3.79,11.76-3.66,18.08,0,.21,0,.43,0,.64,0,1.23.15,2.43.31,3.59.41,2.92-1.24,4.58-3.86,5.29a11.55,11.55,0,0,1-1.4.28,6.15,6.15,0,0,1-1.13.05c-3-.13-5.55-.88-6-3.91-.11-.78-.2-1.59-.27-2.39a54.32,54.32,0,0,1-.12-7.12,50.74,50.74,0,0,1,5-20.22c4.79-9.31,12.27-15.11,21.07-16.33A6.26,6.26,0,0,1,106.39,258.48Z" transform="translate(-15.63 -13.36)"/><g class="cls-7"><path class="cls-3" d="M100.76,265.55c3.4-.46,4.18-2,5.18-3.72,2.62-7.7-6.79-4.83-9.91-3.2A29.92,29.92,0,0,0,84,270.7c-4.34,7.86-5.68,17-6.31,26-.17,2.37,0,5.26,2.08,6.38,2.59.56,6.8-1.65,6.34-4.85C83.75,282.51,90.91,266.51,100.76,265.55Z" transform="translate(-15.63 -13.36)"/></g><rect class="cls-14" x="425.36" y="135.35" width="38.19" height="34.37"/><polygon class="cls-15" points="452.33 152.54 440.02 159.65 440.02 145.43 452.33 152.54"/><path class="cls-16" d="M460.48,189.13s4.69,39.45-31.18,62.07" transform="translate(-15.63 -13.36)"/><rect class="cls-17" x="432.54" y="284.12" width="10.61" height="10.61"/><rect class="cls-18" x="424.12" y="272.97" width="6.44" height="6.44"/><polygon class="cls-3" points="238.44 206.88 228.44 204.21 227.98 126.73 238.44 126.73 238.44 206.88"/><path class="cls-4" d="M183.72,161.72a55.68,55.68,0,0,1,22.35,4.66" transform="translate(-15.63 -13.36)"/><g class="cls-19"><polygon class="cls-10" points="166.81 216.01 161.11 216.01 161.07 119.9 166.81 119.9 166.81 216.01"/><path class="cls-20" d="M250.33,133.26v96.11H179.05V133.26Z" transform="translate(-15.63 -13.36)"/><polyline class="cls-21" points="221 184.27 221.16 184.27 221.38 184.28 221.38 198.87 217.15 195.18 212.59 198.88 212.58 184.27 212.68 184.27"/><path class="cls-22" d="M239.37,192.72a6.72,6.72,0,1,1-6.72-6.72A6.72,6.72,0,0,1,239.37,192.72Z" transform="translate(-15.63 -13.36)"/><line class="cls-23" x1="174.07" y1="130.35" x2="220.56" y2="130.35"/><line class="cls-23" x1="174.07" y1="139.7" x2="220.56" y2="139.7"/><line class="cls-23" x1="174.07" y1="149.05" x2="220.56" y2="149.06"/><line class="cls-23" x1="174.07" y1="158.41" x2="220.56" y2="158.41"/><line class="cls-23" x1="174.07" y1="167.76" x2="220.56" y2="167.76"/><path class="cls-24" d="M232.61,199.78A7.11,7.11,0,0,1,228,198a7.07,7.07,0,0,1,4.64-12.4h0a7.08,7.08,0,0,1,0,14.16Zm0-12.93a5.82,5.82,0,0,0-5.83,5.84,5.76,5.76,0,0,0,2,4.4h0a5.84,5.84,0,1,0,3.85-10.24Z" transform="translate(-15.63 -13.36)"/></g><path class="cls-6" d="M168.78,223.15s47.79-27.76,87.39-2.73C256.17,220.42,219.76,204.49,168.78,223.15Z" transform="translate(-15.63 -13.36)"/><rect class="cls-25" x="29.67" y="105.26" width="11.7" height="11.7"/><rect class="cls-18" x="0.13" y="82.71" width="24.91" height="24.91"/><path class="cls-26" d="M298.06,161.36s2.32,4.25,7.38-13.82c-1.57,5.1-5,18.41-5,18.41l-2.07.27s.39-4,0-5" transform="translate(-15.63 -13.36)"/><path class="cls-27" d="M232.94,28.1v-.41l93.39,1.16L410.76,63s-4.94,24.13,28.71,46.89l-.09.13c-.6-.19-19.51-6.22-34.17,5.85a21.88,21.88,0,0,0-5.55,24c-.37-.4-12.09-13.17-37.4-14.9-24.5-1.66-39.71,8.07-41.09,9a124.8,124.8,0,0,0-9.11-10.43L309.41,121c-6.1-5.55-14.33-11.39-24-14.17a74.28,74.28,0,0,0-39.44-.33s.35-22.23-14.18-34.83c-12-10.41-21-11.53-23.81-11.6C220.16,59.79,239.15,51.6,232.94,28.1Z" transform="translate(-15.63 -13.36)"/><path class="cls-28" d="M326.86,66.18c28.55,19.45,53.41,45.09,72.8,73.69" transform="translate(-15.63 -13.36)"/><path class="cls-28" d="M439.47,109.93c-13.28-7.56-100-45.86-112.61-43.75,28-4.16,56-7.59,83.9-3.14" transform="translate(-15.63 -13.36)"/><path class="cls-28" d="M232.94,27.69c32.43,6.48,67,19.28,93.92,38.49.24-12.62-.34-24.49-.53-37.33" transform="translate(-15.63 -13.36)"/><path class="cls-28" d="M208,60.09c16.76-1.68,97.55,3.44,118.87,6.09" transform="translate(-15.63 -13.36)"/><path class="cls-28" d="M246,106.52c26.26-15.33,52.28-30,80.88-40.34" transform="translate(-15.63 -13.36)"/><path class="cls-28" d="M321.1,133.55c5.14-22.47,6.59-44.43,5.35-67.45" transform="translate(-15.63 -13.36)"/><g class="cls-7"><path class="cls-3" d="M357.64,77.72C355,86.27,339.83,89.16,323,84.43l4.95-17.85c-.63-1.72-3.13-.81-3.13-.81l-5,17.7c-16.53-5.55-28-16.64-25.36-25.17,2.71-8.81,19.05-11.6,36.5-6.24S360.34,68.91,357.64,77.72Z" transform="translate(-15.63 -13.36)"/></g><path class="cls-29" d="M207.1,60.09H208c2.78.07,11.82,1.19,23.81,11.6C246.33,84.29,246,106.52,246,106.52l-.06.14-.23-.09L206.54,60.4l.37-.46Z" transform="translate(-15.63 -13.36)"/><path class="cls-30" d="M206.91,59.94l25.63-32.26h.4v.41c6.21,23.5-12.78,31.69-24.95,32a6.71,6.71,0,0,0-.89,0Z" transform="translate(-15.63 -13.36)"/><polygon class="cls-31" points="315.37 1.17 315.37 1.18 310.7 15.49 217.31 14.33 216.91 14.32 248.75 0 315.37 1.17"/><polygon class="cls-32" points="383.16 29.51 395.35 49.55 395.13 49.67 310.7 15.49 315.37 1.18 315.37 1.17 315.38 1.17 383.16 29.51"/><path class="cls-33" d="M411,62.91l28.71,47.16h0a1.53,1.53,0,0,1-.21-.14C405.82,87.17,410.76,63,410.76,63Z" transform="translate(-15.63 -13.36)"/><path class="cls-34" d="M439.68,110.07h0l-39.88,30-.14-.19h0a21.88,21.88,0,0,1,5.55-24c14.66-12.07,33.57-6,34.17-5.85l.09-.13A1.53,1.53,0,0,0,439.68,110.07Z" transform="translate(-15.63 -13.36)"/><path class="cls-35" d="M399.66,139.88l.14.19-.14.1L321.36,134l-.19-.07c1.38-.92,16.59-10.65,41.09-9,25.31,1.73,37,14.5,37.4,14.9Z" transform="translate(-15.63 -13.36)"/><path class="cls-36" d="M321.17,134l-.19-.07L310.26,130l-3-1.1-61.3-22.24.06-.14a74.28,74.28,0,0,1,39.44.33c9.66,2.78,17.89,8.62,24,14.17l2.65,2.51A124.8,124.8,0,0,1,321.17,134Z" transform="translate(-15.63 -13.36)"/><path class="cls-37" d="M327.92,66.58l-14.78,53.24-1.79,6.47-11,39.63v.38H299.1c-.14-.41-.55.32-.7-.09-.27-.7.05-2.78-.24-3.47l10.15-37.56,2.19-7.88,14.32-51.6C325.05,64.86,328.19,65.59,327.92,66.58Z" transform="translate(-15.63 -13.36)"/><path class="cls-26" d="M326.21,72.68,328,66.5s-.14-.89-1.47-1.06S327.22,68.52,326.21,72.68Z" transform="translate(-15.63 -13.36)"/><path class="cls-38" d="M326.33,28.85" transform="translate(-15.63 -13.36)"/></g></g></svg>