<svg xmlns="http://www.w3.org/2000/svg" xmlns:xlink="http://www.w3.org/1999/xlink" viewBox="0 0 354.87 445.25"><defs><style>.cls-1,.cls-11,.cls-3,.cls-30,.cls-4,.cls-43,.cls-45,.cls-49,.cls-53,.cls-54,.cls-55{fill:none;}.cls-2{isolation:isolate;}.cls-3,.cls-53{stroke:#59e3ad;}.cls-3,.cls-30,.cls-4,.cls-43,.cls-49,.cls-50,.cls-54,.cls-55{stroke-linecap:round;}.cls-3,.cls-30,.cls-49,.cls-50,.cls-54,.cls-55{stroke-linejoin:round;}.cls-11,.cls-3,.cls-4,.cls-43,.cls-45,.cls-49,.cls-50,.cls-53,.cls-54,.cls-55,.cls-7,.cls-8{stroke-width:0.25px;}.cls-3{stroke-dasharray:3 3 3 3;}.cls-4,.cls-54,.cls-7,.cls-8{stroke:#d3dbe5;}.cls-11,.cls-4,.cls-43,.cls-45,.cls-53,.cls-7,.cls-8{stroke-miterlimit:10;}.cls-5{fill:#edf1f5;}.cls-15,.cls-6{fill:#f6f8fa;}.cls-7,.cls-9{fill:#d3dbe5;}.cls-48,.cls-50,.cls-8{fill:#fff;}.cls-10{fill:url(#Sfumatura_senza_nome_4);}.cls-11,.cls-45{stroke:#b3b3b3;}.cls-12{fill:url(#Sfumatura_senza_nome_182);}.cls-13{fill:url(#Sfumatura_senza_nome_60);}.cls-14{fill:url(#Sfumatura_senza_nome_60-2);}.cls-15,.cls-18{mix-blend-mode:multiply;}.cls-16{fill:url(#Sfumatura_senza_nome_11);}.cls-17{fill:url(#Sfumatura_senza_nome_11-2);}.cls-18{fill:#b3b3b3;opacity:0.3;}.cls-19{fill:#e6e6e6;}.cls-20{clip-path:url(#clip-path);}.cls-21{clip-path:url(#clip-path-2);}.cls-22{fill:url(#Sfumatura_senza_nome_63);}.cls-23{fill:url(#Sfumatura_senza_nome_4-2);}.cls-24{fill:url(#Sfumatura_senza_nome_63-2);}.cls-25{fill:url(#Sfumatura_senza_nome_63-3);}.cls-26{opacity:0.18;}.cls-27{clip-path:url(#clip-path-3);}.cls-28{fill:url(#Sfumatura_senza_nome_63-4);}.cls-29{fill:url(#Sfumatura_senza_nome_63-5);}.cls-30{stroke:#99c3e4;stroke-width:0.5px;}.cls-31{fill:#bbeac7;}.cls-32{fill:url(#Sfumatura_senza_nome_4-3);}.cls-33{fill:#91bdfd;}.cls-34{fill:url(#Sfumatura_senza_nome_182-2);}.cls-35{fill:#db5437;opacity:0.24;}.cls-36{fill:url(#Sfumatura_senza_nome_182-3);}.cls-37{fill:url(#Sfumatura_senza_nome_182-4);}.cls-38{fill:url(#Sfumatura_senza_nome_182-5);}.cls-39{fill:#43aa82;}.cls-40{fill:url(#Sfumatura_senza_nome_4-4);}.cls-41{fill:#24497e;}.cls-42,.cls-45,.cls-55{opacity:0.5;}.cls-43{stroke:#a7b6cb;}.cls-44{opacity:0.2;fill:url(#Sfumatura_senza_nome_15);}.cls-46{fill:url(#Sfumatura_senza_nome_182-6);}.cls-47{fill:url(#Sfumatura_senza_nome_182-7);}.cls-49,.cls-50{stroke:#24497e;}.cls-51{fill:url(#Sfumatura_senza_nome_60-3);}.cls-52{fill:url(#Sfumatura_senza_nome_11-3);}.cls-55{stroke:#f6f8fa;}</style><linearGradient id="Sfumatura_senza_nome_4" x1="219.06" y1="192.35" x2="211.96" y2="197.8" gradientUnits="userSpaceOnUse"><stop offset="0" stop-color="#9fefcf"/><stop offset="0.7" stop-color="#59e3ad"/></linearGradient><linearGradient id="Sfumatura_senza_nome_182" x1="7224" y1="2.02" x2="7230.88" y2="26.5" gradientTransform="matrix(-1, 0, 0, 1, 7289.24, 0)" gradientUnits="userSpaceOnUse"><stop offset="0.17" stop-color="#ffd672"/><stop offset="1" stop-color="#f3ad5f"/></linearGradient><radialGradient id="Sfumatura_senza_nome_60" cx="7090.68" cy="361.05" r="29.02" gradientTransform="matrix(-1, 0, 0, 1, 7289.24, 0)" gradientUnits="userSpaceOnUse"><stop offset="0.15" stop-color="#1b375f"/><stop offset="1" stop-color="#24497e"/></radialGradient><radialGradient id="Sfumatura_senza_nome_60-2" cx="7063.59" cy="412.72" r="36.43" xlink:href="#Sfumatura_senza_nome_60"/><radialGradient id="Sfumatura_senza_nome_11" cx="97.94" cy="283.47" r="112.7" gradientUnits="userSpaceOnUse"><stop offset="0" stop-color="#f6f8fa"/><stop offset="0.07" stop-color="#f3f5f8"/><stop offset="0.5" stop-color="#e2e7ee"/><stop offset="0.82" stop-color="#dce2ea"/></radialGradient><radialGradient id="Sfumatura_senza_nome_11-2" cx="97.93" cy="283.43" r="112.74" xlink:href="#Sfumatura_senza_nome_11"/><clipPath id="clip-path" transform="translate(-5.25 -3.25)"><path class="cls-1" d="M182.66,78.18a14.34,14.34,0,0,1,1-1.73,18.76,18.76,0,0,1,34.49,10.22l.26,8.66v7.48L180.16,88l2.5-9.78"/></clipPath><clipPath id="clip-path-2" transform="translate(-5.25 -3.25)"><path class="cls-1" d="M150.2,81.52c.22,0,0,13.72.86,14.16,6,3.09,26.5,2.06,31.47,1.95l.13-19.45a14.34,14.34,0,0,1,1-1.73,18.78,18.78,0,0,0-15.74-8.54l-.77,0C159.68,68.23,152.94,75,150.2,81.52Z"/></clipPath><linearGradient id="Sfumatura_senza_nome_63" x1="7150.87" y1="80" x2="7089.59" y2="211.24" gradientTransform="matrix(-1, 0, 0, 1, 7289.24, 0)" gradientUnits="userSpaceOnUse"><stop offset="0.02" stop-color="#4891fb"/><stop offset="0.58" stop-color="#227bfb"/><stop offset="1" stop-color="#2f71d1"/></linearGradient><linearGradient id="Sfumatura_senza_nome_4-2" x1="202.37" y1="95.11" x2="201.45" y2="118.27" xlink:href="#Sfumatura_senza_nome_4"/><linearGradient id="Sfumatura_senza_nome_63-2" x1="7114.14" y1="65.98" x2="7053.84" y2="195.13" xlink:href="#Sfumatura_senza_nome_63"/><linearGradient id="Sfumatura_senza_nome_63-3" x1="7208.24" y1="51.52" x2="7124.29" y2="127.2" xlink:href="#Sfumatura_senza_nome_63"/><clipPath id="clip-path-3" transform="translate(-5.25 -3.25)"><path class="cls-1" d="M251.13,163.33c-5.69,4.33-15.09,6.23-25.81,6.84-4.33.26-8.86.31-13.47.19v.12l0,28.46v7.36a3.27,3.27,0,0,1-2.58,3.19c-18.26,3.74-47.38,4.35-59.72-2.79a3.11,3.11,0,0,1-1.55-2.33c-.69-5.48-1.86-23.29-2.61-35.63-.45-7.17-.75-12.48-.75-12.48h0c-.59-4.51.47-28.86.47-28.86-37.44-10-70.63-67.27-84.43-97.52C61.88,17.66,71.63,21.26,73.28,22a.88.88,0,0,1,.23.1c28.86,36,59.82,64.3,78.9,66.28-.09.63-.23,1.73-.42,3.17l.61-3.15-.19,0c.07-.45.1-.69.1-.69,10.85-1,29.45-2.23,35.13-2.35l2.05,0,.23,0c-.4,2.58,18.38,4.46,21.88,7.24,3,2.37,6.28,5.12,9.71,8.18.61.54,1.22,1.1,1.83,1.69,12.25,11.75,25.67,32.24,32,49C257.05,155.88,255.73,159.86,251.13,163.33Z"/></clipPath><linearGradient id="Sfumatura_senza_nome_63-4" x1="153" y1="88.22" x2="151.58" y2="91.25" gradientTransform="matrix(1, 0, 0, 1, 0, 0)" xlink:href="#Sfumatura_senza_nome_63"/><linearGradient id="Sfumatura_senza_nome_63-5" x1="152.73" y1="89.45" x2="151.08" y2="90.93" gradientTransform="matrix(1, 0, 0, 1, 0, 0)" xlink:href="#Sfumatura_senza_nome_63"/><linearGradient id="Sfumatura_senza_nome_4-3" x1="177.15" y1="113.91" x2="193.72" y2="173.9" xlink:href="#Sfumatura_senza_nome_4"/><linearGradient id="Sfumatura_senza_nome_182-2" x1="7233.32" y1="16.17" x2="7235.76" y2="3.35" xlink:href="#Sfumatura_senza_nome_182"/><linearGradient id="Sfumatura_senza_nome_182-3" x1="7230.57" y1="15.65" x2="7233.01" y2="2.83" xlink:href="#Sfumatura_senza_nome_182"/><linearGradient id="Sfumatura_senza_nome_182-4" x1="7225.81" y1="14.75" x2="7228.25" y2="1.92" xlink:href="#Sfumatura_senza_nome_182"/><linearGradient id="Sfumatura_senza_nome_182-5" x1="7110.59" y1="149.72" x2="7125.27" y2="165.32" xlink:href="#Sfumatura_senza_nome_182"/><linearGradient id="Sfumatura_senza_nome_4-4" x1="150.9" y1="104.94" x2="148.93" y2="142.63" xlink:href="#Sfumatura_senza_nome_4"/><radialGradient id="Sfumatura_senza_nome_15" cx="7244.87" cy="163.26" r="0" gradientTransform="matrix(-1, 0, 0, 1, 7289.24, 0)" gradientUnits="userSpaceOnUse"><stop offset="0" stop-color="#f6f8fa"/><stop offset="0.06" stop-color="#f3f5f8"/><stop offset="0.42" stop-color="#e2e7ee"/><stop offset="0.69" stop-color="#dce2ea"/></radialGradient><linearGradient id="Sfumatura_senza_nome_182-6" x1="-3015.96" y1="7585.75" x2="-2951.08" y2="7585.31" gradientTransform="translate(8296.83 786.25) rotate(73.56)" xlink:href="#Sfumatura_senza_nome_182"/><linearGradient id="Sfumatura_senza_nome_182-7" x1="170.03" y1="42.21" x2="255.43" y2="41.63" gradientTransform="matrix(1, 0, 0, 1, 0, 0)" xlink:href="#Sfumatura_senza_nome_182"/><radialGradient id="Sfumatura_senza_nome_60-3" cx="-3014.04" cy="7546.31" r="0" gradientTransform="translate(8296.83 786.25) rotate(73.56)" xlink:href="#Sfumatura_senza_nome_60"/><radialGradient id="Sfumatura_senza_nome_11-3" cx="90.86" cy="338.7" r="28.71" xlink:href="#Sfumatura_senza_nome_11"/></defs><title>speed</title><g class="cls-2"><g id="Layer_1" data-name="Layer 1"><path class="cls-3" d="M198.65,333.32C247,313.72,286.13,272.41,303,223" transform="translate(-5.25 -3.25)"/><path class="cls-4" d="M218.05,203.55a16.14,16.14,0,0,1,1.62,7.52,7.56,7.56,0,0,1-2.84-.59c.43,2.86,1.49,9.31.43,14.15-2.66-1.67-6.5-11.07-7.71-14" transform="translate(-5.25 -3.25)"/><path class="cls-4" d="M203.62,209.64a16.65,16.65,0,0,0,3.88,11.07l1-1.65c2.54,8.69,12.08,39.62,18,46.45,3.19-9.35-1.05-42.28-2.62-52l2.63,1.71c1.19-5.64-3.43-15.67-7.63-19.63" transform="translate(-5.25 -3.25)"/><path class="cls-5" d="M27.61,283.89a1.18,1.18,0,0,1,0-2.36,1.18,1.18,0,0,1,0,2.36Z" transform="translate(-5.25 -3.25)"/><ellipse class="cls-6" cx="215.65" cy="440.7" rx="40.88" ry="4.54"/><rect class="cls-7" x="274.25" y="177.31" width="72.53" height="39.22" transform="translate(615.77 390.59) rotate(-180)"/><rect class="cls-8" x="267.2" y="177.31" width="72.53" height="39.22" transform="translate(601.67 390.59) rotate(-180)"/><polygon class="cls-9" points="307.12 193.34 290.93 202.7 290.93 183.99 307.12 193.34"/><path class="cls-10" d="M209.85,200.38c9-1.79,10.41-6.5,10.41-6.5l-.38-3.15-3.2-.13L208.2,197Z" transform="translate(-5.25 -3.25)"/><line class="cls-11" x1="201.14" y1="215.96" x2="201.95" y2="219.1"/><path class="cls-12" d="M52.87,10.43s-.31,10.09,6.86,15.17h0a6,6,0,0,1,1.6-3.19c2.59-2.69,6.42-2.25,9-1.49-.18-9.08-4.17-15-6-15.38-.08,0-.81-.35-.9-.38-1.82-.43-4.17-.91-4.17.67,0,.62-2.93-.82-4.32.89C53.41,8.71,52.82,6.78,52.87,10.43Z" transform="translate(-5.25 -3.25)"/><path class="cls-13" d="M189.38,326.83l-4.65-1-3.93,7.24s1.24,38.46,8.48,38.46,11.79-14.27,9.51-42.8l-9.41-1.94" transform="translate(-5.25 -3.25)"/><path class="cls-14" d="M221.43,372.33s12.72,44.11-1.34,51.76-17.37-48.8-17.37-48.8Z" transform="translate(-5.25 -3.25)"/><path class="cls-15" d="M153.79,280.54c-2.47-1.13-12.48-6.36-12.48-6.36l-1.9,1.07,15.29,5.87" transform="translate(-5.25 -3.25)"/><path class="cls-16" d="M189.56,330.15S185,335,180.2,333.92c-35.58-30.93-55.73-34.8-68.42-49.34S148,204.63,148,204.63s33-2.36,63.66,1.66c0,0,2.82,28.2-1.73,46.77-5.25,21.39,14.23,118.35,11.16,124.77s-13.67,9.77-18.7-1.4l-12.68-46.31ZM183,305.68,167.21,248c-1.72,2.23-14.42,18.58-25.45,26l-.1.23C150.77,278.34,173.79,290,183,305.68Z" transform="translate(-5.25 -3.25)"/><path class="cls-17" d="M189.56,330.15S185,335,180.2,333.92c-35.58-30.93-55.73-34.8-68.42-49.34S148,204.63,148,204.63s33-2.36,63.66,1.66c0,0,2.82,28.2-1.73,46.77-5.25,21.39,14.7,118.46,11.16,124.77s-13.67,9.77-18.7-1.4l-12.68-46.31ZM183,305.68,167.21,248c-1.72,2.23-14.42,18.58-25.45,26l-.1.23C150.77,278.34,173.79,290,183,305.68Z" transform="translate(-5.25 -3.25)"/><path class="cls-18" d="M167.21,248l-4.38-18.38s-4.8,23.2-1.72,25.66A88.7,88.7,0,0,1,167.21,248Z" transform="translate(-5.25 -3.25)"/><path class="cls-15" d="M189.69,330.12l-6.1-23.6s-6.37-9.28-8.89-11c-1.72-1.31,20.17,35.2,6,38.65C185.35,334.67,189.69,330.12,189.69,330.12Z" transform="translate(-5.25 -3.25)"/><path class="cls-19" d="M182.66,78.18a14.34,14.34,0,0,1,1-1.73,18.76,18.76,0,0,1,34.49,10.22l.26,13.89-3-2.76-22.3-11-7.73.06-2.67-8.66" transform="translate(-5.25 -3.25)"/><path class="cls-19" d="M150.2,81.52c0,.06-.11,12,1,12.55,6.5,3,26.72,1.83,31.58,1.72l-.1-17.61a14.34,14.34,0,0,1,1-1.73,18.78,18.78,0,0,0-15.74-8.54l-.77,0C159.68,68.23,152.94,75,150.2,81.52Z" transform="translate(-5.25 -3.25)"/><path class="cls-19" d="M206.88,170.35V199h.47c5.86-.68,10.56-5.14,12.69-7.52a4.53,4.53,0,0,0,1.16-3.24l-.86-17.93v-.08C216,170.44,211.48,170.47,206.88,170.35Z" transform="translate(-5.25 -3.25)"/><g class="cls-20"><path class="cls-11" d="M185.42,79.76a26.81,26.81,0,0,0,27,2,8.74,8.74,0,0,0,3-2.22,3.78,3.78,0,0,0,.75-3.53" transform="translate(-5.25 -3.25)"/></g><g class="cls-21"><path class="cls-11" d="M150.36,80.81c9.42,5.83,21.5,2.53,30.75-3.57" transform="translate(-5.25 -3.25)"/></g><path class="cls-15" d="M211.93,207.31c1.44,5.23-44,12.76-66.21.7l5.23-6.69S210.43,201.89,211.93,207.31Z" transform="translate(-5.25 -3.25)"/><path class="cls-22" d="M144.44,156.26h0s.31,5.32.75,12.47c.76,12.34,1.92,30.16,2.61,35.64a3.11,3.11,0,0,0,1.55,2.33c12.35,7.14,41.46,6.53,59.71,2.78a3.25,3.25,0,0,0,2.6-3.19V170.35c-2.09,0-4.19-.13-6.29-.23v.08l-22.09,14.68-12.49-18.8c-6.67-.77-7.15-4.73-7.15-4.73h0a10.17,10.17,0,0,1-2-5.51h0a7.54,7.54,0,0,1-.16-3.72l0,0L148,131.73l46.6-27.27c-.25-9.28-5.34-16.55-4.95-19.13l-.22,0-2.06,0c-5.68.12-24.27,1.33-35.14,2.33C152.26,87.64,143.73,150.92,144.44,156.26Z" transform="translate(-5.25 -3.25)"/><path class="cls-18" d="M223.13,160.43s-19.56,14.95-19.65,14.95v.07l-22.09,14.69-10.91-16.4a.08.08,0,0,1,0,0l-21.13-32c-2.56,17.33-3.83,30.21-3.83,30.21a190.87,190.87,0,0,1,1.3-34.06c.07-.47.11-.94.16-1.41,2.61-21,7.3-40.88,10.89-49.25,3.08-.46,2.34.1,2.34.1a430,430,0,0,0-10.31,47.2v.05l37.69-25,1.81-1.2,10,15Z" transform="translate(-5.25 -3.25)"/><path class="cls-23" d="M189.68,85.33c2.19,71.65,21.78,88.57,21.78,88.57l.9-.89C211.05,157.82,200,86.1,200,86,196.91,83.71,189.72,85,189.68,85.33Z" transform="translate(-5.25 -3.25)"/><path class="cls-24" d="M221.5,147.07l-1.1.2c-11.35,2-31.46,3.42-35.09,4.07l-.25.06c-4.06,1.19-6.42,12.72-2.56,16.18a3.82,3.82,0,0,0,2.42,1c6.41.6,13.4,1.2,20.41,1.55,2.1.1,4.2.19,6.29.23,4.6.12,9.14.09,13.47-.17,10.71-.61,20.1-2.53,25.8-6.85,4.59-3.48,5.91-7.45,4.22-11.92-6.33-16.72-19.75-37.23-32-49-.61-.59-1.22-1.15-1.83-1.69-3.42-3.06-6.71-5.81-9.7-8.16A38.81,38.81,0,0,0,200,86.23l0,0c-.69,3.46-2.65,26.09-1,28.77a19.64,19.64,0,0,0,2.18,3.19l16.06,24.25Z" transform="translate(-5.25 -3.25)"/><path class="cls-25" d="M73,22c-1.65-.7-11.41-4.29-12.56,7.94,13.8,30.25,47,87.47,84.43,97.5l7.44-39c-19.06-1.81-50.11-30.2-79.08-66.29A1.59,1.59,0,0,0,73,22Z" transform="translate(-5.25 -3.25)"/><g class="cls-26"><g class="cls-27"><path class="cls-28" d="M152.6,88.36,152,91.51c.19-1.44.33-2.54.42-3.17Z" transform="translate(-5.25 -3.25)"/><path class="cls-29" d="M152.6,88.36,152,91.51c.19-1.44.33-2.54.42-3.17Z" transform="translate(-5.25 -3.25)"/><path class="cls-30" d="M174.27,73.78a44.16,44.16,0,0,0,67.81,35.83" transform="translate(-5.25 -3.25)"/><path class="cls-30" d="M161.88,76.93c-2.39,21.57,9.36,44,28.44,54.39s44.32,8,61.1-5.81" transform="translate(-5.25 -3.25)"/><path class="cls-30" d="M135,186.42c34.39-31.72,82.46-48.08,129.05-43.9" transform="translate(-5.25 -3.25)"/><path class="cls-30" d="M142.51,160.43a62.42,62.42,0,0,0-19.34-93.61" transform="translate(-5.25 -3.25)"/><path class="cls-30" d="M117.68,119.55A51.77,51.77,0,0,0,83.55,47.2c-7.49-1.89-16.24-1.78-22,3.38" transform="translate(-5.25 -3.25)"/><path class="cls-30" d="M79.49,72.41c4-1.81,8.83,0,12.14,2.92a21.74,21.74,0,0,1,5.28,24.76" transform="translate(-5.25 -3.25)"/><path class="cls-30" d="M149.06,218.88c19.47-24.82,52.21-38.54,83.56-35" transform="translate(-5.25 -3.25)"/></g></g><path class="cls-18" d="M200.25,86.27s-6.1,20.16,17,56.15L198.47,114.8S197.09,97,200.25,86.27Z" transform="translate(-5.25 -3.25)"/><path class="cls-31" d="M180,130.69l-.06,20.51,1.55,1.07,17.32-11Z" transform="translate(-5.25 -3.25)"/><path class="cls-18" d="M146.93,136.46c-.05.47-.09.94-.16,1.41l-.59-.89Z" transform="translate(-5.25 -3.25)"/><path class="cls-32" d="M179.1,165.63h0a8,8,0,0,0,3.37,2,3.82,3.82,0,0,0,2.42,1c6.41.6,13.4,1.2,20.41,1.55v.08l-22.09,14.68-12.49-18.8A30.17,30.17,0,0,0,179.1,165.63Zm10.31-61.3L148,131.73l13.48,20.36,0,0,1.8,2.51c2.12,1.59,6.26-.28,7.32-2.51.79-1.7-.24-4.12-.54-5.87-.11-.73-.81-3.68.3-4,1.75-.51,1.11,3.53,4.57,5.69,1.79,1.13,3.62,2.35,5,3.27l.06-20.51,18.81,10.56-17.32,11,.56.39.05.08a7.24,7.24,0,0,1,3-1.34l.25-.06c3.63-.65,23.74-2.06,35.09-4.07v0l-3.19-4.82-16.06-24.25-10-15Z" transform="translate(-5.25 -3.25)"/><path class="cls-33" d="M70.37,20.92c-2.6-.76-6.43-1.2-9,1.49a6,6,0,0,0-1.6,3.19,6.53,6.53,0,0,0,.69,4.22l0,.07C61.63,17.66,71.39,21.25,73,22A16.42,16.42,0,0,0,70.37,20.92Z" transform="translate(-5.25 -3.25)"/><path class="cls-34" d="M54.68,6.68C50.58,7.13,54,17,56.8,16.94a1.72,1.72,0,0,0,.78-2.4v0C56.84,13.48,56.57,7.38,54.68,6.68Z" transform="translate(-5.25 -3.25)"/><path class="cls-35" d="M54.58,6.68c-1,1.09,2.17,7.83,1.73,5.52C56.06,10.86,54.64,6.84,54.58,6.68Z" transform="translate(-5.25 -3.25)"/><path class="cls-36" d="M57.93,5.17s-5.57-2-2.39,5.67v0c2.29,5,3.47,4.78,4.07,4.69,1.58-.28,1.46-2,.62-3.92C60,11.28,57.93,5.17,57.93,5.17Z" transform="translate(-5.25 -3.25)"/><path class="cls-35" d="M57.12,4.94c-1,1.1,2.16,7.84,1.73,5.52C58.6,9.12,57.18,5.1,57.12,4.94Z" transform="translate(-5.25 -3.25)"/><path class="cls-37" d="M62,13.72c1.47.23,1.62-1,1.13-3.21-.06-1.85-3.9-3.18-3.68-4.73s4.93-1,7.19,1.77c-3.76-4.63-6-5-8.66-3.54S60.35,13.48,62,13.72Z" transform="translate(-5.25 -3.25)"/><path class="cls-38" d="M170.75,166.08a30.17,30.17,0,0,0,8.35-.45h0c-3.58-3.65-.94-10.06,2.93-12.88l-.05-.08-.56-.39-1.55-1.07c-1.35-.92-3.18-2.14-5-3.27-3.46-2.16-2.82-6.2-4.57-5.69-1.11.32-.41,3.27-.3,4,.3,1.75,1.33,4.17.54,5.87-1.06,2.23-5.2,4.1-7.32,2.51l-1.8-2.51a7.54,7.54,0,0,0,.16,3.72h0a10.17,10.17,0,0,0,2,5.51h0S164.08,165.31,170.75,166.08Z" transform="translate(-5.25 -3.25)"/><path class="cls-33" d="M182.06,152.74c-3.87,2.82-6.51,9.23-2.93,12.88a8,8,0,0,0,3.37,2c-3.86-3.46-1.5-15,2.56-16.18A7.24,7.24,0,0,0,182.06,152.74Z" transform="translate(-5.25 -3.25)"/><polyline class="cls-39" points="174.64 147.96 174.64 147.95 174.7 127.44 193.51 138 176.19 149.02 176.16 149.04"/><path class="cls-11" d="M143.46,141.08a111.43,111.43,0,0,0,1,15.18c.05.38.1.76.16,1.15" transform="translate(-5.25 -3.25)"/><path class="cls-40" d="M144.53,172c-4.64-17.31,1.4-84.21,4-84.38,1.78-1,8.21-1.4,9.42-1.12l.11,0s-15,40.53-12.55,85.37Z" transform="translate(-5.25 -3.25)"/><path class="cls-11" d="M158.41,159.56c0-.07,0-.13,0-.2" transform="translate(-5.25 -3.25)"/><path class="cls-35" d="M168.44,160.72c-4.46-.67-6.18-2.89-6.8-4.89a7.71,7.71,0,0,1-.24-1.07S161.25,161.43,168.44,160.72Z" transform="translate(-5.25 -3.25)"/><path class="cls-18" d="M163.28,154.62c2.12,1.59,6.26-.28,7.32-2.51.79-1.7-.24-4.12-.54-5.87-.11-.73-.81-3.68.3-4,0,0-2.64,1.51-1.77,5.22s-2.69,6.45-7.11,4.65l1.8,2.51" transform="translate(-5.25 -3.25)"/><path class="cls-35" d="M167.71,163.67a6.51,6.51,0,0,1-4.1-2.33S164.27,163.91,167.71,163.67Z" transform="translate(-5.25 -3.25)"/><path class="cls-41" d="M205.88,38.71A6.45,6.45,0,0,1,204.49,44a3.81,3.81,0,0,1-.85.66.42.42,0,0,0-.44-.33.45.45,0,0,0-.4.26,4.24,4.24,0,0,1-3.57,0c-2.78.68-7.81-.24-11-1.29a1.34,1.34,0,0,0,.73-1.16,1.67,1.67,0,0,0-.66-1.22,7.34,7.34,0,0,0-1.24-.73,12.83,12.83,0,0,1-4.54-4c-.21-.28-.4-.56-.59-.86a13.53,13.53,0,0,1-8.81-.43c-.8-.3-1.57-.7-2.4-.94s-3-.56-2,.78a7.08,7.08,0,0,0,.5.59c-.42-.17-.85-.38-1.25-.57s-.51-.26-.77-.4l-.05.07c-.09.1-.21.17-.3.28a7.48,7.48,0,0,0-1.51,1.79s-3.24-4-3.42-4.35a16.52,16.52,0,0,1-2.41-9c.19-6.42,6.18-12.43,11.76-14.82A26.13,26.13,0,0,1,181.64,6c2.79,0,9.25-.09,10.2,2.89.72,2.26-2.94,2.37-5.5,4.11a1.61,1.61,0,0,0,.67,1.22,34.58,34.58,0,0,0,8.25,5.54c2.82,1.44,5.46,2.55,7.36,5.22a19.23,19.23,0,0,1,3.3,13.45C205.92,38.47,205.88,38.62,205.88,38.71Z" transform="translate(-5.25 -3.25)"/><path class="cls-41" d="M182.56,36.12a2,2,0,0,1-1.34,1.09c-.63.14-1.31.25-2,.35h0a16.75,16.75,0,0,1-3.1.14,19.11,19.11,0,0,1-4.47-.61,14.94,14.94,0,0,1-4.84-2.21l-1.24,1.69a1.08,1.08,0,0,1-.17-.14,7.48,7.48,0,0,1,1.51-1.79c.09-.11.21-.18.3-.28l.05-.07c.26.14.51.28.77.4s.83.4,1.25.57a7.08,7.08,0,0,1-.5-.59c-1-1.34,1.25-1,2-.78s1.6.64,2.4.94a13.53,13.53,0,0,0,8.81.43C182.16,35.56,182.35,35.84,182.56,36.12Z" transform="translate(-5.25 -3.25)"/><path class="cls-41" d="M188.54,17a.22.22,0,0,0,0-.44.22.22,0,0,0,0,.44Z" transform="translate(-5.25 -3.25)"/><path class="cls-18" d="M147,92.54a237.51,237.51,0,0,0-3.2,34.43s-12-3.7-19.55-10.18S139.11,139.85,147,92.54Z" transform="translate(-5.25 -3.25)"/><polygon class="cls-18" points="216.25 143.82 222.84 143.28 208.7 134.29 211.96 139.17 216.25 143.82"/><g class="cls-42"><path class="cls-11" d="M12.15,154.24c0-.1-.09-.18-.13-.27a29.92,29.92,0,0,1,43.35-38,28.89,28.89,0,0,1,11.26,15.12,29.44,29.44,0,0,1,1.42,9.47" transform="translate(-5.25 -3.25)"/><path class="cls-11" d="M19.23,147.49A29.69,29.69,0,0,0,12,154a30.12,30.12,0,0,0-6.64,18.94c0,16.52,13.15,29.93,29.36,29.93a29.45,29.45,0,0,0,28.43-22.43" transform="translate(-5.25 -3.25)"/><path class="cls-11" d="M89,145.83a17.56,17.56,0,0,0-17.45-15.48,17.32,17.32,0,0,0-5,.71l-.35.1" transform="translate(-5.25 -3.25)"/></g><line class="cls-43" x1="116.89" y1="224.28" x2="116.89" y2="254.98"/><line class="cls-43" x1="116.89" y1="215.66" x2="116.89" y2="221.91"/><line class="cls-43" x1="113.77" y1="240.74" x2="113.77" y2="249.58"/><line class="cls-43" x1="235.61" y1="214.06" x2="235.61" y2="248.32"/><line class="cls-43" x1="238.03" y1="228.3" x2="238.03" y2="233.79"/><line class="cls-43" x1="238.03" y1="223.22" x2="238.03" y2="225.93"/><path class="cls-44" d="M44.36,163.26" transform="translate(-5.25 -3.25)"/><path class="cls-45" d="M56.14,193.24A29.78,29.78,0,0,0,79.79,205a30.41,30.41,0,0,0,0-60.81,29.59,29.59,0,0,0-8.36,1.2" transform="translate(-5.25 -3.25)"/><path class="cls-46" d="M186.49,90.71c-3.85,4-20.43,5.49-24.52-2.1.23-1.29,2.32-4.6,3-6a36.39,36.39,0,0,0,2.86-9.18v0h-.23a10.89,10.89,0,0,1-3.29-1,12.19,12.19,0,0,1-6.79-12.07c.34-3.21,2-6.38,1.25-9.5-.26-1.14-.84-2.26-.55-3.37s1.49-1.93,2.39-2.77a7,7,0,0,0,1-1.16l.44-.63a1.52,1.52,0,0,0,.19-.28l3.16,1c-.84,2.69-.31,5.27,1.23,5.76s3.45-1.29,4.34-4L185.3,50l3.36-.5c-.39,0,3.12,3.31,2.78,3.51l.38,4.59c.54,1.58,0,.87-.95,2.24l-2.81.44a4.52,4.52,0,0,0-.95,1.59c-.91,3.06-1.48,6.36-.56,9.47.33,1,.83,2.15,1.8,2.48A63,63,0,0,0,186.49,90.71Z" transform="translate(-5.25 -3.25)"/><path class="cls-47" d="M187.47,42.47l-.07.14a3,3,0,0,0-.21.26s0,0,0,0a3.69,3.69,0,0,0-.47.59A9,9,0,0,0,185.29,50v0l-.5-.17-13.16-4.2-.42-.14-.28-.1a.1.1,0,0,1,0,0c.78-2.42.42-4.77-.77-5.57a1.48,1.48,0,0,0-.45-.23c-1.53-.49-3.48,1.32-4.35,4a.12.12,0,0,0,0,.05l-3.18-1a0,0,0,0,1,0,0c1.2-2,1.9-4.3,3.17-6.2a7.48,7.48,0,0,1,1.51-1.79c.09-.11.21-.18.3-.28l.05-.07c.26.14.51.28.77.4s.83.4,1.25.57a0,0,0,0,1,0,0,29.85,29.85,0,0,0,9.92,2.28h0c.61,0,1.25,0,1.86,0v0A19.35,19.35,0,0,0,187.47,42.47Z" transform="translate(-5.25 -3.25)"/><path class="cls-35" d="M168.18,51.06c2.38-.22,3.57-4.56,3-5.53-.58.76-.74,1.68-1.5,2.3s-1.33,1.63-2.32,1.68c-.84,0-2.2-1.43-1.74-.16A2.3,2.3,0,0,0,168.18,51.06Z" transform="translate(-5.25 -3.25)"/><path class="cls-41" d="M166,43.93s0,0,0,0c.87-2.73,2.82-4.53,4.35-4s2.09,3.1,1.22,5.82a.08.08,0,0,0,0,0c-.88,2.69-2.82,4.48-4.35,4S165.19,46.63,166,43.93Z" transform="translate(-5.25 -3.25)"/><path class="cls-48" d="M170.93,45.44c-.88,2.69-2.82,4.48-4.35,4s-2.07-3.07-1.22-5.77l0,0c.87-2.73,2.82-4.53,4.35-4s2.09,3.1,1.21,5.81A.43.43,0,0,1,170.93,45.44Z" transform="translate(-5.25 -3.25)"/><path class="cls-35" d="M189,42.09a1.34,1.34,0,0,1-.73,1.16.42.42,0,0,1-.14.09,1.77,1.77,0,0,1-.73.21,3.37,3.37,0,0,1-1.22-.23,5,5,0,0,1-1-.52,16.7,16.7,0,0,1-3-2.33A6.33,6.33,0,0,0,180,38.78a7.26,7.26,0,0,0-2.59-.16,11.1,11.1,0,0,1-5.76-1.53c-.14-.1-.28-.17-.42-.26s-.54-.38-.82-.61a7,7,0,0,1-1.11-.94,0,0,0,0,0,0,0,7.08,7.08,0,0,1-.5-.59c-1-1.34,1.25-1,2-.78s1.6.64,2.4.94a13.53,13.53,0,0,0,8.81.43c.19.3.38.58.59.86a12.83,12.83,0,0,0,4.54,4,7.34,7.34,0,0,1,1.24.73A1.67,1.67,0,0,1,189,42.09Z" transform="translate(-5.25 -3.25)"/><path class="cls-35" d="M160.47,50.22a2.23,2.23,0,0,1,.5.42.74.74,0,0,1,.17.63.63.63,0,0,1-.53.37,4.24,4.24,0,0,1-1.71-.23,9.44,9.44,0,0,1-.73-3.93c.42,0,.76,1.23,1,1.56A6.41,6.41,0,0,0,160.47,50.22Z" transform="translate(-5.25 -3.25)"/><path class="cls-35" d="M167.78,73.4a14.8,14.8,0,0,0,9.65-2.75C176.1,71.85,168.49,76.36,167.78,73.4Z" transform="translate(-5.25 -3.25)"/><path class="cls-35" d="M181.27,50.35c1.39.52,2.95,1,4.31.43a70,70,0,0,0-12.66-4.31c-.63-.15-1.63.25-.71.66s1.84.52,2.7.84Z" transform="translate(-5.25 -3.25)"/><path class="cls-49" d="M165.36,43.66l0,0c.87-2.73,2.82-4.53,4.35-4s2.09,3.1,1.21,5.81a.43.43,0,0,1,0,0c-.88,2.69-2.82,4.48-4.35,4S164.51,46.36,165.36,43.66Z" transform="translate(-5.25 -3.25)"/><path class="cls-35" d="M164.73,45c-.19-.1-.41-.2-.6-.28-.84-.37-1.85-.61-2.63-1l-.08,0,.48-.6a1.34,1.34,0,0,1,.35,0c.89.26,1.79.57,2.67.89A8.73,8.73,0,0,0,164.73,45Z" transform="translate(-5.25 -3.25)"/><path class="cls-41" d="M162.07,42.45l0,0c-1.06,2.63-3.11,4.27-4.59,3.69s-1.88-3.22-.83-5.89,3.12-4.32,4.63-3.73S163.12,39.78,162.07,42.45Z" transform="translate(-5.25 -3.25)"/><path class="cls-48" d="M161.33,42.52c-1.06,2.62-3.11,4.26-4.6,3.68s-1.87-3.22-.82-5.88S159,36,160.53,36.58s1.87,3.23.82,5.89A.08.08,0,0,0,161.33,42.52Z" transform="translate(-5.25 -3.25)"/><path class="cls-50" d="M161.35,42.47a.08.08,0,0,0,0,.05c-1.06,2.62-3.11,4.26-4.6,3.68s-1.87-3.22-.82-5.88S159,36,160.53,36.58,162.4,39.81,161.35,42.47Z" transform="translate(-5.25 -3.25)"/><polyline class="cls-49" points="156.07 39.27 156.84 39.56 159.94 40.79"/><polyline class="cls-49" points="165.67 42.19 180.04 46.78 181.9 47.38"/><path class="cls-51" d="M206,31.43" transform="translate(-5.25 -3.25)"/><path class="cls-41" d="M203.64,44.61a1.2,1.2,0,0,1-.4.26,4.67,4.67,0,0,1-4.06.19c-3.1.7-7.15.07-11.05-1.72l-.89-.42s0,0-.05,0a1.68,1.68,0,0,1-.3-.16,19.52,19.52,0,0,1-6.07-4.65,28.45,28.45,0,0,1-4.72-.38,26.19,26.19,0,0,1-5.71-1.48,25.67,25.67,0,0,1-2.59-1.08c-.26-.14-.54-.28-.8-.43l-.11-.07c.09-.11.21-.18.3-.28l.05-.07c.26.14.51.28.77.4s.83.4,1.25.57a7.08,7.08,0,0,1-.5-.59c-1-1.34,1.25-1,2-.78s1.6.64,2.4.94a13.53,13.53,0,0,0,8.81.43c.19.3.38.58.59.86a12.83,12.83,0,0,0,4.54,4,7.34,7.34,0,0,1,1.24.73,1.67,1.67,0,0,1,.66,1.22,1.34,1.34,0,0,1-.73,1.16c3.15,1,8.18,2,11,1.29a4.24,4.24,0,0,0,3.57,0,.45.45,0,0,1,.4-.26A.42.42,0,0,1,203.64,44.61Z" transform="translate(-5.25 -3.25)"/><path class="cls-35" d="M185.47,69.77s-2.64,24.78-13,24.16c0,0,9.59.8,14-3.22,0,0-.28-9.62,1.75-16.33l2-6.7Z" transform="translate(-5.25 -3.25)"/><path class="cls-41" d="M203.64,44.61a.42.42,0,0,0-.44-.33.45.45,0,0,0-.4.26,4.24,4.24,0,0,1-3.57,0c-2.78.68-7.81-.24-11-1.29-.4-.12-.75-.26-1.08-.38l-.3-.14-.17-.07a7,7,0,0,0-.54.66,8.38,8.38,0,0,0-1.39,6.53s0,0,0,0a.66.66,0,0,0,0,.24c0,.14,0,.26.07.4s.05.3.09.47a1.25,1.25,0,0,1,.07.23s0,0,0,0a3,3,0,0,0-.57,1.13.28.28,0,0,0,.14.33.32.32,0,0,0,.38-.14v0a2.63,2.63,0,0,1,2.89-1.41,3.34,3.34,0,0,1,2.33,2.33,5,5,0,0,1-.33,3.53,11.68,11.68,0,0,1-2.4,3,6.45,6.45,0,0,0-.63.92,3.77,3.77,0,0,0-.4,1.05c-.19.66-.38,1.32-.52,2a19,19,0,0,0-.45,4.14,11.53,11.53,0,0,0,.1,1.55,9,9,0,0,0,.66,2.61,3.92,3.92,0,0,0,1.45,1.86,1.18,1.18,0,0,0,.47.18s0,0,.05,0a2.58,2.58,0,0,0,1.95-.12,4.54,4.54,0,0,0,1.72-1.5A17.14,17.14,0,0,0,193,71a35.84,35.84,0,0,0,1.58-3.79,47.61,47.61,0,0,1,3.61-7.12A60.38,60.38,0,0,0,202,52.84a19.75,19.75,0,0,0,1.67-8.07A.18.18,0,0,0,203.64,44.61Z" transform="translate(-5.25 -3.25)"/><ellipse class="cls-48" cx="159.79" cy="58.33" rx="1.42" ry="0.71" transform="matrix(0.19, -0.98, 0.98, 0.19, 66.35, 200.54)"/><path class="cls-18" d="M163,90.11c-.22,1,8.65,9.92,26.84,2.16l-.14-6.94H186.6s-.07,4.47-.11,5.37C182.28,94.75,168.12,95.7,163,90.11Z" transform="translate(-5.25 -3.25)"/><path class="cls-43" d="M145.72,208c11.18,14.3,45.24,12.45,66,1.38" transform="translate(-5.25 -3.25)"/><path class="cls-43" d="M200.05,213.81c-4.33,27.26-2.89,57.89,1.45,85.15,4.09,25.6,10.68,50.72,17.42,75.76" transform="translate(-5.25 -3.25)"/><path class="cls-43" d="M202.27,375.77a25.35,25.35,0,0,0,7.49,1.87,12.64,12.64,0,0,0,8.47-2.23,13.37,13.37,0,0,0,3-3.78" transform="translate(-5.25 -3.25)"/><rect class="cls-52" x="75.21" y="317.1" width="22.25" height="22.25"/><rect class="cls-53" x="96.11" y="338" width="7.4" height="7.4"/><path class="cls-4" d="M214.12,249.19s-1.79,8.56,2.14,11.58A13.6,13.6,0,0,0,214.12,249.19Z" transform="translate(-5.25 -3.25)"/><path class="cls-4" d="M227.55,220.29s-1.19,4.36,1.32,7.4C228.87,227.69,230.72,224.92,227.55,220.29Z" transform="translate(-5.25 -3.25)"/><path class="cls-48" d="M349.2,123.81a27.5,27.5,0,0,1-41.69,10.76l-1.35-.28a27.55,27.55,0,0,1-11.86,5.48c-7.76,1.36-16.64-2.08-19.9-9.23-2.14-4.74-1.58-10.4.68-15.07A23.35,23.35,0,0,1,299,102.88l.48,0a26.55,26.55,0,0,1,12.37-17.3c7.83-4.44,18.48-3.8,25.18,2.2a18.63,18.63,0,0,1,5.13,7.91c7.29-1.66,15.46,3.22,17.42,10.44s-2.68,15.66-9.87,17.87Z" transform="translate(-5.25 -3.25)"/><path class="cls-54" d="M299,102.88a23.35,23.35,0,0,0-23.89,12.59c-2.26,4.67-2.82,10.33-.68,15.07,3.26,7.15,12.14,10.59,19.9,9.23a27.55,27.55,0,0,0,11.86-5.48,42.19,42.19,0,0,0,7.32-7.37" transform="translate(-5.25 -3.25)"/><path class="cls-54" d="M307.51,134.57a27.5,27.5,0,0,0,41.69-10.76,26.41,26.41,0,0,0,2.37-8.42" transform="translate(-5.25 -3.25)"/><path class="cls-54" d="M298.79,107.92a29.26,29.26,0,0,1,.66-5,26.55,26.55,0,0,1,12.37-17.3c7.83-4.44,18.48-3.8,25.18,2.2a18.63,18.63,0,0,1,5.13,7.91c1.87,5.51,1.36,11.83-2.07,16.51" transform="translate(-5.25 -3.25)"/><path class="cls-54" d="M342,95.74a.27.27,0,0,1,.12,0c7.29-1.66,15.46,3.22,17.42,10.44s-2.68,15.66-9.87,17.87" transform="translate(-5.25 -3.25)"/><path class="cls-43" d="M86,23.51A198.26,198.26,0,0,0,139.28,69.9" transform="translate(-5.25 -3.25)"/><path class="cls-43" d="M94,24.88l7.59,7.85" transform="translate(-5.25 -3.25)"/><path class="cls-55" d="M78.28,31.46a161.77,161.77,0,0,0,55.6,52.16" transform="translate(-5.25 -3.25)"/><path class="cls-55" d="M122.79,80l5.08,3.56" transform="translate(-5.25 -3.25)"/><path class="cls-55" d="M202.44,90.69A84.33,84.33,0,0,1,231,119.45" transform="translate(-5.25 -3.25)"/><path class="cls-55" d="M116.6,264c-3.5,4.26-4,10.48-2.16,15.68s5.72,9.46,10.14,12.76,9.4,5.73,14.28,8.31A255.94,255.94,0,0,1,171.07,321" transform="translate(-5.25 -3.25)"/><path class="cls-55" d="M167.9,232a296.29,296.29,0,0,0,24.79,80.13" transform="translate(-5.25 -3.25)"/><path class="cls-55" d="M174.77,257.46l2.74,9.54" transform="translate(-5.25 -3.25)"/><path class="cls-35" d="M63,10s1.74,3.4.55,5.22-1.94,2-2.29,4.18c-.91-.64.49-4.82.06-5-.65,1.9-1.87,1.86-2.86,1.42-.56,1.87-2.25,1.47-2.59.93,2.22.76,2-1.33,1.65-2.42,1.26,2.16,2.87.91,2.87.91s.78-.65.3-2.46c1,1.27,1.71,1.08,2.21.75C64,12.81,63,10,63,10Z" transform="translate(-5.25 -3.25)"/><path class="cls-35" d="M61.75,4.94s.27-1.31-.36-1.6a11.77,11.77,0,0,1,5,3.88A7.91,7.91,0,0,0,61.75,4.94Z" transform="translate(-5.25 -3.25)"/></g></g></svg>