<svg xmlns="http://www.w3.org/2000/svg" xmlns:xlink="http://www.w3.org/1999/xlink" viewBox="0 0 392.54 492.54"><defs><style>.cls-1,.cls-11,.cls-3,.cls-30,.cls-4,.cls-43,.cls-45,.cls-49,.cls-53,.cls-54,.cls-55{fill:none;}.cls-2{isolation:isolate;}.cls-3,.cls-53{stroke:#59e3ad;}.cls-3,.cls-30,.cls-4,.cls-43,.cls-49,.cls-50,.cls-54,.cls-55{stroke-linecap:round;}.cls-3,.cls-30,.cls-49,.cls-50,.cls-54,.cls-55{stroke-linejoin:round;}.cls-11,.cls-3,.cls-4,.cls-43,.cls-45,.cls-49,.cls-50,.cls-53,.cls-54,.cls-55,.cls-7,.cls-8{stroke-width:0.25px;}.cls-3{stroke-dasharray:3 3 3 3;}.cls-4,.cls-54,.cls-7,.cls-8{stroke:#d3dbe5;}.cls-11,.cls-4,.cls-43,.cls-45,.cls-53,.cls-7,.cls-8{stroke-miterlimit:10;}.cls-5{fill:#edf1f5;}.cls-15,.cls-6{fill:#f6f8fa;}.cls-7,.cls-9{fill:#d3dbe5;}.cls-48,.cls-50,.cls-8{fill:#fff;}.cls-10{fill:url(#Sfumatura_senza_nome_4);}.cls-11,.cls-45{stroke:#b3b3b3;}.cls-12{fill:url(#Sfumatura_senza_nome_182);}.cls-13{fill:url(#Sfumatura_senza_nome_60);}.cls-14{fill:url(#Sfumatura_senza_nome_60-2);}.cls-15,.cls-18{mix-blend-mode:multiply;}.cls-16{fill:url(#Sfumatura_senza_nome_11);}.cls-17{fill:url(#Sfumatura_senza_nome_11-2);}.cls-18{fill:#b3b3b3;opacity:0.3;}.cls-19{fill:#e6e6e6;}.cls-20{clip-path:url(#clip-path);}.cls-21{clip-path:url(#clip-path-2);}.cls-22{fill:url(#Sfumatura_senza_nome_63);}.cls-23{fill:url(#Sfumatura_senza_nome_4-2);}.cls-24{fill:url(#Sfumatura_senza_nome_63-2);}.cls-25{fill:url(#Sfumatura_senza_nome_63-3);}.cls-26{opacity:0.18;}.cls-27{clip-path:url(#clip-path-3);}.cls-28{fill:url(#Sfumatura_senza_nome_63-4);}.cls-29{fill:url(#Sfumatura_senza_nome_63-5);}.cls-30{stroke:#99c3e4;stroke-width:0.5px;}.cls-31{fill:#bbeac7;}.cls-32{fill:url(#Sfumatura_senza_nome_4-3);}.cls-33{fill:#91bdfd;}.cls-34{fill:url(#Sfumatura_senza_nome_182-2);}.cls-35{fill:#db5437;opacity:0.24;}.cls-36{fill:url(#Sfumatura_senza_nome_182-3);}.cls-37{fill:url(#Sfumatura_senza_nome_182-4);}.cls-38{fill:url(#Sfumatura_senza_nome_182-5);}.cls-39{fill:#43aa82;}.cls-40{fill:url(#Sfumatura_senza_nome_4-4);}.cls-41{fill:#24497e;}.cls-42,.cls-45,.cls-55{opacity:0.5;}.cls-43{stroke:#a7b6cb;}.cls-44{opacity:0.2;fill:url(#Sfumatura_senza_nome_15);}.cls-46{fill:url(#Sfumatura_senza_nome_182-6);}.cls-47{fill:url(#Sfumatura_senza_nome_182-7);}.cls-49,.cls-50{stroke:#24497e;}.cls-51{fill:url(#Sfumatura_senza_nome_60-3);}.cls-52{fill:url(#Sfumatura_senza_nome_11-3);}.cls-55{stroke:#f6f8fa;}</style><linearGradient id="Sfumatura_senza_nome_4" x1="237.92" y1="211.79" x2="230.07" y2="217.81" gradientUnits="userSpaceOnUse"><stop offset="0" stop-color="#9fefcf"/><stop offset="0.7" stop-color="#59e3ad"/></linearGradient><linearGradient id="Sfumatura_senza_nome_182" x1="7225.47" y1="1.24" x2="7233.08" y2="28.32" gradientTransform="matrix(-1, 0, 0, 1, 7293.24, 0)" gradientUnits="userSpaceOnUse"><stop offset="0.17" stop-color="#ffd672"/><stop offset="1" stop-color="#f3ad5f"/></linearGradient><radialGradient id="Sfumatura_senza_nome_60" cx="7077.99" cy="398.41" r="32.1" gradientTransform="matrix(-1, 0, 0, 1, 7293.24, 0)" gradientUnits="userSpaceOnUse"><stop offset="0.15" stop-color="#1b375f"/><stop offset="1" stop-color="#24497e"/></radialGradient><radialGradient id="Sfumatura_senza_nome_60-2" cx="7048.02" cy="455.57" r="40.3" xlink:href="#Sfumatura_senza_nome_60"/><radialGradient id="Sfumatura_senza_nome_11" cx="103.93" cy="312.58" r="124.67" gradientUnits="userSpaceOnUse"><stop offset="0" stop-color="#f6f8fa"/><stop offset="0.07" stop-color="#f3f5f8"/><stop offset="0.5" stop-color="#e2e7ee"/><stop offset="0.82" stop-color="#dce2ea"/></radialGradient><radialGradient id="Sfumatura_senza_nome_11-2" cx="103.92" cy="312.55" r="124.71" xlink:href="#Sfumatura_senza_nome_11"/><clipPath id="clip-path" transform="translate(-1.42 -2.6)"><path class="cls-1" d="M197.65,85.49a16.72,16.72,0,0,1,1.12-1.91,20.74,20.74,0,0,1,38.14,11.31l.29,9.58v8.27L194.89,96.31l2.76-10.82"/></clipPath><clipPath id="clip-path-2" transform="translate(-1.42 -2.6)"><path class="cls-1" d="M161.75,89.19c.25,0,0,15.17.95,15.66,6.67,3.41,29.32,2.27,34.81,2.16l.14-21.52a16.72,16.72,0,0,1,1.12-1.91,20.78,20.78,0,0,0-17.42-9.45l-.85,0C172.23,74.48,164.78,81.94,161.75,89.19Z"/></clipPath><linearGradient id="Sfumatura_senza_nome_63" x1="7144.58" y1="87.5" x2="7076.79" y2="232.69" gradientTransform="matrix(-1, 0, 0, 1, 7293.24, 0)" gradientUnits="userSpaceOnUse"><stop offset="0.02" stop-color="#4891fb"/><stop offset="0.58" stop-color="#227bfb"/><stop offset="1" stop-color="#2f71d1"/></linearGradient><linearGradient id="Sfumatura_senza_nome_4-2" x1="219.46" y1="104.22" x2="218.44" y2="129.84" xlink:href="#Sfumatura_senza_nome_4"/><linearGradient id="Sfumatura_senza_nome_63-2" x1="7103.94" y1="71.99" x2="7037.24" y2="214.87" xlink:href="#Sfumatura_senza_nome_63"/><linearGradient id="Sfumatura_senza_nome_63-3" x1="7208.05" y1="56" x2="7115.18" y2="139.72" xlink:href="#Sfumatura_senza_nome_63"/><clipPath id="clip-path-3" transform="translate(-1.42 -2.6)"><path class="cls-1" d="M273.39,179.69c-6.29,4.79-16.69,6.89-28.54,7.57-4.79.28-9.81.34-14.9.2v.14l0,31.48v8.14a3.62,3.62,0,0,1-2.86,3.53c-20.2,4.14-52.41,4.81-66.06-3.09a3.46,3.46,0,0,1-1.72-2.57c-.75-6.06-2.05-25.77-2.88-39.42-.5-7.93-.84-13.81-.84-13.81h0c-.65-5,.52-31.92.52-31.92C114.74,128.84,78,65.53,62.77,32.06,64,18.54,74.83,22.52,76.65,23.3a.88.88,0,0,1,.26.1c31.93,39.81,66.17,71.14,87.28,73.33-.1.7-.25,1.92-.46,3.51l.67-3.49-.21,0c.08-.5.11-.76.11-.76,12-1.12,32.58-2.47,38.87-2.6l2.26,0,.26.05c-.44,2.86,20.33,4.94,24.21,8,3.3,2.63,6.94,5.67,10.74,9,.67.6,1.35,1.23,2,1.88,13.55,13,28.4,35.67,35.39,54.18C280,171.45,278.49,175.84,273.39,179.69Z"/></clipPath><linearGradient id="Sfumatura_senza_nome_63-4" x1="164.84" y1="96.59" x2="163.27" y2="99.95" gradientTransform="matrix(1, 0, 0, 1, 0, 0)" xlink:href="#Sfumatura_senza_nome_63"/><linearGradient id="Sfumatura_senza_nome_63-5" x1="164.54" y1="97.96" x2="162.72" y2="99.6" gradientTransform="matrix(1, 0, 0, 1, 0, 0)" xlink:href="#Sfumatura_senza_nome_63"/><linearGradient id="Sfumatura_senza_nome_4-3" x1="191.56" y1="125.02" x2="209.9" y2="191.38" xlink:href="#Sfumatura_senza_nome_4"/><linearGradient id="Sfumatura_senza_nome_182-2" x1="7235.79" y1="16.89" x2="7238.48" y2="2.71" xlink:href="#Sfumatura_senza_nome_182"/><linearGradient id="Sfumatura_senza_nome_182-3" x1="7232.75" y1="16.32" x2="7235.44" y2="2.13" xlink:href="#Sfumatura_senza_nome_182"/><linearGradient id="Sfumatura_senza_nome_182-4" x1="7227.48" y1="15.32" x2="7230.18" y2="1.13" xlink:href="#Sfumatura_senza_nome_182"/><linearGradient id="Sfumatura_senza_nome_182-5" x1="7100.02" y1="164.63" x2="7116.26" y2="181.88" xlink:href="#Sfumatura_senza_nome_182"/><linearGradient id="Sfumatura_senza_nome_4-4" x1="162.52" y1="115.09" x2="160.34" y2="156.79" xlink:href="#Sfumatura_senza_nome_4"/><radialGradient id="Sfumatura_senza_nome_15" cx="7248.57" cy="179.6" r="0" gradientTransform="matrix(-1, 0, 0, 1, 7293.24, 0)" gradientUnits="userSpaceOnUse"><stop offset="0" stop-color="#f6f8fa"/><stop offset="0.06" stop-color="#f3f5f8"/><stop offset="0.42" stop-color="#e2e7ee"/><stop offset="0.69" stop-color="#dce2ea"/></radialGradient><linearGradient id="Sfumatura_senza_nome_182-6" x1="-3010.41" y1="7577.91" x2="-2938.64" y2="7577.43" gradientTransform="translate(8301.14 786.48) rotate(73.56)" xlink:href="#Sfumatura_senza_nome_182"/><linearGradient id="Sfumatura_senza_nome_182-7" x1="183.68" y1="45.7" x2="278.16" y2="45.06" gradientTransform="matrix(1, 0, 0, 1, 0, 0)" xlink:href="#Sfumatura_senza_nome_182"/><radialGradient id="Sfumatura_senza_nome_60-3" cx="-3008.29" cy="7534.28" r="0" gradientTransform="translate(8301.14 786.48) rotate(73.56)" xlink:href="#Sfumatura_senza_nome_60"/><radialGradient id="Sfumatura_senza_nome_11-3" cx="100.5" cy="374.68" r="31.75" xlink:href="#Sfumatura_senza_nome_11"/></defs><title>speed</title><g class="cls-2"><g id="Layer_1" data-name="Layer 1"><path class="cls-3" d="M215.35,367.74c53.52-21.69,96.77-67.39,115.48-122" transform="translate(-1.42 -2.6)"/><path class="cls-4" d="M236.8,224.17a17.85,17.85,0,0,1,1.8,8.32,8,8,0,0,1-3.14-.65c.47,3.17,1.64,10.3.48,15.66-2.95-1.85-7.2-12.24-8.54-15.45" transform="translate(-1.42 -2.6)"/><path class="cls-4" d="M220.85,230.91a18.43,18.43,0,0,0,4.28,12.25l1.07-1.83c2.81,9.62,13.36,43.83,19.92,51.39,3.53-10.34-1.16-46.77-2.9-57.57l2.91,1.9c1.32-6.24-3.8-17.34-8.43-21.72" transform="translate(-1.42 -2.6)"/><path class="cls-5" d="M26.13,313.05a1.31,1.31,0,0,1,0-2.61,1.31,1.31,0,0,1,0,2.61Z" transform="translate(-1.42 -2.6)"/><ellipse class="cls-6" cx="238.55" cy="487.52" rx="45.23" ry="5.03"/><rect class="cls-7" x="298.97" y="195.15" width="80.23" height="43.39" transform="translate(676.76 431.08) rotate(-180)"/><rect class="cls-8" x="291.17" y="195.15" width="80.23" height="43.39" transform="translate(661.16 431.08) rotate(-180)"/><polygon class="cls-9" points="339.73 213.88 321.82 224.23 321.83 203.54 339.73 213.88"/><path class="cls-10" d="M227.74,220.67c10-2,11.52-7.19,11.52-7.19l-.43-3.49-3.54-.14-9.38,7.05Z" transform="translate(-1.42 -2.6)"/><line class="cls-11" x1="222.49" y1="238.9" x2="223.39" y2="242.37"/><path class="cls-12" d="M54.08,10.54s-.35,11.17,7.59,16.79h0a6.74,6.74,0,0,1,1.76-3.53c2.87-3,7.11-2.49,10-1.65-.2-10-4.61-16.54-6.59-17-.09,0-.9-.39-1-.42-2-.49-4.61-1-4.61.73,0,.69-3.25-.9-4.79,1C54.67,8.64,54,6.5,54.08,10.54Z" transform="translate(-1.42 -2.6)"/><path class="cls-13" d="M205.09,360.55,200,359.5l-4.35,8S197,410.05,205,410.05s13-15.78,10.52-47.35l-10.41-2.15" transform="translate(-1.42 -2.6)"/><path class="cls-14" d="M240.55,410.88s14.07,48.81-1.49,57.27-19.21-54-19.21-54Z" transform="translate(-1.42 -2.6)"/><path class="cls-15" d="M165.72,309.35c-2.74-1.25-13.8-7-13.8-7l-2.11,1.19L166.73,310" transform="translate(-1.42 -2.6)"/><path class="cls-16" d="M205.29,364.23s-5,5.37-10.35,4.17c-39.37-34.22-61.66-38.5-75.69-54.58s40-88.45,40-88.45,36.47-2.61,70.43,1.84c0,0,3.12,31.19-1.92,51.74-5.8,23.66,15.74,130.92,12.35,138s-15.12,10.81-20.69-1.54l-14-51.24ZM198,337.16l-17.47-63.81c-1.9,2.47-15.94,20.55-28.14,28.71l-.12.27C162.38,306.91,187.85,319.83,198,337.16Z" transform="translate(-1.42 -2.6)"/><path class="cls-17" d="M205.29,364.23s-5,5.37-10.35,4.17c-39.37-34.22-61.66-38.5-75.69-54.58s40-88.45,40-88.45,36.47-2.61,70.43,1.84c0,0,3.12,31.19-1.92,51.74-5.8,23.66,16.26,131,12.35,138s-15.12,10.81-20.69-1.54l-14-51.24ZM198,337.16l-17.47-63.81c-1.9,2.47-15.94,20.55-28.14,28.71l-.12.27C162.38,306.91,187.85,319.83,198,337.16Z" transform="translate(-1.42 -2.6)"/><path class="cls-18" d="M180.56,273.35,175.72,253s-5.31,25.66-1.91,28.39A98.23,98.23,0,0,1,180.56,273.35Z" transform="translate(-1.42 -2.6)"/><path class="cls-15" d="M205.44,364.19l-6.75-26.11s-7.05-10.26-9.84-12.18c-1.9-1.46,22.32,38.93,6.64,42.75C200.63,369.23,205.44,364.19,205.44,364.19Z" transform="translate(-1.42 -2.6)"/><path class="cls-19" d="M197.65,85.49a16.72,16.72,0,0,1,1.12-1.91,20.74,20.74,0,0,1,38.14,11.31l.29,15.35-3.37-3L209.16,95l-8.55.08-3-9.59" transform="translate(-1.42 -2.6)"/><path class="cls-19" d="M161.75,89.19c0,.06-.13,13.32,1.08,13.88,7.19,3.33,29.56,2,34.94,1.91l-.12-19.49a16.72,16.72,0,0,1,1.12-1.91,20.78,20.78,0,0,0-17.42-9.45l-.85,0C172.23,74.48,164.78,81.94,161.75,89.19Z" transform="translate(-1.42 -2.6)"/><path class="cls-19" d="M224.45,187.46v31.63H225c6.48-.75,11.68-5.69,14-8.32a5.06,5.06,0,0,0,1.29-3.58l-1-19.84v-.09C234.57,187.55,229.54,187.59,224.45,187.46Z" transform="translate(-1.42 -2.6)"/><g class="cls-20"><path class="cls-11" d="M200.7,87.24a29.67,29.67,0,0,0,29.91,2.27,9.7,9.7,0,0,0,3.33-2.46,4.21,4.21,0,0,0,.84-3.91" transform="translate(-1.42 -2.6)"/></g><g class="cls-21"><path class="cls-11" d="M161.92,88.4c10.42,6.45,23.79,2.8,34-4" transform="translate(-1.42 -2.6)"/></g><path class="cls-15" d="M230,228.34c1.6,5.78-48.64,14.12-73.24.78l5.78-7.41S228.38,222.34,230,228.34Z" transform="translate(-1.42 -2.6)"/><path class="cls-22" d="M155.38,171.86h0s.34,5.89.83,13.8c.84,13.66,2.13,33.37,2.89,39.43a3.47,3.47,0,0,0,1.71,2.57c13.66,7.9,45.87,7.23,66.06,3.08a3.6,3.6,0,0,0,2.88-3.53v-8.12l0-31.49v-.14c-2.3-.06-4.64-.15-7-.27v.1L198.3,203.52l-13.82-20.79c-7.37-.86-7.91-5.23-7.91-5.23v0a11.24,11.24,0,0,1-2.2-6.09h0a8.34,8.34,0,0,1-.19-4.11l0,0-14.91-22.53,51.55-30.16c-.28-10.26-5.91-18.31-5.48-21.16l-.24,0-2.29,0c-6.27.13-26.84,1.47-38.86,2.58C164,96,154.59,166,155.38,171.86Z" transform="translate(-1.42 -2.6)"/><path class="cls-18" d="M242.42,176.48S220.79,193,220.69,193v.08l-24.44,16.25L184.18,191.2a.08.08,0,0,1-.05,0l-23.37-35.43c-2.84,19.16-4.24,33.41-4.24,33.41A211.13,211.13,0,0,1,158,151.52c.08-.52.13-1,.18-1.56,2.89-23.24,8.07-45.22,12.05-54.48,3.41-.51,2.59.12,2.59.12a474.75,474.75,0,0,0-11.41,52.2v.06l41.7-27.62,2-1.32,11,16.64Z" transform="translate(-1.42 -2.6)"/><path class="cls-23" d="M205.42,93.4c2.42,79.26,24.1,98,24.1,98l1-1c-1.44-16.79-13.67-96.14-13.66-96.21C213.42,91.61,205.46,93.06,205.42,93.4Z" transform="translate(-1.42 -2.6)"/><path class="cls-24" d="M240.62,161.69l-1.22.23c-12.55,2.22-34.8,3.78-38.81,4.5l-.28.07c-4.49,1.31-7.1,14.07-2.83,17.9a4.25,4.25,0,0,0,2.68,1.09c7.09.67,14.82,1.33,22.57,1.71,2.32.12,4.66.21,7,.27,5.09.13,10.12.09,14.9-.2,11.85-.67,22.24-2.79,28.54-7.57,5.09-3.86,6.54-8.25,4.67-13.19-7-18.5-21.85-41.18-35.41-54.18-.67-.66-1.35-1.27-2-1.88-3.78-3.38-7.43-6.42-10.73-9a43.4,43.4,0,0,0-12.79-7h0c-.76,3.82-2.92,28.86-1.12,31.82a21.39,21.39,0,0,0,2.42,3.53l17.77,26.83Z" transform="translate(-1.42 -2.6)"/><path class="cls-25" d="M76.39,23.29c-1.82-.77-12.62-4.74-13.89,8.78,15.26,33.47,52,96.76,93.4,107.86l8.23-43.19c-21.08-2-55.44-33.4-87.48-73.33A1.28,1.28,0,0,0,76.39,23.29Z" transform="translate(-1.42 -2.6)"/><g class="cls-26"><g class="cls-27"><path class="cls-28" d="M164.4,96.75l-.67,3.49c.21-1.59.36-2.81.46-3.51Z" transform="translate(-1.42 -2.6)"/><path class="cls-29" d="M164.4,96.75l-.67,3.49c.21-1.59.36-2.81.46-3.51Z" transform="translate(-1.42 -2.6)"/><path class="cls-30" d="M188.38,80.62a48.85,48.85,0,0,0,75,39.64" transform="translate(-1.42 -2.6)"/><path class="cls-30" d="M174.66,84.1C172,108,185,132.83,206.13,144.28s49,8.79,67.59-6.43" transform="translate(-1.42 -2.6)"/><path class="cls-30" d="M144.88,205.23c38-35.09,91.22-53.18,142.76-48.56" transform="translate(-1.42 -2.6)"/><path class="cls-30" d="M153.24,176.47A69,69,0,0,0,131.85,72.92" transform="translate(-1.42 -2.6)"/><path class="cls-30" d="M125.78,131.25A57.27,57.27,0,0,0,88,51.22c-8.29-2.09-18-2-24.33,3.74" transform="translate(-1.42 -2.6)"/><path class="cls-30" d="M83.53,79.11c4.43-2,9.76,0,13.43,3.22a24.08,24.08,0,0,1,5.84,27.4" transform="translate(-1.42 -2.6)"/><path class="cls-30" d="M160.49,241.13c21.53-27.45,57.76-42.62,92.43-38.71" transform="translate(-1.42 -2.6)"/></g></g><path class="cls-18" d="M217.12,94.44s-6.75,22.3,18.76,62.12L215.15,126S213.62,106.35,217.12,94.44Z" transform="translate(-1.42 -2.6)"/><path class="cls-31" d="M194.67,143.58l-.07,22.69c.72.48,1.31.89,1.72,1.18l19.15-12.19Z" transform="translate(-1.42 -2.6)"/><path class="cls-18" d="M158.13,150c0,.52-.1,1-.18,1.56l-.65-1Z" transform="translate(-1.42 -2.6)"/><path class="cls-32" d="M193.72,182.23l0,0a8.78,8.78,0,0,0,3.73,2.18,4.25,4.25,0,0,0,2.68,1.09c7.09.67,14.82,1.33,22.57,1.71v.1L198.3,203.52l-13.82-20.79A33,33,0,0,0,193.72,182.23Zm11.4-67.82-45.77,30.31,14.91,22.53,0,0,2,2.77c2.34,1.76,6.93-.31,8.09-2.77.88-1.89-.26-4.56-.59-6.5-.13-.8-.9-4.07.33-4.42,1.94-.56,1.23,3.91,5.06,6.29,2,1.25,4,2.6,5.49,3.62l.07-22.69,20.8,11.68-19.15,12.19.61.43.07.09a8,8,0,0,1,3.31-1.48l.28-.07c4-.72,26.26-2.28,38.81-4.5v0l-3.52-5.33-17.77-26.83-11-16.63Z" transform="translate(-1.42 -2.6)"/><path class="cls-33" d="M73.44,22.15c-2.88-.84-7.12-1.32-10,1.65a6.74,6.74,0,0,0-1.76,3.53A7.15,7.15,0,0,0,62.46,32l0,.08c1.27-13.52,12.07-9.55,13.89-8.78A17.46,17.46,0,0,0,73.44,22.15Z" transform="translate(-1.42 -2.6)"/><path class="cls-34" d="M56.09,6.4c-4.55.5-.82,11.42,2.33,11.34a1.89,1.89,0,0,0,.87-2.65v0C58.48,13.92,58.17,7.17,56.09,6.4Z" transform="translate(-1.42 -2.6)"/><path class="cls-35" d="M56,6.39c-1.15,1.22,2.4,8.67,1.91,6.11C57.61,11,56,6.57,56,6.39Z" transform="translate(-1.42 -2.6)"/><path class="cls-36" d="M59.67,4.73S53.52,2.54,57,11l0,0c2.52,5.54,3.84,5.29,4.49,5.19,1.76-.31,1.62-2.18.69-4.34C62,11.49,59.67,4.73,59.67,4.73Z" transform="translate(-1.42 -2.6)"/><path class="cls-35" d="M58.78,4.47c-1.15,1.22,2.39,8.67,1.91,6.11C60.41,9.1,58.85,4.65,58.78,4.47Z" transform="translate(-1.42 -2.6)"/><path class="cls-37" d="M64.15,14.19c1.63.25,1.8-1.09,1.26-3.55-.07-2.05-4.32-3.53-4.07-5.24s5.45-1.15,8,2c-4.16-5.13-6.6-5.53-9.58-3.92S62.36,13.91,64.15,14.19Z" transform="translate(-1.42 -2.6)"/><path class="cls-38" d="M184.48,182.73a33,33,0,0,0,9.24-.5l0,0c-4-4-1-11.12,3.25-14.24l-.07-.09-.61-.43c-.41-.29-1-.7-1.72-1.18-1.49-1-3.51-2.37-5.49-3.62-3.83-2.38-3.12-6.85-5.06-6.29-1.23.35-.46,3.62-.33,4.42.33,1.94,1.47,4.61.59,6.5-1.16,2.46-5.75,4.53-8.09,2.77l-2-2.77a8.34,8.34,0,0,0,.19,4.11h0a11.24,11.24,0,0,0,2.2,6.09v0S177.11,181.87,184.48,182.73Z" transform="translate(-1.42 -2.6)"/><path class="cls-33" d="M197,168c-4.29,3.12-7.21,10.21-3.25,14.24a8.78,8.78,0,0,0,3.73,2.18c-4.27-3.83-1.66-16.59,2.83-17.9A8,8,0,0,0,197,168Z" transform="translate(-1.42 -2.6)"/><polyline class="cls-39" points="193.18 163.68 193.18 163.67 193.25 140.98 214.06 152.66 194.9 164.84 194.86 164.87"/><path class="cls-11" d="M154.29,155.08a122.84,122.84,0,0,0,1.09,16.78c.05.42.1.84.17,1.27" transform="translate(-1.42 -2.6)"/><path class="cls-40" d="M155.48,189.3C150.35,170.15,157,96.15,159.87,96c2-1.1,9.08-1.55,10.42-1.23l.12,0s-16.57,44.83-13.88,94.43Z" transform="translate(-1.42 -2.6)"/><path class="cls-11" d="M170.83,175.52a1.46,1.46,0,0,0,0-.22" transform="translate(-1.42 -2.6)"/><path class="cls-35" d="M181.93,176.8c-4.94-.74-6.84-3.19-7.52-5.41a7,7,0,0,1-.27-1.19S174,177.59,181.93,176.8Z" transform="translate(-1.42 -2.6)"/><path class="cls-18" d="M176.22,170.05c2.34,1.76,6.93-.31,8.09-2.77.88-1.89-.26-4.56-.59-6.5-.13-.8-.9-4.07.33-4.42,0,0-2.92,1.66-2,5.77s-3,7.14-7.87,5.15l2,2.77" transform="translate(-1.42 -2.6)"/><path class="cls-35" d="M181.12,180.07a7.25,7.25,0,0,1-4.54-2.59S177.31,180.32,181.12,180.07Z" transform="translate(-1.42 -2.6)"/><path class="cls-41" d="M223.34,41.83a7.15,7.15,0,0,1-1.53,5.8,4.28,4.28,0,0,1-.94.72.48.48,0,0,0-.49-.36.5.5,0,0,0-.45.29,4.7,4.7,0,0,1-4,0c-3.07.75-8.63-.26-12.11-1.43a1.5,1.5,0,0,0,.8-1.28,1.87,1.87,0,0,0-.73-1.35,7.59,7.59,0,0,0-1.37-.81,14.13,14.13,0,0,1-5-4.44c-.24-.31-.44-.63-.65-1a15,15,0,0,1-9.75-.47c-.89-.34-1.74-.78-2.65-1s-3.28-.63-2.21.86a6.65,6.65,0,0,0,.54.65c-.47-.19-.93-.42-1.38-.63-.28-.13-.57-.28-.85-.44l-.06.08a3.13,3.13,0,0,0-.33.31,8.24,8.24,0,0,0-1.67,2s-3.58-4.47-3.78-4.82a18.12,18.12,0,0,1-2.66-10c.2-7.1,6.83-13.75,13-16.39a28.74,28.74,0,0,1,11.43-2.5c3.08,0,10.23-.1,11.28,3.19.8,2.51-3.25,2.63-6.08,4.56a1.79,1.79,0,0,0,.73,1.34,38.6,38.6,0,0,0,9.14,6.13c3.11,1.6,6,2.82,8.14,5.78a21.22,21.22,0,0,1,3.65,14.87C223.39,41.57,223.34,41.72,223.34,41.83Z" transform="translate(-1.42 -2.6)"/><path class="cls-41" d="M197.55,39a2.18,2.18,0,0,1-1.48,1.19c-.71.16-1.46.29-2.21.39h0a18.57,18.57,0,0,1-3.43.16,20.87,20.87,0,0,1-4.94-.68,16.47,16.47,0,0,1-5.36-2.44l-1.38,1.87-.18-.15a8.24,8.24,0,0,1,1.67-2,3.13,3.13,0,0,1,.33-.31l.06-.08c.28.16.57.31.85.44.45.21.91.44,1.38.63a6.65,6.65,0,0,1-.54-.65c-1.07-1.49,1.37-1.1,2.21-.86s1.76.7,2.65,1a15,15,0,0,0,9.75.47C197.11,38.34,197.31,38.66,197.55,39Z" transform="translate(-1.42 -2.6)"/><path class="cls-41" d="M204.16,17.8a.22.22,0,0,0,0-.44.22.22,0,0,0,0,.44Z" transform="translate(-1.42 -2.6)"/><path class="cls-18" d="M158.18,101.38a260.67,260.67,0,0,0-3.54,38.09s-13.31-4.1-21.63-11.26S149.48,153.71,158.18,101.38Z" transform="translate(-1.42 -2.6)"/><polygon class="cls-18" points="239.2 159.09 246.5 158.5 230.85 148.56 234.46 153.96 239.2 159.09"/><g class="cls-42"><path class="cls-11" d="M9,169.63a2.63,2.63,0,0,1-.14-.3,33.06,33.06,0,0,1,2.51-33.16c10.29-15,30.63-19,45.43-8.91A31.92,31.92,0,0,1,69.3,144a32.91,32.91,0,0,1,1.58,10.49" transform="translate(-1.42 -2.6)"/><path class="cls-11" d="M16.86,162.16A33.41,33.41,0,0,0,1.54,190.28c0,18.28,14.55,33.12,32.49,33.12a32.61,32.61,0,0,0,31.45-24.82" transform="translate(-1.42 -2.6)"/><path class="cls-11" d="M94.08,160.33A19.47,19.47,0,0,0,69.3,144l-.39.12" transform="translate(-1.42 -2.6)"/></g><line class="cls-43" x1="129.3" y1="248.1" x2="129.3" y2="282.07"/><line class="cls-43" x1="129.3" y1="238.57" x2="129.3" y2="245.48"/><line class="cls-43" x1="125.85" y1="266.31" x2="125.85" y2="276.09"/><line class="cls-43" x1="260.62" y1="236.8" x2="260.62" y2="274.69"/><line class="cls-43" x1="263.31" y1="252.55" x2="263.31" y2="258.62"/><line class="cls-43" x1="263.31" y1="246.93" x2="263.31" y2="249.93"/><path class="cls-44" d="M44.67,179.6" transform="translate(-1.42 -2.6)"/><path class="cls-45" d="M57.69,212.77a33,33,0,0,0,26.17,13,33.63,33.63,0,0,0,0-67.26,32.88,32.88,0,0,0-9.25,1.33" transform="translate(-1.42 -2.6)"/><path class="cls-46" d="M201.89,99.35c-4.25,4.42-22.6,6.08-27.12-2.32.25-1.43,2.56-5.09,3.27-6.67a40.52,40.52,0,0,0,3.17-10.16v0H181a11.63,11.63,0,0,1-3.63-1,13.49,13.49,0,0,1-7.52-13.35c.38-3.55,2.21-7.06,1.38-10.51-.29-1.26-.93-2.5-.6-3.73s1.65-2.14,2.64-3.06a8.58,8.58,0,0,0,1.11-1.29l.48-.69a2.4,2.4,0,0,0,.21-.31l3.5,1.14c-.93,3-.34,5.82,1.36,6.37s3.82-1.43,4.81-4.42l15.89,5.08,3.71-.55c-.42,0,3.45,3.66,3.08,3.88l.42,5.08c.6,1.75,0,1-1.06,2.48l-3.1.48a5.13,5.13,0,0,0-1,1.77c-1,3.38-1.64,7-.62,10.47.36,1.13.92,2.37,2,2.74A69.41,69.41,0,0,0,201.89,99.35Z" transform="translate(-1.42 -2.6)"/><path class="cls-47" d="M203,46l-.08.15-.23.29s0,0,0,0a3.62,3.62,0,0,0-.52.65,10,10,0,0,0-1.59,7.22v0l-.54-.18-14.56-4.66-.47-.15-.31-.11a.1.1,0,0,1,0,0c.86-2.68.47-5.28-.85-6.16a1.33,1.33,0,0,0-.5-.26c-1.69-.55-3.85,1.46-4.81,4.47a.12.12,0,0,0,0,.05L175,46.2s0,0,0,0c1.33-2.18,2.11-4.76,3.51-6.86a8.24,8.24,0,0,1,1.67-2,3.13,3.13,0,0,1,.33-.31l.06-.08c.28.16.57.31.85.44.45.21.91.44,1.38.63,0,0,0,0,0,0a32.46,32.46,0,0,0,11,2.52h0c.67,0,1.37.06,2,.06v0A21.36,21.36,0,0,0,203,46Z" transform="translate(-1.42 -2.6)"/><path class="cls-35" d="M181.64,55.49c2.63-.24,4-5.05,3.35-6.11-.64.83-.82,1.85-1.66,2.54s-1.47,1.8-2.56,1.85c-.93,0-2.44-1.58-1.93-.17A2.55,2.55,0,0,0,181.64,55.49Z" transform="translate(-1.42 -2.6)"/><path class="cls-41" d="M179.27,47.6s0,0,0-.05c1-3,3.12-5,4.81-4.47s2.31,3.43,1.35,6.43l0,.06c-1,3-3.11,5-4.81,4.41S178.33,50.59,179.27,47.6Z" transform="translate(-1.42 -2.6)"/><path class="cls-48" d="M184.68,49.27c-1,3-3.12,5-4.81,4.42s-2.29-3.39-1.35-6.38c0,0,0,0,0-.05,1-3,3.12-5,4.81-4.47s2.31,3.43,1.35,6.43C184.69,49.24,184.69,49.26,184.68,49.27Z" transform="translate(-1.42 -2.6)"/><path class="cls-35" d="M204.67,45.57a1.5,1.5,0,0,1-.8,1.28,1,1,0,0,1-.16.1,2,2,0,0,1-.81.23,1.92,1.92,0,0,1-.75-.07,1.74,1.74,0,0,1-.6-.19,4.86,4.86,0,0,1-1.14-.57,18.18,18.18,0,0,1-3.3-2.57,6.9,6.9,0,0,0-2.42-1.87,8.06,8.06,0,0,0-2.86-.19A12.07,12.07,0,0,1,185.46,40l-.47-.28a10.74,10.74,0,0,1-.91-.68,7.4,7.4,0,0,1-1.22-1s0,0,0,0a6.65,6.65,0,0,1-.54-.65c-1.07-1.49,1.37-1.1,2.21-.86s1.76.7,2.65,1a15,15,0,0,0,9.75.47c.21.33.41.65.65,1a14.13,14.13,0,0,0,5,4.44,7.59,7.59,0,0,1,1.37.81A1.87,1.87,0,0,1,204.67,45.57Z" transform="translate(-1.42 -2.6)"/><path class="cls-35" d="M173.11,54.56a2.45,2.45,0,0,1,.55.46.83.83,0,0,1,.19.71.69.69,0,0,1-.59.4,4.45,4.45,0,0,1-1.89-.26,10.34,10.34,0,0,1-.8-4.34c.45,0,.84,1.36,1.14,1.73A7.46,7.46,0,0,0,173.11,54.56Z" transform="translate(-1.42 -2.6)"/><path class="cls-35" d="M181.2,80.2a16.38,16.38,0,0,0,10.67-3C190.4,78.49,182,83.48,181.2,80.2Z" transform="translate(-1.42 -2.6)"/><path class="cls-35" d="M196.12,54.7c1.53.58,3.26,1.15,4.76.48a77.55,77.55,0,0,0-14-4.77c-.69-.17-1.8.28-.78.73s2,.58,3,.94Z" transform="translate(-1.42 -2.6)"/><path class="cls-49" d="M178.52,47.31s0,0,0-.05c1-3,3.12-5,4.81-4.47s2.31,3.43,1.35,6.43c0,0,0,0,0,.05-1,3-3.12,5-4.81,4.42S177.58,50.3,178.52,47.31Z" transform="translate(-1.42 -2.6)"/><path class="cls-35" d="M177.82,48.82c-.21-.11-.45-.22-.66-.31-.93-.41-2-.68-2.91-1.14l-.09-.06.53-.65a1.26,1.26,0,0,1,.39,0c1,.3,2,.64,2.95,1C178,48.06,177.87,48.43,177.82,48.82Z" transform="translate(-1.42 -2.6)"/><path class="cls-41" d="M174.88,46s0,0,0,0c-1.17,2.91-3.44,4.72-5.08,4.08s-2.08-3.56-.91-6.51,3.44-4.78,5.11-4.13S176,43,174.88,46Z" transform="translate(-1.42 -2.6)"/><path class="cls-48" d="M174.06,46c-1.17,2.9-3.44,4.72-5.09,4.08s-2.07-3.57-.91-6.52,3.45-4.77,5.12-4.13,2.06,3.57.9,6.52A.08.08,0,0,0,174.06,46Z" transform="translate(-1.42 -2.6)"/><path class="cls-50" d="M174.08,46a.08.08,0,0,0,0,0c-1.17,2.9-3.44,4.72-5.09,4.08s-2.07-3.57-.91-6.52,3.45-4.77,5.12-4.13S175.24,43,174.08,46Z" transform="translate(-1.42 -2.6)"/><polyline class="cls-49" points="172.64 43.44 173.49 43.77 176.91 45.12"/><polyline class="cls-49" points="183.26 46.67 199.15 51.75 201.21 52.41"/><path class="cls-51" d="M223.48,33.78" transform="translate(-1.42 -2.6)"/><path class="cls-41" d="M220.87,48.35a1.76,1.76,0,0,1-.44.29,5.19,5.19,0,0,1-4.5.21c-3.43.78-7.9.08-12.22-1.9l-1-.47s0,0-.05,0-.23-.13-.34-.19a21.68,21.68,0,0,1-6.71-5.14,31.25,31.25,0,0,1-5.22-.42,28.79,28.79,0,0,1-6.32-1.64,28.7,28.7,0,0,1-2.86-1.19l-.88-.47-.13-.08a3.13,3.13,0,0,1,.33-.31l.06-.08c.28.16.57.31.85.44.45.21.91.44,1.38.63a6.65,6.65,0,0,1-.54-.65c-1.07-1.49,1.37-1.1,2.21-.86s1.76.7,2.65,1a15,15,0,0,0,9.75.47c.21.33.41.65.65,1a14.13,14.13,0,0,0,5,4.44,7.59,7.59,0,0,1,1.37.81,1.87,1.87,0,0,1,.73,1.35,1.5,1.5,0,0,1-.8,1.28c3.48,1.17,9,2.18,12.11,1.43a4.7,4.7,0,0,0,4,0,.5.5,0,0,1,.45-.29A.48.48,0,0,1,220.87,48.35Z" transform="translate(-1.42 -2.6)"/><path class="cls-35" d="M200.77,76.19s-2.93,27.41-14.35,26.73c0,0,10.61.88,15.47-3.57,0,0-.31-10.64,1.94-18.06l2.24-7.41Z" transform="translate(-1.42 -2.6)"/><path class="cls-41" d="M220.87,48.35a.48.48,0,0,0-.49-.36.5.5,0,0,0-.45.29,4.7,4.7,0,0,1-4,0c-3.07.75-8.63-.26-12.11-1.43-.45-.13-.84-.29-1.2-.42a2.68,2.68,0,0,1-.34-.16,1.13,1.13,0,0,1-.18-.07,6.94,6.94,0,0,0-.6.72A9.28,9.28,0,0,0,200,54.15s0,0,0,0a1.14,1.14,0,0,0,0,.26c0,.15.06.28.08.44a3.73,3.73,0,0,0,.11.52c0,.08.05.16.07.26s0,0,0,.05a3.06,3.06,0,0,0-.62,1.25.27.27,0,0,0,.15.36.34.34,0,0,0,.42-.15v0a2.9,2.9,0,0,1,3.2-1.56,3.66,3.66,0,0,1,2.57,2.58,5.53,5.53,0,0,1-.36,3.9c-.5,1.27-1.59,2.15-2.66,3.38a8.12,8.12,0,0,0-.7,1,4.3,4.3,0,0,0-.44,1.17c-.21.73-.42,1.46-.57,2.21a21.07,21.07,0,0,0-.5,4.58,12.27,12.27,0,0,0,.11,1.71,10.15,10.15,0,0,0,.73,2.89,4.33,4.33,0,0,0,1.61,2,1.24,1.24,0,0,0,.52.21s0,0,.05,0a2.84,2.84,0,0,0,2.16-.13,5,5,0,0,0,1.9-1.67,19.8,19.8,0,0,0,1.22-2,41.3,41.3,0,0,0,1.74-4.19,52.93,52.93,0,0,1,4-7.87,66.77,66.77,0,0,0,4.22-8,21.75,21.75,0,0,0,1.84-8.91A.25.25,0,0,0,220.87,48.35Z" transform="translate(-1.42 -2.6)"/><ellipse class="cls-48" cx="172.36" cy="63.53" rx="1.58" ry="0.79" transform="translate(75.22 217.71) rotate(-78.83)"/><path class="cls-18" d="M175.89,98.69c-.25,1.12,9.57,11,29.69,2.39l-.16-7.68H202s-.08,5-.13,5.94C197.24,103.82,181.57,104.88,175.89,98.69Z" transform="translate(-1.42 -2.6)"/><path class="cls-43" d="M156.79,229.12c12.38,15.81,50.05,13.77,73,1.51" transform="translate(-1.42 -2.6)"/><path class="cls-43" d="M216.89,235.53c-4.78,30.15-3.2,64,1.61,94.2,4.52,28.32,11.81,56.1,19.27,83.8" transform="translate(-1.42 -2.6)"/><path class="cls-43" d="M219.35,414.69a28.19,28.19,0,0,0,8.29,2.07A14,14,0,0,0,237,414.3a14.76,14.76,0,0,0,3.28-4.19" transform="translate(-1.42 -2.6)"/><rect class="cls-52" x="83.19" y="350.78" width="24.62" height="24.62"/><rect class="cls-53" x="106.31" y="373.9" width="8.19" height="8.19"/><path class="cls-4" d="M232.46,274.67s-2,9.46,2.36,12.81C234.82,287.48,237,281.38,232.46,274.67Z" transform="translate(-1.42 -2.6)"/><path class="cls-4" d="M247.32,242.7s-1.32,4.83,1.46,8.19C248.78,250.89,250.82,247.82,247.32,242.7Z" transform="translate(-1.42 -2.6)"/><path class="cls-48" d="M334.28,147.56a30.57,30.57,0,0,1-13.12,6.06c-8.59,1.51-18.41-2.29-22-10.21-2.36-5.24-1.74-11.5.75-16.66a25.85,25.85,0,0,1,26.44-13.94l.52,0c1.8-7.92,6.64-15.16,13.68-19.14,8.66-4.92,20.45-4.21,27.86,2.43a20.71,20.71,0,0,1,5.68,8.76c8.06-1.84,17.1,3.56,19.26,11.55s-3,17.32-10.91,19.76l-.53-.24a30.42,30.42,0,0,1-46.12,11.9Z" transform="translate(-1.42 -2.6)"/><path class="cls-54" d="M326.33,112.81a25.85,25.85,0,0,0-26.44,13.94c-2.49,5.16-3.11,11.42-.75,16.66,3.61,7.92,13.43,11.72,22,10.21a30.57,30.57,0,0,0,13.12-6.06,47.26,47.26,0,0,0,8.09-8.15" transform="translate(-1.42 -2.6)"/><path class="cls-54" d="M335.77,147.87A30.42,30.42,0,0,0,381.89,136a29.47,29.47,0,0,0,2.62-9.32" transform="translate(-1.42 -2.6)"/><path class="cls-54" d="M326.13,118.39a31.48,31.48,0,0,1,.72-5.54c1.8-7.92,6.64-15.16,13.68-19.14,8.66-4.92,20.45-4.21,27.86,2.43a20.71,20.71,0,0,1,5.68,8.76c2.07,6.09,1.51,13.08-2.3,18.26" transform="translate(-1.42 -2.6)"/><path class="cls-54" d="M373.94,104.91h.13c8.06-1.84,17.1,3.56,19.26,11.55s-3,17.32-10.91,19.76" transform="translate(-1.42 -2.6)"/><path class="cls-43" d="M90.75,25a219.07,219.07,0,0,0,58.91,51.32" transform="translate(-1.42 -2.6)"/><path class="cls-43" d="M99.52,26.53l8.4,8.68" transform="translate(-1.42 -2.6)"/><path class="cls-55" d="M82.19,33.81a179.06,179.06,0,0,0,61.5,57.7" transform="translate(-1.42 -2.6)"/><path class="cls-55" d="M131.42,87.46l5.63,3.94" transform="translate(-1.42 -2.6)"/><path class="cls-55" d="M219.53,99.33a93.26,93.26,0,0,1,31.64,31.82" transform="translate(-1.42 -2.6)"/><path class="cls-55" d="M124.58,291.1c-3.87,4.71-4.43,11.58-2.39,17.34s6.32,10.47,11.21,14.11,10.41,6.35,15.8,9.2a282.85,282.85,0,0,1,35.63,22.38" transform="translate(-1.42 -2.6)"/><path class="cls-55" d="M181.33,255.59a327.38,327.38,0,0,0,27.43,88.65" transform="translate(-1.42 -2.6)"/><path class="cls-55" d="M188.93,283.82l3,10.55" transform="translate(-1.42 -2.6)"/><path class="cls-35" d="M65.31,10.08s1.92,3.76.61,5.77-2.15,2.2-2.54,4.63c-1-.71.55-5.34.07-5.56C62.73,17,61.38,17,60.28,16.5c-.61,2.07-2.48,1.62-2.86,1,2.45.85,2.2-1.46,1.83-2.67,1.39,2.38,3.17,1,3.17,1s.86-.72.33-2.72c1.1,1.41,1.89,1.2,2.45.83C66.4,13.18,65.31,10.08,65.31,10.08Z" transform="translate(-1.42 -2.6)"/><path class="cls-35" d="M63.9,4.47S64.2,3,63.5,2.7A13,13,0,0,1,69.06,7,8.7,8.7,0,0,0,63.9,4.47Z" transform="translate(-1.42 -2.6)"/></g></g></svg>