<svg id="Layer_1" xmlns="http://www.w3.org/2000/svg" xmlns:xlink="http://www.w3.org/1999/xlink" viewBox="0 0 397 498"><style>.st0,.st2{fill:none;stroke-width:.25;stroke-linecap:round;stroke-miterlimit:10}.st0{stroke-linejoin:round;stroke:#fff}.st2{stroke:#d3dbe5}.st4{fill:#f6f8fa}.st9{fill:none;stroke:#b3b3b3;stroke-width:.25;stroke-miterlimit:10}.st15{opacity:.3;fill:#b3b3b3}.st16{fill:#e6e6e6}.st23{opacity:.18}.st26{clip-path:url(#SVGID_16_);fill:none;stroke:#99c3e4;stroke-width:.5;stroke-linecap:round;stroke-linejoin:round;stroke-miterlimit:10}.st29{fill:#91bdfd}.st31{opacity:.24;fill:#db5437}.st37{fill:#24497e}.st39{fill:none;stroke:#a7b6cb;stroke-width:.25;stroke-linecap:round;stroke-miterlimit:10}.st44{fill:#fff}.st45,.st50,.st51{fill:none;stroke:#24497e;stroke-width:.25;stroke-linecap:round;stroke-linejoin:round;stroke-miterlimit:10}.st50,.st51{stroke:#d3dbe5}.st51{opacity:.5;stroke:#f6f8fa}</style><path class="st0" d="M276.7 5.4h29.5M294 7.8h9.5"/><path d="M216.3 367.7c53.5-21.7 96.8-67.4 115.5-122" fill="none" stroke="#59e3ad" stroke-width=".25" stroke-linecap="round" stroke-linejoin="round" stroke-miterlimit="10" stroke-dasharray="3,3,3,3"/><path class="st2" d="M237.8 224.2c1.4 3.1 1.8 5.2 1.8 8.3-.5.2-2.7-.4-3.1-.7.5 3.2 1.6 10.3.5 15.7-2.9-1.8-7.2-12.2-8.5-15.4"/><path class="st2" d="M221.8 230.9c-.1 4.4 1.4 8.9 4.3 12.2.4-.6.7-1.2 1.1-1.8 2.8 9.6 13.4 43.8 19.9 51.4 3.5-10.3-1.2-46.8-2.9-57.6 1 .6 1.9 1.3 2.9 1.9 1.3-6.2-3.8-17.3-8.4-21.7"/><path d="M27.1 313.1c-1.7 0-1.7-2.6 0-2.6 1.7-.1 1.7 2.6 0 2.6z" fill="#edf1f5"/><ellipse class="st4" cx="241" cy="490.1" rx="45.2" ry="5"/><path fill="#d3dbe5" stroke="#d3dbe5" stroke-width=".25" stroke-miterlimit="10" d="M380.17690001 238.58409998h-80.2v-43.4h80.2z"/><path fill="#fff" stroke="#d3dbe5" stroke-width=".25" stroke-miterlimit="10" d="M372.37690001 238.58409999h-80.2v-43.4h80.2z"/><path fill="#d3dbe5" d="M342.1 216.5l-17.9 10.3v-20.7z"/><linearGradient id="SVGID_1_" gradientUnits="userSpaceOnUse" x1="238.9231" y1="211.7881" x2="231.0679" y2="217.815"><stop offset="0" stop-color="#9fefcf"/><stop offset=".6961" stop-color="#59e3ad"/></linearGradient><path d="M228.7 220.7c10-2 11.5-7.2 11.5-7.2l-.4-3.5-3.5-.1-9.4 7.1 1.8 3.7z" fill="url(#SVGID_1_)"/><path class="st9" d="M224.9 241.5l.9 3.5"/><linearGradient id="SVGID_2_" gradientUnits="userSpaceOnUse" x1="8191.5039" y1="1.2432" x2="8199.1143" y2="28.3176" gradientTransform="matrix(-1 0 0 1 8260.2666 0)"><stop offset=".1718" stop-color="#ffd672"/><stop offset="1" stop-color="#f3ad5f"/></linearGradient><path d="M55.1 10.5s-.3 11.2 7.6 16.8c.2-1.3.8-2.5 1.8-3.5 2.9-3 7.1-2.5 10-1.7-.2-10-4.6-16.5-6.6-17-.1 0-.9-.4-1-.4-2-.5-4.6-1-4.6.7 0 .7-3.3-.9-4.8 1-1.8 2.2-2.5.1-2.4 4.1z" fill="url(#SVGID_2_)"/><radialGradient id="SVGID_3_" cx="8044.021" cy="398.4069" r="32.0996" gradientTransform="matrix(-1 0 0 1 8260.2666 0)" gradientUnits="userSpaceOnUse"><stop offset=".1464" stop-color="#1b375f"/><stop offset="1" stop-color="#24497e"/></radialGradient><path d="M206.1 360.6l-5.1-1.1-4.3 8s1.4 42.5 9.4 42.5 13-15.8 10.5-47.4l-10.5-2" fill="url(#SVGID_3_)"/><radialGradient id="SVGID_4_" cx="8014.0562" cy="455.5693" r="40.3026" gradientTransform="matrix(-1 0 0 1 8260.2666 0)" gradientUnits="userSpaceOnUse"><stop offset=".1464" stop-color="#1b375f"/><stop offset="1" stop-color="#24497e"/></radialGradient><path d="M241.5 410.9s14.1 48.8-1.5 57.3-19.2-54-19.2-54l20.7-3.3z" fill="url(#SVGID_4_)"/><path class="st4" d="M166.7 309.4c-2.7-1.3-13.8-7-13.8-7l-2.1 1.2 16.9 6.5"/><radialGradient id="SVGID_5_" cx="104.9342" cy="312.5839" r="124.6726" gradientUnits="userSpaceOnUse"><stop offset="0" stop-color="#f6f8fa"/><stop offset=".0699525" stop-color="#f3f5f8"/><stop offset=".4968" stop-color="#e2e7ee"/><stop offset=".8197" stop-color="#dce2ea"/></radialGradient><path d="M206.3 364.2s-5 5.4-10.4 4.2c-39.4-34.2-61.7-38.5-75.7-54.6s40-88.4 40-88.4 36.5-2.6 70.4 1.8c0 0 3.1 31.2-1.9 51.7-5.8 23.7 15.7 130.9 12.3 138-3.4 7.1-15.1 10.8-20.7-1.5l-14-51.2zm-7.3-27l-17.5-63.8c-1.9 2.5-15.9 20.5-28.1 28.7l-.1.3c10.1 4.5 35.5 17.4 45.7 34.8z" fill="url(#SVGID_5_)"/><radialGradient id="SVGID_6_" cx="104.9233" cy="312.5473" r="124.715" gradientUnits="userSpaceOnUse"><stop offset="0" stop-color="#f6f8fa"/><stop offset=".0699525" stop-color="#f3f5f8"/><stop offset=".4968" stop-color="#e2e7ee"/><stop offset=".8197" stop-color="#dce2ea"/></radialGradient><path d="M206.3 364.2s-5 5.4-10.4 4.2c-39.4-34.2-61.7-38.5-75.7-54.6s40-88.4 40-88.4 36.5-2.6 70.4 1.8c0 0 3.1 31.2-1.9 51.7-5.8 23.7 16.3 131 12.3 138-3.8 6.9-15.1 10.8-20.7-1.5l-14-51.2zm-7.3-27l-17.5-63.8c-1.9 2.5-15.9 20.5-28.1 28.7l-.1.3c10.1 4.5 35.5 17.4 45.7 34.8z" fill="url(#SVGID_6_)"/><path class="st15" d="M181.6 273.4l-4.8-20.3s-5.3 25.7-1.9 28.4c3.1-4.4 6.7-8.1 6.7-8.1z"/><path class="st4" d="M206.4 364.2l-6.7-26.1s-7-10.3-9.8-12.2c-1.9-1.5 22.3 38.9 6.6 42.8 5.1.5 9.9-4.5 9.9-4.5z"/><path class="st16" d="M198.7 85.5c.3-.7.7-1.3 1.1-1.9 1.6-2.5 3.8-4.7 6.4-6.3 3.2-2 7-3.2 11-3.2 11.5 0 20.8 9.3 20.8 20.8l.3 15.4-3.4-3.1L210.2 95l-8.6.1-2.9-9.6"/><path class="st16" d="M162.8 89.2c0 .1-.1 13.3 1.1 13.9 7.2 3.3 29.6 2 34.9 1.9l-.1-19.5c.3-.7.7-1.3 1.1-1.9-3.7-5.7-10.1-9.4-17.4-9.4h-.9c-8.3.3-15.7 7.7-18.7 15zM225.5 187.5v31.6h.5c6.5-.7 11.7-5.7 14-8.3.9-1 1.3-2.3 1.3-3.6l-1-19.8v-.1c-4.7.2-9.8.3-14.8.2z"/><defs><path id="SVGID_7_" d="M198.7 85.5c.3-.7.7-1.3 1.1-1.9 1.6-2.5 3.8-4.7 6.4-6.3 3.2-2 7-3.2 11-3.2 11.5 0 20.8 9.3 20.8 20.8l.3 9.6v8.3L196 96.4l2.7-10.9"/></defs><clipPath id="SVGID_8_"><use xlink:href="#SVGID_7_" overflow="visible"/></clipPath><path d="M201.7 87.2c8.6 6.1 20.5 7 29.9 2.3 1.2-.6 2.5-1.4 3.3-2.5.9-1.1 1.3-2.6.8-3.9" clip-path="url(#SVGID_8_)" fill="none" stroke="#b3b3b3" stroke-width=".25" stroke-miterlimit="10"/><defs><path id="SVGID_9_" d="M162.8 89.2c.2 0 0 15.2 1 15.7 6.7 3.4 29.3 2.3 34.8 2.2l.1-21.5c.3-.7.7-1.3 1.1-1.9-3.7-5.7-10.1-9.4-17.4-9.4h-.9c-8.3.2-15.7 7.6-18.7 14.9z"/></defs><clipPath id="SVGID_10_"><use xlink:href="#SVGID_9_" overflow="visible"/></clipPath><path d="M162.9 88.4c10.4 6.5 23.8 2.8 34-3.9" clip-path="url(#SVGID_10_)" fill="none" stroke="#b3b3b3" stroke-width=".25" stroke-miterlimit="10"/><path class="st4" d="M231 228.3c1.6 5.8-48.6 14.1-73.2.8l5.8-7.4s65.8.6 67.4 6.6z"/><linearGradient id="SVGID_11_" gradientUnits="userSpaceOnUse" x1="8110.6069" y1="87.5034" x2="8042.8218" y2="232.6853" gradientTransform="matrix(-1 0 0 1 8260.2666 0)"><stop offset=".0202301" stop-color="#4891fb"/><stop offset=".5809" stop-color="#227bfb"/><stop offset="1" stop-color="#2f71d1"/></linearGradient><path d="M156.4 171.9s.3 5.9.8 13.8c.8 13.7 2.1 33.4 2.9 39.4.1 1.1.8 2 1.7 2.6 13.7 7.9 45.9 7.2 66.1 3.1 1.7-.3 2.9-1.8 2.9-3.5v-39.7c-2.3-.1-4.6-.1-7-.3v.1l-24.4 16.2-13.8-20.8c-7.4-.9-7.9-5.2-7.9-5.2-2.1-2.6-2.2-6.1-2.2-6.1-.7-2.2-.2-4.1-.2-4.1l-14.9-22.5 51.5-30.2c-.3-10.3-5.9-18.3-5.5-21.2h-2.5c-6.3.1-26.8 1.5-38.9 2.6 0-.1-9.4 69.9-8.6 75.8z" fill="url(#SVGID_11_)"/><path class="st15" d="M243.4 176.5S221.8 193 221.7 193v.1l-24.4 16.2-12.1-18.1h-.1l-23.4-35.4c-2.8 19.2-4.2 33.4-4.2 33.4-.8-11.7-.1-24.9 1.4-37.7.1-.5.1-1 .2-1.6 2.9-23.2 8.1-45.2 12-54.5 3.4-.5 2.6.1 2.6.1-4.7 17-8.8 35.2-11.4 52.2v.1l41.7-27.6 2-1.3 11 16.6 26.4 41z"/><linearGradient id="SVGID_12_" gradientUnits="userSpaceOnUse" x1="220.4552" y1="104.2207" x2="219.4426" y2="129.8387"><stop offset="0" stop-color="#9fefcf"/><stop offset=".6961" stop-color="#59e3ad"/></linearGradient><path d="M206.4 93.4c2.4 79.3 24.1 98 24.1 98l1-1c-1.4-16.8-13.7-96.1-13.7-96.2-3.4-2.6-11.3-1.1-11.4-.8z" fill="url(#SVGID_12_)"/><linearGradient id="SVGID_13_" gradientUnits="userSpaceOnUse" x1="8069.9751" y1="71.9932" x2="8003.2681" y2="214.8658" gradientTransform="matrix(-1 0 0 1 8260.2666 0)"><stop offset=".0202301" stop-color="#4891fb"/><stop offset=".5809" stop-color="#227bfb"/><stop offset="1" stop-color="#2f71d1"/></linearGradient><path d="M241.6 161.7c-.4.1-.8.2-1.2.2-12.6 2.2-34.8 3.8-38.8 4.5-.1 0-.2 0-.3.1-4.5 1.3-7.1 14.1-2.8 17.9.7.6 1.6 1 2.7 1.1 7.1.7 14.8 1.3 22.6 1.7 2.3.1 4.7.2 7 .3 5.1.1 10.1.1 14.9-.2 11.8-.7 22.2-2.8 28.5-7.6 5.1-3.9 6.5-8.2 4.7-13.2-7-18.5-21.8-41.2-35.4-54.2-.7-.7-1.3-1.3-2-1.9-3.8-3.4-7.4-6.4-10.7-9-3.9-3.1-8.2-5.4-12.8-7-.8 3.8-2.9 28.9-1.1 31.8 1.8 3 2.4 3.5 2.4 3.5l17.8 26.8 4.5 5.2z" fill="url(#SVGID_13_)"/><linearGradient id="SVGID_14_" gradientUnits="userSpaceOnUse" x1="8174.0767" y1="56.0044" x2="8081.21" y2="139.7231" gradientTransform="matrix(-1 0 0 1 8260.2666 0)"><stop offset=".0202301" stop-color="#4891fb"/><stop offset=".5809" stop-color="#227bfb"/><stop offset="1" stop-color="#2f71d1"/></linearGradient><path d="M77.4 23.3c-1.8-.8-12.6-4.7-13.9 8.8 15.3 33.5 52 96.8 93.4 107.9l8.2-43.2c-21.1-2-55.4-33.4-87.5-73.3.1-.1 0-.1-.2-.2z" fill="url(#SVGID_14_)"/><g class="st23"><defs><path id="SVGID_15_" class="st23" d="M274.4 179.7c-6.3 4.8-16.7 6.9-28.5 7.6-4.8.3-9.8.3-14.9.2v39.7c0 1.7-1.2 3.2-2.9 3.5-20.2 4.1-52.4 4.8-66.1-3.1-.9-.5-1.6-1.5-1.7-2.6-.8-6.1-2.1-25.8-2.9-39.4-.5-7.9-.8-13.8-.8-13.8-.6-5 .5-31.9.5-31.9C115.7 128.8 79 65.5 63.8 32.1c1.3-13.5 12.1-9.5 13.9-8.8.2.1.3.1.3.1 31.9 39.8 66.2 71.1 87.3 73.3-.1.7-.3 1.9-.5 3.5l.7-3.5h-.2c.1-.5.1-.8.1-.8 12-1.1 32.6-2.5 38.9-2.6h2.3l.3.1c-.4 2.9 20.3 4.9 24.2 8 3.3 2.6 6.9 5.7 10.7 9 .7.6 1.4 1.2 2 1.9 13.5 13 28.4 35.7 35.4 54.2 1.7 4.9.3 9.3-4.8 13.2z"/></defs><clipPath id="SVGID_16_"><use xlink:href="#SVGID_15_" overflow="visible"/></clipPath><linearGradient id="SVGID_17_" gradientUnits="userSpaceOnUse" x1="165.8413" y1="96.5947" x2="164.2731" y2="99.9534"><stop offset=".0202301" stop-color="#4891fb"/><stop offset=".5809" stop-color="#227bfb"/><stop offset="1" stop-color="#2f71d1"/></linearGradient><path d="M165.4 96.8l-.7 3.5c.2-1.6.4-2.8.5-3.5.1-.1.1 0 .2 0z" clip-path="url(#SVGID_16_)" fill="url(#SVGID_17_)"/><linearGradient id="SVGID_18_" gradientUnits="userSpaceOnUse" x1="165.5419" y1="97.9564" x2="163.7214" y2="99.5976"><stop offset=".0202301" stop-color="#4891fb"/><stop offset=".5809" stop-color="#227bfb"/><stop offset="1" stop-color="#2f71d1"/></linearGradient><path d="M165.4 96.8l-.7 3.5c.2-1.6.4-2.8.5-3.5.1-.1.1 0 .2 0z" clip-path="url(#SVGID_16_)" fill="url(#SVGID_18_)"/><path class="st26" d="M189.4 80.6c.6 17.1 10.9 33.6 26 41.6s34.6 7.2 49-2"/><path class="st26" d="M175.7 84.1c-2.6 23.9 10.4 48.7 31.5 60.2s49 8.8 67.6-6.4M145.9 205.2c38-35.1 91.2-53.2 142.8-48.6M154.2 176.5c12.4-15.8 17.5-37.1 13.4-56.8-4.1-19.7-17.2-37.3-34.8-46.8M126.8 131.3c7.2-15.2 7.2-33.7 0-48.9s-21.4-27-37.8-31.1c-8.3-2.1-18-2-24.3 3.7"/><path class="st26" d="M84.5 79.1c4.4-2 9.8 0 13.4 3.2 7.5 6.6 10 18.3 5.8 27.4M161.5 241.1c21.5-27.5 57.8-42.6 92.4-38.7"/></g><path class="st15" d="M218.1 94.4s-6.7 22.3 18.8 62.1L216.1 126s-1.5-19.7 2-31.6z"/><path d="M195.7 143.6l-.1 22.7c.7.5 1.3.9 1.7 1.2l19.2-12.2-20.8-11.7z" fill="#bbeac7"/><path class="st15" d="M159.1 150c-.1.5-.1 1-.2 1.6l-.6-1 .8-.6z"/><linearGradient id="SVGID_19_" gradientUnits="userSpaceOnUse" x1="192.5599" y1="125.0184" x2="210.8969" y2="191.381"><stop offset="0" stop-color="#9fefcf"/><stop offset=".6961" stop-color="#59e3ad"/></linearGradient><path d="M194.7 182.2c.9.9 2.1 1.6 3.8 2.2.7.6 1.6 1 2.7 1.1 7.1.7 14.8 1.3 22.6 1.7v.1l-24.4 16.2-13.8-20.8c2.2.3 5.2.2 9.1-.5zm11.4-67.8l-45.8 30.3 14.9 22.5 2 2.8c2.3 1.8 6.9-.3 8.1-2.8.9-1.9-.3-4.6-.6-6.5-.1-.8-.9-4.1.3-4.4 1.9-.6 1.2 3.9 5.1 6.3 2 1.2 4 2.6 5.5 3.6l.1-22.7 20.8 11.7-19.2 12.2c.4.3.6.4.6.4l.1.1c1-.8 2.2-1.3 3.3-1.5.1 0 .2-.1.3-.1 4-.7 26.3-2.3 38.8-4.5l-3.5-5.3-17.8-26.8-11-16.6-2 1.3z" fill="url(#SVGID_19_)"/><path class="st29" d="M74.4 22.1c-2.9-.8-7.1-1.3-10 1.7-1 1-1.5 2.2-1.8 3.5-.3 1.5 0 3.2.8 4.7v.1c1.3-13.5 12.1-9.6 13.9-8.8-.4-.3-1.5-.7-2.9-1.2z"/><linearGradient id="SVGID_20_" gradientUnits="userSpaceOnUse" x1="8201.8232" y1="16.8942" x2="8204.5146" y2="2.7094" gradientTransform="matrix(-1 0 0 1 8260.2666 0)"><stop offset=".1718" stop-color="#ffd672"/><stop offset="1" stop-color="#f3ad5f"/></linearGradient><path d="M57.1 6.4c-4.5.5-.8 11.4 2.3 11.3.4-.2 1.5-.9.9-2.7-.8-1.1-1.1-7.8-3.2-8.6z" fill="url(#SVGID_20_)"/><path class="st31" d="M57 6.4c-1.2 1.2 2.4 8.7 1.9 6.1C58.6 11 57 6.6 57 6.4z"/><linearGradient id="SVGID_21_" gradientUnits="userSpaceOnUse" x1="8198.7793" y1="16.3168" x2="8201.4707" y2="2.1319" gradientTransform="matrix(-1 0 0 1 8260.2666 0)"><stop offset=".1718" stop-color="#ffd672"/><stop offset="1" stop-color="#f3ad5f"/></linearGradient><path d="M60.7 4.7s-6.2-2.2-2.6 6.3c2.5 5.5 3.8 5.3 4.5 5.2 1.8-.3 1.6-2.2.7-4.3-.3-.4-2.6-7.2-2.6-7.2z" fill="url(#SVGID_21_)"/><path class="st31" d="M59.8 4.5c-1.2 1.2 2.4 8.7 1.9 6.1-.3-1.5-1.8-5.9-1.9-6.1z"/><linearGradient id="SVGID_22_" gradientUnits="userSpaceOnUse" x1="8193.5156" y1="15.3179" x2="8196.207" y2="1.133" gradientTransform="matrix(-1 0 0 1 8260.2666 0)"><stop offset=".1718" stop-color="#ffd672"/><stop offset="1" stop-color="#f3ad5f"/></linearGradient><path d="M65.2 14.2c1.6.2 1.8-1.1 1.3-3.6-.1-2-4.3-3.5-4.1-5.2.2-1.7 5.5-1.2 8 2-4.2-5.1-6.6-5.5-9.6-3.9s2.6 10.4 4.4 10.7z" fill="url(#SVGID_22_)"/><linearGradient id="SVGID_23_" gradientUnits="userSpaceOnUse" x1="8066.0479" y1="164.6288" x2="8082.2935" y2="181.8828" gradientTransform="matrix(-1 0 0 1 8260.2666 0)"><stop offset=".1718" stop-color="#ffd672"/><stop offset="1" stop-color="#f3ad5f"/></linearGradient><path d="M185.5 182.7c2.3.3 5.3.2 9.2-.5-4-4-1-11.1 3.2-14.2l-.1-.1s-.2-.2-.6-.4c-.4-.3-1-.7-1.7-1.2-1.5-1-3.5-2.4-5.5-3.6-3.8-2.4-3.1-6.9-5.1-6.3-1.2.4-.5 3.6-.3 4.4.3 1.9 1.5 4.6.6 6.5-1.2 2.5-5.8 4.5-8.1 2.8l-2-2.8s-.5 2 .2 4.1c0 0 .1 3.5 2.2 6.1.1 0 .6 4.4 8 5.2z" fill="url(#SVGID_23_)"/><path class="st29" d="M198 168c-4.3 3.1-7.2 10.2-3.2 14.2.9.9 2.1 1.7 3.7 2.2-4.3-3.8-1.7-16.6 2.8-17.9-1.1.2-2.3.7-3.3 1.5z"/><path fill="#43aa82" d="M195.6 166.3l.1-22.7 20.8 11.7-19.2 12.1v.1"/><path class="st9" d="M155.3 155.1c0 5.3.3 10.9 1.1 16.8.1.4.1.8.2 1.3"/><linearGradient id="SVGID_24_" gradientUnits="userSpaceOnUse" x1="163.5219" y1="115.094" x2="161.3389" y2="156.789"><stop offset="0" stop-color="#9fefcf"/><stop offset=".6961" stop-color="#59e3ad"/></linearGradient><path d="M156.5 189.3c-5.1-19.2 1.5-93.2 4.4-93.3 2-1.1 9.1-1.5 10.4-1.2h.1s-16.6 44.8-13.9 94.4l-1 .1z" fill="url(#SVGID_24_)"/><path class="st9" d="M171.8 175.5v-.2"/><path class="st31" d="M182.9 176.8c-4.9-.7-6.8-3.2-7.5-5.4l-.3-1.2s-.1 7.4 7.8 6.6z"/><path class="st15" d="M177.2 170.1c2.3 1.8 6.9-.3 8.1-2.8.9-1.9-.3-4.6-.6-6.5-.1-.8-.9-4.1.3-4.4 0 0-2.9 1.7-2 5.8 1 4.1-3 7.1-7.9 5.1l2.1 2.8"/><path class="st31" d="M182.1 180.1c-2.1-.4-3.5-1.4-4.5-2.6 0 0 .7 2.8 4.5 2.6z"/><path class="st37" d="M224.3 41.8c.3 2.3-.3 4.4-1.5 5.8-.3.3-.6.5-.9.7-.1-.2-.3-.4-.5-.4s-.4.1-.4.3c-1.2.5-2.7.6-4 0-3.1.8-8.6-.3-12.1-1.4.5-.3.8-.7.8-1.3s-.3-1-.7-1.4c-.4-.3-.9-.6-1.4-.8-2-1.1-3.7-2.6-5-4.4-.2-.3-.4-.6-.6-1-3.2.9-6.7.8-9.8-.5-.9-.3-1.7-.8-2.7-1-.8-.2-3.3-.6-2.2.9.2.2.4.4.5.7-.5-.2-.9-.4-1.4-.6-.3-.1-.6-.3-.9-.4l-.1.1-.3.3c-.6.5-1.2 1.2-1.7 2 0 0-3.6-4.5-3.8-4.8-1.8-3.1-2.8-6.4-2.7-10 .2-7.1 6.8-13.7 13-16.4 3.6-1.5 7.5-2.5 11.4-2.5 3.1 0 10.2-.1 11.3 3.2.8 2.5-3.2 2.6-6.1 4.6-.1.5.4 1 .7 1.3 2.7 2.5 5.9 4.5 9.1 6.1 3.1 1.6 6 2.8 8.1 5.8 3 4.2 4.4 9.8 3.7 14.9.3 0 .2.1.2.2z"/><path class="st37" d="M198.5 39c-.3.5-.8 1-1.5 1.2-.7.2-1.5.3-2.2.4-1.1.2-2.3.2-3.4.2-1.7 0-3.4-.3-4.9-.7-2-.5-3.8-1.3-5.4-2.4l-1.4 1.9-.2-.2c.5-.8 1-1.4 1.7-2l.3-.3.1-.1c.3.2.6.3.9.4.4.2.9.4 1.4.6-.2-.2-.4-.4-.5-.7-1.1-1.5 1.4-1.1 2.2-.9.9.3 1.8.7 2.7 1 3.1 1.2 6.6 1.4 9.8.5 0 .4.2.8.4 1.1zM205.2 17.8c.3 0 .3-.4 0-.4s-.3.4 0 .4z"/><path class="st15" d="M159.2 101.4s-3.4 19.3-3.5 38.1c0 0-13.3-4.1-21.6-11.3-8.4-7.2 16.4 25.5 25.1-26.8zM241.6 161.7l7.3-.6-15.6-9.9 3.6 5.4z"/><g id="XMLID_3_" opacity=".5"><path class="st9" d="M10 169.6c-.1-.1-.1-.2-.2-.3-5-10.3-4.5-22.9 2.5-33.2 10.3-15 30.6-19 45.4-8.9 6.1 4.2 10.3 10.1 12.4 16.7 1.1 3.4 1.6 6.9 1.6 10.5"/><path class="st9" d="M17.9 162.2c-3 1.9-5.7 4.4-8 7.2-4.6 5.7-7.3 13-7.3 21 0 18.3 14.5 33.1 32.5 33.1 15.1 0 27.8-10.5 31.4-24.8M95.1 160.3c-1.1-9.7-9.3-17.1-19.3-17.1-1.9 0-3.7.3-5.5.8-.1 0-.2.1-.4.1"/></g><path class="st39" d="M131.7 250.7v34M131.7 241.2v6.9M128.3 268.9v9.8M263 239.4v37.9M265.7 255.1v6.1M265.7 249.5v3"/><radialGradient id="SVGID_25_" cx="8214.5996" cy="179.6049" r="0" gradientTransform="matrix(-1 0 0 1 8260.2666 0)" gradientUnits="userSpaceOnUse"><stop offset="0" stop-color="#f6f8fa"/><stop offset=".05862671" stop-color="#f3f5f8"/><stop offset=".4164" stop-color="#e2e7ee"/><stop offset=".6869" stop-color="#dce2ea"/></radialGradient><path d="M58.7 212.8c6.1 7.9 15.5 13 26.2 13 18.3 0 33.2-15.1 33.2-33.6s-14.9-33.6-33.2-33.6c-3.2 0-6.3.5-9.3 1.3" opacity=".5" fill="none" stroke="#b3b3b3" stroke-width=".25" stroke-miterlimit="10"/><linearGradient id="SVGID_26_" gradientUnits="userSpaceOnUse" x1="-2800.1458" y1="8142.8633" x2="-2728.3716" y2="8142.3784" gradientTransform="rotate(73.56 4108.15686985 6087.92015882)"><stop offset=".1718" stop-color="#ffd672"/><stop offset="1" stop-color="#f3ad5f"/></linearGradient><path d="M202.9 99.3c-4.3 4.4-22.6 6.1-27.1-2.3.3-1.4 2.6-5.1 3.3-6.7 1.5-3.2 2.6-6.6 3.2-10.2h-.3c-1.3-.2-2.5-.5-3.6-1-4.9-2.3-8.1-7.9-7.5-13.4.4-3.6 2.2-7.1 1.4-10.5-.3-1.3-.9-2.5-.6-3.7.3-1.3 1.7-2.1 2.6-3.1.4-.4.8-.8 1.1-1.3l.5-.7c.1-.1.1-.2.2-.3l3.5 1.1c-.9 3-.3 5.8 1.4 6.4 1.7.6 3.8-1.4 4.8-4.4l15.9 5.1 3.7-.5c-.4 0 3.4 3.7 3.1 3.9l.4 5.1c.6 1.7 0 1-1.1 2.5l-3.1.5c-.5.6-.8 1.1-1 1.8-1 3.4-1.6 7-.6 10.5.4 1.1.9 2.4 2 2.7-2.2 7.5-2.3 15.1-2.2 18.5z" fill="url(#SVGID_26_)"/><linearGradient id="SVGID_27_" gradientUnits="userSpaceOnUse" x1="184.6812" y1="45.6971" x2="279.1571" y2="45.0588"><stop offset=".1718" stop-color="#ffd672"/><stop offset="1" stop-color="#f3ad5f"/></linearGradient><path d="M204 46l-.1.2c-.1.1-.2.2-.2.3-.2.2-.4.4-.5.7-1.4 2.1-2 4.7-1.6 7.2l-.5-.2-14.6-4.7-.5-.2-.3-.1v-.1c.9-2.7.5-5.3-.9-6.2-.2-.1-.3-.2-.5-.3-1.7-.5-3.8 1.5-4.8 4.5v.1l-3.5-1.1c1.3-2.2 2.1-4.8 3.5-6.9.5-.8 1-1.4 1.7-2l.3-.3.1-.1c.3.2.6.3.9.4.4.2.9.4 1.4.6 3.4 1.5 7.2 2.3 11 2.5.7 0 1.4.1 2.1.1 1.6 2.3 4.2 4.2 7 5.6z" fill="url(#SVGID_27_)"/><path class="st31" d="M182.6 55.5c2.6-.2 3.9-5.1 3.4-6.1-.6.8-.8 1.9-1.7 2.5-.8.7-1.5 1.8-2.6 1.9-.9 0-2.4-1.6-1.9-.2.4 1 1.1 2 2.8 1.9z"/><path class="st37" d="M180.3 47.6c1-3.1 3.1-5.1 4.8-4.5 1.7.5 2.3 3.4 1.3 6.4v.1c-1 3-3.1 5-4.8 4.4-1.7-.6-2.3-3.4-1.3-6.4z"/><path class="st44" d="M185.7 49.3c-1 3-3.1 5-4.8 4.4-1.7-.5-2.3-3.4-1.4-6.4v-.1c1-3 3.1-5 4.8-4.5 1.8.6 2.4 3.5 1.4 6.6 0-.1 0 0 0 0z"/><path class="st31" d="M205.7 45.6c0 .5-.3 1-.8 1.3-.1.1-.1.1-.2.1-.2.1-.5.2-.8.2-.3 0-.5 0-.8-.1-.2 0-.4-.1-.6-.2-.4-.1-.8-.3-1.1-.6-1.2-.7-2.3-1.6-3.3-2.6-.7-.7-1.5-1.5-2.4-1.9-.9-.3-1.9-.2-2.9-.2-2.2.1-4.4-.6-6.4-1.7-.2-.1-.3-.2-.5-.3-.3-.2-.6-.4-.9-.7-.4-.3-.8-.7-1.2-1-.2-.2-.4-.4-.5-.7-1.1-1.5 1.4-1.1 2.2-.9.9.3 1.8.7 2.7 1 3.1 1.2 6.6 1.4 9.8.5.2.3.4.6.6 1 1.3 1.8 3 3.4 5 4.4.5.2 1 .5 1.4.8.3.6.7 1 .7 1.6zM174.1 54.6c.2.1.4.3.6.5s.3.5.2.7c-.1.3-.3.4-.6.4-.5.1-1.3-.1-1.9-.3-.3-.5-1.1-3.5-.8-4.3.5 0 .8 1.4 1.1 1.7.4.5.9.9 1.4 1.3zM182.2 80.2c.4-.1 5.3.7 10.7-3-1.5 1.3-9.9 6.3-10.7 3zM197.1 54.7c1.5.6 3.3 1.1 4.8.5-4.5-2-9.2-3.6-14-4.8-.7-.2-1.8.3-.8.7.9.4 2 .6 3 .9 2.3 1 4.7 1.8 7 2.7z"/><path class="st45" d="M179.5 47.3c1-3.1 3.1-5.1 4.8-4.5 1.7.5 2.3 3.4 1.3 6.4v.1c-1 3-3.1 5-4.8 4.4-1.6-.6-2.2-3.4-1.3-6.4z"/><path class="st31" d="M178.8 48.8c-.2-.1-.5-.2-.7-.3-.9-.4-2-.7-2.9-1.1 0 0-.1 0-.1-.1l.5-.7h.4c1 .3 2 .6 3 1-.1.5-.1.8-.2 1.2z"/><path class="st37" d="M175.9 46c-1.2 3-3.5 4.8-5.1 4.1-1.7-.7-2.1-3.6-.9-6.5 1.2-2.9 3.4-4.8 5.1-4.1 1.6.6 2 3.5.9 6.5z"/><path class="st44" d="M175.1 46c-1.2 2.9-3.4 4.7-5.1 4.1-1.7-.7-2.1-3.6-.9-6.5 1.2-2.9 3.4-4.8 5.1-4.1 1.6.6 2 3.5.9 6.5z"/><path d="M175.1 46c-1.2 3-3.5 4.8-5.1 4.1-1.7-.7-2.1-3.6-.9-6.5 1.2-2.9 3.4-4.8 5.1-4.1 1.6.6 2 3.5.9 6.5z" fill="#fff" stroke="#24497e" stroke-width=".25" stroke-linecap="round" stroke-linejoin="round" stroke-miterlimit="10"/><path class="st45" d="M175.1 46l.8.4 3.4 1.3M185.7 49.3l15.9 5.1 2 .6"/><radialGradient id="SVGID_28_" cx="-2798.0225" cy="8099.2285" r="0" gradientTransform="rotate(73.56 4108.15686985 6087.92015882)" gradientUnits="userSpaceOnUse"><stop offset=".1464" stop-color="#1b375f"/><stop offset="1" stop-color="#24497e"/></radialGradient><path class="st37" d="M221.9 48.4c-.1.1-.3.2-.4.3-1.4.8-3.1.8-4.5.2-3.4.8-7.9.1-12.2-1.9-.3-.2-.6-.3-1-.5h-.1c-.1-.1-.2-.1-.3-.2-2.8-1.4-5.1-3.2-6.7-5.1-1.8 0-3.5-.1-5.2-.4-2.2-.3-4.3-.9-6.3-1.6-1-.3-1.9-.8-2.9-1.2-.3-.2-.6-.3-.9-.5-.1 0-.1-.1-.1-.1l.3-.3.1-.1c.3.2.6.3.9.4.4.2.9.4 1.4.6-.2-.2-.4-.4-.5-.7-1.1-1.5 1.4-1.1 2.2-.9.9.3 1.8.7 2.7 1 3.1 1.2 6.6 1.4 9.8.5.2.3.4.6.6 1 1.3 1.8 3 3.4 5 4.4.5.2 1 .5 1.4.8.4.3.7.8.7 1.4s-.3 1-.8 1.3c3.5 1.2 9 2.2 12.1 1.4 1.3.6 2.8.5 4 0 .1-.2.2-.3.4-.3 0 .1.2.2.3.5z"/><path class="st31" d="M201.8 76.2s-2.9 27.4-14.3 26.7c0 0 10.6.9 15.5-3.6 0 0-.3-10.6 1.9-18.1l2.2-7.4-5.3 2.4z"/><path class="st37" d="M221.9 48.4c-.1-.2-.3-.4-.5-.4s-.4.1-.4.3c-1.2.5-2.7.6-4 0-3.1.8-8.6-.3-12.1-1.4-.4-.1-.8-.3-1.2-.4-.1-.1-.2-.1-.3-.2-.1 0-.1-.1-.2-.1-.2.2-.4.5-.6.7-1.5 2.1-2 4.5-1.5 7.2v.3c0 .2.1.3.1.4 0 .2.1.3.1.5 0 .1.1.2.1.3v.1c-.3.4-.5.8-.6 1.2-.1.2 0 .3.2.4.2.1.3 0 .4-.2.5-1.2 2-1.8 3.2-1.6 1.2.3 2.2 1.4 2.6 2.6.4 1.2.2 2.7-.4 3.9-.5 1.3-1.6 2.2-2.7 3.4-.2.3-.5.6-.7 1-.2.3-.4.8-.4 1.2-.2.7-.4 1.5-.6 2.2-.3 1.5-.5 3-.5 4.6 0 .6 0 1.1.1 1.7.1 1 .3 1.9.7 2.9.3.8.8 1.5 1.6 2.1.2.1.3.2.5.2 0 0 0 .1.1 0 .7.3 1.5.2 2.2-.1.9-.4 1.4-1.1 1.9-1.7.5-.7.9-1.3 1.2-2 .7-1.4 1.2-2.8 1.7-4.2 1-2.8 2.5-5.3 4-7.9 1.5-2.6 3-5.2 4.2-8 1.2-2.8 1.9-5.8 1.8-8.9v-.1z"/><ellipse transform="matrix(.1938 -.9811 .9811 .1938 77.4421 221.2928)" class="st44" cx="173.4" cy="63.5" rx="1.6" ry=".8"/><path class="st15" d="M176.9 98.7c-.2 1.1 9.6 11 29.7 2.4l-.2-7.7H203s-.1 4.9-.1 5.9c-4.7 4.5-20.3 5.6-26-.6z"/><path class="st39" d="M157.8 229.1c12.4 15.8 50 13.8 73 1.5M217.9 235.5c-4.8 30.2-3.2 64 1.6 94.2 4.5 28.3 11.8 56.1 19.3 83.8"/><path class="st39" d="M220.4 414.7c2.7 1 5.4 1.9 8.3 2.1 3.3.2 6.7-.5 9.4-2.5 1.2-.9 2.6-2.9 3.3-4.2"/><radialGradient id="SVGID_29_" cx="102.9144" cy="377.2798" r="31.7548" gradientUnits="userSpaceOnUse"><stop offset="0" stop-color="#f6f8fa"/><stop offset=".0699525" stop-color="#f3f5f8"/><stop offset=".4968" stop-color="#e2e7ee"/><stop offset=".8197" stop-color="#dce2ea"/></radialGradient><path fill="url(#SVGID_29_)" d="M85.6 353.4h24.6V378H85.6z"/><path fill="none" stroke="#59e3ad" stroke-width=".25" stroke-miterlimit="10" d="M108.7 376.5h8.2v8.2h-8.2z"/><path class="st2" d="M233.5 274.7s-2 9.5 2.4 12.8c-.1 0 2.1-6.1-2.4-12.8zM248.3 242.7s-1.3 4.8 1.5 8.2c0 0 2-3.1-1.5-8.2z"/><g><g id="XMLID_6_"><path class="st44" d="M335.3 147.5c-3.9 3-8.3 5.2-13.1 6.1-8.6 1.5-18.4-2.3-22-10.2-2.4-5.2-1.8-11.5.7-16.6 4.6-9.6 15.9-15.6 26.5-13.9h.5c1.8-7.9 6.6-15.1 13.7-19.1 8.7-4.9 20.4-4.2 27.9 2.4 2.6 2.3 4.5 5.4 5.7 8.8 8.1-1.9 17.1 3.6 19.3 11.6 2.2 8-3 17.3-10.9 19.8l-.5-.2c-3.1 6.8-8.7 12.5-15.6 15.5-9.8 4.3-21.9 2.9-30.5-3.6l-1.7-.6z"/><path class="st50" d="M327.3 112.8c-10.6-1.6-21.8 4.3-26.5 13.9-2.5 5.2-3.1 11.4-.7 16.6 3.6 7.9 13.4 11.7 22 10.2 4.8-.9 9.2-3.1 13.1-6.1 3-2.3 5.7-5.1 8.1-8.1M336.8 147.9c8.6 6.5 20.7 7.9 30.5 3.6 6.9-3 12.5-8.7 15.6-15.5 1.4-2.9 2.3-6.1 2.6-9.3"/><path class="st50" d="M327.1 118.4c.1-1.9.3-3.7.7-5.6 1.8-7.9 6.6-15.1 13.7-19.1 8.7-4.9 20.4-4.2 27.9 2.4 2.6 2.3 4.5 5.4 5.7 8.8 2.1 6.1 1.5 13.1-2.3 18.3"/><path class="st50" d="M374.9 104.9h.1c8.1-1.9 17.1 3.6 19.3 11.6 2.2 8-3 17.3-10.9 19.8"/></g></g><path class="st39" d="M91.8 25c16.4 20.5 36.4 37.9 58.9 51.3M100.5 26.5l8.4 8.7"/><path class="st51" d="M83.2 33.8c15.5 23.8 36.8 43.7 61.5 57.7M132.4 87.5c1.9 1.3 3.7 2.6 5.6 3.9M220.5 99.3c12.9 7.8 23.9 18.8 31.6 31.8M125.6 291.1c-3.9 4.7-4.4 11.6-2.4 17.3s6.3 10.5 11.2 14.1c4.9 3.6 10.4 6.3 15.8 9.2 12.4 6.6 24.3 14.1 35.6 22.4M182.3 255.6c4.9 30.6 14.1 60.6 27.4 88.6M189.9 283.8l3 10.5"/><path class="st31" d="M66.3 10.1s1.9 3.8.6 5.8-2.2 2.2-2.5 4.6c-1-.7.5-5.3.1-5.6-.7 2.1-2.1 2.1-3.2 1.6-.6 2.1-2.5 1.6-2.9 1 2.5.8 2.2-1.5 1.8-2.7 1.4 2.4 3.2 1 3.2 1s.9-.7.3-2.7c1.1 1.4 1.9 1.2 2.4.8 1.3-.7.2-3.8.2-3.8zM64.9 4.5s.3-1.4-.4-1.8c0 0 2.9.9 5.6 4.3 0 0-1.8-2.1-5.2-2.5z"/></svg>