<?xml version="1.0" encoding="utf-8"?>
<!-- Generator: Adobe Illustrator 23.0.1, SVG Export Plug-In . SVG Version: 6.00 Build 0)  -->
<svg version="1.1" id="Layer_1" xmlns="http://www.w3.org/2000/svg" xmlns:xlink="http://www.w3.org/1999/xlink" x="0px" y="0px"
	 viewBox="0 0 397 498" style="enable-background:new 0 0 397 498;" xml:space="preserve">
<style type="text/css">
	.st0{fill:none;stroke:#FFFFFF;stroke-width:0.25;stroke-linecap:round;stroke-linejoin:round;stroke-miterlimit:10;}
	
		.st1{fill:none;stroke:#59E3AD;stroke-width:0.25;stroke-linecap:round;stroke-linejoin:round;stroke-miterlimit:10;stroke-dasharray:3,3,3,3;}
	.st2{fill:none;stroke:#D3DBE5;stroke-width:0.25;stroke-linecap:round;stroke-miterlimit:10;}
	.st3{fill:#EDF1F5;}
	.st4{fill:#F6F8FA;}
	.st5{fill:#D3DBE5;stroke:#D3DBE5;stroke-width:0.25;stroke-miterlimit:10;}
	.st6{fill:#FFFFFF;stroke:#D3DBE5;stroke-width:0.25;stroke-miterlimit:10;}
	.st7{fill:#D3DBE5;}
	.st8{fill:url(#SVGID_1_);}
	.st9{fill:none;stroke:#B3B3B3;stroke-width:0.25;stroke-miterlimit:10;}
	.st10{fill:url(#SVGID_2_);}
	.st11{fill:url(#SVGID_3_);}
	.st12{fill:url(#SVGID_4_);}
	.st13{fill:url(#SVGID_5_);}
	.st14{fill:url(#SVGID_6_);}
	.st15{opacity:0.3;fill:#B3B3B3;}
	.st16{fill:#E6E6E6;}
	.st17{clip-path:url(#SVGID_8_);fill:none;stroke:#B3B3B3;stroke-width:0.25;stroke-miterlimit:10;}
	.st18{clip-path:url(#SVGID_10_);fill:none;stroke:#B3B3B3;stroke-width:0.25;stroke-miterlimit:10;}
	.st19{fill:url(#SVGID_11_);}
	.st20{fill:url(#SVGID_12_);}
	.st21{fill:url(#SVGID_13_);}
	.st22{fill:url(#SVGID_14_);}
	.st23{opacity:0.18;}
	.st24{clip-path:url(#SVGID_16_);fill:url(#SVGID_17_);}
	.st25{clip-path:url(#SVGID_16_);fill:url(#SVGID_18_);}
	
		.st26{clip-path:url(#SVGID_16_);fill:none;stroke:#99C3E4;stroke-width:0.5;stroke-linecap:round;stroke-linejoin:round;stroke-miterlimit:10;}
	.st27{fill:#BBEAC7;}
	.st28{fill:url(#SVGID_19_);}
	.st29{fill:#91BDFD;}
	.st30{fill:url(#SVGID_20_);}
	.st31{opacity:0.24;fill:#DB5437;}
	.st32{fill:url(#SVGID_21_);}
	.st33{fill:url(#SVGID_22_);}
	.st34{fill:url(#SVGID_23_);}
	.st35{fill:#43AA82;}
	.st36{fill:url(#SVGID_24_);}
	.st37{fill:#24497E;}
	.st38{opacity:0.5;}
	.st39{fill:none;stroke:#A7B6CB;stroke-width:0.25;stroke-linecap:round;stroke-miterlimit:10;}
	.st40{opacity:0.2;fill:url(#SVGID_25_);}
	.st41{opacity:0.5;fill:none;stroke:#B3B3B3;stroke-width:0.25;stroke-miterlimit:10;}
	.st42{fill:url(#SVGID_26_);}
	.st43{fill:url(#SVGID_27_);}
	.st44{fill:#FFFFFF;}
	.st45{fill:none;stroke:#24497E;stroke-width:0.25;stroke-linecap:round;stroke-linejoin:round;stroke-miterlimit:10;}
	.st46{fill:#FFFFFF;stroke:#24497E;stroke-width:0.25;stroke-linecap:round;stroke-linejoin:round;stroke-miterlimit:10;}
	.st47{fill:url(#SVGID_28_);}
	.st48{fill:url(#SVGID_29_);}
	.st49{fill:none;stroke:#59E3AD;stroke-width:0.25;stroke-miterlimit:10;}
	.st50{fill:none;stroke:#D3DBE5;stroke-width:0.25;stroke-linecap:round;stroke-linejoin:round;stroke-miterlimit:10;}
	.st51{opacity:0.5;fill:none;stroke:#F6F8FA;stroke-width:0.25;stroke-linecap:round;stroke-linejoin:round;stroke-miterlimit:10;}
</style>
<line class="st0" x1="276.7" y1="5.4" x2="306.2" y2="5.4"/>
<line class="st0" x1="294" y1="7.8" x2="303.5" y2="7.8"/>
<path class="st1" d="M216.3,367.7c53.5-21.7,96.8-67.4,115.5-122"/>
<path class="st2" d="M237.8,224.2c1.4,3.1,1.8,5.2,1.8,8.3c-0.5,0.2-2.7-0.4-3.1-0.7c0.5,3.2,1.6,10.3,0.5,15.7
	c-2.9-1.8-7.2-12.2-8.5-15.4"/>
<path class="st2" d="M221.8,230.9c-0.1,4.4,1.4,8.9,4.3,12.2c0.4-0.6,0.7-1.2,1.1-1.8c2.8,9.6,13.4,43.8,19.9,51.4
	c3.5-10.3-1.2-46.8-2.9-57.6c1,0.6,1.9,1.3,2.9,1.9c1.3-6.2-3.8-17.3-8.4-21.7"/>
<g>
	<g>
		<g>
			<path class="st3" d="M27.1,313.1c-1.7,0-1.7-2.6,0-2.6C28.8,310.4,28.8,313.1,27.1,313.1L27.1,313.1z"/>
		</g>
	</g>
</g>
<ellipse class="st4" cx="241" cy="490.1" rx="45.2" ry="5"/>
<rect x="300" y="195.1" transform="matrix(-1 -5.114854e-11 5.114854e-11 -1 680.1769 433.6841)" class="st5" width="80.2" height="43.4"/>
<rect x="292.2" y="195.1" transform="matrix(-1 -5.060453e-11 5.060453e-11 -1 664.5769 433.6841)" class="st6" width="80.2" height="43.4"/>
<polygon class="st7" points="342.1,216.5 324.2,226.8 324.2,206.1 "/>
<linearGradient id="SVGID_1_" gradientUnits="userSpaceOnUse" x1="238.9231" y1="211.7881" x2="231.0679" y2="217.815">
	<stop  offset="0" style="stop-color:#9FEFCF"/>
	<stop  offset="0.6961" style="stop-color:#59E3AD"/>
</linearGradient>
<path class="st8" d="M228.7,220.7c10-2,11.5-7.2,11.5-7.2l-0.4-3.5l-3.5-0.1l-9.4,7.1L228.7,220.7z"/>
<line class="st9" x1="224.9" y1="241.5" x2="225.8" y2="245"/>
<linearGradient id="SVGID_2_" gradientUnits="userSpaceOnUse" x1="8191.5039" y1="1.2432" x2="8199.1143" y2="28.3176" gradientTransform="matrix(-1 0 0 1 8260.2666 0)">
	<stop  offset="0.1718" style="stop-color:#FFD672"/>
	<stop  offset="1" style="stop-color:#F3AD5F"/>
</linearGradient>
<path class="st10" d="M55.1,10.5c0,0-0.3,11.2,7.6,16.8h0c0.2-1.3,0.8-2.5,1.8-3.5c2.9-3,7.1-2.5,10-1.7c-0.2-10-4.6-16.5-6.6-17
	c-0.1,0-0.9-0.4-1-0.4c-2-0.5-4.6-1-4.6,0.7c0,0.7-3.3-0.9-4.8,1C55.7,8.6,55,6.5,55.1,10.5z"/>
<radialGradient id="SVGID_3_" cx="8044.021" cy="398.4069" r="32.0996" gradientTransform="matrix(-1 0 0 1 8260.2666 0)" gradientUnits="userSpaceOnUse">
	<stop  offset="0.1464" style="stop-color:#1B375F"/>
	<stop  offset="1" style="stop-color:#24497E"/>
</radialGradient>
<path class="st11" d="M206.1,360.6l-5.1-1.1l-4.3,8c0,0,1.4,42.5,9.4,42.5c8,0,13-15.8,10.5-47.4L206.1,360.6"/>
<radialGradient id="SVGID_4_" cx="8014.0562" cy="455.5693" r="40.3026" gradientTransform="matrix(-1 0 0 1 8260.2666 0)" gradientUnits="userSpaceOnUse">
	<stop  offset="0.1464" style="stop-color:#1B375F"/>
	<stop  offset="1" style="stop-color:#24497E"/>
</radialGradient>
<path class="st12" d="M241.5,410.9c0,0,14.1,48.8-1.5,57.3s-19.2-54-19.2-54L241.5,410.9z"/>
<path class="st4" d="M166.7,309.4c-2.7-1.3-13.8-7-13.8-7l-2.1,1.2l16.9,6.5"/>
<g>
	<g>
		<radialGradient id="SVGID_5_" cx="104.9342" cy="312.5839" r="124.6726" gradientUnits="userSpaceOnUse">
			<stop  offset="0" style="stop-color:#F6F8FA"/>
			<stop  offset="6.995250e-02" style="stop-color:#F3F5F8"/>
			<stop  offset="0.4968" style="stop-color:#E2E7EE"/>
			<stop  offset="0.8197" style="stop-color:#DCE2EA"/>
		</radialGradient>
		<path class="st13" d="M206.3,364.2c0,0-5,5.4-10.4,4.2c-39.4-34.2-61.7-38.5-75.7-54.6c-14-16.1,40-88.4,40-88.4
			s36.5-2.6,70.4,1.8c0,0,3.1,31.2-1.9,51.7c-5.8,23.7,15.7,130.9,12.3,138c-3.4,7.1-15.1,10.8-20.7-1.5l-14-51.2L206.3,364.2z
			 M199,337.2l-17.5-63.8c-1.9,2.5-15.9,20.5-28.1,28.7l-0.1,0.3C163.4,306.9,188.8,319.8,199,337.2z"/>
	</g>
	<g>
		<radialGradient id="SVGID_6_" cx="104.9233" cy="312.5473" r="124.715" gradientUnits="userSpaceOnUse">
			<stop  offset="0" style="stop-color:#F6F8FA"/>
			<stop  offset="6.995250e-02" style="stop-color:#F3F5F8"/>
			<stop  offset="0.4968" style="stop-color:#E2E7EE"/>
			<stop  offset="0.8197" style="stop-color:#DCE2EA"/>
		</radialGradient>
		<path class="st14" d="M206.3,364.2c0,0-5,5.4-10.4,4.2c-39.4-34.2-61.7-38.5-75.7-54.6c-14-16.1,40-88.4,40-88.4
			s36.5-2.6,70.4,1.8c0,0,3.1,31.2-1.9,51.7c-5.8,23.7,16.3,131,12.3,138c-3.8,6.9-15.1,10.8-20.7-1.5l-14-51.2L206.3,364.2z
			 M199,337.2l-17.5-63.8c-1.9,2.5-15.9,20.5-28.1,28.7l-0.1,0.3C163.4,306.9,188.8,319.8,199,337.2z"/>
	</g>
</g>
<path class="st15" d="M181.6,273.4l-4.8-20.3c0,0-5.3,25.7-1.9,28.4C178,277.1,181.6,273.4,181.6,273.4z"/>
<path class="st4" d="M206.4,364.2l-6.7-26.1c0,0-7-10.3-9.8-12.2c-1.9-1.5,22.3,38.9,6.6,42.8C201.6,369.2,206.4,364.2,206.4,364.2z
	"/>
<g>
	<path class="st16" d="M198.7,85.5c0.3-0.7,0.7-1.3,1.1-1.9c1.6-2.5,3.8-4.7,6.4-6.3c3.2-2,7-3.2,11-3.2c11.5,0,20.8,9.3,20.8,20.8
		l0.3,15.4l-3.4-3.1L210.2,95l-8.6,0.1L198.7,85.5"/>
	<path class="st16" d="M162.8,89.2c0,0.1-0.1,13.3,1.1,13.9c7.2,3.3,29.6,2,34.9,1.9l-0.1-19.5c0.3-0.7,0.7-1.3,1.1-1.9
		c-3.7-5.7-10.1-9.4-17.4-9.4c-0.3,0-0.6,0-0.9,0C173.2,74.5,165.8,81.9,162.8,89.2z"/>
	<path class="st16" d="M225.5,187.5v0.1l0,31.5h0.5c6.5-0.7,11.7-5.7,14-8.3c0.9-1,1.3-2.3,1.3-3.6l-1-19.8v-0.1
		C235.6,187.5,230.5,187.6,225.5,187.5z"/>
	<g>
		<defs>
			<path id="SVGID_7_" d="M198.7,85.5c0.3-0.7,0.7-1.3,1.1-1.9c1.6-2.5,3.8-4.7,6.4-6.3c3.2-2,7-3.2,11-3.2
				c11.5,0,20.8,9.3,20.8,20.8l0.3,9.6v8.3l-42.3-16.4L198.7,85.5"/>
		</defs>
		<clipPath id="SVGID_8_">
			<use xlink:href="#SVGID_7_"  style="overflow:visible;"/>
		</clipPath>
		<path class="st17" d="M201.7,87.2c8.6,6.1,20.5,7,29.9,2.3c1.2-0.6,2.5-1.4,3.3-2.5c0.9-1.1,1.3-2.6,0.8-3.9"/>
	</g>
	<g>
		<defs>
			<path id="SVGID_9_" d="M162.8,89.2c0.2,0,0,15.2,1,15.7c6.7,3.4,29.3,2.3,34.8,2.2l0.1-21.5c0.3-0.7,0.7-1.3,1.1-1.9
				c-3.7-5.7-10.1-9.4-17.4-9.4c-0.3,0-0.6,0-0.9,0C173.2,74.5,165.8,81.9,162.8,89.2z"/>
		</defs>
		<clipPath id="SVGID_10_">
			<use xlink:href="#SVGID_9_"  style="overflow:visible;"/>
		</clipPath>
		<path class="st18" d="M162.9,88.4c10.4,6.5,23.8,2.8,34-3.9"/>
	</g>
</g>
<path class="st4" d="M231,228.3c1.6,5.8-48.6,14.1-73.2,0.8l5.8-7.4C163.6,221.7,229.4,222.3,231,228.3z"/>
<linearGradient id="SVGID_11_" gradientUnits="userSpaceOnUse" x1="8110.6069" y1="87.5034" x2="8042.8218" y2="232.6853" gradientTransform="matrix(-1 0 0 1 8260.2666 0)">
	<stop  offset="2.023010e-02" style="stop-color:#4891FB"/>
	<stop  offset="0.5809" style="stop-color:#227BFB"/>
	<stop  offset="1" style="stop-color:#2F71D1"/>
</linearGradient>
<path class="st19" d="M156.4,171.9L156.4,171.9c0,0,0.3,5.9,0.8,13.8c0.8,13.7,2.1,33.4,2.9,39.4c0.1,1.1,0.8,2,1.7,2.6
	c13.7,7.9,45.9,7.2,66.1,3.1c1.7-0.3,2.9-1.8,2.9-3.5l0-8.1l0-31.5v-0.1c-2.3-0.1-4.6-0.1-7-0.3v0.1l-24.4,16.2l-13.8-20.8
	c-7.4-0.9-7.9-5.2-7.9-5.2l0,0c-2.1-2.6-2.2-6.1-2.2-6.1h0c-0.7-2.2-0.2-4.1-0.2-4.1l0,0l-14.9-22.5l51.5-30.2
	c-0.3-10.3-5.9-18.3-5.5-21.2l-0.2,0c-0.6,0-1.4,0-2.3,0c-6.3,0.1-26.8,1.5-38.9,2.6C165,96,155.6,166,156.4,171.9z"/>
<path class="st15" d="M243.4,176.5c0,0-21.6,16.5-21.7,16.5v0.1l-24.4,16.2l-12.1-18.1c0,0-0.1,0-0.1,0l-23.4-35.4
	c-2.8,19.2-4.2,33.4-4.2,33.4c-0.8-11.7-0.1-24.9,1.4-37.7c0.1-0.5,0.1-1,0.2-1.6c2.9-23.2,8.1-45.2,12-54.5
	c3.4-0.5,2.6,0.1,2.6,0.1c-4.7,17-8.8,35.2-11.4,52.2c0,0,0,0,0,0.1l41.7-27.6l2-1.3l11,16.6L243.4,176.5z"/>
<linearGradient id="SVGID_12_" gradientUnits="userSpaceOnUse" x1="220.4552" y1="104.2207" x2="219.4426" y2="129.8387">
	<stop  offset="0" style="stop-color:#9FEFCF"/>
	<stop  offset="0.6961" style="stop-color:#59E3AD"/>
</linearGradient>
<path class="st20" d="M206.4,93.4c2.4,79.3,24.1,98,24.1,98l1-1c-1.4-16.8-13.7-96.1-13.7-96.2C214.4,91.6,206.5,93.1,206.4,93.4z"
	/>
<linearGradient id="SVGID_13_" gradientUnits="userSpaceOnUse" x1="8069.9751" y1="71.9932" x2="8003.2681" y2="214.8658" gradientTransform="matrix(-1 0 0 1 8260.2666 0)">
	<stop  offset="2.023010e-02" style="stop-color:#4891FB"/>
	<stop  offset="0.5809" style="stop-color:#227BFB"/>
	<stop  offset="1" style="stop-color:#2F71D1"/>
</linearGradient>
<path class="st21" d="M241.6,161.7c-0.4,0.1-0.8,0.2-1.2,0.2c-12.6,2.2-34.8,3.8-38.8,4.5c-0.1,0-0.2,0-0.3,0.1
	c-4.5,1.3-7.1,14.1-2.8,17.9c0.7,0.6,1.6,1,2.7,1.1c7.1,0.7,14.8,1.3,22.6,1.7c2.3,0.1,4.7,0.2,7,0.3c5.1,0.1,10.1,0.1,14.9-0.2
	c11.8-0.7,22.2-2.8,28.5-7.6c5.1-3.9,6.5-8.2,4.7-13.2c-7-18.5-21.8-41.2-35.4-54.2c-0.7-0.7-1.3-1.3-2-1.9c-3.8-3.4-7.4-6.4-10.7-9
	c-3.9-3.1-8.2-5.4-12.8-7l0,0c-0.8,3.8-2.9,28.9-1.1,31.8c1.8,3,2.4,3.5,2.4,3.5l17.8,26.8L241.6,161.7z"/>
<linearGradient id="SVGID_14_" gradientUnits="userSpaceOnUse" x1="8174.0767" y1="56.0044" x2="8081.21" y2="139.7231" gradientTransform="matrix(-1 0 0 1 8260.2666 0)">
	<stop  offset="2.023010e-02" style="stop-color:#4891FB"/>
	<stop  offset="0.5809" style="stop-color:#227BFB"/>
	<stop  offset="1" style="stop-color:#2F71D1"/>
</linearGradient>
<path class="st22" d="M77.4,23.3c-1.8-0.8-12.6-4.7-13.9,8.8c15.3,33.5,52,96.8,93.4,107.9l8.2-43.2c-21.1-2-55.4-33.4-87.5-73.3
	C77.7,23.4,77.6,23.4,77.4,23.3z"/>
<g class="st23">
	<defs>
		<path id="SVGID_15_" class="st23" d="M274.4,179.7c-6.3,4.8-16.7,6.9-28.5,7.6c-4.8,0.3-9.8,0.3-14.9,0.2v0.1l0,31.5v8.1
			c0,1.7-1.2,3.2-2.9,3.5c-20.2,4.1-52.4,4.8-66.1-3.1c-0.9-0.5-1.6-1.5-1.7-2.6c-0.8-6.1-2.1-25.8-2.9-39.4
			c-0.5-7.9-0.8-13.8-0.8-13.8h0c-0.6-5,0.5-31.9,0.5-31.9C115.7,128.8,79,65.5,63.8,32.1c1.3-13.5,12.1-9.5,13.9-8.8
			c0.2,0.1,0.3,0.1,0.3,0.1c31.9,39.8,66.2,71.1,87.3,73.3c-0.1,0.7-0.3,1.9-0.5,3.5l0.7-3.5c-0.1,0-0.1,0-0.2,0
			c0.1-0.5,0.1-0.8,0.1-0.8c12-1.1,32.6-2.5,38.9-2.6c0.9,0,1.6,0,2.3,0l0.3,0.1c-0.4,2.9,20.3,4.9,24.2,8c3.3,2.6,6.9,5.7,10.7,9
			c0.7,0.6,1.4,1.2,2,1.9c13.5,13,28.4,35.7,35.4,54.2C280.9,171.4,279.5,175.8,274.4,179.7z"/>
	</defs>
	<clipPath id="SVGID_16_">
		<use xlink:href="#SVGID_15_"  style="overflow:visible;"/>
	</clipPath>
	<linearGradient id="SVGID_17_" gradientUnits="userSpaceOnUse" x1="165.8413" y1="96.5947" x2="164.2731" y2="99.9534">
		<stop  offset="2.023010e-02" style="stop-color:#4891FB"/>
		<stop  offset="0.5809" style="stop-color:#227BFB"/>
		<stop  offset="1" style="stop-color:#2F71D1"/>
	</linearGradient>
	<path class="st24" d="M165.4,96.8l-0.7,3.5c0.2-1.6,0.4-2.8,0.5-3.5C165.3,96.7,165.3,96.8,165.4,96.8z"/>
	<linearGradient id="SVGID_18_" gradientUnits="userSpaceOnUse" x1="165.5419" y1="97.9564" x2="163.7214" y2="99.5976">
		<stop  offset="2.023010e-02" style="stop-color:#4891FB"/>
		<stop  offset="0.5809" style="stop-color:#227BFB"/>
		<stop  offset="1" style="stop-color:#2F71D1"/>
	</linearGradient>
	<path class="st25" d="M165.4,96.8l-0.7,3.5c0.2-1.6,0.4-2.8,0.5-3.5C165.3,96.7,165.3,96.8,165.4,96.8z"/>
	<path class="st26" d="M189.4,80.6c0.6,17.1,10.9,33.6,26,41.6s34.6,7.2,49-2"/>
	<path class="st26" d="M175.7,84.1c-2.6,23.9,10.4,48.7,31.5,60.2s49,8.8,67.6-6.4"/>
	<path class="st26" d="M145.9,205.2c38-35.1,91.2-53.2,142.8-48.6"/>
	<path class="st26" d="M154.2,176.5c12.4-15.8,17.5-37.1,13.4-56.8c-4.1-19.7-17.2-37.3-34.8-46.8"/>
	<path class="st26" d="M126.8,131.3c7.2-15.2,7.2-33.7,0-48.9s-21.4-27-37.8-31.1c-8.3-2.1-18-2-24.3,3.7"/>
	<path class="st26" d="M84.5,79.1c4.4-2,9.8,0,13.4,3.2c7.5,6.6,10,18.3,5.8,27.4"/>
	<path class="st26" d="M161.5,241.1c21.5-27.5,57.8-42.6,92.4-38.7"/>
</g>
<path class="st15" d="M218.1,94.4c0,0-6.7,22.3,18.8,62.1L216.1,126C216.1,126,214.6,106.3,218.1,94.4z"/>
<path class="st27" d="M195.7,143.6l-0.1,22.7c0.7,0.5,1.3,0.9,1.7,1.2l19.2-12.2L195.7,143.6z"/>
<path class="st15" d="M159.1,150c-0.1,0.5-0.1,1-0.2,1.6l-0.6-1L159.1,150z"/>
<linearGradient id="SVGID_19_" gradientUnits="userSpaceOnUse" x1="192.5599" y1="125.0184" x2="210.8969" y2="191.381">
	<stop  offset="0" style="stop-color:#9FEFCF"/>
	<stop  offset="0.6961" style="stop-color:#59E3AD"/>
</linearGradient>
<path class="st28" d="M194.7,182.2L194.7,182.2c0.9,0.9,2.1,1.6,3.8,2.2c0.7,0.6,1.6,1,2.7,1.1c7.1,0.7,14.8,1.3,22.6,1.7v0.1
	l-24.4,16.2l-13.8-20.8C187.8,183,190.8,182.9,194.7,182.2z M206.1,114.4l-45.8,30.3l14.9,22.5l0,0l2,2.8c2.3,1.8,6.9-0.3,8.1-2.8
	c0.9-1.9-0.3-4.6-0.6-6.5c-0.1-0.8-0.9-4.1,0.3-4.4c1.9-0.6,1.2,3.9,5.1,6.3c2,1.2,4,2.6,5.5,3.6l0.1-22.7l20.8,11.7l-19.2,12.2
	c0.4,0.3,0.6,0.4,0.6,0.4l0.1,0.1c1-0.8,2.2-1.3,3.3-1.5c0.1,0,0.2-0.1,0.3-0.1c4-0.7,26.3-2.3,38.8-4.5v0l-3.5-5.3l-17.8-26.8
	l-11-16.6L206.1,114.4z"/>
<path class="st29" d="M74.4,22.1c-2.9-0.8-7.1-1.3-10,1.7c-1,1-1.5,2.2-1.8,3.5c-0.3,1.5,0,3.2,0.8,4.7l0,0.1
	c1.3-13.5,12.1-9.6,13.9-8.8C76.9,23,75.8,22.6,74.4,22.1z"/>
<linearGradient id="SVGID_20_" gradientUnits="userSpaceOnUse" x1="8201.8232" y1="16.8942" x2="8204.5146" y2="2.7094" gradientTransform="matrix(-1 0 0 1 8260.2666 0)">
	<stop  offset="0.1718" style="stop-color:#FFD672"/>
	<stop  offset="1" style="stop-color:#F3AD5F"/>
</linearGradient>
<path class="st30" d="M57.1,6.4c-4.5,0.5-0.8,11.4,2.3,11.3c0.4-0.2,1.5-0.9,0.9-2.7v0C59.5,13.9,59.2,7.2,57.1,6.4z"/>
<path class="st31" d="M57,6.4c-1.2,1.2,2.4,8.7,1.9,6.1C58.6,11,57,6.6,57,6.4z"/>
<linearGradient id="SVGID_21_" gradientUnits="userSpaceOnUse" x1="8198.7793" y1="16.3168" x2="8201.4707" y2="2.1319" gradientTransform="matrix(-1 0 0 1 8260.2666 0)">
	<stop  offset="0.1718" style="stop-color:#FFD672"/>
	<stop  offset="1" style="stop-color:#F3AD5F"/>
</linearGradient>
<path class="st32" d="M60.7,4.7c0,0-6.2-2.2-2.6,6.3c0,0,0,0,0,0c2.5,5.5,3.8,5.3,4.5,5.2c1.8-0.3,1.6-2.2,0.7-4.3
	C63,11.5,60.7,4.7,60.7,4.7z"/>
<path class="st31" d="M59.8,4.5c-1.2,1.2,2.4,8.7,1.9,6.1C61.4,9.1,59.9,4.7,59.8,4.5z"/>
<linearGradient id="SVGID_22_" gradientUnits="userSpaceOnUse" x1="8193.5156" y1="15.3179" x2="8196.207" y2="1.133" gradientTransform="matrix(-1 0 0 1 8260.2666 0)">
	<stop  offset="0.1718" style="stop-color:#FFD672"/>
	<stop  offset="1" style="stop-color:#F3AD5F"/>
</linearGradient>
<path class="st33" d="M65.2,14.2c1.6,0.2,1.8-1.1,1.3-3.6c-0.1-2-4.3-3.5-4.1-5.2c0.2-1.7,5.5-1.2,8,2c-4.2-5.1-6.6-5.5-9.6-3.9
	S63.4,13.9,65.2,14.2z"/>
<linearGradient id="SVGID_23_" gradientUnits="userSpaceOnUse" x1="8066.0479" y1="164.6288" x2="8082.2935" y2="181.8828" gradientTransform="matrix(-1 0 0 1 8260.2666 0)">
	<stop  offset="0.1718" style="stop-color:#FFD672"/>
	<stop  offset="1" style="stop-color:#F3AD5F"/>
</linearGradient>
<path class="st34" d="M185.5,182.7c2.3,0.3,5.3,0.2,9.2-0.5l0,0c-4-4-1-11.1,3.2-14.2l-0.1-0.1c0,0-0.2-0.2-0.6-0.4
	c-0.4-0.3-1-0.7-1.7-1.2c-1.5-1-3.5-2.4-5.5-3.6c-3.8-2.4-3.1-6.9-5.1-6.3c-1.2,0.4-0.5,3.6-0.3,4.4c0.3,1.9,1.5,4.6,0.6,6.5
	c-1.2,2.5-5.8,4.5-8.1,2.8l-2-2.8c0,0-0.5,2,0.2,4.1h0c0,0,0.1,3.5,2.2,6.1l0,0C177.6,177.5,178.1,181.9,185.5,182.7z"/>
<path class="st29" d="M198,168c-4.3,3.1-7.2,10.2-3.2,14.2c0.9,0.9,2.1,1.7,3.7,2.2c-4.3-3.8-1.7-16.6,2.8-17.9
	C200.2,166.7,199,167.2,198,168z"/>
<polyline class="st35" points="195.6,166.3 195.6,166.3 195.7,143.6 216.5,155.3 197.3,167.4 197.3,167.5 "/>
<path class="st9" d="M155.3,155.1c0,5.3,0.3,10.9,1.1,16.8c0.1,0.4,0.1,0.8,0.2,1.3"/>
<linearGradient id="SVGID_24_" gradientUnits="userSpaceOnUse" x1="163.5219" y1="115.094" x2="161.3389" y2="156.789">
	<stop  offset="0" style="stop-color:#9FEFCF"/>
	<stop  offset="0.6961" style="stop-color:#59E3AD"/>
</linearGradient>
<path class="st36" d="M156.5,189.3c-5.1-19.2,1.5-93.2,4.4-93.3c2-1.1,9.1-1.5,10.4-1.2c0,0,0.1,0,0.1,0c0,0-16.6,44.8-13.9,94.4
	L156.5,189.3z"/>
<path class="st9" d="M171.8,175.5c0-0.1,0-0.1,0-0.2"/>
<path class="st31" d="M182.9,176.8c-4.9-0.7-6.8-3.2-7.5-5.4c-0.1-0.4-0.2-0.8-0.3-1.2C175.1,170.2,175,177.6,182.9,176.8z"/>
<path class="st15" d="M177.2,170.1c2.3,1.8,6.9-0.3,8.1-2.8c0.9-1.9-0.3-4.6-0.6-6.5c-0.1-0.8-0.9-4.1,0.3-4.4c0,0-2.9,1.7-2,5.8
	c1,4.1-3,7.1-7.9,5.1L177.2,170.1"/>
<path class="st31" d="M182.1,180.1c-2.1-0.4-3.5-1.4-4.5-2.6C177.6,177.5,178.3,180.3,182.1,180.1z"/>
<path class="st37" d="M224.3,41.8c0.3,2.3-0.3,4.4-1.5,5.8c-0.3,0.3-0.6,0.5-0.9,0.7c-0.1-0.2-0.3-0.4-0.5-0.4
	c-0.2,0-0.4,0.1-0.4,0.3c-1.2,0.5-2.7,0.6-4,0c-3.1,0.8-8.6-0.3-12.1-1.4c0.5-0.3,0.8-0.7,0.8-1.3s-0.3-1-0.7-1.4
	c-0.4-0.3-0.9-0.6-1.4-0.8c-2-1.1-3.7-2.6-5-4.4c-0.2-0.3-0.4-0.6-0.6-1c-3.2,0.9-6.7,0.8-9.8-0.5c-0.9-0.3-1.7-0.8-2.7-1
	c-0.8-0.2-3.3-0.6-2.2,0.9c0.2,0.2,0.4,0.4,0.5,0.7c-0.5-0.2-0.9-0.4-1.4-0.6c-0.3-0.1-0.6-0.3-0.9-0.4l-0.1,0.1
	c-0.1,0.1-0.2,0.2-0.3,0.3c-0.6,0.5-1.2,1.2-1.7,2c0,0-3.6-4.5-3.8-4.8c-1.8-3.1-2.8-6.4-2.7-10c0.2-7.1,6.8-13.7,13-16.4
	c3.6-1.5,7.5-2.5,11.4-2.5c3.1,0,10.2-0.1,11.3,3.2c0.8,2.5-3.2,2.6-6.1,4.6c-0.1,0.5,0.4,1,0.7,1.3c2.7,2.5,5.9,4.5,9.1,6.1
	c3.1,1.6,6,2.8,8.1,5.8c3,4.2,4.4,9.8,3.7,14.9C224.4,41.6,224.3,41.7,224.3,41.8z"/>
<path class="st37" d="M198.5,39c-0.3,0.5-0.8,1-1.5,1.2c-0.7,0.2-1.5,0.3-2.2,0.4c0,0,0,0,0,0c-1.1,0.2-2.3,0.2-3.4,0.2
	c-1.7,0-3.4-0.3-4.9-0.7c-2-0.5-3.8-1.3-5.4-2.4l-1.4,1.9c0,0-0.1-0.1-0.2-0.2c0.5-0.8,1-1.4,1.7-2c0.1-0.1,0.2-0.2,0.3-0.3l0.1-0.1
	c0.3,0.2,0.6,0.3,0.9,0.4c0.4,0.2,0.9,0.4,1.4,0.6c-0.2-0.2-0.4-0.4-0.5-0.7c-1.1-1.5,1.4-1.1,2.2-0.9c0.9,0.3,1.8,0.7,2.7,1
	c3.1,1.2,6.6,1.4,9.8,0.5C198.1,38.3,198.3,38.7,198.5,39z"/>
<g>
	<g>
		<path class="st37" d="M205.2,17.8c0.3,0,0.3-0.4,0-0.4C204.9,17.4,204.9,17.8,205.2,17.8L205.2,17.8z"/>
	</g>
</g>
<path class="st15" d="M159.2,101.4c0,0-3.4,19.3-3.5,38.1c0,0-13.3-4.1-21.6-11.3C125.7,121,150.5,153.7,159.2,101.4z"/>
<polygon class="st15" points="241.6,161.7 248.9,161.1 233.3,151.2 236.9,156.6 "/>
<g id="XMLID_3_" class="st38">
	<g>
	</g>
	<g>
		<path class="st9" d="M10,169.6c-0.1-0.1-0.1-0.2-0.2-0.3c-5-10.3-4.5-22.9,2.5-33.2c10.3-15,30.6-19,45.4-8.9
			c6.1,4.2,10.3,10.1,12.4,16.7c1.1,3.4,1.6,6.9,1.6,10.5"/>
		<path class="st9" d="M17.9,162.2c-3,1.9-5.7,4.4-8,7.2c-4.6,5.7-7.3,13-7.3,21c0,18.3,14.5,33.1,32.5,33.1
			c15.1,0,27.8-10.5,31.4-24.8"/>
		<path class="st9" d="M95.1,160.3c-1.1-9.7-9.3-17.1-19.3-17.1c-1.9,0-3.7,0.3-5.5,0.8c-0.1,0-0.2,0.1-0.4,0.1"/>
	</g>
</g>
<line class="st39" x1="131.7" y1="250.7" x2="131.7" y2="284.7"/>
<line class="st39" x1="131.7" y1="241.2" x2="131.7" y2="248.1"/>
<line class="st39" x1="128.3" y1="268.9" x2="128.3" y2="278.7"/>
<line class="st39" x1="263" y1="239.4" x2="263" y2="277.3"/>
<line class="st39" x1="265.7" y1="255.1" x2="265.7" y2="261.2"/>
<line class="st39" x1="265.7" y1="249.5" x2="265.7" y2="252.5"/>
<radialGradient id="SVGID_25_" cx="8214.5996" cy="179.6049" r="0" gradientTransform="matrix(-1 0 0 1 8260.2666 0)" gradientUnits="userSpaceOnUse">
	<stop  offset="0" style="stop-color:#F6F8FA"/>
	<stop  offset="5.862671e-02" style="stop-color:#F3F5F8"/>
	<stop  offset="0.4164" style="stop-color:#E2E7EE"/>
	<stop  offset="0.6869" style="stop-color:#DCE2EA"/>
</radialGradient>
<path class="st40" d="M45.7,179.6"/>
<path class="st41" d="M58.7,212.8c6.1,7.9,15.5,13,26.2,13c18.3,0,33.2-15.1,33.2-33.6s-14.9-33.6-33.2-33.6c-3.2,0-6.3,0.5-9.3,1.3
	"/>
<g>
	<g>
		
			<linearGradient id="SVGID_26_" gradientUnits="userSpaceOnUse" x1="-2800.1458" y1="8142.8633" x2="-2728.3716" y2="8142.3784" gradientTransform="matrix(0.283 0.9591 -0.9591 0.283 8784.4727 424.9055)">
			<stop  offset="0.1718" style="stop-color:#FFD672"/>
			<stop  offset="1" style="stop-color:#F3AD5F"/>
		</linearGradient>
		<path class="st42" d="M202.9,99.3c-4.3,4.4-22.6,6.1-27.1-2.3c0.3-1.4,2.6-5.1,3.3-6.7c1.5-3.2,2.6-6.6,3.2-10.2l0,0
			c-0.1,0-0.2,0-0.3,0c-1.3-0.2-2.5-0.5-3.6-1c-4.9-2.3-8.1-7.9-7.5-13.4c0.4-3.6,2.2-7.1,1.4-10.5c-0.3-1.3-0.9-2.5-0.6-3.7
			c0.3-1.3,1.7-2.1,2.6-3.1c0.4-0.4,0.8-0.8,1.1-1.3l0.5-0.7c0.1-0.1,0.1-0.2,0.2-0.3l3.5,1.1c-0.9,3-0.3,5.8,1.4,6.4
			c1.7,0.6,3.8-1.4,4.8-4.4l15.9,5.1l3.7-0.5c-0.4,0,3.4,3.7,3.1,3.9l0.4,5.1c0.6,1.7,0,1-1.1,2.5l-3.1,0.5c-0.5,0.6-0.8,1.1-1,1.8
			c-1,3.4-1.6,7-0.6,10.5c0.4,1.1,0.9,2.4,2,2.7C202.9,88.3,202.8,95.9,202.9,99.3z"/>
		<linearGradient id="SVGID_27_" gradientUnits="userSpaceOnUse" x1="184.6812" y1="45.6971" x2="279.1571" y2="45.0588">
			<stop  offset="0.1718" style="stop-color:#FFD672"/>
			<stop  offset="1" style="stop-color:#F3AD5F"/>
		</linearGradient>
		<path class="st43" d="M204,46l-0.1,0.2c-0.1,0.1-0.2,0.2-0.2,0.3c0,0,0,0,0,0c-0.2,0.2-0.4,0.4-0.5,0.7c-1.4,2.1-2,4.7-1.6,7.2v0
			l-0.5-0.2l-14.6-4.7l-0.5-0.2l-0.3-0.1c0,0,0,0,0-0.1c0.9-2.7,0.5-5.3-0.9-6.2c-0.2-0.1-0.3-0.2-0.5-0.3c-1.7-0.5-3.8,1.5-4.8,4.5
			c0,0,0,0,0,0.1l-3.5-1.1c0,0,0,0,0,0c1.3-2.2,2.1-4.8,3.5-6.9c0.5-0.8,1-1.4,1.7-2c0.1-0.1,0.2-0.2,0.3-0.3l0.1-0.1
			c0.3,0.2,0.6,0.3,0.9,0.4c0.4,0.2,0.9,0.4,1.4,0.6c0,0,0,0,0,0c3.4,1.5,7.2,2.3,11,2.5c0,0,0,0,0,0c0.7,0,1.4,0.1,2.1,0.1v0
			C198.6,42.7,201.2,44.6,204,46z"/>
	</g>
	<path class="st31" d="M182.6,55.5c2.6-0.2,3.9-5.1,3.4-6.1c-0.6,0.8-0.8,1.9-1.7,2.5c-0.8,0.7-1.5,1.8-2.6,1.9
		c-0.9,0-2.4-1.6-1.9-0.2C180.2,54.6,180.9,55.6,182.6,55.5z"/>
	<path class="st37" d="M180.3,47.6C180.3,47.6,180.3,47.6,180.3,47.6c1-3.1,3.1-5.1,4.8-4.5c1.7,0.5,2.3,3.4,1.3,6.4c0,0,0,0,0,0.1
		c-1,3-3.1,5-4.8,4.4C179.9,53.4,179.3,50.6,180.3,47.6z"/>
	<path class="st44" d="M185.7,49.3c-1,3-3.1,5-4.8,4.4c-1.7-0.5-2.3-3.4-1.4-6.4c0,0,0,0,0-0.1c1-3,3.1-5,4.8-4.5
		C186.1,43.3,186.7,46.2,185.7,49.3C185.7,49.2,185.7,49.3,185.7,49.3z"/>
	<path class="st31" d="M205.7,45.6c0,0.5-0.3,1-0.8,1.3c-0.1,0.1-0.1,0.1-0.2,0.1c-0.2,0.1-0.5,0.2-0.8,0.2c-0.3,0-0.5,0-0.8-0.1
		c-0.2,0-0.4-0.1-0.6-0.2c-0.4-0.1-0.8-0.3-1.1-0.6c-1.2-0.7-2.3-1.6-3.3-2.6c-0.7-0.7-1.5-1.5-2.4-1.9c-0.9-0.3-1.9-0.2-2.9-0.2
		c-2.2,0.1-4.4-0.6-6.4-1.7c-0.2-0.1-0.3-0.2-0.5-0.3c-0.3-0.2-0.6-0.4-0.9-0.7c-0.4-0.3-0.8-0.7-1.2-1c0,0,0,0,0,0
		c-0.2-0.2-0.4-0.4-0.5-0.7c-1.1-1.5,1.4-1.1,2.2-0.9c0.9,0.3,1.8,0.7,2.7,1c3.1,1.2,6.6,1.4,9.8,0.5c0.2,0.3,0.4,0.6,0.6,1
		c1.3,1.8,3,3.4,5,4.4c0.5,0.2,1,0.5,1.4,0.8C205.3,44.6,205.7,45,205.7,45.6z"/>
	<path class="st31" d="M174.1,54.6c0.2,0.1,0.4,0.3,0.6,0.5s0.3,0.5,0.2,0.7c-0.1,0.3-0.3,0.4-0.6,0.4c-0.5,0.1-1.3-0.1-1.9-0.3
		c-0.3-0.5-1.1-3.5-0.8-4.3c0.5,0,0.8,1.4,1.1,1.7C173.1,53.8,173.6,54.2,174.1,54.6z"/>
	<path class="st31" d="M182.2,80.2c0.4-0.1,5.3,0.7,10.7-3C191.4,78.5,183,83.5,182.2,80.2z"/>
	<path class="st31" d="M197.1,54.7c1.5,0.6,3.3,1.1,4.8,0.5c-4.5-2-9.2-3.6-14-4.8c-0.7-0.2-1.8,0.3-0.8,0.7c0.9,0.4,2,0.6,3,0.9
		C192.4,53,194.8,53.8,197.1,54.7z"/>
	<path class="st45" d="M179.5,47.3C179.5,47.3,179.5,47.3,179.5,47.3c1-3.1,3.1-5.1,4.8-4.5c1.7,0.5,2.3,3.4,1.3,6.4c0,0,0,0,0,0.1
		c-1,3-3.1,5-4.8,4.4C179.2,53.1,178.6,50.3,179.5,47.3z"/>
	<g>
		<path class="st31" d="M178.8,48.8c-0.2-0.1-0.5-0.2-0.7-0.3c-0.9-0.4-2-0.7-2.9-1.1c0,0-0.1,0-0.1-0.1l0.5-0.7c0.1,0,0.3,0,0.4,0
			c1,0.3,2,0.6,3,1C178.9,48.1,178.9,48.4,178.8,48.8z"/>
		<g>
			<path class="st37" d="M175.9,46C175.9,46,175.9,46,175.9,46c-1.2,3-3.5,4.8-5.1,4.1c-1.7-0.7-2.1-3.6-0.9-6.5
				c1.2-2.9,3.4-4.8,5.1-4.1C176.6,40.1,177,43,175.9,46z"/>
			<path class="st44" d="M175.1,46c-1.2,2.9-3.4,4.7-5.1,4.1c-1.7-0.7-2.1-3.6-0.9-6.5c1.2-2.9,3.4-4.8,5.1-4.1
				C175.8,40.1,176.2,43,175.1,46C175.1,46,175.1,46,175.1,46z"/>
			<path class="st46" d="M175.1,46C175.1,46,175.1,46,175.1,46c-1.2,3-3.5,4.8-5.1,4.1c-1.7-0.7-2.1-3.6-0.9-6.5
				c1.2-2.9,3.4-4.8,5.1-4.1C175.8,40.1,176.2,43,175.1,46z"/>
		</g>
		<polyline class="st45" points="175.1,46 175.9,46.4 179.3,47.7 		"/>
	</g>
	<polyline class="st45" points="185.7,49.3 201.6,54.4 203.6,55 	"/>
	
		<radialGradient id="SVGID_28_" cx="-2798.0225" cy="8099.2285" r="0" gradientTransform="matrix(0.283 0.9591 -0.9591 0.283 8784.4727 424.9055)" gradientUnits="userSpaceOnUse">
		<stop  offset="0.1464" style="stop-color:#1B375F"/>
		<stop  offset="1" style="stop-color:#24497E"/>
	</radialGradient>
	<path class="st47" d="M224.5,33.8"/>
	<path class="st37" d="M221.9,48.4c-0.1,0.1-0.3,0.2-0.4,0.3c-1.4,0.8-3.1,0.8-4.5,0.2c-3.4,0.8-7.9,0.1-12.2-1.9
		c-0.3-0.2-0.6-0.3-1-0.5c0,0,0,0-0.1,0c-0.1-0.1-0.2-0.1-0.3-0.2c-2.8-1.4-5.1-3.2-6.7-5.1c-1.8,0-3.5-0.1-5.2-0.4
		c-2.2-0.3-4.3-0.9-6.3-1.6c-1-0.3-1.9-0.8-2.9-1.2c-0.3-0.2-0.6-0.3-0.9-0.5c-0.1,0-0.1-0.1-0.1-0.1c0.1-0.1,0.2-0.2,0.3-0.3
		l0.1-0.1c0.3,0.2,0.6,0.3,0.9,0.4c0.4,0.2,0.9,0.4,1.4,0.6c-0.2-0.2-0.4-0.4-0.5-0.7c-1.1-1.5,1.4-1.1,2.2-0.9
		c0.9,0.3,1.8,0.7,2.7,1c3.1,1.2,6.6,1.4,9.8,0.5c0.2,0.3,0.4,0.6,0.6,1c1.3,1.8,3,3.4,5,4.4c0.5,0.2,1,0.5,1.4,0.8
		c0.4,0.3,0.7,0.8,0.7,1.4s-0.3,1-0.8,1.3c3.5,1.2,9,2.2,12.1,1.4c1.3,0.6,2.8,0.5,4,0c0.1-0.2,0.2-0.3,0.4-0.3
		C221.6,48,221.8,48.1,221.9,48.4z"/>
	<path class="st31" d="M201.8,76.2c0,0-2.9,27.4-14.3,26.7c0,0,10.6,0.9,15.5-3.6c0,0-0.3-10.6,1.9-18.1c2.2-7.4,2.2-7.4,2.2-7.4
		L201.8,76.2z"/>
	<path class="st37" d="M221.9,48.4c-0.1-0.2-0.3-0.4-0.5-0.4c-0.2,0-0.4,0.1-0.4,0.3c-1.2,0.5-2.7,0.6-4,0
		c-3.1,0.8-8.6-0.3-12.1-1.4c-0.4-0.1-0.8-0.3-1.2-0.4c-0.1-0.1-0.2-0.1-0.3-0.2c-0.1,0-0.1-0.1-0.2-0.1c-0.2,0.2-0.4,0.5-0.6,0.7
		c-1.5,2.1-2,4.5-1.5,7.2c0,0,0,0,0,0c0,0.1,0,0.2,0,0.3c0,0.2,0.1,0.3,0.1,0.4c0,0.2,0.1,0.3,0.1,0.5c0,0.1,0.1,0.2,0.1,0.3
		c0,0,0,0,0,0.1c-0.3,0.4-0.5,0.8-0.6,1.2c-0.1,0.2,0,0.3,0.2,0.4c0.2,0.1,0.3,0,0.4-0.2v0c0.5-1.2,2-1.8,3.2-1.6
		c1.2,0.3,2.2,1.4,2.6,2.6c0.4,1.2,0.2,2.7-0.4,3.9c-0.5,1.3-1.6,2.2-2.7,3.4c-0.2,0.3-0.5,0.6-0.7,1c-0.2,0.3-0.4,0.8-0.4,1.2
		c-0.2,0.7-0.4,1.5-0.6,2.2c-0.3,1.5-0.5,3-0.5,4.6c0,0.6,0,1.1,0.1,1.7c0.1,1,0.3,1.9,0.7,2.9c0.3,0.8,0.8,1.5,1.6,2.1
		c0.2,0.1,0.3,0.2,0.5,0.2c0,0,0,0.1,0.1,0c0.7,0.3,1.5,0.2,2.2-0.1c0.9-0.4,1.4-1.1,1.9-1.7c0.5-0.7,0.9-1.3,1.2-2
		c0.7-1.4,1.2-2.8,1.7-4.2c1-2.8,2.5-5.3,4-7.9c1.5-2.6,3-5.2,4.2-8c1.2-2.8,1.9-5.8,1.8-8.9C221.9,48.5,221.9,48.4,221.9,48.4z"/>
	
		<ellipse transform="matrix(0.1938 -0.9811 0.9811 0.1938 77.4421 221.2928)" class="st44" cx="173.4" cy="63.5" rx="1.6" ry="0.8"/>
</g>
<path class="st15" d="M176.9,98.7c-0.2,1.1,9.6,11,29.7,2.4l-0.2-7.7l-3.4,0c0,0-0.1,4.9-0.1,5.9
	C198.2,103.8,182.6,104.9,176.9,98.7z"/>
<path class="st39" d="M157.8,229.1c12.4,15.8,50,13.8,73,1.5"/>
<path class="st39" d="M217.9,235.5c-4.8,30.2-3.2,64,1.6,94.2c4.5,28.3,11.8,56.1,19.3,83.8"/>
<path class="st39" d="M220.4,414.7c2.7,1,5.4,1.9,8.3,2.1c3.3,0.2,6.7-0.5,9.4-2.5c1.2-0.9,2.6-2.9,3.3-4.2"/>
<radialGradient id="SVGID_29_" cx="102.9144" cy="377.2798" r="31.7548" gradientUnits="userSpaceOnUse">
	<stop  offset="0" style="stop-color:#F6F8FA"/>
	<stop  offset="6.995250e-02" style="stop-color:#F3F5F8"/>
	<stop  offset="0.4968" style="stop-color:#E2E7EE"/>
	<stop  offset="0.8197" style="stop-color:#DCE2EA"/>
</radialGradient>
<rect x="85.6" y="353.4" class="st48" width="24.6" height="24.6"/>
<rect x="108.7" y="376.5" class="st49" width="8.2" height="8.2"/>
<path class="st2" d="M233.5,274.7c0,0-2,9.5,2.4,12.8C235.8,287.5,238,281.4,233.5,274.7z"/>
<path class="st2" d="M248.3,242.7c0,0-1.3,4.8,1.5,8.2C249.8,250.9,251.8,247.8,248.3,242.7z"/>
<g>
	<g id="XMLID_6_">
		<g>
			<path class="st44" d="M335.3,147.5c-3.9,3-8.3,5.2-13.1,6.1c-8.6,1.5-18.4-2.3-22-10.2c-2.4-5.2-1.8-11.5,0.7-16.6
				c4.6-9.6,15.9-15.6,26.5-13.9l0.5,0c1.8-7.9,6.6-15.1,13.7-19.1c8.7-4.9,20.4-4.2,27.9,2.4c2.6,2.3,4.5,5.4,5.7,8.8
				c8.1-1.9,17.1,3.6,19.3,11.6c2.2,8-3,17.3-10.9,19.8l-0.5-0.2c-3.1,6.8-8.7,12.5-15.6,15.5c-9.8,4.3-21.9,2.9-30.5-3.6
				L335.3,147.5z"/>
		</g>
		<g>
			<path class="st50" d="M327.3,112.8c-10.6-1.6-21.8,4.3-26.5,13.9c-2.5,5.2-3.1,11.4-0.7,16.6c3.6,7.9,13.4,11.7,22,10.2
				c4.8-0.9,9.2-3.1,13.1-6.1c3-2.3,5.7-5.1,8.1-8.1"/>
			<path class="st50" d="M336.8,147.9c8.6,6.5,20.7,7.9,30.5,3.6c6.9-3,12.5-8.7,15.6-15.5c1.4-2.9,2.3-6.1,2.6-9.3"/>
			<path class="st50" d="M327.1,118.4c0.1-1.9,0.3-3.7,0.7-5.6c1.8-7.9,6.6-15.1,13.7-19.1c8.7-4.9,20.4-4.2,27.9,2.4
				c2.6,2.3,4.5,5.4,5.7,8.8c2.1,6.1,1.5,13.1-2.3,18.3"/>
			<path class="st50" d="M374.9,104.9c0,0,0.1,0,0.1,0c8.1-1.9,17.1,3.6,19.3,11.6c2.2,8-3,17.3-10.9,19.8"/>
		</g>
	</g>
</g>
<path class="st39" d="M91.8,25c16.4,20.5,36.4,37.9,58.9,51.3"/>
<path class="st39" d="M100.5,26.5c2.8,2.9,5.6,5.8,8.4,8.7"/>
<path class="st51" d="M83.2,33.8c15.5,23.8,36.8,43.7,61.5,57.7"/>
<path class="st51" d="M132.4,87.5c1.9,1.3,3.7,2.6,5.6,3.9"/>
<path class="st51" d="M220.5,99.3c12.9,7.8,23.9,18.8,31.6,31.8"/>
<path class="st51" d="M125.6,291.1c-3.9,4.7-4.4,11.6-2.4,17.3s6.3,10.5,11.2,14.1c4.9,3.6,10.4,6.3,15.8,9.2
	c12.4,6.6,24.3,14.1,35.6,22.4"/>
<path class="st51" d="M182.3,255.6c4.9,30.6,14.1,60.6,27.4,88.6"/>
<path class="st51" d="M189.9,283.8c1,3.5,2,7,3,10.5"/>
<path class="st31" d="M66.3,10.1c0,0,1.9,3.8,0.6,5.8s-2.2,2.2-2.5,4.6c-1-0.7,0.5-5.3,0.1-5.6c-0.7,2.1-2.1,2.1-3.2,1.6
	c-0.6,2.1-2.5,1.6-2.9,1c2.5,0.8,2.2-1.5,1.8-2.7c1.4,2.4,3.2,1,3.2,1s0.9-0.7,0.3-2.7c1.1,1.4,1.9,1.2,2.4,0.8
	C67.4,13.2,66.3,10.1,66.3,10.1z"/>
<path class="st31" d="M64.9,4.5c0,0,0.3-1.4-0.4-1.8c0,0,2.9,0.9,5.6,4.3C70.1,7,68.3,4.9,64.9,4.5z"/>
</svg>
