<svg id="Layer_1" data-name="Layer 1" xmlns="http://www.w3.org/2000/svg" viewBox="0 0 578 578"><defs><style>.cls-1{fill:#2cb960;}.cls-2{fill:#fff;}</style></defs><circle class="cls-1" cx="289" cy="289" r="289"/><path class="cls-2" d="M461.11,229.52a21.33,21.33,0,0,0-18.34,10.66H418.45a10.67,10.67,0,0,0-8.32,4.06l-31.26,39L343,193.57a10.69,10.69,0,0,0-20.37,1.6L291.94,333.62l-33.6-201.81a10.74,10.74,0,0,0-9.6-8.85,10.34,10.34,0,0,0-11,7.14L173.43,314l-32.74-98.35A10.66,10.66,0,0,0,123,211.49L83.41,250.85H74.13a21.34,21.34,0,1,0,0,21.33H87.78a11,11,0,0,0,7.57-3.09l30.51-30.51,37.23,111.58a10.53,10.53,0,0,0,10,7.25,10.88,10.88,0,0,0,10.14-7.15l60.9-174.08L280,391.12a10.83,10.83,0,0,0,10.24,9h.32A10.73,10.73,0,0,0,301,391.76l35.2-158.3L366.07,308a10.66,10.66,0,0,0,8.32,6.62,10.92,10.92,0,0,0,9.92-3.84l39.47-49.39H443a21.26,21.26,0,1,0,18.13-31.89Z" transform="translate(30.45 27.52)"/></svg>