<svg width="77" height="72" viewBox="0 0 77 72" fill="none" xmlns="http://www.w3.org/2000/svg">
<path d="M36.8744 25.5682C36.743 25.5682 36.6141 25.5046 36.5358 25.3871C36.4113 25.2003 36.4618 24.9478 36.6486 24.8232L40.7135 22.1124C40.9003 21.988 41.1528 22.0384 41.2772 22.2252C41.4018 22.4119 41.3512 22.6645 41.1645 22.789L37.0995 25.4999C37.0303 25.5461 36.9519 25.5682 36.8744 25.5682Z" fill="url(#paint0_linear)"/>
<path d="M36.0613 28.279C35.9266 28.279 35.7949 28.2121 35.7174 28.0898C35.5973 27.9002 35.6537 27.6489 35.8434 27.5287L39.9084 24.9534C40.0982 24.8331 40.3492 24.8897 40.4694 25.0794C40.5894 25.269 40.533 25.5203 40.3433 25.6406L36.2783 28.2159C36.2109 28.2587 36.1357 28.279 36.0613 28.279Z" fill="url(#paint1_linear)"/>
<path d="M53.1591 66.6059L53.159 66.6058C52.9972 66.3106 53.1052 65.9398 53.4006 65.7777C63.5748 60.1975 69.8942 49.6235 69.8942 38.1833C69.8942 20.8699 55.8105 6.7841 38.4998 6.7841C21.1891 6.7841 7.10541 20.8699 7.10541 38.1833C7.10541 49.9029 13.6055 60.5354 24.0703 65.9322C24.3698 66.0866 24.4872 66.4544 24.333 66.7538L24.3329 66.7539C24.2247 66.9637 24.0113 67.0843 23.7906 67.0843C23.6964 67.0843 23.6007 67.0625 23.5113 67.0162M53.1591 66.6059L53.9872 66.8474C64.5509 61.0535 71.1142 50.0704 71.1142 38.1832C71.1142 20.1967 56.4837 5.56396 38.5 5.56396C20.5163 5.56396 5.88574 20.1967 5.88574 38.1832C5.88574 50.3613 12.6399 61.4097 23.5113 67.0162M53.1591 66.6059C53.3211 66.901 53.6918 67.0095 53.9871 66.8474L53.1591 66.6059ZM23.5113 67.0162C23.5112 67.0161 23.5112 67.0161 23.5111 67.0161L23.5687 66.9051M23.5113 67.0162C23.5113 67.0162 23.5113 67.0162 23.5114 67.0162L23.5687 66.9051M23.5687 66.9051C23.6398 66.942 23.7158 66.9593 23.7906 66.9593C23.9663 66.9593 24.1359 66.8632 24.2218 66.6966L70.9892 38.1832C70.9892 20.2658 56.4146 5.68896 38.5 5.68896C20.5853 5.68896 6.01074 20.2658 6.01074 38.1832C6.01074 50.3143 12.7386 61.32 23.5687 66.9051Z" fill="url(#paint2_linear)" stroke="url(#paint3_linear)" stroke-width="0.25"/>
<path d="M57.2301 71.0441L57.2302 71.0441C68.8849 64.3586 76.1251 51.891 76.1251 38.5056C76.1251 38.1687 75.852 37.8956 75.5152 37.8956C75.1783 37.8956 74.9052 38.1687 74.9052 38.5056C74.9052 51.4544 67.9002 63.5172 56.6234 69.9856C56.3313 70.1532 56.2303 70.526 56.3978 70.8182C56.5105 71.0149 56.7162 71.125 56.9273 71.125C57.0304 71.125 57.1348 71.0986 57.2301 71.0441Z" fill="url(#paint4_linear)" stroke="url(#paint5_linear)" stroke-width="0.25"/>
<path d="M0.875 38.5057C0.875 38.8426 1.14803 39.1157 1.48491 39.1157C1.8218 39.1157 2.09483 38.8426 2.09483 38.5057C2.09483 18.4288 18.4262 2.09498 38.5 2.09498C38.8367 2.09498 39.1099 1.82191 39.1099 1.48499C39.1099 1.1481 38.8369 0.875 38.5 0.875C28.4696 0.875 19.0312 4.7779 11.9245 11.8641C4.79918 18.9691 0.875 28.4309 0.875 38.5057Z" fill="url(#paint6_linear)" stroke="url(#paint7_linear)" stroke-width="0.25"/>
<path d="M25.4954 35.0725C24.8017 35.0725 24.1235 35.2782 23.5467 35.6637C22.9699 36.0492 22.5203 36.5971 22.2548 37.2381C21.9894 37.8791 21.9199 38.5845 22.0552 39.265C22.1906 39.9455 22.5246 40.5706 23.0152 41.0612C23.5057 41.5518 24.1307 41.886 24.8111 42.0213C25.4915 42.1567 26.1968 42.0872 26.8377 41.8217C27.4787 41.5562 28.0265 41.1065 28.4119 40.5296C28.7973 39.9527 29.003 39.2745 29.003 38.5806C29.003 38.1199 28.9123 37.6637 28.736 37.2381C28.5597 36.8125 28.3014 36.4258 27.9757 36.1C27.65 35.7742 27.2633 35.5158 26.8377 35.3395C26.4122 35.1632 25.9561 35.0725 25.4954 35.0725ZM25.4954 40.9048C25.0256 40.9048 24.5663 40.7655 24.1757 40.5044C23.785 40.2434 23.4806 39.8723 23.3008 39.4382C23.121 39.0041 23.0739 38.5264 23.1656 38.0655C23.2573 37.6046 23.4835 37.1813 23.8157 36.849C24.1479 36.5168 24.5712 36.2905 25.032 36.1988C25.4928 36.1071 25.9704 36.1542 26.4045 36.334C26.8385 36.5138 27.2095 36.8183 27.4706 37.209C27.7316 37.5998 27.8709 38.0591 27.8709 38.529C27.8709 38.841 27.8095 39.1499 27.6901 39.4382C27.5707 39.7264 27.3957 39.9884 27.1751 40.209C26.9546 40.4296 26.6927 40.6046 26.4045 40.724C26.1163 40.8434 25.8074 40.9048 25.4954 40.9048Z" fill="url(#paint8_linear)" stroke="url(#paint9_linear)" stroke-width="0.1"/>
<path d="M51.5047 35.0725C50.811 35.0725 50.1328 35.2782 49.556 35.6637C48.9792 36.0492 48.5296 36.5971 48.2641 37.2381C47.9986 37.8791 47.9292 38.5845 48.0645 39.265C48.1999 39.9455 48.5339 40.5706 49.0245 41.0612C49.515 41.5518 50.14 41.886 50.8204 42.0213C51.5008 42.1567 52.2061 42.0872 52.847 41.8217C53.4879 41.5562 54.0357 41.1065 54.4212 40.5296C54.8066 39.9527 55.0123 39.2745 55.0123 38.5806C55.0123 38.1199 54.9216 37.6637 54.7453 37.2381C54.569 36.8125 54.3107 36.4258 53.9849 36.1C53.6592 35.7742 53.2726 35.5158 52.847 35.3395C52.4214 35.1632 51.9653 35.0725 51.5047 35.0725ZM51.5047 40.9048C51.0349 40.9048 50.5756 40.7655 50.185 40.5044C49.7943 40.2434 49.4899 39.8723 49.3101 39.4382C49.1303 39.0041 49.0832 38.5264 49.1749 38.0655C49.2665 37.6046 49.4928 37.1813 49.825 36.849C50.1572 36.5168 50.5805 36.2905 51.0413 36.1988C51.5021 36.1071 51.9797 36.1542 52.4138 36.334C52.8478 36.5138 53.2188 36.8183 53.4798 37.209C53.7409 37.5998 53.8802 38.0591 53.8802 38.529C53.8802 38.841 53.8187 39.1499 53.6994 39.4382C53.58 39.7264 53.405 39.9884 53.1844 40.209C52.9638 40.4296 52.702 40.6046 52.4138 40.724C52.1256 40.8434 51.8167 40.9048 51.5047 40.9048Z" fill="url(#paint10_linear)" stroke="url(#paint11_linear)" stroke-width="0.1"/>
<path d="M43.0415 37.9629H33.9589C33.8088 37.9629 33.6648 38.0225 33.5587 38.1287C33.4525 38.2349 33.3929 38.3789 33.3929 38.5291C33.3929 38.6793 33.4525 38.8233 33.5587 38.9295C33.6648 39.0357 33.8088 39.0953 33.9589 39.0953H43.0415C43.1917 39.0953 43.3357 39.0357 43.4418 38.9295C43.548 38.8233 43.6076 38.6793 43.6076 38.5291C43.6076 38.3789 43.548 38.2349 43.4418 38.1287C43.3357 38.0225 43.1917 37.9629 43.0415 37.9629Z" fill="url(#paint12_linear)" stroke="url(#paint13_linear)" stroke-width="0.1"/>
<path d="M48.718 19.2772H28.0757C27.5454 19.2774 27.0281 19.4411 26.5941 19.7458C26.1601 20.0506 25.8305 20.4817 25.6502 20.9805L48.718 19.2772ZM48.718 19.2772C49.2216 19.2755 49.7147 19.4211 50.1365 19.6963C50.5583 19.9714 50.8904 20.364 51.0919 20.8256L48.718 19.2772ZM16.7224 32.6419H18.2255C17.8141 33.0516 17.4809 33.5339 17.2431 34.0651C16.9706 34.6737 16.8295 35.333 16.8289 35.9999V36V52.2067C16.8289 52.6439 17.0025 53.0632 17.3116 53.3723C17.6207 53.6815 18.0399 53.8551 18.477 53.8551H24.0505C24.4876 53.8551 24.9068 53.6815 25.2159 53.3723C25.525 53.0632 25.6986 52.6439 25.6986 52.2067V46.8873H51.3015V52.2067C51.3015 52.6439 51.4751 53.0632 51.7842 53.3723C52.0933 53.6815 52.5125 53.8551 52.9497 53.8551H58.5231C58.9602 53.8551 59.3794 53.6815 59.6885 53.3723C59.9976 53.0632 60.1713 52.6439 60.1713 52.2067L60.1713 35.7936L60.1713 35.7933C60.1677 34.6273 59.7351 33.5064 58.9609 32.6419H60.2777C60.8517 32.6419 61.4022 32.4139 61.808 32.0079C62.2139 31.602 62.4419 31.0514 62.4419 30.4774V28.9806C62.4419 28.4065 62.2139 27.8559 61.808 27.45C61.4022 27.0441 60.8517 26.816 60.2777 26.816H54.9757L52.1124 20.3727C52.1124 20.3726 52.1124 20.3725 52.1123 20.3725C51.8239 19.7117 51.3494 19.1492 50.7468 18.7537C50.144 18.3581 49.4392 18.1465 48.7182 18.1449H48.718L28.0757 18.1449L28.0755 18.1449C27.3057 18.1462 26.5552 18.3868 25.9281 18.8334C25.3011 19.28 24.8284 19.9105 24.5754 20.6375C24.5754 20.6377 24.5753 20.6378 24.5753 20.6379L22.3801 26.816H16.7224C16.1484 26.816 15.598 27.0441 15.1921 27.45C14.7862 27.8559 14.5582 28.4065 14.5582 28.9806V30.4774C14.5582 31.0514 14.7862 31.602 15.1921 32.0079C15.598 32.4139 16.1484 32.6419 16.7224 32.6419ZM56.6105 30.4258V30.4048L56.6021 30.3857L55.5796 28.0483H60.2777C60.5249 28.0483 60.762 28.1465 60.9368 28.3214C61.1116 28.4962 61.2098 28.7333 61.2098 28.9806V30.4774C61.2098 30.7246 61.1116 30.9618 60.9368 31.1366C60.762 31.3114 60.5249 31.4096 60.2777 31.4096H57.6312L56.6105 30.5346V30.4258ZM22.5408 30.0161L25.7443 21.0145C25.7443 21.0144 25.7443 21.0143 25.7444 21.0142C25.9177 20.5349 26.2345 20.1206 26.6516 19.8277C27.0687 19.5347 27.566 19.3774 28.0757 19.3772C28.0757 19.3772 28.0757 19.3772 28.0757 19.3772L48.718 19.3772L48.7184 19.3772C49.2024 19.3755 49.6764 19.5155 50.0819 19.78C50.4874 20.0445 50.8066 20.4219 51.0002 20.8656L51.0005 20.8662L55.0665 30.0161H22.5408ZM16.774 31.358V31.3579L16.7689 31.3582C16.6465 31.3644 16.524 31.3465 16.4085 31.3054C16.293 31.2642 16.1868 31.2007 16.0958 31.1184L16.0287 31.1926L16.0958 31.1184C16.0049 31.0362 15.9311 30.9368 15.8787 30.8259C15.8266 30.7158 15.7966 30.5965 15.7903 30.4749V28.9806C15.7903 28.7333 15.8885 28.4962 16.0633 28.3214C16.2381 28.1465 16.4752 28.0483 16.7224 28.0483H21.9489L21.1279 30.4151L19.8377 31.358H16.774ZM58.9392 35.7932V35.7936V45.655H18.061L18.061 36L18.061 35.9997C18.0589 35.4415 18.1898 34.8909 18.4428 34.3935C18.6959 33.896 19.0638 33.466 19.5161 33.1391L19.5163 33.139L22.1219 31.2483H55.5445L57.7349 33.1334C57.735 33.1335 57.7351 33.1336 57.7352 33.1337C58.1147 33.4647 58.4187 33.8735 58.6264 34.3323C58.8342 34.7912 58.9409 35.2895 58.9392 35.7932ZM24.4665 52.2067C24.4665 52.3171 24.4227 52.4229 24.3446 52.501C24.2666 52.579 24.1608 52.6229 24.0505 52.6229H18.477C18.3667 52.6229 18.2609 52.579 18.1828 52.501C18.1048 52.4229 18.061 52.3171 18.061 52.2067V46.8873H24.4665V52.2067ZM58.5231 52.6229H52.9497C52.8393 52.6229 52.7335 52.579 52.6555 52.501C52.5775 52.4229 52.5336 52.3171 52.5336 52.2067V46.8873H58.9392V52.2067C58.9392 52.3171 58.8953 52.4229 58.8173 52.501C58.7393 52.579 58.6334 52.6229 58.5231 52.6229Z" fill="url(#paint14_linear)" stroke="url(#paint15_linear)" stroke-width="0.2"/>
<defs>
<linearGradient id="paint0_linear" x1="38.7189" y1="28.8746" x2="39.0345" y2="19.4667" gradientUnits="userSpaceOnUse">
<stop stop-color="#F3B341"/>
<stop offset="0.00561523" stop-color="#F3B341"/>
<stop offset="0.1991" stop-color="#EB8740"/>
<stop offset="0.33" stop-color="#E7663E"/>
<stop offset="0.66" stop-color="#DF3661"/>
<stop offset="0.7322" stop-color="#D33768"/>
<stop offset="0.8742" stop-color="#B4387A"/>
<stop offset="1" stop-color="#943A8C"/>
</linearGradient>
<linearGradient id="paint1_linear" x1="37.9058" y1="31.4586" x2="38.1976" y2="22.4109" gradientUnits="userSpaceOnUse">
<stop stop-color="#F3B341"/>
<stop offset="0.00561523" stop-color="#F3B341"/>
<stop offset="0.1991" stop-color="#EB8740"/>
<stop offset="0.33" stop-color="#E7663E"/>
<stop offset="0.66" stop-color="#DF3661"/>
<stop offset="0.7322" stop-color="#D33768"/>
<stop offset="0.8742" stop-color="#B4387A"/>
<stop offset="1" stop-color="#943A8C"/>
</linearGradient>
<linearGradient id="paint2_linear" x1="36.0013" y1="124.446" x2="43.1553" y2="-38.9938" gradientUnits="userSpaceOnUse">
<stop stop-color="#F3B341"/>
<stop offset="0.00561523" stop-color="#F3B341"/>
<stop offset="0.1991" stop-color="#EB8740"/>
<stop offset="0.33" stop-color="#E7663E"/>
<stop offset="0.66" stop-color="#DF3661"/>
<stop offset="0.7322" stop-color="#D33768"/>
<stop offset="0.8742" stop-color="#B4387A"/>
<stop offset="1" stop-color="#943A8C"/>
</linearGradient>
<linearGradient id="paint3_linear" x1="36.0013" y1="124.446" x2="43.1553" y2="-38.9938" gradientUnits="userSpaceOnUse">
<stop stop-color="#F3B341"/>
<stop offset="0.00561523" stop-color="#F3B341"/>
<stop offset="0.1991" stop-color="#EB8740"/>
<stop offset="0.33" stop-color="#E7663E"/>
<stop offset="0.66" stop-color="#DF3661"/>
<stop offset="0.7322" stop-color="#D33768"/>
<stop offset="0.8742" stop-color="#B4387A"/>
<stop offset="1" stop-color="#943A8C"/>
</linearGradient>
<linearGradient id="paint4_linear" x1="65.4689" y1="101.943" x2="72.3262" y2="14.3379" gradientUnits="userSpaceOnUse">
<stop stop-color="#F3B341"/>
<stop offset="0.00561523" stop-color="#F3B341"/>
<stop offset="0.1991" stop-color="#EB8740"/>
<stop offset="0.33" stop-color="#E7663E"/>
<stop offset="0.66" stop-color="#DF3661"/>
<stop offset="0.7322" stop-color="#D33768"/>
<stop offset="0.8742" stop-color="#B4387A"/>
<stop offset="1" stop-color="#943A8C"/>
</linearGradient>
<linearGradient id="paint5_linear" x1="65.4689" y1="101.943" x2="72.3262" y2="14.3379" gradientUnits="userSpaceOnUse">
<stop stop-color="#F3B341"/>
<stop offset="0.00561523" stop-color="#F3B341"/>
<stop offset="0.1991" stop-color="#EB8740"/>
<stop offset="0.33" stop-color="#E7663E"/>
<stop offset="0.66" stop-color="#DF3661"/>
<stop offset="0.7322" stop-color="#D33768"/>
<stop offset="0.8742" stop-color="#B4387A"/>
<stop offset="1" stop-color="#943A8C"/>
</linearGradient>
<linearGradient id="paint6_linear" x1="18.5318" y1="74.6354" x2="23.2357" y2="-26.6814" gradientUnits="userSpaceOnUse">
<stop stop-color="#F3B341"/>
<stop offset="0.00561523" stop-color="#F3B341"/>
<stop offset="0.1991" stop-color="#EB8740"/>
<stop offset="0.33" stop-color="#E7663E"/>
<stop offset="0.66" stop-color="#DF3661"/>
<stop offset="0.7322" stop-color="#D33768"/>
<stop offset="0.8742" stop-color="#B4387A"/>
<stop offset="1" stop-color="#943A8C"/>
</linearGradient>
<linearGradient id="paint7_linear" x1="18.5318" y1="74.6354" x2="23.2357" y2="-26.6814" gradientUnits="userSpaceOnUse">
<stop stop-color="#F3B341"/>
<stop offset="0.00561523" stop-color="#F3B341"/>
<stop offset="0.1991" stop-color="#EB8740"/>
<stop offset="0.33" stop-color="#E7663E"/>
<stop offset="0.66" stop-color="#DF3661"/>
<stop offset="0.7322" stop-color="#D33768"/>
<stop offset="0.8742" stop-color="#B4387A"/>
<stop offset="1" stop-color="#943A8C"/>
</linearGradient>
<linearGradient id="paint8_linear" x1="25.2295" y1="48.5279" x2="26.0859" y2="30.0831" gradientUnits="userSpaceOnUse">
<stop stop-color="#F3B341"/>
<stop offset="0.00561523" stop-color="#F3B341"/>
<stop offset="0.1991" stop-color="#EB8740"/>
<stop offset="0.33" stop-color="#E7663E"/>
<stop offset="0.66" stop-color="#DF3661"/>
<stop offset="0.7322" stop-color="#D33768"/>
<stop offset="0.8742" stop-color="#B4387A"/>
<stop offset="1" stop-color="#943A8C"/>
</linearGradient>
<linearGradient id="paint9_linear" x1="25.2295" y1="48.5279" x2="26.0859" y2="30.0831" gradientUnits="userSpaceOnUse">
<stop stop-color="#F3B341"/>
<stop offset="0.00561523" stop-color="#F3B341"/>
<stop offset="0.1991" stop-color="#EB8740"/>
<stop offset="0.33" stop-color="#E7663E"/>
<stop offset="0.66" stop-color="#DF3661"/>
<stop offset="0.7322" stop-color="#D33768"/>
<stop offset="0.8742" stop-color="#B4387A"/>
<stop offset="1" stop-color="#943A8C"/>
</linearGradient>
<linearGradient id="paint10_linear" x1="51.2388" y1="48.5279" x2="52.0951" y2="30.0831" gradientUnits="userSpaceOnUse">
<stop stop-color="#F3B341"/>
<stop offset="0.00561523" stop-color="#F3B341"/>
<stop offset="0.1991" stop-color="#EB8740"/>
<stop offset="0.33" stop-color="#E7663E"/>
<stop offset="0.66" stop-color="#DF3661"/>
<stop offset="0.7322" stop-color="#D33768"/>
<stop offset="0.8742" stop-color="#B4387A"/>
<stop offset="1" stop-color="#943A8C"/>
</linearGradient>
<linearGradient id="paint11_linear" x1="51.2388" y1="48.5279" x2="52.0951" y2="30.0831" gradientUnits="userSpaceOnUse">
<stop stop-color="#F3B341"/>
<stop offset="0.00561523" stop-color="#F3B341"/>
<stop offset="0.1991" stop-color="#EB8740"/>
<stop offset="0.33" stop-color="#E7663E"/>
<stop offset="0.66" stop-color="#DF3661"/>
<stop offset="0.7322" stop-color="#D33768"/>
<stop offset="0.8742" stop-color="#B4387A"/>
<stop offset="1" stop-color="#943A8C"/>
</linearGradient>
<linearGradient id="paint12_linear" x1="38.1113" y1="40.014" x2="38.1244" y2="37.2547" gradientUnits="userSpaceOnUse">
<stop stop-color="#F3B341"/>
<stop offset="0.00561523" stop-color="#F3B341"/>
<stop offset="0.1991" stop-color="#EB8740"/>
<stop offset="0.33" stop-color="#E7663E"/>
<stop offset="0.66" stop-color="#DF3661"/>
<stop offset="0.7322" stop-color="#D33768"/>
<stop offset="0.8742" stop-color="#B4387A"/>
<stop offset="1" stop-color="#943A8C"/>
</linearGradient>
<linearGradient id="paint13_linear" x1="38.1113" y1="40.014" x2="38.1244" y2="37.2547" gradientUnits="userSpaceOnUse">
<stop stop-color="#F3B341"/>
<stop offset="0.00561523" stop-color="#F3B341"/>
<stop offset="0.1991" stop-color="#EB8740"/>
<stop offset="0.33" stop-color="#E7663E"/>
<stop offset="0.66" stop-color="#DF3661"/>
<stop offset="0.7322" stop-color="#D33768"/>
<stop offset="0.8742" stop-color="#B4387A"/>
<stop offset="1" stop-color="#943A8C"/>
</linearGradient>
<linearGradient id="paint14_linear" x1="36.6664" y1="87.0725" x2="39.9434" y2="-7.71989" gradientUnits="userSpaceOnUse">
<stop stop-color="#F3B341"/>
<stop offset="0.00561523" stop-color="#F3B341"/>
<stop offset="0.1991" stop-color="#EB8740"/>
<stop offset="0.33" stop-color="#E7663E"/>
<stop offset="0.66" stop-color="#DF3661"/>
<stop offset="0.7322" stop-color="#D33768"/>
<stop offset="0.8742" stop-color="#B4387A"/>
<stop offset="1" stop-color="#943A8C"/>
</linearGradient>
<linearGradient id="paint15_linear" x1="36.6664" y1="87.0725" x2="39.9434" y2="-7.71989" gradientUnits="userSpaceOnUse">
<stop stop-color="#F3B341"/>
<stop offset="0.00561523" stop-color="#F3B341"/>
<stop offset="0.1991" stop-color="#EB8740"/>
<stop offset="0.33" stop-color="#E7663E"/>
<stop offset="0.66" stop-color="#DF3661"/>
<stop offset="0.7322" stop-color="#D33768"/>
<stop offset="0.8742" stop-color="#B4387A"/>
<stop offset="1" stop-color="#943A8C"/>
</linearGradient>
</defs>
</svg>
