<svg width="77" height="72" viewBox="0 0 77 72" fill="none" xmlns="http://www.w3.org/2000/svg">
<mask id="path-1-outside-1" maskUnits="userSpaceOnUse" x="0" y="0" width="77" height="72" fill="black">
<rect fill="white" width="77" height="72"/>
<path fill-rule="evenodd" clip-rule="evenodd" d="M75.9999 38.5057C75.9999 38.7736 75.7829 38.9907 75.515 38.9907C75.2472 38.9907 75.0301 38.7736 75.0301 38.5057C75.0301 18.3598 58.6428 1.96998 38.4999 1.96998C38.2323 1.96998 38.015 1.75286 38.015 1.48499C38.015 1.21711 38.2321 1 38.4999 1C48.4973 1 57.9039 4.88977 64.9872 11.9526C72.089 19.0341 75.9999 28.4641 75.9999 38.5057ZM53.4313 66.9051C53.3602 66.942 53.2842 66.9593 53.2094 66.9593C53.0337 66.9593 52.8641 66.8632 52.7781 66.6966C52.6555 66.4584 52.7489 66.166 52.987 66.0433C63.4931 60.6252 70.0196 49.9499 70.0196 38.1833C70.0196 20.8009 55.88 6.6591 38.5002 6.6591C21.1204 6.6591 6.98077 20.8009 6.98077 38.1833C6.98077 49.6699 13.3257 60.2855 23.5393 65.8873C23.7741 66.0161 23.86 66.311 23.7313 66.5457C23.6025 66.7805 23.3077 66.8666 23.073 66.7378C12.5486 60.9655 6.01079 50.024 6.01079 38.1832C6.01079 20.2658 20.5854 5.68896 38.5 5.68896C56.4147 5.68896 70.9892 20.2658 70.9892 38.1832C70.9892 50.3143 64.2614 61.32 53.4313 66.9051ZM36.8746 25.5682C36.7431 25.5682 36.6143 25.5047 36.536 25.3871C36.4114 25.2004 36.462 24.9479 36.6487 24.8233L40.7137 22.1124C40.9004 21.988 41.153 22.0384 41.2774 22.2252C41.4019 22.412 41.3513 22.6645 41.1646 22.7891L37.0996 25.4999C37.0304 25.5461 36.9521 25.5682 36.8746 25.5682ZM36.0613 28.279C35.9266 28.279 35.7949 28.2121 35.7174 28.0898C35.5974 27.9002 35.6537 27.6489 35.8434 27.5287L39.9084 24.9534C40.0983 24.8331 40.3492 24.8896 40.4694 25.0794C40.5895 25.269 40.5331 25.5203 40.3434 25.6406L36.2784 28.2159C36.2109 28.2587 36.1357 28.279 36.0613 28.279ZM20.0728 71C20.2409 71 20.4043 70.9124 20.4939 70.7561C20.627 70.5237 20.5467 70.2273 20.3144 70.094C8.99897 63.6035 1.96983 51.4994 1.96983 38.5056C1.96983 38.2378 1.75275 38.0207 1.48491 38.0207C1.21708 38.0207 1 38.2378 1 38.5056C1 51.846 8.216 64.2724 19.8321 70.9357C19.9081 70.9791 19.991 71 20.0728 71ZM25.4954 35.1225C24.8115 35.1225 24.143 35.3253 23.5744 35.7053C23.0058 36.0853 22.5627 36.6254 22.301 37.2573C22.0393 37.8891 21.9708 38.5845 22.1042 39.2553C22.2376 39.9261 22.5669 40.5422 23.0505 41.0259C23.534 41.5095 24.1501 41.8389 24.8208 41.9723C25.4915 42.1057 26.1867 42.0372 26.8185 41.7755C27.4503 41.5138 27.9903 41.0705 28.3702 40.5018C28.7502 39.9332 28.9529 39.2646 28.9529 38.5806C28.9529 38.1265 28.8635 37.6768 28.6898 37.2573C28.516 36.8377 28.2613 36.4565 27.9402 36.1354C27.6192 35.8142 27.238 35.5595 26.8185 35.3857C26.399 35.212 25.9494 35.1225 25.4954 35.1225ZM25.4954 40.9548C25.0156 40.9548 24.5467 40.8126 24.1478 40.546C23.749 40.2795 23.4381 39.9006 23.2545 39.4573C23.0709 39.0141 23.0229 38.5263 23.1165 38.0557C23.2101 37.5852 23.4411 37.1529 23.7803 36.8137C24.1195 36.4744 24.5517 36.2434 25.0222 36.1498C25.4927 36.0562 25.9803 36.1042 26.4235 36.2878C26.8667 36.4714 27.2455 36.7824 27.5121 37.1813C27.7786 37.5802 27.9208 38.0492 27.9208 38.529C27.9208 38.8476 27.8581 39.163 27.7362 39.4573C27.6143 39.7517 27.4356 40.0191 27.2104 40.2443C26.9852 40.4696 26.7178 40.6483 26.4235 40.7702C26.1293 40.8921 25.8139 40.9548 25.4954 40.9548ZM49.5837 35.7053C50.1523 35.3253 50.8208 35.1225 51.5046 35.1225C51.9587 35.1225 52.4083 35.212 52.8278 35.3857C53.2473 35.5595 53.6284 35.8142 53.9495 36.1354C54.2706 36.4565 54.5253 36.8377 54.699 37.2573C54.8728 37.6768 54.9622 38.1265 54.9622 38.5806C54.9622 39.2646 54.7594 39.9332 54.3795 40.5018C53.9996 41.0705 53.4596 41.5138 52.8278 41.7755C52.196 42.0372 51.5008 42.1057 50.8301 41.9723C50.1594 41.8389 49.5433 41.5095 49.0598 41.0259C48.5762 40.5422 48.2469 39.9261 48.1135 39.2553C47.9801 38.5845 48.0485 37.8891 48.3102 37.2573C48.5719 36.6254 49.0151 36.0853 49.5837 35.7053ZM50.1571 40.546C50.556 40.8126 51.0249 40.9548 51.5046 40.9548C51.8232 40.9548 52.1385 40.8921 52.4328 40.7702C52.7271 40.6483 52.9945 40.4696 53.2197 40.2443C53.4449 40.0191 53.6236 39.7517 53.7455 39.4573C53.8674 39.163 53.9301 38.8476 53.9301 38.529C53.9301 38.0492 53.7879 37.5802 53.5213 37.1813C53.2548 36.7824 52.876 36.4714 52.4328 36.2878C51.9896 36.1042 51.5019 36.0562 51.0314 36.1498C50.561 36.2434 50.1288 36.4744 49.7896 36.8137C49.4504 37.1529 49.2194 37.5852 49.1258 38.0557C49.0322 38.5263 49.0802 39.0141 49.2638 39.4573C49.4474 39.9006 49.7582 40.2795 50.1571 40.546ZM43.0413 38.0129H33.9587C33.8219 38.0129 33.6906 38.0673 33.5938 38.1641C33.497 38.2609 33.4427 38.3922 33.4427 38.5291C33.4427 38.666 33.497 38.7973 33.5938 38.8941C33.6906 38.9909 33.8219 39.0453 33.9587 39.0453H43.0413C43.1782 39.0453 43.3095 38.9909 43.4063 38.8941C43.503 38.7973 43.5574 38.666 43.5574 38.5291C43.5574 38.3922 43.503 38.2609 43.4063 38.1641C43.3095 38.0673 43.1782 38.0129 43.0413 38.0129ZM62.3419 28.9806V30.4774C62.3419 31.0249 62.1244 31.55 61.7373 31.9372C61.3501 32.3244 60.8251 32.5419 60.2776 32.5419H58.7294C59.5856 33.408 60.0674 34.5757 60.0712 35.7936V52.2067C60.0712 52.6174 59.9081 53.0112 59.6177 53.3016C59.3274 53.592 58.9336 53.7551 58.523 53.7551H52.9496C52.539 53.7551 52.1452 53.592 51.8549 53.3016C51.5645 53.0112 51.4014 52.6174 51.4014 52.2067V46.7873H25.5986V52.2067C25.5986 52.6174 25.4354 53.0112 25.1451 53.3016C24.8548 53.592 24.461 53.7551 24.0504 53.7551H18.477C18.0664 53.7551 17.6726 53.592 17.3822 53.3016C17.0919 53.0112 16.9288 52.6174 16.9288 52.2067V36C16.9294 35.3472 17.0676 34.7018 17.3343 34.1059C17.6011 33.5101 17.9904 32.9771 18.477 32.5419H16.7224C16.1749 32.5419 15.6498 32.3244 15.2627 31.9372C14.8756 31.55 14.6581 31.0249 14.6581 30.4774V28.9806C14.6581 28.433 14.8756 27.9079 15.2627 27.5207C15.6498 27.1335 16.1749 26.916 16.7224 26.916H22.4506L24.6696 20.6708C24.9158 19.9631 25.3758 19.3495 25.986 18.9149C26.5963 18.4803 27.3265 18.2461 28.0756 18.2449H48.7179C49.4195 18.2465 50.1053 18.4523 50.6918 18.8373C51.2784 19.2222 51.7401 19.7696 52.0207 20.4127L54.9106 26.916H60.2776C60.8251 26.916 61.3501 27.1335 61.7373 27.5207C62.1244 27.9079 62.3419 28.433 62.3419 28.9806ZM61.0074 28.2506C60.8139 28.057 60.5514 27.9483 60.2776 27.9483H55.4267L56.5104 30.4257V30.5806L57.5941 31.5096H60.2776C60.5514 31.5096 60.8139 31.4009 61.0074 31.2073C61.201 31.0137 61.3097 30.7511 61.3097 30.4774V28.9806C61.3097 28.7068 61.201 28.4442 61.0074 28.2506ZM26.594 19.7458C26.16 20.0506 25.8305 20.4817 25.6502 20.9804L22.399 30.1161H55.2203L51.0918 20.8256C50.8904 20.364 50.5583 19.9714 50.1364 19.6962C49.7146 19.4211 49.2215 19.2754 48.7179 19.2772H28.0756C27.5453 19.2774 27.028 19.441 26.594 19.7458ZM15.6902 28.9806V30.4774C15.6969 30.613 15.7302 30.7459 15.7882 30.8687C15.8463 30.9914 15.928 31.1015 16.0287 31.1926C16.1293 31.2837 16.247 31.354 16.3749 31.3995C16.5028 31.4451 16.6384 31.465 16.774 31.458H19.8703L21.2121 30.4774L22.0894 27.9483H16.7224C16.4486 27.9483 16.1861 28.057 15.9925 28.2506C15.799 28.4442 15.6902 28.7068 15.6902 28.9806ZM24.4153 52.5717C24.5121 52.4749 24.5664 52.3436 24.5664 52.2067V46.7873H17.9609V52.2067C17.9609 52.3436 18.0153 52.4749 18.112 52.5717C18.2088 52.6685 18.3401 52.7228 18.477 52.7228H24.0504C24.1872 52.7228 24.3185 52.6685 24.4153 52.5717ZM52.9496 52.7228H58.523C58.6599 52.7228 58.7912 52.6685 58.8879 52.5717C58.9847 52.4749 59.0391 52.3436 59.0391 52.2067V46.7873H52.4335V52.2067C52.4335 52.3436 52.4879 52.4749 52.5847 52.5717C52.6815 52.6685 52.8127 52.7228 52.9496 52.7228ZM59.0391 45.755V35.7936C59.0408 35.2754 58.9311 34.763 58.7174 34.291C58.5037 33.819 58.191 33.3985 57.8005 33.058L55.5815 31.1483H22.0894L19.4575 33.058C18.9923 33.3942 18.6139 33.8365 18.3536 34.3481C18.0934 34.8597 17.9587 35.426 17.9609 36V45.755H59.0391Z"/>
</mask>
<path fill-rule="evenodd" clip-rule="evenodd" d="M75.9999 38.5057C75.9999 38.7736 75.7829 38.9907 75.515 38.9907C75.2472 38.9907 75.0301 38.7736 75.0301 38.5057C75.0301 18.3598 58.6428 1.96998 38.4999 1.96998C38.2323 1.96998 38.015 1.75286 38.015 1.48499C38.015 1.21711 38.2321 1 38.4999 1C48.4973 1 57.9039 4.88977 64.9872 11.9526C72.089 19.0341 75.9999 28.4641 75.9999 38.5057ZM53.4313 66.9051C53.3602 66.942 53.2842 66.9593 53.2094 66.9593C53.0337 66.9593 52.8641 66.8632 52.7781 66.6966C52.6555 66.4584 52.7489 66.166 52.987 66.0433C63.4931 60.6252 70.0196 49.9499 70.0196 38.1833C70.0196 20.8009 55.88 6.6591 38.5002 6.6591C21.1204 6.6591 6.98077 20.8009 6.98077 38.1833C6.98077 49.6699 13.3257 60.2855 23.5393 65.8873C23.7741 66.0161 23.86 66.311 23.7313 66.5457C23.6025 66.7805 23.3077 66.8666 23.073 66.7378C12.5486 60.9655 6.01079 50.024 6.01079 38.1832C6.01079 20.2658 20.5854 5.68896 38.5 5.68896C56.4147 5.68896 70.9892 20.2658 70.9892 38.1832C70.9892 50.3143 64.2614 61.32 53.4313 66.9051ZM36.8746 25.5682C36.7431 25.5682 36.6143 25.5047 36.536 25.3871C36.4114 25.2004 36.462 24.9479 36.6487 24.8233L40.7137 22.1124C40.9004 21.988 41.153 22.0384 41.2774 22.2252C41.4019 22.412 41.3513 22.6645 41.1646 22.7891L37.0996 25.4999C37.0304 25.5461 36.9521 25.5682 36.8746 25.5682ZM36.0613 28.279C35.9266 28.279 35.7949 28.2121 35.7174 28.0898C35.5974 27.9002 35.6537 27.6489 35.8434 27.5287L39.9084 24.9534C40.0983 24.8331 40.3492 24.8896 40.4694 25.0794C40.5895 25.269 40.5331 25.5203 40.3434 25.6406L36.2784 28.2159C36.2109 28.2587 36.1357 28.279 36.0613 28.279ZM20.0728 71C20.2409 71 20.4043 70.9124 20.4939 70.7561C20.627 70.5237 20.5467 70.2273 20.3144 70.094C8.99897 63.6035 1.96983 51.4994 1.96983 38.5056C1.96983 38.2378 1.75275 38.0207 1.48491 38.0207C1.21708 38.0207 1 38.2378 1 38.5056C1 51.846 8.216 64.2724 19.8321 70.9357C19.9081 70.9791 19.991 71 20.0728 71ZM25.4954 35.1225C24.8115 35.1225 24.143 35.3253 23.5744 35.7053C23.0058 36.0853 22.5627 36.6254 22.301 37.2573C22.0393 37.8891 21.9708 38.5845 22.1042 39.2553C22.2376 39.9261 22.5669 40.5422 23.0505 41.0259C23.534 41.5095 24.1501 41.8389 24.8208 41.9723C25.4915 42.1057 26.1867 42.0372 26.8185 41.7755C27.4503 41.5138 27.9903 41.0705 28.3702 40.5018C28.7502 39.9332 28.9529 39.2646 28.9529 38.5806C28.9529 38.1265 28.8635 37.6768 28.6898 37.2573C28.516 36.8377 28.2613 36.4565 27.9402 36.1354C27.6192 35.8142 27.238 35.5595 26.8185 35.3857C26.399 35.212 25.9494 35.1225 25.4954 35.1225ZM25.4954 40.9548C25.0156 40.9548 24.5467 40.8126 24.1478 40.546C23.749 40.2795 23.4381 39.9006 23.2545 39.4573C23.0709 39.0141 23.0229 38.5263 23.1165 38.0557C23.2101 37.5852 23.4411 37.1529 23.7803 36.8137C24.1195 36.4744 24.5517 36.2434 25.0222 36.1498C25.4927 36.0562 25.9803 36.1042 26.4235 36.2878C26.8667 36.4714 27.2455 36.7824 27.5121 37.1813C27.7786 37.5802 27.9208 38.0492 27.9208 38.529C27.9208 38.8476 27.8581 39.163 27.7362 39.4573C27.6143 39.7517 27.4356 40.0191 27.2104 40.2443C26.9852 40.4696 26.7178 40.6483 26.4235 40.7702C26.1293 40.8921 25.8139 40.9548 25.4954 40.9548ZM49.5837 35.7053C50.1523 35.3253 50.8208 35.1225 51.5046 35.1225C51.9587 35.1225 52.4083 35.212 52.8278 35.3857C53.2473 35.5595 53.6284 35.8142 53.9495 36.1354C54.2706 36.4565 54.5253 36.8377 54.699 37.2573C54.8728 37.6768 54.9622 38.1265 54.9622 38.5806C54.9622 39.2646 54.7594 39.9332 54.3795 40.5018C53.9996 41.0705 53.4596 41.5138 52.8278 41.7755C52.196 42.0372 51.5008 42.1057 50.8301 41.9723C50.1594 41.8389 49.5433 41.5095 49.0598 41.0259C48.5762 40.5422 48.2469 39.9261 48.1135 39.2553C47.9801 38.5845 48.0485 37.8891 48.3102 37.2573C48.5719 36.6254 49.0151 36.0853 49.5837 35.7053ZM50.1571 40.546C50.556 40.8126 51.0249 40.9548 51.5046 40.9548C51.8232 40.9548 52.1385 40.8921 52.4328 40.7702C52.7271 40.6483 52.9945 40.4696 53.2197 40.2443C53.4449 40.0191 53.6236 39.7517 53.7455 39.4573C53.8674 39.163 53.9301 38.8476 53.9301 38.529C53.9301 38.0492 53.7879 37.5802 53.5213 37.1813C53.2548 36.7824 52.876 36.4714 52.4328 36.2878C51.9896 36.1042 51.5019 36.0562 51.0314 36.1498C50.561 36.2434 50.1288 36.4744 49.7896 36.8137C49.4504 37.1529 49.2194 37.5852 49.1258 38.0557C49.0322 38.5263 49.0802 39.0141 49.2638 39.4573C49.4474 39.9006 49.7582 40.2795 50.1571 40.546ZM43.0413 38.0129H33.9587C33.8219 38.0129 33.6906 38.0673 33.5938 38.1641C33.497 38.2609 33.4427 38.3922 33.4427 38.5291C33.4427 38.666 33.497 38.7973 33.5938 38.8941C33.6906 38.9909 33.8219 39.0453 33.9587 39.0453H43.0413C43.1782 39.0453 43.3095 38.9909 43.4063 38.8941C43.503 38.7973 43.5574 38.666 43.5574 38.5291C43.5574 38.3922 43.503 38.2609 43.4063 38.1641C43.3095 38.0673 43.1782 38.0129 43.0413 38.0129ZM62.3419 28.9806V30.4774C62.3419 31.0249 62.1244 31.55 61.7373 31.9372C61.3501 32.3244 60.8251 32.5419 60.2776 32.5419H58.7294C59.5856 33.408 60.0674 34.5757 60.0712 35.7936V52.2067C60.0712 52.6174 59.9081 53.0112 59.6177 53.3016C59.3274 53.592 58.9336 53.7551 58.523 53.7551H52.9496C52.539 53.7551 52.1452 53.592 51.8549 53.3016C51.5645 53.0112 51.4014 52.6174 51.4014 52.2067V46.7873H25.5986V52.2067C25.5986 52.6174 25.4354 53.0112 25.1451 53.3016C24.8548 53.592 24.461 53.7551 24.0504 53.7551H18.477C18.0664 53.7551 17.6726 53.592 17.3822 53.3016C17.0919 53.0112 16.9288 52.6174 16.9288 52.2067V36C16.9294 35.3472 17.0676 34.7018 17.3343 34.1059C17.6011 33.5101 17.9904 32.9771 18.477 32.5419H16.7224C16.1749 32.5419 15.6498 32.3244 15.2627 31.9372C14.8756 31.55 14.6581 31.0249 14.6581 30.4774V28.9806C14.6581 28.433 14.8756 27.9079 15.2627 27.5207C15.6498 27.1335 16.1749 26.916 16.7224 26.916H22.4506L24.6696 20.6708C24.9158 19.9631 25.3758 19.3495 25.986 18.9149C26.5963 18.4803 27.3265 18.2461 28.0756 18.2449H48.7179C49.4195 18.2465 50.1053 18.4523 50.6918 18.8373C51.2784 19.2222 51.7401 19.7696 52.0207 20.4127L54.9106 26.916H60.2776C60.8251 26.916 61.3501 27.1335 61.7373 27.5207C62.1244 27.9079 62.3419 28.433 62.3419 28.9806ZM61.0074 28.2506C60.8139 28.057 60.5514 27.9483 60.2776 27.9483H55.4267L56.5104 30.4257V30.5806L57.5941 31.5096H60.2776C60.5514 31.5096 60.8139 31.4009 61.0074 31.2073C61.201 31.0137 61.3097 30.7511 61.3097 30.4774V28.9806C61.3097 28.7068 61.201 28.4442 61.0074 28.2506ZM26.594 19.7458C26.16 20.0506 25.8305 20.4817 25.6502 20.9804L22.399 30.1161H55.2203L51.0918 20.8256C50.8904 20.364 50.5583 19.9714 50.1364 19.6962C49.7146 19.4211 49.2215 19.2754 48.7179 19.2772H28.0756C27.5453 19.2774 27.028 19.441 26.594 19.7458ZM15.6902 28.9806V30.4774C15.6969 30.613 15.7302 30.7459 15.7882 30.8687C15.8463 30.9914 15.928 31.1015 16.0287 31.1926C16.1293 31.2837 16.247 31.354 16.3749 31.3995C16.5028 31.4451 16.6384 31.465 16.774 31.458H19.8703L21.2121 30.4774L22.0894 27.9483H16.7224C16.4486 27.9483 16.1861 28.057 15.9925 28.2506C15.799 28.4442 15.6902 28.7068 15.6902 28.9806ZM24.4153 52.5717C24.5121 52.4749 24.5664 52.3436 24.5664 52.2067V46.7873H17.9609V52.2067C17.9609 52.3436 18.0153 52.4749 18.112 52.5717C18.2088 52.6685 18.3401 52.7228 18.477 52.7228H24.0504C24.1872 52.7228 24.3185 52.6685 24.4153 52.5717ZM52.9496 52.7228H58.523C58.6599 52.7228 58.7912 52.6685 58.8879 52.5717C58.9847 52.4749 59.0391 52.3436 59.0391 52.2067V46.7873H52.4335V52.2067C52.4335 52.3436 52.4879 52.4749 52.5847 52.5717C52.6815 52.6685 52.8127 52.7228 52.9496 52.7228ZM59.0391 45.755V35.7936C59.0408 35.2754 58.9311 34.763 58.7174 34.291C58.5037 33.819 58.191 33.3985 57.8005 33.058L55.5815 31.1483H22.0894L19.4575 33.058C18.9923 33.3942 18.6139 33.8365 18.3536 34.3481C18.0934 34.8597 17.9587 35.426 17.9609 36V45.755H59.0391Z" fill="url(#paint0_linear)"/>
<path d="M64.9872 11.9526L65.1284 11.811L65.1284 11.811L64.9872 11.9526ZM53.4313 66.9051L53.3396 66.7274L53.3393 66.7275L53.4313 66.9051ZM52.7781 66.6966L52.6003 66.7882L52.6004 66.7883L52.7781 66.6966ZM52.987 66.0433L53.0786 66.2211L53.0786 66.221L52.987 66.0433ZM23.5393 65.8873L23.6355 65.7119L23.6355 65.7119L23.5393 65.8873ZM23.7313 66.5457L23.9066 66.642L23.9067 66.6419L23.7313 66.5457ZM23.073 66.7378L23.1692 66.5625L23.1691 66.5624L23.073 66.7378ZM36.536 25.3871L36.7024 25.2762L36.7024 25.2762L36.536 25.3871ZM36.6487 24.8233L36.5377 24.6569L36.5377 24.6569L36.6487 24.8233ZM40.7137 22.1124L40.6028 21.946L40.6027 21.946L40.7137 22.1124ZM41.2774 22.2252L41.1109 22.3361L41.111 22.3361L41.2774 22.2252ZM41.1646 22.7891L41.2756 22.9555L41.2756 22.9554L41.1646 22.7891ZM37.0996 25.4999L36.9887 25.3335L36.9886 25.3336L37.0996 25.4999ZM35.7174 28.0898L35.5484 28.1968L35.5485 28.1969L35.7174 28.0898ZM35.8434 27.5287L35.7364 27.3597L35.7364 27.3597L35.8434 27.5287ZM39.9084 24.9534L39.8014 24.7844L39.8014 24.7844L39.9084 24.9534ZM40.4694 25.0794L40.6384 24.9724L40.6384 24.9724L40.4694 25.0794ZM40.3434 25.6406L40.4504 25.8095L40.4505 25.8095L40.3434 25.6406ZM36.2784 28.2159L36.1714 28.0469L36.1712 28.047L36.2784 28.2159ZM20.4939 70.7561L20.3203 70.6566L20.3203 70.6566L20.4939 70.7561ZM20.3144 70.094L20.2149 70.2675L20.2149 70.2675L20.3144 70.094ZM19.8321 70.9357L19.7326 71.1091L19.7328 71.1092L19.8321 70.9357ZM23.5744 35.7053L23.4633 35.539L23.4633 35.539L23.5744 35.7053ZM22.301 37.2573L22.4857 37.3338L22.4857 37.3338L22.301 37.2573ZM22.1042 39.2553L21.908 39.2943L21.908 39.2943L22.1042 39.2553ZM23.0505 41.0259L22.909 41.1673L22.909 41.1673L23.0505 41.0259ZM24.8208 41.9723L24.8598 41.7761L24.8598 41.7761L24.8208 41.9723ZM26.8185 41.7755L26.742 41.5907L26.742 41.5907L26.8185 41.7755ZM28.3702 40.5018L28.5365 40.6129L28.5365 40.6129L28.3702 40.5018ZM28.6898 37.2573L28.8745 37.1807L28.8745 37.1807L28.6898 37.2573ZM27.9402 36.1354L27.7988 36.2768L27.7988 36.2768L27.9402 36.1354ZM26.8185 35.3857L26.742 35.5705L26.742 35.5705L26.8185 35.3857ZM24.1478 40.546L24.259 40.3797L24.259 40.3797L24.1478 40.546ZM23.2545 39.4573L23.4393 39.3808L23.4393 39.3808L23.2545 39.4573ZM23.1165 38.0557L22.9203 38.0167L22.9203 38.0167L23.1165 38.0557ZM27.5121 37.1813L27.6784 37.0702L27.6784 37.0702L27.5121 37.1813ZM27.7362 39.4573L27.5514 39.3808L27.5514 39.3808L27.7362 39.4573ZM27.2104 40.2443L27.069 40.1029L27.069 40.1029L27.2104 40.2443ZM49.5837 35.7053L49.4726 35.539L49.4726 35.539L49.5837 35.7053ZM53.9495 36.1354L53.8081 36.2768L53.8081 36.2768L53.9495 36.1354ZM54.699 37.2573L54.8838 37.1807L54.8838 37.1807L54.699 37.2573ZM52.8278 41.7755L52.7512 41.5907L52.7512 41.5907L52.8278 41.7755ZM50.8301 41.9723L50.8691 41.7761L50.8691 41.7761L50.8301 41.9723ZM49.0598 41.0259L48.9183 41.1673L48.9183 41.1673L49.0598 41.0259ZM48.1135 39.2553L47.9173 39.2943L47.9173 39.2943L48.1135 39.2553ZM48.3102 37.2573L48.495 37.3338L48.495 37.3338L48.3102 37.2573ZM50.1571 40.546L50.2682 40.3797L50.2682 40.3797L50.1571 40.546ZM52.4328 40.7702L52.3563 40.5854L52.3563 40.5854L52.4328 40.7702ZM53.2197 40.2443L53.0783 40.1029L53.0783 40.1029L53.2197 40.2443ZM53.7455 39.4573L53.5607 39.3808L53.5607 39.3808L53.7455 39.4573ZM53.5213 37.1813L53.6876 37.0702L53.6876 37.0702L53.5213 37.1813ZM52.4328 36.2878L52.3563 36.4726L52.3563 36.4726L52.4328 36.2878ZM51.0314 36.1498L51.0705 36.3459L51.0705 36.3459L51.0314 36.1498ZM49.7896 36.8137L49.931 36.9551L49.931 36.9551L49.7896 36.8137ZM49.1258 38.0557L48.9296 38.0167L48.9296 38.0167L49.1258 38.0557ZM49.2638 39.4573L49.4486 39.3808L49.4486 39.3808L49.2638 39.4573ZM61.7373 31.9372L61.5958 31.7958L61.5958 31.7958L61.7373 31.9372ZM58.7294 32.5419V32.3419H58.2505L58.5872 32.6825L58.7294 32.5419ZM60.0712 35.7936L60.2712 35.7936L60.2712 35.7929L60.0712 35.7936ZM59.6177 53.3016L59.7592 53.443L59.7592 53.443L59.6177 53.3016ZM51.8549 53.3016L51.7134 53.443L51.7134 53.443L51.8549 53.3016ZM51.4014 46.7873H51.6014V46.5873H51.4014V46.7873ZM25.5986 46.7873V46.5873H25.3986V46.7873H25.5986ZM25.1451 53.3016L25.2865 53.443L25.2865 53.443L25.1451 53.3016ZM17.3822 53.3016L17.2408 53.443L17.2408 53.443L17.3822 53.3016ZM16.9288 36L16.7288 35.9998V36H16.9288ZM17.3343 34.1059L17.1518 34.0242L17.1518 34.0242L17.3343 34.1059ZM18.477 32.5419L18.6103 32.691L19.0005 32.3419H18.477V32.5419ZM15.2627 27.5207L15.1213 27.3793L15.1213 27.3793L15.2627 27.5207ZM22.4506 26.916V27.116H22.5918L22.6391 26.983L22.4506 26.916ZM24.6696 20.6708L24.8581 20.7377L24.8585 20.7365L24.6696 20.6708ZM28.0756 18.2449L28.0756 18.0449L28.0753 18.0449L28.0756 18.2449ZM48.7179 18.2449L48.7184 18.0449H48.7179V18.2449ZM52.0207 20.4127L51.8374 20.4927L51.8379 20.4939L52.0207 20.4127ZM54.9106 26.916L54.7279 26.9972L54.7806 27.116H54.9106V26.916ZM61.7373 27.5207L61.5958 27.6621L61.5958 27.6621L61.7373 27.5207ZM61.0074 28.2506L60.866 28.392L60.866 28.392L61.0074 28.2506ZM55.4267 27.9483V27.7483H55.1209L55.2434 28.0284L55.4267 27.9483ZM56.5104 30.4257H56.7104V30.3839L56.6936 30.3456L56.5104 30.4257ZM56.5104 30.5806H56.3104V30.6726L56.3802 30.7324L56.5104 30.5806ZM57.5941 31.5096L57.464 31.6615L57.5201 31.7096H57.5941V31.5096ZM61.0074 31.2073L60.866 31.0659L60.866 31.0659L61.0074 31.2073ZM25.6502 20.9804L25.4621 20.9124L25.4617 20.9134L25.6502 20.9804ZM22.399 30.1161L22.2106 30.049L22.1155 30.3161H22.399V30.1161ZM55.2203 30.1161V30.3161H55.528L55.403 30.0348L55.2203 30.1161ZM51.0918 20.8256L50.9085 20.9056L50.909 20.9068L51.0918 20.8256ZM50.1364 19.6962L50.0272 19.8638L50.0272 19.8638L50.1364 19.6962ZM48.7179 19.2772V19.4772L48.7186 19.4772L48.7179 19.2772ZM28.0756 19.2772L28.0756 19.0772L28.0755 19.0772L28.0756 19.2772ZM15.6902 30.4774H15.49L15.4905 30.4871L15.6902 30.4774ZM15.7882 30.8687L15.6074 30.9542L15.6074 30.9542L15.7882 30.8687ZM16.0287 31.1926L16.1629 31.0443L16.1629 31.0443L16.0287 31.1926ZM16.3749 31.3995L16.3078 31.5879L16.3078 31.5879L16.3749 31.3995ZM16.774 31.458V31.2577L16.7637 31.2583L16.774 31.458ZM19.8703 31.458V31.658H19.9356L19.9883 31.6195L19.8703 31.458ZM21.2121 30.4774L21.3301 30.6388L21.3805 30.6019L21.401 30.5429L21.2121 30.4774ZM22.0894 27.9483L22.2783 28.0138L22.3704 27.7483H22.0894V27.9483ZM15.9925 28.2506L16.134 28.392L16.134 28.392L15.9925 28.2506ZM24.4153 52.5717L24.2739 52.4303L24.2739 52.4303L24.4153 52.5717ZM24.5664 46.7873H24.7664V46.5873H24.5664V46.7873ZM17.9609 46.7873V46.5873H17.7609V46.7873H17.9609ZM59.0391 46.7873H59.2391V46.5873H59.0391V46.7873ZM52.4335 46.7873V46.5873H52.2335V46.7873H52.4335ZM52.5847 52.5717L52.4433 52.7131L52.4433 52.7131L52.5847 52.5717ZM59.0391 35.7936L58.8391 35.7929V35.7936H59.0391ZM59.0391 45.755V45.955H59.2391V45.755H59.0391ZM58.7174 34.291L58.8996 34.2085L58.8996 34.2085L58.7174 34.291ZM57.8005 33.058L57.932 32.9073L57.931 32.9064L57.8005 33.058ZM55.5815 31.1483L55.712 30.9967L55.6557 30.9483H55.5815V31.1483ZM22.0894 31.1483V30.9483H22.0244L21.9719 30.9865L22.0894 31.1483ZM19.4575 33.058L19.5746 33.2201L19.5749 33.2199L19.4575 33.058ZM18.3536 34.3481L18.1754 34.2574L18.1754 34.2574L18.3536 34.3481ZM17.9609 36H18.1609L18.1609 35.9993L17.9609 36ZM17.9609 45.755H17.7609V45.955H17.9609V45.755ZM75.515 39.1907C75.8934 39.1907 76.1999 38.884 76.1999 38.5057H75.7999C75.7999 38.6632 75.6724 38.7907 75.515 38.7907V39.1907ZM74.8301 38.5057C74.8301 38.884 75.1367 39.1907 75.515 39.1907V38.7907C75.3577 38.7907 75.2301 38.6632 75.2301 38.5057H74.8301ZM38.4999 2.16998C58.5323 2.16998 74.8301 18.4702 74.8301 38.5057H75.2301C75.2301 18.2494 58.7533 1.76998 38.4999 1.76998V2.16998ZM37.815 1.48499C37.815 1.86333 38.1218 2.16998 38.4999 2.16998V1.76998C38.3427 1.76998 38.215 1.64239 38.215 1.48499H37.815ZM38.4999 0.8C38.1216 0.8 37.815 1.10669 37.815 1.48499H38.215C38.215 1.32754 38.3426 1.2 38.4999 1.2V0.8ZM65.1284 11.811C58.0077 4.71078 48.5502 0.8 38.4999 0.8V1.2C48.4443 1.2 57.8002 5.06875 64.846 12.0943L65.1284 11.811ZM76.1999 38.5057C76.1999 28.411 72.2679 18.9301 65.1284 11.811L64.846 12.0943C71.9101 19.1382 75.7999 28.5171 75.7999 38.5057H76.1999ZM53.2094 67.1593C53.3152 67.1593 53.4229 67.1347 53.5233 67.0827L53.3393 66.7275C53.2975 66.7492 53.2532 66.7593 53.2094 66.7593V67.1593ZM52.6004 66.7883C52.722 67.0239 52.9617 67.1593 53.2094 67.1593V66.7593C53.1057 66.7593 53.0063 66.7026 52.9559 66.6049L52.6004 66.7883ZM52.8954 65.8655C52.559 66.0389 52.4271 66.4519 52.6003 66.7882L52.9559 66.605C52.8838 66.4649 52.9388 66.2931 53.0786 66.2211L52.8954 65.8655ZM69.8196 38.1833C69.8196 49.8746 63.3353 60.4815 52.8953 65.8655L53.0786 66.221C63.6509 60.7688 70.2196 50.0252 70.2196 38.1833H69.8196ZM38.5002 6.8591C55.7695 6.8591 69.8196 20.9113 69.8196 38.1833H70.2196C70.2196 20.6904 55.9905 6.4591 38.5002 6.4591V6.8591ZM7.18077 38.1833C7.18077 20.9113 21.2309 6.8591 38.5002 6.8591V6.4591C21.0099 6.4591 6.78077 20.6904 6.78077 38.1833H7.18077ZM23.6355 65.7119C13.4848 60.1447 7.18077 49.5956 7.18077 38.1833H6.78077C6.78077 49.7442 13.1666 60.4264 23.4431 66.0626L23.6355 65.7119ZM23.9067 66.6419C24.0884 66.3104 23.9672 65.8939 23.6355 65.7119L23.4431 66.0626C23.5811 66.1383 23.6316 66.3116 23.5559 66.4496L23.9067 66.6419ZM22.9767 66.9131C23.3084 67.0952 23.7248 66.9733 23.9066 66.642L23.556 66.4495C23.4802 66.5876 23.3069 66.6381 23.1692 66.5625L22.9767 66.9131ZM5.81079 38.1832C5.81079 50.0982 12.3895 61.1063 22.9768 66.9131L23.1691 66.5624C12.7077 60.8246 6.21079 49.9497 6.21079 38.1832H5.81079ZM38.5 5.48896C20.4749 5.48896 5.81079 20.1553 5.81079 38.1832H6.21079C6.21079 20.3762 20.6958 5.88896 38.5 5.88896V5.48896ZM71.1892 38.1832C71.1892 20.1553 56.5252 5.48896 38.5 5.48896V5.88896C56.3042 5.88896 70.7892 20.3762 70.7892 38.1832H71.1892ZM53.523 67.0829C64.4192 61.4636 71.1892 50.3896 71.1892 38.1832H70.7892C70.7892 50.239 64.1036 61.1764 53.3396 66.7274L53.523 67.0829ZM36.3695 25.4981C36.4865 25.6736 36.6791 25.7682 36.8746 25.7682V25.3682C36.8072 25.3682 36.7421 25.3358 36.7024 25.2762L36.3695 25.4981ZM36.5377 24.6569C36.2592 24.8427 36.1837 25.2194 36.3696 25.4981L36.7024 25.2762C36.6391 25.1814 36.6648 25.053 36.7597 24.9897L36.5377 24.6569ZM40.6027 21.946L36.5377 24.6569L36.7597 24.9897L40.8247 22.2788L40.6027 21.946ZM41.4438 22.1143C41.2581 21.8355 40.8813 21.7604 40.6028 21.946L40.8246 22.2789C40.9195 22.2156 41.0478 22.2414 41.1109 22.3361L41.4438 22.1143ZM41.2756 22.9554C41.5542 22.7696 41.6296 22.393 41.4438 22.1143L41.111 22.3361C41.1742 22.431 41.1485 22.5594 41.0536 22.6227L41.2756 22.9554ZM37.2106 25.6663L41.2756 22.9555L41.0537 22.6227L36.9887 25.3335L37.2106 25.6663ZM36.8746 25.7682C36.9903 25.7682 37.1075 25.7351 37.2107 25.6663L36.9886 25.3336C36.9533 25.3571 36.9139 25.3682 36.8746 25.3682V25.7682ZM35.5485 28.1969C35.6641 28.3793 35.8608 28.479 36.0613 28.479V28.079C35.9924 28.079 35.9258 28.0449 35.8863 27.9827L35.5485 28.1969ZM35.7364 27.3597C35.4534 27.5391 35.3693 27.9139 35.5484 28.1968L35.8864 27.9828C35.8254 27.8865 35.8541 27.7587 35.9505 27.6976L35.7364 27.3597ZM39.8014 24.7844L35.7364 27.3597L35.9505 27.6976L40.0155 25.1223L39.8014 24.7844ZM40.6384 24.9724C40.4592 24.6894 40.0847 24.605 39.8014 24.7844L40.0154 25.1223C40.1118 25.0613 40.2393 25.0899 40.3004 25.1864L40.6384 24.9724ZM40.4505 25.8095C40.7334 25.6302 40.8175 25.2554 40.6384 24.9724L40.3004 25.1864C40.3614 25.2827 40.3328 25.4105 40.2363 25.4716L40.4505 25.8095ZM36.3854 28.3848L40.4504 25.8095L40.2364 25.4716L36.1714 28.0469L36.3854 28.3848ZM36.0613 28.479C36.1724 28.479 36.285 28.4486 36.3856 28.3847L36.1712 28.047C36.1368 28.0688 36.099 28.079 36.0613 28.079V28.479ZM20.3203 70.6566C20.2678 70.7483 20.1721 70.8 20.0728 70.8V71.2C20.3097 71.2 20.5408 71.0765 20.6674 70.8555L20.3203 70.6566ZM20.2149 70.2675C20.3514 70.3458 20.3986 70.52 20.3203 70.6566L20.6674 70.8555C20.8555 70.5274 20.742 70.1087 20.4139 69.9206L20.2149 70.2675ZM1.76983 38.5056C1.76983 51.5714 8.83761 63.7415 20.2149 70.2675L20.4139 69.9206C9.16034 63.4654 2.16983 51.4274 2.16983 38.5056H1.76983ZM1.48491 38.2207C1.64226 38.2207 1.76983 38.3482 1.76983 38.5056H2.16983C2.16983 38.1273 1.86323 37.8207 1.48491 37.8207V38.2207ZM1.2 38.5056C1.2 38.3482 1.32757 38.2207 1.48491 38.2207V37.8207C1.10659 37.8207 0.8 38.1273 0.8 38.5056H1.2ZM19.9316 70.7622C8.37737 64.1344 1.2 51.7741 1.2 38.5056H0.8C0.8 51.918 8.05463 64.4104 19.7326 71.1091L19.9316 70.7622ZM20.0728 70.8C20.0252 70.8 19.9766 70.7879 19.9315 70.7621L19.7328 71.1092C19.8396 71.1704 19.9568 71.2 20.0728 71.2V70.8ZM23.6856 35.8716C24.2213 35.5136 24.8511 35.3225 25.4954 35.3225V34.9225C24.7719 34.9225 24.0648 35.1371 23.4633 35.539L23.6856 35.8716ZM22.4857 37.3338C22.7323 36.7384 23.1498 36.2296 23.6856 35.8716L23.4633 35.539C22.8618 35.941 22.393 36.5123 22.1162 37.1807L22.4857 37.3338ZM22.3004 39.2163C22.1747 38.5842 22.2392 37.9291 22.4857 37.3338L22.1162 37.1807C21.8394 37.8492 21.7669 38.5847 21.908 39.2943L22.3004 39.2163ZM23.1919 40.8845C22.7363 40.4288 22.4261 39.8483 22.3004 39.2163L21.908 39.2943C22.0492 40.0039 22.3975 40.6557 22.909 41.1673L23.1919 40.8845ZM24.8598 41.7761C24.2279 41.6504 23.6475 41.3401 23.1919 40.8845L22.909 41.1673C23.4206 41.6789 24.0723 42.0273 24.7818 42.1684L24.8598 41.7761ZM26.742 41.5907C26.1467 41.8373 25.4917 41.9018 24.8598 41.7761L24.7818 42.1684C25.4913 42.3096 26.2267 42.2371 26.8951 41.9603L26.742 41.5907ZM28.2039 40.3907C27.846 40.9265 27.3372 41.3441 26.742 41.5907L26.8951 41.9603C27.5634 41.6834 28.1346 41.2145 28.5365 40.6129L28.2039 40.3907ZM28.7529 38.5806C28.7529 39.225 28.5619 39.8549 28.2039 40.3907L28.5365 40.6129C28.9384 40.0114 29.1529 39.3041 29.1529 38.5806H28.7529ZM28.505 37.3338C28.6687 37.7291 28.7529 38.1528 28.7529 38.5806H29.1529C29.1529 38.1002 29.0583 37.6245 28.8745 37.1807L28.505 37.3338ZM27.7988 36.2768C28.1013 36.5793 28.3413 36.9385 28.505 37.3338L28.8745 37.1807C28.6907 36.7369 28.4213 36.3336 28.0817 35.994L27.7988 36.2768ZM26.742 35.5705C27.1372 35.7342 27.4963 35.9742 27.7988 36.2768L28.0817 35.994C27.742 35.6543 27.3388 35.3848 26.8951 35.201L26.742 35.5705ZM25.4954 35.3225C25.9231 35.3225 26.3467 35.4068 26.742 35.5705L26.8951 35.201C26.4513 35.0171 25.9757 34.9225 25.4954 34.9225V35.3225ZM24.0367 40.7123C24.4685 41.0008 24.9761 41.1548 25.4954 41.1548V40.7548C25.0552 40.7548 24.6249 40.6243 24.259 40.3797L24.0367 40.7123ZM23.0697 39.5339C23.2684 40.0137 23.605 40.4238 24.0367 40.7123L24.259 40.3797C23.893 40.1352 23.6077 39.7875 23.4393 39.3808L23.0697 39.5339ZM22.9203 38.0167C22.819 38.5261 22.871 39.0541 23.0697 39.5339L23.4393 39.3808C23.2708 38.9741 23.2268 38.5265 23.3126 38.0948L22.9203 38.0167ZM23.6389 36.6723C23.2717 37.0395 23.0216 37.5074 22.9203 38.0167L23.3126 38.0948C23.3985 37.663 23.6105 37.2664 23.9217 36.9551L23.6389 36.6723ZM24.9831 35.9536C24.4739 36.0549 24.006 36.305 23.6389 36.6723L23.9217 36.9551C24.233 36.6438 24.6295 36.4318 25.0612 36.3459L24.9831 35.9536ZM26.5001 36.103C26.0203 35.9043 25.4924 35.8523 24.9831 35.9536L25.0612 36.3459C25.4929 36.2601 25.9403 36.3041 26.347 36.4726L26.5001 36.103ZM27.6784 37.0702C27.3899 36.6384 26.9798 36.3018 26.5001 36.103L26.347 36.4726C26.7536 36.6411 27.1012 36.9263 27.3458 37.2924L27.6784 37.0702ZM28.1208 38.529C28.1208 38.0097 27.9669 37.502 27.6784 37.0702L27.3458 37.2924C27.5903 37.6584 27.7208 38.0888 27.7208 38.529H28.1208ZM27.921 39.5339C28.0529 39.2153 28.1208 38.8738 28.1208 38.529H27.7208C27.7208 38.8213 27.6633 39.1108 27.5514 39.3808L27.921 39.5339ZM27.3519 40.3857C27.5957 40.1419 27.789 39.8524 27.921 39.5339L27.5514 39.3808C27.4396 39.6509 27.2756 39.8962 27.069 40.1029L27.3519 40.3857ZM26.5001 40.955C26.8186 40.823 27.1081 40.6296 27.3519 40.3857L27.069 40.1029C26.8623 40.3096 26.617 40.4736 26.347 40.5854L26.5001 40.955ZM25.4954 41.1548C25.8401 41.1548 26.1816 41.0869 26.5001 40.955L26.347 40.5854C26.077 40.6973 25.7876 40.7548 25.4954 40.7548V41.1548ZM51.5046 34.9225C50.7812 34.9225 50.0741 35.1371 49.4726 35.539L49.6948 35.8716C50.2305 35.5136 50.8603 35.3225 51.5046 35.3225V34.9225ZM52.9043 35.201C52.4606 35.0171 51.985 34.9225 51.5046 34.9225V35.3225C51.9324 35.3225 52.356 35.4068 52.7512 35.5705L52.9043 35.201ZM54.0909 35.994C53.7513 35.6543 53.3481 35.3848 52.9043 35.201L52.7512 35.5705C53.1465 35.7342 53.5056 35.9742 53.8081 36.2768L54.0909 35.994ZM54.8838 37.1807C54.7 36.7369 54.4306 36.3336 54.0909 35.994L53.8081 36.2768C54.1106 36.5793 54.3505 36.9385 54.5142 37.3338L54.8838 37.1807ZM55.1622 38.5806C55.1622 38.1002 55.0676 37.6245 54.8838 37.1807L54.5142 37.3338C54.678 37.7291 54.7622 38.1528 54.7622 38.5806H55.1622ZM54.5458 40.6129C54.9477 40.0114 55.1622 39.3041 55.1622 38.5806H54.7622C54.7622 39.225 54.5712 39.8549 54.2132 40.3907L54.5458 40.6129ZM52.9043 41.9603C53.5727 41.6834 54.1439 41.2145 54.5458 40.6129L54.2132 40.3907C53.8553 40.9265 53.3465 41.3441 52.7512 41.5907L52.9043 41.9603ZM50.7911 42.1684C51.5006 42.3096 52.236 42.2371 52.9043 41.9603L52.7512 41.5907C52.156 41.8373 51.501 41.9018 50.8691 41.7761L50.7911 42.1684ZM48.9183 41.1673C49.4298 41.6789 50.0816 42.0273 50.7911 42.1684L50.8691 41.7761C50.2372 41.6504 49.6568 41.3401 49.2012 40.8845L48.9183 41.1673ZM47.9173 39.2943C48.0585 40.0039 48.4068 40.6557 48.9183 41.1673L49.2012 40.8845C48.7456 40.4288 48.4353 39.8483 48.3096 39.2163L47.9173 39.2943ZM48.1255 37.1807C47.8486 37.8492 47.7762 38.5847 47.9173 39.2943L48.3096 39.2163C48.1839 38.5842 48.2485 37.9291 48.495 37.3338L48.1255 37.1807ZM49.4726 35.539C48.8711 35.941 48.4023 36.5123 48.1255 37.1807L48.495 37.3338C48.7416 36.7384 49.1591 36.2296 49.6948 35.8716L49.4726 35.539ZM51.5046 40.7548C51.0645 40.7548 50.6342 40.6243 50.2682 40.3797L50.046 40.7123C50.4777 41.0008 50.9854 41.1548 51.5046 41.1548V40.7548ZM52.3563 40.5854C52.0863 40.6973 51.7969 40.7548 51.5046 40.7548V41.1548C51.8494 41.1548 52.1908 41.0869 52.5094 40.955L52.3563 40.5854ZM53.0783 40.1029C52.8716 40.3096 52.6263 40.4736 52.3563 40.5854L52.5094 40.955C52.8279 40.823 53.1173 40.6296 53.3611 40.3857L53.0783 40.1029ZM53.5607 39.3808C53.4489 39.6509 53.2849 39.8962 53.0783 40.1029L53.3611 40.3857C53.6049 40.1419 53.7983 39.8524 53.9303 39.5339L53.5607 39.3808ZM53.7301 38.529C53.7301 38.8213 53.6725 39.1108 53.5607 39.3808L53.9303 39.5339C54.0622 39.2153 54.1301 38.8738 54.1301 38.529H53.7301ZM53.355 37.2924C53.5996 37.6584 53.7301 38.0888 53.7301 38.529H54.1301C54.1301 38.0097 53.9761 37.502 53.6876 37.0702L53.355 37.2924ZM52.3563 36.4726C52.7629 36.6411 53.1105 36.9263 53.355 37.2924L53.6876 37.0702C53.3992 36.6384 52.9891 36.3018 52.5094 36.103L52.3563 36.4726ZM51.0705 36.3459C51.5022 36.2601 51.9496 36.3041 52.3563 36.4726L52.5094 36.103C52.0296 35.9043 51.5017 35.8523 50.9924 35.9536L51.0705 36.3459ZM49.931 36.9551C50.2422 36.6438 50.6388 36.4318 51.0705 36.3459L50.9924 35.9536C50.4831 36.0549 50.0153 36.305 49.6481 36.6723L49.931 36.9551ZM49.3219 38.0948C49.4078 37.663 49.6198 37.2664 49.931 36.9551L49.6481 36.6723C49.281 37.0395 49.0309 37.5074 48.9296 38.0167L49.3219 38.0948ZM49.4486 39.3808C49.2801 38.9741 49.2361 38.5265 49.3219 38.0948L48.9296 38.0167C48.8283 38.5261 48.8803 39.0541 49.079 39.5339L49.4486 39.3808ZM50.2682 40.3797C49.9023 40.1352 49.617 39.7875 49.4486 39.3808L49.079 39.5339C49.2777 40.0137 49.6142 40.4238 50.046 40.7123L50.2682 40.3797ZM33.9587 38.2129H43.0413V37.8129H33.9587V38.2129ZM33.7353 38.3055C33.7945 38.2462 33.8749 38.2129 33.9587 38.2129V37.8129C33.7688 37.8129 33.5867 37.8884 33.4524 38.0227L33.7353 38.3055ZM33.6427 38.5291C33.6427 38.4452 33.676 38.3648 33.7353 38.3055L33.4524 38.0227C33.3181 38.157 33.2427 38.3392 33.2427 38.5291H33.6427ZM33.7353 38.7527C33.676 38.6934 33.6427 38.613 33.6427 38.5291H33.2427C33.2427 38.719 33.3181 38.9012 33.4524 39.0355L33.7353 38.7527ZM33.9587 38.8453C33.8749 38.8453 33.7945 38.812 33.7353 38.7527L33.4524 39.0355C33.5867 39.1699 33.7688 39.2453 33.9587 39.2453V38.8453ZM43.0413 38.8453H33.9587V39.2453H43.0413V38.8453ZM43.2648 38.7527C43.2055 38.812 43.1251 38.8453 43.0413 38.8453V39.2453C43.2313 39.2453 43.4134 39.1699 43.5477 39.0355L43.2648 38.7527ZM43.3574 38.5291C43.3574 38.613 43.3241 38.6934 43.2648 38.7527L43.5477 39.0355C43.682 38.9012 43.7574 38.719 43.7574 38.5291H43.3574ZM43.2648 38.3055C43.3241 38.3648 43.3574 38.4452 43.3574 38.5291H43.7574C43.7574 38.3392 43.682 38.157 43.5477 38.0227L43.2648 38.3055ZM43.0413 38.2129C43.1251 38.2129 43.2055 38.2462 43.2648 38.3055L43.5477 38.0227C43.4134 37.8884 43.2313 37.8129 43.0413 37.8129V38.2129ZM62.5419 30.4774V28.9806H62.1419V30.4774H62.5419ZM61.8787 32.0786C62.3033 31.6539 62.5419 31.0779 62.5419 30.4774H62.1419C62.1419 30.9719 61.9454 31.4461 61.5958 31.7958L61.8787 32.0786ZM60.2776 32.7419C60.8781 32.7419 61.4541 32.5033 61.8787 32.0786L61.5958 31.7958C61.2462 32.1455 60.772 32.3419 60.2776 32.3419V32.7419ZM58.7294 32.7419H60.2776V32.3419H58.7294V32.7419ZM60.2712 35.7929C60.2673 34.5226 59.7647 33.3046 58.8717 32.4013L58.5872 32.6825C59.4065 33.5113 59.8676 34.6287 59.8712 35.7942L60.2712 35.7929ZM60.2712 52.2067V35.7936H59.8712V52.2067H60.2712ZM59.7592 53.443C60.087 53.1151 60.2712 52.6704 60.2712 52.2067H59.8712C59.8712 52.5643 59.7292 52.9073 59.4763 53.1602L59.7592 53.443ZM58.523 53.9551C58.9867 53.9551 59.4313 53.7709 59.7592 53.443L59.4763 53.1602C59.2235 53.4131 58.8806 53.5551 58.523 53.5551V53.9551ZM52.9496 53.9551H58.523V53.5551H52.9496V53.9551ZM51.7134 53.443C52.0413 53.7709 52.4859 53.9551 52.9496 53.9551V53.5551C52.5921 53.5551 52.2491 53.4131 51.9963 53.1602L51.7134 53.443ZM51.2014 52.2067C51.2014 52.6704 51.3856 53.1151 51.7134 53.443L51.9963 53.1602C51.7435 52.9073 51.6014 52.5643 51.6014 52.2067H51.2014ZM51.2014 46.7873V52.2067H51.6014V46.7873H51.2014ZM25.5986 46.9873H51.4014V46.5873H25.5986V46.9873ZM25.7986 52.2067V46.7873H25.3986V52.2067H25.7986ZM25.2865 53.443C25.6144 53.1151 25.7986 52.6704 25.7986 52.2067H25.3986C25.3986 52.5643 25.2565 52.9073 25.0037 53.1602L25.2865 53.443ZM24.0504 53.9551C24.514 53.9551 24.9587 53.7709 25.2865 53.443L25.0037 53.1602C24.7508 53.4131 24.4079 53.5551 24.0504 53.5551V53.9551ZM18.477 53.9551H24.0504V53.5551H18.477V53.9551ZM17.2408 53.443C17.5686 53.7709 18.0133 53.9551 18.477 53.9551V53.5551C18.1194 53.5551 17.7765 53.4131 17.5237 53.1602L17.2408 53.443ZM16.7288 52.2067C16.7288 52.6704 16.913 53.1151 17.2408 53.443L17.5237 53.1602C17.2708 52.9073 17.1288 52.5643 17.1288 52.2067H16.7288ZM16.7288 36V52.2067H17.1288V36H16.7288ZM17.1518 34.0242C16.8735 34.6457 16.7294 35.3189 16.7288 35.9998L17.1288 36.0002C17.1294 35.3754 17.2616 34.7578 17.5169 34.1876L17.1518 34.0242ZM18.3436 32.3928C17.8361 32.8468 17.43 33.4027 17.1518 34.0242L17.5169 34.1876C17.7721 33.6174 18.1447 33.1075 18.6103 32.691L18.3436 32.3928ZM16.7224 32.7419H18.477V32.3419H16.7224V32.7419ZM15.1213 32.0786C15.5459 32.5033 16.1218 32.7419 16.7224 32.7419V32.3419C16.2279 32.3419 15.7538 32.1455 15.4042 31.7958L15.1213 32.0786ZM14.4581 30.4774C14.4581 31.0779 14.6967 31.6539 15.1213 32.0786L15.4042 31.7958C15.0545 31.4461 14.8581 30.9719 14.8581 30.4774H14.4581ZM14.4581 28.9806V30.4774H14.8581V28.9806H14.4581ZM15.1213 27.3793C14.6967 27.804 14.4581 28.38 14.4581 28.9806H14.8581C14.8581 28.486 15.0545 28.0118 15.4042 27.6621L15.1213 27.3793ZM16.7224 26.716C16.1218 26.716 15.5459 26.9546 15.1213 27.3793L15.4042 27.6621C15.7538 27.3124 16.2279 27.116 16.7224 27.116V26.716ZM22.4506 26.716H16.7224V27.116H22.4506V26.716ZM24.4812 20.6038L22.2621 26.849L22.6391 26.983L24.8581 20.7377L24.4812 20.6038ZM25.87 18.752C25.226 19.2106 24.7405 19.8582 24.4808 20.6051L24.8585 20.7365C25.0911 20.068 25.5256 19.4883 26.1021 19.0778L25.87 18.752ZM28.0753 18.0449C27.2847 18.0462 26.514 18.2933 25.87 18.752L26.1021 19.0778C26.6785 18.6672 27.3683 18.4461 28.076 18.4449L28.0753 18.0449ZM48.7179 18.0449H28.0756V18.4449H48.7179V18.0449ZM50.8016 18.6701C50.1826 18.2638 49.4587 18.0466 48.7184 18.0449L48.7175 18.4449C49.3802 18.4464 50.0281 18.6408 50.5821 19.0045L50.8016 18.6701ZM52.204 20.3327C51.9079 19.6541 51.4206 19.0763 50.8016 18.6701L50.5821 19.0045C51.1361 19.3681 51.5723 19.8852 51.8374 20.4927L52.204 20.3327ZM55.0934 26.8348L52.2035 20.3315L51.8379 20.4939L54.7279 26.9972L55.0934 26.8348ZM60.2776 26.716H54.9106V27.116H60.2776V26.716ZM61.8787 27.3793C61.4541 26.9546 60.8781 26.716 60.2776 26.716V27.116C60.772 27.116 61.2462 27.3124 61.5958 27.6621L61.8787 27.3793ZM62.5419 28.9806C62.5419 28.38 62.3033 27.804 61.8787 27.3793L61.5958 27.6621C61.9454 28.0118 62.1419 28.486 62.1419 28.9806H62.5419ZM60.2776 28.1483C60.4983 28.1483 60.71 28.236 60.866 28.392L61.1489 28.1092C60.9178 27.8781 60.6044 27.7483 60.2776 27.7483V28.1483ZM55.4267 28.1483H60.2776V27.7483H55.4267V28.1483ZM56.6936 30.3456L55.6099 27.8681L55.2434 28.0284L56.3272 30.5059L56.6936 30.3456ZM56.7104 30.5806V30.4257H56.3104V30.5806H56.7104ZM57.7243 31.3578L56.6406 30.4287L56.3802 30.7324L57.464 31.6615L57.7243 31.3578ZM60.2776 31.3096H57.5941V31.7096H60.2776V31.3096ZM60.866 31.0659C60.71 31.2219 60.4983 31.3096 60.2776 31.3096V31.7096C60.6044 31.7096 60.9178 31.5798 61.1489 31.3487L60.866 31.0659ZM61.1097 30.4774C61.1097 30.6981 61.0221 30.9098 60.866 31.0659L61.1489 31.3487C61.3799 31.1176 61.5097 30.8042 61.5097 30.4774H61.1097ZM61.1097 28.9806V30.4774H61.5097V28.9806H61.1097ZM60.866 28.392C61.0221 28.5481 61.1097 28.7598 61.1097 28.9806H61.5097C61.5097 28.6537 61.3799 28.3403 61.1489 28.1092L60.866 28.392ZM25.8382 21.0484C26.0046 20.5883 26.3086 20.1906 26.709 19.9095L26.4791 19.5821C26.0114 19.9105 25.6563 20.375 25.4621 20.9124L25.8382 21.0484ZM22.5874 30.1831L25.8386 21.0475L25.4617 20.9134L22.2106 30.049L22.5874 30.1831ZM55.2203 29.9161H22.399V30.3161H55.2203V29.9161ZM50.909 20.9068L55.0375 30.1973L55.403 30.0348L51.2746 20.7444L50.909 20.9068ZM50.0272 19.8638C50.4163 20.1176 50.7227 20.4797 50.9085 20.9056L51.2751 20.7456C51.0581 20.2482 50.7002 19.8252 50.2457 19.5287L50.0272 19.8638ZM48.7186 19.4772C49.1832 19.4756 49.6381 19.6099 50.0272 19.8638L50.2457 19.5287C49.7912 19.2323 49.2599 19.0753 48.7172 19.0772L48.7186 19.4772ZM28.0756 19.4772H48.7179V19.0772H28.0756V19.4772ZM26.709 19.9095C27.1093 19.6283 27.5865 19.4774 28.0757 19.4772L28.0755 19.0772C27.5042 19.0774 26.9467 19.2537 26.4791 19.5821L26.709 19.9095ZM15.8902 30.4774V28.9806H15.4902V30.4774H15.8902ZM15.969 30.7831C15.9222 30.6842 15.8953 30.577 15.89 30.4676L15.4905 30.4871C15.4984 30.649 15.5381 30.8077 15.6074 30.9542L15.969 30.7831ZM16.1629 31.0443C16.0817 30.9708 16.0158 30.8821 15.969 30.7831L15.6074 30.9542C15.6768 31.1007 15.7743 31.2321 15.8945 31.3409L16.1629 31.0443ZM16.442 31.2111C16.3389 31.1744 16.244 31.1177 16.1629 31.0443L15.8945 31.3409C16.0147 31.4496 16.1551 31.5336 16.3078 31.5879L16.442 31.2111ZM16.7637 31.2583C16.6544 31.2639 16.5451 31.2479 16.442 31.2111L16.3078 31.5879C16.4605 31.6423 16.6224 31.666 16.7842 31.6577L16.7637 31.2583ZM19.8703 31.258H16.774V31.658H19.8703V31.258ZM21.094 30.3159L19.7523 31.2965L19.9883 31.6195L21.3301 30.6388L21.094 30.3159ZM21.9004 27.8827L21.0231 30.4118L21.401 30.5429L22.2783 28.0138L21.9004 27.8827ZM16.7224 28.1483H22.0894V27.7483H16.7224V28.1483ZM16.134 28.392C16.29 28.236 16.5017 28.1483 16.7224 28.1483V27.7483C16.3956 27.7483 16.0822 27.8781 15.8511 28.1092L16.134 28.392ZM15.8902 28.9806C15.8902 28.7598 15.9779 28.5481 16.134 28.392L15.8511 28.1092C15.6201 28.3403 15.4902 28.6537 15.4902 28.9806H15.8902ZM24.3664 52.2067C24.3664 52.2906 24.3331 52.371 24.2739 52.4303L24.5567 52.7131C24.691 52.5788 24.7664 52.3966 24.7664 52.2067H24.3664ZM24.3664 46.7873V52.2067H24.7664V46.7873H24.3664ZM17.9609 46.9873H24.5664V46.5873H17.9609V46.9873ZM18.1609 52.2067V46.7873H17.7609V52.2067H18.1609ZM18.2535 52.4303C18.1942 52.371 18.1609 52.2906 18.1609 52.2067H17.7609C17.7609 52.3966 17.8363 52.5788 17.9706 52.7131L18.2535 52.4303ZM18.477 52.5228C18.3931 52.5228 18.3128 52.4895 18.2535 52.4303L17.9706 52.7131C18.1049 52.8474 18.287 52.9228 18.477 52.9228V52.5228ZM24.0504 52.5228H18.477V52.9228H24.0504V52.5228ZM24.2739 52.4303C24.2146 52.4895 24.1342 52.5228 24.0504 52.5228V52.9228C24.2403 52.9228 24.4224 52.8474 24.5567 52.7131L24.2739 52.4303ZM58.523 52.5228H52.9496V52.9228H58.523V52.5228ZM58.7465 52.4303C58.6872 52.4895 58.6068 52.5228 58.523 52.5228V52.9228C58.7129 52.9228 58.8951 52.8474 59.0294 52.7131L58.7465 52.4303ZM58.8391 52.2067C58.8391 52.2906 58.8058 52.371 58.7465 52.4303L59.0294 52.7131C59.1636 52.5788 59.2391 52.3966 59.2391 52.2067H58.8391ZM58.8391 46.7873V52.2067H59.2391V46.7873H58.8391ZM52.4335 46.9873H59.0391V46.5873H52.4335V46.9873ZM52.6335 52.2067V46.7873H52.2335V52.2067H52.6335ZM52.7261 52.4303C52.6669 52.371 52.6335 52.2906 52.6335 52.2067H52.2335C52.2335 52.3966 52.309 52.5788 52.4433 52.7131L52.7261 52.4303ZM52.9496 52.5228C52.8658 52.5228 52.7854 52.4895 52.7261 52.4302L52.4433 52.7131C52.5776 52.8474 52.7597 52.9228 52.9496 52.9228V52.5228ZM58.8391 35.7936V45.755H59.2391V35.7936H58.8391ZM58.5352 34.3735C58.7371 34.8194 58.8407 35.3034 58.8391 35.7929L59.2391 35.7942C59.2409 35.2474 59.1252 34.7066 58.8996 34.2085L58.5352 34.3735ZM57.6691 33.2088C58.038 33.5304 58.3334 33.9276 58.5352 34.3735L58.8996 34.2085C58.6741 33.7104 58.3441 33.2666 57.932 32.9073L57.6691 33.2088ZM55.451 31.2999L57.6701 33.2096L57.931 32.9064L55.712 30.9967L55.451 31.2999ZM22.0894 31.3483H55.5815V30.9483H22.0894V31.3483ZM19.5749 33.2199L22.2068 31.3102L21.9719 30.9865L19.34 32.8962L19.5749 33.2199ZM18.5319 34.4388C18.7777 33.9555 19.1352 33.5377 19.5746 33.2201L19.3403 32.8959C18.8494 33.2508 18.45 33.7175 18.1754 34.2574L18.5319 34.4388ZM18.1609 35.9993C18.1589 35.457 18.286 34.9221 18.5319 34.4388L18.1754 34.2574C17.9007 34.7973 17.7586 35.395 17.7609 36.0008L18.1609 35.9993ZM18.1609 45.755V36H17.7609V45.755H18.1609ZM59.0391 45.555H17.9609V45.955H59.0391V45.555Z" fill="url(#paint1_linear)" mask="url(#path-1-outside-1)"/>
<defs>
<linearGradient id="paint0_linear" x1="35.6159" y1="136.677" x2="43.7063" y2="-50.0563" gradientUnits="userSpaceOnUse">
<stop stop-color="#F3B341"/>
<stop offset="0.00561523" stop-color="#F3B341"/>
<stop offset="0.1991" stop-color="#EB8740"/>
<stop offset="0.33" stop-color="#E7663E"/>
<stop offset="0.66" stop-color="#DF3661"/>
<stop offset="0.7322" stop-color="#D33768"/>
<stop offset="0.8742" stop-color="#B4387A"/>
<stop offset="1" stop-color="#943A8C"/>
</linearGradient>
<linearGradient id="paint1_linear" x1="35.6159" y1="136.677" x2="43.7063" y2="-50.0563" gradientUnits="userSpaceOnUse">
<stop stop-color="#F3B341"/>
<stop offset="0.00561523" stop-color="#F3B341"/>
<stop offset="0.1991" stop-color="#EB8740"/>
<stop offset="0.33" stop-color="#E7663E"/>
<stop offset="0.66" stop-color="#DF3661"/>
<stop offset="0.7322" stop-color="#D33768"/>
<stop offset="0.8742" stop-color="#B4387A"/>
<stop offset="1" stop-color="#943A8C"/>
</linearGradient>
</defs>
</svg>
