<svg width="77" height="72" viewBox="0 0 77 72" fill="none" xmlns="http://www.w3.org/2000/svg">
<mask id="path-1-outside-1" maskUnits="userSpaceOnUse" x="0" y="0" width="77" height="72" fill="black">
<rect fill="white" width="77" height="72"/>
<path fill-rule="evenodd" clip-rule="evenodd" d="M1 38.5057C1 38.7736 1.21708 38.9907 1.48491 38.9907C1.75275 38.9907 1.96983 38.7736 1.96983 38.5057C1.96983 18.3598 18.3572 1.96998 38.5 1.96998C38.7677 1.96998 38.9849 1.75286 38.9849 1.48499C38.9849 1.21711 38.7678 1 38.5 1C28.5027 1 19.096 4.88977 12.0127 11.9526C4.91099 19.0341 1 28.4641 1 38.5057ZM23.5688 66.9051C23.6399 66.942 23.7159 66.9593 23.7907 66.9593C23.9664 66.9593 24.136 66.8632 24.2219 66.6966C24.3446 66.4584 24.2512 66.166 24.0131 66.0433C13.507 60.6252 6.98051 49.9499 6.98051 38.1833C6.98051 20.8009 21.1201 6.6591 38.4999 6.6591C55.8797 6.6591 70.0193 20.8009 70.0193 38.1833C70.0193 49.6699 63.6744 60.2855 53.4608 65.8873C53.2259 66.0161 53.1401 66.311 53.2688 66.5457C53.3976 66.7805 53.6924 66.8666 53.9271 66.7378C64.4515 60.9655 70.9893 50.024 70.9893 38.1832C70.9893 20.2658 56.4147 5.68896 38.5001 5.68896C20.5854 5.68896 6.01085 20.2658 6.01085 38.1832C6.01085 50.3143 12.7387 61.32 23.5688 66.9051ZM36.8746 25.5682C36.7432 25.5682 36.6144 25.5047 36.536 25.3871C36.4115 25.2004 36.4621 24.9479 36.6488 24.8233L40.7138 22.1124C40.9005 21.988 41.153 22.0384 41.2774 22.2252C41.402 22.412 41.3514 22.6645 41.1647 22.7891L37.0997 25.4999C37.0305 25.5461 36.9522 25.5682 36.8746 25.5682ZM36.0614 28.279C35.9267 28.279 35.795 28.2121 35.7175 28.0898C35.5975 27.9002 35.6538 27.6489 35.8435 27.5287L39.9085 24.9534C40.0983 24.8331 40.3493 24.8896 40.4695 25.0794C40.5895 25.269 40.5332 25.5203 40.3435 25.6406L36.2785 28.2159C36.211 28.2587 36.1358 28.279 36.0614 28.279ZM56.9272 71C56.7591 71 56.5956 70.9124 56.5061 70.756C56.3729 70.5237 56.4532 70.2272 56.6855 70.094C68.001 63.6035 75.0301 51.4994 75.0301 38.5056C75.0301 38.2378 75.2472 38.0207 75.515 38.0207C75.7829 38.0207 75.9999 38.2378 75.9999 38.5056C75.9999 51.846 68.7839 64.2724 57.1678 70.9357C57.0919 70.9791 57.0089 71 56.9272 71ZM25.4954 35.1225C24.8116 35.1225 24.1431 35.3253 23.5745 35.7053C23.0059 36.0853 22.5627 36.6254 22.301 37.2573C22.0393 37.8891 21.9709 38.5845 22.1043 39.2553C22.2377 39.9261 22.567 40.5422 23.0505 41.0259C23.5341 41.5095 24.1502 41.8389 24.8209 41.9723C25.4916 42.1057 26.1868 42.0372 26.8186 41.7755C27.4504 41.5138 27.9904 41.0705 28.3703 40.5018C28.7502 39.9332 28.953 39.2646 28.953 38.5806C28.953 38.1265 28.8636 37.6768 28.6898 37.2573C28.5161 36.8377 28.2614 36.4565 27.9403 36.1354C27.6192 35.8142 27.2381 35.5595 26.8186 35.3857C26.3991 35.212 25.9495 35.1225 25.4954 35.1225ZM25.4954 40.9548C25.0157 40.9548 24.5468 40.8126 24.1479 40.546C23.749 40.2795 23.4382 39.9006 23.2546 39.4573C23.071 39.0141 23.023 38.5263 23.1166 38.0557C23.2102 37.5852 23.4412 37.1529 23.7804 36.8137C24.1196 36.4744 24.5517 36.2434 25.0222 36.1498C25.4927 36.0562 25.9804 36.1042 26.4236 36.2878C26.8668 36.4714 27.2456 36.7824 27.5121 37.1813C27.7786 37.5802 27.9209 38.0492 27.9209 38.529C27.9209 38.8476 27.8582 39.163 27.7363 39.4573C27.6144 39.7517 27.4357 40.0191 27.2105 40.2443C26.9853 40.4696 26.7179 40.6483 26.4236 40.7702C26.1293 40.8921 25.8139 40.9548 25.4954 40.9548ZM49.5838 35.7053C50.1524 35.3253 50.8209 35.1225 51.5047 35.1225C51.9588 35.1225 52.4084 35.212 52.8279 35.3857C53.2474 35.5595 53.6285 35.8142 53.9496 36.1354C54.2707 36.4565 54.5253 36.8377 54.6991 37.2573C54.8729 37.6768 54.9623 38.1265 54.9623 38.5806C54.9623 39.2646 54.7595 39.9332 54.3796 40.5018C53.9997 41.0705 53.4597 41.5138 52.8279 41.7755C52.1961 42.0372 51.5009 42.1057 50.8302 41.9723C50.1595 41.8389 49.5434 41.5095 49.0598 41.0259C48.5763 40.5422 48.247 39.9261 48.1136 39.2553C47.9801 38.5845 48.0486 37.8891 48.3103 37.2573C48.572 36.6254 49.0152 36.0853 49.5838 35.7053ZM50.1572 40.546C50.5561 40.8126 51.025 40.9548 51.5047 40.9548C51.8232 40.9548 52.1386 40.8921 52.4329 40.7702C52.7272 40.6483 52.9945 40.4696 53.2198 40.2443C53.445 40.0191 53.6237 39.7517 53.7456 39.4573C53.8674 39.163 53.9302 38.8476 53.9302 38.529C53.9302 38.0492 53.7879 37.5802 53.5214 37.1813C53.2549 36.7824 52.8761 36.4714 52.4329 36.2878C51.9897 36.1042 51.502 36.0562 51.0315 36.1498C50.561 36.2434 50.1288 36.4744 49.7896 36.8137C49.4504 37.1529 49.2194 37.5852 49.1258 38.0557C49.0323 38.5263 49.0803 39.0141 49.2639 39.4573C49.4474 39.9006 49.7583 40.2795 50.1572 40.546ZM43.0414 38.0129H33.9588C33.8219 38.0129 33.6907 38.0673 33.5939 38.1641C33.4971 38.2609 33.4427 38.3922 33.4427 38.5291C33.4427 38.666 33.4971 38.7973 33.5939 38.8941C33.6907 38.9909 33.8219 39.0453 33.9588 39.0453H43.0414C43.1783 39.0453 43.3095 38.9909 43.4063 38.8941C43.5031 38.7973 43.5575 38.666 43.5575 38.5291C43.5575 38.3922 43.5031 38.2609 43.4063 38.1641C43.3095 38.0673 43.1783 38.0129 43.0414 38.0129ZM62.3419 28.9806V30.4774C62.3419 31.0249 62.1244 31.55 61.7373 31.9372C61.3502 32.3244 60.8252 32.5419 60.2777 32.5419H58.7295C59.5857 33.408 60.0675 34.5757 60.0713 35.7936V52.2067C60.0713 52.6174 59.9082 53.0112 59.6178 53.3016C59.3275 53.592 58.9337 53.7551 58.5231 53.7551H52.9497C52.5391 53.7551 52.1453 53.592 51.8549 53.3016C51.5646 53.0112 51.4015 52.6174 51.4015 52.2067V46.7873H25.5986V52.2067C25.5986 52.6174 25.4355 53.0112 25.1452 53.3016C24.8548 53.592 24.4611 53.7551 24.0505 53.7551H18.477C18.0664 53.7551 17.6726 53.592 17.3823 53.3016C17.092 53.0112 16.9289 52.6174 16.9289 52.2067V36C16.9295 35.3472 17.0676 34.7018 17.3344 34.1059C17.6012 33.5101 17.9905 32.9771 18.477 32.5419H16.7224C16.175 32.5419 15.6499 32.3244 15.2628 31.9372C14.8757 31.55 14.6582 31.0249 14.6582 30.4774V28.9806C14.6582 28.433 14.8757 27.9079 15.2628 27.5207C15.6499 27.1335 16.175 26.916 16.7224 26.916H22.4507L24.6697 20.6708C24.9159 19.9631 25.3759 19.3495 25.9861 18.9149C26.5963 18.4803 27.3266 18.2461 28.0757 18.2449H48.718C49.4195 18.2465 50.1054 18.4523 50.6919 18.8373C51.2784 19.2222 51.7402 19.7696 52.0208 20.4127L54.9107 26.916H60.2777C60.8252 26.916 61.3502 27.1335 61.7373 27.5207C62.1244 27.9079 62.3419 28.433 62.3419 28.9806ZM61.0075 28.2506C60.8139 28.057 60.5514 27.9483 60.2777 27.9483H55.4268L56.5105 30.4257V30.5806L57.5942 31.5096H60.2777C60.5514 31.5096 60.8139 31.4009 61.0075 31.2073C61.2011 31.0137 61.3098 30.7511 61.3098 30.4774V28.9806C61.3098 28.7068 61.2011 28.4442 61.0075 28.2506ZM26.5941 19.7458C26.1601 20.0506 25.8305 20.4817 25.6502 20.9804L22.3991 30.1161H55.2203L51.0919 20.8256C50.8904 20.364 50.5583 19.9714 50.1365 19.6962C49.7147 19.4211 49.2216 19.2754 48.718 19.2772H28.0757C27.5454 19.2774 27.0281 19.441 26.5941 19.7458ZM15.6903 28.9806V30.4774C15.6969 30.613 15.7302 30.7459 15.7883 30.8687C15.8464 30.9914 15.9281 31.1015 16.0287 31.1926C16.1294 31.2837 16.2471 31.354 16.375 31.3995C16.5028 31.4451 16.6385 31.465 16.774 31.458H19.8704L21.2121 30.4774L22.0894 27.9483H16.7224C16.4487 27.9483 16.1862 28.057 15.9926 28.2506C15.7991 28.4442 15.6903 28.7068 15.6903 28.9806ZM24.4154 52.5717C24.5121 52.4749 24.5665 52.3436 24.5665 52.2067V46.7873H17.961V52.2067C17.961 52.3436 18.0153 52.4749 18.1121 52.5717C18.2089 52.6685 18.3402 52.7228 18.477 52.7228H24.0505C24.1873 52.7228 24.3186 52.6685 24.4154 52.5717ZM52.9497 52.7228H58.5231C58.66 52.7228 58.7912 52.6685 58.888 52.5717C58.9848 52.4749 59.0392 52.3436 59.0392 52.2067V46.7873H52.4336V52.2067C52.4336 52.3436 52.488 52.4749 52.5848 52.5717C52.6815 52.6685 52.8128 52.7228 52.9497 52.7228ZM59.0392 45.755V35.7936C59.0409 35.2754 58.9312 34.763 58.7175 34.291C58.5038 33.819 58.1911 33.3985 57.8006 33.058L55.5816 31.1483H22.0894L19.4575 33.058C18.9923 33.3942 18.614 33.8365 18.3537 34.3481C18.0934 34.8597 17.9588 35.426 17.961 36V45.755H59.0392Z"/>
</mask>
<path fill-rule="evenodd" clip-rule="evenodd" d="M1 38.5057C1 38.7736 1.21708 38.9907 1.48491 38.9907C1.75275 38.9907 1.96983 38.7736 1.96983 38.5057C1.96983 18.3598 18.3572 1.96998 38.5 1.96998C38.7677 1.96998 38.9849 1.75286 38.9849 1.48499C38.9849 1.21711 38.7678 1 38.5 1C28.5027 1 19.096 4.88977 12.0127 11.9526C4.91099 19.0341 1 28.4641 1 38.5057ZM23.5688 66.9051C23.6399 66.942 23.7159 66.9593 23.7907 66.9593C23.9664 66.9593 24.136 66.8632 24.2219 66.6966C24.3446 66.4584 24.2512 66.166 24.0131 66.0433C13.507 60.6252 6.98051 49.9499 6.98051 38.1833C6.98051 20.8009 21.1201 6.6591 38.4999 6.6591C55.8797 6.6591 70.0193 20.8009 70.0193 38.1833C70.0193 49.6699 63.6744 60.2855 53.4608 65.8873C53.2259 66.0161 53.1401 66.311 53.2688 66.5457C53.3976 66.7805 53.6924 66.8666 53.9271 66.7378C64.4515 60.9655 70.9893 50.024 70.9893 38.1832C70.9893 20.2658 56.4147 5.68896 38.5001 5.68896C20.5854 5.68896 6.01085 20.2658 6.01085 38.1832C6.01085 50.3143 12.7387 61.32 23.5688 66.9051ZM36.8746 25.5682C36.7432 25.5682 36.6144 25.5047 36.536 25.3871C36.4115 25.2004 36.4621 24.9479 36.6488 24.8233L40.7138 22.1124C40.9005 21.988 41.153 22.0384 41.2774 22.2252C41.402 22.412 41.3514 22.6645 41.1647 22.7891L37.0997 25.4999C37.0305 25.5461 36.9522 25.5682 36.8746 25.5682ZM36.0614 28.279C35.9267 28.279 35.795 28.2121 35.7175 28.0898C35.5975 27.9002 35.6538 27.6489 35.8435 27.5287L39.9085 24.9534C40.0983 24.8331 40.3493 24.8896 40.4695 25.0794C40.5895 25.269 40.5332 25.5203 40.3435 25.6406L36.2785 28.2159C36.211 28.2587 36.1358 28.279 36.0614 28.279ZM56.9272 71C56.7591 71 56.5956 70.9124 56.5061 70.756C56.3729 70.5237 56.4532 70.2272 56.6855 70.094C68.001 63.6035 75.0301 51.4994 75.0301 38.5056C75.0301 38.2378 75.2472 38.0207 75.515 38.0207C75.7829 38.0207 75.9999 38.2378 75.9999 38.5056C75.9999 51.846 68.7839 64.2724 57.1678 70.9357C57.0919 70.9791 57.0089 71 56.9272 71ZM25.4954 35.1225C24.8116 35.1225 24.1431 35.3253 23.5745 35.7053C23.0059 36.0853 22.5627 36.6254 22.301 37.2573C22.0393 37.8891 21.9709 38.5845 22.1043 39.2553C22.2377 39.9261 22.567 40.5422 23.0505 41.0259C23.5341 41.5095 24.1502 41.8389 24.8209 41.9723C25.4916 42.1057 26.1868 42.0372 26.8186 41.7755C27.4504 41.5138 27.9904 41.0705 28.3703 40.5018C28.7502 39.9332 28.953 39.2646 28.953 38.5806C28.953 38.1265 28.8636 37.6768 28.6898 37.2573C28.5161 36.8377 28.2614 36.4565 27.9403 36.1354C27.6192 35.8142 27.2381 35.5595 26.8186 35.3857C26.3991 35.212 25.9495 35.1225 25.4954 35.1225ZM25.4954 40.9548C25.0157 40.9548 24.5468 40.8126 24.1479 40.546C23.749 40.2795 23.4382 39.9006 23.2546 39.4573C23.071 39.0141 23.023 38.5263 23.1166 38.0557C23.2102 37.5852 23.4412 37.1529 23.7804 36.8137C24.1196 36.4744 24.5517 36.2434 25.0222 36.1498C25.4927 36.0562 25.9804 36.1042 26.4236 36.2878C26.8668 36.4714 27.2456 36.7824 27.5121 37.1813C27.7786 37.5802 27.9209 38.0492 27.9209 38.529C27.9209 38.8476 27.8582 39.163 27.7363 39.4573C27.6144 39.7517 27.4357 40.0191 27.2105 40.2443C26.9853 40.4696 26.7179 40.6483 26.4236 40.7702C26.1293 40.8921 25.8139 40.9548 25.4954 40.9548ZM49.5838 35.7053C50.1524 35.3253 50.8209 35.1225 51.5047 35.1225C51.9588 35.1225 52.4084 35.212 52.8279 35.3857C53.2474 35.5595 53.6285 35.8142 53.9496 36.1354C54.2707 36.4565 54.5253 36.8377 54.6991 37.2573C54.8729 37.6768 54.9623 38.1265 54.9623 38.5806C54.9623 39.2646 54.7595 39.9332 54.3796 40.5018C53.9997 41.0705 53.4597 41.5138 52.8279 41.7755C52.1961 42.0372 51.5009 42.1057 50.8302 41.9723C50.1595 41.8389 49.5434 41.5095 49.0598 41.0259C48.5763 40.5422 48.247 39.9261 48.1136 39.2553C47.9801 38.5845 48.0486 37.8891 48.3103 37.2573C48.572 36.6254 49.0152 36.0853 49.5838 35.7053ZM50.1572 40.546C50.5561 40.8126 51.025 40.9548 51.5047 40.9548C51.8232 40.9548 52.1386 40.8921 52.4329 40.7702C52.7272 40.6483 52.9945 40.4696 53.2198 40.2443C53.445 40.0191 53.6237 39.7517 53.7456 39.4573C53.8674 39.163 53.9302 38.8476 53.9302 38.529C53.9302 38.0492 53.7879 37.5802 53.5214 37.1813C53.2549 36.7824 52.8761 36.4714 52.4329 36.2878C51.9897 36.1042 51.502 36.0562 51.0315 36.1498C50.561 36.2434 50.1288 36.4744 49.7896 36.8137C49.4504 37.1529 49.2194 37.5852 49.1258 38.0557C49.0323 38.5263 49.0803 39.0141 49.2639 39.4573C49.4474 39.9006 49.7583 40.2795 50.1572 40.546ZM43.0414 38.0129H33.9588C33.8219 38.0129 33.6907 38.0673 33.5939 38.1641C33.4971 38.2609 33.4427 38.3922 33.4427 38.5291C33.4427 38.666 33.4971 38.7973 33.5939 38.8941C33.6907 38.9909 33.8219 39.0453 33.9588 39.0453H43.0414C43.1783 39.0453 43.3095 38.9909 43.4063 38.8941C43.5031 38.7973 43.5575 38.666 43.5575 38.5291C43.5575 38.3922 43.5031 38.2609 43.4063 38.1641C43.3095 38.0673 43.1783 38.0129 43.0414 38.0129ZM62.3419 28.9806V30.4774C62.3419 31.0249 62.1244 31.55 61.7373 31.9372C61.3502 32.3244 60.8252 32.5419 60.2777 32.5419H58.7295C59.5857 33.408 60.0675 34.5757 60.0713 35.7936V52.2067C60.0713 52.6174 59.9082 53.0112 59.6178 53.3016C59.3275 53.592 58.9337 53.7551 58.5231 53.7551H52.9497C52.5391 53.7551 52.1453 53.592 51.8549 53.3016C51.5646 53.0112 51.4015 52.6174 51.4015 52.2067V46.7873H25.5986V52.2067C25.5986 52.6174 25.4355 53.0112 25.1452 53.3016C24.8548 53.592 24.4611 53.7551 24.0505 53.7551H18.477C18.0664 53.7551 17.6726 53.592 17.3823 53.3016C17.092 53.0112 16.9289 52.6174 16.9289 52.2067V36C16.9295 35.3472 17.0676 34.7018 17.3344 34.1059C17.6012 33.5101 17.9905 32.9771 18.477 32.5419H16.7224C16.175 32.5419 15.6499 32.3244 15.2628 31.9372C14.8757 31.55 14.6582 31.0249 14.6582 30.4774V28.9806C14.6582 28.433 14.8757 27.9079 15.2628 27.5207C15.6499 27.1335 16.175 26.916 16.7224 26.916H22.4507L24.6697 20.6708C24.9159 19.9631 25.3759 19.3495 25.9861 18.9149C26.5963 18.4803 27.3266 18.2461 28.0757 18.2449H48.718C49.4195 18.2465 50.1054 18.4523 50.6919 18.8373C51.2784 19.2222 51.7402 19.7696 52.0208 20.4127L54.9107 26.916H60.2777C60.8252 26.916 61.3502 27.1335 61.7373 27.5207C62.1244 27.9079 62.3419 28.433 62.3419 28.9806ZM61.0075 28.2506C60.8139 28.057 60.5514 27.9483 60.2777 27.9483H55.4268L56.5105 30.4257V30.5806L57.5942 31.5096H60.2777C60.5514 31.5096 60.8139 31.4009 61.0075 31.2073C61.2011 31.0137 61.3098 30.7511 61.3098 30.4774V28.9806C61.3098 28.7068 61.2011 28.4442 61.0075 28.2506ZM26.5941 19.7458C26.1601 20.0506 25.8305 20.4817 25.6502 20.9804L22.3991 30.1161H55.2203L51.0919 20.8256C50.8904 20.364 50.5583 19.9714 50.1365 19.6962C49.7147 19.4211 49.2216 19.2754 48.718 19.2772H28.0757C27.5454 19.2774 27.0281 19.441 26.5941 19.7458ZM15.6903 28.9806V30.4774C15.6969 30.613 15.7302 30.7459 15.7883 30.8687C15.8464 30.9914 15.9281 31.1015 16.0287 31.1926C16.1294 31.2837 16.2471 31.354 16.375 31.3995C16.5028 31.4451 16.6385 31.465 16.774 31.458H19.8704L21.2121 30.4774L22.0894 27.9483H16.7224C16.4487 27.9483 16.1862 28.057 15.9926 28.2506C15.7991 28.4442 15.6903 28.7068 15.6903 28.9806ZM24.4154 52.5717C24.5121 52.4749 24.5665 52.3436 24.5665 52.2067V46.7873H17.961V52.2067C17.961 52.3436 18.0153 52.4749 18.1121 52.5717C18.2089 52.6685 18.3402 52.7228 18.477 52.7228H24.0505C24.1873 52.7228 24.3186 52.6685 24.4154 52.5717ZM52.9497 52.7228H58.5231C58.66 52.7228 58.7912 52.6685 58.888 52.5717C58.9848 52.4749 59.0392 52.3436 59.0392 52.2067V46.7873H52.4336V52.2067C52.4336 52.3436 52.488 52.4749 52.5848 52.5717C52.6815 52.6685 52.8128 52.7228 52.9497 52.7228ZM59.0392 45.755V35.7936C59.0409 35.2754 58.9312 34.763 58.7175 34.291C58.5038 33.819 58.1911 33.3985 57.8006 33.058L55.5816 31.1483H22.0894L19.4575 33.058C18.9923 33.3942 18.614 33.8365 18.3537 34.3481C18.0934 34.8597 17.9588 35.426 17.961 36V45.755H59.0392Z" fill="url(#paint0_linear)"/>
<path d="M1.96983 38.5057L2.16983 38.5057V38.5057H1.96983ZM12.0127 11.9526L11.8715 11.811L11.8715 11.811L12.0127 11.9526ZM23.5688 66.9051L23.6608 66.7275L23.6604 66.7274L23.5688 66.9051ZM24.2219 66.6966L24.3997 66.7883L24.3997 66.7882L24.2219 66.6966ZM24.0131 66.0433L23.9214 66.221L23.9215 66.2211L24.0131 66.0433ZM53.4608 65.8873L53.3646 65.7119L53.3646 65.7119L53.4608 65.8873ZM53.2688 66.5457L53.0934 66.6419L53.0934 66.642L53.2688 66.5457ZM53.9271 66.7378L53.8309 66.5624L53.8309 66.5625L53.9271 66.7378ZM36.536 25.3871L36.7025 25.2762L36.7024 25.2762L36.536 25.3871ZM36.6488 24.8233L36.5378 24.6569L36.5378 24.6569L36.6488 24.8233ZM40.7138 22.1124L40.6029 21.946L40.6028 21.946L40.7138 22.1124ZM41.2774 22.2252L41.111 22.3361L41.111 22.3361L41.2774 22.2252ZM41.1647 22.7891L41.2757 22.9555L41.2757 22.9554L41.1647 22.7891ZM37.0997 25.4999L36.9887 25.3335L36.9887 25.3336L37.0997 25.4999ZM35.7175 28.0898L35.5485 28.1968L35.5486 28.1969L35.7175 28.0898ZM35.8435 27.5287L35.7365 27.3597L35.7365 27.3597L35.8435 27.5287ZM39.9085 24.9534L39.8015 24.7844L39.8015 24.7844L39.9085 24.9534ZM40.4695 25.0794L40.6385 24.9724L40.6384 24.9724L40.4695 25.0794ZM40.3435 25.6406L40.4505 25.8095L40.4505 25.8095L40.3435 25.6406ZM36.2785 28.2159L36.1714 28.0469L36.1713 28.047L36.2785 28.2159ZM56.5061 70.756L56.6796 70.6566L56.6796 70.6566L56.5061 70.756ZM56.6855 70.094L56.785 70.2675L56.785 70.2675L56.6855 70.094ZM57.1678 70.9357L57.2672 71.1092L57.2673 71.1091L57.1678 70.9357ZM23.5745 35.7053L23.4634 35.539L23.4634 35.539L23.5745 35.7053ZM22.301 37.2573L22.4858 37.3338L22.4858 37.3338L22.301 37.2573ZM22.1043 39.2553L21.9081 39.2943L21.9081 39.2943L22.1043 39.2553ZM23.0505 41.0259L22.9091 41.1673L22.9091 41.1673L23.0505 41.0259ZM24.8209 41.9723L24.8599 41.7761L24.8599 41.7761L24.8209 41.9723ZM26.8186 41.7755L26.742 41.5907L26.742 41.5907L26.8186 41.7755ZM28.3703 40.5018L28.204 40.3907L28.204 40.3907L28.3703 40.5018ZM28.6898 37.2573L28.505 37.3338L28.505 37.3338L28.6898 37.2573ZM27.9403 36.1354L27.7989 36.2768L27.7989 36.2768L27.9403 36.1354ZM26.8186 35.3857L26.742 35.5705L26.742 35.5705L26.8186 35.3857ZM24.1479 40.546L24.259 40.3797L24.259 40.3797L24.1479 40.546ZM23.2546 39.4573L23.4394 39.3808L23.4394 39.3808L23.2546 39.4573ZM23.1166 38.0557L22.9204 38.0167L22.9204 38.0167L23.1166 38.0557ZM27.5121 37.1813L27.6784 37.0702L27.6784 37.0702L27.5121 37.1813ZM27.7363 39.4573L27.9211 39.5339L27.9211 39.5339L27.7363 39.4573ZM27.2105 40.2443L27.0691 40.1029L27.0691 40.1029L27.2105 40.2443ZM49.5838 35.7053L49.4726 35.539L49.4726 35.539L49.5838 35.7053ZM53.9496 36.1354L53.8082 36.2768L53.8082 36.2768L53.9496 36.1354ZM54.6991 37.2573L54.8839 37.1807L54.8839 37.1807L54.6991 37.2573ZM54.3796 40.5018L54.2133 40.3907L54.2133 40.3907L54.3796 40.5018ZM52.8279 41.7755L52.7513 41.5907L52.7513 41.5907L52.8279 41.7755ZM50.8302 41.9723L50.8692 41.7761L50.8692 41.7761L50.8302 41.9723ZM49.0598 41.0259L48.9184 41.1673L48.9184 41.1673L49.0598 41.0259ZM48.1136 39.2553L47.9174 39.2943L47.9174 39.2943L48.1136 39.2553ZM48.3103 37.2573L48.4951 37.3338L48.4951 37.3338L48.3103 37.2573ZM50.1572 40.546L50.2683 40.3797L50.2683 40.3797L50.1572 40.546ZM52.4329 40.7702L52.3563 40.5854L52.3563 40.5854L52.4329 40.7702ZM53.2198 40.2443L53.0783 40.1029L53.0783 40.1029L53.2198 40.2443ZM53.7456 39.4573L53.5608 39.3808L53.5608 39.3808L53.7456 39.4573ZM53.5214 37.1813L53.6877 37.0702L53.6877 37.0702L53.5214 37.1813ZM52.4329 36.2878L52.3563 36.4726L52.3563 36.4726L52.4329 36.2878ZM51.0315 36.1498L51.0705 36.3459L51.0705 36.3459L51.0315 36.1498ZM49.7896 36.8137L49.9311 36.9551L49.9311 36.9551L49.7896 36.8137ZM49.1258 38.0557L48.9297 38.0167L48.9297 38.0167L49.1258 38.0557ZM49.2639 39.4573L49.4486 39.3808L49.4486 39.3808L49.2639 39.4573ZM61.7373 31.9372L61.5959 31.7958L61.5959 31.7958L61.7373 31.9372ZM58.7295 32.5419V32.3419H58.2506L58.5873 32.6825L58.7295 32.5419ZM60.0713 35.7936L60.2713 35.7936L60.2713 35.7929L60.0713 35.7936ZM59.6178 53.3016L59.7593 53.443L59.7593 53.443L59.6178 53.3016ZM51.8549 53.3016L51.7135 53.443L51.7135 53.443L51.8549 53.3016ZM51.4015 46.7873H51.6015V46.5873H51.4015V46.7873ZM25.5986 46.7873V46.5873H25.3986V46.7873H25.5986ZM25.1452 53.3016L25.2866 53.443L25.2866 53.443L25.1452 53.3016ZM17.3823 53.3016L17.2409 53.443L17.2409 53.443L17.3823 53.3016ZM16.9289 36L16.7289 35.9998V36H16.9289ZM17.3344 34.1059L17.1519 34.0242L17.1519 34.0242L17.3344 34.1059ZM18.477 32.5419L18.6104 32.691L19.0006 32.3419H18.477V32.5419ZM15.2628 31.9372L15.1214 32.0786L15.1214 32.0786L15.2628 31.9372ZM15.2628 27.5207L15.1214 27.3793L15.1214 27.3793L15.2628 27.5207ZM22.4507 26.916V27.116H22.5919L22.6391 26.983L22.4507 26.916ZM24.6697 20.6708L24.8582 20.7377L24.8586 20.7365L24.6697 20.6708ZM28.0757 18.2449L28.0757 18.0449L28.0754 18.0449L28.0757 18.2449ZM48.718 18.2449L48.7185 18.0449H48.718V18.2449ZM52.0208 20.4127L51.8375 20.4927L51.838 20.4939L52.0208 20.4127ZM54.9107 26.916L54.7279 26.9972L54.7807 27.116H54.9107V26.916ZM61.7373 27.5207L61.5959 27.6621L61.5959 27.6621L61.7373 27.5207ZM61.0075 28.2506L60.8661 28.392L60.8661 28.392L61.0075 28.2506ZM55.4268 27.9483V27.7483H55.121L55.2435 28.0284L55.4268 27.9483ZM56.5105 30.4257H56.7105V30.3839L56.6937 30.3456L56.5105 30.4257ZM56.5105 30.5806H56.3105V30.6726L56.3803 30.7324L56.5105 30.5806ZM57.5942 31.5096L57.464 31.6615L57.5202 31.7096H57.5942V31.5096ZM61.0075 31.2073L60.8661 31.0659L60.8661 31.0659L61.0075 31.2073ZM25.6502 20.9804L25.4621 20.9124L25.4618 20.9134L25.6502 20.9804ZM22.3991 30.1161L22.2106 30.049L22.1156 30.3161H22.3991V30.1161ZM55.2203 30.1161V30.3161H55.5281L55.4031 30.0348L55.2203 30.1161ZM51.0919 20.8256L50.9086 20.9056L50.9091 20.9068L51.0919 20.8256ZM50.1365 19.6962L50.0273 19.8638L50.0273 19.8638L50.1365 19.6962ZM48.718 19.2772V19.4772L48.7187 19.4772L48.718 19.2772ZM28.0757 19.2772L28.0757 19.0772L28.0756 19.0772L28.0757 19.2772ZM15.6903 30.4774H15.4901L15.4906 30.4871L15.6903 30.4774ZM15.7883 30.8687L15.6075 30.9542L15.6075 30.9542L15.7883 30.8687ZM16.0287 31.1926L15.8946 31.3409L15.8946 31.3409L16.0287 31.1926ZM16.375 31.3995L16.3078 31.5879L16.3078 31.5879L16.375 31.3995ZM16.774 31.458V31.2577L16.7638 31.2583L16.774 31.458ZM19.8704 31.458V31.658H19.9357L19.9884 31.6195L19.8704 31.458ZM21.2121 30.4774L21.3302 30.6388L21.3806 30.6019L21.4011 30.5429L21.2121 30.4774ZM22.0894 27.9483L22.2784 28.0138L22.3705 27.7483H22.0894V27.9483ZM15.9926 28.2506L15.8512 28.1092L15.8512 28.1092L15.9926 28.2506ZM24.4154 52.5717L24.2739 52.4303L24.2739 52.4303L24.4154 52.5717ZM24.5665 46.7873H24.7665V46.5873H24.5665V46.7873ZM17.961 46.7873V46.5873H17.761V46.7873H17.961ZM59.0392 46.7873H59.2392V46.5873H59.0392V46.7873ZM52.4336 46.7873V46.5873H52.2336V46.7873H52.4336ZM52.5848 52.5717L52.4433 52.7131L52.4433 52.7131L52.5848 52.5717ZM59.0392 35.7936L58.8392 35.7929V35.7936H59.0392ZM59.0392 45.755V45.955H59.2392V45.755H59.0392ZM58.7175 34.291L58.8997 34.2085L58.8997 34.2085L58.7175 34.291ZM57.8006 33.058L57.9321 32.9073L57.9311 32.9064L57.8006 33.058ZM55.5816 31.1483L55.712 30.9967L55.6558 30.9483H55.5816V31.1483ZM22.0894 31.1483V30.9483H22.0245L21.972 30.9865L22.0894 31.1483ZM19.4575 33.058L19.5747 33.2201L19.575 33.2199L19.4575 33.058ZM18.3537 34.3481L18.532 34.4388L18.532 34.4388L18.3537 34.3481ZM17.961 36H18.161L18.161 35.9993L17.961 36ZM17.961 45.755H17.761V45.955H17.961V45.755ZM1.48491 38.7907C1.32757 38.7907 1.2 38.6632 1.2 38.5057H0.8C0.8 38.884 1.10659 39.1907 1.48491 39.1907V38.7907ZM1.76983 38.5057C1.76983 38.6632 1.64226 38.7907 1.48491 38.7907V39.1907C1.86324 39.1907 2.16983 38.884 2.16983 38.5057L1.76983 38.5057ZM38.5 1.76998C18.2467 1.76998 1.76983 18.2494 1.76983 38.5057H2.16983C2.16983 18.4702 18.4676 2.16998 38.5 2.16998V1.76998ZM38.7849 1.48499C38.7849 1.64239 38.6572 1.76998 38.5 1.76998V2.16998C38.8781 2.16998 39.1849 1.86333 39.1849 1.48499H38.7849ZM38.5 1.2C38.6573 1.2 38.7849 1.32754 38.7849 1.48499H39.1849C39.1849 1.10669 38.8783 0.8 38.5 0.8V1.2ZM12.1539 12.0943C19.1998 5.06875 28.5557 1.2 38.5 1.2V0.8C28.4497 0.8 18.9923 4.71078 11.8715 11.811L12.1539 12.0943ZM1.2 38.5057C1.2 28.5171 5.0899 19.1382 12.1539 12.0943L11.8715 11.811C4.73209 18.9301 0.8 28.411 0.8 38.5057H1.2ZM23.7907 66.7593C23.7469 66.7593 23.7026 66.7492 23.6608 66.7275L23.4767 67.0827C23.5772 67.1347 23.6848 67.1593 23.7907 67.1593V66.7593ZM24.0442 66.6049C23.9938 66.7026 23.8944 66.7593 23.7907 66.7593V67.1593C24.0384 67.1593 24.2781 67.0239 24.3997 66.7883L24.0442 66.6049ZM23.9215 66.2211C24.0613 66.2931 24.1163 66.4649 24.0442 66.605L24.3997 66.7882C24.573 66.4519 24.4411 66.0389 24.1047 65.8655L23.9215 66.2211ZM6.78051 38.1833C6.78051 50.0252 13.3492 60.7688 23.9214 66.221L24.1048 65.8655C13.6648 60.4815 7.18051 49.8746 7.18051 38.1833H6.78051ZM38.4999 6.4591C21.0096 6.4591 6.78051 20.6904 6.78051 38.1833H7.18051C7.18051 20.9113 21.2306 6.8591 38.4999 6.8591V6.4591ZM70.2193 38.1833C70.2193 20.6904 55.9902 6.4591 38.4999 6.4591V6.8591C55.7692 6.8591 69.8193 20.9113 69.8193 38.1833H70.2193ZM53.557 66.0626C63.8334 60.4264 70.2193 49.7442 70.2193 38.1833H69.8193C69.8193 49.5956 63.5153 60.1447 53.3646 65.7119L53.557 66.0626ZM53.4442 66.4496C53.3685 66.3116 53.419 66.1383 53.557 66.0626L53.3646 65.7119C53.0329 65.8939 52.9117 66.3104 53.0934 66.6419L53.4442 66.4496ZM53.8309 66.5625C53.6932 66.6381 53.5199 66.5876 53.4441 66.4495L53.0934 66.642C53.2753 66.9733 53.6916 67.0952 54.0234 66.9131L53.8309 66.5625ZM70.7893 38.1832C70.7893 49.9497 64.2924 60.8246 53.8309 66.5624L54.0233 66.9131C64.6106 61.1063 71.1893 50.0982 71.1893 38.1832H70.7893ZM38.5001 5.88896C56.3042 5.88896 70.7893 20.3762 70.7893 38.1832H71.1893C71.1893 20.1553 56.5252 5.48896 38.5001 5.48896V5.88896ZM6.21085 38.1832C6.21085 20.3762 20.6959 5.88896 38.5001 5.88896V5.48896C20.4749 5.48896 5.81085 20.1553 5.81085 38.1832H6.21085ZM23.6604 66.7274C12.8965 61.1764 6.21085 50.239 6.21085 38.1832H5.81085C5.81085 50.3896 12.5809 61.4636 23.4771 67.0829L23.6604 66.7274ZM36.3696 25.4981C36.4866 25.6736 36.6792 25.7682 36.8746 25.7682V25.3682C36.8073 25.3682 36.7421 25.3358 36.7025 25.2762L36.3696 25.4981ZM36.5378 24.6569C36.2592 24.8427 36.1838 25.2194 36.3696 25.4981L36.7024 25.2762C36.6392 25.1814 36.6649 25.053 36.7598 24.9897L36.5378 24.6569ZM40.6028 21.946L36.5378 24.6569L36.7597 24.9897L40.8247 22.2788L40.6028 21.946ZM41.4439 22.1143C41.2582 21.8355 40.8814 21.7604 40.6029 21.946L40.8247 22.2789C40.9196 22.2156 41.0479 22.2414 41.111 22.3361L41.4439 22.1143ZM41.2757 22.9554C41.5542 22.7696 41.6297 22.393 41.4438 22.1143L41.111 22.3361C41.1743 22.431 41.1486 22.5594 41.0537 22.6227L41.2757 22.9554ZM37.2107 25.6663L41.2757 22.9555L41.0537 22.6227L36.9887 25.3335L37.2107 25.6663ZM36.8746 25.7682C36.9904 25.7682 37.1076 25.7351 37.2108 25.6663L36.9887 25.3336C36.9534 25.3571 36.9139 25.3682 36.8746 25.3682V25.7682ZM35.5486 28.1969C35.6642 28.3793 35.8609 28.479 36.0614 28.479V28.079C35.9925 28.079 35.9258 28.0449 35.8864 27.9827L35.5486 28.1969ZM35.7365 27.3597C35.4535 27.5391 35.3694 27.9139 35.5485 28.1968L35.8865 27.9828C35.8255 27.8865 35.8541 27.7587 35.9506 27.6976L35.7365 27.3597ZM39.8015 24.7844L35.7365 27.3597L35.9506 27.6976L40.0155 25.1223L39.8015 24.7844ZM40.6384 24.9724C40.4592 24.6894 40.0848 24.605 39.8015 24.7844L40.0155 25.1223C40.1119 25.0613 40.2394 25.0899 40.3005 25.1864L40.6384 24.9724ZM40.4505 25.8095C40.7335 25.6302 40.8176 25.2554 40.6385 24.9724L40.3005 25.1864C40.3615 25.2827 40.3329 25.4105 40.2364 25.4716L40.4505 25.8095ZM36.3855 28.3848L40.4505 25.8095L40.2364 25.4716L36.1714 28.0469L36.3855 28.3848ZM36.0614 28.479C36.1725 28.479 36.2851 28.4486 36.3856 28.3847L36.1713 28.047C36.1369 28.0688 36.0991 28.079 36.0614 28.079V28.479ZM56.3325 70.8554C56.4591 71.0765 56.6902 71.2 56.9272 71.2V70.8C56.8279 70.8 56.7321 70.7483 56.6796 70.6566L56.3325 70.8554ZM56.586 69.9205C56.2579 70.1087 56.1445 70.5274 56.3326 70.8555L56.6796 70.6566C56.6013 70.52 56.6486 70.3458 56.785 70.2675L56.586 69.9205ZM74.8301 38.5056C74.8301 51.4274 67.8396 63.4654 56.586 69.9206L56.785 70.2675C68.1623 63.7415 75.2301 51.5714 75.2301 38.5056H74.8301ZM75.515 37.8207C75.1367 37.8207 74.8301 38.1273 74.8301 38.5056H75.2301C75.2301 38.3482 75.3577 38.2207 75.515 38.2207V37.8207ZM76.1999 38.5056C76.1999 38.1273 75.8933 37.8207 75.515 37.8207V38.2207C75.6724 38.2207 75.7999 38.3482 75.7999 38.5056H76.1999ZM57.2673 71.1091C68.9453 64.4104 76.1999 51.918 76.1999 38.5056H75.7999C75.7999 51.7741 68.6226 64.1344 57.0683 70.7622L57.2673 71.1091ZM56.9272 71.2C57.0431 71.2 57.1604 71.1704 57.2672 71.1092L57.0685 70.7621C57.0234 70.7879 56.9748 70.8 56.9272 70.8V71.2ZM23.6856 35.8716C24.2213 35.5136 24.8511 35.3225 25.4954 35.3225V34.9225C24.772 34.9225 24.0649 35.1371 23.4634 35.539L23.6856 35.8716ZM22.4858 37.3338C22.7324 36.7384 23.1499 36.2296 23.6856 35.8716L23.4634 35.539C22.8619 35.941 22.3931 36.5123 22.1163 37.1807L22.4858 37.3338ZM22.3004 39.2163C22.1747 38.5842 22.2393 37.9291 22.4858 37.3338L22.1163 37.1807C21.8394 37.8492 21.767 38.5847 21.9081 39.2943L22.3004 39.2163ZM23.192 40.8845C22.7364 40.4288 22.4261 39.8483 22.3004 39.2163L21.9081 39.2943C22.0492 40.0039 22.3976 40.6557 22.9091 41.1673L23.192 40.8845ZM24.8599 41.7761C24.228 41.6504 23.6476 41.3401 23.192 40.8845L22.9091 41.1673C23.4206 41.6789 24.0724 42.0273 24.7819 42.1684L24.8599 41.7761ZM26.742 41.5907C26.1468 41.8373 25.4918 41.9018 24.8599 41.7761L24.7819 42.1684C25.4914 42.3096 26.2268 42.2371 26.8951 41.9603L26.742 41.5907ZM28.204 40.3907C27.8461 40.9265 27.3373 41.3441 26.742 41.5907L26.8951 41.9603C27.5635 41.6834 28.1347 41.2145 28.5366 40.6129L28.204 40.3907ZM28.753 38.5806C28.753 39.225 28.562 39.8549 28.204 40.3907L28.5366 40.6129C28.9385 40.0114 29.153 39.3041 29.153 38.5806H28.753ZM28.505 37.3338C28.6688 37.7291 28.753 38.1528 28.753 38.5806H29.153C29.153 38.1002 29.0584 37.6245 28.8746 37.1807L28.505 37.3338ZM27.7989 36.2768C28.1014 36.5793 28.3413 36.9385 28.505 37.3338L28.8746 37.1807C28.6908 36.7369 28.4214 36.3336 28.0817 35.994L27.7989 36.2768ZM26.742 35.5705C27.1373 35.7342 27.4964 35.9742 27.7989 36.2768L28.0817 35.994C27.7421 35.6543 27.3389 35.3848 26.8951 35.201L26.742 35.5705ZM25.4954 35.3225C25.9232 35.3225 26.3468 35.4068 26.742 35.5705L26.8951 35.201C26.4514 35.0171 25.9758 34.9225 25.4954 34.9225V35.3225ZM24.0368 40.7123C24.4685 41.0008 24.9762 41.1548 25.4954 41.1548V40.7548C25.0553 40.7548 24.625 40.6243 24.259 40.3797L24.0368 40.7123ZM23.0698 39.5339C23.2685 40.0137 23.605 40.4238 24.0368 40.7123L24.259 40.3797C23.8931 40.1352 23.6078 39.7875 23.4394 39.3808L23.0698 39.5339ZM22.9204 38.0167C22.8191 38.5261 22.8711 39.0541 23.0698 39.5339L23.4394 39.3808C23.2709 38.9741 23.2268 38.5265 23.3127 38.0948L22.9204 38.0167ZM23.6389 36.6723C23.2718 37.0395 23.0217 37.5074 22.9204 38.0167L23.3127 38.0948C23.3986 37.663 23.6106 37.2664 23.9218 36.9551L23.6389 36.6723ZM24.9832 35.9536C24.4739 36.0549 24.0061 36.305 23.6389 36.6723L23.9218 36.9551C24.233 36.6438 24.6296 36.4318 25.0613 36.3459L24.9832 35.9536ZM26.5002 36.103C26.0204 35.9043 25.4925 35.8523 24.9832 35.9536L25.0613 36.3459C25.493 36.2601 25.9404 36.3041 26.3471 36.4726L26.5002 36.103ZM27.6784 37.0702C27.3899 36.6384 26.9799 36.3018 26.5002 36.103L26.3471 36.4726C26.7537 36.6411 27.1013 36.9263 27.3458 37.2924L27.6784 37.0702ZM28.1209 38.529C28.1209 38.0097 27.9669 37.502 27.6784 37.0702L27.3458 37.2924C27.5904 37.6584 27.7209 38.0888 27.7209 38.529H28.1209ZM27.9211 39.5339C28.053 39.2153 28.1209 38.8738 28.1209 38.529H27.7209C27.7209 38.8213 27.6633 39.1108 27.5515 39.3808L27.9211 39.5339ZM27.3519 40.3857C27.5957 40.1419 27.7891 39.8524 27.9211 39.5339L27.5515 39.3808C27.4396 39.6509 27.2757 39.8962 27.0691 40.1029L27.3519 40.3857ZM26.5002 40.955C26.8187 40.823 27.1081 40.6296 27.3519 40.3857L27.0691 40.1029C26.8624 40.3096 26.6171 40.4736 26.3471 40.5854L26.5002 40.955ZM25.4954 41.1548C25.8402 41.1548 26.1816 41.0869 26.5002 40.955L26.3471 40.5854C26.0771 40.6973 25.7877 40.7548 25.4954 40.7548V41.1548ZM51.5047 34.9225C50.7813 34.9225 50.0741 35.1371 49.4726 35.539L49.6949 35.8716C50.2306 35.5136 50.8604 35.3225 51.5047 35.3225V34.9225ZM52.9044 35.201C52.4607 35.0171 51.985 34.9225 51.5047 34.9225V35.3225C51.9325 35.3225 52.3561 35.4068 52.7513 35.5705L52.9044 35.201ZM54.091 35.994C53.7514 35.6543 53.3482 35.3848 52.9044 35.201L52.7513 35.5705C53.1465 35.7342 53.5057 35.9742 53.8082 36.2768L54.091 35.994ZM54.8839 37.1807C54.7001 36.7369 54.4307 36.3336 54.091 35.994L53.8082 36.2768C54.1107 36.5793 54.3506 36.9385 54.5143 37.3338L54.8839 37.1807ZM55.1623 38.5806C55.1623 38.1002 55.0677 37.6245 54.8839 37.1807L54.5143 37.3338C54.678 37.7291 54.7623 38.1528 54.7623 38.5806H55.1623ZM54.5459 40.6129C54.9478 40.0114 55.1623 39.3041 55.1623 38.5806H54.7623C54.7623 39.225 54.5712 39.8549 54.2133 40.3907L54.5459 40.6129ZM52.9044 41.9603C53.5728 41.6834 54.144 41.2145 54.5459 40.6129L54.2133 40.3907C53.8553 40.9265 53.3466 41.3441 52.7513 41.5907L52.9044 41.9603ZM50.7911 42.1684C51.5007 42.3096 52.2361 42.2371 52.9044 41.9603L52.7513 41.5907C52.1561 41.8373 51.5011 41.9018 50.8692 41.7761L50.7911 42.1684ZM48.9184 41.1673C49.4299 41.6789 50.0816 42.0273 50.7911 42.1684L50.8692 41.7761C50.2373 41.6504 49.6568 41.3401 49.2013 40.8845L48.9184 41.1673ZM47.9174 39.2943C48.0585 40.0039 48.4069 40.6557 48.9184 41.1673L49.2013 40.8845C48.7457 40.4288 48.4354 39.8483 48.3097 39.2163L47.9174 39.2943ZM48.1255 37.1807C47.8487 37.8492 47.7763 38.5847 47.9174 39.2943L48.3097 39.2163C48.184 38.5842 48.2485 37.9291 48.4951 37.3338L48.1255 37.1807ZM49.4726 35.539C48.8712 35.941 48.4024 36.5123 48.1255 37.1807L48.4951 37.3338C48.7417 36.7384 49.1592 36.2296 49.6949 35.8716L49.4726 35.539ZM51.5047 40.7548C51.0646 40.7548 50.6343 40.6243 50.2683 40.3797L50.0461 40.7123C50.4778 41.0008 50.9854 41.1548 51.5047 41.1548V40.7548ZM52.3563 40.5854C52.0863 40.6973 51.797 40.7548 51.5047 40.7548V41.1548C51.8495 41.1548 52.1909 41.0869 52.5094 40.955L52.3563 40.5854ZM53.0783 40.1029C52.8717 40.3096 52.6264 40.4736 52.3563 40.5854L52.5094 40.955C52.828 40.823 53.1174 40.6296 53.3612 40.3857L53.0783 40.1029ZM53.5608 39.3808C53.4489 39.6509 53.285 39.8962 53.0783 40.1029L53.3612 40.3857C53.605 40.1419 53.7984 39.8524 53.9303 39.5339L53.5608 39.3808ZM53.7302 38.529C53.7302 38.8213 53.6726 39.1108 53.5608 39.3808L53.9303 39.5339C54.0623 39.2153 54.1302 38.8738 54.1302 38.529H53.7302ZM53.3551 37.2924C53.5997 37.6584 53.7302 38.0888 53.7302 38.529H54.1302C54.1302 38.0097 53.9762 37.502 53.6877 37.0702L53.3551 37.2924ZM52.3563 36.4726C52.763 36.6411 53.1106 36.9263 53.3551 37.2924L53.6877 37.0702C53.3992 36.6384 52.9892 36.3018 52.5094 36.103L52.3563 36.4726ZM51.0705 36.3459C51.5022 36.2601 51.9497 36.3041 52.3563 36.4726L52.5094 36.103C52.0297 35.9043 51.5018 35.8523 50.9925 35.9536L51.0705 36.3459ZM49.9311 36.9551C50.2423 36.6438 50.6388 36.4318 51.0705 36.3459L50.9925 35.9536C50.4832 36.0549 50.0154 36.305 49.6482 36.6723L49.9311 36.9551ZM49.322 38.0948C49.4079 37.663 49.6198 37.2664 49.9311 36.9551L49.6482 36.6723C49.281 37.0395 49.031 37.5074 48.9297 38.0167L49.322 38.0948ZM49.4486 39.3808C49.2802 38.9741 49.2361 38.5265 49.322 38.0948L48.9297 38.0167C48.8284 38.5261 48.8804 39.0541 49.0791 39.5339L49.4486 39.3808ZM50.2683 40.3797C49.9023 40.1352 49.6171 39.7875 49.4486 39.3808L49.0791 39.5339C49.2778 40.0137 49.6143 40.4238 50.0461 40.7123L50.2683 40.3797ZM33.9588 38.2129H43.0414V37.8129H33.9588V38.2129ZM33.7353 38.3055C33.7946 38.2462 33.875 38.2129 33.9588 38.2129V37.8129C33.7689 37.8129 33.5867 37.8884 33.4525 38.0227L33.7353 38.3055ZM33.6427 38.5291C33.6427 38.4452 33.6761 38.3648 33.7353 38.3055L33.4525 38.0227C33.3182 38.157 33.2427 38.3392 33.2427 38.5291H33.6427ZM33.7353 38.7527C33.6761 38.6934 33.6427 38.613 33.6427 38.5291H33.2427C33.2427 38.719 33.3182 38.9012 33.4525 39.0355L33.7353 38.7527ZM33.9588 38.8453C33.875 38.8453 33.7946 38.812 33.7353 38.7527L33.4525 39.0355C33.5867 39.1699 33.7689 39.2453 33.9588 39.2453V38.8453ZM43.0414 38.8453H33.9588V39.2453H43.0414V38.8453ZM43.2649 38.7527C43.2056 38.812 43.1252 38.8453 43.0414 38.8453V39.2453C43.2314 39.2453 43.4135 39.1699 43.5478 39.0355L43.2649 38.7527ZM43.3575 38.5291C43.3575 38.613 43.3242 38.6934 43.2649 38.7527L43.5478 39.0355C43.682 38.9012 43.7575 38.719 43.7575 38.5291H43.3575ZM43.2649 38.3055C43.3242 38.3648 43.3575 38.4452 43.3575 38.5291H43.7575C43.7575 38.3392 43.682 38.157 43.5478 38.0227L43.2649 38.3055ZM43.0414 38.2129C43.1252 38.2129 43.2056 38.2462 43.2649 38.3055L43.5478 38.0227C43.4135 37.8884 43.2314 37.8129 43.0414 37.8129V38.2129ZM62.5419 30.4774V28.9806H62.1419V30.4774H62.5419ZM61.8788 32.0786C62.3034 31.6539 62.5419 31.0779 62.5419 30.4774H62.1419C62.1419 30.9719 61.9455 31.4461 61.5959 31.7958L61.8788 32.0786ZM60.2777 32.7419C60.8782 32.7419 61.4541 32.5033 61.8788 32.0786L61.5959 31.7958C61.2463 32.1455 60.7721 32.3419 60.2777 32.3419V32.7419ZM58.7295 32.7419H60.2777V32.3419H58.7295V32.7419ZM60.2713 35.7929C60.2674 34.5226 59.7648 33.3046 58.8718 32.4013L58.5873 32.6825C59.4066 33.5113 59.8677 34.6287 59.8713 35.7942L60.2713 35.7929ZM60.2713 52.2067V35.7936H59.8713V52.2067H60.2713ZM59.7593 53.443C60.0871 53.1151 60.2713 52.6704 60.2713 52.2067H59.8713C59.8713 52.5643 59.7292 52.9073 59.4764 53.1602L59.7593 53.443ZM58.5231 53.9551C58.9868 53.9551 59.4314 53.7709 59.7593 53.443L59.4764 53.1602C59.2236 53.4131 58.8806 53.5551 58.5231 53.5551V53.9551ZM52.9497 53.9551H58.5231V53.5551H52.9497V53.9551ZM51.7135 53.443C52.0414 53.7709 52.486 53.9551 52.9497 53.9551V53.5551C52.5921 53.5551 52.2492 53.4131 51.9964 53.1602L51.7135 53.443ZM51.2015 52.2067C51.2015 52.6704 51.3857 53.1151 51.7135 53.443L51.9964 53.1602C51.7435 52.9073 51.6015 52.5643 51.6015 52.2067H51.2015ZM51.2015 46.7873V52.2067H51.6015V46.7873H51.2015ZM25.5986 46.9873H51.4015V46.5873H25.5986V46.9873ZM25.7986 52.2067V46.7873H25.3986V52.2067H25.7986ZM25.2866 53.443C25.6145 53.1151 25.7986 52.6704 25.7986 52.2067H25.3986C25.3986 52.5643 25.2566 52.9073 25.0037 53.1602L25.2866 53.443ZM24.0505 53.9551C24.5141 53.9551 24.9588 53.7709 25.2866 53.443L25.0037 53.1602C24.7509 53.4131 24.408 53.5551 24.0505 53.5551V53.9551ZM18.477 53.9551H24.0505V53.5551H18.477V53.9551ZM17.2409 53.443C17.5687 53.7709 18.0134 53.9551 18.477 53.9551V53.5551C18.1195 53.5551 17.7766 53.4131 17.5237 53.1602L17.2409 53.443ZM16.7289 52.2067C16.7289 52.6704 16.913 53.1151 17.2409 53.443L17.5237 53.1602C17.2709 52.9073 17.1289 52.5643 17.1289 52.2067H16.7289ZM16.7289 36V52.2067H17.1289V36H16.7289ZM17.1519 34.0242C16.8736 34.6457 16.7295 35.3189 16.7289 35.9998L17.1289 36.0002C17.1294 35.3754 17.2617 34.7578 17.5169 34.1876L17.1519 34.0242ZM18.3437 32.3928C17.8362 32.8468 17.4301 33.4027 17.1519 34.0242L17.5169 34.1876C17.7722 33.6174 18.1448 33.1075 18.6104 32.691L18.3437 32.3928ZM16.7224 32.7419H18.477V32.3419H16.7224V32.7419ZM15.1214 32.0786C15.546 32.5033 16.1219 32.7419 16.7224 32.7419V32.3419C16.228 32.3419 15.7538 32.1455 15.4042 31.7958L15.1214 32.0786ZM14.4582 30.4774C14.4582 31.0779 14.6967 31.6539 15.1214 32.0786L15.4042 31.7958C15.0546 31.4461 14.8582 30.9719 14.8582 30.4774H14.4582ZM14.4582 28.9806V30.4774H14.8582V28.9806H14.4582ZM15.1214 27.3793C14.6967 27.804 14.4582 28.38 14.4582 28.9806H14.8582C14.8582 28.486 15.0546 28.0118 15.4042 27.6621L15.1214 27.3793ZM16.7224 26.716C16.1219 26.716 15.546 26.9546 15.1214 27.3793L15.4042 27.6621C15.7538 27.3124 16.228 27.116 16.7224 27.116V26.716ZM22.4507 26.716H16.7224V27.116H22.4507V26.716ZM24.4813 20.6038L22.2622 26.849L22.6391 26.983L24.8582 20.7377L24.4813 20.6038ZM25.8701 18.752C25.2261 19.2106 24.7406 19.8582 24.4808 20.6051L24.8586 20.7365C25.0911 20.068 25.5257 19.4883 26.1021 19.0778L25.8701 18.752ZM28.0754 18.0449C27.2848 18.0462 26.5141 18.2933 25.8701 18.752L26.1021 19.0778C26.6786 18.6672 27.3684 18.4461 28.076 18.4449L28.0754 18.0449ZM48.718 18.0449H28.0757V18.4449H48.718V18.0449ZM50.8017 18.6701C50.1827 18.2638 49.4588 18.0466 48.7185 18.0449L48.7176 18.4449C49.3802 18.4464 50.0281 18.6408 50.5822 19.0045L50.8017 18.6701ZM52.2041 20.3327C51.9079 19.6541 51.4206 19.0763 50.8017 18.6701L50.5822 19.0045C51.1362 19.3681 51.5724 19.8852 51.8375 20.4927L52.2041 20.3327ZM55.0935 26.8348L52.2035 20.3315L51.838 20.4939L54.7279 26.9972L55.0935 26.8348ZM60.2777 26.716H54.9107V27.116H60.2777V26.716ZM61.8788 27.3793C61.4541 26.9546 60.8782 26.716 60.2777 26.716V27.116C60.7721 27.116 61.2463 27.3124 61.5959 27.6621L61.8788 27.3793ZM62.5419 28.9806C62.5419 28.38 62.3034 27.804 61.8788 27.3793L61.5959 27.6621C61.9455 28.0118 62.1419 28.486 62.1419 28.9806H62.5419ZM60.2777 28.1483C60.4984 28.1483 60.71 28.236 60.8661 28.392L61.1489 28.1092C60.9179 27.8781 60.6045 27.7483 60.2777 27.7483V28.1483ZM55.4268 28.1483H60.2777V27.7483H55.4268V28.1483ZM56.6937 30.3456L55.61 27.8681L55.2435 28.0284L56.3272 30.5059L56.6937 30.3456ZM56.7105 30.5806V30.4257H56.3105V30.5806H56.7105ZM57.7244 31.3578L56.6406 30.4287L56.3803 30.7324L57.464 31.6615L57.7244 31.3578ZM60.2777 31.3096H57.5942V31.7096H60.2777V31.3096ZM60.8661 31.0659C60.71 31.2219 60.4984 31.3096 60.2777 31.3096V31.7096C60.6045 31.7096 60.9179 31.5798 61.1489 31.3487L60.8661 31.0659ZM61.1098 30.4774C61.1098 30.6981 61.0221 30.9098 60.8661 31.0659L61.1489 31.3487C61.38 31.1176 61.5098 30.8042 61.5098 30.4774H61.1098ZM61.1098 28.9806V30.4774H61.5098V28.9806H61.1098ZM60.8661 28.392C61.0221 28.5481 61.1098 28.7598 61.1098 28.9806H61.5098C61.5098 28.6537 61.38 28.3403 61.1489 28.1092L60.8661 28.392ZM25.8383 21.0484C26.0046 20.5883 26.3087 20.1906 26.709 19.9095L26.4791 19.5821C26.0115 19.9105 25.6564 20.375 25.4621 20.9124L25.8383 21.0484ZM22.5875 30.1831L25.8387 21.0475L25.4618 20.9134L22.2106 30.049L22.5875 30.1831ZM55.2203 29.9161H22.3991V30.3161H55.2203V29.9161ZM50.9091 20.9068L55.0376 30.1973L55.4031 30.0348L51.2746 20.7444L50.9091 20.9068ZM50.0273 19.8638C50.4164 20.1176 50.7227 20.4797 50.9086 20.9056L51.2752 20.7456C51.0581 20.2482 50.7003 19.8252 50.2458 19.5287L50.0273 19.8638ZM48.7187 19.4772C49.1833 19.4756 49.6381 19.6099 50.0273 19.8638L50.2458 19.5287C49.7913 19.2323 49.2599 19.0753 48.7173 19.0772L48.7187 19.4772ZM28.0757 19.4772H48.718V19.0772H28.0757V19.4772ZM26.709 19.9095C27.1094 19.6283 27.5866 19.4774 28.0758 19.4772L28.0756 19.0772C27.5042 19.0774 26.9468 19.2537 26.4791 19.5821L26.709 19.9095ZM15.8903 30.4774V28.9806H15.4903V30.4774H15.8903ZM15.9691 30.7831C15.9223 30.6842 15.8954 30.577 15.8901 30.4676L15.4906 30.4871C15.4984 30.649 15.5382 30.8077 15.6075 30.9542L15.9691 30.7831ZM16.1629 31.0443C16.0818 30.9708 16.0159 30.8821 15.9691 30.7831L15.6075 30.9542C15.6768 31.1007 15.7744 31.2321 15.8946 31.3409L16.1629 31.0443ZM16.4421 31.2111C16.339 31.1744 16.2441 31.1177 16.1629 31.0443L15.8946 31.3409C16.0147 31.4496 16.1552 31.5336 16.3078 31.5879L16.4421 31.2111ZM16.7638 31.2583C16.6545 31.2639 16.5452 31.2479 16.4421 31.2111L16.3078 31.5879C16.4605 31.6423 16.6224 31.666 16.7843 31.6577L16.7638 31.2583ZM19.8704 31.258H16.774V31.658H19.8704V31.258ZM21.0941 30.3159L19.7524 31.2965L19.9884 31.6195L21.3302 30.6388L21.0941 30.3159ZM21.9005 27.8827L21.0232 30.4118L21.4011 30.5429L22.2784 28.0138L21.9005 27.8827ZM16.7224 28.1483H22.0894V27.7483H16.7224V28.1483ZM16.134 28.392C16.2901 28.236 16.5018 28.1483 16.7224 28.1483V27.7483C16.3956 27.7483 16.0823 27.8781 15.8512 28.1092L16.134 28.392ZM15.8903 28.9806C15.8903 28.7598 15.978 28.5481 16.134 28.392L15.8512 28.1092C15.6201 28.3403 15.4903 28.6537 15.4903 28.9806H15.8903ZM24.3665 52.2067C24.3665 52.2906 24.3332 52.371 24.2739 52.4303L24.5568 52.7131C24.6911 52.5788 24.7665 52.3966 24.7665 52.2067H24.3665ZM24.3665 46.7873V52.2067H24.7665V46.7873H24.3665ZM17.961 46.9873H24.5665V46.5873H17.961V46.9873ZM18.161 52.2067V46.7873H17.761V52.2067H18.161ZM18.2536 52.4303C18.1943 52.371 18.161 52.2906 18.161 52.2067H17.761C17.761 52.3966 17.8364 52.5788 17.9707 52.7131L18.2536 52.4303ZM18.477 52.5228C18.3932 52.5228 18.3128 52.4895 18.2536 52.4303L17.9707 52.7131C18.105 52.8474 18.2871 52.9228 18.477 52.9228V52.5228ZM24.0505 52.5228H18.477V52.9228H24.0505V52.5228ZM24.2739 52.4303C24.2147 52.4895 24.1343 52.5228 24.0505 52.5228V52.9228C24.2404 52.9228 24.4225 52.8474 24.5568 52.7131L24.2739 52.4303ZM58.5231 52.5228H52.9497V52.9228H58.5231V52.5228ZM58.7466 52.4303C58.6873 52.4895 58.6069 52.5228 58.5231 52.5228V52.9228C58.713 52.9228 58.8952 52.8474 59.0294 52.7131L58.7466 52.4303ZM58.8392 52.2067C58.8392 52.2906 58.8059 52.371 58.7466 52.4303L59.0294 52.7131C59.1637 52.5788 59.2392 52.3966 59.2392 52.2067H58.8392ZM58.8392 46.7873V52.2067H59.2392V46.7873H58.8392ZM52.4336 46.9873H59.0392V46.5873H52.4336V46.9873ZM52.6336 52.2067V46.7873H52.2336V52.2067H52.6336ZM52.7262 52.4303C52.6669 52.371 52.6336 52.2906 52.6336 52.2067H52.2336C52.2336 52.3966 52.309 52.5788 52.4433 52.7131L52.7262 52.4303ZM52.9497 52.5228C52.8659 52.5228 52.7855 52.4895 52.7262 52.4302L52.4433 52.7131C52.5776 52.8474 52.7598 52.9228 52.9497 52.9228V52.5228ZM58.8392 35.7936V45.755H59.2392V35.7936H58.8392ZM58.5353 34.3735C58.7372 34.8194 58.8408 35.3034 58.8392 35.7929L59.2392 35.7942C59.241 35.2474 59.1252 34.7066 58.8997 34.2085L58.5353 34.3735ZM57.6692 33.2088C58.0381 33.5304 58.3334 33.9276 58.5353 34.3735L58.8997 34.2085C58.6742 33.7104 58.3442 33.2666 57.9321 32.9073L57.6692 33.2088ZM55.4511 31.2999L57.6702 33.2096L57.9311 32.9064L55.712 30.9967L55.4511 31.2999ZM22.0894 31.3483H55.5816V30.9483H22.0894V31.3483ZM19.575 33.2199L22.2069 31.3102L21.972 30.9865L19.3401 32.8962L19.575 33.2199ZM18.532 34.4388C18.7778 33.9555 19.1353 33.5377 19.5747 33.2201L19.3404 32.8959C18.8494 33.2508 18.4501 33.7175 18.1754 34.2574L18.532 34.4388ZM18.161 35.9993C18.1589 35.457 18.2861 34.9221 18.532 34.4388L18.1754 34.2574C17.9008 34.7973 17.7587 35.395 17.761 36.0008L18.161 35.9993ZM18.161 45.755V36H17.761V45.755H18.161ZM59.0392 45.555H17.961V45.955H59.0392V45.555Z" fill="url(#paint1_linear)" mask="url(#path-1-outside-1)"/>
<defs>
<linearGradient id="paint0_linear" x1="35.6159" y1="136.677" x2="43.7063" y2="-50.0563" gradientUnits="userSpaceOnUse">
<stop stop-color="#F3B341"/>
<stop offset="0.00561523" stop-color="#F3B341"/>
<stop offset="0.1991" stop-color="#EB8740"/>
<stop offset="0.33" stop-color="#E7663E"/>
<stop offset="0.66" stop-color="#DF3661"/>
<stop offset="0.7322" stop-color="#D33768"/>
<stop offset="0.8742" stop-color="#B4387A"/>
<stop offset="1" stop-color="#943A8C"/>
</linearGradient>
<linearGradient id="paint1_linear" x1="35.6159" y1="136.677" x2="43.7063" y2="-50.0563" gradientUnits="userSpaceOnUse">
<stop stop-color="#F3B341"/>
<stop offset="0.00561523" stop-color="#F3B341"/>
<stop offset="0.1991" stop-color="#EB8740"/>
<stop offset="0.33" stop-color="#E7663E"/>
<stop offset="0.66" stop-color="#DF3661"/>
<stop offset="0.7322" stop-color="#D33768"/>
<stop offset="0.8742" stop-color="#B4387A"/>
<stop offset="1" stop-color="#943A8C"/>
</linearGradient>
</defs>
</svg>
