<svg width="57" height="41" viewBox="0 0 57 41" fill="none" xmlns="http://www.w3.org/2000/svg">
<path d="M31.2431 38.4204L30.1734 34.9299L32.8512 34.1944L31.2431 38.4204ZM50.0589 9.25852L54.61 26.5398L41.1468 16.4271L50.0589 9.25852ZM55.7657 27.6704L48.7618 1.07757L48.7617 1.07722L48.713 0.89104L48.6554 0.670717L48.4358 0.731032L24.5807 7.28279L11.4688 2.07855L11.2567 1.99436L11.1756 2.20765L1.40585 27.8757L1.40565 27.8763L1.33761 28.0564L1.25942 28.2634L1.46509 28.345L31.2261 40.1571L31.4382 40.2413L31.5194 40.028L33.843 33.9221L55.6077 27.9447L55.8224 27.8857L55.7657 27.6704ZM20.8043 22.2347L24.4476 36.0663L24.4477 36.0667L24.4964 36.2529L24.5541 36.4732L24.7737 36.4129L29.3738 35.1495L30.5508 38.99L2.73725 27.951L17.6668 19.0959L20.8043 22.2347ZM24.9409 34.6839L20.39 17.4053L31.6199 19.0415L24.9409 34.6839ZM17.443 9.47387L20.383 20.6354L9.27807 9.52578L11.7309 3.08168L23.2421 7.65043L17.7846 9.14933L17.7844 9.14937L17.6012 9.19954L17.3863 9.25839L17.443 9.47387ZM2.60445 27.0588L8.9534 10.3788L17.0575 18.4863L2.60445 27.0588ZM36.837 19.8016L36.9341 19.8158L37.0105 19.7543L40.4765 16.9664L54.3851 27.4136L25.569 35.3278L32.47 19.1653L36.837 19.8016ZM18.3993 9.84717L48.068 1.69868L49.8266 8.37633L36.6984 18.9359L20.1585 16.5262L18.3993 9.84717Z" fill="url(#paint0_linear)" stroke="url(#paint1_linear)" stroke-width="0.45"/>
<defs>
<linearGradient id="paint0_linear" x1="26.4716" y1="76.5396" x2="29.9622" y2="-27.5759" gradientUnits="userSpaceOnUse">
<stop stop-color="#F3B341"/>
<stop offset="0.00561523" stop-color="#F3B341"/>
<stop offset="0.1991" stop-color="#EB8740"/>
<stop offset="0.33" stop-color="#E7663E"/>
<stop offset="0.66" stop-color="#DF3661"/>
<stop offset="0.7322" stop-color="#D33768"/>
<stop offset="0.8742" stop-color="#B4387A"/>
<stop offset="1" stop-color="#943A8C"/>
</linearGradient>
<linearGradient id="paint1_linear" x1="26.4716" y1="76.5396" x2="29.9622" y2="-27.5759" gradientUnits="userSpaceOnUse">
<stop stop-color="#F3B341"/>
<stop offset="0.00561523" stop-color="#F3B341"/>
<stop offset="0.1991" stop-color="#EB8740"/>
<stop offset="0.33" stop-color="#E7663E"/>
<stop offset="0.66" stop-color="#DF3661"/>
<stop offset="0.7322" stop-color="#D33768"/>
<stop offset="0.8742" stop-color="#B4387A"/>
<stop offset="1" stop-color="#943A8C"/>
</linearGradient>
</defs>
</svg>
