<svg width="51" height="40" viewBox="0 0 51 40" fill="none" xmlns="http://www.w3.org/2000/svg">
<path d="M25.0574 17.2915C21.1897 17.2915 17.9946 20.3938 17.9946 24.2716C17.9946 28.1495 21.1897 31.1964 25.0574 31.1964C28.9251 31.1964 32.1202 28.0941 32.1202 24.2162C32.1202 20.3384 28.9251 17.2915 25.0574 17.2915ZM25.0574 29.8114C21.9184 29.8114 19.396 27.3185 19.396 24.2162C19.396 21.114 21.9184 18.6211 25.0574 18.6211C28.1964 18.6211 30.7188 21.114 30.7188 24.2162C30.7188 27.3185 28.1964 29.8114 25.0574 29.8114Z" fill="url(#paint0_linear)"/>
<path d="M0.057373 6.54431V12.4719C0.057373 14.0784 1.40266 15.408 3.02822 15.408H10.4834C12.1089 15.408 13.4542 14.0784 13.4542 12.4719V4.66079H12.0529V12.5273C12.0529 13.3583 11.3242 14.0784 10.4834 14.0784H3.02822C2.18742 14.0784 1.45872 13.3583 1.45872 12.5273V6.54431C1.45872 3.77442 3.75692 1.50311 6.55962 1.50311H36.7166V13.1921C36.7166 14.4108 37.7255 15.408 38.9587 15.408H47.8152C49.0484 15.408 50.0574 14.4108 50.0574 13.1921V4.71619C50.0574 2.16788 47.9834 0.118164 45.4049 0.118164H6.55962C2.97217 0.118164 0.057373 2.99885 0.057373 6.54431ZM38.1179 1.50311H45.461C47.2547 1.50311 48.7121 2.94345 48.7121 4.71619V13.1921C48.7121 13.6352 48.3197 14.023 47.8713 14.023H38.9587C38.5103 14.023 38.1179 13.6352 38.1179 13.1921V1.50311Z" fill="url(#paint1_linear)"/>
<path d="M41.5933 39.1182V35.7943H45.1247C45.3489 35.7943 45.5731 35.6835 45.7412 35.4619C45.8534 35.2403 45.9094 35.0187 45.7973 34.7971L34.5305 11.9178C34.5305 11.8624 34.4744 11.807 34.4744 11.807V9.8681H33.0731V11.53H17.6583V9.8681H16.2569V12.0286L4.31748 34.7971C4.20537 35.0187 4.20537 35.2957 4.31748 35.4619C4.42959 35.6835 4.6538 35.7943 4.93407 35.7943H8.46546V39.1182H9.92286V35.7943H40.1919V39.1182H41.5933ZM17.378 12.915H33.4655L44.0596 34.4093H6.1112L17.378 12.915Z" fill="url(#paint2_linear)"/>
<defs>
<linearGradient id="paint0_linear" x1="24.5142" y1="44.2426" x2="26.2088" y2="7.15744" gradientUnits="userSpaceOnUse">
<stop stop-color="#F3B341"/>
<stop offset="0.00561523" stop-color="#F3B341"/>
<stop offset="0.1991" stop-color="#EB8740"/>
<stop offset="0.33" stop-color="#E7663E"/>
<stop offset="0.66" stop-color="#DF3661"/>
<stop offset="0.7322" stop-color="#D33768"/>
<stop offset="0.8742" stop-color="#B4387A"/>
<stop offset="1" stop-color="#943A8C"/>
</linearGradient>
<linearGradient id="paint1_linear" x1="23.1347" y1="29.7536" x2="23.7146" y2="-11.1022" gradientUnits="userSpaceOnUse">
<stop stop-color="#F3B341"/>
<stop offset="0.00561523" stop-color="#F3B341"/>
<stop offset="0.1991" stop-color="#EB8740"/>
<stop offset="0.33" stop-color="#E7663E"/>
<stop offset="0.66" stop-color="#DF3661"/>
<stop offset="0.7322" stop-color="#D33768"/>
<stop offset="0.8742" stop-color="#B4387A"/>
<stop offset="1" stop-color="#943A8C"/>
</linearGradient>
<linearGradient id="paint2_linear" x1="23.4453" y1="66.5619" x2="25.9926" y2="-11.5296" gradientUnits="userSpaceOnUse">
<stop stop-color="#F3B341"/>
<stop offset="0.00561523" stop-color="#F3B341"/>
<stop offset="0.1991" stop-color="#EB8740"/>
<stop offset="0.33" stop-color="#E7663E"/>
<stop offset="0.66" stop-color="#DF3661"/>
<stop offset="0.7322" stop-color="#D33768"/>
<stop offset="0.8742" stop-color="#B4387A"/>
<stop offset="1" stop-color="#943A8C"/>
</linearGradient>
</defs>
</svg>
