<svg id="Layer_1" data-name="Layer 1" xmlns="http://www.w3.org/2000/svg" viewBox="0 0 54.45 44.78"><defs><style>.cls-1,.cls-2{fill:#316fea;}.cls-2,.cls-3,.cls-4{stroke:#316fea;}.cls-2,.cls-4{stroke-linecap:round;stroke-linejoin:round;stroke-width:1.3px;}.cls-3,.cls-4{fill:none;}.cls-3{stroke-miterlimit:10;}</style></defs><title>callback</title><path class="cls-1" d="M38.44,9.83a5.66,5.66,0,0,1,4.29,1.44c.55.55,1.12,1.09,1.64,1.66A5.6,5.6,0,0,1,44,20.59l-6.67,6.68a7.11,7.11,0,0,1-2.38,1.8,5.2,5.2,0,0,1-4.66-.22,4.25,4.25,0,0,1-1.49-1.2.81.81,0,0,1,.92-1.13,6.38,6.38,0,0,1,1.2.94,4,4,0,0,0,4.58-.64c2.44-2.42,4.86-4.86,7.29-7.28a4.21,4.21,0,0,0,1.17-1.85,4,4,0,0,0-1.05-4,9.06,9.06,0,0,0-2.15-1.86,4,4,0,0,0-3.84.17,8.29,8.29,0,0,0-1.44,1.27c-1.48,1.48-2.95,3-4.44,4.43-.51.6-1.44-.19-1.15-.84.24-.49.77-.76,1-1.25,1.37-1.39,2.76-2.76,4.13-4.14a5.64,5.64,0,0,1,3.46-1.63M28.08,19.6A5.4,5.4,0,0,1,33.18,21c.43.43.87.84,1.28,1.29a.8.8,0,0,1-.43,1.3c-.59.14-.93-.45-1.31-.79a5.38,5.38,0,0,0-2.33-1.63,4,4,0,0,0-3.74,1.06c-2.5,2.51-5,5-7.5,7.51a4,4,0,0,0,0,5.4,10.83,10.83,0,0,0,2.21,2A4,4,0,0,0,25.24,37a7,7,0,0,0,1.45-1.26l3.83-3.82c.27-.34.47-.81.95-.89a.8.8,0,0,1,.83,1.16,14,14,0,0,1-1.25,1.31c-.25.21-.36.53-.59.75-1.2,1.16-2.35,2.37-3.56,3.52a5.61,5.61,0,0,1-7.35,0,10.31,10.31,0,0,1-2.54-3,5.62,5.62,0,0,1,1.08-6.19C20.54,26,23,23.6,25.45,21.14a5.63,5.63,0,0,1,2.63-1.54Z" transform="translate(-2.89 -2.53)"/><path class="cls-2" d="M22.28,8" transform="translate(-2.89 -2.53)"/><path class="cls-3" d="M8,13.27" transform="translate(-2.89 -2.53)"/><line class="cls-2" x1="35.06" y1="38.9" x2="52.69" y2="38.9"/><polyline class="cls-4" points="49.35 44.13 53.8 38.9 49.35 33.65"/><line class="cls-2" x1="19.39" y1="5.9" x2="1.76" y2="5.9"/><polyline class="cls-4" points="5.09 11.13 0.65 5.9 5.09 0.65"/></svg>