<svg id="Layer_1" data-name="Layer 1" xmlns="http://www.w3.org/2000/svg" viewBox="0 0 56.83 47.87"><defs><style>.cls-1,.cls-2{fill:#316fea;}.cls-1{stroke:#316fea;stroke-miterlimit:10;stroke-width:0.5px;}</style></defs><title>create_clips</title><path class="cls-1" d="M58.22,1.29H15.54a.5.5,0,0,0-.5.51V6.44a2.43,2.43,0,0,1,1,.3V2.3h41.7V37.63H52.54a1.81,1.81,0,0,1,0,.23,1.91,1.91,0,0,1-.13.79h5.78a.5.5,0,0,0,.49-.51V1.8A.5.5,0,0,0,58.22,1.29Z" transform="translate(-2.14 -1.04)"/><path class="cls-1" d="M45.56,48.67H2.88a.5.5,0,0,1-.49-.51V11.82a.5.5,0,0,1,.49-.51H45.56a.5.5,0,0,1,.5.51V48.16A.5.5,0,0,1,45.56,48.67Zm-42.19-1h41.7V12.32H3.37Z" transform="translate(-2.14 -1.04)"/><path class="cls-1" d="M51.89,6.3H9.21a.51.51,0,0,0-.5.51v5.4a2.64,2.64,0,0,1,1-.14V7.31H51.4V42.64H45.13a2.44,2.44,0,0,1,.39,1h6.37a.5.5,0,0,0,.49-.51V6.81A.5.5,0,0,0,51.89,6.3Z" transform="translate(-2.14 -1.04)"/><path class="cls-2" d="M21.23,36.56A1.17,1.17,0,0,1,20,35.42V24.05a1.17,1.17,0,0,1,1.19-1.14,1.19,1.19,0,0,1,.71.22l8,5.68a1.15,1.15,0,0,1,.48.92,1.12,1.12,0,0,1-.48.92l-8,5.69A1.27,1.27,0,0,1,21.23,36.56Zm.28-11.94V34.85l7.24-5.12Z" transform="translate(-2.14 -1.04)"/></svg>