<svg width="47" height="56" viewBox="0 0 47 56" fill="none" xmlns="http://www.w3.org/2000/svg">
<g clip-path="url(#clip0)">
<path d="M45.2415 0H1.75849C0.78926 0 0 0.79625 0 1.77406V32.2908C0 33.2686 0.78926 34.0648 1.75849 34.0648H14.9927C15.4415 34.0648 15.8058 33.6973 15.8058 33.2445C15.8058 32.7917 15.4415 32.4242 14.9927 32.4242H12.9697V29.2961H14.9927C15.4415 29.2961 15.8058 28.9286 15.8058 28.4758C15.8058 28.023 15.4415 27.6555 14.9927 27.6555H1.62622V6.40937H22.6869V19.8942C22.6869 20.347 23.0512 20.7145 23.5 20.7145C23.9488 20.7145 24.3131 20.347 24.3131 19.8942V6.40937H45.3738V27.6566H32.0073C31.5585 27.6566 31.1942 28.0241 31.1942 28.4769C31.1942 28.9297 31.5585 29.2972 32.0073 29.2972H34.0303V32.4253H32.0073C31.5585 32.4253 31.1942 32.7928 31.1942 33.2456C31.1942 33.6984 31.5585 34.0659 32.0073 34.0659H45.2415C46.2107 34.0659 47 33.2697 47 32.2919V1.77406C47 0.79625 46.2107 0 45.2415 0ZM7.2974 29.2961H11.3434V32.4242H7.2974V29.2961ZM5.67118 29.2961V32.4242H1.7574C1.68477 32.4242 1.62514 32.3641 1.62514 32.2908V29.2961H5.67118ZM5.67118 4.76875H1.62622V1.77406C1.62622 1.70078 1.68585 1.64062 1.75849 1.64062H5.67226V4.76875H5.67118ZM11.3434 4.76875H7.2974V1.64062H11.3434V4.76875ZM17.0146 4.76875H12.9697V1.64062H17.0146V4.76875ZM22.6869 4.76875H18.6419V1.64062H22.6869V4.76875ZM39.7015 32.4242H35.6566V29.2961H39.7015V32.4242ZM45.3738 32.2908C45.3738 32.3641 45.3141 32.4242 45.2415 32.4242H41.3277V29.2961H45.3727V32.2908H45.3738ZM28.3581 4.76875H24.312V1.64062H28.3581V4.76875ZM34.0303 4.76875H29.9843V1.64062H34.0303V4.76875ZM39.7015 4.76875H35.6566V1.64062H39.7015V4.76875ZM45.3738 4.76875H41.3277V1.64062H45.2415C45.3141 1.64062 45.3738 1.70078 45.3738 1.77406V4.76875Z" fill="#316FEA"/>
<path d="M16.6059 46.3892C16.4942 45.9506 16.0508 45.687 15.615 45.7997C15.1803 45.9123 14.919 46.3597 15.0306 46.7994C15.0924 47.0433 15.1239 47.2948 15.1239 47.5497C15.1239 49.2012 13.7925 50.5444 12.1555 50.5444C10.5184 50.5444 9.18708 49.2012 9.18708 47.5497C9.18708 45.8981 10.5184 44.555 12.1555 44.555C12.407 44.555 12.6574 44.5867 12.8981 44.6491C13.3329 44.7617 13.7763 44.4981 13.8879 44.0595C13.9996 43.6209 13.7383 43.1736 13.3036 43.0609C12.9306 42.9636 12.5436 42.9155 12.1555 42.9155C9.62182 42.9155 7.56085 44.9947 7.56085 47.5508C7.56085 50.1069 9.62182 52.1861 12.1555 52.1861C14.6891 52.1861 16.7501 50.1069 16.7501 47.5508C16.7512 47.157 16.7013 46.7666 16.6059 46.3892Z" fill="#316FEA"/>
<path d="M39.2917 46.3892C39.18 45.9506 38.7366 45.687 38.3019 45.7997C37.8671 45.9123 37.6059 46.3597 37.7175 46.7983C37.7793 47.0422 37.8108 47.2948 37.8108 47.5486C37.8108 49.2002 36.4794 50.5433 34.8424 50.5433C33.2053 50.5433 31.874 49.2002 31.874 47.5486C31.874 45.897 33.2053 44.5539 34.8424 44.5539C35.0939 44.5539 35.3443 44.5856 35.585 44.648C36.0208 44.7606 36.4632 44.497 36.5748 44.0584C36.6865 43.6198 36.4252 43.1725 35.9905 43.0598C35.6175 42.9625 35.2305 42.9144 34.8424 42.9144C32.3087 42.9144 30.2477 44.9936 30.2477 47.5497C30.2477 50.1058 32.3087 52.185 34.8424 52.185C37.376 52.185 39.437 50.1058 39.437 47.5497C39.437 47.157 39.3882 46.7666 39.2917 46.3892Z" fill="#316FEA"/>
<path d="M43.1144 46.2C42.6201 42.9888 40.2794 40.331 37.1527 39.4308C35.6631 39.0021 34.1681 38.9878 32.699 39.3871L27.803 31.9769C27.9971 31.4574 28.0947 30.9236 28.0947 30.3833C28.0947 29.82 27.9938 29.2797 27.8095 28.7788L36.886 15.0435C37.5669 14.0131 37.8097 12.7772 37.569 11.5632C37.3283 10.3491 36.6334 9.30237 35.6121 8.61549C35.2381 8.36393 34.734 8.46565 34.4846 8.84299L23.5 25.4669L12.5154 8.84409C12.2661 8.46674 11.7619 8.36503 11.3879 8.61659C10.3666 9.30346 9.67171 10.3502 9.43103 11.5642C9.19034 12.7783 9.43319 14.0142 10.113 15.0446L19.197 28.7908C19.003 29.3103 18.9054 29.8441 18.9054 30.3844C18.9054 30.9477 19.0062 31.488 19.1905 31.9889L14.301 39.3871C12.832 38.9878 11.3359 39.0021 9.84734 39.4308C6.71957 40.3321 4.37997 42.9888 3.8856 46.2C3.45628 48.9902 4.35504 51.7016 6.35096 53.6397C7.93707 55.1786 9.98502 56 12.1446 56C12.703 56 13.27 55.9453 13.8381 55.8327C17.0537 55.1994 19.6676 52.5996 20.343 49.3642C20.8623 46.8782 20.2996 44.38 18.7992 42.4135L23.5 35.2997L28.2009 42.4135C26.7004 44.38 26.1388 46.8782 26.6571 49.3632C27.3325 52.5985 29.9464 55.1983 33.162 55.8316C33.7301 55.9432 34.296 55.9989 34.8554 55.9989C37.0139 55.9989 39.063 55.1775 40.6491 53.6386C42.645 51.7016 43.5438 48.9902 43.1144 46.2ZM35.3238 10.5307C35.649 10.9146 35.8723 11.3772 35.9732 11.8858C36.1282 12.67 35.9721 13.4685 35.5319 14.1335L26.8706 27.2399C26.3806 26.7061 25.7692 26.2872 25.0796 26.0324L35.3238 10.5307ZM17.1101 42.0132C16.9041 42.3249 16.9333 42.7361 17.1805 43.015C18.6344 44.6535 19.2068 46.8442 18.7515 49.0263C18.2083 51.625 16.1083 53.713 13.5259 54.2227C11.2925 54.6624 9.08843 54.0192 7.47847 52.4563C5.8696 50.8944 5.14538 48.7058 5.49231 46.4516C5.88369 43.9097 7.81347 41.7222 10.294 41.008C11.6611 40.6142 13.0337 40.6536 14.3747 41.125C14.7249 41.2475 15.1131 41.1163 15.319 40.8057L20.1294 33.5267C20.6194 34.0616 21.232 34.4794 21.9215 34.7342L17.1101 42.0132ZM39.5216 52.4574C37.9116 54.0203 35.7075 54.6635 33.4742 54.2238C30.8918 53.7152 28.7918 51.6272 28.2486 49.0274C27.7933 46.8453 28.3657 44.6535 29.8184 43.0161C30.0656 42.7372 30.0949 42.3249 29.8889 42.0142L24.4085 33.7203C24.2568 33.4917 24.0031 33.355 23.732 33.355C23.7158 33.355 23.6984 33.355 23.6822 33.3561C23.628 33.3594 23.5737 33.366 23.5206 33.3736C23.5098 33.3747 23.4989 33.3769 23.4881 33.378C21.8565 33.3714 20.5316 32.0305 20.5316 30.3833C20.5316 29.9414 20.6379 29.4985 20.8482 29.0686C20.9761 28.8061 20.9566 28.4944 20.7951 28.2505L11.466 14.1324C11.0258 13.4674 10.8697 12.6689 11.0247 11.8836C11.1256 11.375 11.35 10.9124 11.6741 10.5285L22.5893 27.0452C22.7498 27.288 23.0273 27.4269 23.3157 27.4094C23.3699 27.4061 23.4231 27.3996 23.4762 27.3919C23.487 27.3908 23.4979 27.3886 23.5087 27.3875C25.1403 27.3941 26.4652 28.7339 26.4652 30.3822C26.4652 30.8241 26.3589 31.2671 26.1486 31.6969C26.0207 31.9594 26.0402 32.2711 26.2017 32.515L31.6799 40.8046C31.8859 41.1163 32.274 41.2475 32.6242 41.1239C33.9653 40.6525 35.3378 40.6132 36.705 41.0069C39.1855 41.7211 41.1153 43.9097 41.5067 46.4505C41.8547 48.7058 41.1305 50.8955 39.5216 52.4574Z" fill="#316FEA"/>
<path d="M23.5098 29.563H23.5C23.0512 29.563 22.6912 29.9305 22.6912 30.3833C22.6912 30.8361 23.0598 31.2036 23.5087 31.2036C23.9575 31.2036 24.3218 30.8361 24.3218 30.3833C24.3218 29.9305 23.9586 29.563 23.5098 29.563Z" fill="#316FEA"/>
</g>
<defs>
<clipPath id="clip0">
<rect width="47" height="56" fill="white"/>
</clipPath>
</defs>
</svg>
