<svg width="54" height="48" viewBox="0 0 54 48" fill="none" xmlns="http://www.w3.org/2000/svg">
<path d="M50.4 33.1267V33.1111C50.3989 31.9456 49.689 30.8944 48.6 30.4444V26.6667C49.0972 26.6667 49.5 26.2689 49.5 25.7778V22.2222C49.5 9.96889 39.4065 0 27 0C14.5935 0 4.49998 9.96889 4.49998 22.2222V25.7778C4.49998 26.2689 4.90273 26.6667 5.39998 26.6667V30.4444C4.31098 30.8944 3.6011 31.9456 3.59998 33.1111V33.1267C1.42873 33.9511 -0.00227119 36.0122 -2.11924e-05 38.31V39.9122C-0.00227119 42.21 1.42873 44.2711 3.59998 45.0956V45.1111C3.60223 46.7056 4.9106 47.9978 6.52498 48H11.7C12.1972 48 12.6 47.6022 12.6 47.1111V46.7711L14.2099 45.9767C15.4327 45.3778 16.2045 44.1444 16.2 42.7967V35.4267C16.2045 34.0789 15.4327 32.8456 14.2099 32.2467L12.6 31.4511V31.1111C12.6 30.62 12.1972 30.2222 11.7 30.2222H10.8V26.6667C11.2972 26.6667 11.7 26.2689 11.7 25.7778V22.2222C11.7 13.89 18.5636 7.11111 27 7.11111C35.4364 7.11111 42.3 13.89 42.3 22.2222V25.7778C42.3 26.2689 42.7027 26.6667 43.2 26.6667V30.2222H42.3C41.8027 30.2222 41.4 30.62 41.4 31.1111V31.4511L39.7901 32.2456C38.5672 32.8444 37.7955 34.0778 37.8 35.4256V42.7956C37.7955 44.1433 38.5672 45.3767 39.7901 45.9756L41.4 46.77V47.1111C41.4 47.6022 41.8027 48 42.3 48H47.475C49.0894 47.9978 50.3977 46.7056 50.4 45.1111V45.0956C52.5712 44.2711 54.0022 42.21 54 39.9122V38.31C54.0022 36.0133 52.5712 33.9522 50.4 33.1267ZM3.59998 43.1178C2.47948 42.4278 1.79885 41.2156 1.79998 39.9111V38.3089C1.79885 37.0044 2.47948 35.7922 3.59998 35.1033V43.1178ZM12.6 33.4378L13.4044 33.8356C14.0164 34.1344 14.4022 34.7511 14.4 35.4256V42.7956C14.4022 43.47 14.0164 44.0867 13.4044 44.3856L12.6 44.7833V33.4378ZM41.4 44.7844L40.5956 44.3867C39.9836 44.0878 39.5977 43.4711 39.6 42.7967V35.4267C39.5977 34.7522 39.9836 34.1356 40.5956 33.8367L41.4 33.4389V44.7844ZM10.8 46.2222H8.99998V38.2222C8.99998 37.7311 8.59723 37.3333 8.09998 37.3333C7.60273 37.3333 7.19998 37.7311 7.19998 38.2222V46.2222H6.52498C5.90398 46.2211 5.4011 45.7244 5.39998 45.1111V33.1111C5.4011 32.4978 5.90398 32.0011 6.52498 32H7.19998V34.6667C7.19998 35.1578 7.60273 35.5556 8.09998 35.5556C8.59723 35.5556 8.99998 35.1578 8.99998 34.6667V32H10.8V46.2222ZM7.19998 30.2222V26.6667H8.99998V30.2222H7.19998ZM27 5.33333C17.5714 5.33333 9.89998 12.91 9.89998 22.2222V24.8889H6.29998V22.2222C6.29998 10.9489 15.5857 1.77778 27 1.77778C38.4142 1.77778 47.7 10.9489 47.7 22.2222V24.8889H44.1V22.2222C44.1 12.91 36.4286 5.33333 27 5.33333ZM46.8 26.6667V30.2222H45V26.6667H46.8ZM48.6 33.7778V45.1111C48.5989 45.7244 48.096 46.2211 47.475 46.2222H46.8V38.2222C46.8 37.7311 46.3972 37.3333 45.9 37.3333C45.4027 37.3333 45 37.7311 45 38.2222V46.2222H43.2V32H45V34.6667C45 35.1578 45.4027 35.5556 45.9 35.5556C46.3972 35.5556 46.8 35.1578 46.8 34.6667V32H47.475C48.096 32.0011 48.5989 32.4978 48.6 33.1111V33.7778ZM52.2 39.9122C52.2011 41.2167 51.5205 42.4289 50.4 43.1189V35.1044C51.5205 35.7944 52.2011 37.0067 52.2 38.3111V39.9122Z" fill="#316FEA"/>
<path d="M18 38.222C18 38.7132 18.4027 39.1109 18.9 39.1109H21.6C21.9679 39.1109 22.2986 38.8898 22.4359 38.552L23.2898 36.4443L26.1405 45.5943C26.2564 45.9676 26.6051 46.222 27.0011 46.222C27.0135 46.222 27.0247 46.222 27.0371 46.2209C27.4455 46.2054 27.7909 45.9198 27.8798 45.5254L30.7305 32.8532L32.4382 38.4765C32.553 38.852 32.9029 39.1098 33.3 39.1098H35.1C35.5972 39.1098 36 38.712 36 38.2209C36 37.7298 35.5972 37.332 35.1 37.332H33.9694L31.4618 29.0765C31.3189 28.6065 30.8171 28.3398 30.3413 28.4798C30.0285 28.572 29.7922 28.8243 29.7214 29.1387L26.8594 41.8587L24.2606 33.5154C24.1144 33.0465 23.6104 32.7832 23.1356 32.9276C22.8757 33.0065 22.6654 33.1976 22.5652 33.4476L20.9903 37.3332H18.9C18.4027 37.3332 18 37.7309 18 38.222Z" fill="#316FEA"/>
<path d="M20.7 21.3333V18.6667C20.7 18.1755 20.2972 17.7778 19.8 17.7778C19.3027 17.7778 18.9 18.1755 18.9 18.6667V21.3333C18.9 21.8244 19.3027 22.2222 19.8 22.2222C20.2972 22.2222 20.7 21.8244 20.7 21.3333Z" fill="#316FEA"/>
<path d="M23.4 24.8889C23.8972 24.8889 24.3 24.4911 24.3 24V16.8889C24.3 16.3978 23.8972 16 23.4 16C22.9027 16 22.5 16.3978 22.5 16.8889V24C22.5 24.4911 22.9027 24.8889 23.4 24.8889Z" fill="#316FEA"/>
<path d="M27.9 25.7778V15.1111C27.9 14.62 27.4972 14.2222 27 14.2222C26.5027 14.2222 26.1 14.62 26.1 15.1111V25.7778C26.1 26.2689 26.5027 26.6667 27 26.6667C27.4972 26.6667 27.9 26.2689 27.9 25.7778Z" fill="#316FEA"/>
<path d="M30.6 24.8889C31.0972 24.8889 31.5 24.4911 31.5 24V16.8889C31.5 16.3978 31.0972 16 30.6 16C30.1028 16 29.7 16.3978 29.7 16.8889V24C29.7 24.4911 30.1028 24.8889 30.6 24.8889Z" fill="#316FEA"/>
<path d="M35.1 21.3333V18.6667C35.1 18.1755 34.6972 17.7778 34.2 17.7778C33.7027 17.7778 33.3 18.1755 33.3 18.6667V21.3333C33.3 21.8244 33.7027 22.2222 34.2 22.2222C34.6972 22.2222 35.1 21.8244 35.1 21.3333Z" fill="#316FEA"/>
<path d="M38.7 20.4445V19.5556C38.7 19.0645 38.2972 18.6667 37.8 18.6667C37.3028 18.6667 36.9 19.0645 36.9 19.5556V20.4445C36.9 20.9356 37.3028 21.3334 37.8 21.3334C38.2972 21.3334 38.7 20.9356 38.7 20.4445Z" fill="#316FEA"/>
<path d="M17.1 19.5556C17.1 19.0645 16.6972 18.6667 16.2 18.6667C15.7027 18.6667 15.3 19.0645 15.3 19.5556V20.4445C15.3 20.9356 15.7027 21.3334 16.2 21.3334C16.6972 21.3334 17.1 20.9356 17.1 20.4445V19.5556Z" fill="#316FEA"/>
</svg>
