<svg width="48" height="48" viewBox="0 0 48 48" fill="none" xmlns="http://www.w3.org/2000/svg">
<path d="M44.129 48H3.87097C1.73419 47.9971 0.00290323 46.2658 0 44.129V3.87097C0.00290323 1.7342 1.73419 0.00290298 3.87097 0H44.129C46.2658 0.00290298 47.9971 1.7342 48 3.87097V44.129C47.9971 46.2658 46.2658 47.9971 44.129 48ZM38.7097 44.9032V43.3548H37.1613V44.9032H35.6129V43.3548H34.0645V44.9032H32.5161V43.3548H30.9677V44.9032H29.4194V43.3548H27.871V44.9032H26.3226V43.3548H24.7742V44.9032H23.2258V43.3548H21.6774V44.9032H20.129V43.3548H18.5806V44.9032H17.0323V43.3548H15.4839V44.9032H13.9355V43.3548H12.3871V44.9032H10.8387V43.3548H9.29032V44.9032H7.74194V43.3548H5.41935V46.4516H42.5806V43.3548H40.2581V44.9032H38.7097ZM3.87097 46.4516V42.5806C3.87097 42.1529 4.21742 41.8065 4.64516 41.8065H43.3548C43.7826 41.8065 44.129 42.1529 44.129 42.5806V46.4516C45.4113 46.4516 46.4516 45.4113 46.4516 44.129V30.9677H43.1052L41.7523 34.3529C41.5935 34.7497 41.1435 34.9432 40.7458 34.7855C40.5339 34.7013 40.3694 34.5271 40.2977 34.3103L38.7097 29.5452L37.1216 34.3094C36.9871 34.7148 36.5487 34.9355 36.1432 34.801C35.9265 34.7294 35.7523 34.5648 35.6681 34.3529L34.3142 30.9677H32.2655L30.9126 34.3529C30.7539 34.7497 30.3039 34.9432 29.9061 34.7855C29.6942 34.7013 29.5297 34.5271 29.4581 34.3103L27.871 29.5452L26.2829 34.3094C26.1484 34.7148 25.71 34.9355 25.3045 34.801C25.0877 34.7294 24.9135 34.5648 24.8294 34.3529L23.4755 30.9677H21.4626L19.3161 37.4061C19.1826 37.8126 18.7452 38.0332 18.3387 37.8997C18.1055 37.8232 17.9216 37.6394 17.8452 37.4061L15.6997 30.9677H13.6868L12.3339 34.3529C12.1752 34.7497 11.7252 34.9442 11.3284 34.7855C11.131 34.7071 10.9742 34.5503 10.8958 34.3529L10.0645 32.2781L7.68677 38.2239C7.52806 38.6206 7.07806 38.8152 6.68129 38.6565C6.48387 38.5781 6.3271 38.4213 6.24871 38.2239L3.34645 30.9677H1.54839V44.129C1.54839 45.4113 2.58871 46.4516 3.87097 46.4516ZM46.4516 29.4194V24.7742H1.54839V29.4194H3.87097C4.18742 29.4194 4.47194 29.6119 4.59 29.9052L6.96774 35.851L9.34548 29.9052C9.50419 29.5084 9.95419 29.3139 10.351 29.4726C10.5484 29.551 10.7052 29.7077 10.7835 29.9052L11.6129 31.98L12.4423 29.9052C12.5603 29.611 12.8448 29.4184 13.1613 29.4194H16.2581C16.591 29.4194 16.8871 29.6323 16.9926 29.9487L18.5806 34.7129L20.1687 29.9487C20.2742 29.6323 20.5703 29.4194 20.9032 29.4194H24C24.3165 29.4194 24.601 29.6119 24.719 29.9052L25.4826 31.8145L27.1365 26.8519C27.27 26.4455 27.7074 26.2248 28.1139 26.3584C28.3471 26.4348 28.531 26.6187 28.6074 26.8519L30.2613 31.8145L31.0248 29.9052C31.1419 29.6119 31.4265 29.4194 31.7429 29.4194H34.8397C35.1561 29.4194 35.4406 29.6119 35.5587 29.9052L36.3223 31.8145L37.9761 26.8519C38.1097 26.4455 38.5471 26.2248 38.9535 26.3584C39.1868 26.4348 39.3706 26.6187 39.4471 26.8519L41.101 31.8145L41.8645 29.9052C41.9816 29.6119 42.2661 29.4194 42.5826 29.4194H46.4516ZM44.129 1.54839H3.87097C2.58871 1.54839 1.54839 2.58871 1.54839 3.87097V23.2258H46.4516V3.87097C46.4516 2.58871 45.4113 1.54839 44.129 1.54839Z" fill="#316FEA"/>
<path d="M34.8387 20.129C33.8584 20.1252 32.9855 19.5048 32.6584 18.5806H4.64517V17.0322H32.6584C33.0774 15.8284 34.3936 15.1926 35.5984 15.6116C36.2642 15.8439 36.7868 16.3664 37.019 17.0322H43.3548V18.5806H37.019C36.6919 19.5048 35.819 20.1252 34.8387 20.129ZM34.8387 17.0322C34.411 17.0322 34.0645 17.3787 34.0645 17.8064C34.0645 18.2342 34.411 18.5806 34.8387 18.5806C35.2665 18.5806 35.6129 18.2342 35.6129 17.8064C35.6129 17.3787 35.2665 17.0322 34.8387 17.0322Z" fill="#316FEA"/>
<path d="M22.4516 13.9355C21.4713 13.9316 20.5984 13.3113 20.2713 12.3871H4.64517V10.8387H20.2713C20.6903 9.63483 22.0065 8.99902 23.2113 9.41806C23.8771 9.65032 24.3997 10.1729 24.6319 10.8387H43.3548V12.3871H24.6319C24.3048 13.3113 23.4319 13.9316 22.4516 13.9355ZM22.4516 10.8387C22.0239 10.8387 21.6774 11.1852 21.6774 11.6129C21.6774 12.0406 22.0239 12.3871 22.4516 12.3871C22.8794 12.3871 23.2258 12.0406 23.2258 11.6129C23.2258 11.1852 22.8794 10.8387 22.4516 10.8387Z" fill="#316FEA"/>
<path d="M27.0968 7.74194C26.1165 7.73807 25.2436 7.11775 24.9165 6.19355H4.64517V4.64516H24.9165C25.3355 3.44129 26.6516 2.80549 27.8565 3.22452C28.5223 3.45678 29.0448 3.97936 29.2771 4.64516H43.3548V6.19355H29.2771C28.95 7.11775 28.0771 7.73807 27.0968 7.74194ZM27.0968 4.64516C26.669 4.64516 26.3226 4.99162 26.3226 5.41936C26.3226 5.8471 26.669 6.19355 27.0968 6.19355C27.5245 6.19355 27.871 5.8471 27.871 5.41936C27.871 4.99162 27.5245 4.64516 27.0968 4.64516Z" fill="#316FEA"/>
<path d="M4.64517 21.6774H13.1613V20.129H4.64517V21.6774Z" fill="#316FEA"/>
<path d="M14.7097 21.6774H16.2581V20.129H14.7097V21.6774Z" fill="#316FEA"/>
<path d="M4.64517 15.4839H13.1613V13.9355H4.64517V15.4839Z" fill="#316FEA"/>
<path d="M14.7097 15.4839H16.2581V13.9355H14.7097V15.4839Z" fill="#316FEA"/>
<path d="M4.64517 9.29034H13.1613V7.74196H4.64517V9.29034Z" fill="#316FEA"/>
<path d="M14.7097 9.29034H16.2581V7.74196H14.7097V9.29034Z" fill="#316FEA"/>
</svg>
