<svg width="56" height="41" viewBox="0 0 56 41" fill="none" xmlns="http://www.w3.org/2000/svg">
<g clip-path="url(#clip0)">
<path d="M49.4069 18.4553C47.5016 17.5052 43.9283 17.4943 43.7773 17.4943C43.3245 17.4943 42.957 17.8608 42.957 18.3124C42.957 18.764 43.3245 19.1305 43.7773 19.1305C44.6994 19.1305 47.3758 19.2723 48.673 19.9191C48.7911 19.9781 48.9158 20.0053 49.0394 20.0053C49.3402 20.0053 49.63 19.8395 49.7733 19.5526C49.9767 19.149 49.8116 18.6582 49.4069 18.4553Z" fill="#316FEA"/>
<path d="M53.4964 30.104L50.108 29.1386C49.9614 29.0972 49.8597 28.9619 49.8597 28.8103V27.6824C50.1353 27.4915 50.3978 27.2788 50.6439 27.041C51.835 25.888 52.4913 24.3424 52.4913 22.6865V21.13L52.8183 20.4766C53.1781 19.7599 53.3673 18.956 53.3673 18.1542V13.9383C53.3673 13.4867 52.9998 13.1202 52.547 13.1202H44.6534C41.7834 13.1202 39.4472 15.449 39.4472 18.3124V18.3615C39.4472 19.028 39.6058 19.6955 39.9044 20.2922L40.3244 21.13V22.4662C40.3244 24.5834 41.3711 26.4836 42.9559 27.6279V28.8103C42.9559 28.9925 42.9559 29.0677 42.2789 29.2608L40.6263 29.732L35.8444 27.9977C35.8619 27.7729 35.7853 27.5439 35.6213 27.3715L34.0933 25.7702V23.0814C34.2552 22.9483 34.4137 22.812 34.568 22.668C36.4952 20.866 37.6009 18.3222 37.6009 15.6879V13.5412C38.1828 12.2781 38.4781 10.9408 38.4781 9.56416V0.818103C38.4781 0.36651 38.1106 0 37.6578 0H25.3794C21.058 0 17.5427 3.50584 17.5427 7.81561V9.56526C17.5427 10.9418 17.838 12.2792 18.4198 13.5423V15.3891C18.4198 18.4477 19.7838 21.2019 21.9286 23.0192V25.7702L20.4006 27.3715C20.2355 27.5439 20.16 27.7729 20.1775 27.9977L15.1298 29.828C14.7645 29.9611 14.4244 30.14 14.1159 30.3581L13.323 29.9633C15.6822 28.939 16.4292 27.4992 16.4653 27.4272C16.5812 27.197 16.5812 26.9254 16.4653 26.6952C15.8736 25.5161 15.8025 23.353 15.7445 21.6164C15.7248 21.0383 15.7073 20.4918 15.6723 20.0053C15.3923 16.0817 12.402 13.1224 8.71391 13.1224C5.02578 13.1224 2.03547 16.0817 1.75547 20.0053C1.72047 20.4918 1.70297 21.0383 1.68328 21.6164C1.62531 23.353 1.55422 25.515 0.9625 26.6952C0.846563 26.9254 0.846563 27.197 0.9625 27.4272C0.998594 27.4992 1.74453 28.9357 4.10813 29.9611L1.90641 31.0584C0.730625 31.6453 0 32.8255 0 34.1367V40.1808C0 40.6324 0.3675 40.9989 0.820312 40.9989C1.27312 40.9989 1.64062 40.6324 1.64062 40.1808V34.1367C1.64062 33.4484 2.02453 32.8288 2.64141 32.5212L5.38234 31.1544L6.33609 32.0576C7.00328 32.6892 7.85859 33.0055 8.71391 33.0055C9.56922 33.0055 10.4256 32.6892 11.0917 32.0576L12.0455 31.1544L12.9391 31.6006C12.518 32.2725 12.2795 33.0601 12.2795 33.8847V40.1819C12.2795 40.6335 12.647 41 13.0998 41C13.5527 41 13.9202 40.6335 13.9202 40.1819V33.8847C13.9202 32.7612 14.6311 31.7489 15.6898 31.365L21.0109 29.4353L23.2258 32.7492C23.5091 33.1724 23.963 33.4451 24.4705 33.4953C24.5273 33.5008 24.5831 33.504 24.64 33.504C25.0884 33.504 25.5172 33.3284 25.8388 33.0077L27.1906 31.6595V40.1808C27.1906 40.6324 27.5581 40.9989 28.0109 40.9989C28.4638 40.9989 28.8313 40.6324 28.8313 40.1808V31.6595L30.1831 33.0077C30.5036 33.3273 30.9334 33.504 31.3819 33.504C31.4377 33.504 31.4945 33.5018 31.5514 33.4953C32.06 33.4451 32.5139 33.1735 32.7961 32.7503L35.0109 29.4364L40.332 31.366C41.3908 31.75 42.1017 32.7623 42.1017 33.8858V40.183C42.1017 40.6346 42.4692 41.0011 42.922 41.0011C43.3748 41.0011 43.7423 40.6346 43.7423 40.183V33.8858C43.7423 32.7481 43.2895 31.6813 42.5294 30.8926L42.7317 30.8348C42.9362 30.777 43.2152 30.6963 43.4952 30.5599L45.5897 32.6488V40.183C45.5897 40.6346 45.9572 41.0011 46.41 41.0011C46.8628 41.0011 47.2303 40.6346 47.2303 40.183V32.6477L49.3106 30.573C49.4211 30.6287 49.537 30.6767 49.6595 30.7116L53.048 31.6769C53.8213 31.8973 54.3616 32.6117 54.3616 33.4135V40.1808C54.3616 40.6324 54.7291 40.9989 55.1819 40.9989C55.6347 40.9989 56.0022 40.6324 56.0022 40.1808V33.4135C56 31.8853 54.9708 30.524 53.4964 30.104ZM5.26312 28.6587C3.72859 28.1078 2.95859 27.3737 2.63047 26.9734C2.85469 26.3898 3.00016 25.7201 3.0975 25.0143C3.55031 26.0964 4.30719 27.0192 5.26312 27.678V28.6587ZM9.96187 30.873C9.26188 31.5362 8.16594 31.5362 7.46703 30.873L6.70469 30.1498C6.83375 29.9098 6.90375 29.6371 6.90375 29.3513V28.4798C7.47578 28.6587 8.08391 28.7547 8.715 28.7547C9.345 28.7547 9.95312 28.6576 10.5262 28.4809V29.3524C10.5262 29.6382 10.5973 29.9109 10.7253 30.152L9.96187 30.873ZM8.715 27.1174C6.265 27.1174 4.27219 25.1299 4.27219 22.6876C4.27219 22.236 3.90469 21.8695 3.45187 21.8695C3.40594 21.8695 3.36109 21.8739 3.31734 21.8815C3.31953 21.8117 3.32172 21.7408 3.325 21.671C3.34359 21.1081 3.36109 20.5769 3.39281 20.121C3.49781 18.6506 4.08625 17.2969 5.05094 16.3064C6.02437 15.3072 7.32484 14.7575 8.71391 14.7575C10.103 14.7575 11.4034 15.3072 12.3769 16.3064C13.3416 17.2958 13.9311 18.6506 14.035 20.121C14.0678 20.5769 14.0853 21.1081 14.1039 21.6699C14.105 21.7179 14.1072 21.767 14.1083 21.8161C13.2158 20.4449 11.8377 19.4338 10.057 18.8633C8.41203 18.3364 6.99672 18.3691 6.93656 18.3702C6.72219 18.3757 6.51766 18.4662 6.36891 18.62L4.88906 20.1504C4.57406 20.4755 4.58391 20.9936 4.90984 21.3078C5.23578 21.6219 5.75531 21.6121 6.06922 21.287L7.30078 20.013C8.36172 20.0642 11.7731 20.4602 13.1009 23.3748C12.7684 25.5215 10.9178 27.1174 8.715 27.1174ZM12.1658 28.6609V27.6846C13.1195 27.029 13.8786 26.1073 14.3314 25.0176C14.4298 25.7222 14.5753 26.3898 14.7984 26.9723C14.4714 27.3704 13.6981 28.1111 12.1658 28.6609ZM20.0594 15.3891V13.3591C20.0594 13.2358 20.0309 13.1147 19.9773 13.0035C19.4491 11.9138 19.1822 10.7564 19.1822 9.56526V7.81561C19.1822 4.40794 21.9625 1.63621 25.3783 1.63621H36.8375V9.56526C36.8375 10.7564 36.5695 11.9127 36.0423 13.0035C35.9888 13.1147 35.9603 13.2358 35.9603 13.3591V15.6879C35.9603 17.9034 35.0667 19.9584 33.4458 21.4746C33.2434 21.6634 33.0334 21.8412 32.8158 22.007C32.8114 22.0102 32.8059 22.0135 32.8016 22.0168C31.2823 23.1676 29.4219 23.7261 27.4783 23.6006C23.3188 23.3323 20.0594 19.725 20.0594 15.3891ZM24.6783 31.8504C24.6728 31.8558 24.6597 31.8689 24.6323 31.8667C24.6061 31.8645 24.5952 31.8482 24.5908 31.8416L22.0402 28.0249L22.8616 27.1643L26.7312 29.8029L24.6783 31.8504ZM28.0109 28.6936L23.5681 25.6655V24.1384C24.7177 24.758 26.005 25.1452 27.3733 25.2336C27.5898 25.2477 27.8042 25.2543 28.0186 25.2543C29.587 25.2543 31.0964 24.8801 32.4527 24.1711V25.6655L28.0109 28.6936ZM31.43 31.8416C31.4256 31.8482 31.4147 31.8635 31.3884 31.8667C31.3622 31.87 31.3491 31.8558 31.3425 31.8504L29.2895 29.8029L33.1603 27.1643L33.9817 28.0249L31.43 31.8416ZM46.4089 31.1512L44.5473 29.2946C44.5802 29.1474 44.5977 28.9859 44.5977 28.8092V28.4634C45.1139 28.6325 45.6586 28.7329 46.2219 28.7492C46.2853 28.7514 46.3477 28.7525 46.4111 28.7525C47.0334 28.7525 47.6416 28.6587 48.2202 28.4798V28.8092C48.2202 28.9728 48.2409 29.1321 48.2792 29.2859L46.4089 31.1512ZM49.502 25.8662C48.6325 26.7072 47.4841 27.1523 46.2711 27.1152C43.8977 27.0443 41.9661 24.9587 41.9661 22.4673V20.938C41.9661 20.8103 41.9366 20.686 41.8797 20.5726L41.3733 19.5614C41.1873 19.1905 41.09 18.776 41.09 18.3626V18.3135C41.09 16.3533 42.6891 14.7575 44.6556 14.7575H51.7289V18.1553C51.7289 18.704 51.5988 19.2538 51.3527 19.7457L50.9381 20.5715C50.8812 20.6849 50.8517 20.8103 50.8517 20.9369V22.6865C50.8506 23.8951 50.3716 25.0241 49.502 25.8662Z" fill="#316FEA"/>
<path d="M51.671 34.1149C51.2181 34.1149 50.8506 34.4814 50.8506 34.933V40.1808C50.8506 40.6324 51.2181 40.9989 51.671 40.9989C52.1238 40.9989 52.4913 40.6324 52.4913 40.1808V34.933C52.4913 34.4814 52.1249 34.1149 51.671 34.1149Z" fill="#316FEA"/>
<path d="M4.32904 35.1958C3.87623 35.1958 3.50873 35.5623 3.50873 36.0139V40.1808C3.50873 40.6324 3.87623 40.9989 4.32904 40.9989C4.78185 40.9989 5.14935 40.6324 5.14935 40.1808V36.0139C5.14935 35.5623 4.78185 35.1958 4.32904 35.1958Z" fill="#316FEA"/>
<path d="M34.7298 9.86195C31.6269 6.76734 25.1365 7.35965 22.4886 7.75779C21.6551 7.88323 21.0503 8.5868 21.0503 9.43108V11.316C21.0503 11.7676 21.4178 12.1341 21.8706 12.1341C22.3234 12.1341 22.6909 11.7676 22.6909 11.316V9.42999C22.6909 9.40163 22.7095 9.37873 22.7336 9.37436C23.7912 9.2151 25.889 8.96967 28.0634 9.11475C30.6217 9.28492 32.4745 9.92522 33.5705 11.0182C33.8909 11.3378 34.4105 11.3378 34.7309 11.0182C35.0503 10.6997 35.0503 10.1816 34.7298 9.86195Z" fill="#316FEA"/>
<path d="M18.3619 35.8645C17.9091 35.8645 17.5416 36.231 17.5416 36.6826V40.1819C17.5416 40.6335 17.9091 41 18.3619 41C18.8147 41 19.1822 40.6335 19.1822 40.1819V36.6826C19.1822 36.231 18.8158 35.8645 18.3619 35.8645Z" fill="#316FEA"/>
<path d="M37.6589 35.8645C37.2061 35.8645 36.8386 36.231 36.8386 36.6826V40.1819C36.8386 40.6335 37.2061 41 37.6589 41C38.1117 41 38.4792 40.6335 38.4792 40.1819V36.6826C38.4792 36.231 38.1117 35.8645 37.6589 35.8645Z" fill="#316FEA"/>
</g>
<defs>
<clipPath id="clip0">
<rect width="56" height="41" fill="white"/>
</clipPath>
</defs>
</svg>
