<svg width="50" height="60" viewBox="0 0 50 60" fill="none" xmlns="http://www.w3.org/2000/svg">
<g clip-path="url(#clip0)">
<path d="M3.51181 28.3055L0.379465 32.659C-0.399257 33.7406 0.0710025 35.2699 1.32115 35.7211L3.34652 36.45V50.6285C3.34652 51.9152 4.15551 53.0707 5.35909 53.5043L21.8915 59.4574C23.868 60.1699 26.0656 60.1934 28.1108 59.4574L44.6432 53.5043C45.8468 53.0707 46.6558 51.9152 46.6558 50.6285V40.2832C46.6558 39.7981 46.2647 39.4043 45.7828 39.4043C45.3009 39.4043 44.9098 39.7981 44.9098 40.2832V50.6285C44.9098 51.1746 44.5664 51.6656 44.0554 51.8496L27.523 57.8027C26.9875 57.9961 26.4358 58.1262 25.8747 58.1918V39.0152L27.8082 41.7035C28.3203 42.416 29.2597 42.7137 30.0896 42.4149C31.015 42.082 44.4989 37.2258 44.9086 37.0781V42.0399C44.9086 42.525 45.2997 42.9188 45.7816 42.9188C46.2635 42.9188 46.6546 42.525 46.6546 42.0399V36.45L48.68 35.7211C49.929 35.2711 50.4004 33.7418 49.6217 32.659L46.4893 28.3055C46.3997 28.1813 46.2437 28.0535 46.0749 27.9926L38.5077 25.2844C38.0538 25.1215 37.5544 25.3606 37.3926 25.8176C37.2308 26.2746 37.4683 26.7774 37.9222 26.9402L43.1824 28.8235L25.8736 35.0567V22.9172C26.6116 22.9887 27.3379 23.1516 28.041 23.4035L34.0612 25.5586C34.5152 25.7215 35.0145 25.4824 35.1763 25.0254C35.3381 24.5684 35.1007 24.0656 34.6467 23.9027L28.6265 21.7477C26.3403 20.9297 23.7807 20.8863 21.3758 21.7477L3.92736 27.9938C3.75975 28.0524 3.6061 28.1754 3.51181 28.3055ZM1.79374 33.6902L4.54196 29.8711L23.6107 36.7371C22.9636 37.636 23.5281 36.852 20.7799 40.6723C20.717 40.7602 20.6018 40.7953 20.5005 40.759C20.1758 40.6418 2.25003 34.1871 1.91014 34.0652C1.75532 34.0102 1.69829 33.8227 1.79374 33.6902ZM5.94575 51.8485C5.43475 51.6645 5.09137 51.1735 5.09137 50.6274V37.0781L19.9104 42.4149C20.7485 42.7172 21.6808 42.409 22.1883 41.7082C22.1895 41.7059 22.1907 41.7047 22.1918 41.7035L24.1252 39.0152V58.1906C23.5642 58.125 23.0124 57.9938 22.477 57.8016L5.94575 51.8485ZM48.2063 33.6902C48.3017 33.8227 48.2435 34.0102 48.091 34.0652C47.9164 34.1285 29.6845 40.6934 29.5006 40.759C29.3994 40.7953 29.2841 40.7602 29.2213 40.6723L26.3892 36.7371L45.458 29.8711L48.2063 33.6902ZM21.9602 23.4035C22.6632 23.1516 23.3884 22.9899 24.1276 22.9172V35.0555C23.3791 34.786 7.49389 29.066 6.81876 28.8223L21.9602 23.4035Z" fill="#316FEA"/>
<path d="M25.8724 18.3164V7.33125C25.8724 6.8461 25.4813 6.45235 24.9994 6.45235C24.5175 6.45235 24.1264 6.8461 24.1264 7.33125V18.3152C24.1264 18.8004 24.5175 19.1941 24.9994 19.1941C25.4813 19.1941 25.8724 18.8016 25.8724 18.3164Z" fill="#316FEA"/>
<path d="M36.5592 9.01174C36.3101 9.1219 30.4412 11.7844 29.4715 19.1074C29.4017 19.6336 29.8079 20.1024 30.3376 20.1024C30.7682 20.1024 31.1431 19.7813 31.2024 19.3395C31.5528 16.6969 32.6702 14.4317 34.5233 12.6071C35.9167 11.236 37.2308 10.6348 37.2599 10.6219C37.6999 10.4262 37.9013 9.9094 37.7081 9.46526C37.516 9.01995 37.0015 8.81721 36.5592 9.01174Z" fill="#316FEA"/>
<path d="M34.7852 20.9848C34.5455 21.4066 34.691 21.9434 35.1088 22.1836C35.5267 22.425 36.061 22.2797 36.2996 21.8578C38.3273 18.2918 41.3398 16.8996 43.5095 16.3594C43.9774 16.2434 44.2638 15.7664 44.1474 15.2953C44.0321 14.8242 43.5584 14.5359 43.0904 14.6531C41.0441 15.1629 37.2436 16.6629 34.7852 20.9848Z" fill="#316FEA"/>
<path d="M12.2896 9.46526C12.0964 9.91057 12.2978 10.4285 12.7401 10.6231C12.7925 10.6465 17.9548 12.9879 18.7964 19.3407C18.8604 19.8235 19.3016 20.1598 19.7777 20.0953C20.2561 20.0309 20.5913 19.5891 20.5273 19.1074C19.5565 11.7844 13.6887 9.1219 13.4396 9.01174C12.9985 8.81721 12.484 9.01995 12.2896 9.46526Z" fill="#316FEA"/>
<path d="M5.85148 15.2953C5.73624 15.7664 6.02142 16.2434 6.48935 16.3594C8.65906 16.8996 11.6715 18.2918 13.6992 21.8578C13.939 22.2797 14.4721 22.425 14.89 22.1836C15.309 21.9422 15.4534 21.4055 15.2136 20.9848C12.7564 16.6629 8.95472 15.1629 6.90723 14.6531C6.4393 14.5359 5.96671 14.8242 5.85148 15.2953Z" fill="#316FEA"/>
<path d="M40.9789 8.93789C40.497 8.93789 40.1059 9.33164 40.1059 9.8168C40.1059 10.302 40.497 10.6957 40.9789 10.6957H41.5865V11.3074C41.5865 11.7926 41.9776 12.1863 42.4595 12.1863C42.9414 12.1863 43.3325 11.7926 43.3325 11.3074V10.6957H43.9402C44.4221 10.6957 44.8132 10.302 44.8132 9.8168C44.8132 9.33164 44.4221 8.93789 43.9402 8.93789H43.3325V8.32617C43.3325 7.84102 42.9414 7.44727 42.4595 7.44727C41.9776 7.44727 41.5865 7.84102 41.5865 8.32617V8.93789H40.9789Z" fill="#316FEA"/>
<path d="M5.82587 21.1172H5.21825C4.73635 21.1172 4.34525 21.5109 4.34525 21.9961C4.34525 22.4813 4.73635 22.875 5.21825 22.875H5.82587V23.4867C5.82587 23.9719 6.21697 24.3656 6.69887 24.3656C7.18077 24.3656 7.57188 23.9719 7.57188 23.4867V22.875H8.17949C8.66139 22.875 9.0525 22.4813 9.0525 21.9961C9.0525 21.5109 8.66139 21.1172 8.17949 21.1172H7.57188V20.5055C7.57188 20.0203 7.18077 19.6266 6.69887 19.6266C6.21697 19.6266 5.82587 20.0203 5.82587 20.5055V21.1172Z" fill="#316FEA"/>
<path d="M35.1973 2.70939C34.4 2.29807 33.7365 1.6301 33.3302 0.82619C32.7738 -0.275372 31.2164 -0.2742 30.66 0.82619C30.2537 1.62892 29.5914 2.29807 28.7941 2.70939C27.7011 3.27189 27.7081 4.85275 28.7883 5.40705C29.5821 5.81486 30.2444 6.47932 30.6518 7.27853C31.2059 8.36486 32.7855 8.36604 33.3395 7.27853C33.7469 6.47932 34.4081 5.81486 35.2031 5.40705C36.2833 4.85275 36.2915 3.27189 35.1973 2.70939ZM31.9963 6.09846C31.4946 5.26994 30.7938 4.5633 29.9709 4.05939C30.795 3.55432 31.4957 2.85002 31.9963 2.0215C32.498 2.85002 33.1987 3.55432 34.0216 4.05939C33.1987 4.56447 32.4968 5.26994 31.9963 6.09846Z" fill="#316FEA"/>
<path d="M17.4124 9.02463C17.9083 9.99729 19.3191 9.99846 19.8149 9.02463C20.0989 8.46799 20.5599 8.00393 21.114 7.72033C22.0743 7.22697 22.0952 5.81486 21.1105 5.30744C20.5541 5.02151 20.092 4.5551 19.8091 3.99494C19.3109 3.0094 17.9164 3.0094 17.4182 3.99494C17.1354 4.5551 16.6733 5.02151 16.1169 5.30744C15.1472 5.80783 15.1391 7.21994 16.1134 7.72033C16.6674 8.00393 17.1284 8.46799 17.4124 9.02463ZM18.6137 5.39065C18.921 5.82424 19.3004 6.20627 19.7311 6.51447C19.3004 6.82385 18.921 7.20588 18.6137 7.63947C18.3064 7.20588 17.9269 6.82385 17.4962 6.51447C17.9269 6.2051 18.3064 5.82424 18.6137 5.39065Z" fill="#316FEA"/>
</g>
<defs>
<clipPath id="clip0">
<rect width="50" height="60" fill="white"/>
</clipPath>
</defs>
</svg>
