<svg width="55" height="44" viewBox="0 0 55 44" fill="none" xmlns="http://www.w3.org/2000/svg">
<g clip-path="url(#clip0)">
<path d="M35.15 6.68999C36.69 6.54999 38.29 7.06999 39.43 8.12999C39.99 8.66999 40.55 9.20999 41.07 9.78999C42.47 11.41 42.78 13.87 41.85 15.8C41.56 16.42 41.15 16.98 40.66 17.45C38.44 19.67 36.21 21.9 33.99 24.12C33.3 24.84 32.55 25.55 31.61 25.92C30.14 26.52 28.33 26.57 26.95 25.7C26.39 25.39 25.83 25.03 25.46 24.5C25.14 23.93 25.75 23.17 26.38 23.37C26.85 23.57 27.18 24 27.58 24.3C29.04 25.09 30.97 24.82 32.16 23.66C34.59 21.24 37.01 18.81 39.44 16.38C39.98 15.87 40.41 15.24 40.61 14.53C41.04 13.13 40.62 11.53 39.57 10.52C38.88 9.86999 38.29 9.07999 37.41 8.65999C36.21 8.05999 34.71 8.12999 33.57 8.82999C33.01 9.15999 32.59 9.65999 32.13 10.11C30.65 11.58 29.18 13.08 27.69 14.54C27.18 15.14 26.25 14.34 26.54 13.7C26.78 13.21 27.31 12.94 27.54 12.45C28.9 11.06 30.29 9.68999 31.66 8.30999C32.6 7.38999 33.85 6.79999 35.15 6.68999ZM24.79 16.46C26.58 15.96 28.56 16.55 29.89 17.82C30.32 18.25 30.76 18.67 31.17 19.11C31.58 19.53 31.31 20.3 30.74 20.41C30.15 20.55 29.8 19.97 29.43 19.63C28.78 18.92 28.03 18.28 27.1 17.99C25.78 17.67 24.31 18.08 23.36 19.05C20.86 21.56 18.35 24.05 15.86 26.56C14.48 28.02 14.5 30.52 15.89 31.96C16.6 32.64 17.22 33.45 18.1 33.92C19.28 34.55 20.79 34.52 21.95 33.85C22.52 33.54 22.95 33.04 23.4 32.59C24.68 31.32 25.95 30.04 27.23 28.77C27.5 28.43 27.7 27.96 28.18 27.88C28.8 27.75 29.34 28.49 29.02 29.04C28.66 29.52 28.18 29.91 27.76 30.34C27.52 30.55 27.4 30.87 27.17 31.09C25.98 32.25 24.83 33.46 23.62 34.61C21.61 36.42 18.26 36.41 16.27 34.57C15.34 33.64 14.26 32.77 13.73 31.53C12.79 29.5 13.23 26.92 14.81 25.34C17.26 22.88 19.71 20.44 22.16 17.98C22.87 17.26 23.79 16.72 24.79 16.46Z" fill="#316FEA"/>
<path d="M19.39 5.87999H1.76001" stroke="#316FEA" stroke-width="1.3" stroke-miterlimit="2.6131" stroke-linecap="round" stroke-linejoin="round"/>
<path d="M5.09002 0.649994L0.650024 5.87999L5.09002 11.13" stroke="#316FEA" stroke-width="1.3" stroke-miterlimit="2.6131" stroke-linecap="round" stroke-linejoin="round"/>
<path d="M34.65 37.29H52.28" stroke="#316FEA" stroke-width="1.3" stroke-miterlimit="2.6131" stroke-linecap="round" stroke-linejoin="round"/>
<path d="M48.94 42.52L53.39 37.29L48.94 32.04" stroke="#316FEA" stroke-width="1.3" stroke-miterlimit="2.6131" stroke-linecap="round" stroke-linejoin="round"/>
</g>
<defs>
<clipPath id="clip0">
<rect width="54.04" height="43.17" fill="white"/>
</clipPath>
</defs>
</svg>
