<svg width="58" height="49" viewBox="0 0 58 49" fill="none" xmlns="http://www.w3.org/2000/svg">
<g clip-path="url(#clip0)">
<path d="M19.77 25.87C19.77 24.33 20.71 23.34 21.93 22.91C20.84 22.49 20.2 21.63 20.2 20.51C20.2 18.65 21.96 17.53 23.72 17.53C25.5 17.53 27.23 18.68 27.23 20.48C27.23 21.63 26.53 22.43 25.47 22.9C26.8 23.38 27.66 24.37 27.66 25.85C27.66 28.14 25.66 29.27 23.72 29.27C21.85 29.26 19.77 28.14 19.77 25.87ZM26.23 25.79C26.23 24.29 25.11 23.52 23.75 23.52C22.39 23.52 21.19 24.3 21.19 25.82C21.19 27.32 22.39 28.13 23.72 28.13C25.13 28.12 26.23 27.31 26.23 25.79ZM25.82 20.49C25.82 19.39 24.91 18.62 23.72 18.62C22.54 18.62 21.61 19.34 21.61 20.52C21.61 21.72 22.6 22.41 23.77 22.41C24.99 22.41 25.82 21.71 25.82 20.49Z" fill="#316FEA"/>
<path d="M30.01 17.67H31.4V23.18L36.38 17.66H37.93L32.84 23.23L38.19 29.12H36.51L31.4 23.53V29.12H30.01V17.67Z" fill="#316FEA"/>
<path d="M56.82 48.03H0.65C0.29 48.03 0 47.74 0 47.38V0.65C0 0.29 0.29 0 0.65 0H56.82C57.18 0 57.47 0.29 57.47 0.65V47.38C57.47 47.74 57.18 48.03 56.82 48.03ZM1.3 46.73H56.17V1.3H1.3V46.73Z" fill="#316FEA"/>
</g>
<defs>
<clipPath id="clip0">
<rect width="57.47" height="48.03" fill="white"/>
</clipPath>
</defs>
</svg>
