<svg width="60" height="57" viewBox="0 0 60 57" fill="none" xmlns="http://www.w3.org/2000/svg">
<g clip-path="url(#clip0)">
<path d="M56.3297 0H3.67031C1.64297 0 0 1.65 0 3.67031V52.5668C0 54.5906 1.64648 56.2371 3.67031 56.2371H56.3309C58.3547 56.2371 60.0012 54.5906 60.0012 52.5668V3.67031C60 1.64063 58.3477 0 56.3297 0ZM56.3297 54.4781H3.67031C2.61562 54.4781 1.75781 53.6203 1.75781 52.5656V12.2414H6.65742C7.14258 12.2414 7.53633 11.8477 7.53633 11.3625C7.53633 10.8773 7.14258 10.4836 6.65742 10.4836H1.75781V3.67031C1.75781 2.62031 2.61094 1.75781 3.67031 1.75781H56.3309C57.3867 1.75781 58.2422 2.61797 58.2422 3.67031V10.4848H4.78242C4.29727 10.4848 3.90352 10.8785 3.90352 11.3637C3.90352 11.8488 4.29727 12.2426 4.78242 12.2426H58.2422V52.5668C58.2422 53.6203 57.3844 54.4781 56.3297 54.4781Z" fill="#316FEA"/>
<path d="M52.6664 18.1185H7.33358C6.20741 18.1185 5.29218 19.0338 5.29218 20.1599V25.5107C5.29218 26.6369 6.20741 27.5521 7.33358 27.5521H8.71991V44.7845C8.71991 46.9056 10.4449 48.6306 12.5648 48.6306H45.6644C46.1496 48.6306 46.5434 48.2369 46.5434 47.7517C46.5434 47.2666 46.1496 46.8728 45.6644 46.8728H12.5648C11.4141 46.8728 10.4777 45.9365 10.4777 44.7845V27.5521H49.5234V44.7845C49.5234 45.9353 48.5871 46.8728 47.4363 46.8728H44.2582C43.773 46.8728 43.3793 47.2666 43.3793 47.7517C43.3793 48.2369 43.773 48.6306 44.2582 48.6306H47.4363C49.5562 48.6306 51.2812 46.9056 51.2812 44.7845V27.5521H52.6676C53.7937 27.5521 54.709 26.6357 54.709 25.5107V20.1599C54.7078 19.0349 53.7926 18.1185 52.6664 18.1185ZM52.95 25.5107C52.95 25.6677 52.8223 25.7943 52.6664 25.7943C46.3957 25.7943 9.06561 25.7943 7.33241 25.7943C7.17538 25.7943 7.04882 25.6666 7.04882 25.5107V20.1599C7.04882 20.0041 7.17538 19.8763 7.33241 19.8763H52.6664C52.8223 19.8763 52.95 20.0041 52.95 20.1599V25.5107Z" fill="#316FEA"/>
<path d="M15.2742 21.2662C15.0855 21.1736 14.857 21.2521 14.7656 21.4408L13.9102 23.2267L13.0547 21.4408C12.9187 21.156 12.5109 21.1572 12.3715 21.4408L11.516 23.2267L10.6605 21.4408C10.5703 21.2521 10.3406 21.1736 10.1531 21.2662C9.96445 21.3587 9.88593 21.5861 9.97734 21.7748L11.175 24.2298C11.2676 24.4185 11.4949 24.4959 11.6836 24.4044C11.7691 24.3634 11.8312 24.2943 11.8652 24.2134L12.7137 22.4744L13.5703 24.2298C13.6629 24.4185 13.8902 24.497 14.0789 24.4044C14.1645 24.3634 14.2266 24.2931 14.2605 24.2134L15.45 21.7748C15.5414 21.5861 15.4629 21.3587 15.2742 21.2662Z" fill="#316FEA"/>
<path d="M21.3316 21.2662C21.143 21.1736 20.9144 21.2521 20.8242 21.4408L19.9687 23.2267L19.1133 21.4408C18.9773 21.156 18.5695 21.1572 18.4301 21.4408L17.5746 23.2267L16.7191 21.4408C16.6289 21.2521 16.4004 21.1736 16.2117 21.2662C16.023 21.3587 15.9445 21.5861 16.0371 21.7748L17.2348 24.2298C17.3273 24.4185 17.5547 24.4959 17.7434 24.4044C17.8289 24.3634 17.891 24.2943 17.925 24.2134L18.7734 22.4744L19.6301 24.2298C19.7226 24.4185 19.95 24.497 20.1375 24.4044C20.223 24.3634 20.2851 24.2931 20.3203 24.2134L21.5098 21.7748C21.5988 21.5861 21.5203 21.3587 21.3316 21.2662Z" fill="#316FEA"/>
<path d="M27.3891 21.2662C27.2004 21.1736 26.9719 21.2521 26.8816 21.4408L26.0262 23.2267L25.1707 21.4408C25.0348 21.156 24.627 21.1572 24.4875 21.4408L23.632 23.2267L22.7766 21.4408C22.6863 21.2521 22.4566 21.1736 22.2691 21.2662C22.0805 21.3587 22.002 21.5861 22.0945 21.7748L23.2922 24.2298C23.3848 24.4185 23.6109 24.4959 23.7996 24.4044C23.8852 24.3634 23.9473 24.2943 23.9824 24.2134L24.8309 22.4744L25.6875 24.2298C25.7801 24.4185 26.0063 24.497 26.1949 24.4044C26.2805 24.3634 26.3426 24.2931 26.3777 24.2134L27.5672 21.7748C27.6563 21.5861 27.5777 21.3587 27.3891 21.2662Z" fill="#316FEA"/>
<path d="M6.06326 7.247C6.73765 7.247 7.28435 6.70029 7.28435 6.0259C7.28435 5.35151 6.73765 4.80481 6.06326 4.80481C5.38887 4.80481 4.84216 5.35151 4.84216 6.0259C4.84216 6.70029 5.38887 7.247 6.06326 7.247Z" fill="#316FEA"/>
<path d="M10.1731 7.247C10.8475 7.247 11.3942 6.70029 11.3942 6.0259C11.3942 5.35151 10.8475 4.80481 10.1731 4.80481C9.49867 4.80481 8.95197 5.35151 8.95197 6.0259C8.95197 6.70029 9.49867 7.247 10.1731 7.247Z" fill="#316FEA"/>
<path d="M14.1692 7.247C14.8435 7.247 15.3902 6.70029 15.3902 6.0259C15.3902 5.35151 14.8435 4.80481 14.1692 4.80481C13.4948 4.80481 12.9481 5.35151 12.9481 6.0259C12.9481 6.70029 13.4948 7.247 14.1692 7.247Z" fill="#316FEA"/>
<path fill-rule="evenodd" clip-rule="evenodd" d="M34.1016 36.5626L27.1723 31.9431V41.1821L34.1016 36.5626ZM35.5019 35.6849C36.1277 36.1021 36.1277 37.0232 35.5019 37.4403L27.3047 42.9048C26.6039 43.3724 25.6652 42.8696 25.6652 42.0271V31.0982C25.6652 30.2556 26.6039 29.7528 27.3047 30.2204L35.5019 35.6849Z" fill="#316FEA"/>
</g>
<defs>
<clipPath id="clip0">
<rect width="60" height="56.2359" fill="white"/>
</clipPath>
</defs>
</svg>
