<svg width="58" height="48" viewBox="0 0 58 48" fill="none" xmlns="http://www.w3.org/2000/svg">
<g clip-path="url(#clip0)">
<path d="M51.975 0H33.8771C33.2561 0 32.7521 0.497778 32.7521 1.11111C32.7521 1.72444 33.2561 2.22222 33.8771 2.22222H51.975C53.8358 2.22222 55.35 3.71778 55.35 5.55556V32.4444H2.25V5.55556C2.25 3.71778 3.76425 2.22222 5.625 2.22222H37.2521C37.8731 2.22222 38.3771 1.72444 38.3771 1.11111C38.3771 0.497778 37.8731 0 37.2521 0H5.625C2.52338 0 0 2.49222 0 5.55556V42.4444C0 45.5078 2.52338 48 5.625 48H51.975C55.0766 48 57.6 45.5078 57.6 42.4444V5.55556C57.6 2.49222 55.0766 0 51.975 0ZM51.975 45.7778H5.625C3.76425 45.7778 2.25 44.2822 2.25 42.4444V34.6667H55.35V42.4444C55.35 44.2822 53.8358 45.7778 51.975 45.7778Z" fill="#316FEA"/>
<path d="M11.2421 36.8889C9.38138 36.8889 7.86713 38.3844 7.86713 40.2222C7.86713 42.06 9.38138 43.5556 11.2421 43.5556C13.1029 43.5556 14.6171 42.06 14.6171 40.2222C14.6171 38.3844 13.1029 36.8889 11.2421 36.8889ZM11.2421 41.3333C10.6222 41.3333 10.1171 40.8344 10.1171 40.2222C10.1171 39.61 10.6222 39.1111 11.2421 39.1111C11.862 39.1111 12.3671 39.61 12.3671 40.2222C12.3671 40.8344 11.862 41.3333 11.2421 41.3333Z" fill="#316FEA"/>
<path d="M48.609 39.1111H20.5864C19.9654 39.1111 19.4614 39.6089 19.4614 40.2222C19.4614 40.8356 19.9654 41.3333 20.5864 41.3333H48.609C49.23 41.3333 49.734 40.8356 49.734 40.2222C49.734 39.6089 49.23 39.1111 48.609 39.1111Z" fill="#316FEA"/>
<path d="M23.049 13.9644V20.7033C23.049 21.8489 23.6486 22.8744 24.6533 23.4478C25.155 23.7344 25.7063 23.8778 26.2575 23.8778C26.8088 23.8778 27.3589 23.7344 27.8618 23.4478L33.7703 20.0789C34.7749 19.5067 35.3745 18.48 35.3745 17.3344C35.3745 16.1889 34.7749 15.1633 33.7703 14.59L27.8618 11.2211C26.8571 10.6489 25.6579 10.6489 24.6533 11.2211C23.6498 11.7922 23.049 12.8189 23.049 13.9644ZM25.299 13.9644C25.299 13.4711 25.6343 13.2267 25.7783 13.1444C25.866 13.0944 26.0415 13.0144 26.262 13.0144C26.4049 13.0144 26.5669 13.0478 26.7368 13.1444L32.6453 16.5133C33.0784 16.76 33.1245 17.1689 33.1245 17.3333C33.1245 17.4978 33.0773 17.9067 32.6453 18.1533L26.7368 21.5222C26.3036 21.7689 25.9223 21.6044 25.7783 21.5222C25.6343 21.44 25.299 21.1956 25.299 20.7022V13.9644Z" fill="#316FEA"/>
</g>
<defs>
<clipPath id="clip0">
<rect width="57.6" height="48" fill="white"/>
</clipPath>
</defs>
</svg>
