<svg width="54" height="54" viewBox="0 0 54 54" fill="none" xmlns="http://www.w3.org/2000/svg">
<path d="M53.1562 0H0.84375C0.378633 0 0 0.376523 0 0.84375V45.5625C0 46.0297 0.378633 46.4062 0.84375 46.4062H10.9688V44.7188H1.6875V8.4375H52.3125V44.7188H22.7812V46.4062H53.1562C53.6214 46.4062 54 46.0297 54 45.5625V0.84375C54 0.376523 53.6214 0 53.1562 0ZM1.6875 6.75V1.6875H52.3125V6.75H1.6875Z" fill="#316FEA"/>
<path d="M43.875 3.375H48.9375V5.0625H43.875V3.375Z" fill="#316FEA"/>
<path d="M5.0625 3.375H6.75V5.0625H5.0625V3.375Z" fill="#316FEA"/>
<path d="M8.4375 3.375H10.125V5.0625H8.4375V3.375Z" fill="#316FEA"/>
<path d="M11.8125 3.375H13.5V5.0625H11.8125V3.375Z" fill="#316FEA"/>
<path d="M12.9029 20.4969L10.3716 23.0281C10.0415 23.3583 10.0415 23.8909 10.3716 24.221L12.9029 26.7522L14.0957 25.5594L12.1614 23.6251L14.0957 21.6908L12.9029 20.4969Z" fill="#316FEA"/>
<path d="M20.8468 26.7531L23.3781 24.2218C23.7082 23.8917 23.7082 23.3591 23.3781 23.029L20.8468 20.4977L19.654 21.6906L21.5883 23.6249L19.654 25.5592L20.8468 26.7531Z" fill="#316FEA"/>
<path d="M15.2307 25.8884L16.9182 20.8259L18.5192 21.3595L16.8317 26.422L15.2307 25.8884Z" fill="#316FEA"/>
<path d="M27 23.625C27 18.0415 22.4585 13.5 16.875 13.5C11.2915 13.5 6.75 18.0415 6.75 23.625C6.75 29.2085 11.2915 33.75 16.875 33.75C22.4585 33.75 27 29.2085 27 23.625ZM8.4375 23.625C8.4375 18.9728 12.2228 15.1875 16.875 15.1875C21.5272 15.1875 25.3125 18.9728 25.3125 23.625C25.3125 28.2772 21.5272 32.0625 16.875 32.0625C12.2228 32.0625 8.4375 28.2772 8.4375 23.625Z" fill="#316FEA"/>
<path d="M30.375 23.625C30.375 16.1821 24.3179 10.125 16.875 10.125C9.43207 10.125 3.375 16.1821 3.375 23.625C3.375 29.5945 7.27418 34.6634 12.6562 36.4405V52.3125C12.6562 53.2427 13.4135 54 14.3438 54H19.4062C20.3365 54 21.0938 53.2427 21.0938 52.3125V36.4405C26.4758 34.6634 30.375 29.5945 30.375 23.625ZM5.0625 23.625C5.0625 17.1113 10.3613 11.8125 16.875 11.8125C23.3888 11.8125 28.6875 17.1113 28.6875 23.625C28.6875 30.1388 23.3888 35.4375 16.875 35.4375C10.3613 35.4375 5.0625 30.1388 5.0625 23.625ZM19.4062 42.1875H14.3438V40.5H19.4062V42.1875ZM14.3438 52.3125V43.875H19.4062V52.3125H14.3438ZM19.4062 38.8125H14.3438V36.8782C15.1654 37.0354 16.0091 37.125 16.875 37.125C17.7409 37.125 18.5846 37.0354 19.4062 36.8782V38.8125Z" fill="#316FEA"/>
<path d="M30.375 11.8125H32.0625V13.5H30.375V11.8125Z" fill="#316FEA"/>
<path d="M33.75 11.8125H35.4375V13.5H33.75V11.8125Z" fill="#316FEA"/>
<path d="M37.125 11.8125H38.8125V13.5H37.125V11.8125Z" fill="#316FEA"/>
<path d="M40.5 11.8125H43.875V13.5H40.5V11.8125Z" fill="#316FEA"/>
<path d="M48.9375 11.8125H50.625V13.5H48.9375V11.8125Z" fill="#316FEA"/>
<path d="M45.5625 11.8125H47.25V13.5H45.5625V11.8125Z" fill="#316FEA"/>
<path d="M30.375 15.1875H35.4375V16.875H30.375V15.1875Z" fill="#316FEA"/>
<path d="M37.125 15.1875H38.8125V16.875H37.125V15.1875Z" fill="#316FEA"/>
<path d="M40.5 15.1875H43.875V16.875H40.5V15.1875Z" fill="#316FEA"/>
<path d="M48.9375 15.1875H50.625V16.875H48.9375V15.1875Z" fill="#316FEA"/>
<path d="M45.5625 15.1875H47.25V16.875H45.5625V15.1875Z" fill="#316FEA"/>
<path d="M45.5625 18.5625H50.625V20.25H45.5625V18.5625Z" fill="#316FEA"/>
<path d="M42.1875 18.5625H43.875V20.25H42.1875V18.5625Z" fill="#316FEA"/>
<path d="M37.125 18.5625H40.5V20.25H37.125V18.5625Z" fill="#316FEA"/>
<path d="M32.0625 18.5625H35.4375V20.25H32.0625V18.5625Z" fill="#316FEA"/>
<path d="M28.6875 32.0625H32.0625V33.75H28.6875V32.0625Z" fill="#316FEA"/>
<path d="M33.75 32.0625H37.125V33.75H33.75V32.0625Z" fill="#316FEA"/>
<path d="M42.1875 32.0625H43.875V33.75H42.1875V32.0625Z" fill="#316FEA"/>
<path d="M38.8125 32.0625H40.5V33.75H38.8125V32.0625Z" fill="#316FEA"/>
<path d="M38.8125 35.4375H43.875V37.125H38.8125V35.4375Z" fill="#316FEA"/>
<path d="M35.4375 35.4375H37.125V37.125H35.4375V35.4375Z" fill="#316FEA"/>
<path d="M27 35.4375H28.6875V37.125H27V35.4375Z" fill="#316FEA"/>
<path d="M30.375 35.4375H33.75V37.125H30.375V35.4375Z" fill="#316FEA"/>
</svg>
