<svg width="58" height="49" viewBox="0 0 58 49" fill="none" xmlns="http://www.w3.org/2000/svg">
<g clip-path="url(#clip0)">
<path d="M56.82 48.03H0.65C0.29 48.03 0 47.74 0 47.38V0.65C0 0.29 0.29 0 0.65 0H56.82C57.18 0 57.47 0.29 57.47 0.65V47.38C57.47 47.74 57.18 48.03 56.82 48.03ZM1.3 46.73H56.17V1.3H1.3V46.73Z" fill="#316FEA"/>
<path d="M51.39 6.78H39.09V15.18H51.39V6.78Z" stroke="#316FEA" stroke-width="1.3" stroke-miterlimit="2.6131" stroke-linecap="round" stroke-linejoin="round"/>
<path d="M34.39 6.78H22.09V15.18H34.39V6.78Z" stroke="#316FEA" stroke-width="1.3" stroke-miterlimit="2.6131" stroke-linecap="round" stroke-linejoin="round"/>
<path d="M51.39 19.78H39.09V28.18H51.39V19.78Z" stroke="#316FEA" stroke-width="1.3" stroke-miterlimit="2.6131" stroke-linecap="round" stroke-linejoin="round"/>
<path d="M34.39 19.78H22.09V28.18H34.39V19.78Z" stroke="#316FEA" stroke-width="1.3" stroke-miterlimit="2.6131" stroke-linecap="round" stroke-linejoin="round"/>
<path d="M51.39 32.78H39.09V41.18H51.39V32.78Z" stroke="#316FEA" stroke-width="1.3" stroke-miterlimit="2.6131" stroke-linecap="round" stroke-linejoin="round"/>
<path d="M34.39 32.78H22.09V41.18H34.39V32.78Z" stroke="#316FEA" stroke-width="1.3" stroke-miterlimit="2.6131" stroke-linecap="round" stroke-linejoin="round"/>
<path d="M5.32001 7.64999H15.91" stroke="#316FEA" stroke-width="1.3" stroke-miterlimit="2.6131" stroke-linecap="round" stroke-linejoin="round"/>
<path d="M5.32001 10.65H15.91" stroke="#316FEA" stroke-width="1.3" stroke-miterlimit="2.6131" stroke-linecap="round" stroke-linejoin="round"/>
<path d="M5.32001 13.65H15.91" stroke="#316FEA" stroke-width="1.3" stroke-miterlimit="2.6131" stroke-linecap="round" stroke-linejoin="round"/>
<path d="M5.25 16.71H10.39" stroke="#316FEA" stroke-width="1.3" stroke-miterlimit="2.6131" stroke-linecap="round" stroke-linejoin="round"/>
</g>
<defs>
<clipPath id="clip0">
<rect width="57.47" height="48.03" fill="white"/>
</clipPath>
</defs>
</svg>
