<svg width="54" height="54" viewBox="0 0 54 54" fill="none" xmlns="http://www.w3.org/2000/svg">
<path d="M27 19C31.9624 19 36 23.0376 36 28C36 32.9624 31.9624 37 27 37C22.0376 37 18 32.9624 18 28C18 23.0376 22.0376 19 27 19ZM27 35.2C30.9701 35.2 34.2 31.9701 34.2 28C34.2 24.0299 30.9701 20.8 27 20.8C23.0299 20.8 19.8 24.0299 19.8 28C19.8 31.9701 23.0299 35.2 27 35.2Z" fill="#316FEA"/>
<path d="M18.7267 41.5639C18.558 41.7326 18.3296 41.8271 18.09 41.8271C17.8504 41.8271 17.622 41.7326 17.4532 41.5639L13.635 37.7456C13.4662 37.5769 13.3717 37.3474 13.3717 37.1089C13.3717 36.8704 13.4662 36.6409 13.635 36.4721L15.2606 34.8476C14.7127 33.8824 14.2875 32.862 13.9939 31.7989H11.7C11.2027 31.7989 10.8 31.3961 10.8 30.8989V25.4989C10.8 25.0016 11.2027 24.5989 11.7 24.5989H13.9927C14.2875 23.5346 14.7105 22.5131 15.2584 21.549L13.635 19.9256C13.4662 19.7569 13.3717 19.5274 13.3717 19.2889C13.3717 19.0504 13.4662 18.8209 13.635 18.6521L17.4532 14.8339C17.8054 14.4818 18.3735 14.4818 18.7256 14.8339L20.349 16.4561C21.3131 15.9083 22.3346 15.4841 23.3989 15.1905V12.9C23.3989 12.4028 23.8016 12 24.2989 12H29.6989C30.1961 12 30.5989 12.4028 30.5989 12.9V15.1928C31.662 15.4875 32.6824 15.9105 33.6476 16.4595L35.2721 14.835C35.4409 14.6663 35.6692 14.5718 35.9089 14.5718C36.1485 14.5718 36.3769 14.6663 36.5456 14.835L40.3639 18.6533C40.5326 18.822 40.6271 19.0515 40.6271 19.29C40.6271 19.5285 40.5326 19.758 40.3639 19.9268L38.7382 21.5513C39.2861 22.5165 39.7114 23.5369 40.005 24.6H42.3C42.7972 24.6 43.2 25.0028 43.2 25.5V30.9C43.2 31.3973 42.7972 31.8 42.3 31.8H40.0072C39.7125 32.8643 39.2895 33.8858 38.7416 34.8499L40.365 36.4733C40.5337 36.642 40.6282 36.8715 40.6282 37.11C40.6282 37.3485 40.5337 37.578 40.365 37.7468L36.5467 41.565C36.1946 41.9171 35.6265 41.9171 35.2744 41.565L33.651 39.9428C32.6869 40.4906 31.6654 40.9148 30.6011 41.2084V43.5C30.6011 43.9973 30.1984 44.4 29.7011 44.4H24.3011C23.8039 44.4 23.4011 43.9973 23.4011 43.5V41.2073C22.338 40.9125 21.3176 40.4895 20.3524 39.9405L18.7267 41.5639ZM24.4924 39.6233C24.9052 39.7133 25.2 40.08 25.2 40.503V42.6H28.8V40.503C28.8 40.08 29.0947 39.7144 29.5076 39.6233C30.8554 39.3285 32.1322 38.7986 33.3022 38.0483C33.6577 37.821 34.1235 37.8705 34.425 38.1698L35.91 39.6548L38.4559 37.1089L36.9709 35.6239C36.6716 35.3246 36.621 34.8578 36.8494 34.5011C37.5986 33.3323 38.1296 32.0554 38.4244 30.7054C38.5155 30.2936 38.8811 29.9989 39.3041 29.9989H41.4V26.3989H39.303C38.88 26.3989 38.5144 26.1042 38.4232 25.6913C38.1285 24.3458 37.5975 23.07 36.846 21.8989C36.6176 21.5423 36.6682 21.0754 36.9675 20.7761L38.4547 19.2889L35.9089 16.743L34.4227 18.2303C34.1235 18.5295 33.6555 18.579 33.3 18.3518C32.1277 17.6003 30.852 17.0693 29.5065 16.7757C29.0936 16.6845 28.7989 16.3189 28.7989 15.8959V13.8H25.1989V15.897C25.1989 16.32 24.9041 16.6856 24.4912 16.7768C23.1435 17.0715 21.8666 17.6014 20.6966 18.3518C20.34 18.5801 19.8742 18.5306 19.5739 18.2303L18.0889 16.7453L15.543 19.2911L17.028 20.7761C17.3272 21.0754 17.3779 21.5423 17.1495 21.8989C16.4002 23.0678 15.8692 24.3447 15.5745 25.6947C15.4834 26.1064 15.1177 26.4011 14.6947 26.4011H12.6V30.0011H14.697C15.12 30.0011 15.4856 30.2959 15.5767 30.7088C15.8715 32.0543 16.4025 33.33 17.154 34.5011C17.3824 34.8578 17.3317 35.3246 17.0325 35.6239L15.5452 37.1111L18.0911 39.657L19.5772 38.1698C19.8776 37.8694 20.3445 37.821 20.7 38.0483C21.8711 38.7998 23.1469 39.3296 24.4924 39.6233Z" fill="#316FEA"/>
<path d="M27 48.6C28.4884 48.6 29.7 49.8116 29.7 51.3C29.7 52.7884 28.4884 54 27 54C25.5116 54 24.3 52.7884 24.3 51.3C24.3 49.8116 25.5116 48.6 27 48.6ZM27 52.2C27.4972 52.2 27.9 51.7961 27.9 51.3C27.9 50.8039 27.4972 50.4 27 50.4C26.5027 50.4 26.1 50.8039 26.1 51.3C26.1 51.7961 26.5027 52.2 27 52.2Z" fill="#316FEA"/>
<path d="M27 5.40002C25.5116 5.40002 24.3 4.1884 24.3 2.70002C24.3 1.21165 25.5116 2.28882e-05 27 2.28882e-05C28.4884 2.28882e-05 29.7 1.21165 29.7 2.70002C29.7 4.1884 28.4884 5.40002 27 5.40002ZM27 1.80002C26.5027 1.80002 26.1 2.2039 26.1 2.70002C26.1 3.19615 26.5027 3.60002 27 3.60002C27.4972 3.60002 27.9 3.19615 27.9 2.70002C27.9 2.2039 27.4972 1.80002 27 1.80002Z" fill="#316FEA"/>
<path d="M51.3 29.7001C49.8116 29.7001 48.6 28.4884 48.6 27.0001C48.6 25.5117 49.8116 24.3001 51.3 24.3001C52.7884 24.3001 54 25.5117 54 27.0001C54 28.4884 52.7884 29.7001 51.3 29.7001ZM51.3 26.1001C50.8027 26.1001 50.4 26.5039 50.4 27.0001C50.4 27.4962 50.8027 27.9001 51.3 27.9001C51.7972 27.9001 52.2 27.4962 52.2 27.0001C52.2 26.5039 51.7972 26.1001 51.3 26.1001Z" fill="#316FEA"/>
<path d="M2.7 24.3001C4.18837 24.3001 5.4 25.5117 5.4 27.0001C5.4 28.4884 4.18837 29.7001 2.7 29.7001C1.21163 29.7001 0 28.4884 0 27.0001C0 25.5117 1.21163 24.3001 2.7 24.3001ZM2.7 27.9001C3.19725 27.9001 3.6 27.4962 3.6 27.0001C3.6 26.5039 3.19725 26.1001 2.7 26.1001C2.20275 26.1001 1.8 26.5039 1.8 27.0001C1.8 27.4962 2.20275 27.9001 2.7 27.9001Z" fill="#316FEA"/>
<path d="M15.6366 47.2476L16.2463 45.4184C16.3442 45.1225 16.5894 44.8986 16.8932 44.8266C16.9629 44.8109 17.0316 44.8019 17.1002 44.8019C17.3364 44.8019 17.5659 44.8941 17.7369 45.0651L22.2369 49.5651C22.4777 49.8059 22.5621 50.1625 22.4541 50.4854C22.3472 50.8083 22.0648 51.0434 21.7273 51.0906L15.4273 51.9906C15.1146 52.0356 14.8086 51.9164 14.6094 51.6768C14.4092 51.4371 14.3473 51.112 14.4463 50.815L15.0594 48.9768C8.3983 45.3813 3.6238 38.8968 2.23218 31.4684L4.00068 31.1376C5.27418 37.9304 9.59418 43.8771 15.6366 47.2476ZM19.6911 49.5663L17.4939 47.3691L16.6142 50.0061L19.6911 49.5663Z" fill="#316FEA"/>
<path d="M51.7704 22.3333L50.0019 22.6652C48.725 15.8668 44.4039 9.92004 38.3626 6.55404L37.7529 8.38328C37.655 8.67916 37.4098 8.90304 37.106 8.97504C36.8023 9.04816 36.4839 8.95591 36.2623 8.73541L31.7623 4.23541C31.5215 3.99466 31.4371 3.63803 31.5451 3.31516C31.652 2.99228 31.9344 2.75716 32.2719 2.70991L38.5719 1.80991C38.6158 1.80316 38.6585 1.79979 38.7001 1.79979C38.9645 1.79979 39.2188 1.91678 39.3909 2.12266C39.5911 2.36228 39.653 2.68741 39.554 2.98441L38.9409 4.82266C45.6009 8.41704 50.3754 14.9015 51.7704 22.3333ZM34.3093 4.23654L36.5064 6.43479L37.3861 3.79779L34.3093 4.23654Z" fill="#316FEA"/>
<path d="M47.446 38.5922L45.6156 37.9825C45.3197 37.8835 45.0958 37.6383 45.0238 37.3356C44.953 37.0319 45.043 36.7124 45.2646 36.4919L49.7646 31.9919C49.9356 31.8197 50.1662 31.7286 50.4013 31.7286C50.4958 31.7286 50.5926 31.7444 50.686 31.7747C51.0088 31.8827 51.244 32.164 51.2923 32.5015L52.1923 38.8015C52.2362 39.1098 52.1181 39.4202 51.8773 39.6194C51.6366 39.8196 51.3115 39.8781 51.0156 39.7825L49.1773 39.1694C45.5931 45.8271 39.1086 50.6016 31.6667 52L31.3348 50.2304C38.1422 48.9501 44.089 44.629 47.446 38.5922ZM49.7635 34.5366L47.5663 36.7349L50.2033 37.6146L49.7635 34.5366Z" fill="#316FEA"/>
<path d="M8.97625 16.8931C9.04713 17.1968 8.95713 17.5163 8.7355 17.7368L4.2355 22.2368C3.99475 22.4787 3.63925 22.5631 3.31525 22.4551C2.99238 22.3471 2.75725 22.0658 2.70888 21.7283L1.80888 15.4283C1.765 15.1201 1.88313 14.8096 2.12388 14.6104C2.28813 14.4732 2.49288 14.4012 2.69988 14.4012C2.7955 14.4012 2.89113 14.4169 2.9845 14.4473L4.82275 15.0604C8.4115 8.39369 14.8971 3.61919 22.3345 2.23094L22.6653 4.00056C15.8613 5.27069 9.9145 9.59181 6.55413 15.6387L8.3845 16.2484C8.6815 16.3452 8.90425 16.5893 8.97625 16.8931ZM4.23663 19.6909L6.43375 17.4927L3.79675 16.6129L4.23663 19.6909Z" fill="#316FEA"/>
</svg>
