<svg width="64" height="45" viewBox="0 0 64 45" fill="none" xmlns="http://www.w3.org/2000/svg">
<path d="M60.085 22.5C60.085 20.6253 58.5313 19.0993 56.6225 19.0993C54.7138 19.0993 53.16 20.6253 53.16 22.5C53.16 24.3747 54.7138 25.9007 56.6225 25.9007C58.5313 25.9007 60.085 24.3747 60.085 22.5ZM55.035 22.5C55.035 21.6406 55.7475 20.9408 56.6225 20.9408C57.4975 20.9408 58.21 21.6406 58.21 22.5C58.21 23.3594 57.4975 24.0592 56.6225 24.0592C55.7475 24.0592 55.035 23.3594 55.035 22.5Z" fill="#316FEA"/>
<path d="M50.435 9.17703C50.345 9.17703 50.2537 9.17826 50.1637 9.17949C49.6462 9.18931 49.235 9.60918 49.245 10.1187C49.255 10.6282 49.6837 11.0296 50.2012 11.021C50.2787 11.0198 50.3575 11.0186 50.435 11.0186C56.8813 11.0186 62.125 16.1688 62.125 22.5C62.125 28.8312 56.8813 33.9814 50.435 33.9814C43.9888 33.9814 38.745 28.8312 38.745 22.5C38.745 17.7341 41.665 13.5341 46.1838 11.8018C46.6662 11.6165 46.905 11.0824 46.7163 10.6098C46.5275 10.1371 45.9837 9.9026 45.5025 10.0868C42.9875 11.0517 40.84 12.7165 39.2925 14.9018C38.9025 15.4518 38.5588 16.0264 38.26 16.6193H30.6637V10.8516L34.3563 7.225C34.9575 7.58594 35.6637 7.79465 36.4188 7.79465C38.6063 7.79465 40.3862 6.04641 40.3862 3.89794C40.3875 1.74824 38.6075 0 36.42 0C34.2325 0 32.4525 1.74824 32.4525 3.89671C32.4525 4.63824 32.665 5.33189 33.0325 5.92241L29.0662 9.81789C28.89 9.991 28.7913 10.2243 28.7913 10.4686V16.6169H26.3725V13.8177C26.3725 13.3095 25.9525 12.897 25.435 12.897C24.9175 12.897 24.4975 13.3095 24.4975 13.8177V17.0441L21.815 18.7924L21.07 18.3136V12.6428C22.8075 12.2279 24.1 10.6883 24.1 8.8566C24.1 6.70814 22.32 4.9599 20.1325 4.9599C17.945 4.9599 16.165 6.70814 16.165 8.8566C16.165 10.6883 17.4587 12.2279 19.195 12.6428V17.1104L18.6588 16.7667C18.5063 16.6684 18.3275 16.6169 18.1462 16.6169H16.775V15.1191C16.775 14.6108 16.355 14.1983 15.8375 14.1983C15.32 14.1983 14.9 14.6108 14.9 15.1191V17.092L12.7738 18.7445L11.5975 17.9317V10.4698C11.5975 10.2255 11.4988 9.991 11.3225 9.81912L7.35625 5.92364C7.72375 5.33312 7.93625 4.63947 7.93625 3.89794C7.93625 1.74824 6.15625 0 3.9675 0C1.77875 0 0 1.74824 0 3.89794C0 6.04763 1.78 7.79465 3.9675 7.79465C4.7225 7.79465 5.42875 7.58594 6.03 7.225L9.7225 10.8516V16.6783C9.61875 16.6402 9.50875 16.6181 9.3975 16.6181H4.72625C4.43125 16.6181 4.15375 16.7544 3.97625 16.9864L0.1875 21.9475C-0.0625 22.2753 -0.0625 22.7247 0.1875 23.0525L3.97625 28.0136C4.15375 28.2456 4.43125 28.3819 4.72625 28.3819H9.72375V34.1484L6.03125 37.775C5.43 37.4141 4.72375 37.2054 3.96875 37.2054C1.78 37.2054 0 38.9536 0 41.1021C0 43.2505 1.78 44.9988 3.9675 44.9988C6.155 44.9988 7.935 43.2505 7.935 41.1021C7.935 40.3605 7.7225 39.6669 7.355 39.0764L11.3212 35.1809C11.4975 35.0078 11.5962 34.7745 11.5962 34.5302V28.3819H14.8988V29.8797C14.8988 30.388 15.3188 30.8005 15.8363 30.8005C16.3538 30.8005 16.7738 30.388 16.7738 29.8797V28.3819H19.1925V32.3559C17.455 32.7709 16.1625 34.3104 16.1625 36.1422C16.1625 38.2906 17.9425 40.0389 20.13 40.0389C22.3175 40.0389 24.0975 38.2906 24.0975 36.1422C24.0975 34.3104 22.8037 32.7709 21.0675 32.3559V28.3819H24.4963V31.181C24.4963 31.6893 24.9163 32.1018 25.4338 32.1018C25.9513 32.1018 26.3713 31.6893 26.3713 31.181V28.3819H28.79V34.5302C28.79 34.7745 28.8888 35.009 29.065 35.1809L33.0312 39.0764C32.6637 39.6669 32.4512 40.3605 32.4512 41.1021C32.4512 43.2505 34.2313 44.9988 36.4188 44.9988C38.6063 44.9988 40.3862 43.2505 40.3862 41.1021C40.3862 38.9536 38.6063 37.2054 36.4188 37.2054C35.6637 37.2054 34.9575 37.4141 34.3563 37.775L30.6637 34.1484V28.3819H31.8075C32.325 28.3819 32.745 27.9694 32.745 27.4611C32.745 26.9529 32.325 26.5403 31.8075 26.5403H5.19375L2.10875 22.5L5.19375 18.4597H9.1L12.2662 20.6486C12.6062 20.8831 13.0625 20.8708 13.3875 20.6179L16.1625 18.4609H17.8638L21.3037 20.667C21.6175 20.8684 22.0225 20.8672 22.335 20.6634L25.7162 18.4609H37.505C37.1788 19.4676 36.9775 20.5124 36.9038 21.5805H29.7262C29.2087 21.5805 28.7887 21.993 28.7887 22.5012C28.7887 23.0095 29.2087 23.422 29.7262 23.422H36.9038C36.9788 24.5024 37.1863 25.5471 37.5088 26.5416H36.1912C35.6737 26.5416 35.2537 26.9541 35.2537 27.4624C35.2537 27.9706 35.6737 28.3831 36.1912 28.3831H38.2663C40.4825 32.7869 45.1038 35.8242 50.435 35.8242C57.9137 35.8242 63.9987 29.8478 63.9987 22.5012C63.9987 15.1547 57.915 9.17703 50.435 9.17703ZM36.42 1.84155C37.5737 1.84155 38.5125 2.76355 38.5125 3.89671C38.5125 5.02987 37.5737 5.95187 36.42 5.95187C35.2662 5.95187 34.3275 5.02987 34.3275 3.89671C34.3275 2.76355 35.265 1.84155 36.42 1.84155ZM18.0375 8.85783C18.0375 7.72467 18.9762 6.80267 20.13 6.80267C21.2837 6.80267 22.2225 7.72467 22.2225 8.85783C22.2225 9.991 21.2837 10.913 20.13 10.913C18.9762 10.9142 18.0375 9.991 18.0375 8.85783ZM1.875 3.89794C1.875 2.76355 2.81375 1.84155 3.9675 1.84155C5.12125 1.84155 6.06 2.76355 6.06 3.89671C6.06 5.02987 5.12125 5.95187 3.9675 5.95187C2.81375 5.95187 1.875 5.0311 1.875 3.89794ZM3.9675 43.1585C2.81375 43.1585 1.875 42.2365 1.875 41.1033C1.875 39.9701 2.81375 39.0481 3.9675 39.0481C5.12125 39.0481 6.06 39.9701 6.06 41.1033C6.06125 42.2365 5.1225 43.1585 3.9675 43.1585ZM22.2237 36.1422C22.2237 37.2753 21.285 38.1973 20.1313 38.1973C18.9775 38.1973 18.0387 37.2753 18.0387 36.1422C18.0387 35.009 18.9775 34.087 20.1313 34.087C21.285 34.0858 22.2237 35.0078 22.2237 36.1422ZM38.5125 41.1021C38.5125 42.2352 37.5737 43.1572 36.42 43.1572C35.2662 43.1572 34.3275 42.2352 34.3275 41.1021C34.3275 39.9689 35.2662 39.0469 36.42 39.0469C37.5737 39.0469 38.5125 39.9689 38.5125 41.1021Z" fill="#316FEA"/>
<path d="M43.5638 18.7543V26.2457C43.5638 28.1069 45.1063 29.6219 47.0013 29.6219H47.0525C48.9475 29.6219 50.49 28.1069 50.49 26.2457V18.7543C50.49 16.8931 48.9475 15.3781 47.0525 15.3781H47.0013C45.105 15.3781 43.5638 16.8931 43.5638 18.7543ZM45.4388 18.7543C45.4388 17.9084 46.14 17.2197 47.0013 17.2197H47.0525C47.9138 17.2197 48.615 17.9084 48.615 18.7543V26.2457C48.615 27.0916 47.9138 27.7803 47.0525 27.7803H47.0013C46.14 27.7803 45.4388 27.0916 45.4388 26.2457V18.7543Z" fill="#316FEA"/>
</svg>
