<svg width="58" height="49" viewBox="0 0 58 49" fill="none" xmlns="http://www.w3.org/2000/svg">
<g clip-path="url(#clip0)">
<path d="M56.82 48.03H0.65C0.29 48.03 0 47.74 0 47.38V0.65C0 0.29 0.29 0 0.65 0H56.82C57.18 0 57.47 0.29 57.47 0.65V47.38C57.47 47.74 57.18 48.03 56.82 48.03ZM1.3 46.73H56.17V1.3H1.3V46.73Z" fill="#316FEA"/>
<path d="M41.89 35.16H22.51C22.16 35.16 21.87 34.87 21.87 34.51C21.87 34.15 22.15 33.86 22.51 33.86H41.9C42.25 33.86 42.54 34.15 42.54 34.51C42.53 34.87 42.25 35.16 41.89 35.16Z" fill="#316FEA"/>
<path d="M20.12 34.55H14.94" stroke="#316FEA" stroke-width="1.3" stroke-miterlimit="2.6131" stroke-linecap="round" stroke-linejoin="round"/>
<path d="M15.58 42.85H34.97C35.32 42.85 35.61 42.56 35.61 42.2C35.61 41.84 35.33 41.55 34.97 41.55H15.58C15.23 41.55 14.94 41.84 14.94 42.2C14.94 42.56 15.22 42.85 15.58 42.85Z" fill="#316FEA"/>
<path d="M37.35 42.25H42.53" stroke="#316FEA" stroke-width="1.3" stroke-miterlimit="2.6131" stroke-linecap="round" stroke-linejoin="round"/>
<path d="M13.32 38.34H26.07" stroke="#316FEA" stroke-width="1.3" stroke-miterlimit="2.6131" stroke-linecap="round" stroke-linejoin="round"/>
<path d="M38.15 38.37H34.69" stroke="#316FEA" stroke-width="1.3" stroke-miterlimit="2.6131" stroke-linecap="round" stroke-linejoin="round"/>
<path d="M44.15 38.37H40.69" stroke="#316FEA" stroke-width="1.3" stroke-miterlimit="2.6131" stroke-linecap="round" stroke-linejoin="round"/>
<path d="M32.15 38.37H28.69" stroke="#316FEA" stroke-width="1.3" stroke-miterlimit="2.6131" stroke-linecap="round" stroke-linejoin="round"/>
<path d="M40.2 13H17.27V24.64H40.2V13Z" stroke="#316FEA" stroke-width="1.3" stroke-miterlimit="2.6131" stroke-linecap="round" stroke-linejoin="round"/>
<path d="M56.48 13H45.98V24.64H56.48V13Z" stroke="#316FEA" stroke-width="1.3" stroke-miterlimit="2.6131" stroke-linecap="round" stroke-linejoin="round"/>
<path d="M11.48 13H0.97998V24.64H11.48V13Z" stroke="#316FEA" stroke-width="1.3" stroke-miterlimit="2.6131" stroke-linecap="round" stroke-linejoin="round"/>
</g>
<defs>
<clipPath id="clip0">
<rect width="57.47" height="48.03" fill="white"/>
</clipPath>
</defs>
</svg>
