<svg width="54" height="52" viewBox="0 0 54 52" fill="none" xmlns="http://www.w3.org/2000/svg">
<g clip-path="url(#clip0)">
<path d="M19.3343 2.64515C21.8578 0.7126 25.115 -0.233862 28.2815 0.0480386C30.9284 0.259747 33.5018 1.31263 35.5317 3.02554C37.6091 4.74865 39.0934 7.15669 39.7432 9.77305C43.9627 9.2149 48.3463 11.0659 51.0306 14.3401C52.6269 16.2579 53.6537 18.6456 53.9277 21.1283C54.1043 22.9069 53.9662 24.7262 53.4239 26.4346C52.5397 29.334 50.5732 31.8734 48.0202 33.5002C49.6856 37.1434 49.5565 41.5667 47.5979 45.0729C45.7197 48.5519 42.1739 51.0743 38.259 51.6619C34.2886 52.3197 30.0612 50.9679 27.2037 48.1353C25.9357 49.3388 24.4515 50.3237 22.8167 50.9509C20.4732 51.8657 17.8614 52.0536 15.4047 51.5283C12.9355 50.9973 10.6293 49.718 8.88245 47.893C6.94991 45.9356 5.67852 43.3351 5.3219 40.6066C5.00377 38.202 5.37851 35.7158 6.36912 33.5014C4.01316 31.9866 2.14288 29.7087 1.17717 27.0731C0.141269 24.2666 0.108437 21.0955 1.1183 18.2776C2.13156 15.3805 4.22826 12.8875 6.89103 11.3694C9.2187 10.0346 11.9777 9.41756 14.6484 9.77305C15.3299 6.95291 17.0202 4.39429 19.3343 2.64515ZM25.1319 1.89794C22.1873 2.43684 19.4894 4.20636 17.8387 6.70723C16.8504 8.16089 16.2832 9.86022 16.0364 11.5924C14.6948 11.5278 13.351 11.2561 12.0083 11.4441C9.28889 11.7531 6.71442 13.1151 4.90754 15.1688C3.27954 16.9949 2.27307 19.3667 2.11344 21.8087C1.91872 24.5258 2.75423 27.3075 4.44224 29.4484C5.54153 30.8952 7.02236 32.007 8.63339 32.8255C7.59635 34.6335 6.91594 36.6793 6.92387 38.7794C6.86839 41.2633 7.72768 43.7392 9.2436 45.7012C10.8705 47.8387 13.2853 49.3637 15.9209 49.8878C18.3505 50.3916 20.9442 50.0452 23.1586 48.9278C24.7447 48.15 26.0818 46.9511 27.1947 45.5925C27.7653 46.2492 28.3381 46.9115 29.014 47.4651C30.6941 48.8769 32.7908 49.8029 34.9758 50.0429C37.3114 50.3169 39.7274 49.8131 41.7675 48.6482C44.9125 46.8752 47.1213 43.5173 47.4236 39.9104C47.6704 37.4469 47.0183 34.9471 45.7469 32.8368C47.4859 31.9492 49.0652 30.7107 50.2007 29.1098C51.54 27.2599 52.2816 24.9878 52.2952 22.7065C52.3382 20.3732 51.5989 18.041 50.2483 16.1413C48.1844 13.1683 44.6012 11.2924 40.9727 11.3818C40.0964 11.4441 39.2224 11.5335 38.3462 11.5912C38.2194 10.8237 38.0846 10.0538 37.8231 9.31793C36.9287 6.60987 34.9373 4.2924 32.4047 2.98592C30.1926 1.82662 27.5875 1.43037 25.1319 1.89794ZM14.3937 19.6577C14.4763 18.2459 15.7737 17.0572 17.1832 17.0696C23.8707 17.0696 30.5571 17.0662 37.2446 17.0708C38.4526 17.0866 39.5813 17.9561 39.8995 19.1233C40.0161 19.5139 40.024 19.9249 40.0161 20.3302C40.0104 24.8587 40.0195 29.3883 40.0115 33.918C40.0229 35.3569 38.7922 36.6646 37.3499 36.7155C35.2362 36.7246 33.1225 36.7178 31.01 36.7178C30.6318 36.6996 30.3126 36.9295 29.9797 37.0721C25.0923 39.3466 20.2309 41.6776 15.3356 43.9362C16.0771 41.5293 16.8459 39.1292 17.5931 36.7234C16.7847 36.7766 15.9334 36.5661 15.3322 36.0011C14.7933 35.5313 14.4423 34.8475 14.3925 34.1331C14.3959 30.5092 14.3416 26.8852 14.3733 23.2613C14.414 22.0601 14.3756 20.8589 14.3937 19.6577ZM16.8583 18.8358C16.3964 19.0044 16.0466 19.4822 16.0941 19.9826C16.1168 22.325 16.0398 24.6651 16.0647 27.0063C16.0443 29.274 16.1292 31.5394 16.0896 33.8071C16.0319 34.4229 16.5843 35.0207 17.2025 35.0128C18.1059 35.0105 19.0094 35.0128 19.9128 35.0501C19.3196 36.9476 18.7195 38.8439 18.1297 40.7425C22.1137 38.879 26.0875 36.9929 30.0737 35.135C30.3624 35.0015 30.6918 35.0365 31.002 35.0162C33.0444 35.0105 35.0868 35.015 37.1291 35.015C37.5616 35.0411 37.9601 34.7648 38.1752 34.4048C38.345 34.0788 38.302 33.6995 38.3088 33.3451C38.3054 29.0815 38.3077 24.8179 38.3077 20.5532C38.2986 20.2249 38.3462 19.8841 38.2454 19.5648C38.0892 19.1007 37.6205 18.761 37.128 18.7735C30.7133 18.7758 24.2976 18.7746 17.8818 18.7735C17.541 18.7837 17.1889 18.7339 16.8583 18.8358Z" fill="#316FEA" stroke="#316FEA" stroke-width="0.5"/>
</g>
<defs>
<clipPath id="clip0">
<rect width="53.62" height="51.8267" fill="white" transform="translate(0.380005)"/>
</clipPath>
</defs>
</svg>
