<svg width="60" height="60" viewBox="0 0 60 60" fill="none" xmlns="http://www.w3.org/2000/svg">
<g clip-path="url(#clip0)">
<path d="M59.7809 26.4023C59.5957 24.8777 58.2961 23.7281 56.7586 23.7281H54.907C54.2965 21.2965 53.3367 18.9797 52.0453 16.8246L53.3566 15.5145C54.4441 14.427 54.5496 12.6961 53.6027 11.4867C52.8598 10.5375 52.0559 9.6293 51.2133 8.78789C50.3707 7.94531 49.4625 7.14141 48.5145 6.39844C47.3051 5.45156 45.5742 5.5582 44.4867 6.64453L43.1766 7.95469C41.0215 6.66328 38.7047 5.70234 36.273 5.09297V3.24141C36.273 1.70391 35.1234 0.405469 33.5988 0.219141C32.4023 0.0738281 31.1918 0 30 0C28.8082 0 27.5977 0.0738281 26.4023 0.219141C24.8777 0.404297 23.7281 1.70391 23.7281 3.24141V5.09297C21.2965 5.70352 18.9797 6.66328 16.8246 7.95469L15.5133 6.64336C14.4258 5.55586 12.6949 5.45039 11.4855 6.39727C10.5375 7.14023 9.6293 7.94414 8.78672 8.78672C7.94414 9.6293 7.14023 10.5375 6.39727 11.4855C5.45039 12.6949 5.55586 14.4258 6.64336 15.5133L7.95469 16.8234C6.66328 18.9797 5.70234 21.2953 5.09297 23.727H3.24141C1.70391 23.727 0.405469 24.8766 0.219141 26.4012C0.0738281 27.5977 0 28.8082 0 30C0 31.1918 0.0738281 32.4012 0.219141 33.5977C0.404297 35.1223 1.70391 36.2719 3.24141 36.2719H5.09297C5.70352 38.7035 6.66328 41.0203 7.95469 43.1766L6.64336 44.4867C5.55586 45.5742 5.45039 47.3051 6.39727 48.5145C7.14023 49.4637 7.94414 50.3719 8.78672 51.2133C9.6293 52.0559 10.5375 52.8598 11.4855 53.6027C12.6949 54.5496 14.4258 54.443 15.5133 53.3566L16.8234 52.0465C18.9797 53.3379 21.2965 54.2988 23.7281 54.9082V56.7598C23.7281 58.2973 24.8777 59.5957 26.4023 59.782C27.5988 59.9273 28.8094 60.0012 30 60.0012C31.1906 60.0012 32.4012 59.9273 33.5977 59.782C35.1223 59.5969 36.2719 58.2973 36.2719 56.7598V54.9082C38.7035 54.2988 41.0203 53.3379 43.1766 52.0465L44.4867 53.3566C45.5742 54.4441 47.3051 54.5496 48.5145 53.6027C49.4625 52.8598 50.3707 52.0559 51.2133 51.2133C52.0559 50.3707 52.8598 49.4625 53.6027 48.5145C54.5496 47.3051 54.4441 45.5742 53.3566 44.4867L52.0453 43.1766C53.3367 41.0203 54.2977 38.7047 54.907 36.2719H56.7586C58.2961 36.2719 59.5945 35.1223 59.7809 33.5977C59.9262 32.4012 60 31.1906 60 30C60 28.8082 59.9262 27.5977 59.7809 26.4023ZM58.0359 33.3855C57.9574 34.0289 57.409 34.5141 56.7586 34.5141H54.2121C53.7996 34.5141 53.4434 34.8 53.3543 35.2031C52.7531 37.916 51.6879 40.4836 50.1914 42.8344C49.9699 43.1824 50.0203 43.6371 50.3109 43.9277L52.1133 45.7301C52.5727 46.1895 52.6184 46.9207 52.2188 47.4305C51.5191 48.3234 50.7633 49.1789 49.9711 49.9699C49.1777 50.7633 48.3234 51.5191 47.4316 52.2176C46.9219 52.6172 46.1906 52.5715 45.7312 52.1121L43.9289 50.3098C43.6371 50.0191 43.1824 49.9688 42.8355 50.1902C40.4848 51.6879 37.9172 52.752 35.2043 53.3531C34.8023 53.4422 34.5152 53.7996 34.5152 54.2109V56.7574C34.5152 57.4078 34.0301 57.9563 33.3867 58.0348C32.2605 58.1719 31.1215 58.241 30.0012 58.241C28.8809 58.241 27.7418 58.1719 26.6156 58.0348C25.9723 57.9563 25.4871 57.4078 25.4871 56.7574V54.2109C25.4871 53.7984 25.2012 53.4422 24.798 53.3531C22.0852 52.752 19.5188 51.6879 17.1668 50.1902C17.0215 50.0977 16.8574 50.0531 16.6945 50.0531C16.4672 50.0531 16.2422 50.141 16.0723 50.3109L14.2699 52.1133C13.8105 52.5727 13.0793 52.6184 12.5695 52.2188C11.6766 51.5203 10.8223 50.7633 10.0301 49.9711C9.23789 49.1789 8.48203 48.3246 7.78242 47.4316C7.38281 46.9219 7.42852 46.1906 7.88789 45.7312L9.69024 43.9289C9.98203 43.6371 10.0312 43.1824 9.80977 42.8355C8.31211 40.4848 7.24805 37.9172 6.64688 35.2043C6.55781 34.8023 6.20039 34.5152 5.78906 34.5152H3.24141C2.59102 34.5152 2.04258 34.0301 1.96406 33.3867C1.82695 32.2594 1.75781 31.1203 1.75781 30C1.75781 28.8797 1.82695 27.7406 1.96406 26.6145C2.04258 25.9711 2.59102 25.4859 3.24141 25.4859H5.78789C6.20039 25.4859 6.55664 25.2 6.6457 24.7969C7.24687 22.084 8.31211 19.5164 9.80859 17.1656C10.0301 16.8176 9.97969 16.3629 9.68906 16.0723L7.88672 14.2699C7.42734 13.8105 7.38164 13.0793 7.78125 12.5695C8.48086 11.6766 9.23672 10.8223 10.0289 10.0289C10.8211 9.23672 11.6766 8.47969 12.5684 7.78125C13.0781 7.38164 13.8094 7.42734 14.2688 7.88672L16.0711 9.68906C16.3629 9.98086 16.8176 10.0301 17.1645 9.80859C19.5152 8.31094 22.0816 7.24687 24.7945 6.6457C25.1965 6.55664 25.4836 6.19922 25.4836 5.78789V3.24141C25.4836 2.59102 25.9688 2.04258 26.6121 1.96406C27.7406 1.82695 28.8797 1.75781 30 1.75781C31.1203 1.75781 32.2594 1.82695 33.3855 1.96406C34.0289 2.04258 34.5141 2.59102 34.5141 3.24141V5.78789C34.5141 6.20039 34.8 6.55664 35.2031 6.6457C37.916 7.24687 40.4836 8.31211 42.8332 9.80859C43.1813 10.0301 43.6359 9.97969 43.9266 9.68906L45.7289 7.88672C46.1883 7.42734 46.9195 7.38164 47.4293 7.78125C48.3223 8.48086 49.1766 9.23672 49.9688 10.0289C50.7609 10.8211 51.5168 11.6766 52.2164 12.5695C52.616 13.0793 52.5703 13.8105 52.1109 14.2699L50.3086 16.0723C50.0168 16.3641 49.9676 16.8188 50.1891 17.1656C51.6867 19.5164 52.7508 22.084 53.352 24.7969C53.441 25.1988 53.7984 25.4859 54.2098 25.4859H56.7563C57.4066 25.4859 57.9551 25.9711 58.0336 26.6145C58.1707 27.7406 58.2398 28.8797 58.2398 30C58.2422 31.1203 58.173 32.2594 58.0359 33.3855Z" fill="#316FEA"/>
<path d="M41.8957 14.9086C34.2598 8.87462 23.3051 9.52267 16.4133 16.4133C9.52148 23.3051 8.87461 34.2598 14.9086 41.8957C15.082 42.1149 15.3387 42.2297 15.5988 42.2297C15.7898 42.2297 15.982 42.1676 16.1438 42.041C16.5246 41.7399 16.5891 41.1879 16.2891 40.807C10.8082 33.8707 11.3965 23.918 17.6578 17.6578C23.9191 11.3965 33.8707 10.8082 40.807 16.2891C41.1879 16.5902 41.741 16.5258 42.0422 16.1438C42.341 15.7617 42.2766 15.2098 41.8957 14.9086Z" fill="#316FEA"/>
<path d="M45.0914 18.1043C44.7902 17.7234 44.2383 17.659 43.8574 17.959C43.4766 18.2601 43.4121 18.8121 43.7133 19.193C49.1941 26.1293 48.6059 36.082 42.3445 42.3422C36.0832 48.6035 26.1316 49.1918 19.1953 43.7109C18.8145 43.4097 18.2613 43.4742 17.9602 43.8551C17.659 44.2359 17.7246 44.789 18.1055 45.089C21.607 47.8558 25.8035 49.2176 29.9883 49.2176C34.9312 49.2176 39.8555 47.3168 43.5879 43.5844C50.4785 36.6949 51.1254 25.7402 45.0914 18.1043Z" fill="#316FEA"/>
<path d="M41.9801 24.4196C41.502 24.1242 40.9172 24.0985 40.4156 24.3492L38.4281 25.343V24.6082C38.4281 22.9336 37.0664 21.5719 35.3918 21.5719H22.4496C20.775 21.5719 19.4133 22.9336 19.4133 24.6082V35.3942C19.4133 37.0688 20.775 38.4305 22.4496 38.4305H35.3918C37.0664 38.4305 38.4281 37.0688 38.4281 35.3942V34.6594L40.4156 35.6532C40.6441 35.768 40.8902 35.8243 41.1352 35.8243C41.4281 35.8243 41.7199 35.7434 41.9801 35.5829C42.457 35.2875 42.743 34.7766 42.743 34.2153V25.7883C42.743 25.2258 42.4582 24.7137 41.9801 24.4196ZM35.393 36.6715H22.4496C21.7453 36.6715 21.1711 36.0985 21.1711 35.393V24.6071C21.1711 23.9028 21.7441 23.3285 22.4496 23.3285H35.3918C36.0961 23.3285 36.6703 23.9016 36.6703 24.6071V35.393C36.6715 36.0973 36.0973 36.6715 35.393 36.6715ZM40.9852 33.9703L38.4281 32.6918V27.3071L40.9852 26.0285V33.9703Z" fill="#316FEA"/>
<path d="M25.1461 25.8855C24.3645 25.8855 23.7281 26.5218 23.7281 27.3035C23.7281 28.0851 24.3645 28.7214 25.1461 28.7214C25.9277 28.7214 26.5641 28.0851 26.5641 27.3035C26.5641 26.5218 25.9289 25.8855 25.1461 25.8855Z" fill="#316FEA"/>
</g>
<defs>
<clipPath id="clip0">
<rect width="60" height="60" fill="white"/>
</clipPath>
</defs>
</svg>
