<svg width="87" height="44" viewBox="0 0 87 44" fill="none" xmlns="http://www.w3.org/2000/svg">
<g clip-path="url(#clip0)">
<path d="M81.8962 43.0095H4.37373C2.51137 43.0095 0.98761 41.4857 0.98761 39.6233V4.3738C0.98761 2.51143 2.51137 0.987671 4.37373 0.987671H81.8962C83.7586 0.987671 85.2824 2.51143 85.2824 4.3738V39.6233C85.2824 41.4857 83.7586 43.0095 81.8962 43.0095Z" stroke="#316FEA" stroke-width="1.97524" stroke-miterlimit="10"/>
<path d="M19.0215 23.6154H15.8132V30.2155H13.2454V13.0874H20.4606C23.7226 13.0874 25.9546 15.1924 25.9546 18.3528C25.9546 21.4342 23.875 23.0793 21.6909 23.3615L26.0816 30.2184H23.1046L19.0215 23.6154ZM20.1277 15.3448H15.8132V21.3524H20.1277C21.9759 21.3524 23.3106 20.1446 23.3106 18.3472C23.3106 16.5497 21.9759 15.3448 20.1277 15.3448Z" fill="#316FEA"/>
<path d="M33.0429 15.3448H27.7267V13.0846H40.8987V15.3448H35.6107V30.2127H33.0429V15.3448Z" fill="#316FEA"/>
<path d="M58.309 16.6033L52.7614 30.2127H51.6835L46.1359 16.6033V30.2127H43.5681V13.0846H47.2392L52.2197 25.3847L57.2001 13.0846H60.8712V30.2127H58.3034V16.6033H58.309Z" fill="#316FEA"/>
<path d="M64.6778 13.0846H71.8931C75.4118 13.0846 77.3617 15.4972 77.3617 18.35C77.3617 21.2 75.3836 23.6154 71.8931 23.6154H67.2456V30.2156H64.6778V13.0846ZM71.5601 15.3448H67.2456V21.3524H71.5601C73.4084 21.3524 74.7177 20.1447 74.7177 18.3472C74.7177 16.5497 73.4084 15.3448 71.5601 15.3448Z" fill="#316FEA"/>
</g>
<defs>
<clipPath id="clip0">
<rect width="86.27" height="43.997" fill="white"/>
</clipPath>
</defs>
</svg>
