<svg width="60" height="55" viewBox="0 0 60 55" fill="none" xmlns="http://www.w3.org/2000/svg">
<path d="M30 44.6276C29.6605 44.6276 29.3908 44.3473 29.3908 44.0068V38.2492C29.3908 37.8987 29.6705 37.6284 30 37.6284C30.3395 37.6284 30.6092 37.9087 30.6092 38.2492V44.0068C30.6191 44.3473 30.3395 44.6276 30 44.6276ZM30 23.5998C29.6605 23.5998 29.3908 23.2995 29.3908 22.929V16.7108C29.3908 16.3403 29.6705 16.0399 30 16.0399C30.3395 16.0399 30.6092 16.3403 30.6092 16.7108V22.929C30.6191 23.2995 30.3395 23.5998 30 23.5998Z" fill="#316FEA"/>
<path d="M50.302 49.8545H35.0331C34.6935 49.8545 34.4239 49.5742 34.4239 49.2337C34.4239 48.8832 34.7035 48.6129 35.0331 48.6129H50.302C50.6415 48.6129 50.9112 48.8933 50.9112 49.2337C50.9211 49.5742 50.6415 49.8545 50.302 49.8545ZM25.0468 49.8545H9.70799C9.36846 49.8545 9.09883 49.5742 9.09883 49.2337C9.09883 48.8832 9.37844 48.6129 9.70799 48.6129H25.0468C25.3864 48.6129 25.656 48.8933 25.656 49.2337C25.656 49.5742 25.3864 49.8545 25.0468 49.8545Z" fill="#316FEA"/>
<path d="M30.02 54C27.4835 54 25.4263 51.8572 25.4263 49.2337C25.4263 46.6002 27.4835 44.4674 30.02 44.4674C32.5764 44.4674 34.6536 46.6102 34.6536 49.2337C34.6536 51.8572 32.5764 54 30.02 54ZM30.02 45.2184C27.8929 45.2184 26.1753 47.0208 26.1753 49.2237C26.1753 51.4366 27.9029 53.229 30.02 53.229C32.167 53.229 33.9146 51.4266 33.9146 49.2237C33.9046 47.0208 32.157 45.2184 30.02 45.2184Z" fill="#316FEA"/>
<path d="M56.8829 16.7909H3.18698C1.95868 16.7909 1 15.8296 1 14.618V3.17287C1 1.99131 1.99862 1 3.18698 1H56.8829C58.0513 1 59 1.97128 59 3.17287V14.618C59 15.8496 58.0913 16.7909 56.8829 16.7909ZM3.18698 2.25165C2.68767 2.25165 2.22831 2.69224 2.22831 3.17287V14.618C2.22831 15.1387 2.64773 15.5392 3.18698 15.5392H56.8829C57.4122 15.5392 57.7717 15.1587 57.7717 14.618V3.17287C57.7717 2.73229 57.4122 2.25165 56.8829 2.25165H3.18698Z" fill="#316FEA"/>
<path d="M50.0823 12.0346C48.9539 12.0346 48.0351 11.0933 48.0351 9.9318C48.0351 8.71018 48.9339 7.75893 50.0823 7.75893C51.2906 7.75893 52.1994 8.70017 52.1994 9.9318C52.1994 11.1134 51.2607 12.0346 50.0823 12.0346ZM50.0823 9.01058C49.613 9.01058 49.2634 9.41111 49.2634 9.94181C49.2634 10.4124 49.6329 10.7929 50.0823 10.7929C50.5916 10.7929 50.9711 10.4325 50.9711 9.94181C50.9711 9.4011 50.5916 9.01058 50.0823 9.01058Z" fill="#316FEA"/>
<path d="M45.1291 12.0346C44.0007 12.0346 43.082 11.0933 43.082 9.9318C43.082 8.71018 43.9807 7.75893 45.1291 7.75893C46.2775 7.75893 47.1763 8.7202 47.1763 9.9318C47.1763 11.0933 46.2576 12.0346 45.1291 12.0346ZM45.1291 9.01058C44.6698 9.01058 44.3103 9.42112 44.3103 9.94181C44.3103 10.4024 44.6897 10.7929 45.1291 10.7929C45.5785 10.7929 45.948 10.4124 45.948 9.94181C45.948 9.41111 45.5985 9.01058 45.1291 9.01058Z" fill="#316FEA"/>
<path d="M40.186 12.0346C39.0575 12.0346 38.1388 11.0933 38.1388 9.9318C38.1388 8.71018 39.0375 7.75893 40.186 7.75893C41.3344 7.75893 42.2331 8.7202 42.2331 9.9318C42.2331 11.0933 41.3144 12.0346 40.186 12.0346ZM40.186 9.01058C39.7166 9.01058 39.3671 9.41111 39.3671 9.94181C39.3671 10.4124 39.7366 10.7929 40.186 10.7929C40.6353 10.7929 41.0048 10.4124 41.0048 9.94181C41.0048 9.41111 40.6453 9.01058 40.186 9.01058Z" fill="#316FEA"/>
<path d="M56.8829 38.86H3.18698C1.95868 38.86 1 37.9087 1 36.6871V25.3221C1 24.0805 1.97865 23.0792 3.18698 23.0792H56.8829C58.0713 23.0792 59 24.0705 59 25.3221V36.6871C59 37.9288 58.0913 38.86 56.8829 38.86ZM3.18698 24.3308C2.6677 24.3308 2.22831 24.7814 2.22831 25.3221V36.6871C2.22831 37.2078 2.64773 37.6084 3.18698 37.6084H56.8829C57.4122 37.6084 57.7717 37.2278 57.7717 36.6871V25.3221C57.7717 24.7614 57.3822 24.3308 56.8829 24.3308H3.18698Z" fill="#316FEA"/>
<path d="M50.0823 33.1124C48.9539 33.1124 48.0351 32.1712 48.0351 31.0096C48.0351 29.8281 48.9738 28.8368 50.0823 28.8368C51.2507 28.8368 52.1994 29.8181 52.1994 31.0096C52.1994 32.1912 51.2607 33.1124 50.0823 33.1124ZM50.0823 30.0884C49.6529 30.0884 49.2634 30.529 49.2634 31.0196C49.2634 31.4903 49.6329 31.8708 50.0823 31.8708C50.5916 31.8708 50.9711 31.5103 50.9711 31.0196C50.9711 30.5691 50.6116 30.0884 50.0823 30.0884Z" fill="#316FEA"/>
<path d="M45.1291 33.1124C44.0007 33.1124 43.082 32.1712 43.082 31.0096C43.082 29.8281 44.0207 28.8368 45.1291 28.8368C46.2376 28.8368 47.1763 29.8381 47.1763 31.0096C47.1763 32.1712 46.2576 33.1124 45.1291 33.1124ZM45.1291 30.0884C44.6997 30.0884 44.3103 30.529 44.3103 31.0196C44.3103 31.4803 44.6897 31.8708 45.1291 31.8708C45.5785 31.8708 45.948 31.4903 45.948 31.0196C45.948 30.529 45.5585 30.0884 45.1291 30.0884Z" fill="#316FEA"/>
<path d="M40.186 33.1124C39.0575 33.1124 38.1388 32.1712 38.1388 31.0096C38.1388 29.8281 39.0775 28.8368 40.186 28.8368C41.2944 28.8368 42.2331 29.8381 42.2331 31.0096C42.2331 32.1712 41.3144 33.1124 40.186 33.1124ZM40.186 30.0884C39.7565 30.0884 39.3671 30.529 39.3671 31.0196C39.3671 31.4903 39.7366 31.8708 40.186 31.8708C40.6353 31.8708 41.0048 31.4903 41.0048 31.0196C41.0048 30.529 40.6154 30.0884 40.186 30.0884Z" fill="#316FEA"/>
<path d="M10.2872 10.5626H8.21006C7.87052 10.5626 7.6009 10.2823 7.6009 9.94181C7.6009 9.59135 7.88051 9.32099 8.21006 9.32099H10.2872C10.6267 9.32099 10.8963 9.60136 10.8963 9.94181C10.8963 10.2823 10.6267 10.5626 10.2872 10.5626Z" fill="#316FEA"/>
<path d="M13.8722 10.5626H11.7951C11.4556 10.5626 11.186 10.2823 11.186 9.94181C11.186 9.59135 11.4656 9.32099 11.7951 9.32099H13.8722C14.2118 9.32099 14.4814 9.60136 14.4814 9.94181C14.4814 10.2823 14.2118 10.5626 13.8722 10.5626Z" fill="#316FEA"/>
<path d="M17.4573 10.5626H15.3802C15.0406 10.5626 14.771 10.2823 14.771 9.94181C14.771 9.59135 15.0506 9.32099 15.3802 9.32099H17.4573C17.7968 9.32099 18.0665 9.60136 18.0665 9.94181C18.0665 10.2823 17.7968 10.5626 17.4573 10.5626Z" fill="#316FEA"/>
<path d="M10.2872 31.6405H8.21006C7.87052 31.6405 7.6009 31.3601 7.6009 31.0196C7.6009 30.6692 7.88051 30.3988 8.21006 30.3988H10.2872C10.6267 30.3988 10.8963 30.6792 10.8963 31.0196C10.8963 31.3601 10.6267 31.6405 10.2872 31.6405Z" fill="#316FEA"/>
<path d="M13.8722 31.6405H11.7951C11.4556 31.6405 11.186 31.3601 11.186 31.0196C11.186 30.6692 11.4656 30.3988 11.7951 30.3988H13.8722C14.2118 30.3988 14.4814 30.6792 14.4814 31.0196C14.4814 31.3601 14.2118 31.6405 13.8722 31.6405Z" fill="#316FEA"/>
<path d="M17.4573 31.6405H15.3802C15.0406 31.6405 14.771 31.3601 14.771 31.0196C14.771 30.6692 15.0506 30.3988 15.3802 30.3988H17.4573C17.7968 30.3988 18.0665 30.6792 18.0665 31.0196C18.0665 31.3601 17.7968 31.6405 17.4573 31.6405Z" fill="#316FEA"/>
<path d="M30 44.6276C29.6605 44.6276 29.3908 44.3473 29.3908 44.0068V38.2492C29.3908 37.8987 29.6705 37.6284 30 37.6284C30.3395 37.6284 30.6092 37.9087 30.6092 38.2492V44.0068C30.6191 44.3473 30.3395 44.6276 30 44.6276ZM30 23.5998C29.6605 23.5998 29.3908 23.2995 29.3908 22.929V16.7108C29.3908 16.3403 29.6705 16.0399 30 16.0399C30.3395 16.0399 30.6092 16.3403 30.6092 16.7108V22.929C30.6191 23.2995 30.3395 23.5998 30 23.5998Z" stroke="#316FEA"/>
<path d="M50.302 49.8545H35.0331C34.6935 49.8545 34.4239 49.5742 34.4239 49.2337C34.4239 48.8832 34.7035 48.6129 35.0331 48.6129H50.302C50.6415 48.6129 50.9112 48.8933 50.9112 49.2337C50.9211 49.5742 50.6415 49.8545 50.302 49.8545ZM25.0468 49.8545H9.70799C9.36846 49.8545 9.09883 49.5742 9.09883 49.2337C9.09883 48.8832 9.37844 48.6129 9.70799 48.6129H25.0468C25.3864 48.6129 25.656 48.8933 25.656 49.2337C25.656 49.5742 25.3864 49.8545 25.0468 49.8545Z" stroke="#316FEA"/>
<path d="M30.02 54C27.4835 54 25.4263 51.8572 25.4263 49.2337C25.4263 46.6002 27.4835 44.4674 30.02 44.4674C32.5764 44.4674 34.6536 46.6102 34.6536 49.2337C34.6536 51.8572 32.5764 54 30.02 54ZM30.02 45.2184C27.8929 45.2184 26.1753 47.0208 26.1753 49.2237C26.1753 51.4366 27.9029 53.229 30.02 53.229C32.167 53.229 33.9146 51.4266 33.9146 49.2237C33.9046 47.0208 32.157 45.2184 30.02 45.2184Z" stroke="#316FEA"/>
<path d="M56.8829 16.7909H3.18698C1.95868 16.7909 1 15.8296 1 14.618V3.17287C1 1.99131 1.99862 1 3.18698 1H56.8829C58.0513 1 59 1.97128 59 3.17287V14.618C59 15.8496 58.0913 16.7909 56.8829 16.7909ZM3.18698 2.25165C2.68767 2.25165 2.22831 2.69224 2.22831 3.17287V14.618C2.22831 15.1387 2.64773 15.5392 3.18698 15.5392H56.8829C57.4122 15.5392 57.7717 15.1587 57.7717 14.618V3.17287C57.7717 2.73229 57.4122 2.25165 56.8829 2.25165H3.18698Z" stroke="#316FEA"/>
<path d="M50.0823 12.0346C48.9539 12.0346 48.0351 11.0933 48.0351 9.9318C48.0351 8.71018 48.9339 7.75893 50.0823 7.75893C51.2906 7.75893 52.1994 8.70017 52.1994 9.9318C52.1994 11.1134 51.2607 12.0346 50.0823 12.0346ZM50.0823 9.01058C49.613 9.01058 49.2634 9.41111 49.2634 9.94181C49.2634 10.4124 49.6329 10.7929 50.0823 10.7929C50.5916 10.7929 50.9711 10.4325 50.9711 9.94181C50.9711 9.4011 50.5916 9.01058 50.0823 9.01058Z" stroke="#316FEA"/>
<path d="M45.1291 12.0346C44.0007 12.0346 43.082 11.0933 43.082 9.9318C43.082 8.71018 43.9807 7.75893 45.1291 7.75893C46.2775 7.75893 47.1763 8.7202 47.1763 9.9318C47.1763 11.0933 46.2576 12.0346 45.1291 12.0346ZM45.1291 9.01058C44.6698 9.01058 44.3103 9.42112 44.3103 9.94181C44.3103 10.4024 44.6897 10.7929 45.1291 10.7929C45.5785 10.7929 45.948 10.4124 45.948 9.94181C45.948 9.41111 45.5985 9.01058 45.1291 9.01058Z" stroke="#316FEA"/>
<path d="M40.186 12.0346C39.0575 12.0346 38.1388 11.0933 38.1388 9.9318C38.1388 8.71018 39.0375 7.75893 40.186 7.75893C41.3344 7.75893 42.2331 8.7202 42.2331 9.9318C42.2331 11.0933 41.3144 12.0346 40.186 12.0346ZM40.186 9.01058C39.7166 9.01058 39.3671 9.41111 39.3671 9.94181C39.3671 10.4124 39.7366 10.7929 40.186 10.7929C40.6353 10.7929 41.0048 10.4124 41.0048 9.94181C41.0048 9.41111 40.6453 9.01058 40.186 9.01058Z" stroke="#316FEA"/>
<path d="M56.8829 38.86H3.18698C1.95868 38.86 1 37.9087 1 36.6871V25.3221C1 24.0805 1.97865 23.0792 3.18698 23.0792H56.8829C58.0713 23.0792 59 24.0705 59 25.3221V36.6871C59 37.9288 58.0913 38.86 56.8829 38.86ZM3.18698 24.3308C2.6677 24.3308 2.22831 24.7814 2.22831 25.3221V36.6871C2.22831 37.2078 2.64773 37.6084 3.18698 37.6084H56.8829C57.4122 37.6084 57.7717 37.2278 57.7717 36.6871V25.3221C57.7717 24.7614 57.3822 24.3308 56.8829 24.3308H3.18698Z" stroke="#316FEA"/>
<path d="M50.0823 33.1124C48.9539 33.1124 48.0351 32.1712 48.0351 31.0096C48.0351 29.8281 48.9738 28.8368 50.0823 28.8368C51.2507 28.8368 52.1994 29.8181 52.1994 31.0096C52.1994 32.1912 51.2607 33.1124 50.0823 33.1124ZM50.0823 30.0884C49.6529 30.0884 49.2634 30.529 49.2634 31.0196C49.2634 31.4903 49.6329 31.8708 50.0823 31.8708C50.5916 31.8708 50.9711 31.5103 50.9711 31.0196C50.9711 30.5691 50.6116 30.0884 50.0823 30.0884Z" stroke="#316FEA"/>
<path d="M45.1291 33.1124C44.0007 33.1124 43.082 32.1712 43.082 31.0096C43.082 29.8281 44.0207 28.8368 45.1291 28.8368C46.2376 28.8368 47.1763 29.8381 47.1763 31.0096C47.1763 32.1712 46.2576 33.1124 45.1291 33.1124ZM45.1291 30.0884C44.6997 30.0884 44.3103 30.529 44.3103 31.0196C44.3103 31.4803 44.6897 31.8708 45.1291 31.8708C45.5785 31.8708 45.948 31.4903 45.948 31.0196C45.948 30.529 45.5585 30.0884 45.1291 30.0884Z" stroke="#316FEA"/>
<path d="M40.186 33.1124C39.0575 33.1124 38.1388 32.1712 38.1388 31.0096C38.1388 29.8281 39.0775 28.8368 40.186 28.8368C41.2944 28.8368 42.2331 29.8381 42.2331 31.0096C42.2331 32.1712 41.3144 33.1124 40.186 33.1124ZM40.186 30.0884C39.7565 30.0884 39.3671 30.529 39.3671 31.0196C39.3671 31.4903 39.7366 31.8708 40.186 31.8708C40.6353 31.8708 41.0048 31.4903 41.0048 31.0196C41.0048 30.529 40.6154 30.0884 40.186 30.0884Z" stroke="#316FEA"/>
<path d="M10.2872 10.5626H8.21006C7.87052 10.5626 7.6009 10.2823 7.6009 9.94181C7.6009 9.59135 7.88051 9.32099 8.21006 9.32099H10.2872C10.6267 9.32099 10.8963 9.60136 10.8963 9.94181C10.8963 10.2823 10.6267 10.5626 10.2872 10.5626Z" stroke="#316FEA"/>
<path d="M13.8722 10.5626H11.7951C11.4556 10.5626 11.186 10.2823 11.186 9.94181C11.186 9.59135 11.4656 9.32099 11.7951 9.32099H13.8722C14.2118 9.32099 14.4814 9.60136 14.4814 9.94181C14.4814 10.2823 14.2118 10.5626 13.8722 10.5626Z" stroke="#316FEA"/>
<path d="M17.4573 10.5626H15.3802C15.0406 10.5626 14.771 10.2823 14.771 9.94181C14.771 9.59135 15.0506 9.32099 15.3802 9.32099H17.4573C17.7968 9.32099 18.0665 9.60136 18.0665 9.94181C18.0665 10.2823 17.7968 10.5626 17.4573 10.5626Z" stroke="#316FEA"/>
<path d="M10.2872 31.6405H8.21006C7.87052 31.6405 7.6009 31.3601 7.6009 31.0196C7.6009 30.6692 7.88051 30.3988 8.21006 30.3988H10.2872C10.6267 30.3988 10.8963 30.6792 10.8963 31.0196C10.8963 31.3601 10.6267 31.6405 10.2872 31.6405Z" stroke="#316FEA"/>
<path d="M13.8722 31.6405H11.7951C11.4556 31.6405 11.186 31.3601 11.186 31.0196C11.186 30.6692 11.4656 30.3988 11.7951 30.3988H13.8722C14.2118 30.3988 14.4814 30.6792 14.4814 31.0196C14.4814 31.3601 14.2118 31.6405 13.8722 31.6405Z" stroke="#316FEA"/>
<path d="M17.4573 31.6405H15.3802C15.0406 31.6405 14.771 31.3601 14.771 31.0196C14.771 30.6692 15.0506 30.3988 15.3802 30.3988H17.4573C17.7968 30.3988 18.0665 30.6792 18.0665 31.0196C18.0665 31.3601 17.7968 31.6405 17.4573 31.6405Z" stroke="#316FEA"/>
</svg>
