<svg width="42" height="50" viewBox="0 0 42 50" fill="none" xmlns="http://www.w3.org/2000/svg">
<path d="M14.5388 20.2139C14.9378 20.2139 15.2616 19.8857 15.2616 19.4814V13.457C15.2616 13.0527 14.9378 12.7246 14.5388 12.7246C14.1397 12.7246 13.8159 13.0527 13.8159 13.457V19.4814C13.8159 19.8867 14.1397 20.2139 14.5388 20.2139Z" fill="#316FEA"/>
<path d="M20.0362 20.2139C20.4352 20.2139 20.7591 19.8857 20.7591 19.4814V17.167H22.2385C22.6375 17.167 22.9613 16.8389 22.9613 16.4346C22.9613 16.0303 22.6375 15.7021 22.2385 15.7021H20.7591V14.2334H22.4283C22.8273 14.2334 23.1512 13.9053 23.1512 13.501C23.1512 13.0967 22.8273 12.7686 22.4283 12.7686H20.0362C19.6372 12.7686 19.3134 13.0967 19.3134 13.501V19.4814C19.3134 19.8867 19.6372 20.2139 20.0362 20.2139Z" fill="#316FEA"/>
<path d="M4.10284 16.4697C4.10284 18.5342 5.76056 20.2148 7.79898 20.2148C9.73523 20.2148 11.0884 18.6748 11.0884 16.4697C11.0884 16.0654 10.7646 15.7373 10.3655 15.7373H8.58543C8.18642 15.7373 7.86259 16.0654 7.86259 16.4697C7.86259 16.874 8.18642 17.2021 8.58543 17.2021H9.56078C9.37477 18.0186 8.84758 18.75 7.79801 18.75C6.55762 18.75 5.54756 17.7275 5.54756 16.4697C5.54756 15.2119 6.55665 14.1895 7.79801 14.1895C8.24907 14.1895 8.68373 14.3242 9.05576 14.5781C9.38634 14.8047 9.83546 14.7168 10.0591 14.3809C10.2827 14.0459 10.1959 13.5898 9.86438 13.3643C9.25237 12.9453 8.5382 12.7246 7.79801 12.7246C5.76056 12.7256 4.10284 14.4053 4.10284 16.4697Z" fill="#316FEA"/>
<path d="M41.2772 19.1191C41.6762 19.1191 42 18.791 42 18.3867V9.88281C42 9.7002 41.9287 9.50684 41.788 9.36523L32.7573 0.214844C32.6281 0.0839844 32.4431 0 32.2465 0H10.3029C8.70205 0 7.39901 1.32031 7.39901 2.94238V4.59668H5.76635C4.1655 4.59668 2.86245 5.91699 2.86245 7.53906V9.15039H2.03167C0.911744 9.15039 0 10.0732 0 11.209V21.8086C0 22.9434 0.911744 23.8672 2.03167 23.8672H2.86245V34.6055C2.86245 35.0098 3.18629 35.3379 3.5853 35.3379C3.9843 35.3379 4.30814 35.0098 4.30814 34.6055V23.8662H7.39901V42.46C7.39901 43.9307 8.46881 45.1523 9.86149 45.3682C10.1873 45.4189 8.50929 45.4023 36.0178 45.4023V47.0566C36.0178 47.8721 35.3633 48.5342 34.5595 48.5342H5.76635C4.96255 48.5342 4.30814 47.8711 4.30814 47.0566V32.1631C4.30814 31.7588 3.9843 31.4307 3.5853 31.4307C3.18629 31.4307 2.86245 31.7588 2.86245 32.1631V47.0576C2.86245 48.6797 4.1655 50 5.76635 50H34.5586C36.1594 50 37.4625 48.6797 37.4625 47.0576V45.4033H39.0951C40.696 45.4033 41.999 44.083 41.999 42.4609V15.9453C41.999 15.541 41.6752 15.2129 41.2762 15.2129C40.8772 15.2129 40.5534 15.541 40.5534 15.9453V42.46C40.5534 43.2744 39.8989 43.9375 39.0951 43.9375C38.0716 43.9375 11.7534 43.9375 10.3029 43.9375C9.49911 43.9375 8.84469 43.2744 8.84469 42.46V23.8662H17.9525C17.7742 24.0742 17.6026 24.29 17.4407 24.5127C17.2046 24.8389 17.273 25.2969 17.5949 25.5361C17.9178 25.7764 18.3698 25.7051 18.6059 25.3799C19.0117 24.8203 19.482 24.3125 20.0073 23.8662H25.9616C27.0815 23.8662 27.9933 22.9424 27.9933 21.8076V11.209C27.9933 10.0742 27.0815 9.15039 25.9616 9.15039H8.84469V2.94238C8.84469 2.12793 9.49911 1.46484 10.3029 1.46484H31.5236V7.67188C31.5236 9.29395 32.8267 10.6143 34.4275 10.6143H40.5534V18.3867C40.5543 18.792 40.8782 19.1191 41.2772 19.1191ZM25.9616 10.6152C26.2845 10.6152 26.5476 10.8818 26.5476 11.209V21.8086C26.5476 22.1357 26.2845 22.4023 25.9616 22.4023C25.7476 22.4023 2.26105 22.4023 2.03167 22.4023C1.7088 22.4023 1.44568 22.1357 1.44568 21.8086V11.209C1.44568 10.8818 1.7088 10.6152 2.03167 10.6152H25.9616ZM4.30814 9.15039V7.54004C4.30814 6.72559 4.96255 6.0625 5.76635 6.0625H7.39901V9.15039H4.30814ZM34.4275 9.15039C33.6237 9.15039 32.9693 8.4873 32.9693 7.67285V2.50098C33.9196 3.46387 38.5795 8.18555 39.5317 9.15039H34.4275Z" fill="#316FEA"/>
<path d="M20.0102 38.9551C20.3437 39.1768 20.7918 39.084 21.0116 38.7461C21.2313 38.4082 21.1388 37.9541 20.8053 37.7314C19.8319 37.082 19.0107 36.2539 18.3679 35.2686C18.1472 34.9316 17.699 34.8389 17.3656 35.0625C17.033 35.2861 16.9415 35.7402 17.1622 36.0771C17.9139 37.2285 18.8729 38.1973 20.0102 38.9551Z" fill="#316FEA"/>
<path d="M31.4234 38.6377C32.5192 37.8164 33.4242 36.7969 34.1124 35.6064C34.3138 35.2578 34.1981 34.8086 33.8541 34.6045C33.509 34.3994 33.0667 34.5176 32.8652 34.8662C32.2763 35.8848 31.5024 36.7568 30.5637 37.46C30.2427 37.7002 30.1753 38.1592 30.4124 38.4844C30.6504 38.8096 31.1034 38.8779 31.4234 38.6377Z" fill="#316FEA"/>
<path d="M32.0893 25.0049C32.3428 25.3174 32.7987 25.3623 33.1071 25.1045C33.4155 24.8477 33.4598 24.3858 33.2054 24.0733C32.339 23.0059 31.2865 22.1436 30.0789 21.5088C29.7242 21.3232 29.2886 21.4629 29.1045 21.8223C28.9204 22.1816 29.0592 22.6231 29.4139 22.8096C30.4471 23.3525 31.3482 24.0908 32.0893 25.0049Z" fill="#316FEA"/>
<path d="M16.6283 27.6689C16.2389 27.5781 15.8514 27.8242 15.7618 28.2178C15.5931 28.9609 15.5074 29.7275 15.5074 30.4971C15.5074 31.0996 15.5604 31.7041 15.6645 32.292C15.7348 32.6904 16.1117 32.9551 16.5039 32.8838C16.8972 32.8125 17.1583 32.4316 17.088 32.0332C16.9993 31.5303 16.954 31.0127 16.954 30.4961C16.954 29.8379 17.0273 29.1816 17.1718 28.5459C17.2595 28.1533 17.0176 27.7598 16.6283 27.6689Z" fill="#316FEA"/>
<path d="M27.442 38.9238C26.3548 39.1816 25.1722 39.2285 24.0003 39.0195C23.6061 38.9492 23.2321 39.2158 23.1627 39.6143C23.0933 40.0127 23.3565 40.3926 23.7497 40.4629C25.0325 40.6914 26.4126 40.6728 27.7706 40.3516C28.159 40.2598 28.4009 39.8652 28.3103 39.4717C28.2197 39.0762 27.8304 38.832 27.442 38.9238Z" fill="#316FEA"/>
<path d="M34.6858 32.3867C35.0453 32.3867 35.3576 32.1142 35.4019 31.7431C35.452 31.333 35.4771 30.914 35.4771 30.4971C35.4771 29.539 35.345 28.5908 35.0848 27.6797C34.974 27.291 34.573 27.0674 34.1894 27.1797C33.8059 27.292 33.5852 27.6982 33.696 28.0869C33.9186 28.8662 34.0314 29.6777 34.0314 30.4971C34.0314 30.8535 34.0102 31.2129 33.9668 31.5644C33.9177 31.9658 34.2001 32.331 34.5962 32.3808C34.626 32.3847 34.6559 32.3867 34.6858 32.3867Z" fill="#316FEA"/>
<path d="M30.4201 29.2871L23.5849 25.1016C22.6558 24.5332 21.4674 25.2119 21.4674 26.3125V34.6826C21.4674 35.7822 22.6558 36.4619 23.5849 35.8935L30.4201 31.708C31.3193 31.1572 31.3174 29.8359 30.4201 29.2871ZM22.9131 34.5928V26.4014L29.6018 30.4971L22.9131 34.5928Z" fill="#316FEA"/>
</svg>
