<svg width="59" height="42" viewBox="0 0 59 42" fill="none" xmlns="http://www.w3.org/2000/svg">
<g clip-path="url(#clip0)">
<path d="M13.87 0.890001C18.05 0.450001 22.25 0.260001 26.45 0.150001C29.13 0.100001 31.81 0.140001 34.49 0.230001C39.19 0.420001 43.89 0.730001 48.54 1.45C50.72 1.8 52.91 2.23 55 3.01C55.91 3.38 56.84 3.8 57.51 4.53C57.88 4.9 57.98 5.43 57.97 5.94C57.97 16.14 57.97 26.33 57.97 36.53C57.99 37.12 57.66 37.67 57.22 38.03C56.3 38.78 55.19 39.22 54.07 39.57C50.84 40.58 47.46 41.02 44.11 41.4C43.96 41.41 43.8 41.44 43.65 41.43C43.35 41.4 43.14 41.1 43.15 40.81C43.15 38.21 43.15 35.61 43.15 33.01C39.14 32.63 35.11 32.42 31.08 32.38C25.36 32.29 19.63 32.53 13.94 33.11C13.89 35.68 13.93 38.25 13.91 40.81C13.92 41.13 13.57 41.38 13.26 41.31C10.9 41.04 8.55 40.7 6.23 40.17C4.76 39.82 3.29 39.43 1.93 38.76C1.36 38.46 0.779995 38.11 0.389995 37.58C0.149995 37.28 0.119995 36.88 0.119995 36.51C0.119995 26.19 0.119995 15.87 0.119995 5.55C0.149995 4.89 0.629995 4.37 1.14 4.01C2.38 3.15 3.85 2.71 5.3 2.31C8.1 1.58 10.99 1.2 13.87 0.890001ZM25.92 1.24C22.58 1.29 19.24 1.45 15.91 1.75C12.64 2.06 9.35999 2.47 6.15 3.2C4.94 3.49 3.73 3.83 2.58 4.33C1.96 4.59 1.33 4.99 1.13 5.67C1.41 6.06 1.8 6.36 2.23 6.57C3.15 7.03 4.14 7.35 5.13 7.62C7.85 8.35 10.64 8.75 13.43 9.09C13.69 9.11 13.93 9.33 13.92 9.6C13.9 14.33 13.92 19.06 13.91 23.79C13.92 26.53 13.89 29.28 13.93 32.02C23.64 31.05 33.43 31.03 43.15 31.92C43.15 24.56 43.15 17.21 43.15 9.85C43.13 9.55 43.33 9.21 43.66 9.19C45.58 8.97 47.51 8.74 49.42 8.39C51.25 8.05 53.07 7.65 54.81 7.01C55.43 6.76 56.07 6.49 56.58 6.04C56.8 5.85 56.99 5.49 56.78 5.22C56.4 4.6 55.68 4.35 55.03 4.08C52.93 3.29 50.71 2.88 48.51 2.5C41.93 1.49 35.25 1.22 28.59 1.2C27.7 1.25 26.81 1.2 25.92 1.24ZM51.61 9.08C49.18 9.63 46.72 9.95 44.25 10.23C44.25 20.25 44.25 30.28 44.25 40.3C46.13 40.09 48.02 39.85 49.88 39.5C51.71 39.14 53.53 38.72 55.26 38.02C55.85 37.78 56.41 37.43 56.84 36.95C56.84 27.03 56.84 17.11 56.84 7.19C55.24 8.15 53.42 8.66 51.61 9.08ZM1.2 7.72C1.2 7.72 1.2 26.61 1.2 36.05C1.2 36.29 1.18 36.54 1.22 36.77C1.3 37.14 1.62 37.38 1.93 37.56C2.79999 38.06 3.75 38.39 4.71 38.67C7.36 39.43 10.1 39.84 12.83 40.19C12.83 30.16 12.83 20.14 12.83 10.11C10.5 9.82 8.16 9.49 5.87 8.94C4.41 8.59 2.54 7.9 1.2 7.23V7.72Z" fill="#316FEA" stroke="#316FEA" stroke-width="0.25" stroke-miterlimit="10"/>
<path d="M20.49 11.23H21.69L24.67 20.07L27.65 11.23H28.8L25.34 21.25H23.9L20.49 11.23Z" fill="#316FEA"/>
<path d="M30.49 11.23H33.5C35.42 11.23 37 12.01 37 14.02V14.08C37 15.73 35.89 16.55 34.52 16.81L37.59 21.25H36.23L33.25 16.89H31.71V21.25H30.49V11.23ZM33.59 15.92C35.02 15.92 35.79 15.3 35.79 14.07V14.01C35.79 12.65 34.95 12.2 33.59 12.2H31.71V15.91H33.59V15.92Z" fill="#316FEA"/>
</g>
<defs>
<clipPath id="clip0">
<rect width="58.1" height="41.57" fill="white"/>
</clipPath>
</defs>
</svg>
