<svg width="58" height="49" viewBox="0 0 58 49" fill="none" xmlns="http://www.w3.org/2000/svg">
<g clip-path="url(#clip0)">
<path d="M56.94 48.16H0.769995C0.409995 48.16 0.119995 47.87 0.119995 47.51V0.780005C0.119995 0.420005 0.409995 0.130005 0.769995 0.130005H56.94C57.3 0.130005 57.59 0.420005 57.59 0.780005V47.51C57.59 47.87 57.3 48.16 56.94 48.16ZM1.42 46.86H56.29V1.43H1.42V46.86Z" fill="#316FEA" stroke="#316FEA" stroke-width="0.25" stroke-miterlimit="10"/>
<path d="M1.17 46.9C1.42 47.15 1.88 47.11 2.19 46.8L11.93 37.06C12.24 36.75 12.28 36.29 12.03 36.04C11.78 35.79 11.32 35.83 11.01 36.14L1.27 45.88C0.96 46.19 0.91 46.65 1.17 46.9Z" fill="#316FEA" stroke="#316FEA" stroke-width="0.25" stroke-miterlimit="10"/>
<path d="M56.62 46.9C56.37 47.15 55.91 47.11 55.6 46.8L45.86 37.06C45.55 36.75 45.51 36.29 45.76 36.04C46.01 35.79 46.47 35.83 46.78 36.14L56.52 45.88C56.83 46.19 56.87 46.65 56.62 46.9Z" fill="#316FEA" stroke="#316FEA" stroke-width="0.25" stroke-miterlimit="10"/>
<path d="M56.62 1.57001C56.37 1.32001 55.91 1.36001 55.6 1.67001L45.86 11.41C45.55 11.72 45.51 12.18 45.76 12.43C46.01 12.68 46.47 12.64 46.78 12.33L56.52 2.59001C56.83 2.28001 56.87 1.82001 56.62 1.57001Z" fill="#316FEA" stroke="#316FEA" stroke-width="0.25" stroke-miterlimit="10"/>
<path d="M1.17 1.57001C1.42 1.32001 1.88 1.36001 2.19 1.67001L11.93 11.41C12.24 11.72 12.28 12.18 12.03 12.43C11.78 12.68 11.32 12.64 11.01 12.33L1.27 2.59001C0.96 2.28001 0.91 1.82001 1.17 1.57001Z" fill="#316FEA" stroke="#316FEA" stroke-width="0.25" stroke-miterlimit="10"/>
<path d="M25.53 11.29C26.69 10.5 28.14 10.13 29.53 10.32C30.92 10.49 32.22 11.23 33.13 12.3C34.31 13.67 34.87 15.58 34.51 17.36C34.44 17.68 34.35 18 34.23 18.31C34.08 18.62 33.98 18.96 33.76 19.23C33.06 20.41 32.39 21.63 32.02 22.96C31.85 23.64 31.72 24.41 32.1 25.04C32.46 25.58 33.17 25.65 33.77 25.62C34.77 25.62 35.77 25.61 36.77 25.62C38.41 25.66 39.98 26.55 40.94 27.87C40.98 27.92 41.01 27.98 41.05 28.03C41.09 28.09 41.12 28.14 41.16 28.2C41.21 28.27 41.25 28.35 41.3 28.42C41.36 28.52 41.4 28.63 41.45 28.74L41.48 28.73C41.53 28.88 41.59 29.03 41.64 29.18C41.76 29.41 41.82 29.67 41.89 29.91L41.85 29.92C41.89 30.07 41.93 30.23 41.94 30.39C41.95 30.5 41.96 30.6 41.97 30.71C42.03 30.98 41.94 31.26 41.75 31.45C41.69 31.48 41.63 31.52 41.57 31.56C41.52 31.58 41.48 31.6 41.43 31.63L41.42 31.59C41.26 31.61 41.1 31.6 40.94 31.6C40.86 31.59 40.78 31.58 40.71 31.57C40.69 32.15 40.72 32.73 40.7 33.31C40.69 33.65 40.37 33.93 40.04 33.93C39.1 33.94 38.17 33.93 37.23 33.94C36.85 33.93 36.48 33.94 36.1 33.94C35.95 33.94 35.79 33.94 35.64 33.94C35.55 33.94 35.47 33.94 35.39 33.94C35.32 33.94 35.25 33.94 35.18 33.95C35.01 33.94 34.84 33.95 34.66 33.94C34.52 33.94 34.37 33.95 34.23 33.96V33.93C34.19 33.94 34.11 33.95 34.07 33.96C33.96 33.95 33.86 33.95 33.75 33.95C33.6 33.96 33.44 33.96 33.29 33.96C33.07 33.96 32.85 33.96 32.63 33.96C32.48 33.96 32.32 33.97 32.17 33.97C32.08 33.97 32 33.97 31.91 33.97C31.84 33.97 31.78 33.97 31.71 33.97C31.62 33.97 31.54 33.97 31.46 33.97C31.39 33.97 31.32 33.97 31.26 33.97C31.17 33.97 31.09 33.97 31 33.97C30.93 33.97 30.87 33.97 30.8 33.96C27.47 33.98 24.14 33.98 20.81 33.99C20.73 33.99 20.64 33.99 20.56 34C20.41 34 20.25 34 20.1 34C19.95 34 19.8 34 19.64 34C19.57 34 19.5 34 19.44 34C19.29 34 19.13 34 18.98 34C18.83 34 18.67 34 18.52 34C18.36 34 18.19 34 18.03 34.02L18.02 33.99C17.95 33.99 17.87 34 17.83 34C17.76 34 17.69 34 17.62 34C17.32 33.93 17.05 33.68 17.07 33.35C17.07 32.79 17.06 32.22 17.07 31.66C16.72 31.62 16.32 31.78 16.02 31.53C15.79 31.37 15.72 31.07 15.76 30.8C15.82 29.58 16.32 28.4 17.13 27.49C18.07 26.41 19.44 25.71 20.88 25.65C22.01 25.63 23.14 25.65 24.28 25.63C24.72 25.63 25.21 25.5 25.49 25.14C25.65 24.96 25.72 24.72 25.77 24.49C25.78 24.41 25.79 24.32 25.8 24.23C25.8 24.16 25.8 24.1 25.81 24.03C25.8 23.97 25.8 23.9 25.79 23.84C25.74 23.25 25.58 22.66 25.34 22.12C25.28 21.95 25.22 21.78 25.16 21.61L25.13 21.62C25.08 21.47 25.03 21.32 24.95 21.18C24.91 21.08 24.86 20.98 24.82 20.88C24.75 20.77 24.7 20.65 24.63 20.55C24.59 20.46 24.56 20.37 24.52 20.28L24.49 20.29C24.44 20.18 24.4 20.07 24.34 19.97C24.3 19.89 24.25 19.82 24.21 19.74C24.16 19.67 24.12 19.59 24.07 19.52C23.95 19.31 23.82 19.11 23.7 18.9C23.65 18.8 23.6 18.71 23.54 18.62C23.4 18.22 23.22 17.83 23.12 17.42C23.07 17.04 23.01 16.66 22.98 16.27C22.98 16.16 22.98 16.06 22.98 15.95C22.99 15.77 23 15.59 23.02 15.41C23.08 14.92 23.19 14.44 23.36 13.98C23.74 12.95 24.45 12.06 25.33 11.4C25.39 11.39 25.46 11.34 25.53 11.29ZM26.52 12.17C26.31 12.3 26.1 12.45 25.91 12.61C25.86 12.66 25.81 12.7 25.77 12.75C25.72 12.8 25.66 12.85 25.61 12.9C25.51 13.01 25.41 13.13 25.31 13.25C24.71 14.02 24.32 14.97 24.27 15.95C24.27 16.02 24.27 16.08 24.26 16.15C24.26 16.35 24.27 16.54 24.3 16.74C24.36 17.15 24.47 17.57 24.66 17.94C24.7 18.03 24.73 18.12 24.77 18.21C24.78 18.21 24.79 18.21 24.8 18.21C24.87 18.38 24.97 18.53 25.07 18.68C25.11 18.74 25.14 18.79 25.18 18.85C25.22 18.92 25.27 19 25.32 19.07C25.45 19.34 25.6 19.6 25.75 19.86C25.93 20.22 26.09 20.59 26.27 20.95C26.69 21.96 27.06 23.02 27.13 24.13C27.13 24.33 27.12 24.53 27.12 24.73C27.06 25.32 26.83 25.91 26.37 26.31C26.25 26.4 26.12 26.49 26 26.58C25.91 26.61 25.82 26.65 25.73 26.68C25.73 26.69 25.73 26.71 25.73 26.72C25.49 26.79 25.25 26.86 25.01 26.93V26.89C24.86 26.93 24.72 26.96 24.57 26.99L24.56 26.96C24.46 26.97 24.37 26.98 24.27 26.98C24.2 26.98 24.14 26.97 24.07 26.97C23.92 26.98 23.76 26.98 23.61 26.97C23.46 26.97 23.3 26.98 23.15 26.98C23.06 26.98 22.98 26.98 22.89 26.98C22.82 26.98 22.76 26.98 22.69 26.97C22.54 26.97 22.38 26.98 22.23 26.98C21.41 27 20.57 26.91 19.79 27.19C19.33 27.32 18.9 27.56 18.52 27.85C18.31 28.03 18.1 28.23 17.93 28.45C17.49 28.98 17.25 29.65 17.13 30.32C20.31 30.29 23.5 30.31 26.68 30.28C26.75 30.28 26.82 30.28 26.89 30.28C26.97 30.28 27.06 30.28 27.14 30.27C27.21 30.27 27.28 30.28 27.35 30.28C27.5 30.28 27.65 30.28 27.81 30.27C27.96 30.27 28.12 30.27 28.27 30.27C28.42 30.27 28.58 30.27 28.73 30.26C28.88 30.26 29.04 30.26 29.19 30.26C29.26 30.26 29.32 30.26 29.39 30.26C29.5 30.26 29.6 30.26 29.71 30.27C29.74 30.27 29.81 30.27 29.85 30.26C29.95 30.26 30.04 30.25 30.14 30.24L30.15 30.28C30.19 30.27 30.26 30.26 30.3 30.25C30.46 30.26 30.61 30.26 30.77 30.25C30.88 30.25 30.98 30.25 31.09 30.26C31.12 30.26 31.19 30.25 31.22 30.24C31.39 30.25 31.56 30.25 31.73 30.25C32.04 30.24 32.35 30.24 32.65 30.24C32.8 30.24 32.96 30.24 33.11 30.23C35.37 30.23 37.62 30.22 39.88 30.22C40.12 30.22 40.37 30.24 40.61 30.21C40.48 29.47 40.17 28.76 39.67 28.2C38.96 27.39 37.89 26.93 36.81 26.9C35.64 26.89 34.48 26.91 33.31 26.9C32.6 26.88 31.88 26.68 31.33 26.21C31.28 26.15 31.23 26.1 31.18 26.05C31.09 25.93 31 25.8 30.91 25.67C30.77 25.34 30.67 24.99 30.61 24.64C30.61 24.45 30.6 24.25 30.6 24.06C30.61 23.99 30.62 23.92 30.62 23.85C30.62 23.84 30.61 23.81 30.6 23.79C30.62 23.7 30.63 23.61 30.65 23.51C30.65 23.5 30.64 23.47 30.64 23.45C30.66 23.35 30.68 23.26 30.7 23.16C30.71 23.09 30.72 23.03 30.74 22.96C31.12 21.25 31.93 19.68 32.81 18.19C32.97 17.92 33.08 17.63 33.18 17.33C33.24 17.12 33.29 16.91 33.33 16.69C33.33 16.66 33.35 16.58 33.35 16.55C33.36 16.37 33.38 16.19 33.39 16.01C33.38 15.85 33.38 15.69 33.35 15.53L33.38 15.52C33.34 15.35 33.29 15.17 33.29 14.99C33.22 14.65 33.05 14.35 32.95 14.03C32.89 13.94 32.84 13.85 32.79 13.75C32.75 13.69 32.72 13.64 32.68 13.58C32.64 13.53 32.61 13.47 32.57 13.42C32.51 13.35 32.46 13.28 32.4 13.21C32.36 13.15 32.31 13.1 32.26 13.04C32.23 13.02 32.18 12.97 32.16 12.94C32.14 12.91 32.09 12.86 32.07 12.83C31.87 12.64 31.66 12.47 31.43 12.31C31.28 12.21 31.12 12.12 30.97 12.04C30.47 11.81 29.93 11.63 29.37 11.59C29.36 11.59 29.35 11.58 29.34 11.57C29.24 11.57 29.14 11.56 29.04 11.56C28.75 11.55 28.46 11.55 28.18 11.61C28.18 11.6 28.17 11.59 28.17 11.58C27.96 11.63 27.74 11.68 27.53 11.71C27.48 11.73 27.38 11.76 27.34 11.77C27.17 11.86 26.99 11.92 26.81 11.99C26.71 12.08 26.61 12.13 26.52 12.17ZM18.39 31.67C18.39 31.82 18.39 31.96 18.39 32.11C18.39 32.14 18.4 32.21 18.4 32.25C18.39 32.39 18.38 32.52 18.4 32.66C18.58 32.68 18.77 32.67 18.95 32.66C19.26 32.66 19.57 32.67 19.87 32.65C19.94 32.65 20.01 32.65 20.08 32.65C20.23 32.65 20.38 32.65 20.53 32.65C20.86 32.65 21.19 32.64 21.51 32.64C21.88 32.64 22.26 32.63 22.63 32.64C22.72 32.64 22.8 32.64 22.89 32.64C23.04 32.63 23.19 32.63 23.35 32.64C23.42 32.64 23.48 32.64 23.55 32.64C23.7 32.64 23.86 32.64 24.01 32.64C24.16 32.64 24.32 32.64 24.47 32.64C24.62 32.64 24.77 32.64 24.93 32.64C28.26 32.62 31.59 32.63 34.92 32.6C35 32.6 35.09 32.6 35.18 32.6C35.4 32.6 35.62 32.6 35.84 32.6C35.99 32.6 36.15 32.6 36.3 32.6C36.45 32.6 36.61 32.6 36.76 32.6C36.84 32.6 36.93 32.59 37.01 32.59C37.08 32.59 37.15 32.59 37.21 32.59C37.53 32.59 37.86 32.59 38.18 32.59C38.31 32.58 38.45 32.58 38.58 32.58C38.73 32.58 38.88 32.58 39.04 32.57C39.14 32.58 39.24 32.59 39.33 32.6C39.36 32.26 39.34 31.91 39.33 31.57C39.09 31.59 38.85 31.58 38.62 31.58C38.4 31.58 38.18 31.58 37.96 31.58C35.07 31.6 32.18 31.58 29.29 31.61C28.92 31.61 28.54 31.6 28.17 31.61C28.02 31.61 27.86 31.61 27.71 31.6C27.63 31.6 27.54 31.61 27.46 31.61C27.39 31.61 27.32 31.61 27.25 31.61C27.1 31.61 26.95 31.61 26.79 31.61C26.72 31.61 26.65 31.61 26.59 31.61C26.51 31.61 26.42 31.61 26.34 31.61C26.27 31.61 26.2 31.61 26.14 31.61C26.05 31.61 25.97 31.61 25.88 31.61C25.81 31.61 25.74 31.61 25.68 31.62C25.57 31.62 25.47 31.61 25.36 31.61C25.33 31.62 25.26 31.63 25.22 31.63C25.11 31.62 25.01 31.62 24.9 31.61C24.87 31.61 24.8 31.62 24.77 31.62C24.59 31.61 24.42 31.62 24.25 31.61C24.1 31.62 23.94 31.62 23.79 31.62C23.64 31.62 23.48 31.62 23.33 31.61C23.3 31.61 23.23 31.62 23.19 31.62C23.08 31.62 22.98 31.62 22.87 31.62C22.8 31.62 22.74 31.62 22.67 31.62C22.52 31.62 22.36 31.62 22.21 31.62C22.06 31.62 21.91 31.62 21.75 31.63C21.6 31.63 21.45 31.63 21.3 31.63C20.32 31.67 19.35 31.66 18.39 31.67Z" fill="#316FEA" stroke="#316FEA" stroke-width="0.25" stroke-miterlimit="10"/>
<path d="M30.82 23.07H26.78C26.36 23.07 26.03 22.73 26.03 22.32C26.03 21.91 26.37 21.57 26.78 21.57H30.82C31.24 21.57 31.57 21.91 31.57 22.32C31.57 22.73 31.24 23.07 30.82 23.07Z" fill="#316FEA" stroke="#316FEA" stroke-width="0.25" stroke-miterlimit="10"/>
</g>
<defs>
<clipPath id="clip0">
<rect width="57.72" height="48.28" fill="white"/>
</clipPath>
</defs>
</svg>
