<svg width="54" height="54" viewBox="0 0 54 54" fill="none" xmlns="http://www.w3.org/2000/svg">
<path d="M50.317 46.459C52.3473 46.459 54 44.8073 54 42.776V5.27344C54 2.36566 51.6343 0 48.7266 0H5.27344C2.36566 0 0 2.36566 0 5.27344V42.776C0 44.8063 1.65164 46.459 3.68297 46.459H4.85156V51.8906H1.05469C0.4725 51.8906 0 52.3631 0 52.9453C0 53.5275 0.4725 54 1.05469 54H52.9453C53.5275 54 54 53.5275 54 52.9453C54 52.3631 53.5275 51.8906 52.9453 51.8906H49.1484V46.459H50.317ZM2.10938 5.27344C2.10938 3.52898 3.52898 2.10938 5.27344 2.10938H48.7266C50.471 2.10938 51.8906 3.52898 51.8906 5.27344V7.59375H2.21484C2.17898 7.59375 2.14418 7.59586 2.10938 7.59902V5.27344ZM11.6016 51.8906H6.96094V42.3984H11.6016V51.8906ZM23.4141 51.8906H18.7734V30.7368H23.4141V51.8906ZM35.2266 51.8906H30.5859V39.6562H35.2266V51.8906ZM48.0938 27.0527H41.3438C40.7616 27.0527 40.2891 27.5252 40.2891 28.1074V33.4336C40.2891 34.0158 40.7616 34.4883 41.3438 34.4883C41.9259 34.4883 42.3984 34.0158 42.3984 33.4336V29.1621H47.0391V51.8906H42.3984V40.5264C42.3984 39.9442 41.9259 39.4717 41.3438 39.4717C40.7616 39.4717 40.2891 39.9442 40.2891 40.5264V51.8906H37.3359V38.6016C37.3359 38.0194 36.8634 37.5469 36.2812 37.5469H29.5312C28.9491 37.5469 28.4766 38.0194 28.4766 38.6016V51.8906H25.5234V29.6821C25.5234 29.0999 25.0509 28.6274 24.4688 28.6274H17.7188C17.1366 28.6274 16.6641 29.0999 16.6641 29.6821V51.8906H13.7109V41.3438C13.7109 40.7616 13.2384 40.2891 12.6562 40.2891H5.90625C5.32406 40.2891 4.85156 40.7616 4.85156 41.3438V44.3496H3.68297C2.81496 44.3496 2.10938 43.644 2.10938 42.776V9.69785C2.14418 9.70102 2.18004 9.70312 2.21484 9.70312H51.8906V42.776C51.8906 43.644 51.185 44.3496 50.317 44.3496H49.1484V28.1074C49.1484 27.5252 48.6759 27.0527 48.0938 27.0527Z" fill="#316FEA"/>
<path d="M47.25 3.79688H23.4214C22.8393 3.79688 22.3668 4.26937 22.3668 4.85156C22.3668 5.43375 22.8393 5.90625 23.4214 5.90625H47.25C47.8322 5.90625 48.3047 5.43375 48.3047 4.85156C48.3047 4.26937 47.8322 3.79688 47.25 3.79688Z" fill="#316FEA"/>
<path d="M11.7144 4.1059C11.5182 3.90973 11.2461 3.79688 10.9688 3.79688C10.6914 3.79688 10.4193 3.90973 10.2231 4.1059C10.0269 4.30207 9.91406 4.57418 9.91406 4.85156C9.91406 5.12895 10.0269 5.40105 10.2231 5.59723C10.4193 5.7934 10.6914 5.90625 10.9688 5.90625C11.2461 5.90625 11.5182 5.7934 11.7144 5.59723C11.9106 5.40105 12.0234 5.12895 12.0234 4.85156C12.0234 4.57418 11.9106 4.30207 11.7144 4.1059Z" fill="#316FEA"/>
<path d="M7.49566 4.1059C7.29949 3.90973 7.02738 3.79688 6.75 3.79688C6.47262 3.79688 6.20051 3.90973 6.00434 4.1059C5.80816 4.30207 5.69531 4.57418 5.69531 4.85156C5.69531 5.12895 5.80816 5.40105 6.00434 5.59723C6.20051 5.7934 6.47262 5.90625 6.75 5.90625C7.02738 5.90625 7.29949 5.7934 7.49566 5.59723C7.69184 5.40105 7.80469 5.12895 7.80469 4.85156C7.80469 4.57418 7.69184 4.30207 7.49566 4.1059Z" fill="#316FEA"/>
<path d="M15.9332 4.1059C15.737 3.90973 15.4659 3.79688 15.1875 3.79688C14.9101 3.79688 14.638 3.90973 14.4418 4.1059C14.2457 4.30207 14.1328 4.57418 14.1328 4.85156C14.1328 5.12895 14.2457 5.40105 14.4418 5.59723C14.638 5.7934 14.9101 5.90625 15.1875 5.90625C15.4649 5.90625 15.737 5.7934 15.9332 5.59723C16.1293 5.40105 16.2422 5.12895 16.2422 4.85156C16.2422 4.57418 16.1293 4.30207 15.9332 4.1059Z" fill="#316FEA"/>
<path d="M42.0894 36.4468C41.8932 36.2496 41.6211 36.1378 41.3438 36.1378C41.0664 36.1378 40.7943 36.2496 40.5981 36.4468C40.4019 36.643 40.2891 36.9151 40.2891 37.1925C40.2891 37.4699 40.4019 37.742 40.5981 37.9382C40.7943 38.1343 41.0664 38.2472 41.3438 38.2472C41.6211 38.2472 41.8932 38.1343 42.0894 37.9382C42.2856 37.742 42.3984 37.4699 42.3984 37.1925C42.3984 36.9141 42.2856 36.643 42.0894 36.4468Z" fill="#316FEA"/>
<path d="M44.7187 14.3374C42.6252 14.3374 40.9219 16.0407 40.9219 18.1343C40.9219 18.9654 41.1908 19.7353 41.6464 20.3618L34.6401 27.3681C34.097 27.0675 33.4715 26.8956 32.8071 26.8956C32.2091 26.8956 31.6417 27.0359 31.1386 27.2827L23.8233 19.9673C24.1239 19.4242 24.2958 18.7987 24.2958 18.1343C24.2958 16.0407 22.5925 14.3374 20.4989 14.3374C18.4053 14.3374 16.702 16.0407 16.702 18.1343C16.702 18.8662 16.9109 19.5497 17.2705 20.1298L11.0426 26.3577C10.4994 26.0571 9.87398 25.8852 9.21058 25.8852C7.11703 25.8852 5.41371 27.5885 5.41371 29.6821C5.41371 31.7756 7.11703 33.4789 9.21058 33.4789C11.3041 33.4789 13.0075 31.7756 13.0075 29.6821C13.0075 29.0176 12.8355 28.3932 12.535 27.849L18.8378 21.5462C19.3398 21.7919 19.9041 21.9301 20.5 21.9301C21.1644 21.9301 21.7888 21.7582 22.3319 21.4576L29.5755 28.7012C29.218 29.2802 29.0113 29.9616 29.0113 30.6903C29.0113 32.7839 30.7146 34.4872 32.8082 34.4872C34.9017 34.4872 36.605 32.7839 36.605 30.6903C36.605 30.0259 36.4331 29.4015 36.1325 28.8573L43.3265 21.6633C43.7579 21.8341 44.2283 21.9291 44.7198 21.9291C46.8133 21.9291 48.5167 20.2257 48.5167 18.1322C48.5156 16.0407 46.8123 14.3374 44.7187 14.3374ZM9.21164 31.3696C8.28141 31.3696 7.52414 30.6123 7.52414 29.6821C7.52414 28.7518 8.28141 27.9946 9.21164 27.9946C10.1419 27.9946 10.8991 28.7518 10.8991 29.6821C10.8991 30.6123 10.1419 31.3696 9.21164 31.3696ZM20.5 19.8218C19.5697 19.8218 18.8125 19.0645 18.8125 18.1343C18.8125 17.2041 19.5697 16.4468 20.5 16.4468C21.4302 16.4468 22.1875 17.2041 22.1875 18.1343C22.1875 19.0645 21.4302 19.8218 20.5 19.8218ZM32.8082 32.3789C31.8779 32.3789 31.1207 31.6216 31.1207 30.6914C31.1207 29.7612 31.8779 29.0039 32.8082 29.0039C33.7384 29.0039 34.4957 29.7612 34.4957 30.6914C34.4957 31.6216 33.7384 32.3789 32.8082 32.3789ZM44.7187 19.8218C43.7885 19.8218 43.0312 19.0645 43.0312 18.1343C43.0312 17.2041 43.7885 16.4468 44.7187 16.4468C45.649 16.4468 46.4062 17.2041 46.4062 18.1343C46.4062 19.0645 45.649 19.8218 44.7187 19.8218Z" fill="#316FEA"/>
<path d="M15.6442 13.6002C15.447 13.404 15.1759 13.2912 14.8985 13.2912C14.6201 13.2912 14.348 13.404 14.1518 13.6002C13.9556 13.7964 13.8438 14.0685 13.8438 14.3459C13.8438 14.6232 13.9556 14.8953 14.1518 15.0915C14.349 15.2877 14.6201 15.4005 14.8985 15.4005C15.1759 15.4005 15.447 15.2877 15.6442 15.0915C15.8404 14.8953 15.9532 14.6232 15.9532 14.3459C15.9532 14.0685 15.8404 13.7964 15.6442 13.6002Z" fill="#316FEA"/>
<path d="M10.9688 13.2912H5.90625C5.32406 13.2912 4.85156 13.7637 4.85156 14.3459C4.85156 14.928 5.32406 15.4005 5.90625 15.4005H10.9688C11.5509 15.4005 12.0234 14.928 12.0234 14.3459C12.0234 13.7637 11.5509 13.2912 10.9688 13.2912Z" fill="#316FEA"/>
<path d="M10.9688 18.3537H5.90625C5.32406 18.3537 4.85156 18.8262 4.85156 19.4084C4.85156 19.9905 5.32406 20.463 5.90625 20.463H10.9688C11.5509 20.463 12.0234 19.9905 12.0234 19.4084C12.0234 18.8262 11.5509 18.3537 10.9688 18.3537Z" fill="#316FEA"/>
</svg>
