<svg id="Layer_1" data-name="Layer 1" xmlns="http://www.w3.org/2000/svg" viewBox="0 0 44.04 47.9"><defs><style>.cls-1,.cls-2{fill:#316fea;}.cls-1{stroke:#316fea;stroke-miterlimit:10;stroke-width:0.5px;}</style></defs><title>notifications</title><path class="cls-1" d="M33,34.22V44.7a3.36,3.36,0,0,1-3.12,3.56H12.15A3.36,3.36,0,0,1,9,44.7V6a3.37,3.37,0,0,1,3.12-3.56H29.86A3.37,3.37,0,0,1,33,6V17.49a2.82,2.82,0,0,1,.68-.32V6a4.11,4.11,0,0,0-3.8-4.34H12.15A4.11,4.11,0,0,0,8.35,6V44.7A4.11,4.11,0,0,0,12.15,49H29.86a4.11,4.11,0,0,0,3.8-4.34V34.33A2.61,2.61,0,0,1,33,34.22Z" transform="translate(-8.1 -1.39)"/><path class="cls-1" d="M33,34.22v7H9V8.61H33v8.88a2.82,2.82,0,0,1,.68-.32v-9a.36.36,0,0,0-.34-.38H8.69a.36.36,0,0,0-.34.38V41.6a.37.37,0,0,0,.34.39H33.32a.37.37,0,0,0,.34-.39V34.33A2.61,2.61,0,0,1,33,34.22Z" transform="translate(-8.1 -1.39)"/><path class="cls-1" d="M21,47.29A2.18,2.18,0,0,1,21,43a2.19,2.19,0,0,1,0,4.33Zm0-3.55a1.4,1.4,0,1,0,1.21,1.39A1.31,1.31,0,0,0,21,43.74Z" transform="translate(-8.1 -1.39)"/><path class="cls-1" d="M23.48,5.52H18.53a.36.36,0,0,1-.34-.39.37.37,0,0,1,.34-.39h4.95a.37.37,0,0,1,.34.39A.36.36,0,0,1,23.48,5.52Z" transform="translate(-8.1 -1.39)"/><path class="cls-2" d="M51.58,34.81H29a.56.56,0,0,1-.55-.56V21.31a.56.56,0,0,1,1.11,0V33.69H51V21.31a.55.55,0,0,1,.56-.55.54.54,0,0,1,.55.55V34.25A.55.55,0,0,1,51.58,34.81Z" transform="translate(-8.1 -1.39)"/><path class="cls-2" d="M40.33,30.81a.55.55,0,0,1-.35-.12L28.69,21.75A.56.56,0,0,1,28.6,21a.54.54,0,0,1,.78-.09l10.94,8.67,10.91-8.67a.55.55,0,1,1,.69.86l-11.25,9A.54.54,0,0,1,40.33,30.81Z" transform="translate(-8.1 -1.39)"/><path class="cls-2" d="M51.58,34.81h0L29,34.79a.56.56,0,0,1-.52-.37.55.55,0,0,1,.17-.61l8-6.62a.55.55,0,1,1,.71.85l-6.79,5.64H50L43.2,28.13a.56.56,0,0,1-.08-.78.55.55,0,0,1,.78-.08l8,6.55a.56.56,0,0,1-.35,1Z" transform="translate(-8.1 -1.39)"/><path class="cls-2" d="M51.58,21.87a.53.53,0,0,1-.35-.13L40.32,13.08,29.38,21.75a.56.56,0,0,1-.69-.87L40,11.94a.56.56,0,0,1,.69,0l11.25,8.94a.56.56,0,0,1,.09.78A.58.58,0,0,1,51.58,21.87Z" transform="translate(-8.1 -1.39)"/><path class="cls-2" d="M43.69,19.72H35.44a.56.56,0,0,1-.55-.56.55.55,0,0,1,.55-.55h8.25a.55.55,0,0,1,.56.55A.56.56,0,0,1,43.69,19.72Z" transform="translate(-8.1 -1.39)"/><path class="cls-2" d="M40.8,22.13H35.44a.56.56,0,0,1,0-1.11H40.8a.56.56,0,0,1,0,1.11Z" transform="translate(-8.1 -1.39)"/><path class="cls-2" d="M43.69,24.42h-6a.56.56,0,0,1,0-1.12h6a.56.56,0,1,1,0,1.12Z" transform="translate(-8.1 -1.39)"/></svg>