<svg id="Layer_1" data-name="Layer 1" xmlns="http://www.w3.org/2000/svg" viewBox="0 0 46.62 47.01"><defs><style>.cls-1{fill:#316fea;stroke:#316fea;stroke-miterlimit:10;stroke-width:0.5px;}</style></defs><title>presets</title><path class="cls-1" d="M31.71,48.41H28.83a.39.39,0,0,1-.38-.33l-.79-5.27a16,16,0,0,1-2.57-.69L21.77,46.3a.37.37,0,0,1-.49.09L18.78,45a.4.4,0,0,1-.16-.48l1.95-5a15.81,15.81,0,0,1-1.87-1.88l-5,1.95a.39.39,0,0,1-.47-.16l-1.44-2.5a.4.4,0,0,1,.09-.49l4.18-3.32a15.61,15.61,0,0,1-.68-2.56l-5.28-.79a.39.39,0,0,1-.33-.38V27.94a.38.38,0,1,1,.76,0v1.11l5.23.78a.38.38,0,0,1,.32.32,14.62,14.62,0,0,0,.79,3,.39.39,0,0,1-.12.44l-4.13,3.29,1.11,1.92,4.92-1.93a.38.38,0,0,1,.44.11,14.23,14.23,0,0,0,2.16,2.16.39.39,0,0,1,.11.44l-1.93,4.92,1.93,1.11,3.29-4.13a.38.38,0,0,1,.43-.12,14.93,14.93,0,0,0,2.95.79.36.36,0,0,1,.32.32l.79,5.22h2.22l.78-5.22a.38.38,0,0,1,.32-.32,14.93,14.93,0,0,0,3-.79.37.37,0,0,1,.43.12l3.3,4.13,1.93-1.11-1.94-4.92a.39.39,0,0,1,.12-.44,14.17,14.17,0,0,0,2.15-2.16.39.39,0,0,1,.44-.11l4.92,1.93,1.12-1.92-4.14-3.3a.39.39,0,0,1-.12-.44,13.75,13.75,0,0,0,.79-2.94.38.38,0,0,1,.32-.32L50,29.05V27.94a.38.38,0,1,1,.76,0v1.44a.38.38,0,0,1-.32.37l-5.28.8a14.7,14.7,0,0,1-.69,2.56l4.18,3.32a.37.37,0,0,1,.09.49l-1.44,2.5a.39.39,0,0,1-.47.16l-5-1.95A15.18,15.18,0,0,1,40,39.51l2,5a.39.39,0,0,1-.17.48l-2.49,1.44a.37.37,0,0,1-.49-.09l-3.33-4.18a16.12,16.12,0,0,1-2.56.69l-.79,5.27A.39.39,0,0,1,31.71,48.41ZM30.27,35.69a7.77,7.77,0,0,1-7.76-7.75.38.38,0,1,1,.76,0,7,7,0,0,0,14,0,.38.38,0,0,1,.38-.39.39.39,0,0,1,.39.39A7.77,7.77,0,0,1,30.27,35.69Z" transform="translate(-6.96 -1.65)"/><path class="cls-1" d="M52.94,25.34H17.16a.39.39,0,0,1,0-.77H52.94a.39.39,0,1,1,0,.77Zm-39.56,0H7.59a.39.39,0,0,1,0-.77h5.79a.39.39,0,1,1,0,.77Z" transform="translate(-6.96 -1.65)"/><path class="cls-1" d="M15.27,27.23A2.28,2.28,0,1,1,17.55,25,2.27,2.27,0,0,1,15.27,27.23Zm0-3.78A1.51,1.51,0,1,0,16.78,25,1.5,1.5,0,0,0,15.27,23.45Z" transform="translate(-6.96 -1.65)"/><path class="cls-1" d="M52.94,18.41H25.61a.39.39,0,0,1-.38-.39.38.38,0,0,1,.38-.38H52.94a.39.39,0,0,1,.39.38A.4.4,0,0,1,52.94,18.41Zm-31.11,0H7.59A.39.39,0,0,1,7.21,18a.38.38,0,0,1,.38-.38H21.83a.38.38,0,0,1,.38.38A.39.39,0,0,1,21.83,18.41Z" transform="translate(-6.96 -1.65)"/><path class="cls-1" d="M23.72,20.3A2.27,2.27,0,1,1,26,18,2.28,2.28,0,0,1,23.72,20.3Zm0-3.78A1.51,1.51,0,1,0,25.23,18,1.51,1.51,0,0,0,23.72,16.52Z" transform="translate(-6.96 -1.65)"/><path class="cls-1" d="M52.94,11.48H39.64a.38.38,0,0,1-.38-.38.39.39,0,0,1,.38-.39h13.3a.4.4,0,0,1,.39.39A.39.39,0,0,1,52.94,11.48Zm-17.08,0H7.59a.38.38,0,0,1-.38-.38.39.39,0,0,1,.38-.39H35.86a.39.39,0,0,1,.38.39A.38.38,0,0,1,35.86,11.48Z" transform="translate(-6.96 -1.65)"/><path class="cls-1" d="M37.75,13.37A2.28,2.28,0,1,1,40,11.1,2.27,2.27,0,0,1,37.75,13.37Zm0-3.78a1.51,1.51,0,1,0,1.51,1.51A1.52,1.52,0,0,0,37.75,9.59Z" transform="translate(-6.96 -1.65)"/><path class="cls-1" d="M52.94,4.55H27.62a.39.39,0,0,1,0-.77H52.94a.39.39,0,1,1,0,.77Zm-29.1,0H7.59a.39.39,0,0,1,0-.77H23.84a.39.39,0,0,1,0,.77Z" transform="translate(-6.96 -1.65)"/><path class="cls-1" d="M25.73,6.44A2.27,2.27,0,1,1,28,4.16,2.28,2.28,0,0,1,25.73,6.44Zm0-3.78a1.51,1.51,0,1,0,1.51,1.5A1.51,1.51,0,0,0,25.73,2.66Z" transform="translate(-6.96 -1.65)"/></svg>