<svg id="Layer_1" data-name="Layer 1" xmlns="http://www.w3.org/2000/svg" viewBox="0 0 57.47 48.03"><defs><style>.cls-1{fill:#316fea;}</style></defs><title>preview_images</title><path class="cls-1" d="M57.94,49.33H1.77a.65.65,0,0,1-.65-.65V2a.65.65,0,0,1,.65-.65H57.94a.65.65,0,0,1,.65.65V48.68A.65.65,0,0,1,57.94,49.33ZM2.42,48H57.29V2.6H2.42Z" transform="translate(-1.12 -1.3)"/><path class="cls-1" d="M57.94,33.17a.65.65,0,0,1-.39-.13L44.29,23.15,34,31.59a.65.65,0,0,1-.82-1l10.7-8.76a.65.65,0,0,1,.8,0L58.33,32a.65.65,0,0,1-.39,1.17Z" transform="translate(-1.12 -1.3)"/><path class="cls-1" d="M1.77,40.61a.63.63,0,0,1-.5-.24.64.64,0,0,1,.09-.91l21-17.38a.63.63,0,0,1,.81,0L41.31,36.35a.65.65,0,1,1-.8,1L22.78,23.42l-20.59,17A.68.68,0,0,1,1.77,40.61Z" transform="translate(-1.12 -1.3)"/><path class="cls-1" d="M35.94,19.86A4.87,4.87,0,1,1,40.81,15,4.88,4.88,0,0,1,35.94,19.86Zm0-8.44A3.57,3.57,0,1,0,39.51,15,3.58,3.58,0,0,0,35.94,11.42Z" transform="translate(-1.12 -1.3)"/></svg>