<svg id="Layer_1" data-name="Layer 1" xmlns="http://www.w3.org/2000/svg" viewBox="0 0 57.47 48.03"><defs><style>.cls-1{fill:#316fea;}</style></defs><title>ratio</title><path class="cls-1" d="M58.43,49H2.26a.65.65,0,0,1-.65-.65V1.6A.66.66,0,0,1,2.26,1H58.43a.66.66,0,0,1,.65.65V48.34A.66.66,0,0,1,58.43,49ZM2.91,47.69H57.78V2.26H2.91Z" transform="translate(-1.61 -0.95)"/><path class="cls-1" d="M20.36,20.83l-2.24,1.61V21.31l2.33-1.68h1.13v10H20.36Z" transform="translate(-1.61 -0.95)"/><path class="cls-1" d="M24.09,25.22V25c0-3.6,1.62-5.48,3.92-5.48a2.71,2.71,0,0,1,2.92,2.43H29.77a1.66,1.66,0,0,0-1.85-1.43c-1.51,0-2.57,1.36-2.63,4a2.93,2.93,0,0,1,2.58-1.36,3.16,3.16,0,0,1,3.28,3.28,3.21,3.21,0,0,1-3.46,3.35C25,29.77,24.09,27.72,24.09,25.22Zm5.81,1.26a2.27,2.27,0,1,0-4.53-.17,2.24,2.24,0,0,0,2.32,2.51A2.16,2.16,0,0,0,29.9,26.48Z" transform="translate(-1.61 -0.95)"/><path class="cls-1" d="M32.92,24.66a.9.9,0,1,1,1.79,0,.9.9,0,0,1-1.79,0Zm0,4.16a.9.9,0,1,1,1.79,0,.9.9,0,0,1-1.79,0Z" transform="translate(-1.61 -0.95)"/><path class="cls-1" d="M36.63,27.18h1.18a1.84,1.84,0,0,0,2.07,1.58c1.6,0,2.53-1.32,2.56-4a2.9,2.9,0,0,1-2.59,1.33,3.15,3.15,0,0,1-3.29-3.27A3.2,3.2,0,0,1,40,19.49c2.37,0,3.6,1.59,3.6,4.48v.63c0,3.32-1.37,5.16-3.77,5.16A3,3,0,0,1,36.63,27.18ZM42.33,23A2.27,2.27,0,0,0,40,20.44a2.15,2.15,0,0,0-2.21,2.34A2.16,2.16,0,0,0,40,25.16,2.13,2.13,0,0,0,42.33,23Z" transform="translate(-1.61 -0.95)"/><path class="cls-1" d="M10.22,15H8.89V9.9a2,2,0,0,1,2-2H16V9.24H10.88a.65.65,0,0,0-.66.66Z" transform="translate(-1.61 -0.95)"/><path class="cls-1" d="M51.79,14.32H50.46V9.24a.66.66,0,0,0-.66-.67H44.72V7.25H49.8a2,2,0,0,1,2,2Z" transform="translate(-1.61 -0.95)"/><path class="cls-1" d="M16,42H10.88a2,2,0,0,1-2-2V35h1.33V40a.66.66,0,0,0,.66.67H16Z" transform="translate(-1.61 -0.95)"/><path class="cls-1" d="M49.8,42.7H44.72V41.37H49.8a.66.66,0,0,0,.66-.66V35.62h1.33v5.09A2,2,0,0,1,49.8,42.7Z" transform="translate(-1.61 -0.95)"/></svg>