<svg id="Layer_1" data-name="Layer 1" xmlns="http://www.w3.org/2000/svg" viewBox="0 0 57.47 48.03"><defs><style>.cls-1{fill:#316fea;}</style></defs><title>resolution</title><path class="cls-1" d="M58.43,49H2.26a.65.65,0,0,1-.65-.65V1.59A.65.65,0,0,1,2.26.94H58.43a.66.66,0,0,1,.65.65V48.32A.66.66,0,0,1,58.43,49ZM2.91,47.67H57.78V2.24H2.91Z" transform="translate(-1.61 -0.94)"/><path class="cls-1" d="M23,25v-.24c0-3.6,1.62-5.48,3.92-5.48a2.72,2.72,0,0,1,2.93,2.43H28.71a1.66,1.66,0,0,0-1.85-1.43c-1.52,0-2.58,1.36-2.64,4a2.93,2.93,0,0,1,2.58-1.36,3.16,3.16,0,0,1,3.28,3.28,3.21,3.21,0,0,1-3.46,3.35C23.89,29.56,23,27.51,23,25Zm5.81,1.26a2.26,2.26,0,1,0-4.52-.17,2.23,2.23,0,0,0,2.31,2.51A2.15,2.15,0,0,0,28.83,26.27Z" transform="translate(-1.61 -0.94)"/><path class="cls-1" d="M32.11,19.42h1.21v4.82l4.36-4.84H39l-4.45,4.88,4.67,5.15H37.79l-4.47-4.89v4.89H32.11Z" transform="translate(-1.61 -0.94)"/></svg>