<svg id="Layer_1" data-name="Layer 1" xmlns="http://www.w3.org/2000/svg" viewBox="0 0 45.06 48.82"><defs><style>.cls-1{fill:#316fea;}.cls-2{fill:none;stroke:#316fea;stroke-linecap:round;stroke-linejoin:round;stroke-width:1.5px;}</style></defs><title>rotate</title><path class="cls-1" d="M27.31,33.34a1.14,1.14,0,0,1-1.16-1.12V21.14A1.17,1.17,0,0,1,28,20.25l7.84,5.54a1.08,1.08,0,0,1,.48.89,1.1,1.1,0,0,1-.48.9L28,33.12A1.2,1.2,0,0,1,27.31,33.34Zm.27-11.64v10l7.05-5Z" transform="translate(-7.71 -0.34)"/><circle class="cls-2" cx="22.53" cy="26.21" r="13.97"/><path class="cls-2" d="M30.24,4.85A21.79,21.79,0,1,1,19.49,7.69" transform="translate(-7.71 -0.34)"/><polyline class="cls-2" points="26.03 0.75 22.53 4.51 26.03 8.24"/></svg>