<svg id="Layer_1" data-name="Layer 1" xmlns="http://www.w3.org/2000/svg" viewBox="0 0 58.08 46.58"><defs><style>.cls-1,.cls-2{fill:#316fea;}.cls-2{stroke:#316fea;stroke-miterlimit:10;stroke-width:0.5px;}</style></defs><title>S3</title><path class="cls-1" d="M30,41c-.3,0-.55-.18-.55-.4V36.94c0-.22.25-.4.55-.4s.56.18.56.4v3.68C30.51,40.84,30.26,41,30,41ZM30,23.28a.62.62,0,0,1-.62-.62V17.12A.62.62,0,0,1,30,16.5a.61.61,0,0,1,.61.62v5.54A.61.61,0,0,1,30,23.28Z" transform="translate(-0.99 -1.98)"/><path class="cls-1" d="M48.93,44.77H33.64a.63.63,0,0,1,0-1.25H48.93a.63.63,0,0,1,0,1.25Zm-22.86,0H10.71a.63.63,0,0,1,0-1.25H26.07a.63.63,0,0,1,0,1.25Z" transform="translate(-0.99 -1.98)"/><path class="cls-2" d="M29.92,48.31a4.06,4.06,0,1,1,4-4.06A4,4,0,0,1,29.92,48.31Zm0-7.47a3.41,3.41,0,1,0,3.32,3.41A3.36,3.36,0,0,0,29.92,40.84Z" transform="translate(-0.99 -1.98)"/><path class="cls-1" d="M57,17.75H3.19A2.17,2.17,0,0,1,1,15.57V4.15A2.21,2.21,0,0,1,3.19,2H57a2.14,2.14,0,0,1,2.12,2.17V15.57A2.1,2.1,0,0,1,57,17.75ZM3.19,3.23a1,1,0,0,0-1,.92V15.57a.94.94,0,0,0,1,.93H57a.87.87,0,0,0,.89-.93V4.15A.92.92,0,0,0,57,3.23Z" transform="translate(-0.99 -1.98)"/><path class="cls-1" d="M50.14,12a2.08,2.08,0,0,1-2-2.1,2.09,2.09,0,1,1,2,2.1Zm0-3a.86.86,0,0,0-.82.92.84.84,0,0,0,.82.85A.85.85,0,0,0,51,9.9.87.87,0,0,0,50.14,9Z" transform="translate(-0.99 -1.98)"/><path class="cls-1" d="M45.18,12a2.08,2.08,0,0,1-2-2.1,2.05,2.05,0,1,1,4.1,0A2.08,2.08,0,0,1,45.18,12Zm0-3a.87.87,0,0,0-.82.92.85.85,0,0,0,.82.85A.83.83,0,0,0,46,9.9.86.86,0,0,0,45.18,9Z" transform="translate(-0.99 -1.98)"/><path class="cls-1" d="M40.23,12a2.08,2.08,0,0,1-2-2.1,2.05,2.05,0,1,1,4.1,0A2.08,2.08,0,0,1,40.23,12Zm0-3a.86.86,0,0,0-.82.92.82.82,0,1,0,1.64,0A.86.86,0,0,0,40.23,9Z" transform="translate(-0.99 -1.98)"/><path class="cls-1" d="M57,37.79H3.19A2.16,2.16,0,0,1,1,35.62V24.27A2.23,2.23,0,0,1,3.19,22H57a2.16,2.16,0,0,1,2.12,2.24V35.62A2.1,2.1,0,0,1,57,37.79ZM3.19,23.28a1,1,0,0,0-1,1V35.62a.94.94,0,0,0,1,.92H57a.86.86,0,0,0,.89-.92V24.27a.94.94,0,0,0-.89-1Z" transform="translate(-0.99 -1.98)"/><path class="cls-1" d="M50.14,32.05a2.08,2.08,0,0,1-2-2.1,2.09,2.09,0,1,1,4.17,0A2.09,2.09,0,0,1,50.14,32.05Zm0-3a.91.91,0,0,0-.82.92.84.84,0,0,0,.82.85A.85.85,0,0,0,51,30,.92.92,0,0,0,50.14,29Z" transform="translate(-0.99 -1.98)"/><path class="cls-1" d="M45.18,32.05a2.08,2.08,0,0,1-2-2.1,2.05,2.05,0,1,1,4.1,0A2.08,2.08,0,0,1,45.18,32.05Zm0-3a.91.91,0,0,0-.82.92.85.85,0,0,0,.82.85A.83.83,0,0,0,46,30,.91.91,0,0,0,45.18,29Z" transform="translate(-0.99 -1.98)"/><path class="cls-1" d="M40.23,32.05a2.08,2.08,0,0,1-2-2.1,2.05,2.05,0,1,1,4.1,0A2.08,2.08,0,0,1,40.23,32.05Zm0-3a.91.91,0,0,0-.82.92.82.82,0,1,0,1.64,0A.91.91,0,0,0,40.23,29Z" transform="translate(-0.99 -1.98)"/><path class="cls-1" d="M10.29,10.53H8.21a.63.63,0,0,1,0-1.25h2.08a.63.63,0,0,1,0,1.25Z" transform="translate(-0.99 -1.98)"/><path class="cls-1" d="M13.88,10.53H11.8a.63.63,0,0,1,0-1.25h2.08a.63.63,0,0,1,0,1.25Z" transform="translate(-0.99 -1.98)"/><path class="cls-1" d="M17.47,10.53H15.39a.63.63,0,0,1,0-1.25h2.08a.63.63,0,0,1,0,1.25Z" transform="translate(-0.99 -1.98)"/><path class="cls-1" d="M10.29,30.58H8.21a.63.63,0,0,1,0-1.25h2.08a.63.63,0,0,1,0,1.25Z" transform="translate(-0.99 -1.98)"/><path class="cls-1" d="M13.88,30.58H11.8a.63.63,0,0,1,0-1.25h2.08a.63.63,0,0,1,0,1.25Z" transform="translate(-0.99 -1.98)"/><path class="cls-1" d="M17.47,30.58H15.39a.63.63,0,0,1,0-1.25h2.08a.63.63,0,0,1,0,1.25Z" transform="translate(-0.99 -1.98)"/></svg>