<svg id="Layer_1" data-name="Layer 1" xmlns="http://www.w3.org/2000/svg" viewBox="0 0 57.47 48.03"><defs><style>.cls-1{fill:#316fea;}</style></defs><title>video_stitching</title><path class="cls-1" d="M58.2,49H2a.65.65,0,0,1-.65-.65V1.62A.66.66,0,0,1,2,1H58.2a.66.66,0,0,1,.65.65V48.36A.66.66,0,0,1,58.2,49ZM2.68,47.71H57.55V2.28H2.68Z" transform="translate(-1.38 -0.97)"/><path class="cls-1" d="M34.48,40.92c0-.12,0-.23,0-.34l-1-9.2v-6.9a.56.56,0,0,0-.55-.56H27a.55.55,0,0,0-.55.56v8.8a.54.54,0,0,0,0,.22l-.73,7.08c0,.11,0,.22,0,.34A3.24,3.24,0,0,0,29,44.15h2.26A3.24,3.24,0,0,0,34.48,40.92ZM29,43a2.12,2.12,0,0,1-2.12-2.12,1.77,1.77,0,0,1,0-.23l.7-6.85.06-.56.06-.56.3-3a2.15,2.15,0,0,1,.66-1.33v2.13a.55.55,0,0,0,.55.55H31a.55.55,0,0,0,.55-.55V28.42a2.15,2.15,0,0,1,.66,1.33l.17,1.69.19,1.84.06.56.7,6.85a1.79,1.79,0,0,1,0,.23A2.13,2.13,0,0,1,31.24,43ZM27.56,25H32.4v2.64a3.32,3.32,0,0,0-.83-.6V26a.55.55,0,0,0-.55-.55H29.2a.55.55,0,0,0-.55.55v1.07a3.17,3.17,0,0,0-1.09.9Zm2.9,2.84V30h-.7V26.56h.7v1.31Z" transform="translate(-1.38 -0.97)"/><path class="cls-1" d="M32.33,40.07a2.22,2.22,0,1,0-2.22,2.23A2.22,2.22,0,0,0,32.33,40.07Zm-3.33,0a1.11,1.11,0,1,1,1.11,1.11A1.11,1.11,0,0,1,29,40.07Z" transform="translate(-1.38 -0.97)"/><path class="cls-1" d="M30.14,22.56V21a.54.54,0,0,0,.22,0h2.57a.56.56,0,0,0,.56-.55V18.88a.56.56,0,0,0-.56-.56H30.36a.54.54,0,0,0-.22.05V16.7a.51.51,0,0,0,.22.05h2.57a.56.56,0,0,0,.56-.55V14.61a.56.56,0,0,0-.56-.56H30.36a.54.54,0,0,0-.22,0V12.51a.28.28,0,0,0,0-.09.59.59,0,0,0,.23.05h2.57a.56.56,0,0,0,.56-.56V10.33a.56.56,0,0,0-.56-.56H30.36a.78.78,0,0,0-.22,0V8.23a.19.19,0,0,0,0-.08.59.59,0,0,0,.23,0h2.57a.55.55,0,0,0,.56-.55V6.05a.56.56,0,0,0-.56-.56H30.36a.54.54,0,0,0-.22,0V4a.28.28,0,0,0,0-.09.59.59,0,0,0,.23.05h2.57a.56.56,0,0,0,.56-.56V1.81a.56.56,0,0,0-.56-.56H30.36a.55.55,0,0,0-.55.56V3.48a.54.54,0,0,0-.22,0H27a.56.56,0,0,0-.56.56V5.58a.55.55,0,0,0,.56.55h2.57a.57.57,0,0,0,.22,0V7.73a.54.54,0,0,0-.22-.05H27a.56.56,0,0,0-.56.55V9.82a.56.56,0,0,0,.56.56h2.57a.59.59,0,0,0,.22-.05V12a.54.54,0,0,0-.22-.05H27a.56.56,0,0,0-.56.56V14.1a.55.55,0,0,0,.56.55h2.57a.57.57,0,0,0,.22,0v1.66a.54.54,0,0,0-.22-.05H27a.56.56,0,0,0-.56.56v1.59a.55.55,0,0,0,.56.55h2.57a.57.57,0,0,0,.22,0v1.59a.59.59,0,0,0-.22,0H27a.56.56,0,0,0-.56.56v1.58a.56.56,0,0,0,.56.56h2.57A.56.56,0,0,0,30.14,22.56Zm.78-19.72V2.36h1.46v.48Zm0,4.24V6.61h1.46v.47ZM27.57,5V4.55H29V5Zm3.35,6.34v-.48h1.46v.48ZM27.57,9.27V8.79H29v.48Zm3.35,6.37v-.48h1.46v.48Zm-3.35-2.1v-.47H29v.47Zm0,8.47v-.48H29V22Zm4.81-2.58v.48H30.92v-.48Zm-4.81-1.62v-.47H29v.47Z" transform="translate(-1.38 -0.97)"/></svg>