<svg id="Layer_1" data-name="Layer 1" xmlns="http://www.w3.org/2000/svg" viewBox="0 0 57.47 48.03"><defs><style>.cls-1,.cls-2{fill:#316fea;}.cls-2,.cls-3{stroke:#316fea;stroke-linecap:round;stroke-linejoin:round;stroke-width:1.3px;}.cls-3{fill:none;}</style></defs><title>subtitles</title><path class="cls-1" d="M58.65,49.2H2.48a.65.65,0,0,1-.65-.65V1.82a.65.65,0,0,1,.65-.65H58.65a.65.65,0,0,1,.65.65V48.55A.65.65,0,0,1,58.65,49.2ZM3.13,47.9H58V2.47H3.13Z" transform="translate(-1.83 -1.17)"/><path class="cls-1" d="M43.72,36.32H24.33a.65.65,0,0,1,0-1.3H43.72a.65.65,0,0,1,0,1.3Z" transform="translate(-1.83 -1.17)"/><line class="cls-2" x1="20.12" y1="34.55" x2="14.94" y2="34.55"/><path class="cls-1" d="M17.4,44H36.79a.65.65,0,0,0,0-1.3H17.4a.65.65,0,0,0,0,1.3Z" transform="translate(-1.83 -1.17)"/><line class="cls-2" x1="37.35" y1="42.25" x2="42.53" y2="42.25"/><line class="cls-2" x1="13.32" y1="38.34" x2="26.07" y2="38.34"/><line class="cls-2" x1="38.15" y1="38.37" x2="34.69" y2="38.37"/><line class="cls-2" x1="44.15" y1="38.37" x2="40.69" y2="38.37"/><line class="cls-2" x1="32.15" y1="38.37" x2="28.69" y2="38.37"/><rect class="cls-3" x="17.27" y="13" width="22.93" height="11.64"/><rect class="cls-3" x="45.98" y="13" width="10.5" height="11.64"/><rect class="cls-3" x="0.98" y="13" width="10.5" height="11.64"/></svg>