<svg id="Layer_1" data-name="Layer 1" xmlns="http://www.w3.org/2000/svg" viewBox="0 0 57.47 48.03"><defs><style>.cls-1,.cls-3{fill:#316fea;}.cls-2{fill:#fff;}.cls-2,.cls-3{stroke:#316fea;stroke-linecap:round;stroke-linejoin:round;stroke-width:1.3px;}</style></defs><title>thumbnails</title><path class="cls-1" d="M58.3,49.2H2.13a.65.65,0,0,1-.65-.65V1.82a.65.65,0,0,1,.65-.65H58.3a.66.66,0,0,1,.65.65V48.55A.66.66,0,0,1,58.3,49.2ZM2.78,47.9H57.65V2.47H2.78Z" transform="translate(-1.48 -1.17)"/><rect class="cls-2" x="39.09" y="6.78" width="12.3" height="8.4"/><rect class="cls-2" x="22.09" y="6.78" width="12.3" height="8.4"/><rect class="cls-2" x="39.09" y="19.78" width="12.3" height="8.4"/><rect class="cls-2" x="22.09" y="19.78" width="12.3" height="8.4"/><rect class="cls-2" x="39.09" y="32.78" width="12.3" height="8.4"/><rect class="cls-2" x="22.09" y="32.78" width="12.3" height="8.4"/><line class="cls-3" x1="5.32" y1="7.65" x2="15.91" y2="7.65"/><line class="cls-3" x1="5.32" y1="10.65" x2="15.91" y2="10.65"/><line class="cls-3" x1="5.32" y1="13.65" x2="15.91" y2="13.65"/><line class="cls-3" x1="5.25" y1="16.71" x2="10.39" y2="16.71"/></svg>