<svg id="Layer_1" data-name="Layer 1" xmlns="http://www.w3.org/2000/svg" viewBox="0 0 58.1 41.57"><defs><style>.cls-1,.cls-2{fill:#316fea;}.cls-1{stroke:#316fea;stroke-miterlimit:10;stroke-width:0.25px;}.cls-2{font-size:14px;font-family:Graphik-Regular, Graphik;}</style></defs><title>vr</title><path class="cls-1" d="M14.9,3.91c4.18-.44,8.38-.63,12.58-.74,2.68,0,5.36,0,8,.08a124.64,124.64,0,0,1,14,1.22A34.28,34.28,0,0,1,56,6a6.69,6.69,0,0,1,2.51,1.53A1.88,1.88,0,0,1,59,9V39.55a2,2,0,0,1-.75,1.51,9.43,9.43,0,0,1-3.15,1.54,53.42,53.42,0,0,1-10,1.83,3.57,3.57,0,0,1-.46,0,.62.62,0,0,1-.5-.63V36q-6-.57-12.07-.62A144.26,144.26,0,0,0,15,36.15c-.05,2.56,0,5.13,0,7.7a.53.53,0,0,1-.64.5,66.38,66.38,0,0,1-7-1.13A20.27,20.27,0,0,1,3,41.8a4.18,4.18,0,0,1-1.54-1.18,1.74,1.74,0,0,1-.28-1.07v-31a2.12,2.12,0,0,1,1-1.54A13,13,0,0,1,6.34,5.33,61.88,61.88,0,0,1,14.9,3.91M27,4.26c-3.34,0-6.68.21-10,.51A78.83,78.83,0,0,0,7.18,6.22,22.31,22.31,0,0,0,3.62,7.35,2.29,2.29,0,0,0,2.17,8.7a2.92,2.92,0,0,0,1.1.9,15.7,15.7,0,0,0,2.9,1.05,59.58,59.58,0,0,0,8.3,1.47.52.52,0,0,1,.49.51c0,4.73,0,9.46,0,14.2,0,2.74,0,5.48,0,8.22A153.26,153.26,0,0,1,44.19,35V12.89a.6.6,0,0,1,.51-.66c1.92-.22,3.85-.45,5.75-.8a31.45,31.45,0,0,0,5.4-1.38,5.77,5.77,0,0,0,1.77-1c.22-.19.41-.54.2-.81a3.46,3.46,0,0,0-1.75-1.14,35.63,35.63,0,0,0-6.52-1.58A130.22,130.22,0,0,0,29.63,4.22c-.89,0-1.78,0-2.67,0M52.65,12.1a70.37,70.37,0,0,1-7.36,1.15V43.32c1.88-.21,3.77-.45,5.63-.8A28.58,28.58,0,0,0,56.3,41,4.3,4.3,0,0,0,57.89,40q0-14.88,0-29.76a17.91,17.91,0,0,1-5.23,1.89M2.24,10.74V39.07a4.45,4.45,0,0,0,0,.73,1.37,1.37,0,0,0,.71.79A12.61,12.61,0,0,0,5.75,41.7a54.67,54.67,0,0,0,8.13,1.52V13.14a63,63,0,0,1-7-1.18,23.87,23.87,0,0,1-4.68-1.71Z" transform="translate(-1.04 -3.02)"/><text class="cls-2" transform="translate(20.07 21.25)">VR</text></svg>