<svg id="Layer_1" data-name="Layer 1" xmlns="http://www.w3.org/2000/svg" viewBox="0 0 57.47 48.03"><defs><style>.cls-1{fill:#316fea;}</style></defs><title>watermarking</title><path class="cls-1" d="M58.66,49H2.49a.65.65,0,0,1-.65-.65V1.63A.65.65,0,0,1,2.49,1H58.66a.65.65,0,0,1,.65.65V48.36A.65.65,0,0,1,58.66,49ZM3.14,47.71H58V2.28H3.14Z" transform="translate(-1.84 -0.98)"/><path class="cls-1" d="M2.88,47.75a.73.73,0,0,0,1-.1l9.75-9.74a.74.74,0,0,0,.1-1,.73.73,0,0,0-1,.1L3,46.73A.74.74,0,0,0,2.88,47.75Z" transform="translate(-1.84 -0.98)"/><path class="cls-1" d="M58.33,47.75a.73.73,0,0,1-1-.1l-9.74-9.74a.74.74,0,0,1-.1-1,.73.73,0,0,1,1,.1l9.74,9.74A.73.73,0,0,1,58.33,47.75Z" transform="translate(-1.84 -0.98)"/><path class="cls-1" d="M58.33,2.42a.73.73,0,0,0-1,.1l-9.74,9.74a.74.74,0,0,0-.1,1,.73.73,0,0,0,1-.1l9.74-9.74A.73.73,0,0,0,58.33,2.42Z" transform="translate(-1.84 -0.98)"/><path class="cls-1" d="M2.88,2.42a.73.73,0,0,1,1,.1l9.75,9.74a.74.74,0,0,1,.1,1,.73.73,0,0,1-1-.1L3,3.44A.74.74,0,0,1,2.88,2.42Z" transform="translate(-1.84 -0.98)"/><path class="cls-1" d="M27.25,12.14a5.69,5.69,0,0,1,7.6,1,6.09,6.09,0,0,1,1.38,5.06,7.9,7.9,0,0,1-.27.95,4.47,4.47,0,0,1-.48.92,15.79,15.79,0,0,0-1.74,3.72,2.72,2.72,0,0,0,.08,2.08,1.78,1.78,0,0,0,1.67.58h3a5.41,5.41,0,0,1,4.16,2.24l.12.17.1.16.14.22c.06.11.1.21.15.32h0c.05.15.11.3.16.46a3.49,3.49,0,0,1,.25.73h0a1.51,1.51,0,0,1,.09.47c0,.11,0,.21,0,.32a.81.81,0,0,1-.22.75l-.19.1-.14.07v0a3.85,3.85,0,0,1-.48,0,1,1,0,0,1-.24,0c0,.58,0,1.17,0,1.75a.66.66,0,0,1-.66.61c-.94,0-1.88,0-2.82,0H36.35l-.42,0v0l-.16,0H32.48c-3.33,0-6.66,0-10,0H20.2a2.66,2.66,0,0,0-.49,0v0l-.16,0h-.21a.68.68,0,0,1-.55-.65c0-.56,0-1.13,0-1.69-.35,0-.75.11-1.05-.13a.74.74,0,0,1-.26-.73,5.52,5.52,0,0,1,5.12-5.15H26A1.52,1.52,0,0,0,27.19,26a1.42,1.42,0,0,0,.29-.65,2.11,2.11,0,0,1,0-.25,1.48,1.48,0,0,1,0-.21,1.11,1.11,0,0,1,0-.19A5.34,5.34,0,0,0,27,23c-.06-.17-.12-.34-.17-.51h0a2.05,2.05,0,0,0-.18-.43l-.13-.3c-.07-.11-.12-.23-.19-.34l-.11-.26h0a3.13,3.13,0,0,0-.15-.32l-.13-.23-.14-.22c-.12-.21-.24-.41-.37-.61l-.16-.29a10,10,0,0,1-.41-1.2c0-.38-.11-.76-.14-1.14,0-.11,0-.22,0-.32a4.89,4.89,0,0,1,0-.54,6.93,6.93,0,0,1,.34-1.43,5.84,5.84,0,0,1,2-2.58l.21-.15m1,.88a5.59,5.59,0,0,0-.61.44l-.15.14-.16.15-.3.34a4.92,4.92,0,0,0-1,2.7c0,.06,0,.13,0,.19a3.81,3.81,0,0,0,0,.59,4.16,4.16,0,0,0,.36,1.2c0,.09.08.18.11.27h0a2.73,2.73,0,0,0,.27.47l.11.17.13.22c.14.27.28.54.43.8s.34.73.52,1.09A10.28,10.28,0,0,1,28.83,25c0,.2,0,.4,0,.6a2.39,2.39,0,0,1-.75,1.57l-.37.28-.27.1v0l-.72.21v0l-.44.1v0l-.28,0h-2A7.69,7.69,0,0,0,21.5,28a3.51,3.51,0,0,0-1.27.66,4.78,4.78,0,0,0-.59.6,4,4,0,0,0-.8,1.87c3.18,0,6.36,0,9.55,0H30c.16,0,.31,0,.47,0h1.11l.29,0v0l.15,0h2.82l6.77,0a4.57,4.57,0,0,0,.74,0,4.11,4.11,0,0,0-.94-2,4,4,0,0,0-2.86-1.29c-1.17,0-2.33,0-3.5,0a3.16,3.16,0,0,1-2-.69l-.15-.16c-.1-.12-.18-.25-.27-.38a4.67,4.67,0,0,1-.3-1c0-.2,0-.39,0-.58l0-.22,0,0c0-.1,0-.19,0-.28v-.06c0-.1,0-.19,0-.29a1.42,1.42,0,0,1,0-.2,16.56,16.56,0,0,1,2.07-4.77,4.29,4.29,0,0,0,.37-.85c.06-.22.11-.43.15-.64a.59.59,0,0,1,0-.14c0-.19,0-.37,0-.55a3.91,3.91,0,0,0-.05-.48h0a2.36,2.36,0,0,1-.1-.53,9.18,9.18,0,0,0-.34-1c-.06-.09-.11-.18-.16-.27s-.07-.12-.11-.17l-.1-.17-.17-.2a1.15,1.15,0,0,0-.14-.17.47.47,0,0,0-.1-.1l-.09-.11a8.22,8.22,0,0,0-.65-.52l-.46-.27a4.66,4.66,0,0,0-1.6-.45h0l-.3,0a3.15,3.15,0,0,0-.86.06v0a3.63,3.63,0,0,1-.64.13l-.2.06a4.77,4.77,0,0,1-.52.22l-.28.14M20.1,32.52V33a.66.66,0,0,0,0,.14,1.87,1.87,0,0,0,0,.41,5,5,0,0,0,.55,0h1.13c.15,0,.3,0,.45,0h4.4c3.33,0,6.66,0,10,0h4.13l.29,0a8.68,8.68,0,0,0,0-1c-.24,0-.47,0-.71,0h-.66c-2.89,0-5.78,0-8.67,0H27.39l-.32,0-.13,0H20.1Z" transform="translate(-1.84 -0.98)"/><path class="cls-1" d="M32.54,23.92h-4a.75.75,0,0,1,0-1.5h4a.75.75,0,0,1,0,1.5Z" transform="translate(-1.84 -0.98)"/></svg>