<?xml version="1.0" encoding="utf-8"?>
<!-- Generator: Adobe Illustrator 23.0.1, SVG Export Plug-In . SVG Version: 6.00 Build 0)  -->
<svg version="1.1" id="Layer_1" xmlns="http://www.w3.org/2000/svg" xmlns:xlink="http://www.w3.org/1999/xlink" x="0px" y="0px"
	 viewBox="0 0 237.8 160.9" style="enable-background:new 0 0 237.8 160.9;" xml:space="preserve">
<style type="text/css">
	.st0{fill:#43AA82;}
	.st1{fill:url(#SVGID_1_);}
	.st2{fill:#59CE99;}
	.st3{fill:none;stroke:url(#SVGID_2_);stroke-miterlimit:10;}
</style>
<title>speed</title>
<g>
	<g>
		<path class="st0" d="M152.2,62l9.9,30.2c0.7,2.1,3.3,2.9,5.1,1.5l29.5-24.3c0,0-31.3-12.2-31.3-11.6S152.2,62,152.2,62z"/>
		<linearGradient id="SVGID_1_" gradientUnits="userSpaceOnUse" x1="122.8368" y1="52.8249" x2="234.6622" y2="52.8249">
			<stop  offset="0.137" style="stop-color:#9FEFCF"/>
			<stop  offset="0.7363" style="stop-color:#59E3AD"/>
		</linearGradient>
		<path class="st1" d="M230,4c-19.3,7.6-81.4,33.1-104.9,42.7c-3.1,1.3-2.9,5.7,0.3,6.7l26.9,8.6l9.8,30.1c0.4,1.2,1.4,2,2.5,2.2
			c0.9,0.2,2.2-24.4,2.2-24.4s28.2,20.9,41.6,30.8c3.3,2.4,8,0.6,8.8-3.4c4-20.6,14-72,17.4-89.6C235.1,5.2,232.5,3,230,4z"/>
		<path class="st2" d="M164.6,94.3c0.9,0.2,2.2-24.4,2.2-24.4l46.4-43.6c0.3-0.3-0.1-0.8-0.4-0.6L152.2,62l9.8,30.1
			C162.4,93.4,163.4,94.1,164.6,94.3z"/>
	</g>
	<linearGradient id="SVGID_2_" gradientUnits="userSpaceOnUse" x1="3.823" y1="104.9683" x2="156.6424" y2="104.9683">
		<stop  offset="0.137" style="stop-color:#9FEFCF"/>
		<stop  offset="0.7363" style="stop-color:#59E3AD"/>
	</linearGradient>
	<path class="st3" d="M3.8,153.5c31.9-0.1,74.2-18.1,82.7-52.6c3.4-13.9,0.4-28.8-10.7-39c-13.9-12.8-29.3-1.1-25.5,16.8
		c6.2,29.4,42.1,51.2,69.5,51.6c15.8,0.2,30.6-7.4,36.3-22.9"/>
</g>
</svg>
