<?xml version="1.0" encoding="utf-8"?>
<!-- Generator: Adobe Illustrator 24.0.0, SVG Export Plug-In . SVG Version: 6.00 Build 0)  -->
<svg version="1.1" id="Layer_1" xmlns="http://www.w3.org/2000/svg" xmlns:xlink="http://www.w3.org/1999/xlink" x="0px" y="0px"
	 viewBox="0 0 36 32" style="enable-background:new 0 0 36 32;" xml:space="preserve">
<style type="text/css">
	.st0{fill:#ffffff;}
</style>
<title>cc</title>
<path class="st0" d="M0,48V0"/>
<path class="st0" d="M32,0H4C1.8,0,0,1.8,0,4v24c0,2.2,1.8,4,4,4h28c2.2,0,4-1.8,4-4V4C36,1.8,34.2,0,32,0z M16,14h-3v-1H9v6h4v-1h3
	v2c0,1.1-0.9,2-2,2H8c-1.1,0-2-0.9-2-2v-8c0-1.1,0.9-2,2-2h6c1.1,0,2,0.9,2,2V14z M30,14h-3v-1h-4v6h4v-1h3v2c0,1.1-0.9,2-2,2h-6
	c-1.1,0-2-0.9-2-2v-8c0-1.1,0.9-2,2-2h6c1.1,0,2,0.9,2,2V14z"/>
</svg>
