<svg id="Capa_1" data-name="Capa 1" xmlns="http://www.w3.org/2000/svg" viewBox="0 0 356 356"><defs><style>.cls-1{fill:#ffffff;}</style></defs><title>exit_fullscreen</title><g id="fullscreen_exit_alt"><polygon class="cls-1" points="251.27 282.73 324.54 356 356 324.54 282.73 251.27 311.5 222.5 222.5 222.5 222.5 311.5 251.27 282.73"/><polygon class="cls-1" points="72.83 104.25 44.5 133.5 133.07 133.02 133.5 44.5 104.3 72.79 31.46 0 0 31.46 72.83 104.25"/><polygon class="cls-1" points="0 324.54 31.46 356 104.73 282.73 133.5 311.5 133.5 222.5 44.5 222.5 73.27 251.27 0 324.54"/><polygon class="cls-1" points="311.85 133.5 283 104.62 356 31.57 324.45 0 251.4 73.05 222.5 44.18 222.5 133.5 311.85 133.5"/></g></svg>