<svg id="Capa_1" data-name="Capa 1" xmlns="http://www.w3.org/2000/svg" viewBox="0 0 480 448.02"><defs><style>.cls-1{fill:#ffffff}</style></defs><title>Artboard 4</title><path class="cls-1" d="M278.94,1.54A15.93,15.93,0,0,0,262,3.46L106.37,128H32A32.06,32.06,0,0,0,0,160V288a32,32,0,0,0,32,32h74.37L262,444.48A16,16,0,0,0,288,432V16A16,16,0,0,0,278.94,1.54Z"/><path class="cls-1" d="M472.46,161.19a20.42,20.42,0,0,0-28.63,0l-34.12,34.12-34.13-34.12A20.24,20.24,0,1,0,346,188.79c.33.35.67.7,1,1l34.13,34.12L347,258.05a20.35,20.35,0,1,0,28.45,29.1c.16-.15.32-.31.47-.47L410,252.57l34.12,34.13A20.35,20.35,0,1,0,473.89,259c-.28-.31-.58-.61-.89-.9l-34.7-34.13,34.13-34.12A20.43,20.43,0,0,0,472.46,161.19Z"/></svg>