<svg id="Isolation_Mode" data-name="Isolation Mode" xmlns="http://www.w3.org/2000/svg" viewBox="0 0 52.56 69.18"><defs><style>.cls-1{fill:#316fea;}</style></defs><title>api</title><path class="cls-1" d="M665.8,732.82H639.58a.65.65,0,0,1-.65-.65V671.33a.65.65,0,0,1,.65-.65h33.26a.64.64,0,0,1,.46.19L684.4,682a.64.64,0,0,1,.19.46v35.65a.65.65,0,0,1-1.3,0V682.68L672.58,672H640.23v59.54H665.8a.65.65,0,0,1,0,1.3Z" transform="translate(-638.93 -670.68)"/><path class="cls-1" d="M684,683.07H672.84a.66.66,0,0,1-.65-.65V671.33a.65.65,0,0,1,.41-.6.63.63,0,0,1,.7.14l11,11a.65.65,0,0,1-.35,1.2Zm-10.46-1.31h8.87l-8.87-8.86Z" transform="translate(-638.93 -670.68)"/><path class="cls-1" d="M677.75,735.93a10.37,10.37,0,1,1,10.37-10.37A10.38,10.38,0,0,1,677.75,735.93Zm0-19.43a9.07,9.07,0,1,0,9.06,9.06A9.07,9.07,0,0,0,677.75,716.5Z" transform="translate(-638.93 -670.68)"/><path class="cls-1" d="M680.27,716.83a.52.52,0,0,1-.17,0,8.92,8.92,0,0,0-4.7,0,.62.62,0,0,1-.57-.11.65.65,0,0,1-.26-.52v-4.27a.65.65,0,0,1,.65-.65h5a.65.65,0,0,1,.65.65v4.27a.64.64,0,0,1-.65.65Zm-4.4-4.27v2.81a10.28,10.28,0,0,1,3.75,0v-2.81Z" transform="translate(-638.93 -670.68)"/><path class="cls-1" d="M687.14,723.71a.53.53,0,0,1-.25-.05.65.65,0,0,1-.38-.43,9.06,9.06,0,0,0-.91-2.2,9.22,9.22,0,0,0-1.45-1.89.63.63,0,0,1-.18-.54.62.62,0,0,1,.32-.48L688,716a.64.64,0,0,1,.88.24l2.53,4.38a.65.65,0,0,1-.24.88l-3.7,2.13A.62.62,0,0,1,687.14,723.71Zm-1.5-4.87a11,11,0,0,1,1.09,1.54,11.94,11.94,0,0,1,.79,1.71l2.43-1.4-1.88-3.25Z" transform="translate(-638.93 -670.68)"/><path class="cls-1" d="M688.31,735.23a.62.62,0,0,1-.32-.09l-3.7-2.13a.61.61,0,0,1-.32-.47.64.64,0,0,1,.18-.55,9.22,9.22,0,0,0,1.45-1.89,9.06,9.06,0,0,0,.91-2.2.65.65,0,0,1,.38-.44.64.64,0,0,1,.57,0l3.7,2.14a.65.65,0,0,1,.24.89l-2.53,4.38A.66.66,0,0,1,688.31,735.23Zm-2.67-2.94,2.43,1.4,1.88-3.25L687.52,729a10.64,10.64,0,0,1-.79,1.72A11,11,0,0,1,685.64,732.29Z" transform="translate(-638.93 -670.68)"/><path class="cls-1" d="M680.27,739.86h-5a.65.65,0,0,1-.65-.65V735a.64.64,0,0,1,.26-.51.63.63,0,0,1,.56-.12,9.21,9.21,0,0,0,4.72,0,.65.65,0,0,1,.81.63v4.26A.65.65,0,0,1,680.27,739.86Zm-4.4-1.3h3.75v-2.8a10.74,10.74,0,0,1-3.75,0Z" transform="translate(-638.93 -670.68)"/><path class="cls-1" d="M667.19,735.23a.66.66,0,0,1-.56-.32l-2.53-4.38a.62.62,0,0,1-.06-.5.65.65,0,0,1,.3-.39l3.7-2.13a.64.64,0,0,1,.57,0,.65.65,0,0,1,.38.43,9.2,9.2,0,0,0,.91,2.2,8.8,8.8,0,0,0,1.45,1.89.65.65,0,0,1,.18.55.61.61,0,0,1-.32.47l-3.7,2.13A.62.62,0,0,1,667.19,735.23Zm-1.64-4.79,1.88,3.25,2.43-1.4a10.23,10.23,0,0,1-1.09-1.54A11,11,0,0,1,668,729Z" transform="translate(-638.93 -670.68)"/><path class="cls-1" d="M668.36,723.71a.62.62,0,0,1-.32-.09l-3.7-2.13a.65.65,0,0,1-.24-.88l2.53-4.38a.64.64,0,0,1,.88-.24l3.7,2.13a.62.62,0,0,1,.32.48.63.63,0,0,1-.18.54A9.14,9.14,0,0,0,669.9,721a9.38,9.38,0,0,0-.91,2.2.63.63,0,0,1-.38.43A.53.53,0,0,1,668.36,723.71Zm-2.81-3,2.43,1.4a10.31,10.31,0,0,1,1.88-3.25l-2.43-1.4Z" transform="translate(-638.93 -670.68)"/><path class="cls-1" d="M677.75,731.07a5.51,5.51,0,1,1,5.51-5.51A5.51,5.51,0,0,1,677.75,731.07Zm0-9.71a4.21,4.21,0,1,0,4.21,4.2A4.21,4.21,0,0,0,677.75,721.36Z" transform="translate(-638.93 -670.68)"/><path class="cls-1" d="M653.66,697.12a.67.67,0,0,1-.5-.23l-4.09-4.84a.65.65,0,0,1,0-.82l3.84-4.82a.64.64,0,0,1,.91-.1.65.65,0,0,1,.11.91l-3.51,4.4,3.75,4.43a.65.65,0,0,1-.08.91A.61.61,0,0,1,653.66,697.12Z" transform="translate(-638.93 -670.68)"/><path class="cls-1" d="M664,697.12a.61.61,0,0,1-.42-.16.64.64,0,0,1-.08-.91l3.75-4.43-3.51-4.4a.65.65,0,0,1,.11-.91.64.64,0,0,1,.91.1l3.84,4.82a.65.65,0,0,1,0,.82l-4.1,4.84A.64.64,0,0,1,664,697.12Z" transform="translate(-638.93 -670.68)"/><path class="cls-1" d="M656.34,696.42a.62.62,0,0,1-.32-.09.64.64,0,0,1-.23-.89l5.37-9.13a.64.64,0,0,1,.89-.23.65.65,0,0,1,.23.89l-5.37,9.13A.65.65,0,0,1,656.34,696.42Z" transform="translate(-638.93 -670.68)"/><path class="cls-1" d="M666,709.21H644.47a.66.66,0,0,1,0-1.31H666a.66.66,0,0,1,0,1.31Z" transform="translate(-638.93 -670.68)"/><path class="cls-1" d="M666,714.07H644.47a.65.65,0,0,1,0-1.3H666a.65.65,0,1,1,0,1.3Z" transform="translate(-638.93 -670.68)"/><path class="cls-1" d="M649.91,718.92h-5.44a.65.65,0,0,1,0-1.3h5.44a.65.65,0,0,1,0,1.3Z" transform="translate(-638.93 -670.68)"/><path class="cls-1" d="M655,723.79h-10.5a.65.65,0,1,1,0-1.3H655a.65.65,0,1,1,0,1.3Z" transform="translate(-638.93 -670.68)"/><path class="cls-1" d="M658.41,718.92H653a.65.65,0,0,1,0-1.3h5.44a.65.65,0,0,1,0,1.3Z" transform="translate(-638.93 -670.68)"/></svg>