<?xml version="1.0" encoding="utf-8"?>
<!-- Generator: Adobe Illustrator 23.0.1, SVG Export Plug-In . SVG Version: 6.00 Build 0)  -->
<svg version="1.1" id="Layer_1" xmlns="http://www.w3.org/2000/svg" xmlns:xlink="http://www.w3.org/1999/xlink" x="0px" y="0px"
	 viewBox="0 0 185.2 68.7" style="enable-background:new 0 0 185.2 68.7;" xml:space="preserve">
<style type="text/css">
	.st0{fill:#316FEA;}
</style>
<g>
	<path class="st0" d="M35.5,11.9c-4.5,1.2-9.6,3.7-14.4,6.9l6.6,14.3h-4L18.1,21c-4.6,3.3-8.7,7.5-11.4,11.4
		c3.2,3.3,7.8,5.3,12.7,5.3h17.9V19.8C37.3,16.9,36.7,14.3,35.5,11.9 M15.3,6.3l4.6,9.9c4.8-2.9,10-4.9,14.9-5.6
		c-3.1-5.2-8.9-8.8-15.4-8.8c-9.9,0-17.9,8-17.9,17.9c0,3.7,1.1,7.2,3,10C5.2,22.4,8.1,12.2,12.9,7L15.3,6.3z M7.8,25.9
		c2.6-2.8,5.6-5.4,9-7.7l-3.4-7.3C10.9,14.1,8.9,20.1,7.8,25.9"/>
	<path class="st0" d="M62.8,37.8v-1.4c-2.1,1.1-4.5,1.6-6.7,1.6c-5,0-9.7-3.1-9.7-8.1v-0.8c0-4.2,3.7-7,8.7-7h7.7v-1.4
		c0-2.4-1-3.6-4.8-3.6c-3,0-6.2,0.6-9.1,1.6v-4.5c2.1-0.9,5.7-1.5,9-1.5c6,0,9.4,3,9.4,7.9v17h-4.5V37.8z M62.8,26.4h-7.6
		c-3.1,0-4.2,1.2-4.2,2.8V30c0,2.4,1.6,3.9,5,3.9c2.2,0,4.6-0.5,6.8-1.5V26.4z"/>
	<path class="st0" d="M80.3,38.1c-3.8,0-6.7-0.5-9.4-1.4v-4.4c3.1,1.1,6.2,1.5,9.3,1.5c4.9,0,5.1-1.5,5.1-2.6v-1
		c0-4.3-14.6-0.5-14.6-10v-0.6c0-4.4,3.7-6.8,8.6-6.8c3.6,0,6.5,0.5,8.9,1.6v4.3c-3.5-1.3-5.7-1.6-8.8-1.6c-3.2,0-4.1,1-4.1,2.5v1.1
		c0,4.9,14.6,0.7,14.6,9.5v1.1C90,35.2,87,38.1,80.3,38.1"/>
	<path class="st0" d="M103.8,38.3c-2.2,0-4-0.5-5.7-1.4v8.4h-4.6V13.1h4.6v1.3c2-1,4.1-1.5,6.6-1.5c5.1,0,9.4,3.2,9.4,9.1v6.2
		C114,35.1,109.7,38.3,103.8,38.3 M109.4,22.1c0-3.4-2-4.7-4.8-4.7c-2.5,0-4.3,0.4-6.6,1.3v13.9c1.5,0.6,4,1.4,5.7,1.4
		c3.8,0,5.7-1.4,5.7-5.6L109.4,22.1L109.4,22.1z"/>
	<path class="st0" d="M122,27.2v2c0,3.1,1.8,4.7,5.7,4.7c3.2,0,5.1-0.5,8.5-1.6v4.2c-2.3,1-5.2,1.5-8.5,1.5
		c-5.9,0-10.3-3.1-10.3-8.9v-7.4c0-5.6,3.3-8.6,9.3-8.6h3.6c4.3,0,7.6,3,7.6,7.1v7.1L122,27.2L122,27.2z M133.5,20.2
		c0-1.7-1.1-2.8-3-2.8h-3.6c-3.7,0-4.8,1.1-4.8,4.4v1.4h11.5L133.5,20.2L133.5,20.2z"/>
	<path class="st0" d="M159.5,19.7h-4.4c0.2-0.5,0.2-0.8,0.2-1.1c0-1-0.6-1.6-2.5-1.6c-2.5,0-4.2,1-6.3,1.8v18.9h-4.6V13.1h4.6v1.5
		c1.8-0.8,4.4-1.6,6.3-1.6c4.2,0,6.9,2.2,6.9,5.1C159.7,18.7,159.7,19.1,159.5,19.7"/>
	<path class="st0" d="M177,37.8v-1.4c-2.1,1.1-4.5,1.6-6.7,1.6c-5,0-9.7-3.1-9.7-8.1v-0.8c0-4.2,3.7-7,8.7-7h7.7v-1.4
		c0-2.4-1-3.6-4.8-3.6c-3,0-6.2,0.6-9.1,1.6v-4.5c2.1-0.9,5.7-1.5,9-1.5c6,0,9.4,3,9.4,7.9v17H177V37.8z M177,26.4h-7.6
		c-3.1,0-4.2,1.2-4.2,2.8V30c0,2.4,1.6,3.9,5,3.9c2.2,0,4.6-0.5,6.8-1.5L177,26.4L177,26.4z"/>
	<path class="st0" d="M47.3,61.4L47.3,61.4c0-1.7,1.5-2.7,3.6-2.7c1.2,0,1.9,0.2,2.7,0.4v-0.4c0-1.6-1-2.5-2.7-2.5
		c-1,0-1.8,0.3-2.6,0.6L48,56.1c0.9-0.4,1.8-0.7,2.9-0.7s2,0.3,2.6,0.9s0.8,1.3,0.8,2.3v5.1h-0.9v-1.4c-0.6,0.8-1.6,1.6-3.1,1.6
		C48.9,64,47.3,63.1,47.3,61.4 M53.6,60.7v-0.9c-0.7-0.2-1.6-0.4-2.8-0.4c-1.7,0-2.7,0.8-2.7,1.9l0,0c0,1.2,1.1,1.9,2.4,1.9
		C52.2,63.2,53.6,62.2,53.6,60.7"/>
	<path class="st0" d="M56.7,55.6h0.8v1.5c0.6-1,1.5-1.7,3-1.7c2.1,0,3.3,1.4,3.3,3.4v5H63v-4.9c0-1.7-1-2.8-2.6-2.8
		s-2.8,1.2-2.8,2.9v4.8h-0.8L56.7,55.6L56.7,55.6z"/>
	<rect x="71.7" y="52.5" class="st0" width="0.8" height="11.3"/>
	<path class="st0" d="M75.8,52.5h4.6c1.3,0,2.3,0.4,2.9,1c0.5,0.5,0.7,1.1,0.7,1.8l0,0c0,1.5-1,2.3-1.9,2.7c1.4,0.4,2.5,1.1,2.5,2.7
		l0,0c0,1.9-1.6,3.1-4,3.1h-4.9L75.8,52.5L75.8,52.5z M80.4,57.7c1.7,0,2.9-0.8,2.9-2.3l0,0c0-1.2-1-2.1-2.8-2.1h-3.8v4.4H80.4
		L80.4,57.7z M80.7,63c1.9,0,3.2-0.9,3.2-2.3l0,0c0-1.4-1.2-2.2-3.4-2.2h-3.8V63H80.7z"/>
	<polygon class="st0" points="87.4,52.5 88.2,52.5 92.8,59.2 97.3,52.5 98,52.5 98,63.8 97.2,63.8 97.2,54 92.8,60.5 92.7,60.5 
		88.2,54 88.2,63.8 87.4,63.8 	"/>
	<path class="st0" d="M99.8,55.1L99.8,55.1c0-1.4,1.2-2.6,2.6-2.6c1.4,0,2.6,1.2,2.6,2.6l0,0c0,1.4-1.2,2.6-2.6,2.6
		C100.9,57.6,99.8,56.5,99.8,55.1 M104.7,55L104.7,55c0-1.3-1-2.4-2.4-2.4s-2.4,1.1-2.4,2.4l0,0c0,1.3,1,2.4,2.4,2.4
		S104.7,56.4,104.7,55 M101.4,53.7h1.2c0.3,0,0.6,0.1,0.8,0.3c0.1,0.1,0.2,0.3,0.2,0.5l0,0c0,0.4-0.3,0.7-0.7,0.8l0.9,1.1h-0.4
		l-0.8-1l0,0h-0.8v1h-0.5L101.4,53.7L101.4,53.7z M102.5,55c0.4,0,0.7-0.2,0.7-0.5l0,0c0-0.3-0.2-0.5-0.6-0.5h-0.8v1H102.5L102.5,55
		z"/>
	<path class="st0" d="M110.5,59.7L110.5,59.7c0-2.3,1.8-4.3,4.2-4.3c1.6,0,2.5,0.7,3.3,1.5l-0.6,0.6c-0.7-0.7-1.5-1.4-2.7-1.4
		c-1.9,0-3.3,1.6-3.3,3.5l0,0c0,2,1.5,3.6,3.4,3.6c1.2,0,2-0.6,2.8-1.4l0.6,0.5c-0.8,1-1.8,1.6-3.4,1.6
		C112.3,64,110.5,62,110.5,59.7"/>
	<path class="st0" d="M119.6,59.7L119.6,59.7c0-2.3,1.8-4.3,4.2-4.3s4.2,2,4.2,4.2l0,0c0,2.3-1.8,4.3-4.2,4.3
		C121.4,64,119.6,62,119.6,59.7 M127.2,59.7L127.2,59.7c0-2-1.5-3.6-3.4-3.6c-2,0-3.4,1.6-3.4,3.5l0,0c0,2,1.5,3.6,3.4,3.6
		C125.8,63.2,127.2,61.7,127.2,59.7"/>
	<path class="st0" d="M130.4,55.6h0.8v1.5c0.5-0.8,1.3-1.6,2.7-1.6s2.3,0.8,2.8,1.8c0.5-0.9,1.4-1.8,3-1.8c2,0,3.2,1.4,3.2,3.4v5
		h-0.8V59c0-1.8-0.9-2.8-2.4-2.8c-1.4,0-2.6,1.1-2.6,2.9v4.8h-0.8V59c0-1.7-0.9-2.8-2.4-2.8s-2.6,1.3-2.6,3v4.7h-1L130.4,55.6
		L130.4,55.6z"/>
	<path class="st0" d="M145.5,55.6h0.8v1.8c0.7-1.1,1.8-2,3.4-2c2,0,4,1.6,4,4.2l0,0c0,2.7-2,4.3-4,4.3c-1.6,0-2.7-0.9-3.4-2v4.4
		h-0.8V55.6z M152.8,59.7L152.8,59.7c0-2.2-1.5-3.6-3.2-3.6s-3.4,1.4-3.4,3.5l0,0c0,2.1,1.6,3.5,3.4,3.5
		C151.4,63.2,152.8,61.9,152.8,59.7"/>
	<path class="st0" d="M155.4,61.4L155.4,61.4c0-1.7,1.5-2.7,3.6-2.7c1.2,0,1.9,0.2,2.7,0.4v-0.4c0-1.6-1-2.5-2.7-2.5
		c-1,0-1.8,0.3-2.6,0.6l-0.3-0.7c0.9-0.4,1.8-0.7,2.9-0.7s2,0.3,2.6,0.9s0.8,1.3,0.8,2.3v5.1h-0.9v-1.4c-0.6,0.8-1.6,1.6-3.1,1.6
		S155.4,63.1,155.4,61.4 M161.7,60.7v-0.9c-0.7-0.2-1.6-0.4-2.8-0.4c-1.7,0-2.7,0.8-2.7,1.9l0,0c0,1.2,1.1,1.9,2.4,1.9
		C160.3,63.2,161.7,62.2,161.7,60.7"/>
	<path class="st0" d="M165.3,55.6h0.8v1.5c0.6-1,1.5-1.7,3-1.7c2.1,0,3.3,1.4,3.3,3.4v5h-0.8v-4.9c0-1.7-1-2.8-2.6-2.8
		s-2.8,1.2-2.8,2.9v4.8h-0.9V55.6z"/>
	<path class="st0" d="M174.2,66.1l0.3-0.7c0.4,0.2,0.8,0.3,1.4,0.3c0.8,0,1.4-0.5,2-1.9l-3.9-8.2h0.9l3.4,7.3l3-7.3h0.9l-3.6,8.5
		c-0.7,1.7-1.6,2.3-2.7,2.3C175.2,66.4,174.8,66.3,174.2,66.1"/>
</g>
</svg>
