<svg id="Livello_8" data-name="Livello 8" xmlns="http://www.w3.org/2000/svg" viewBox="0 0 387.77 450.09"><defs><style>.cls-1{fill:#f9fafc;}</style></defs><title>b1</title><path class="cls-1" d="M253.22,100.85c-18.65,30.64-21.89,70.15-8.48,103.42C253.26,225.4,268,244,273.76,266c7.15,27.22-.24,56,1.38,84.11,3.1,54,41,102.48,89.65,126.15s106.13,24.7,158.52,11.22c21.79-5.6,43.25-13.76,61.36-27.13S617.36,428,622.31,406c6-26.58-2.42-54.05-10.73-80q-22.44-70.06-44.89-140.14c-7.64-23.82-15.63-48.31-31.75-67.44-14.81-17.57-35.39-29.25-56.31-38.75C422.52,54.19,346.48,27.53,289.82,63.74A116,116,0,0,0,253.22,100.85Z" transform="translate(-236.56 -46.08)"/></svg>