<svg id="Livello_8" data-name="Livello 8" xmlns="http://www.w3.org/2000/svg" viewBox="0 0 583.78 371.97"><defs><style>.cls-1{fill:#f9fafc;}</style></defs><title>b2</title><path class="cls-1" d="M256.52,79.45c-41.59,5-79.72,32.74-97.31,70.75s-14.06,85,9,120c21.76,32.94,58,53.58,95.16,67S339.6,358,376.75,371.32c37.67,13.51,72.88,32.94,109.41,49.25s75.32,29.69,115.33,29.94,81.67-14.35,106.62-45.62c29.26-36.68,30.24-90.83,9.89-133.1s-59-73.55-101.24-93.91c-44.29-21.33-93.53-34.43-142.16-40.55-49.73-6.26-93.07-31-139.9-46.92C309.6,81.88,283.12,76.24,256.52,79.45Z" transform="translate(-148.11 -78.54)"/></svg>