<svg id="Livello_8" data-name="Livello 8" xmlns="http://www.w3.org/2000/svg" viewBox="0 0 514.92 357.84"><defs><style>.cls-1{fill:#f9fafc;}</style></defs><title>b3</title><path class="cls-1" d="M403.22,127.38a94.6,94.6,0,0,0-23.35,1.34c-28,5.27-51,24.78-77.52,35.07-44,17.06-102,9.1-133.39,51.3-21.06,28.32-17.39,69.6.82,99.84s48.28,51.29,79,68.57c41.15,23.12,84.93,41.05,129.13,57.37,36.61,13.51,73.23,28.43,111.32,37.34,34.83,8.14,72,10.38,105.88-1.12s63.78-38.58,72-73.45c4.73-20.18,2.06-41.57-4.44-61.26-13.42-40.65-41.88-73.82-70.47-104.7a406.11,406.11,0,0,0-99.94-78.26C466.09,144.81,434.47,129.31,403.22,127.38Z" transform="translate(-154.6 -127.18)"/></svg>