<svg id="Isolation_Mode" data-name="Isolation Mode" xmlns="http://www.w3.org/2000/svg" viewBox="0 0 218.48 96.81"><defs><style>.cls-1,.cls-2{fill:#316fea;}.cls-1{stroke:#316fea;stroke-miterlimit:10;stroke-width:0.75px;}</style></defs><title>device</title><path class="cls-1" d="M1027.49,496.17v39.92a2.53,2.53,0,0,1,.86.13V496.17a3.69,3.69,0,0,0-3.68-3.67H911.53a3.67,3.67,0,0,0-3.68,3.67v67.25a.43.43,0,0,1,.43-.43h.43V496.17a2.82,2.82,0,0,1,2.48-2.8l.34,0h113.14A2.82,2.82,0,0,1,1027.49,496.17Z" transform="translate(-907.48 -492.12)"/><path class="cls-1" d="M908.71,569.19v-5.35h98.91v0a2,2,0,0,1,.13-.83H908.28a.43.43,0,0,0-.43.43v5.77a3.67,3.67,0,0,0,3.68,3.67h43.25v-.42a.43.43,0,0,1,.43-.43H911.53A2.82,2.82,0,0,1,908.71,569.19Z" transform="translate(-907.48 -492.12)"/><path class="cls-1" d="M1007.68,572H981a.43.43,0,0,1,.43.43v.42h26.19A5,5,0,0,1,1007.68,572Z" transform="translate(-907.48 -492.12)"/><path class="cls-1" d="M1021.54,498l-.11,0H914.77a.43.43,0,0,0-.43.43v59a.43.43,0,0,0,.43.43h93.28a.13.13,0,0,1,0-.06v-.13c0-.22,0-.44,0-.67H915.2V498.84H1021V536.5a2.77,2.77,0,0,1,.86,0V498.42A.42.42,0,0,0,1021.54,498Z" transform="translate(-907.48 -492.12)"/><path class="cls-1" d="M981,572H955.21a.43.43,0,0,0-.43.43v.42c-.1,8.37-3.15,10.52-3.64,10.81h1.35c1.22-1.25,3.07-4.22,3.15-10.81h24.92c.08,6.59,1.93,9.56,3.15,10.81h1.35c-.5-.3-3.54-2.45-3.64-10.81v-.42A.43.43,0,0,0,981,572Z" transform="translate(-907.48 -492.12)"/><path class="cls-1" d="M982.09,583.67H944.72a3.71,3.71,0,0,0-3.43,2.35,2.23,2.23,0,0,0-.09.63v1.48a.42.42,0,0,0,.42.43h53a.43.43,0,0,0,.43-.43v-1.48c0-1.68-1.89-3-3.52-3h-9.39Zm9.39.86c1.2,0,2.67,1,2.67,2.12v1.06h-52.1v-1.06a1.87,1.87,0,0,1,.73-1.36,3.13,3.13,0,0,1,1.94-.76h46.76Z" transform="translate(-907.48 -492.12)"/><path class="cls-1" d="M964.4,569h7.4a1.6,1.6,0,0,0,0-3.19h-7.4a1.6,1.6,0,0,0,0,3.19Zm0-2.34h7.4a.75.75,0,0,1,0,1.49h-7.4a.75.75,0,0,1,0-1.49Z" transform="translate(-907.48 -492.12)"/><path class="cls-2" d="M966.05,522.09V535l8.13-6.44Z" transform="translate(-907.48 -492.12)"/><path class="cls-1" d="M1122.41,516.62h-76.34a3.17,3.17,0,0,0-3.16,3.16V570a3.17,3.17,0,0,0,3.16,3.16h76.34a3.17,3.17,0,0,0,3.17-3.16v-50.2A3.17,3.17,0,0,0,1122.41,516.62Zm2.37,53.36a2.37,2.37,0,0,1-2.37,2.36h-76.34a2.36,2.36,0,0,1-2.36-2.36v-50.2a2.36,2.36,0,0,1,2.36-2.36h76.34a2.37,2.37,0,0,1,2.37,2.36Z" transform="translate(-907.48 -492.12)"/><path class="cls-1" d="M1120.94,541.39a1.31,1.31,0,0,0-1.3,1.3v4.38a1.3,1.3,0,0,0,2.6,0v-4.38A1.3,1.3,0,0,0,1120.94,541.39Zm.5,5.68a.5.5,0,0,1-.5.5.51.51,0,0,1-.5-.5v-4.38a.51.51,0,0,1,.5-.5.5.5,0,0,1,.5.5Z" transform="translate(-907.48 -492.12)"/><path class="cls-1" d="M1115.75,519.38h-69.29a.4.4,0,0,0-.4.4v50.16a.4.4,0,0,0,.4.4h69.29a.4.4,0,0,0,.4-.4V519.78A.4.4,0,0,0,1115.75,519.38Zm-.4,50.16h-68.49V520.18h68.49Z" transform="translate(-907.48 -492.12)"/><path class="cls-1" d="M1078.85,538.42V551.3l8.14-6.44Z" transform="translate(-907.48 -492.12)"/><path class="cls-2" d="M1018.24,554.22v11l7-5.52Z" transform="translate(-907.48 -492.12)"/><path class="cls-1" d="M1032.21,535.66h-22a3,3,0,0,0-3,3v46.73a3,3,0,0,0,3,2.95h22a3,3,0,0,0,3-2.95h0V538.61A3,3,0,0,0,1032.21,535.66Zm2.18,49.68a2.15,2.15,0,0,1-.46,1.34,2.19,2.19,0,0,1-1.72.85h-22a2.2,2.2,0,0,1-2.19-2.19V538.61a2.19,2.19,0,0,1,2.19-2.19h22a2.19,2.19,0,0,1,2.18,2.19Z" transform="translate(-907.48 -492.12)"/><path class="cls-1" d="M1023.26,583.32h-4.07a1.22,1.22,0,1,0,0,2.43h4.07a1.22,1.22,0,1,0,0-2.43Zm0,1.67h-4.07a.45.45,0,0,1-.45-.45.46.46,0,0,1,.45-.46h4.07a.46.46,0,0,1,.45.46A.45.45,0,0,1,1023.26,585Z" transform="translate(-907.48 -492.12)"/><path class="cls-1" d="M1031.93,538.68h-21.41a.37.37,0,0,0-.35.38v41.27a.37.37,0,0,0,.35.38h21.41a.37.37,0,0,0,.36-.38V539.06A.37.37,0,0,0,1031.93,538.68Zm-.36,40.82V580h-20.69V539.44h20.69Z" transform="translate(-907.48 -492.12)"/></svg>