<svg id="Isolation_Mode" data-name="Isolation Mode" xmlns="http://www.w3.org/2000/svg" viewBox="0 0 70.9 68.6"><defs><style>.cls-1{fill:#316fea;}</style></defs><title>encoding</title><g id="Isolation_Mode-2" data-name="Isolation Mode"><path class="cls-1" d="M988.65,508.05H919.09a.65.65,0,0,0-.65.65v49.78c.43,0,.86,0,1.3,0V509.35H988v38.83a.65.65,0,1,0,1.3,0V508.7A.65.65,0,0,0,988.65,508.05Z" transform="translate(-918.4 -508.05)"/><path class="cls-1" d="M988.65,508.05H919.09a.65.65,0,0,0-.65.65v49.78c.43,0,.86,0,1.3,0V509.35H988v38.83a.65.65,0,1,0,1.3,0V508.7A.65.65,0,0,0,988.65,508.05Z" transform="translate(-918.4 -508.05)"/><path class="cls-1" d="M919.74,558.47V521.56a.65.65,0,1,0-1.3,0v36.92C918.87,558.46,919.3,558.46,919.74,558.47Z" transform="translate(-918.4 -508.05)"/><path class="cls-1" d="M988,559.31c.44.07.87.12,1.3.16V508.7a.65.65,0,0,0-.65-.65H943.32a.65.65,0,0,0,0,1.3H988Z" transform="translate(-918.4 -508.05)"/><path class="cls-1" d="M988.65,521.11H919.09a.65.65,0,1,1,0-1.3h69.56a.65.65,0,1,1,0,1.3Z" transform="translate(-918.4 -508.05)"/><path class="cls-1" d="M926.12,517.09a2.64,2.64,0,1,1,2.63-2.64A2.64,2.64,0,0,1,926.12,517.09Zm0-4a1.33,1.33,0,1,0,1.33,1.33A1.34,1.34,0,0,0,926.12,513.12Z" transform="translate(-918.4 -508.05)"/><path class="cls-1" d="M934.7,517.09a2.64,2.64,0,1,1,2.62-2.64A2.64,2.64,0,0,1,934.7,517.09Zm0-4a1.33,1.33,0,1,0,1.32,1.33A1.33,1.33,0,0,0,934.7,513.12Z" transform="translate(-918.4 -508.05)"/><path class="cls-1" d="M918.42,542.25v24c.44,0,.87,0,1.3,0V542A3.94,3.94,0,0,1,918.42,542.25Z" transform="translate(-918.4 -508.05)"/><path class="cls-1" d="M988,544.38v11.55a.65.65,0,1,0,1.3,0V544.66A2.83,2.83,0,0,1,988,544.38Z" transform="translate(-918.4 -508.05)"/><path class="cls-1" d="M988,544.38v11.55a.65.65,0,1,0,1.3,0V544.66A2.83,2.83,0,0,1,988,544.38Z" transform="translate(-918.4 -508.05)"/><path class="cls-1" d="M918.42,542.25v24c.44,0,.87,0,1.3,0V542A3.94,3.94,0,0,1,918.42,542.25Z" transform="translate(-918.4 -508.05)"/><path class="cls-1" d="M918.42,542.25v24c.44,0,.87,0,1.3,0V542A3.94,3.94,0,0,1,918.42,542.25Z" transform="translate(-918.4 -508.05)"/><path class="cls-1" d="M988.81,566.52a2.41,2.41,0,0,1,.48-.08V544.66a2.83,2.83,0,0,1-1.3-.28V567A3,3,0,0,1,988.81,566.52Z" transform="translate(-918.4 -508.05)"/><path class="cls-1" d="M954.93,576.65h-3.44a.55.55,0,0,1-.54-.46l-.89-6.21a18,18,0,0,1-7.14-3l-5,3.75a.55.55,0,0,1-.71,0l-2.41-2.44a.52.52,0,0,1,0-.69l3.73-5.1a18.05,18.05,0,0,1-2.89-7.14l-6.21-1a.54.54,0,0,1-.45-.53v-1.71a.53.53,0,0,1,.53-.53H977a.53.53,0,0,1,.53.53v1.71a.54.54,0,0,1-.45.53l-6.22,1a18.29,18.29,0,0,1-3,7.15l3.73,5.09a.53.53,0,0,1-.06.69l-2.41,2.44a.53.53,0,0,1-.7,0l-5-3.75a17.42,17.42,0,0,1-7.06,3l-.9,6.21A.54.54,0,0,1,954.93,576.65Zm-3-1.08h2.52l.88-6.12a.56.56,0,0,1,.45-.46,16.4,16.4,0,0,0,7.31-3.08.54.54,0,0,1,.64,0l5,3.72,1.77-1.79-3.68-5a.54.54,0,0,1,0-.64,17.18,17.18,0,0,0,3.05-7.39.55.55,0,0,1,.45-.44l6.14-1v-.71H930v.71l6.14,1a.55.55,0,0,1,.45.46,16.84,16.84,0,0,0,3,7.38.54.54,0,0,1,0,.63l-3.69,5,1.77,1.79,5-3.72a.54.54,0,0,1,.64,0,16.79,16.79,0,0,0,7.38,3.08.56.56,0,0,1,.45.46Z" transform="translate(-918.4 -508.05)"/><path class="cls-1" d="M953.21,563.79a10.4,10.4,0,0,1-7.45-3.1,10.73,10.73,0,0,1-3.16-7.56.54.54,0,0,1,1.07,0,9.67,9.67,0,0,0,2.85,6.81,9.36,9.36,0,0,0,6.69,2.78h0a9.36,9.36,0,0,0,6.69-2.78,9.63,9.63,0,0,0,2.77-6.81.54.54,0,0,1,1.08,0,10.7,10.7,0,0,1-3.09,7.56,10.4,10.4,0,0,1-7.45,3.1Z" transform="translate(-918.4 -508.05)"/><path class="cls-1" d="M982.11,533.76H967.9a.54.54,0,0,1-.54-.53v-4.59a.54.54,0,0,1,.54-.54h14.21a.54.54,0,0,1,.54.54v4.59A.54.54,0,0,1,982.11,533.76Zm-13.68-1.07h13.15v-3.52H968.43Z" transform="translate(-918.4 -508.05)"/><path class="cls-1" d="M982.11,541.9H967.9a.54.54,0,0,1-.54-.54V536.7a.54.54,0,0,1,.54-.53h14.21a.54.54,0,0,1,.54.53v4.66A.54.54,0,0,1,982.11,541.9Zm-13.68-1.07h13.15v-3.59H968.43Z" transform="translate(-918.4 -508.05)"/><path class="cls-1" d="M948.85,527.91H927.6a.54.54,0,1,1,0-1.07h21.25a.54.54,0,1,1,0,1.07Z" transform="translate(-918.4 -508.05)"/><path class="cls-1" d="M948.85,532.13H927.6a.54.54,0,1,1,0-1.07h21.25a.54.54,0,1,1,0,1.07Z" transform="translate(-918.4 -508.05)"/><path class="cls-1" d="M939.33,536.27H927.6a.54.54,0,1,1,0-1.07h11.73a.54.54,0,0,1,0,1.07Z" transform="translate(-918.4 -508.05)"/><path class="cls-1" d="M948.85,540.49h-7a.54.54,0,1,1,0-1.07h7a.54.54,0,1,1,0,1.07Z" transform="translate(-918.4 -508.05)"/><path class="cls-1" d="M948.85,544.63H927.6a.54.54,0,1,1,0-1.07h21.25a.54.54,0,1,1,0,1.07Z" transform="translate(-918.4 -508.05)"/><path class="cls-1" d="M938.3,540.49h-7a.54.54,0,1,1,0-1.07h7a.54.54,0,0,1,0,1.07Z" transform="translate(-918.4 -508.05)"/><path class="cls-1" d="M944.67,536.27h-3.73a.54.54,0,1,1,0-1.07h3.73a.54.54,0,1,1,0,1.07Z" transform="translate(-918.4 -508.05)"/><path class="cls-1" d="M981.68,552.67h-57a.54.54,0,0,1,0-1.07h57a.54.54,0,0,1,0,1.07Z" transform="translate(-918.4 -508.05)"/><path class="cls-1" d="M983.07,545.38h-16.2a.54.54,0,0,1,0-1.07h16.2a.54.54,0,0,1,0,1.07Z" transform="translate(-918.4 -508.05)"/><path class="cls-1" d="M935.92,565.81H919.05a.65.65,0,1,0,0,1.3H935.6A2.81,2.81,0,0,1,935.92,565.81Z" transform="translate(-918.4 -508.05)"/><path class="cls-1" d="M988.58,565.81H969.36a.67.67,0,0,1,.06.15,4.12,4.12,0,0,1,.75.57,2,2,0,0,1,.43.58h18a.65.65,0,1,0,0-1.3Z" transform="translate(-918.4 -508.05)"/></g></svg>