<svg width="454" height="424" viewBox="0 0 454 424" fill="none" xmlns="http://www.w3.org/2000/svg">
<g clip-path="url(#clip0)">
<path d="M390.219 34.5689C369.52 17.7402 344.031 8.80513 317.558 4.17491C296.663 0.520937 275.359 -0.492504 254.176 0.214116C157.7 3.4218 128.223 51.6579 104.631 57.5526C39.5949 73.8142 6.43507 134.054 1.31138 196.803C1.1719 198.495 1.05101 200.188 0.939423 201.889C-1.4039 236.913 -0.139248 272.877 14.023 305.567C26.0557 333.339 48.029 353.989 74.6239 367.861C136.266 400.022 200.047 389.302 237.038 373.756C274.02 358.21 269.733 350.177 319.585 364.105C369.436 378.042 413.383 345.882 429.47 308.366C445.548 270.85 468.079 188.789 442.33 116.5C432.975 90.2431 419.994 64.0982 400.225 43.7177C397.035 40.4357 393.688 37.3954 390.219 34.5689Z" fill="#316FEA"/>
<path opacity="0.7" d="M390.219 34.5689C369.52 17.7402 344.031 8.80513 317.558 4.17491C296.663 0.520937 275.359 -0.492504 254.176 0.214116C157.7 3.4218 128.223 51.6579 104.631 57.5526C39.5949 73.8142 6.43507 134.054 1.31138 196.803C1.1719 198.495 1.05101 200.188 0.939423 201.889C-1.4039 236.913 -0.139248 272.877 14.023 305.567C26.0557 333.339 48.029 353.989 74.6239 367.861C136.266 400.022 200.047 389.302 237.038 373.756C274.02 358.21 269.733 350.177 319.585 364.105C369.436 378.042 413.383 345.882 429.47 308.366C445.548 270.85 468.079 188.789 442.33 116.5C432.975 90.2431 419.994 64.0982 400.225 43.7177C397.035 40.4357 393.688 37.3954 390.219 34.5689Z" fill="white"/>
<path d="M307.394 406.744H420.961" stroke="#263238" stroke-miterlimit="10" stroke-linecap="round" stroke-linejoin="round"/>
<path d="M30.9932 406.744H299.508" stroke="#263238" stroke-miterlimit="10" stroke-linecap="round" stroke-linejoin="round"/>
<g opacity="0.3">
<g opacity="0.3">
<path opacity="0.3" d="M198.252 249.316H163.205V336.351H198.252V249.316Z" stroke="black" stroke-miterlimit="10" stroke-linecap="round" stroke-linejoin="round"/>
<path opacity="0.3" d="M252.521 249.316H217.473V336.351H252.521V249.316Z" stroke="black" stroke-miterlimit="10" stroke-linecap="round" stroke-linejoin="round"/>
</g>
</g>
<g opacity="0.3">
<path opacity="0.3" d="M61.3913 309.295L91.092 292.141V326.44L61.3913 309.295Z" stroke="black" stroke-miterlimit="10" stroke-linecap="round" stroke-linejoin="round"/>
<path opacity="0.3" d="M92.0126 309.295L121.713 292.141V326.44L92.0126 309.295Z" stroke="black" stroke-miterlimit="10" stroke-linecap="round" stroke-linejoin="round"/>
</g>
<g opacity="0.3">
<path opacity="0.3" d="M354.334 309.295L324.634 292.141V326.44L354.334 309.295Z" stroke="black" stroke-miterlimit="10" stroke-linecap="round" stroke-linejoin="round"/>
<path opacity="0.3" d="M323.713 309.295L294.012 292.141V326.44L323.713 309.295Z" stroke="black" stroke-miterlimit="10" stroke-linecap="round" stroke-linejoin="round"/>
</g>
<path opacity="0.3" d="M300.717 371.989C302.809 371.031 303.748 368.577 302.837 366.466L294.477 346.978C293.836 345.249 291.92 344.366 290.191 345.007C289.075 345.416 288.312 346.374 288.08 347.462L288.043 347.36C287.42 345.63 285.504 344.728 283.774 345.351C282.445 345.825 281.617 347.062 281.571 348.382C280.669 347.592 279.376 347.313 278.186 347.769C276.782 348.299 275.945 349.684 276.038 351.116L269.315 336.082C268.617 334.38 266.664 333.562 264.963 334.259C263.261 334.957 262.443 336.909 263.14 338.61L275.991 368.595L265.363 363.231C263.717 362.403 261.708 363.063 260.881 364.709C260.053 366.355 260.713 368.363 262.359 369.19L280.092 378.944C280.092 378.944 281.784 379.836 282.891 379.66C283.161 379.604 294.924 374.648 300.717 371.989Z" stroke="black" stroke-miterlimit="10" stroke-linecap="round" stroke-linejoin="round"/>
<g opacity="0.3">
<path opacity="0.3" d="M418.59 117.42L431.859 130.688" stroke="black" stroke-width="3" stroke-miterlimit="10" stroke-linecap="round" stroke-linejoin="round"/>
<path opacity="0.3" d="M431.859 117.42L418.59 130.688" stroke="black" stroke-width="3" stroke-miterlimit="10" stroke-linecap="round" stroke-linejoin="round"/>
</g>
<g opacity="0.3">
<path opacity="0.3" d="M54.8821 359.856L68.1516 373.133" stroke="black" stroke-width="3" stroke-miterlimit="10" stroke-linecap="round" stroke-linejoin="round"/>
<path opacity="0.3" d="M68.1516 359.856L54.8821 373.133" stroke="black" stroke-width="3" stroke-miterlimit="10" stroke-linecap="round" stroke-linejoin="round"/>
</g>
<g opacity="0.3">
<path opacity="0.3" d="M19.7323 210.666L33.0018 223.934" stroke="black" stroke-width="3" stroke-miterlimit="10" stroke-linecap="round" stroke-linejoin="round"/>
<path opacity="0.3" d="M33.0018 210.666L19.7323 223.934" stroke="black" stroke-width="3" stroke-miterlimit="10" stroke-linecap="round" stroke-linejoin="round"/>
</g>
<g opacity="0.3">
<path opacity="0.3" d="M270.812 229.317L284.081 242.585" stroke="black" stroke-width="3" stroke-miterlimit="10" stroke-linecap="round" stroke-linejoin="round"/>
<path opacity="0.3" d="M284.081 229.317L270.812 242.585" stroke="black" stroke-width="3" stroke-miterlimit="10" stroke-linecap="round" stroke-linejoin="round"/>
</g>
<path opacity="0.3" d="M423.611 179.11C423.611 176.729 421.686 174.805 419.306 174.805C416.925 174.805 415 176.729 415 179.11C415 181.49 416.925 183.414 419.306 183.414C421.686 183.414 423.611 181.481 423.611 179.11Z" stroke="black" stroke-width="3" stroke-miterlimit="10" stroke-linecap="round" stroke-linejoin="round"/>
<path opacity="0.3" d="M69.9463 258.725C69.9463 256.345 68.0214 254.42 65.6409 254.42C63.2604 254.42 61.3355 256.345 61.3355 258.725C61.3355 261.105 63.2604 263.03 65.6409 263.03C68.0214 263.03 69.9463 261.096 69.9463 258.725Z" stroke="black" stroke-width="3" stroke-miterlimit="10" stroke-linecap="round" stroke-linejoin="round"/>
<path opacity="0.3" d="M237.029 373.755C237.029 371.375 235.104 369.451 232.723 369.451C230.343 369.451 228.418 371.375 228.418 373.755C228.418 376.136 230.343 378.06 232.723 378.06C235.104 378.06 237.029 376.136 237.029 373.755Z" stroke="black" stroke-width="3" stroke-miterlimit="10" stroke-linecap="round" stroke-linejoin="round"/>
<path opacity="0.3" d="M31.9231 131.05C31.9231 128.67 29.9982 126.745 27.6177 126.745C25.2372 126.745 23.3123 128.67 23.3123 131.05C23.3123 133.43 25.2372 135.355 27.6177 135.355C29.9982 135.355 31.9231 133.421 31.9231 131.05Z" stroke="black" stroke-width="3" stroke-miterlimit="10" stroke-linecap="round" stroke-linejoin="round"/>
<path d="M151.749 11.0828H117.808V14.151H74.354C59.5594 14.151 47.5639 26.1449 47.5639 40.9375V184.8C47.5639 199.592 59.5594 211.586 74.354 211.586H366.702C381.497 211.586 393.492 199.592 393.492 184.8V40.9375C393.492 26.1449 381.497 14.151 366.702 14.151H180.678V11.0828H160.62V14.151H151.749V11.0828Z" fill="#707070" stroke="#263238" stroke-miterlimit="10" stroke-linejoin="round"/>
<path d="M389.8 45.6327V180.104C389.8 195.771 377.098 208.481 361.42 208.481H79.6357C63.9671 208.481 51.2555 195.78 51.2555 180.104V45.6327C51.2555 29.9662 63.9578 17.2563 79.6357 17.2563H361.42C377.089 17.2563 389.8 29.9569 389.8 45.6327Z" fill="#263238" stroke="#263238" stroke-miterlimit="10" stroke-linejoin="round"/>
<path d="M53.6918 49.3518V102.46L53.8871 102.516C59.7547 104.087 63.558 107.704 63.558 111.711V114.017C63.558 118.024 59.7547 121.641 53.8871 123.212L53.6918 123.268V176.376C53.6918 191.169 66.1152 203.163 81.4304 203.163H358.063C373.388 203.163 385.802 191.169 385.802 176.376V49.3518C385.802 34.5593 373.379 22.5653 358.063 22.5653H81.4304C66.1059 22.5746 53.6918 34.5593 53.6918 49.3518Z" fill="white" stroke="#263238" stroke-miterlimit="10" stroke-linecap="round" stroke-linejoin="round"/>
<path opacity="0.3" d="M336.732 145.136H375.489" stroke="black" stroke-miterlimit="10" stroke-linecap="round" stroke-linejoin="round"/>
<path opacity="0.3" d="M197.425 145.136H330.557" stroke="black" stroke-miterlimit="10" stroke-linecap="round" stroke-linejoin="round"/>
<path opacity="0.3" d="M60.9357 145.136H187.317" stroke="black" stroke-miterlimit="10" stroke-linecap="round" stroke-linejoin="round"/>
<g opacity="0.3">
<path opacity="0.3" d="M365.568 128.112L377.554 139.809" stroke="black" stroke-miterlimit="10" stroke-linecap="round" stroke-linejoin="round"/>
<path opacity="0.3" d="M182.082 83.6137L249.108 131.617L312.936 76.7614L360.444 123.11" stroke="black" stroke-miterlimit="10" stroke-linecap="round" stroke-linejoin="round"/>
<path opacity="0.3" d="M61.196 132.845L158.258 66.5432L177.414 80.2665" stroke="black" stroke-miterlimit="10" stroke-linecap="round" stroke-linejoin="round"/>
<path opacity="0.3" d="M311.457 56.883H336.276C336.276 56.883 336.936 48.3477 328.4 46.3766C321.742 44.8425 313.475 50.3653 307.877 45.763C307.831 45.7258 307.784 45.6886 307.738 45.6421C305.273 43.5223 303.758 40.5284 301.768 37.9437C297.732 32.6998 291.455 29.0923 284.844 28.832C278.232 28.5717 271.463 31.863 268.041 37.5346C267.111 39.078 266.302 40.8817 264.674 41.6534C261.597 43.0946 258.5 39.952 255.403 38.5573C245.547 34.0945 244.421 44.4427 239.447 49.1008C234.565 53.6753 227.163 46.9066 222.048 50.3188C218.106 52.9408 216.794 56.883 216.794 56.883H304.158" stroke="black" stroke-miterlimit="10" stroke-linecap="round" stroke-linejoin="round"/>
<path opacity="0.3" d="M120.876 49.6123C119.277 48.7383 117.501 48.2083 115.678 48.1339C112.033 47.9852 108.304 49.8075 106.417 52.9222C105.905 53.7683 105.459 54.7632 104.566 55.1908C102.874 55.9811 101.163 54.2518 99.461 53.4801C94.0304 51.0162 93.4074 56.725 90.6735 59.2911C87.9862 61.8108 83.9132 58.0824 81.0864 59.9605C78.9197 61.411 78.1944 63.5773 78.1944 63.5773H144.012C144.012 63.5773 144.375 58.8727 139.669 57.7942C136.006 56.9481 131.449 59.9977 128.362 57.4502C128.334 57.4316 128.306 57.4037 128.288 57.3851C126.93 56.2136 126.093 54.5679 125.005 53.1454" stroke="black" stroke-miterlimit="10" stroke-linecap="round" stroke-linejoin="round"/>
</g>
<path d="M353.674 180.551H85.8195V187.394H353.674V180.551Z" fill="white" stroke="#263238" stroke-miterlimit="10" stroke-linecap="round" stroke-linejoin="round"/>
<path d="M248.885 180.551H85.8195V187.394H248.885V180.551Z" fill="#316FEA" stroke="#263238" stroke-miterlimit="10" stroke-linecap="round" stroke-linejoin="round"/>
<path d="M255.599 183.972C255.599 181.499 253.599 179.5 251.126 179.5C248.652 179.5 246.653 181.499 246.653 183.972C246.653 186.445 248.652 188.444 251.126 188.444C253.599 188.444 255.599 186.445 255.599 183.972Z" fill="white" stroke="#263238" stroke-miterlimit="10" stroke-linecap="round" stroke-linejoin="round"/>
<path d="M54.9751 115.932C56.3617 115.932 57.4858 114.808 57.4858 113.422C57.4858 112.035 56.3617 110.911 54.9751 110.911C53.5885 110.911 52.4644 112.035 52.4644 113.422C52.4644 114.808 53.5885 115.932 54.9751 115.932Z" fill="#707070"/>
<path d="M219.752 125.09C231.8 125.09 241.567 115.325 241.567 103.278C241.567 91.2315 231.8 81.4658 219.752 81.4658C207.703 81.4658 197.936 91.2315 197.936 103.278C197.936 115.325 207.703 125.09 219.752 125.09Z" fill="#316FEA" stroke="#263238" stroke-miterlimit="10" stroke-linecap="round" stroke-linejoin="round"/>
<path d="M217.083 91.1912H207.347V115.365H217.083V91.1912Z" fill="white" stroke="#263238" stroke-miterlimit="10" stroke-linecap="round" stroke-linejoin="round"/>
<path d="M232.156 91.1912H222.42V115.365H232.156V91.1912Z" fill="white" stroke="#263238" stroke-miterlimit="10" stroke-linecap="round" stroke-linejoin="round"/>
<path d="M307.347 103.083L284.379 89.8243V116.332L307.347 103.083Z" fill="white" stroke="#263238" stroke-miterlimit="10" stroke-linecap="round" stroke-linejoin="round"/>
<path d="M318.013 88.625H311.82V117.531H318.013V88.625Z" fill="white" stroke="#263238" stroke-miterlimit="10" stroke-linecap="round" stroke-linejoin="round"/>
<path d="M132.156 103.083L155.115 89.8243V116.332L132.156 103.083Z" fill="white" stroke="#263238" stroke-miterlimit="10" stroke-linecap="round" stroke-linejoin="round"/>
<path d="M121.48 117.536H127.673V88.6293H121.48V117.536Z" fill="white" stroke="#263238" stroke-miterlimit="10" stroke-linecap="round" stroke-linejoin="round"/>
<path d="M161.001 147.665C161.001 147.665 167.334 151.114 167.901 153.997C168.477 156.87 168.189 160.617 169.054 161.472C169.919 162.337 173.796 161.76 173.508 164.494C173.22 167.227 172.216 168.808 172.216 168.808C172.216 168.808 172.076 172.834 171.788 176.144C171.5 179.454 171.788 180.746 169.919 181.611C168.05 182.475 161.429 181.75 160.425 181.899C159.42 182.038 157.551 177.297 156.249 167.088C154.966 156.87 158.128 146.661 161.001 147.665Z" fill="white" stroke="#263238" stroke-miterlimit="10" stroke-linecap="round" stroke-linejoin="round"/>
<path d="M95.7414 273.601L89.9854 281.653C89.9854 281.653 82.2208 281.941 79.7752 282.369C77.3296 282.797 76.9019 283.81 76.9019 285.103C76.9019 286.395 76.6136 289.277 76.6136 290.57C76.6136 291.862 77.9062 293.015 79.3475 293.154C80.7888 293.294 82.0814 293.582 82.7974 293.015C83.5134 292.438 84.3782 290.718 84.3782 290.718C84.3782 290.718 86.9633 291.871 89.9854 289.426C93.0075 286.981 94.5884 285.54 95.4532 284.535C96.318 283.531 102.641 277.925 102.641 277.925L95.7414 273.601Z" fill="white" stroke="#263238" stroke-miterlimit="10" stroke-linecap="round" stroke-linejoin="round"/>
<path d="M84.3782 290.709C84.3782 290.709 80.9283 291.425 80.0635 290.281" stroke="#263238" stroke-miterlimit="10" stroke-linecap="round" stroke-linejoin="round"/>
<path d="M131.514 269.492C131.514 269.492 125.21 286.562 125.823 293.471C126.437 300.379 127.042 310.132 127.246 318.676C127.451 327.212 127.655 343.882 127.655 343.882C127.655 343.882 125.014 352.827 124.401 357.503C123.787 362.18 123.991 399.901 123.991 399.901C123.991 399.901 121.146 407.218 119.314 409.858C117.482 412.499 114.841 414.535 112.814 416.357C110.778 418.189 111.596 420.83 115.251 421.434C118.905 422.048 123.182 421.638 125.005 420.625C126.837 419.612 130.696 418.793 132.119 415.549C133.541 412.294 132.928 401.323 132.928 401.323C132.928 401.323 141.26 369.488 142.682 360.348C144.105 351.209 146.141 337.179 146.337 335.552C146.541 333.925 154.669 298.157 154.669 298.157L158.732 297.747L162.387 314.409L167.064 345.5C167.064 345.5 165.846 358.098 167.269 366.838C168.691 375.578 169.705 409.44 169.705 409.44C169.705 409.44 168.078 420.216 168.691 421.834C169.305 423.461 172.15 423.665 176.419 423.461C180.687 423.256 184.955 421.229 186.582 420.207C188.21 419.193 188.814 417.566 188.005 415.734C187.196 413.903 185.16 412.276 183.941 410.249C182.723 408.213 181.505 407.199 181.096 405.368C180.687 403.536 184.555 369.07 183.941 361.752C183.328 354.435 183.132 344.682 183.132 344.682C183.132 344.682 187.81 328.021 188.014 310.746C188.219 293.471 190.246 291.035 185.978 279.85C181.71 268.674 179.273 264.611 179.273 264.611L132.519 265.829L131.514 269.492Z" fill="white" stroke="#263238" stroke-miterlimit="10" stroke-linecap="round" stroke-linejoin="round"/>
<path d="M183.951 361.762C183.337 354.444 183.142 344.691 183.142 344.691C183.142 344.691 187.819 328.03 188.024 310.755C188.228 293.48 190.255 291.044 185.987 279.859C181.719 268.683 179.283 264.62 179.283 264.62L132.528 265.838L131.514 269.492C131.514 269.492 125.21 286.562 125.823 293.471C126.437 300.379 127.041 310.132 127.246 318.676C127.451 327.212 127.655 343.882 127.655 343.882C127.655 343.882 125.014 352.827 124.401 357.503C124.019 360.404 123.954 381.11 123.964 390.147C126.902 388.846 131.031 387.953 135.652 391.142C138.098 383.658 141.901 365.444 142.692 360.348C144.114 351.2 146.151 337.179 146.346 335.552C146.551 333.925 154.678 298.157 154.678 298.157L158.741 297.747L162.396 314.409L167.073 345.5C167.073 345.5 165.855 358.098 167.278 366.838C168.152 372.194 168.868 392.128 169.296 400.384C172.085 401.37 176.893 402.216 181.58 398.999C182.528 390.287 184.397 367.015 183.951 361.762Z" fill="#263238" stroke="#263238" stroke-miterlimit="10" stroke-linecap="round" stroke-linejoin="round"/>
<path d="M183.951 410.258C183.328 409.226 182.714 408.454 182.193 407.701C181.97 408.231 181.682 408.947 181.301 409.849C180.287 412.285 178.251 411.885 178.251 411.885C178.251 411.885 174.791 408.836 172.355 408.631C169.919 408.427 169.714 409.44 169.714 409.44C169.714 409.44 168.087 420.216 168.701 421.834C169.314 423.461 172.16 423.665 176.428 423.461C180.696 423.256 184.964 421.229 186.592 420.207C188.219 419.193 188.823 417.566 188.014 415.734C187.205 413.921 185.178 412.294 183.951 410.258Z" fill="white" stroke="#263238" stroke-miterlimit="10" stroke-linecap="round" stroke-linejoin="round"/>
<path d="M127.851 403.964C125.005 405.795 123.173 408.64 123.173 408.64C123.173 408.64 122.913 406.204 122.113 404.391C121.211 406.428 120.151 408.64 119.314 409.858C117.482 412.499 114.841 414.535 112.814 416.357C110.778 418.189 111.596 420.83 115.251 421.434C118.905 422.048 123.182 421.638 125.005 420.625C126.837 419.612 130.696 418.793 132.119 415.548C133.151 413.187 133.114 406.781 133.011 403.424L132.519 403.555C132.528 403.555 130.696 402.132 127.851 403.964Z" fill="white" stroke="#263238" stroke-miterlimit="10" stroke-linecap="round" stroke-linejoin="round"/>
<path d="M127.851 413.717C123.173 414.526 120.532 417.371 116.878 418.793C115.278 419.416 113.874 420.002 112.796 420.458C113.381 420.904 114.19 421.257 115.251 421.434C118.905 422.048 123.182 421.638 125.005 420.625C126.837 419.612 130.696 418.793 132.119 415.549C132.119 415.549 132.528 412.899 127.851 413.717Z" fill="white" stroke="#263238" stroke-miterlimit="10" stroke-linecap="round" stroke-linejoin="round"/>
<path d="M130.947 267.605C130.947 267.605 129.655 270.338 130.947 271.919C132.24 273.499 144.756 278.539 159.857 275.805C174.959 273.072 176.828 272.356 179.422 268.469C182.007 264.583 180.864 262.138 180.138 260.269C179.413 258.4 188.34 266.024 163.456 268.032C138.572 270.05 132.1 264.583 132.1 264.583L130.947 267.605Z" fill="#316FEA" stroke="#263238" stroke-miterlimit="10" stroke-linecap="round" stroke-linejoin="round"/>
<path d="M210.899 152.602C210.899 152.602 212.006 142.356 212.006 141.882C212.006 141.408 210.425 138.256 209.486 136.526C208.537 134.797 208.221 133.217 207.282 131.171C206.333 129.126 202.707 129.442 204.446 127.861C206.175 126.28 207.282 126.439 208.546 127.229C209.811 128.019 210.75 129.116 212.015 128.493C213.279 127.861 215.483 117.931 215.799 116.676C216.116 115.412 218.319 115.095 218.636 116.676C218.952 118.257 217.845 125.974 217.845 125.974C217.845 125.974 220.207 124.709 221.156 125.341C222.104 125.974 222.42 127.071 222.42 127.071C222.42 127.071 224.308 128.019 224.466 129.116C224.624 130.223 224.624 130.223 224.624 130.223C224.624 130.223 225.889 132.11 225.731 133.375C225.573 134.639 224.782 137.475 223.527 140.311C222.262 143.146 220.216 147.089 219.742 148.353C219.268 149.618 218.636 155.131 218.636 155.131L210.899 152.602Z" fill="white" stroke="#263238" stroke-miterlimit="10" stroke-linecap="round" stroke-linejoin="round"/>
<path d="M162.582 186.641C162.582 186.641 170.058 191.382 171.072 190.815C172.076 190.239 177.693 186.362 182.007 185.209C186.322 184.056 187.475 183.628 188.479 182.624C189.484 181.62 202.716 170.835 203.441 169.821C204.157 168.817 211.355 149.115 211.355 149.115C211.355 149.115 214.953 148.976 216.534 149.692C218.115 150.408 219.407 151.709 219.407 151.709C219.407 151.709 216.962 175.437 216.534 176.878C216.106 178.319 210.639 184.065 207.616 187.524C204.594 190.983 182.305 207.086 181.291 208.955C180.287 210.824 175.247 228.368 174.391 233.547C173.527 238.726 180.436 254.69 180.575 257.424C180.715 260.157 181.58 263.755 179.422 266.201C177.265 268.646 171.946 271.668 151.804 272.811C131.663 273.955 130.082 268.069 130.082 265.912C130.082 263.755 131.663 254.551 131.087 248.079C130.51 241.608 129.506 237.145 129.506 237.145C129.506 237.145 124.614 249.223 123.322 251.38C122.029 253.537 116.85 264.183 113.54 267.921C110.229 271.658 104.659 280.677 101.07 280.24C97.471 279.812 95.4625 277.079 95.4625 275.21C95.4625 273.341 96.4667 270.319 96.4667 270.319C96.4667 270.319 109.513 246.927 110.666 244.481C111.819 242.036 115.409 229.521 116.422 224.352C117.426 219.173 117.138 207.672 119.156 204.501C121.174 201.34 137.568 194.432 141.734 191.847C145.9 189.225 156.398 185.776 162.582 186.641Z" fill="#316FEA" stroke="#263238" stroke-miterlimit="10" stroke-linecap="round" stroke-linejoin="round"/>
<path d="M123.796 224.594L129.506 237.118L121.713 226.909" stroke="#263238" stroke-miterlimit="10" stroke-linecap="round" stroke-linejoin="round"/>
<path d="M174.299 215.789L181.282 208.927L172.68 223.199" stroke="#263238" stroke-miterlimit="10" stroke-linecap="round" stroke-linejoin="round"/>
<path d="M160.862 246.127C160.862 246.127 148.587 262.342 138.851 266.507" stroke="#263238" stroke-miterlimit="10" stroke-linecap="round" stroke-linejoin="round"/>
<path d="M152.52 250.766C152.52 250.766 142.329 261.654 140.246 263.272" stroke="#263238" stroke-miterlimit="10" stroke-linecap="round" stroke-linejoin="round"/>
<path d="M140.432 148.102C140.432 148.102 135.401 151.412 133.383 156.879C131.366 162.346 132.23 169.682 132.091 170.398C131.951 171.114 116.989 171.69 115.836 177.157C114.683 182.624 119.147 186.65 119.863 189.235C120.579 191.819 110.657 193.549 109.216 200.308C107.774 207.068 124.466 207.644 123.74 211.809C123.024 215.984 121.444 215.408 121.871 219.722C122.299 224.036 127.627 226.053 133.951 228.062C140.283 230.079 139.995 231.511 143.873 228.35C147.759 225.189 148.048 222.595 148.764 219.573C149.48 216.551 150.345 218.857 155.236 214.831C160.127 210.805 161.42 204.622 160.992 201.74C160.564 198.867 160.852 202.456 164.442 197.286C168.04 192.108 166.46 189.662 164.153 184.772C161.857 179.881 160.843 178.012 161.131 174.703C161.42 171.393 165.446 160.607 163.428 156.581C161.41 152.556 160.118 152.844 161.131 150.25C162.136 147.665 164.581 147.089 161.559 143.63C158.537 140.18 153.646 140.032 151.488 141.333C149.331 142.626 150.624 142.914 147.034 143.918C143.454 144.931 140.432 148.102 140.432 148.102Z" fill="#263238" stroke="#263238" stroke-miterlimit="10" stroke-linecap="round" stroke-linejoin="round"/>
<path d="M169.054 171.179C169.054 175.428 166.45 178.877 163.233 178.877C160.015 178.877 157.412 175.437 157.412 171.179C157.412 166.93 160.015 163.48 163.233 163.48C166.45 163.48 169.054 166.93 169.054 171.179Z" fill="#797979" stroke="#263238" stroke-miterlimit="10" stroke-linecap="round" stroke-linejoin="round"/>
<path d="M169.37 171.179C169.37 174.396 167.399 177.008 164.953 177.008C162.517 177.008 160.536 174.396 160.536 171.179C160.536 167.962 162.508 165.349 164.953 165.349C167.399 165.349 169.37 167.962 169.37 171.179Z" fill="white" stroke="#263238" stroke-miterlimit="10" stroke-linecap="round" stroke-linejoin="round"/>
<path d="M165.232 159.371C165.195 159.092 164.237 152.584 159.299 147.646C155.989 144.337 150.493 142.895 145.286 143.965C141.287 144.783 139.297 146.512 138.144 149.394C137.977 149.813 137.038 150.659 137.196 151.04C136.759 149.989 142.971 147.033 143.649 146.8C148.382 145.201 153.488 146.503 156.965 149.98C161.094 154.108 161.95 159.761 161.959 159.826C162.08 160.654 162.786 161.249 163.595 161.249C163.67 161.249 163.744 161.24 163.828 161.23C164.721 161.109 165.353 160.282 165.232 159.371Z" fill="#797979" stroke="#263238" stroke-miterlimit="10" stroke-linecap="round" stroke-linejoin="round"/>
<path d="M164.6 170.258C163.158 170.258 161.912 169.189 161.736 167.72C161.726 167.683 161.243 163.778 160.146 159.826C159.718 158.292 160.62 156.693 162.154 156.265C163.688 155.838 165.288 156.74 165.716 158.274C166.934 162.653 167.455 166.837 167.473 167.004C167.668 168.585 166.543 170.026 164.962 170.221C164.832 170.249 164.711 170.258 164.6 170.258Z" fill="white" stroke="#263238" stroke-miterlimit="10" stroke-linecap="round" stroke-linejoin="round"/>
<path d="M367.092 258.567L379.376 376.192" stroke="#263238" stroke-miterlimit="10" stroke-linecap="round" stroke-linejoin="round"/>
<path d="M376.949 353.189L371.826 347.806" stroke="#263238" stroke-miterlimit="10" stroke-linecap="round" stroke-linejoin="round"/>
<path d="M373.518 349.563C373.518 349.563 373.676 346.96 371.305 344.84C369.873 343.566 362.359 340.405 361.643 343.046C360.872 345.928 368.562 351.59 373.518 349.563Z" fill="#316FEA" stroke="#263238" stroke-miterlimit="10"/>
<path d="M373.518 349.563L366.358 345.1" stroke="#263238" stroke-miterlimit="10" stroke-linecap="round" stroke-linejoin="round"/>
<path d="M378.223 365.341L373.22 361.176" stroke="#263238" stroke-miterlimit="10" stroke-linecap="round" stroke-linejoin="round"/>
<path d="M374.913 362.942C374.913 362.942 375.071 360.339 372.7 358.219C371.268 356.946 363.754 353.784 363.038 356.425C362.266 359.307 369.957 364.96 374.913 362.942Z" fill="#316FEA" stroke="#263238" stroke-miterlimit="10"/>
<path d="M374.913 362.943L367.762 358.48" stroke="#263238" stroke-miterlimit="10" stroke-linecap="round" stroke-linejoin="round"/>
<path d="M373.472 319.709L368.422 315.162" stroke="#263238" stroke-miterlimit="10" stroke-linecap="round" stroke-linejoin="round"/>
<path d="M370.115 316.919C370.115 316.919 370.273 314.316 367.902 312.196C366.469 310.922 358.956 307.761 358.24 310.402C357.459 313.293 365.158 318.946 370.115 316.919Z" fill="#316FEA" stroke="#263238" stroke-miterlimit="10"/>
<path d="M370.115 316.919L362.954 312.466" stroke="#263238" stroke-miterlimit="10" stroke-linecap="round" stroke-linejoin="round"/>
<path d="M374.885 333.934L369.817 328.541" stroke="#263238" stroke-miterlimit="10" stroke-linecap="round" stroke-linejoin="round"/>
<path d="M371.509 330.298C371.509 330.298 371.668 327.695 369.296 325.575C367.864 324.302 360.351 321.14 359.635 323.781C358.854 326.663 366.553 332.325 371.509 330.298Z" fill="#316FEA" stroke="#263238" stroke-miterlimit="10"/>
<path d="M371.509 330.299L364.349 325.836" stroke="#263238" stroke-miterlimit="10" stroke-linecap="round" stroke-linejoin="round"/>
<path d="M371.221 298.594L366.153 293.433" stroke="#263238" stroke-miterlimit="10" stroke-linecap="round" stroke-linejoin="round"/>
<path d="M367.846 295.191C367.846 295.191 368.004 292.587 365.633 290.467C364.201 289.194 356.687 286.033 355.971 288.673C355.19 291.565 362.889 297.218 367.846 295.191Z" fill="#316FEA" stroke="#263238" stroke-miterlimit="10"/>
<path d="M367.846 295.191L360.686 290.728" stroke="#263238" stroke-miterlimit="10" stroke-linecap="round" stroke-linejoin="round"/>
<path d="M368.785 275.359L363.875 271.603" stroke="#263238" stroke-miterlimit="10" stroke-linecap="round" stroke-linejoin="round"/>
<path d="M365.567 273.369C365.567 273.369 365.726 270.766 363.354 268.646C361.922 267.372 354.409 264.211 353.693 266.852C352.912 269.734 360.611 275.387 365.567 273.369Z" fill="#316FEA" stroke="#263238" stroke-miterlimit="10"/>
<path d="M365.568 273.369L358.407 268.906" stroke="#263238" stroke-miterlimit="10" stroke-linecap="round" stroke-linejoin="round"/>
<path d="M376.456 345.76L380.687 338.862" stroke="#263238" stroke-miterlimit="10" stroke-linecap="round" stroke-linejoin="round"/>
<path d="M379.395 340.935C379.395 340.935 378.707 338.425 380.585 335.859C381.72 334.315 388.424 329.666 389.67 332.112C391.028 334.771 384.667 341.893 379.395 340.935Z" fill="#316FEA" stroke="#263238" stroke-miterlimit="10"/>
<path d="M379.395 340.935L384.435 336.212" stroke="#263238" stroke-miterlimit="10" stroke-linecap="round" stroke-linejoin="round"/>
<path d="M372.783 310.56L377.014 303.661" stroke="#263238" stroke-miterlimit="10" stroke-linecap="round" stroke-linejoin="round"/>
<path d="M375.722 305.734C375.722 305.734 375.034 303.224 376.912 300.658C378.047 299.114 383.291 295.246 384.537 297.692C385.895 300.351 380.994 306.692 375.722 305.734Z" fill="#316FEA" stroke="#263238" stroke-miterlimit="10"/>
<path d="M375.722 305.734L382.166 299.579" stroke="#263238" stroke-miterlimit="10" stroke-linecap="round" stroke-linejoin="round"/>
<path d="M371.165 295.098L375.406 288.189" stroke="#263238" stroke-miterlimit="10" stroke-linecap="round" stroke-linejoin="round"/>
<path d="M374.113 290.263C374.113 290.263 373.416 287.753 375.303 285.186C376.438 283.643 383.142 278.994 384.388 281.439C385.737 284.099 379.376 291.221 374.113 290.263Z" fill="#316FEA" stroke="#263238" stroke-miterlimit="10"/>
<path d="M374.113 290.263L380.557 284.108" stroke="#263238" stroke-miterlimit="10" stroke-linecap="round" stroke-linejoin="round"/>
<path d="M368.803 272.412L373.034 265.513" stroke="#263238" stroke-miterlimit="10" stroke-linecap="round" stroke-linejoin="round"/>
<path d="M371.742 267.586C371.742 267.586 371.054 265.076 372.932 262.509C374.067 260.966 380.771 256.317 382.017 258.763C383.375 261.422 377.014 268.544 371.742 267.586Z" fill="#316FEA" stroke="#263238" stroke-miterlimit="10"/>
<path d="M371.742 267.586L378.186 261.431" stroke="#263238" stroke-miterlimit="10" stroke-linecap="round" stroke-linejoin="round"/>
<path d="M366.99 257.916C366.99 257.916 366.302 255.406 368.18 252.84C369.315 251.297 376.019 246.648 377.266 249.093C378.623 251.752 372.263 258.874 366.99 257.916Z" fill="#316FEA" stroke="#263238" stroke-miterlimit="10"/>
<path d="M366.99 257.916L373.434 251.752" stroke="#263238" stroke-miterlimit="10" stroke-linecap="round" stroke-linejoin="round"/>
<path d="M367.362 258.186C367.362 258.186 364.796 258.614 362.443 256.466C361.03 255.174 357.106 248.024 359.672 247.038C362.452 245.969 368.869 253.045 367.362 258.186Z" fill="#316FEA" stroke="#263238" stroke-miterlimit="10"/>
<path d="M367.362 258.186L361.913 251.129" stroke="#263238" stroke-miterlimit="10" stroke-linecap="round" stroke-linejoin="round"/>
<path d="M385.486 226.872V375.615" stroke="#263238" stroke-miterlimit="10" stroke-linecap="round" stroke-linejoin="round"/>
<path d="M399.471 274.764L387.271 392.397" stroke="#263238" stroke-miterlimit="10" stroke-linecap="round" stroke-linejoin="round"/>
<path d="M389.847 368.363L387.02 365.137" stroke="#263238" stroke-miterlimit="10" stroke-linecap="round" stroke-linejoin="round"/>
<path d="M387.02 365.137C387.02 365.137 387.708 362.626 385.82 360.06C384.686 358.517 377.982 353.877 376.735 356.323C375.387 358.972 381.757 366.094 387.02 365.137Z" fill="#316FEA" stroke="#263238" stroke-miterlimit="10"/>
<path d="M387.02 365.137L380.939 359.298" stroke="#263238" stroke-miterlimit="10" stroke-linecap="round" stroke-linejoin="round"/>
<path d="M393.297 334.78L389.103 331.275" stroke="#263238" stroke-miterlimit="10" stroke-linecap="round" stroke-linejoin="round"/>
<path d="M390.414 332.493C390.414 332.493 391.102 329.982 389.215 327.416C388.08 325.873 381.376 321.233 380.13 323.679C378.781 326.328 385.142 333.45 390.414 332.493Z" fill="#316FEA" stroke="#263238" stroke-miterlimit="10"/>
<path d="M390.414 332.493L384.323 326.654" stroke="#263238" stroke-miterlimit="10" stroke-linecap="round" stroke-linejoin="round"/>
<path d="M391.967 350.697L387.727 343.799" stroke="#263238" stroke-miterlimit="10" stroke-linecap="round" stroke-linejoin="round"/>
<path d="M389.019 345.863C389.019 345.863 389.707 343.352 387.82 340.786C386.685 339.243 379.981 334.603 378.735 337.049C377.386 339.708 383.756 346.83 389.019 345.863Z" fill="#316FEA" stroke="#263238" stroke-miterlimit="10"/>
<path d="M389.019 345.863L382.938 340.033" stroke="#263238" stroke-miterlimit="10" stroke-linecap="round" stroke-linejoin="round"/>
<path d="M395.417 313.349L391.372 308.691" stroke="#263238" stroke-miterlimit="10" stroke-linecap="round" stroke-linejoin="round"/>
<path d="M392.664 310.755C392.664 310.755 393.353 308.244 391.465 305.678C390.33 304.135 383.626 299.495 382.38 301.941C381.032 304.6 387.401 311.722 392.664 310.755Z" fill="#316FEA" stroke="#263238" stroke-miterlimit="10"/>
<path d="M392.664 310.755L386.583 304.925" stroke="#263238" stroke-miterlimit="10" stroke-linecap="round" stroke-linejoin="round"/>
<path d="M397.537 292.922L393.641 286.86" stroke="#263238" stroke-miterlimit="10" stroke-linecap="round" stroke-linejoin="round"/>
<path d="M394.933 288.933C394.933 288.933 395.622 286.423 393.734 283.857C392.599 282.313 385.895 277.674 384.649 280.119C383.3 282.778 389.661 289.891 394.933 288.933Z" fill="#316FEA" stroke="#263238" stroke-miterlimit="10"/>
<path d="M394.933 288.933L388.843 283.094" stroke="#263238" stroke-miterlimit="10" stroke-linecap="round" stroke-linejoin="round"/>
<path d="M390.684 362.022L396.245 356.137" stroke="#263238" stroke-miterlimit="10" stroke-linecap="round" stroke-linejoin="round"/>
<path d="M394.552 357.903C394.552 357.903 394.394 355.3 396.765 353.18C398.197 351.906 405.711 348.736 406.427 351.385C407.199 354.268 399.508 359.921 394.552 357.903Z" fill="#316FEA" stroke="#263238" stroke-miterlimit="10"/>
<path d="M394.552 357.903L402.131 353.198" stroke="#263238" stroke-miterlimit="10" stroke-linecap="round" stroke-linejoin="round"/>
<path d="M394.338 326.821L399.899 320.936" stroke="#263238" stroke-miterlimit="10" stroke-linecap="round" stroke-linejoin="round"/>
<path d="M398.207 322.702C398.207 322.702 398.049 320.099 400.42 317.979C401.852 316.705 409.365 313.535 410.081 316.185C410.853 319.058 403.163 324.72 398.207 322.702Z" fill="#316FEA" stroke="#263238" stroke-miterlimit="10"/>
<path d="M398.207 322.702L405.785 317.998" stroke="#263238" stroke-miterlimit="10" stroke-linecap="round" stroke-linejoin="round"/>
<path d="M395.938 311.35L401.498 305.465" stroke="#263238" stroke-miterlimit="10" stroke-linecap="round" stroke-linejoin="round"/>
<path d="M399.815 307.231C399.815 307.231 399.657 304.628 402.028 302.508C403.46 301.234 410.974 298.064 411.69 300.713C412.462 303.586 404.772 309.249 399.815 307.231Z" fill="#316FEA" stroke="#263238" stroke-miterlimit="10"/>
<path d="M399.815 307.231L407.385 302.526" stroke="#263238" stroke-miterlimit="10" stroke-linecap="round" stroke-linejoin="round"/>
<path d="M398.235 287.511L403.86 282.788" stroke="#263238" stroke-miterlimit="10" stroke-linecap="round" stroke-linejoin="round"/>
<path d="M402.168 284.554C402.168 284.554 402.01 281.951 404.381 279.831C405.813 278.557 413.327 275.387 414.043 278.037C414.814 280.91 407.124 286.572 402.168 284.554Z" fill="#316FEA" stroke="#263238" stroke-miterlimit="10"/>
<path d="M402.168 284.554L409.737 279.849" stroke="#263238" stroke-miterlimit="10"/>
<path d="M399.508 274.104C399.508 274.104 399.35 271.5 401.722 269.38C403.154 268.107 410.667 264.936 411.383 267.586C412.155 270.468 404.465 276.13 399.508 274.104Z" fill="#316FEA" stroke="#263238" stroke-miterlimit="10"/>
<path d="M399.508 274.104L407.087 269.408" stroke="#263238" stroke-miterlimit="10" stroke-linecap="round" stroke-linejoin="round"/>
<path d="M399.815 274.448C399.815 274.448 397.212 274.336 395.352 271.751C394.236 270.199 391.874 262.389 394.58 261.961C397.528 261.487 402.354 269.724 399.815 274.448Z" fill="#316FEA" stroke="#263238" stroke-miterlimit="10"/>
<path d="M399.815 274.448L395.938 266.414" stroke="#263238" stroke-miterlimit="10" stroke-linecap="round" stroke-linejoin="round"/>
<path d="M385.281 352.975L380.678 346.83" stroke="#263238" stroke-miterlimit="10" stroke-linecap="round" stroke-linejoin="round"/>
<path d="M382.175 348.754C382.175 348.754 382.603 346.188 380.464 343.826C379.172 342.413 372.03 338.48 371.045 341.046C369.975 343.826 377.042 350.251 382.175 348.754Z" fill="#316FEA" stroke="#263238" stroke-miterlimit="10"/>
<path d="M382.175 348.754L375.527 343.575" stroke="#263238" stroke-miterlimit="10" stroke-linecap="round" stroke-linejoin="round"/>
<path d="M385.439 323.307L380.678 318.872" stroke="#263238" stroke-miterlimit="10" stroke-linecap="round" stroke-linejoin="round"/>
<path d="M382.175 320.796C382.175 320.796 382.603 318.23 380.464 315.868C379.172 314.455 372.03 310.522 371.045 313.088C369.975 315.878 377.042 322.302 382.175 320.796Z" fill="#316FEA" stroke="#263238" stroke-miterlimit="10"/>
<path d="M382.175 320.796L375.527 315.627" stroke="#263238" stroke-miterlimit="10" stroke-linecap="round" stroke-linejoin="round"/>
<path d="M385.607 292.476L380.678 286.051" stroke="#263238" stroke-miterlimit="10" stroke-linecap="round" stroke-linejoin="round"/>
<path d="M382.175 287.985C382.175 287.985 382.603 285.419 380.464 283.057C379.172 281.644 372.03 277.711 371.045 280.277C369.975 283.057 377.042 289.482 382.175 287.985Z" fill="#316FEA" stroke="#263238" stroke-miterlimit="10"/>
<path d="M382.175 287.985L375.527 282.806" stroke="#263238" stroke-miterlimit="10" stroke-linecap="round" stroke-linejoin="round"/>
<path d="M385.281 268.358L380.678 264.211" stroke="#263238" stroke-miterlimit="10" stroke-linecap="round" stroke-linejoin="round"/>
<path d="M382.175 266.136C382.175 266.136 382.603 263.569 380.464 261.208C379.172 259.795 372.03 255.862 371.045 258.428C369.975 261.208 377.042 267.632 382.175 266.136Z" fill="#316FEA" stroke="#263238" stroke-miterlimit="10"/>
<path d="M382.175 266.136L375.527 260.957" stroke="#263238" stroke-miterlimit="10" stroke-linecap="round" stroke-linejoin="round"/>
<path d="M385.551 246.499L380.771 242.994" stroke="#263238" stroke-miterlimit="10" stroke-linecap="round" stroke-linejoin="round"/>
<path d="M382.175 244.193C382.175 244.193 382.603 241.627 380.464 239.265C379.172 237.852 372.03 233.919 371.045 236.485C369.975 239.265 377.042 245.69 382.175 244.193Z" fill="#316FEA" stroke="#263238" stroke-miterlimit="10"/>
<path d="M382.175 244.193L375.527 239.014" stroke="#263238" stroke-miterlimit="10" stroke-linecap="round" stroke-linejoin="round"/>
<path d="M386.453 360.404L390.423 355.365" stroke="#263238" stroke-miterlimit="10" stroke-linecap="round" stroke-linejoin="round"/>
<path d="M388.926 357.29C388.926 357.29 388.499 354.723 390.637 352.362C391.93 350.949 399.071 347.016 400.057 349.582C401.126 352.362 394.059 358.786 388.926 357.29Z" fill="#316FEA" stroke="#263238" stroke-miterlimit="10"/>
<path d="M388.926 357.29L395.975 351.832" stroke="#263238" stroke-miterlimit="10" stroke-linecap="round" stroke-linejoin="round"/>
<path d="M385.495 317.328L390.423 310.904" stroke="#263238" stroke-miterlimit="10" stroke-linecap="round" stroke-linejoin="round"/>
<path d="M388.926 312.828C388.926 312.828 388.499 310.262 390.637 307.9C391.93 306.487 399.071 302.554 400.057 305.12C401.126 307.91 394.059 314.334 388.926 312.828Z" fill="#316FEA" stroke="#263238" stroke-miterlimit="10"/>
<path d="M388.926 312.828L395.975 307.37" stroke="#263238" stroke-miterlimit="10" stroke-linecap="round" stroke-linejoin="round"/>
<path d="M385.495 295.386L390.423 288.961" stroke="#263238" stroke-miterlimit="10" stroke-linecap="round" stroke-linejoin="round"/>
<path d="M388.926 290.886C388.926 290.886 388.499 288.32 390.637 285.958C391.93 284.545 399.071 280.612 400.057 283.178C401.126 285.967 394.059 292.392 388.926 290.886Z" fill="#316FEA" stroke="#263238" stroke-miterlimit="10"/>
<path d="M388.926 290.886L395.975 285.428" stroke="#263238" stroke-miterlimit="10" stroke-linecap="round" stroke-linejoin="round"/>
<path d="M385.495 266.387L390.423 259.962" stroke="#263238" stroke-miterlimit="10" stroke-linecap="round" stroke-linejoin="round"/>
<path d="M388.926 261.887C388.926 261.887 388.499 259.32 390.637 256.959C391.93 255.546 399.071 251.613 400.057 254.179C401.126 256.959 394.059 263.383 388.926 261.887Z" fill="#316FEA" stroke="#263238" stroke-miterlimit="10"/>
<path d="M388.926 261.887L395.975 256.429" stroke="#263238" stroke-miterlimit="10" stroke-linecap="round" stroke-linejoin="round"/>
<path d="M385.709 241.348L390.535 237.583" stroke="#263238" stroke-miterlimit="10" stroke-linecap="round" stroke-linejoin="round"/>
<path d="M388.926 239.089C388.926 239.089 388.499 236.523 390.637 234.161C391.93 232.748 399.071 228.815 400.057 231.381C401.126 234.161 394.059 240.586 388.926 239.089Z" fill="#316FEA" stroke="#263238" stroke-miterlimit="10"/>
<path d="M388.926 239.089L395.975 233.631" stroke="#263238" stroke-miterlimit="10" stroke-linecap="round" stroke-linejoin="round"/>
<path d="M385.197 228.973C385.197 228.973 384.77 226.407 386.908 224.045C388.201 222.632 395.343 218.699 396.328 221.265C397.407 224.045 390.34 230.47 385.197 228.973Z" fill="#316FEA" stroke="#263238" stroke-miterlimit="10"/>
<path d="M385.197 228.973L392.246 223.515" stroke="#263238" stroke-miterlimit="10" stroke-linecap="round" stroke-linejoin="round"/>
<path d="M385.541 229.27C385.541 229.27 382.938 229.428 380.827 227.048C379.553 225.616 376.401 218.095 379.051 217.388C381.924 216.616 387.578 224.324 385.541 229.27Z" fill="#316FEA" stroke="#263238" stroke-miterlimit="10"/>
<path d="M385.542 229.27L380.855 221.693" stroke="#263238" stroke-miterlimit="10" stroke-linecap="round" stroke-linejoin="round"/>
<path d="M391.604 414.191H375.852L373.881 374.406H393.576L391.604 414.191Z" fill="#263238" stroke="#263238" stroke-miterlimit="10" stroke-linecap="round" stroke-linejoin="round"/>
</g>
<defs>
<clipPath id="clip0">
<rect width="454" height="424" fill="white"/>
</clipPath>
</defs>
</svg>
