<svg id="Isolation_Mode" data-name="Isolation Mode" xmlns="http://www.w3.org/2000/svg" viewBox="0 0 79.11 66.52"><defs><style>.cls-1{fill:#316fea;}</style></defs><title>link</title><path class="cls-1" d="M145.48,330.69H100.15a.65.65,0,0,1-.65-.65V277.7a.65.65,0,0,1,.65-.65h69.57a.65.65,0,0,1,.65.65v39.48a.65.65,0,1,1-1.3,0V278.35H100.8v51h44.68a.65.65,0,1,1,0,1.3Z" transform="translate(-99.5 -277.05)"/><path class="cls-1" d="M169.72,290.11H100.15a.65.65,0,1,1,0-1.3h69.57a.65.65,0,0,1,0,1.3Z" transform="translate(-99.5 -277.05)"/><path class="cls-1" d="M107.18,286.09a2.64,2.64,0,1,1,2.63-2.64A2.64,2.64,0,0,1,107.18,286.09Zm0-4a1.33,1.33,0,1,0,1.33,1.33A1.34,1.34,0,0,0,107.18,282.12Z" transform="translate(-99.5 -277.05)"/><path class="cls-1" d="M115.76,286.09a2.64,2.64,0,1,1,2.63-2.64A2.64,2.64,0,0,1,115.76,286.09Zm0-4a1.33,1.33,0,1,0,1.33,1.33A1.34,1.34,0,0,0,115.76,282.12Z" transform="translate(-99.5 -277.05)"/><path class="cls-1" d="M176.41,343.57H147a2.22,2.22,0,0,1-2.2-2.22V318.73a2.21,2.21,0,0,1,2.2-2.2h29.37a2.21,2.21,0,0,1,2.2,2.2v22.62A2.22,2.22,0,0,1,176.41,343.57ZM147,317.84a.9.9,0,0,0-.91.89v22.62a.92.92,0,0,0,.91.91h29.37a.91.91,0,0,0,.9-.91V318.73a.89.89,0,0,0-.9-.89Z" transform="translate(-99.5 -277.05)"/><path class="cls-1" d="M134,305.07H109.26a.65.65,0,1,1,0-1.3H134a.65.65,0,1,1,0,1.3Z" transform="translate(-99.5 -277.05)"/><path class="cls-1" d="M158.7,305.07H134a.65.65,0,1,1,0-1.3H158.7a.65.65,0,0,1,0,1.3Z" transform="translate(-99.5 -277.05)"/><path class="cls-1" d="M159,325.25v10.22l6.46-5.11Z" transform="translate(-99.5 -277.05)"/></svg>