<svg width="215" height="76" viewBox="0 0 215 76" fill="none" xmlns="http://www.w3.org/2000/svg">
<path d="M63.1035 7.76308C63.1035 4.29676 65.5484 1.58398 69.2388 1.58398C72.9292 1.58398 75.3741 4.29676 75.3741 7.76308C75.3741 9.00643 75.0604 10.1556 74.5069 11.1069L75.5402 12.03L73.8518 14.0269L72.717 13.0002C71.7667 13.6125 70.5766 13.9704 69.2388 13.9704C65.5484 13.9798 63.1035 11.2859 63.1035 7.76308ZM66.0835 7.76308C66.0835 9.77882 67.3844 11.2482 69.2388 11.2482C69.6909 11.2482 70.1245 11.1635 70.4936 10.9939L69.5248 10.1273L71.1763 8.14927L72.2004 9.05353C72.3203 8.65792 72.4033 8.23404 72.4033 7.7725C72.4033 5.81327 71.1117 4.32501 69.2388 4.32501C67.3659 4.32501 66.0835 5.80385 66.0835 7.76308Z" fill="#316FEA"/>
<path d="M79.0555 10.0212C79.1201 10.8219 79.8766 11.5095 80.9099 11.5095C81.9617 11.5095 82.5798 10.8125 82.7459 10.5581L84.5819 12.0087C84.3328 12.5362 83.1241 13.9868 80.8545 13.9868C77.9668 13.9868 76.1862 11.9522 76.1862 9.30538C76.1862 6.6774 77.9207 4.5769 80.504 4.5769C83.2994 4.5769 84.8125 6.40424 84.8125 9.45609C84.8125 9.62564 84.8125 9.81402 84.7941 10.0212H79.0555ZM79.1385 8.21275H81.9801C81.9432 7.49688 81.4266 6.88463 80.5593 6.88463C79.6367 6.87521 79.2031 7.58165 79.1385 8.21275Z" fill="#316FEA"/>
<path d="M91.095 8.41055C91.095 7.57223 90.6061 7.12953 89.9418 7.12953C89.176 7.12953 88.7424 7.69468 88.7424 8.41055V13.7513H85.9469V4.79355H88.6686V5.71664C89.0007 5.18916 89.7757 4.5769 90.8736 4.5769C93.6137 4.5769 93.8813 6.9694 93.8813 8.79674V13.7607H91.0858V8.41055H91.095Z" fill="#316FEA"/>
<path d="M101.576 10.8408L102.314 13.1768C101.733 13.5818 100.847 13.9774 99.7399 13.9774C96.9444 13.9774 94.9793 12.0276 94.9793 9.28659C94.9793 6.53613 97.0182 4.5769 99.7307 4.5769C100.865 4.5769 101.723 4.95368 102.342 5.39639L101.585 7.80775C101.096 7.3933 100.478 7.13897 99.8322 7.13897C98.5128 7.13897 97.7748 8.08091 97.7748 9.27717C97.7748 10.5959 98.642 11.4813 99.9337 11.4813C100.57 11.4719 101.188 11.161 101.576 10.8408Z" fill="#316FEA"/>
<path d="M107.241 4.5769C110.064 4.5769 112.057 6.55497 112.057 9.26775C112.057 11.9617 110.018 13.9774 107.241 13.9774C104.445 13.9774 102.48 11.9994 102.48 9.29601C102.471 6.58323 104.528 4.5769 107.241 4.5769ZM107.241 11.4719C108.394 11.4719 109.261 10.5488 109.261 9.26775C109.261 7.94904 108.375 7.08246 107.241 7.08246C106.087 7.08246 105.266 7.98672 105.266 9.30543C105.266 10.5959 106.097 11.4719 107.241 11.4719Z" fill="#316FEA"/>
<path d="M119.438 13.0551C119.189 13.3471 118.349 13.9782 117.067 13.9782C114.539 13.9782 112.767 12.0284 112.767 9.28739C112.767 6.50869 114.373 4.57773 116.91 4.57773C118.248 4.57773 119.069 5.26534 119.253 5.48199V1.41284H122.049V13.7521H119.438V13.0551ZM117.454 7.08327C116.319 7.08327 115.563 7.98752 115.563 9.30623C115.563 10.6344 116.329 11.4915 117.454 11.4915C118.654 11.4915 119.346 10.5025 119.346 9.30623C119.346 7.88391 118.552 7.08327 117.454 7.08327Z" fill="#316FEA"/>
<path d="M126.08 10.0212C126.145 10.8219 126.901 11.5095 127.935 11.5095C128.986 11.5095 129.605 10.8125 129.771 10.5581L131.607 12.0087C131.358 12.5362 130.149 13.9868 127.879 13.9868C124.992 13.9868 123.211 11.9522 123.211 9.30538C123.211 6.6774 124.945 4.5769 127.52 4.5769C130.315 4.5769 131.837 6.40424 131.837 9.45609C131.837 9.62564 131.837 9.81402 131.819 10.0212H126.08ZM126.163 8.21275H129.005C128.968 7.49688 128.451 6.88463 127.584 6.88463C126.662 6.87521 126.228 7.58165 126.163 8.21275Z" fill="#316FEA"/>
<path d="M145.806 12.377C142.466 12.377 139.744 9.59833 139.744 6.18852C139.744 2.77871 142.466 0 145.806 0C149.145 0 151.867 2.77871 151.867 6.18852C151.858 9.60775 149.145 12.377 145.806 12.377ZM145.806 3.09897C144.136 3.09897 142.77 4.49304 142.77 6.19794C142.77 7.90285 144.136 9.29691 145.806 9.29691C147.475 9.29691 148.841 7.90285 148.841 6.19794C148.841 4.49304 147.475 3.09897 145.806 3.09897Z" fill="#316FEA"/>
<path d="M141.377 17.7839C141.377 17.7839 142.189 17.1622 143.213 17.1622C144.403 17.1622 145.446 18.4244 147.614 18.4244C149.893 18.4244 151.258 16.6441 151.258 16.6441L150.169 14.8827C150.169 14.8827 149.357 15.5044 148.333 15.5044C147.143 15.5044 146.101 14.2422 143.932 14.2422C141.654 14.2422 140.288 16.0225 140.288 16.0225L141.377 17.7839Z" fill="#316FEA"/>
<path d="M9.42583 64.2649C9.42583 64.6459 9.46223 64.9525 9.53503 65.1754C9.61692 65.3984 9.71702 65.6493 9.85352 65.9094C9.90812 65.993 9.92632 66.0766 9.92632 66.1417C9.92632 66.2439 9.86262 66.346 9.73522 66.4482L9.10733 66.8849C9.01633 66.9499 8.92533 66.9778 8.84343 66.9778C8.74333 66.9778 8.64323 66.9221 8.54313 66.8385C8.40664 66.6805 8.27924 66.5226 8.17914 66.3553C8.07904 66.1788 7.97894 65.9837 7.86974 65.7514C7.08715 66.6991 6.10436 67.1636 4.92137 67.1636C4.07508 67.1636 3.40168 66.9221 2.91029 66.4297C2.41889 65.9373 2.16409 65.2776 2.16409 64.46C2.16409 63.5867 2.46439 62.8806 3.07408 62.3511C3.68378 61.8215 4.50277 61.5521 5.53106 61.5521C5.87686 61.5521 6.22266 61.5799 6.59575 61.6357C6.96885 61.6914 7.35105 61.7658 7.75144 61.8587V61.1061C7.75144 60.3257 7.58764 59.7869 7.27825 59.4617C6.95975 59.1458 6.41375 58.9879 5.64026 58.9879C5.28536 58.9879 4.93047 59.025 4.55737 59.1179C4.18427 59.2108 3.82028 59.3223 3.47448 59.471C3.31068 59.5453 3.19238 59.5825 3.11958 59.601C3.04678 59.6196 3.00129 59.6289 2.95579 59.6289C2.81929 59.6289 2.74649 59.5267 2.74649 59.313V58.8113C2.74649 58.6441 2.76469 58.5233 2.81929 58.449C2.87389 58.3747 2.95579 58.3096 3.10138 58.2353C3.45628 58.0495 3.87488 57.9009 4.36627 57.7708C4.85767 57.6407 5.37636 57.5757 5.93146 57.5757C7.12355 57.5757 7.99714 57.8544 8.56133 58.4026C9.11643 58.96 9.39853 59.7961 9.39853 60.9203V64.2464H9.42583V64.2649ZM5.34906 65.8165C5.67666 65.8165 6.02246 65.7514 6.38645 65.6307C6.75045 65.5099 7.06895 65.2776 7.34195 64.971C7.50574 64.7759 7.62404 64.5622 7.68774 64.3114C7.75144 64.0606 7.78784 63.7725 7.78784 63.4195V62.9921C7.49664 62.9178 7.18725 62.8621 6.85965 62.8156C6.54115 62.7784 6.22266 62.7506 5.91326 62.7506C5.23986 62.7506 4.74847 62.8806 4.42087 63.1594C4.09328 63.4381 3.92948 63.8283 3.92948 64.3393C3.92948 64.8224 4.04778 65.1754 4.30257 65.4263C4.53917 65.6957 4.88497 65.8165 5.34906 65.8165ZM13.4116 66.9221C13.2296 66.9221 13.1113 66.8942 13.0294 66.8199C12.9475 66.7548 12.8747 66.6155 12.8201 66.4204L10.4632 58.4955C10.3995 58.2911 10.3722 58.161 10.3722 58.0867C10.3722 57.9194 10.4541 57.8265 10.6088 57.8265H11.5916C11.7827 57.8265 11.9101 57.8544 11.9829 57.9287C12.0648 57.9938 12.1194 58.1331 12.1831 58.3282L13.8666 65.1104L15.4318 58.3282C15.4864 58.1238 15.541 57.9938 15.6229 57.9287C15.7048 57.8637 15.8413 57.8265 16.0233 57.8265H16.8241C17.0152 57.8265 17.1426 57.8544 17.2245 57.9287C17.3064 57.9938 17.3792 58.1331 17.4156 58.3282L18.9989 65.194L20.737 58.3282C20.8007 58.1238 20.8644 57.9938 20.9372 57.9287C21.0191 57.8637 21.1465 57.8265 21.3285 57.8265H22.2658C22.4296 57.8265 22.5206 57.9101 22.5206 58.0867C22.5206 58.1424 22.5115 58.1889 22.5024 58.2539C22.4933 58.3189 22.4751 58.3933 22.4296 58.514L20.009 66.439C19.9453 66.6434 19.8816 66.7734 19.7997 66.8385C19.7178 66.9035 19.5904 66.9406 19.4175 66.9406H18.553C18.3619 66.9406 18.2345 66.9128 18.1526 66.8385C18.0707 66.7641 17.9979 66.6341 17.9615 66.4297L16.4055 59.8147L14.8585 66.4204C14.8039 66.6248 14.7493 66.7548 14.6674 66.8292C14.5855 66.9035 14.449 66.9314 14.267 66.9314H13.4116V66.9221ZM26.3153 67.2008C25.7966 67.2008 25.2688 67.1358 24.7683 67.015C24.2678 66.8942 23.8765 66.7548 23.6126 66.6062C23.4488 66.5133 23.3396 66.4111 23.3032 66.3182C23.2668 66.2253 23.2395 66.1231 23.2395 66.0302V65.5099C23.2395 65.2962 23.3214 65.194 23.467 65.194C23.5307 65.194 23.5853 65.2033 23.649 65.2219C23.7127 65.2405 23.8037 65.2869 23.9038 65.3241C24.2496 65.482 24.6136 65.6028 25.0049 65.6864C25.4053 65.77 25.7966 65.8072 26.197 65.8072C26.834 65.8072 27.3254 65.6957 27.6621 65.4727C27.9988 65.2498 28.1808 64.9153 28.1808 64.4972C28.1808 64.2092 28.0898 63.9769 27.9078 63.7818C27.7258 63.5867 27.3891 63.4102 26.8977 63.2523L25.4417 62.7877C24.7046 62.5555 24.1677 62.2024 23.831 61.7379C23.5034 61.2826 23.3305 60.781 23.3305 60.2514C23.3305 59.824 23.4215 59.4431 23.6035 59.1179C23.7855 58.7928 24.0221 58.5047 24.3224 58.2818C24.6227 58.0495 24.9685 57.873 25.3689 57.7522C25.7693 57.6314 26.1879 57.5757 26.6338 57.5757C26.8522 57.5757 27.0888 57.585 27.3072 57.6128C27.5347 57.6407 27.7531 57.6872 27.9624 57.7243C28.1626 57.7801 28.3537 57.8265 28.5357 57.8916C28.7176 57.9566 28.8541 58.0123 28.9542 58.0774C29.0907 58.161 29.1908 58.2446 29.2545 58.3375C29.3182 58.4211 29.3455 58.5326 29.3455 58.672V59.1551C29.3455 59.3688 29.2636 59.4803 29.118 59.4803C29.0361 59.4803 28.9087 59.4431 28.7358 59.3595C28.1626 59.0901 27.5165 58.96 26.8067 58.96C26.2334 58.96 25.7784 59.0529 25.469 59.248C25.1596 59.4431 24.9958 59.7404 24.9958 60.1585C24.9958 60.4465 25.0959 60.6881 25.2961 60.8832C25.4963 61.0783 25.8694 61.2734 26.3972 61.4499L27.8259 61.9144C28.5447 62.1467 29.0725 62.4811 29.3819 62.8992C29.6913 63.3173 29.846 63.8004 29.846 64.33C29.846 64.7666 29.755 65.1661 29.5821 65.5192C29.4001 65.8722 29.1635 66.1788 28.845 66.4204C28.5357 66.6805 28.1626 66.857 27.7349 66.9964C27.2981 67.1358 26.8249 67.2008 26.3153 67.2008Z" fill="#252F3E"/>
<path fill-rule="evenodd" clip-rule="evenodd" d="M28.2173 72.1911C24.914 74.681 20.1183 76.0002 15.987 76.0002C10.1994 76.0002 4.99428 73.8169 1.05402 70.1843C0.744623 69.8963 1.02672 69.5061 1.39982 69.7291C5.65858 72.2468 10.9092 73.7798 16.3419 73.7798C20.0091 73.7798 24.0313 72.9994 27.735 71.4014C28.281 71.1505 28.7542 71.773 28.2173 72.1911Z" fill="#FF9900"/>
<path fill-rule="evenodd" clip-rule="evenodd" d="M29.5914 70.5834C29.1728 70.026 26.7977 70.314 25.7239 70.4534C25.4054 70.4905 25.3508 70.2118 25.642 69.9888C27.5257 68.6324 30.6288 69.0226 30.9928 69.4779C31.3568 69.9424 30.8927 73.1104 29.1273 74.6248C28.8543 74.857 28.5995 74.7363 28.7178 74.4297C29.1182 73.417 30.01 71.1316 29.5914 70.5834Z" fill="#FF9900"/>
<path d="M57.6864 61.8093H57.7489L57.7176 61.7774L59.967 59.481V59.4385C58.0821 57.7375 55.4579 57.1528 53.042 57.8863C50.626 58.6305 48.762 60.5867 48.0955 63.0744C48.1372 63.0532 48.1788 63.0425 48.2205 63.0319C49.0536 62.4684 50.0429 62.1495 51.0946 62.1389C51.4383 62.1389 51.7923 62.1708 52.1256 62.2345C52.1256 62.2345 52.136 62.2345 52.1568 62.2345C53.6043 60.6186 56.0307 60.4272 57.6968 61.8093H57.6864Z" fill="#EA4335"/>
<path d="M62.1952 63.0749C61.8203 61.6715 61.0601 60.4169 59.9875 59.4495L57.707 61.7778C58.665 62.5858 59.2169 63.7872 59.1961 65.063V65.4776C61.9036 65.4776 61.9036 69.6133 59.1961 69.6133H55.1348L55.1244 69.6239V72.9091H55.114L55.1348 72.9304H59.1857C61.5079 72.9517 63.5698 71.4101 64.2675 69.1455C64.9652 66.8703 64.1217 64.4038 62.1952 63.0749Z" fill="#4285F4"/>
<path d="M51.0737 72.8984H55.1246V69.5811H51.0737C50.7821 69.5811 50.5009 69.5173 50.2406 69.4004L47.8975 71.7926L47.8871 71.8139C48.8139 72.5262 49.9282 72.909 51.0737 72.8984Z" fill="#34A853"/>
<path d="M51.0737 62.1495C48.8244 62.1602 46.825 63.638 46.1064 65.8175C45.3879 67.997 46.1064 70.3998 47.8871 71.8032L50.2406 69.4004C48.9493 68.805 48.6369 67.072 49.6366 66.0514C50.6363 65.0307 52.3337 65.3391 52.9169 66.668L55.2808 64.2546C54.2811 62.9256 52.7295 62.1389 51.0737 62.1495Z" fill="#FBBC05"/>
<path d="M75.3166 70.5797C73.9004 70.601 72.5466 70.0269 71.5573 69.0063C70.5368 68.0175 69.964 66.6461 69.9849 65.2108C69.964 63.7755 70.5368 62.404 71.5573 61.4153C72.5466 60.384 73.9004 59.7993 75.3166 59.8099C76.6599 59.7887 77.9616 60.3203 78.9197 61.2984L77.9096 62.3509C77.2119 61.6705 76.2851 61.2877 75.3166 61.309C74.3065 61.2984 73.3276 61.713 72.6403 62.4678C71.9218 63.1908 71.5261 64.1902 71.5469 65.232C71.5365 66.2527 71.9322 67.2414 72.6403 67.9537C74.1086 69.4528 76.4725 69.4741 77.9721 68.0175C78.4198 67.5178 78.6906 66.8799 78.7531 66.2102H75.3374V64.7217H80.1797C80.2318 65.0194 80.2422 65.3277 80.2318 65.6254C80.2943 66.8906 79.8361 68.1345 78.9822 69.0594C78.0241 70.0801 76.6912 70.6329 75.3166 70.5797ZM86.5528 69.6016C85.199 70.9199 83.0747 70.9199 81.7313 69.6016C81.0753 68.9531 80.7212 68.06 80.7421 67.1351C80.7212 66.2102 81.0753 65.3065 81.7313 64.6686C83.0747 63.3503 85.2095 63.3503 86.5528 64.6686C87.2089 65.3171 87.5629 66.2102 87.5421 67.1351C87.5629 68.0494 87.2089 68.9531 86.5528 69.6016ZM82.7935 68.6235C83.5225 69.4209 84.7617 69.4209 85.4906 68.6235C85.8655 68.2195 86.0738 67.6773 86.0634 67.1245C86.0738 66.561 85.8759 66.0188 85.4906 65.6148C84.7513 64.828 83.5225 64.828 82.7831 65.6148C82.3978 66.0188 82.2 66.561 82.2104 67.1245C82.2 67.6879 82.4082 68.2302 82.7935 68.6235ZM93.9777 69.6016C92.6239 70.9199 90.4995 70.9199 89.1458 69.6016C88.4897 68.9531 88.1357 68.06 88.1565 67.1351C88.1357 66.2102 88.4897 65.3065 89.1458 64.6686C90.4995 63.3503 92.6239 63.3503 93.9777 64.6686C94.6337 65.3171 94.9878 66.2102 94.967 67.1351C94.9878 68.0494 94.6233 68.9531 93.9777 69.6016ZM90.208 68.6235C90.9369 69.4209 92.1761 69.4209 92.9051 68.6235C93.28 68.2195 93.4882 67.6773 93.4778 67.1245C93.4882 66.561 93.2904 66.0188 92.9051 65.6148C92.1657 64.828 90.9369 64.828 90.1975 65.6148C89.8122 66.0188 89.6144 66.561 89.6248 67.1245C89.6144 67.6879 89.8227 68.2302 90.208 68.6235ZM98.8512 73.6948C98.1639 73.7161 97.4974 73.5034 96.9559 73.0782C96.4769 72.7061 96.0916 72.217 95.8521 71.6429L97.1538 71.0901C97.2996 71.4303 97.5183 71.7279 97.7994 71.9512C98.1014 72.1957 98.4763 72.334 98.8616 72.3233C99.3615 72.3552 99.8405 72.1638 100.184 71.8024C100.528 71.3771 100.694 70.8349 100.663 70.2927V69.793H100.611C100.174 70.3246 99.5073 70.6223 98.8304 70.5797C97.9661 70.5797 97.1434 70.2183 96.5498 69.5697C95.9146 68.9318 95.5605 68.0494 95.5709 67.1351C95.5605 66.2102 95.9042 65.3277 96.5498 64.6792C97.133 64.0307 97.9661 63.6586 98.8304 63.6586C99.1949 63.6586 99.5489 63.7436 99.8821 63.9031C100.163 64.0307 100.424 64.2221 100.622 64.4559H100.674V63.9031H102.09V70.1013C102.163 71.0901 101.84 72.0682 101.184 72.8017C100.549 73.3971 99.7051 73.7267 98.8512 73.6948ZM98.9553 69.2295C99.4448 69.2402 99.9238 69.0275 100.247 68.6448C100.601 68.2302 100.788 67.6986 100.767 67.1564C100.788 66.6035 100.601 66.0613 100.247 65.6361C99.9238 65.2533 99.4552 65.0407 98.9553 65.0513C98.4451 65.0407 97.9661 65.2533 97.6224 65.6361C97.2475 66.0401 97.0392 66.5823 97.0497 67.1457C97.0392 67.6986 97.2475 68.2408 97.6224 68.6342C97.9556 69.0169 98.4451 69.2295 98.9553 69.2295ZM104.589 70.3777H103.1V60.2139H104.589V70.3777ZM108.661 70.5797C107.765 70.601 106.89 70.2395 106.266 69.591C105.63 68.9318 105.276 68.0494 105.297 67.1245C105.266 66.1995 105.599 65.2958 106.224 64.6367C106.818 63.9988 107.64 63.6479 108.505 63.6692C108.9 63.6692 109.286 63.7436 109.64 63.8925C109.962 64.0307 110.264 64.222 110.514 64.4772C110.733 64.6898 110.921 64.9237 111.087 65.1789C111.222 65.4022 111.337 65.6254 111.42 65.8593L111.577 66.2527L107.015 68.1664C107.297 68.8255 107.953 69.2402 108.661 69.2189C109.348 69.2189 109.973 68.8574 110.327 68.2621L111.462 69.0488C111.17 69.4741 110.796 69.8355 110.369 70.1119C109.869 70.4309 109.275 70.601 108.661 70.5797ZM106.765 67.0182L109.796 65.7317C109.702 65.5085 109.536 65.3171 109.327 65.2002C109.088 65.0619 108.817 64.9875 108.546 64.9982C108.088 65.0088 107.64 65.2108 107.317 65.551C106.922 65.9337 106.724 66.4759 106.765 67.0182Z" fill="#5F6368"/>
<path d="M119.366 70.5802C118.085 70.6015 116.856 70.0911 115.96 69.1662C115.054 68.2413 114.565 66.9867 114.596 65.679C114.565 64.3714 115.054 63.1168 115.96 62.1919C116.856 61.2669 118.095 60.7566 119.366 60.7779C120.667 60.7354 121.906 61.2988 122.739 62.3088L121.917 63.1168C121.302 62.3301 120.355 61.8836 119.366 61.9261C118.418 61.9048 117.502 62.2769 116.825 62.9574C116.127 63.6697 115.752 64.6584 115.794 65.6684C115.752 66.6784 116.127 67.6565 116.825 68.3795C117.502 69.0599 118.407 69.432 119.366 69.4107C120.469 69.4214 121.521 68.9217 122.219 68.0499L123.041 68.8898C122.615 69.4107 122.073 69.836 121.469 70.1124C120.803 70.442 120.094 70.6015 119.366 70.5802Z" fill="#5F6368"/>
<path d="M124.073 70.378H125.249V60.9797H124.073V70.378Z" fill="#5F6368"/>
<path d="M127.176 64.721C128.467 63.4133 130.539 63.4133 131.82 64.721C132.435 65.3802 132.757 66.252 132.726 67.1663C132.757 68.07 132.424 68.9525 131.82 69.6116C130.539 70.9193 128.457 70.9193 127.176 69.6116C126.572 68.9525 126.239 68.0806 126.27 67.1663C126.239 66.2626 126.561 65.3802 127.176 64.721ZM128.051 68.8461C128.832 69.686 130.154 69.686 130.935 68.8461C131.352 68.389 131.57 67.783 131.549 67.1557C131.581 66.5284 131.352 65.9224 130.935 65.4652C130.154 64.6253 128.832 64.6253 128.051 65.4652C127.634 65.9224 127.415 66.5284 127.447 67.1557C127.415 67.783 127.634 68.389 128.051 68.8461Z" fill="#5F6368"/>
<path d="M139.266 70.3784H138.131V69.4853H138.1C137.902 69.8255 137.61 70.1019 137.266 70.2933C136.912 70.5059 136.506 70.6123 136.1 70.6123C135.423 70.6548 134.767 70.389 134.309 69.8787C133.882 69.3258 133.663 68.6242 133.705 67.9119V63.9569H134.882V67.6886C134.882 68.89 135.403 69.4853 136.433 69.4853C136.902 69.4959 137.35 69.2833 137.631 68.9006C137.933 68.5072 138.1 68.0075 138.089 67.5079V63.9463H139.266V70.3784Z" fill="#5F6368"/>
<path d="M143.275 70.5801C142.463 70.5801 141.692 70.2187 141.171 69.5914C140.578 68.9322 140.265 68.0498 140.286 67.1567C140.265 66.2531 140.578 65.3813 141.171 64.7221C141.703 64.0948 142.473 63.7333 143.275 63.744C143.723 63.744 144.171 63.8397 144.566 64.0629C144.92 64.2437 145.212 64.5095 145.42 64.8497H145.472L145.42 63.9566V60.9797H146.597V70.3781H145.462V69.4851H145.41C145.201 69.8253 144.91 70.0911 144.556 70.2718C144.15 70.4845 143.712 70.5908 143.275 70.5801ZM143.462 69.4851C144.004 69.4957 144.514 69.2618 144.879 68.8578C145.274 68.39 145.483 67.784 145.451 67.1674C145.483 66.5507 145.285 65.9447 144.879 65.4769C144.118 64.6158 142.796 64.6158 142.025 65.4769C141.619 65.9447 141.421 66.5507 141.453 67.1674C141.411 67.784 141.619 68.39 142.025 68.8578C142.4 69.2618 142.921 69.4957 143.462 69.4851Z" fill="#5F6368"/>
<path d="M169.534 71.0663C172.153 70.5938 174.316 70.2031 174.341 70.1977L174.386 70.1878L171.914 67.1852C170.554 65.5338 169.441 64.1759 169.441 64.1683C169.441 64.1534 171.994 56.9752 172.008 56.9496C172.013 56.941 173.75 60.0039 176.22 64.3737C178.532 68.4648 180.438 71.8383 180.456 71.8698L180.489 71.9274L172.63 71.9265L164.772 71.9256L169.534 71.0663ZM199.67 70.3402C198.474 70.262 197.778 69.5664 197.593 68.2648C197.545 67.9185 197.544 67.9095 197.539 65.6614L197.534 63.4857H198.064H198.593L198.597 65.59C198.601 67.4865 198.603 67.709 198.621 67.8426C198.693 68.3839 198.837 68.7481 199.081 69.0093C199.276 69.2184 199.505 69.3411 199.822 69.4059C199.971 69.4365 200.397 69.4365 200.533 69.4059C200.854 69.3335 201.111 69.191 201.339 68.9594C201.598 68.695 201.789 68.3205 201.882 67.8965L201.913 67.7535L201.916 65.6313L201.92 63.5091H202.46H203.001V66.8453V70.1815H202.466H201.931V69.6523C201.931 69.2926 201.927 69.1244 201.919 69.1271C201.912 69.1294 201.885 69.1721 201.857 69.2224C201.673 69.5655 201.366 69.8793 201.029 70.0686C200.627 70.2957 200.223 70.3762 199.67 70.3402ZM211.812 70.3348C211.389 70.3024 210.945 70.1541 210.581 69.9248C209.815 69.441 209.362 68.6438 209.229 67.5463C209.183 67.1668 209.178 66.6565 209.216 66.3341C209.302 65.6133 209.579 64.9056 209.974 64.4003C210.076 64.2708 210.306 64.0361 210.432 63.9327C210.775 63.6534 211.176 63.4583 211.601 63.363C211.849 63.3077 212.286 63.2816 212.549 63.3063C213.211 63.3688 213.817 63.6872 214.229 64.1876C214.648 64.6961 214.878 65.4065 214.907 66.2819C214.912 66.4191 214.913 66.6596 214.91 66.8161L214.904 67.1011L212.587 67.1043L210.27 67.1074V67.2131C210.27 67.5346 210.347 67.9006 210.479 68.2117C210.593 68.4801 210.79 68.7733 210.95 68.9154C211.28 69.2063 211.684 69.3807 212.125 69.4225C212.289 69.4383 212.706 69.4216 212.893 69.3924C213.425 69.3088 213.931 69.0957 214.34 68.7827C214.388 68.7458 214.434 68.7117 214.442 68.7063C214.454 68.6986 214.456 68.7949 214.456 69.1991L214.456 69.7013L214.346 69.7705C213.884 70.0623 213.355 70.2498 212.793 70.32C212.626 70.3407 212.012 70.3501 211.812 70.3348ZM213.828 66.0989C213.828 65.5607 213.606 64.9627 213.292 64.6547C213.067 64.4349 212.797 64.3009 212.474 64.2496C212.321 64.2254 211.999 64.2348 211.839 64.2681C211.499 64.3382 211.217 64.4906 210.972 64.7384C210.714 64.9987 210.52 65.3152 210.399 65.6754C210.355 65.8049 210.303 66.0175 210.288 66.1362L210.28 66.1924H212.054H213.828V66.0989H213.828ZM182.398 70.1671C182.4 70.159 183.187 68.0485 184.146 65.4775L185.89 60.8028H186.45H187.01L187.057 60.9247C187.199 61.2965 190.547 70.172 190.547 70.1765C190.547 70.1797 190.279 70.1819 189.952 70.1819H189.356L188.873 68.8699L188.39 67.5579H186.447H184.504L184.487 67.6025C184.478 67.6267 184.272 68.2171 184.029 68.914L183.588 70.181H182.991C182.517 70.1819 182.394 70.1788 182.398 70.1671ZM188.035 66.5571C188.035 66.5548 187.711 65.656 187.314 64.5594C186.571 62.5078 186.529 62.3846 186.471 62.055C186.443 61.9008 186.429 61.8963 186.413 62.037C186.401 62.1378 186.351 62.363 186.312 62.488C186.292 62.5501 185.958 63.4871 185.569 64.5702C185.179 65.6533 184.861 66.5445 184.861 66.5499C184.861 66.5553 185.575 66.5602 186.448 66.5602C187.321 66.5607 188.035 66.5593 188.035 66.5571ZM190.908 70.0111V69.8402L192.844 67.1232L194.78 64.4061L193.027 64.4003L191.274 64.3944L191.271 63.9403L191.268 63.4862H193.803H196.339V63.6395V63.7928L194.403 66.5247C193.338 68.0274 192.467 69.2593 192.467 69.2625C192.467 69.2656 193.328 69.2679 194.38 69.2679H196.293V69.7251V70.1824H193.601H190.909V70.0111H190.908ZM205.114 70.1738C205.11 70.1693 205.106 68.6627 205.106 66.826V63.4857H205.635H206.164V64.1745C206.164 64.5531 206.168 64.8634 206.174 64.8634C206.18 64.8634 206.205 64.8013 206.231 64.7258C206.35 64.3787 206.557 64.054 206.822 63.7964C207.062 63.564 207.336 63.425 207.658 63.372C207.749 63.3571 207.826 63.354 208.007 63.3589C208.235 63.3648 208.354 63.3819 208.492 63.4282L208.536 63.4426V64.0032V64.5639L208.411 64.5001C208.19 64.3872 207.972 64.3427 207.71 64.3566C207.54 64.3656 207.428 64.3881 207.292 64.4403C207.011 64.5477 206.784 64.7375 206.625 64.996C206.395 65.3705 206.231 65.8525 206.182 66.295C206.173 66.3745 206.168 67.0215 206.166 68.2971L206.163 70.1819H205.642C205.357 70.1819 205.119 70.1783 205.114 70.1738ZM160.102 70.1505C160.102 70.1464 161.268 68.0813 162.692 65.5616L165.281 60.9804L168.298 58.3951C169.957 56.9734 171.32 55.808 171.325 55.8062C171.33 55.8044 171.309 55.8601 171.277 55.9307C171.245 56.0013 169.77 59.2301 168 63.1053L164.782 70.1518L162.442 70.155C161.155 70.1568 160.102 70.155 160.102 70.1505Z" fill="#0089D6"/>
<path d="M18.0665 43.893V40.7289C21.3502 40.7289 23.8867 37.4235 22.6231 33.9203C22.1526 32.6019 21.138 31.566 19.8559 31.0951C17.3285 30.1252 14.506 31.4341 13.5467 34.0144C13.3438 34.5701 13.2331 35.1539 13.2331 35.7472H10.1339C10.1339 30.4736 15.1517 26.3018 20.6491 28.0346C23.0474 28.8068 24.9198 30.7184 25.6669 33.1669C27.3549 38.7607 23.2687 43.893 18.0665 43.893Z" fill="#0080FF"/>
<path d="M18.1124 40.729H15.0132V37.612H18.1124V40.729ZM15.0132 43.1774H12.6704V40.729H15.0132V43.1774ZM12.6611 40.729H10.6965V38.7138H12.6611V40.729ZM38.4325 32.3385C37.5378 31.7169 36.3664 31.3779 35.0566 31.3779H32.1972V40.729H35.0566C36.3756 40.729 37.5009 40.39 38.4325 39.7214C38.9491 39.3447 39.3457 38.8268 39.604 38.2335C39.8899 37.612 40.0283 36.8398 40.0283 36.0299C40.0283 35.2201 39.8899 34.4479 39.604 33.8734C39.3273 33.1577 38.9491 32.6775 38.4325 32.3385ZM33.876 32.9694H34.7707C35.7576 32.9694 36.597 33.1577 37.2611 33.5909C37.9621 34.0241 38.2942 34.8434 38.2942 36.0393C38.2942 37.2353 37.916 38.1017 37.2611 38.5819C36.6523 38.968 35.8499 39.2035 34.8168 39.2035H33.876V32.9694ZM42.0483 31.2367C41.7808 31.2273 41.5317 31.3308 41.3473 31.5286C41.1259 31.6981 41.006 31.9712 41.0152 32.2443C41.0152 32.7999 41.458 33.2519 42.0022 33.2519C42.5464 33.2519 42.9891 32.7999 42.9891 32.2443C42.9983 31.9712 42.8969 31.7169 42.7032 31.5286C42.5648 31.3403 42.325 31.2367 42.0483 31.2367ZM41.1905 34.1183H42.8323V40.6819H41.1997L41.1905 34.1183ZM48.7079 34.6927C48.2375 34.2595 47.6748 33.977 47.066 33.977C46.2267 33.9582 45.4242 34.3066 44.8615 34.9376C44.2712 35.5685 43.9576 36.416 43.9668 37.2824C43.9668 38.1958 44.2528 39.0057 44.8154 39.6272C45.3781 40.2488 46.1252 40.5407 47.0199 40.5407C47.5918 40.5501 48.1545 40.3618 48.6156 40.0133V40.1546C48.6156 40.6819 48.4773 41.1151 48.1914 41.407C47.9054 41.699 47.5272 41.8402 47.0199 41.8402C46.2636 41.8402 45.8024 41.5483 45.2397 40.7384L44.1052 41.8402L44.1513 41.8873C44.3819 42.2263 44.7601 42.5653 45.2305 42.8949C45.7009 43.2245 46.3097 43.3752 47.0107 43.3752C47.9977 43.3752 48.7448 43.0833 49.3074 42.4617C49.8701 41.8402 50.2021 41.068 50.2021 40.0604V34.1089H48.6064V34.6833H48.7079V34.6927ZM48.2928 38.5725C48.0069 38.9115 47.6287 39.0528 47.1583 39.0528C46.6879 39.0528 46.3097 38.9115 46.0238 38.5725C45.7378 38.2335 45.5995 37.8003 45.5995 37.2824C45.5995 36.7645 45.747 36.3219 46.033 35.9828C46.3189 35.6438 46.6971 35.5026 47.1675 35.5026C47.6379 35.5026 48.0161 35.6438 48.302 35.9828C48.588 36.3219 48.7263 36.755 48.7263 37.273C48.7263 37.7909 48.588 38.2335 48.302 38.5631L48.2928 38.5725ZM51.7241 34.1183H53.3659V40.6819H51.7149V34.1183H51.7241ZM52.5173 31.2367C51.9823 31.2273 51.5488 31.651 51.5304 32.1972C51.5304 32.216 51.5304 32.2255 51.5304 32.2443C51.5304 32.7999 51.9731 33.2519 52.5173 33.2519C53.0615 33.2519 53.5043 32.7999 53.5043 32.2443C53.5135 31.6981 53.0984 31.2555 52.5634 31.2367C52.545 31.2367 52.5266 31.2367 52.5173 31.2367ZM56.8802 32.3385H55.2845V34.1089H54.3436V35.5967H55.2845V38.3277C55.2845 39.194 55.469 39.8156 55.801 40.1452C56.1331 40.4842 56.7418 40.6725 57.5351 40.6725C57.8026 40.6819 58.0701 40.6631 58.3376 40.6254H58.4298V39.1375L57.8671 39.1846C57.489 39.1846 57.203 39.1375 57.1108 38.9963C56.9724 38.855 56.9263 38.5631 56.9263 38.1299V35.6438H58.4298V34.1559H56.9356L56.8802 32.3385ZM65.9841 31.3779H67.626V40.729H65.9841V31.3779ZM84.0075 38.3842C83.7677 38.6667 83.5002 38.921 83.205 39.1564C82.9468 39.3165 82.6516 39.4012 82.3564 39.3918C81.9137 39.3918 81.4894 39.194 81.185 38.855C80.8529 38.4689 80.7146 38.0358 80.7146 37.4613C80.7146 36.8869 80.8529 36.4537 81.185 36.0676C81.4709 35.7098 81.9045 35.5214 82.3564 35.5402C82.873 35.5402 83.4356 35.8793 83.906 36.4537L84.9852 35.399C84.2842 34.4855 83.3895 34.0524 82.3103 34.0524C81.4156 34.0524 80.6685 34.3914 80.0136 35.06C79.3956 35.7192 79.0635 36.595 79.0727 37.5084C79.0727 38.4689 79.4048 39.3259 80.0136 39.9568C80.6039 40.616 81.4433 40.9833 82.3103 40.9644C83.4817 40.9644 84.4226 40.4371 85.0775 39.4766L84.0075 38.3842ZM90.621 35.0694C90.3719 34.7398 90.0491 34.4761 89.6802 34.2972C89.2559 34.0994 88.7854 33.9959 88.315 34.0053C87.4203 34.0053 86.6732 34.3443 86.1105 35.0129C85.5755 35.7098 85.2988 36.5761 85.3081 37.4613C85.3081 38.4689 85.594 39.2788 86.2028 39.9097C86.8115 40.5313 87.5679 40.8703 88.5456 40.8703C89.6248 40.8703 90.5195 40.4371 91.2205 39.5236L91.2667 39.4766L90.1875 38.4219C90.0952 38.5631 89.9569 38.6573 89.8093 38.8079C89.6802 38.9492 89.5141 39.0622 89.3389 39.147C89.099 39.2882 88.8223 39.3541 88.5364 39.3353C88.1305 39.3447 87.7247 39.2035 87.4019 38.9492C87.1159 38.7138 86.9776 38.3748 86.9315 37.9416H91.2482V37.3201C91.2574 36.8963 91.1929 36.4725 91.0637 36.0676C90.9992 35.7003 90.8331 35.3519 90.5933 35.06L90.621 35.0694ZM87.1067 36.6044C87.1805 36.3124 87.3281 36.0488 87.531 35.8322C87.7524 35.6062 88.066 35.4837 88.3796 35.4932C88.7578 35.4932 89.0806 35.5873 89.2743 35.8322C89.4588 36.0205 89.5602 36.3124 89.6064 36.6044H87.1067ZM96.8655 34.6456C96.3951 34.2124 95.6941 34.0241 94.8455 34.0241C94.329 34.0429 93.8217 34.1559 93.342 34.3631C92.9177 34.5985 92.4934 34.9376 92.2628 35.4178L93.2959 36.4254C93.7202 35.7098 94.1906 35.4649 94.8455 35.4649C95.1499 35.4555 95.4543 35.5591 95.6941 35.7568C95.9155 35.9263 96.0354 36.1994 96.0261 36.4725V36.8115C95.648 36.6797 95.2514 36.6138 94.8547 36.6232C94.0523 36.6232 93.3974 36.8115 92.8808 37.1976C92.3643 37.5837 92.1245 38.1582 92.1245 38.8268C92.1245 39.4483 92.3089 39.9286 92.7332 40.3147C93.1575 40.7008 93.6741 40.842 94.2828 40.842C94.8916 40.842 95.4543 40.6066 96.0169 40.164V40.6914H97.6126V36.4725C97.6219 35.6909 97.3913 35.0788 96.8655 34.6456ZM94.0061 38.1864C94.1906 38.0452 94.4304 37.9981 94.7625 37.9981C95.1776 38.0169 95.5926 38.0923 95.98 38.2335V38.855C95.5926 39.2035 95.0853 39.3918 94.5688 39.3824C94.2829 39.3824 94.0523 39.3353 93.9047 39.194C93.7571 39.0528 93.6741 38.9021 93.6741 38.7138C93.711 38.4972 93.8309 38.3088 94.0061 38.1864ZM103.857 34.7398C103.387 34.2124 102.778 33.9676 101.976 33.9676C101.321 33.9676 100.804 34.1559 100.426 34.542V34.1559H98.8302V40.7196H100.472V37.0752C100.472 36.595 100.564 36.1618 100.804 35.8793C101.035 35.5967 101.385 35.4367 101.745 35.4461C102.068 35.4272 102.391 35.5685 102.594 35.8322C102.815 36.1429 102.926 36.5102 102.926 36.8869V40.7196H104.558V36.8775C104.521 35.9828 104.281 35.2672 103.857 34.7398ZM63.9641 34.6456C63.4937 34.2124 62.7927 34.0241 61.9441 34.0241C61.4276 34.0429 60.9202 34.1559 60.4406 34.3631C60.0163 34.5985 59.592 34.9376 59.3614 35.4178L60.3945 36.4254C60.8188 35.7098 61.2892 35.4649 61.9441 35.4649C62.2485 35.4555 62.5529 35.5591 62.7927 35.7568C63.0141 35.9263 63.134 36.1994 63.1247 36.4725V36.8115C62.7466 36.6797 62.3499 36.6138 61.9533 36.6232C61.1508 36.6232 60.4959 36.8115 59.9794 37.1976C59.4629 37.5837 59.2231 38.1582 59.2231 38.8268C59.2231 39.4483 59.4075 39.9286 59.8318 40.3147C60.2561 40.7008 60.7727 40.842 61.3814 40.842C61.9902 40.842 62.5529 40.6066 63.1155 40.164V40.6914H64.7112V36.4725C64.7205 35.6909 64.4345 35.0788 63.9641 34.6456ZM61.0586 38.1864C61.2431 38.0452 61.4829 37.9981 61.8149 37.9981C62.23 38.0169 62.6451 38.0923 63.0325 38.2335V38.855C62.6451 39.2035 62.1378 39.3918 61.6213 39.3824C61.3353 39.3824 61.1047 39.3353 60.9571 39.194C60.8096 39.0528 60.7265 38.9021 60.7265 38.7138C60.8003 38.516 60.911 38.3371 61.0586 38.1864ZM73.4923 40.8703C70.9004 40.8703 68.7974 38.7232 68.7974 36.077C68.7974 33.4308 70.9004 31.2838 73.4923 31.2838C76.0842 31.2838 78.1873 33.4308 78.1873 36.077C78.178 38.7232 76.0842 40.8609 73.4923 40.8703ZM73.4923 32.9129C71.8044 32.9129 70.4392 34.3066 70.4392 36.0205C70.4392 37.7438 71.8044 39.1375 73.4831 39.1375C75.1618 39.1375 76.5362 37.7438 76.5362 36.0299C76.5454 34.316 75.1895 32.9223 73.4923 32.9129C73.5015 32.9129 73.5015 32.9129 73.4923 32.9129Z" fill="#0080FF"/>
<path d="M116.133 25.3335C116.933 26.1023 117.662 26.9657 118.195 27.9474C118.555 28.6215 118.833 29.3903 118.786 30.1709C118.775 30.5258 118.647 30.8688 118.52 31.1999C118.195 31.9924 117.801 32.7848 117.709 33.6482C117.662 34.1095 117.732 34.5708 117.917 34.9965C118.219 35.6589 118.404 36.3685 118.462 37.09C118.497 37.6695 118.462 38.2964 118.149 38.805C117.883 39.2426 117.408 39.491 116.921 39.5383C116.214 39.6093 115.496 39.4673 114.847 39.1953C114.152 38.9114 113.55 38.3792 113.202 37.6932C112.797 36.9126 112.727 35.9782 112.878 35.1148C113.11 33.7428 113.863 32.4773 114.894 31.5666C115.739 30.8214 116.411 29.8279 116.631 28.7043C116.875 27.5689 116.597 26.3861 116.133 25.3335Z" fill="#CF112B"/>
<path d="M119.389 32.0865C119.875 31.1758 120.582 30.3952 121.358 29.7329C120.941 30.7264 120.686 31.8145 120.79 32.9026C120.86 33.4585 121.034 34.0144 121.358 34.4638C121.659 34.9014 122.111 35.2089 122.505 35.5638C123.177 36.167 123.907 36.7583 124.324 37.5862C124.66 38.2486 124.752 39.0173 124.775 39.7625C124.787 40.6377 124.602 41.5957 124.011 42.258C123.501 42.8375 122.771 43.1569 122.041 43.3343C121.474 43.4762 120.86 43.4526 120.327 43.1924C119.574 42.8612 119.006 42.1397 118.832 41.3237C118.705 40.7559 118.821 40.1409 119.134 39.656C119.551 39.0055 119.794 38.2249 119.748 37.4443C119.69 36.3207 119.122 35.3154 118.948 34.2155C118.821 33.4703 119.041 32.7252 119.389 32.0865Z" fill="#CF112B"/>
<path d="M112.275 39.5499C112.298 39.3133 112.31 39.0768 112.414 38.8521C112.993 39.5617 113.77 40.0939 114.615 40.3896C115.195 40.5907 115.809 40.6971 116.411 40.7563C116.631 40.7681 116.851 40.7445 117.06 40.8154C117.222 40.8864 117.28 41.0874 117.338 41.253C117.442 41.6433 117.523 42.0336 117.697 42.3885C118.033 43.0981 118.635 43.654 119.319 44.0207C120.199 44.4819 121.242 44.612 122.203 44.411C122.574 44.34 122.91 44.1153 123.281 44.0798C123.42 44.0798 123.316 44.2454 123.281 44.3045C122.69 45.1324 121.821 45.7356 120.86 46.0195C119.736 46.3625 118.543 46.327 117.407 46.0786C116.654 45.9131 115.913 45.6528 115.241 45.2625C114.546 44.8604 113.932 44.3045 113.48 43.6304C113.028 42.9798 112.75 42.2229 112.495 41.4659C112.322 40.8391 112.24 40.1886 112.275 39.5499Z" fill="#CF112B"/>
<path d="M150.505 34.1217C151.258 33.4831 152.219 33.1046 153.192 32.9981C154.142 32.8799 155.139 32.9981 155.996 33.4594C156.401 33.6723 156.784 33.9798 157.062 34.3465C156.54 34.7841 156.019 35.2217 155.486 35.6593C155.162 35.269 154.698 35.0088 154.2 34.926C153.552 34.8195 152.845 34.926 152.289 35.3045C151.617 35.7421 151.188 36.4872 151.049 37.2796C150.899 38.143 151.014 39.0892 151.489 39.8343C151.86 40.4494 152.486 40.8988 153.192 41.0289C153.737 41.1235 154.316 41.0644 154.791 40.7805C155.115 40.6031 155.382 40.3429 155.579 40.0472C156.147 40.473 156.714 40.9106 157.293 41.3482C156.865 41.9633 156.251 42.4245 155.556 42.6847C154.814 42.9804 154.003 43.0395 153.216 42.9568C152.196 42.8503 151.177 42.4482 150.4 41.7504C149.682 41.1117 149.184 40.2128 148.987 39.2548C148.79 38.3086 148.802 37.3151 149.068 36.3808C149.311 35.5055 149.81 34.7013 150.505 34.1217Z" fill="#302E2F"/>
<path d="M131.205 33.1994C132.097 33.1994 132.977 33.1994 133.869 33.1994C134.854 33.1994 135.873 33.1521 136.8 33.5306C137.321 33.7316 137.773 34.1338 137.958 34.6778C138.179 35.2928 138.19 36.0143 137.889 36.6057C137.68 37.0433 137.287 37.3744 136.858 37.5755C136.73 37.6346 136.591 37.6701 136.464 37.7411C137.101 37.8475 137.727 38.1314 138.109 38.6754C138.584 39.3378 138.654 40.2603 138.376 41.0173C138.155 41.6205 137.646 42.0699 137.078 42.3183C136.395 42.6258 135.63 42.7322 134.888 42.7204C133.649 42.7204 132.421 42.7204 131.181 42.7204C131.216 39.5625 131.205 36.381 131.205 33.1994ZM133.255 34.9735C133.267 35.6595 133.255 36.3336 133.255 37.0196C133.707 37.0196 134.159 37.0196 134.599 37.0196C134.97 37.0315 135.363 36.996 135.676 36.7594C136.163 36.4401 136.198 35.6122 135.734 35.2574C135.352 34.9617 134.854 34.9617 134.402 34.9617C134.031 34.9735 133.637 34.9617 133.255 34.9735ZM133.255 38.7937C133.255 39.527 133.255 40.2603 133.255 40.9818C133.869 40.9818 134.483 40.9818 135.097 40.9818C135.456 40.9818 135.827 40.9108 136.105 40.6861C136.499 40.4022 136.615 39.7872 136.371 39.3614C136.116 38.9711 135.63 38.8529 135.201 38.8055C134.553 38.7819 133.904 38.8056 133.255 38.7937Z" fill="#302E2F"/>
<path d="M142.766 33.1998C143.322 33.188 143.89 33.1998 144.446 33.1998C145.813 36.3814 147.157 39.563 148.524 42.7445C147.747 42.7445 146.983 42.7445 146.207 42.7445C145.94 42.0704 145.674 41.408 145.407 40.7339C144.214 40.7102 143.009 40.7339 141.816 40.7221C141.804 40.7339 141.77 40.7339 141.746 40.7457C141.48 41.408 141.225 42.0704 140.97 42.7445C140.217 42.7445 139.453 42.7445 138.7 42.7445C139.997 39.7049 141.283 36.6534 142.581 33.6138C142.638 33.4719 142.673 33.3181 142.766 33.1998ZM143.449 36.1803C143.102 37.1029 142.743 38.0254 142.384 38.9479C143.16 38.9479 143.924 38.9598 144.701 38.9479C144.307 37.9544 143.913 36.9728 143.542 35.9674C143.519 36.0384 143.484 36.1094 143.449 36.1803Z" fill="#302E2F"/>
<path d="M158.382 33.2C159.066 33.2 159.749 33.2 160.433 33.2C160.433 34.5246 160.421 35.8493 160.433 37.1739C161.649 35.8493 162.866 34.5246 164.082 33.2C164.974 33.2 165.866 33.2 166.758 33.2C165.368 34.6784 163.978 36.1568 162.588 37.6352C164.094 39.3383 165.6 41.0415 167.117 42.7446C166.156 42.7446 165.206 42.7446 164.244 42.7446C162.97 41.2307 161.707 39.7168 160.421 38.2147C160.41 39.7286 160.41 41.2307 160.421 42.7446C159.738 42.7446 159.043 42.7446 158.359 42.7446C158.394 39.563 158.382 36.3815 158.382 33.2Z" fill="#302E2F"/>
<path d="M167.755 33.1995C168.96 33.1995 170.165 33.1995 171.381 33.1995C172.007 33.2231 172.632 33.2704 173.223 33.4833C173.64 33.6371 174.034 33.8855 174.289 34.2639C174.567 34.6661 174.671 35.1747 174.66 35.6714C174.66 36.0617 174.555 36.452 174.347 36.7832C174.103 37.1617 173.733 37.4455 173.339 37.6229C173.246 37.6703 173.13 37.6821 173.049 37.7649C173.594 37.8477 174.127 38.0724 174.509 38.4864C175.135 39.1487 175.25 40.1895 174.949 41.0293C174.706 41.6798 174.15 42.141 173.524 42.3894C172.875 42.6496 172.169 42.7442 171.485 42.7324C170.246 42.7324 169.006 42.7324 167.755 42.7324C167.755 39.5626 167.755 36.3811 167.755 33.1995ZM169.805 34.9736C169.805 35.6596 169.805 36.3456 169.805 37.0197C170.327 37.0316 170.86 37.0197 171.381 37.0197C171.786 37.0197 172.227 36.8778 172.47 36.523C172.702 36.1563 172.679 35.5886 172.343 35.2929C172.053 35.0327 171.659 34.9736 171.288 34.9618C170.79 34.9736 170.292 34.9736 169.805 34.9736ZM169.805 38.7939C169.805 39.5272 169.805 40.2486 169.805 40.982C170.246 40.982 170.686 40.982 171.138 40.982C171.543 40.982 171.96 41.0174 172.343 40.8637C172.644 40.7572 172.922 40.5207 173.014 40.2013C173.107 39.882 173.084 39.4917 172.841 39.2315C172.551 38.9121 172.099 38.8294 171.682 38.7939C171.057 38.782 170.431 38.7939 169.805 38.7939Z" fill="#626365"/>
<path d="M176.293 33.1992C176.976 33.1992 177.66 33.1992 178.332 33.1992C178.332 35.7303 178.332 38.2732 178.332 40.8043C179.537 40.8161 180.741 40.8043 181.946 40.8043C183.024 38.2732 184.101 35.7303 185.178 33.1992C185.746 33.1992 186.314 33.1992 186.87 33.1992C187.715 35.1862 188.561 37.1614 189.407 39.1484C189.928 40.343 190.415 41.5494 190.948 42.7322C190.171 42.7322 189.395 42.7322 188.619 42.7322C188.353 42.058 188.086 41.3838 187.808 40.7097C186.603 40.7097 185.41 40.7097 184.205 40.7097C184.124 40.6978 184.124 40.7925 184.089 40.8398C183.846 41.4666 183.603 42.1053 183.36 42.7322C180.996 42.7322 178.621 42.7322 176.258 42.7322C176.304 39.5624 176.293 36.3808 176.293 33.1992ZM184.819 38.9474C185.595 38.9592 186.36 38.9474 187.125 38.9474C186.742 37.9539 186.36 36.9604 185.966 35.9669C185.572 36.9604 185.202 37.9539 184.819 38.9474Z" fill="#626365"/>
<path d="M191.469 33.1992C193.821 33.1992 196.184 33.1992 198.536 33.1992C198.536 33.8142 198.547 34.4293 198.536 35.0443C198.038 35.7066 197.493 36.3335 196.983 36.984C195.952 38.2614 194.91 39.5269 193.879 40.8043C195.489 40.8161 197.088 40.8043 198.698 40.8043C198.698 41.443 198.686 42.0935 198.698 42.7322C196.23 42.7322 193.751 42.7322 191.284 42.7322C191.295 42.0935 191.295 41.443 191.284 40.8043C192.57 39.2431 193.856 37.6937 195.153 36.1324C195.443 35.7658 195.756 35.411 196.045 35.0443C194.516 35.0443 192.987 35.0443 191.458 35.0443C191.469 34.4293 191.469 33.8142 191.469 33.1992Z" fill="#626365"/>
<path d="M200.088 33.1992C202.208 33.1992 204.328 33.1992 206.448 33.1992C206.448 33.8379 206.437 34.4884 206.46 35.1271C205.023 35.1389 203.587 35.1271 202.15 35.1271C202.15 35.7184 202.15 36.3216 202.15 36.913C203.506 36.9248 204.861 36.913 206.217 36.913C206.217 37.5517 206.217 38.2022 206.217 38.8409C204.861 38.8409 203.506 38.8409 202.15 38.8409C202.139 39.4914 202.15 40.1419 202.15 40.7924C203.668 40.8042 205.186 40.7924 206.692 40.7924C206.692 41.431 206.692 42.0815 206.692 42.7202C204.49 42.7202 202.289 42.7202 200.088 42.7202C200.088 39.5623 200.088 36.3808 200.088 33.1992Z" fill="#626365"/>
</svg>
