<svg id="Layer_1" data-name="Layer 1" xmlns="http://www.w3.org/2000/svg" viewBox="0 0 58.08 53.18"><defs><style>.cls-1,.cls-2{fill:#316fea;}.cls-2{stroke:#316fea;stroke-miterlimit:10;stroke-width:0.5px;}</style></defs><title>storage</title><path class="cls-1" d="M658.09,921.44a.62.62,0,0,1-.61-.63v-5.75a.61.61,0,1,1,1.22,0v5.75A.62.62,0,0,1,658.09,921.44Zm0-21a.64.64,0,0,1-.61-.67v-6.21a.61.61,0,1,1,1.22,0v6.21A.64.64,0,0,1,658.09,900.44Z" transform="translate(-629.05 -877.87)"/><path class="cls-1" d="M678.42,926.66H663.13a.63.63,0,0,1,0-1.25h15.29a.63.63,0,0,1,0,1.25Zm-25.3,0H637.76a.63.63,0,0,1,0-1.25h15.36a.63.63,0,0,1,0,1.25Z" transform="translate(-629.05 -877.87)"/><path class="cls-2" d="M658.1,930.8a4.77,4.77,0,1,1,4.65-4.76A4.69,4.69,0,0,1,658.1,930.8Zm0-8.77a4,4,0,1,0,3.9,4A3.94,3.94,0,0,0,658.1,922Z" transform="translate(-629.05 -877.87)"/><path class="cls-1" d="M685,893.64H631.24a2.16,2.16,0,0,1-2.19-2.17V880a2.21,2.21,0,0,1,2.19-2.17H685a2.15,2.15,0,0,1,2.12,2.17v11.43A2.1,2.1,0,0,1,685,893.64Zm-53.77-14.52a1,1,0,0,0-1,.92v11.43a.93.93,0,0,0,1,.92H685a.86.86,0,0,0,.89-.92V880a.92.92,0,0,0-.89-.92Z" transform="translate(-629.05 -877.87)"/><path class="cls-1" d="M678.19,888.89a2.07,2.07,0,0,1-2.05-2.09,2.09,2.09,0,1,1,2.05,2.09Zm0-3a.86.86,0,0,0-.82.93.83.83,0,0,0,.82.84.85.85,0,0,0,.9-.84A.89.89,0,0,0,678.19,885.87Z" transform="translate(-629.05 -877.87)"/><path class="cls-1" d="M673.24,888.89a2.07,2.07,0,0,1-2-2.09,2.05,2.05,0,1,1,4.1,0A2.07,2.07,0,0,1,673.24,888.89Zm0-3a.88.88,0,0,0-.83.93.85.85,0,0,0,.83.84.83.83,0,0,0,.82-.84A.86.86,0,0,0,673.24,885.87Z" transform="translate(-629.05 -877.87)"/><path class="cls-1" d="M668.28,888.89a2.07,2.07,0,0,1-2-2.09,2,2,0,1,1,2,2.09Zm0-3a.87.87,0,0,0-.82.93.82.82,0,1,0,1.64,0A.86.86,0,0,0,668.28,885.87Z" transform="translate(-629.05 -877.87)"/><path class="cls-1" d="M685,915.69H631.24a2.16,2.16,0,0,1-2.19-2.18V902.17a2.22,2.22,0,0,1,2.19-2.25H685a2.16,2.16,0,0,1,2.12,2.25v11.34A2.1,2.1,0,0,1,685,915.69Zm-53.77-14.52a1,1,0,0,0-1,1v11.34a.94.94,0,0,0,1,.93H685a.87.87,0,0,0,.89-.93V902.17a.94.94,0,0,0-.89-1Z" transform="translate(-629.05 -877.87)"/><path class="cls-1" d="M678.19,909.94a2.08,2.08,0,0,1-2.05-2.1,2.09,2.09,0,1,1,4.17,0A2.09,2.09,0,0,1,678.19,909.94Zm0-3a.91.91,0,0,0-.82.92.84.84,0,0,0,.82.85.86.86,0,0,0,.9-.85A.93.93,0,0,0,678.19,906.92Z" transform="translate(-629.05 -877.87)"/><path class="cls-1" d="M673.24,909.94a2.08,2.08,0,0,1-2-2.1,2.05,2.05,0,1,1,4.1,0A2.08,2.08,0,0,1,673.24,909.94Zm0-3a.92.92,0,0,0-.83.92.85.85,0,0,0,.83.85.84.84,0,0,0,.82-.85A.91.91,0,0,0,673.24,906.92Z" transform="translate(-629.05 -877.87)"/><path class="cls-1" d="M668.28,909.94a2.07,2.07,0,0,1-2-2.1,2,2,0,1,1,4.09,0A2.08,2.08,0,0,1,668.28,909.94Zm0-3a.91.91,0,0,0-.82.92.82.82,0,1,0,1.64,0A.91.91,0,0,0,668.28,906.92Z" transform="translate(-629.05 -877.87)"/><path class="cls-1" d="M638.35,887.42h-2.09a.63.63,0,0,1,0-1.25h2.09a.63.63,0,0,1,0,1.25Z" transform="translate(-629.05 -877.87)"/><path class="cls-1" d="M641.94,887.42h-2.08a.63.63,0,0,1,0-1.25h2.08a.63.63,0,0,1,0,1.25Z" transform="translate(-629.05 -877.87)"/><path class="cls-1" d="M645.52,887.42h-2.08a.63.63,0,0,1,0-1.25h2.08a.63.63,0,0,1,0,1.25Z" transform="translate(-629.05 -877.87)"/><path class="cls-1" d="M638.35,908.47h-2.09a.63.63,0,0,1,0-1.25h2.09a.63.63,0,0,1,0,1.25Z" transform="translate(-629.05 -877.87)"/><path class="cls-1" d="M641.94,908.47h-2.08a.63.63,0,0,1,0-1.25h2.08a.63.63,0,0,1,0,1.25Z" transform="translate(-629.05 -877.87)"/><path class="cls-1" d="M645.52,908.47h-2.08a.63.63,0,0,1,0-1.25h2.08a.63.63,0,0,1,0,1.25Z" transform="translate(-629.05 -877.87)"/></svg>