<svg id="Layer_1" data-name="Layer 1" xmlns="http://www.w3.org/2000/svg" viewBox="0 0 167.66 79.96"><defs><style>.cls-1{fill:#316fea;}.cls-2{fill:#252f3e;}.cls-3{fill:#f90;fill-rule:evenodd;}.cls-4{fill:#ea4335;}.cls-5{fill:#4285f4;}.cls-6{fill:#34a853;}.cls-7{fill:#fbbc05;}.cls-8{fill:#5f6368;}.cls-9{fill:#cf112b;}.cls-10{fill:#302e2f;}.cls-11{fill:#626365;}.cls-12{fill:#0061ff;}</style></defs><title>storage_logo</title><path class="cls-1" d="M49.41,17.85a8,8,0,1,1,8-8h0A8,8,0,0,1,49.41,17.85Zm0-12a4,4,0,1,0,4,4,4,4,0,0,0-4-4Z" transform="translate(-1.95 -1.91)"/><path class="cls-1" d="M43.59,24.81A4.44,4.44,0,0,1,46,24c1.57,0,3,1.63,5.79,1.63a6.52,6.52,0,0,0,4.79-2.29l-1.43-2.28a4.45,4.45,0,0,1-2.41.8c-1.57,0-3-1.63-5.78-1.63a6.54,6.54,0,0,0-4.8,2.29Z" transform="translate(-1.95 -1.91)"/><path class="cls-1" d="M72.63,9.31V20.42H69.94v-4a2.86,2.86,0,0,1-1,.87,3.26,3.26,0,0,1-1.39.29,3.66,3.66,0,0,1-2-.53,3.53,3.53,0,0,1-1.34-1.49,4.86,4.86,0,0,1-.48-2.21,4.86,4.86,0,0,1,.47-2.18A3.44,3.44,0,0,1,65.5,9.73a3.72,3.72,0,0,1,2-.51,3.25,3.25,0,0,1,1.42.3,3,3,0,0,1,1.06.86V9.31Zm-3.17,5.6a2.21,2.21,0,0,0,.48-1.48A2.21,2.21,0,0,0,69.46,12a1.62,1.62,0,0,0-1.27-.56,1.61,1.61,0,0,0-1.28.57,2.16,2.16,0,0,0-.49,1.47,2.17,2.17,0,0,0,.49,1.48,1.71,1.71,0,0,0,2.55,0Z" transform="translate(-1.95 -1.91)"/><path class="cls-1" d="M81.43,10.4a4.59,4.59,0,0,1,1.08,3.23c0,.21,0,.37,0,.48H76.81a1.92,1.92,0,0,0,.68,1.07,1.85,1.85,0,0,0,1.18.37,2.59,2.59,0,0,0,1-.21,3.09,3.09,0,0,0,.9-.62L82,16.13a4.18,4.18,0,0,1-1.53,1.08,5.45,5.45,0,0,1-2,.37,4.78,4.78,0,0,1-2.29-.52,3.53,3.53,0,0,1-1.51-1.45,4.37,4.37,0,0,1-.52-2.18,4.54,4.54,0,0,1,.53-2.21,3.63,3.63,0,0,1,1.5-1.48,4.59,4.59,0,0,1,2.23-.52A3.92,3.92,0,0,1,81.43,10.4Zm-1.54,2.28a1.54,1.54,0,0,0-.42-1.14,1.42,1.42,0,0,0-1.09-.43,1.47,1.47,0,0,0-1.07.42,2.13,2.13,0,0,0-.57,1.15Z" transform="translate(-1.95 -1.91)"/><path class="cls-1" d="M91.43,10.05a3.15,3.15,0,0,1,.81,2.28v5.16H89.57V13.1A1.52,1.52,0,0,0,89.19,12a1.32,1.32,0,0,0-1-.41,1.57,1.57,0,0,0-1.1.44,1.8,1.8,0,0,0-.51,1.12v4.33H83.88V9.31h2.69v1.33A3,3,0,0,1,87.7,9.56a3.35,3.35,0,0,1,1.58-.36A2.81,2.81,0,0,1,91.43,10.05Z" transform="translate(-1.95 -1.91)"/><path class="cls-1" d="M97.75,11.44a1.44,1.44,0,0,0-1.18.55,2.14,2.14,0,0,0-.46,1.43,2.16,2.16,0,0,0,.46,1.44,1.46,1.46,0,0,0,1.18.54,1.68,1.68,0,0,0,1.6-.92l2,1.13a3.33,3.33,0,0,1-1.45,1.45,4.7,4.7,0,0,1-2.27.52,4.51,4.51,0,0,1-2.21-.52,3.6,3.6,0,0,1-1.47-1.45,4.37,4.37,0,0,1-.52-2.18,4.43,4.43,0,0,1,.53-2.21,3.66,3.66,0,0,1,1.49-1.48,5,5,0,0,1,4.39,0,3.7,3.7,0,0,1,1.48,1.43l-2,1.14A1.82,1.82,0,0,0,97.75,11.44Z" transform="translate(-1.95 -1.91)"/><path class="cls-1" d="M108.48,9.74a3.76,3.76,0,0,1,1.57,1.46,4.15,4.15,0,0,1,.56,2.19,4.16,4.16,0,0,1-.56,2.2,3.78,3.78,0,0,1-1.57,1.47,5.55,5.55,0,0,1-4.69,0,3.82,3.82,0,0,1-1.56-1.47,4.25,4.25,0,0,1-.55-2.2,4.24,4.24,0,0,1,.55-2.19,3.79,3.79,0,0,1,1.56-1.46,5.55,5.55,0,0,1,4.69,0ZM104.87,12a2.19,2.19,0,0,0-.49,1.47,2.2,2.2,0,0,0,.49,1.48,1.6,1.6,0,0,0,1.27.56,1.62,1.62,0,0,0,1.28-.56,2.15,2.15,0,0,0,.49-1.48,2.19,2.19,0,0,0-.49-1.47,1.64,1.64,0,0,0-1.28-.56A1.6,1.6,0,0,0,104.87,12Z" transform="translate(-1.95 -1.91)"/><path class="cls-1" d="M120.24,6.27V17.49h-2.69V16.43a2.78,2.78,0,0,1-1,.87,3.26,3.26,0,0,1-1.39.29,3.66,3.66,0,0,1-2-.53,3.53,3.53,0,0,1-1.34-1.49,4.86,4.86,0,0,1-.48-2.21,4.86,4.86,0,0,1,.47-2.18,3.5,3.5,0,0,1,1.32-1.45,3.72,3.72,0,0,1,2-.51,3.25,3.25,0,0,1,1.42.3,2.94,2.94,0,0,1,1.06.86V6.27Zm-3.17,8.64a2.21,2.21,0,0,0,.48-1.48,2.21,2.21,0,0,0-.48-1.48,1.72,1.72,0,0,0-2.55,0,2.16,2.16,0,0,0-.49,1.47,2.17,2.17,0,0,0,.49,1.48,1.62,1.62,0,0,0,1.28.57A1.59,1.59,0,0,0,117.07,14.91Z" transform="translate(-1.95 -1.91)"/><path class="cls-1" d="M129,10.4a4.59,4.59,0,0,1,1.08,3.23c0,.21,0,.37,0,.48h-5.68a2,2,0,0,0,.68,1.07,1.85,1.85,0,0,0,1.18.37,2.59,2.59,0,0,0,1-.21,2.85,2.85,0,0,0,.9-.62l1.4,1.41a4.18,4.18,0,0,1-1.53,1.08,5.44,5.44,0,0,1-2,.37,4.79,4.79,0,0,1-2.3-.52,3.53,3.53,0,0,1-1.51-1.45,4.48,4.48,0,0,1-.52-2.18,4.54,4.54,0,0,1,.53-2.21,3.63,3.63,0,0,1,1.5-1.48A4.6,4.6,0,0,1,126,9.22,3.9,3.9,0,0,1,129,10.4Zm-1.54,2.28a1.58,1.58,0,0,0-.41-1.14,1.46,1.46,0,0,0-1.1-.43,1.49,1.49,0,0,0-1.07.42,2.12,2.12,0,0,0-.56,1.15Z" transform="translate(-1.95 -1.91)"/><path class="cls-2" d="M18.16,46.59a3.18,3.18,0,0,0,.13,1,4.37,4.37,0,0,0,.35.79.56.56,0,0,1,.08.26.45.45,0,0,1-.21.33l-.7.46a.51.51,0,0,1-.29.1.49.49,0,0,1-.33-.15,3.71,3.71,0,0,1-.39-.52c-.11-.19-.22-.4-.35-.65a4.08,4.08,0,0,1-3.24,1.52A3,3,0,0,1,11,48.92a3.11,3.11,0,0,1,.19-4.4,4,4,0,0,1,2.7-.86,9.66,9.66,0,0,1,1.17.09c.41.06.83.14,1.27.24v-.8a2.42,2.42,0,0,0-.52-1.77,2.55,2.55,0,0,0-1.8-.51,5,5,0,0,0-1.19.15,9.65,9.65,0,0,0-1.19.37c-.18.08-.31.12-.39.15l-.17,0c-.16,0-.23-.11-.23-.34v-.54a.77.77,0,0,1,.07-.39.92.92,0,0,1,.31-.23,6.24,6.24,0,0,1,1.39-.5,6.87,6.87,0,0,1,1.72-.21,4,4,0,0,1,2.9.9A3.66,3.66,0,0,1,18.14,43v3.58Zm-4.48,1.68a3.65,3.65,0,0,0,1.14-.2,2.55,2.55,0,0,0,1-.71,1.62,1.62,0,0,0,.37-.71,3.73,3.73,0,0,0,.11-1v-.46a10.05,10.05,0,0,0-1-.19,9.2,9.2,0,0,0-1-.06,2.51,2.51,0,0,0-1.64.44,1.53,1.53,0,0,0-.54,1.27,1.42,1.42,0,0,0,1.56,1.58Zm8.87,1.19a.66.66,0,0,1-.42-.11.85.85,0,0,1-.23-.43l-2.6-8.54a2.32,2.32,0,0,1-.1-.44.24.24,0,0,1,.27-.27h1.08a.6.6,0,0,1,.43.11.89.89,0,0,1,.22.43l1.85,7.3,1.73-7.3a.71.71,0,0,1,.21-.43.73.73,0,0,1,.44-.11h.88a.65.65,0,0,1,.44.11.69.69,0,0,1,.21.43l1.75,7.39,1.91-7.39a.84.84,0,0,1,.22-.43.69.69,0,0,1,.43-.11h1c.18,0,.28.08.28.27a1.24,1.24,0,0,1,0,.18,1.07,1.07,0,0,1-.08.27l-2.66,8.54a.88.88,0,0,1-.23.43.75.75,0,0,1-.42.11h-.95a.65.65,0,0,1-.44-.11.75.75,0,0,1-.21-.44L25.85,41.8l-1.7,7.11a.9.9,0,0,1-.21.44.73.73,0,0,1-.44.11Zm14.18.3a7.45,7.45,0,0,1-1.7-.2,5.71,5.71,0,0,1-1.27-.44.8.8,0,0,1-.34-.31.87.87,0,0,1-.07-.31v-.57c0-.23.09-.34.26-.34a.51.51,0,0,1,.2,0l.27.11a6.68,6.68,0,0,0,1.22.38,6.47,6.47,0,0,0,1.31.13,3,3,0,0,0,1.61-.36,1.19,1.19,0,0,0,.58-1,1.06,1.06,0,0,0-.3-.77,2.85,2.85,0,0,0-1.12-.58L35.78,45A3.38,3.38,0,0,1,34,43.87a2.58,2.58,0,0,1-.56-1.6,2.42,2.42,0,0,1,.3-1.22,2.8,2.8,0,0,1,.8-.91,3.44,3.44,0,0,1,1.15-.57,4.54,4.54,0,0,1,1.39-.19,6.23,6.23,0,0,1,.74,0l.71.12.63.18a2.44,2.44,0,0,1,.47.2,1.05,1.05,0,0,1,.33.28.62.62,0,0,1,.1.36v.52c0,.23-.09.35-.26.35a1.1,1.1,0,0,1-.42-.13,5,5,0,0,0-2.12-.43,2.81,2.81,0,0,0-1.46.31,1.05,1.05,0,0,0-.52,1,1,1,0,0,0,.33.78,3.34,3.34,0,0,0,1.21.61l1.57.5a3.36,3.36,0,0,1,1.71,1.06,2.5,2.5,0,0,1,.51,1.54,2.77,2.77,0,0,1-.29,1.28,3,3,0,0,1-.8,1,3.64,3.64,0,0,1-1.23.61A5.08,5.08,0,0,1,36.73,49.76Z" transform="translate(-1.95 -1.91)"/><path class="cls-3" d="M38.82,55.12a23.84,23.84,0,0,1-13.45,4.11A24.3,24.3,0,0,1,9,53c-.34-.31,0-.73.37-.49a33.08,33.08,0,0,0,16.43,4.36,32.8,32.8,0,0,0,12.53-2.56C38.9,54,39.41,54.68,38.82,55.12Z" transform="translate(-1.95 -1.91)"/><path class="cls-3" d="M40.33,53.4c-.46-.6-3.07-.29-4.25-.14-.35,0-.41-.27-.09-.5,2.08-1.46,5.49-1,5.89-.55s-.11,3.9-2.06,5.54c-.3.25-.58.12-.45-.21C39.81,56.45,40.79,54,40.33,53.4Z" transform="translate(-1.95 -1.91)"/><path class="cls-4" d="M67.89,39.31H68l0,0,2.57-2.57v0a8.33,8.33,0,0,0-13.56,4.06l.14,0a6,6,0,0,1,3.28-1,5.83,5.83,0,0,1,1.18.12.06.06,0,0,1,0,0,4.63,4.63,0,0,1,6.33-.48Z" transform="translate(-1.95 -1.91)"/><path class="cls-5" d="M73,40.73a8.44,8.44,0,0,0-2.51-4.06l-2.61,2.61A4.62,4.62,0,0,1,69.61,43v.46a2.32,2.32,0,1,1,0,4.63H65v3.67h0l0,0h4.63a6,6,0,0,0,3.42-11Z" transform="translate(-1.95 -1.91)"/><path class="cls-6" d="M60.34,51.72H65V48H60.34a2.23,2.23,0,0,1-1-.21l-2.68,2.68v0a6,6,0,0,0,3.64,1.21Z" transform="translate(-1.95 -1.91)"/><path class="cls-7" d="M60.34,39.69a6,6,0,0,0-3.64,10.8l2.69-2.68a2.32,2.32,0,1,1,3.06-3.07l2.69-2.68a6,6,0,0,0-4.8-2.37Z" transform="translate(-1.95 -1.91)"/><path class="cls-8" d="M88,49.13a5.94,5.94,0,0,1-4.3-1.76,5.89,5.89,0,0,1,0-8.48,6,6,0,0,1,4.3-1.8,5.77,5.77,0,0,1,4.12,1.66L91,39.93a4.15,4.15,0,0,0-3-1.17A4.11,4.11,0,0,0,85,40.06a4.39,4.39,0,0,0,0,6.14,4.37,4.37,0,0,0,6.09.07,3.48,3.48,0,0,0,.89-2H88V42.58h5.52a5,5,0,0,1,.07,1,5.21,5.21,0,0,1-1.43,3.84A5.52,5.52,0,0,1,88,49.13ZM100.86,48a4,4,0,0,1-5.51,0,3.95,3.95,0,0,1,0-5.53,4,4,0,0,1,5.51,0A3.71,3.71,0,0,1,102,45.26,3.79,3.79,0,0,1,100.86,48Zm-4.29-1.09a2.11,2.11,0,0,0,3.08,0,2.5,2.5,0,0,0,0-3.36,2.14,2.14,0,0,0-3.09,0,2.31,2.31,0,0,0-.66,1.68,2.37,2.37,0,0,0,.66,1.68ZM109.33,48a4,4,0,0,1-5.51,0,3.7,3.7,0,0,1-1.12-2.77,3.67,3.67,0,0,1,1.12-2.76,4,4,0,0,1,5.51,0,3.67,3.67,0,0,1,1.13,2.76A3.71,3.71,0,0,1,109.33,48ZM105,46.94a2.11,2.11,0,0,0,3.08,0,2.5,2.5,0,0,0,0-3.36,2.14,2.14,0,0,0-3.09,0,2.3,2.3,0,0,0-.65,1.68,2.32,2.32,0,0,0,.65,1.68Zm9.86,5.67a3.36,3.36,0,0,1-2.16-.69,4,4,0,0,1-1.27-1.6L113,49.7a2.49,2.49,0,0,0,.73,1,1.86,1.86,0,0,0,1.22.41,2,2,0,0,0,1.51-.59A2.35,2.35,0,0,0,117,48.8v-.56h-.07a2.44,2.44,0,0,1-2,.88,3.55,3.55,0,0,1-2.6-1.13,3.9,3.9,0,0,1,0-5.47,3.52,3.52,0,0,1,2.6-1.14,2.8,2.8,0,0,1,1.2.27,2.42,2.42,0,0,1,.84.61H117v-.61h1.62v6.93a4,4,0,0,1-1,3,3.63,3.63,0,0,1-2.65,1Zm.12-5a1.89,1.89,0,0,0,1.47-.65,2.4,2.4,0,0,0,.59-1.66,2.5,2.5,0,0,0-.59-1.7A1.85,1.85,0,0,0,115,43a2,2,0,0,0-1.52.65,2.46,2.46,0,0,0,0,3.35,2,2,0,0,0,1.52.66Zm6.44,1.29h-1.71V37.53h1.71V48.9Zm4.65.23A3.67,3.67,0,0,1,123.37,48a3.79,3.79,0,0,1-1.1-2.76,3.86,3.86,0,0,1,1.06-2.78,3.53,3.53,0,0,1,2.61-1.09,3.25,3.25,0,0,1,1.3.26,2.84,2.84,0,0,1,1,.65,4,4,0,0,1,.65.78,5,5,0,0,1,.39.76l.17.45-5.2,2.14a2,2,0,0,0,1.87,1.17A2.24,2.24,0,0,0,128,46.53l1.3.87a4.3,4.3,0,0,1-1.25,1.19,3.48,3.48,0,0,1-2,.54Zm-2.17-4,3.46-1.44a1.24,1.24,0,0,0-.54-.59,1.65,1.65,0,0,0-.89-.23,2,2,0,0,0-1.4.62,2,2,0,0,0-.63,1.64Z" transform="translate(-1.95 -1.91)"/><path class="cls-8" d="M138.34,49.13a5.48,5.48,0,1,1,0-11,4.85,4.85,0,0,1,3.86,1.71l-.94.91a3.54,3.54,0,0,0-2.92-1.33,4,4,0,0,0-2.89,1.16,4.48,4.48,0,0,0,0,6.06,4,4,0,0,0,2.89,1.16,4.14,4.14,0,0,0,3.26-1.52l.93.93a5,5,0,0,1-1.8,1.38,5.46,5.46,0,0,1-2.39.5Z" transform="translate(-1.95 -1.91)"/><polygon class="cls-8" points="141.76 46.99 143.1 46.99 143.1 36.48 141.76 36.48 141.76 46.99 141.76 46.99"/><path class="cls-8" d="M147.25,42.58a3.81,3.81,0,1,1,0,5.46,4.1,4.1,0,0,1,0-5.46Zm1,4.62a2.28,2.28,0,0,0,3.3,0,2.9,2.9,0,0,0,0-3.78,2.28,2.28,0,0,0-3.3,0,2.62,2.62,0,0,0-.69,1.89,2.58,2.58,0,0,0,.7,1.88Z" transform="translate(-1.95 -1.91)"/><path class="cls-8" d="M161.07,48.9h-1.3v-1h-.05a2.53,2.53,0,0,1-.94.9,2.64,2.64,0,0,1-1.34.36,2.54,2.54,0,0,1-2-.82,3.28,3.28,0,0,1-.7-2.2V41.72h1.35V45.9c0,1.33.59,2,1.77,2a1.62,1.62,0,0,0,1.37-.65,2.49,2.49,0,0,0,.53-1.55v-4h1.35V48.9Z" transform="translate(-1.95 -1.91)"/><path class="cls-8" d="M165.64,49.13a3.13,3.13,0,0,1-2.41-1.1,4.18,4.18,0,0,1,0-5.45,3.17,3.17,0,0,1,2.41-1.1,3,3,0,0,1,1.47.36,2.57,2.57,0,0,1,1,.87h0l0-1V38.39h1.34V48.9h-1.3v-1h-.06a2.42,2.42,0,0,1-1,.88,3,3,0,0,1-1.46.35Zm.22-1.23a2.11,2.11,0,0,0,1.62-.7,2.62,2.62,0,0,0,.65-1.89,2.66,2.66,0,0,0-.65-1.9,2.21,2.21,0,0,0-3.25,0,3.07,3.07,0,0,0,0,3.78,2.11,2.11,0,0,0,1.63.71Z" transform="translate(-1.95 -1.91)"/><path class="cls-9" d="M5.33,64a9.53,9.53,0,0,1,1.8,2.24,3.64,3.64,0,0,1,.51,1.9,2.67,2.67,0,0,1-.23.87,7.34,7.34,0,0,0-.71,2.1,2.25,2.25,0,0,0,.18,1.15A5.35,5.35,0,0,1,7.36,74a2.49,2.49,0,0,1-.27,1.47A1.42,1.42,0,0,1,6,76.12a3.9,3.9,0,0,1-1.82-.29,2.86,2.86,0,0,1-1.44-1.28,3.51,3.51,0,0,1-.28-2.21,5.18,5.18,0,0,1,1.76-3,4.5,4.5,0,0,0,1.52-2.45A4.73,4.73,0,0,0,5.33,64Z" transform="translate(-1.95 -1.91)"/><path class="cls-9" d="M8.16,69.74a7.38,7.38,0,0,1,1.72-2,5.5,5.5,0,0,0-.49,2.71,2.71,2.71,0,0,0,.5,1.34,5.65,5.65,0,0,0,1,1,6.35,6.35,0,0,1,1.59,1.72,4.24,4.24,0,0,1,.4,1.86,3.17,3.17,0,0,1-.67,2.14,3.21,3.21,0,0,1-1.73.91A2.19,2.19,0,0,1,9,79.24a2.28,2.28,0,0,1-1.31-1.6A1.83,1.83,0,0,1,8,76.22a3.14,3.14,0,0,0,.53-1.9c-.06-1-.55-1.82-.7-2.76A2.92,2.92,0,0,1,8.16,69.74Z" transform="translate(-1.95 -1.91)"/><path class="cls-9" d="M2,76.13a1.69,1.69,0,0,1,.13-.59A4.22,4.22,0,0,0,4,76.85a5.91,5.91,0,0,0,1.57.31,3.53,3.53,0,0,1,.56,0,.52.52,0,0,1,.24.37,5.25,5.25,0,0,0,.32,1A3.13,3.13,0,0,0,8.11,80a3.86,3.86,0,0,0,2.52.33c.33-.06.62-.25.95-.28.12,0,0,.14,0,.19a4,4,0,0,1-2.11,1.47,6,6,0,0,1-3,0A6.76,6.76,0,0,1,4.55,81,4.72,4.72,0,0,1,3,79.6a7.35,7.35,0,0,1-.86-1.84A4.74,4.74,0,0,1,2,76.13Z" transform="translate(-1.95 -1.91)"/><path class="cls-10" d="M35.35,71.49a4.41,4.41,0,0,1,2.35-1,4.23,4.23,0,0,1,2.45.4,2.73,2.73,0,0,1,.93.76c-.46.37-.91.75-1.38,1.12a1.84,1.84,0,0,0-1.12-.63,2.39,2.39,0,0,0-1.67.32,2.5,2.5,0,0,0-1.09,1.69,3.08,3.08,0,0,0,.39,2.18,2.26,2.26,0,0,0,1.48,1,2.11,2.11,0,0,0,1.4-.21,2,2,0,0,0,.7-.63l1.49,1.11a3.31,3.31,0,0,1-1.51,1.15,4.33,4.33,0,0,1-2.05.23,4.47,4.47,0,0,1-2.46-1A4,4,0,0,1,34,75.87a5,5,0,0,1,.07-2.45A3.85,3.85,0,0,1,35.35,71.49Z" transform="translate(-1.95 -1.91)"/><path class="cls-10" d="M18.49,70.7h2.33a6.92,6.92,0,0,1,2.56.28,1.74,1.74,0,0,1,1,1,2.1,2.1,0,0,1-.05,1.65,1.93,1.93,0,0,1-.9.84c-.11,0-.23.08-.34.14a2,2,0,0,1,1.67,2.81,2.1,2.1,0,0,1-1.13,1.12,4.67,4.67,0,0,1-1.92.34H18.49C18.5,76.14,18.49,73.42,18.49,70.7Zm1.79,1.52c0,.58,0,1.17,0,1.75h1.17a1.46,1.46,0,0,0,.94-.22.83.83,0,0,0,.06-1.29,1.89,1.89,0,0,0-1.17-.25C21,72.22,20.62,72.2,20.28,72.22Zm0,3.26c0,.63,0,1.25,0,1.88H21.9a1.52,1.52,0,0,0,.88-.26A.88.88,0,0,0,23,76a1.33,1.33,0,0,0-1-.48C21.42,75.47,20.85,75.49,20.29,75.48Z" transform="translate(-1.95 -1.91)"/><path class="cls-10" d="M28.59,70.7c.49,0,1,0,1.47,0l3.56,8.16h-2c-.24-.57-.47-1.14-.7-1.72-1,0-2.1,0-3.14,0l-.06,0c-.23.57-.46,1.14-.68,1.71H25l3.39-7.81A1.39,1.39,0,0,1,28.59,70.7Zm.6,2.54c-.31.8-.62,1.58-.93,2.37.68,0,1.35,0,2,0-.34-.85-.68-1.69-1-2.55A.76.76,0,0,0,29.19,73.24Z" transform="translate(-1.95 -1.91)"/><path class="cls-10" d="M42.24,70.7H44c0,1.13,0,2.26,0,3.4,1.06-1.13,2.12-2.27,3.19-3.4h2.34c-1.21,1.27-2.43,2.53-3.64,3.79,1.32,1.46,2.63,2.92,4,4.37H47.37C46.26,77.57,45.15,76.27,44,75q0,1.94,0,3.87H42.23C42.24,76.14,42.23,73.42,42.24,70.7Z" transform="translate(-1.95 -1.91)"/><path class="cls-11" d="M50.42,70.7h3.16a5.41,5.41,0,0,1,1.61.24,1.93,1.93,0,0,1,.94.67,2,2,0,0,1,.32,1.2,1.78,1.78,0,0,1-.27,1,1.91,1.91,0,0,1-.89.72.82.82,0,0,0-.25.12,2.19,2.19,0,0,1,1.27.62,2.05,2.05,0,0,1-.85,3.34,4.56,4.56,0,0,1-1.79.3H50.42Zm1.79,1.51V74h1.38a1.11,1.11,0,0,0,.94-.43.83.83,0,0,0-.11-1.05,1.5,1.5,0,0,0-.92-.28Zm0,3.27v1.88h1.16a2.87,2.87,0,0,0,1.05-.1.91.91,0,0,0,.58-.57.83.83,0,0,0-.15-.83,1.51,1.51,0,0,0-1-.37Z" transform="translate(-1.95 -1.91)"/><path class="cls-11" d="M57.88,70.7h1.78v6.51c1.06,0,2.11,0,3.16,0l2.82-6.51h1.48l2.22,5.09c.46,1,.89,2,1.35,3.07h-2c-.23-.58-.47-1.15-.71-1.73H64.81c-.07,0-.07.07-.09.11l-.64,1.62h-6.2Zm7.45,4.91h2c-.34-.85-.67-1.71-1-2.55C66,73.91,65.66,74.77,65.33,75.61Z" transform="translate(-1.95 -1.91)"/><path class="cls-11" d="M71.14,70.7h6.17c0,.52,0,1,0,1.58-.44.56-.91,1.1-1.36,1.65-.9,1.1-1.81,2.18-2.71,3.28,1.41,0,2.81,0,4.22,0,0,.55,0,1.1,0,1.65H71c0-.55,0-1.1,0-1.65l3.37-4c.26-.31.53-.61.78-.93h-4C71.14,71.75,71.13,71.22,71.14,70.7Z" transform="translate(-1.95 -1.91)"/><path class="cls-11" d="M78.66,70.7h5.56c0,.55,0,1.1,0,1.65H80.46q0,.77,0,1.53H84v1.65H80.46c0,.55,0,1.11,0,1.67,1.32,0,2.64,0,4,0,0,.55,0,1.1,0,1.65H78.66C78.67,76.14,78.66,73.42,78.66,70.7Z" transform="translate(-1.95 -1.91)"/><path class="cls-12" d="M103.82,69.46,99.5,72.22,103.82,75,99.5,77.73,95.18,75l4.32-2.76-4.32-2.73L99.5,66.7ZM99.47,78.6l4.32-2.75,4.32,2.75-4.32,2.76ZM103.82,75l4.32-2.76-4.32-2.73,4.29-2.76,4.32,2.76-4.32,2.76L112.43,75l-4.32,2.76Z" transform="translate(-1.95 -1.91)"/><path d="M115.81,69.46h3.49c2.23,0,4.07,1.29,4.07,4.23v.62c0,3-1.73,4.29-4,4.29h-3.56Zm2,1.65v5.81h1.49c1.27,0,2.12-.82,2.12-2.66v-.48c0-1.84-.9-2.67-2.19-2.67Zm6.64.09H126l.25,1.73a2.22,2.22,0,0,1,2.44-1.79h.48v2h-.8c-1.59,0-2,.55-2,2.11v3.4h-1.93V71.2Zm5.12,3.86v-.2a3.75,3.75,0,1,1,7.49,0v.2a3.44,3.44,0,0,1-3.74,3.75C130.88,78.79,129.52,77.5,129.52,75.06ZM135,75v-.18c0-1.38-.69-2.21-1.8-2.21s-1.79.76-1.79,2.21V75c0,1.33.69,2.09,1.79,2.09S135,76.37,135,75Zm3-3.84h1.61l.18,1.41A2.49,2.49,0,0,1,142.25,71c1.88,0,3.12,1.36,3.12,3.86v.21c0,2.43-1.38,3.72-3.12,3.72a2.43,2.43,0,0,1-2.37-1.38v3.74H138l0-10Zm5.4,3.84v-.16c0-1.47-.76-2.21-1.77-2.21s-1.79.83-1.79,2.21V75c0,1.31.69,2.13,1.77,2.13S143.42,76.42,143.42,75Zm4.8,2.21-.16,1.35h-1.65V68.72h1.88v3.79A2.43,2.43,0,0,1,150.7,71c1.77,0,3.08,1.24,3.08,3.7V75c0,2.46-1.24,3.86-3.12,3.86A2.47,2.47,0,0,1,148.22,77.25ZM151.8,75v-.18c0-1.36-.73-2.12-1.76-2.12s-1.8.85-1.8,2.14V75c0,1.38.72,2.18,1.77,2.18S151.8,76.42,151.8,75Zm2.81.11v-.2a3.75,3.75,0,1,1,7.49,0v.2a3.46,3.46,0,0,1-3.75,3.75C156,78.79,154.61,77.5,154.61,75.06Zm5.53,0v-.18c0-1.38-.69-2.21-1.79-2.21s-1.79.76-1.79,2.21V75c0,1.33.69,2.09,1.79,2.09S160.14,76.37,160.14,75Zm4.48-.27L162,71.2h2.23l1.49,2.23,1.51-2.23h2.21l-2.64,3.54,2.78,3.86h-2.18l-1.7-2.46-1.66,2.46H161.8Z" transform="translate(-1.95 -1.91)"/></svg>