<svg id="Layer_1" data-name="Layer 1" xmlns="http://www.w3.org/2000/svg" viewBox="0 0 158.74 99.68"><defs><style>.cls-1{fill:#cf112b;}.cls-2{fill:#302e2f;}.cls-3{fill:#626365;}.cls-4{fill:#316fea;}.cls-5{fill:#252f3e;}.cls-6{fill:#f90;fill-rule:evenodd;}.cls-7{fill:#0080ff;}.cls-8{fill:#ea4335;}.cls-9{fill:#4285f4;}.cls-10{fill:#34a853;}.cls-11{fill:#fbbc05;}.cls-12{fill:#5f6368;}.cls-13{fill:#0089d6;}</style></defs><title>brands</title><path class="cls-1" d="M47.93,87.21a9.05,9.05,0,0,1,1.78,2.21,3.54,3.54,0,0,1,.51,1.88,2.55,2.55,0,0,1-.23.86,7.4,7.4,0,0,0-.7,2.08,2.2,2.2,0,0,0,.18,1.13,5.22,5.22,0,0,1,.47,1.77,2.5,2.5,0,0,1-.26,1.45,1.41,1.41,0,0,1-1.07.62,3.92,3.92,0,0,1-1.79-.28,2.8,2.8,0,0,1-1.42-1.27,3.41,3.41,0,0,1-.28-2.18,5.1,5.1,0,0,1,1.74-3,4.51,4.51,0,0,0,1.5-2.43A4.69,4.69,0,0,0,47.93,87.21Z" transform="translate(-5.97 -5.22)"/><path class="cls-1" d="M50.73,92.91a7.55,7.55,0,0,1,1.7-2A5.4,5.4,0,0,0,52,93.6a2.8,2.8,0,0,0,.49,1.33,5.83,5.83,0,0,0,1,.93A6.4,6.4,0,0,1,55,97.57a4.1,4.1,0,0,1,.39,1.83,3,3,0,0,1-.66,2.11,3.19,3.19,0,0,1-1.7.91,2.25,2.25,0,0,1-2.77-1.7,1.85,1.85,0,0,1,.26-1.41,3.11,3.11,0,0,0,.53-1.87c-.06-1-.54-1.8-.69-2.73A2.85,2.85,0,0,1,50.73,92.91Z" transform="translate(-5.97 -5.22)"/><path class="cls-1" d="M44.6,99.23a1.68,1.68,0,0,1,.12-.59,4.27,4.27,0,0,0,1.91,1.3,6.26,6.26,0,0,0,1.55.3,3.43,3.43,0,0,1,.56.05.59.59,0,0,1,.24.37,4.88,4.88,0,0,0,.31,1A3.14,3.14,0,0,0,50.68,103a3.86,3.86,0,0,0,2.5.32c.32-.06.6-.24.93-.27.12,0,0,.13,0,.19A4,4,0,0,1,52,104.69a5.9,5.9,0,0,1-3,0,6.58,6.58,0,0,1-1.87-.69,4.57,4.57,0,0,1-1.52-1.38,7.29,7.29,0,0,1-.86-1.83A4.81,4.81,0,0,1,44.6,99.23Z" transform="translate(-5.97 -5.22)"/><path class="cls-2" d="M77.6,94.64a4.38,4.38,0,0,1,2.32-1,4.21,4.21,0,0,1,2.42.39,2.69,2.69,0,0,1,.92.75L81.9,95.94a1.85,1.85,0,0,0-1.11-.62,2.33,2.33,0,0,0-1.65.32,2.44,2.44,0,0,0-1.07,1.66,3,3,0,0,0,.38,2.16,2.21,2.21,0,0,0,1.46,1,2.16,2.16,0,0,0,1.39-.21,2,2,0,0,0,.68-.62l1.48,1.1a3.25,3.25,0,0,1-1.5,1.13,4.33,4.33,0,0,1-2,.23,4.44,4.44,0,0,1-2.43-1A4,4,0,0,1,76.29,99a5.12,5.12,0,0,1,.07-2.43A3.79,3.79,0,0,1,77.6,94.64Z" transform="translate(-5.97 -5.22)"/><path class="cls-2" d="M60.94,93.86h2.3a6.74,6.74,0,0,1,2.53.28,1.68,1.68,0,0,1,1,1,2.1,2.1,0,0,1,0,1.63,1.82,1.82,0,0,1-.89.82c-.11,0-.23.08-.34.14a2.14,2.14,0,0,1,1.42.8,2.09,2.09,0,0,1,.23,2,2,2,0,0,1-1.12,1.1,4.5,4.5,0,0,1-1.89.34H60.94C61,99.23,60.94,96.55,60.94,93.86Zm1.77,1.5c0,.57,0,1.15,0,1.73h1.17a1.45,1.45,0,0,0,.93-.22.82.82,0,0,0,0-1.27,1.84,1.84,0,0,0-1.15-.25C63.38,95.36,63,95.34,62.71,95.36Zm0,3.23v1.85H64.3a1.58,1.58,0,0,0,.88-.25.9.9,0,0,0,.23-1.13,1.31,1.31,0,0,0-1-.46C63.83,98.57,63.27,98.59,62.71,98.59Z" transform="translate(-5.97 -5.22)"/><path class="cls-2" d="M70.92,93.86c.48,0,1,0,1.45,0,1.17,2.68,2.34,5.38,3.52,8.06h-2l-.69-1.7c-1,0-2.07,0-3.11,0l0,0c-.23.56-.46,1.12-.67,1.69h-2c1.12-2.57,2.23-5.15,3.35-7.72A1.5,1.5,0,0,1,70.92,93.86Zm.59,2.51-.91,2.34c.66,0,1.33,0,2,0-.33-.84-.67-1.67-1-2.52Z" transform="translate(-5.97 -5.22)"/><path class="cls-2" d="M84.4,93.86h1.78c0,1.12,0,2.24,0,3.35,1.06-1.11,2.1-2.24,3.16-3.35h2.31l-3.6,3.75q2,2.16,3.91,4.31H89.48c-1.1-1.27-2.19-2.56-3.3-3.83,0,1.28,0,2.56,0,3.83H84.4C84.41,99.23,84.4,96.55,84.4,93.86Z" transform="translate(-5.97 -5.22)"/><path class="cls-3" d="M92.49,93.86h3.13a5.07,5.07,0,0,1,1.59.24,1.88,1.88,0,0,1,.92.65,2,2,0,0,1,.32,1.19,1.83,1.83,0,0,1-.27.94,2,2,0,0,1-.87.71.77.77,0,0,0-.26.12,2.15,2.15,0,0,1,1.26.61,2,2,0,0,1-.84,3.31,4.64,4.64,0,0,1-1.77.29H92.49Zm1.77,1.49c0,.58,0,1.16,0,1.74h1.36a1.1,1.1,0,0,0,.93-.42.83.83,0,0,0-.11-1,1.47,1.47,0,0,0-.91-.28Zm0,3.24c0,.61,0,1.23,0,1.85H95.4a2.8,2.8,0,0,0,1-.1.9.9,0,0,0,.58-.56.83.83,0,0,0-.15-.82,1.49,1.49,0,0,0-1-.37C95.34,98.58,94.8,98.59,94.26,98.59Z" transform="translate(-5.97 -5.22)"/><path class="cls-3" d="M99.86,93.86h1.76v6.43h3.12l2.79-6.43c.49,0,1,0,1.46,0q1.11,2.51,2.2,5c.44,1,.87,2,1.33,3h-2l-.69-1.7c-1,0-2.08,0-3.11,0-.07,0-.08.06-.1.1-.2.54-.41,1.07-.62,1.6-2,0-4.09,0-6.13,0Zm7.36,4.85h2c-.33-.84-.66-1.69-1-2.52C107.87,97,107.55,97.88,107.22,98.71Z" transform="translate(-5.97 -5.22)"/><path class="cls-3" d="M113,93.86h6.1c0,.52,0,1,0,1.56-.43.55-.9,1.09-1.34,1.63L115,100.29h4.16c0,.55,0,1.09,0,1.63h-6.4c0-.54,0-1.09,0-1.63l3.34-4c.25-.31.52-.61.77-.92h-4Z" transform="translate(-5.97 -5.22)"/><path class="cls-3" d="M120.4,93.86h5.49c0,.54,0,1.08,0,1.63h-3.72V97h3.51v1.63h-3.51c0,.55,0,1.1,0,1.65h3.92v1.63H120.4Z" transform="translate(-5.97 -5.22)"/><path class="cls-4" d="M37.24,13.45a6.37,6.37,0,0,1,6.65-6.56,6.37,6.37,0,0,1,6.65,6.56A6.94,6.94,0,0,1,49.6,17l1.13,1L48.9,20.1,47.66,19a6.94,6.94,0,0,1-3.77,1A6.38,6.38,0,0,1,37.24,13.45Zm3.23,0a3.44,3.44,0,0,0,3.42,3.7,3.34,3.34,0,0,0,1.36-.27l-1-.93,1.8-2.1,1.1,1a4.56,4.56,0,0,0,.22-1.36,3.43,3.43,0,1,0-6.85,0Z" transform="translate(-5.97 -5.22)"/><path class="cls-4" d="M54.53,15.84a1.89,1.89,0,0,0,2,1.58,2.43,2.43,0,0,0,2-1l2,1.54a4.55,4.55,0,0,1-4,2.11,4.77,4.77,0,0,1-5.06-5,4.71,4.71,0,0,1,4.68-5c3,0,4.67,1.94,4.67,5.18,0,.19,0,.38,0,.6Zm.09-1.92H57.7a1.46,1.46,0,0,0-1.54-1.41A1.5,1.5,0,0,0,54.62,13.92Z" transform="translate(-5.97 -5.22)"/><path class="cls-4" d="M67.57,14.14a1.21,1.21,0,0,0-1.25-1.36A1.26,1.26,0,0,0,65,14.14v5.67H62V10.3h3v1a2.82,2.82,0,0,1,2.39-1.22c3,0,3.26,2.54,3.26,4.48v5.27h-3Z" transform="translate(-5.97 -5.22)"/><path class="cls-4" d="M78.93,16.71l.8,2.48a5.11,5.11,0,0,1-8-4.13,4.93,4.93,0,0,1,5.14-5,4.81,4.81,0,0,1,2.83.87l-.82,2.56a3,3,0,0,0-1.9-.71,2.12,2.12,0,0,0-2.23,2.27,2.22,2.22,0,0,0,2.34,2.33A2.88,2.88,0,0,0,78.93,16.71Z" transform="translate(-5.97 -5.22)"/><path class="cls-4" d="M85.08,10.06a4.92,4.92,0,0,1,5.22,5,5,5,0,0,1-5.22,5,4.9,4.9,0,0,1-5.17-5A5,5,0,0,1,85.08,10.06Zm0,7.32a2.2,2.2,0,0,0,2.19-2.33,2.17,2.17,0,1,0-4.33,0A2.12,2.12,0,0,0,85.08,17.38Z" transform="translate(-5.97 -5.22)"/><path class="cls-4" d="M98.3,19.07a3.55,3.55,0,0,1-2.57,1c-2.74,0-4.66-2.07-4.66-5s1.74-5,4.5-5a3.52,3.52,0,0,1,2.53,1V6.71h3v13.1H98.3Zm-2.15-6.34a2.1,2.1,0,0,0-2.05,2.35,2.07,2.07,0,0,0,2.05,2.32,2.09,2.09,0,0,0,2-2.32C98.19,13.58,97.34,12.73,96.15,12.73Z" transform="translate(-5.97 -5.22)"/><path class="cls-4" d="M105.5,15.84a1.88,1.88,0,0,0,2,1.58,2.43,2.43,0,0,0,2-1l2,1.54a4.52,4.52,0,0,1-4,2.11,4.77,4.77,0,0,1-5-5,4.71,4.71,0,0,1,4.67-5c3,0,4.68,1.94,4.68,5.18,0,.19,0,.38,0,.6Zm.09-1.92h3.08a1.46,1.46,0,0,0-1.54-1.41A1.5,1.5,0,0,0,105.59,13.92Z" transform="translate(-5.97 -5.22)"/><path class="cls-4" d="M126.88,18.35a6.57,6.57,0,1,1,6.56-6.57A6.57,6.57,0,0,1,126.88,18.35Zm0-9.86a3.29,3.29,0,1,0,3.28,3.29A3.29,3.29,0,0,0,126.88,8.49Z" transform="translate(-5.97 -5.22)"/><path class="cls-4" d="M122.08,24.08a3.68,3.68,0,0,1,2-.65c1.29,0,2.42,1.34,4.77,1.34a5.39,5.39,0,0,0,3.95-1.89L131.62,21a3.7,3.7,0,0,1-2,.66c-1.29,0-2.42-1.35-4.77-1.35a5.41,5.41,0,0,0-3.95,1.89Z" transform="translate(-5.97 -5.22)"/><path class="cls-5" d="M15.35,41.34a3.22,3.22,0,0,0,.12,1,6.52,6.52,0,0,0,.35.8.43.43,0,0,1,.08.25.45.45,0,0,1-.21.33l-.69.47a.59.59,0,0,1-.29.1.51.51,0,0,1-.33-.16,2.78,2.78,0,0,1-.4-.52c-.11-.19-.22-.4-.34-.65a4.06,4.06,0,0,1-3.25,1.52,3,3,0,0,1-2.2-.79,2.85,2.85,0,0,1-.82-2.12,2.81,2.81,0,0,1,1-2.27,4,4,0,0,1,2.7-.86,8.09,8.09,0,0,1,1.17.09,12.78,12.78,0,0,1,1.27.24v-.81A2.43,2.43,0,0,0,13,36.18a2.5,2.5,0,0,0-1.8-.51,5,5,0,0,0-1.19.14,7.86,7.86,0,0,0-1.19.38,2.42,2.42,0,0,1-.39.14l-.18,0C8.1,36.36,8,36.25,8,36v-.54a.63.63,0,0,1,.08-.38.75.75,0,0,1,.31-.24,6.59,6.59,0,0,1,1.39-.49,6.39,6.39,0,0,1,1.72-.21,4.06,4.06,0,0,1,2.89.89,3.65,3.65,0,0,1,.92,2.72v3.57ZM10.87,43a3.7,3.7,0,0,0,1.14-.2,2.43,2.43,0,0,0,1-.71,1.78,1.78,0,0,0,.38-.7,3.84,3.84,0,0,0,.11-1V40a9.8,9.8,0,0,0-1-.18,7.23,7.23,0,0,0-1-.07,2.56,2.56,0,0,0-1.65.44,1.56,1.56,0,0,0-.54,1.27A1.43,1.43,0,0,0,10.87,43Zm8.86,1.19a.6.6,0,0,1-.42-.11.93.93,0,0,1-.23-.43l-2.59-8.53a1.71,1.71,0,0,1-.1-.44c0-.18.08-.28.26-.28h1.08a.64.64,0,0,1,.43.11.85.85,0,0,1,.22.43l1.86,7.31L22,35a.75.75,0,0,1,.21-.43.81.81,0,0,1,.44-.11h.88a.69.69,0,0,1,.44.11.72.72,0,0,1,.21.43l1.75,7.4L27.8,35a.89.89,0,0,1,.22-.43.77.77,0,0,1,.43-.11h1a.25.25,0,0,1,.28.28,1.11,1.11,0,0,1,0,.17,1.83,1.83,0,0,1-.08.28L27,43.68a.88.88,0,0,1-.23.43.68.68,0,0,1-.42.11h-.95a.65.65,0,0,1-.44-.11.75.75,0,0,1-.21-.44L23,36.55l-1.7,7.11a.9.9,0,0,1-.21.44.66.66,0,0,1-.44.11Zm14.18.3a7.45,7.45,0,0,1-1.7-.2,5.24,5.24,0,0,1-1.27-.44.75.75,0,0,1-.34-.31.7.7,0,0,1-.07-.31v-.56c0-.23.09-.34.26-.34l.2,0,.27.11a5.89,5.89,0,0,0,1.21.38,6.66,6.66,0,0,0,1.32.14,2.93,2.93,0,0,0,1.61-.37,1.19,1.19,0,0,0,.57-1,1.08,1.08,0,0,0-.3-.77,2.73,2.73,0,0,0-1.11-.57l-1.6-.5a3.4,3.4,0,0,1-1.77-1.12,2.67,2.67,0,0,1-.55-1.6,2.44,2.44,0,0,1,.3-1.23,2.75,2.75,0,0,1,.8-.9,3.5,3.5,0,0,1,1.14-.58,4.91,4.91,0,0,1,1.39-.18,6,6,0,0,1,.74,0c.26,0,.49.08.72.12s.43.11.63.18a1.84,1.84,0,0,1,.46.2.77.77,0,0,1,.33.27.58.58,0,0,1,.1.37v.51c0,.24-.09.36-.25.36a1.33,1.33,0,0,1-.42-.13,5,5,0,0,0-2.12-.43,2.88,2.88,0,0,0-1.47.3,1.08,1.08,0,0,0-.52,1,1,1,0,0,0,.34.78,3.25,3.25,0,0,0,1.21.61l1.57.49a3.47,3.47,0,0,1,1.71,1.06,2.5,2.5,0,0,1,.5,1.55,2.83,2.83,0,0,1-.28,1.28,3.13,3.13,0,0,1-.81,1,3.79,3.79,0,0,1-1.22.62A5.44,5.44,0,0,1,33.91,44.51Z" transform="translate(-5.97 -5.22)"/><path class="cls-6" d="M36,49.87A23.8,23.8,0,0,1,22.55,54a24.28,24.28,0,0,1-16.4-6.26c-.35-.31,0-.73.37-.49a33,33,0,0,0,16.42,4.36A32.84,32.84,0,0,0,35.47,49C36.07,48.76,36.59,49.43,36,49.87Z" transform="translate(-5.97 -5.22)"/><path class="cls-6" d="M37.51,48.15c-.47-.6-3.07-.29-4.25-.14-.35,0-.41-.27-.09-.5,2.07-1.46,5.48-1,5.88-.55s-.11,3.9-2,5.54c-.3.25-.59.12-.45-.21C37,51.19,38,48.73,37.51,48.15Z" transform="translate(-5.97 -5.22)"/><path class="cls-7" d="M70.9,50.08V46.72a5.3,5.3,0,0,0,4.94-7.23,5,5,0,0,0-3-3A5.31,5.31,0,0,0,66,39.59a5.44,5.44,0,0,0-.34,1.83H62.31A8.68,8.68,0,0,1,73.7,33.23a8.32,8.32,0,0,1,5.45,5.44A8.71,8.71,0,0,1,70.9,50.08Z" transform="translate(-5.97 -5.22)"/><path class="cls-7" d="M71,46.72H67.6V43.41H71m-3.36,5.9H65.05V46.72H67.6v2.59m-2.55-2.59H62.92V44.58h2.13M93,37.81a6.5,6.5,0,0,0-3.67-1h-3.1v9.92h3.11A6.18,6.18,0,0,0,93,45.64a3.88,3.88,0,0,0,1.27-1.57,5.63,5.63,0,0,0,.46-2.35,5.2,5.2,0,0,0-.46-2.29A3.2,3.2,0,0,0,93,37.81Zm-4.94.66h1a5,5,0,0,1,2.7.66,2.78,2.78,0,0,1,1.12,2.6,3.15,3.15,0,0,1-1.12,2.7,4.94,4.94,0,0,1-2.65.66h-1V38.47m8.86-1.83a1,1,0,0,0-.77.31.92.92,0,0,0-.35.76,1.07,1.07,0,1,0,2.13,0,1,1,0,0,0-.3-.76.85.85,0,0,0-.72-.31m-.92,3h1.78v7H96v-7m8.14.62a2.69,2.69,0,0,0-1.78-.77,3.17,3.17,0,0,0-2.39,1,3.77,3.77,0,0,0,0,5,3.14,3.14,0,0,0,2.39,1A2.8,2.8,0,0,0,104,46v.15a1.86,1.86,0,0,1-.45,1.33,1.7,1.7,0,0,1-1.28.46,2.17,2.17,0,0,1-1.93-1.17L99.14,47.9l.06.05A4.77,4.77,0,0,0,100.37,49a3.35,3.35,0,0,0,1.93.51,3.18,3.18,0,0,0,2.49-1,3.57,3.57,0,0,0,1-2.54V39.69H104v.62h.1m-.45,4.12a1.74,1.74,0,0,1-2.46,0,2.08,2.08,0,0,1-.45-1.38,2.06,2.06,0,0,1,.46-1.37,1.74,1.74,0,0,1,2.46,0,2.06,2.06,0,0,1,.45,1.37,2.08,2.08,0,0,1-.45,1.38m3.71-4.74h1.78v7h-1.79v-7m.86-3a1,1,0,0,0-1.06,1v.05a1.07,1.07,0,1,0,2.13,0,1,1,0,0,0-1-1.07h-.06M113,37.81h-1.72v1.88h-1v1.58h1v2.9a2.74,2.74,0,0,0,.56,1.94,2.7,2.7,0,0,0,1.88.56,6.35,6.35,0,0,0,.87-.05h.1V45l-.62.05c-.4,0-.71-.05-.81-.21S113,44.43,113,44V41.32h1.63V39.74H113L113,37.81m9.88-1h1.78v9.92h-1.78V36.79m19.54,7.43a5.19,5.19,0,0,1-.87.82,1.71,1.71,0,0,1-2.18-.31,2.39,2.39,0,0,1,0-2.95,1.55,1.55,0,0,1,1.27-.56,2.32,2.32,0,0,1,1.68,1l1.17-1.13a3.51,3.51,0,0,0-2.9-1.42,3.37,3.37,0,0,0-2.5,1.07,3.71,3.71,0,0,0-1,2.59,3.62,3.62,0,0,0,1,2.6,3.36,3.36,0,0,0,2.5,1.07,3.51,3.51,0,0,0,3-1.58l-1.17-1.17m7.17-3.51a2.62,2.62,0,0,0-1-.82,3.41,3.41,0,0,0-1.47-.31,3,3,0,0,0-2.4,1.07,4.13,4.13,0,0,0-.86,2.6,3.48,3.48,0,0,0,1,2.59,3.4,3.4,0,0,0,2.55,1,3.51,3.51,0,0,0,2.9-1.43l.05,0-1.17-1.12a2.61,2.61,0,0,1-.41.4,1.4,1.4,0,0,1-.51.36,1.52,1.52,0,0,1-.86.2,1.93,1.93,0,0,1-1.23-.4,1.54,1.54,0,0,1-.51-1.07h4.68V43.1a3.94,3.94,0,0,0-.2-1.33,2.32,2.32,0,0,0-.51-1.07m-3.8,1.64a1.75,1.75,0,0,1,.45-.82,1.23,1.23,0,0,1,.92-.35,1.21,1.21,0,0,1,1,.35,1.54,1.54,0,0,1,.36.82h-2.7m10.58-2.09a3.2,3.2,0,0,0-2.19-.66,4.49,4.49,0,0,0-1.62.36,2.69,2.69,0,0,0-1.17,1.12l1.12,1.07a1.79,1.79,0,0,1,1.68-1,1.45,1.45,0,0,1,.92.3,1,1,0,0,1,.36.77v.35a4.23,4.23,0,0,0-1.28-.2A3.51,3.51,0,0,0,152,43a2.06,2.06,0,0,0-.82,1.73,2,2,0,0,0,.66,1.58,2.4,2.4,0,0,0,1.68.56,3.08,3.08,0,0,0,1.88-.71v.56h1.73V42.19a2.34,2.34,0,0,0-.82-1.94M153.24,44a1.31,1.31,0,0,1,.82-.21,4.55,4.55,0,0,1,1.32.26v.66a2.26,2.26,0,0,1-1.53.56,1,1,0,0,1-.71-.2.71.71,0,0,1-.26-.51.85.85,0,0,1,.36-.56m10.68-3.67a2.57,2.57,0,0,0-2-.81,2.24,2.24,0,0,0-1.68.61v-.41h-1.73v7h1.78V42.85a2,2,0,0,1,.35-1.27,1.28,1.28,0,0,1,1-.46,1.11,1.11,0,0,1,.92.41,1.8,1.8,0,0,1,.35,1.12v4.07h1.78V42.64a3.91,3.91,0,0,0-.77-2.29m-43.25-.1a3.2,3.2,0,0,0-2.19-.66,4.39,4.39,0,0,0-1.63.36,2.74,2.74,0,0,0-1.17,1.12l1.13,1.07a1.78,1.78,0,0,1,1.68-1,1.45,1.45,0,0,1,.92.3,1,1,0,0,1,.35.77v.35a4.21,4.21,0,0,0-1.27-.2,3.54,3.54,0,0,0-2.14.61,2,2,0,0,0-.81,1.73,2,2,0,0,0,.66,1.58,2.38,2.38,0,0,0,1.68.56,3.11,3.11,0,0,0,1.88-.71v.56h1.73V42.19a2.53,2.53,0,0,0-.82-1.94M117.52,44a1.28,1.28,0,0,1,.81-.21,4.62,4.62,0,0,1,1.33.26v.66a2.26,2.26,0,0,1-1.53.56,1,1,0,0,1-.72-.2.73.73,0,0,1-.25-.51,1.5,1.5,0,0,1,.36-.56M131,46.87a5.09,5.09,0,1,1,5.09-5.1h0A5.11,5.11,0,0,1,131,46.87m0-8.45a3.31,3.31,0,1,0,3.31,3.31h0a3.3,3.3,0,0,0-3.3-3.31h0" transform="translate(-5.97 -5.22)"/><path class="cls-8" d="M17.35,67h.06l0,0,2.16-2.15v0A7,7,0,0,0,8.14,68.21l.11,0A5.07,5.07,0,0,1,11,67.33a4.75,4.75,0,0,1,1,.1l0,0a3.89,3.89,0,0,1,5.32-.4Z" transform="translate(-5.97 -5.22)"/><path class="cls-9" d="M21.68,68.21a7,7,0,0,0-2.12-3.42L17.37,67a3.89,3.89,0,0,1,1.43,3.09v.39a2,2,0,1,1,0,3.89H14.9v3.09h0l0,0H18.8a5.06,5.06,0,0,0,2.88-9.26Z" transform="translate(-5.97 -5.22)"/><path class="cls-10" d="M11,77.45H14.9V74.33H11a2,2,0,0,1-.8-.17L8,76.41v0a5.09,5.09,0,0,0,3.06,1Z" transform="translate(-5.97 -5.22)"/><path class="cls-11" d="M11,67.33A5.07,5.07,0,0,0,8,76.41l2.26-2.26a1.95,1.95,0,1,1,2.58-2.57L15,69.32a5.06,5.06,0,0,0-4-2Z" transform="translate(-5.97 -5.22)"/><path class="cls-12" d="M34.28,75.27a5,5,0,0,1-3.61-1.48,5,5,0,0,1,0-7.14,5,5,0,0,1,3.61-1.51,4.87,4.87,0,0,1,3.46,1.4l-1,1a3.51,3.51,0,0,0-2.49-1,3.41,3.41,0,0,0-2.57,1.09,3.59,3.59,0,0,0-1.06,2.6,3.54,3.54,0,0,0,1.06,2.56,3.66,3.66,0,0,0,5.12.06,2.93,2.93,0,0,0,.75-1.7H34.29v-1.4h4.65a4,4,0,0,1,.05.85,4.33,4.33,0,0,1-1.2,3.23,4.6,4.6,0,0,1-3.51,1.43Zm10.8-.93a3.36,3.36,0,0,1-4.64,0,3.35,3.35,0,0,1,0-4.65,3.36,3.36,0,0,1,4.64,0A3.12,3.12,0,0,1,46,72a3.09,3.09,0,0,1-1,2.32Zm-3.61-.91a1.78,1.78,0,0,0,2.58,0,2.1,2.1,0,0,0,0-2.83,1.79,1.79,0,0,0-2.59,0,2.1,2.1,0,0,0,0,2.83Zm10.73.91a3.36,3.36,0,0,1-4.64,0,3.35,3.35,0,0,1,0-4.65,3.36,3.36,0,0,1,4.64,0,3.32,3.32,0,0,1,0,4.65Zm-3.61-.91a1.79,1.79,0,0,0,2.59,0,2.12,2.12,0,0,0,0-2.83,1.8,1.8,0,0,0-2.6,0A2,2,0,0,0,48,72a2,2,0,0,0,.55,1.41Zm8.29,4.76a2.85,2.85,0,0,1-1.82-.58A3.35,3.35,0,0,1,54,76.26l1.25-.51a2,2,0,0,0,.61.81,1.61,1.61,0,0,0,1,.35,1.68,1.68,0,0,0,1.27-.5A2,2,0,0,0,58.62,75v-.47h0a2.09,2.09,0,0,1-1.71.74,3,3,0,0,1-2.19-1,3.28,3.28,0,0,1,0-4.6,3,3,0,0,1,2.19-1,2.47,2.47,0,0,1,1,.22,2,2,0,0,1,.71.52h0V69H60V74.8a3.39,3.39,0,0,1-.87,2.54,3.07,3.07,0,0,1-2.23.85ZM57,74a1.6,1.6,0,0,0,1.24-.55,2,2,0,0,0,.49-1.4,2.08,2.08,0,0,0-.49-1.43A1.62,1.62,0,0,0,57,70.07a1.71,1.71,0,0,0-1.28.54A2,2,0,0,0,55.15,72a2,2,0,0,0,.55,1.4A1.69,1.69,0,0,0,57,74Zm5.41,1.08H61V65.51h1.43v9.56Zm3.92.2A3.16,3.16,0,0,1,64,74.34a3.46,3.46,0,0,1,0-4.67,3,3,0,0,1,2.19-.91,2.9,2.9,0,0,1,1.09.21,2.5,2.5,0,0,1,.84.55,3.86,3.86,0,0,1,.55.66,4.25,4.25,0,0,1,.32.64l.15.38L64.73,73a1.64,1.64,0,0,0,1.58,1,1.88,1.88,0,0,0,1.6-.9l1.09.73a3.58,3.58,0,0,1-1,1,3,3,0,0,1-1.64.46Zm-1.83-3.35,2.91-1.21a1,1,0,0,0-.45-.5,1.42,1.42,0,0,0-.75-.19,1.69,1.69,0,0,0-1.18.52,1.74,1.74,0,0,0-.53,1.38Z" transform="translate(-5.97 -5.22)"/><path class="cls-12" d="M76.59,75.27a4.61,4.61,0,1,1,0-9.22,4.08,4.08,0,0,1,3.24,1.44l-.79.77a3,3,0,0,0-2.45-1.12,3.33,3.33,0,0,0-2.43,1,3.78,3.78,0,0,0,0,5.1,3.33,3.33,0,0,0,2.43,1,3.5,3.5,0,0,0,2.74-1.28l.78.79a4.25,4.25,0,0,1-1.51,1.15,4.66,4.66,0,0,1-2,.43Z" transform="translate(-5.97 -5.22)"/><polygon class="cls-12" points="75.13 69.86 76.26 69.86 76.26 61.02 75.13 61.02 75.13 69.86 75.13 69.86"/><path class="cls-12" d="M84.08,69.76a3.16,3.16,0,0,1,4.46,0,3.43,3.43,0,0,1,0,4.59,3.16,3.16,0,0,1-4.46,0,3.43,3.43,0,0,1,0-4.59Zm.84,3.88a1.9,1.9,0,0,0,2.77,0,2.42,2.42,0,0,0,0-3.17,1.9,1.9,0,0,0-2.77,0,2.16,2.16,0,0,0-.58,1.58,2.22,2.22,0,0,0,.59,1.59Z" transform="translate(-5.97 -5.22)"/><path class="cls-12" d="M95.7,75.07H94.6v-.83h0a2.13,2.13,0,0,1-.8.75,2.21,2.21,0,0,1-1.12.3,2.12,2.12,0,0,1-1.72-.69,2.79,2.79,0,0,1-.59-1.85V69h1.14v3.52c0,1.12.49,1.69,1.49,1.69a1.39,1.39,0,0,0,1.15-.55,2.07,2.07,0,0,0,.44-1.31V69H95.7v6Z" transform="translate(-5.97 -5.22)"/><path class="cls-12" d="M99.54,75.27a2.65,2.65,0,0,1-2-.93,3.22,3.22,0,0,1-.85-2.29,3.25,3.25,0,0,1,.85-2.29,2.6,2.6,0,0,1,2-.92,2.54,2.54,0,0,1,1.24.29,2.24,2.24,0,0,1,.82.74h0l0-.84V66.24h1.13v8.83h-1.09v-.83h-.06a2,2,0,0,1-.82.73,2.45,2.45,0,0,1-1.22.3Zm.19-1a1.85,1.85,0,0,0,1.36-.59,2.59,2.59,0,0,0,0-3.19,1.86,1.86,0,0,0-2.74,0,2.61,2.61,0,0,0,0,3.18,1.84,1.84,0,0,0,1.38.6Z" transform="translate(-5.97 -5.22)"/><g id="layer1"><g id="layer1-1"><path id="path21" class="cls-13" d="M123.72,76.63l4.35-.76h0l-2.24-2.66c-1.23-1.46-2.23-2.66-2.23-2.67S126,64.17,126,64.14l3.8,6.57c2.09,3.62,3.81,6.61,3.83,6.63l0,.06h-14.2ZM151,76a1.89,1.89,0,0,1-1.88-1.84,18.45,18.45,0,0,1,0-2.3V69.93H150v1.86c0,1.68,0,1.87,0,2a1.72,1.72,0,0,0,.41,1,1.15,1.15,0,0,0,.67.35,2.84,2.84,0,0,0,.65,0,1.47,1.47,0,0,0,.72-.4,1.85,1.85,0,0,0,.49-.94l0-.13V70h1v5.9h-1v-.47a3,3,0,0,0,0-.46s0,0-.06.08a1.87,1.87,0,0,1-.75.75A2.1,2.1,0,0,1,151,76Zm11,0a2.48,2.48,0,0,1-1.11-.37,2.69,2.69,0,0,1-1.22-2.1,4.81,4.81,0,0,1,0-1.07,3.53,3.53,0,0,1,.68-1.71,3.33,3.33,0,0,1,.42-.42,2.49,2.49,0,0,1,1.05-.5,3.52,3.52,0,0,1,.86,0,2.22,2.22,0,0,1,1.52.78,3,3,0,0,1,.61,1.85v.73h-4.19v.09a2.33,2.33,0,0,0,.19.89,2,2,0,0,0,.42.62,1.9,1.9,0,0,0,1.07.45,4.12,4.12,0,0,0,.69,0,2.88,2.88,0,0,0,1.31-.54l.09-.06a2,2,0,0,1,0,.43v.45l-.1.06a3.38,3.38,0,0,1-1.4.48,8.61,8.61,0,0,1-.89,0Zm1.82-3.75a1.91,1.91,0,0,0-.48-1.28,1.4,1.4,0,0,0-.74-.36,2.18,2.18,0,0,0-.57,0,1.59,1.59,0,0,0-.79.41,2.3,2.3,0,0,0-.51.83,2.43,2.43,0,0,0-.1.41v0h3.2Zm-28.39,3.6s.72-1.88,1.58-4.15l1.58-4.14h1l0,.11,3.15,8.19h-1.07l-.44-1.16-.43-1.16h-3.51l0,0-.41,1.16-.4,1.12h-1.08Zm5.1-3.2s-.3-.79-.66-1.76a16.31,16.31,0,0,1-.76-2.22c0-.14,0-.14-.05,0s-.06.28-.09.39l-.67,1.85c-.35,1-.64,1.74-.64,1.75H139C139.79,72.65,140.44,72.65,140.44,72.64ZM143,75.7v-.15l1.75-2.41,1.75-2.4h-3.17v-.8h4.58v.27l-1.75,2.42c-1,1.32-1.75,2.41-1.75,2.42h3.45v.81H143Zm12.83.14V69.93h.95v.61c0,.33,0,.61,0,.61a.36.36,0,0,0,.05-.13,2.21,2.21,0,0,1,.54-.82,1.34,1.34,0,0,1,.75-.37,1.29,1.29,0,0,1,.32,0,1.31,1.31,0,0,1,.44.07h0v1l-.12-.06a1.12,1.12,0,0,0-.63-.12.92.92,0,0,0-.38.07,1.21,1.21,0,0,0-.6.49,2.77,2.77,0,0,0-.4,1.15c0,.07,0,.64,0,1.77v1.67h-.95Zm-40.66,0,2.34-4.06,2.34-4.05,2.73-2.29,2.73-2.29s0,0,0,.11l-3,6.35-2.91,6.23h-2.11C116.16,75.83,115.2,75.83,115.2,75.82Z" transform="translate(-5.97 -5.22)"/></g></g></svg>