<svg id="Isolation_Mode" data-name="Isolation Mode" xmlns="http://www.w3.org/2000/svg" viewBox="0 0 70.86 65.52"><defs><style>.cls-1{fill:#316fea;}</style></defs><title>upload</title><path class="cls-1" d="M170.72,277.05H101.15a.65.65,0,0,0-.65.65V330a.65.65,0,0,0,.65.65h17c0-.43,0-.86.09-1.3H101.8v-51h68.27v38.83a.65.65,0,0,0,1.3,0V277.7A.65.65,0,0,0,170.72,277.05Z" transform="translate(-100.5 -277.05)"/><path class="cls-1" d="M170.72,290.11H101.15a.65.65,0,0,1,0-1.3h69.57a.65.65,0,0,1,0,1.3Z" transform="translate(-100.5 -277.05)"/><path class="cls-1" d="M108.18,286.09a2.64,2.64,0,1,1,2.63-2.64A2.64,2.64,0,0,1,108.18,286.09Zm0-4a1.33,1.33,0,1,0,1.33,1.33A1.34,1.34,0,0,0,108.18,282.12Z" transform="translate(-100.5 -277.05)"/><path class="cls-1" d="M116.76,286.09a2.64,2.64,0,1,1,2.63-2.64A2.64,2.64,0,0,1,116.76,286.09Zm0-4a1.33,1.33,0,1,0,1.33,1.33A1.34,1.34,0,0,0,116.76,282.12Z" transform="translate(-100.5 -277.05)"/><path class="cls-1" d="M155.63,342.57H126.27a2.22,2.22,0,0,1-2.21-2.22V317.73a2.21,2.21,0,0,1,2.21-2.2h29.36a2.21,2.21,0,0,1,2.21,2.2v22.62A2.22,2.22,0,0,1,155.63,342.57Zm-29.36-25.73a.9.9,0,0,0-.91.89v22.62a.92.92,0,0,0,.91.91h29.36a.92.92,0,0,0,.91-.91V317.73a.9.9,0,0,0-.91-.89Z" transform="translate(-100.5 -277.05)"/><path class="cls-1" d="M111.24,308.72l10.87-10.88a.72.72,0,0,1,1,0L134,308.72a.72.72,0,0,1,.16.79.73.73,0,0,1-.67.45H128.2v5a.72.72,0,0,1-.72.72.73.73,0,0,1-.73-.72v-5.69a.73.73,0,0,1,.73-.73h4.27l-9.12-9.12-9.12,9.12h4.27a.73.73,0,0,1,.73.73V329.7a.73.73,0,0,1-1.46,0V310h-5.3a.73.73,0,0,1-.67-.45A.72.72,0,0,1,111.24,308.72Z" transform="translate(-100.5 -277.05)"/><path class="cls-1" d="M170.72,277.05H101.15a.65.65,0,0,0-.65.65v39.48a.65.65,0,0,0,1.3,0V278.35h68.27v51H156.8a.76.76,0,0,1,.18.45,4.81,4.81,0,0,1,0,.85h13.74a.65.65,0,0,0,.65-.65V277.7A.65.65,0,0,0,170.72,277.05Z" transform="translate(-100.5 -277.05)"/><path class="cls-1" d="M138.89,324.25v10.22l6.46-5.11Z" transform="translate(-100.5 -277.05)"/></svg>