<?xml version="1.0" encoding="utf-8"?>
<!-- Generator: Adobe Illustrator 24.1.0, SVG Export Plug-In . SVG Version: 6.00 Build 0)  -->
<svg version="1.1" id="Layer_1" xmlns="http://www.w3.org/2000/svg" xmlns:xlink="http://www.w3.org/1999/xlink" x="0px" y="0px"
	 viewBox="0 0 400 400" style="enable-background:new 0 0 400 400;" xml:space="preserve">
<style type="text/css">
	.st0{fill:#FFFFFF;stroke:#FFFFFF;stroke-width:12;stroke-miterlimit:10;}
</style>
<path class="st0" d="M157.5,74.8c-8.2,0.1-14.7,6.8-14.6,14.9c0,0,0,0,0,0.1v38.7c0.1,8.2-6.4,14.9-14.6,15l0,0H69.7
	c-8.3,0.6-14.5,7.8-13.9,16.1c0.5,7.4,6.4,13.3,13.9,13.9h58.5c24.2,0,43.9-20.1,43.9-44.9V89.8C172.3,81.6,165.7,74.9,157.5,74.8
	L157.5,74.8z"/>
<path class="st0" d="M241.6,74.8c8.2,0.1,14.7,6.8,14.6,14.9c0,0,0,0,0,0.1v38.7c-0.1,8.2,6.4,14.9,14.6,15l0,0h58.5
	c8.3,0.6,14.5,7.8,13.9,16.1c-0.5,7.4-6.4,13.3-13.9,13.9h-58.5c-24.2,0-43.9-20.1-43.9-44.9V89.8C226.8,81.6,233.4,74.9,241.6,74.8
	C241.5,74.8,241.6,74.8,241.6,74.8z"/>
<path class="st0" d="M157.5,323.9c-8.2-0.1-14.7-6.8-14.6-14.9c0,0,0,0,0-0.1v-38.7c0.1-8.2-6.4-14.9-14.6-15l0,0H69.7
	c-8.3-0.6-14.5-7.7-13.9-16c0.5-7.5,6.5-13.4,13.9-13.9h58.5c24.2,0,43.9,20.1,43.9,44.9V309C172.2,317.2,165.7,323.8,157.5,323.9z"
	/>
<path class="st0" d="M241.6,323.9c8.2-0.1,14.7-6.8,14.6-14.9c0,0,0,0,0-0.1v-38.7c-0.1-8.2,6.4-14.9,14.6-15l0,0h58.5
	c8.3-0.6,14.5-7.7,13.9-16c-0.5-7.5-6.5-13.4-13.9-13.9h-58.5c-24.2,0-43.9,20.1-43.9,44.9V309C226.9,317.2,233.4,323.8,241.6,323.9
	z"/>
</svg>
