<?xml version="1.0" encoding="utf-8"?>
<svg id="Layer_1" data-name="Layer 1" xmlns="http://www.w3.org/2000/svg" viewBox="0 0 400 400">
    <defs><style>.cls-1{fill:#fff;}</style></defs>
    <path class="cls-1" d="M176,74H123.7A15.7,15.7,0,0,0,108,89.69V309.31A15.7,15.7,0,0,0,123.7,325H176a15.7,15.7,0,0,0,15.68-15.69V89.69A15.71,15.71,0,0,0,176,74Z"/>
    <path class="cls-1" d="M301.5,74H249.2a15.7,15.7,0,0,0-15.68,15.69V309.31A15.7,15.7,0,0,0,249.2,325h52.3a15.7,15.7,0,0,0,15.68-15.69V89.69A15.71,15.71,0,0,0,301.5,74Z"/>
</svg>