<?xml version="1.0" encoding="utf-8"?>
<svg id="Layer_1" data-name="Layer 1" xmlns="http://www.w3.org/2000/svg" viewBox="0 0 400 400"><defs><style>.cls-1{fill:#fff;stroke:#fff;stroke-miterlimit:10;}</style></defs><path class="cls-1" d="M201.3,42.3c-44.6,0-88.5,17.5-120.8,46.5L56,64.9a10.31,10.31,0,0,0-11.1-2.1,10,10,0,0,0-6.3,9.1v65.8a10.1,10.1,0,0,0,10.1,9.9h67.8a10.21,10.21,0,0,0,9.4-6.1,9.68,9.68,0,0,0-2.2-10.8l-24-23.3c27.3-24,64.7-38.8,101.6-38.8,74.8,0,135.6,59,135.6,131.5S276.1,331.6,201.3,331.6c-36.2,0-70.3-13.7-95.8-38.6a14,14,0,0,0-19.2,0,12.92,12.92,0,0,0-.5,18.2l.4.4c30.6,29.8,71.5,46.3,115,46.3,89.7,0,162.7-70.8,162.7-157.9S291.1,42.3,201.3,42.3Z"/></svg>