<?xml version="1.0" encoding="utf-8"?>
<!-- Generator: Adobe Illustrator 24.1.0, SVG Export Plug-In . SVG Version: 6.00 Build 0)  -->
<svg version="1.1" id="Layer_1" xmlns="http://www.w3.org/2000/svg" xmlns:xlink="http://www.w3.org/1999/xlink" x="0px" y="0px"
	 viewBox="0 0 400 400" style="enable-background:new 0 0 400 400;" xml:space="preserve">
<style type="text/css">
	.st0{fill:#FFFFFF;}
</style>
<path class="st0" d="M312.9,172.4l-19.8-2.5c-1.6-5-3.6-9.8-6-14.4l12.2-15.7c4.9-6.2,4.4-15.2-1.3-20.8l-16.6-16.6
	c-5.6-5.7-14.6-6.3-20.9-1.3L245,113.2c-4.7-2.4-9.5-4.4-14.5-6L228,87.5c-0.9-7.9-7.7-13.9-15.6-13.9h-23.6c-8,0-14.7,6-15.6,13.8
	l-2.5,19.8c-5,1.6-9.8,3.6-14.5,6L140.5,101c-6.3-4.9-15.2-4.4-20.8,1.3l-16.6,16.6c-5.7,5.6-6.3,14.6-1.3,20.9l12.2,15.7
	c-2.4,4.6-4.4,9.5-6,14.4l-19.7,2.5c-7.9,0.9-13.9,7.7-13.9,15.6v23.6c0,8,6,14.7,13.9,15.6l19.8,2.5c1.6,5,3.6,9.8,6,14.4
	l-12.2,15.7c-4.9,6.2-4.4,15.2,1.3,20.8l16.6,16.6c5.6,5.7,14.6,6.3,20.9,1.3l15.7-12.2c4.6,2.4,9.5,4.4,14.4,6l2.5,19.7
	c0.9,7.9,7.6,13.9,15.6,13.9h23.6c8,0,14.7-6,15.6-13.9l2.5-19.8c5-1.6,9.8-3.6,14.4-6l15.7,12.2c6.2,4.9,15.2,4.4,20.8-1.3
	l16.6-16.6c5.7-5.6,6.3-14.6,1.3-20.9l-12.2-15.7c2.4-4.6,4.4-9.5,6-14.4l19.7-2.5c7.9-0.9,13.9-7.7,13.9-15.6v-23.5
	C326.8,180.1,320.8,173.4,312.9,172.4z M200.6,252.4c-29,0-52.6-23.5-52.6-52.6s23.5-52.6,52.6-52.6s52.6,23.5,52.6,52.6l0,0
	C253.1,228.9,229.6,252.4,200.6,252.4L200.6,252.4z"/>
</svg>
