<?xml version="1.0" encoding="utf-8"?>
<!-- Generator: Adobe Illustrator 24.1.0, SVG Export Plug-In . SVG Version: 6.00 Build 0)  -->
<svg version="1.1" id="Layer_1" xmlns="http://www.w3.org/2000/svg" xmlns:xlink="http://www.w3.org/1999/xlink" x="0px" y="0px"
	 viewBox="0 0 400 400" style="enable-background:new 0 0 400 400;" xml:space="preserve">
<style type="text/css">
	.st0{fill:#FFFFFF;}
</style>
<path class="st0" d="M349.2,180.5L242,76.5c-3.8-3.6-9.8-3.5-13.4,0.3c-1.7,1.7-2.6,4.1-2.6,6.5v53.6
	c-97.7,1.7-176.6,81.7-176.6,179.7c0.1,4.3,3,8,7.2,8.9c0.7,0.2,1.5,0.3,2.2,0.3c3.6,0,6.8-2,8.5-5.1c28.3-51.2,82.2-83,140.7-83
	h17.8v53.6c0,5.2,4.3,9.4,9.5,9.4c2.4,0,4.7-1,6.5-2.6l107.3-104c3.7-3.6,3.9-9.6,0.2-13.3C349.3,180.7,349.3,180.6,349.2,180.5z"/>
</svg>
