<?xml version="1.0" encoding="utf-8"?>
<!-- Generator: Adobe Illustrator 24.1.0, SVG Export Plug-In . SVG Version: 6.00 Build 0)  -->
<svg version="1.1" id="Layer_1" xmlns="http://www.w3.org/2000/svg" xmlns:xlink="http://www.w3.org/1999/xlink" x="0px" y="0px"
	 viewBox="0 0 400 400" style="enable-background:new 0 0 400 400;" xml:space="preserve">
<style type="text/css">
	.st0{fill:#FFFFFF;}
	.st1{fill:#FFFFFF;stroke:#FDFFFF;stroke-width:12;stroke-miterlimit:10;}
</style>
<path class="st0" d="M212.2,73.7c-3.1-1.5-6.9-1.1-9.6,1.1l-88.1,70.5h-42c-10,0-18.1,8.1-18.1,18.1v72.4c0,10,8.1,18.1,18.1,18.2
	l0,0h42.1l88.1,70.5c2.7,2.2,6.5,2.6,9.6,1.1s5.1-4.7,5.1-8.1V81.9C217.4,78.4,215.4,75.2,212.2,73.7z"/>
<path class="st1" d="M260.1,127.3c-4.1-3.9-10.6-3.6-14.5,0.5c-3.7,4-3.7,10.1,0.1,14.1c31.9,31.8,32,83.5,0.2,115.4
	c-0.1,0.1-0.1,0.1-0.2,0.2c-4,4-4,10.4-0.1,14.5c4,4,10.4,4,14.5,0.1c39.9-39.8,40.1-104.4,0.3-144.3
	C260.3,127.5,260.2,127.4,260.1,127.3z"/>
</svg>
