<svg id="Isolation_Mode" data-name="Isolation Mode" xmlns="http://www.w3.org/2000/svg" viewBox="0 0 130.26 60"><defs><style>.cls-1{fill:#ea961c;}.cls-2{fill:#225ea9;}</style></defs><title>logo_2</title><g id="Variation_with_tagline" data-name="Variation with tagline"><path class="cls-1" d="M56.47,53.57a2.9,2.9,0,0,1-2.9,2.9H6.42a2.9,2.9,0,0,1-2.89-2.9V6.43a2.9,2.9,0,0,1,2.89-2.9H53.57a2.9,2.9,0,0,1,2.9,2.9v7.36H60V6.43A6.44,6.44,0,0,0,53.57,0H6.42A6.43,6.43,0,0,0,0,6.43V53.57A6.43,6.43,0,0,0,6.42,60H53.57A6.44,6.44,0,0,0,60,53.57V46.21H56.47Z"/><polygon class="cls-2" points="27.16 22.79 27.16 17.28 9.53 17.28 9.53 42.72 27.3 42.72 27.3 37.24 15.78 37.24 15.78 32.51 26.1 32.51 26.1 27.35 15.78 27.35 15.78 22.79 27.16 22.79"/><polygon class="cls-2" points="50.47 17.28 30.51 17.28 30.51 22.79 41 22.79 29.98 38.8 29.98 42.72 50.44 42.72 50.44 37.24 38.42 37.24 50.47 19.72 50.47 17.28"/><path class="cls-2" d="M56.54,42.72h6.93c8.58,0,13-3.71,13-12.68,0-8.59-4.38-12.76-12.54-12.76H56.51Zm3.29-22.47h4.3c6.32,0,8.94,3.46,8.94,9.79s-2.62,9.74-8.94,9.74h-4.3Z"/><path class="cls-2" d="M94.06,31.8a7.07,7.07,0,0,0,4.2-6.92c0-4.59-2.79-7.6-8.83-7.6h-8.3V42.72h3.29V32.83h3.85a13.46,13.46,0,0,0,2.61-.22l5.25,10.11h3.61Zm-5-1.73H84.43V20.14H89.3c3.89,0,5.62,1.63,5.62,4.81,0,3.35-1.89,5.12-5.79,5.12Z"/><polygon class="cls-2" points="127.72 17.28 124.12 17.28 116.91 37.81 109.85 17.28 106.14 17.28 103.6 42.72 106.74 42.72 108.72 23.08 115.61 42.72 118.26 42.72 125.14 23.08 127.19 42.72 130.26 42.72 127.72 17.28"/><path class="cls-2" d="M64.69,46.09H63.53v4h1.08c1.33,0,2-.58,2-2a1.74,1.74,0,0,0-1.45-2A1.48,1.48,0,0,0,64.69,46.09Zm0,3.49H64v-3h.67c1,0,1.39.54,1.39,1.52s-.39,1.48-1.37,1.48Z"/><rect class="cls-2" x="67.37" y="47.16" width="0.48" height="2.88"/><path class="cls-2" d="M67.61,46.1a.3.3,0,0,0-.32.28h0a.29.29,0,0,0,.31.27h0a.28.28,0,0,0,.31-.23v0a.28.28,0,0,0-.28-.28Z"/><path class="cls-2" d="M69.87,50.77a3,3,0,0,1-.89-.16l-.09.4a2.85,2.85,0,0,0,1,.18c.85,0,1.26-.29,1.26-1.25V47.16h-.42v.41a1.21,1.21,0,0,0-.92-.48c-.83,0-1.21.66-1.21,1.53s.37,1.47,1.17,1.47a1.18,1.18,0,0,0,.94-.45v.27C70.68,50.5,70.52,50.77,69.87,50.77Zm.79-1.52a1.07,1.07,0,0,1-.81.41c-.55,0-.77-.43-.77-1.07s.26-1.06.79-1.06a1,1,0,0,1,.79.47Z"/><path class="cls-2" d="M72.25,46.1a.29.29,0,0,0-.32.26v0a.27.27,0,0,0,.29.27h0a.28.28,0,0,0,.31-.23v0a.28.28,0,0,0-.28-.28Z"/><rect class="cls-2" x="72" y="47.16" width="0.48" height="2.88"/><path class="cls-2" d="M74,50.1a1.43,1.43,0,0,0,.5-.09v-.36a.57.57,0,0,1-.26,0c-.13,0-.22,0-.22-.24V47.55h.47v-.39H74v-.8h-.41l-.06.8-.37.09v.3h.36v2C73.44,49.92,73.62,50.1,74,50.1Z"/><path class="cls-2" d="M76.07,47.09a1.63,1.63,0,0,0-1.11.43l.23.3A1.34,1.34,0,0,1,76,47.5a.56.56,0,0,1,.61.5v.4a1.7,1.7,0,0,0-.45,0c-1.06,0-1.34.49-1.34.91a.79.79,0,0,0,.74.83h.13a1,1,0,0,0,1-.55l0,.49h.35v-2a.92.92,0,0,0-.82-1A1,1,0,0,0,76.07,47.09Zm.58,1.78a.87.87,0,0,1-.79.85c-.34,0-.51-.17-.51-.44s.27-.55.86-.55h.44Z"/><rect class="cls-2" x="77.93" y="46.09" width="0.48" height="3.95"/><path class="cls-2" d="M81.9,48.47,82.7,50h.56l-.88-1.7A1.09,1.09,0,0,0,83,47.27c0-.72-.44-1.18-1.37-1.18H80.38v4h.51V48.5h.6A2.83,2.83,0,0,0,81.9,48.47Zm-1-1.94h.76c.6,0,.87.25.87.75s-.29.79-.91.79H80.9Z"/><rect class="cls-2" x="83.87" y="47.16" width="0.48" height="2.88"/><path class="cls-2" d="M84.13,46.1a.29.29,0,0,0-.32.26v0a.27.27,0,0,0,.29.27h0a.28.28,0,0,0,.31-.23v0a.28.28,0,0,0-.28-.28Z"/><path class="cls-2" d="M87.21,47.57a1.21,1.21,0,0,0-.93-.48c-.83,0-1.21.66-1.21,1.53s.37,1.47,1.17,1.47a1.18,1.18,0,0,0,.94-.45v.27c0,.59-.16.86-.81.86a3,3,0,0,1-.89-.16l-.09.4a2.85,2.85,0,0,0,1,.18c.85,0,1.26-.29,1.26-1.25V47.16h-.42Zm0,1.68a1.17,1.17,0,0,1-.82.41c-.54,0-.77-.43-.77-1.07s.26-1.06.79-1.06a1.08,1.08,0,0,1,.8.47Z"/><path class="cls-2" d="M89.89,47.09a1.23,1.23,0,0,0-.94.47V46.09h-.48v4H89V48a1.18,1.18,0,0,1,.81-.44c.47,0,.53.36.53.74V50h.48V48.15C90.77,47.49,90.5,47.09,89.89,47.09Z"/><path class="cls-2" d="M92.38,49.7c-.13,0-.22,0-.22-.24V47.55h.46v-.39h-.49v-.8h-.41l-.06.8-.37.09v.3h.36v2c0,.38.18.56.51.56a1.43,1.43,0,0,0,.5-.09l0-.36A.59.59,0,0,1,92.38,49.7Z"/><path class="cls-2" d="M94.36,48.37c-.5-.13-.69-.22-.69-.49s.21-.4.55-.4a1.25,1.25,0,0,1,.82.33l.22-.29a1.43,1.43,0,0,0-1-.43c-.63,0-1.05.32-1.05.84s.28.68.94.84.67.23.67.5-.23.43-.61.43a1.51,1.51,0,0,1-.91-.37l-.23.31a1.71,1.71,0,0,0,1.17.46c.66,0,1.1-.33,1.1-.89S95,48.54,94.36,48.37Z"/><polygon class="cls-2" points="100.16 46.09 99.05 49.27 97.95 46.09 97.37 46.09 96.98 50.04 97.47 50.04 97.77 46.99 98.84 50.04 99.25 50.04 100.32 46.99 100.64 50.04 101.12 50.04 100.72 46.09 100.16 46.09"/><path class="cls-2" d="M102.88,47.09a1.6,1.6,0,0,0-1.1.43l.22.3a1.34,1.34,0,0,1,.85-.32.54.54,0,0,1,.61.48.33.33,0,0,1,0,.14v.28a1.7,1.7,0,0,0-.45,0c-1.06,0-1.33.49-1.33.91a.77.77,0,0,0,.72.83h.15a1,1,0,0,0,1-.55v.49h.39v-2a.92.92,0,0,0-.82-1A1,1,0,0,0,102.88,47.09Zm.58,1.78a.87.87,0,0,1-.78.85c-.34,0-.52-.17-.52-.44s.27-.55.86-.55a1.62,1.62,0,0,1,.44,0Z"/><path class="cls-2" d="M106.13,47.09a1.24,1.24,0,0,0-.95.49v-.42h-.41V50h.48V48a1.2,1.2,0,0,1,.82-.44c.34,0,.51.24.51.74V50h.49V48.15C107,47.52,106.79,47.09,106.13,47.09Z"/><path class="cls-2" d="M108.89,47.09a1.63,1.63,0,0,0-1.11.43l.23.3a1.34,1.34,0,0,1,.85-.32.56.56,0,0,1,.61.5v.4a1.7,1.7,0,0,0-.45,0c-1.06,0-1.34.49-1.34.91a.79.79,0,0,0,.74.83h.13a1,1,0,0,0,1-.55l0,.49H110v-2a.93.93,0,0,0-.82-1A.88.88,0,0,0,108.89,47.09Zm.58,1.78a.87.87,0,0,1-.79.85c-.34,0-.51-.17-.51-.44s.27-.55.86-.55h.44Z"/><path class="cls-2" d="M112.75,47.57a1.21,1.21,0,0,0-.92-.48c-.83,0-1.21.66-1.21,1.53s.36,1.47,1.16,1.47a1.17,1.17,0,0,0,1-.45v.27c0,.59-.17.86-.81.86a3,3,0,0,1-.89-.16l-.1.4a2.85,2.85,0,0,0,1,.18c.85,0,1.25-.29,1.25-1.25V47.16h-.41Zm0,1.68a1.07,1.07,0,0,1-.81.41c-.55,0-.77-.43-.77-1.07s.26-1.06.79-1.06a1.07,1.07,0,0,1,.79.47Z"/><path class="cls-2" d="M115.21,47.09a1.34,1.34,0,0,0-1.34,1.34,1.09,1.09,0,0,0,0,.18c0,1,.51,1.49,1.33,1.49a1.64,1.64,0,0,0,1.1-.38l-.19-.33a1.43,1.43,0,0,1-.87.3c-.6,0-.85-.4-.86-1h2v-.25C116.36,47.54,116,47.09,115.21,47.09Zm-.82,1.26a.85.85,0,0,1,.82-.86h0c.51,0,.68.39.68.86Z"/><path class="cls-2" d="M120,47.09a1.21,1.21,0,0,0-.93.48.66.66,0,0,0-.7-.48,1.15,1.15,0,0,0-.9.48v-.41h-.42V50h.49V48a1.09,1.09,0,0,1,.73-.43c.33,0,.42.24.42.61V50h.44V48a1,1,0,0,1,.71-.42c.33,0,.43.23.43.59V50h.48V48C120.77,47.51,120.6,47.09,120,47.09Z"/><path class="cls-2" d="M122.75,47.09a1.33,1.33,0,0,0-1.33,1.35,1,1,0,0,0,0,.17c0,1,.51,1.49,1.33,1.49a1.64,1.64,0,0,0,1.1-.38l-.19-.33a1.43,1.43,0,0,1-.87.3c-.6,0-.85-.4-.86-1h2v-.25C123.91,47.54,123.51,47.09,122.75,47.09Zm-.81,1.26a.85.85,0,0,1,.82-.86h0c.51,0,.67.39.68.86Z"/><path class="cls-2" d="M126,47.09a1.26,1.26,0,0,0-1,.49v-.42h-.42V50h.49V48a1.18,1.18,0,0,1,.81-.44c.35,0,.52.24.52.74V50h.49V48.15C126.88,47.52,126.63,47.09,126,47.09Z"/><path class="cls-2" d="M128.48,49.7c-.13,0-.22,0-.22-.24V47.55h.47v-.39h-.47v-.8h-.41l-.06.8-.37.09v.3h.36v2c0,.38.18.56.51.56a1.43,1.43,0,0,0,.5-.09v-.36A.65.65,0,0,1,128.48,49.7Z"/><path class="cls-2" d="M129.61,49.44a.33.33,0,0,0-.36.3v0c0,.19.14.31.36.31a.32.32,0,0,0,.35-.29v0a.33.33,0,0,0-.33-.33Z"/><path class="cls-2" d="M64.94,54.4c-.66-.22-1-.33-1-.77s.33-.6.77-.6a1.41,1.41,0,0,1,1,.45l.28-.31a1.67,1.67,0,0,0-1.29-.57c-.73,0-1.28.37-1.28,1.08s.33.87,1.18,1.13.9.38.9.78-.34.67-.81.67a1.7,1.7,0,0,1-1.14-.51l-.28.33a1.91,1.91,0,0,0,1.42.61c.8,0,1.34-.44,1.34-1.15S65.73,54.67,64.94,54.4Z"/><path class="cls-2" d="M67,52.69a.29.29,0,0,0-.32.26v0a.27.27,0,0,0,.29.27h0a.28.28,0,0,0,.31-.23v0a.28.28,0,0,0-.28-.28Z"/><rect class="cls-2" x="66.74" y="53.74" width="0.48" height="2.88"/><path class="cls-2" d="M71,53.68a1.21,1.21,0,0,0-.93.48.66.66,0,0,0-.7-.48,1.15,1.15,0,0,0-.9.48v-.42h-.42v2.89h.49V54.55a1,1,0,0,1,.73-.43c.33,0,.42.24.42.61v1.9h.49V54.54a1,1,0,0,1,.71-.42c.33,0,.43.23.43.59v1.92h.48v-2C71.81,54.1,71.64,53.68,71,53.68Z"/><path class="cls-2" d="M74,53.68a1.2,1.2,0,0,0-1,.49v-.43h-.42v4h.52V56.29a1.15,1.15,0,0,0,.9.4c.8,0,1.19-.6,1.19-1.51S74.78,53.68,74,53.68Zm-.15,2.57a1,1,0,0,1-.79-.41V54.58a1.22,1.22,0,0,1,.86-.47c.46,0,.72.38.72,1.08S74.36,56.25,73.88,56.25Z"/><rect class="cls-2" x="75.88" y="52.67" width="0.48" height="3.95"/><path class="cls-2" d="M77.46,52.69a.29.29,0,0,0-.33.25V53a.27.27,0,0,0,.29.27h0a.28.28,0,0,0,.31-.23v0a.28.28,0,0,0-.25-.31Z"/><rect class="cls-2" x="77.21" y="53.74" width="0.48" height="2.88"/><path class="cls-2" d="M80.49,52.67a.3.3,0,1,0-.11.59.21.21,0,0,0,.11,0,.3.3,0,0,0,.11-.59A.21.21,0,0,0,80.49,52.67Z"/><path class="cls-2" d="M79.13,53.36c0-.28.15-.38.32-.38h.26v-.37a1.74,1.74,0,0,0-.39,0c-.5,0-.69.34-.69.79v.38l-.34.06v.3h.34v2.5h.5v-2.5h1.11v2.5h.48V53.74H79.13Z"/><path class="cls-2" d="M82.76,53.68A1.34,1.34,0,0,0,81.42,55a1.09,1.09,0,0,0,0,.18c0,1,.52,1.49,1.33,1.49a1.72,1.72,0,0,0,1.11-.38l-.2-.33a1.43,1.43,0,0,1-.87.3c-.6,0-.84-.4-.85-1h2A1,1,0,0,0,84,55C83.92,54.13,83.51,53.68,82.76,53.68ZM82,54.94a.83.83,0,0,1,.8-.86h0c.51,0,.68.39.68.86Z"/><path class="cls-2" d="M86.55,54.11a1.16,1.16,0,0,0-.9-.43c-.74,0-1.2.58-1.2,1.51s.37,1.5,1.18,1.5a1.18,1.18,0,0,0,.94-.45v.39H87v-4h-.48Zm0,1.69a1,1,0,0,1-.79.45c-.61,0-.8-.52-.8-1.06,0-.7.3-1.07.74-1.07a1.16,1.16,0,0,1,.85.49Z"/><path class="cls-2" d="M88.13,56a.34.34,0,0,0-.37.29v.05c0,.2.15.32.37.32a.33.33,0,0,0,0-.66Z"/></g></svg>