<svg width="14" height="18" viewBox="0 0 14 18" fill="none" xmlns="http://www.w3.org/2000/svg">
<g clip-path="url(#clip0)">
<path d="M12.9375 6.75H8.53418C8.06113 6.74953 7.60759 6.56141 7.27309 6.22691C6.93859 5.89241 6.75047 5.43887 6.75 4.96582V0.5625C6.74965 0.365054 6.80143 0.171016 6.90012 0L1.22168 0C0.897784 0.000372187 0.587262 0.129204 0.358233 0.358233C0.129204 0.587262 0.000372187 0.897784 0 1.22168V16.7783C0.000372187 17.1022 0.129204 17.4127 0.358233 17.6418C0.587262 17.8708 0.897784 17.9996 1.22168 18H12.2783C12.6022 17.9996 12.9127 17.8708 13.1418 17.6418C13.3708 17.4127 13.4996 17.1022 13.5 16.7783V6.59988C13.329 6.69857 13.1349 6.75035 12.9375 6.75ZM4.66488 10.2899C4.77036 10.1845 4.91338 10.1253 5.0625 10.1253C5.21162 10.1253 5.35464 10.1845 5.46012 10.2899L6.1875 11.0169V7.59375C6.1875 7.44457 6.24676 7.30149 6.35225 7.196C6.45774 7.09051 6.60082 7.03125 6.75 7.03125C6.89918 7.03125 7.04226 7.09051 7.14775 7.196C7.25324 7.30149 7.3125 7.44457 7.3125 7.59375V11.0169L8.03988 10.2899C8.14623 10.1888 8.28784 10.1334 8.43452 10.1352C8.5812 10.1371 8.72134 10.1962 8.82506 10.2999C8.92879 10.4037 8.98789 10.5438 8.98977 10.6905C8.99165 10.8372 8.93615 10.9788 8.83512 11.0851L7.14762 12.7726C7.08883 12.8312 7.01789 12.8761 6.93982 12.9041C6.86175 12.9322 6.77846 12.9428 6.69586 12.935C6.41461 12.8974 6.50285 12.9234 4.66488 11.0851C4.55947 10.9796 4.50026 10.8366 4.50026 10.6875C4.50026 10.5384 4.55947 10.3954 4.66488 10.2899ZM9.5625 15.1875H3.9375C3.78832 15.1875 3.64524 15.1282 3.53975 15.0227C3.43426 14.9173 3.375 14.7742 3.375 14.625C3.375 14.4758 3.43426 14.3327 3.53975 14.2273C3.64524 14.1218 3.78832 14.0625 3.9375 14.0625H9.5625C9.71168 14.0625 9.85476 14.1218 9.96025 14.2273C10.0657 14.3327 10.125 14.4758 10.125 14.625C10.125 14.7742 10.0657 14.9173 9.96025 15.0227C9.85476 15.1282 9.71168 15.1875 9.5625 15.1875ZM8.53418 5.625H12.9375L7.875 0.5625V4.96582C7.87519 5.14059 7.94469 5.30815 8.06827 5.43173C8.19185 5.55531 8.35941 5.62481 8.53418 5.625Z" fill="white"/>
</g>
<defs>
<clipPath id="clip0">
<rect width="13.5" height="18" fill="white"/>
</clipPath>
</defs>
</svg>
