<svg id="Capa_1" data-name="Capa 1" xmlns="http://www.w3.org/2000/svg" viewBox="0 0 416.23 480.26"><defs><style>.cls-1{fill:#316fea;}</style></defs><title>1</title><rect class="cls-1" x="102.28" y="95.02" width="16" height="16.01" transform="matrix(0.85, -0.52, 0.52, 0.85, -69.5, 72.34)"/><rect class="cls-1" x="156.96" y="61.76" width="16" height="16.01" transform="translate(-44.24 95.92) rotate(-31.32)"/><rect class="cls-1" x="129.62" y="78.39" width="16" height="16.01" transform="translate(-56.87 84.13) rotate(-31.32)"/><rect class="cls-1" x="184.31" y="45.11" width="16" height="16.01" transform="translate(-31.59 107.73) rotate(-31.33)"/><rect class="cls-1" x="16.13" y="224" width="16" height="16"/><rect class="cls-1" x="16.13" y="192" width="16" height="16"/><rect class="cls-1" x="16.13" y="288" width="16" height="16"/><rect class="cls-1" x="16.13" y="256" width="16" height="16"/><rect class="cls-1" x="127.71" y="388.95" width="16" height="16" transform="translate(-308.64 319.71) rotate(-60.52)"/><rect class="cls-1" x="155.53" y="404.7" width="16" height="16" transform="translate(-308.22 351.92) rotate(-60.52)"/><rect class="cls-1" x="183.35" y="420.46" width="16" height="16" transform="translate(-307.82 384.15) rotate(-60.52)"/><rect class="cls-1" x="99.81" y="373.19" width="16" height="16" transform="translate(-309.09 287.42) rotate(-60.52)"/><rect class="cls-1" x="283.85" y="418.85" width="16" height="16" transform="translate(-204.29 198.89) rotate(-29.48)"/><rect class="cls-1" x="339.56" y="387.29" width="16" height="16" transform="translate(-181.55 222.22) rotate(-29.48)"/><rect class="cls-1" x="367.41" y="371.55" width="16" height="16" transform="translate(-170.19 233.89) rotate(-29.48)"/><rect class="cls-1" x="311.7" y="403.06" width="16" height="16" transform="translate(-192.91 210.55) rotate(-29.48)"/><path class="cls-1" d="M440,334a23.67,23.67,0,0,0-3.89-2.77h0a22.45,22.45,0,0,0-4-1.8V320h-16v9.5a21.79,21.79,0,0,0-2.92,1.19l-44.59-25.75a143.71,143.71,0,0,0,0-129.88l38.48-22.22a24,24,0,0,0,9,5.66V176h16V158.4a23.27,23.27,0,0,0,4-1.66,24,24,0,0,0-24-41.6,25.57,25.57,0,0,0-3.06,2.21L401,112.46l-8.32,13.67,8.05,4.89a24.19,24.19,0,0,0-.45,7.2l-39.72,22.94a142.62,142.62,0,0,0-112.45-64.9V46.53a24.23,24.23,0,0,0,7.07-4l14.49,8.8L278,37.66s-14.4-8.73-14.4-8.8a22,22,0,0,0,.52-4.86,24,24,0,0,0-48,0,24.69,24.69,0,0,0,.52,4.92l-8,4.88,8.28,13.67,8.12-4.94a23.79,23.79,0,0,0,7.07,4V96.26a144.81,144.81,0,0,0-19.92,2.4,142.51,142.51,0,0,0-92.53,62.55L80,138.27a23.22,23.22,0,0,0-.46-7.2s14.4-8.73,14.4-8.73l-8.32-13.67s-14.34,8.8-14.4,8.72a20.39,20.39,0,0,0-3-2.16,24,24,0,1,0-24,41.6,22.91,22.91,0,0,0,4,1.57V176h16V158.5a23.92,23.92,0,0,0,9-5.65l38.48,22.21a143.64,143.64,0,0,0,0,129.88L67.07,330.68a23.91,23.91,0,0,0-2.93-1.18V320h-16v9.42a24,24,0,1,0,23.77,40.65L83,376.35l7.87-13.93-11.2-6.34a23.77,23.77,0,0,0-1.5-13.33l41.52-24a142.62,142.62,0,0,0,112.44,65v49.73a23.89,23.89,0,0,0-7.68,4.51l-8.24-4.66-7.87,13.93,8.2,4.64a24,24,0,1,0,47.2,0l11.2-6.31-7.87-13.93L255.89,438a24,24,0,0,0-7.68-4.51V383.74a142.1,142.1,0,0,0,112.45-64.95l41.53,24a23.69,23.69,0,0,0-1.51,13.33l-8.25,4.67,7.87,13.93,8.15-4.61A24,24,0,1,0,440,334ZM420.09,129.1l.05,0h0A8,8,0,1,1,417.22,140h0A8,8,0,0,1,420.09,129.1ZM63.07,140a8,8,0,1,1-2.93-10.93A8,8,0,0,1,63.07,140ZM60.14,358.93A8,8,0,1,1,63.07,348h0A8,8,0,0,1,60.14,358.93ZM279.72,118.19c1.12.37,2.23.8,3.34,1.16,1.38.48,2.75,1,4.1,1.51,1.1.43,2.19.89,3.29,1.36,1.33.56,2.65,1.13,4,1.75,1.07.49,2.13,1,3.2,1.55,1.29.65,2.58,1.31,3.85,2,1,.57,2.05,1.14,3.08,1.74,1.25.73,2.49,1.49,3.72,2.26,1,.62,2,1.25,2.95,1.9,1.21.8,2.4,1.66,3.61,2.52.94.68,1.88,1.36,2.8,2.06q1.77,1.35,3.49,2.78c.89.72,1.78,1.45,2.64,2.2,1.15,1,2.26,2,3.37,3.05.8.8,1.66,1.53,2.46,2.33,1.12,1.09,2.2,2.22,3.28,3.37l2.24,2.4c1.08,1.21,2.13,2.47,3.2,3.73.66.8,1.35,1.6,2,2.4,1.07,1.36,2.09,2.77,3.12,4.18.56.8,1.16,1.54,1.71,2.34.09.13.18.28.29.43a141.4,141.4,0,0,1-38.92,16.21,157,157,0,0,0-27.88-65.53ZM296.14,240a276.55,276.55,0,0,1-2.47,37.16,280.19,280.19,0,0,0-107,0,280.2,280.2,0,0,1,0-74.32A275.56,275.56,0,0,0,240.14,208a275.58,275.58,0,0,0,53.53-5.16A276.55,276.55,0,0,1,296.14,240Zm-56-224a8,8,0,1,1-8,8A8,8,0,0,1,240.14,16Zm0,96c20.19,0,41.43,28.68,50.91,75.06A260.54,260.54,0,0,1,240.14,192a260.44,260.44,0,0,1-50.9-4.94C198.72,140.68,220,112,240.14,112Zm-105,54.78h0c.61-.88,1.25-1.72,1.89-2.57,1-1.32,1.92-2.65,2.92-3.92.71-.9,1.45-1.75,2.18-2.62,1-1.18,2-2.4,3-3.53.8-.86,1.6-1.69,2.4-2.54,1-1.08,2.05-2.17,3.12-3.2.84-.8,1.71-1.6,2.58-2.4,1.07-1,2.15-2,3.24-2.94.91-.8,1.83-1.54,2.75-2.3,1.12-.91,2.24-1.82,3.38-2.69,1-.73,1.93-1.43,2.9-2.13,1.16-.8,2.33-1.65,3.52-2.44,1-.68,2-1.32,3-2,1.2-.76,2.41-1.5,3.65-2.21,1-.61,2.08-1.2,3.14-1.78,1.25-.68,2.51-1.33,3.78-2l3.24-1.6c1.3-.6,2.6-1.16,3.92-1.72,1.11-.47,2.21-.94,3.33-1.38,1.34-.53,2.7-1,4.06-1.49,1.12-.4,2.24-.8,3.37-1.17l1-.3a157.11,157.11,0,0,0-27.87,65.5A141.55,141.55,0,0,1,134.9,167.2C135,167.06,135.07,166.91,135.17,166.78Zm-23,73.22a127.74,127.74,0,0,1,14.5-59.16A158.8,158.8,0,0,0,171,199.34a290.71,290.71,0,0,0,0,81.32,158.61,158.61,0,0,0-44.36,18.54A127.66,127.66,0,0,1,112.14,240Zm88.43,121.81c-1.12-.37-2.23-.8-3.35-1.16-1.37-.48-2.74-1-4.09-1.51-1.11-.43-2.19-.89-3.29-1.36-1.33-.56-2.66-1.13-4-1.75-1.07-.49-2.13-1-3.2-1.55-1.3-.65-2.58-1.31-3.85-2-1-.57-2-1.14-3.08-1.74-1.25-.73-2.49-1.49-3.73-2.26-1-.62-2-1.25-2.94-1.9-1.22-.8-2.4-1.66-3.61-2.52-.94-.68-1.88-1.36-2.81-2.06q-1.76-1.35-3.48-2.78c-.88-.72-1.77-1.45-2.64-2.2-1.15-1-2.27-2-3.38-3.06-.8-.8-1.65-1.52-2.45-2.31-1.12-1.1-2.2-2.24-3.28-3.38l-2.24-2.4c-1.09-1.21-2.13-2.47-3.2-3.73-.66-.8-1.35-1.6-2-2.4-1.07-1.36-2.09-2.77-3.12-4.18-.57-.8-1.16-1.54-1.71-2.34-.1-.13-.18-.28-.29-.43a141.47,141.47,0,0,1,38.91-16.21,157.25,157.25,0,0,0,27.88,65.53ZM240.14,464a8,8,0,1,1,8-8A8,8,0,0,1,240.14,464Zm0-96c-20.18,0-41.42-28.68-50.9-75.06a264.62,264.62,0,0,1,101.81,0C281.57,339.32,260.33,368,240.14,368Zm105-54.78h0c-.61.88-1.26,1.72-1.89,2.57-1,1.32-1.92,2.65-2.93,3.92-.7.9-1.44,1.75-2.17,2.62-1,1.18-2,2.4-3,3.53-.8.86-1.6,1.69-2.4,2.54-1,1.08-2.06,2.17-3.12,3.2-.8.8-1.71,1.6-2.58,2.4-1.08,1-2.15,2-3.24,2.94-.91.8-1.84,1.54-2.76,2.3-1.12.91-2.24,1.82-3.37,2.69-1,.73-1.93,1.43-2.91,2.13-1.16.8-2.32,1.65-3.51,2.44-1,.68-2,1.32-3,2-1.2.76-2.42,1.5-3.65,2.21-1,.61-2.08,1.2-3.14,1.78-1.25.68-2.51,1.33-3.79,2l-3.24,1.6c-1.29.6-2.6,1.16-3.91,1.72-1.11.47-2.21.94-3.33,1.38-1.34.53-2.7,1-4.06,1.49-1.12.4-2.24.8-3.38,1.17l-1,.3a157,157,0,0,0,27.86-65.5,141.48,141.48,0,0,1,38.85,16.22C345.3,312.94,345.22,313.09,345.12,313.22Zm8.53-14a158.8,158.8,0,0,0-44.36-18.5,290.71,290.71,0,0,0,0-81.32,158.8,158.8,0,0,0,44.36-18.5A128,128,0,0,1,353.65,299.2ZM431.07,356a8,8,0,1,1-6.93-12,7.79,7.79,0,0,1,4,1.07A8,8,0,0,1,431.07,356Z" transform="translate(-32.01 0)"/><rect class="cls-1" x="384.13" y="224" width="16" height="16"/><rect class="cls-1" x="384.13" y="192" width="16" height="16"/><rect class="cls-1" x="384.13" y="288" width="16" height="16"/><rect class="cls-1" x="384.13" y="256" width="16" height="16"/><rect class="cls-1" x="341.04" y="82.23" width="16.01" height="16" transform="translate(58.51 341.51) rotate(-58.68)"/><rect class="cls-1" x="368.37" y="98.88" width="16.01" height="16" transform="translate(57.41 372.86) rotate(-58.68)"/><rect class="cls-1" x="313.7" y="65.57" width="16.01" height="16" transform="translate(59.62 310.16) rotate(-58.68)"/><rect class="cls-1" x="286.36" y="48.98" width="16.01" height="16" transform="translate(60.66 278.84) rotate(-58.68)"/></svg>