<svg id="Layer_1" data-name="Layer 1" xmlns="http://www.w3.org/2000/svg" viewBox="0 0 460.8 512"><defs><style>.cls-1{fill:#316fea;}</style></defs><title>2svg</title><path class="cls-1" d="M51.6,512H461.2a25.6,25.6,0,0,0,25.6-25.6V384a25.6,25.6,0,0,0-25.6-25.6H313.87l20-14.92a202,202,0,0,0,84.7-164.28V42.67A8.54,8.54,0,0,0,413.81,35,385.57,385.57,0,0,0,256.4,0,385.65,385.65,0,0,0,99,35a8.54,8.54,0,0,0-4.71,7.64V179.2a201.9,201.9,0,0,0,84.67,164.28l20,14.92H51.6A25.6,25.6,0,0,0,26,384V486.4A25.6,25.6,0,0,0,51.6,512Zm59.73-332.8V48.12a378.1,378.1,0,0,1,145.07-31A378,378,0,0,1,401.46,48.12V179.2a185.14,185.14,0,0,1-77.84,150.6l-62.1,46.4a8.61,8.61,0,0,1-10.24,0l-62.1-46.4A185.19,185.19,0,0,1,111.33,179.2ZM43.07,384a8.54,8.54,0,0,1,8.53-8.54H221.76l19.29,14.41a25.77,25.77,0,0,0,30.72,0L291,375.46H461.2a8.54,8.54,0,0,1,8.53,8.54V486.4a8.53,8.53,0,0,1-8.53,8.53H51.6a8.53,8.53,0,0,1-8.53-8.53Z" transform="translate(-26)"/><path class="cls-1" d="M66.59,435l21.67,5.41L70.38,464.21A8.53,8.53,0,1,0,84,474.45l18.77-25,18.77,25a8.54,8.54,0,0,0,13.66-10.24l-17.92-23.89L139,434.9a8.53,8.53,0,1,0-4.15-16.55l-23.49,5.92v-23.2a8.53,8.53,0,0,0-17.06,0v23.2l-23.53-5.88A8.54,8.54,0,1,0,66.59,435Z" transform="translate(-26)"/><path class="cls-1" d="M169,435l21.67,5.41-17.92,23.9a8.53,8.53,0,0,0,13.65,10.24l18.81-25.07,18.77,25a8.53,8.53,0,1,0,13.65-10.24l-17.91-23.89,21.66-5.42a8.53,8.53,0,1,0-4.14-16.55l-23.5,5.92v-23.2a8.53,8.53,0,0,0-17.06,0v23.2l-23.53-5.88A8.54,8.54,0,0,0,169,435Z" transform="translate(-26)"/><path class="cls-1" d="M271.39,435l21.67,5.41-17.92,23.9a8.53,8.53,0,0,0,13.65,10.24l18.81-25.07,18.78,25A8.53,8.53,0,0,0,340,464.21l-17.92-23.89,21.66-5.42a8.53,8.53,0,1,0-4.15-16.55l-23.49,5.92v-23.2a8.53,8.53,0,1,0-17.06,0v23.2l-23.53-5.88A8.54,8.54,0,0,0,271.39,435Z" transform="translate(-26)"/><path class="cls-1" d="M373.79,435l21.67,5.41-17.92,23.9a8.53,8.53,0,0,0,13.65,10.24L410,449.43l18.77,25a8.54,8.54,0,0,0,13.66-10.24l-17.92-23.89,21.66-5.42A8.53,8.53,0,0,0,442,418.35l-23.49,5.92v-23.2a8.54,8.54,0,0,0-17.08,0v23.2l-23.52-5.88A8.54,8.54,0,1,0,373.79,435Z" transform="translate(-26)"/><path class="cls-1" d="M270.61,342.12,312.72,314c47.56-35.54,71.68-80.9,71.68-134.83V68.27a8.54,8.54,0,0,0-5.12-7.84,301.32,301.32,0,0,0-245.71,0,8.55,8.55,0,0,0-5.17,7.84V179.2c0,53.93,24.12,99.29,71.68,134.83l.38.26,41.72,27.82a25.53,25.53,0,0,0,28.42,0Zm-60.49-41.89c-42.9-32.13-64.66-72.84-64.66-121V73.93a282,282,0,0,1,221.87,0V179.2c0,48.26-21.82,89-64.47,120.9l-41.72,27.82a8.52,8.52,0,0,1-9.48,0Z" transform="translate(-26)"/><path class="cls-1" d="M316.13,230.4V179.2a25.59,25.59,0,0,0-17.06-24v-10.1a42.67,42.67,0,0,0-85.34,0v10.1a25.59,25.59,0,0,0-17.06,24v51.2a25.6,25.6,0,0,0,25.6,25.6h68.27A25.6,25.6,0,0,0,316.13,230.4ZM230.8,145.07a25.6,25.6,0,1,1,51.2,0v8.53H230.8ZM213.73,230.4V179.2a8.53,8.53,0,0,1,8.54-8.53h68.27a8.53,8.53,0,0,1,8.53,8.53v51.2a8.53,8.53,0,0,1-8.53,8.53H222.27A8.53,8.53,0,0,1,213.73,230.4Z" transform="translate(-26)"/><path class="cls-1" d="M256.4,187.73a8.53,8.53,0,0,0-8.53,8.54v17.06a8.53,8.53,0,1,0,17.06,0V196.27A8.53,8.53,0,0,0,256.4,187.73Z" transform="translate(-26)"/></svg>