<svg id="Layer_1" data-name="Layer 1" xmlns="http://www.w3.org/2000/svg" viewBox="0 0 512 512"><defs><style>.cls-1{fill:#316fea;}</style></defs><title>3</title><path class="cls-1" d="M93.87,238.93c45.51,0,93.86-15,93.86-42.66V93.87H204.8a8.54,8.54,0,0,0,0-17.07H187.73V42.67C187.73,15,139.38,0,93.87,0S0,15,0,42.67v153.6C0,224,48.36,238.93,93.87,238.93Zm0-17.06c-46.89,0-76.8-15.17-76.8-25.6v-26c18.11,11.45,48,17.42,76.8,17.42s58.69-6,76.8-17.42v26C170.67,206.7,140.75,221.87,93.87,221.87Zm76.8-128c0,10.43-29.92,25.59-76.8,25.59s-76.8-15.16-76.8-25.59v-26c18.11,11.45,48,17.42,76.8,17.42s58.69-6,76.8-17.42Zm-76.8,42.67c28.79,0,58.69-6,76.8-17.43v26c0,10.43-29.92,25.6-76.8,25.6s-76.8-15.17-76.8-25.6v-26C35.18,130.56,65.07,136.54,93.87,136.54Zm0-119.47c46.88,0,76.8,15.16,76.8,25.6s-29.92,25.6-76.8,25.6-76.8-15.17-76.8-25.6S47,17.07,93.87,17.07Z"/><path class="cls-1" d="M418.13,0c-45.51,0-93.86,15-93.86,42.67V76.8H307.2a8.54,8.54,0,0,0,0,17.07h17.07v102.4c0,27.71,48.35,42.66,93.86,42.66S512,224,512,196.27V42.67C512,15,463.64,0,418.13,0Zm76.8,145.07c0,10.43-29.91,25.6-76.8,25.6s-76.8-15.17-76.8-25.6v-26c18.11,11.45,48,17.43,76.8,17.43s58.69-6,76.8-17.43Zm0-51.2c0,10.43-29.91,25.59-76.8,25.59s-76.8-15.16-76.8-25.59v-26c18.11,11.45,48,17.42,76.8,17.42s58.69-6,76.8-17.42Zm-76.8-76.8c46.89,0,76.8,15.16,76.8,25.6s-29.91,25.6-76.8,25.6-76.8-15.17-76.8-25.6S371.25,17.07,418.13,17.07Zm0,204.8c-46.88,0-76.8-15.17-76.8-25.6v-26c18.11,11.45,48,17.42,76.8,17.42s58.69-6,76.8-17.42v26C494.93,206.7,465,221.87,418.13,221.87Z"/><path class="cls-1" d="M238.93,93.87h8.53v17.06a8.54,8.54,0,0,0,17.08,0V93.87h8.53a8.54,8.54,0,0,0,0-17.07H238.93a8.54,8.54,0,0,0,0,17.07Z"/><path class="cls-1" d="M256,136.54a8.54,8.54,0,0,0-8.54,8.53v25.6a8.54,8.54,0,0,0,17.08,0v-25.6A8.54,8.54,0,0,0,256,136.54Z"/><path class="cls-1" d="M136.54,349.87V486.4A25.6,25.6,0,0,0,162.13,512H358.4A25.6,25.6,0,0,0,384,486.4V349.87a25.6,25.6,0,0,0-25.6-25.6H162.13A25.6,25.6,0,0,0,136.54,349.87ZM358.4,494.93H162.13a8.53,8.53,0,0,1-8.53-8.53V375.46H366.93V486.4A8.53,8.53,0,0,1,358.4,494.93Zm8.53-145.06v8.53H153.6v-8.53a8.53,8.53,0,0,1,8.53-8.54H358.4A8.53,8.53,0,0,1,366.93,349.87Z"/><path class="cls-1" d="M341.33,460.8H179.2a8.54,8.54,0,0,0,0,17.07H341.33a8.54,8.54,0,1,0,0-17.07Z"/><path class="cls-1" d="M179.2,443.73h93.87a8.53,8.53,0,1,0,0-17.06H179.2a8.53,8.53,0,1,0,0,17.06Z"/><path class="cls-1" d="M179.2,409.6h93.87a8.53,8.53,0,1,0,0-17.06H179.2a8.53,8.53,0,0,0,0,17.06Z"/><path class="cls-1" d="M332.8,392.54H315.73a17.06,17.06,0,0,0-17.06,17.06v17.07a17.06,17.06,0,0,0,17.06,17.06H332.8a17.06,17.06,0,0,0,17.07-17.06V409.6A17.06,17.06,0,0,0,332.8,392.54Zm0,34.13H315.73V409.6H332.8Z"/><path class="cls-1" d="M247.46,245.9v52.77A8.54,8.54,0,0,0,256,307.2h25.6a8.54,8.54,0,0,0,0-17.07H264.54V281.6h8.53a8.53,8.53,0,1,0,0-17.06h-8.53V245.9a25.6,25.6,0,1,0-17.08,0ZM256,213.33a8.54,8.54,0,1,1-8.54,8.54A8.54,8.54,0,0,1,256,213.33Z"/></svg>