<svg id="Layer_1" data-name="Layer 1" xmlns="http://www.w3.org/2000/svg" viewBox="0 0 512 511.88"><defs><style>.cls-1{fill:#316fea;}</style></defs><title>4</title><path class="cls-1" d="M486.39,332.84a25.59,25.59,0,0,0-24,17.06H450.6a8,8,0,0,1-5.69-2.35l-57.36-57.36H435.2a76.34,76.34,0,0,0,58.07-26.92A78.94,78.94,0,0,0,511,199.45a77.29,77.29,0,0,0-54.71-62,83.12,83.12,0,0,0-31.38-2.74,88.94,88.94,0,0,0,.94-30.18,85.44,85.44,0,0,0-122.66-65.2A121.73,121.73,0,0,0,213.39.12,124.72,124.72,0,0,0,90,117a.3.3,0,0,1-.24.11H85.42A84,84,0,0,0,23.61,144,86.77,86.77,0,0,0,88.05,290.19h45L99,324.31H49.72a25.6,25.6,0,1,0,0,17.06H94v27.17a25.6,25.6,0,1,0,17.06,0V336.38l46.19-46.19h30.6v42.65a17.06,17.06,0,0,0,17.06,17.06h30.91A17.05,17.05,0,0,0,247,345.64l11.7-10.24a17.1,17.1,0,0,0,5.85-12.85V290.19h98.84l38.39,38.39-15.3,15.29-.05.08a25.15,25.15,0,0,0-11-2.58A25.6,25.6,0,1,0,401.08,367a25.17,25.17,0,0,0-2.56-11l.08-.05,15.27-15.3,19,19A24.92,24.92,0,0,0,450.6,367h11.77a25.55,25.55,0,1,0,24-34.13ZM25.7,341.37a8.53,8.53,0,1,1,8.53-8.53A8.53,8.53,0,0,1,25.7,341.37Zm76.78,59.72a8.53,8.53,0,1,1,8.53-8.53A8.52,8.52,0,0,1,102.48,401.09ZM17.32,208.28a69.59,69.59,0,0,1,18.77-52.62,67.11,67.11,0,0,1,49.33-21.48h4.33a17.23,17.23,0,0,0,17.24-16,107.66,107.66,0,0,1,106.4-101A104.78,104.78,0,0,1,290.67,51,17.09,17.09,0,0,0,311,54.86a67,67,0,0,1,40.58-6.58,68.82,68.82,0,0,1,57.36,58.63,71.57,71.57,0,0,1-.75,24.38,17.51,17.51,0,0,0,4.32,15.52,17.1,17.1,0,0,0,14.88,5.25,58.58,58.58,0,0,1,24.17,1.8,61,61,0,0,1,42.58,48.27,61.94,61.94,0,0,1-13.82,50.06,59.26,59.26,0,0,1-45.09,20.93H88.05A70.26,70.26,0,0,1,17.32,208.28Zm230.2,114.33-11.75,10.23H204.86V290.19h42.66Zm128,52.89A8.53,8.53,0,1,1,384,367,8.53,8.53,0,0,1,375.49,375.5ZM486.39,367a8.54,8.54,0,1,1,8.53-8.53A8.53,8.53,0,0,1,486.39,367Z" transform="translate(0 -0.12)"/><path class="cls-1" d="M221.92,239h68.25a25.6,25.6,0,0,0,25.6-25.6V162.22a25.61,25.61,0,0,0-17.07-24v-10.1a42.66,42.66,0,1,0-85.31,0v10.1a25.61,25.61,0,0,0-17.07,24V213.4A25.6,25.6,0,0,0,221.92,239Zm8.53-110.91a25.6,25.6,0,0,1,51.19,0v8.53H230.45Zm-17.06,34.13a8.53,8.53,0,0,1,8.53-8.54h68.25a8.53,8.53,0,0,1,8.53,8.54V213.4a8.53,8.53,0,0,1-8.53,8.53H221.92a8.53,8.53,0,0,1-8.53-8.53Z" transform="translate(0 -0.12)"/><path class="cls-1" d="M256,204.87a8.53,8.53,0,0,0,8.54-8.53V179.28a8.53,8.53,0,1,0-17.06,0v17.06A8.53,8.53,0,0,0,256,204.87Z" transform="translate(0 -0.12)"/><path class="cls-1" d="M256,375.5v68.25a17.06,17.06,0,0,0,17.07,17.06H304a17.1,17.1,0,0,0,11.26-4.26L327,446.31a17.12,17.12,0,0,0,5.84-12.85V384A17.06,17.06,0,0,0,315.77,367H264.58A8.53,8.53,0,0,0,256,375.5ZM273.11,384h42.66v49.48L304,443.75H273.11Z" transform="translate(0 -0.12)"/><path class="cls-1" d="M162.2,494.94A17.06,17.06,0,0,0,179.26,512h30.91a17,17,0,0,0,11.26-4.27l11.71-10.23A17.16,17.16,0,0,0,239,484.65V435.22a17.06,17.06,0,0,0-17.06-17.06H179.26a17.06,17.06,0,0,0-17.06,17.06Zm17.06-59.72h42.66V484.7l-11.75,10.24H179.26Z" transform="translate(0 -0.12)"/><path class="cls-1" d="M332.83,341.37V324.31a8.53,8.53,0,1,0-17.06,0v17.06a8.53,8.53,0,1,0,17.06,0Z" transform="translate(0 -0.12)"/><path class="cls-1" d="M298.7,341.37V324.31a8.53,8.53,0,1,0-17.06,0v17.06a8.53,8.53,0,1,0,17.06,0Z" transform="translate(0 -0.12)"/><path class="cls-1" d="M179.26,392.56V375.5a8.53,8.53,0,0,0-17.06,0v17.06a8.53,8.53,0,0,0,17.06,0Z" transform="translate(0 -0.12)"/><path class="cls-1" d="M213.39,392.56V375.5a8.54,8.54,0,0,0-17.07,0v17.06a8.54,8.54,0,0,0,17.07,0Z" transform="translate(0 -0.12)"/></svg>