<svg id="Capa_1" data-name="Capa 1" xmlns="http://www.w3.org/2000/svg" viewBox="0 0 512 511.99"><defs><style>.cls-1{fill:#316fea;}</style></defs><title>5</title><path class="cls-1" d="M296,80.47a10,10,0,1,0,10,10A10,10,0,0,0,296,80.47Z" transform="translate(0 0)"/><path class="cls-1" d="M256,80.46c-19.15,0-18.16-.87-37.1-2.71a10,10,0,1,0-2.51,19.84,6,6,0,0,0,.61.06c18.36,1.79,18.59,2.81,39,2.81a10,10,0,0,0,0-20Z" transform="translate(0 0)"/><path class="cls-1" d="M450.46,348.26l-34.95-11.65,13.56-13.56a10,10,0,0,0-1.36-15.28L354,256.47l6-64.6c37.09-6.68,106-24.12,106-61.41C466,94.31,401.39,77,365.78,70.11c.14-3.4.22-6.84.22-10.28,0-29.08-5-45.78-16.2-54.15-13.46-10.06-31.28-4.79-50.14.78-13.27,3.92-28.32,8.37-43.66,8.37s-30.39-4.45-43.66-8.37C193.47.89,175.66-4.38,162.19,5.68,151,14.05,146,30.75,146,59.83c0,3.44.07,6.88.21,10.28C110.5,77,46,94.34,46,130.46c0,37.29,69,54.73,106,61.41l6,64.6-73.72,51.3a10,10,0,0,0-2.5,13.92,9.9,9.9,0,0,0,1.14,1.36l13.56,13.56L61.54,348.26A89.88,89.88,0,0,0,0,433.64V502a10,10,0,0,0,10,10H502a10,10,0,0,0,10-10V433.64A89.88,89.88,0,0,0,450.46,348.26ZM174.17,21.71c5.43-4.07,18.58-.18,32.5,3.93,14.58,4.31,31.1,9.19,49.33,9.19s34.75-4.88,49.33-9.19c13.92-4.11,27.07-8,32.5-3.94C340.88,24,346,32,346,59.83A222.08,222.08,0,0,1,339.18,115,599.54,599.54,0,0,1,256,120.46,599.54,599.54,0,0,1,172.82,115,221.61,221.61,0,0,1,166,59.83C166,32,171.12,24,174.17,21.71ZM66,130.46c0-12.32,28.07-29.6,81.86-40.29a228.41,228.41,0,0,0,7.45,36.53,10,10,0,0,0,8.08,7.07A612.12,612.12,0,0,0,256,140.46a612.12,612.12,0,0,0,92.61-6.69,10,10,0,0,0,8.08-7.07,229.54,229.54,0,0,0,7.46-36.53c53.78,10.7,81.85,28,81.85,40.29,0,13.58-33.28,32.71-96.89,43a594.83,594.83,0,0,1-93.11,7,594.86,594.86,0,0,1-93.12-7C99.28,163.17,66,144,66,130.46ZM256,326a78.42,78.42,0,0,1-78-70.52l-5.58-60.4a631.33,631.33,0,0,0,83.58,5.4,631.33,631.33,0,0,0,83.58-5.4L334,255.4A78.41,78.41,0,0,1,256,326Zm51,5.77-7.13,29.39C291.4,370.87,275.2,386,256,386s-35.4-15.11-43.84-24.84L205,331.75a98.41,98.41,0,0,0,101.94,0ZM20,492V433.64a69.91,69.91,0,0,1,47.86-66.41l44.44-14.81,22,22L84.45,407.66a10,10,0,0,0-2.74,13.88l.09.12,49,70.28Zm135.21,0L104,418.63l51.5-34.33a10,10,0,0,0,2.78-13.87,10.63,10.63,0,0,0-1.25-1.52l-51.55-51.55,56.84-39.56a98.06,98.06,0,0,0,16.5,30.86c.71,2.93,44.39,183.16,44.42,183.32Zm88.66,0-23.58-97.3C231.88,402.07,244,406,256,406s24.12-3.91,35.71-11.29L268.13,492Zm44.84,0,44.43-183.32a98.06,98.06,0,0,0,16.5-30.86l56.84,39.56-51.55,51.55a10,10,0,0,0,0,14.14,9.11,9.11,0,0,0,1.52,1.25L408,418.63,356.78,492ZM492,492H381.17l49-70.28a10,10,0,0,0-2.53-13.91l-.12-.09L377.7,374.42l22-22,44.44,14.81A69.91,69.91,0,0,1,492,433.64Z" transform="translate(0 0)"/></svg>