<svg id="Layer_1" data-name="Layer 1" xmlns="http://www.w3.org/2000/svg" viewBox="0 0 512 512"><defs><style>.cls-1{fill:#316fea;}</style></defs><title>6</title><path class="cls-1" d="M162.13,426.67H349.87a25.6,25.6,0,0,0,25.59-25.6V247.46a25.59,25.59,0,0,0-25.59-25.59V177.73a93.87,93.87,0,0,0-187.74,0v44.14a25.59,25.59,0,0,0-25.59,25.59V401.07A25.6,25.6,0,0,0,162.13,426.67ZM179.2,177.73a76.8,76.8,0,0,1,153.6,0v44.14H315.73V177.73a59.73,59.73,0,0,0-119.46,0v44.14H179.2Zm119.47,44.14H213.33V177.73a42.67,42.67,0,0,1,85.34,0ZM162.13,238.93H349.87a8.53,8.53,0,0,1,8.53,8.53v25.61H324.27a8.53,8.53,0,1,0,0,17.06H358.4v25.6H324.27a8.54,8.54,0,1,0,0,17.07H358.4v34.13H324.27a8.54,8.54,0,1,0,0,17.07H358.4v17.07a8.53,8.53,0,0,1-8.53,8.53H162.13a8.53,8.53,0,0,1-8.53-8.53V384h34.13a8.54,8.54,0,1,0,0-17.07H153.6V332.8h34.13a8.54,8.54,0,1,0,0-17.07H153.6v-25.6h34.13a8.53,8.53,0,1,0,0-17.06H153.6V247.46A8.53,8.53,0,0,1,162.13,238.93Z"/><path class="cls-1" d="M230.4,340.61V367a17.07,17.07,0,0,0,17,17h17.2a17.07,17.07,0,0,0,17-17V340.48a9.45,9.45,0,0,1,2.63-6.06A36.2,36.2,0,0,0,280,281.6a38.28,38.28,0,0,0-32-7.72,37.42,37.42,0,0,0-29.12,29.52,36.74,36.74,0,0,0,8.86,31.06A9.59,9.59,0,0,1,230.4,340.61Zm5.3-34.08a20.49,20.49,0,0,1,15.75-15.93,23.7,23.7,0,0,1,4.6-.47,20.64,20.64,0,0,1,13.18,4.69,20,20,0,0,1,7.43,15.52,19.53,19.53,0,0,1-5.21,12.8,26.35,26.35,0,0,0-6.91,17.34l.06,26.45-17.14.07V340.61a26.46,26.46,0,0,0-6.87-17.43A19.61,19.61,0,0,1,235.7,306.53Z"/><path class="cls-1" d="M409.6,145.07V93.87a8.53,8.53,0,1,0-17.06,0v51.2a8.53,8.53,0,0,0,17.06,0Z"/><path class="cls-1" d="M358.4,93.87v51.2a8.53,8.53,0,1,0,17.06,0V93.87a8.53,8.53,0,1,0-17.06,0Z"/><path class="cls-1" d="M426.67,93.87v51.2a8.53,8.53,0,0,0,17.06,0V93.87a8.53,8.53,0,1,0-17.06,0Z"/><path class="cls-1" d="M409.6,273.07a8.53,8.53,0,0,0-17.06,0v51.2a8.53,8.53,0,0,0,17.06,0Z"/><path class="cls-1" d="M443.73,324.27a8.54,8.54,0,0,0,17.07,0v-51.2a8.54,8.54,0,0,0-17.07,0Z"/><path class="cls-1" d="M503.46,264.54a8.53,8.53,0,0,0-8.53,8.53v51.2a8.54,8.54,0,0,0,17.07,0v-51.2A8.53,8.53,0,0,0,503.46,264.54Z"/><path class="cls-1" d="M494.93,85.33H477.87A17.07,17.07,0,0,0,460.8,102.4v34.14a17.06,17.06,0,0,0,17.07,17.06h17.06A17.06,17.06,0,0,0,512,136.54V102.4A17.07,17.07,0,0,0,494.93,85.33Zm-17.06,51.21V102.4h17.06v34.14Z"/><path class="cls-1" d="M503.46,179.2a8.53,8.53,0,0,0-8.53,8.53v51.2a8.54,8.54,0,0,0,17.07,0v-51.2A8.53,8.53,0,0,0,503.46,179.2Z"/><path class="cls-1" d="M469.33,247.46a8.53,8.53,0,0,0,8.54-8.53v-51.2a8.54,8.54,0,0,0-17.07,0v51.2A8.53,8.53,0,0,0,469.33,247.46Z"/><path class="cls-1" d="M426.67,247.46a17.06,17.06,0,0,0,17.06-17.06V196.27a17.06,17.06,0,0,0-17.06-17.07H409.6a17.06,17.06,0,0,0-17.06,17.07V230.4a17.06,17.06,0,0,0,17.06,17.06ZM409.6,196.27h17.07V230.4H409.6Z"/><path class="cls-1" d="M401.07,358.4a8.53,8.53,0,0,0-8.53,8.53v51.2a8.53,8.53,0,1,0,17.06,0v-51.2A8.53,8.53,0,0,0,401.07,358.4Z"/><path class="cls-1" d="M426.67,366.93v51.2a8.53,8.53,0,1,0,17.06,0v-51.2a8.53,8.53,0,0,0-17.06,0Z"/><path class="cls-1" d="M494.93,358.4H477.87a17.06,17.06,0,0,0-17.07,17.06V409.6a17.07,17.07,0,0,0,17.07,17.07h17.06A17.07,17.07,0,0,0,512,409.6V375.46A17.06,17.06,0,0,0,494.93,358.4Zm-17.06,51.2V375.46h17.06V409.6Z"/><path class="cls-1" d="M110.93,153.6a8.53,8.53,0,0,0,8.53-8.53V93.87a8.53,8.53,0,1,0-17.06,0v51.2A8.53,8.53,0,0,0,110.93,153.6Z"/><path class="cls-1" d="M145.07,153.6a8.53,8.53,0,0,0,8.53-8.53V93.87a8.53,8.53,0,1,0-17.06,0v51.2A8.53,8.53,0,0,0,145.07,153.6Z"/><path class="cls-1" d="M85.33,145.07V93.87a8.53,8.53,0,1,0-17.06,0v51.2a8.53,8.53,0,0,0,17.06,0Z"/><path class="cls-1" d="M110.93,332.8a8.53,8.53,0,0,0,8.53-8.53v-51.2a8.53,8.53,0,1,0-17.06,0v51.2A8.53,8.53,0,0,0,110.93,332.8Z"/><path class="cls-1" d="M68.27,324.27v-51.2a8.54,8.54,0,0,0-17.07,0v51.2a8.54,8.54,0,0,0,17.07,0Z"/><path class="cls-1" d="M8.54,332.8a8.53,8.53,0,0,0,8.53-8.53v-51.2a8.54,8.54,0,0,0-17.07,0v51.2A8.53,8.53,0,0,0,8.54,332.8Z"/><path class="cls-1" d="M17.07,153.6H34.13A17.06,17.06,0,0,0,51.2,136.54V102.4A17.07,17.07,0,0,0,34.13,85.33H17.07A17.07,17.07,0,0,0,0,102.4v34.14A17.06,17.06,0,0,0,17.07,153.6Zm0-51.2H34.13v34.14H17.07Z"/><path class="cls-1" d="M8.54,247.46a8.53,8.53,0,0,0,8.53-8.53v-51.2a8.54,8.54,0,0,0-17.07,0v51.2A8.53,8.53,0,0,0,8.54,247.46Z"/><path class="cls-1" d="M51.2,187.73a8.54,8.54,0,0,0-17.07,0v51.2a8.54,8.54,0,0,0,17.07,0Z"/><path class="cls-1" d="M68.27,196.27V230.4a17.06,17.06,0,0,0,17.06,17.06H102.4a17.06,17.06,0,0,0,17.06-17.06V196.27A17.06,17.06,0,0,0,102.4,179.2H85.33A17.06,17.06,0,0,0,68.27,196.27ZM102.4,230.4H85.33V196.27H102.4Z"/><path class="cls-1" d="M102.4,418.13a8.53,8.53,0,1,0,17.06,0v-51.2a8.53,8.53,0,1,0-17.06,0Z"/><path class="cls-1" d="M76.8,426.67a8.53,8.53,0,0,0,8.53-8.54v-51.2a8.53,8.53,0,1,0-17.06,0v51.2A8.53,8.53,0,0,0,76.8,426.67Z"/><path class="cls-1" d="M17.07,426.67H34.13A17.07,17.07,0,0,0,51.2,409.6V375.46A17.06,17.06,0,0,0,34.13,358.4H17.07A17.06,17.06,0,0,0,0,375.46V409.6A17.07,17.07,0,0,0,17.07,426.67Zm0-51.21H34.13V409.6H17.07Z"/><path class="cls-1" d="M494.93,68.27a8.53,8.53,0,0,0,8.53-8.54V8.54a8.53,8.53,0,1,0-17.06,0V59.73A8.53,8.53,0,0,0,494.93,68.27Z"/><path class="cls-1" d="M460.8,68.27a8.53,8.53,0,0,0,8.53-8.54V8.54a8.53,8.53,0,1,0-17.06,0V59.73A8.53,8.53,0,0,0,460.8,68.27Z"/><path class="cls-1" d="M358.4,68.27a8.53,8.53,0,0,0,8.53-8.54V8.54a8.53,8.53,0,1,0-17.06,0V59.73A8.53,8.53,0,0,0,358.4,68.27Z"/><path class="cls-1" d="M401.07,68.27h17.06A17.07,17.07,0,0,0,435.2,51.2V17.07A17.07,17.07,0,0,0,418.13,0H401.07A17.07,17.07,0,0,0,384,17.07V51.2A17.07,17.07,0,0,0,401.07,68.27Zm0-51.2h17.06V51.2H401.07Z"/><path class="cls-1" d="M298.67,68.27h17.06A17.07,17.07,0,0,0,332.8,51.2V17.07A17.07,17.07,0,0,0,315.73,0H298.67A17.07,17.07,0,0,0,281.6,17.07V51.2A17.07,17.07,0,0,0,298.67,68.27Zm0-51.2h17.06V51.2H298.67Z"/><path class="cls-1" d="M256,68.27a8.54,8.54,0,0,0,8.54-8.54V8.54a8.54,8.54,0,0,0-17.08,0V59.73A8.54,8.54,0,0,0,256,68.27Z"/><path class="cls-1" d="M221.87,68.27a8.53,8.53,0,0,0,8.53-8.54V8.54a8.54,8.54,0,1,0-17.07,0V59.73A8.54,8.54,0,0,0,221.87,68.27Z"/><path class="cls-1" d="M17.07,68.27a8.53,8.53,0,0,0,8.53-8.54V8.54a8.53,8.53,0,1,0-17.06,0V59.73A8.53,8.53,0,0,0,17.07,68.27Z"/><path class="cls-1" d="M119.46,68.27A8.54,8.54,0,0,0,128,59.73V8.54a8.54,8.54,0,1,0-17.07,0V59.73A8.53,8.53,0,0,0,119.46,68.27Z"/><path class="cls-1" d="M162.13,68.27H179.2A17.08,17.08,0,0,0,196.27,51.2V17.07A17.07,17.07,0,0,0,179.2,0H162.13a17.06,17.06,0,0,0-17.06,17.07V51.2A17.07,17.07,0,0,0,162.13,68.27Zm0-51.2H179.2V51.2H162.13Z"/><path class="cls-1" d="M59.73,68.27H76.8A17.07,17.07,0,0,0,93.87,51.2V17.07A17.07,17.07,0,0,0,76.8,0H59.73A17.06,17.06,0,0,0,42.67,17.07V51.2A17.07,17.07,0,0,0,59.73,68.27Zm0-51.2H76.8V51.2H59.73Z"/><path class="cls-1" d="M8.54,452.27v51.19a8.53,8.53,0,1,0,17.06,0V452.27a8.53,8.53,0,1,0-17.06,0Z"/><path class="cls-1" d="M42.67,452.27v51.19a8.53,8.53,0,1,0,17.06,0V452.27a8.53,8.53,0,1,0-17.06,0Z"/><path class="cls-1" d="M145.07,452.27v51.19a8.53,8.53,0,1,0,17.06,0V452.27a8.53,8.53,0,1,0-17.06,0Z"/><path class="cls-1" d="M93.87,512h17.06A17.07,17.07,0,0,0,128,494.93V460.8a17.07,17.07,0,0,0-17.07-17.07H93.87A17.07,17.07,0,0,0,76.8,460.8v34.13A17.07,17.07,0,0,0,93.87,512Zm0-51.2h17.06v34.13H93.87Z"/><path class="cls-1" d="M196.27,443.73A17.07,17.07,0,0,0,179.2,460.8v34.13A17.07,17.07,0,0,0,196.27,512h17.06a17.07,17.07,0,0,0,17.07-17.07V460.8a17.07,17.07,0,0,0-17.07-17.07Zm0,51.2V460.8h17.06v34.13Z"/><path class="cls-1" d="M247.46,452.27v51.19a8.54,8.54,0,0,0,17.08,0V452.27a8.54,8.54,0,0,0-17.08,0Z"/><path class="cls-1" d="M281.6,452.27v51.19a8.54,8.54,0,1,0,17.07,0V452.27a8.54,8.54,0,1,0-17.07,0Z"/><path class="cls-1" d="M503.46,503.46V452.27a8.53,8.53,0,1,0-17.06,0v51.19a8.53,8.53,0,1,0,17.06,0Z"/><path class="cls-1" d="M392.54,512a8.53,8.53,0,0,0,8.53-8.54V452.27a8.54,8.54,0,1,0-17.07,0v51.19A8.54,8.54,0,0,0,392.54,512Z"/><path class="cls-1" d="M332.8,443.73a17.08,17.08,0,0,0-17.07,17.07v34.13A17.07,17.07,0,0,0,332.8,512h17.07a17.06,17.06,0,0,0,17.06-17.07V460.8a17.07,17.07,0,0,0-17.06-17.07Zm0,51.2V460.8h17.07v34.13Z"/><path class="cls-1" d="M435.2,512h17.07a17.06,17.06,0,0,0,17.06-17.07V460.8a17.07,17.07,0,0,0-17.06-17.07H435.2a17.07,17.07,0,0,0-17.07,17.07v34.13A17.07,17.07,0,0,0,435.2,512Zm0-51.2h17.07v34.13H435.2Z"/></svg>