<svg id="Layer_1" data-name="Layer 1" xmlns="http://www.w3.org/2000/svg" viewBox="0 0 480 480"><defs><style>.cls-1{fill:#316fea;}</style></defs><g id="Layer_2" data-name="Layer 2"><path class="cls-1" d="M256,272a96,96,0,1,1,96-96A96,96,0,0,1,256,272Zm0-160a64,64,0,1,0,64,64A64.1,64.1,0,0,0,256,112Z" transform="translate(-15.8 -16)"/><path class="cls-1" d="M256,496A239.9,239.9,0,0,1,70.6,408.2l-8.4-10.3,8.4-10.1c84.1-102.4,235.3-117.2,337.8-33a245,245,0,0,1,33,33l8.4,10.1-8.4,10.3A239.9,239.9,0,0,1,256,496ZM104.2,398.1c78.4,83.9,210,88.4,293.9,10,3.5-3.2,6.8-6.6,10.1-10-78.5-84-210.1-88.5-294-10C110.7,391.3,107.4,394.6,104.2,398.1Z" transform="translate(-15.8 -16)"/><path class="cls-1" d="M256,496c-132.5.1-240.1-107.3-240.2-239.8S123.1,16.1,255.7,16,495.8,123.3,495.8,255.8A239.9,239.9,0,0,1,256,496Zm0-448C141.1,48,48,141.1,48,256s93.1,208,208,208,208-93.1,208-208S370.9,48,256,48Z" transform="translate(-15.8 -16)"/><path class="cls-1" d="M82.9,398.1S244,578.1,408,416l21.1-17.9S292.2,256,153.1,341.3Z" transform="translate(-15.8 -16)"/><circle class="cls-1" cx="240.2" cy="160" r="80"/></g></svg>