<svg width="12" height="20" viewBox="0 0 12 20" fill="none" xmlns="http://www.w3.org/2000/svg">
<path d="M3.91004 19.9998C3.80556 20.0001 3.702 19.9803 3.60497 19.9416C3.42525 19.8708 3.27573 19.7397 3.18196 19.5709C3.08819 19.402 3.05601 19.2058 3.09091 19.0158L4.44753 11.6406H0.833542C0.681344 11.6404 0.532086 11.5986 0.401924 11.5198C0.271763 11.4409 0.165658 11.3279 0.0950936 11.193C0.0245297 11.0582 -0.00780436 10.9066 0.00159179 10.7547C0.0109879 10.6028 0.0617563 10.4563 0.148401 10.3312L7.07169 0.357562C7.17973 0.202163 7.33746 0.0881799 7.51892 0.0343755C7.70038 -0.019429 7.89475 -0.00984835 8.07004 0.0615403C8.24533 0.132929 8.39108 0.261871 8.48332 0.427142C8.57556 0.592414 8.60878 0.784165 8.57751 0.970832L7.47832 7.50001H10.8333C10.9829 7.49989 11.1297 7.54001 11.2584 7.61616C11.3872 7.69231 11.493 7.8017 11.5649 7.93284C11.6368 8.06398 11.6721 8.21205 11.6671 8.36153C11.6621 8.511 11.617 8.65638 11.5364 8.78241L4.61276 19.6158C4.53721 19.7337 4.4332 19.8306 4.31033 19.8978C4.18745 19.9649 4.04965 19.9999 3.90965 19.9998H3.91004Z" fill="white"/>
</svg>
