<svg width="18" height="18" viewBox="0 0 18 18" fill="none" xmlns="http://www.w3.org/2000/svg">
<path d="M9 0C4.03734 0 0 4.03734 0 9C0 13.9627 4.03734 18 9 18C13.9627 18 18 13.9627 18 9C18 4.03734 13.9627 0 9 0ZM9 16.683C4.76367 16.683 1.31695 13.2377 1.31695 9C1.31695 4.76227 4.76367 1.31695 9 1.31695C13.2363 1.31695 16.683 4.76367 16.683 9C16.683 13.2363 13.2363 16.683 9 16.683Z" fill="white"/>
<path d="M11.8577 4.83961C11.7865 4.79049 11.7063 4.75587 11.6217 4.73774C11.5371 4.71961 11.4498 4.71832 11.3647 4.73394C11.2796 4.74956 11.1984 4.78179 11.1258 4.82879C11.0531 4.87578 10.9905 4.93662 10.9414 5.00784C10.8922 5.07905 10.8576 5.15924 10.8395 5.24383C10.8214 5.32842 10.8201 5.41576 10.8357 5.50085C10.8672 5.6727 10.9658 5.82497 11.1096 5.92418C11.7638 6.37243 12.2583 7.01744 12.5213 7.76567C12.7842 8.5139 12.802 9.32644 12.572 10.0854C12.342 10.8444 11.8762 11.5105 11.2421 11.9869C10.6081 12.4633 9.83875 12.7253 9.04572 12.735C8.25269 12.7447 7.4772 12.5015 6.83171 12.0407C6.18622 11.5799 5.70431 10.9254 5.45586 10.1723C5.20741 9.4191 5.20534 8.60637 5.44996 7.85195C5.69458 7.09752 6.17316 6.44064 6.8163 5.97657C6.95774 5.874 7.05265 5.71945 7.08015 5.54691C7.10764 5.37437 7.06546 5.19797 6.9629 5.05653C6.86034 4.91508 6.70578 4.82017 6.53324 4.79268C6.3607 4.76519 6.18431 4.80736 6.04286 4.90993C5.39675 5.37877 4.87053 5.99361 4.50708 6.70438C4.14364 7.41514 3.95325 8.20171 3.95142 9C3.95142 11.784 6.21618 14.0488 9.00021 14.0488C11.7842 14.0488 14.049 11.784 14.049 9C14.0483 8.18085 13.8486 7.37413 13.4668 6.64936C13.0851 5.9246 12.5328 5.30351 11.8577 4.83961V4.83961Z" fill="white"/>
<path d="M9.00003 7.50656C9.08651 7.5066 9.17216 7.4896 9.25207 7.45653C9.33198 7.42345 9.40458 7.37495 9.46574 7.3138C9.52689 7.25264 9.57539 7.18003 9.60847 7.10012C9.64154 7.02021 9.65854 6.93457 9.6585 6.84808V3.35953C9.6585 3.18489 9.58912 3.0174 9.46564 2.89391C9.34215 2.77042 9.17466 2.70105 9.00003 2.70105C8.82539 2.70105 8.6579 2.77042 8.53441 2.89391C8.41093 3.0174 8.34155 3.18489 8.34155 3.35953V6.84808C8.34151 6.93457 8.35851 7.02021 8.39158 7.10012C8.42466 7.18003 8.47316 7.25264 8.53431 7.3138C8.59547 7.37495 8.66807 7.42345 8.74798 7.45653C8.82789 7.4896 8.91354 7.5066 9.00003 7.50656Z" fill="white"/>
</svg>
