<svg id="Layer_1" data-name="Layer 1" xmlns="http://www.w3.org/2000/svg" viewBox="0 0 624.09 169.36"><defs><style>.cls-1{fill:#fff;}.cls-2{fill:#006fcf;}</style></defs><path class="cls-1" d="M948.74,472.85c7.08,0,14.17-.1,21.25.06,4-.09,8.28,2.74,8.34,7,.52,4.22-3.36,7.7-7.39,7.74-7.4.22-14.81,0-22.21.09q0-7.47,0-14.93m-255.57,1.23q5.18,12.35,10.35,24.69c-6.91,0-13.81,0-20.71,0,3.47-8.22,6.89-16.45,10.36-24.67m442.8.06c3.51,8.19,6.88,16.43,10.35,24.64h-20.7c3.46-8.22,6.86-16.45,10.35-24.65m-214.35,94h20.47a10.59,10.59,0,0,1,6.91,1.91c4,3.24,3.71,10.58-.94,13.11-2.13,1.31-4.71,1.22-7.11,1.24-6.45,0-12.89,0-19.34,0,0-5.42,0-10.83,0-16.24m78.3,0c6.71,0,13.42,0,20.14,0,2.6,0,5.44.47,7.37,2.37,2.87,2.72,2.85,8-.32,10.5-1.95,1.74-4.67,2-7.16,2h-20q0-7.44,0-14.87Z" transform="translate(-648 -456)"/><path class="cls-2" d="M680.67,456c8.55,0,17.1,0,25.64,0q16.28,37.05,32.65,74H716.63c-2.13-5-4.21-10-6.35-15H676.05c-2.1,5-4.15,10-6.25,15H648q16.32-37,32.67-74.06m12.5,18.05c-3.47,8.22-6.89,16.45-10.36,24.67,6.9.06,13.8,0,20.71,0q-5.16-12.36-10.35-24.69m49.5-18q15.54,0,31.08,0c5.68,15.54,11.27,31.11,17,46.66,5.58-15.56,11.22-31.1,16.79-46.66,10.26,0,20.53,0,30.79,0q0,37,0,74.05H818.83c-.06-17.72.09-35.43-.08-53.14q-9.68,26.6-19.49,53.14H781.71c-6.52-17.77-13.14-35.51-19.52-53.33-.13,17.77,0,35.55-.06,53.33H742.67q0-37,0-74.05m110.74,0q31.32,0,62.63,0c0,5.6,0,11.2,0,16.8H873.21c0,3.91,0,7.83,0,11.74H915q0,8.42,0,16.82H873.21q0,5.94,0,11.88,21.42,0,42.83,0,0,8.4,0,16.81H853.42q0-37,0-74.05m75.52,0c14.38,0,28.76-.06,43.14,0,7.08,0,14.51,2.09,19.6,7.23,7.33,7.12,8.42,19.22,3.72,28.07-3.34,6.45-10,10.43-16.94,12,8.2,8.88,16.34,17.84,24.54,26.73-8.12,0-16.23.08-24.35,0-7.88-8.34-15.11-17.33-22.78-25.9h-7.13c0,8.64,0,17.29,0,25.93H929q0-37,0-74.05m19.81,16.81q0,7.47,0,14.93c7.4-.06,14.81.13,22.21-.09,4,0,7.91-3.52,7.39-7.74-.06-4.3-4.35-7.13-8.34-7-7.08-.16-14.17,0-21.25-.06M1008.6,456q9.89,0,19.78,0,0,37,0,74.05h-19.77q0-37,0-74.05m35.79,15.35c5.54-9.19,16-14.31,26.52-15.07,9.51-.59,19-.16,28.57-.28v17.37c-7.7.06-15.39-.11-23.08.08-5.36.15-11,2.17-14.2,6.68-3.82,5.34-4,12.33-3.07,18.59.81,5.16,3.91,10.1,8.73,12.36,6.75,3.26,14.45,1.82,21.66,2.18-2.69,5.62-5.18,11.34-8.08,16.86-9,.1-18.64-.08-26.62-4.93-8.8-4.86-14.18-14.4-15.44-24.19-1.28-10-.5-20.9,5-29.65m79.06-15.32c8.52-.08,17,0,25.59,0q16.41,37,32.7,74.06c-7.4,0-14.81-.05-22.21,0-2.3-4.94-4.23-10-6.45-15h-34.24c-2.12,5-4.11,10-6.24,15-7.26,0-14.51,0-21.76,0,10.81-24.7,21.79-49.32,32.61-74M1136,474.14c-3.49,8.2-6.89,16.43-10.35,24.65h20.7c-3.47-8.21-6.84-16.45-10.35-24.64m49.51-18.1c8.37.07,16.75-.17,25.12.12,9.87,15.07,19.93,30,30,45q0-22.56,0-45.12,9.78,0,19.56,0,0,37,0,74.05c-8,0-15.93,0-23.9,0q-15.59-23.42-31.08-46.87c-.05,15.62,0,31.24,0,46.86h-19.64q0-37,0-74.05M742.66,551.35q31.32,0,62.64,0c0,5.6,0,11.2,0,16.8q-21.42,0-42.84,0v11.75q20.88,0,41.78,0c0,5.59,0,11.2,0,16.8H762.46c0,3.93,0,7.87,0,11.81q21.42,0,42.84,0,0,8.4,0,16.8H742.67q0-37,0-74m66.13,0c8.6-.07,17.19,0,25.78,0,6.47,7.38,12.84,14.85,19.27,22.28,6.47-7.4,12.82-14.91,19.3-22.3,8.38,0,16.76-.05,25.14,0-10.78,12-21.44,24.09-32.17,36.12,11.11,12.63,22.29,25.2,33.38,37.85H873.73c-6.77-7.78-13.46-15.63-20.22-23.43-6.75,7.8-13.43,15.66-20.2,23.44-8.38,0-16.76,0-25.14,0q16.56-18.72,33.17-37.4-16.26-18.3-32.55-36.56m93.07,0q21.58,0,43.16,0c6.57,0,13.42,1.66,18.49,6,8.69,7.27,10.33,20.73,5.48,30.62-4,8.22-13.14,12.82-22,13.15-8.45.17-16.89,0-25.33.07,0,8,0,16.08,0,24.12H901.86q0-37,0-74m19.76,16.82c0,5.41,0,10.82,0,16.24,6.45,0,12.89,0,19.34,0,2.4,0,5,.07,7.11-1.24,4.65-2.53,4.93-9.87.94-13.11a10.59,10.59,0,0,0-6.91-1.91H921.62m58.5-16.83c14.3,0,28.59,0,42.88,0,7,0,14.44,1.94,19.61,6.95,7.16,6.7,8.52,18.08,4.72,26.86-3.12,7.15-10.2,11.89-17.69,13.44,8.18,8.91,16.33,17.85,24.55,26.73-8.18,0-16.36,0-24.54,0-7.54-8.6-15-17.25-22.53-25.87q-3.6,0-7.18,0c-.06,8.63,0,17.25,0,25.87H980.14q0-37,0-74m19.8,16.83q0,7.44,0,14.87h20c2.49,0,5.21-.27,7.16-2,3.17-2.48,3.19-7.78.32-10.5-1.93-1.9-4.77-2.38-7.37-2.37-6.72,0-13.43,0-20.14,0m59.87-16.81q31.32,0,62.63,0c0,5.6,0,11.2,0,16.8q-21.42,0-42.83,0c0,3.91,0,7.83,0,11.74,13.93,0,27.85,0,41.78,0q0,8.4,0,16.81h-41.77q0,5.89,0,11.8c14.28,0,28.56,0,42.84,0q0,8.41,0,16.81H1059.8q0-37,0-74m78.65,5.94c5.11-4.24,11.88-5.91,18.42-5.93,13.67-.05,27.34,0,41,0q-3.84,8.42-7.72,16.81c-11.09,0-22.18,0-33.27.05-3.18-.1-6.58,2.35-6.35,5.78-.23,3.06,2.48,5.49,5.37,5.8,8.61.53,17.31-.51,25.89.72,7,1,13.86,5.59,16.12,12.54,2.82,8.57,1.29,19.05-5.43,25.44-5.15,5-12.53,6.89-19.53,6.87h-39.91c0-5.61,0-11.21,0-16.82,13.57,0,27.15.09,40.73-.06,4.44,0,7.34-5.44,4.75-9.07-2.32-3.47-7-2.58-10.54-2.69-9.35-.31-19.6,1.51-28-3.75-12-7.46-12.3-27-1.58-35.67m71.24,1.35c5.28-5.28,13-7.34,20.26-7.29q20.34,0,40.67,0-3.88,8.39-7.72,16.8c-11.29.06-22.58-.12-33.87.08-4.29,0-7.4,5.07-5,8.74,2.59,4,7.93,2.74,12,2.93,9.32.26,19.68-1.36,27.85,4.21,12.26,8.63,10.33,30-2.45,37.28a30.06,30.06,0,0,1-15.46,3.94H1205.8c0-5.6,0-11.2,0-16.8,13.67-.09,27.36.12,41-.1a5.87,5.87,0,0,0,4.49-9c-2.47-3.73-7.51-2.59-11.29-2.76-7.72-.29-15.73,1-23.14-1.75a19.46,19.46,0,0,1-12.1-12c-2.77-8.17-1.33-18.06,4.89-24.3Z" transform="translate(-648 -456)"/></svg>