<svg width="36" height="11" viewBox="0 0 36 11" xmlns="http://www.w3.org/2000/svg"><path d="M18.91 5.025v-.867s-.044-.68-.723-.68h-1.056v1.547h-1.084V.565h2.632s1.374-.173 1.374 1.306c0 .77-.608 1.04-.608 1.04s.527.258.527 1.013v1.1H18.91M17.131 2.43h1.121c.326 0 .593-.188.593-.422 0-.235-.267-.424-.593-.424h-1.12v.846M31.71 5.025l-1.722-2.98v2.98h-2.125l-.384-.935h-1.981l-.377.935h-1.7s-1.46-.218-1.46-2.105c0-2.476 1.657-2.377 1.715-2.392l1.337.037V1.57l-1.099.014s-.716 0-.803.975a3.3 3.3 0 0 0-.014.31c.004 1.507 1.254 1.039 1.294 1.026l1.345-3.33h1.52l1.625 4.046V.565h1.533l1.7 2.936V.565h1.092v4.46H31.71M25.961 2.95h1.055l-.52-1.328-.535 1.328M10.4 5.025V1.946L9.04 5.025h-.89L6.783 1.96v3.064h-2.14l-.376-.935H2.286l-.384.935H.716L2.517.565h1.526l1.649 4.098V.565h1.713l1.193 2.77L9.784.565h1.714v4.46H10.4M2.75 2.95h1.055l-.528-1.328-.528 1.328m9.349 2.075V.565h3.385v1.042H13.19v.686h2.235v1.012H13.19v.755h2.293v.965h-3.385m8.403-4.46h1.091V5.04h-1.09zm2.596 10.345v-.868s-.044-.679-.723-.679h-1.056v1.547h-1.085V6.45h2.633s1.374-.174 1.374 1.306c0 .77-.608 1.041-.608 1.041s.52.256.52 1.01v1.103h-1.055m-1.779-2.596h1.122c.324 0 .592-.188.592-.422 0-.235-.268-.423-.592-.423h-1.122v.845m-5.452 2.588h-.947l-1.15-1.32-1.157 1.32H8.577V6.435h3.948l1.244 1.42 1.25-1.412h.832v-.008h2.633s1.374-.16 1.374 1.313c0 1.313-.457 1.721-1.859 1.721h-1.063v1.433h-1.07m-1.36-2.195l1.345 1.555V7.16l-1.345 1.547M9.67 9.937h2.285l1.07-1.23-1.07-1.224H9.669v.687h2.227v1.012H9.669v.755m7.267-1.63h1.12c.326 0 .594-.19.594-.424 0-.233-.268-.422-.593-.422h-1.12v.845m13.558 2.59h-1.931V9.868h1.692s.607.076.607-.354c0-.4-.918-.37-.918-.37s-1.497.136-1.497-1.328c0-1.456 1.352-1.373 1.352-1.373h2.083v1.04h-1.677s-.58-.12-.58.318c0 .37.788.316.788.316s1.657-.127 1.657 1.215c0 1.441-1.067 1.57-1.445 1.57-.082 0-.131-.006-.131-.006m-5.807.006V6.45h3.383v1.033H25.78v.687h2.234v1.012H25.78v.755h2.291v.965h-3.383m9.632-.006h-1.932V9.868h1.686s.615.076.615-.354c0-.4-.919-.37-.919-.37s-1.496.136-1.496-1.328c0-1.456 1.352-1.373 1.352-1.373h2.076v1.04H34.03s-.578-.12-.578.318c0 .37.788.316.788.316s1.656-.127 1.656 1.215c0 1.441-1.067 1.57-1.445 1.57-.082 0-.131-.006-.131-.006" fill="#1194BE" fill-rule="evenodd"/></svg>