<?xml version="1.0" encoding="utf-8"?>
<!-- Generator: Adobe Illustrator 23.0.1, SVG Export Plug-In . SVG Version: 6.00 Build 0)  -->
<svg version="1.1" id="Layer_1" xmlns="http://www.w3.org/2000/svg" xmlns:xlink="http://www.w3.org/1999/xlink" x="0px" y="0px"
	 viewBox="0 0 36 11" style="enable-background:new 0 0 36 11;" xml:space="preserve">
<style type="text/css">
	.st0{fill-rule:evenodd;clip-rule:evenodd;fill:#717171;}
</style>
<path class="st0" d="M18.9,5V4.2c0,0,0-0.7-0.7-0.7h-1.1V5H16V0.6h2.6c0,0,1.4-0.2,1.4,1.3c0,0.8-0.6,1-0.6,1s0.5,0.3,0.5,1V5
	L18.9,5 M17.1,2.4h1.1c0.3,0,0.6-0.2,0.6-0.4c0-0.2-0.3-0.4-0.6-0.4h-1.1L17.1,2.4 M31.7,5L30,2v3h-2.1l-0.4-0.9h-2L25.1,5h-1.7
	c0,0-1.5-0.2-1.5-2.1c0-2.5,1.7-2.4,1.7-2.4l1.3,0v1l-1.1,0c0,0-0.7,0-0.8,1c0,0.1,0,0.2,0,0.3c0,1.5,1.3,1,1.3,1l1.3-3.3h1.5l1.6,4
	v-4h1.5l1.7,2.9V0.6h1.1V5H31.7 M26,3H27l-0.5-1.3L26,3 M10.4,5V1.9L9,5H8.1L6.8,2V5H4.6L4.3,4.1h-2L1.9,5H0.7l1.8-4.5H4l1.6,4.1
	V0.6h1.7l1.2,2.8l1.2-2.8h1.7V5H10.4 M2.8,3h1.1L3.3,1.6L2.8,3 M12.1,5V0.6h3.4v1h-2.3v0.7h2.2v1h-2.2v0.8h2.3v1L12.1,5 M20.5,0.6
	h1.1V5h-1.1L20.5,0.6z M23.1,10.9V10c0,0,0-0.7-0.7-0.7h-1.1v1.5h-1.1V6.4h2.6c0,0,1.4-0.2,1.4,1.3c0,0.8-0.6,1-0.6,1s0.5,0.3,0.5,1
	v1.1L23.1,10.9 M21.3,8.3h1.1c0.3,0,0.6-0.2,0.6-0.4c0-0.2-0.3-0.4-0.6-0.4h-1.1V8.3 M15.9,10.9h-0.9l-1.1-1.3l-1.2,1.3h-4V6.4h3.9
	l1.2,1.4L15,6.4h0.8v0h2.6c0,0,1.4-0.2,1.4,1.3c0,1.3-0.5,1.7-1.9,1.7h-1.1v1.4L15.9,10.9 M14.5,8.7l1.3,1.6V7.2L14.5,8.7 M9.7,9.9
	H12L13,8.7L12,7.5H9.7v0.7h2.2v1H9.7L9.7,9.9 M16.9,8.3h1.1c0.3,0,0.6-0.2,0.6-0.4c0-0.2-0.3-0.4-0.6-0.4h-1.1L16.9,8.3 M30.5,10.9
	h-1.9v-1h1.7c0,0,0.6,0.1,0.6-0.4c0-0.4-0.9-0.4-0.9-0.4s-1.5,0.1-1.5-1.3c0-1.5,1.4-1.4,1.4-1.4h2.1v1h-1.7c0,0-0.6-0.1-0.6,0.3
	c0,0.4,0.8,0.3,0.8,0.3s1.7-0.1,1.7,1.2c0,1.4-1.1,1.6-1.4,1.6C30.5,10.9,30.5,10.9,30.5,10.9 M24.7,10.9V6.4h3.4v1h-2.3v0.7H28v1
	h-2.2v0.8h2.3v1L24.7,10.9 M34.3,10.9h-1.9v-1h1.7c0,0,0.6,0.1,0.6-0.4c0-0.4-0.9-0.4-0.9-0.4s-1.5,0.1-1.5-1.3
	c0-1.5,1.4-1.4,1.4-1.4h2.1v1H34c0,0-0.6-0.1-0.6,0.3c0,0.4,0.8,0.3,0.8,0.3s1.7-0.1,1.7,1.2c0,1.4-1.1,1.6-1.4,1.6
	C34.4,10.9,34.3,10.9,34.3,10.9"/>
</svg>
