<svg id="Isolation_Mode" data-name="Isolation Mode" xmlns="http://www.w3.org/2000/svg" viewBox="0 0 538.79 571.6"><defs><style>.cls-1,.cls-2,.cls-5{fill:#316fea;}.cls-1,.cls-5{stroke:#316fea;stroke-miterlimit:10;}.cls-3{fill:#2ea52b;}.cls-4{fill:#fff;}.cls-5{stroke-width:4px;}</style></defs><title>api</title><path class="cls-1" d="M463.73,23H48.86A35.32,35.32,0,0,0,13.53,58.22V499.76A35.29,35.29,0,0,0,48.81,535H392.5a8.83,8.83,0,1,0,0-17.65H48.81a17.63,17.63,0,0,1-17.62-17.58V128.92H481.4V446.1a8.83,8.83,0,0,0,17.65,0V58.27A35.34,35.34,0,0,0,463.73,23Zm17.67,88.28H31.19v-53A17.64,17.64,0,0,1,48.86,40.65H463.73A17.67,17.67,0,0,1,481.4,58.27v53Z" transform="translate(-13.03 -22.49)"/><circle class="cls-2" cx="62.11" cy="54.47" r="15.38"/><circle class="cls-2" cx="108.26" cy="54.47" r="15.38"/><circle class="cls-2" cx="154.41" cy="54.47" r="15.38"/><path class="cls-3" d="M438,366.4A113.85,113.85,0,1,0,551.83,480.28v0A113.85,113.85,0,0,0,438,366.4Z" transform="translate(-13.03 -22.49)"/><path class="cls-4" d="M498.84,418.23a4.94,4.94,0,0,0-6.1,1.26l-11.32,11.59A67.26,67.26,0,0,0,460.14,417a63.9,63.9,0,0,0-24.77-5,63.22,63.22,0,0,0-25.95,5.48,67.46,67.46,0,0,0-21.33,14.72,69.81,69.81,0,0,0-14.28,22,70.11,70.11,0,0,0,0,53.53,69.7,69.7,0,0,0,14.28,22,67.32,67.32,0,0,0,21.33,14.73A63.38,63.38,0,0,0,435.37,550a64.73,64.73,0,0,0,28.47-6.51,65.7,65.7,0,0,0,23-18.37,3,3,0,0,0,.66-2,2.54,2.54,0,0,0-.83-1.84l-11.93-12.4a3.26,3.26,0,0,0-2.17-.8,2.7,2.7,0,0,0-2,1.07A44,44,0,0,1,455,522.34,42.83,42.83,0,0,1,435.37,527a42.16,42.16,0,0,1-17.28-3.64,44.7,44.7,0,0,1-14.24-9.83,46.62,46.62,0,0,1-9.53-14.69,47,47,0,0,1,9.53-50.34,44.84,44.84,0,0,1,14.24-9.84,43.38,43.38,0,0,1,47.67,8.67l-12,12.39a5.76,5.76,0,0,0,3.92,9.79h39a5.3,5.3,0,0,0,3.92-1.7,5.64,5.64,0,0,0,1.65-4.05V423.53A5.38,5.38,0,0,0,498.84,418.23Z" transform="translate(-13.03 -22.49)"/><path class="cls-2" d="M122.66,448.27H96.82l-4.51,14.61H72.17l28.68-78.21h17.72l28.9,78.21H127.22Zm-21.33-14.56h16.81l-8.43-27.12Z" transform="translate(-13.03 -22.49)"/><path class="cls-2" d="M172,436.34v26.54H153.16V384.67h31.21A36.37,36.37,0,0,1,200.24,388a24.83,24.83,0,0,1,10.69,9.4,25.69,25.69,0,0,1,3.79,13.83q0,11.43-8.19,18.29t-22.48,6.84Zm0-14.55h12.35c3.65,0,6.44-.91,8.35-2.74s2.88-4.4,2.88-7.73a12.59,12.59,0,0,0-3-8.76,10.49,10.49,0,0,0-8.06-3.33H172Z" transform="translate(-13.03 -22.49)"/><path class="cls-2" d="M244.85,462.88h-18.8V384.67h18.8Z" transform="translate(-13.03 -22.49)"/><path class="cls-5" d="M158,340.24a85,85,0,0,0,77-48.7h26.48a6.13,6.13,0,0,0,3.38-1l14.89-9.93,14.88,9.93a6.11,6.11,0,0,0,6.76,0l14.88-9.93,14.89,9.93a6.09,6.09,0,0,0,6.75,0l14.88-9.93,14.89,9.93a6.09,6.09,0,0,0,6.75,0l14.89-9.93,14.88,9.93a6.09,6.09,0,0,0,8.13-1.26l24.35-30.44a6.09,6.09,0,0,0,0-7.61l-24.35-30.44a6.08,6.08,0,0,0-4.75-2.28H235a85.22,85.22,0,1,0-77,121.75Zm248.31-62.95-13.62-9.08a6.09,6.09,0,0,0-6.75,0L371,278.14l-14.89-9.93a6.09,6.09,0,0,0-6.75,0l-14.89,9.93-14.88-9.93a6.11,6.11,0,0,0-6.76,0L298,278.14l-14.89-9.93a6.09,6.09,0,0,0-6.75,0L259.6,279.37H249.27V261.1h170ZM158,182a72.87,72.87,0,0,1,67.43,44.95,6.09,6.09,0,0,0,5.62,3.75h173.6l14.61,18.26h-176A6.08,6.08,0,0,0,237.1,255v24.35H231a6.08,6.08,0,0,0-5.62,3.74A73,73,0,1,1,158,182Z" transform="translate(-13.03 -22.49)"/><path class="cls-5" d="M140.6,280.3A25.29,25.29,0,1,0,115.31,255,25.28,25.28,0,0,0,140.6,280.3Zm0-37.93A12.65,12.65,0,1,1,128,255,12.64,12.64,0,0,1,140.6,242.37Z" transform="translate(-13.03 -22.49)"/></svg>