<svg xmlns="http://www.w3.org/2000/svg" viewBox="0 0 42.02 42.02"><defs><style>.cls-1{fill:#366fe0;stroke:#366fe0;stroke-miterlimit:10;stroke-width:0.02px;}</style></defs><title>Asset 1</title><g id="Layer_2" data-name="Layer 2"><g id="Layer_1-2" data-name="Layer 1"><path class="cls-1" d="M41.38,33.68a.62.62,0,0,0-.64.63v4.53a1.92,1.92,0,0,1-1.91,1.91H30.15a.63.63,0,1,0,0,1.26h8.68A3.19,3.19,0,0,0,42,38.84V34.31A.62.62,0,0,0,41.38,33.68Z"/><path class="cls-1" d="M38.83,0H3.19A3.19,3.19,0,0,0,0,3.2V41.37A.63.63,0,0,0,.64,42H25.06a.63.63,0,0,0,.63-.64V34.53L27.86,33l.28.11.51,3.17a.59.59,0,0,0,.51.53,12,12,0,0,0,1.8.15,11.68,11.68,0,0,0,1.79-.15.59.59,0,0,0,.52-.53l.51-3.17.27-.11,2.61,1.88a.6.6,0,0,0,.74,0,10.66,10.66,0,0,0,2.53-2.53.61.61,0,0,0,0-.73L38,29c0-.09.08-.19.12-.26l3.17-.51a.66.66,0,0,0,.53-.53,11.11,11.11,0,0,0,.15-1.8,11,11,0,0,0-.15-1.79.63.63,0,0,0-.53-.51l-3.17-.51L38,22.77l1.89-2.59a.63.63,0,0,0,0-.74,10.94,10.94,0,0,0-2.53-2.55.66.66,0,0,0-.74,0l-2.61,1.89-.27-.11-.51-3.18a.61.61,0,0,0-.52-.52,11.38,11.38,0,0,0-3.59,0,.61.61,0,0,0-.51.52l-.51,3.18-.28.11-2.17-1.57V12.68a.54.54,0,0,0,0-.15l0-.08a.77.77,0,0,0-.12-.17L19.8,6.56a.62.62,0,0,0-.19-.11l-.06,0-.16,0-.05,0H1.28V3.2A1.91,1.91,0,0,1,3.19,1.29H38.83A1.91,1.91,0,0,1,40.74,3.2V6.37H25.06a.66.66,0,0,0-.65.65.67.67,0,0,0,.65.64H40.74v9.76a.64.64,0,1,0,1.27,0V3.2A3.19,3.19,0,0,0,38.83,0ZM1.28,40.75V7.66H18.71v5.06a.63.63,0,0,0,.63.64h5.07V17A11.61,11.61,0,0,0,22,19.44a.65.65,0,0,0,0,.74l1.88,2.59-.12.28-3.16.51a.63.63,0,0,0-.53.51,10.82,10.82,0,0,0,0,3.59.64.64,0,0,0,.53.53l3.16.51c0,.07.08.17.12.26L22,31.57a.63.63,0,0,0,0,.73,10.91,10.91,0,0,0,2.43,2.46v6Zm26.8-20.67a8,8,0,0,1,.83-.33.63.63,0,0,0,.42-.52l.5-3.07a10.67,10.67,0,0,1,2.26,0l.49,3.07a.64.64,0,0,0,.43.52,8,8,0,0,1,.83.33.59.59,0,0,0,.66,0L37,18.2a9.69,9.69,0,0,1,1.6,1.6l-1.83,2.53a.67.67,0,0,0,0,.66,8.21,8.21,0,0,1,.35.83.61.61,0,0,0,.5.42l3.08.49a9.24,9.24,0,0,1,0,2.27l-3.08.49a.63.63,0,0,0-.5.43,6.39,6.39,0,0,1-.35.81.69.69,0,0,0,0,.67l1.83,2.53a9.69,9.69,0,0,1-1.6,1.6L34.5,31.7a.71.71,0,0,0-.66-.06A6.58,6.58,0,0,1,33,32a.67.67,0,0,0-.43.51l-.49,3.08a10.67,10.67,0,0,1-2.26,0l-.5-3.08a.66.66,0,0,0-.42-.51,5.15,5.15,0,0,1-.83-.34.66.66,0,0,0-.66.06L24.9,33.53a10.15,10.15,0,0,1-1.61-1.6l1.83-2.53a.64.64,0,0,0,.06-.67,4.5,4.5,0,0,1-.35-.81.65.65,0,0,0-.5-.43L21.25,27a8.71,8.71,0,0,1-.06-1.14,8.56,8.56,0,0,1,.06-1.13l3.08-.49a.62.62,0,0,0,.5-.42,5.42,5.42,0,0,1,.35-.83.63.63,0,0,0-.06-.66L23.29,19.8a10.15,10.15,0,0,1,1.61-1.6L27.42,20A.59.59,0,0,0,28.08,20.08Zm-4.56-8H20V8.55Z"/><path class="cls-1" d="M38.48,4.28a.63.63,0,0,0,0-.89.67.67,0,0,0-.91,0,.62.62,0,0,0-.19.45.65.65,0,0,0,.19.44.63.63,0,0,0,.9,0Z"/><path class="cls-1" d="M35.17,3.84a.64.64,0,0,0-.64-.64.63.63,0,0,0-.63.64.64.64,0,0,0,.63.64A.65.65,0,0,0,35.17,3.84Z"/><path class="cls-1" d="M31.49,4.28a.69.69,0,0,0,.18-.44.74.74,0,0,0-.18-.47.71.71,0,0,0-.91,0,.75.75,0,0,0-.19.47.7.7,0,0,0,.19.44.6.6,0,0,0,.45.19A.62.62,0,0,0,31.49,4.28Z"/><path class="cls-1" d="M31,29.68a3.82,3.82,0,1,0-3.81-3.82A3.81,3.81,0,0,0,31,29.68Zm0-6.37a2.55,2.55,0,1,1-2.55,2.55A2.56,2.56,0,0,1,31,23.31Z"/><path class="cls-1" d="M5,13.36h9.77a.64.64,0,0,0,.64-.64.65.65,0,0,0-.64-.64H5a.65.65,0,0,0-.64.64A.64.64,0,0,0,5,13.36Z"/><path class="cls-1" d="M19.21,17.48H5a.65.65,0,0,0-.64.64.64.64,0,0,0,.64.64H19.21a.63.63,0,0,0,.63-.64A.64.64,0,0,0,19.21,17.48Z"/><path class="cls-1" d="M5,24.16H16.66a.64.64,0,0,0,.63-.64.63.63,0,0,0-.63-.64H5a.64.64,0,0,0-.64.64A.65.65,0,0,0,5,24.16Z"/><path class="cls-1" d="M5,29.55H16.66a.64.64,0,0,0,.63-.65.63.63,0,0,0-.63-.62H5a.63.63,0,0,0-.64.62A.65.65,0,0,0,5,29.55Z"/><path class="cls-1" d="M19.21,33.68H5a.63.63,0,0,0-.64.63A.64.64,0,0,0,5,35H19.21a.63.63,0,0,0,.63-.64A.62.62,0,0,0,19.21,33.68Z"/></g></g></svg>