<?xml version="1.0" encoding="utf-8"?>
<!-- Generator: Adobe Illustrator 23.0.3, SVG Export Plug-In . SVG Version: 6.00 Build 0)  -->
<svg version="1.1" id="Capa_1" xmlns="http://www.w3.org/2000/svg" xmlns:xlink="http://www.w3.org/1999/xlink" x="0px" y="0px"
	 viewBox="0 0 512 512" style="enable-background:new 0 0 512 512;" xml:space="preserve">
<style type="text/css">
	.st0{fill:#316FEA;}
</style>
<g>
	<g>
		<path class="st0" d="M469.3,21.3H42.7C19.1,21.3,0,40.5,0,64v384c0,23.5,19.1,42.7,42.7,42.7h426.7c23.5,0,42.7-19.1,42.7-42.7V64
			C512,40.5,492.9,21.3,469.3,21.3z M490.7,448c0,11.8-9.6,21.3-21.3,21.3H42.7c-11.8,0-21.3-9.6-21.3-21.3V64
			c0-11.8,9.6-21.3,21.3-21.3h426.7c11.8,0,21.3,9.6,21.3,21.3V448z"/>
	</g>
</g>
<g>
	<g>
		<path class="st0" d="M74.7,64H64c-5.9,0-10.7,4.8-10.7,10.7S58.1,85.3,64,85.3h10.7c5.9,0,10.7-4.8,10.7-10.7
			C85.3,68.8,80.6,64,74.7,64z"/>
	</g>
</g>
<g>
	<g>
		<path class="st0" d="M128,64h-10.7c-5.9,0-10.7,4.8-10.7,10.7s4.8,10.7,10.7,10.7H128c5.9,0,10.7-4.8,10.7-10.7
			C138.7,68.8,133.9,64,128,64z"/>
	</g>
</g>
<g>
	<g>
		<path class="st0" d="M448,64h-10.7c-5.9,0-10.7,4.8-10.7,10.7s4.8,10.7,10.7,10.7H448c5.9,0,10.7-4.8,10.7-10.7S453.9,64,448,64z"
			/>
	</g>
</g>
<g>
	<g>
		<path class="st0" d="M458.7,106.7H53.3c-5.9,0-10.7,4.8-10.7,10.7S47.4,128,53.3,128h405.3c5.9,0,10.7-4.8,10.7-10.7
			C469.3,111.4,464.6,106.7,458.7,106.7z"/>
	</g>
</g>
<g>
	<g>
		<path class="st0" d="M352,224c-5.9,0-10.7,4.8-10.7,10.7v106.7c0,5.9,4.8,10.7,10.7,10.7s10.7-4.8,10.7-10.7V234.7
			C362.7,228.8,357.9,224,352,224z"/>
	</g>
</g>
<g>
	<g>
		<path class="st0" d="M277.3,224h-32c-5.9,0-10.7,4.8-10.7,10.7v106.7c0,5.9,4.8,10.7,10.7,10.7s10.7-4.8,10.7-10.7v-32h21.3
			c23.5,0,32-19.1,32-32V256C309.3,232.5,290.2,224,277.3,224z M288,277.2c-0.1,4.9-2.1,10.8-10.7,10.8H256v-42.7h21.2
			c4.9,0.1,10.8,2.1,10.8,10.7V277.2z"/>
	</g>
</g>
<g>
	<g>
		<path class="st0" d="M373.3,224h-42.7c-5.9,0-10.7,4.8-10.7,10.7c0,5.9,4.8,10.7,10.7,10.7h42.7c5.9,0,10.7-4.8,10.7-10.7
			S379.2,224,373.3,224z"/>
	</g>
</g>
<g>
	<g>
		<path class="st0" d="M373.3,330.7h-42.7c-5.9,0-10.7,4.8-10.7,10.7s4.8,10.7,10.7,10.7h42.7c5.9,0,10.7-4.8,10.7-10.7
			S379.2,330.7,373.3,330.7z"/>
	</g>
</g>
<g>
	<g>
		<path class="st0" d="M170.7,224c-23.5,0-42.7,19.1-42.7,42.7v74.7c0,5.9,4.8,10.7,10.7,10.7s10.7-4.8,10.7-10.7v-74.7
			c0-11.8,9.6-21.3,21.3-21.3c11.8,0,21.3,9.6,21.3,21.3v74.7c0,5.9,4.8,10.7,10.7,10.7s10.7-4.8,10.7-10.7v-74.7
			C213.3,243.1,194.2,224,170.7,224z"/>
	</g>
</g>
<g>
	<g>
		<path class="st0" d="M202.7,288h-64c-5.9,0-10.7,4.8-10.7,10.7s4.8,10.7,10.7,10.7h64c5.9,0,10.7-4.8,10.7-10.7
			C213.3,292.8,208.6,288,202.7,288z"/>
	</g>
</g>
</svg>
