<svg id="Isolation_Mode" data-name="Isolation Mode" xmlns="http://www.w3.org/2000/svg" viewBox="0 0 2.17 1.63"><defs><style>.cls-1{fill:#316fea;}</style></defs><title>API</title><path class="cls-1" d="M38.29,48.14a0,0,0,0,0,0,0H37.12s0,0,0,0,0,0,0,0h1.14A0,0,0,0,0,38.29,48.14Z" transform="translate(-36.51 -47.38)"/><path class="cls-1" d="M37.85,47.78h.53a0,0,0,1,0,0-.06h-.53a0,0,0,1,0,0,.06Z" transform="translate(-36.51 -47.38)"/><path class="cls-1" d="M38.65,49h-.06a.38.38,0,0,1,0-.37h.07a0,0,0,0,0,0-.06h-.23a.25.25,0,0,0,.08-.18v-.2a.23.23,0,0,0-.08-.18h.2a0,0,0,0,0,0,0s0,0,0,0h0a.63.63,0,0,1,0-.45h0a0,0,0,0,0,0-.06H36.71a.2.2,0,0,0-.2.21v.16a.2.2,0,0,0,.2.21h.15a.73.73,0,0,1,0,.56h0a.23.23,0,0,0-.23.23v0a.23.23,0,0,0,.23.23h1.82a0,0,0,0,0,0-.06Zm-.16-1.4h-.84a0,0,0,0,0,0,0,0,0,0,0,0,0,0h.84a.5.5,0,0,0,0,.27h-.88a.15.15,0,0,1-.15-.14v-.16a.15.15,0,0,1,.15-.15h.87Zm-1.09-.11h.09a.25.25,0,0,0-.05.15v.16a.2.2,0,0,0,.05.14h-.13a.14.14,0,0,1-.14-.14v-.16a.15.15,0,0,1,.14-.15Zm-.83.31v-.16a.15.15,0,0,1,.14-.15h.5a.2.2,0,0,0-.06.15v.16a.17.17,0,0,0,.06.14h-.5A.14.14,0,0,1,36.57,47.75Zm.4.62h1a0,0,0,0,0,0,0,0,0,0,0,0,0,0H37a.76.76,0,0,0,0-.34h1.33a.18.18,0,0,1,.18.18v.2a.18.18,0,0,1-.18.18H36.93A.83.83,0,0,0,37,48.37Zm-.14.58a.17.17,0,0,1-.16-.17v0a.17.17,0,0,1,.16-.17h1.68a.48.48,0,0,0,0,.15h-1.6a0,0,0,0,0,0,0,0,0,0,0,0,0,0h1.6a1.13,1.13,0,0,0,0,.15Z" transform="translate(-36.51 -47.38)"/></svg>