<svg id="Capa_1" data-name="Capa 1" xmlns="http://www.w3.org/2000/svg" viewBox="0 0 438.53 438.53"><defs><style>.cls-1{fill:#316fea;}.cls-2{fill:#fff;}</style></defs><title>approve</title><path class="cls-1" d="M409,109.07a218.36,218.36,0,0,0-79.8-79.8Q278.82-.13,219.14-.13T109.08,29.27a218.29,218.29,0,0,0-79.8,79.8Q-.13,159.47-.13,219.13T29.28,329.2A218.26,218.26,0,0,0,109.08,409q50.38,29.42,110.06,29.41T329.2,409A218.26,218.26,0,0,0,409,329.2q29.4-50.4,29.4-110.07T409,109.07Z" transform="translate(0.13 0.13)"/><path class="cls-2" d="M307.26,130.8,178.38,259.68l-47.16-47.16a22.25,22.25,0,0,0-31.94,31l.48.48,62.89,62.89a22.23,22.23,0,0,0,31.44,0l0,0L338.72,162.26a22.25,22.25,0,0,0-31.46-31.46Z" transform="translate(0.13 0.13)"/></svg>