<svg id="Capa_1" data-name="Capa 1" xmlns="http://www.w3.org/2000/svg" viewBox="0 0 499 499"><defs><style>.cls-1{fill:#2ea52b;stroke:#2ea52b;stroke-miterlimit:10;stroke-width:7px;}</style></defs><title>approve</title><path class="cls-1" d="M431.75,80.25C333.27-15.39,175.9-13.09,80.25,85.39c-93.67,96.45-93.67,249.9,0,346.36,98.48,95.64,255.85,93.34,351.5-5.14C525.42,330.16,525.42,176.71,431.75,80.25ZM256,475.44C135,475.44,36.56,377,36.56,256S135,36.56,256,36.56,475.44,135,475.44,256,377,475.44,256,475.44Z" transform="translate(-6.5 -6.5)"/><path class="cls-1" d="M386.32,168.47a16,16,0,0,0-22.6,0L222.57,309.62l-74.29-74.3a16,16,0,1,0-22.61,22.61l85.58,85.6a16,16,0,0,0,22.6,0L386.32,191.07A16,16,0,0,0,386.32,168.47Z" transform="translate(-6.5 -6.5)"/></svg>