<svg id="Capa_1" data-name="Capa 1" xmlns="http://www.w3.org/2000/svg" viewBox="0 0 383.63 447.24"><defs><style>.cls-1{fill:#316fea;}</style></defs><path class="cls-1" d="M406.1,232.6a32.25,32.25,0,0,0-3.11-2.74,33.12,33.12,0,0,0-42.4,4.64L272,322.82a63.39,63.39,0,0,0-11.68,16l-5.12,9.76V34.18A33.13,33.13,0,0,0,229.07.42a32,32,0,0,0-36.71,26.46,31.18,31.18,0,0,0-.41,5.54V347.94l-3.2-6.88A64.07,64.07,0,0,0,176,323L87.31,234.5a33.11,33.11,0,0,0-42.4-4.64A32,32,0,0,0,38,274.58a33.26,33.26,0,0,0,2.76,3.28l160,160a32,32,0,0,0,45.25,0l0,0,160-160A32,32,0,0,0,406.1,232.6Z" transform="translate(-31.81 0)"/></svg>