<svg id="Capa_1" data-name="Capa 1" xmlns="http://www.w3.org/2000/svg" viewBox="0 0 383.63 447.24"><defs><style>.cls-1{fill:#316fea;}</style></defs><path class="cls-1" d="M41.14,214.64a32.63,32.63,0,0,0,3.12,2.75,33.13,33.13,0,0,0,42.4-4.64l88.64-88.32a64.25,64.25,0,0,0,11.68-16l5.12-9.76v314.4a33.13,33.13,0,0,0,26.08,33.76,32,32,0,0,0,37.12-32V99.31l3.2,6.88a64,64,0,0,0,12.8,18.08l88.64,88.48a33.12,33.12,0,0,0,42.4,4.64,32,32,0,0,0,6.91-44.73,30.7,30.7,0,0,0-2.75-3.27l-160-160a32,32,0,0,0-45.26,0l0,0-160,160A32,32,0,0,0,41.14,214.64Z" transform="translate(-31.81 0)"/></svg>