<svg width="243" height="206" viewBox="0 0 243 206" fill="none" xmlns="http://www.w3.org/2000/svg">
<g clip-path="url(#clip0)">
<path d="M199.556 165.697C197.959 168.001 196.63 169.705 195.661 170.692C176.947 189.844 123.232 217.724 80.0799 200.729C60.8296 193.142 50.8813 180.204 43.5238 165.697C34.3924 147.685 29.2354 127.264 15.197 111.703C-10.1491 83.6145 -3.50473 16.86 33.0026 2.90481C69.5221 -11.0504 100.001 29.9388 134.704 27.3463C169.407 24.7539 202.903 3.21125 233.991 29.0011C262.348 52.5294 216.197 141.715 199.556 165.697Z" fill="url(#paint0_linear)"/>
<path d="M120.885 161.867C120.086 163.834 117.946 165.458 115.953 165.673C115.807 165.691 115.661 165.697 115.52 165.697H91.7165C88.3821 165.697 86.7851 162.976 88.1444 159.624L102.274 124.837H109.894L97.1966 156.094C96.7638 157.166 97.2697 158.036 98.3365 158.036H118.629C120.732 158.036 121.744 159.752 120.885 161.867Z" fill="url(#paint1_linear)"/>
<path d="M145.651 161.867C144.792 163.981 142.39 165.697 140.287 165.697H116.483C116.307 165.697 116.124 165.691 115.959 165.673C117.952 165.464 120.092 163.834 120.891 161.867C121.75 159.752 120.738 158.036 118.635 158.036H98.3425C97.2757 158.036 96.7637 157.166 97.2026 156.094L108.346 128.667H133.112L121.97 156.094C121.537 157.166 122.043 158.036 123.109 158.036H143.402C145.499 158.036 146.511 159.752 145.651 161.867Z" fill="url(#paint2_linear)"/>
<path d="M187.876 142.077H56.0503C53.8803 142.077 51.7894 140.3 51.3932 138.118L35.081 48.0373C34.6848 45.8555 36.1295 44.0781 38.2996 44.0781H170.126C172.04 44.0781 173.887 45.451 174.57 47.2712C174.661 47.5225 174.734 47.7738 174.777 48.0373L174.838 48.3805L177.221 61.539L177.623 63.7208L177.812 64.7811L178.209 66.9629L178.398 68.0232L178.8 70.205L178.989 71.2653L179.385 73.4472L179.574 74.5074L180.696 80.7036L188.962 126.32L189.845 131.217L191.095 138.112C191.491 140.3 190.047 142.077 187.876 142.077Z" fill="url(#paint3_linear)"/>
<path d="M196.13 142.077H64.3101C62.14 142.077 60.0492 140.3 59.653 138.118L43.3347 48.0373C42.9385 45.8555 44.3832 44.0781 46.5533 44.0781H178.379C180.549 44.0781 182.64 45.8555 183.037 48.0373L183.098 48.3805L184.195 54.4541L184.378 55.4776L185.475 61.5451L185.877 63.7269L186.066 64.7872L186.462 66.9691L186.651 68.0293L187.054 70.2112L187.243 71.2714L187.639 73.4533L187.828 74.5136L188.949 80.7097L197.349 127.068L199.349 138.118C199.745 140.3 198.3 142.077 196.13 142.077Z" fill="url(#paint4_linear)"/>
<path d="M61.4451 130.488L46.5045 48.0067C46.4313 47.6022 46.6995 47.2712 47.1018 47.2712H178.989C179.391 47.2712 179.781 47.6022 179.855 48.0067L194.795 130.488C194.868 130.892 194.6 131.223 194.198 131.223H62.3107C61.9084 131.223 61.5182 130.892 61.4451 130.488Z" fill="white"/>
<path opacity="0.25" d="M188.949 80.7097H166.407C164.438 80.7097 162.555 79.1101 162.189 77.1305L156.788 47.2712L156.416 45.2119C156.349 44.8135 156.343 44.4397 156.398 44.0842H178.379C180.549 44.0842 182.64 45.8616 183.036 48.0434L183.097 48.3866L184.195 54.4602L184.377 55.4837L185.475 61.5512L185.877 63.733L186.066 64.7933L186.462 66.9752L186.651 68.0354L187.054 70.2173L187.242 71.2775L187.639 73.4594L187.828 74.5197L188.949 80.7097Z" fill="black"/>
<path opacity="0.25" d="M196.13 142.077H169.486L167.517 131.223L167.09 128.882C166.834 127.472 167.76 126.326 169.169 126.326H195.423C196.13 126.326 196.807 126.614 197.349 127.068L199.348 138.118C199.745 140.3 198.3 142.077 196.13 142.077Z" fill="black"/>
<path d="M128.108 128.667H120.488L119.793 124.837H127.413L128.108 128.667Z" fill="url(#paint5_linear)"/>
<path d="M146.041 11.8347H67.2054C66.3581 11.8347 65.7912 12.5273 65.9497 13.3792L87.2969 131.217H169.211L147.858 13.3853C147.706 12.5273 146.895 11.8347 146.041 11.8347Z" fill="url(#paint6_linear)"/>
<path d="M146.041 11.8347H67.2054C66.3581 11.8347 65.7912 12.5273 65.9497 13.3792L66.9433 18.8583H148.858L147.864 13.3792C147.706 12.5273 146.895 11.8347 146.041 11.8347Z" fill="url(#paint7_linear)"/>
<path d="M135.624 15.0278C135.685 15.3832 135.453 15.6652 135.106 15.6652C134.758 15.6652 134.417 15.3771 134.356 15.0278C134.295 14.6723 134.527 14.3904 134.874 14.3904C135.222 14.3904 135.557 14.6784 135.624 15.0278Z" fill="white"/>
<path d="M139.641 15.0278C139.702 15.3832 139.47 15.6652 139.123 15.6652C138.769 15.6652 138.434 15.3771 138.373 15.0278C138.312 14.6723 138.544 14.3904 138.891 14.3904C139.239 14.3904 139.574 14.6784 139.641 15.0278Z" fill="white"/>
<path d="M143.658 15.0278C143.719 15.3832 143.487 15.6652 143.14 15.6652C142.792 15.6652 142.451 15.3771 142.39 15.0278C142.329 14.6723 142.561 14.3904 142.908 14.3904C143.256 14.3904 143.591 14.6784 143.658 15.0278Z" fill="white"/>
<path d="M144.92 86.9979H95.5566C93.8437 86.9979 92.2039 85.6005 91.887 83.8784L87.0835 57.347C86.7727 55.6248 87.9065 54.2274 89.6194 54.2274H138.983C140.695 54.2274 142.335 55.6248 142.652 57.347L147.456 83.8784C147.773 85.6005 146.633 86.9979 144.92 86.9979Z" fill="white"/>
<path d="M109.272 51.6287H86.0474L85.6511 49.4469H108.876L109.272 51.6287Z" fill="url(#paint8_linear)"/>
<path d="M149.193 93.4453H93.6181L93.356 91.9867H148.931L149.193 93.4453Z" fill="#9B9B9B"/>
<path d="M150.059 98.2196H94.4838L94.2217 96.7671H149.796L150.059 98.2196Z" fill="white"/>
<path d="M150.924 103H95.3556L95.0874 101.548H150.662L150.924 103Z" fill="white"/>
<path d="M151.79 107.781H96.2211L95.9529 106.322H151.528L151.79 107.781Z" fill="white"/>
<path d="M133.521 112.555H97.0866L96.8184 111.102H133.259L133.521 112.555Z" fill="#9B9B9B"/>
<path d="M153.521 117.335H97.9523L97.6841 115.883H153.259L153.521 117.335Z" fill="white"/>
<path d="M154.386 122.116H98.8178L98.5496 120.657H154.124L154.386 122.116Z" fill="white"/>
<path d="M142.567 126.896H99.6835L99.4153 125.438H142.305L142.567 126.896Z" fill="white"/>
<path d="M108.406 46.8483H85.1816L84.7854 44.6665H108.01L108.406 46.8483Z" fill="url(#paint9_linear)"/>
<path d="M122.817 70.6095C123.372 73.6862 121.342 76.1867 118.282 76.1867C115.222 76.1867 112.283 73.6923 111.729 70.6095C111.168 67.5329 113.204 65.0323 116.264 65.0323" stroke="#9B9B9B" stroke-width="1.0417" stroke-miterlimit="10"/>
<path d="M116.264 65.0385C119.324 65.0385 122.262 67.5329 122.817 70.6156" stroke="#E8E8E8" stroke-width="1.0417" stroke-miterlimit="10"/>
<path d="M211.845 148.843H185.59C184.188 148.843 182.841 147.697 182.585 146.287L177.806 119.891C177.55 118.481 178.483 117.335 179.885 117.335H206.139C207.541 117.335 208.888 118.481 209.144 119.891L213.923 146.287C214.173 147.697 213.247 148.843 211.845 148.843Z" fill="url(#paint10_linear)"/>
<path d="M201.506 132.063H200.641C200.616 132.063 200.598 132.075 200.58 132.075C200.568 132.038 200.555 132.001 200.543 131.971C200.324 131.407 200.007 130.88 199.617 130.408C199.592 130.377 199.568 130.353 199.544 130.322C199.556 130.31 199.58 130.304 199.592 130.285L200.092 129.666C200.281 129.44 200.214 129.066 199.94 128.833L199.214 128.214C198.946 127.987 198.574 127.987 198.385 128.214L197.886 128.833C197.873 128.851 197.867 128.87 197.861 128.888C197.831 128.87 197.794 128.845 197.764 128.827C197.239 128.52 196.672 128.3 196.093 128.183C196.057 128.177 196.02 128.171 195.984 128.165C195.984 128.14 195.99 128.122 195.984 128.097L195.825 127.227C195.764 126.902 195.459 126.639 195.136 126.639H194.271C193.948 126.639 193.734 126.902 193.795 127.227L193.954 128.097C193.96 128.122 193.972 128.14 193.978 128.165C193.948 128.171 193.911 128.177 193.881 128.183C193.338 128.3 192.85 128.526 192.436 128.827C192.412 128.845 192.387 128.87 192.363 128.888C192.345 128.87 192.338 128.851 192.32 128.833L191.595 128.214C191.327 127.987 190.955 127.987 190.766 128.214L190.266 128.833C190.077 129.06 190.144 129.433 190.418 129.666L191.144 130.285C191.162 130.304 191.186 130.31 191.205 130.322C191.192 130.353 191.174 130.377 191.162 130.408C190.942 130.88 190.821 131.407 190.802 131.971C190.802 132.007 190.802 132.044 190.802 132.075C190.778 132.075 190.754 132.063 190.735 132.063H189.87C189.547 132.063 189.333 132.326 189.394 132.651L189.553 133.521C189.614 133.846 189.918 134.11 190.241 134.11H191.107C191.131 134.11 191.15 134.097 191.174 134.097C191.186 134.134 191.199 134.165 191.211 134.202C191.43 134.772 191.747 135.299 192.137 135.771C192.162 135.801 192.186 135.826 192.21 135.856C192.198 135.869 192.174 135.875 192.162 135.893L191.662 136.512C191.473 136.739 191.54 137.113 191.814 137.346L192.54 137.965C192.808 138.191 193.18 138.191 193.369 137.965L193.868 137.346C193.881 137.327 193.887 137.309 193.893 137.29C193.923 137.309 193.954 137.333 193.984 137.346C194.508 137.658 195.075 137.879 195.667 138.001C195.703 138.008 195.74 138.014 195.77 138.02C195.77 138.044 195.764 138.063 195.77 138.081L195.929 138.951C195.99 139.276 196.295 139.54 196.618 139.54H197.483C197.806 139.54 198.02 139.276 197.959 138.951L197.8 138.081C197.794 138.057 197.782 138.038 197.776 138.02C197.806 138.014 197.843 138.008 197.879 138.001C198.422 137.885 198.91 137.658 199.324 137.358C199.348 137.339 199.373 137.315 199.397 137.297C199.416 137.315 199.422 137.333 199.44 137.346L200.165 137.965C200.434 138.191 200.805 138.191 200.994 137.965L201.494 137.346C201.683 137.119 201.616 136.745 201.342 136.512L200.616 135.893C200.598 135.875 200.574 135.869 200.555 135.856C200.568 135.826 200.586 135.801 200.598 135.771C200.818 135.299 200.939 134.772 200.958 134.202C200.958 134.171 200.958 134.134 200.958 134.097C200.982 134.097 201 134.11 201.025 134.11H201.89C202.213 134.11 202.427 133.846 202.366 133.521L202.207 132.651C202.134 132.326 201.829 132.063 201.506 132.063ZM196.276 135.397C195.014 135.397 193.795 134.367 193.564 133.092C193.332 131.811 194.173 130.782 195.441 130.782C196.715 130.782 197.928 131.817 198.16 133.092C198.391 134.367 197.55 135.397 196.276 135.397Z" fill="white"/>
<path d="M215.106 70.6095H172.448C170.479 70.6095 168.59 69.0038 168.23 67.0242L162.445 35.1056C162.085 33.126 163.39 31.5203 165.365 31.5203H208.023C209.992 31.5203 211.881 33.126 212.241 35.1056L218.026 67.0242C218.38 69.0038 217.075 70.6095 215.106 70.6095Z" fill="url(#paint11_linear)"/>
<path d="M200.019 51.4387H180.062C179.574 51.4387 179.105 51.0403 179.013 50.55L176.953 39.175C176.862 38.6847 177.191 38.2864 177.678 38.2864H197.636C198.123 38.2864 198.593 38.6847 198.684 39.175L200.745 50.55C200.83 51.0403 200.507 51.4387 200.019 51.4387Z" fill="url(#paint12_linear)"/>
<path d="M191.199 44.8626L185.999 42.1292L186.987 47.5899L191.199 44.8626Z" fill="white"/>
<path d="M192.979 54.6809H179.763L179.568 53.6206H192.784L192.979 54.6809Z" fill="#9B9B9B"/>
<path d="M202.073 57.9229H180.348L180.153 56.8627H201.884L202.073 57.9229Z" fill="white"/>
<path d="M202.665 61.1651H180.933L180.744 60.1049H202.47L202.665 61.1651Z" fill="white"/>
<path d="M203.25 64.4072H181.525L181.33 63.3469H203.061L203.25 64.4072Z" fill="white"/>
<path d="M67.6931 96.5098C72.9537 91.2206 72.7769 82.4994 67.1627 77.4432C62.1764 72.9508 54.4044 73.0489 49.5278 77.6577C44.5415 82.3707 44.0965 90.05 48.1868 95.3024L34.9895 108.571C34.3678 109.196 34.3678 110.208 34.9895 110.827C35.6113 111.452 36.6171 111.452 37.2327 110.827L50.43 97.5578C55.5443 101.591 62.9811 101.247 67.6931 96.5098ZM52.4416 95.1124C47.2968 91.1103 47.2968 83.3513 52.4416 79.3492C55.9466 76.6219 60.9695 76.6219 64.4745 79.3492C69.6193 83.3574 69.6193 91.1042 64.4745 95.1124C60.9756 97.8397 55.9527 97.8397 52.4416 95.1124Z" fill="url(#paint13_linear)"/>
<path d="M192.979 70.6096L195.453 80.4034C197.465 88.3585 191.485 96.093 183.317 96.093H162.847" stroke="url(#paint14_linear)" stroke-width="1.0417" stroke-miterlimit="10"/>
<path d="M164.694 106.322H178.02C182.384 106.322 186.176 109.337 187.181 113.609L188.059 117.335" stroke="url(#paint15_linear)" stroke-width="1.0417" stroke-miterlimit="10"/>
<path d="M199.556 165.697C197.959 168.002 196.63 169.705 195.661 170.692C190.546 175.92 182.835 181.804 173.429 187.24C148.406 201.728 111.454 213.085 80.0795 200.729C71.2285 197.242 64.3525 192.621 58.781 187.24C52.2281 180.921 47.4979 173.542 43.5234 165.697H199.556Z" fill="#275EB7"/>
<path opacity="0.25" d="M173.429 187.24C148.406 201.728 111.454 213.085 80.0795 200.729C71.2285 197.242 64.3525 192.621 58.781 187.24H173.429Z" fill="black"/>
</g>
<defs>
<linearGradient id="paint0_linear" x1="109.972" y1="-190.066" x2="125.072" y2="133.516" gradientUnits="userSpaceOnUse">
<stop stop-color="#316FEA"/>
<stop offset="1" stop-color="#C0D8FF"/>
</linearGradient>
<linearGradient id="paint1_linear" x1="104.96" y1="176.087" x2="102.215" y2="100.539" gradientUnits="userSpaceOnUse">
<stop stop-color="#5B94EF"/>
<stop offset="1" stop-color="#316FEA"/>
</linearGradient>
<linearGradient id="paint2_linear" x1="128.37" y1="184.523" x2="113.052" y2="127.219" gradientUnits="userSpaceOnUse">
<stop stop-color="#5B94EF"/>
<stop offset="1" stop-color="#316FEA"/>
</linearGradient>
<linearGradient id="paint3_linear" x1="143.852" y1="161.274" x2="45.4818" y2="-54.4506" gradientUnits="userSpaceOnUse">
<stop stop-color="#5B94EF"/>
<stop offset="1" stop-color="#316FEA"/>
</linearGradient>
<linearGradient id="paint4_linear" x1="109.787" y1="78.5937" x2="208.429" y2="200.908" gradientUnits="userSpaceOnUse">
<stop stop-color="#5B94EF"/>
<stop offset="1" stop-color="#316FEA"/>
</linearGradient>
<linearGradient id="paint5_linear" x1="126.018" y1="123.776" x2="121.622" y2="129.537" gradientUnits="userSpaceOnUse">
<stop stop-color="#5B94EF"/>
<stop offset="1" stop-color="#316FEA"/>
</linearGradient>
<linearGradient id="paint6_linear" x1="136.05" y1="167.071" x2="100.373" y2="-13.9928" gradientUnits="userSpaceOnUse">
<stop stop-color="#E8E8E8"/>
<stop offset="1" stop-color="white"/>
</linearGradient>
<linearGradient id="paint7_linear" x1="178.916" y1="115.579" x2="113.895" y2="-41.7098" gradientUnits="userSpaceOnUse">
<stop stop-color="#76DCFF"/>
<stop offset="1" stop-color="#316FEA"/>
</linearGradient>
<linearGradient id="paint8_linear" x1="109.433" y1="5.52508" x2="64.0186" y2="114.239" gradientUnits="userSpaceOnUse">
<stop stop-color="#5B94EF"/>
<stop offset="1" stop-color="#316FEA"/>
</linearGradient>
<linearGradient id="paint9_linear" x1="106.855" y1="2.92713" x2="68.2308" y2="100.759" gradientUnits="userSpaceOnUse">
<stop stop-color="#76DCFF"/>
<stop offset="1" stop-color="#316FEA"/>
</linearGradient>
<linearGradient id="paint10_linear" x1="285.825" y1="208.784" x2="133.1" y2="81.2443" gradientUnits="userSpaceOnUse">
<stop stop-color="#76DCFF"/>
<stop offset="1" stop-color="#316FEA"/>
</linearGradient>
<linearGradient id="paint11_linear" x1="197.23" y1="78.2653" x2="169.794" y2="-27.2502" gradientUnits="userSpaceOnUse">
<stop stop-color="#E8E8E8"/>
<stop offset="1" stop-color="white"/>
</linearGradient>
<linearGradient id="paint12_linear" x1="241.006" y1="91.4639" x2="156.198" y2="11.3494" gradientUnits="userSpaceOnUse">
<stop stop-color="#5B94EF"/>
<stop offset="1" stop-color="#316FEA"/>
</linearGradient>
<linearGradient id="paint13_linear" x1="38.7024" y1="140.584" x2="70.1384" y2="51.2288" gradientUnits="userSpaceOnUse">
<stop stop-color="#76DCFF"/>
<stop offset="1" stop-color="#316FEA"/>
</linearGradient>
<linearGradient id="paint14_linear" x1="184.64" y1="97.2029" x2="175.765" y2="78.8742" gradientUnits="userSpaceOnUse">
<stop stop-color="#76DCFF"/>
<stop offset="1" stop-color="#316FEA"/>
</linearGradient>
<linearGradient id="paint15_linear" x1="181.298" y1="120.688" x2="172.386" y2="102.281" gradientUnits="userSpaceOnUse">
<stop stop-color="#76DCFF"/>
<stop offset="1" stop-color="#316FEA"/>
</linearGradient>
<clipPath id="clip0">
<rect width="243" height="206" fill="white"/>
</clipPath>
</defs>
</svg>
