<svg width="18" height="18" viewBox="0 0 18 18" fill="none" xmlns="http://www.w3.org/2000/svg">
<path d="M17.4852 2.46092C17.2205 2.19585 16.7909 2.19514 16.5258 2.45987L8.3875 10.5767L5.45125 7.38772C5.19742 7.11245 4.76852 7.09452 4.49254 7.34799C4.21691 7.60182 4.19934 8.03108 4.45281 8.3067L7.86754 12.015C7.9927 12.151 8.16777 12.2298 8.35199 12.2337C8.35691 12.234 8.36184 12.234 8.36641 12.234C8.5457 12.234 8.71832 12.1626 8.84523 12.0361L17.4838 3.42034C17.7493 3.15561 17.75 2.726 17.4852 2.46092Z" fill="#316FEA"/>
<path d="M17.3215 8.32148C16.9467 8.32148 16.643 8.62523 16.643 9C16.643 13.2145 13.2145 16.6433 8.99965 16.6433C4.78512 16.6433 1.35633 13.2149 1.35633 9C1.35633 4.78547 4.78512 1.35668 8.99965 1.35668C9.37441 1.35668 9.67816 1.05293 9.67816 0.678164C9.67852 0.30375 9.37477 0 9 0C4.03734 0 0 4.03734 0 9C0 13.9623 4.03734 18 9 18C13.9623 18 18 13.9623 18 9C18 8.62523 17.6963 8.32148 17.3215 8.32148Z" fill="#316FEA"/>
</svg>
