<svg width="24" height="21" viewBox="0 0 24 21" fill="none" xmlns="http://www.w3.org/2000/svg">
<path d="M15.1994 11.1999C15.3177 11.1999 15.4345 11.1736 15.5415 11.1229C15.6484 11.0722 15.7428 10.9985 15.8178 10.9069C15.8927 10.8154 15.9465 10.7084 15.9751 10.5935C16.0038 10.4787 16.0066 10.359 15.9833 10.243L15.2674 6.66304L17.3648 4.56558C17.4766 4.4537 17.5528 4.31119 17.5836 4.15606C17.6144 4.00093 17.5986 3.84013 17.5381 3.694C17.4775 3.54787 17.3751 3.42296 17.2436 3.33505C17.1121 3.24714 16.9575 3.20018 16.7993 3.20011H14.0944C12.4979 -0.00282434 12.4769 -0.00282441 11.9944 0.000175523C11.8396 0.00108883 11.6883 0.0469279 11.559 0.13213C11.4297 0.217332 11.3279 0.338235 11.2659 0.480165C11.1659 0.689661 10.316 2.38013 9.90496 3.20011H7.19952C7.04135 3.20018 6.88675 3.24714 6.75526 3.33505C6.62377 3.42296 6.5213 3.54787 6.46078 3.694C6.40026 3.84013 6.38442 4.00093 6.41525 4.15606C6.44609 4.31119 6.52222 4.4537 6.63403 4.56558L8.73149 6.66304L8.0155 10.243C7.9838 10.4018 8.00104 10.5664 8.06493 10.7152C8.12882 10.864 8.23635 10.9899 8.37332 11.0763C8.51029 11.1626 8.67025 11.2054 8.83204 11.1989C8.99384 11.1924 9.14986 11.137 9.27948 11.0399L11.9994 8.99999L14.7194 11.0399C14.8577 11.144 15.0262 11.2002 15.1994 11.1999Z" fill="#316FEA"/>
<path d="M10.3994 12.7998H7.69447C6.098 9.59683 6.0765 9.59183 5.59451 9.59983C5.43966 9.60075 5.2884 9.64658 5.15908 9.73179C5.02977 9.81699 4.92797 9.93789 4.86603 10.0798C4.76603 10.2893 3.91605 11.9798 3.50506 12.7998H0.799613C0.641445 12.7998 0.486849 12.8468 0.35536 12.9347C0.223872 13.0226 0.121393 13.1475 0.0608747 13.2937C0.000356416 13.4398 -0.0154853 13.6006 0.0153515 13.7557C0.0461884 13.9108 0.12232 14.0534 0.234125 14.1652L2.33408 16.2627L1.6181 19.8426C1.58694 20.001 1.60442 20.1651 1.66825 20.3134C1.73209 20.4616 1.83928 20.5871 1.97575 20.6734C2.11222 20.7596 2.27158 20.8025 2.43289 20.7965C2.5942 20.7904 2.74991 20.7358 2.87957 20.6396L5.59951 18.5996L8.31946 20.6396C8.44907 20.7367 8.60509 20.7921 8.76689 20.7986C8.92868 20.8051 9.08864 20.7623 9.22561 20.6759C9.36258 20.5896 9.47011 20.4637 9.534 20.3149C9.59789 20.1661 9.61513 20.0014 9.58343 19.8426L8.86744 16.2627L10.9649 14.1652C11.0767 14.0534 11.1528 13.9108 11.1837 13.7557C11.2145 13.6006 11.1987 13.4398 11.1382 13.2937C11.0776 13.1475 10.9752 13.0226 10.8437 12.9347C10.7122 12.8468 10.5576 12.7998 10.3994 12.7998Z" fill="#316FEA"/>
<path d="M23.938 13.2933C23.8774 13.1472 23.7748 13.0223 23.6433 12.9345C23.5118 12.8466 23.3571 12.7998 23.199 12.7998H20.494C18.8976 9.59683 18.8781 9.59183 18.3941 9.59983C18.2392 9.60075 18.088 9.64658 17.9586 9.73179C17.8293 9.81699 17.7275 9.93789 17.6656 10.0798C17.5656 10.2893 16.7156 11.9798 16.3046 12.7998H13.5992C13.441 12.7998 13.2864 12.8468 13.1549 12.9347C13.0234 13.0226 12.921 13.1475 12.8604 13.2937C12.7999 13.4398 12.7841 13.6006 12.8149 13.7557C12.8457 13.9108 12.9219 14.0534 13.0337 14.1652L15.1311 16.2627L14.4152 19.8426C14.3835 20.0014 14.4007 20.1661 14.4646 20.3149C14.5285 20.4637 14.636 20.5896 14.773 20.6759C14.91 20.7623 15.0699 20.8051 15.2317 20.7986C15.3935 20.7921 15.5495 20.7367 15.6791 20.6396L18.3991 18.5996L21.119 20.6396C21.2486 20.7367 21.4047 20.7921 21.5664 20.7986C21.7282 20.8051 21.8882 20.7623 22.0252 20.6759C22.1621 20.5896 22.2697 20.4637 22.3336 20.3149C22.3975 20.1661 22.4147 20.0014 22.383 19.8426L21.667 16.2627L23.7645 14.1652C23.8764 14.0534 23.9526 13.9108 23.9835 13.7556C24.0144 13.6004 23.9985 13.4395 23.938 13.2933Z" fill="#316FEA"/>
</svg>
