<svg width="24" height="23" viewBox="0 0 24 23" fill="none" xmlns="http://www.w3.org/2000/svg">
<path d="M6.63629 2.1199C8.04586 1.13465 9.86079 0.77215 11.5375 1.13465C13.4354 1.52503 15.1029 2.8449 15.9413 4.59233C17.0744 4.44361 18.2537 4.71316 19.1934 5.3731C20.1331 6.02374 20.8148 7.03687 21.082 8.16155C21.8928 8.31956 22.6574 8.74712 23.1826 9.39776C23.9656 10.3272 24.2052 11.6657 23.8182 12.8183C23.3852 14.1474 22.1231 15.142 20.7411 15.2256C19.9949 15.2535 19.2395 15.2256 18.4932 15.2349C18.5946 14.6865 18.5301 14.101 18.2445 13.6176C17.9589 13.1157 17.6733 12.6138 17.3785 12.1119C16.881 11.3218 15.8768 10.9314 14.9831 11.1545C14.716 10.2529 13.8592 9.56507 12.9287 9.53719C12.339 9.52789 11.7494 9.52789 11.1506 9.53719C10.2109 9.55578 9.35408 10.2529 9.08691 11.1452C8.19326 10.9314 7.19828 11.3125 6.70078 12.0933C6.39676 12.5859 6.12037 13.0971 5.83478 13.599C5.54918 14.0824 5.46626 14.6772 5.58603 15.2349C4.58183 15.2721 3.54999 15.1606 2.66556 14.6679C1.28363 13.9522 0.279434 12.5487 0.0583264 11.0058C-0.162782 9.59296 0.251796 8.08719 1.18229 7.00899C1.94696 6.09809 3.0525 5.49393 4.22253 5.30803C4.65553 4.03464 5.51233 2.89137 6.63629 2.1199Z" fill="#316FEA"/>
<path d="M9.9822 11.9625C10.0651 11.4234 10.3139 10.8378 10.8851 10.6798C11.4655 10.559 12.0643 10.6519 12.6539 10.624C13.0593 10.5869 13.4923 10.7356 13.7502 11.0702C13.9621 11.3212 13.999 11.6558 14.0819 11.9625C14.3122 12.0833 14.5333 12.2135 14.7544 12.3529C15.0493 12.2692 15.3533 12.1391 15.6757 12.1949C16.035 12.2413 16.3667 12.4644 16.5417 12.7897C16.8089 13.2545 17.0761 13.7099 17.334 14.1747C17.5736 14.5744 17.5275 15.1227 17.2419 15.4945C17.1221 15.6526 16.9563 15.7641 16.8366 15.9128C16.7997 16.1731 16.8365 16.4426 16.8089 16.7122C16.984 16.8795 17.1682 17.0375 17.3064 17.242C17.5459 17.6138 17.5552 18.1157 17.334 18.4968C17.0669 18.9522 16.8089 19.4077 16.5417 19.8631C16.3483 20.2163 15.9613 20.4487 15.5652 20.4673C15.298 20.4859 15.0493 20.365 14.7913 20.3093C14.5518 20.4115 14.3399 20.5788 14.1003 20.6904C14.0174 20.9878 13.9806 21.3038 13.7871 21.5548C13.5752 21.8429 13.2251 22.0288 12.8658 22.0288C12.3315 22.0288 11.7879 22.0288 11.2536 22.0288C10.7745 22.0381 10.3139 21.7128 10.148 21.2573C10.0835 21.0714 10.0467 20.8763 10.0006 20.6811C9.7703 20.5695 9.53998 20.4394 9.32808 20.2907C8.94115 20.4208 8.50814 20.5602 8.11199 20.365C7.58686 20.1605 7.41181 19.5936 7.13543 19.166C6.89589 18.7013 6.48132 18.2458 6.60108 17.6788C6.64715 17.2606 6.97881 16.9817 7.26441 16.7122C7.24598 16.4519 7.24598 16.1917 7.26441 15.9314C6.82219 15.5782 6.42604 15.0298 6.62872 14.4256C6.84983 13.8958 7.19071 13.4218 7.45788 12.9106C7.62371 12.5574 7.93695 12.2785 8.32388 12.2042C8.65555 12.1205 8.98721 12.2599 9.30966 12.3529C9.53077 12.2042 9.75188 12.074 9.9822 11.9625ZM11.2167 12.799C11.0693 13.1151 10.7008 13.1708 10.4244 13.3288C10.1665 13.459 9.96377 13.6728 9.70581 13.8029C9.35572 13.9237 9.00564 13.7192 8.67397 13.6449C8.46208 13.9981 8.26861 14.3606 8.05671 14.7138C8.24097 14.909 8.47129 15.0763 8.6187 15.2993C8.81217 15.6154 8.63712 15.9872 8.66476 16.3311C8.64633 16.6564 8.79374 16.991 8.63712 17.2977C8.48972 17.5301 8.2594 17.7067 8.05671 17.9019C8.24097 18.2737 8.46208 18.6176 8.66476 18.9801C8.95957 18.9057 9.25438 18.7663 9.56762 18.7849C9.89007 18.85 10.102 19.1381 10.3968 19.2775C10.6639 19.4448 11.0232 19.4913 11.1891 19.7795C11.3181 20.0304 11.3365 20.3093 11.4194 20.5788C11.8248 20.5788 12.2393 20.5881 12.6447 20.5788C12.7553 20.2349 12.746 19.798 13.0685 19.575C13.308 19.4356 13.5752 19.3519 13.8055 19.1939C14.0727 19.0359 14.2938 18.757 14.6255 18.7849C14.8926 18.8128 15.1414 18.915 15.3901 18.9894C15.5928 18.6362 15.7955 18.2737 15.9982 17.9205C15.7679 17.6602 15.4086 17.465 15.3441 17.0933C15.3164 16.7772 15.4178 16.4705 15.3809 16.1545C15.3625 15.8663 15.2612 15.5503 15.4362 15.2901C15.5928 15.0763 15.8047 14.909 15.9982 14.7138C15.7955 14.3606 15.5928 13.9981 15.3809 13.6449C15.123 13.7099 14.8742 13.8122 14.607 13.8401C14.257 13.8679 14.0266 13.5612 13.7502 13.4032C13.4554 13.1894 13.0224 13.1615 12.8382 12.8176C12.7276 12.576 12.7 12.2971 12.6263 12.0462C12.2209 12.0462 11.8156 12.0462 11.401 12.0462C11.3549 12.2971 11.3088 12.5574 11.2167 12.799Z" fill="#316FEA"/>
<path d="M11.6408 14.9369C12.4331 14.7045 13.3175 15.3086 13.4004 16.1359C13.5294 16.9167 12.8845 17.7067 12.1014 17.7346C11.3552 17.809 10.6273 17.1862 10.5905 16.4333C10.5168 15.7641 10.9959 15.0949 11.6408 14.9369Z" fill="#316FEA"/>
</svg>
