<svg width="20" height="21" viewBox="0 0 20 21" fill="none" xmlns="http://www.w3.org/2000/svg">
<g clip-path="url(#clip0)">
<path d="M5.88243 14.2822V5.11425H14.1172V6.0471L16.6422 3.522C14.8102 1.88951 12.4738 0.996509 10 0.996509C1.42618 0.957445 -3.18632 11.2801 2.52579 17.639L5.88243 14.2822Z" fill="#316FEA"/>
<path d="M17.4742 4.35431L14.1176 7.71108V16.879H5.88243V15.9462L3.35742 18.4713C5.18946 20.1038 7.52579 20.9968 9.99962 20.9968C18.5738 21.0358 23.1864 10.7135 17.4742 4.35431Z" fill="#316FEA"/>
<path d="M12.9411 15.7027V6.29102H7.05908V15.7027H12.9411ZM8.23564 8.05593H11.7649V9.23254H8.23564V8.05593ZM8.23564 10.4088H11.7649V11.5854H8.23564V10.4088ZM8.23564 12.7616H11.7649V13.9382H8.23564V12.7616Z" fill="#316FEA"/>
</g>
<defs>
<clipPath id="clip0">
<rect width="20" height="20" fill="white" transform="translate(0 0.99707)"/>
</clipPath>
</defs>
</svg>
