<svg width="23" height="21" viewBox="0 0 23 21" fill="none" xmlns="http://www.w3.org/2000/svg">
<g clip-path="url(#clip0)">
<path d="M22.9725 12.1252L21.2332 2.45186C21.0795 1.59802 20.3226 0.99707 19.4677 0.99707C19.3644 0.99707 4.23786 3.60352 4.23786 3.60352C3.2617 3.77227 2.60989 4.68514 2.78194 5.64252L2.9495 6.57522H16.6008C18.3325 6.57522 19.7417 7.95731 19.7417 9.65573V10.8902V13.8848V14.4712L21.5157 14.1646C22.4928 13.9954 23.1446 13.0825 22.9725 12.1252Z" fill="#316FEA"/>
<path d="M18.3964 15.2048H0V19.2366C0 20.2089 0.803652 20.9967 1.79463 20.9967H16.6013C17.5928 20.9967 18.396 20.2085 18.396 19.2366V15.2048H18.3964ZM5.34346 19.411H2.29012C1.91861 19.411 1.61719 19.1154 1.61719 18.751C1.61719 18.3867 1.91861 18.0911 2.29012 18.0911H5.34346C5.71496 18.0911 6.01639 18.3867 6.01639 18.751C6.01639 19.1154 5.71496 19.411 5.34346 19.411Z" fill="#316FEA"/>
<path d="M0.00219727 9.56984H18.3941C18.3483 8.63757 17.5635 7.8952 16.6017 7.8952H1.79458C0.832803 7.89564 0.0480176 8.63757 0.00219727 9.56984Z" fill="#316FEA"/>
<path d="M0 10.8903H18.3964V13.8848H0V10.8903Z" fill="#316FEA"/>
</g>
<defs>
<clipPath id="clip0">
<rect width="23" height="20" fill="white" transform="translate(0 0.99707)"/>
</clipPath>
</defs>
</svg>
