<svg width="22" height="20" viewBox="0 0 22 20" fill="none" xmlns="http://www.w3.org/2000/svg">
<g clip-path="url(#clip0)">
<path d="M15.7077 0.000488281H1.87492C1.37766 0.000488281 0.900768 0.198024 0.549152 0.54964C0.197536 0.901256 0 1.37815 0 1.87541L0 11.875C0 12.3723 0.197536 12.8491 0.549152 13.2008C0.900768 13.5524 1.37766 13.7499 1.87492 13.7499H3.74984V16.8748C3.74984 17.4323 4.42565 17.7081 4.81647 17.3169C6.56139 15.5715 5.33603 16.7973 8.20008 13.9332C8.2581 13.8751 8.32701 13.829 8.40286 13.7976C8.47872 13.7661 8.56002 13.7499 8.64214 13.7499H15.7077C16.2049 13.7499 16.6818 13.5524 17.0334 13.2008C17.3851 12.8491 17.5826 12.3723 17.5826 11.875V1.87541C17.5821 1.37832 17.3843 0.901746 17.0328 0.550249C16.6813 0.198753 16.2048 0.00103969 15.7077 0.000488281ZM3.12487 3.75033H11.9578C12.1236 3.75033 12.2826 3.81618 12.3998 3.93338C12.517 4.05059 12.5828 4.20955 12.5828 4.37531C12.5828 4.54106 12.517 4.70002 12.3998 4.81723C12.2826 4.93443 12.1236 5.00028 11.9578 5.00028H3.12487C2.95912 5.00028 2.80015 4.93443 2.68295 4.81723C2.56574 4.70002 2.4999 4.54106 2.4999 4.37531C2.4999 4.20955 2.56574 4.05059 2.68295 3.93338C2.80015 3.81618 2.95912 3.75033 3.12487 3.75033ZM9.45794 10.0001H3.12487C2.95912 10.0001 2.80015 9.93423 2.68295 9.81702C2.56574 9.69982 2.4999 9.54085 2.4999 9.3751C2.4999 9.20934 2.56574 9.05038 2.68295 8.93318C2.80015 8.81597 2.95912 8.75012 3.12487 8.75012H9.45794C9.62369 8.75012 9.78266 8.81597 9.89986 8.93318C10.0171 9.05038 10.0829 9.20934 10.0829 9.3751C10.0829 9.54085 10.0171 9.69982 9.89986 9.81702C9.78266 9.93423 9.62369 10.0001 9.45794 10.0001ZM14.4577 7.50018H3.12487C2.95912 7.50018 2.80015 7.43433 2.68295 7.31713C2.56574 7.19992 2.4999 7.04096 2.4999 6.8752C2.4999 6.70945 2.56574 6.55048 2.68295 6.43328C2.80015 6.31607 2.95912 6.25023 3.12487 6.25023H14.4577C14.6235 6.25023 14.7824 6.31607 14.8997 6.43328C15.0169 6.55048 15.0827 6.70945 15.0827 6.8752C15.0827 7.04096 15.0169 7.19992 14.8997 7.31713C14.7824 7.43433 14.6235 7.50018 14.4577 7.50018Z" fill="#316FEA"/>
<path d="M19.4575 2.50049H18.8408V11.8751C18.8408 13.598 17.4305 15 15.7076 15H8.98416L7.65088 16.2416H12.949L16.5155 19.8169C16.9076 20.2081 17.5825 19.9331 17.5825 19.3748V16.2416H19.4575C19.7032 16.2423 19.9466 16.1945 20.1738 16.101C20.4011 16.0075 20.6076 15.8702 20.7818 15.6969C20.9559 15.5235 21.0941 15.3175 21.1886 15.0907C21.2831 14.8639 21.332 14.6207 21.3324 14.375V4.37541C21.3324 3.87815 21.1349 3.40126 20.7832 3.04964C20.4316 2.69802 19.9547 2.50049 19.4575 2.50049Z" fill="#316FEA"/>
</g>
<defs>
<clipPath id="clip0">
<rect width="21.3324" height="20" fill="white"/>
</clipPath>
</defs>
</svg>
