<svg width="20" height="21" viewBox="0 0 20 21" fill="none" xmlns="http://www.w3.org/2000/svg">
<path d="M4.1011 3.15536C4.48259 1.7629 6.00858 0.732854 7.4392 1.05713C8.57415 1.42909 9.34669 2.43052 9.98569 3.3938C10.6247 2.43052 11.4068 1.41955 12.5513 1.05713C13.9247 0.761467 15.3839 1.69614 15.8226 3.00276C16.2041 4.01373 15.9371 5.20591 15.2217 5.99752C16.8145 5.98798 18.4072 5.99752 20 5.99752C20 7.33276 20 8.668 20 9.9937C16.9957 9.9937 14.001 9.9937 10.9967 9.9937C10.9967 8.99227 10.9967 7.99084 10.9967 6.98941C10.329 6.98941 9.66142 6.98941 9.00334 6.98941C9.00334 7.99084 9.00334 8.99227 9.00334 9.9937C5.99905 9.9937 3.00429 9.9937 0 9.9937C0 8.65846 0 7.32322 0 5.99752C1.58321 5.99752 3.17597 5.99752 4.75918 5.99752C4.07248 5.23452 3.7959 4.13772 4.1011 3.15536ZM5.98951 3.95651C5.9609 4.46199 6.39008 4.95794 6.89556 4.98655C7.46781 5.00563 8.04006 4.98655 8.60277 4.99609C8.26896 4.40477 7.88746 3.82298 7.41059 3.33657C7.25799 3.19351 7.10539 3.03138 6.89556 2.98369C6.40916 3.02184 5.99905 3.4701 5.98951 3.95651ZM12.7229 3.1649C12.1602 3.67992 11.7501 4.338 11.3782 4.99609C11.979 4.98655 12.5703 5.01516 13.1712 4.97701C13.8293 4.89118 14.2299 4.06142 13.8674 3.49871C13.6576 3.12675 13.0758 2.79294 12.7229 3.1649Z" fill="#316FEA"/>
<path d="M0.982666 11.8917C3.65315 11.8917 6.31409 11.8917 8.98457 11.8917C8.98457 14.896 8.98457 17.8907 8.98457 20.895C6.31409 20.895 3.65315 20.895 0.982666 20.895C0.982666 17.8907 0.992203 14.8864 0.982666 11.8917Z" fill="#316FEA"/>
<path d="M10.9866 11.8917C13.6571 11.8917 16.318 11.8917 18.9885 11.8917C18.9789 14.896 18.9885 17.8907 18.9885 20.895C16.318 20.895 13.6571 20.895 10.9866 20.895C10.9866 17.8907 10.9866 14.8864 10.9866 11.8917Z" fill="#316FEA"/>
</svg>
