<svg id="Capa_1" data-name="Capa 1" xmlns="http://www.w3.org/2000/svg" viewBox="0 0 383.5 512"><defs><style>.cls-1{fill:#316fea;}</style></defs><path class="cls-1" d="M432.7,0H79.3a15,15,0,0,0-15,15V452.8a14.6,14.6,0,0,0,4.4,10.6l44.1,44.2a15,15,0,0,0,21.3,0L167.6,474l33.6,33.6a15,15,0,0,0,21.2,0L256,474l33.6,33.6a15,15,0,0,0,21.2,0L344.4,474l33.5,33.6a15.1,15.1,0,0,0,21.3,0l44.1-44.2a14.6,14.6,0,0,0,4.4-10.6V15A15,15,0,0,0,432.7,0ZM241,112.7V95.3a15,15,0,0,1,30,0v17.2h17.1a15,15,0,0,1,0,30H245.3a17.1,17.1,0,0,0,0,34.2h21.4a47.2,47.2,0,0,1,4.3,94.1v17.3a15,15,0,0,1-30,0V271H223.9a15,15,0,1,1,0-30h42.8a17.2,17.2,0,0,0,0-34.3H245.3a47.1,47.1,0,0,1-4.3-94Zm95.3,270.8H175.7a15,15,0,0,1,0-30H336.3a15,15,0,0,1,0,30Z" transform="translate(-64.3)"/></svg>