<svg width="14" height="17" viewBox="0 0 14 17" fill="none" xmlns="http://www.w3.org/2000/svg">
<g clip-path="url(#clip0)">
<path d="M3.2397 5.44594C3.2397 3.56188 4.7722 2.02937 6.65627 2.02937C8.54002 2.02937 10.0725 3.56188 10.0725 5.44594V7.0575H11.6019V5.44594C11.6016 2.71875 9.38314 0.5 6.65627 0.5C3.92908 0.5 1.71033 2.71875 1.71033 5.44594V7.0575H3.2397V5.44594Z" fill="#316FEA"/>
<path d="M12.7072 7.99878H0.604688C0.270625 7.99878 0 8.2794 0 8.62628V15.8728C0 16.2191 0.270625 16.5 0.604688 16.5H12.7072C13.0413 16.5 13.3119 16.2191 13.3119 15.8725V8.62628C13.3119 8.2794 13.0413 7.99878 12.7072 7.99878ZM7.10969 14.8294C7.10969 15.0891 6.90656 15.3 6.65625 15.3C6.40594 15.3 6.20281 15.0891 6.20281 14.8294V14.7875C6.20281 14.5275 6.40594 14.3169 6.65625 14.3169C6.90656 14.3169 7.10969 14.5275 7.10969 14.7875V14.8294ZM7.17156 12.5678C7.13438 12.5803 7.10969 12.6141 7.10969 12.651V13.0675C7.10969 13.3275 6.90656 13.5382 6.65625 13.5382C6.40594 13.5382 6.20281 13.3275 6.20281 13.0675V12.651C6.20281 12.2078 6.47719 11.8135 6.89 11.6732C7.21719 11.5622 7.42906 11.2344 7.40562 10.876C7.38 10.4916 7.08125 10.1816 6.71031 10.155C6.26781 10.1228 5.905 10.486 5.905 10.9325C5.905 11.1919 5.70281 11.4032 5.45156 11.4032C5.20125 11.4032 4.99813 11.1922 4.99813 10.9325C4.99813 9.95815 5.78969 9.14597 6.77313 9.21628C7.59313 9.27503 8.25406 9.96065 8.31063 10.8116C8.3625 11.6003 7.89469 12.3225 7.17156 12.5678Z" fill="#316FEA"/>
</g>
<defs>
<clipPath id="clip0">
<rect width="13.3119" height="16" fill="white" transform="translate(0 0.5)"/>
</clipPath>
</defs>
</svg>
