<svg width="17" height="12" viewBox="0 0 17 12" fill="none" xmlns="http://www.w3.org/2000/svg">
<path d="M7.74814 0.0270272C9.50797 -0.144068 11.2515 0.51587 12.6936 1.47726C14.0705 2.41421 15.2926 3.60373 16.197 5.00508C16.417 5.38801 16.7266 5.81982 16.6125 6.28422C16.4821 6.76492 16.1888 7.17229 15.9118 7.57966C14.869 8.9973 13.5246 10.2031 11.9848 11.0586C11.8463 11.1482 11.6752 11.1401 11.5285 11.2134C10.282 11.8244 8.85618 12.1422 7.47113 11.9385C6.67268 11.8244 5.89868 11.5719 5.17356 11.2215C5.02691 11.1482 4.86396 11.1482 4.72546 11.0667C3.69074 10.4883 2.75379 9.74686 1.92276 8.89953C1.27096 8.21515 0.651763 7.48189 0.203657 6.65085C0.0814462 6.42273 -0.0570594 6.15386 0.0244145 5.89315C0.179215 5.41245 0.472521 4.98879 0.765827 4.58142C1.58871 3.45708 2.59084 2.4631 3.72333 1.6565C4.91285 0.809176 6.28976 0.17368 7.74814 0.0270272ZM7.95182 1.68095C6.46085 1.79501 5.06765 2.74825 4.40771 4.09257C3.88628 5.14359 3.81295 6.40643 4.20402 7.50633C4.61954 8.6877 5.58093 9.66539 6.74601 10.1135C7.52816 10.4149 8.39993 10.4883 9.22282 10.309C10.5264 10.0483 11.667 9.14395 12.2455 7.95444C12.6936 7.04193 12.8077 5.97462 12.5632 4.98064C12.2781 3.80742 11.4796 2.78084 10.4286 2.20238C9.68722 1.79501 8.8073 1.61577 7.95182 1.68095Z" fill="#366FE0"/>
<path d="M7.4794 3.73403C8.28599 3.44887 9.23109 3.60367 9.88288 4.1577C10.7139 4.82578 11.0072 6.06418 10.5591 7.03372C10.1273 8.05215 8.93779 8.67135 7.85418 8.44322C6.77873 8.24768 5.92325 7.27 5.88251 6.17825C5.84992 5.77088 5.93955 5.37166 6.09435 5.00502C6.83576 5.34721 7.57717 5.6894 8.31858 6.03974C8.04157 5.26574 7.75641 4.49989 7.4794 3.73403Z" fill="#366FE0"/>
</svg>
