<svg xmlns="http://www.w3.org/2000/svg" viewBox="0 0 36.1 40.7"><defs><style>.cls-1,.cls-2{fill:#366fe0;stroke:#366fe0;stroke-miterlimit:10;}.cls-1{stroke-width:0.02px;}.cls-2{font-size:10px;stroke-width:0.02px;font-family:Graphik-Medium, Graphik;font-weight:500;}</style></defs><title>Asset 6</title><g id="Layer_2" data-name="Layer 2"><g id="Layer_5" data-name="Layer 5"><g id="Layer_4_copy" data-name="Layer 4 copy"><path class="cls-1" d="M36.09,11.75V29a3.13,3.13,0,0,1-1.57,2.71l-14.9,8.6a3.08,3.08,0,0,1-3.14,0L11.06,37l1.22-.65L14,35.7l0,0s0,0,0,0L17.81,38a.55.55,0,0,0,.47,0l14.9-8.61a.47.47,0,0,0,.23-.39V11.75a.51.51,0,0,0-.23-.43L18.28,2.73a.47.47,0,0,0-.46,0l-14.9,8.6a.48.48,0,0,0-.23.42V29a.47.47,0,0,0,.23.39l11,6.33a1.1,1.1,0,0,0-.34,0l-1.34.7-1.35.51-9.35-5.2A3.13,3.13,0,0,1,0,29V11.75A3.15,3.15,0,0,1,1.58,9L16.48.41a3.3,3.3,0,0,1,3.14,0L34.52,9A3.16,3.16,0,0,1,36.09,11.75Z"/><path class="cls-1" d="M17.45,13.53a6.47,6.47,0,0,1,5.64,3.3l3.42-2a10.42,10.42,0,1,0,0,10.35l-3.42-2a6.46,6.46,0,1,1-5.62-9.66Z"/><text class="cls-2" transform="translate(24.86 24.27)">#</text></g></g></g></svg>