<svg id="Layer_1" data-name="Layer 1" xmlns="http://www.w3.org/2000/svg" viewBox="0 0 512 512"><defs><style>.cls-1{fill:#b1b6c0;}</style></defs><title>calendar</title><path class="cls-1" d="M482,292.25V46a15,15,0,0,0-15-15H391V15a15,15,0,0,0-30,0V31H301V15a15,15,0,0,0-30,0V31H211V15a15,15,0,0,0-30,0V31H121V15a15,15,0,0,0-30,0V31H15A15,15,0,0,0,0,46V437a15,15,0,0,0,15,15H264.8A135,135,0,0,0,377,512c74.44,0,135-60.56,135-135A134.37,134.37,0,0,0,482,292.25ZM91,61V76a15,15,0,0,0,30,0V61h60V76a15,15,0,0,0,30,0V61h60V76a15,15,0,0,0,30,0V61h60V76a15,15,0,0,0,30,0V61h61v60H30V61ZM30,422V151H452V264.8a134.85,134.85,0,0,0-188.26,38.81A15,15,0,0,0,257,302H227a15,15,0,0,0,0,30h22.72a134,134,0,0,0-6.88,30H227a15,15,0,0,0,0,30h15.84a133.49,133.49,0,0,0,6.88,30Zm347,60A105,105,0,1,1,482,377,105.12,105.12,0,0,1,377,482Z"/><path class="cls-1" d="M437,362H392V317a15,15,0,0,0-30,0v60a15,15,0,0,0,15,15h60a15,15,0,0,0,0-30Z"/><path class="cls-1" d="M136,182H106a15,15,0,0,0,0,30h30a15,15,0,0,0,0-30Z"/><path class="cls-1" d="M136,242H106a15,15,0,0,0,0,30h30a15,15,0,0,0,0-30Z"/><path class="cls-1" d="M136,302H106a15,15,0,0,0,0,30h30a15,15,0,0,0,0-30Z"/><path class="cls-1" d="M227,212h30a15,15,0,0,0,0-30H227a15,15,0,0,0,0,30Z"/><path class="cls-1" d="M227,272h30a15,15,0,0,0,0-30H227a15,15,0,0,0,0,30Z"/><path class="cls-1" d="M136,362H106a15,15,0,0,0,0,30h30a15,15,0,0,0,0-30Z"/><path class="cls-1" d="M347,212h30a15,15,0,0,0,0-30H347a15,15,0,0,0,0,30Z"/></svg>