<svg id="Capa_1" data-name="Capa 1" xmlns="http://www.w3.org/2000/svg" viewBox="0 0 438.53 438.53"><defs><style>.cls-1{fill:#bcc0ca;}.cls-2{fill:#fff;}</style></defs><title>cancel</title><path class="cls-1" d="M409,109.07a218.36,218.36,0,0,0-79.8-79.8Q278.82-.13,219.14-.13T109.08,29.27a218.29,218.29,0,0,0-79.8,79.8Q-.13,159.47-.13,219.13T29.28,329.2A218.26,218.26,0,0,0,109.08,409q50.38,29.42,110.06,29.41T329.2,409A218.26,218.26,0,0,0,409,329.2q29.4-50.4,29.4-110.07T409,109.07Z" transform="translate(0.13 0.13)"/><rect class="cls-2" x="195.89" y="91.36" width="46.23" height="255.29" rx="21.34" transform="translate(219.13 -90.58) rotate(45)"/><rect class="cls-2" x="195.89" y="91.36" width="46.23" height="255.29" rx="21.34" transform="translate(528.84 219.13) rotate(135)"/></svg>