<svg width="16" height="16" viewBox="0 0 16 16" fill="none" xmlns="http://www.w3.org/2000/svg">
<path d="M10.756 6.31957C10.9963 6.07925 10.9963 5.68961 10.756 5.44928C10.5157 5.20896 10.1261 5.20896 9.88573 5.44928L8.00011 7.3349L6.11449 5.44928C5.87417 5.20896 5.48453 5.20896 5.24421 5.44928C5.00388 5.68961 5.00388 6.07925 5.24421 6.31957L7.12982 8.20519L5.24421 10.0908C5.00388 10.3311 5.00388 10.7208 5.24421 10.9611C5.48453 11.2014 5.87417 11.2014 6.11449 10.9611L8.00011 9.07547L9.88573 10.9611C10.1261 11.2014 10.5157 11.2014 10.756 10.9611C10.9963 10.7208 10.9963 10.3311 10.756 10.0908L8.8704 8.20519L10.756 6.31957Z" fill="white"/>
<path fill-rule="evenodd" clip-rule="evenodd" d="M8 1.23077C6.20469 1.23077 4.48291 1.94395 3.21343 3.21343C1.94395 4.48291 1.23077 6.20469 1.23077 8C1.23077 9.79531 1.94395 11.5171 3.21343 12.7866C4.48291 14.056 6.20469 14.7692 8 14.7692C9.79531 14.7692 11.5171 14.056 12.7866 12.7866C14.056 11.5171 14.7692 9.79531 14.7692 8C14.7692 6.20469 14.056 4.48291 12.7866 3.21343C11.5171 1.94395 9.79531 1.23077 8 1.23077ZM2.34315 2.34315C3.84344 0.842855 5.87827 0 8 0C10.1217 0 12.1566 0.842855 13.6569 2.34315C15.1571 3.84344 16 5.87827 16 8C16 10.1217 15.1571 12.1566 13.6569 13.6569C12.1566 15.1571 10.1217 16 8 16C5.87827 16 3.84344 15.1571 2.34315 13.6569C0.842855 12.1566 0 10.1217 0 8C0 5.87827 0.842855 3.84344 2.34315 2.34315Z" fill="white"/>
</svg>
