<svg id="Layer_1" data-name="Layer 1" xmlns="http://www.w3.org/2000/svg" viewBox="0 0 512 377.6"><defs><style>.cls-1{fill:#316fea;}</style></defs><path class="cls-1" d="M512,169.6V208a8.5,8.5,0,0,1-8.5,8.5H8.5A8.5,8.5,0,0,1,0,208V169.6a8.5,8.5,0,0,1,8.5-8.5h495A8.5,8.5,0,0,1,512,169.6Zm0-34.1V109.9a42.7,42.7,0,0,0-42.7-42.7H42.7A42.7,42.7,0,0,0,0,109.9v25.6A8.5,8.5,0,0,0,8.5,144h495A8.5,8.5,0,0,0,512,135.5ZM411.1,304.4a8.7,8.7,0,0,0-6.5,11.6,44.9,44.9,0,0,1,0,31.5,8.5,8.5,0,0,0,6.2,11.5,27.8,27.8,0,1,0,.3-54.6ZM8.5,233.6h495a8.5,8.5,0,0,1,8.5,8.5v160a42.7,42.7,0,0,1-42.7,42.7H42.7A42.7,42.7,0,0,1,0,402.1v-160A8.5,8.5,0,0,1,8.5,233.6ZM157.9,358.4a8.6,8.6,0,0,0-8.6-8.5H77.9a8.5,8.5,0,1,0,0,17h71.4A8.6,8.6,0,0,0,157.9,358.4Zm0-53.3a8.7,8.7,0,0,0-8.6-8.6H77.9a8.6,8.6,0,1,0,0,17.1h71.4A8.6,8.6,0,0,0,157.9,305.1Zm302.9,26.6c0-36.6-41.9-57.8-71.5-35.9-29.3-21.9-71.4-.8-71.4,35.9s42,57.9,71.4,36C418.7,389.5,460.8,368.5,460.8,331.7Z" transform="translate(0 -67.2)"/></svg>