<svg id="Isolation_Mode" data-name="Isolation Mode" xmlns="http://www.w3.org/2000/svg" viewBox="0 0 575.17 491.51"><defs><style>.cls-1{fill:#316fea;}.cls-2{fill:#ff6161;}.cls-3{fill:#fff;}</style></defs><path class="cls-1" d="M278.63,395.8h144.5c5.42,0,9-3.62,9-9V305.49c0-5.42-3.61-9-9-9H278.63c-5.42,0-9,3.62-9,9v81.28C269.6,392.18,273.21,395.8,278.63,395.8Zm9-81.28H414.1v63.21H287.66Z" transform="translate(10.36 -88.74)"/><path class="cls-1" d="M34.79,278.39H107c5.42,0,9-3.61,9-9s-3.61-9-9-9H34.79c-5.42,0-9,3.61-9,9S29.37,278.39,34.79,278.39Z" transform="translate(10.36 -88.74)"/><path class="cls-1" d="M143.16,278.39h72.25c5.42,0,9-3.61,9-9s-3.61-9-9-9H143.16c-5.41,0-9,3.61-9,9S137.75,278.39,143.16,278.39Z" transform="translate(10.36 -88.74)"/><path class="cls-1" d="M34.79,314.52H152.2c5.41,0,9-3.62,9-9s-3.62-9-9-9H34.79c-5.42,0-9,3.62-9,9S29.37,314.52,34.79,314.52Z" transform="translate(10.36 -88.74)"/><path class="cls-1" d="M215.41,296.45H188.32c-5.42,0-9,3.62-9,9s3.61,9,9,9h27.09c5.42,0,9-3.61,9-9S220.83,296.45,215.41,296.45Z" transform="translate(10.36 -88.74)"/><path class="cls-1" d="M523.37,184.47q-9.48-12.19-24.38-13.55l-21.67-2.63V124.86a36.23,36.23,0,0,0-36.13-36.12H25.76a36.22,36.22,0,0,0-36.12,36.12v289a36.25,36.25,0,0,0,25.88,34.62A35.14,35.14,0,0,0,47.44,484.3l417.23,47h3.61c18.07,0,34.32-13.54,36.13-30.7l27.09-289.9A35.08,35.08,0,0,0,523.37,184.47ZM7.7,152H459.25v54.18H7.7ZM25.76,106.8H441.19a18.12,18.12,0,0,1,18.06,18.06v9H7.7v-9A18.12,18.12,0,0,1,25.76,106.8ZM7.7,413.86V224.2H459.25V413.86a18.11,18.11,0,0,1-18.06,18.06H25.76A18.12,18.12,0,0,1,7.7,413.86ZM513.44,207.05,486.35,496.94a18.23,18.23,0,0,1-19.87,16.26l-416.34-47A18.25,18.25,0,0,1,33.89,450h407.3a36.22,36.22,0,0,0,36.12-36.12V185.37l20.78,1.81c4.51,0,9,2.71,11.74,6.32S514.34,202.53,513.44,207.05Z" transform="translate(10.36 -88.74)"/><path class="cls-2" d="M451,352.55A113.85,113.85,0,1,0,564.81,466.43v0A113.85,113.85,0,0,0,451,352.55Z" transform="translate(10.36 -88.74)"/><polygon class="cls-3" points="472.25 391.84 476.44 305.72 446.41 305.72 450.59 391.84 472.25 391.84"/><path class="cls-3" d="M451.07,496.74c-10.07,0-17.12,7-17.12,17.29,0,9.88,6.84,17.31,16.73,17.31h.39c10.26,0,16.9-7.43,16.9-17.31C467.79,503.78,461.13,496.74,451.07,496.74Z" transform="translate(10.36 -88.74)"/></svg>