<svg width="16" height="16" viewBox="0 0 16 16" fill="none" xmlns="http://www.w3.org/2000/svg">
<path d="M8.00017 0C3.58162 0 0 3.58162 0 8.00017C0 12.4187 3.58162 16.0003 8.00017 16.0003C12.4187 16.0003 16.0003 12.4187 16.0003 8.00017C15.9949 3.584 12.4163 0.00511367 8.00017 0ZM11.4233 6.69618L7.7871 10.3323C7.50312 10.6163 7.04289 10.6163 6.75857 10.3323L4.57674 8.15051C4.28799 7.87131 4.2798 7.41108 4.55901 7.12198C4.83822 6.83323 5.29845 6.82505 5.58754 7.10426C5.59368 7.11005 5.59947 7.11619 5.60527 7.12198L7.27301 8.78972L10.3951 5.66765C10.6838 5.38879 11.1444 5.39663 11.4236 5.68538C11.6957 5.96732 11.6957 6.41425 11.4233 6.69618Z" fill="#BAC0CE"/>
</svg>
