<svg width="16" height="16" viewBox="0 0 16 16" fill="none" xmlns="http://www.w3.org/2000/svg">
<path d="M8.00017 0C3.58162 0 0 3.58162 0 8.00017C0 12.4187 3.58162 16.0003 8.00017 16.0003C12.4187 16.0003 16.0003 12.4187 16.0003 8.00017C15.9949 3.584 12.4163 0.00511367 8.00017 0ZM10.6961 10.6961C10.4121 10.9801 9.95189 10.9801 9.66757 10.6961L7.48574 8.51427C7.34937 8.3779 7.27267 8.19279 7.27267 8.00017V3.6365C7.27267 3.23491 7.59824 2.90934 7.99983 2.90934C8.40142 2.90934 8.72699 3.23491 8.72699 3.6365V7.69915L10.6958 9.66791C10.9801 9.95155 10.9801 10.4121 10.6961 10.6961Z" fill="#316FEA"/>
</svg>
