<svg id="Capa_1" data-name="Capa 1" xmlns="http://www.w3.org/2000/svg" viewBox="0 0 512 512"><defs><style>.cls-1{fill:#fff;}</style></defs><path class="cls-1" d="M271,250l18.42,19.18A153.43,153.43,0,0,1,421,237.47c-8.7-77.93-71.55-139.73-150-146.79Z" transform="translate(0 0)"/><path class="cls-1" d="M268.29,290.46,241,262V90.69a165.21,165.21,0,0,0-91.24,37.86l24.91,24.91-21.21,21.21-24.91-24.91A165.29,165.29,0,0,0,90.68,241H126v30H90.68a165.29,165.29,0,0,0,37.87,91.24l23.9-23.91,21.22,21.22-23.91,23.9A165.31,165.31,0,0,0,237.47,421a153.41,153.41,0,0,1,30.82-130.5Z" transform="translate(0 0)"/><path class="cls-1" d="M256,0A256,256,0,0,0,75,437a254.33,254.33,0,0,0,181,75,257.46,257.46,0,0,0,37.91-2.8,154.48,154.48,0,0,1-46-57.38h0C143.59,447.58,60,361.38,60,256,60,147.92,147.93,60,256,60c105.38,0,191.58,83.59,195.82,188a154.6,154.6,0,0,1,57.39,46A258.83,258.83,0,0,0,512,256,256,256,0,0,0,256,0" transform="translate(0 0)"/><path class="cls-1" d="M387.38,262.76A124.62,124.62,0,1,0,512,387.38,124.77,124.77,0,0,0,387.38,262.76Zm0,195A17.74,17.74,0,1,1,405.12,440,17.74,17.74,0,0,1,387.38,457.77Zm12.44-56.72H374.94l-6.22-91.69H406Z" transform="translate(0 0)"/></svg>