<svg id="Capa_1" data-name="Capa 1" xmlns="http://www.w3.org/2000/svg" viewBox="0 0 502.96 502.96"><defs><style>.cls-1{fill:#ffb600;stroke:#ffb600;stroke-miterlimit:10;stroke-width:7px;}</style></defs><title>clock</title><path class="cls-1" d="M433.18,78.82C333.91-17.59,175.27-15.27,78.86,84c-94.43,97.23-94.43,251.91,0,349.14,99.27,96.41,257.91,94.09,354.32-5.18,94.43-97.23,94.43-251.91,0-349.14ZM256,477.19C134.05,477.19,34.81,378,34.81,256S134.05,34.77,256,34.77,477.23,134,477.23,256,378,477.21,256,477.21Z" transform="translate(-4.54 -4.5)"/><path class="cls-1" d="M273.37,253.89V110.36a17.8,17.8,0,0,0-35.58,0V261.3A17.83,17.83,0,0,0,243,273.87L336.1,367a17.79,17.79,0,1,0,26-24.25q-.44-.47-.9-.9Z" transform="translate(-4.54 -4.5)"/></svg>