<svg id="Capa_1" data-name="Capa 1" xmlns="http://www.w3.org/2000/svg" viewBox="0 0 512 512"><defs><style>.cls-1{fill:#ffb600;}</style></defs><title>clock</title><path class="cls-1" d="M436.46,75.17a256,256,0,0,0-362,362,256,256,0,0,0,362-362Zm-181,407c-124.61,0-226-101.38-226-226s101.39-226,226-226,226,101.39,226,226S380.06,482.19,255.44,482.19Z" transform="translate(0.56 -0.19)"/><path class="cls-1" d="M271,256V123.82a16.39,16.39,0,0,0-32.77,0v139A16.43,16.43,0,0,0,243,274.4l85.77,85.76A16.38,16.38,0,1,0,351.91,337Z" transform="translate(0.56 -0.19)"/></svg>