<svg id="Capa_1" data-name="Capa 1" xmlns="http://www.w3.org/2000/svg" viewBox="0 0 512 511.75"><defs><style>.cls-1{fill:#316fea;}</style></defs><path class="cls-1" d="M404.15,311.15H134.72c-60,0-108.8-48.87-108.8-108.94S74.73,93.26,134.72,93.26h7.74V87.18a86.93,86.93,0,0,1,173.83-2.6,72.9,72.9,0,0,1,94.06,62.73,82,82,0,0,1-6.2,163.84Z" transform="translate(0 -0.12)"/><path class="cls-1" d="M241.1,338.9V393a74.82,74.82,0,0,1,30,0V338.9Z" transform="translate(0 -0.12)"/><path class="cls-1" d="M183.1,451.18H118.76a75.26,75.26,0,0,1,0,30H183.1a75.26,75.26,0,0,1,0-30Z" transform="translate(0 -0.12)"/><path class="cls-1" d="M393.24,451.18H329.35a75.26,75.26,0,0,1,0,30h63.89a75.26,75.26,0,0,1,0-30Z" transform="translate(0 -0.12)"/><ellipse class="cls-1" cx="45.64" cy="466.06" rx="45.64" ry="45.7"/><ellipse class="cls-1" cx="256.22" cy="466.06" rx="45.64" ry="45.7"/><ellipse class="cls-1" cx="466.36" cy="466.06" rx="45.64" ry="45.7"/></svg>