<svg id="Layer_1" data-name="Layer 1" xmlns="http://www.w3.org/2000/svg" viewBox="0 0 21.05 23.88"><defs><style>.cls-1{fill:#316fea;}</style></defs><path class="cls-1" d="M11,24a4,4,0,0,1-4-4V7H6A2,2,0,0,0,4,9V25a2,2,0,0,0,2,2H19a2,2,0,0,0,2-2V24Z" transform="translate(-4 -3.12)"/><path class="cls-1" d="M24.79,8.26,19.9,3.38a.85.85,0,0,0-.62-.26H11.73A1.78,1.78,0,0,0,10,4.9V19.1a1.78,1.78,0,0,0,1.78,1.78H23.27a1.78,1.78,0,0,0,1.78-1.78V8.89A.89.89,0,0,0,24.79,8.26Zm-5.7,2.41a1.23,1.23,0,0,1-1.23-1.23v-5l6.28,6.28Z" transform="translate(-4 -3.12)"/></svg>