<svg width="16" height="20" viewBox="0 0 16 20" fill="none" xmlns="http://www.w3.org/2000/svg">
<g clip-path="url(#clip0)">
<path d="M7.36473 0C5.81841 0 4.55281 1.12148 4.27965 2.53906H3.54764C2.79459 2.53993 2.05893 2.76154 1.43482 3.17552C0.810711 3.5895 0.326535 4.17702 0.0442611 4.86289C0.00847838 4.9519 -0.00456858 5.04816 0.00626065 5.14327C0.0170899 5.23837 0.0514657 5.32942 0.106383 5.40846C0.161301 5.4875 0.235089 5.55213 0.321297 5.59668C0.407506 5.64124 0.503511 5.66437 0.600921 5.66406H15.4041C15.5015 5.66437 15.5975 5.64124 15.6837 5.59668C15.7699 5.55213 15.8437 5.4875 15.8986 5.40846C15.9535 5.32942 15.9879 5.23837 15.9988 5.14327C16.0096 5.04816 15.9965 4.9519 15.9608 4.86289C15.6783 4.17653 15.1936 3.58866 14.5689 3.17464C13.9441 2.76062 13.2078 2.53931 12.4542 2.53906H11.7222C11.449 1.12227 10.1846 0 8.6371 0" fill="#FF5151"/>
<path d="M7.36386 1.17188H8.63623C9.507 1.17188 10.2462 1.74727 10.4951 2.53906H5.505C5.75391 1.74727 6.49308 1.17188 7.36386 1.17188Z" fill="#FF5151"/>
<path d="M2.23664 18.3672C2.27027 18.8101 2.47275 19.2243 2.80362 19.527C3.1345 19.8297 3.56942 19.9986 4.02152 20H11.9786C12.431 19.9991 12.8664 19.8304 13.1977 19.5276C13.529 19.2249 13.7318 18.8105 13.7655 18.3672L14.6004 6.83594H1.39966L2.23664 18.3672ZM9.63027 9.9707C9.63818 9.8153 9.7086 9.66935 9.82604 9.56496C9.94348 9.46057 10.0983 9.40629 10.2565 9.41406C10.4147 9.42183 10.5632 9.49102 10.6695 9.6064C10.7758 9.72177 10.831 9.8739 10.8231 10.0293L10.505 16.2793C10.5011 16.3562 10.4818 16.4317 10.4482 16.5013C10.4146 16.5709 10.3674 16.6333 10.3092 16.685C10.2511 16.7367 10.1831 16.7767 10.1093 16.8025C10.0354 16.8284 9.9571 16.8398 9.87877 16.8359C9.80045 16.8321 9.72367 16.8131 9.6528 16.7801C9.58194 16.7471 9.51839 16.7007 9.46578 16.6436C9.41316 16.5865 9.37252 16.5197 9.34616 16.4472C9.31981 16.3746 9.30826 16.2976 9.31217 16.2207L9.63027 9.9707ZM5.74359 9.41406C5.82194 9.41012 5.9003 9.4214 5.97421 9.44725C6.04811 9.47311 6.11609 9.51303 6.17427 9.56474C6.23244 9.61645 6.27966 9.67892 6.31321 9.74858C6.34677 9.81824 6.36601 9.89372 6.36983 9.9707L6.68792 16.2207C6.69184 16.2976 6.68029 16.3746 6.65394 16.4472C6.62758 16.5197 6.58694 16.5865 6.53432 16.6436C6.48171 16.7007 6.41816 16.7471 6.34729 16.7801C6.27643 16.8131 6.19965 16.8321 6.12132 16.8359C6.043 16.8398 5.96467 16.8284 5.89081 16.8025C5.81695 16.7767 5.74901 16.7367 5.69086 16.685C5.6327 16.6333 5.58548 16.5709 5.55189 16.5013C5.5183 16.4317 5.499 16.3562 5.49508 16.2793L5.17699 10.0293C5.17297 9.95233 5.18445 9.87534 5.21077 9.80273C5.23709 9.73013 5.27773 9.66334 5.33036 9.60619C5.38299 9.54904 5.44659 9.50265 5.51749 9.46969C5.5884 9.43672 5.66523 9.41781 5.74359 9.41406Z" fill="#FF5151"/>
</g>
<defs>
<clipPath id="clip0">
<rect width="16" height="20" fill="white"/>
</clipPath>
</defs>
</svg>
