<?xml version="1.0" encoding="utf-8"?>
<!-- Generator: Adobe Illustrator 23.0.1, SVG Export Plug-In . SVG Version: 6.00 Build 0)  -->
<svg version="1.1" id="Layer_1" xmlns="http://www.w3.org/2000/svg" xmlns:xlink="http://www.w3.org/1999/xlink" x="0px" y="0px"
	 viewBox="0 0 40 8" style="enable-background:new 0 0 40 8;" xml:space="preserve">
<style type="text/css">
	.st0{fill-rule:evenodd;clip-rule:evenodd;fill:#919191;}
	.st1{fill-rule:evenodd;clip-rule:evenodd;fill:#121212;}
</style>
<g>
	<path class="st0" d="M20.9,0.6c-1.8,0-3.3,1.5-3.3,3.4c0,2,1.4,3.5,3.3,3.5c1.8,0,3.3-1.5,3.3-3.5C24.2,2.2,22.7,0.6,20.9,0.6"/>
	<path class="st1" d="M2.2,0.8H0.4v6.6h1.8c0.9,0,1.6-0.2,2.2-0.8C5.1,6,5.5,5.1,5.5,4.1C5.5,2.1,4.2,0.8,2.2,0.8z M3.6,5.7
		C3.2,6.1,2.8,6.3,2,6.3H1.6V1.9H2c0.8,0,1.2,0.2,1.6,0.5c0.4,0.4,0.7,1,0.7,1.7C4.3,4.7,4,5.4,3.6,5.7z M6.1,0.8h1.2v6.6H6.1V0.8z
		 M10.2,3.3C9.5,3,9.3,2.8,9.3,2.5c0-0.4,0.4-0.7,0.9-0.7c0.4,0,0.7,0.2,1,0.5l0.6-0.9c-0.5-0.5-1.1-0.7-1.8-0.7
		c-1.1,0-1.9,0.8-1.9,1.9c0,0.9,0.4,1.4,1.5,1.8c0.5,0.2,0.7,0.3,0.8,0.4c0.2,0.2,0.4,0.4,0.4,0.7c0,0.5-0.4,0.9-0.9,0.9
		c0,0,0,0-0.1,0c-0.6,0-1-0.3-1.3-0.9L7.7,6.3C8.3,7.2,9,7.6,9.9,7.6c1.2,0,2.1-0.9,2.1-2.2C12,4.3,11.6,3.8,10.2,3.3 M12.4,4.1
		c0,2,1.4,3.5,3.3,3.5c0.5,0,1-0.1,1.5-0.4V5.6c-0.5,0.5-0.9,0.7-1.5,0.7c-1.2,0-2.1-0.9-2.1-2.3c0-1.3,0.9-2.3,2-2.3
		c0.6,0,1,0.2,1.5,0.7V1c-0.5-0.3-1-0.4-1.5-0.4C13.8,0.6,12.4,2.2,12.4,4.1 M26.9,5.2l-1.6-4.5h-1.3l2.6,6.8h0.6l2.7-6.8h-1.3
		L26.9,5.2 M30.4,7.4h3.4V6.3h-2.2V4.5h2.1V3.4h-2.1V1.9h2.2V0.8h-3.4L30.4,7.4 M38.6,2.7c0-1.2-0.8-2-2.2-2h-1.8v6.6h1.2V4.7H36
		l1.7,2.7h1.5l-1.9-2.8C38.1,4.4,38.6,3.7,38.6,2.7L38.6,2.7z M36.2,3.8h-0.3v-2h0.4c0.8,0,1.2,0.3,1.2,1C37.4,3.5,37,3.8,36.2,3.8z
		"/>
</g>
</svg>
