<svg width="18" height="18" viewBox="0 0 18 18" fill="none" xmlns="http://www.w3.org/2000/svg">
<path d="M10.35 8.3252H9.44995V10.1252H10.35C10.8473 10.1252 11.25 9.7221 11.25 9.2252C11.25 8.7283 10.8473 8.3252 10.35 8.3252Z" fill="#B5BECF"/>
<path d="M0 4.7251V15.7501C0.00126761 16.9923 1.00775 17.9988 2.25 18.0001H15.75C16.9923 17.9988 17.9992 16.9923 18 15.7501V4.7251H0ZM7.65 13.2751C7.65 13.5236 7.44845 13.7251 7.2 13.7251C6.95155 13.7251 6.75 13.5236 6.75 13.2751V11.0251H4.95V13.2751C4.95 13.5236 4.74845 13.7251 4.5 13.7251C4.25155 13.7251 4.05 13.5236 4.05 13.2751V9.2251C4.05 8.23088 4.85577 7.4251 5.85 7.4251C6.84423 7.4251 7.65 8.23088 7.65 9.2251V13.2751ZM10.35 11.0251H9.45V13.2751C9.45 13.5236 9.24845 13.7251 9 13.7251C8.75155 13.7251 8.55 13.5236 8.55 13.2751V7.8751C8.55 7.75595 8.59732 7.64144 8.68183 7.55693C8.76634 7.47242 8.88085 7.4251 9 7.4251H10.35C11.3442 7.4251 12.15 8.23088 12.15 9.2251C12.15 10.2193 11.3442 11.0251 10.35 11.0251ZM13.95 13.2751C13.95 13.5236 13.7485 13.7251 13.5 13.7251C13.2515 13.7251 13.05 13.5236 13.05 13.2751V7.8751C13.05 7.62665 13.2515 7.4251 13.5 7.4251C13.7485 7.4251 13.95 7.62665 13.95 7.8751V13.2751Z" fill="#B5BECF"/>
<path d="M5.84995 8.3252C5.35305 8.32562 4.95037 8.7283 4.94995 9.2252V10.1252H6.74994V9.2252C6.74952 8.7283 6.34684 8.32562 5.84995 8.3252Z" fill="#B5BECF"/>
<path d="M15.2132 0H2.78684C1.25016 0 0 1.25015 0 2.78683V3.99164H18V2.78683C18 1.25015 16.7498 0 15.2132 0ZM2.78684 2.52316C2.4968 2.52316 2.25949 2.28691 2.25949 1.99582C2.25949 1.70472 2.4968 1.46847 2.78684 1.46847C3.07687 1.46847 3.31418 1.70472 3.31418 1.99582C3.31418 2.28691 3.07687 2.52316 2.78684 2.52316ZM5.04598 2.52316C4.75594 2.52316 4.51863 2.28691 4.51863 1.99582C4.51863 1.70472 4.75594 1.46847 5.04598 1.46847C5.33602 1.46847 5.57332 1.70472 5.57332 1.99582C5.57332 2.28691 5.33602 2.52316 5.04598 2.52316ZM7.30547 2.52316C7.01543 2.52316 6.77813 2.28691 6.77813 1.99582C6.77813 1.70472 7.01543 1.46847 7.30547 1.46847C7.59551 1.46847 7.83281 1.70472 7.83281 1.99582C7.83281 2.28691 7.59551 2.52316 7.30547 2.52316Z" fill="#B5BECF"/>
</svg>
