<svg id="Capa_1" data-name="Capa 1" xmlns="http://www.w3.org/2000/svg" viewBox="0 0 488.11 488.11"><defs><style>.cls-1{fill:#d8403c;stroke:#d8403c;stroke-miterlimit:10;stroke-width:7px;}</style></defs><title>error</title><path class="cls-1" d="M425.54,86.09a240.56,240.56,0,0,0-340.2,340.2,240.56,240.56,0,1,0,340.2-340.2ZM255.44,468.56c-117.1,0-212.36-95.27-212.36-212.37S138.34,43.83,255.44,43.83s212.37,95.26,212.37,212.36S372.54,468.56,255.44,468.56Z" transform="translate(-11.39 -12.14)"/><path class="cls-1" d="M255,388.48a18.79,18.79,0,0,0,0-37.58h0a18.79,18.79,0,1,0,0,37.58Z" transform="translate(-11.39 -12.14)"/><path class="cls-1" d="M272.87,307.68V132a18.79,18.79,0,1,0-37.58,0V307.68a18.79,18.79,0,1,0,37.58,0Z" transform="translate(-11.39 -12.14)"/></svg>