<svg id="Capa_1" data-name="Capa 1" xmlns="http://www.w3.org/2000/svg" viewBox="0 0 512 512"><defs><style>.cls-1{fill:#d8403c;}</style></defs><title>error</title><path class="cls-1" d="M436.46,75.17a256,256,0,0,0-362,362,256,256,0,0,0,362-362Zm-181,407c-124.61,0-226-101.38-226-226s101.39-226,226-226,226,101.39,226,226S380.06,482.19,255.44,482.19Z" transform="translate(0.56 -0.19)"/><path class="cls-1" d="M255,397a20,20,0,0,0,0-40h0a20,20,0,0,0,0,40Z" transform="translate(0.56 -0.19)"/><path class="cls-1" d="M274,311V124a20,20,0,1,0-40,0V311a20,20,0,0,0,40,0Z" transform="translate(0.56 -0.19)"/></svg>