<svg width="14" height="10" viewBox="0 0 14 10" fill="none" xmlns="http://www.w3.org/2000/svg">
<path d="M6.45678 0.0225227C7.92331 -0.120057 9.37626 0.429892 10.578 1.23105C11.7254 2.01184 12.7438 3.00311 13.4975 4.1709C13.6808 4.49001 13.9388 4.84985 13.8437 5.23685C13.7351 5.63743 13.4907 5.97691 13.2598 6.31638C12.3908 7.49775 11.2705 8.5026 9.98732 9.21549C9.87189 9.29018 9.72931 9.28339 9.6071 9.34449C8.56831 9.8537 7.38015 10.1185 6.22594 9.94876C5.56057 9.8537 4.91557 9.64323 4.3113 9.35128C4.18909 9.29018 4.0533 9.29018 3.93788 9.22228C3.07562 8.74023 2.29482 8.12238 1.6023 7.41628C1.05914 6.84596 0.543136 6.23491 0.169714 5.54238C0.0678718 5.35227 -0.0475495 5.12822 0.0203454 4.91096C0.149346 4.51038 0.393767 4.15732 0.638189 3.81785C1.32393 2.8809 2.15903 2.05258 3.10277 1.38042C4.09404 0.674314 5.24146 0.144734 6.45678 0.0225227ZM6.62652 1.40079C5.38404 1.49584 4.22304 2.29021 3.67309 3.41048C3.23856 4.28632 3.17746 5.33869 3.50335 6.25527C3.84962 7.23975 4.65078 8.05449 5.62167 8.42791C6.27346 8.67912 6.99994 8.74023 7.68568 8.59086C8.772 8.3736 9.72253 7.61996 10.2046 6.6287C10.578 5.86827 10.6731 4.97885 10.4694 4.15053C10.2317 3.17285 9.56637 2.31737 8.69052 1.83532C8.07268 1.49584 7.33942 1.34647 6.62652 1.40079Z" fill="#BCC0CA"/>
<path d="M6.23265 3.11177C6.90481 2.87414 7.69239 3.00314 8.23555 3.46482C8.92808 4.02156 9.1725 5.05356 8.79908 5.86151C8.43924 6.7102 7.44797 7.2262 6.54497 7.03609C5.64876 6.87315 4.93586 6.05841 4.90191 5.14862C4.87475 4.80914 4.94944 4.47646 5.07844 4.17093C5.69628 4.45609 6.31413 4.74125 6.93197 5.0332C6.70113 4.38819 6.4635 3.74998 6.23265 3.11177Z" fill="#BCC0CA"/>
</svg>
