<svg id="Capa_1" data-name="Capa 1" xmlns="http://www.w3.org/2000/svg" viewBox="0 0 517 421.95"><defs><style>.cls-1{fill:#316fea;}</style></defs><path class="cls-1" d="M403.49,154.92H222.38l-36-43.25a6.13,6.13,0,0,0-4.92-2.24H35.31A40.82,40.82,0,0,0-5,150.44v266a40.81,40.81,0,0,0,40.55,41H403.49a40.79,40.79,0,0,0,40.55-41V195.88A40.79,40.79,0,0,0,403.49,154.92Z" transform="translate(5 -35.44)"/><path class="cls-1" d="M471.69,80.93H290.53l-36-43.25a6.12,6.12,0,0,0-4.92-2.24H103.51A40.7,40.7,0,0,0,63.4,70.83H196.63a23.5,23.5,0,0,1,18.11,8.51l30.76,36.93h173c32,0,57.92,26.24,58,58.56V383A40.84,40.84,0,0,0,512,342.39V121.84A40.8,40.8,0,0,0,471.69,80.93Z" transform="translate(5 -35.44)"/></svg>