<svg id="Layer_1" data-name="Layer 1" xmlns="http://www.w3.org/2000/svg" viewBox="0 0 512 512"><defs><style>.cls-1{fill:#316fea;}</style></defs><title>gear</title><path class="cls-1" d="M500.63,211.45,441.9,197a193.57,193.57,0,0,0-13.55-32.25c8.82-14.68,27.35-45.58,27.35-45.58a15,15,0,0,0-2.25-18.32L411,58.44a15,15,0,0,0-18.32-2.26L347.05,83.53A193.16,193.16,0,0,0,315,70.1L300.55,11.37A15,15,0,0,0,286,0H226a15,15,0,0,0-14.55,11.37s-10,41-14.43,58.71a193.73,193.73,0,0,0-34,14.5l-47.33-28.4a15,15,0,0,0-18.32,2.26L54.91,100.86a15,15,0,0,0-2.26,18.32l29.27,48.89A192.85,192.85,0,0,0,70.1,197L11.37,211.45A15,15,0,0,0,0,226v60a15,15,0,0,0,11.37,14.55L70.11,315a194,194,0,0,0,13.8,32.8L57.72,391.44A15,15,0,0,0,60,409.76l42.42,42.43a15,15,0,0,0,18.32,2.25l43.76-26.22A193.22,193.22,0,0,0,197,441.92l14.43,58.71A15,15,0,0,0,226,512h60a15,15,0,0,0,14.55-11.37L315,441.92a190.87,190.87,0,0,0,33.29-14.14l44.44,26.66A15,15,0,0,0,411,452.19l42.43-42.43a15,15,0,0,0,2.25-18.32l-27-44.93A191.49,191.49,0,0,0,441.9,315l58.73-14.44A15,15,0,0,0,512,286V226A15,15,0,0,0,500.63,211.45ZM256,361A105,105,0,1,1,361,256,105.13,105.13,0,0,1,256,361Z"/></svg>