<svg id="Layer_1" data-name="Layer 1" xmlns="http://www.w3.org/2000/svg" viewBox="0 0 20.97 20.86"><defs><style>.cls-1{fill:#316fea;}</style></defs><title>gift</title><path class="cls-1" d="M7.34,4.33a3.1,3.1,0,0,1,3.5-2.2,5.57,5.57,0,0,1,2.67,2.45A5.52,5.52,0,0,1,16.2,2.13a3.08,3.08,0,0,1,3.43,2A3.18,3.18,0,0,1,19,7.31h5V11.5H14.57V8.35h-2.1V11.5H3V7.3H8A3.17,3.17,0,0,1,7.34,4.33Zm2,.83a1.06,1.06,0,0,0,1,1.09c.59,0,1.19,0,1.79,0a8.24,8.24,0,0,0-1.26-1.73,1.28,1.28,0,0,0-.53-.37A1.06,1.06,0,0,0,9.32,5.16Zm7.06-.82A7.61,7.61,0,0,0,15,6.26c.62,0,1.25,0,1.87,0a1.05,1.05,0,0,0,.74-1.55C17.36,4.29,16.75,4,16.38,4.34Z" transform="translate(-3.03 -2.07)"/><path class="cls-1" d="M4.08,13.48h8.39c0,3.15,0,6.3,0,9.44H4.08C4.07,19.78,4.08,16.63,4.08,13.48Z" transform="translate(-3.03 -2.07)"/><path class="cls-1" d="M14.56,13.48H23c0,3.15,0,6.3,0,9.44H14.56Z" transform="translate(-3.03 -2.07)"/></svg>