<?xml version="1.0" encoding="utf-8"?>
<!-- Generator: Adobe Illustrator 24.0.0, SVG Export Plug-In . SVG Version: 6.00 Build 0)  -->
<svg version="1.1" id="Layer_1" xmlns="http://www.w3.org/2000/svg" xmlns:xlink="http://www.w3.org/1999/xlink" x="0px" y="0px"
	 viewBox="0 0 53.6 20.8" style="enable-background:new 0 0 53.6 20.8;" xml:space="preserve">
<style type="text/css">
	.st0{fill:#316FEA;}
</style>
<title>gift_word</title>
<path class="st0" d="M1.1,11.4h8.4v9.4H1.1C1,17.7,1.1,14.6,1.1,11.4z"/>
<path class="st0" d="M4.3,2.1c0.4-1.5,1.9-2.5,3.5-2.2C9,0.4,9.9,1.3,10.5,2.3c0.6-1.1,1.5-2,2.7-2.4c1.5-0.3,2.9,0.6,3.4,2
	C17,3,16.8,4.2,16,5.1h5v4.2h-9.5V6.1H9.5v3.2H0V5.1h5C4.3,4.3,4,3.1,4.3,2.1z M6.3,2.9c0,0.6,0.4,1.1,1,1.1h1.8
	C8.8,3.4,8.4,2.8,7.9,2.3C7.7,2.1,7.5,2,7.3,1.9C6.8,1.9,6.4,2.4,6.3,2.9L6.3,2.9z M13.4,2.1c-0.6,0.6-1,1.2-1.4,1.9h1.9
	c0.6-0.1,0.9-0.6,0.8-1.2c0-0.1-0.1-0.2-0.1-0.3C14.4,2.1,13.8,1.8,13.4,2.1L13.4,2.1z"/>
<path class="st0" d="M11.6,11.2H20v9.4h-8.5V11.2z"/>
<path class="st0" d="M32.8,7.1c1.3,0,2.6,0.6,3.3,1.8l-1.4,0.8c-0.4-0.6-1.1-1-1.9-1c-1.4,0-2.5,1.1-2.5,2.5c0,0.1,0,0.1,0,0.2
	c-0.1,1.4,1,2.5,2.3,2.6c0.1,0,0.1,0,0.2,0c0.6,0,1.2-0.2,1.7-0.6v-1h-2.1v-1.4h3.8v3c-0.9,1-2.1,1.5-3.4,1.5
	c-2.2,0.1-4.1-1.6-4.2-3.9c0-0.1,0-0.2,0-0.3c0-2.2,1.8-4.1,4-4.1C32.6,7.1,32.7,7.1,32.8,7.1z"/>
<path class="st0" d="M37.5,7.3h1.7v8h-1.7V7.3z"/>
<path class="st0" d="M40.8,7.3h5.7v1.5h-4v1.7h3.9v1.5h-3.8v3.3h-1.7V7.3z"/>
<path class="st0" d="M49.5,8.8h-2.3V7.3h6.4v1.5h-2.3v6.5h-1.7V8.8z"/>
</svg>
