<svg id="Capa_1" data-name="Capa 1" xmlns="http://www.w3.org/2000/svg" viewBox="0 0 482.13 481.99"><defs><style>.cls-1{fill:#316fea;}</style></defs><title>guide</title><path class="cls-1" d="M475.27,126.6h0l-31.12-4.44a8,8,0,0,1-3.67-14.32L465.61,89a8,8,0,0,0,1.6-11.2l-28.8-38.4a8,8,0,0,0-11.2-1.6L402.06,56.63a8,8,0,0,1-12.75-7.53L393.76,18A8,8,0,0,0,387,8.92h0L339.48,2.14a8,8,0,0,0-9.06,6.78h0L326,40a8,8,0,0,1-14.32,3.68L292.8,18.56A8,8,0,0,0,281.6,17l-24,18a155.59,155.59,0,0,0-32.72,0,152,152,0,0,0-134,136.3c-.22,2.26-.3,4.51-.41,6.76H88a8,8,0,0,0-7.83,6.4l-5.52,26.29L52.51,195.47a8,8,0,0,0-10.2.93l-24,24a8,8,0,0,0-.93,10.19l15.2,22.11L6.29,258.23A8,8,0,0,0,0,266.06v32a8,8,0,0,0,6.35,7.83l26.3,5.53-15.2,22.1a8,8,0,0,0,.93,10.19l24,24a8,8,0,0,0,10.2.93l22.1-15.24,5.53,26.3A8,8,0,0,0,88,386.1h32a8,8,0,0,0,7.83-6.35l5.53-26.3,22.11,15.2a8,8,0,0,0,10.19-.93l12.42-12.46v22.8a31.89,31.89,0,0,0,16,27.55v44.45a32,32,0,0,0,32,32h32a32,32,0,0,0,32-32V405.61a31.87,31.87,0,0,0,16-27.55V346.4a39.2,39.2,0,0,1,18.51-32.66,153.76,153.76,0,0,0,18.83-14.4l-10.67-11.92a136.7,136.7,0,0,1-16.86,12.89,55.12,55.12,0,0,0-25.81,46.09v31.66a16,16,0,0,1-16,16h-64a16,16,0,0,1-16-16V345.73a53.8,53.8,0,0,0-25.37-45.15,135.59,135.59,0,0,1,71.65-250.4,9,9,0,0,0-.31.87A8,8,0,0,0,241.61,57l18.85,25.14a7.83,7.83,0,0,1,.48,8.88,7.94,7.94,0,0,1-8,3.85L221.82,90.4a8,8,0,0,0-9,6.79h0L206,144.71a8,8,0,0,0,6.78,9h0l31.12,4.45a8,8,0,0,1,3.67,14.32l-25.14,18.86a8,8,0,0,0-1.6,11.2l28.8,38.4a8,8,0,0,0,11.2,1.6L286,223.73a8,8,0,0,1,12.71,7.53l-4.44,31.12a8,8,0,0,0,6.78,9.06h0l47.52,6.79a8.68,8.68,0,0,0,1.13.07,8,8,0,0,0,7.93-6.87L362,240.32a8,8,0,0,1,14.32-3.68l18.86,25.15a8,8,0,0,0,11.2,1.6l38.4-28.8a8,8,0,0,0,1.6-11.2l-18.85-25.15a7.86,7.86,0,0,1-.48-8.88,7.77,7.77,0,0,1,8-3.84L466.21,190a8,8,0,0,0,9.05-6.78h0l6.79-47.52A8,8,0,0,0,475.27,126.6ZM210.11,410.06h64v16h-64Zm0,32h64v8a16,16,0,0,1-16,16h-32a16,16,0,0,1-16-16Zm-63.69-138a151.6,151.6,0,0,0,13.68,10,39.14,39.14,0,0,1,16.12,20.47l-17.16,17.13L142.44,340.2a16,16,0,0,0-24.74,9.88l-4.19,20h-19l-4.2-19.94a16,16,0,0,0-24.73-9.88L48.94,351.66,34.37,337.12l11.45-16.61a16,16,0,0,0-9.88-24.75L16,291.56v-19l19.94-4.2a16,16,0,0,0,9.88-24.69L34.37,227l14.57-14.54,16.64,11.45a16,16,0,0,0,22.25-4.11A15.83,15.83,0,0,0,90.3,214l1.4-6.66a153,153,0,0,0,6.35,27.13,48,48,0,1,0,48.37,69.6ZM134,292.83a32,32,0,1,1-30-42.77h.3A151.75,151.75,0,0,0,134,292.83ZM460.51,173l-23.2-3.31a24,24,0,0,0-22.59,38.16l14.06,18.74-25.6,19.2L389.11,227a24,24,0,0,0-43,11l-3.24,23.23-31.67-4.53,3.31-23.2a24,24,0,0,0-38.16-22.6L257.65,225l-19.2-25.6,18.73-14.07a24,24,0,0,0-11-43L223,139.05l4.53-31.67,23.2,3.31a24,24,0,0,0,22.6-38.16l-14.1-18.76,25.6-19.2,14.06,18.75a24,24,0,0,0,43-11l3.31-23.2,31.68,4.52-3.32,23.2a24,24,0,0,0,38.16,22.59l18.75-14.06L449.61,81,430.86,95a24,24,0,0,0,11,43l23.2,3.31Z" transform="translate(0 -0.07)"/><path class="cls-1" d="M344,76.17a64,64,0,1,0,64,64A64,64,0,0,0,344,76.17Zm0,112a48,48,0,1,1,48-48A48,48,0,0,1,344,188.17Z" transform="translate(0 -0.07)"/><rect class="cls-1" x="234.11" y="353.99" width="16" height="24"/><path class="cls-1" d="M207.12,275.49a96,96,0,0,1-16.21-170.66l-8.55-13.54a112,112,0,0,0,18.95,199.09,51.07,51.07,0,0,1,32.8,47.68h16A66.93,66.93,0,0,0,207.12,275.49Z" transform="translate(0 -0.07)"/><rect class="cls-1" x="394.11" y="297.99" width="56" height="16"/><rect class="cls-1" x="402.12" y="334.81" width="16" height="62.48" transform="translate(-133.63 446.77) rotate(-50.2)"/><rect class="cls-1" x="346.11" y="361.99" width="16" height="56"/><rect class="cls-1" x="9.12" y="130.05" width="65.96" height="15.99" transform="translate(-32.22 14.27) rotate(-14.03)"/><rect class="cls-1" x="46.11" y="35.66" width="15.99" height="68.81" transform="matrix(0.58, -0.81, 0.81, 0.58, -34.36, 73.3)"/><rect class="cls-1" x="97.93" y="1.02" width="16" height="66.05" transform="translate(-5.13 27.24) rotate(-14.34)"/></svg>