<?xml version="1.0" encoding="utf-8"?>
<!-- Generator: Adobe Illustrator 23.0.3, SVG Export Plug-In . SVG Version: 6.00 Build 0)  -->
<svg version="1.1" id="Layer_1" xmlns="http://www.w3.org/2000/svg" xmlns:xlink="http://www.w3.org/1999/xlink" x="0px" y="0px"
	 viewBox="0 0 512 512" style="enable-background:new 0 0 512 512;" xml:space="preserve">
<style type="text/css">
	.st0{fill:#316FEA;}
</style>
<path class="st0" d="M482,0H30C13.5,0,0,13.5,0,30v452c0,16.5,13.5,30,30,30h452c16.5,0,30-13.5,30-30V30C512,13.5,498.5,0,482,0z
	 M482,492H30c-5.5,0-10-4.5-10-10V124h191c5.5,0,10-4.5,10-10s-4.5-10-10-10H20V30c0-5.5,4.5-10,10-10h452c5.5,0,10,4.5,10,10v74
	H301c-5.5,0-10,4.5-10,10s4.5,10,10,10h191v358C492,487.5,487.5,492,482,492z"/>
<path class="st0" d="M274.2,62c0-5.5-4.5-10-10-10H90c-5.5,0-10,4.5-10,10s4.5,10,10,10h174.2C269.7,72,274.2,67.5,274.2,62z"/>
<path class="st0" d="M333.5,72c2.6,0,5.2-1.1,7.1-2.9s2.9-4.4,2.9-7.1s-1.1-5.2-2.9-7.1s-4.4-2.9-7.1-2.9s-5.2,1.1-7.1,2.9
	s-2.9,4.4-2.9,7.1s1.1,5.2,2.9,7.1S330.9,72,333.5,72z"/>
<path class="st0" d="M421.5,72c2.6,0,5.2-1.1,7.1-2.9s2.9-4.4,2.9-7.1s-1.1-5.2-2.9-7.1s-4.4-2.9-7.1-2.9s-5.2,1.1-7.1,2.9
	s-2.9,4.4-2.9,7.1s1.1,5.2,2.9,7.1S418.9,72,421.5,72z"/>
<path class="st0" d="M377.5,72c2.6,0,5.2-1.1,7.1-2.9s2.9-4.4,2.9-7.1s-1.1-5.2-2.9-7.1s-4.4-2.9-7.1-2.9s-5.2,1.1-7.1,2.9
	s-2.9,4.4-2.9,7.1s1.1,5.2,2.9,7.1S374.9,72,377.5,72z"/>
<path class="st0" d="M170,268h-70v-70c0-5.5-4.5-10-10-10s-10,4.5-10,10v80c0,5.5,4.5,10,10,10h80c5.5,0,10-4.5,10-10
	S175.5,268,170,268z"/>
<path class="st0" d="M178,186.4l-32.3,32.3l-12.6-12.6c-3.9-3.9-10.2-3.9-14.1,0s-3.9,10.2,0,14.1l19.7,19.7c2,2,4.5,2.9,7.1,2.9
	s5.1-1,7.1-2.9l39.4-39.4c3.9-3.9,3.9-10.2,0-14.1C188.3,182.5,181.9,182.5,178,186.4z"/>
<path class="st0" d="M170,348H90c-5.5,0-10,4.5-10,10v80c0,5.5,4.5,10,10,10h80c5.5,0,10-4.5,10-10v-80C180,352.5,175.5,348,170,348
	z M160,428h-60v-60h60V428z"/>
<path class="st0" d="M422,404H250c-5.5,0-10,4.5-10,10s4.5,10,10,10h172c5.5,0,10-4.5,10-10S427.5,404,422,404z"/>
<path class="st0" d="M422,348H250c-5.5,0-10,4.5-10,10s4.5,10,10,10h172c5.5,0,10-4.5,10-10S427.5,348,422,348z"/>
<path class="st0" d="M250,264h127c5.5,0,10-4.5,10-10s-4.5-10-10-10H250c-5.5,0-10,4.5-10,10S244.5,264,250,264z"/>
<path class="st0" d="M422,188H250c-5.5,0-10,4.5-10,10s4.5,10,10,10h172c5.5,0,10-4.5,10-10S427.5,188,422,188z"/>
<path class="st0" d="M422,244c-2.6,0-5.2,1.1-7.1,2.9s-2.9,4.4-2.9,7.1s1.1,5.2,2.9,7.1s4.4,2.9,7.1,2.9s5.2-1.1,7.1-2.9
	s2.9-4.4,2.9-7.1s-1.1-5.2-2.9-7.1S424.6,244,422,244z"/>
<path class="st0" d="M256,104c-2.6,0-5.2,1.1-7.1,2.9s-2.9,4.4-2.9,7.1s1.1,5.2,2.9,7.1s4.4,2.9,7.1,2.9s5.2-1.1,7.1-2.9
	s2.9-4.4,2.9-7.1s-1.1-5.2-2.9-7.1S258.6,104,256,104z"/>
</svg>
