<svg id="Isolation_Mode" data-name="Isolation Mode" xmlns="http://www.w3.org/2000/svg" viewBox="0 0 2.17 2.17"><defs><style>.cls-1{fill:#316fea;}</style></defs><title>help</title><path class="cls-1" d="M87.31,71.21a.09.09,0,0,0-.06,0l0-.11a.46.46,0,0,0,0-.2.49.49,0,0,0-.48-.48.41.41,0,0,0-.19,0l-.13,0,0-.06a.11.11,0,0,0-.08,0h-.21a.11.11,0,0,0-.08,0l0,.06-.13,0a.38.38,0,0,0-.19,0,.49.49,0,0,0-.48.48.46.46,0,0,0,.05.2l0,.11a.05.05,0,0,0-.05,0,.09.09,0,0,0,0,.08v.2a.12.12,0,0,0,0,.09l.05,0,0,.11a.46.46,0,0,0-.05.21.48.48,0,0,0,.48.47.41.41,0,0,0,.19,0l.13,0a.16.16,0,0,0,0,.06.09.09,0,0,0,.08,0h.21a.09.09,0,0,0,.08,0,.16.16,0,0,0,0-.06l.13,0a.41.41,0,0,0,.19,0,.48.48,0,0,0,.48-.47.46.46,0,0,0,0-.21l0-.11.06,0a.16.16,0,0,0,0-.09v-.2A.11.11,0,0,0,87.31,71.21Zm-.52-.75a.41.41,0,0,1,.41.41.2.2,0,0,1,0,.11,1,1,0,0,0-.49-.51Zm.39.72-.3,0a.64.64,0,0,0-.43-.43l0-.3A1,1,0,0,1,87.18,71.18Zm-.37.4a.57.57,0,0,1-.37.37.12.12,0,0,0-.11-.07h-.15a.12.12,0,0,0-.11.07.59.59,0,0,1-.37-.37.12.12,0,0,0,.07-.11v-.16a.1.1,0,0,0-.07-.1.61.61,0,0,1,.37-.38.12.12,0,0,0,.11.08h.15a.12.12,0,0,0,.11-.08.6.6,0,0,1,.38.38.1.1,0,0,0-.08.1v.16A.12.12,0,0,0,86.81,71.58Zm-.69-1.19,0,0h.21l0,0a0,0,0,0,1,0,0l0,.38a0,0,0,0,1,0,0h-.15a0,0,0,0,1-.05,0l0-.38A0,0,0,0,1,86.12,70.39Zm-.07.08v.3a.66.66,0,0,0-.43.43l-.3,0A1,1,0,0,1,86.05,70.47Zm-.33,0h.1a1.06,1.06,0,0,0-.49.51.36.36,0,0,1,0-.11A.41.41,0,0,1,85.72,70.46Zm-.48,1v-.2a0,0,0,0,1,0,0l0,0h0l.38,0a0,0,0,0,1,0,0v.16s0,0,0,0l-.38,0h0S85.24,71.51,85.24,71.49Zm.48.83a.4.4,0,0,1-.41-.4.5.5,0,0,1,0-.12,1,1,0,0,0,.49.51Zm-.39-.72.3,0a.67.67,0,0,0,.43.44v.3A1,1,0,0,1,85.33,71.6Zm1.06.8h-.27s0,0,0,0l0-.38a0,0,0,0,1,.05,0h.15a0,0,0,0,1,0,0l0,.38S86.4,72.39,86.39,72.4Zm.08-.08,0-.3a.67.67,0,0,0,.43-.44l.3,0A1,1,0,0,1,86.47,72.32Zm.32,0h-.1a1,1,0,0,0,.49-.51.25.25,0,0,1,0,.12A.4.4,0,0,1,86.79,72.32Zm.49-.83a.05.05,0,0,1,0,0h0l-.38,0s0,0,0,0v-.16a0,0,0,0,1,0,0l.38,0,0,0s0,0,0,0Z" transform="translate(-85.17 -70.31)"/></svg>