<svg width="11" height="12" viewBox="0 0 11 12" fill="none" xmlns="http://www.w3.org/2000/svg">
<path d="M3.65796 10.4925C2.50309 10.4925 1.5677 9.59297 1.5677 8.48242V1.94975H1.04513C0.465083 1.94975 0 2.39699 0 2.95478V10.995C0 11.5477 0.465083 12 1.04513 12H7.83848C8.4133 12 8.88361 11.5477 8.88361 10.995V10.4925H3.65796Z" fill="#BCC0CA"/>
<path d="M10.8641 2.58291L8.30878 0.130653C8.22517 0.0452261 8.10498 0 7.98479 0H4.03942C3.52731 0 3.10925 0.396985 3.10925 0.894472V8.03518C3.10925 8.52764 3.52208 8.92965 4.03942 8.92965H10.0698C10.5819 8.92965 11 8.53266 11 8.03518V2.8995C11 2.78392 10.953 2.66834 10.8641 2.58291ZM7.8855 3.79397C7.53016 3.79397 7.24274 3.51759 7.24274 3.17588V0.638191L10.5245 3.79397H7.8855Z" fill="#BCC0CA"/>
</svg>
