<svg id="Layer_1" data-name="Layer 1" xmlns="http://www.w3.org/2000/svg" viewBox="0 0 21.41 21.13"><defs><style>.cls-1{fill:#316fea;fill-rule:evenodd;}</style></defs><title>resource</title><g id="miu"><g id="Artboard-1"><path id="editor-books-library-collection-glyph" class="cls-1" d="M1,2V21a1,1,0,0,0,1,1H5a1,1,0,0,0,1-1V2A1,1,0,0,0,5,1H2A1,1,0,0,0,1,2ZM7,2V21a1,1,0,0,0,1,1h3a1,1,0,0,0,1-1V2a1,1,0,0,0-1-1H8A1,1,0,0,0,7,2Zm5.63,1,4.91,18.35a1,1,0,0,0,1.22.71l2.92-.78A1,1,0,0,0,22.37,20L17.46,1.68A1,1,0,0,0,16.24,1l-2.92.78A1,1,0,0,0,12.63,3Z" transform="translate(-1 -0.93)"/></g></g></svg>