<svg xmlns="http://www.w3.org/2000/svg" width="16" height="16" viewBox="0 0 16 16">
  <defs>
    <style>
      .cls-1 {
        fill: #366fe0;
        fill-rule: evenodd;
      }
    </style>
  </defs>
  <path class="cls-1" d="M947.859,823.444l-2.315-2.314a0.818,0.818,0,0,0-1.157,1.157L946.7,824.6A0.818,0.818,0,1,0,947.859,823.444Zm0.452-12.54a0.82,0.82,0,0,0-.838.2l-4.243,4.243a0.817,0.817,0,0,0,0,1.157l0.579,0.578,5.758-5.757Zm9.775,9.774-0.418-1.255-5.758,5.757,0.578,0.578a0.817,0.817,0,0,0,1.157,0l4.244-4.242A0.817,0.817,0,0,0,958.086,820.678Zm0.808-9.869a0.818,0.818,0,0,0-.712-0.712,17.3,17.3,0,0,0-2.344-.1c-1.821.051-3.043,0.412-3.735,1.105l-0.8.8h0l-1.294,1.294-3.886,3.885-1.157,1.157,0.578,0.579h0l1.735,1.734,5.98-5.978h0a0.819,0.819,0,0,1,1.157,0,0.8,0.8,0,0,1,.056.062c0.007,0.008.012,0.017,0.019,0.026a0.433,0.433,0,0,1,.03.041c0.01,0.015.019,0.031,0.028,0.047s0.009,0.015.013,0.022,0.016,0.034.024,0.051,0.007,0.014.01,0.022,0.015,0.041.022,0.062c0,0,0,.008,0,0.013a0.826,0.826,0,0,1-.022.531l-0.007.015c0,0.012-.009.023-0.015,0.035a0.151,0.151,0,0,1-.011.022l-0.014.027-0.018.03-0.011.018-0.019.027a0.127,0.127,0,0,1-.013.019l-0.019.024c-0.006.006-.011,0.014-0.017,0.02l-0.019.021-0.02.022h0l-4.822,4.821-1.157,1.158,1.736,1.735,0.578,0.579,1.158-1.157,0.841-.841,3.044-3.045h0l1.294-1.293h0l0.8-.8c0.693-.692,1.054-1.914,1.1-3.735A17.2,17.2,0,0,0,958.894,810.809Z" transform="translate(-943 -810)"/>
</svg>
