<svg xmlns="http://www.w3.org/2000/svg" width="16.5" height="12.09" viewBox="0 0 16.5 12.09">
  <defs>
    <style>
      .cls-1 {
        fill: #366fe0;
        fill-rule: evenodd;
      }
    </style>
  </defs>
  <path id="Forma_1" data-name="Forma 1" class="cls-1" d="M957.879,1100.83a4.652,4.652,0,0,0-2.679.91l1.236,1.61a2.975,2.975,0,0,1,1.443-.5,1.459,1.459,0,0,1,1.545,1.61,4.288,4.288,0,0,0-2.06-.1,3,3,0,0,0-2.164,3.93,2.446,2.446,0,0,0,4.224.6v1.01h2.061v-5.34A3.467,3.467,0,0,0,957.879,1100.83Zm-1.031,6.55c-0.1-1.91,1.546-1.91,2.576-1.81v1C959.424,1107.78,957.055,1108.89,956.848,1107.38Zm-4.739,2.62h2.164l-3.3-12.09h-2.781L945,1110h2.164l1.03-4.03h2.781Zm-3.4-6.05,0.824-3.22,0.927,3.22h-1.751Z" transform="translate(-945 -1097.91)"/>
</svg>
