<svg id="Layer_1" data-name="Layer 1" xmlns="http://www.w3.org/2000/svg" viewBox="0 0 29.1 29.13"><defs><style>.cls-1{fill:#316fea;}</style></defs><title>usage</title><path class="cls-1" d="M17.51,30.55a13,13,0,0,1-13-12A1.9,1.9,0,0,1,5,17.11a1.84,1.84,0,0,1,1.36-.59h9.36a.78.78,0,0,0,.78-.78h0V6.37A1.84,1.84,0,0,1,17.11,5a1.91,1.91,0,0,1,1.44-.5,13,13,0,0,1,12,13.5h0A13.08,13.08,0,0,1,18,30.54Zm-11-12A11,11,0,0,0,18,28.55,11.21,11.21,0,0,0,28.57,18a11,11,0,0,0-10-11.43v9.21a2.8,2.8,0,0,1-2.78,2.78Z" transform="translate(-1.45 -1.42)"/><path class="cls-1" d="M12.67,15.45H3.31A1.84,1.84,0,0,1,2,14.86a1.89,1.89,0,0,1-.49-1.43,13.12,13.12,0,0,1,12-12,1.89,1.89,0,0,1,1.43.49,1.84,1.84,0,0,1,.59,1.36v9.36a2.79,2.79,0,0,1-2.77,2.81Zm-9.21-2h9.21a.78.78,0,0,0,.78-.78V3.42A11.15,11.15,0,0,0,3.46,13.45Z" transform="translate(-1.45 -1.42)"/><path class="cls-1" d="M29.54,18a12,12,0,1,1-24,.48.88.88,0,0,1,.79-.95h9.42a1.78,1.78,0,0,0,1.78-1.78h0V6.37a.87.87,0,0,1,.89-.85h.06A12,12,0,0,1,29.54,18Z" transform="translate(-1.45 -1.42)"/></svg>