<svg xmlns="http://www.w3.org/2000/svg" width="15" height="14" viewBox="0 0 15 14">
  <defs>
    <style>
      .cls-1 {
        fill: #366fe0;
        fill-rule: evenodd;
      }
    </style>
  </defs>
  <path class="cls-1" d="M243.261,218h-2.609a0.644,0.644,0,0,0-.652.636v12.728a0.644,0.644,0,0,0,.652.636h2.609a0.644,0.644,0,0,0,.652-0.636V218.636A0.644,0.644,0,0,0,243.261,218Zm5.815,7h-2.609a1.179,1.179,0,0,0-.923.2v6.364a1.135,1.135,0,0,0,.923.435h2.609a0.358,0.358,0,0,0,.381-0.435V225.2C249.457,225.026,249.436,225,249.076,225Zm5.435-3.838H251.9c-0.36,0-.815.088-0.815,0.361v9.852a0.885,0.885,0,0,0,.815.625h2.609a0.55,0.55,0,0,0,.489-0.625v-9.852C255,221.25,254.871,221.162,254.511,221.162Z" transform="translate(-240 -218)"/>
</svg>
