<svg xmlns="http://www.w3.org/2000/svg" width="16" height="13" viewBox="0 0 16 13">
  <defs>
    <style>
      .cls-1 {
        fill: #366fe0;
        fill-rule: evenodd;
      }
    </style>
  </defs>
  <path class="cls-1" d="M959.274,606.909h-14.54a0.625,0.625,0,0,0-.735.831l0.543,7.42a0.751,0.751,0,0,0,.881.832h13.2a0.744,0.744,0,0,0,.881-0.832l0.506-7.513C960.051,607.192,960.014,606.909,959.274,606.909Zm-0.162-1.975a0.521,0.521,0,0,0-.631-0.621H952.5a1.661,1.661,0,0,1-1.708-.705c-0.572-.6-0.347-0.592-1.528-0.592H946.12c-0.726,0-.985-0.061-1.052.673-0.063.677-.209,2.319-0.23,2.571h14.34Z" transform="translate(-944 -603)"/>
</svg>
