<svg id="Layer_1" data-name="Layer 1" xmlns="http://www.w3.org/2000/svg" viewBox="0 0 370.54 416.08"><defs><style>.cls-1{fill:#316fea;}</style></defs><title>timer</title><path class="cls-1" d="M345.38,278.81a15,15,0,0,1,15-15H375A122.46,122.46,0,0,0,268.73,157.52v14.64a15,15,0,0,1-30,0V157.52A122.46,122.46,0,0,0,132.44,263.81h14.63a15,15,0,0,1,0,30H132.44A122.45,122.45,0,0,0,238.73,400.1V385.46a15,15,0,0,1,30,0V400.1A122.46,122.46,0,0,0,375,293.81H360.38A15,15,0,0,1,345.38,278.81Zm-48.8,42.85a15,15,0,0,1-21.22,0l-32.24-32.24a15,15,0,0,1-4.39-10.61v-39.6a15,15,0,0,1,30,0V272.6l27.85,27.85A15,15,0,0,1,296.58,321.66Z" transform="translate(-68.46 -48)"/><path class="cls-1" d="M268.73,94.15V78H272a15,15,0,0,0,0-30H235.5a15,15,0,0,0,0,30h3.23V94.15C143.56,101.81,68.46,181.7,68.46,278.81c0,102.16,83.11,185.27,185.27,185.27S439,381,439,278.81C439,181.7,363.9,101.81,268.73,94.15ZM253.73,431c-83.93,0-152.21-68.28-152.21-152.21S169.8,126.6,253.73,126.6s152.21,68.28,152.21,152.21S337.66,431,253.73,431Z" transform="translate(-68.46 -48)"/></svg>