<svg xmlns="http://www.w3.org/2000/svg" width="16" height="15" viewBox="0 0 16 15">
  <defs>
    <style>
      .cls-1 {
        fill: #366fe0;
        fill-rule: evenodd;
      }
    </style>
  </defs>
  <path id="Forma_1" data-name="Forma 1" class="cls-1" d="M240,602v15h16V602H240Zm5,14h-4v-2h4v2Zm0-3h-4v-2h4v2Zm0-3h-4v-2h4v2Zm0-3h-4v-2h4v2Zm5,9h-4v-2h4v2Zm0-3h-4v-2h4v2Zm0-3h-4v-2h4v2Zm0-3h-4v-2h4v2Zm5,9h-4v-2h4v2Zm0-3h-4v-2h4v2Zm0-3h-4v-2h4v2Zm0-3h-4v-2h4v2Z" transform="translate(-240 -602)"/>
</svg>
