<svg id="Capa_1" data-name="Capa 1" xmlns="http://www.w3.org/2000/svg" viewBox="0 0 453.61 512"><defs><style>.cls-1{fill:#316fea;}</style></defs><path class="cls-1" d="M29.18,34.4,50.39,13.19,92.8,55.61,71.59,76.81Z" transform="translate(-29.15)"/><path class="cls-1" d="M29.15,295.58l42.42-42.42,21.21,21.21L50.36,316.79Z" transform="translate(-29.15)"/><path class="cls-1" d="M419.14,55.65l42.41-42.42,21.21,21.21L440.34,76.86Z" transform="translate(-29.15)"/><path class="cls-1" d="M419.11,274.41l21.21-21.2,42.41,42.41-21.2,21.21Z" transform="translate(-29.15)"/><path class="cls-1" d="M264.44,171,256,153.88,247.56,171l-18.87,2.74L242.35,187l-3.23,18.79L256,196.93l16.87,8.88L269.65,187l13.65-13.3Z" transform="translate(-29.15)"/><path class="cls-1" d="M181,392H331v45H181Z" transform="translate(-29.15)"/><path class="cls-1" d="M373.27,278.63C396.74,245.26,421,210.76,421,165,421,74,347,0,256,0S91,74,91,165c0,45.76,24.26,80.26,47.73,113.63,18.65,26.52,36.33,53.82,41,83.37H332.28c4.66-29.55,22.34-56.85,41-83.37ZM256,230.83l-56.72,29.82,10.84-63.15-45.88-44.7,63.4-9.25L256,86.12l28.36,57.43,63.4,9.25-45.88,44.7,10.84,63.15Z" transform="translate(-29.15)"/><path class="cls-1" d="M256,512a45.05,45.05,0,0,0,45-45H211A45.05,45.05,0,0,0,256,512Z" transform="translate(-29.15)"/></svg>