<svg width="16" height="16" viewBox="0 0 16 16" fill="none" xmlns="http://www.w3.org/2000/svg">
<path d="M13.6581 2.34435C12.5394 1.22519 11.1139 0.462928 9.56197 0.15397C8.01003 -0.154987 6.40132 0.003241 4.93932 0.608642C3.47731 1.21404 2.22768 2.23942 1.34848 3.55509C0.469278 4.87076 0 6.41761 0 8C0 9.5824 0.469278 11.1293 1.34848 12.4449C2.22768 13.7606 3.47731 14.786 4.93932 15.3914C6.40132 15.9968 8.01003 16.155 9.56197 15.846C11.1139 15.5371 12.5394 14.7748 13.6581 13.6557C15.1576 12.1555 16 10.1211 16 8C16 5.87886 15.1576 3.84455 13.6581 2.34435ZM9.04588 11.4783C9.04588 11.755 8.93594 12.0204 8.74025 12.2161C8.54456 12.4118 8.27915 12.5217 8.0024 12.5217C7.72566 12.5217 7.46024 12.4118 7.26455 12.2161C7.06886 12.0204 6.95893 11.755 6.95893 11.4783V7.30435C6.95893 7.02761 7.06886 6.76219 7.26455 6.5665C7.46024 6.37081 7.72566 6.26087 8.0024 6.26087C8.27915 6.26087 8.54456 6.37081 8.74025 6.5665C8.93594 6.76219 9.04588 7.02761 9.04588 7.30435V11.4783ZM8.0024 5.52C7.87363 5.52822 7.74455 5.50961 7.62334 5.46535C7.50213 5.42109 7.39143 5.35215 7.29825 5.26289C7.20507 5.17363 7.13143 5.06599 7.082 4.9468C7.03257 4.82761 7.00843 4.69945 7.0111 4.57044C7.00646 4.44028 7.02914 4.31059 7.0777 4.18973C7.12625 4.06888 7.19959 3.95953 7.29298 3.86876C7.38638 3.77798 7.49777 3.70779 7.61995 3.66269C7.74214 3.6176 7.87243 3.59862 8.0024 3.60696C8.13487 3.59565 8.26825 3.61198 8.39407 3.65492C8.5199 3.69786 8.63544 3.76646 8.73337 3.85638C8.83129 3.94631 8.90947 4.05559 8.96295 4.17731C9.01643 4.29903 9.04405 4.43053 9.04405 4.56348C9.04405 4.69643 9.01643 4.82794 8.96295 4.94966C8.90947 5.07137 8.83129 5.18066 8.73337 5.27058C8.63544 5.36051 8.5199 5.42911 8.39407 5.47205C8.26825 5.51498 8.13487 5.53131 8.0024 5.52Z" fill="#CBCBCB"/>
</svg>
