<svg width="16" height="16" viewBox="0 0 16 16" fill="none" xmlns="http://www.w3.org/2000/svg">
<path d="M15.8263 14.9883L11.5247 10.6866C12.4678 9.55576 13.037 8.10274 13.037 6.51846C13.037 2.92412 10.1129 0 6.5185 0C2.92414 0 0 2.92412 0 6.51846C0 10.1128 2.92414 13.0369 6.5185 13.0369C8.10279 13.0369 9.55582 12.4677 10.6866 11.5246L14.9884 15.8264C15.1041 15.9421 15.2558 16 15.4074 16C15.5589 16 15.7106 15.9421 15.8263 15.8264C16.0579 15.5948 16.0579 15.2197 15.8263 14.9883ZM1.18518 6.51846C1.18518 3.57774 3.57747 1.18517 6.5185 1.18517C9.45952 1.18517 11.8518 3.57774 11.8518 6.51846C11.8518 9.45917 9.45952 11.8517 6.5185 11.8517C3.57747 11.8517 1.18518 9.45917 1.18518 6.51846Z" fill="#D3D6E4"/>
</svg>
