<?xml version="1.0" encoding="utf-8"?>
<!-- Generator: Adobe Illustrator 24.0.0, SVG Export Plug-In . SVG Version: 6.00 Build 0)  -->
<svg version="1.1" id="Layer_1" xmlns="http://www.w3.org/2000/svg" xmlns:xlink="http://www.w3.org/1999/xlink" x="0px" y="0px"
	 viewBox="0 0 542.8 509.1" style="enable-background:new 0 0 542.8 509.1;" xml:space="preserve">
<style type="text/css">
	.st0{fill:#316FEA;}
	.st1{fill:#5DC126;}
</style>
<title>invoice_paid</title>
<path class="st0" d="M377.8,70c0.2,0,0.4,0,0.6,0c0.4,0,0.7,0,1.1-0.1c9.7,0.2,17.5,8.1,17.5,17.9c0,4.4,3.6,8,8,8s8-3.6,8-8
	c0-15.9-11.1-29.6-26.6-33V47c0-4.4-3.6-8-8-8s-8,3.6-8,8v8c-18,4.8-28.8,23.3-24,41.4c3.9,14.8,17.4,25.1,32.7,25.1
	c9.9,0,17.9,8,17.9,17.8c0,9.9-8,17.9-17.8,17.9c-9.9,0-17.9-8-17.9-17.8c0,0,0,0,0,0c0-4.4-3.6-8-8-8s-8,3.6-8,8
	c0,15.3,10.3,28.7,25.1,32.7v8.8c0,4.4,3.6,8,8,8s8-3.6,8-8v-8.4c18.2-4,29.8-22,25.8-40.3c-3.4-15.5-17.2-26.6-33-26.6
	c-9.9,0-17.8-8-17.8-17.9C361.4,78.4,368.5,70.7,377.8,70L377.8,70z"/>
<path class="st0" d="M379.6,0c-49.1,0-91.1,32.1-106.8,75H74.6c-4.4,0-8,4-8,8.3l-1.9,280.2H8.2c-4.4,0-8.2,3.2-8.2,7.6v35.6
	c0.1,33.5,26.5,61,59.9,62.5v0.2h246.6v-0.2c2,0.1,2.8,0.2,4.1,0.2h0.2c34.6,0,62.6-28.1,62.6-62.7V226.9c2,0.1,4.1,0.2,6.2,0.2
	c62.5,0,113.4-51,113.4-113.5S442.1,0,379.6,0z M62.9,453.4L62.9,453.4c-25.8,0-46.8-20.9-46.9-46.8v-27.1h231.6v27
	c0,16.7,6.7,32.6,18.5,44.4c0.8,0.8,1.9,1.5,2.8,2.5L62.9,453.4z M357.4,406.6c0,25.8-20.9,46.7-46.7,46.8h-0.1
	c-25.9-0.1-46.9-21-47-46.9v-35.4c0.1-4.1-3.1-7.5-7.1-7.6c-0.2,0-0.3,0-0.5,0H80.7L82.5,91h185.9c-1.4,7.3-2.1,14.7-2.2,22.2
	c0,15.7,3.3,31.3,9.6,45.7h-75.4c-4.4,0-8,3.6-8,8s3.6,8,8,8h84.1c16.5,25.9,42.8,44,72.9,50V406.6z M379.6,211.1
	c-53.8,0-97.4-43.6-97.5-97.4c0-53.8,43.6-97.4,97.4-97.5S477,59.8,477,113.6c0,0,0,0,0,0C477,167.4,433.4,211,379.6,211.1
	L379.6,211.1z"/>
<path class="st0" d="M149.1,212c-14.1,0-25.6,11.1-25.6,24.8c0,13.7,11.5,24.7,25.6,24.7s25.6-11.1,25.6-24.7S163.2,212,149.1,212z
	 M149.1,245.6c-5.3,0-9.6-3.9-9.6-8.8s4.3-8.8,9.6-8.8s9.6,3.9,9.6,8.8S154.4,245.6,149.1,245.6z"/>
<path class="st0" d="M192.4,236.7c0,4.4,3.6,8,8,8h106.5c4.4,0,8-3.6,8-8s-3.6-8-8-8H200.4C196,228.7,192.4,232.3,192.4,236.7z"/>
<path class="st0" d="M149.1,142.6c-14.1,0-25.6,11.1-25.6,24.8s11.5,24.8,25.6,24.8s25.6-11.1,25.6-24.8S163.2,142.6,149.1,142.6z
	 M149.1,176.1c-5.3,0-9.6-3.9-9.6-8.8s4.3-8.8,9.6-8.8s9.6,3.9,9.6,8.8S154.4,176.1,149.1,176.1z"/>
<path class="st0" d="M149.1,281.4c-14.1,0-25.6,11.1-25.6,24.8s11.5,24.8,25.6,24.8s25.6-11.1,25.6-24.7S163.2,281.4,149.1,281.4z
	 M149.1,315c-5.3,0-9.6-3.9-9.6-8.8s4.3-8.8,9.6-8.8s9.6,3.9,9.6,8.8S154.4,315,149.1,315z"/>
<path class="st0" d="M306.9,298.6H200.4c-4.4,0-8,3.6-8,8s3.6,8,8,8h106.5c4.4,0,8-3.6,8-8S311.3,298.6,306.9,298.6z"/>
<path class="st1" d="M429,281.4c-62.9,0-113.9,50.9-113.9,113.8c0,62.9,50.9,113.9,113.8,113.9c62.9,0,113.9-50.9,113.9-113.8
	c0,0,0,0,0,0C542.8,332.4,491.9,281.5,429,281.4z M410,446.7l-38.3-38.3l13.4-13.4l24.9,24.9l62.9-62.9l13.4,13.4L410,446.7z"/>
</svg>
