<svg id="Layer_1" data-name="Layer 1" xmlns="http://www.w3.org/2000/svg" viewBox="0 0 493 469.37"><defs><style>.cls-1{fill:#a1a4ae;}</style></defs><title>invoice_empty</title><path class="cls-1" d="M377.75,81.73c.22,0,.43,0,.65,0a8.29,8.29,0,0,0,1.11-.08A17.85,17.85,0,0,1,397,99.51a8,8,0,0,0,16,0,33.86,33.86,0,0,0-26.58-33V58.8a8,8,0,0,0-16,0v8a33.81,33.81,0,0,0,8.74,66.48,17.85,17.85,0,1,1-17.84,17.85,8,8,0,0,0-16,0,33.89,33.89,0,0,0,25.08,32.67v8.75a8,8,0,0,0,16,0V184.2a33.81,33.81,0,0,0-7.24-66.84,17.84,17.84,0,0,1-1.4-35.62Z" transform="translate(0 -11.76)"/><path class="cls-1" d="M379.61,11.76c-49.14,0-91.07,32.06-106.78,75H74.58c-4.39,0-8,4-8,8.34L64.71,375.3H8.2c-4.41,0-8.2,3.19-8.2,7.61v35.56A62.76,62.76,0,0,0,59.91,481v.17H306.52v-.23c2,.07,2.81.23,4.08.23h.17a62.73,62.73,0,0,0,62.64-62.73V238.62c2,.11,4.11.17,6.18.17,62.53,0,113.41-51,113.41-113.52S442.14,11.76,379.61,11.76ZM62.94,465.16h0A47,47,0,0,1,16,418.39V391.27H247.61v27a62.66,62.66,0,0,0,18.49,44.39c.84.84,1.88,1.49,2.76,2.49Zm294.49-46.77a46.76,46.76,0,0,1-46.67,46.77h-.15a47.11,47.11,0,0,1-47-46.88V382.91A7.37,7.37,0,0,0,256,375.3H80.68l1.83-272.57H268.39a120.6,120.6,0,0,0-2.19,22.19,112.73,112.73,0,0,0,9.64,45.7H200.4a8,8,0,0,0,0,16h84.11a112.71,112.71,0,0,0,72.92,50Zm22.18-195.58A97.43,97.43,0,1,1,477,125.39,97.42,97.42,0,0,1,379.61,222.81Z" transform="translate(0 -11.76)"/><path class="cls-1" d="M149.13,223.78c-14.1,0-25.56,11.11-25.56,24.76s11.46,24.75,25.56,24.75,25.57-11.1,25.57-24.75S163.23,223.78,149.13,223.78Zm0,33.53c-5.29,0-9.59-3.93-9.59-8.77s4.3-8.78,9.59-8.78,9.6,3.94,9.6,8.78S154.42,257.31,149.13,257.31Z" transform="translate(0 -11.76)"/><path class="cls-1" d="M192.41,248.5a8,8,0,0,0,8,8H306.89a8,8,0,0,0,0-16H200.4A8,8,0,0,0,192.41,248.5Z" transform="translate(0 -11.76)"/><path class="cls-1" d="M149.13,154.35c-14.1,0-25.56,11.11-25.56,24.76s11.46,24.75,25.56,24.75,25.57-11.1,25.57-24.75S163.23,154.35,149.13,154.35Zm0,33.54c-5.29,0-9.59-3.94-9.59-8.78s4.3-8.79,9.59-8.79,9.6,3.94,9.6,8.79-4.31,8.78-9.6,8.78Z" transform="translate(0 -11.76)"/><path class="cls-1" d="M149.13,293.21c-14.1,0-25.56,11.1-25.56,24.75s11.46,24.75,25.56,24.75S174.7,331.61,174.7,318,163.23,293.21,149.13,293.21Zm0,33.53c-5.29,0-9.59-3.93-9.59-8.78s4.3-8.78,9.59-8.78,9.6,3.94,9.6,8.78S154.42,326.74,149.13,326.74Z" transform="translate(0 -11.76)"/><path class="cls-1" d="M306.89,310.4H200.4a8,8,0,1,0,0,16H306.89a8,8,0,0,0,0-16Z" transform="translate(0 -11.76)"/></svg>