<svg xmlns="http://www.w3.org/2000/svg" viewBox="0 0 38.52 38.52"><defs><style>.cls-1{fill:#366fe0;stroke:#366fe0;stroke-miterlimit:10;stroke-width:0.02px;}</style></defs><title>Asset 8</title><g id="Layer_2" data-name="Layer 2"><g id="Layer_8" data-name="Layer 8"><path id="plain" class="cls-1" d="M0,0v38.5h38.5V0ZM20.37,32.82a4.55,4.55,0,0,1-2.91,2.28,7,7,0,0,1-5.15-.64A5.7,5.7,0,0,1,10.19,32l2.93-1.8a2.19,2.19,0,0,1,.2.33,3.12,3.12,0,0,0,1.33,1.38,2,2,0,0,0,2.52-.74c.32-.56.22-2.35.22-4.34,0-3.11,0-6.21,0-9.29H21c0,3.38,0,6.59,0,9.9C21,29.5,21.2,31.3,20.37,32.82Zm15-1c-1.26,4.29-8.25,4.42-11,1.59A6.49,6.49,0,0,1,23,31.61l2.93-1.69a4.14,4.14,0,0,0,2.81,2.14c1.77.21,3.55-.39,3.15-2.28-.41-1.53-3.62-1.9-5.81-3.55a5,5,0,0,1-.92-7.18,5.19,5.19,0,0,1,2.74-1.62L29,17.29a5.41,5.41,0,0,1,4.55,1.65,7.17,7.17,0,0,1,.93,1.24L31.68,22a2.72,2.72,0,0,0-1.57-1.45,1.84,1.84,0,0,0-2.44,1.05,2,2,0,0,0,.07,1.13c.39.89,1.71,1.28,2.89,1.82,3.39,1.38,4.54,2.86,4.82,4.61A5.41,5.41,0,0,1,35.34,31.8Z"/></g></g></svg>