<svg id="Capa_1" data-name="Capa 1" xmlns="http://www.w3.org/2000/svg" viewBox="0 0 283.18 283.18"><defs><style>.cls-1{fill:#316fea;}</style></defs><path class="cls-1" d="M254.81,140.71h-20a7.5,7.5,0,0,0-7.5,7.5V239.4a8.79,8.79,0,0,1-8.78,8.78H43.78A8.79,8.79,0,0,1,35,239.4V64.64a8.79,8.79,0,0,1,8.78-8.78h95.85a7.5,7.5,0,0,0,7.5-7.5v-20a7.5,7.5,0,0,0-7.5-7.5H43.78A43.83,43.83,0,0,0,0,64.64V239.4a43.83,43.83,0,0,0,43.78,43.78H218.53a43.83,43.83,0,0,0,43.78-43.78V148.21A7.5,7.5,0,0,0,254.81,140.71Z" transform="translate(0)"/><path class="cls-1" d="M275.68,0H196.12a7.5,7.5,0,0,0-7.5,7.5v20a7.5,7.5,0,0,0,7.5,7.5h27.31L120.68,137.74a7.5,7.5,0,0,0,0,10.61l14.14,14.14a7.5,7.5,0,0,0,10.61,0L248.18,59.75v27.3a7.5,7.5,0,0,0,7.5,7.5h20a7.5,7.5,0,0,0,7.5-7.5V7.5A7.5,7.5,0,0,0,275.68,0Z" transform="translate(0)"/></svg>