<svg width="20" height="20" viewBox="0 0 20 20" fill="none" xmlns="http://www.w3.org/2000/svg">
<path d="M18.2422 9.45312H1.75781C1.29177 9.45364 0.844964 9.63901 0.515422 9.96855C0.185881 10.2981 0.000516963 10.7449 0 11.2109L0 18.2422C0.000516963 18.7082 0.185881 19.155 0.515422 19.4846C0.844964 19.8141 1.29177 19.9995 1.75781 20H18.2422C18.7082 19.9995 19.155 19.8141 19.4846 19.4846C19.8141 19.155 19.9995 18.7082 20 18.2422V11.2109C20 10.7447 19.8148 10.2976 19.4851 9.96798C19.1555 9.63832 18.7084 9.45313 18.2422 9.45312ZM5.3125 17.6562H2.96875C2.81335 17.6562 2.66431 17.5945 2.55443 17.4846C2.44454 17.3747 2.38281 17.2257 2.38281 17.0703V12.3828C2.38281 12.2274 2.44454 12.0784 2.55443 11.9685C2.66431 11.8586 2.81335 11.7969 2.96875 11.7969C3.12415 11.7969 3.27319 11.8586 3.38307 11.9685C3.49295 12.0784 3.55469 12.2274 3.55469 12.3828V16.4844H5.3125C5.4679 16.4844 5.61694 16.5461 5.72682 16.656C5.8367 16.7659 5.89844 16.9149 5.89844 17.0703C5.89844 17.2257 5.8367 17.3747 5.72682 17.4846C5.61694 17.5945 5.4679 17.6562 5.3125 17.6562ZM8.24219 17.0703C8.24219 17.2257 8.18045 17.3747 8.07057 17.4846C7.96068 17.5945 7.81165 17.6562 7.65625 17.6562C7.50085 17.6562 7.35181 17.5945 7.24193 17.4846C7.13204 17.3747 7.07031 17.2257 7.07031 17.0703V12.3828C7.07031 12.2274 7.13204 12.0784 7.24193 11.9685C7.35181 11.8586 7.50085 11.7969 7.65625 11.7969C7.81165 11.7969 7.96068 11.8586 8.07057 11.9685C8.18045 12.0784 8.24219 12.2274 8.24219 12.3828V17.0703ZM12.9121 12.5246L11.7402 17.2121C11.7085 17.3388 11.6353 17.4513 11.5323 17.5316C11.4294 17.612 11.3025 17.6556 11.1719 17.6556C11.0413 17.6556 10.9144 17.612 10.8114 17.5316C10.7084 17.4513 10.6353 17.3388 10.6035 17.2121L9.43164 12.5246C9.39804 12.3753 9.4242 12.2188 9.50452 12.0885C9.58484 11.9582 9.71295 11.8645 9.86145 11.8275C10.0099 11.7904 10.167 11.8129 10.2992 11.8902C10.4313 11.9675 10.5279 12.0934 10.5684 12.241L11.1719 14.6543L11.7754 12.241C11.8159 12.0934 11.9125 11.9675 12.0446 11.8902C12.1767 11.8129 12.3338 11.7904 12.4823 11.8275C12.6308 11.8645 12.7589 11.9582 12.8392 12.0885C12.9196 12.2188 12.9457 12.3753 12.9121 12.5246ZM17.0312 14.1406C17.1866 14.1406 17.3357 14.2024 17.4456 14.3122C17.5555 14.4221 17.6172 14.5712 17.6172 14.7266C17.6172 14.882 17.5555 15.031 17.4456 15.1409C17.3357 15.2508 17.1866 15.3125 17.0312 15.3125H15.2734V16.4844H17.0312C17.1866 16.4844 17.3357 16.5461 17.4456 16.656C17.5555 16.7659 17.6172 16.9149 17.6172 17.0703C17.6172 17.2257 17.5555 17.3747 17.4456 17.4846C17.3357 17.5945 17.1866 17.6562 17.0312 17.6562H14.6875C14.5321 17.6562 14.3831 17.5945 14.2732 17.4846C14.1633 17.3747 14.1016 17.2257 14.1016 17.0703V12.3828C14.1016 12.2274 14.1633 12.0784 14.2732 11.9685C14.3831 11.8586 14.5321 11.7969 14.6875 11.7969H17.0312C17.1866 11.7969 17.3357 11.8586 17.4456 11.9685C17.5555 12.0784 17.6172 12.2274 17.6172 12.3828C17.6172 12.5382 17.5555 12.6872 17.4456 12.7971C17.3357 12.907 17.1866 12.9687 17.0312 12.9687H15.2734V14.1406H17.0312Z" fill="#316FEA"/>
<path d="M4.84378 7.96875C3.13362 5.6918 3.13362 2.51133 4.84378 0.234377C4.93702 0.110057 5.07583 0.0278683 5.22967 0.00589136C5.3835 -0.0160856 5.53977 0.0239497 5.66409 0.11719C5.78841 0.21043 5.8706 0.349237 5.89258 0.503076C5.91456 0.656914 5.87452 0.813182 5.78128 0.937502C4.38245 2.8 4.38245 5.40235 5.78128 7.26563C5.87452 7.38995 5.91456 7.54621 5.89258 7.70005C5.8706 7.85389 5.78841 7.9927 5.66409 8.08594C5.60254 8.13211 5.53249 8.1657 5.45795 8.18479C5.38341 8.20389 5.30584 8.20812 5.22967 8.19724C5.07583 8.17526 4.93702 8.09307 4.84378 7.96875Z" fill="#316FEA"/>
<path d="M14.3359 8.08594C14.2116 7.9927 14.1294 7.85389 14.1075 7.70005C14.0855 7.54621 14.1255 7.38995 14.2188 7.26563C15.6176 5.40313 15.6176 2.80078 14.2188 0.937502C14.1255 0.813182 14.0855 0.656914 14.1075 0.503076C14.1294 0.349237 14.2116 0.21043 14.3359 0.11719C14.4603 0.0239497 14.6165 -0.0160856 14.7704 0.00589136C14.9242 0.0278683 15.063 0.110057 15.1562 0.234377C16.866 2.51172 16.866 5.69219 15.1562 7.96875C15.1101 8.03031 15.0522 8.08217 14.986 8.12137C14.9198 8.16058 14.8465 8.18635 14.7704 8.19724C14.6942 8.20812 14.6166 8.20389 14.5421 8.18479C14.4675 8.1657 14.3975 8.13211 14.3359 8.08594Z" fill="#316FEA"/>
<path d="M6.9426 6.83555C6.26856 6.08427 5.89575 5.1105 5.89575 4.10117C5.89575 3.09184 6.26856 2.11807 6.9426 1.3668C6.99376 1.30893 7.05585 1.26175 7.1253 1.22797C7.19475 1.19419 7.2702 1.17447 7.3473 1.16995C7.4244 1.16543 7.50163 1.1762 7.57456 1.20163C7.64748 1.22707 7.71466 1.26667 7.77223 1.31816C7.82979 1.36965 7.87661 1.43201 7.90999 1.50166C7.94337 1.5713 7.96265 1.64686 7.96672 1.72399C7.97079 1.80111 7.95958 1.87828 7.93372 1.95106C7.90786 2.02384 7.86787 2.09078 7.81604 2.14805C7.33457 2.68467 7.06827 3.38022 7.06827 4.10117C7.06827 4.82213 7.33457 5.51768 7.81604 6.0543C7.91858 6.17028 7.97105 6.32213 7.96199 6.47668C7.95293 6.63122 7.88307 6.7759 7.76769 6.87911C7.6523 6.98232 7.50075 7.03567 7.34616 7.0275C7.19156 7.01934 7.04648 6.95033 6.9426 6.83555Z" fill="#316FEA"/>
<path d="M12.2296 6.88242C12.1139 6.77877 12.044 6.63337 12.0354 6.47822C12.0269 6.32306 12.0803 6.17086 12.1839 6.05508C12.6654 5.51846 12.9317 4.82291 12.9317 4.10195C12.9317 3.381 12.6654 2.68545 12.1839 2.14883C12.0814 2.03284 12.0289 1.88099 12.038 1.72645C12.047 1.5719 12.1169 1.42723 12.2323 1.32402C12.3477 1.22081 12.4992 1.16746 12.6538 1.17562C12.8084 1.18378 12.9535 1.25279 13.0574 1.36758C13.7314 2.11886 14.1042 3.09262 14.1042 4.10195C14.1042 5.11129 13.7314 6.08505 13.0574 6.83633C13.0061 6.89374 12.9439 6.94047 12.8746 6.97386C12.8052 7.00725 12.7299 7.02664 12.653 7.03092C12.5762 7.0352 12.4992 7.02429 12.4266 6.99881C12.3539 6.97333 12.287 6.93378 12.2296 6.88242Z" fill="#316FEA"/>
<path d="M10 5.85937C9.65234 5.85937 9.31249 5.75627 9.02342 5.56312C8.73434 5.36997 8.50904 5.09544 8.37599 4.77424C8.24295 4.45305 8.20814 4.09961 8.27596 3.75863C8.34379 3.41765 8.51121 3.10443 8.75704 2.8586C9.00288 2.61277 9.31609 2.44535 9.65707 2.37753C9.99806 2.3097 10.3515 2.34451 10.6727 2.47756C10.9939 2.6106 11.2684 2.8359 11.4616 3.12497C11.6547 3.41404 11.7578 3.7539 11.7578 4.10156C11.7573 4.5676 11.5719 5.01441 11.2424 5.34395C10.9129 5.67349 10.4661 5.85885 10 5.85937Z" fill="#316FEA"/>
</svg>
