<svg width="19" height="27" viewBox="0 0 19 27" fill="none" xmlns="http://www.w3.org/2000/svg">
<path d="M9.22701 17.7923C4.26967 17.7923 0.227844 13.7963 0.227844 8.89617C0.227844 3.99607 4.26967 0 9.22701 0C14.1843 0 18.2278 3.99607 18.2278 8.89617C18.2278 13.8104 14.1869 17.7923 9.22701 17.7923ZM9.22701 4.44809C6.74121 4.44809 4.72659 6.45337 4.72659 8.89617C4.72659 11.339 6.75546 13.3443 9.22701 13.3443C11.7136 13.3443 13.7257 11.339 13.7257 8.89617C13.7257 6.45337 11.7136 4.44809 9.22701 4.44809Z" fill="#316FEA"/>
<path d="M2.65459 25.5591C2.65459 25.5591 3.85473 24.6691 5.38351 24.6691C7.15501 24.6691 8.71229 26.4921 11.9271 26.4921C15.3133 26.4921 17.3417 23.9362 17.3417 23.9362L15.7274 21.3944C15.7274 21.3944 14.5273 22.2839 12.9985 22.2839C11.227 22.2839 9.66972 20.4609 6.45496 20.4609C3.06917 20.4609 1.04029 23.0168 1.04029 23.0168L2.65459 25.5591Z" fill="#316FEA"/>
</svg>
