<svg width="18" height="18" viewBox="0 0 18 18" fill="none" xmlns="http://www.w3.org/2000/svg">
<path d="M11.2502 9.75007C10.8354 9.75007 10.5003 10.0862 10.5003 10.5V13.5003C10.5003 13.9134 10.1642 14.2502 9.75007 14.2502H7.50003V2.99994C7.50003 2.35938 7.09186 1.78703 6.47872 1.57433L6.25653 1.50015H9.75007C10.1642 1.50015 10.5003 1.83695 10.5003 2.2504V4.50044C10.5003 4.91424 10.8357 5.25034 11.2502 5.25034C11.6647 5.25034 12.0001 4.91424 12.0001 4.50044V2.25004C12.0001 1.00971 10.9908 0 9.75007 0H1.68753C1.65906 0 1.63515 0.0126565 1.60738 0.0165238C1.57116 0.0133596 1.53671 0 1.50015 0C0.672904 0 0 0.672552 0 1.4998V15.0001C0 15.6406 0.408172 16.213 1.02131 16.4257L5.53511 17.9304C5.68804 17.9775 5.84027 18 6.00023 18C6.82748 18 7.50003 17.3271 7.50003 16.4999V15.7503H9.75007C10.9904 15.7503 12.0001 14.741 12.0001 13.5003V10.5C12.0001 10.0862 11.6647 9.75007 11.2502 9.75007Z" fill="#B5BECF"/>
<path d="M17.7803 6.96989L14.78 3.96996C14.5656 3.7555 14.2432 3.69081 13.9626 3.80718C13.6831 3.9232 13.5003 4.19707 13.5003 4.50012V6.75016H10.5004C10.0862 6.75016 9.75012 7.08591 9.75012 7.50006C9.75012 7.91421 10.0862 8.24996 10.5004 8.24996H13.5003V10.5C13.5003 10.8031 13.6835 11.0769 13.963 11.1929C14.2435 11.309 14.5659 11.2446 14.7804 11.0302L17.7807 8.02987C18.0735 7.73702 18.0735 7.2631 17.7803 6.96989Z" fill="#B5BECF"/>
</svg>
