<svg id="Isolation_Mode" data-name="Isolation Mode" xmlns="http://www.w3.org/2000/svg" viewBox="0 0 601.81 472.91"><defs><style>.cls-1{fill:#316fea;}.cls-2{fill:#fff;}.cls-3{fill:#2ea52b;}</style></defs><title>mail</title><path class="cls-1" d="M458.33,88H31.67A42.72,42.72,0,0,0-11,130.67V429.33A42.72,42.72,0,0,0,31.67,472H458.33A42.72,42.72,0,0,0,501,429.33V130.67A42.72,42.72,0,0,0,458.33,88ZM31.67,109.33H458.33a20.58,20.58,0,0,1,4.44.9C425.83,144,303.34,256.09,260.48,294.71c-3.35,3-8.76,6.62-15.48,6.62s-12.12-3.6-15.49-6.63C186.65,256.09,64.16,144,27.23,110.23A20.58,20.58,0,0,1,31.67,109.33Zm-21.34,320V130.67a20.44,20.44,0,0,1,1.2-5.9C39.8,150.65,125.26,228.83,180.68,279.22,125.44,326.67,40,407.72,11.46,434.89A20.66,20.66,0,0,1,10.33,429.33Zm448,21.34H31.67a20.34,20.34,0,0,1-4.81-1c29.44-28.07,115.47-109.58,169.74-156,7.07,6.42,13.53,12.27,18.63,16.86,8.79,7.94,19.08,12.13,29.77,12.13s21-4.19,29.76-12.12c5.1-4.59,11.56-10.45,18.64-16.87,54.27,46.42,140.29,127.93,169.74,156A20.34,20.34,0,0,1,458.33,450.67Zm21.34-21.34a20.66,20.66,0,0,1-1.13,5.56c-28.51-27.18-114-108.22-169.22-155.66,55.42-50.4,140.87-128.58,169.15-154.46a20.44,20.44,0,0,1,1.2,5.9Z" transform="translate(11 -88)"/><circle class="cls-2" cx="487.97" cy="357" r="67"/><path class="cls-3" d="M477,333.21A113.85,113.85,0,1,0,590.81,447.09v0A113.85,113.85,0,0,0,477,333.21ZM458,498.42l-38.34-38.33,13.42-13.42L458,471.59l62.86-62.87,13.42,13.42Z" transform="translate(11 -88)"/></svg>