<svg width="24" height="18" viewBox="0 0 24 18" xmlns="http://www.w3.org/2000/svg"><g fill="none"><path d="M4.454 17.824V16.65c0-.45-.285-.743-.773-.743-.244 0-.508.078-.691.332-.143-.215-.346-.332-.651-.332a.666.666 0 0 0-.57.273v-.234h-.427v1.878h.427v-1.037c0-.333.184-.49.468-.49.285 0 .427.177.427.49v1.037h.428v-1.037c0-.333.203-.49.467-.49.285 0 .427.177.427.49v1.037h.468zm6.326-1.878h-.692v-.568h-.427v.568h-.386v.371h.386v.861c0 .43.183.685.671.685.183 0 .387-.059.529-.137l-.122-.352a.69.69 0 0 1-.366.098c-.204 0-.285-.118-.285-.313v-.842h.692v-.371zm3.62-.04a.578.578 0 0 0-.508.274v-.234h-.428v1.878h.428v-1.057c0-.313.142-.489.406-.489.082 0 .183.02.265.04l.122-.392c-.082-.02-.204-.02-.285-.02zm-5.471.196c-.204-.137-.488-.195-.793-.195-.489 0-.814.234-.814.606 0 .313.244.49.671.548l.204.02c.223.039.345.097.345.195 0 .137-.162.235-.447.235-.285 0-.509-.098-.65-.196l-.204.313c.223.157.528.235.834.235.57 0 .894-.254.894-.606 0-.333-.264-.51-.67-.568l-.204-.02c-.183-.019-.326-.058-.326-.176 0-.136.143-.215.367-.215.244 0 .488.098.61.157l.183-.333zm11.349-.195a.578.578 0 0 0-.509.273v-.234h-.427v1.878h.427v-1.057c0-.313.143-.489.407-.489.082 0 .183.02.265.04l.122-.392c-.082-.02-.204-.02-.285-.02zm-5.45.978c0 .567.406.978 1.036.978.285 0 .489-.059.692-.215l-.203-.333a.842.842 0 0 1-.509.176c-.346 0-.59-.234-.59-.606 0-.352.244-.587.59-.607.183 0 .346.059.509.176l.203-.332c-.203-.157-.407-.215-.692-.215-.63 0-1.037.41-1.037.978zm3.945 0v-.94h-.427v.235a.746.746 0 0 0-.61-.273c-.55 0-.977.41-.977.978 0 .567.427.978.977.978.284 0 .488-.098.61-.274v.235h.427v-.94zm-1.566 0c0-.333.224-.607.59-.607.345 0 .59.255.59.607a.588.588 0 0 1-.59.606c-.366-.02-.59-.274-.59-.606zm-5.105-.978c-.57 0-.977.39-.977.978 0 .587.407.978.997.978.285 0 .57-.078.793-.254l-.203-.294a.996.996 0 0 1-.57.196c-.264 0-.528-.118-.59-.45h1.445v-.157c.02-.606-.346-.997-.895-.997zm0 .352c.264 0 .447.156.488.45h-1.017a.508.508 0 0 1 .529-.45zm10.596.626v-1.683h-.427v.978a.746.746 0 0 0-.61-.273c-.55 0-.976.41-.976.978 0 .567.427.978.976.978.285 0 .488-.098.61-.274v.235h.427v-.94zm-1.566 0c0-.333.224-.607.59-.607.346 0 .59.255.59.607 0 .332-.244.606-.59.606-.366-.02-.59-.274-.59-.606zm-14.278 0v-.94h-.427v.235a.746.746 0 0 0-.61-.273c-.55 0-.976.41-.976.978 0 .567.427.978.976.978.285 0 .488-.098.61-.274v.235h.427v-.94zm-1.586 0c0-.333.224-.607.59-.607.345 0 .59.255.59.607a.588.588 0 0 1-.59.606c-.366-.02-.59-.274-.59-.606z" fill="#000" opacity=".5"/><path fill="#FF5F00" d="M8.786 1.683h6.407v11.074H8.786z"/><path d="M9.193 7.22c0-2.25 1.099-4.246 2.787-5.537A7.46 7.46 0 0 0 7.464.176C3.417.176.142 3.326.142 7.22c0 3.893 3.275 7.043 7.322 7.043a7.46 7.46 0 0 0 4.516-1.506C10.292 11.485 9.193 9.47 9.193 7.22z" fill="#EB001B"/><path d="M23.837 7.22c0 3.893-3.274 7.043-7.322 7.043A7.46 7.46 0 0 1 12 12.757c1.708-1.292 2.786-3.287 2.786-5.537S13.688 2.974 12 1.683A7.46 7.46 0 0 1 16.515.176c4.048 0 7.322 3.17 7.322 7.044z" fill="#F79E1B"/></g></svg>