<?xml version="1.0" encoding="utf-8"?>
<!-- Generator: Adobe Illustrator 23.0.1, SVG Export Plug-In . SVG Version: 6.00 Build 0)  -->
<svg version="1.1" id="Layer_1" xmlns="http://www.w3.org/2000/svg" xmlns:xlink="http://www.w3.org/1999/xlink" x="0px" y="0px"
	 viewBox="0 0 24 18" style="enable-background:new 0 0 24 18;" xml:space="preserve">
<style type="text/css">
	.st0{opacity:0.5;enable-background:new    ;}
	.st1{fill:#858585;}
	.st2{fill:#494949;}
	.st3{fill:#AAAAAA;}
</style>
<g>
	<path class="st0" d="M4.5,17.8v-1.2c0-0.5-0.3-0.7-0.8-0.7c-0.2,0-0.5,0.1-0.7,0.3c-0.1-0.2-0.3-0.3-0.7-0.3
		c-0.2,0-0.4,0.1-0.6,0.3v-0.2H1.3v1.9h0.4v-1c0-0.3,0.2-0.5,0.5-0.5c0.3,0,0.4,0.2,0.4,0.5v1h0.4v-1c0-0.3,0.2-0.5,0.5-0.5
		c0.3,0,0.4,0.2,0.4,0.5v1H4.5z M10.8,15.9h-0.7v-0.6H9.7v0.6H9.3v0.4h0.4v0.9c0,0.4,0.2,0.7,0.7,0.7c0.2,0,0.4-0.1,0.5-0.1
		l-0.1-0.4c-0.1,0.1-0.2,0.1-0.4,0.1c-0.2,0-0.3-0.1-0.3-0.3v-0.8h0.7C10.8,16.3,10.8,15.9,10.8,15.9z M14.4,15.9
		c-0.2,0-0.4,0.1-0.5,0.3v-0.2h-0.4v1.9h0.4v-1.1c0-0.3,0.1-0.5,0.4-0.5c0.1,0,0.2,0,0.3,0l0.1-0.4C14.6,15.9,14.5,15.9,14.4,15.9z
		 M8.9,16.1c-0.2-0.1-0.5-0.2-0.8-0.2c-0.5,0-0.8,0.2-0.8,0.6c0,0.3,0.2,0.5,0.7,0.5l0.2,0c0.2,0,0.3,0.1,0.3,0.2
		c0,0.1-0.2,0.2-0.4,0.2s-0.5-0.1-0.7-0.2l-0.2,0.3c0.2,0.2,0.5,0.2,0.8,0.2c0.6,0,0.9-0.3,0.9-0.6c0-0.3-0.3-0.5-0.7-0.6l-0.2,0
		c-0.2,0-0.3-0.1-0.3-0.2c0-0.1,0.1-0.2,0.4-0.2c0.2,0,0.5,0.1,0.6,0.2C8.7,16.4,8.9,16.1,8.9,16.1z M20.3,15.9
		c-0.2,0-0.4,0.1-0.5,0.3v-0.2h-0.4v1.9h0.4v-1.1c0-0.3,0.1-0.5,0.4-0.5c0.1,0,0.2,0,0.3,0l0.1-0.4C20.5,15.9,20.4,15.9,20.3,15.9
		L20.3,15.9z M14.8,16.9c0,0.6,0.4,1,1,1c0.3,0,0.5-0.1,0.7-0.2l-0.2-0.3c-0.1,0.1-0.3,0.2-0.5,0.2c-0.3,0-0.6-0.2-0.6-0.6
		c0-0.4,0.2-0.6,0.6-0.6c0.2,0,0.3,0.1,0.5,0.2l0.2-0.3c-0.2-0.2-0.4-0.2-0.7-0.2C15.2,15.9,14.8,16.3,14.8,16.9L14.8,16.9z
		 M18.8,16.9v-0.9h-0.4v0.2c-0.1-0.2-0.4-0.3-0.6-0.3c-0.5,0-1,0.4-1,1c0,0.6,0.4,1,1,1c0.3,0,0.5-0.1,0.6-0.3v0.2h0.4V16.9
		L18.8,16.9z M17.2,16.9c0-0.3,0.2-0.6,0.6-0.6c0.3,0,0.6,0.3,0.6,0.6c0,0.3-0.2,0.6-0.6,0.6c0,0,0,0,0,0
		C17.4,17.5,17.2,17.2,17.2,16.9z M12.1,15.9c-0.6,0-1,0.4-1,1c0,0.6,0.4,1,1,1c0.3,0,0.6-0.1,0.8-0.3l-0.2-0.3
		c-0.2,0.1-0.4,0.2-0.6,0.2c-0.3,0-0.5-0.1-0.6-0.5H13v-0.2C13,16.3,12.7,15.9,12.1,15.9z M12.1,16.3c0.3,0,0.4,0.2,0.5,0.5h-1
		C11.6,16.4,11.8,16.2,12.1,16.3z M22.7,16.9v-1.7h-0.4v1c-0.1-0.2-0.4-0.3-0.6-0.3c-0.5,0-1,0.4-1,1c0,0.6,0.4,1,1,1
		c0.3,0,0.5-0.1,0.6-0.3v0.2h0.4V16.9L22.7,16.9z M21.1,16.9c0-0.3,0.2-0.6,0.6-0.6c0.3,0,0.6,0.3,0.6,0.6c0,0.3-0.2,0.6-0.6,0.6
		C21.4,17.5,21.1,17.2,21.1,16.9z M6.9,16.9v-0.9H6.4v0.2c-0.1-0.2-0.4-0.3-0.6-0.3c-0.6,0-1,0.4-1,1c0,0.6,0.4,1,1,1
		c0.3,0,0.5-0.1,0.6-0.3v0.2h0.4V16.9L6.9,16.9z M5.3,16.9c0-0.3,0.2-0.6,0.6-0.6c0.3,0,0.6,0.3,0.6,0.6c0,0.3-0.2,0.6-0.6,0.6
		c0,0,0,0,0,0C5.5,17.5,5.3,17.2,5.3,16.9z"/>
	<path class="st1" d="M8.8,1.7h6.4v11.1H8.8V1.7z"/>
	<path class="st2" d="M9.2,7.2C9.2,5,10.3,3,12,1.7c-1.3-1-2.9-1.5-4.5-1.5c-4,0-7.3,3.2-7.3,7c0,3.9,3.3,7,7.3,7
		c1.6,0,3.2-0.5,4.5-1.5C10.3,11.5,9.2,9.5,9.2,7.2z"/>
	<path class="st3" d="M23.8,7.2c0,3.9-3.3,7-7.3,7c-1.6,0-3.2-0.5-4.5-1.5c1.7-1.3,2.8-3.3,2.8-5.5S13.7,3,12,1.7
		c1.3-1,2.9-1.5,4.5-1.5C20.6,0.2,23.8,3.3,23.8,7.2z"/>
</g>
</svg>
