<svg id="_6" data-name="6" xmlns="http://www.w3.org/2000/svg" viewBox="0 0 256 256"><defs><style>.cls-1{fill:#e53721;}.cls-2{fill:#fff;}</style></defs><rect class="cls-1" width="256" height="256" rx="50"/><path class="cls-2" d="M223.94,97v14.4a3.2,3.2,0,0,1-3.2,3.2H35.14a3.2,3.2,0,0,1-3.2-3.2V97a3.2,3.2,0,0,1,3.2-3.2h185.6A3.2,3.2,0,0,1,223.94,97Zm0-12.8v-9.6a16,16,0,0,0-16-16h-160a16,16,0,0,0-16,16v9.6a3.2,3.2,0,0,0,3.2,3.2h185.6A3.2,3.2,0,0,0,223.94,84.22Zm-37.83,63.36a3.23,3.23,0,0,0-2.44,4.33,16.82,16.82,0,0,1,0,11.82A3.2,3.2,0,0,0,186,168a10.4,10.4,0,1,0,.1-20.46ZM35.14,121h185.6a3.2,3.2,0,0,1,3.2,3.2v60a16,16,0,0,1-16,16h-160a16,16,0,0,1-16-16v-60A3.2,3.2,0,0,1,35.14,121Zm56,46.8a3.2,3.2,0,0,0-3.2-3.2H61.14a3.2,3.2,0,0,0,0,6.4h26.8A3.2,3.2,0,0,0,91.14,167.82Zm0-20a3.2,3.2,0,0,0-3.2-3.2H61.14a3.2,3.2,0,0,0,0,6.4h26.8A3.2,3.2,0,0,0,91.14,147.82Zm113.6,10a16.81,16.81,0,0,0-26.8-13.49,16.8,16.8,0,1,0,0,27A16.81,16.81,0,0,0,204.74,157.82Z" transform="translate(0.17 -0.83)"/></svg>