<svg id="_2_copy" data-name="2 copy" xmlns="http://www.w3.org/2000/svg" viewBox="0 0 256 256"><defs><style>.cls-1{fill:#0952dd;}.cls-2{fill:#fff;}</style></defs><rect class="cls-1" width="256" height="256" rx="50"/><path class="cls-2" d="M166.47,33.42H66.85A17.47,17.47,0,0,0,49.4,50.87V208a17.47,17.47,0,0,0,17.45,17.45H189A17.47,17.47,0,0,0,206.49,208V73.44ZM101.76,160H82.13a6.55,6.55,0,0,0-6.55,6.55V179.6a6.55,6.55,0,0,0,6.55,6.55h19.63v13.09H82.13A19.67,19.67,0,0,1,62.49,179.6V166.51a19.67,19.67,0,0,1,19.64-19.64h19.63Zm45.82,0H124.67a3.28,3.28,0,0,0,0,6.55h6.55a16.37,16.37,0,0,1,0,32.73H108.31V186.15h22.91a3.28,3.28,0,0,0,0-6.55h-6.55a16.37,16.37,0,0,1,0-32.73h22.91Zm32.73,38.75.14.52H167l-12.85-52.36h13.09l6.45,25.53,6.26-25.53H193.4ZM154.13,85.78V42.15l43.63,43.63Z" transform="translate(0.17 -0.83)"/></svg>