<svg id="Capa_1" data-name="Capa 1" xmlns="http://www.w3.org/2000/svg" viewBox="0 0 405.8 512"><defs><style>.cls-1{fill:#cbd9f6;}.cls-2{fill:#ef544d;stroke:#fff;stroke-miterlimit:10;stroke-width:21px;}</style></defs><path class="cls-1" d="M185.21,465.81a77.34,77.34,0,0,0,141.58,0Z" transform="translate(-53.1 0)"/><path class="cls-1" d="M256,48.92a174,174,0,0,1,59.41,10.4V57a57.11,57.11,0,0,0-57-57h-4.72a57.11,57.11,0,0,0-57,57v2.25A174.31,174.31,0,0,1,256,48.92Z" transform="translate(-53.1 0)"/><path class="cls-1" d="M443.48,435.76h-375c-7.09,0-13.59-4.78-15.06-11.72a14.57,14.57,0,0,1,8-16.59c1.51-1,12.85-8.91,24.21-32.91,20.87-44.09,25.24-106.18,25.24-150.51C110.93,144,176,79,256,79c79.8,0,144.76,64.75,145.06,144.48,0,.19,0,.38,0,.58,0,44.33,4.37,106.42,25.24,150.51,11.36,24,22.7,31.94,24.21,32.91a14.57,14.57,0,0,1,8,16.59C457.07,431,450.57,435.76,443.48,435.76Zm7.21-28.2h0Z" transform="translate(-53.1 0)"/><path class="cls-2" d="M360,250a82.64,82.64,0,1,0-82.64-82.64A82.58,82.58,0,0,0,360,250Z" transform="translate(-53.1 0)"/></svg>