<svg id="Layer_1" data-name="Layer 1" xmlns="http://www.w3.org/2000/svg" viewBox="0 0 256 256"><defs><style>.cls-1{fill:#36b24f;}.cls-2{fill:#fff;}</style></defs><rect class="cls-1" width="256" height="256" rx="50"/><g id="Layer_37" data-name="Layer 37"><path class="cls-2" d="M217.37,128.5c0-2.75,1.47-6.4,2.88-10,2.43-6,5.18-12.87,2.81-19.78s-8.89-11.07-14.59-14.66c-3.26-2-6.65-4.09-8.25-6.14s-2.63-5.7-3.65-9.47c-1.79-6.27-3.77-13.44-9.92-17.73S173.09,47,166.37,47.28c-4,.2-8.07.39-10.82-.51C153,46,150.05,43.7,147,41.33c-5.31-4.16-11.32-8.83-19-8.83s-13.7,4.67-19,8.83c-3.07,2.37-6,4.67-8.58,5.44-2.75.9-6.84.71-10.81.51-6.72-.32-14.27-.7-20.29,3.46S61.17,62.2,59.37,68.47c-1,3.77-2,7.36-3.64,9.47s-5,4.16-8.19,6.14c-5.76,3.59-12.29,7.62-14.66,14.66s.39,13.76,2.82,19.78c1.4,3.58,2.88,7.23,2.88,10s-1.48,6.4-2.88,10c-2.43,6-5.19,12.87-2.82,19.78s8.9,11.07,14.59,14.66c3.27,2,6.66,4.09,8.26,6.14s2.62,5.7,3.64,9.47c1.8,6.27,3.78,13.44,9.92,17.73s13.57,3.78,20.29,3.46c4-.2,8.06-.39,10.81.51,2.56.77,5.51,3.07,8.58,5.44,5.31,4.16,11.33,8.83,19,8.83s13.69-4.67,19-8.83c3.07-2.37,6-4.67,8.58-5.44,2.75-.9,6.84-.71,10.81-.51,6.72.32,14.27.7,20.29-3.46s8.13-11.46,9.92-17.73c1-3.77,2-7.36,3.64-9.47s5-4.16,8.2-6.14c5.76-3.59,12.28-7.62,14.65-14.66s-.38-13.76-2.82-19.78c-1.41-3.58-2.88-7.23-2.88-10Zm-115,19.2a6.45,6.45,0,0,1-4.55,6.14,5.87,5.87,0,0,1-1.85.26,6.28,6.28,0,0,1-5.31-2.88l-13.89-20.8V147.7a6.4,6.4,0,0,1-12.8,0V109.3a6.45,6.45,0,0,1,4.55-6.14,6.32,6.32,0,0,1,7.16,2.62l13.89,20.8V109.3a6.4,6.4,0,1,1,12.8,0Zm32-25.6a6.4,6.4,0,0,1,0,12.8h-12.8v6.4h12.8a6.4,6.4,0,0,1,0,12.8h-19.2a6.42,6.42,0,0,1-6.4-6.4V109.3a6.42,6.42,0,0,1,6.4-6.4h19.2a6.4,6.4,0,0,1,0,12.8h-12.8v6.4Zm51.12,26.62a6.52,6.52,0,0,1-5.7,5.38h-.64a6.5,6.5,0,0,1-6-4.16l-3.58-9.6-3.59,9.6a6.41,6.41,0,0,1-12.35-1.22l-6.4-38.4a6.42,6.42,0,1,1,12.67-2l2.43,14.84,1.22-3.26a6.43,6.43,0,0,1,12,0l1.22,3.26,2.43-14.84a6.42,6.42,0,1,1,12.67,2Z" transform="translate(0.29 -0.24)"/></g></svg>