<svg id="_2" data-name="2" xmlns="http://www.w3.org/2000/svg" viewBox="0 0 256 256"><defs><style>.cls-1{fill:#0952dd;}.cls-2{fill:#fff;}</style></defs><rect class="cls-1" width="256" height="256" rx="50"/><path class="cls-2" d="M127.83,161.79a64.48,64.48,0,1,1,64.48-64.48A64.56,64.56,0,0,1,127.83,161.79Zm0-96.78a32.3,32.3,0,1,0,32.3,32.3A32.34,32.34,0,0,0,127.83,65Z" transform="translate(0.17 -0.83)"/><path class="cls-2" d="M80.72,218.1s8.6-6.46,19.56-6.46c12.72,0,23.81,13.19,46.85,13.19,24.23,0,38.83-18.54,38.83-18.54l-11.58-18.38s-8.59,6.46-19.56,6.46c-12.71,0-23.81-13.19-46.85-13.19-24.22,0-38.82,18.54-38.82,18.54Z" transform="translate(0.17 -0.83)"/></svg>