<svg id="_5" data-name="5" xmlns="http://www.w3.org/2000/svg" viewBox="0 0 256 256"><defs><style>.cls-1{fill:#0952dd;}.cls-2{fill:#fff;}</style></defs><rect class="cls-1" width="256" height="256" rx="50"/><g id="Line"><path class="cls-2" d="M96.94,223.69l13.42-13.48,13.42,13.48a5.87,5.87,0,0,0,8.29,0l0,0,13.42-13.48L159,223.69a5.86,5.86,0,0,0,8.28,0l0,0,13.42-13.48,13.42,13.48a5.93,5.93,0,0,0,4.16,1.7,4.92,4.92,0,0,0,2.23-.47,5.86,5.86,0,0,0,3.63-5.39V39.31a5.9,5.9,0,0,0-10-4.16L180.69,48.63,167.27,35.15a5.87,5.87,0,0,0-8.29,0l0,0L145.53,48.63,132.11,35.15a5.87,5.87,0,0,0-8.29,0l0,0L110.36,48.63,96.94,35.15a5.87,5.87,0,0,0-8.29,0l0,0L75.2,48.63,61.78,35.15a5.9,5.9,0,0,0-10,4.16V219.53a5.9,5.9,0,0,0,10,4.16L75.2,210.21l13.42,13.48a5.87,5.87,0,0,0,8.29,0Zm13.42-101.23a5.86,5.86,0,0,1,11.72,0v.88a5,5,0,0,0,5,5h1.75a5,5,0,0,0,5-5h0a5,5,0,0,0-2.76-4.51L119.33,113a16.64,16.64,0,0,1,2.75-30.65v-.88a5.87,5.87,0,0,1,11.73,0v.88a16.65,16.65,0,0,1,11.72,15.82V99a5.86,5.86,0,0,1-11.72,0v-.88a5,5,0,0,0-5-5h-1.75a5,5,0,0,0-5,5h0a5,5,0,0,0,2.76,4.51l11.72,5.86a16.64,16.64,0,0,1-2.75,30.65V140a5.87,5.87,0,0,1-11.73,0v-.88a16.65,16.65,0,0,1-11.72-15.82Zm-17.58,35.9h70.33a5.86,5.86,0,0,1,0,11.72H92.78a5.86,5.86,0,1,1,0-11.72Zm-5.86,29.3a5.86,5.86,0,0,1,5.86-5.86h70.33a5.86,5.86,0,0,1,0,11.72H92.78A5.86,5.86,0,0,1,86.92,187.66Z" transform="translate(0.17 -0.83)"/></g></svg>