<svg id="_8" data-name="8" xmlns="http://www.w3.org/2000/svg" viewBox="0 0 256 256"><defs><style>.cls-1{fill:#e88205;}.cls-2{fill:#fff;}</style></defs><rect class="cls-1" width="256" height="256" rx="50"/><path class="cls-2" d="M212.38,158.28c-9.88-9.89-23.58-14.08-41.18-9.36L108.44,86.1l.83-3.14a39.53,39.53,0,0,0-10.19-38,38.8,38.8,0,0,0-38-10.06,5.62,5.62,0,0,0-2.48,9.4L73.75,59.37a11.24,11.24,0,0,1,0,15.9,11.37,11.37,0,0,1-15.91,0L42.73,60.16a5.62,5.62,0,0,0-9.4,2.5A38.88,38.88,0,0,0,43.4,100.6C53.27,110.48,67,114.69,84.57,110l62.76,62.82c-4.68,17.6-.64,31.17,9.37,41.18A38.76,38.76,0,0,0,194.64,224a5.62,5.62,0,0,0,2.49-9.4L182,199.51a11.24,11.24,0,0,1,0-15.9,11.39,11.39,0,0,1,15.92,0L213,198.72a5.62,5.62,0,0,0,9.4-2.5A38.9,38.9,0,0,0,212.38,158.28Z" transform="translate(0.17 -0.83)"/><path class="cls-2" d="M92.05,133.41,38.43,187a22.5,22.5,0,0,0,31.82,31.82l53.62-53.63ZM65,201.4a5.63,5.63,0,1,1-8-8l34.12-34.13a5.63,5.63,0,0,1,8,8Z" transform="translate(0.17 -0.83)"/><path class="cls-2" d="M222.19,44.79l-9.69-9.7a5.62,5.62,0,0,0-6.87-.85L175.8,52.14a5.62,5.62,0,0,0-1.09,8.8l2.38,2.37L139.22,101l15.91,15.92L193,79.23l3.34,3.34a5.62,5.62,0,0,0,8.8-1.08L223,51.66A5.61,5.61,0,0,0,222.19,44.79Z" transform="translate(0.17 -0.83)"/></svg>