<svg id="Layer_1" data-name="Layer 1" xmlns="http://www.w3.org/2000/svg" viewBox="0 0 480 454.49"><defs><style>.cls-1{fill:#316fea;}</style></defs><g id="Layer_2" data-name="Layer 2"><path class="cls-1" d="M467.36,189.44a62.73,62.73,0,0,1-49.44-84.8,29.43,29.43,0,0,0-8.8-33.12,236.09,236.09,0,0,0-70.4-40.8A29.6,29.6,0,0,0,305.28,40a62.55,62.55,0,0,1-87.82,10.74A62.73,62.73,0,0,1,206.72,40a29.6,29.6,0,0,0-33.44-9.28,237.07,237.07,0,0,0-65.6,36.8A29.76,29.76,0,0,0,98.4,101.6a62.4,62.4,0,0,1-52,85.76A29.6,29.6,0,0,0,20.48,211.2,226.17,226.17,0,0,0,16,256a228.77,228.77,0,0,0,3,37.6,29.6,29.6,0,0,0,26.08,24.8A62.39,62.39,0,0,1,96,406.56a29.11,29.11,0,0,0,8.16,34.88,237.69,237.69,0,0,0,69.76,40.16A32,32,0,0,0,184,483.36a29.43,29.43,0,0,0,24-12.48A61.92,61.92,0,0,1,259.2,444a62.74,62.74,0,0,1,50.24,25.28A29.44,29.44,0,0,0,344,479a240.1,240.1,0,0,0,64-38.24A29.6,29.6,0,0,0,416.64,407a62.41,62.41,0,0,1,50.08-86.24,29.61,29.61,0,0,0,25.12-24.32A232.16,232.16,0,0,0,496,256a230.19,230.19,0,0,0-4-42.72,29.28,29.28,0,0,0-24.64-23.84ZM336,256a80,80,0,1,1-80-80A80,80,0,0,1,336,256Z" transform="translate(-16 -28.87)"/></g></svg>