<svg id="_4" data-name="4" xmlns="http://www.w3.org/2000/svg" viewBox="0 0 256 256"><defs><style>.cls-1{fill:#0952dd;}.cls-2{fill:#fff;}</style></defs><rect class="cls-1" width="256" height="256" rx="50"/><path class="cls-2" d="M172.25,101.73h51.69v-24A27.72,27.72,0,0,0,196.25,50H59.64a27.73,27.73,0,0,0-27.7,27.69V181.11a27.73,27.73,0,0,0,27.7,27.69H196.25a27.72,27.72,0,0,0,27.69-27.69v-24H172.25a27.69,27.69,0,1,1,0-55.38Z" transform="translate(0.17 -0.83)"/><path class="cls-2" d="M172.25,112.8a16.62,16.62,0,0,0,0,33.24h51.69V112.8ZM179.64,135h-7.39a5.54,5.54,0,1,1,0-11.08h7.39a5.54,5.54,0,1,1,0,11.08Z" transform="translate(0.17 -0.83)"/></svg>