<svg id="Isolation_Mode" data-name="Isolation Mode" xmlns="http://www.w3.org/2000/svg" viewBox="0 0 389.89 416.77"><defs><style>.cls-1{fill:#a1a4ae;}</style></defs><path class="cls-1" d="M297,445.44H76.8a4.84,4.84,0,0,1-5.12-5.12V71.68a4.84,4.84,0,0,1,5.12-5.12H266.24v97.28a4.84,4.84,0,0,0,5.12,5.12h97.28v92.16a5.12,5.12,0,0,0,10.24,0V163.33a1.89,1.89,0,0,0-.51-1.54v-.51c0-.51-.51-1-1-1.54L274.94,57.34c-.51-.51-1-1-1.53-1h-.51a1.88,1.88,0,0,1-1.54-.51H76.8A15.08,15.08,0,0,0,61.44,71.17V440.32A15.09,15.09,0,0,0,76.8,455.68H297a5.12,5.12,0,0,0,0-10.24Zm64.51-286.72h-85v-85ZM97.28,128a4.84,4.84,0,0,1,5.12-5.12h128a5.12,5.12,0,0,1,0,10.24h-128A4.84,4.84,0,0,1,97.28,128Zm0,35.84a4.84,4.84,0,0,1,5.12-5.12h128a5.12,5.12,0,0,1,0,10.24h-128A4.84,4.84,0,0,1,97.28,163.84Zm230.4,35.84a4.84,4.84,0,0,1-5.12,5.12H102.4a5.12,5.12,0,0,1,0-10.24H322.56A4.84,4.84,0,0,1,327.68,199.68Zm0,35.84a4.84,4.84,0,0,1-5.12,5.12H103.44a5.12,5.12,0,0,1,0-10.24H322.56A4.84,4.84,0,0,1,327.68,235.52ZM445.44,436.74l-45.06-45.06c23-38.91,9.73-89.09-29.18-112.13a83.72,83.72,0,0,0-44.54-11.26,4.66,4.66,0,0,0-4.1-2.05H103.44a5.12,5.12,0,0,0,0,10.24H293.38c-12.29,5.63-22.53,14.85-30.21,25.6H103.44a5.12,5.12,0,0,0,0,10.24H256.51a93.67,93.67,0,0,0-8.19,25.6H112.64a15.09,15.09,0,0,0-15.36,15.36v35.84a15.09,15.09,0,0,0,15.36,15.36H268.29a22.31,22.31,0,0,1,3.07,3.58,81.41,81.41,0,0,0,99.33,12.8l45.05,45.57a20.41,20.41,0,0,0,29.19,0c8.19-8.19,8.7-21.5.51-29.69Zm-332.8-42.5a4.84,4.84,0,0,1-5.12-5.12V353.28a4.84,4.84,0,0,1,5.12-5.12H247.81a81.47,81.47,0,0,0,12.8,46.08Zm165.89,6.14a71.68,71.68,0,1,1,101.37,0c-27.64,28.16-73.21,28.16-101.37,0Zm159.74,58.37a9.89,9.89,0,0,1-14.33,0l-44-44a76.06,76.06,0,0,0,14.34-14.34l44,44C441.86,448,441.86,454.66,438.27,458.75ZM377.86,343c-2.56.51-5.64-1-6.15-3.58-4.61-16.9-18.43-30.21-35.33-35.33-2.56-.51-4.09-3.59-3.58-6.15s3.58-4.09,6.14-3.58c20.48,5.63,36.36,22,42.5,42.5,1,2.56-.51,5.12-3.58,6.14Z" transform="translate(-61.44 -55.81)"/></svg>