<svg xmlns="http://www.w3.org/2000/svg" viewBox="0 0 36.09 40.7"><defs><style>.cls-1{fill:#366fe0;stroke:#366fe0;stroke-miterlimit:10;stroke-width:0.02px;}</style></defs><title>Asset 3</title><g id="Layer_2" data-name="Layer 2"><g id="Layer_4" data-name="Layer 4"><path class="cls-1" d="M18,40.69a3.2,3.2,0,0,1-1.56-.42l-5-3c-.74-.41-.38-.56-.13-.64a10.31,10.31,0,0,0,2.25-1,.38.38,0,0,1,.37,0L17.81,38a.47.47,0,0,0,.46,0l14.91-8.6a.47.47,0,0,0,.23-.41V11.74a.49.49,0,0,0-.23-.41l-14.9-8.6a.47.47,0,0,0-.46,0l-14.9,8.6a.51.51,0,0,0-.24.41v17.2a.47.47,0,0,0,.24.4L7,31.7c2.22,1.11,3.57-.2,3.57-1.51v-17a.44.44,0,0,1,.44-.43H12.9a.43.43,0,0,1,.43.43v17c0,3-1.61,4.66-4.41,4.66a6.35,6.35,0,0,1-3.44-.94L1.57,31.66A3.16,3.16,0,0,1,0,28.94V11.74A3.16,3.16,0,0,1,1.57,9L16.48.41a3.28,3.28,0,0,1,3.13,0L34.52,9a3.16,3.16,0,0,1,1.56,2.72v17.2a3.16,3.16,0,0,1-1.56,2.72L19.61,40.27A3.15,3.15,0,0,1,18,40.69Z"/><path class="cls-1" d="M22.65,28.84c-6.53,0-7.89-3-7.89-5.51a.43.43,0,0,1,.43-.43h1.93a.43.43,0,0,1,.42.37c.3,2,1.16,2.95,5.11,2.95,3.14,0,4.47-.71,4.47-2.38,0-1-.37-1.67-5.25-2.15-4.08-.4-6.61-1.3-6.61-4.57,0-3,2.54-4.8,6.79-4.8,4.78,0,7.14,1.66,7.44,5.21a.43.43,0,0,1-.43.47H27.12a.42.42,0,0,1-.41-.33c-.47-2.07-1.6-2.73-4.66-2.73-3.43,0-3.83,1.2-3.83,2.09,0,1.09.47,1.4,5.1,2s6.76,1.47,6.76,4.69S27.37,28.84,22.65,28.84Z"/></g></g></svg>