<svg width="13" height="10" viewBox="0 0 13 10" fill="none" xmlns="http://www.w3.org/2000/svg">
<path d="M5.67076 0.283667C5.23917 -0.101934 4.54849 -0.0931847 4.12849 0.302416L0.639619 3.58596C0.2128 3.97719 7.24792e-05 4.49028 7.24792e-05 5.00338C7.24792e-05 5.51272 0.210073 6.02019 0.62871 6.40454L4.12712 9.69746C4.54781 10.0931 5.23849 10.1012 5.6694 9.71621C6.10099 9.33123 6.11054 8.69752 5.68985 8.30255L2.19144 4.99088L5.68985 1.69795C6.11122 1.30235 6.10167 0.668643 5.67076 0.283667Z" fill="#B7BFCF"/>
<path d="M12.6708 0.283667C12.2392 -0.101934 11.5485 -0.0931847 11.1285 0.302416L7.63962 3.58596C7.2128 3.97719 7.00007 4.49028 7.00007 5.00338C7.00007 5.51272 7.21007 6.02019 7.62871 6.40454L11.1271 9.69746C11.5478 10.0931 12.2385 10.1012 12.6694 9.71621C13.101 9.33123 13.1105 8.69752 12.6899 8.30255L9.19144 4.99088L12.6899 1.69795C13.1112 1.30235 13.1017 0.668643 12.6708 0.283667Z" fill="#B7BFCF"/>
</svg>
