<svg width="13" height="10" viewBox="0 0 13 10" fill="none" xmlns="http://www.w3.org/2000/svg">
<path d="M7.32924 0.283667C7.76083 -0.101934 8.45151 -0.0931847 8.87151 0.302416L12.3604 3.58596C12.7872 3.97719 12.9999 4.49028 12.9999 5.00338C12.9999 5.51272 12.7899 6.02019 12.3713 6.40454L8.87288 9.69746C8.45219 10.0931 7.76151 10.1012 7.3306 9.71621C6.89901 9.33123 6.88946 8.69752 7.31015 8.30255L10.8086 4.99088L7.31015 1.69795C6.88878 1.30235 6.89833 0.668643 7.32924 0.283667Z" fill="#316FEA"/>
<path d="M0.329238 0.283667C0.76083 -0.101934 1.45151 -0.0931847 1.87151 0.302416L5.36038 3.58596C5.7872 3.97719 5.99993 4.49028 5.99993 5.00338C5.99993 5.51272 5.78993 6.02019 5.37129 6.40454L1.87288 9.69746C1.45219 10.0931 0.761512 10.1012 0.330602 9.71621C-0.100989 9.33123 -0.110535 8.69752 0.310147 8.30255L3.80856 4.99088L0.310147 1.69795C-0.111217 1.30235 -0.101671 0.668643 0.329238 0.283667Z" fill="#316FEA"/>
</svg>
