<svg id="svg10654" xmlns="http://www.w3.org/2000/svg" viewBox="0 0 285.73 256.73"><defs><style>.cls-1{fill:#316fea;}</style></defs><g id="layer1"><path id="path9413" class="cls-1" d="M323.56,277.37l-70.2,70.21c-20.17,20.17,10.08,50.42,30.25,30.25l63.94-64L390.23,271a21.34,21.34,0,0,0,0-30.08L283.61,134.21a21.34,21.34,0,0,0-15.46-6.46c-19.21,0-28.63,23.39-14.79,36.71l70.37,70.21,21.92,21.45Z" transform="translate(-110.7 -127.75)"/></g><g id="layer1-2" data-name="layer1"><path id="path9413-2" data-name="path9413" class="cls-1" d="M187.56,277.37l-70.2,70.21c-20.17,20.17,10.08,50.42,30.25,30.25l63.94-64L254.23,271a21.34,21.34,0,0,0,0-30.08L147.61,134.21a21.34,21.34,0,0,0-15.46-6.46c-19.21,0-28.63,23.39-14.79,36.71l70.37,70.21,21.92,21.45Z" transform="translate(-110.7 -127.75)"/></g></svg>