<svg id="svg10654" xmlns="http://www.w3.org/2000/svg" viewBox="0 0 285.73 256.73"><defs><style>.cls-1{fill:#316fea;}</style></defs><g id="layer1"><path id="path9413" class="cls-1" d="M183.58,234.86l70.2-70.21c20.17-20.17-10.08-50.41-30.25-30.25l-63.94,64-42.68,42.75a21.35,21.35,0,0,0,0,30.09L223.53,378A21.32,21.32,0,0,0,239,384.48c19.21,0,28.63-23.39,14.79-36.7l-70.37-70.21-21.92-21.45Z" transform="translate(-110.7 -127.75)"/></g><g id="layer1-2" data-name="layer1"><path id="path9413-2" data-name="path9413" class="cls-1" d="M319.58,234.86l70.2-70.21c20.17-20.17-10.08-50.41-30.25-30.25l-63.94,64-42.68,42.75a21.35,21.35,0,0,0,0,30.09L359.53,378A21.32,21.32,0,0,0,375,384.48c19.21,0,28.63-23.39,14.79-36.7l-70.37-70.21-21.92-21.45Z" transform="translate(-110.7 -127.75)"/></g></svg>