<?xml version="1.0" encoding="utf-8"?>
<!-- Generator: Adobe Illustrator 23.0.2, SVG Export Plug-In . SVG Version: 6.00 Build 0)  -->
<svg version="1.1" id="Layer_1" xmlns="http://www.w3.org/2000/svg" xmlns:xlink="http://www.w3.org/1999/xlink" x="0px" y="0px"
	 viewBox="0 0 72.7 19.4" style="enable-background:new 0 0 72.7 19.4;" xml:space="preserve">
<style type="text/css">
	.st0{fill:#8D98A7;}
</style>
<title>paypal_black_gs</title>
<path class="st0" d="M49.7,5.3c-0.3,2-1.9,2-3.4,2h-0.9l0.6-3.8c0-0.2,0.2-0.4,0.5-0.4H47c1,0,2,0,2.5,0.6
	C49.8,4.2,49.9,4.8,49.7,5.3 M49.1,0h-5.7c-0.4,0-0.7,0.3-0.8,0.7l-2.3,14.5c0,0.3,0.2,0.5,0.4,0.5h3c0.3,0,0.5-0.2,0.5-0.5l0.7-4.1
	c0.1-0.4,0.4-0.7,0.8-0.7h1.8c3.7,0,5.9-1.8,6.4-5.4c0.3-1.3,0.1-2.6-0.7-3.7C52.1,0.4,50.6-0.1,49.1,0"/>
<path class="st0" d="M9.4,5.3c-0.3,2-1.9,2-3.4,2H5.2l0.6-3.8c0-0.2,0.2-0.4,0.5-0.4h0.4c1,0,2,0,2.5,0.6C9.4,4.2,9.5,4.8,9.4,5.3
	 M8.7,0H3.1C2.7,0,2.4,0.3,2.3,0.7L0,15.2c0,0.3,0.2,0.5,0.4,0.5h2.8c0.4,0,0.7-0.3,0.8-0.7l0.6-3.9c0.1-0.4,0.4-0.7,0.8-0.7h1.8
	c3.7,0,5.9-1.8,6.4-5.4c0.3-1.3,0.1-2.6-0.7-3.7C11.8,0.4,10.3-0.1,8.7,0"/>
<path class="st0" d="M21.9,10.5c-0.2,1.5-1.5,2.6-3.1,2.6c-0.7,0-1.3-0.2-1.8-0.7c-0.4-0.5-0.6-1.2-0.4-1.9c0.2-1.5,1.5-2.6,3-2.6
	c0.7,0,1.3,0.2,1.8,0.7C21.8,9.2,22,9.9,21.9,10.5 M25.6,5.3h-2.7c-0.2,0-0.4,0.2-0.5,0.4l-0.1,0.8l-0.2-0.3C21.6,5.3,20.2,5,19,5
	c-3.1,0.1-5.6,2.4-6,5.4c-0.3,1.5,0.1,3,1,4.2c0.8,0.9,2.1,1.5,3.3,1.4c1.4,0,2.8-0.5,3.8-1.6l-0.1,0.8c0,0.2,0.1,0.5,0.4,0.5h2.5
	c0.4,0,0.7-0.3,0.8-0.7l1.5-9.3c0-0.3-0.1-0.5-0.4-0.5L25.6,5.3"/>
<path class="st0" d="M62.2,10.5c-0.2,1.5-1.5,2.6-3,2.6c-0.7,0-1.4-0.2-1.8-0.7c-0.4-0.5-0.6-1.2-0.4-1.9c0.2-1.5,1.5-2.6,3-2.6
	c0.7,0,1.4,0.2,1.8,0.7C62.2,9.2,62.4,9.9,62.2,10.5 M66,5.3h-2.8c-0.2,0-0.4,0.2-0.5,0.4l-0.1,0.8l-0.2-0.3C61.9,5.3,60.6,5,59.2,5
	c-3.1,0.1-5.6,2.4-6,5.4c-0.3,1.5,0.1,3,1,4.2c0.9,1,2.1,1.5,3.4,1.4c1.4,0,2.8-0.5,3.8-1.6l-0.1,0.8c0,0.3,0.1,0.5,0.4,0.5
	c0,0,0,0,0,0h2.5c0.4,0,0.7-0.3,0.8-0.7l1.4-9.3C66.5,5.6,66.3,5.3,66,5.3C66,5.3,66,5.3,66,5.3L66,5.3"/>
<path class="st0" d="M40.1,5.3h-2.7c-0.3,0-0.5,0.1-0.7,0.3l-3.8,5.5l-1.6-5.3c-0.1-0.3-0.4-0.6-0.8-0.6h-2.7
	c-0.3,0-0.5,0.2-0.5,0.5c0,0,0,0,0,0c0,0,0,0.1,0,0.1l3,8.8l-2.8,4c-0.1,0.2-0.1,0.5,0.1,0.7c0,0,0,0,0,0c0.1,0.1,0.2,0.1,0.2,0.1
	h2.7c0.3,0,0.5-0.1,0.7-0.4l9-13c0.1-0.2,0.1-0.5-0.1-0.6c0,0,0,0,0,0C40.2,5.3,40.1,5.3,40.1,5.3"/>
<path class="st0" d="M69.2,0.4l-2.4,14.8c0,0.2,0.1,0.5,0.4,0.5h2.4c0.4,0,0.7-0.3,0.8-0.7l2.3-14.5c0.1-0.2-0.1-0.5-0.3-0.5
	c0,0,0,0,0,0h-2.7C69.4,0,69.2,0.2,69.2,0.4"/>
</svg>
