<?xml version="1.0" encoding="utf-8"?>
<!-- Generator: Adobe Illustrator 23.0.1, SVG Export Plug-In . SVG Version: 6.00 Build 0)  -->
<svg version="1.1" id="Layer_1" xmlns="http://www.w3.org/2000/svg" xmlns:xlink="http://www.w3.org/1999/xlink" x="0px" y="0px"
	 viewBox="0 0 51 14" style="enable-background:new 0 0 51 14;" xml:space="preserve">
<style type="text/css">
	.st0{fill:#3C3C3C;}
	.st1{fill:#7A7A7A;}
</style>
<g>
	<path class="st0" d="M6.4,0.4H2.5C2.2,0.4,2,0.6,2,0.9l-1.6,9.8c0,0.2,0.1,0.3,0.3,0.4c0,0,0,0,0.1,0h1.9c0.3,0,0.5-0.2,0.5-0.4
		L3.6,8c0-0.3,0.3-0.5,0.5-0.4h1.2c2.6,0,4.1-1.2,4.5-3.6C10,2.8,9.8,2,9.3,1.4C8.8,0.8,7.8,0.4,6.4,0.4L6.4,0.4z M6.9,4
		C6.7,5.4,5.6,5.4,4.6,5.4H4l0.4-2.6c0-0.2,0.2-0.3,0.3-0.3H5c0.7,0,1.4,0,1.7,0.4C6.9,3.2,7,3.5,6.9,4z M18.2,4h-1.9
		C16.2,4,16,4.1,16,4.2l-0.1,0.5l-0.1-0.2c-0.4-0.6-1.3-0.8-2.2-0.8c-2.1,0-3.9,1.5-4.2,3.7c-0.2,1.1,0.1,2.1,0.7,2.8
		c0.6,0.7,1.4,0.9,2.4,0.9c1.7,0,2.6-1,2.6-1L15,10.7c0,0.2,0.1,0.3,0.3,0.4c0,0,0,0,0.1,0H17c0.3,0,0.5-0.2,0.5-0.4l1-6.3
		C18.6,4.2,18.4,4,18.2,4C18.2,4,18.2,4,18.2,4z M15.6,7.5c-0.2,1-1,1.7-2.1,1.7c-0.5,0-1-0.2-1.3-0.5c-0.3-0.3-0.4-0.8-0.3-1.3
		c0.2-1,1-1.8,2.1-1.8c0.5,0,1,0.2,1.3,0.5C15.6,6.6,15.7,7,15.6,7.5z M28.2,4h-1.9C26.2,4,26,4,25.9,4.2l-2.6,3.7l-1.1-3.6
		C22.1,4.1,21.9,4,21.7,4h-1.9c-0.2,0-0.3,0.1-0.3,0.3c0,0,0,0.1,0,0.1l2.1,5.9l-2,2.7c-0.1,0.1-0.1,0.3,0.1,0.4
		c0.1,0,0.1,0.1,0.2,0.1h1.9c0.2,0,0.3-0.1,0.5-0.2l6.3-8.8C28.7,4.2,28.5,4,28.2,4L28.2,4z"/>
	<path class="st1" d="M34.5,0.4h-3.9c-0.3,0-0.5,0.2-0.5,0.4l-1.6,9.8c0,0.2,0.1,0.3,0.3,0.4c0,0,0,0,0.1,0h2c0.2,0,0.3-0.1,0.4-0.3
		L31.6,8c0-0.3,0.3-0.5,0.5-0.4h1.2c2.6,0,4.1-1.2,4.5-3.6c0.2-1.1,0-1.9-0.5-2.5C36.8,0.8,35.8,0.4,34.5,0.4z M35,4
		c-0.2,1.4-1.3,1.4-2.3,1.4H32l0.4-2.6c0-0.2,0.2-0.3,0.3-0.3H33c0.7,0,1.4,0,1.7,0.4C35,3.2,35,3.5,35,4z M46.3,4h-1.9
		c-0.2,0-0.3,0.1-0.3,0.3L44,4.7l-0.1-0.2c-0.4-0.6-1.3-0.8-2.2-0.8c-2.1,0-3.9,1.5-4.2,3.7c-0.2,1.1,0.1,2.1,0.7,2.8
		c0.6,0.7,1.4,0.9,2.4,0.9c1.7,0,2.6-1,2.6-1L43,10.7c0,0.2,0.1,0.3,0.3,0.4c0,0,0,0,0.1,0H45c0.3,0,0.5-0.2,0.5-0.4l1-6.3
		C46.6,4.1,46.5,4,46.3,4C46.3,4,46.3,4,46.3,4z M43.6,7.5c-0.2,1-1,1.7-2.1,1.7c-0.5,0-1-0.2-1.3-0.5C40,8.5,39.9,8,40,7.5
		c0.2-1,1-1.8,2.1-1.8c0.5,0,1,0.2,1.3,0.5C43.6,6.6,43.7,7,43.6,7.5z M48.5,0.7l-1.6,10c0,0.2,0.1,0.3,0.3,0.4c0,0,0,0,0.1,0h1.6
		c0.3,0,0.5-0.2,0.5-0.4L51,0.8c0-0.2-0.1-0.3-0.3-0.4c0,0,0,0-0.1,0h-1.8C48.7,0.4,48.5,0.5,48.5,0.7L48.5,0.7z"/>
</g>
</svg>
