<svg id="Isolation_Mode" data-name="Isolation Mode" xmlns="http://www.w3.org/2000/svg" viewBox="0 0 576.24 479.59"><defs><style>.cls-1{fill:#316fea;}.cls-2{fill:#ff6161;}.cls-3{fill:#fff;}</style></defs><path class="cls-1" d="M512.41,243a8.4,8.4,0,0,0,8.4-8.4V139.53a38.92,38.92,0,0,0-38.87-38.87H27.44a38.91,38.91,0,0,0-38.87,38.87V434.06a38.91,38.91,0,0,0,38.87,38.87h454.5a38.92,38.92,0,0,0,38.87-38.87V199.5a8.41,8.41,0,0,0-16.81,0V434.06a22.09,22.09,0,0,1-22.06,22.06H27.44A22.09,22.09,0,0,1,5.37,434.06V139.53a22.09,22.09,0,0,1,22.07-22.06h454.5A22.09,22.09,0,0,1,504,139.53v95.08A8.4,8.4,0,0,0,512.41,243Z" transform="translate(11.43 -100.66)"/><path class="cls-1" d="M368.18,243.64s0-.08,0-.13A50.59,50.59,0,0,0,353.06,222c.87-20.83-3.58-34.57-15.25-47.92-12.91-14.75-35.67-22.23-67.64-22.23H189.49c-9.17,0-16.77,7.94-19.27,15.42a8.27,8.27,0,0,0-.33,1.39L137.61,380a8.93,8.93,0,0,0-.09,1.27c0,9.08,6.66,16.47,14.85,16.47h40.12l-2.11,12.83a8.91,8.91,0,0,0-.11,1.36c0,8.74,6.11,14.85,14.86,14.85h40.22c9.79,0,17.3-6.21,19.6-16.2,0-.18.08-.37.11-.55l8.06-50c0-.2.06-.4.08-.6.12-1.35.75-3.63,3.65-3.63H281c23.47,0,42.75-5.28,57.32-15.68,16.82-12,27.47-30.82,31.65-55.89C372.58,268.35,372,254.69,368.18,243.64ZM195.25,380.94H154.48l31.89-208.89a6.89,6.89,0,0,1,3.21-3.42h80.59c26.53,0,45.55,5.7,55,16.49,7,8,10.39,16,11.07,27.31a81.72,81.72,0,0,0-23.09-4.12,7.09,7.09,0,0,0-.81,0H288.8l-.56,0H239.17c-9.81.36-17.19,6.77-19.24,16.72,0,.14-.05.28-.07.42L207,309ZM335.91,230.61c-.11.51-.23,1-.35,1.5s-.19.79-.28,1.19-.19.81-.29,1.21c-.14.55-.3,1.09-.44,1.63l-.27,1c-.12.43-.23.87-.35,1.29s-.35,1.1-.52,1.65c-.07.22-.13.44-.2.66-.15.48-.3,1-.45,1.45s-.39,1.12-.59,1.68c0,.13-.09.26-.14.39-.18.52-.36,1.06-.55,1.57s-.45,1.12-.67,1.68a1.8,1.8,0,0,1-.08.21c-.21.54-.42,1.08-.64,1.62s-.49,1.12-.74,1.68-.5,1.14-.75,1.69-.54,1.09-.81,1.63-.52,1.09-.79,1.62-.58,1.06-.88,1.59-.55,1-.84,1.53-.62,1-.93,1.54-.58,1-.89,1.44-.67,1-1,1.5-.6.92-.92,1.36-.72,1-1.08,1.46l-.95,1.27c-.38.47-.78.93-1.16,1.4s-.65.8-1,1.19-.82.9-1.23,1.35-.68.76-1,1.12-.87.87-1.31,1.3-.7.71-1.06,1.05-.92.82-1.38,1.23-.73.66-1.11,1-1,.78-1.45,1.17-.75.62-1.14.91-1,.75-1.53,1.12-.77.57-1.17.84-1.08.7-1.62,1-.79.53-1.2.78c-.56.34-1.14.66-1.71,1-.4.24-.8.48-1.21.71l-1.81.94-1.23.63c-.62.3-1.25.58-1.87.86-.43.2-.85.4-1.29.59-.63.27-1.28.52-1.93.78-.44.18-.88.37-1.33.54-.66.25-1.33.47-2,.71-.46.16-.91.33-1.38.48-.67.22-1.36.42-2,.63-.49.14-1,.3-1.46.44-.68.2-1.39.37-2.09.55-.5.13-1,.27-1.51.39-.73.17-1.47.33-2.21.48l-1.51.34-2.29.41c-.52.09-1,.19-1.55.27-.77.13-1.57.23-2.35.34l-1.6.23c-.8.1-1.63.17-2.44.26l-1.63.17c-.81.08-1.65.13-2.48.19l-1.7.13c-.9.05-1.83.08-2.76.11-.51,0-1,.06-1.53.07q-2.18.06-4.41.06H226.59l-.5,0,10.34-67.21c.66-2.91,2.09-3.09,3.21-3.13h49.2l.56,0h22.39l.36,0a63.46,63.46,0,0,1,21.36,4.25c.64.29,1.45.68,2.35,1.16C335.88,230.54,335.89,230.58,335.91,230.61Zm17.45,50.86C346.91,320.17,323.23,339,281,339h-4.12c-13.52,0-19.53,11-20.36,18.61l-8,49.44c-.74,2.94-2,2.94-3.17,2.94H207.51l3.09-18.83.09-.45,12-73.12a1.17,1.17,0,0,1,.05-.11l.08-.16.07-.14c0-.09.09-.17.13-.26.1-.24.2-.49.28-.74a7,7,0,0,1,3.42-3.94h24.12c1.7,0,3.37,0,5-.07l1.65-.07c1.1,0,2.2-.09,3.28-.15l1.91-.14c1-.07,1.93-.14,2.89-.23.67-.06,1.33-.14,2-.21.9-.09,1.79-.19,2.68-.3l2-.28c.85-.12,1.7-.24,2.54-.38l2-.34,2.43-.46,2-.41c.78-.18,1.57-.35,2.34-.54s1.29-.31,1.93-.48,1.52-.4,2.28-.61l1.87-.55c.75-.22,1.48-.46,2.22-.7s1.21-.39,1.81-.6,1.45-.52,2.17-.79l1.72-.65c.73-.29,1.45-.6,2.17-.91l1.61-.68c.76-.35,1.5-.71,2.25-1.07l1.4-.67c1-.51,2-1.05,3-1.61l1.14-.65c.92-.52,1.83-1.06,2.71-1.61.45-.28.88-.58,1.32-.87.66-.43,1.32-.85,2-1.3l1.4-1c.59-.43,1.18-.86,1.75-1.3s.93-.74,1.4-1.12,1.1-.88,1.63-1.34.92-.79,1.37-1.2,1-.92,1.54-1.4.89-.84,1.32-1.27,1-1,1.47-1.47.85-.89,1.27-1.35.93-1,1.39-1.54.81-.93,1.21-1.41.89-1.08,1.33-1.63.77-1,1.15-1.47.86-1.14,1.28-1.72l1.08-1.51c.42-.6.82-1.22,1.23-1.84s.67-1,1-1.53c.42-.66.81-1.34,1.21-2,.3-.5.61-1,.9-1.51.43-.76.84-1.53,1.25-2.3.24-.46.49-.9.73-1.36.61-1.2,1.2-2.41,1.78-3.65.11-.25.22-.51.34-.77.49-1.09,1-2.19,1.44-3.31.21-.49.4-1,.6-1.5.34-.86.68-1.72,1-2.6.21-.57.41-1.15.61-1.73.29-.83.59-1.67.87-2.51.2-.62.39-1.24.58-1.87s.39-1.19.57-1.81a34.68,34.68,0,0,1,2.46,5.31C355.14,257.43,355.5,268.6,353.36,281.47Z" transform="translate(11.43 -100.66)"/><path class="cls-2" d="M451,352.55A113.85,113.85,0,1,0,564.81,466.43v0A113.85,113.85,0,0,0,451,352.55Z" transform="translate(11.43 -100.66)"/><polygon class="cls-3" points="473.32 379.92 477.51 293.8 447.48 293.8 451.65 379.92 473.32 379.92"/><path class="cls-3" d="M451.07,496.74c-10.07,0-17.12,7-17.12,17.29,0,9.88,6.84,17.31,16.73,17.31h.39c10.26,0,16.9-7.43,16.9-17.31C467.79,503.78,461.13,496.74,451.07,496.74Z" transform="translate(11.43 -100.66)"/></svg>