<svg width="14" height="17" viewBox="0 0 14 17" fill="none" xmlns="http://www.w3.org/2000/svg">
<path d="M11.6417 1.20724C10.9331 0.402413 9.61706 0 7.79488 0H2.73327C2.42957 0 2.12588 0.301809 2.02464 0.603619L0 13.7827C0 14.0845 0.202464 14.2857 0.404929 14.2857H3.54313L4.35299 9.35612V9.55733C4.45422 9.25552 4.75792 8.95371 5.06161 8.95371H6.58009C9.51583 8.95371 11.7429 7.74647 12.4516 4.42655V4.12474C12.5528 2.8169 12.3503 2.01207 11.6417 1.20724Z" fill="#263B80"/>
<path d="M12.3503 4.12451V4.42632C11.6417 7.84684 9.41458 8.95348 6.47885 8.95348H4.96036C4.65667 8.95348 4.35297 9.25529 4.25174 9.5571L3.23941 15.6939C3.23411 15.7481 3.24094 15.8027 3.25942 15.8539C3.27789 15.9052 3.30755 15.9517 3.34626 15.9901C3.38498 16.0286 3.43179 16.0581 3.48332 16.0765C3.53486 16.0948 3.58985 16.1016 3.64434 16.0963H6.27638C6.58008 16.0963 6.88377 15.8951 6.88377 15.5933V15.4927L7.38994 12.374V12.1728C7.38994 11.871 7.69363 11.6698 7.99733 11.6698H8.40226C10.9331 11.6698 12.9577 10.6637 13.4639 7.64563C13.6663 6.43839 13.5651 5.33175 12.9577 4.62753C12.8301 4.38668 12.6117 4.20583 12.3503 4.12451Z" fill="#139AD6"/>
<path d="M11.6417 3.82316C11.5405 3.82316 11.4393 3.72255 11.3381 3.72255C11.2831 3.72931 11.2273 3.72378 11.1748 3.70638C11.1222 3.68897 11.0742 3.66013 11.0344 3.62195C10.6294 3.52135 10.2245 3.52135 9.71834 3.52135H5.77028C5.71531 3.5146 5.65953 3.52012 5.60698 3.53753C5.55444 3.55493 5.50648 3.58377 5.46658 3.62195C5.37361 3.66908 5.29583 3.74123 5.24214 3.83017C5.18844 3.91911 5.16098 4.02126 5.16288 4.12497L4.35303 9.35635V9.55756C4.45426 9.25574 4.75796 8.95393 5.06165 8.95393H6.58014C9.51587 8.95393 11.743 7.74669 12.4516 4.42678C12.4448 4.37216 12.4504 4.31671 12.4679 4.2645C12.4854 4.21228 12.5144 4.16461 12.5528 4.12497C12.3504 4.02436 12.2491 3.92376 12.0467 3.92376C11.743 3.82316 11.743 3.82316 11.6417 3.82316Z" fill="#232C65"/>
</svg>
