<svg xmlns="http://www.w3.org/2000/svg" viewBox="0 0 1338.91 716.64"><defs><style>.cls-1{isolation:isolate;}.cls-2,.cls-6{fill:#387bff;}.cls-3{fill:#d4edff;}.cls-4{fill:#fbb03b;}.cls-5{fill:#fbae17;}.cls-6{fill-rule:evenodd;}.cls-7{fill:#15384e;}.cls-8{opacity:0.3;mix-blend-mode:multiply;}.cls-9{fill:#d3ecfe;}.cls-10{fill:#d2ebfd;}.cls-11{fill:#d2eafc;}.cls-12{fill:#d1e9fb;}.cls-13{fill:#d0e8fa;}.cls-14{fill:#cfe7f9;}.cls-15{fill:#cee6f8;}.cls-16{fill:#cde6f7;}.cls-17{fill:#cde5f6;}.cls-18{fill:#cce4f5;}.cls-19{fill:#cbe3f4;}.cls-20{fill:#cae2f3;}.cls-21{fill:#c9e1f2;}.cls-22{fill:#c8e0f1;}.cls-23{fill:#c8dff0;}.cls-24{fill:#c7deef;}.cls-25{fill:#c6ddee;}.cls-26{fill:#c5dced;}.cls-27{fill:#c4dbec;}.cls-28{fill:#c3daeb;}.cls-29{fill:#c3d9ea;}.cls-30{fill:#c2d9e9;}.cls-31{fill:#c1d8e8;}.cls-32{fill:#c0d7e7;}.cls-33{fill:#bfd6e6;}.cls-34{fill:#bed5e5;}.cls-35{fill:#bed4e4;}.cls-36{fill:#bdd3e3;}.cls-37{fill:#bcd2e2;}.cls-38{fill:#bbd1e1;}.cls-39{fill:#bad0e0;}.cls-40{fill:#b9cfdf;}.cls-41{fill:#b9cede;}.cls-42{fill:#b8cddd;}.cls-43{fill:#b7ccdc;}.cls-44{fill:#b6ccdb;}.cls-45{fill:#b5cbda;}.cls-46{fill:#b4cad9;}.cls-47{fill:#b4c9d8;}.cls-48{fill:#b3c8d7;}.cls-49{fill:#b2c7d6;}.cls-50{fill:#b1c6d5;}.cls-51{fill:#b0c5d4;}.cls-52{fill:#afc4d3;}.cls-53{fill:#afc3d2;}.cls-54{fill:#aec2d1;}.cls-55{fill:#adc1d0;}.cls-56{fill:#acc0cf;}.cls-57{fill:#abbfce;}.cls-58{fill:#aabfcd;}.cls-59{fill:#aabecc;}.cls-60{fill:#a9bdcb;}.cls-61{fill:#a8bcca;}.cls-62{fill:#a7bbc9;}.cls-63{fill:#a6bac8;}.cls-64{fill:#a5b9c7;}.cls-65{fill:#a5b8c6;}.cls-66{fill:#a4b7c5;}.cls-67{fill:#a3b6c4;}.cls-68{fill:#a2b5c3;}.cls-69{fill:#a1b4c2;}.cls-70{fill:#a0b3c1;}.cls-71{fill:#a0b2c0;}.cls-72{fill:#9fb2bf;}.cls-73{fill:#9eb1be;}.cls-74{fill:#9db0bd;}.cls-75{fill:#9cafbc;}.cls-76{fill:#9baebb;}.cls-77{fill:#9badba;}.cls-78{fill:#9aacb9;}.cls-79{fill:#99abb8;}.cls-80{fill:#98aab7;}.cls-81{fill:#97a9b6;}.cls-82{fill:#96a8b5;}.cls-83{fill:#96a7b4;}.cls-84{fill:#95a6b3;}.cls-85{fill:#94a5b2;}.cls-86{fill:#93a5b1;}.cls-87{fill:#92a4b0;}.cls-88{fill:#91a3af;}.cls-89{fill:#91a2ae;}.cls-90{fill:#90a1ad;}.cls-91{fill:#8fa0ac;}.cls-92{fill:#8e9fab;}.cls-93{fill:#8d9eaa;}.cls-94{fill:#8d9da9;}.cls-95{fill:#8c9ca8;}.cls-96{fill:#8b9ba7;}.cls-97{fill:#8a9aa6;}.cls-98{fill:#8999a5;}.cls-99{fill:#8898a4;}.cls-100{fill:#8897a3;}.cls-101{fill:#8797a2;}.cls-102{fill:#8696a1;}.cls-103{fill:#8595a0;}.cls-104{fill:#84949f;}.cls-105{fill:#83939e;}.cls-106{fill:#83929d;}.cls-107{fill:#82919c;}.cls-108{fill:#81909b;}.cls-109{fill:#808f9a;}.cls-110{fill:#7f8e99;}.cls-111{fill:#7e8d98;}.cls-112{fill:#7e8c97;}.cls-113{fill:#7d8b96;}.cls-114{fill:#7c8a95;}.cls-115{fill:#7b8a94;}.cls-116{fill:#7a8993;}.cls-117{fill:#798892;}.cls-118{fill:#798791;}.cls-119{fill:#788690;}.cls-120{fill:#77858f;}.cls-121{fill:#76848e;}.cls-122{fill:#75838d;}.cls-123{fill:#74828c;}.cls-124{fill:#74818b;}.cls-125{fill:#73808a;}.cls-126{fill:#727f89;}.cls-127{fill:#717e88;}.cls-128{fill:#707d87;}.cls-129{fill:#6f7d86;}.cls-130{fill:#6f7c85;}.cls-131{fill:#6e7b84;}.cls-132{fill:#6d7a83;}.cls-133{fill:#6c7982;}.cls-134{fill:#6b7881;}.cls-135{fill:#6a7780;}.cls-136{fill:#6a767f;}.cls-137{fill:#69757e;}.cls-138{fill:#68747d;}.cls-139{fill:#67737c;}.cls-140{fill:#66727b;}.cls-141{fill:#65717a;}.cls-142{fill:#657079;}.cls-143{fill:#647078;}.cls-144{fill:#636f77;}.cls-145{fill:#626e76;}.cls-146{fill:#616d75;}.cls-147{fill:#606c74;}.cls-148{fill:#606b73;}.cls-149{fill:#5f6a72;}.cls-150{fill:#5e6971;}.cls-151{fill:#5d6870;}.cls-152{fill:#5c676f;}.cls-153{fill:#5b666e;}.cls-154{fill:#5b656d;}.cls-155{fill:#5a646c;}.cls-156{fill:#59636b;}.cls-157{fill:#58636a;}.cls-158{fill:#576269;}.cls-159{fill:#566168;}.cls-160{fill:#566067;}.cls-161{fill:#555f66;}.cls-162{fill:#545e65;}.cls-163{fill:#535d64;}.cls-164{fill:#525c63;}.cls-165{fill:#515b62;}.cls-166{fill:#515a61;}.cls-167{fill:#505960;}.cls-168{fill:#4f585f;}.cls-169{fill:#4e575e;}.cls-170{fill:#4d565d;}.cls-171{fill:#4c565c;}.cls-172{fill:#4c555b;}.cls-173{fill:#4b545a;}.cls-174{fill:#4a5359;}.cls-175{fill:#495258;}.cls-176{fill:#485157;}.cls-177{fill:#475056;}.cls-178{fill:#474f55;}.cls-179{fill:#464e54;}.cls-180{fill:#454d53;}.cls-181{fill:#444c52;}.cls-182{fill:#434b51;}.cls-183{fill:#434a50;}.cls-184{fill:#42494f;}.cls-185{fill:#41484e;}.cls-186{fill:#40484d;}.cls-187{fill:#3f474c;}.cls-188{fill:#3e464b;}.cls-189{fill:#3e454a;}.cls-190{fill:#3d4449;}.cls-191{fill:#3c4348;}.cls-192{fill:#3b4247;}.cls-193{fill:#3a4146;}.cls-194{fill:#394045;}.cls-195{fill:#393f44;}.cls-196{fill:#383e43;}.cls-197{fill:#373d42;}.cls-198{fill:#363c41;}.cls-199{fill:#353b40;}.cls-200{fill:#343b3f;}.cls-201{fill:#343a3e;}.cls-202{fill:#33393d;}.cls-203{fill:#32383c;}.cls-204{fill:#31373b;}.cls-205{fill:#30363a;}.cls-206{fill:#2f3539;}.cls-207{fill:#2f3438;}.cls-208{fill:#2e3337;}.cls-209{fill:#2d3236;}.cls-210{fill:#2c3135;}.cls-211{fill:#2b3034;}.cls-212{fill:#2a2f33;}.cls-213{fill:#2a2e32;}.cls-214{fill:#292e31;}.cls-215{fill:#282d30;}.cls-216{fill:#272c2f;}.cls-217{fill:#262b2e;}.cls-218{fill:#252a2d;}.cls-219{fill:#25292c;}.cls-220{fill:#24282b;}.cls-221{fill:#23272a;}.cls-222{fill:#222629;}.cls-223{fill:#212528;}.cls-224{fill:#202427;}.cls-225{fill:#202326;}.cls-226{fill:#1f2225;}.cls-227{fill:#1e2124;}.cls-228{fill:#1d2123;}.cls-229{fill:#1c2022;}.cls-230{fill:#1b1f21;}.cls-231{fill:#1b1e20;}.cls-232{fill:#1a1d1f;}.cls-233{fill:#191c1e;}.cls-234{fill:#181b1d;}.cls-235{fill:#171a1c;}.cls-236{fill:#16191b;}.cls-237{fill:#16181a;}.cls-238{fill:#151719;}.cls-239{fill:#141618;}.cls-240{fill:#131517;}.cls-241{fill:#121416;}.cls-242{fill:#111415;}.cls-243{fill:#111314;}.cls-244{fill:#101213;}.cls-245{fill:#0f1112;}.cls-246{fill:#0e1011;}.cls-247{fill:#0d0f10;}.cls-248{fill:#0c0e0f;}.cls-249{fill:#0c0d0e;}.cls-250{fill:#0b0c0d;}.cls-251{fill:#0a0b0c;}.cls-252{fill:#090a0b;}.cls-253{fill:#08090a;}.cls-254{fill:#070809;}.cls-255{fill:#070708;}.cls-256{fill:#060707;}.cls-257{fill:#050606;}.cls-258{fill:#040505;}.cls-259{fill:#030404;}.cls-260{fill:#020303;}.cls-261{fill:#020202;}.cls-262{fill:#010101;}.cls-263{fill:#3764ff;}.cls-264{fill:#f6a61c;}.cls-265{fill:#fec230;}.cls-266{fill:#fff;}.cls-267{fill:#fbbe17;}</style></defs><title>paypal</title><g class="cls-1"><g id="Isolation_Mode" data-name="Isolation Mode"><g id="Layer_1" data-name="Layer 1"><polygon class="cls-2" points="1029.74 36.68 1049.32 47.39 1029.74 58.1 1019.03 77.67 1008.33 58.1 988.75 47.39 1008.33 36.68 1019.03 17.11 1029.74 36.68"/><polygon class="cls-2" points="1077.18 71.47 1088.52 77.67 1077.18 83.87 1070.99 95.21 1064.79 83.87 1053.45 77.67 1064.79 71.47 1070.99 60.14 1077.18 71.47"/><polygon class="cls-2" points="84.18 91.42 64.61 102.13 84.18 112.84 94.89 132.41 105.6 112.84 125.17 102.13 105.6 91.42 94.89 71.85 84.18 91.42"/><polygon class="cls-2" points="36.74 126.21 25.41 132.41 36.74 138.61 42.94 149.95 49.14 138.61 60.47 132.41 49.14 126.21 42.94 114.88 36.74 126.21"/><ellipse class="cls-3" cx="669.45" cy="663.4" rx="669.45" ry="53.24"/><path class="cls-4" d="M3235.29,555.83a25.84,25.84,0,0,0-25.83,25.83c0,14.26,18,51.61,25.83,51.61s25.83-37.35,25.83-51.61A25.83,25.83,0,0,0,3235.29,555.83Zm0,43a15.42,15.42,0,1,1,15.42-15.42A15.42,15.42,0,0,1,3235.29,598.82Z" transform="translate(-2781.23 -362.96)"/><polygon class="cls-5" points="804.62 129.15 881.76 206.47 767.89 183.2 787.09 160.57 781.01 140.5 854.66 186.81 796.01 141.07 796.21 133.59 796.56 120.99 804.62 129.15"/><path class="cls-6" d="M3537.82,487.23l-1.55,2.81c1.56.85,3.12,1.73,4.66,2.63l1.6-2.79C3541,489,3539.41,488.09,3537.82,487.23Z" transform="translate(-2781.23 -362.96)"/><polygon class="cls-6" points="769.63 131.9 765.01 129.09 763.37 131.86 767.94 134.63 769.63 131.9"/><polygon class="cls-6" points="777.78 137.13 773.24 134.17 771.51 136.87 775.98 139.8 777.78 137.13"/><polygon class="cls-6" points="734.04 116.64 735.32 113.69 730.32 111.59 729.11 114.57 734.04 116.64"/><path class="cls-6" d="M3525.37,480.74c-1.63-.77-3.24-1.59-4.9-2.32l-1.34,2.92c1.63.72,3.22,1.53,4.83,2.29Z" transform="translate(-2781.23 -362.96)"/><path class="cls-6" d="M3529.19,482.65l-1.46,2.86c1.6.8,3.17,1.63,4.75,2.47l1.51-2.83C3532.4,484.29,3530.8,483.45,3529.19,482.65Z" transform="translate(-2781.23 -362.96)"/><path class="cls-6" d="M3488.8,467.26c-1.8-.34-3.58-.76-5.39-1l-.52,3.17c1.75.27,3.48.68,5.21,1Z" transform="translate(-2781.23 -362.96)"/><path class="cls-6" d="M3493,468.3l-.82,3.11c1.73.4,3.42.95,5.12,1.46l.94-3.07C3496.52,469.27,3494.79,468.72,3493,468.3Z" transform="translate(-2781.23 -362.96)"/><path class="cls-6" d="M3506.33,476l1.14-3c-1.68-.68-3.41-1.24-5.12-1.84l-1,3C3503,474.76,3504.68,475.3,3506.33,476Z" transform="translate(-2781.23 -362.96)"/><path class="cls-6" d="M3460,469.87l-.85-3.09a55.24,55.24,0,0,0-5.36,1.92l1.34,2.93C3456.71,471,3458.34,470.37,3460,469.87Z" transform="translate(-2781.23 -362.96)"/><path class="cls-6" d="M3469.25,468.48l-.15-3.21c-1.85.06-3.72.36-5.58.54L3464,469C3465.78,468.82,3467.5,468.54,3469.25,468.48Z" transform="translate(-2781.23 -362.96)"/><polygon class="cls-6" points="697.43 105.84 697.78 102.65 692.26 102.25 692.17 105.46 697.43 105.84"/><path class="cls-6" d="M3436.9,486.47c-.68,1.75-1.28,3.52-1.91,5.27l3.07.95c.6-1.64,1.15-3.3,1.78-4.93Z" transform="translate(-2781.23 -362.96)"/><path class="cls-6" d="M3444.63,479.78l-2.5-2-1.66,2.32a16,16,0,0,0-1.53,2.4l2.79,1.6a13.14,13.14,0,0,1,1.4-2.19Z" transform="translate(-2781.23 -362.96)"/><path class="cls-6" d="M3449.38,475.15l2.07-1.54-1.74-2.71-2.3,1.72a13,13,0,0,0-2.2,1.85l2.2,2.34A11.63,11.63,0,0,1,3449.38,475.15Z" transform="translate(-2781.23 -362.96)"/><path class="cls-6" d="M3432.11,515.7c.06,1.82,0,3.66.25,5.46l3.2-.23c-.2-1.76-.18-3.54-.24-5.31Z" transform="translate(-2781.23 -362.96)"/><polygon class="cls-6" points="651.11 142.89 650.84 148.39 654.05 148.45 654.31 143.16 651.11 142.89"/><polygon class="cls-6" points="655.78 133.84 652.65 133.13 652.02 135.83 651.65 138.57 654.83 139.03 655.18 136.41 655.78 133.84"/><polygon class="cls-6" points="654.89 181.78 656.17 187.05 659.28 186.24 658.02 181.04 654.89 181.78"/><polygon class="cls-6" points="652.9 172.24 653.94 177.57 657.09 176.91 656.07 171.67 652.9 172.24"/><path class="cls-6" d="M3432.75,525.55c.13,1.82.49,3.6.72,5.4l3.18-.47c-.23-1.76-.58-3.51-.71-5.28Z" transform="translate(-2781.23 -362.96)"/><rect class="cls-7" x="264.03" width="405.61" height="658.04" rx="23.64"/><path class="cls-2" d="M3255.19,389.46a7.13,7.13,0,1,1-7.12-7.12A7.12,7.12,0,0,1,3255.19,389.46Z" transform="translate(-2781.23 -362.96)"/><path class="cls-3" d="M3059.47,988.15c0,9.8,7.68,17.75,17.14,17.75h342.91c9.47,0,17.14-7.95,17.14-17.75V702.9H3059.47Z" transform="translate(-2781.23 -362.96)"/><path class="cls-2" d="M3415.17,380.06H3294.29a12.15,12.15,0,0,0-12.15,12.15A12.15,12.15,0,0,1,3270,404.36h-43.85A12.15,12.15,0,0,1,3214,392.21a12.14,12.14,0,0,0-12.14-12.15H3081a21.5,21.5,0,0,0-21.49,21.5V702.9h377.19V401.56A21.5,21.5,0,0,0,3415.17,380.06Z" transform="translate(-2781.23 -362.96)"/><g class="cls-8"><rect class="cls-3" x="308.14" y="261.05" width="311.58" height="101.72" rx="8.75"/><rect class="cls-9" x="308.12" y="261.02" width="311.58" height="101.72" rx="8.75"/><rect class="cls-10" x="308.1" y="260.99" width="311.58" height="101.72" rx="8.75"/><rect class="cls-11" x="308.08" y="260.96" width="311.58" height="101.72" rx="8.75"/><rect class="cls-12" x="308.06" y="260.93" width="311.58" height="101.72" rx="8.75"/><rect class="cls-13" x="308.04" y="260.9" width="311.58" height="101.72" rx="8.75"/><rect class="cls-14" x="308.01" y="260.87" width="311.58" height="101.72" rx="8.75"/><rect class="cls-15" x="307.99" y="260.83" width="311.58" height="101.72" rx="8.75"/><rect class="cls-16" x="307.97" y="260.8" width="311.58" height="101.72" rx="8.75"/><rect class="cls-17" x="307.95" y="260.77" width="311.58" height="101.72" rx="8.75"/><rect class="cls-18" x="307.93" y="260.74" width="311.58" height="101.72" rx="8.75"/><rect class="cls-19" x="307.91" y="260.71" width="311.58" height="101.72" rx="8.75"/><rect class="cls-20" x="307.89" y="260.68" width="311.58" height="101.72" rx="8.75"/><rect class="cls-21" x="307.87" y="260.65" width="311.58" height="101.72" rx="8.75"/><rect class="cls-22" x="307.85" y="260.62" width="311.58" height="101.72" rx="8.75"/><rect class="cls-23" x="307.83" y="260.59" width="311.58" height="101.72" rx="8.75"/><rect class="cls-24" x="307.81" y="260.55" width="311.58" height="101.72" rx="8.75"/><rect class="cls-25" x="307.79" y="260.52" width="311.58" height="101.72" rx="8.75"/><rect class="cls-26" x="307.77" y="260.49" width="311.58" height="101.72" rx="8.75"/><rect class="cls-27" x="307.75" y="260.46" width="311.58" height="101.72" rx="8.75"/><rect class="cls-28" x="307.73" y="260.43" width="311.58" height="101.72" rx="8.75"/><rect class="cls-29" x="307.71" y="260.4" width="311.58" height="101.72" rx="8.75"/><rect class="cls-30" x="307.69" y="260.37" width="311.58" height="101.72" rx="8.75"/><rect class="cls-31" x="307.67" y="260.34" width="311.58" height="101.72" rx="8.75"/><rect class="cls-32" x="307.65" y="260.31" width="311.58" height="101.72" rx="8.75"/><rect class="cls-33" x="307.63" y="260.27" width="311.58" height="101.72" rx="8.75"/><rect class="cls-34" x="307.61" y="260.24" width="311.58" height="101.72" rx="8.75"/><rect class="cls-35" x="307.59" y="260.21" width="311.58" height="101.72" rx="8.75"/><rect class="cls-36" x="307.57" y="260.18" width="311.58" height="101.72" rx="8.75"/><rect class="cls-37" x="307.55" y="260.15" width="311.58" height="101.72" rx="8.75"/><rect class="cls-38" x="307.53" y="260.12" width="311.58" height="101.72" rx="8.75"/><rect class="cls-39" x="307.51" y="260.09" width="311.58" height="101.72" rx="8.75"/><rect class="cls-40" x="307.49" y="260.06" width="311.58" height="101.72" rx="8.75"/><rect class="cls-41" x="307.47" y="260.02" width="311.58" height="101.72" rx="8.75"/><rect class="cls-42" x="307.45" y="259.99" width="311.58" height="101.72" rx="8.75"/><rect class="cls-43" x="307.43" y="259.96" width="311.58" height="101.72" rx="8.75"/><rect class="cls-44" x="307.41" y="259.93" width="311.58" height="101.72" rx="8.75"/><rect class="cls-45" x="307.39" y="259.9" width="311.58" height="101.72" rx="8.75"/><rect class="cls-46" x="307.37" y="259.87" width="311.58" height="101.72" rx="8.75"/><rect class="cls-47" x="307.35" y="259.84" width="311.58" height="101.72" rx="8.75"/><rect class="cls-48" x="307.33" y="259.81" width="311.58" height="101.72" rx="8.75"/><rect class="cls-49" x="307.31" y="259.78" width="311.58" height="101.72" rx="8.75"/><rect class="cls-50" x="307.29" y="259.74" width="311.58" height="101.72" rx="8.75"/><rect class="cls-51" x="307.27" y="259.71" width="311.58" height="101.72" rx="8.75"/><rect class="cls-52" x="307.25" y="259.68" width="311.58" height="101.72" rx="8.75"/><rect class="cls-53" x="307.23" y="259.65" width="311.58" height="101.72" rx="8.75"/><rect class="cls-54" x="307.21" y="259.62" width="311.58" height="101.72" rx="8.75"/><rect class="cls-55" x="307.19" y="259.59" width="311.58" height="101.72" rx="8.75"/><rect class="cls-56" x="307.17" y="259.56" width="311.58" height="101.72" rx="8.75"/><rect class="cls-57" x="307.15" y="259.53" width="311.58" height="101.72" rx="8.75"/><rect class="cls-58" x="307.13" y="259.5" width="311.58" height="101.72" rx="8.75"/><rect class="cls-59" x="307.11" y="259.46" width="311.58" height="101.72" rx="8.75"/><rect class="cls-60" x="307.09" y="259.43" width="311.58" height="101.72" rx="8.75"/><rect class="cls-61" x="307.07" y="259.4" width="311.58" height="101.72" rx="8.75"/><rect class="cls-62" x="307.05" y="259.37" width="311.58" height="101.72" rx="8.75"/><rect class="cls-63" x="307.03" y="259.34" width="311.58" height="101.72" rx="8.75"/><rect class="cls-64" x="307.01" y="259.31" width="311.58" height="101.72" rx="8.75"/><rect class="cls-65" x="306.99" y="259.28" width="311.58" height="101.72" rx="8.75"/><rect class="cls-66" x="306.97" y="259.25" width="311.58" height="101.72" rx="8.75"/><rect class="cls-67" x="306.95" y="259.22" width="311.58" height="101.72" rx="8.75"/><rect class="cls-68" x="306.93" y="259.18" width="311.58" height="101.72" rx="8.75"/><rect class="cls-69" x="306.91" y="259.15" width="311.58" height="101.72" rx="8.75"/><rect class="cls-70" x="306.89" y="259.12" width="311.58" height="101.72" rx="8.75"/><rect class="cls-71" x="306.87" y="259.09" width="311.58" height="101.72" rx="8.75"/><rect class="cls-72" x="306.85" y="259.06" width="311.58" height="101.72" rx="8.75"/><rect class="cls-73" x="306.83" y="259.03" width="311.58" height="101.72" rx="8.75"/><rect class="cls-74" x="306.81" y="259" width="311.58" height="101.72" rx="8.75"/><rect class="cls-75" x="306.79" y="258.97" width="311.58" height="101.72" rx="8.75"/><rect class="cls-76" x="306.77" y="258.94" width="311.58" height="101.72" rx="8.75"/><rect class="cls-77" x="306.75" y="258.9" width="311.58" height="101.72" rx="8.75"/><rect class="cls-78" x="306.73" y="258.87" width="311.58" height="101.72" rx="8.75"/><rect class="cls-79" x="306.71" y="258.84" width="311.58" height="101.72" rx="8.75"/><rect class="cls-80" x="306.69" y="258.81" width="311.58" height="101.72" rx="8.75"/><rect class="cls-81" x="306.67" y="258.78" width="311.58" height="101.72" rx="8.75"/><rect class="cls-82" x="306.65" y="258.75" width="311.58" height="101.72" rx="8.75"/><rect class="cls-83" x="306.63" y="258.72" width="311.58" height="101.72" rx="8.75"/><rect class="cls-84" x="306.61" y="258.69" width="311.58" height="101.72" rx="8.75"/><rect class="cls-85" x="306.59" y="258.66" width="311.58" height="101.72" rx="8.75"/><rect class="cls-86" x="306.57" y="258.62" width="311.58" height="101.72" rx="8.75"/><rect class="cls-87" x="306.55" y="258.59" width="311.58" height="101.72" rx="8.75"/><rect class="cls-88" x="306.53" y="258.56" width="311.58" height="101.72" rx="8.75"/><rect class="cls-89" x="306.51" y="258.53" width="311.58" height="101.72" rx="8.75"/><rect class="cls-90" x="306.49" y="258.5" width="311.58" height="101.72" rx="8.75"/><rect class="cls-91" x="306.47" y="258.47" width="311.58" height="101.72" rx="8.75"/><rect class="cls-92" x="306.45" y="258.44" width="311.58" height="101.72" rx="8.75"/><rect class="cls-93" x="306.43" y="258.41" width="311.58" height="101.72" rx="8.75"/><rect class="cls-94" x="306.41" y="258.38" width="311.58" height="101.72" rx="8.75"/><rect class="cls-95" x="306.39" y="258.34" width="311.58" height="101.72" rx="8.75"/><rect class="cls-96" x="306.37" y="258.31" width="311.58" height="101.72" rx="8.75"/><rect class="cls-97" x="306.35" y="258.28" width="311.58" height="101.72" rx="8.75"/><rect class="cls-98" x="306.33" y="258.25" width="311.58" height="101.72" rx="8.75"/><rect class="cls-99" x="306.31" y="258.22" width="311.58" height="101.72" rx="8.75"/><rect class="cls-100" x="306.29" y="258.19" width="311.58" height="101.72" rx="8.75"/><rect class="cls-101" x="306.27" y="258.16" width="311.58" height="101.72" rx="8.75"/><rect class="cls-102" x="306.25" y="258.13" width="311.58" height="101.72" rx="8.75"/><rect class="cls-103" x="306.23" y="258.1" width="311.58" height="101.72" rx="8.75"/><rect class="cls-104" x="306.21" y="258.06" width="311.58" height="101.72" rx="8.75"/><rect class="cls-105" x="306.19" y="258.03" width="311.58" height="101.72" rx="8.75"/><rect class="cls-106" x="306.17" y="258" width="311.58" height="101.72" rx="8.75"/><rect class="cls-107" x="306.15" y="257.97" width="311.58" height="101.72" rx="8.75"/><rect class="cls-108" x="306.13" y="257.94" width="311.58" height="101.72" rx="8.75"/><rect class="cls-109" x="306.11" y="257.91" width="311.58" height="101.72" rx="8.75"/><rect class="cls-110" x="306.09" y="257.88" width="311.58" height="101.72" rx="8.75"/><rect class="cls-111" x="306.07" y="257.85" width="311.58" height="101.72" rx="8.75"/><rect class="cls-112" x="306.05" y="257.81" width="311.58" height="101.72" rx="8.75"/><rect class="cls-113" x="306.03" y="257.78" width="311.58" height="101.72" rx="8.75"/><rect class="cls-114" x="306.01" y="257.75" width="311.58" height="101.72" rx="8.75"/><rect class="cls-115" x="305.99" y="257.72" width="311.58" height="101.72" rx="8.75"/><rect class="cls-116" x="305.97" y="257.69" width="311.58" height="101.72" rx="8.75"/><rect class="cls-117" x="305.95" y="257.66" width="311.58" height="101.72" rx="8.75"/><rect class="cls-118" x="305.93" y="257.63" width="311.58" height="101.72" rx="8.75"/><rect class="cls-119" x="305.91" y="257.6" width="311.58" height="101.72" rx="8.75"/><rect class="cls-120" x="305.89" y="257.57" width="311.58" height="101.72" rx="8.75"/><rect class="cls-121" x="305.87" y="257.53" width="311.58" height="101.72" rx="8.75"/><rect class="cls-122" x="305.85" y="257.5" width="311.58" height="101.72" rx="8.75"/><rect class="cls-123" x="305.83" y="257.47" width="311.58" height="101.72" rx="8.75"/><rect class="cls-124" x="305.81" y="257.44" width="311.58" height="101.72" rx="8.75"/><rect class="cls-125" x="305.79" y="257.41" width="311.58" height="101.72" rx="8.75"/><rect class="cls-126" x="305.77" y="257.38" width="311.58" height="101.72" rx="8.75"/><rect class="cls-127" x="305.75" y="257.35" width="311.58" height="101.72" rx="8.75"/><rect class="cls-128" x="305.73" y="257.32" width="311.58" height="101.72" rx="8.75"/><rect class="cls-129" x="305.71" y="257.29" width="311.58" height="101.72" rx="8.75"/><rect class="cls-130" x="305.69" y="257.25" width="311.58" height="101.72" rx="8.75"/><rect class="cls-131" x="305.67" y="257.22" width="311.58" height="101.72" rx="8.75"/><rect class="cls-132" x="305.65" y="257.19" width="311.58" height="101.72" rx="8.75"/><rect class="cls-133" x="305.63" y="257.16" width="311.58" height="101.72" rx="8.75"/><rect class="cls-134" x="305.61" y="257.13" width="311.58" height="101.72" rx="8.75"/><rect class="cls-135" x="305.59" y="257.1" width="311.58" height="101.72" rx="8.75"/><rect class="cls-136" x="305.57" y="257.07" width="311.58" height="101.72" rx="8.75"/><rect class="cls-137" x="305.55" y="257.04" width="311.58" height="101.72" rx="8.75"/><rect class="cls-138" x="305.53" y="257.01" width="311.58" height="101.72" rx="8.75"/><rect class="cls-139" x="305.51" y="256.97" width="311.58" height="101.72" rx="8.75"/><rect class="cls-140" x="305.49" y="256.94" width="311.58" height="101.72" rx="8.75"/><rect class="cls-141" x="305.47" y="256.91" width="311.58" height="101.72" rx="8.75"/><rect class="cls-142" x="305.45" y="256.88" width="311.58" height="101.72" rx="8.75"/><rect class="cls-143" x="305.43" y="256.85" width="311.58" height="101.72" rx="8.75"/><rect class="cls-144" x="305.41" y="256.82" width="311.58" height="101.72" rx="8.75"/><rect class="cls-145" x="305.39" y="256.79" width="311.58" height="101.72" rx="8.75"/><rect class="cls-146" x="305.37" y="256.76" width="311.58" height="101.72" rx="8.75"/><rect class="cls-147" x="305.34" y="256.73" width="311.58" height="101.72" rx="8.75"/><rect class="cls-148" x="305.32" y="256.69" width="311.58" height="101.72" rx="8.75"/><rect class="cls-149" x="305.3" y="256.66" width="311.58" height="101.72" rx="8.75"/><rect class="cls-150" x="305.28" y="256.63" width="311.58" height="101.72" rx="8.75"/><rect class="cls-151" x="305.26" y="256.6" width="311.58" height="101.72" rx="8.75"/><rect class="cls-152" x="305.24" y="256.57" width="311.58" height="101.72" rx="8.75"/><rect class="cls-153" x="305.22" y="256.54" width="311.58" height="101.72" rx="8.75"/><rect class="cls-154" x="305.2" y="256.51" width="311.58" height="101.72" rx="8.75"/><rect class="cls-155" x="305.18" y="256.48" width="311.58" height="101.72" rx="8.75"/><rect class="cls-156" x="305.16" y="256.45" width="311.58" height="101.72" rx="8.75"/><rect class="cls-157" x="305.14" y="256.41" width="311.58" height="101.72" rx="8.75"/><rect class="cls-158" x="305.12" y="256.38" width="311.58" height="101.72" rx="8.75"/><rect class="cls-159" x="305.1" y="256.35" width="311.58" height="101.72" rx="8.75"/><rect class="cls-160" x="305.08" y="256.32" width="311.58" height="101.72" rx="8.75"/><rect class="cls-161" x="305.06" y="256.29" width="311.58" height="101.72" rx="8.75"/><rect class="cls-162" x="305.04" y="256.26" width="311.58" height="101.72" rx="8.75"/><rect class="cls-163" x="305.02" y="256.23" width="311.58" height="101.72" rx="8.75"/><rect class="cls-164" x="305" y="256.2" width="311.58" height="101.72" rx="8.75"/><rect class="cls-165" x="304.98" y="256.17" width="311.58" height="101.72" rx="8.75"/><rect class="cls-166" x="304.96" y="256.13" width="311.58" height="101.72" rx="8.75"/><rect class="cls-167" x="304.94" y="256.1" width="311.58" height="101.72" rx="8.75"/><rect class="cls-168" x="304.92" y="256.07" width="311.58" height="101.72" rx="8.75"/><rect class="cls-169" x="304.9" y="256.04" width="311.58" height="101.72" rx="8.75"/><rect class="cls-170" x="304.88" y="256.01" width="311.58" height="101.72" rx="8.75"/><rect class="cls-171" x="304.86" y="255.98" width="311.58" height="101.72" rx="8.75"/><rect class="cls-172" x="304.84" y="255.95" width="311.58" height="101.72" rx="8.75"/><rect class="cls-173" x="304.82" y="255.92" width="311.58" height="101.72" rx="8.75"/><rect class="cls-174" x="304.8" y="255.89" width="311.58" height="101.72" rx="8.75"/><rect class="cls-175" x="304.78" y="255.85" width="311.58" height="101.72" rx="8.75"/><rect class="cls-176" x="304.76" y="255.82" width="311.58" height="101.72" rx="8.75"/><rect class="cls-177" x="304.74" y="255.79" width="311.58" height="101.72" rx="8.75"/><rect class="cls-178" x="304.72" y="255.76" width="311.58" height="101.72" rx="8.75"/><rect class="cls-179" x="304.7" y="255.73" width="311.58" height="101.72" rx="8.75"/><rect class="cls-180" x="304.68" y="255.7" width="311.58" height="101.72" rx="8.75"/><rect class="cls-181" x="304.66" y="255.67" width="311.58" height="101.72" rx="8.75"/><rect class="cls-182" x="304.64" y="255.64" width="311.58" height="101.72" rx="8.75"/><rect class="cls-183" x="304.62" y="255.6" width="311.58" height="101.72" rx="8.75"/><rect class="cls-184" x="304.6" y="255.57" width="311.58" height="101.72" rx="8.75"/><rect class="cls-185" x="304.58" y="255.54" width="311.58" height="101.72" rx="8.75"/><rect class="cls-186" x="304.56" y="255.51" width="311.58" height="101.72" rx="8.75"/><rect class="cls-187" x="304.54" y="255.48" width="311.58" height="101.72" rx="8.75"/><rect class="cls-188" x="304.52" y="255.45" width="311.58" height="101.72" rx="8.75"/><rect class="cls-189" x="304.5" y="255.42" width="311.58" height="101.72" rx="8.75"/><rect class="cls-190" x="304.48" y="255.39" width="311.58" height="101.72" rx="8.75"/><rect class="cls-191" x="304.46" y="255.36" width="311.58" height="101.72" rx="8.75"/><rect class="cls-192" x="304.44" y="255.32" width="311.58" height="101.72" rx="8.75"/><rect class="cls-193" x="304.42" y="255.29" width="311.58" height="101.72" rx="8.75"/><rect class="cls-194" x="304.4" y="255.26" width="311.58" height="101.72" rx="8.75"/><rect class="cls-195" x="304.38" y="255.23" width="311.58" height="101.72" rx="8.75"/><rect class="cls-196" x="304.36" y="255.2" width="311.58" height="101.72" rx="8.75"/><rect class="cls-197" x="304.34" y="255.17" width="311.58" height="101.72" rx="8.75"/><rect class="cls-198" x="304.32" y="255.14" width="311.58" height="101.72" rx="8.75"/><rect class="cls-199" x="304.3" y="255.11" width="311.58" height="101.72" rx="8.75"/><rect class="cls-200" x="304.28" y="255.08" width="311.58" height="101.72" rx="8.75"/><rect class="cls-201" x="304.26" y="255.04" width="311.58" height="101.72" rx="8.75"/><rect class="cls-202" x="304.24" y="255.01" width="311.58" height="101.72" rx="8.75"/><rect class="cls-203" x="304.22" y="254.98" width="311.58" height="101.72" rx="8.75"/><rect class="cls-204" x="304.2" y="254.95" width="311.58" height="101.72" rx="8.75"/><rect class="cls-205" x="304.18" y="254.92" width="311.58" height="101.72" rx="8.75"/><rect class="cls-206" x="304.16" y="254.89" width="311.58" height="101.72" rx="8.75"/><rect class="cls-207" x="304.14" y="254.86" width="311.58" height="101.72" rx="8.75"/><rect class="cls-208" x="304.12" y="254.83" width="311.58" height="101.72" rx="8.75"/><rect class="cls-209" x="304.1" y="254.8" width="311.58" height="101.72" rx="8.75"/><rect class="cls-210" x="304.08" y="254.76" width="311.58" height="101.72" rx="8.75"/><rect class="cls-211" x="304.06" y="254.73" width="311.58" height="101.72" rx="8.75"/><rect class="cls-212" x="304.04" y="254.7" width="311.58" height="101.72" rx="8.75"/><rect class="cls-213" x="304.02" y="254.67" width="311.58" height="101.72" rx="8.75"/><rect class="cls-214" x="304" y="254.64" width="311.58" height="101.72" rx="8.75"/><rect class="cls-215" x="303.98" y="254.61" width="311.58" height="101.72" rx="8.75"/><rect class="cls-216" x="303.96" y="254.58" width="311.58" height="101.72" rx="8.75"/><rect class="cls-217" x="303.94" y="254.55" width="311.58" height="101.72" rx="8.75"/><rect class="cls-218" x="303.92" y="254.52" width="311.58" height="101.72" rx="8.75"/><rect class="cls-219" x="303.9" y="254.48" width="311.58" height="101.72" rx="8.75"/><rect class="cls-220" x="303.88" y="254.45" width="311.58" height="101.72" rx="8.75"/><rect class="cls-221" x="303.86" y="254.42" width="311.58" height="101.72" rx="8.75"/><rect class="cls-222" x="303.84" y="254.39" width="311.58" height="101.72" rx="8.75"/><rect class="cls-223" x="303.82" y="254.36" width="311.58" height="101.72" rx="8.75"/><rect class="cls-224" x="303.8" y="254.33" width="311.58" height="101.72" rx="8.75"/><rect class="cls-225" x="303.78" y="254.3" width="311.58" height="101.72" rx="8.75"/><rect class="cls-226" x="303.76" y="254.27" width="311.58" height="101.72" rx="8.75"/><rect class="cls-227" x="303.74" y="254.24" width="311.58" height="101.72" rx="8.75"/><rect class="cls-228" x="303.72" y="254.2" width="311.58" height="101.72" rx="8.75"/><rect class="cls-229" x="303.7" y="254.17" width="311.58" height="101.72" rx="8.75"/><rect class="cls-230" x="303.68" y="254.14" width="311.58" height="101.72" rx="8.75"/><rect class="cls-231" x="303.66" y="254.11" width="311.58" height="101.72" rx="8.75"/><rect class="cls-232" x="303.64" y="254.08" width="311.58" height="101.72" rx="8.75"/><rect class="cls-233" x="303.62" y="254.05" width="311.58" height="101.72" rx="8.75"/><rect class="cls-234" x="303.6" y="254.02" width="311.58" height="101.72" rx="8.75"/><rect class="cls-235" x="303.58" y="253.99" width="311.58" height="101.72" rx="8.75"/><rect class="cls-236" x="303.56" y="253.96" width="311.58" height="101.72" rx="8.75"/><rect class="cls-237" x="303.54" y="253.92" width="311.58" height="101.72" rx="8.75"/><rect class="cls-238" x="303.52" y="253.89" width="311.58" height="101.72" rx="8.75"/><rect class="cls-239" x="303.5" y="253.86" width="311.58" height="101.72" rx="8.75"/><rect class="cls-240" x="303.48" y="253.83" width="311.58" height="101.72" rx="8.75"/><rect class="cls-241" x="303.46" y="253.8" width="311.58" height="101.72" rx="8.75"/><rect class="cls-242" x="303.44" y="253.77" width="311.58" height="101.72" rx="8.75"/><rect class="cls-243" x="303.42" y="253.74" width="311.58" height="101.72" rx="8.75"/><rect class="cls-244" x="303.4" y="253.71" width="311.58" height="101.72" rx="8.75"/><rect class="cls-245" x="303.38" y="253.68" width="311.58" height="101.72" rx="8.75"/><rect class="cls-246" x="303.36" y="253.64" width="311.58" height="101.72" rx="8.75"/><rect class="cls-247" x="303.34" y="253.61" width="311.58" height="101.72" rx="8.75"/><rect class="cls-248" x="303.32" y="253.58" width="311.58" height="101.72" rx="8.75"/><rect class="cls-249" x="303.3" y="253.55" width="311.58" height="101.72" rx="8.75"/><rect class="cls-250" x="303.28" y="253.52" width="311.58" height="101.72" rx="8.75"/><rect class="cls-251" x="303.26" y="253.49" width="311.58" height="101.72" rx="8.75"/><rect class="cls-252" x="303.24" y="253.46" width="311.58" height="101.72" rx="8.75"/><rect class="cls-253" x="303.22" y="253.43" width="311.58" height="101.72" rx="8.75"/><rect class="cls-254" x="303.2" y="253.39" width="311.58" height="101.72" rx="8.75"/><rect class="cls-255" x="303.18" y="253.36" width="311.58" height="101.72" rx="8.75"/><rect class="cls-256" x="303.16" y="253.33" width="311.58" height="101.72" rx="8.75"/><rect class="cls-257" x="303.14" y="253.3" width="311.58" height="101.72" rx="8.75"/><rect class="cls-258" x="303.12" y="253.27" width="311.58" height="101.72" rx="8.75"/><rect class="cls-259" x="303.1" y="253.24" width="311.58" height="101.72" rx="8.75"/><rect class="cls-260" x="303.08" y="253.21" width="311.58" height="101.72" rx="8.75"/><rect class="cls-261" x="303.06" y="253.18" width="311.58" height="101.72" rx="8.75"/><rect class="cls-262" x="303.04" y="253.15" width="311.58" height="101.72" rx="8.75"/><rect x="303.02" y="253.11" width="311.58" height="101.72" rx="8.75"/></g><rect class="cls-3" x="303.02" y="253.11" width="311.58" height="101.72" rx="8.75"/><rect class="cls-2" x="313.72" y="271.38" width="280.78" height="9.24" rx="3.93"/><rect class="cls-2" x="313.72" y="292.51" width="280.78" height="9.24" rx="3.93"/><rect class="cls-2" x="313.72" y="313.63" width="170.2" height="9.24" rx="3.93"/><rect class="cls-263" x="643.85" y="296.89" width="528.67" height="368.76" rx="26.16"/><ellipse class="cls-264" cx="816.19" cy="377.38" rx="68.57" ry="67.88"/><ellipse class="cls-265" cx="816.19" cy="377.38" rx="57.59" ry="57.01"/><path class="cls-266" d="M3614.87,749.91a14.89,14.89,0,0,1-1.23,6.16,13.53,13.53,0,0,1-3.47,4.73,17,17,0,0,1-5.41,3.18,25.77,25.77,0,0,1-7,1.52l0,8.5a1.54,1.54,0,0,1-.18.56,1.11,1.11,0,0,1-.52.4,5.33,5.33,0,0,1-1.05.26,12.39,12.39,0,0,1-1.66.1,14.2,14.2,0,0,1-2.07-.12,4.27,4.27,0,0,1-1.23-.34,1.15,1.15,0,0,1-.58-.57,1.52,1.52,0,0,1-.06-.8l0-8.07a32.42,32.42,0,0,1-3.25-.61,28,28,0,0,1-2.77-.83,18.81,18.81,0,0,1-2.15-.94,6.1,6.1,0,0,1-1.36-.93,2.77,2.77,0,0,1-.67-1.35,13.3,13.3,0,0,1-.2-2.64c0-.91,0-1.65.08-2.23a5.16,5.16,0,0,1,.28-1.35,1.18,1.18,0,0,1,1.21-.84,3.45,3.45,0,0,1,1.52.6,28.43,28.43,0,0,0,2.57,1.31,25.6,25.6,0,0,0,3.8,1.31,20.73,20.73,0,0,0,5.24.59q4.7,0,7-1.73a5.45,5.45,0,0,0,2.29-4.59,4.86,4.86,0,0,0-1-3.14,9.14,9.14,0,0,0-2.63-2.17,24.07,24.07,0,0,0-3.71-1.66c-1.38-.49-2.79-1-4.24-1.57a37.7,37.7,0,0,1-4.24-1.95,15.92,15.92,0,0,1-3.71-2.74,11.93,11.93,0,0,1-2.63-4,14.31,14.31,0,0,1-1-5.62,14.16,14.16,0,0,1,1-5.43,12.47,12.47,0,0,1,2.89-4.27,14.57,14.57,0,0,1,4.64-3,23.58,23.58,0,0,1,6.24-1.53l-.22-7.56a1.33,1.33,0,0,1,.18-.53,1.23,1.23,0,0,1,.53-.4,3.27,3.27,0,0,1,1-.26,15,15,0,0,1,1.68-.08,14.79,14.79,0,0,1,2.07.12,4.69,4.69,0,0,1,1.27.33,1,1,0,0,1,.56.58,2.47,2.47,0,0,1,.12.79l.21,7.09c.75.1,1.54.25,2.37.43a22.29,22.29,0,0,1,2.33.66,19.68,19.68,0,0,1,2,.79,4.66,4.66,0,0,1,1.22.75,3.08,3.08,0,0,1,.53.68,3.22,3.22,0,0,1,.28.83,10.79,10.79,0,0,1,.14,1.2c0,.46,0,1,0,1.61,0,.82,0,1.49-.06,2a4.45,4.45,0,0,1-.22,1.22,1.24,1.24,0,0,1-.36.55.78.78,0,0,1-.48.14,3.82,3.82,0,0,1-1.53-.51c-.67-.35-1.49-.72-2.47-1.12a31.75,31.75,0,0,0-3.37-1.11,16.22,16.22,0,0,0-4.2-.51,13.73,13.73,0,0,0-3.57.4,6.65,6.65,0,0,0-2.41,1.11,4.46,4.46,0,0,0-1.36,1.71,5.23,5.23,0,0,0-.44,2.19,4.92,4.92,0,0,0,1,3.14,8.75,8.75,0,0,0,2.67,2.18,26.13,26.13,0,0,0,3.78,1.67c1.4.5,2.84,1,4.3,1.59a39.9,39.9,0,0,1,4.29,1.92,15.71,15.71,0,0,1,3.76,2.7,12.45,12.45,0,0,1,2.65,3.9A13.75,13.75,0,0,1,3614.87,749.91Z" transform="translate(-2781.23 -362.96)"/><ellipse class="cls-264" cx="929.55" cy="331.59" rx="68.57" ry="67.88"/><ellipse class="cls-265" cx="929.55" cy="331.59" rx="57.59" ry="57.01"/><path class="cls-266" d="M3728.23,704.12a14.89,14.89,0,0,1-1.22,6.16,13.53,13.53,0,0,1-3.47,4.73,17,17,0,0,1-5.42,3.18,25.61,25.61,0,0,1-7,1.52l0,8.5a1.54,1.54,0,0,1-.18.56,1.09,1.09,0,0,1-.53.4,5,5,0,0,1-1,.26,12.55,12.55,0,0,1-1.67.1,14.15,14.15,0,0,1-2.06-.12,4.18,4.18,0,0,1-1.23-.34,1.11,1.11,0,0,1-.58-.57,1.52,1.52,0,0,1-.06-.8l0-8.07a32.42,32.42,0,0,1-3.25-.61,27.18,27.18,0,0,1-2.77-.83,18.06,18.06,0,0,1-2.15-.94,5.87,5.87,0,0,1-1.36-.93,2.77,2.77,0,0,1-.67-1.35,13.3,13.3,0,0,1-.2-2.64c0-.91,0-1.65.08-2.23a4.78,4.78,0,0,1,.28-1.35,1.31,1.31,0,0,1,.5-.66,1.35,1.35,0,0,1,.7-.18,3.43,3.43,0,0,1,1.53.6,28.43,28.43,0,0,0,2.57,1.31,25.44,25.44,0,0,0,3.79,1.31,20.84,20.84,0,0,0,5.24.59q4.7,0,7-1.73a5.47,5.47,0,0,0,2.28-4.59,4.91,4.91,0,0,0-1-3.14,9.14,9.14,0,0,0-2.63-2.17,23.77,23.77,0,0,0-3.72-1.66c-1.38-.49-2.79-1-4.23-1.57a37.7,37.7,0,0,1-4.24-2,15.71,15.71,0,0,1-3.71-2.74,12.11,12.11,0,0,1-2.64-3.95,14.5,14.5,0,0,1-1-5.62,14.16,14.16,0,0,1,1-5.43,12.47,12.47,0,0,1,2.89-4.27,14.52,14.52,0,0,1,4.63-3,23.77,23.77,0,0,1,6.24-1.53l-.21-7.56a1.33,1.33,0,0,1,.18-.53,1.19,1.19,0,0,1,.52-.4,3.42,3.42,0,0,1,1-.26,17.81,17.81,0,0,1,3.75,0,4.5,4.5,0,0,1,1.26.33,1,1,0,0,1,.57.58,2.47,2.47,0,0,1,.12.79l.21,7.09c.75.1,1.54.25,2.37.43a20.09,20.09,0,0,1,2.33.66,19.68,19.68,0,0,1,2,.79,4.85,4.85,0,0,1,1.22.75,2.8,2.8,0,0,1,.52.68,2.88,2.88,0,0,1,.28.83,8.69,8.69,0,0,1,.15,1.2c0,.46,0,1,0,1.61,0,.82,0,1.49-.06,2a4.87,4.87,0,0,1-.22,1.22,1.24,1.24,0,0,1-.36.55.81.81,0,0,1-.49.14,3.83,3.83,0,0,1-1.52-.51c-.67-.35-1.49-.72-2.47-1.12a32.52,32.52,0,0,0-3.37-1.11,16.22,16.22,0,0,0-4.2-.51,13.73,13.73,0,0,0-3.57.4,6.65,6.65,0,0,0-2.41,1.11,4.36,4.36,0,0,0-1.36,1.71,5.23,5.23,0,0,0-.44,2.19,4.92,4.92,0,0,0,1,3.14,8.75,8.75,0,0,0,2.67,2.18,25.66,25.66,0,0,0,3.78,1.67q2.1.75,4.29,1.59a40,40,0,0,1,4.3,1.92,15.66,15.66,0,0,1,3.75,2.7,12.31,12.31,0,0,1,2.66,3.9A13.58,13.58,0,0,1,3728.23,704.12Z" transform="translate(-2781.23 -362.96)"/><ellipse class="cls-264" cx="1021.19" cy="377.38" rx="68.57" ry="67.88"/><ellipse class="cls-265" cx="1021.19" cy="377.38" rx="57.59" ry="57.01"/><path class="cls-266" d="M3819.87,749.91a14.89,14.89,0,0,1-1.23,6.16,13.53,13.53,0,0,1-3.47,4.73,17.17,17.17,0,0,1-5.41,3.19,26.15,26.15,0,0,1-7,1.51l0,8.5a1.54,1.54,0,0,1-.18.56,1.11,1.11,0,0,1-.52.4,4.7,4.7,0,0,1-1.05.26,12.39,12.39,0,0,1-1.66.1,14.2,14.2,0,0,1-2.07-.12,4.27,4.27,0,0,1-1.23-.34,1.11,1.11,0,0,1-.58-.57,1.52,1.52,0,0,1-.06-.8l0-8.07a29.82,29.82,0,0,1-3.25-.61,28,28,0,0,1-2.77-.83,18.81,18.81,0,0,1-2.15-.94,5.78,5.78,0,0,1-1.36-.93,2.68,2.68,0,0,1-.67-1.35,13.3,13.3,0,0,1-.2-2.64c0-.9,0-1.65.08-2.23a5.16,5.16,0,0,1,.28-1.35,1.18,1.18,0,0,1,1.21-.84,3.45,3.45,0,0,1,1.52.6,28.43,28.43,0,0,0,2.57,1.31,24.5,24.5,0,0,0,3.8,1.31,20.28,20.28,0,0,0,5.24.59q4.7,0,7-1.73a5.45,5.45,0,0,0,2.29-4.59,4.86,4.86,0,0,0-1-3.14,9.14,9.14,0,0,0-2.63-2.17,24.07,24.07,0,0,0-3.71-1.66c-1.38-.49-2.79-1-4.24-1.57a36,36,0,0,1-4.24-1.95,15.92,15.92,0,0,1-3.71-2.74,11.93,11.93,0,0,1-2.63-4,14.31,14.31,0,0,1-1-5.62,14.16,14.16,0,0,1,1-5.43,12.47,12.47,0,0,1,2.89-4.27,14.57,14.57,0,0,1,4.64-3,23.58,23.58,0,0,1,6.24-1.53l-.22-7.56a1.33,1.33,0,0,1,.18-.53,1.23,1.23,0,0,1,.53-.4,3.27,3.27,0,0,1,1-.26,15,15,0,0,1,1.68-.08,14.79,14.79,0,0,1,2.07.12,4.69,4.69,0,0,1,1.27.33,1,1,0,0,1,.56.58,2.49,2.49,0,0,1,.12.8l.21,7.08c.75.1,1.54.25,2.37.43a22.29,22.29,0,0,1,2.33.66,19.68,19.68,0,0,1,2,.79,4.38,4.38,0,0,1,1.22.76,2.83,2.83,0,0,1,.53.67,3.18,3.18,0,0,1,.28.84,10.3,10.3,0,0,1,.14,1.19c0,.46,0,1,0,1.61,0,.82,0,1.49-.06,2a4.45,4.45,0,0,1-.22,1.22,1.18,1.18,0,0,1-.36.55.78.78,0,0,1-.48.14,3.82,3.82,0,0,1-1.53-.51,26.82,26.82,0,0,0-2.47-1.11,29.52,29.52,0,0,0-3.37-1.12,16.22,16.22,0,0,0-4.2-.51,13.73,13.73,0,0,0-3.57.4,6.82,6.82,0,0,0-2.41,1.11,4.46,4.46,0,0,0-1.36,1.71,5.26,5.26,0,0,0-.44,2.19,4.92,4.92,0,0,0,1,3.14,8.6,8.6,0,0,0,2.67,2.18,26.13,26.13,0,0,0,3.78,1.67c1.4.5,2.84,1,4.3,1.59a39.9,39.9,0,0,1,4.29,1.92,15.71,15.71,0,0,1,3.76,2.7,12.45,12.45,0,0,1,2.65,3.9A13.78,13.78,0,0,1,3819.87,749.91Z" transform="translate(-2781.23 -362.96)"/><rect class="cls-2" x="682.49" y="384.98" width="466.15" height="259.64" rx="12.12"/><rect class="cls-7" x="618.23" y="520.86" width="277.39" height="106.06" rx="20.1"/><rect class="cls-267" x="845.65" y="544.43" width="28.84" height="61.73" rx="3.54"/><polygon class="cls-266" points="1070.19 349.16 1060.85 354.27 1070.19 359.38 1075.3 368.72 1080.41 359.38 1089.75 354.27 1080.41 349.16 1075.3 339.82 1070.19 349.16"/><polygon class="cls-266" points="1047.55 365.76 1042.14 368.72 1047.55 371.68 1050.51 377.09 1053.47 371.68 1058.88 368.72 1053.47 365.76 1050.51 360.35 1047.55 365.76"/><polygon class="cls-266" points="784.25 323.66 774.91 328.77 784.25 333.88 789.36 343.22 794.47 333.88 803.81 328.77 794.47 323.66 789.36 314.32 784.25 323.66"/><polygon class="cls-266" points="761.61 340.26 756.2 343.22 761.61 346.18 764.57 351.59 767.53 346.18 772.94 343.22 767.53 340.26 764.57 334.85 761.61 340.26"/><path class="cls-266" d="M3819.87,903.92a39.32,39.32,0,1,1,39.31-39.32A39.37,39.37,0,0,1,3819.87,903.92Zm0-59a19.7,19.7,0,1,0,19.69,19.69A19.72,19.72,0,0,0,3819.87,844.91Z" transform="translate(-2781.23 -362.96)"/><path class="cls-266" d="M3791.14,938.25a22,22,0,0,1,11.93-3.94c7.75,0,14.51,8,28.56,8,14.77,0,23.67-11.3,23.67-11.3l-7.05-11.21a22,22,0,0,1-11.93,3.94c-7.75,0-14.51-8-28.56-8-14.77,0-23.67,11.3-23.67,11.3Z" transform="translate(-2781.23 -362.96)"/><path class="cls-266" d="M3286.72,485.36a19,19,0,0,0-2.94-2.87,33.22,33.22,0,0,1-.77,8.69,35.06,35.06,0,0,1-35.16,28.41h-12.53l-4.05,19a8.18,8.18,0,0,1-8,6.44h-5.65l-1,4.66a4.07,4.07,0,0,0,4,4.94h13.81a4.07,4.07,0,0,0,4-3.22l4.74-22.22H3259A31,31,0,0,0,3290.15,504C3291.77,496.45,3290.61,490.18,3286.72,485.36Z" transform="translate(-2781.23 -362.96)"/><path class="cls-266" d="M3227.29,537.74l4.74-22.22h15.82A31,31,0,0,0,3279,490.33c1.61-7.55.46-13.82-3.44-18.64-3.74-4.62-10.13-7.49-16.68-7.49h-34.47a4.06,4.06,0,0,0-4,3.2L3205.53,536a4.06,4.06,0,0,0,4,4.93h13.81A4.07,4.07,0,0,0,3227.29,537.74Zm12.65-57.91h10.85a7.75,7.75,0,0,1,6.26,2.94,8.6,8.6,0,0,1,1.21,7.51s0,.07,0,.11c-1.37,5.75-7,10.44-12.65,10.44H3235.2Z" transform="translate(-2781.23 -362.96)"/></g></g></g></svg>