<svg xmlns="http://www.w3.org/2000/svg" viewBox="0 0 40.02 20.29"><defs><style>.cls-1{fill:#366fe0;stroke:#366fe0;stroke-miterlimit:10;stroke-width:0.02px;}</style></defs><title>Asset 7</title><g id="Layer_2" data-name="Layer 2"><g id="Layer_7" data-name="Layer 7"><g id="plain"><path class="cls-1" d="M20,0C9,0,0,4.55,0,10.15S9,20.28,20,20.28s20-4.54,20-10.13S31.06,0,20,0Zm-5.2,12.11a3.88,3.88,0,0,1-1.6.82,7.77,7.77,0,0,1-2.22.15H8.94l-.57,3.28H6L8.11,5.24h4.6a3.8,3.8,0,0,1,3,1.12,3.44,3.44,0,0,1,.58,3.06,5,5,0,0,1-.53,1.47A4.92,4.92,0,0,1,14.81,12.12Zm7,1,.95-4.72a1.44,1.44,0,0,0-.12-1.16,1.67,1.67,0,0,0-1.19-.34h-1.9L18.3,13.09H15.93l2.13-10.8h2.37l-.56,3H22A4.07,4.07,0,0,1,24.73,6a2.08,2.08,0,0,1,.45,2.13l-1,5ZM35,9.43a4.81,4.81,0,0,1-1.5,2.69,3.9,3.9,0,0,1-1.59.82,7.85,7.85,0,0,1-2.23.15H27.59L27,16.37H24.64L26.77,5.24h4.59a3.81,3.81,0,0,1,3,1.12A3.5,3.5,0,0,1,35,9.43Z"/><path class="cls-1" d="M30.46,6.87H28.82l-.89,4.58h1.45A3.61,3.61,0,0,0,31.54,11a2.78,2.78,0,0,0,1-1.78,2.12,2.12,0,0,0-.21-1.78A2.43,2.43,0,0,0,30.46,6.87Z"/><path class="cls-1" d="M11.8,6.87H10.17l-.9,4.58h1.46A3.57,3.57,0,0,0,12.88,11a2.84,2.84,0,0,0,1-1.78,2.16,2.16,0,0,0-.22-1.78A2.41,2.41,0,0,0,11.8,6.87Z"/></g></g></g></svg>