<svg id="Layer_1" data-name="Layer 1" xmlns="http://www.w3.org/2000/svg" viewBox="0 0 511 451.14"><defs><style>.cls-1{fill:#316fea;}</style></defs><path class="cls-1" d="M6.46,261.87l154,57.77c4.19,33.49,19.18,153.5,19.29,154.16a10,10,0,0,0,16.9,5.34l.05,0,91.06-92.71,137.65,55.06A10,10,0,0,0,439,434L510.83,42.72a10,10,0,0,0-13.75-11L6,243.36A10,10,0,0,0,6.46,261.87ZM222,345.78a10.41,10.41,0,0,0-2,3.49l-26,77.94L180.25,316.65,414.6,124.77Zm-9.29,88.55,22.93-68.8,32,12.82Zm208.81-15.94L246.31,348.3,484.65,74.76ZM440.25,78,167.78,301.05,36.68,251.89Z" transform="translate(0 -30.94)"/></svg>