<svg id="Capa_1" data-name="Capa 1" xmlns="http://www.w3.org/2000/svg" viewBox="0 0 439 438.99"><defs><style>.cls-1{fill:#316fea;}.cls-2{fill:#fff;}</style></defs><path class="cls-1" d="M275.69,7.18a218.47,218.47,0,0,0-112.86,0q-56.4,14.84-98.61,57t-57,98.61a218.15,218.15,0,0,0,0,112.86q14.83,56.43,57,98.62t98.63,57a218.15,218.15,0,0,0,112.86,0q56.42-14.82,98.62-57t57-98.62a218.11,218.11,0,0,0,0-112.85q-14.85-56.43-57-98.62T275.69,7.18Z" transform="translate(0.23 0.23)"/><rect class="cls-2" x="196.2" y="91.86" width="46.23" height="255.29" rx="21.34"/><rect class="cls-2" x="91.65" y="196.39" width="255.29" height="46.23" rx="21.34"/></svg>