<svg id="Layer_1" data-name="Layer 1" xmlns="http://www.w3.org/2000/svg" viewBox="0 0 512 475.87"><defs><style>.cls-1{fill:#fff;}</style></defs><title>printer</title><path class="cls-1" d="M330,399.83H182A17.07,17.07,0,0,0,182,434H330a17.07,17.07,0,0,0,0-34.14Z" transform="translate(0 -18.07)"/><path class="cls-1" d="M330,346H182a17.07,17.07,0,0,0,0,34.13H330A17.07,17.07,0,0,0,330,346Z" transform="translate(0 -18.07)"/><path class="cls-1" d="M472.18,133.91h-54.3V35.13a17.07,17.07,0,0,0-17.07-17.06H111.19A17.07,17.07,0,0,0,94.12,35.13v98.78H39.82A39.86,39.86,0,0,0,0,173.73v171.7a39.86,39.86,0,0,0,39.82,39.82H94.13v91.62a17.06,17.06,0,0,0,17.06,17.06H400.8a17.06,17.06,0,0,0,17.07-17.06V385.25h54.31A39.86,39.86,0,0,0,512,345.43V173.73A39.86,39.86,0,0,0,472.18,133.91ZM128.26,52.2H383.74v81.71H128.26ZM383.74,459.8H128.26V320.17H383.74Zm17.07-225.68H357.37a17.07,17.07,0,1,1,0-34.13h43.44a17.07,17.07,0,1,1,0,34.13Z" transform="translate(0 -18.07)"/></svg>