<?xml version="1.0" encoding="utf-8"?>
<!-- Generator: Adobe Illustrator 23.0.3, SVG Export Plug-In . SVG Version: 6.00 Build 0)  -->
<svg version="1.1" id="Layer_1" xmlns="http://www.w3.org/2000/svg" xmlns:xlink="http://www.w3.org/1999/xlink" x="0px" y="0px"
	 viewBox="0 0 492 492" style="enable-background:new 0 0 492 492;" xml:space="preserve">
<style type="text/css">
	.st0{fill:#69DE28;}
</style>
<g>
	<g>
		<path class="st0" d="M484.1,104.5L468,88.4c-5.1-5.1-11.8-7.9-19-7.9c-7.2,0-14,2.8-19,7.9L203.5,314.8L62,173.3
			c-5.1-5.1-11.8-7.9-19-7.9c-7.2,0-14,2.8-19,7.9L7.9,189.4c-5.1,5.1-7.9,11.8-7.9,19c0,7.2,2.8,14,7.9,19l159.7,159.7
			c0.2,0.3,0.4,0.6,0.7,0.8l16.1,15.9c5.1,5,11.8,7.6,19.1,7.6h0.1c7.2,0,14-2.5,19-7.6l16.1-16c0.3-0.3,0.5-0.5,0.6-0.7
			l244.8-244.8C494.6,132,494.6,115,484.1,104.5z"/>
	</g>
</g>
</svg>
