<svg id="Isolation_Mode" data-name="Isolation Mode" xmlns="http://www.w3.org/2000/svg" viewBox="0 0 512.82 560.91"><defs><style>.cls-1{fill:#316fea;}.cls-2{fill:#ff6161;}.cls-3{fill:#fff;}</style></defs><title>profile</title><g id="Capa_1" data-name="Capa 1"><path class="cls-1" d="M414,428.75a10,10,0,0,0,10-10V30A30,30,0,0,0,394,0H30A30,30,0,0,0,0,30V482a30,30,0,0,0,30,30H394a30,30,0,0,0,30-30h0V408.33a10,10,0,1,0-20,0V482a10,10,0,0,1-10,10H30a10,10,0,0,1-10-10V30A10,10,0,0,1,30,20H394a10,10,0,0,1,10,10V418.75A10,10,0,0,0,414,428.75Z" transform="translate(0.01)"/><path class="cls-1" d="M134.38,273.21H54.61c-3.1,0-5.62,4.48-5.62,10s2.52,10,5.62,10h79.77c3.1,0,5.62-4.48,5.62-10S137.48,273.21,134.38,273.21Z" transform="translate(0.01)"/><path class="cls-1" d="M134.38,230H54.61c-3.1,0-5.62,4.48-5.62,10s2.52,10,5.62,10h79.77c3.1,0,5.62-4.48,5.62-10S137.48,230,134.38,230Z" transform="translate(0.01)"/><path class="cls-1" d="M134.38,191H54.61c-3.1,0-5.62,4.48-5.62,10s2.52,10,5.62,10h79.77c3.1,0,5.62-4.48,5.62-10S137.48,191,134.38,191Z" transform="translate(0.01)"/><path class="cls-1" d="M134.38,148H54.61c-3.1,0-5.62,4.48-5.62,10s2.52,10,5.62,10h79.77c3.1,0,5.62-4.48,5.62-10S137.48,148,134.38,148Z" transform="translate(0.01)"/><path class="cls-1" d="M252.09,273.21H172.32c-3.1,0-5.62,4.48-5.62,10s2.52,10,5.62,10h79.77c3.11,0,5.62-4.48,5.62-10S255.2,273.21,252.09,273.21Z" transform="translate(0.01)"/><path class="cls-1" d="M252.09,230H172.32c-3.1,0-5.62,4.48-5.62,10s2.52,10,5.62,10h79.77c3.11,0,5.62-4.48,5.62-10S255.2,230,252.09,230Z" transform="translate(0.01)"/><path class="cls-1" d="M252.09,191H172.32c-3.1,0-5.62,4.48-5.62,10s2.52,10,5.62,10h79.77c3.11,0,5.62-4.48,5.62-10S255.2,191,252.09,191Z" transform="translate(0.01)"/><path class="cls-1" d="M252.09,148H172.32c-3.1,0-5.62,4.48-5.62,10s2.52,10,5.62,10h79.77c3.11,0,5.62-4.48,5.62-10S255.2,148,252.09,148Z" transform="translate(0.01)"/><path class="cls-1" d="M369.81,273.21H290c-3.1,0-5.61,4.48-5.61,10s2.51,10,5.61,10h79.78c3.1,0,5.62-4.48,5.62-10S372.91,273.21,369.81,273.21Z" transform="translate(0.01)"/><path class="cls-1" d="M369.81,230H290c-3.1,0-5.61,4.48-5.61,10s2.51,10,5.61,10h79.78c3.1,0,5.62-4.48,5.62-10S372.91,230,369.81,230Z" transform="translate(0.01)"/><path class="cls-1" d="M369.81,191H290c-3.1,0-5.61,4.48-5.61,10s2.51,10,5.61,10h79.78c3.1,0,5.62-4.48,5.62-10S372.91,191,369.81,191Z" transform="translate(0.01)"/><path class="cls-1" d="M369.81,148H290c-3.1,0-5.61,4.48-5.61,10s2.51,10,5.61,10h79.78c3.1,0,5.62-4.48,5.62-10S372.91,148,369.81,148Z" transform="translate(0.01)"/></g><path class="cls-2" d="M399,333.21A113.85,113.85,0,1,0,512.81,447.09v0A113.85,113.85,0,0,0,399,333.21Z" transform="translate(0.01)"/><polygon class="cls-3" points="409.9 461.24 414.09 375.12 384.06 375.12 388.23 461.24 409.9 461.24"/><path class="cls-3" d="M399.07,477.4c-10.07,0-17.12,7-17.12,17.29,0,9.88,6.84,17.31,16.73,17.31h.39c10.26,0,16.9-7.43,16.9-17.31C415.79,484.44,409.13,477.4,399.07,477.4Z" transform="translate(0.01)"/></svg>