<?xml version="1.0" encoding="utf-8"?>
<!-- Generator: Adobe Illustrator 23.0.3, SVG Export Plug-In . SVG Version: 6.00 Build 0)  -->
<svg version="1.1" id="Layer_1" xmlns="http://www.w3.org/2000/svg" xmlns:xlink="http://www.w3.org/1999/xlink" x="0px" y="0px"
	 viewBox="0 0 512 512" style="enable-background:new 0 0 512 512;" xml:space="preserve">
<style type="text/css">
	.st0{fill:#316FEA;}
</style>
<path class="st0" d="M322.4,154.3H392L322.4,85V154.3z"/>
<path class="st0" d="M292.4,167.9V76.2H48.2c-9.5,0-17.2,7.7-17.2,17.2v401.5c0,9.5,7.7,17.2,17.2,17.2h335.5
	c9.5,0,17.2-7.7,17.2-17.2V184.3h-92C299.8,184.3,292.4,177,292.4,167.9z"/>
<path class="st0" d="M464.8,0H129.2c-9.5,0-17.2,7.7-17.2,17.2v30.1h208.6c5.3,0,10.3,2.1,14,5.8l89.2,88.9c3.8,3.8,5.8,8.8,5.8,14
	v279.9h35.1c9.5,0,17.2-7.7,17.2-17.2V17.2C481.9,7.7,474.2,0,464.8,0z"/>
</svg>
