<svg id="Layer_1" data-name="Layer 1" xmlns="http://www.w3.org/2000/svg" viewBox="0 0 474.84 480"><defs><style>.cls-1{fill:#316fea;}</style></defs><g id="File_folder" data-name="File folder"><path class="cls-1" d="M481.15,221.9A40,40,0,0,0,450.84,208H448V168a40.07,40.07,0,0,0-32-39.2V56a8,8,0,0,0-8-8H384V24a8,8,0,0,0-8-8H104a8,8,0,0,0-8,8V80.8A40.07,40.07,0,0,0,64,120v8H56a40.05,40.05,0,0,0-40,40V488a13.37,13.37,0,0,0,1.86,5.14A8,8,0,0,0,24,496H412.44A39.69,39.69,0,0,0,452,462.2L490.4,253.94A40,40,0,0,0,481.15,221.9ZM432,168v40H416V145.47A24,24,0,0,1,432,168Zm-32,40H144V64H400ZM112,32H368V48H136a8,8,0,0,0-8,8V208H112ZM32,168a24,24,0,0,1,24-24H72a8,8,0,0,0,8-8V120A24,24,0,0,1,96,97.47V208.32a39.55,39.55,0,0,0-36,33.52L32,398.1Zm442.62,83.3L436.18,459.56A24.15,24.15,0,0,1,412.44,480H33.6L75.82,244.44A24.15,24.15,0,0,1,99.56,224H450.84a24,24,0,0,1,24,24A23,23,0,0,1,474.62,251.3Z" transform="translate(-16 -16)"/><path class="cls-1" d="M376,112H168a8,8,0,0,0,0,16H376a8,8,0,0,0,0-16Z" transform="translate(-16 -16)"/><path class="cls-1" d="M168,80a8,8,0,0,0,0,16H376a8,8,0,0,0,0-16Z" transform="translate(-16 -16)"/><path class="cls-1" d="M376,144H168a8,8,0,0,0,0,16H376a8,8,0,0,0,0-16Z" transform="translate(-16 -16)"/><path class="cls-1" d="M376,176H168a8,8,0,0,0,0,16H376a8,8,0,0,0,0-16Z" transform="translate(-16 -16)"/></g></svg>