<svg xmlns="http://www.w3.org/2000/svg" viewBox="0 0 38.02 38.44"><defs><style>.cls-1{fill:#366fe0;stroke:#366fe0;stroke-miterlimit:10;stroke-width:0.02px;}</style></defs><title>Asset 9</title><g id="Layer_2" data-name="Layer 2"><g id="Layer_9" data-name="Layer 9"><g id="plain"><path class="cls-1" d="M14.4,18.59h9.16a4.63,4.63,0,0,0,4.55-4.71V5.15A5.11,5.11,0,0,0,23.55.38,28.56,28.56,0,0,0,18.78,0a26.31,26.31,0,0,0-4.34.37C10.56,1.07,9.9,2.5,9.9,5.15v3.4H19V9.8H6.38A5.71,5.71,0,0,0,.66,14.45a16.88,16.88,0,0,0,0,9.27c.65,2.72,2.2,4.6,4.87,4.6H8.65V24.23A5.8,5.8,0,0,1,14.4,18.59ZM13.83,6.31a1.75,1.75,0,1,1,1.72-1.74A1.73,1.73,0,0,1,13.83,6.31Z"/><path class="cls-1" d="M37.31,14.45c-.66-2.65-1.92-4.65-4.59-4.65H29.37v4.08a5.82,5.82,0,0,1-5.81,5.65H14.4a4.75,4.75,0,0,0-4.5,4.82v8.72c0,2.49,2.12,4,4.55,4.66a15.22,15.22,0,0,0,9.12,0c2.3-.67,4.54-2,4.54-4.66V29.58H19V28.32H32.72c2.67,0,3.66-1.81,4.59-4.6S38.22,18.13,37.31,14.45ZM24.14,31.91a1.75,1.75,0,1,1-1.72,1.74A1.73,1.73,0,0,1,24.14,31.91Z"/></g></g></g></svg>