<svg width="106" height="23" viewBox="0 0 106 23" fill="none" xmlns="http://www.w3.org/2000/svg">
<path d="M0 9.43794C0 5.29885 2.91941 2.05957 7.32608 2.05957C11.7327 2.05957 14.6522 5.29885 14.6522 9.43794C14.6522 10.9226 14.2776 12.2948 13.6166 13.4308L14.8505 14.5331L12.8344 16.9175L11.4794 15.6916C10.3446 16.4226 8.92349 16.85 7.32608 16.85C2.91941 16.8613 0 13.6445 0 9.43794ZM3.55838 9.43794C3.55838 11.8449 5.11173 13.5995 7.32608 13.5995C7.86589 13.5995 8.38368 13.4983 8.82434 13.2958L7.66759 12.2611L9.63958 9.89908L10.8624 10.9788C11.0056 10.5064 11.1048 10.0003 11.1048 9.44918C11.1048 7.1097 9.56246 5.3326 7.32608 5.3326C5.08969 5.3326 3.55838 7.09845 3.55838 9.43794Z" fill="#316FEA"/>
<path d="M19.048 12.1341C19.1251 13.0901 20.0285 13.9112 21.2623 13.9112C22.5182 13.9112 23.2564 13.0789 23.4547 12.7752L25.647 14.5073C25.3495 15.1371 23.9063 16.8692 21.1962 16.8692C17.748 16.8692 15.6218 14.4398 15.6218 11.2793C15.6218 8.14123 17.693 5.63306 20.7776 5.63306C24.1157 5.63306 25.9224 7.81506 25.9224 11.4592C25.9224 11.6617 25.9224 11.8866 25.9004 12.1341H19.048ZM19.1472 9.97456H22.5403C22.4962 9.11976 21.8793 8.38868 20.8437 8.38868C19.7421 8.37743 19.2243 9.22099 19.1472 9.97456Z" fill="#316FEA"/>
<path d="M33.4244 10.2108C33.4244 9.20973 32.8405 8.68111 32.0473 8.68111C31.1329 8.68111 30.6151 9.35595 30.6151 10.2108V16.588H27.2771V5.89175H30.527V6.99399C30.9236 6.36414 31.849 5.63306 33.16 5.63306C36.4319 5.63306 36.7514 8.4899 36.7514 10.6719V16.5993H33.4134V10.2108H33.4244Z" fill="#316FEA"/>
<path d="M45.9392 13.1127L46.8205 15.9021C46.1264 16.3857 45.0688 16.8581 43.7468 16.8581C40.4088 16.8581 38.0623 14.5299 38.0623 11.2568C38.0623 7.97254 40.4969 5.63306 43.7358 5.63306C45.0909 5.63306 46.1154 6.08296 46.8535 6.61159L45.9502 9.49096C45.3663 8.99607 44.6282 8.69239 43.857 8.69239C42.2816 8.69239 41.4003 9.81714 41.4003 11.2456C41.4003 12.8202 42.4359 13.8775 43.9782 13.8775C44.7384 13.8663 45.4765 13.4951 45.9392 13.1127Z" fill="#316FEA"/>
<path d="M52.7035 5.63306C56.0746 5.63306 58.4542 7.99504 58.4542 11.2343C58.4542 14.4511 56.0195 16.8581 52.7035 16.8581C49.3654 16.8581 47.0188 14.4961 47.0188 11.2681C47.0078 8.02878 49.4646 5.63306 52.7035 5.63306ZM52.7035 13.8663C54.0806 13.8663 55.1162 12.764 55.1162 11.2343C55.1162 9.65967 54.0586 8.6249 52.7035 8.6249C51.3264 8.6249 50.3459 9.70466 50.3459 11.2793C50.3459 12.8202 51.3374 13.8663 52.7035 13.8663Z" fill="#316FEA"/>
<path d="M67.2678 15.757C66.9704 16.1056 65.9679 16.8592 64.4365 16.8592C61.418 16.8592 59.3027 14.531 59.3027 11.258C59.3027 7.93998 61.2196 5.63425 64.2492 5.63425C65.8467 5.63425 66.8272 6.45532 67.0475 6.71401V1.8551H70.3856V16.5893H67.2678V15.757ZM64.8992 8.62608C63.5442 8.62608 62.6408 9.70584 62.6408 11.2805C62.6408 12.8664 63.5552 13.8899 64.8992 13.8899C66.3314 13.8899 67.1577 12.7089 67.1577 11.2805C67.1577 9.58211 66.2102 8.62608 64.8992 8.62608Z" fill="#316FEA"/>
<path d="M75.1996 12.1341C75.2767 13.0901 76.1801 13.9112 77.414 13.9112C78.6699 13.9112 79.408 13.0789 79.6063 12.7752L81.7986 14.5073C81.5011 15.1371 80.058 16.8692 77.3479 16.8692C73.8996 16.8692 71.7734 14.4398 71.7734 11.2793C71.7734 8.14123 73.8446 5.63306 76.9182 5.63306C80.2563 5.63306 82.074 7.81506 82.074 11.4592C82.074 11.6617 82.074 11.8866 82.052 12.1341H75.1996ZM75.2988 9.97456H78.6919C78.6478 9.11976 78.0309 8.38868 76.9953 8.38868C75.8937 8.37743 75.3759 9.22099 75.2988 9.97456Z" fill="#316FEA"/>
<path d="M98.7533 14.9472C94.7653 14.9472 91.5154 11.6292 91.5154 7.5576C91.5154 3.48599 94.7653 0.167969 98.7533 0.167969C102.741 0.167969 105.991 3.48599 105.991 7.5576C105.98 11.6404 102.741 14.9472 98.7533 14.9472ZM98.7533 3.86841C96.7593 3.86841 95.1289 5.53304 95.1289 7.56884C95.1289 9.60465 96.7593 11.2693 98.7533 11.2693C100.747 11.2693 102.378 9.60465 102.378 7.56884C102.378 5.53304 100.747 3.86841 98.7533 3.86841Z" fill="#316FEA"/>
<path d="M93.4653 21.4032C93.4653 21.4032 94.4347 20.6608 95.6576 20.6608C97.0787 20.6608 98.3236 22.168 100.913 22.168C103.634 22.168 105.264 20.0422 105.264 20.0422L103.964 17.9389C103.964 17.9389 102.995 18.6812 101.772 18.6812C100.351 18.6812 99.1058 17.1741 96.5169 17.1741C93.7957 17.1741 92.1653 19.2999 92.1653 19.2999L93.4653 21.4032Z" fill="#316FEA"/>
</svg>
