<svg id="Capa_1" data-name="Capa 1" xmlns="http://www.w3.org/2000/svg" viewBox="0 0 438.53 438.53"><defs><style>.cls-1{fill:#e7eaed;}.cls-2{fill:#959aa3;}</style></defs><title>question</title><path class="cls-1" d="M409,109.07a218.36,218.36,0,0,0-79.8-79.8Q278.82-.13,219.14-.13T109.08,29.27a218.29,218.29,0,0,0-79.8,79.8Q-.13,159.47-.13,219.13T29.28,329.2A218.26,218.26,0,0,0,109.08,409q50.38,29.42,110.06,29.41T329.2,409A218.26,218.26,0,0,0,409,329.2q29.4-50.4,29.4-110.07T409,109.07Z" transform="translate(0.13 0.13)"/><path class="cls-2" d="M215.45,82.86c47.14,0,93.55,21.71,93.55,73.64,0,47.89-54.88,66.31-66.66,83.61-8.85,12.88-5.9,31-30.2,31-15.84,0-23.58-12.88-23.58-24.66,0-43.86,64.44-53.79,64.44-89.9,0-19.87-13.23-31.66-35.34-31.66-47.14,0-28.73,48.6-64.43,48.6-12.89,0-24-7.73-24-22.46C129.26,114.87,170.5,82.86,215.45,82.86ZM213.61,295a30.21,30.21,0,1,1-30.21,30.21A30.35,30.35,0,0,1,213.61,295Z" transform="translate(0.13 0.13)"/></svg>