<svg width="20" height="20" viewBox="0 0 20 20" fill="none" xmlns="http://www.w3.org/2000/svg">
<path d="M10 0C4.48627 0 0 4.48627 0 10C0 15.5137 4.48627 20 10 20C15.5137 20 20 15.5137 20 10C20 4.48627 15.5137 0 10 0ZM15.5886 7.36845L9.19771 13.7089C9.01717 13.8931 8.77153 13.9989 8.5137 14.0037C8.25587 14.0084 8.00649 13.9117 7.81928 13.7344L4.43585 10.6505C4.24498 10.4713 4.13064 10.2253 4.11669 9.96388C4.10274 9.70242 4.19024 9.44567 4.36096 9.24715C4.4498 9.15164 4.55662 9.0746 4.67529 9.02044C4.79395 8.96628 4.92214 8.93606 5.0525 8.93151C5.18286 8.92696 5.31284 8.94818 5.43499 8.99394C5.55715 9.03971 5.66907 9.10912 5.76435 9.1982L8.44584 11.6545L14.1603 5.9396C14.2535 5.84313 14.365 5.76619 14.4882 5.71327C14.6115 5.66035 14.7441 5.63251 14.8782 5.63137C15.0124 5.63024 15.1454 5.65582 15.2696 5.70665C15.3937 5.75747 15.5065 5.8325 15.6013 5.92738C15.6962 6.02225 15.7712 6.13506 15.822 6.25923C15.8727 6.3834 15.8983 6.51643 15.8971 6.65058C15.8959 6.78472 15.868 6.91729 15.8151 7.04054C15.7621 7.16379 15.6851 7.27526 15.5886 7.36845Z" fill="#316FEA"/>
</svg>
