<svg width="18" height="18" viewBox="0 0 18 18" fill="none" xmlns="http://www.w3.org/2000/svg">
<path d="M15.2129 0H2.78678C1.25013 0 0 1.25015 0 2.78682V3.99162H17.9996V2.78682C17.9996 1.25015 16.7495 0 15.2129 0ZM2.78678 2.52315C2.49675 2.52315 2.25945 2.2869 2.25945 1.99581C2.25945 1.70472 2.49675 1.46847 2.78678 1.46847C3.07681 1.46847 3.31412 1.70472 3.31412 1.99581C3.31412 2.2869 3.07681 2.52315 2.78678 2.52315ZM5.04588 2.52315C4.75584 2.52315 4.51854 2.2869 4.51854 1.99581C4.51854 1.70472 4.75584 1.46847 5.04588 1.46847C5.33591 1.46847 5.57321 1.70472 5.57321 1.99581C5.57321 2.2869 5.33591 2.52315 5.04588 2.52315ZM7.30533 2.52315C7.01529 2.52315 6.77799 2.2869 6.77799 1.99581C6.77799 1.70472 7.01529 1.46847 7.30533 1.46847C7.59536 1.46847 7.83266 1.70472 7.83266 1.99581C7.83266 2.2869 7.59536 2.52315 7.30533 2.52315Z" fill="#B5BECF"/>
<path d="M0 15.2131C0 16.7498 1.25013 17.9999 2.78678 17.9999H15.2132C16.7499 17.9999 18 16.7498 18 15.2131V5.0459H0V15.2131ZM12.0158 9.36801C11.8098 9.16199 11.8098 8.82801 12.0158 8.62234C12.2218 8.41633 12.5558 8.41633 12.7615 8.62234L15.0209 10.8818C15.2269 11.0878 15.2269 11.4218 15.0209 11.6275L12.7615 13.887C12.6585 13.99 12.5235 14.0413 12.3885 14.0413C12.2535 14.0413 12.1185 13.99 12.0155 13.887C11.8095 13.681 11.8095 13.347 12.0155 13.1413L13.9019 11.2548L12.0158 9.36801ZM7.39849 13.2781L9.65794 8.7591C9.78801 8.49859 10.1048 8.39312 10.3653 8.5232C10.6258 8.65328 10.7312 8.97004 10.6012 9.23054L8.34171 13.7495C8.24961 13.9341 8.06293 14.041 7.86957 14.041C7.79047 14.041 7.70997 14.023 7.63403 13.9851C7.37388 13.8553 7.26841 13.5386 7.39849 13.2781ZM2.97873 10.8818L5.23818 8.62234C5.44419 8.41633 5.77817 8.41633 5.98383 8.62234C6.18984 8.82836 6.18984 9.16234 5.98383 9.36801L4.09738 11.2545L5.98383 13.141C6.18984 13.347 6.18984 13.681 5.98383 13.8866C5.88082 13.9896 5.74583 14.041 5.61083 14.041C5.47583 14.041 5.34083 13.9896 5.23783 13.8866L2.97838 11.6271C2.77272 11.4215 2.77272 11.0878 2.97873 10.8818Z" fill="#B5BECF"/>
</svg>
