<svg id="Isolation_Mode" data-name="Isolation Mode" xmlns="http://www.w3.org/2000/svg" viewBox="0 0 490.81 560.91"><defs><style>.cls-1{fill:#316fea;}.cls-2{fill:#fff;}.cls-3{fill:#2ea52b;}</style></defs><title>security</title><path class="cls-1" d="M188.8,354.31l-6.73,60.51a10.69,10.69,0,0,0,10.6,11.85h42.67A10.69,10.69,0,0,0,246,414.82l-6.73-60.51A42.21,42.21,0,0,0,256.67,320a42.67,42.67,0,1,0-85.33,0A42.19,42.19,0,0,0,188.8,354.31ZM214,298.67a21.25,21.25,0,0,1,9.2,40.45,10.68,10.68,0,0,0-6,10.79l6.16,55.42H204.59l6.17-55.42a10.69,10.69,0,0,0-6-10.79A21.25,21.25,0,0,1,214,298.67Z" transform="translate(-22.01)"/><path class="cls-1" d="M395.34,192h-32V149.33C363.34,67,296.35,0,214,0S64.67,67,64.67,149.33V192h-32A10.66,10.66,0,0,0,22,202.67V469.33A42.71,42.71,0,0,0,64.67,512H363.34A42.72,42.72,0,0,0,406,469.33V202.67A10.66,10.66,0,0,0,395.34,192ZM86,149.33a128,128,0,0,1,256,0V192H320.67V149.33a106.67,106.67,0,0,0-213.33,0V192H86Zm213.33,0V192H128.67V149.33a85.34,85.34,0,0,1,170.67,0Zm85.33,320a21.36,21.36,0,0,1-21.33,21.34H64.67a21.36,21.36,0,0,1-21.33-21.34v-256H384.67Z" transform="translate(-22.01)"/><circle class="cls-2" cx="376.97" cy="445" r="67"/><path class="cls-3" d="M399,333.21A113.85,113.85,0,1,0,512.82,447.06,113.85,113.85,0,0,0,399,333.21ZM380,498.42l-38.34-38.33,13.42-13.42L380,471.59l62.86-62.87,13.42,13.42Z" transform="translate(-22.01)"/></svg>