<svg id="Capa_1" data-name="Capa 1" xmlns="http://www.w3.org/2000/svg" viewBox="0 0 54.25 54.25"><defs><style>.cls-1{fill:#919191;stroke:#919191;stroke-miterlimit:10;stroke-width:0.25px;}</style></defs><title>settings</title><path class="cls-1" d="M51.22,21h-5a1.89,1.89,0,0,1-1.79-1.2,1.85,1.85,0,0,1,.42-2.11l3.57-3.57a2.8,2.8,0,0,0,0-3.94L43.81,5.63a2.85,2.85,0,0,0-3.93,0L36.31,9.2a1.86,1.86,0,0,1-2.11.42A1.89,1.89,0,0,1,33,7.83V2.78A2.79,2.79,0,0,0,30.22,0H23.78A2.79,2.79,0,0,0,21,2.78V7.83a1.89,1.89,0,0,1-1.2,1.79,1.86,1.86,0,0,1-2.11-.42L14.12,5.63a2.86,2.86,0,0,0-3.94,0L5.63,10.18a2.8,2.8,0,0,0,0,3.94L9.2,17.69A1.94,1.94,0,0,1,7.83,21H2.78A2.79,2.79,0,0,0,0,23.78v6.44A2.79,2.79,0,0,0,2.78,33H7.83A1.94,1.94,0,0,1,9.2,36.31L5.63,39.88a2.8,2.8,0,0,0-.81,2,2.76,2.76,0,0,0,.81,2l4.55,4.56a2.86,2.86,0,0,0,3.94,0l3.57-3.57a1.85,1.85,0,0,1,2.11-.42A1.89,1.89,0,0,1,21,46.17v5A2.79,2.79,0,0,0,23.78,54h6.44A2.79,2.79,0,0,0,33,51.22v-5a1.89,1.89,0,0,1,1.2-1.79,1.85,1.85,0,0,1,2.11.42l3.57,3.57a2.85,2.85,0,0,0,3.93,0l4.56-4.56a2.76,2.76,0,0,0,.81-2,2.8,2.8,0,0,0-.81-2l-3.58-3.57a1.87,1.87,0,0,1-.41-2.11A1.89,1.89,0,0,1,46.17,33h5A2.79,2.79,0,0,0,54,30.22V23.78A2.79,2.79,0,0,0,51.22,21ZM52,30.22a.78.78,0,0,1-.78.78h-5a3.94,3.94,0,0,0-2.79,6.73L47,41.3a.77.77,0,0,1,0,1.1L42.4,47a.77.77,0,0,1-1.1,0l-3.57-3.57A3.94,3.94,0,0,0,31,46.17v5a.78.78,0,0,1-.78.78H23.78a.78.78,0,0,1-.78-.78v-5a3.87,3.87,0,0,0-2.43-3.64A4,4,0,0,0,19,42.22a3.91,3.91,0,0,0-2.76,1.16L12.7,47a.77.77,0,0,1-1.1,0L7.05,42.4a.77.77,0,0,1,0-1.1l3.57-3.58A3.94,3.94,0,0,0,7.83,31H2.78A.78.78,0,0,1,2,30.22V23.78A.78.78,0,0,1,2.78,23H7.83a3.94,3.94,0,0,0,2.79-6.73L7.05,12.7a.77.77,0,0,1,0-1.1L11.6,7.05a.77.77,0,0,1,1.1,0l3.57,3.57A3.94,3.94,0,0,0,23,7.83V2.78A.78.78,0,0,1,23.78,2h6.44a.78.78,0,0,1,.78.78V7.83a3.94,3.94,0,0,0,6.73,2.79L41.3,7.05a.77.77,0,0,1,1.1,0L47,11.6a.77.77,0,0,1,0,1.1l-3.57,3.58A3.94,3.94,0,0,0,46.17,23h5a.78.78,0,0,1,.78.78Z" transform="translate(0.13 0.13)"/><path class="cls-1" d="M27,18a9,9,0,1,0,9,9A9,9,0,0,0,27,18Zm0,16a7,7,0,1,1,7-7A7,7,0,0,1,27,34Z" transform="translate(0.13 0.13)"/></svg>