<svg id="Capa_1" data-name="Capa 1" xmlns="http://www.w3.org/2000/svg" viewBox="0 0 52.58 52.58"><defs><style>.cls-1{fill:#919191;stroke:#919191;stroke-miterlimit:10;stroke-width:1.7px;}</style></defs><title>settings</title><path class="cls-1" d="M49.82,21.35H45.06a1.83,1.83,0,0,1-1.29-3.12l3.36-3.37a2.61,2.61,0,0,0,0-3.7L42.84,6.87a2.68,2.68,0,0,0-3.7,0l-3.37,3.36a1.83,1.83,0,0,1-3.12-1.29V4.18A2.62,2.62,0,0,0,30,1.56H24a2.62,2.62,0,0,0-2.62,2.62V8.94a1.83,1.83,0,0,1-3.12,1.29L14.86,6.87a2.68,2.68,0,0,0-3.7,0L6.87,11.16a2.61,2.61,0,0,0,0,3.7l3.36,3.37a1.83,1.83,0,0,1-1.29,3.12H4.18A2.62,2.62,0,0,0,1.56,24V30a2.62,2.62,0,0,0,2.62,2.62H8.94a1.83,1.83,0,0,1,1.29,3.12L6.87,39.14a2.61,2.61,0,0,0,0,3.7l4.29,4.29a2.68,2.68,0,0,0,3.7,0l3.37-3.36a1.83,1.83,0,0,1,3.12,1.29v4.76A2.62,2.62,0,0,0,24,52.44H30a2.62,2.62,0,0,0,2.62-2.62V45.06a1.83,1.83,0,0,1,3.12-1.29l3.37,3.36a2.68,2.68,0,0,0,3.7,0l4.29-4.29a2.61,2.61,0,0,0,0-3.7l-3.36-3.37a1.83,1.83,0,0,1,1.29-3.12h4.76A2.62,2.62,0,0,0,52.44,30V24A2.62,2.62,0,0,0,49.82,21.35ZM50.55,30a.73.73,0,0,1-.73.74H45.06a3.71,3.71,0,0,0-2.62,6.34l3.36,3.36a.73.73,0,0,1,0,1L41.51,45.8a.73.73,0,0,1-1,0l-3.36-3.36a3.71,3.71,0,0,0-6.34,2.62v4.76a.73.73,0,0,1-.74.73H24a.73.73,0,0,1-.74-.73V45.06a3.71,3.71,0,0,0-6.34-2.63L13.53,45.8a.73.73,0,0,1-1,0L8.2,41.51a.73.73,0,0,1,0-1l3.36-3.36a3.71,3.71,0,0,0-2.62-6.34H4.18A.73.73,0,0,1,3.45,30V24a.73.73,0,0,1,.73-.74H8.94a3.71,3.71,0,0,0,2.62-6.34L8.2,13.53a.73.73,0,0,1,0-1L12.49,8.2a.73.73,0,0,1,1,0l3.36,3.36a3.71,3.71,0,0,0,6.34-2.62V4.18A.73.73,0,0,1,24,3.45H30a.73.73,0,0,1,.74.73V8.94a3.71,3.71,0,0,0,6.34,2.62L40.47,8.2a.73.73,0,0,1,1,0l4.29,4.29a.73.73,0,0,1,0,1l-3.36,3.36a3.71,3.71,0,0,0,2.62,6.34h4.76a.73.73,0,0,1,.73.74Z" transform="translate(-0.71 -0.71)"/><path class="cls-1" d="M27,18.52A8.48,8.48,0,1,0,35.48,27,8.48,8.48,0,0,0,27,18.52ZM27,33.6A6.6,6.6,0,1,1,33.6,27,6.61,6.61,0,0,1,27,33.6Z" transform="translate(-0.71 -0.71)"/></svg>