<?xml version="1.0" encoding="utf-8"?>
<!-- Generator: Adobe Illustrator 25.0.0, SVG Export Plug-In . SVG Version: 6.00 Build 0)  -->
<svg version="1.1" id="Layer_1" xmlns="http://www.w3.org/2000/svg" xmlns:xlink="http://www.w3.org/1999/xlink" x="0px" y="0px"
	 viewBox="0 0 695.1 103.1" style="enable-background:new 0 0 695.1 103.1;" xml:space="preserve">
<path d="M256.5,0c1.7,0.1,3.2,0.8,4.5,1.9l80.7,76.2c0,0,7.4,8.3,9.9,8.3s9.5-7.9,9.5-7.9l48.3-62.9c0,0,3-4,6.5-4
	c3.3,0,7.9,4.9,7.9,4.9L470.4,67c0,0,3.8,4.3,6,4.3s5.8-4.8,5.8-4.8s26.3-27.3,30.8-30.8c2-1.7,5-1.1,6.8,0.7
	c11.8,11.5,23.5,23.1,35.4,34.5c1.9,1.6,4,4.2,6.8,3.3c3.3-2.1,5.9-5.1,8.7-7.7c12.7-12.6,25.8-24.8,38.4-37.6
	c1.7-1.6,3.3-3.6,5.8-3.7c1.8,0.6,3.2,2.1,4.6,3.4c13.2,12.5,75.8,74.5,75.8,74.5H0c0,0,69.3-70.7,75.7-76.4c2-2,5.3-1.9,7.2,0.2
	c0,0,0.1,0.1,0.1,0.1c14.9,14.7,30,29.2,45,43.9c1.9,1.7,4,4.3,6.9,3.3c3.3-2,5.8-5,8.6-7.6c10.1-9.9,20.3-19.8,30.4-29.7
	c1.4-1.4,2-2.9,4.9-2.9s12.5,12.2,19.3,17.7c2.3,1.8,4.9-0.3,6.6-1.9C219,35.9,252.3,2.2,252.3,2.2S254,0,256.5,0z"/>
</svg>
