<svg id="Layer_1" data-name="Layer 1" xmlns="http://www.w3.org/2000/svg" viewBox="0 0 463.46 171.31"><path d="M1041.84,464.46c2.91-3.71,5.62-7.8,9.61-10.44,3.56-.31,5.44,3.34,7.55,5.57,2.29,2.32,51.44,67.56,74.89,97.08,8.19,10.13,46.09,55.69,56.57,68.58q-231.73.12-463.46,0c.45-2.5,87.81-118.37,96.48-128.08,1.73-2.25,5.29-1.82,7.17,0a45.23,45.23,0,0,1,4.06,5c18,23.27,36.22,46.32,54.25,69.54,1.94,2.17,3.53,5.14,6.6,5.82,2.49,0,4-2.32,5.54-3.94,13.59-16.78,26.49-34.09,39.95-51,3.67-4.46,8.8-12.35,12.22-12.35,5.46,0,15.75,20.28,24.55,29.63,2.61,2.53,5.88-.81,7.54-2.88q28.14-36.36,56.48-72.55Z" transform="translate(-727 -454)"/></svg>