<?xml version="1.0" encoding="UTF-8" standalone="no"?>
<svg
   xmlns:dc="http://purl.org/dc/elements/1.1/"
   xmlns:cc="http://creativecommons.org/ns#"
   xmlns:rdf="http://www.w3.org/1999/02/22-rdf-syntax-ns#"
   xmlns:svg="http://www.w3.org/2000/svg"
   xmlns="http://www.w3.org/2000/svg"
   xmlns:sodipodi="http://sodipodi.sourceforge.net/DTD/sodipodi-0.dtd"
   xmlns:inkscape="http://www.inkscape.org/namespaces/inkscape"
   id="Capa_1"
   data-name="Capa 1"
   viewBox="0 0 255.44 406"
   version="1.1"
   sodipodi:docname="sort_inactive_up.svg"
   inkscape:version="1.0.2-2 (e86c870879, 2021-01-15)">
  <metadata
     id="metadata30">
    <rdf:RDF>
      <cc:Work
         rdf:about="">
        <dc:format>image/svg+xml</dc:format>
        <dc:type
           rdf:resource="http://purl.org/dc/dcmitype/StillImage" />
        <dc:title></dc:title>
      </cc:Work>
    </rdf:RDF>
  </metadata>
  <sodipodi:namedview
     pagecolor="#ffffff"
     bordercolor="#666666"
     borderopacity="1"
     objecttolerance="10"
     gridtolerance="10"
     guidetolerance="10"
     inkscape:pageopacity="0"
     inkscape:pageshadow="2"
     inkscape:window-width="1920"
     inkscape:window-height="1001"
     id="namedview28"
     showgrid="false"
     inkscape:zoom="2.044335"
     inkscape:cx="33.557349"
     inkscape:cy="268.68642"
     inkscape:window-x="-9"
     inkscape:window-y="-9"
     inkscape:window-maximized="1"
     inkscape:current-layer="Capa_1" />
  <defs
     id="defs23">
    <style
       id="style21">.cls-1{fill:#171717;}</style>
  </defs>
  <path
     class="cls-1"
     d="M305,254.06H131.08c-8.35,0-20.17-2.05-28.54,6.52a22.3,22.3,0,0,0,0,31L207.82,421.78A20.85,20.85,0,0,0,224,428a20.84,20.84,0,0,0,16.19-6.19L345.46,291.57a22.32,22.32,0,0,0,0-31C337.11,252,320.77,254.06,305,254.06ZM207.82,28.25,102.54,158.43a22.32,22.32,0,0,0,0,31c8.35,8.57,16.11,6.52,28.54,6.52H305c11.73,0,32.16,2.05,40.51-6.52a22.32,22.32,0,0,0,0-31L240.2,28.22A20.84,20.84,0,0,0,224,22,20.83,20.83,0,0,0,207.82,28.25Z"
     transform="translate(-96.28 -22)"
     id="path25" />
  <path
     style="fill:#a0a0a0;stroke:none;stroke-width:0.489157"
     d="M 16.192289,173.59067 C 6.7412734,171.0344 0.00120482,162.01123 0.00120482,151.91509 c 0,-6.14607 1.60749798,-10.20549 6.28476948,-15.87095 1.5474489,-1.87438 3.9141457,-4.77466 5.2593267,-6.44506 1.345181,-1.67041 2.66809,-3.28309 2.939799,-3.58375 0.840269,-0.9298 12.152529,-14.96005 13.446948,-16.67783 0.672591,-0.89258 2.554399,-3.24128 4.181797,-5.21934 5.308005,-6.451744 13.161139,-16.139843 14.156896,-17.464807 0.535498,-0.712535 2.626643,-3.308445 4.646987,-5.768688 2.020344,-2.460242 4.773959,-5.846234 6.119139,-7.524432 1.345181,-1.678194 2.668091,-3.297258 2.939798,-3.597918 0.846891,-0.937127 12.158521,-14.967909 13.446949,-16.6794 0.672591,-0.89344 3.08112,-3.902506 5.352284,-6.686809 2.271164,-2.784304 5.02267,-6.162973 6.114458,-7.508154 1.091787,-1.345181 2.098472,-2.555844 2.237084,-2.690362 0.138607,-0.134518 1.34927,-1.636779 2.690362,-3.338359 1.341086,-1.701578 4.199306,-5.257199 6.351596,-7.901379 3.605201,-4.429145 6.955992,-8.566444 10.027712,-12.381452 8.5964,-10.6765405 11.95177,-12.65792612 21.43552,-12.65792612 5.93725,0 10.49164,1.37844552 14.00005,4.23729912 1.36074,1.108808 5.40592,5.6351029 8.9893,10.058434 3.58337,4.423331 8.64614,10.670588 11.2506,13.882795 2.60445,3.212206 6.63068,8.195165 8.94717,11.073243 3.7095,4.60879 10.93532,13.53397 18.97848,23.441803 1.41962,1.748735 5.06063,6.261205 8.09112,10.027711 3.0305,3.766506 7.2123,8.939337 9.2929,11.495181 2.08059,2.555843 8.11037,10.009049 13.39948,16.56269 5.28912,6.55363 11.34555,14.03773 13.45872,16.63132 2.11317,2.59359 4.72169,5.81623 5.79671,7.16141 4.23278,5.29652 5.13645,6.40975 7.88823,9.71764 6.12156,7.35865 7.67519,10.77655 7.71569,16.9741 0.0326,4.98873 -0.37114,6.96918 -2.18576,10.72168 -3.00604,6.21628 -7.65481,9.44563 -16.16624,11.23017 -4.29391,0.90027 -8.09418,0.93174 -111.81486,0.92586 -65.994843,-0.004 -108.029621,-0.18452 -109.081931,-0.46914 z"
     id="path32" />
  <path
     style="fill:#4b7eda;stroke-width:0.489157;fill-opacity:1"
     d="m 120.13168,405.20656 c -5.05518,-1.79901 -9.16357,-5.22983 -13.71556,-11.45352 -0.99766,-1.36404 -12.485426,-15.63801 -12.927115,-16.06241 -0.422621,-0.40607 -4.083602,-4.88489 -5.390692,-6.59494 -0.67259,-0.87993 -2.543614,-3.1951 -4.157831,-5.14482 -1.614217,-1.94971 -3.485241,-4.26887 -4.157831,-5.15369 -1.284012,-1.68916 -8.824127,-10.99119 -14.201421,-17.51989 -1.740003,-2.11258 -3.713941,-4.56805 -4.386531,-5.45661 -1.213754,-1.60348 -8.72924,-10.87818 -14.406155,-17.77833 -1.627398,-1.97806 -3.509207,-4.32676 -4.181797,-5.21934 -1.336797,-1.77402 -12.785585,-15.9802 -13.197262,-16.37575 -0.460559,-0.44253 -4.142941,-4.96209 -5.39069,-6.61626 C 22.012372,289.17104 11.120744,275.74509 7.1981447,271.09643 1.8147328,264.71656 0.02488988,260.51156 0.00142386,254.18869 -0.03742985,243.71962 6.4124531,235.29167 16.473488,232.66493 c 2.571912,-0.67148 14.88009,-0.75776 109.289882,-0.76612 68.17588,-0.006 107.62548,0.16583 109.82675,0.47848 4.11688,0.58473 6.83872,1.49977 10.22626,3.43793 9.00372,5.1514 12.39104,18.53765 7.24611,28.63565 -0.75811,1.48795 -7.16224,9.55617 -26.98457,33.99639 -3.38214,4.17006 -8.46119,10.4581 -11.28677,13.97342 -9.59952,11.94284 -15.33613,19.04083 -16.59742,20.53624 -1.49589,1.77355 -4.10283,5.00528 -5.8616,7.26643 -1.24311,1.59819 -8.9851,11.17095 -16.45552,20.3468 -2.0808,2.55584 -6.26279,7.72867 -9.29328,11.49518 -3.0305,3.76651 -6.67104,8.27898 -8.0901,10.02771 -1.41905,1.74874 -5.23653,6.47703 -8.48329,10.50732 -7.07696,8.78483 -7.36232,9.05575 -11.99131,11.38444 -3.53348,1.77757 -3.81857,1.83626 -9.53856,1.96338 -4.66445,0.10367 -6.40849,-0.0513 -8.34839,-0.74162 z"
     id="path36" />
  <path
     style="fill:#4b7eda;fill-opacity:1;stroke-width:0.489157"
     d="m 18.638072,173.29915 c -2.611676,-0.21804 -4.64539,-0.70301 -6.114458,-1.45808 -9.5539627,-4.91052 -14.4083307,-16.35543 -11.2602481,-26.54774 1.141035,-3.69424 2.8934972,-6.29249 10.3834991,-15.3949 9.061029,-11.01164 19.513097,-24.1286 19.226541,-24.1286 -0.146537,0 0.376384,-0.60533 1.162046,-1.34518 1.273119,-1.19888 6.759558,-7.940437 36.624021,-45.002406 4.389971,-5.447982 7.833448,-9.905422 7.652166,-9.905422 -0.181276,0 0.261983,-0.465334 0.98502,-1.034077 0.723042,-0.568746 1.200434,-1.148268 1.060868,-1.287831 -0.139561,-0.139563 0.30068,-0.689864 0.978313,-1.222892 0.677639,-0.533027 1.149724,-1.051484 1.04908,-1.152126 -0.100639,-0.100642 0.869368,-1.321694 2.155581,-2.713449 1.286208,-1.391755 2.238708,-2.692035 2.116659,-2.889511 -0.122045,-0.197476 0.06212,-0.468039 0.409268,-0.601251 0.347144,-0.133211 6.044033,-6.924982 12.65975,-15.092822 C 107.91193,10.94742 112.89686,5.4206801 117.2337,1.8950859 c 0.42038,-0.3417347 1.0257,-0.5342047 1.34519,-0.4277113 0.31947,0.1064935 0.58087,-0.037931 0.58087,-0.3209431 0,-0.28301216 0.33018,-0.38786533 0.73373,-0.23300704 0.40356,0.15485824 0.73374,0.0447979 0.73374,-0.24457832 0,-0.28937635 0.33018,-0.39943659 0.73373,-0.24457831 0.40356,0.15485828 1.11895,0.12348123 1.58976,-0.0697268 2.48395,-1.01934226 12.02821,0.29162207 15.67765,2.15342427 2.59916,1.3259959 7.87754,7.0256949 17.37331,18.7600617 4.51751,5.5825 8.42182,10.15 8.67623,10.15 0.25442,0 0.40754,0.185689 0.34028,0.412642 -0.17307,0.583983 17.69248,22.57772 18.33992,22.57772 0.29335,0 0.39534,0.13803 0.22664,0.306735 -0.36602,0.366021 5.38473,7.519771 6.04499,7.519771 0.25175,0 0.4027,0.187474 0.33544,0.416614 -0.0673,0.229136 13.195,16.873439 29.47169,36.987339 16.27668,20.113902 30.64181,38.141392 31.9225,40.061092 1.28068,1.91971 2.49134,3.7105 2.69036,3.97953 0.4821,0.65174 0.60348,1.55555 1.00185,7.45984 0.18637,2.76222 0.14793,5.01396 -0.0856,5.01385 -0.23314,-1e-4 -0.32017,0.54243 -0.19339,1.20563 0.12678,0.66321 0.0893,1.26854 -0.0832,1.34518 -0.17257,0.0767 -0.95274,1.45727 -1.73371,3.06806 -2.63741,5.43974 -7.25609,8.89479 -14.52788,10.86773 -2.87403,0.77976 -10.63533,0.84446 -109.48488,0.91267 -58.51536,0.0404 -108.152529,-0.0736 -110.304818,-0.25328 z"
     id="path861" />
  <path
     style="fill:#bebfbf;fill-opacity:1;stroke-width:0.489157"
     d="m 121.60554,405.61875 c 0,-0.34553 -0.4104,-0.42484 -1.1006,-0.21268 -0.60533,0.18607 -0.94562,0.17433 -0.7562,-0.0261 0.18941,-0.20042 -0.76374,-0.91661 -2.11812,-1.59153 -2.58726,-1.28928 -9.71603,-7.52779 -10.31715,-9.0287 -0.1931,-0.48218 -0.57831,-0.87668 -0.85602,-0.87668 -0.27771,0 -0.50492,-0.25345 -0.50492,-0.56323 0,-0.78479 -13.004689,-16.86402 -13.925071,-17.2172 -0.412295,-0.15822 -0.749628,-0.55126 -0.749628,-0.87343 0,-0.58694 -0.221764,-0.87531 -2.770593,-3.60277 -0.754245,-0.80711 -1.324117,-1.6199 -1.266382,-1.80621 0.05774,-0.1863 -0.433647,-0.76241 -1.091959,-1.28024 -0.658307,-0.51783 -1.082738,-1.05569 -0.943177,-1.19525 0.139566,-0.13957 -0.300675,-0.68987 -0.978313,-1.2229 -0.677634,-0.53303 -1.117875,-1.08333 -0.978314,-1.22289 0.139566,-0.13956 -0.337826,-0.71908 -1.060868,-1.28783 -0.723037,-0.56874 -1.167866,-1.03408 -0.988502,-1.03408 0.179369,0 -1.35582,-2.09114 -3.411525,-4.64698 -2.055701,-2.55585 -3.946726,-4.64699 -4.202272,-4.64699 -0.255545,0 -0.354261,-0.17857 -0.219377,-0.39683 0.13489,-0.21825 -0.913353,-1.65172 -2.329427,-3.18548 -1.416074,-1.53376 -2.492395,-2.87093 -2.391829,-2.9715 0.10057,-0.10057 -0.371573,-0.61897 -1.049212,-1.15199 -0.677633,-0.53303 -1.110366,-1.09084 -0.961628,-1.23958 0.148733,-0.14873 -0.297079,-0.64227 -0.990703,-1.09675 -0.693625,-0.45448 -1.163753,-0.98389 -1.044736,-1.17647 0.119021,-0.19258 -0.728345,-1.37916 -1.883028,-2.63686 -1.154689,-1.25769 -2.013565,-2.28671 -1.908611,-2.28671 0.104953,0 -1.591775,-2.20121 -3.770508,-4.89157 -2.178732,-2.69036 -4.183624,-4.89156 -4.455316,-4.89156 -0.271693,0 -0.364813,-0.20901 -0.206938,-0.46446 0.15788,-0.25545 -0.370791,-0.95082 -1.174812,-1.54526 -0.804027,-0.59444 -1.358354,-1.24829 -1.231834,-1.453 0.126516,-0.20471 -0.314904,-0.80084 -0.980935,-1.32474 -0.666031,-0.5239 -1.08927,-1.07424 -0.940533,-1.22298 0.148737,-0.14874 -0.297078,-0.64227 -0.990701,-1.09676 -0.693623,-0.45448 -1.144421,-1.01517 -1.001774,-1.24597 0.142648,-0.23081 -0.189423,-0.69992 -0.737935,-1.04248 -0.548512,-0.34255 -0.997294,-0.80124 -0.997294,-1.01932 0,-0.67114 -15.576242,-19.77862 -16.372406,-20.08414 -0.411442,-0.15788 -0.748076,-0.6164 -0.748076,-1.01893 0,-0.40253 -0.446406,-0.97079 -0.992013,-1.26279 -0.545608,-0.292 -0.867247,-0.73279 -0.714754,-0.97953 0.152492,-0.24673 -0.171523,-0.72888 -0.720035,-1.07143 -0.548512,-0.34255 -0.997294,-0.80086 -0.997294,-1.01847 0,-0.65539 -9.782798,-12.57625 -10.320639,-12.57625 -0.274199,0 -0.386284,-0.18164 -0.249076,-0.40365 0.137207,-0.222 -0.770452,-1.4877 -2.017019,-2.81265 C 9.9409154,274.39 8.957126,273.15297 9.0012842,272.966 c 0.044158,-0.18697 -0.5887093,-0.81631 -1.4063723,-1.39854 -0.817663,-0.58223 -1.369819,-1.17544 -1.2270137,-1.31824 0.1428059,-0.14281 -0.3963773,-1.08795 -1.1981847,-2.10031 -0.801807,-1.01237 -2.1716673,-3.34787 -3.0441338,-5.19001 -1.51128651,-3.19095 -1.58289322,-3.60379 -1.51420736,-8.73006 0.077706,-5.79947 0.24570083,-7.68734 0.71821836,-8.07108 0.1656363,-0.13452 0.7952759,-1.21897 1.3991991,-2.4099 1.566023,-3.08816 5.4956589,-7.05172 8.5989802,-8.67322 1.463545,-0.76471 2.661513,-1.54856 2.662152,-1.74189 6.39e-4,-0.19334 0.331343,-0.22482 0.734897,-0.07 0.403554,0.15486 0.733735,0.0676 0.733735,-0.1938 0,-0.29545 5.507708,-0.50253 14.55241,-0.54714 8.003825,-0.0395 19.50512,-0.30769 25.558434,-0.59601 14.750806,-0.7026 178.634882,0.0387 180.663602,0.81718 0.42166,0.16181 1.00696,0.14568 1.30067,-0.0358 0.2937,-0.18152 0.8449,-0.072 1.22488,0.24335 0.37999,0.31536 0.92065,0.43138 1.20147,0.25782 0.28082,-0.17356 0.51141,-0.13748 0.51242,0.0802 9.8e-4,0.21765 0.99517,0.80424 2.20924,1.30354 1.21408,0.49929 2.97422,1.42817 3.91142,2.06417 0.93721,0.636 1.70401,1.06081 1.70401,0.94401 0,-0.11679 0.50947,0.27505 1.13216,0.87077 0.62268,0.59572 1.05924,1.23315 0.97013,1.41652 -0.0891,0.18337 0.33087,0.67864 0.93331,1.1006 0.60243,0.42196 0.93182,0.76721 0.73197,0.76721 -0.36022,0 1.46717,3.93254 2.04573,4.40241 0.35601,0.28912 0.48076,1.28816 0.86204,6.90291 0.20961,3.08672 0.0821,4.90844 -0.47723,6.81637 -0.41981,1.43211 -0.65242,2.78324 -0.51689,3.00252 0.13552,0.21927 2.9e-4,0.39868 -0.3005,0.39868 -0.30079,0 -0.41085,0.22012 -0.24458,0.48915 0.16628,0.26904 0.0562,0.48916 -0.24458,0.48916 -0.30079,0 -0.41085,0.22012 -0.24457,0.48916 0.16627,0.26903 0.10115,0.48915 -0.14472,0.48915 -0.47058,0 -8.24234,9.73958 -8.32,10.42664 -0.0248,0.21941 -0.61834,0.84983 -1.31896,1.40095 -0.70063,0.55111 -1.15968,1.11621 -1.02012,1.25577 0.13957,0.13956 -0.30068,0.68986 -0.97831,1.22289 -0.67764,0.53303 -1.11788,1.08333 -0.97831,1.22289 0.13956,0.13956 -0.29119,0.6824 -0.95722,1.2063 -0.66603,0.5239 -1.10069,1.13096 -0.96592,1.34902 0.13477,0.21807 -0.31039,0.76041 -0.98924,1.20522 -0.67886,0.4448 -1.1191,0.9951 -0.97832,1.22289 0.14078,0.22778 -0.29244,0.77349 -0.96272,1.21268 -0.67028,0.43918 -1.21869,1.07067 -1.21869,1.40331 0,0.33263 -0.44879,0.88506 -0.9973,1.22761 -0.54851,0.34255 -0.88058,0.81166 -0.73793,1.04247 0.14264,0.23081 -0.29607,0.78358 -0.97492,1.22839 -0.67886,0.4448 -1.12585,0.98417 -0.99332,1.19861 0.13253,0.21443 -0.42807,0.8845 -1.24576,1.48905 -0.8177,0.60455 -1.36682,1.21907 -1.22027,1.36561 0.14654,0.14655 -0.28799,0.70256 -0.96562,1.23559 -0.67764,0.53303 -1.11788,1.08333 -0.97831,1.22289 0.13956,0.13956 -0.30068,0.68986 -0.97832,1.22289 -0.67764,0.53303 -1.14972,1.05149 -1.04908,1.15213 0.10064,0.10064 -0.86937,1.32169 -2.15558,2.71345 -1.28621,1.39175 -2.23933,2.69102 -2.11805,2.88726 0.12128,0.19624 -0.34699,0.72864 -1.04062,1.18312 -0.69362,0.45448 -1.13944,0.94802 -0.9907,1.09676 0.14874,0.14874 -0.2745,0.69907 -0.94053,1.22297 -0.66603,0.52391 -1.1007,1.13096 -0.96593,1.34903 0.13477,0.21807 -0.32247,0.76833 -1.01609,1.22281 -0.69363,0.45448 -1.14418,0.94328 -1.00124,1.08622 0.14294,0.14294 -0.39755,0.81311 -1.20111,1.48925 -0.80355,0.67615 -1.37746,1.3129 -1.27534,1.41501 0.10211,0.10212 -0.75829,1.21381 -1.912,2.47043 -1.1537,1.25662 -2.00026,2.44233 -1.88124,2.63491 0.11902,0.19258 -0.33201,0.70948 -1.00229,1.14866 -0.67028,0.43918 -1.21869,1.07068 -1.21869,1.40331 0,0.33264 -0.44879,0.88506 -0.9973,1.22761 -0.54851,0.34255 -0.88058,0.81167 -0.73793,1.04247 0.14264,0.23081 -0.29607,0.78358 -0.97492,1.22839 -0.67886,0.4448 -1.12585,0.98417 -0.99332,1.19861 0.13252,0.21443 -0.41689,0.87624 -1.22091,1.47068 -0.80403,0.59444 -1.34758,1.26573 -1.20788,1.49175 0.13969,0.22602 -0.29444,0.77028 -0.96472,1.20947 -0.67027,0.43918 -1.21869,1.03691 -1.21869,1.32828 0,0.29138 -0.56189,0.97176 -1.24865,1.51196 -0.68676,0.54021 -1.13446,1.09638 -0.9949,1.23594 0.13956,0.13957 -0.30068,0.68987 -0.97831,1.2229 -0.67764,0.53303 -1.11182,1.08939 -0.96484,1.23636 0.14697,0.14698 -0.1753,0.57718 -0.71616,0.95602 -0.54086,0.37883 -0.87828,0.85884 -0.74983,1.06669 0.12846,0.20784 -0.42429,0.86426 -1.22831,1.4587 -0.80402,0.59444 -1.34758,1.26573 -1.20788,1.49175 0.13969,0.22603 -0.30145,0.77488 -0.9803,1.21968 -0.67886,0.4448 -1.10325,1.02074 -0.94311,1.27985 0.16014,0.25912 -0.0249,0.59242 -0.4112,0.74066 -0.76969,0.29535 -5.96325,6.51591 -5.96325,7.14244 0,0.21383 -0.49896,0.73826 -1.10879,1.16541 -0.60983,0.42714 -0.99694,0.9576 -0.86023,1.1788 0.13671,0.2212 -0.31894,0.77403 -1.01257,1.22851 -0.69362,0.45448 -1.13943,0.94802 -0.9907,1.09676 0.14874,0.14874 -0.2745,0.69907 -0.94053,1.22297 -0.66603,0.52391 -1.10069,1.13096 -0.96592,1.34903 0.13477,0.21807 -0.31039,0.76041 -0.98924,1.20521 -0.67886,0.4448 -1.12585,0.98418 -0.99332,1.19861 0.13252,0.21443 -0.41689,0.87624 -1.22091,1.47068 -0.80403,0.59444 -1.34758,1.26573 -1.20788,1.49175 0.13968,0.22603 -0.30145,0.77488 -0.9803,1.21969 -0.67886,0.4448 -1.1191,0.9951 -0.97832,1.22289 0.14078,0.22778 -0.31154,0.786 -1.00516,1.24048 -0.69363,0.45448 -1.14419,0.94328 -1.00124,1.08623 0.14294,0.14294 -0.39756,0.8131 -1.20111,1.48925 -0.80356,0.67614 -1.34911,1.34125 -1.21236,1.478 0.13676,0.13676 -0.30578,0.68476 -0.98341,1.21779 -0.67764,0.53303 -1.11788,1.08333 -0.97831,1.22289 0.13956,0.13957 -0.29119,0.6824 -0.95722,1.2063 -0.66603,0.5239 -1.10069,1.13096 -0.96592,1.34902 0.13477,0.21807 -0.31039,0.76041 -0.98924,1.20522 -0.67886,0.4448 -1.1191,0.9951 -0.97832,1.22289 0.14078,0.22779 -0.29946,0.77809 -0.97831,1.22289 -0.67886,0.4448 -1.1191,0.9951 -0.97831,1.22289 0.14078,0.22779 -0.29946,0.77809 -0.97832,1.22289 -0.67885,0.4448 -1.11019,1.00952 -0.95852,1.25491 0.15166,0.2454 -0.27967,0.81011 -0.95853,1.25491 -0.67885,0.4448 -1.12352,0.98794 -0.98815,1.20698 0.13537,0.21903 -0.41278,0.86743 -1.21812,1.44088 -0.80533,0.57345 -1.42562,1.19561 -1.37841,1.38258 0.0917,0.36309 -3.61519,4.6056 -6.4943,7.43272 -0.95895,0.94163 -3.17836,2.50091 -4.93203,3.46508 -3.14426,1.7287 -3.27593,1.75466 -9.4912,1.87124 -3.46648,0.065 -6.47493,0.22465 -6.68544,0.35475 -0.21051,0.1301 -0.38274,-0.0114 -0.38274,-0.31444 z"
     id="path863" />
</svg>
