<?xml version="1.0" encoding="UTF-8" standalone="no"?>
<svg
   xmlns:dc="http://purl.org/dc/elements/1.1/"
   xmlns:cc="http://creativecommons.org/ns#"
   xmlns:rdf="http://www.w3.org/1999/02/22-rdf-syntax-ns#"
   xmlns:svg="http://www.w3.org/2000/svg"
   xmlns="http://www.w3.org/2000/svg"
   xmlns:sodipodi="http://sodipodi.sourceforge.net/DTD/sodipodi-0.dtd"
   xmlns:inkscape="http://www.inkscape.org/namespaces/inkscape"
   id="Capa_1"
   data-name="Capa 1"
   viewBox="0 0 255.44 406"
   version="1.1"
   sodipodi:docname="sort_inactive_down.svg"
   inkscape:version="1.0.2-2 (e86c870879, 2021-01-15)">
  <metadata
     id="metadata30">
    <rdf:RDF>
      <cc:Work
         rdf:about="">
        <dc:format>image/svg+xml</dc:format>
        <dc:type
           rdf:resource="http://purl.org/dc/dcmitype/StillImage" />
        <dc:title></dc:title>
      </cc:Work>
    </rdf:RDF>
  </metadata>
  <sodipodi:namedview
     pagecolor="#ffffff"
     bordercolor="#666666"
     borderopacity="1"
     objecttolerance="10"
     gridtolerance="10"
     guidetolerance="10"
     inkscape:pageopacity="0"
     inkscape:pageshadow="2"
     inkscape:window-width="1920"
     inkscape:window-height="1001"
     id="namedview28"
     showgrid="false"
     inkscape:zoom="2.044335"
     inkscape:cx="33.557349"
     inkscape:cy="193.81803"
     inkscape:window-x="-9"
     inkscape:window-y="-9"
     inkscape:window-maximized="1"
     inkscape:current-layer="Capa_1" />
  <defs
     id="defs23">
    <style
       id="style21">.cls-1{fill:#171717;}</style>
  </defs>
  <path
     class="cls-1"
     d="M305,254.06H131.08c-8.35,0-20.17-2.05-28.54,6.52a22.3,22.3,0,0,0,0,31L207.82,421.78A20.85,20.85,0,0,0,224,428a20.84,20.84,0,0,0,16.19-6.19L345.46,291.57a22.32,22.32,0,0,0,0-31C337.11,252,320.77,254.06,305,254.06ZM207.82,28.25,102.54,158.43a22.32,22.32,0,0,0,0,31c8.35,8.57,16.11,6.52,28.54,6.52H305c11.73,0,32.16,2.05,40.51-6.52a22.32,22.32,0,0,0,0-31L240.2,28.22A20.84,20.84,0,0,0,224,22,20.83,20.83,0,0,0,207.82,28.25Z"
     transform="translate(-96.28 -22)"
     id="path25" />
  <path
     style="fill:#a0a0a0;stroke:none;stroke-width:0.489157"
     d="M 16.192289,173.59067 C 6.7412734,171.0344 0.00120482,162.01123 0.00120482,151.91509 c 0,-6.14607 1.60749798,-10.20549 6.28476948,-15.87095 1.5474489,-1.87438 3.9141457,-4.77466 5.2593267,-6.44506 1.345181,-1.67041 2.66809,-3.28309 2.939799,-3.58375 0.840269,-0.9298 12.152529,-14.96005 13.446948,-16.67783 0.672591,-0.89258 2.554399,-3.24128 4.181797,-5.21934 5.308005,-6.451744 13.161139,-16.139843 14.156896,-17.464807 0.535498,-0.712535 2.626643,-3.308445 4.646987,-5.768688 2.020344,-2.460242 4.773959,-5.846234 6.119139,-7.524432 1.345181,-1.678194 2.668091,-3.297258 2.939798,-3.597918 0.846891,-0.937127 12.158521,-14.967909 13.446949,-16.6794 0.672591,-0.89344 3.08112,-3.902506 5.352284,-6.686809 2.271164,-2.784304 5.02267,-6.162973 6.114458,-7.508154 1.091787,-1.345181 2.098472,-2.555844 2.237084,-2.690362 0.138607,-0.134518 1.34927,-1.636779 2.690362,-3.338359 1.341086,-1.701578 4.199306,-5.257199 6.351596,-7.901379 3.605201,-4.429145 6.955992,-8.566444 10.027712,-12.381452 8.5964,-10.6765405 11.95177,-12.65792612 21.43552,-12.65792612 5.93725,0 10.49164,1.37844552 14.00005,4.23729912 1.36074,1.108808 5.40592,5.6351029 8.9893,10.058434 3.58337,4.423331 8.64614,10.670588 11.2506,13.882795 2.60445,3.212206 6.63068,8.195165 8.94717,11.073243 3.7095,4.60879 10.93532,13.53397 18.97848,23.441803 1.41962,1.748735 5.06063,6.261205 8.09112,10.027711 3.0305,3.766506 7.2123,8.939337 9.2929,11.495181 2.08059,2.555843 8.11037,10.009049 13.39948,16.56269 5.28912,6.55363 11.34555,14.03773 13.45872,16.63132 2.11317,2.59359 4.72169,5.81623 5.79671,7.16141 4.23278,5.29652 5.13645,6.40975 7.88823,9.71764 6.12156,7.35865 7.67519,10.77655 7.71569,16.9741 0.0326,4.98873 -0.37114,6.96918 -2.18576,10.72168 -3.00604,6.21628 -7.65481,9.44563 -16.16624,11.23017 -4.29391,0.90027 -8.09418,0.93174 -111.81486,0.92586 -65.994843,-0.004 -108.029621,-0.18452 -109.081931,-0.46914 z"
     id="path32" />
  <path
     style="fill:#4b7eda;stroke-width:0.489157;fill-opacity:1"
     d="m 120.13168,405.20656 c -5.05518,-1.79901 -9.16357,-5.22983 -13.71556,-11.45352 -0.99766,-1.36404 -12.485426,-15.63801 -12.927115,-16.06241 -0.422621,-0.40607 -4.083602,-4.88489 -5.390692,-6.59494 -0.67259,-0.87993 -2.543614,-3.1951 -4.157831,-5.14482 -1.614217,-1.94971 -3.485241,-4.26887 -4.157831,-5.15369 -1.284012,-1.68916 -8.824127,-10.99119 -14.201421,-17.51989 -1.740003,-2.11258 -3.713941,-4.56805 -4.386531,-5.45661 -1.213754,-1.60348 -8.72924,-10.87818 -14.406155,-17.77833 -1.627398,-1.97806 -3.509207,-4.32676 -4.181797,-5.21934 -1.336797,-1.77402 -12.785585,-15.9802 -13.197262,-16.37575 -0.460559,-0.44253 -4.142941,-4.96209 -5.39069,-6.61626 C 22.012372,289.17104 11.120744,275.74509 7.1981447,271.09643 1.8147328,264.71656 0.02488988,260.51156 0.00142386,254.18869 -0.03742985,243.71962 6.4124531,235.29167 16.473488,232.66493 c 2.571912,-0.67148 14.88009,-0.75776 109.289882,-0.76612 68.17588,-0.006 107.62548,0.16583 109.82675,0.47848 4.11688,0.58473 6.83872,1.49977 10.22626,3.43793 9.00372,5.1514 12.39104,18.53765 7.24611,28.63565 -0.75811,1.48795 -7.16224,9.55617 -26.98457,33.99639 -3.38214,4.17006 -8.46119,10.4581 -11.28677,13.97342 -9.59952,11.94284 -15.33613,19.04083 -16.59742,20.53624 -1.49589,1.77355 -4.10283,5.00528 -5.8616,7.26643 -1.24311,1.59819 -8.9851,11.17095 -16.45552,20.3468 -2.0808,2.55584 -6.26279,7.72867 -9.29328,11.49518 -3.0305,3.76651 -6.67104,8.27898 -8.0901,10.02771 -1.41905,1.74874 -5.23653,6.47703 -8.48329,10.50732 -7.07696,8.78483 -7.36232,9.05575 -11.99131,11.38444 -3.53348,1.77757 -3.81857,1.83626 -9.53856,1.96338 -4.66445,0.10367 -6.40849,-0.0513 -8.34839,-0.74162 z"
     id="path36" />
</svg>
