<svg id="Capa_1" data-name="Capa 1" xmlns="http://www.w3.org/2000/svg" viewBox="0 0 255.44 406"><defs><style>.cls-1{fill:#171717;}</style></defs><path class="cls-1" d="M305,254.06H131.08c-8.35,0-20.17-2.05-28.54,6.52a22.3,22.3,0,0,0,0,31L207.82,421.78A20.85,20.85,0,0,0,224,428a20.84,20.84,0,0,0,16.19-6.19L345.46,291.57a22.32,22.32,0,0,0,0-31C337.11,252,320.77,254.06,305,254.06ZM207.82,28.25,102.54,158.43a22.32,22.32,0,0,0,0,31c8.35,8.57,16.11,6.52,28.54,6.52H305c11.73,0,32.16,2.05,40.51-6.52a22.32,22.32,0,0,0,0-31L240.2,28.22A20.84,20.84,0,0,0,224,22,20.83,20.83,0,0,0,207.82,28.25Z" transform="translate(-96.28 -22)"/></svg>