<svg width="28" height="28" viewBox="0 0 28 28" fill="none" xmlns="http://www.w3.org/2000/svg">
<path fill-rule="evenodd" clip-rule="evenodd" d="M14 1.81224C20.731 1.81224 26.1875 7.26888 26.1875 13.9998C26.1875 20.7308 20.731 26.1874 14 26.1874C7.26905 26.1874 1.81252 20.7308 1.81252 13.9998C1.81252 7.26888 7.26905 1.81224 14 1.81224Z" fill="#EEF0F2"/>
<path d="M13.9998 22C9.57465 22 6 18.4254 6 13.9998C6 9.57416 9.57465 6 13.9998 6C18.4249 6 21.9995 9.57465 21.9995 13.9998C21.9995 18.4249 18.4254 22 13.9998 22ZM13.9998 7.32753C10.3234 7.32753 7.32753 10.3234 7.32753 13.9998C7.32753 17.6761 10.3234 20.672 13.9998 20.672C17.6761 20.672 20.672 17.6761 20.672 13.9998C20.672 10.3234 17.6766 7.32753 13.9998 7.32753Z" fill="#AEAEAE"/>
<path d="M15.9062 14.6807H13.9999C13.6255 14.6807 13.3188 14.3745 13.3188 13.9996V10.1869C13.3188 9.81255 13.6251 9.50586 13.9999 9.50586C14.3747 9.50586 14.6809 9.81206 14.6809 10.1869V13.3186H15.9403C16.3147 13.3186 16.6214 13.6248 16.6214 13.9996C16.6214 14.3745 16.2811 14.6807 15.9062 14.6807Z" fill="#AEAEAE"/>
</svg>
