<svg id="Layer_1" data-name="Layer 1" xmlns="http://www.w3.org/2000/svg" viewBox="0 0 469.33 469.33"><defs><style>.cls-1{fill:#949494;}</style></defs><g id="Layer_2" data-name="Layer 2"><path class="cls-1" d="M256,21.33C126.4,21.33,21.33,126.4,21.33,256S126.4,490.67,256,490.67,490.67,385.6,490.67,256C490.51,126.46,385.54,21.49,256,21.33Zm79.08,313.75a21.32,21.32,0,0,1-30.16,0l-64-64A21.32,21.32,0,0,1,234.67,256V128a21.33,21.33,0,1,1,42.66,0V247.17l57.75,57.75a21.32,21.32,0,0,1,0,30.16Z" transform="translate(-21.33 -21.33)"/></g></svg>