<svg id="Layer_1" data-name="Layer 1" xmlns="http://www.w3.org/2000/svg" viewBox="0 0 256 256"><defs><style>.cls-1{fill:#c7c7c7;}</style></defs><title>ok_grey</title><path class="cls-1" d="M256,128A128,128,0,1,0,384,256,128,128,0,0,0,256,128Zm0,234.67A106.67,106.67,0,1,1,362.67,256,106.67,106.67,0,0,1,256,362.66Z" transform="translate(-128 -127.99)"/><path class="cls-1" d="M289.76,217.21l-45.2,54.93-23.68-23.69a10.67,10.67,0,0,0-15.09,15.08l32,32a10.62,10.62,0,0,0,7.54,3.13h.52a10.68,10.68,0,0,0,7.72-3.88l52.67-64a10.67,10.67,0,1,0-16.48-13.56Z" transform="translate(-128 -127.99)"/></svg>