<svg id="Layer_1" data-name="Layer 1" xmlns="http://www.w3.org/2000/svg" viewBox="0 0 469.33 469.33"><defs><style>.cls-1{fill:#3caf99;}</style></defs><g id="Layer_2" data-name="Layer 2"><path class="cls-1" d="M256,21.33C126.4,21.33,21.33,126.4,21.33,256S126.4,490.67,256,490.67,490.67,385.6,490.67,256C490.51,126.46,385.54,21.49,256,21.33ZM356.42,217.75,249.75,324.42a21.35,21.35,0,0,1-30.17,0l-64-64a21.34,21.34,0,1,1,29.65-30.69c.17.17.35.34.52.52l48.92,48.92,91.58-91.59a21.34,21.34,0,0,1,30.17,30.17Z" transform="translate(-21.33 -21.33)"/></g></svg>