<svg width="100" height="23" viewBox="0 0 100 23" fill="none" xmlns="http://www.w3.org/2000/svg">
<path d="M4.092 0.838379C4.93809 1.65211 5.71061 2.56599 6.27468 3.60507C6.65481 4.31865 6.9491 5.13238 6.90005 5.95863C6.88779 6.3342 6.75291 6.69725 6.61802 7.04778C6.27468 7.88655 5.85776 8.72532 5.75966 9.6392C5.71061 10.1274 5.78419 10.6157 5.98038 11.0664C6.2992 11.7674 6.4954 12.5186 6.55671 13.2822C6.59349 13.8956 6.55671 14.5591 6.22563 15.0975C5.94359 15.5607 5.44084 15.8236 4.92583 15.8736C4.17783 15.9488 3.41757 15.7985 2.73089 15.5106C1.99515 15.2101 1.35752 14.6468 0.98965 13.9207C0.560471 13.0944 0.486894 12.1054 0.646303 11.1916C0.891548 9.73936 1.6886 8.39983 2.77994 7.43587C3.67508 6.64718 4.38629 5.59558 4.61927 4.40628C4.87678 3.20446 4.58249 1.95257 4.092 0.838379Z" fill="#CF112B"/>
<path d="M7.53751 7.98622C8.05253 7.02228 8.80051 6.19605 9.62208 5.495C9.18064 6.54657 8.91088 7.6983 9.02124 8.85002C9.09481 9.4384 9.27874 10.0268 9.62208 10.5025C9.9409 10.9657 10.4191 11.2912 10.836 11.6667C11.5472 12.3052 12.3198 12.9311 12.7612 13.8074C13.1168 14.5085 13.2149 15.3222 13.2394 16.1109C13.2517 17.0373 13.0555 18.0513 12.4301 18.7524C11.8906 19.3658 11.1181 19.7038 10.3455 19.8916C9.7447 20.0418 9.09481 20.0167 8.53075 19.7413C7.73371 19.3908 7.13286 18.6272 6.94893 17.7634C6.81404 17.1625 6.93667 16.5115 7.26774 15.9982C7.70918 15.3097 7.96669 14.4835 7.91764 13.6572C7.85633 12.4679 7.25548 11.4038 7.07155 10.2396C6.93667 9.45092 7.16965 8.66224 7.53751 7.98622Z" fill="#CF112B"/>
<path d="M0.00836144 15.886C0.0328857 15.6356 0.0451512 15.3852 0.15551 15.1473C0.768617 15.8985 1.59018 16.4618 2.48531 16.7748C3.09842 16.9876 3.74831 17.1003 4.38594 17.1629C4.61892 17.1754 4.85191 17.1504 5.07263 17.2255C5.2443 17.3006 5.30561 17.5134 5.36692 17.6887C5.47728 18.1018 5.56311 18.5149 5.74704 18.8905C6.10264 19.6417 6.74028 20.23 7.46374 20.6181C8.39567 21.1064 9.49926 21.2441 10.517 21.0313C10.9094 20.9561 11.265 20.7183 11.6574 20.6807C11.8045 20.6807 11.6942 20.856 11.6574 20.9186C11.032 21.7949 10.1124 22.4334 9.0946 22.7338C7.90518 23.0969 6.64218 23.0593 5.44049 22.7964C4.64345 22.6212 3.85867 22.3457 3.14747 21.9326C2.41174 21.507 1.76185 20.9186 1.28362 20.205C0.805401 19.5165 0.511112 18.7152 0.241345 17.914C0.057413 17.2505 -0.028425 16.562 0.00836144 15.886Z" fill="#CF112B"/>
<path d="M40.4728 10.1402C41.2699 9.46423 42.2876 9.06363 43.3176 8.95096C44.3231 8.82577 45.3776 8.95096 46.285 9.43919C46.7142 9.66453 47.1189 9.99002 47.4132 10.3781C46.8614 10.8413 46.3096 11.3045 45.7455 11.7677C45.4022 11.3546 44.9117 11.0792 44.3844 10.9915C43.6978 10.8789 42.9498 10.9915 42.3612 11.3921C41.65 11.8553 41.1963 12.644 41.0491 13.4828C40.8897 14.3966 41.0124 15.3981 41.5151 16.1868C41.9075 16.8378 42.5696 17.3135 43.3176 17.4512C43.8939 17.5514 44.5071 17.4888 45.0098 17.1883C45.3531 17.0006 45.6352 16.7251 45.8436 16.4122C46.4445 16.8628 47.0453 17.326 47.6584 17.7892C47.2047 18.4402 46.5548 18.9285 45.8191 19.2039C45.0343 19.5168 44.176 19.5794 43.3422 19.4918C42.2631 19.3791 41.184 18.9535 40.3625 18.2149C39.6022 17.5389 39.0749 16.5874 38.8665 15.5734C38.658 14.5719 38.6703 13.5203 38.9523 12.5313C39.2098 11.6049 39.7371 10.7537 40.4728 10.1402Z" fill="#302E2F"/>
<path d="M20.0443 9.16362C20.9885 9.16362 21.9204 9.16362 22.8646 9.16362C23.9069 9.16362 24.9859 9.11355 25.9669 9.51415C26.5187 9.72697 26.9969 10.1526 27.1931 10.7285C27.4261 11.3795 27.4383 12.1431 27.1195 12.769C26.8988 13.2322 26.4819 13.5828 26.0282 13.7956C25.8933 13.8582 25.7462 13.8957 25.6113 13.9708C26.2857 14.0835 26.9479 14.384 27.3525 14.9598C27.8553 15.6609 27.9288 16.6373 27.6345 17.4385C27.4016 18.077 26.862 18.5527 26.2612 18.8156C25.5377 19.1411 24.7284 19.2538 23.9436 19.2413C22.6316 19.2413 21.3318 19.2413 20.0198 19.2413C20.0566 15.8987 20.0443 12.5312 20.0443 9.16362ZM22.2147 11.0414C22.227 11.7675 22.2147 12.4811 22.2147 13.2072C22.6929 13.2072 23.1711 13.2072 23.6371 13.2072C24.0295 13.2197 24.4464 13.1822 24.7775 12.9318C25.2925 12.5938 25.3293 11.7175 24.8388 11.3419C24.4341 11.0289 23.9069 11.0289 23.4286 11.0289C23.0363 11.0414 22.6193 11.0289 22.2147 11.0414ZM22.2147 15.085C22.2147 15.8612 22.2147 16.6373 22.2147 17.401C22.8646 17.401 23.5145 17.401 24.1644 17.401C24.5445 17.401 24.9369 17.3259 25.2312 17.088C25.6481 16.7876 25.7707 16.1366 25.5132 15.6859C25.2434 15.2728 24.7284 15.1476 24.2747 15.0975C23.588 15.0725 22.9014 15.0975 22.2147 15.085Z" fill="#302E2F"/>
<path d="M32.2816 9.16438C32.8702 9.15186 33.471 9.16438 34.0596 9.16438C35.5066 12.532 36.929 15.8995 38.3759 19.2671C37.5543 19.2671 36.745 19.2671 35.9235 19.2671C35.6414 18.5535 35.3594 17.8525 35.0774 17.1389C33.8144 17.1139 32.5391 17.1389 31.2761 17.1264C31.2638 17.1389 31.227 17.1389 31.2025 17.1514C30.9205 17.8525 30.6507 18.5535 30.3809 19.2671C29.5839 19.2671 28.7746 19.2671 27.9775 19.2671C29.3509 16.0497 30.712 12.8199 32.0854 9.60254C32.1467 9.45231 32.1835 9.28957 32.2816 9.16438ZM33.0051 12.3191C32.6372 13.2956 32.2571 14.2721 31.8769 15.2485C32.6985 15.2485 33.5078 15.2611 34.3294 15.2485C33.9125 14.197 33.4955 13.1579 33.1031 12.0938C33.0786 12.1689 33.0418 12.244 33.0051 12.3191Z" fill="#302E2F"/>
<path d="M48.8112 9.16443C49.5346 9.16443 50.2581 9.16443 50.9815 9.16443C50.9815 10.5665 50.9693 11.9686 50.9815 13.3707C52.269 11.9686 53.5565 10.5665 54.844 9.16443C55.7882 9.16443 56.7324 9.16443 57.6766 9.16443C56.2051 10.7293 54.7337 12.2941 53.2622 13.859C54.8563 15.6617 56.4504 17.4644 58.0567 19.2671C57.0389 19.2671 56.0334 19.2671 55.0157 19.2671C53.6669 17.6647 52.3303 16.0623 50.9693 14.4724C50.957 16.0748 50.957 17.6647 50.9693 19.2671C50.2458 19.2671 49.5101 19.2671 48.7866 19.2671C48.8234 15.8995 48.8112 12.532 48.8112 9.16443Z" fill="#302E2F"/>
<path d="M58.7317 9.16406C60.0069 9.16406 61.2822 9.16406 62.5697 9.16406C63.2319 9.1891 63.894 9.23917 64.5194 9.46452C64.9608 9.62726 65.3778 9.89016 65.6475 10.2908C65.9418 10.7164 66.0522 11.2547 66.0399 11.7805C66.0399 12.1937 65.9296 12.6068 65.7088 12.9573C65.4513 13.3579 65.0589 13.6584 64.642 13.8462C64.5439 13.8962 64.4213 13.9088 64.3355 13.9964C64.9118 14.084 65.4759 14.3219 65.8805 14.76C66.5427 15.4611 66.6653 16.5628 66.3465 17.4516C66.089 18.1402 65.5004 18.6284 64.8382 18.8913C64.1515 19.1667 63.4036 19.2669 62.6801 19.2543C61.368 19.2543 60.056 19.2543 58.7317 19.2543C58.7317 15.8993 58.7317 12.5317 58.7317 9.16406ZM60.9021 11.0419C60.9021 11.768 60.9021 12.4941 60.9021 13.2077C61.4539 13.2202 62.0179 13.2077 62.5697 13.2077C62.9989 13.2077 63.4649 13.0575 63.7224 12.6819C63.9676 12.2938 63.9431 11.6929 63.5875 11.3799C63.2809 11.1045 62.864 11.0419 62.4716 11.0294C61.9444 11.0419 61.4171 11.0419 60.9021 11.0419ZM60.9021 15.0855C60.9021 15.8617 60.9021 16.6254 60.9021 17.4015C61.368 17.4015 61.834 17.4015 62.3122 17.4015C62.7414 17.4015 63.1828 17.4391 63.5875 17.2764C63.9063 17.1637 64.2006 16.9133 64.2987 16.5753C64.3968 16.2373 64.3723 15.8242 64.1148 15.5487C63.8082 15.2107 63.33 15.1231 62.8885 15.0855C62.2264 15.073 61.5642 15.0855 60.9021 15.0855Z" fill="#626365"/>
<path d="M67.7687 9.16418C68.4922 9.16418 69.2157 9.16418 69.9269 9.16418C69.9269 11.8432 69.9269 14.5348 69.9269 17.2139C71.2021 17.2264 72.4774 17.2139 73.7526 17.2139C74.893 14.5348 76.0334 11.8432 77.1738 9.16418C77.7746 9.16418 78.3755 9.16418 78.964 9.16418C79.8592 11.2674 80.7543 13.358 81.6495 15.4612C82.2013 16.7256 82.7163 18.0026 83.2803 19.2545C82.4588 19.2545 81.6372 19.2545 80.8156 19.2545C80.5336 18.5409 80.2516 17.8273 79.9573 17.1137C78.682 17.1137 77.419 17.1137 76.1438 17.1137C76.0579 17.1012 76.0579 17.2013 76.0211 17.2514C75.7636 17.9149 75.5061 18.5909 75.2486 19.2545C72.7471 19.2545 70.2334 19.2545 67.7319 19.2545C67.781 15.8994 67.7687 12.5318 67.7687 9.16418ZM76.7937 15.2484C77.6152 15.2609 78.4245 15.2484 79.2338 15.2484C78.8292 14.1968 78.4245 13.1452 78.0076 12.0936C77.5907 13.1452 77.1983 14.1968 76.7937 15.2484Z" fill="#626365"/>
<path d="M83.8322 9.16418C86.3214 9.16418 88.8229 9.16418 91.3121 9.16418C91.3121 9.81517 91.3243 10.4662 91.3121 11.1171C90.7848 11.8182 90.2085 12.4817 89.669 13.1702C88.5776 14.5223 87.474 15.8618 86.3827 17.2139C88.0871 17.2264 89.7793 17.2139 91.4838 17.2139C91.4838 17.8899 91.4715 18.5784 91.4838 19.2545C88.8719 19.2545 86.2478 19.2545 83.636 19.2545C83.6482 18.5784 83.6482 17.8899 83.636 17.2139C84.9971 15.5614 86.3582 13.9214 87.7315 12.2689C88.0381 11.8808 88.3692 11.5052 88.6757 11.1171C87.0571 11.1171 85.4385 11.1171 83.8199 11.1171C83.8322 10.4662 83.8322 9.81517 83.8322 9.16418Z" fill="#626365"/>
<path d="M92.9553 9.16418C95.1993 9.16418 97.4432 9.16418 99.6871 9.16418C99.6871 9.8402 99.6749 10.5287 99.6994 11.2047C98.1789 11.2173 96.6584 11.2047 95.138 11.2047C95.138 11.8307 95.138 12.4691 95.138 13.0951C96.5726 13.1076 98.0073 13.0951 99.4419 13.0951C99.4419 13.7711 99.4419 14.4596 99.4419 15.1357C98.0073 15.1357 96.5726 15.1357 95.138 15.1357C95.1257 15.8242 95.138 16.5127 95.138 17.2013C96.7443 17.2138 98.3506 17.2013 99.9447 17.2013C99.9447 17.8773 99.9447 18.5658 99.9447 19.2418C97.6149 19.2418 95.2851 19.2418 92.9553 19.2418C92.9553 15.8993 92.9553 12.5317 92.9553 9.16418Z" fill="#626365"/>
</svg>
