<svg width="108" height="20" viewBox="0 0 108 20" fill="none" xmlns="http://www.w3.org/2000/svg">
<path d="M9.04198 19.0773V15.4706C12.7849 15.4706 15.6763 11.7029 14.2358 7.70976C13.6996 6.20697 12.5431 5.02621 11.0817 4.4895C8.20086 3.38388 4.9836 4.87593 3.89015 7.8171C3.65884 8.45042 3.53267 9.11594 3.53267 9.7922H0C0 3.78104 5.71957 -0.974207 11.9859 1.00089C14.7195 1.88109 16.8538 4.06013 17.7054 6.85103C19.6295 13.2271 14.9718 19.0773 9.04198 19.0773Z" fill="#0080FF"/>
<path d="M9.09426 15.4707H5.5616V11.9178H9.09426V15.4707ZM5.5616 18.2616H2.89108V15.4707H5.5616V18.2616ZM2.88057 15.4707H0.641113V13.1737H2.88057V15.4707ZM32.2563 5.9067C31.2364 5.19826 29.9012 4.81183 28.4082 4.81183H25.1489V15.4707H28.4082C29.9117 15.4707 31.1944 15.0843 32.2563 14.3222C32.8451 13.8928 33.2972 13.3025 33.5916 12.6262C33.9175 11.9178 34.0752 11.0376 34.0752 10.1145C34.0752 9.19132 33.9175 8.31113 33.5916 7.65636C33.2761 6.84057 32.8451 6.29313 32.2563 5.9067ZM27.0625 6.62588H28.0823C29.2073 6.62588 30.164 6.84056 30.921 7.33433C31.7201 7.8281 32.0986 8.76196 32.0986 10.1252C32.0986 11.4884 31.6675 12.4759 30.921 13.0234C30.2271 13.4635 29.3124 13.7318 28.1349 13.7318H27.0625V6.62588ZM36.3777 4.65082C36.0728 4.64008 35.789 4.75816 35.5787 4.98357C35.3263 5.17679 35.1897 5.48808 35.2002 5.79936C35.2002 6.43267 35.7048 6.94791 36.3252 6.94791C36.9455 6.94791 37.4501 6.43267 37.4501 5.79936C37.4607 5.48808 37.345 5.19826 37.1242 4.98357C36.9665 4.76889 36.6931 4.65082 36.3777 4.65082ZM35.3999 7.93544H37.2714V15.4171H35.4104L35.3999 7.93544ZM43.9687 8.59022C43.4325 8.09645 42.7912 7.77443 42.0973 7.77443C41.1405 7.75296 40.2258 8.15012 39.5845 8.8693C38.9116 9.58848 38.5541 10.5546 38.5646 11.5421C38.5646 12.5833 38.8905 13.5064 39.5319 14.2149C40.1732 14.9233 41.0249 15.2561 42.0447 15.2561C42.6966 15.2668 43.3379 15.0521 43.8636 14.655V14.816C43.8636 15.4171 43.7059 15.9108 43.38 16.2436C43.054 16.5764 42.623 16.7374 42.0447 16.7374C41.1826 16.7374 40.6569 16.4046 40.0155 15.4815L38.7223 16.7374L38.7749 16.791C39.0377 17.1775 39.4688 17.5639 40.005 17.9396C40.5412 18.3153 41.2351 18.487 42.0342 18.487C43.1592 18.487 44.0108 18.1543 44.6521 17.4458C45.2935 16.7374 45.672 15.8572 45.672 14.7086V7.92471H43.8531V8.57949H43.9687V8.59022ZM43.4956 13.0126C43.1697 13.3991 42.7386 13.5601 42.2024 13.5601C41.6662 13.5601 41.2351 13.3991 40.9092 13.0126C40.5833 12.6262 40.4256 12.1325 40.4256 11.5421C40.4256 10.9517 40.5938 10.4472 40.9197 10.0608C41.2457 9.67436 41.6767 9.51335 42.2129 9.51335C42.7491 9.51335 43.1802 9.67436 43.5061 10.0608C43.8321 10.4472 43.9898 10.941 43.9898 11.5314C43.9898 12.1217 43.8321 12.6262 43.5061 13.0019L43.4956 13.0126ZM47.4068 7.93544H49.2782V15.4171H47.3963V7.93544H47.4068ZM48.311 4.65082C47.7012 4.64008 47.207 5.12312 47.186 5.74569C47.186 5.76716 47.186 5.7779 47.186 5.79936C47.186 6.43267 47.6906 6.94791 48.311 6.94791C48.9313 6.94791 49.4359 6.43267 49.4359 5.79936C49.4465 5.17679 48.9733 4.67229 48.3635 4.65082C48.3425 4.65082 48.3215 4.65082 48.311 4.65082ZM53.284 5.9067H51.4651V7.92471H50.3927V9.62069H51.4651V12.7336C51.4651 13.7211 51.6754 14.4295 52.0539 14.8052C52.4324 15.1917 53.1263 15.4063 54.0305 15.4063C54.3354 15.4171 54.6403 15.3956 54.9452 15.3527H55.0503V13.6567L54.409 13.7104C53.9779 13.7104 53.652 13.6567 53.5469 13.4957C53.3892 13.3347 53.3366 13.0019 53.3366 12.5082V9.67436H55.0503V7.97838H53.3471L53.284 5.9067ZM63.6612 4.81183H65.5327V15.4707H63.6612V4.81183ZM84.2053 12.798C83.9319 13.12 83.627 13.4098 83.2906 13.6782C82.9962 13.8606 82.6597 13.9572 82.3233 13.9465C81.8186 13.9465 81.335 13.7211 80.988 13.3347C80.6095 12.8946 80.4518 12.4008 80.4518 11.746C80.4518 11.0913 80.6095 10.5975 80.988 10.1574C81.314 9.7495 81.8081 9.53482 82.3233 9.55628C82.9121 9.55628 83.5534 9.94271 84.0896 10.5975L85.3198 9.39527C84.5207 8.35407 83.5009 7.8603 82.2707 7.8603C81.2509 7.8603 80.3993 8.24673 79.6528 9.00885C78.9484 9.76023 78.5699 10.7585 78.5804 11.7997C78.5804 12.8946 78.9589 13.8714 79.6528 14.5906C80.3257 15.3419 81.2824 15.7606 82.2707 15.7391C83.606 15.7391 84.6784 15.138 85.4249 14.0431L84.2053 12.798ZM91.7437 9.01958C91.4599 8.64389 91.0919 8.34333 90.6713 8.13939C90.1877 7.91397 89.6515 7.7959 89.1153 7.80663C88.0954 7.80663 87.2438 8.19306 86.6024 8.95518C85.9926 9.7495 85.6772 10.737 85.6877 11.746C85.6877 12.8946 86.0137 13.8177 86.7076 14.5369C87.4015 15.2453 88.2636 15.6318 89.3781 15.6318C90.6082 15.6318 91.6281 15.138 92.4271 14.0968L92.4797 14.0431L91.2496 12.8409C91.1444 13.0019 90.9867 13.1093 90.8185 13.281C90.6713 13.442 90.482 13.5708 90.2823 13.6674C90.0089 13.8284 89.6935 13.9036 89.3676 13.8821C88.905 13.8928 88.4424 13.7318 88.0744 13.442C87.7485 13.1737 87.5908 12.7872 87.5382 12.2935H92.4587V11.585C92.4692 11.102 92.3956 10.619 92.2484 10.1574C92.1748 9.73876 91.9855 9.3416 91.7122 9.00885L91.7437 9.01958ZM87.7379 10.7692C87.822 10.4365 87.9903 10.1359 88.2216 9.88904C88.4739 9.63142 88.8314 9.49188 89.1889 9.50261C89.6199 9.50261 89.9879 9.60995 90.2087 9.88904C90.419 10.1037 90.5346 10.4365 90.5872 10.7692H87.7379ZM98.8616 8.53655C98.3254 8.04278 97.5263 7.8281 96.5591 7.8281C95.9703 7.84957 95.392 7.97838 94.8453 8.21453C94.3617 8.48288 93.878 8.8693 93.6152 9.41674L94.7927 10.5653C95.2764 9.7495 95.8126 9.47041 96.5591 9.47041C96.906 9.45968 97.253 9.57775 97.5264 9.80317C97.7787 9.99638 97.9154 10.3077 97.9048 10.619V11.0054C97.4738 10.8551 97.0217 10.78 96.5696 10.7907C95.6549 10.7907 94.9084 11.0054 94.3196 11.4455C93.7309 11.8856 93.4575 12.5403 93.4575 13.3025C93.4575 14.0109 93.6678 14.5584 94.1514 14.9985C94.635 15.4385 95.2238 15.5996 95.9177 15.5996C96.6116 15.5996 97.253 15.3312 97.8943 14.8267V15.4278H99.7132V10.619C99.7237 9.72803 99.4609 9.03031 98.8616 8.53655ZM95.6023 12.5726C95.8126 12.4115 96.0859 12.3579 96.4644 12.3579C96.9376 12.3793 97.4107 12.4652 97.8523 12.6262V13.3347C97.4107 13.7318 96.8324 13.9465 96.2437 13.9358C95.9177 13.9358 95.6549 13.8821 95.4867 13.7211C95.3184 13.5601 95.2238 13.3883 95.2238 13.1737C95.2659 12.9268 95.4025 12.7121 95.6023 12.5726ZM106.831 8.64389C106.295 8.04278 105.601 7.7637 104.686 7.7637C103.94 7.7637 103.351 7.97838 102.92 8.41847V7.97838H101.101V15.46H102.973V11.3059C102.973 10.7585 103.078 10.2647 103.351 9.94271C103.614 9.62069 104.013 9.43821 104.423 9.44894C104.791 9.42747 105.159 9.58848 105.391 9.88904C105.643 10.2433 105.769 10.6619 105.769 11.0913V15.46H107.63V11.0805C107.588 10.0608 107.315 9.24499 106.831 8.64389ZM61.3587 8.53655C60.8225 8.04278 60.0234 7.8281 59.0561 7.8281C58.4674 7.84957 57.8891 7.97838 57.3424 8.21453C56.8587 8.48288 56.3751 8.8693 56.1122 9.41674L57.2898 10.5653C57.7734 9.7495 58.3096 9.47041 59.0561 9.47041C59.4031 9.45968 59.75 9.57775 60.0234 9.80317C60.2757 9.99638 60.4124 10.3077 60.4019 10.619V11.0054C59.9708 10.8551 59.5187 10.78 59.0666 10.7907C58.1519 10.7907 57.4054 11.0054 56.8167 11.4455C56.2279 11.8856 55.9545 12.5403 55.9545 13.3025C55.9545 14.0109 56.1648 14.5584 56.6485 14.9985C57.1321 15.4385 57.7209 15.5996 58.4148 15.5996C59.1087 15.5996 59.75 15.3312 60.3914 14.8267V15.4278H62.2103V10.619C62.2208 9.72803 61.8949 9.03031 61.3587 8.53655ZM58.0468 12.5726C58.2571 12.4115 58.5304 12.3579 58.9089 12.3579C59.3821 12.3793 59.8552 12.4652 60.2968 12.6262V13.3347C59.8552 13.7318 59.2769 13.9465 58.6881 13.9358C58.3622 13.9358 58.0994 13.8821 57.9311 13.7211C57.7629 13.5601 57.6683 13.3883 57.6683 13.1737C57.7524 12.9482 57.8786 12.7443 58.0468 12.5726ZM72.2195 15.6318C69.2651 15.6318 66.8679 13.1844 66.8679 10.1681C66.8679 7.15186 69.2651 4.70449 72.2195 4.70449C75.1739 4.70449 77.571 7.15186 77.571 10.1681C77.5605 13.1844 75.1739 15.621 72.2195 15.6318ZM72.2195 6.56148C70.2954 6.56148 68.7394 8.15012 68.7394 10.1037C68.7394 12.0681 70.2954 13.6567 72.209 13.6567C74.1225 13.6567 75.6891 12.068 75.6891 10.1145C75.6996 8.16085 74.154 6.57222 72.2195 6.56148C72.23 6.56148 72.23 6.56148 72.2195 6.56148Z" fill="#0080FF"/>
</svg>
