<svg width="37" height="23" viewBox="0 0 37 23" fill="none" xmlns="http://www.w3.org/2000/svg">
<path d="M10.4653 8.87536C10.4653 9.33021 10.5088 9.6963 10.5957 9.96255C10.6935 10.2288 10.813 10.5283 10.976 10.839C11.0412 10.9388 11.0629 11.0387 11.0629 11.1163C11.0629 11.2383 10.9869 11.3604 10.8348 11.4824L10.085 12.0038C9.97634 12.0815 9.86768 12.1148 9.76988 12.1148C9.65036 12.1148 9.53083 12.0482 9.4113 11.9483C9.24831 11.7598 9.09619 11.5712 8.97666 11.3715C8.85713 11.1607 8.73761 10.9277 8.60721 10.6504C7.67273 11.7819 6.4992 12.3366 5.08661 12.3366C4.07606 12.3366 3.27197 12.0482 2.68521 11.4602C2.09844 10.8722 1.79419 10.0846 1.79419 9.10833C1.79419 8.06551 2.15277 7.22238 2.8808 6.59003C3.60882 5.95769 4.58677 5.63597 5.81463 5.63597C6.22754 5.63597 6.64045 5.66925 7.08596 5.73581C7.53147 5.80237 7.98785 5.89113 8.46595 6.00206V5.10346C8.46595 4.17158 8.27036 3.52814 7.90092 3.13986C7.52061 2.76267 6.86864 2.57408 5.94503 2.57408C5.52125 2.57408 5.09747 2.61845 4.65196 2.72939C4.20646 2.84033 3.77181 2.97345 3.3589 3.15095C3.16331 3.2397 3.02206 3.28408 2.93513 3.30627C2.8482 3.32846 2.79387 3.33955 2.73954 3.33955C2.57655 3.33955 2.48962 3.21752 2.48962 2.96236V2.36329C2.48962 2.16361 2.51135 2.01939 2.57655 1.93064C2.64174 1.84189 2.73954 1.76423 2.91339 1.67548C3.33717 1.4536 3.83701 1.2761 4.42378 1.12079C5.01055 0.965473 5.62991 0.887817 6.29274 0.887817C7.7162 0.887817 8.75934 1.22063 9.43303 1.87517C10.0959 2.54079 10.4327 3.53924 10.4327 4.88159V8.85317H10.4653V8.87536ZM5.59731 10.728C5.98849 10.728 6.4014 10.6504 6.83604 10.5061C7.27069 10.3619 7.651 10.0846 7.97698 9.71849C8.17257 9.48552 8.31383 9.23036 8.38989 8.93083C8.46595 8.6313 8.50942 8.28739 8.50942 7.86582V7.35551C8.1617 7.26676 7.79226 7.20019 7.40108 7.14473C7.02077 7.10035 6.64045 7.06707 6.27101 7.06707C5.46692 7.06707 4.88015 7.22238 4.48897 7.55519C4.0978 7.88801 3.90221 8.35395 3.90221 8.96411C3.90221 9.54099 4.04347 9.96255 4.34771 10.2621C4.63023 10.5838 5.04314 10.728 5.59731 10.728ZM15.2246 12.0482C15.0073 12.0482 14.8661 12.0149 14.7683 11.9262C14.6705 11.8485 14.5835 11.6821 14.5184 11.4491L11.704 1.9861C11.628 1.74204 11.5954 1.58673 11.5954 1.49798C11.5954 1.29829 11.6932 1.18735 11.8779 1.18735H13.0514C13.2796 1.18735 13.4317 1.22063 13.5187 1.30938C13.6165 1.38704 13.6817 1.55345 13.7577 1.78642L15.768 9.8849L17.6369 1.78642C17.7021 1.54235 17.7673 1.38704 17.8651 1.30938C17.9629 1.23172 18.1259 1.18735 18.3432 1.18735H19.2994C19.5276 1.18735 19.6797 1.22063 19.7775 1.30938C19.8753 1.38704 19.9622 1.55345 20.0057 1.78642L21.8964 9.98474L23.9718 1.78642C24.0479 1.54235 24.124 1.38704 24.2109 1.30938C24.3087 1.23172 24.4608 1.18735 24.6781 1.18735H25.7973C25.9929 1.18735 26.1016 1.28719 26.1016 1.49798C26.1016 1.56454 26.0907 1.62001 26.0798 1.69766C26.069 1.77532 26.0472 1.86407 25.9929 2.00829L23.1025 11.4713C23.0265 11.7154 22.9504 11.8707 22.8526 11.9483C22.7548 12.026 22.6027 12.0704 22.3962 12.0704H21.364C21.1358 12.0704 20.9837 12.0371 20.8859 11.9483C20.7881 11.8596 20.7011 11.7043 20.6577 11.4602L18.7996 3.56143L16.9524 11.4491C16.8872 11.6932 16.822 11.8485 16.7242 11.9373C16.6264 12.026 16.4634 12.0593 16.2461 12.0593H15.2246V12.0482ZM30.6327 12.381C30.0134 12.381 29.3831 12.3033 28.7855 12.1591C28.1879 12.0149 27.7206 11.8485 27.4055 11.671C27.2099 11.5601 27.0795 11.438 27.0361 11.3271C26.9926 11.2162 26.96 11.0941 26.96 10.9832V10.3619C26.96 10.1068 27.0578 9.98474 27.2316 9.98474C27.3077 9.98474 27.3729 9.99583 27.449 10.018C27.525 10.0402 27.6337 10.0957 27.7532 10.1401C28.1661 10.3286 28.6008 10.4729 29.068 10.5727C29.5461 10.6726 30.0134 10.7169 30.4915 10.7169C31.2521 10.7169 31.8389 10.5838 32.2409 10.3176C32.643 10.0513 32.8603 9.65193 32.8603 9.15271C32.8603 8.8088 32.7516 8.53145 32.5343 8.29848C32.317 8.06551 31.9149 7.85473 31.3282 7.66614L29.5896 7.11145C28.7094 6.8341 28.0683 6.41253 27.6663 5.85784C27.2751 5.31425 27.0687 4.71518 27.0687 4.08283C27.0687 3.57252 27.1773 3.11767 27.3946 2.72939C27.612 2.34111 27.8945 1.9972 28.2531 1.73095C28.6116 1.4536 29.0246 1.24282 29.5027 1.0986C29.9808 0.954381 30.4806 0.887817 31.013 0.887817C31.2738 0.887817 31.5563 0.89891 31.8171 0.932192C32.0888 0.965473 32.3496 1.02094 32.5995 1.06532C32.8385 1.13188 33.0667 1.18735 33.284 1.26501C33.5014 1.34266 33.6644 1.40923 33.7839 1.48688C33.9469 1.58673 34.0664 1.68657 34.1425 1.79751C34.2185 1.89735 34.2511 2.03048 34.2511 2.19689V2.77376C34.2511 3.02892 34.1533 3.16205 33.9795 3.16205C33.8817 3.16205 33.7296 3.11767 33.5231 3.01783C32.8385 2.69611 32.067 2.54079 31.2195 2.54079C30.5349 2.54079 29.9916 2.65173 29.6222 2.8847C29.2527 3.11767 29.0571 3.47267 29.0571 3.97189C29.0571 4.3158 29.1767 4.60425 29.4157 4.83722C29.6548 5.07019 30.1003 5.30315 30.7305 5.51393L32.4365 6.06862C33.2949 6.34597 33.9251 6.74535 34.2946 7.24457C34.664 7.74379 34.8488 8.32067 34.8488 8.95302C34.8488 9.47443 34.7401 9.95146 34.5336 10.373C34.3163 10.7946 34.0338 11.1607 33.6535 11.4491C33.284 11.7598 32.8385 11.9705 32.3278 12.1369C31.8063 12.3033 31.2412 12.381 30.6327 12.381Z" fill="#252F3E"/>
<path fill-rule="evenodd" clip-rule="evenodd" d="M32.9037 18.3394C28.9593 21.3126 23.2329 22.8879 18.2997 22.8879C11.3889 22.8879 5.17349 20.2809 0.468486 15.9432C0.0990393 15.5993 0.435887 15.1333 0.881396 15.3996C5.96671 18.406 12.2364 20.2365 18.7235 20.2365C23.1025 20.2365 27.9053 19.3046 32.3278 17.3965C32.9798 17.0969 33.5448 17.8402 32.9037 18.3394Z" fill="#FF9900"/>
<path fill-rule="evenodd" clip-rule="evenodd" d="M34.5442 16.42C34.0444 15.7544 31.2083 16.0983 29.9261 16.2647C29.5458 16.309 29.4806 15.9762 29.8283 15.71C32.0776 14.0903 35.7829 14.5562 36.2176 15.0998C36.6522 15.6545 36.0981 19.4374 33.99 21.2457C33.6641 21.523 33.3598 21.3788 33.5011 21.0127C33.9792 19.8035 35.044 17.0745 34.5442 16.42Z" fill="#FF9900"/>
</svg>
