<svg width="88" height="22" viewBox="0 0 88 22" fill="none" xmlns="http://www.w3.org/2000/svg">
<g clip-path="url(#clip0)">
<path d="M9.57913 8.57478L12.8038 15.8065H10.839L8.08995 9.67155C5.84062 11.3607 3.85317 13.4853 2.52678 15.4428C4.11363 17.1085 6.31767 18.1408 8.75385 18.1408H17.5105V9.06891C17.5105 7.62903 17.185 6.26833 16.6088 5.06012C14.4345 5.65103 11.9375 6.93108 9.57913 8.57478ZM3.08027 12.1452C4.34862 10.7419 5.84628 9.41789 7.45861 8.27126L5.78541 4.55279C4.60342 6.16716 3.59978 9.22141 3.08027 12.1452ZM0 9.06891C0 10.9487 0.55207 12.695 1.49625 14.1408C1.81617 10.4428 3.23457 5.25367 5.59431 2.6261L6.74517 2.25073L8.99025 7.2566C11.3585 5.80352 13.8938 4.77126 16.2903 4.44721C14.7629 1.78446 11.9601 0 8.75527 0C3.9197 0 0 4.06012 0 9.06891Z" fill="#EF4030"/>
<path d="M29.9646 18.1819V17.4619C28.9539 18 27.7691 18.3006 26.672 18.3006C24.216 18.3006 21.9639 16.7449 21.9639 14.2009V13.8124C21.9639 11.6892 23.7843 10.283 26.2106 10.283H29.966V9.59388C29.966 8.36661 29.4748 7.73904 27.6261 7.73904C26.1525 7.73904 24.594 8.0367 23.2067 8.57629V6.33142C24.2472 5.88274 25.9798 5.58362 27.5978 5.58362C30.5153 5.58362 32.1913 7.07922 32.1913 9.59242V18.1819H29.9646ZM29.9646 12.4062H26.2389C24.737 12.4062 24.1877 13.0352 24.1877 13.8109V14.2009C24.1877 15.3974 24.9677 16.176 26.6437 16.176C27.7408 16.176 28.8676 15.9062 29.9646 15.4282V12.4062Z" fill="black"/>
<path d="M38.5232 18.3315C36.6447 18.3315 35.2589 18.091 33.9297 17.6423V15.4282C35.4316 15.9664 36.9632 16.2068 38.4949 16.2068C40.8914 16.2068 41.0075 15.459 41.0075 14.8901V14.4121C41.0075 12.2274 33.873 14.1423 33.873 9.35494V8.96637C33.873 6.7215 35.6935 5.52649 38.0617 5.52649C39.7958 5.52649 41.2396 5.79482 42.3961 6.33294V8.51769C40.6918 7.85933 39.6231 7.67898 38.0914 7.67898C36.5301 7.67898 36.0969 8.18778 36.0969 8.96637V9.5045C36.0969 11.9884 43.2327 9.8652 43.2327 14.3212V14.8901C43.2327 16.8637 41.7875 18.3315 38.5232 18.3315Z" fill="black"/>
<path d="M49.9664 18.4517C48.8694 18.4517 48.0016 18.1819 47.165 17.7626V22.0001H44.9412V5.70394H47.165V6.3623C48.1474 5.8535 49.1864 5.6145 50.3713 5.6145C52.8839 5.6145 54.9648 7.23034 54.9648 10.223V13.3946C54.9648 16.8344 52.8839 18.4517 49.9664 18.4517ZM52.7395 10.2215C52.7395 8.51626 51.7854 7.82711 50.3996 7.82711C49.1865 7.82711 48.2918 8.006 47.165 8.48547V15.547C47.9167 15.8755 49.1015 16.2362 49.9381 16.2362C51.7854 16.2362 52.7395 15.547 52.7395 13.3916V10.2215Z" fill="black"/>
<path d="M58.8989 12.8257V13.8125C58.8989 15.399 59.7949 16.1776 61.6705 16.1776C63.2319 16.1776 64.1846 15.9386 65.8309 15.3697V17.5236C64.7055 18.0016 63.2885 18.3008 61.7003 18.3008C58.8111 18.3008 56.6736 16.745 56.6736 13.8125V10.0735C56.6736 7.22891 58.2902 5.70398 61.2374 5.70398H62.97C65.0792 5.70398 66.6958 7.22891 66.6958 9.2641V12.8242H58.8989V12.8257ZM64.5017 9.2641C64.5017 8.39606 63.9524 7.85794 63.0295 7.85794H61.2671C59.4467 7.85794 58.8989 8.39606 58.8989 10.072V10.7597H64.5031V9.2641H64.5017Z" fill="black"/>
<path d="M77.2203 9.02503H75.0828C75.1692 8.75524 75.1692 8.60568 75.1692 8.48691C75.1692 7.97811 74.8804 7.67899 73.9263 7.67899C72.7131 7.67899 71.8468 8.18779 70.8361 8.60714V18.1819H68.6108V5.70392H70.8361V6.45172C71.7322 6.03236 72.9736 5.6438 73.9263 5.6438C75.976 5.6438 77.3052 6.78016 77.3052 8.24644C77.3067 8.5177 77.3067 8.72591 77.2203 9.02503Z" fill="black"/>
<path d="M85.776 18.1819V17.4619C84.7638 18 83.5818 18.3006 82.4848 18.3006C80.0288 18.3006 77.7766 16.7449 77.7766 14.2009V13.8124C77.7766 11.6892 79.5956 10.283 82.0233 10.283H85.7774V9.59388C85.7774 8.36661 85.2876 7.73904 83.4389 7.73904C81.9653 7.73904 80.4053 8.0367 79.0181 8.57629V6.33142C80.0571 5.88274 81.7912 5.58362 83.4106 5.58362C86.328 5.58362 88.0041 7.07922 88.0041 9.59242V18.1819H85.776ZM85.776 12.4062H82.0502C80.5483 12.4062 79.9991 13.0352 79.9991 13.8109V14.2009C79.9991 15.3974 80.779 16.176 82.4551 16.176C83.5521 16.176 84.6789 15.9062 85.776 15.4282V12.4062Z" fill="black"/>
</g>
<defs>
<clipPath id="clip0">
<rect width="88" height="22" fill="white"/>
</clipPath>
</defs>
</svg>
