<svg width="104" height="17" viewBox="0 0 104 17" fill="none" xmlns="http://www.w3.org/2000/svg">
<path d="M12.3982 4.81907H12.4622L12.4302 4.78639L14.7351 2.43333V2.38976C12.8037 0.646751 10.1147 0.0475948 7.6391 0.799265C5.16352 1.56183 3.25348 3.56629 2.57056 6.11543C2.61324 6.09364 2.65592 6.08275 2.6986 6.07185C3.55225 5.49448 4.56596 5.16767 5.64369 5.15677C5.99582 5.15677 6.35862 5.18946 6.70008 5.25482C6.70008 5.25482 6.71076 5.25482 6.7321 5.25482C8.21531 3.59897 10.7016 3.40288 12.4089 4.81907H12.3982Z" fill="#EA4335"/>
<path d="M17.0182 6.11576C16.634 4.67774 15.8551 3.39224 14.756 2.40088L12.4192 4.78668C13.4009 5.61463 13.9664 6.84566 13.9451 8.15295V8.57782C16.7194 8.57782 16.7194 12.8156 13.9451 12.8156H9.78355L9.77288 12.8265V16.1928H9.76221L9.78355 16.2146H13.9344C16.3139 16.2364 18.4267 14.6567 19.1416 12.3363C19.8565 10.0049 18.9922 7.47752 17.0182 6.11576Z" fill="#4285F4"/>
<path d="M5.62217 16.1819H9.77307V12.7827H5.62217C5.32339 12.7827 5.03528 12.7174 4.76851 12.5975L2.3676 15.0488L2.35693 15.0706C3.30663 15.8005 4.44839 16.1928 5.62217 16.1819Z" fill="#34A853"/>
<path d="M5.62231 5.16771C3.31746 5.17861 1.26869 6.69291 0.532419 8.92623C-0.203855 11.1595 0.532419 13.6216 2.3571 15.0597L4.76866 12.5976C3.4455 11.9875 3.12538 10.2117 4.14977 9.1659C5.17415 8.12005 6.91346 8.43599 7.51102 9.79777L9.93325 7.32477C8.90887 5.96299 7.31894 5.15682 5.62231 5.16771Z" fill="#FBBC05"/>
<path d="M30.4634 13.8059C29.0122 13.8277 27.625 13.2394 26.6113 12.1936C25.5656 11.1805 24.9787 9.77514 25.0001 8.30445C24.9787 6.83375 25.5656 5.42843 26.6113 4.41528C27.625 3.35856 29.0122 2.75939 30.4634 2.77028C31.8399 2.74849 33.1738 3.2932 34.1554 4.29545L33.1204 5.37396C32.4055 4.67674 31.4558 4.28456 30.4634 4.30634C29.4284 4.29545 28.4253 4.72031 27.7211 5.49379C26.9848 6.23458 26.5793 7.25862 26.6007 8.32623C26.59 9.37206 26.9955 10.3852 27.7211 11.1151C29.2256 12.6512 31.6479 12.6729 33.1844 11.1805C33.6433 10.6684 33.9207 10.0148 33.9847 9.32849H30.4848V7.80332H35.4466C35.4999 8.10836 35.5106 8.42428 35.4999 8.72931C35.564 10.0257 35.0945 11.3003 34.2195 12.2481C33.2378 13.2939 31.8719 13.8604 30.4634 13.8059ZM41.977 12.8037C40.5898 14.1545 38.413 14.1545 37.0365 12.8037C36.3643 12.1391 36.0015 11.224 36.0228 10.2763C36.0015 9.32848 36.3643 8.40249 37.0365 7.74885C38.413 6.39799 40.6005 6.39799 41.977 7.74885C42.6492 8.41339 43.012 9.32848 42.9907 10.2763C43.012 11.2131 42.6492 12.1391 41.977 12.8037ZM38.1249 11.8014C38.8719 12.6185 40.1417 12.6185 40.8886 11.8014C41.2727 11.3875 41.4862 10.8319 41.4755 10.2654C41.4862 9.68799 41.2834 9.13239 40.8886 8.71842C40.131 7.91226 38.8719 7.91226 38.1142 8.71842C37.7194 9.13239 37.5167 9.68799 37.5274 10.2654C37.5167 10.8428 37.7301 11.3983 38.1249 11.8014ZM49.5851 12.8037C48.198 14.1545 46.0212 14.1545 44.634 12.8037C43.9617 12.1391 43.5989 11.224 43.6203 10.2763C43.5989 9.32848 43.9617 8.40249 44.634 7.74885C46.0212 6.39799 48.198 6.39799 49.5851 7.74885C50.2574 8.41339 50.6202 9.32848 50.5988 10.2763C50.6202 11.2131 50.2467 12.1391 49.5851 12.8037ZM45.7224 11.8014C46.4693 12.6185 47.7391 12.6185 48.4861 11.8014C48.8702 11.3875 49.0836 10.8319 49.0729 10.2654C49.0836 9.68799 48.8809 9.13239 48.4861 8.71842C47.7284 7.91226 46.4693 7.91226 45.7117 8.71842C45.3169 9.13239 45.1142 9.68799 45.1248 10.2654C45.1142 10.8428 45.3276 11.3983 45.7224 11.8014ZM54.579 16.9979C53.8747 17.0197 53.1918 16.8018 52.6369 16.366C52.1461 15.9847 51.7513 15.4836 51.5058 14.8953L52.8397 14.3288C52.9891 14.6774 53.2131 14.9825 53.5012 15.2113C53.8107 15.4618 54.1948 15.6034 54.5896 15.5926C55.1018 15.6252 55.5927 15.4291 55.9448 15.0587C56.2969 14.623 56.4677 14.0674 56.4357 13.5118V12.9998H56.3823C55.9341 13.5445 55.2512 13.8495 54.5576 13.8059C53.672 13.8059 52.829 13.4355 52.2208 12.771C51.5699 12.1174 51.2071 11.2131 51.2177 10.2763C51.2071 9.32848 51.5592 8.42428 52.2208 7.75975C52.8183 7.09521 53.672 6.71392 54.5576 6.71392C54.9311 6.71392 55.2939 6.80107 55.6354 6.96448C55.9235 7.09521 56.1902 7.2913 56.393 7.53097H56.4463V6.96448H57.8975V13.3157C57.9722 14.3288 57.6414 15.3311 56.9692 16.0828C56.3183 16.6928 55.454 17.0306 54.579 16.9979ZM54.6857 12.4224C55.1872 12.4333 55.678 12.2154 56.0088 11.8232C56.3716 11.3984 56.5637 10.8537 56.5424 10.2981C56.5637 9.73157 56.3716 9.17597 56.0088 8.74021C55.678 8.34803 55.1979 8.13014 54.6857 8.14104C54.1628 8.13014 53.672 8.34803 53.3198 8.74021C52.9357 9.15418 52.7223 9.70978 52.733 10.2872C52.7223 10.8536 52.9357 11.4092 53.3198 11.8123C53.6613 12.2045 54.1628 12.4224 54.6857 12.4224ZM60.4585 13.5989H58.9326V3.18426H60.4585V13.5989ZM64.6307 13.8059C63.713 13.8277 62.8167 13.4573 62.1764 12.7928C61.5255 12.1174 61.1627 11.2132 61.1841 10.2654C61.1521 9.3176 61.4935 8.3916 62.1338 7.71617C62.742 7.06253 63.585 6.70303 64.4706 6.72481C64.8761 6.72481 65.2709 6.80107 65.6337 6.95359C65.9645 7.09521 66.274 7.2913 66.53 7.55276C66.7541 7.77064 66.9462 8.01031 67.1169 8.27177C67.2556 8.50054 67.373 8.72932 67.4584 8.96898L67.6184 9.37207L62.9447 11.333C63.2328 12.0084 63.9051 12.4333 64.6307 12.4115C65.3349 12.4115 65.9752 12.0411 66.338 11.431L67.5011 12.2372C67.2023 12.673 66.8182 13.0433 66.3807 13.3266C65.8685 13.6534 65.2602 13.8277 64.6307 13.8059ZM62.6886 10.1564L65.7938 8.83825C65.6977 8.60948 65.527 8.41339 65.3136 8.29355C65.0682 8.15193 64.7907 8.07568 64.5133 8.08657C64.0438 8.09746 63.585 8.30445 63.2542 8.65306C62.8487 9.04524 62.6459 9.60083 62.6886 10.1564Z" fill="#5F6368"/>
<path d="M75.6 13.8064C74.2875 13.8281 73.0284 13.3052 72.1107 12.3574C71.1824 11.4097 70.6809 10.1242 70.7129 8.78421C70.6809 7.44425 71.1824 6.15875 72.1107 5.21097C73.0284 4.26319 74.2982 3.74028 75.6 3.76207C76.9338 3.71849 78.2036 4.29587 79.0572 5.3308L78.2143 6.15875C77.5847 5.35259 76.6137 4.89504 75.6 4.93862C74.629 4.91683 73.69 5.29812 72.9964 5.99534C72.2814 6.72524 71.8973 7.73838 71.94 8.77331C71.8973 9.80825 72.2814 10.8105 72.9964 11.5513C73.69 12.2485 74.6183 12.6298 75.6 12.608C76.7311 12.6189 77.8088 12.1069 78.5237 11.2136L79.3667 12.0742C78.9292 12.608 78.3743 13.0438 77.7554 13.327C77.0725 13.6647 76.3469 13.8281 75.6 13.8064Z" fill="#5F6368"/>
<path d="M80.4233 13.5994H81.6291V3.96912H80.4233V13.5994Z" fill="#5F6368"/>
<path d="M83.6028 7.80272C84.926 6.46273 87.0494 6.46273 88.3619 7.80272C88.9915 8.47816 89.3223 9.37148 89.2903 10.3084C89.3223 11.2344 88.9808 12.1386 88.3619 12.814C87.0494 14.154 84.9153 14.154 83.6028 12.814C82.9839 12.1386 82.6425 11.2453 82.6745 10.3084C82.6425 9.38237 82.9733 8.47816 83.6028 7.80272ZM84.4992 12.0297C85.2994 12.8903 86.6546 12.8903 87.4549 12.0297C87.8817 11.5612 88.1058 10.9402 88.0845 10.2975C88.1165 9.65473 87.8817 9.03376 87.4549 8.56531C86.6546 7.70467 85.2994 7.70467 84.4992 8.56531C84.0723 9.03376 83.8483 9.65473 83.8803 10.2975C83.8483 10.9402 84.0723 11.5612 84.4992 12.0297Z" fill="#5F6368"/>
<path d="M95.9915 13.5994H94.8284V12.6843H94.7964C94.5936 13.0329 94.2949 13.3162 93.9428 13.5122C93.58 13.7301 93.1638 13.8391 92.7477 13.8391C92.0541 13.8826 91.3819 13.6103 90.9124 13.0874C90.4749 12.5209 90.2508 11.8019 90.2935 11.072V7.01944H91.4992V10.8432C91.4992 12.0742 92.0328 12.6843 93.0891 12.6843C93.5693 12.6952 94.0281 12.4773 94.3162 12.0851C94.6257 11.6821 94.7964 11.17 94.7857 10.658V7.00854H95.9915V13.5994Z" fill="#5F6368"/>
<path d="M100.1 13.8065C99.2673 13.8065 98.4777 13.4361 97.9441 12.7934C97.3359 12.1179 97.0158 11.2137 97.0371 10.2986C97.0158 9.3726 97.3359 8.47928 97.9441 7.80385C98.4883 7.16109 99.278 6.79069 100.1 6.80159C100.558 6.80159 101.017 6.89963 101.423 7.12841C101.786 7.31361 102.084 7.58597 102.298 7.93458H102.351L102.298 7.01947V3.96912H103.503V13.5995H102.34V12.6844H102.287C102.074 13.033 101.775 13.3054 101.412 13.4906C100.996 13.7085 100.548 13.8174 100.1 13.8065ZM100.292 12.6844C100.847 12.6953 101.369 12.4556 101.743 12.0417C102.148 11.5623 102.362 10.9413 102.33 10.3095C102.362 9.67763 102.159 9.05667 101.743 8.57733C100.964 7.6949 99.6087 7.6949 98.8191 8.57733C98.403 9.05667 98.2002 9.67763 98.2322 10.3095C98.1896 10.9413 98.403 11.5623 98.8191 12.0417C99.2033 12.4556 99.7368 12.6953 100.292 12.6844Z" fill="#5F6368"/>
</svg>
