<svg id="Isolation_Mode" data-name="Isolation Mode" xmlns="http://www.w3.org/2000/svg" viewBox="0 0 492.18 554.2"><defs><style>.cls-1{fill:#316fea;}.cls-2{fill:#ff6161;}.cls-3{fill:#fff;}</style></defs><title>storage</title><path class="cls-1" d="M363.92,262.46h-6.59v-95a33.64,33.64,0,0,0-33.61-33.6h-17.4a23.11,23.11,0,0,0-18.51-36.93H277.52V34.59a28.88,28.88,0,1,0-57.76,0V96.88H209.48A23.1,23.1,0,0,0,191,133.81H158.35V96.6h10.29a23.09,23.09,0,0,0,17.42-38.26L147.35,13.85a23.71,23.71,0,0,0-35.76,0L72.88,58.33A23.1,23.1,0,0,0,90.3,96.6h10.29v37.2H81.76a33.64,33.64,0,0,0-33.6,33.61v34a38.75,38.75,0,0,0-33.53,38.34V478a38.74,38.74,0,0,0,38.71,38.7H363.92A38.75,38.75,0,0,0,402.63,478V301.16A38.75,38.75,0,0,0,363.92,262.46ZM206.62,118.68a3,3,0,0,1,2.86-1.84h13.34a16.93,16.93,0,0,0,16.9-16.91V34.59a8.92,8.92,0,0,1,17.84,0V99.93a16.93,16.93,0,0,0,16.91,16.91h13.34a3.15,3.15,0,0,1,2.37,5.2L277,137.24l-25.49,29.29a3.75,3.75,0,0,1-5.64,0L207.1,122A3,3,0,0,1,206.62,118.68ZM90.3,76.64a3.14,3.14,0,0,1-2.36-5.2L126.65,27a3.75,3.75,0,0,1,5.64,0L171,71.44a3.15,3.15,0,0,1-2.37,5.2H155.3a16.93,16.93,0,0,0-16.91,16.91v65.34a8.92,8.92,0,0,1-17.84,0V93.55a16.93,16.93,0,0,0-16.9-16.91ZM382.67,478a18.77,18.77,0,0,1-18.75,18.74H53.34A18.77,18.77,0,0,1,34.59,478V239.72A18.77,18.77,0,0,1,53.34,221h91.2a18.77,18.77,0,0,1,18.75,18.74v17.46a25.27,25.27,0,0,0,25.23,25.24H240.9a10,10,0,0,0,0-20H188.52a5.29,5.29,0,0,1-5.27-5.28V239.72A38.74,38.74,0,0,0,144.54,201H68.12V167.41a13.66,13.66,0,0,1,13.64-13.64h18.83v5.12a27.58,27.58,0,0,0,.34,4.39,28.88,28.88,0,0,0,57.42-4.39v-5.12h49.91l22.51,25.86a23.7,23.7,0,0,0,35.75,0L289,153.77h34.69a13.66,13.66,0,0,1,13.65,13.64v95H320.75a10,10,0,0,0,0,20h43.17a18.77,18.77,0,0,1,18.75,18.74Z" transform="translate(-14.63 -5.71)"/><path class="cls-1" d="M280.85,282.42a10,10,0,0,0,0-20h0a10,10,0,0,0,0,20Z" transform="translate(-14.63 -5.71)"/><path class="cls-2" d="M393,332.21A113.85,113.85,0,1,0,506.81,446.09v0A113.85,113.85,0,0,0,393,332.21Z" transform="translate(-14.63 -5.71)"/><polygon class="cls-3" points="389.26 454.53 393.45 368.41 363.41 368.41 367.59 454.53 389.26 454.53"/><path class="cls-3" d="M393.07,476.4c-10.07,0-17.12,7-17.12,17.29,0,9.88,6.84,17.31,16.73,17.31h.39c10.26,0,16.9-7.43,16.9-17.31C409.79,483.44,403.13,476.4,393.07,476.4Z" transform="translate(-14.63 -5.71)"/></svg>