<svg width="73" height="22" viewBox="0 0 73 22" fill="none" xmlns="http://www.w3.org/2000/svg">
<path d="M12.5413 20.2925C16.0241 19.6641 18.9007 19.1446 18.9341 19.1374L18.9944 19.1242L15.7061 15.1315C13.8977 12.9355 12.4178 11.1298 12.4178 11.1197C12.4178 11.0999 15.8133 1.55457 15.832 1.52049C15.8385 1.50913 18.1488 5.58197 21.433 11.3929C24.5076 16.8331 27.0422 21.3191 27.0662 21.3609L27.109 21.4375L16.6589 21.4363L6.20888 21.4351L12.5413 20.2925ZM52.6156 19.3269C51.025 19.2229 50.0997 18.298 49.8544 16.5671C49.7894 16.1067 49.7888 16.0947 49.7823 13.1053L49.7759 10.2121H50.4798H51.1837L51.189 13.0102C51.1943 15.5321 51.1972 15.8281 51.2206 16.0056C51.3167 16.7255 51.5076 17.2098 51.832 17.5572C52.0921 17.8352 52.3966 17.9984 52.8177 18.0845C53.0162 18.1252 53.5819 18.1252 53.7629 18.0845C54.1898 17.9882 54.5324 17.7987 54.8346 17.4908C55.1789 17.1392 55.4337 16.6412 55.5567 16.0774L55.5983 15.8872L55.6029 13.0652L55.6076 10.2431H56.3262H57.0448V14.6795V19.1159H56.3332H55.6217V18.4121C55.6217 17.9338 55.6164 17.7102 55.6059 17.7138C55.5971 17.7168 55.5608 17.7736 55.5245 17.8406C55.2791 18.2968 54.8709 18.7141 54.4235 18.9658C53.8888 19.2677 53.3506 19.3748 52.6156 19.3269ZM68.7615 19.3197C68.1999 19.2767 67.609 19.0794 67.1253 18.7745C66.1068 18.1311 65.5042 17.0711 65.3274 15.6116C65.2665 15.107 65.2589 14.4284 65.3098 13.9997C65.4234 13.0413 65.7924 12.1002 66.3183 11.4282C66.453 11.256 66.7587 10.9439 66.9273 10.8064C67.3829 10.4351 67.9159 10.1756 68.4816 10.0488C68.8113 9.97529 69.3917 9.94061 69.7419 9.97349C70.6215 10.0566 71.4279 10.4799 71.9761 11.1454C72.533 11.8216 72.8387 12.7663 72.8779 13.9303C72.8838 14.1127 72.8856 14.4326 72.8815 14.6406L72.8738 15.0197L69.7928 15.0239L66.7118 15.0281V15.1686C66.7118 15.5961 66.8137 16.0828 66.9894 16.4965C67.1411 16.8534 67.4023 17.2433 67.616 17.4322C68.0547 17.819 68.5911 18.051 69.1779 18.1066C69.3958 18.1276 69.9504 18.1054 70.1987 18.0666C70.9067 17.9554 71.5796 17.672 72.1231 17.2558C72.1869 17.2068 72.2484 17.1614 72.2589 17.1542C72.2747 17.144 72.2783 17.272 72.2783 17.8095L72.2777 18.4773L72.1318 18.5694C71.5169 18.9574 70.813 19.2067 70.0669 19.3C69.8444 19.3275 69.0274 19.3401 68.7615 19.3197ZM71.4431 13.687C71.4431 12.9713 71.1474 12.1761 70.7298 11.7666C70.4312 11.4742 70.071 11.296 69.6417 11.2279C69.4391 11.1956 69.011 11.2081 68.7972 11.2524C68.3451 11.3457 67.9709 11.5483 67.6447 11.8778C67.3015 12.224 67.0439 12.6449 66.8822 13.1238C66.8243 13.296 66.7557 13.5788 66.7346 13.7366L66.7247 13.8114H69.0836H71.4426V13.687H71.4431ZM29.6477 19.0967C29.6512 19.086 30.6977 16.2795 31.9726 12.8607L34.2912 6.64443H35.0361H35.781L35.8431 6.80646C36.0322 7.30092 40.4848 19.1033 40.4848 19.1093C40.4848 19.1135 40.1282 19.1165 39.6925 19.1165H38.9001L38.2582 17.3718L37.6164 15.6272H35.0326H32.4488L32.4265 15.6864C32.4142 15.7186 32.1401 16.5037 31.8174 17.4304L31.2306 19.1153H30.4365C29.8064 19.1165 29.6424 19.1123 29.6477 19.0967ZM37.1444 14.2963C37.1444 14.2933 36.7128 13.0981 36.1845 11.6398C35.1971 8.91164 35.1415 8.74782 35.0636 8.30956C35.0273 8.10449 35.0086 8.09851 34.9869 8.28565C34.9717 8.41957 34.9043 8.71912 34.8522 8.88533C34.8264 8.96784 34.3819 10.2138 33.8642 11.6542C33.3465 13.0945 32.9231 14.2795 32.9231 14.2867C32.9231 14.2939 33.873 14.3004 35.0337 14.3004C36.1945 14.301 37.1444 14.2992 37.1444 14.2963ZM40.9639 18.8893V18.6621L43.5383 15.049L46.1128 11.4359L43.7819 11.4282L41.4511 11.4204L41.447 10.8165L41.4429 10.2127H44.8144H48.1859V10.4165V10.6204L45.6115 14.2532C44.1954 16.2514 43.037 17.8896 43.037 17.8938C43.037 17.898 44.1819 17.9009 45.581 17.9009H48.125V18.509V19.1171H44.545H40.965V18.8893H40.9639ZM59.8552 19.1057C59.8494 19.0997 59.8447 17.0962 59.8447 14.6538V10.2121H60.548H61.2514V11.128C61.2514 11.6315 61.2572 12.044 61.2648 12.044C61.2725 12.044 61.3064 11.9615 61.341 11.861C61.4991 11.3995 61.7738 10.9678 62.1269 10.6252C62.4455 10.3161 62.8092 10.1313 63.2384 10.0608C63.3591 10.0411 63.461 10.0369 63.7022 10.0435C64.005 10.0512 64.1637 10.0739 64.3476 10.1355L64.4056 10.1547V10.9002V11.6458L64.2393 11.5609C63.9459 11.4108 63.656 11.3516 63.3075 11.3702C63.0809 11.3821 62.9321 11.412 62.7506 11.4814C62.3775 11.6243 62.0754 11.8766 61.8639 12.2204C61.5582 12.7184 61.3398 13.3594 61.2754 13.9477C61.2637 14.0535 61.2572 14.9139 61.2543 16.6101L61.2502 19.1165H60.5568C60.1779 19.1165 59.8611 19.1117 59.8552 19.1057ZM0 19.0746C0 19.0692 1.54959 16.3231 3.44294 12.9725L6.88588 6.8806L10.8981 3.44272C13.1047 1.55218 14.9167 0.00244784 14.9237 5.62755e-05C14.9307 -0.00233529 14.902 0.0717972 14.8593 0.165666C14.8165 0.259535 12.8558 4.553 10.5022 9.70624L6.22294 19.0764L3.11148 19.0806C1.40026 19.083 0 19.0806 0 19.0746Z" fill="#0089D6"/>
</svg>
