<svg width="272" height="164" viewBox="0 0 272 164" fill="none" xmlns="http://www.w3.org/2000/svg">
<path fill-rule="evenodd" clip-rule="evenodd" d="M64.6054 162.738C63.2189 161.165 61.8854 159.546 60.6049 157.88C59.6022 156.577 58.3122 155.523 56.8345 154.796C55.3567 154.07 53.731 153.692 52.0831 153.691C45.6376 153.685 35.8034 153.685 35.8034 153.685C32.7207 153.685 29.7643 152.465 27.5845 150.295C25.4047 148.125 24.1801 145.182 24.1801 142.113V142.113C24.18 140.593 24.4805 139.088 25.0646 137.684C25.6487 136.28 26.5048 135.004 27.5842 133.93C28.6635 132.855 29.9449 132.003 31.3552 131.421C32.7654 130.839 34.277 130.54 35.8034 130.54H72.5351C75.618 130.54 78.5747 129.321 80.7546 127.15C82.9346 124.98 84.1593 122.037 84.1593 118.967C84.1579 115.899 82.9324 112.956 80.7522 110.787C78.572 108.618 75.6157 107.399 72.5333 107.4H11.6242C8.5413 107.4 5.58463 106.18 3.40466 104.01C1.22469 101.84 0 98.8962 0 95.8269V95.8269C0 92.7576 1.22469 89.814 3.40466 87.6437C5.58463 85.4734 8.5413 84.2542 11.6242 84.2542H53.4701C54.9966 84.2543 56.5082 83.955 57.9185 83.3735C59.3288 82.7921 60.6102 81.9397 61.6897 80.8651C62.7691 79.7906 63.6253 78.5149 64.2095 77.1108C64.7937 75.7068 65.0944 74.202 65.0944 72.6823C65.0944 71.1626 64.7937 69.6577 64.2095 68.2537C63.6253 66.8497 62.7691 65.574 61.6897 64.4994C60.6102 63.4249 59.3288 62.5725 57.9185 61.991C56.5082 61.4095 54.9966 61.1103 53.4701 61.1104H30.6874C29.1606 61.1104 27.6486 60.8109 26.238 60.2291C24.8274 59.6472 23.5458 58.7944 22.4663 57.7193C21.3869 56.6442 20.5307 55.3679 19.9468 53.9634C19.3629 52.5588 19.0626 51.0535 19.0632 49.5334V49.5334C19.0632 46.4641 20.2879 43.5205 22.4679 41.3502C24.6478 39.1799 27.6045 37.9606 30.6874 37.9606H60.5662C62.005 37.9606 63.4292 37.6728 64.7541 37.1142C66.0791 36.5557 67.2779 35.7379 68.2793 34.7094C85.4407 17.287 109.346 6.4834 135.766 6.4834C171.568 6.4834 202.751 26.322 218.82 55.5456C219.745 57.2264 221.108 58.6285 222.764 59.6051C224.42 60.5818 226.31 61.097 228.235 61.0967C235.295 61.1061 245.498 61.1061 245.498 61.1061C248.581 61.1061 251.537 62.3253 253.717 64.4954C255.897 66.6656 257.121 69.6089 257.121 72.678C257.121 75.7471 255.897 78.6904 253.717 80.8605C251.537 83.0307 248.581 84.2499 245.498 84.2499H222.715C219.632 84.2499 216.676 85.4691 214.496 87.6395C212.316 89.8098 211.091 92.7533 211.091 95.8226C211.09 97.3427 211.391 98.8481 211.975 100.253C212.558 101.657 213.415 102.933 214.494 104.009C215.574 105.084 216.855 105.936 218.266 106.518C219.676 107.1 221.188 107.4 222.715 107.4H260.377C263.459 107.4 266.416 108.619 268.596 110.789C270.775 112.959 272 115.902 272 118.972V118.972C271.999 122.04 270.774 124.982 268.594 127.152C266.415 129.321 263.459 130.54 260.377 130.54H232.94C230.826 130.54 228.758 131.161 226.996 132.326C225.235 133.491 223.858 135.148 223.038 137.089C219.09 146.447 213.65 155.109 206.927 162.739L64.6054 162.738Z" fill="#F3F6FF"/>
<path fill-rule="evenodd" clip-rule="evenodd" d="M237.409 162.096H100.335C100.164 162.096 100 162.164 99.8792 162.284C99.7583 162.404 99.6904 162.567 99.6904 162.738C99.6904 162.908 99.7583 163.071 99.8792 163.191C100 163.312 100.164 163.379 100.335 163.379H237.409C237.58 163.379 237.744 163.312 237.865 163.191C237.986 163.071 238.054 162.908 238.054 162.738C238.054 162.567 237.986 162.404 237.865 162.284C237.744 162.164 237.58 162.096 237.409 162.096Z" fill="#6599FF"/>
<path fill-rule="evenodd" clip-rule="evenodd" d="M93.4599 162.096H37.5791C37.4082 162.096 37.2442 162.164 37.1234 162.284C37.0025 162.404 36.9346 162.567 36.9346 162.738C36.9346 162.908 37.0025 163.071 37.1234 163.191C37.2442 163.312 37.4082 163.379 37.5791 163.379H93.4599C93.6308 163.379 93.7948 163.312 93.9156 163.191C94.0365 163.071 94.1044 162.908 94.1044 162.738C94.1044 162.567 94.0365 162.404 93.9156 162.284C93.7948 162.164 93.6308 162.096 93.4599 162.096Z" fill="#6599FF"/>
<path d="M116.014 53.2705C116.32 54.3937 117.06 55.3507 118.072 55.9325C119.085 56.5143 120.287 56.6735 121.418 56.3754L159.076 46.3291C160.204 46.0249 161.165 45.2883 161.75 44.2803C162.334 43.2723 162.494 42.0749 162.194 40.95L152.178 3.74796C151.872 2.6245 151.133 1.66715 150.12 1.08517C149.108 0.50319 147.905 0.343914 146.775 0.642159L109.122 10.6885C107.994 10.9925 107.032 11.729 106.447 12.737C105.862 13.745 105.702 14.9425 106.002 16.0676L116.014 53.2705Z" fill="#316FEA"/>
<path fill-rule="evenodd" clip-rule="evenodd" d="M121.583 56.9958L159.242 46.9494C160.536 46.6006 161.638 45.7562 162.307 44.601C162.977 43.4457 163.161 42.0735 162.817 40.784L156.716 18.1109C156.694 18.0295 156.656 17.9531 156.604 17.8863C156.553 17.8194 156.489 17.7633 156.415 17.7212C156.342 17.679 156.261 17.6516 156.177 17.6406C156.093 17.6296 156.008 17.6352 155.926 17.657C155.845 17.6788 155.768 17.7164 155.701 17.7677C155.634 17.819 155.577 17.8829 155.535 17.9559C155.493 18.0289 155.465 18.1094 155.454 18.193C155.443 18.2765 155.449 18.3614 155.47 18.4428L161.572 41.1212C161.828 42.0818 161.692 43.1044 161.193 43.9652C160.693 44.8259 159.872 45.4547 158.908 45.714L121.25 55.7561C121.168 55.7779 121.092 55.8156 121.024 55.8669C120.957 55.9183 120.901 55.9823 120.859 56.0553C120.773 56.2027 120.75 56.3779 120.795 56.5423C120.839 56.7067 120.947 56.8469 121.095 56.9319C121.243 57.017 121.419 57.0399 121.584 56.9958H121.583Z" fill="#6599FF"/>
<path fill-rule="evenodd" clip-rule="evenodd" d="M146.613 0.0226959L108.955 10.0682C107.661 10.4167 106.559 11.261 105.888 12.4165C105.218 13.572 105.035 14.9447 105.378 16.2345L112.244 41.7422C112.266 41.8236 112.303 41.8999 112.355 41.9668C112.406 42.0337 112.471 42.0898 112.544 42.1319C112.617 42.1741 112.698 42.2014 112.782 42.2125C112.866 42.2235 112.951 42.2179 113.033 42.1961C113.115 42.1743 113.192 42.1367 113.259 42.0854C113.326 42.0341 113.382 41.9702 113.425 41.8972C113.467 41.8242 113.494 41.7437 113.505 41.6601C113.517 41.5766 113.511 41.4917 113.489 41.4103L106.624 15.9016C106.369 14.9409 106.507 13.9188 107.006 13.0583C107.505 12.1978 108.325 11.5686 109.288 11.308L146.946 1.26159C147.111 1.21757 147.252 1.11004 147.338 0.962667C147.423 0.81529 147.446 0.640135 147.402 0.475733C147.358 0.311332 147.25 0.171151 147.102 0.0860298C146.954 0.000908572 146.778 -0.0221825 146.613 0.0218395V0.0226959Z" fill="#6599FF"/>
<path d="M122.55 31.5941C123.162 33.8681 124.437 35.9103 126.215 37.4624C127.993 39.0146 130.194 40.007 132.538 40.3141C134.883 40.6213 137.266 40.2294 139.387 39.188C141.507 38.1466 143.27 36.5026 144.453 34.4637C145.635 32.4248 146.183 30.0827 146.028 27.7335C145.873 25.3844 145.022 23.1337 143.583 21.2661C142.143 19.3985 140.179 17.9978 137.94 17.2413C135.701 16.4847 133.287 16.4062 131.003 17.0157C129.486 17.4203 128.064 18.1183 126.819 19.0699C125.573 20.0215 124.528 21.2081 123.743 22.5619C122.958 23.9156 122.449 25.41 122.244 26.9598C122.039 28.5096 122.143 30.0843 122.55 31.5941Z" fill="white"/>
<path d="M129.553 23.4993C128.916 23.2939 128.536 23.6524 128.709 24.2976L131.545 34.8402C131.717 35.4844 132.227 35.6102 132.677 35.1122L139.31 27.8012C139.759 27.3058 139.605 26.7326 138.966 26.5272L129.55 23.4984L129.553 23.4993Z" fill="#316FEA"/>
<path d="M115.507 14.88C115.572 15.1231 115.538 15.3819 115.411 15.5997C115.285 15.8175 115.077 15.9765 114.833 16.0419L110.917 17.0866C110.673 17.1507 110.414 17.1162 110.195 16.9905C109.976 16.8649 109.817 16.6583 109.75 16.4158L109.321 14.8107C109.256 14.5677 109.291 14.3091 109.417 14.0914C109.543 13.8737 109.751 13.7146 109.994 13.6488L113.91 12.6041C114.154 12.5395 114.414 12.5737 114.632 12.6992C114.851 12.8248 115.011 13.0314 115.077 13.274L115.507 14.88H115.507Z" fill="white"/>
<path d="M126.79 11.8701C126.854 12.113 126.82 12.3715 126.694 12.5892C126.568 12.8069 126.36 12.9661 126.117 13.032L122.2 14.0767C121.956 14.1411 121.697 14.1068 121.478 13.9813C121.259 13.8558 121.1 13.6492 121.033 13.4068L120.604 11.8C120.539 11.5571 120.573 11.2985 120.699 11.0807C120.825 10.863 121.033 10.7038 121.277 10.6381L125.193 9.59254C125.437 9.5287 125.696 9.56346 125.915 9.68927C126.133 9.81507 126.293 10.0217 126.359 10.2642L126.789 11.8701H126.79Z" fill="white"/>
<path d="M138.074 8.86015C138.138 9.10348 138.103 9.36229 137.977 9.58011C137.85 9.79794 137.642 9.95711 137.398 10.0229L133.484 11.0659C133.24 11.1305 132.98 11.0963 132.761 10.9708C132.542 10.8452 132.383 10.6385 132.317 10.3959L131.887 8.78999C131.822 8.54688 131.857 8.28829 131.984 8.07062C132.11 7.85295 132.318 7.69388 132.561 7.62809L136.477 6.58341C136.721 6.51928 136.981 6.5538 137.199 6.67945C137.418 6.8051 137.578 7.0117 137.644 7.2542L138.074 8.86015Z" fill="white"/>
<path d="M149.356 5.85008C149.42 6.09308 149.386 6.35157 149.259 6.56921C149.133 6.78686 148.926 6.94601 148.682 7.01198L144.766 8.05666C144.522 8.12056 144.262 8.08593 144.044 7.96031C143.825 7.8347 143.665 7.62825 143.599 7.38587L143.169 5.78078C143.104 5.53768 143.139 5.27908 143.265 5.06129C143.392 4.84351 143.599 4.68419 143.843 4.61803L147.758 3.57336C148.002 3.50878 148.262 3.54322 148.481 3.66911C148.7 3.795 148.86 4.00209 148.925 4.245L149.356 5.85008Z" fill="white"/>
<path d="M125.149 50.7003C125.213 50.9433 125.178 51.2018 125.052 51.4193C124.925 51.6369 124.718 51.7958 124.474 51.8614L120.558 52.906C120.314 52.9702 120.054 52.9357 119.835 52.81C119.617 52.6843 119.457 52.4778 119.39 52.2353L118.961 50.6293C118.896 50.3864 118.931 50.1279 119.057 49.9104C119.183 49.6928 119.391 49.5338 119.635 49.4683L123.549 48.4227C123.793 48.3583 124.053 48.3927 124.272 48.5184C124.491 48.6441 124.651 48.8508 124.717 49.0935L125.147 50.7003H125.149Z" fill="white"/>
<path d="M136.43 47.6894C136.495 47.9323 136.461 48.191 136.335 48.4088C136.208 48.6266 136.001 48.7858 135.757 48.8513L131.841 49.896C131.597 49.9601 131.337 49.9257 131.119 49.8003C130.9 49.6748 130.74 49.4684 130.674 49.2261L130.244 47.6193C130.179 47.3763 130.214 47.1178 130.34 46.9001C130.467 46.6825 130.674 46.5233 130.918 46.4574L134.834 45.4136C135.078 45.3492 135.338 45.3836 135.556 45.5093C135.775 45.635 135.935 45.8417 136.001 46.0843L136.431 47.6894H136.43Z" fill="white"/>
<path d="M147.713 44.6787C147.778 44.9218 147.744 45.1805 147.617 45.3983C147.491 45.6162 147.283 45.7755 147.04 45.8414L143.124 46.8861C142.88 46.9505 142.62 46.9161 142.402 46.7904C142.183 46.6647 142.023 46.4579 141.957 46.2153L141.527 44.6102C141.463 44.3672 141.497 44.1085 141.623 43.8906C141.749 43.6728 141.957 43.5134 142.2 43.4475L146.117 42.4028C146.361 42.3387 146.621 42.3733 146.839 42.4992C147.058 42.625 147.218 42.8318 147.284 43.0744L147.713 44.6795V44.6787Z" fill="white"/>
<path d="M158.996 41.6696C159.061 41.9125 159.026 42.1711 158.9 42.3889C158.774 42.6066 158.567 42.7658 158.323 42.8315L154.407 43.8762C154.162 43.9403 153.903 43.9058 153.684 43.7802C153.465 43.6546 153.305 43.448 153.239 43.2054L152.809 41.5994C152.744 41.3566 152.779 41.0981 152.905 40.8804C153.031 40.6627 153.238 40.5035 153.482 40.4375L157.398 39.3929C157.642 39.3293 157.901 39.3642 158.12 39.49C158.338 39.6157 158.497 39.8222 158.564 40.0645L158.996 41.6696Z" fill="white"/>
<path fill-rule="evenodd" clip-rule="evenodd" d="M185.946 79.5278C185.274 78.9567 184.415 78.6495 183.531 78.6636C181.286 78.6636 179.141 80.4715 178.745 82.708C178.326 85.0677 179.916 86.9757 182.287 86.9757C184.534 86.9757 186.679 85.1679 187.074 82.9305L189.533 69.0553C189.688 68.1758 190.55 67.4562 191.447 67.4562H196.213C196.384 67.4562 196.548 67.3886 196.669 67.2683C196.789 67.1479 196.857 66.9847 196.857 66.8145C196.857 66.6444 196.789 66.4811 196.669 66.3608C196.548 66.2405 196.384 66.1729 196.213 66.1729H191.447C189.955 66.1729 188.525 67.3707 188.267 68.8337L185.809 82.708C185.518 84.3542 183.945 85.6923 182.291 85.6923C180.762 85.6923 179.748 84.4534 180.018 82.9313C180.31 81.2852 181.883 79.947 183.537 79.947C184.11 79.9344 184.668 80.1299 185.107 80.4972C185.171 80.5527 185.245 80.5951 185.325 80.622C185.406 80.649 185.491 80.6598 185.575 80.654C185.66 80.6481 185.742 80.6257 185.818 80.588C185.894 80.5503 185.962 80.4981 186.018 80.4343C186.073 80.3705 186.115 80.2965 186.142 80.2164C186.169 80.1362 186.18 80.0516 186.174 79.9674C186.167 79.8832 186.145 79.801 186.107 79.7256C186.068 79.6501 186.016 79.5829 185.952 79.5278H185.946Z" fill="#6599FF"/>
<path fill-rule="evenodd" clip-rule="evenodd" d="M198.543 79.4611C197.88 78.9326 197.054 78.6506 196.205 78.6636C193.959 78.6636 191.814 80.4715 191.416 82.708C191 85.0686 192.589 86.9758 194.96 86.9758C197.206 86.9758 199.351 85.1679 199.748 82.9314C199.775 82.7648 199.735 82.5942 199.637 82.4564C199.539 82.3187 199.391 82.225 199.224 82.1957C199.057 82.1663 198.885 82.2036 198.745 82.2995C198.606 82.3954 198.51 82.5422 198.478 82.708C198.186 84.3542 196.613 85.6924 194.96 85.6924C193.431 85.6924 192.417 84.4535 192.686 82.9305C192.978 81.2852 194.551 79.947 196.204 79.947C196.756 79.9357 197.294 80.1156 197.727 80.4561C197.86 80.5637 198.03 80.6144 198.2 80.5972C198.37 80.5799 198.526 80.4961 198.634 80.3641C198.742 80.2322 198.793 80.0629 198.776 79.8936C198.759 79.7242 198.674 79.5686 198.542 79.4611H198.543Z" fill="#6599FF"/>
<path fill-rule="evenodd" clip-rule="evenodd" d="M200.427 78.6832L202.898 64.7294C203.178 63.1431 202.086 61.8461 200.467 61.8461H190.801C189.308 61.8461 187.875 63.0439 187.616 64.5061C187.59 64.6721 187.631 64.8416 187.729 64.9783C187.827 65.1149 187.975 65.2077 188.141 65.2369C188.308 65.266 188.479 65.2291 188.618 65.134C188.757 65.039 188.853 64.8934 188.886 64.7286C189.041 63.849 189.903 63.1295 190.801 63.1295H200.467C201.24 63.1295 201.763 63.7489 201.629 64.507L199.158 78.4599C199.142 78.5434 199.143 78.6292 199.161 78.7123C199.178 78.7954 199.212 78.8741 199.261 78.944C199.309 79.0139 199.371 79.0736 199.443 79.1195C199.515 79.1654 199.595 79.1966 199.679 79.2114C199.763 79.2262 199.849 79.2242 199.933 79.2056C200.016 79.187 200.094 79.1521 200.164 79.1029C200.234 79.0538 200.293 78.9914 200.338 78.9194C200.383 78.8473 200.414 78.7671 200.427 78.6832V78.6832Z" fill="#6599FF"/>
<path fill-rule="evenodd" clip-rule="evenodd" d="M214.431 59.1347C213.93 58.4111 213.181 57.8941 212.324 57.6802C210.154 57.1018 207.612 58.2962 206.648 60.3539C205.63 62.5263 206.67 64.7782 208.959 65.3891C211.13 65.9683 213.672 64.7739 214.636 62.7154L220.617 49.9465C220.996 49.1363 222.016 48.6631 222.883 48.8941L227.486 50.1228C227.567 50.1446 227.653 50.1502 227.737 50.1393C227.821 50.1283 227.901 50.101 227.975 50.0589C228.048 50.0168 228.112 49.9607 228.164 49.8939C228.216 49.827 228.253 49.7507 228.275 49.6693C228.297 49.5879 228.303 49.503 228.292 49.4194C228.281 49.3359 228.254 49.2553 228.211 49.1822C228.169 49.1092 228.113 49.0452 228.045 48.9939C227.978 48.9425 227.902 48.9049 227.82 48.883L223.216 47.6544C221.775 47.2702 220.079 48.0574 219.448 49.4041L213.467 62.1729C212.758 63.6882 210.889 64.5754 209.294 64.1493C207.817 63.7558 207.16 62.297 207.816 60.8981C208.525 59.3837 210.395 58.4956 211.991 58.9217C212.548 59.0573 213.037 59.3899 213.366 59.8577C213.413 59.9275 213.474 59.9873 213.544 60.0337C213.615 60.0801 213.694 60.1123 213.777 60.1283C213.86 60.1443 213.945 60.1439 214.028 60.127C214.111 60.1102 214.19 60.0772 214.26 60.0301C214.33 59.983 214.39 59.9225 214.437 59.8523C214.483 59.782 214.516 59.7033 214.532 59.6207C214.548 59.538 214.547 59.453 214.53 59.3705C214.513 59.288 214.48 59.2096 214.433 59.1399L214.431 59.1347Z" fill="#6599FF"/>
<path fill-rule="evenodd" clip-rule="evenodd" d="M226.615 62.3159C226.112 61.6366 225.388 61.1526 224.565 60.947C222.395 60.3686 219.853 61.5621 218.888 63.6198C217.872 65.7922 218.911 68.0441 221.202 68.6559C223.372 69.2342 225.913 68.0398 226.874 65.9821C226.912 65.9055 226.934 65.822 226.939 65.7367C226.945 65.6514 226.933 65.5659 226.904 65.4852C226.876 65.4045 226.831 65.3303 226.774 65.2669C226.716 65.2036 226.646 65.1523 226.569 65.1162C226.491 65.08 226.406 65.0597 226.321 65.0565C226.235 65.0532 226.149 65.067 226.069 65.0972C225.988 65.1273 225.915 65.1731 225.853 65.232C225.79 65.2908 225.74 65.3614 225.706 65.4397C224.996 66.9541 223.128 67.8422 221.533 67.4161C220.055 67.0217 219.397 65.5637 220.054 64.1648C220.763 62.6504 222.632 61.7632 224.229 62.1893C224.764 62.3202 225.237 62.6327 225.567 63.0731C225.615 63.1444 225.677 63.2053 225.749 63.2521C225.822 63.299 225.903 63.3309 225.988 63.346C226.073 63.3611 226.16 63.359 226.244 63.3399C226.329 63.3208 226.408 63.285 226.478 63.2347C226.548 63.1844 226.607 63.1206 226.652 63.0472C226.697 62.9737 226.726 62.892 226.739 62.8069C226.751 62.7218 226.746 62.6352 226.725 62.552C226.703 62.4688 226.664 62.3909 226.612 62.3228L226.615 62.3159Z" fill="#6599FF"/>
<path fill-rule="evenodd" clip-rule="evenodd" d="M228.638 62.0533L234.654 49.2108C235.336 47.7512 234.619 46.2162 233.056 45.7996L223.718 43.3098C222.276 42.9248 220.58 43.7119 219.95 45.0586C219.877 45.2129 219.87 45.3894 219.928 45.5493C219.987 45.7092 220.107 45.8394 220.262 45.9112C220.417 45.983 220.594 45.9906 220.755 45.9323C220.916 45.874 221.046 45.7545 221.118 45.6002C221.498 44.7908 222.517 44.3168 223.385 44.5495L232.721 47.0393C233.468 47.2387 233.812 47.9719 233.485 48.665L227.469 61.5057C227.431 61.5823 227.409 61.6658 227.404 61.7511C227.399 61.8365 227.411 61.922 227.439 62.0026C227.467 62.0833 227.512 62.1575 227.569 62.2209C227.627 62.2843 227.697 62.3355 227.775 62.3717C227.852 62.4078 227.937 62.4281 228.023 62.4314C228.108 62.4346 228.194 62.4208 228.274 62.3907C228.355 62.3605 228.428 62.3147 228.491 62.2559C228.553 62.1971 228.603 62.1264 228.637 62.0481L228.638 62.0533Z" fill="#6599FF"/>
<path fill-rule="evenodd" clip-rule="evenodd" d="M194.175 38.9676C193.377 38.5889 192.468 38.5131 191.618 38.7545C189.448 39.3329 187.846 41.6336 188.044 43.8949C188.254 46.2829 190.286 47.716 192.576 47.1051C194.746 46.5267 196.347 44.2261 196.149 41.9647L194.915 27.9287C194.837 27.0389 195.483 26.1209 196.349 25.8899L200.953 24.6638C201.034 24.6419 201.111 24.6043 201.178 24.5529C201.245 24.5016 201.302 24.4376 201.344 24.3646C201.386 24.2916 201.414 24.211 201.425 24.1274C201.436 24.0438 201.43 23.9589 201.408 23.8775C201.386 23.7961 201.348 23.7198 201.297 23.653C201.245 23.5861 201.181 23.53 201.108 23.4879C201.034 23.4458 200.953 23.4185 200.869 23.4076C200.785 23.3966 200.7 23.4022 200.618 23.424L196.015 24.6518C194.574 25.0368 193.501 26.5624 193.631 28.0425L194.865 42.0742C195.011 43.7392 193.839 45.4367 192.243 45.8628C190.766 46.2572 189.464 45.3212 189.329 43.7812C189.183 42.1162 190.355 40.4178 191.951 39.9917C192.502 39.8326 193.091 39.8779 193.611 40.1192C193.687 40.1561 193.77 40.1776 193.854 40.1827C193.939 40.1877 194.023 40.1762 194.103 40.1486C194.183 40.1211 194.257 40.0782 194.32 40.0222C194.384 39.9663 194.435 39.8985 194.472 39.8228C194.509 39.747 194.531 39.6647 194.536 39.5805C194.541 39.4964 194.53 39.4121 194.502 39.3325C194.474 39.2528 194.431 39.1794 194.375 39.1163C194.319 39.0533 194.251 39.0019 194.175 38.965V38.9676Z" fill="#6599FF"/>
<path fill-rule="evenodd" clip-rule="evenodd" d="M206.32 35.6573C205.544 35.3171 204.672 35.2566 203.856 35.4861C201.686 36.0654 200.084 38.3652 200.282 40.6274C200.492 43.0153 202.524 44.4485 204.814 43.8367C206.984 43.2575 208.585 40.9585 208.386 38.6972C208.381 38.6118 208.359 38.5283 208.32 38.4516C208.282 38.3749 208.229 38.3067 208.164 38.2508C208.099 38.1949 208.023 38.1526 207.941 38.1263C207.859 38.0999 207.773 38.0902 207.688 38.0975C207.602 38.1049 207.519 38.1292 207.443 38.1691C207.367 38.209 207.299 38.2636 207.245 38.3298C207.19 38.396 207.15 38.4723 207.125 38.5544C207.101 38.6364 207.093 38.7225 207.102 38.8075C207.249 40.4734 206.078 42.1709 204.48 42.5969C203.003 42.9914 201.702 42.0554 201.566 40.5153C201.42 38.8503 202.591 37.152 204.189 36.7259C204.719 36.5728 205.285 36.6082 205.792 36.826C205.869 36.8605 205.952 36.8796 206.037 36.8821C206.122 36.8846 206.206 36.8704 206.285 36.8405C206.364 36.8105 206.437 36.7654 206.498 36.7075C206.56 36.6497 206.61 36.5803 206.644 36.5034C206.679 36.4265 206.698 36.3436 206.701 36.2593C206.703 36.175 206.689 36.0911 206.659 36.0123C206.629 35.9334 206.583 35.8613 206.525 35.7999C206.467 35.7386 206.398 35.6892 206.32 35.6547V35.6573Z" fill="#6599FF"/>
<path fill-rule="evenodd" clip-rule="evenodd" d="M207.942 34.4176L206.702 20.3003C206.56 18.6969 205.167 17.725 203.604 18.1425L194.267 20.6425C192.825 21.0276 191.752 22.5522 191.883 24.0324C191.888 24.1177 191.911 24.2009 191.949 24.2774C191.987 24.3538 192.041 24.4219 192.106 24.4775C192.171 24.5332 192.247 24.5753 192.328 24.6015C192.41 24.6277 192.496 24.6374 192.582 24.63C192.667 24.6225 192.75 24.5982 192.826 24.5584C192.902 24.5186 192.969 24.464 193.024 24.398C193.078 24.332 193.119 24.2558 193.144 24.1739C193.168 24.092 193.176 24.0061 193.167 23.9212C193.088 23.0305 193.734 22.1142 194.601 21.8823L203.937 19.3908C204.684 19.1915 205.35 19.656 205.417 20.4226L206.658 34.5399C206.664 34.625 206.687 34.7081 206.725 34.7843C206.764 34.8605 206.817 34.9282 206.882 34.9837C206.948 35.0391 207.023 35.081 207.105 35.1071C207.186 35.1331 207.272 35.1426 207.358 35.1352C207.443 35.1277 207.526 35.1034 207.602 35.0637C207.678 35.0239 207.745 34.9695 207.799 34.9037C207.853 34.8378 207.894 34.7618 207.919 34.6801C207.943 34.5984 207.951 34.5126 207.942 34.4278V34.4176Z" fill="#6599FF"/>
<path d="M113.623 162.756L110.4 137.368C110.242 136.124 111.143 135.108 112.402 135.107H139.56L113.623 162.756Z" fill="#316FEA"/>
<path fill-rule="evenodd" clip-rule="evenodd" d="M114.089 161.32L139.093 134.671C139.151 134.609 139.22 134.559 139.297 134.524C139.374 134.489 139.458 134.469 139.542 134.466C139.627 134.463 139.712 134.477 139.791 134.506C139.871 134.536 139.943 134.581 140.005 134.638C140.068 134.696 140.118 134.765 140.153 134.842C140.188 134.918 140.208 135.001 140.211 135.086C140.214 135.17 140.2 135.254 140.171 135.333C140.141 135.412 140.096 135.485 140.038 135.547L114.097 163.196C114.014 163.285 113.906 163.349 113.788 163.379C113.669 163.41 113.544 163.406 113.428 163.368C113.311 163.331 113.208 163.261 113.13 163.167C113.052 163.073 113.002 162.959 112.987 162.838C112.987 162.838 109.764 137.45 109.763 137.45C109.556 135.809 110.745 134.467 112.406 134.466H124.591C124.762 134.466 124.926 134.534 125.047 134.654C125.168 134.774 125.236 134.938 125.236 135.108C125.236 135.278 125.168 135.441 125.047 135.562C124.926 135.682 124.762 135.75 124.591 135.75H112.402C112.206 135.744 112.01 135.782 111.83 135.86C111.65 135.938 111.489 136.055 111.359 136.202C111.229 136.349 111.133 136.522 111.078 136.71C111.022 136.898 111.009 137.096 111.039 137.29L114.089 161.321V161.32Z" fill="#6599FF"/>
<path d="M113.623 162.756H154.366L159.553 133.436H139.793C138.534 133.436 136.887 134.256 136.13 135.26L132.468 140.12H121.1C119.841 140.12 118.582 141.12 118.302 142.344L113.623 162.756Z" fill="#6599FF"/>
<path fill-rule="evenodd" clip-rule="evenodd" d="M153.825 162.116L156.298 148.135C156.328 147.967 156.423 147.818 156.564 147.721C156.704 147.623 156.877 147.585 157.046 147.615C157.214 147.644 157.364 147.739 157.462 147.879C157.56 148.018 157.598 148.191 157.568 148.358L155.001 162.868C154.974 163.017 154.896 163.152 154.78 163.249C154.664 163.346 154.517 163.399 154.365 163.399H113.623C113.452 163.399 113.288 163.331 113.167 163.211C113.046 163.091 112.979 162.927 112.979 162.757C112.979 162.587 113.046 162.424 113.167 162.303C113.288 162.183 113.452 162.116 113.623 162.116H153.825Z" fill="#6599FF"/>
<path fill-rule="evenodd" clip-rule="evenodd" d="M132.145 139.479L135.615 134.876C136.474 133.731 138.356 132.795 139.793 132.795H159.553C159.647 132.795 159.74 132.816 159.826 132.855C159.911 132.895 159.986 132.953 160.047 133.025C160.107 133.096 160.151 133.18 160.175 133.271C160.2 133.361 160.204 133.456 160.188 133.548L158.85 141.11C158.836 141.194 158.806 141.275 158.761 141.348C158.717 141.42 158.657 141.483 158.588 141.533C158.518 141.583 158.439 141.618 158.356 141.637C158.272 141.656 158.185 141.658 158.101 141.643C158.017 141.628 157.936 141.597 157.864 141.551C157.792 141.504 157.73 141.444 157.681 141.374C157.633 141.304 157.599 141.224 157.582 141.141C157.564 141.057 157.564 140.971 157.58 140.887L158.783 134.078H139.791C138.708 134.078 137.292 134.783 136.644 135.644L132.98 140.505C132.92 140.585 132.842 140.65 132.753 140.694C132.663 140.739 132.564 140.762 132.464 140.762H121.1C120.123 140.762 119.147 141.537 118.93 142.484L117.278 149.691C117.261 149.776 117.227 149.855 117.179 149.926C117.131 149.997 117.069 150.058 116.996 150.104C116.924 150.151 116.843 150.183 116.758 150.198C116.674 150.213 116.587 150.211 116.503 150.192C116.419 150.173 116.339 150.137 116.269 150.087C116.2 150.037 116.14 149.973 116.096 149.9C116.051 149.827 116.021 149.746 116.008 149.661C115.996 149.576 116 149.49 116.021 149.407L117.673 142.198C118.017 140.703 119.558 139.478 121.1 139.478L132.145 139.479Z" fill="#6599FF"/>
<path d="M140.709 160.024L141.821 153.74H153.189L152.078 160.024H140.709Z" fill="white"/>
<path d="M165.715 66.6228H106.696V73.9672H165.715V66.6228Z" fill="white"/>
<path fill-rule="evenodd" clip-rule="evenodd" d="M107.341 74.6082V79.4851C107.341 79.6553 107.273 79.8185 107.152 79.9388C107.031 80.0592 106.867 80.1268 106.696 80.1268C106.525 80.1268 106.361 80.0592 106.24 79.9388C106.119 79.8185 106.052 79.6553 106.052 79.4851V73.964C106.052 73.7938 106.119 73.6306 106.24 73.5102C106.361 73.3899 106.525 73.3223 106.696 73.3223H114.72C114.891 73.3223 115.055 73.3899 115.176 73.5102C115.297 73.6306 115.365 73.7938 115.365 73.964C115.365 74.1341 115.297 74.2974 115.176 74.4177C115.055 74.5381 114.891 74.6057 114.72 74.6057L107.341 74.6082Z" fill="#6599FF"/>
<path fill-rule="evenodd" clip-rule="evenodd" d="M107.341 67.4219V73.9664C107.341 74.1366 107.273 74.2998 107.152 74.4201C107.031 74.5405 106.867 74.6081 106.696 74.6081C106.525 74.6081 106.361 74.5405 106.24 74.4201C106.119 74.2998 106.052 74.1366 106.052 73.9664V66.7794C106.052 66.6092 106.119 66.446 106.24 66.3256C106.361 66.2053 106.525 66.1377 106.696 66.1377H132.958C133.129 66.1377 133.292 66.2053 133.413 66.3256C133.534 66.446 133.602 66.6092 133.602 66.7794C133.602 66.9496 133.534 67.1128 133.413 67.2331C133.292 67.3535 133.129 67.4211 132.958 67.4211L107.341 67.4219Z" fill="#6599FF"/>
<path fill-rule="evenodd" clip-rule="evenodd" d="M164.754 67.4221H147.987C147.816 67.4221 147.652 67.3545 147.531 67.2341C147.41 67.1138 147.342 66.9506 147.342 66.7804C147.342 66.6102 147.41 66.447 147.531 66.3266C147.652 66.2063 147.816 66.1387 147.987 66.1387H165.398C165.569 66.1387 165.733 66.2063 165.854 66.3266C165.975 66.447 166.043 66.6102 166.043 66.7804V73.6251C166.043 73.7953 165.975 73.9585 165.854 74.0789C165.733 74.1992 165.569 74.2668 165.398 74.2668C165.227 74.2668 165.063 74.1992 164.943 74.0789C164.822 73.9585 164.754 73.7953 164.754 73.6251V67.4221Z" fill="#6599FF"/>
<path fill-rule="evenodd" clip-rule="evenodd" d="M141.463 123.485V119.609C141.463 119.439 141.531 119.275 141.652 119.155C141.773 119.035 141.937 118.967 142.108 118.967C142.279 118.967 142.443 119.035 142.563 119.155C142.684 119.275 142.752 119.439 142.752 119.609V124.523C142.752 124.632 142.724 124.739 142.67 124.835C142.617 124.93 142.54 125.011 142.446 125.068C142.353 125.126 142.246 125.158 142.136 125.163C142.026 125.168 141.917 125.145 141.819 125.097L130.015 119.22C129.908 119.166 129.818 119.084 129.755 118.983C129.692 118.882 129.658 118.765 129.658 118.645V111.801C129.658 108.73 127.876 104.561 125.554 102.539L114.431 92.7715C114.366 92.7161 114.313 92.6485 114.275 92.5726C114.237 92.4967 114.214 92.414 114.208 92.3293C114.202 92.2446 114.214 92.1595 114.241 92.0791C114.268 91.9987 114.311 91.9245 114.368 91.8609C114.424 91.7972 114.493 91.7453 114.57 91.7081C114.646 91.671 114.73 91.6494 114.815 91.6446C114.9 91.6398 114.985 91.6518 115.066 91.68C115.146 91.7082 115.22 91.7521 115.283 91.809L126.403 101.573C128.968 103.806 130.948 108.408 130.948 111.801V118.248L141.463 123.485Z" fill="#6599FF"/>
<path fill-rule="evenodd" clip-rule="evenodd" d="M165.069 74.6082H136.206C136.035 74.6082 135.871 74.5406 135.751 74.4203C135.63 74.2999 135.562 74.1367 135.562 73.9665C135.562 73.7963 135.63 73.6331 135.751 73.5128C135.871 73.3924 136.035 73.3248 136.206 73.3248H165.716C165.887 73.3248 166.051 73.3924 166.172 73.5128C166.293 73.6331 166.361 73.7963 166.361 73.9665V79.4868C166.361 82.8801 164.41 87.4815 161.847 89.7128L147.269 102.547C144.949 104.569 142.752 108.735 142.752 111.809C142.752 111.979 142.684 112.142 142.564 112.262C142.443 112.383 142.279 112.45 142.108 112.45C141.937 112.45 141.773 112.383 141.652 112.262C141.531 112.142 141.463 111.979 141.463 111.809C141.463 108.418 143.858 103.811 146.418 101.582L160.996 88.7477C163.316 86.726 165.072 82.5558 165.072 79.4851V74.6082H165.069Z" fill="#6599FF"/>
<path d="M55.3576 162.756L52.9572 143.848C52.9246 143.636 52.939 143.42 52.9994 143.215C53.0599 143.009 53.165 142.82 53.3072 142.659C53.4495 142.498 53.6254 142.371 53.8226 142.286C54.0197 142.2 54.2334 142.159 54.4483 142.165H74.6725L55.3567 162.756H55.3576Z" fill="#6599FF"/>
<path fill-rule="evenodd" clip-rule="evenodd" d="M55.0204 154.988L53.5964 143.773C53.5777 143.652 53.5859 143.529 53.6205 143.412C53.655 143.294 53.715 143.186 53.7963 143.094C53.8775 143.003 53.978 142.93 54.0907 142.881C54.2033 142.832 54.3253 142.809 54.4481 142.812H74.6723C74.8432 142.812 75.0072 142.745 75.1281 142.624C75.2489 142.504 75.3168 142.341 75.3168 142.171C75.3168 142.001 75.2489 141.837 75.1281 141.717C75.0072 141.597 74.8432 141.529 74.6723 141.529H54.4481C53.1083 141.529 52.15 142.611 52.3176 143.934L53.7416 155.149C53.7654 155.316 53.8541 155.467 53.9886 155.569C54.1231 155.671 54.2927 155.717 54.4606 155.696C54.6285 155.675 54.7814 155.589 54.8861 155.456C54.9909 155.324 55.0391 155.156 55.0204 154.988V154.988Z" fill="#6599FF"/>
<path d="M55.3573 162.756H85.6941L89.5571 140.924H74.8433C73.9066 140.924 72.6785 141.535 72.1165 142.282L69.3887 145.901H60.9236C59.9869 145.901 59.0493 146.646 58.8405 147.555L55.3564 162.756H55.3573Z" fill="#F0F4FF"/>
<path fill-rule="evenodd" clip-rule="evenodd" d="M88.7897 141.568H74.8434C74.0837 141.568 73.0876 142.062 72.6322 142.668L69.9044 146.288C69.8018 146.424 69.6492 146.514 69.4799 146.538C69.3107 146.562 69.1388 146.518 69.002 146.416C68.8653 146.314 68.7749 146.162 68.7507 145.994C68.7265 145.825 68.7706 145.654 68.8731 145.518C68.8731 145.518 71.6009 141.9 71.6 141.9C72.2686 141.011 73.7287 140.285 74.8434 140.285H89.558C89.6521 140.285 89.745 140.306 89.8303 140.345C89.9156 140.385 89.9911 140.443 90.0516 140.514C90.1121 140.586 90.1561 140.67 90.1806 140.761C90.205 140.851 90.2093 140.946 90.1931 141.038L86.3258 162.87C86.2997 163.019 86.2218 163.153 86.1058 163.25C85.9898 163.347 85.8431 163.401 85.6916 163.401H55.3548C55.1838 163.401 55.0199 163.333 54.899 163.213C54.7781 163.092 54.7102 162.929 54.7102 162.759C54.7102 162.589 54.7781 162.425 54.899 162.305C55.0199 162.185 55.1838 162.117 55.3548 162.117H85.1536L88.7897 141.568V141.568Z" fill="#6599FF"/>
<path d="M75.5259 160.722L76.3535 156.043H84.8185L83.9909 160.723L75.5259 160.722Z" fill="white"/>
<path d="M187.705 162.756L185.305 143.848C185.272 143.636 185.286 143.42 185.347 143.215C185.407 143.009 185.512 142.82 185.655 142.659C185.797 142.498 185.973 142.371 186.17 142.286C186.367 142.2 186.581 142.159 186.796 142.165H207.02L187.704 162.756H187.705Z" fill="#6599FF"/>
<path fill-rule="evenodd" clip-rule="evenodd" d="M187.368 154.988L185.945 143.773C185.926 143.653 185.934 143.529 185.969 143.412C186.003 143.295 186.063 143.186 186.144 143.095C186.225 143.003 186.326 142.93 186.438 142.881C186.551 142.833 186.673 142.809 186.795 142.812H207.02C207.191 142.812 207.355 142.745 207.476 142.624C207.596 142.504 207.664 142.341 207.664 142.171C207.664 142.001 207.596 141.837 207.476 141.717C207.355 141.597 207.191 141.529 207.02 141.529H186.795C185.456 141.529 184.497 142.611 184.665 143.934L186.089 155.149C186.113 155.316 186.202 155.467 186.336 155.569C186.471 155.671 186.64 155.717 186.808 155.696C186.976 155.675 187.129 155.589 187.234 155.456C187.338 155.324 187.387 155.156 187.368 154.988V154.988Z" fill="#6599FF"/>
<path d="M187.705 162.756H218.042L221.905 140.924H207.191C206.254 140.924 205.026 141.535 204.464 142.282L201.737 145.901H193.272C192.334 145.901 191.398 146.646 191.188 147.555L187.705 162.756Z" fill="#F0F4FF"/>
<path fill-rule="evenodd" clip-rule="evenodd" d="M221.137 141.568H207.191C206.431 141.568 205.435 142.062 204.98 142.668L202.253 146.288C202.15 146.424 201.998 146.514 201.828 146.538C201.659 146.562 201.487 146.518 201.351 146.416C201.214 146.314 201.123 146.162 201.099 145.994C201.075 145.825 201.119 145.654 201.222 145.518L203.949 141.9C204.617 141.011 206.077 140.285 207.191 140.285H221.906C222 140.285 222.093 140.306 222.178 140.345C222.263 140.385 222.339 140.443 222.399 140.514C222.46 140.586 222.504 140.67 222.528 140.761C222.553 140.851 222.557 140.946 222.541 141.038L218.673 162.87C218.647 163.019 218.569 163.153 218.453 163.25C218.337 163.347 218.191 163.4 218.039 163.401H187.702C187.531 163.401 187.368 163.333 187.247 163.213C187.126 163.092 187.058 162.929 187.058 162.759C187.058 162.589 187.126 162.425 187.247 162.305C187.368 162.185 187.531 162.117 187.702 162.117H217.501L221.137 141.568Z" fill="#6599FF"/>
<path d="M207.874 160.722L208.701 156.043H217.166L216.339 160.723L207.874 160.722Z" fill="white"/>
<path d="M72.1724 96.6439H50.1992V100.751C50.1992 103.158 51.8604 106.423 53.6798 108.007L64.5564 117.558C66.3757 119.142 67.7774 122.408 67.7774 124.814V129.909L76.5665 134.285V124.818C76.5665 122.412 78.2741 119.145 80.09 117.561L90.9434 108.01C92.7627 106.427 94.142 103.161 94.142 100.754V96.6473L72.1724 96.6439Z" fill="#F0F4FF"/>
<path d="M94.1455 91.1758H50.1992V96.6439H94.1455V91.1758Z" fill="white"/>
<path fill-rule="evenodd" clip-rule="evenodd" d="M75.922 133.25V124.818C75.922 124.647 75.9899 124.484 76.1108 124.364C76.2317 124.244 76.3956 124.176 76.5666 124.176C76.7375 124.176 76.9015 124.244 77.0223 124.364C77.1432 124.484 77.2111 124.647 77.2111 124.818V134.288C77.211 134.398 77.1828 134.505 77.1292 134.601C77.0756 134.696 76.9984 134.776 76.905 134.834C76.8115 134.891 76.7048 134.924 76.5951 134.929C76.4854 134.934 76.3761 134.911 76.2778 134.862L67.4887 130.487C67.3817 130.433 67.2916 130.352 67.2286 130.25C67.1656 130.149 67.1322 130.032 67.1321 129.913V124.818C67.1321 122.572 65.8301 119.522 64.1319 118.044C64.1319 118.044 53.2562 108.493 53.2579 108.496C51.3183 106.807 49.5574 103.322 49.5574 100.756V96.649C49.5574 96.4788 49.6253 96.3156 49.7462 96.1953C49.867 96.0749 50.031 96.0073 50.2019 96.0073H66.8029C66.9739 96.0073 67.1378 96.0749 67.2587 96.1953C67.3796 96.3156 67.4475 96.4788 67.4475 96.649C67.4475 96.8192 67.3796 96.9824 67.2587 97.1028C67.1378 97.2231 66.9739 97.2907 66.8029 97.2907H50.8439V100.759C50.8439 103.008 52.4046 106.053 54.1036 107.532L64.9776 117.081C66.9198 118.771 68.4152 122.253 68.4152 124.82V129.519L75.916 133.252L75.922 133.25Z" fill="#6599FF"/>
<path fill-rule="evenodd" clip-rule="evenodd" d="M50.8438 91.5925V96.6405C50.8438 96.8107 50.7759 96.9739 50.655 97.0942C50.5341 97.2146 50.3702 97.2822 50.1992 97.2822C50.0283 97.2822 49.8643 97.2146 49.7435 97.0942C49.6226 96.9739 49.5547 96.8107 49.5547 96.6405V90.9474C49.5547 90.7772 49.6226 90.614 49.7435 90.4936C49.8643 90.3733 50.0283 90.3057 50.1992 90.3057H94.2864C94.4574 90.3057 94.6213 90.3733 94.7422 90.4936C94.8631 90.614 94.931 90.7772 94.931 90.9474V96.5087C94.931 96.6789 94.8631 96.8421 94.7422 96.9625C94.6213 97.0828 94.4574 97.1504 94.2864 97.1504C94.1155 97.1504 93.9515 97.0828 93.8307 96.9625C93.7098 96.8421 93.6419 96.6789 93.6419 96.5087V91.5891L50.8438 91.5925Z" fill="#6599FF"/>
<path fill-rule="evenodd" clip-rule="evenodd" d="M93.5008 97.2857H87.2118C87.0408 97.2857 86.8769 97.2181 86.756 97.0978C86.6351 96.9774 86.5672 96.8142 86.5672 96.644C86.5672 96.4738 86.6351 96.3106 86.756 96.1903C86.8769 96.0699 87.0408 96.0023 87.2118 96.0023H94.1454C94.3163 96.0023 94.4803 96.0699 94.6011 96.1903C94.722 96.3106 94.7899 96.4738 94.7899 96.644V100.751C94.7899 103.318 93.3126 106.8 91.3738 108.488L86.0584 113.166C85.9303 113.278 85.7625 113.336 85.5918 113.325C85.4212 113.315 85.2616 113.237 85.1483 113.11C85.0351 112.982 84.9773 112.815 84.9878 112.645C84.9983 112.475 85.0761 112.317 85.2042 112.204L90.5221 107.524C92.2212 106.046 93.5008 102.996 93.5008 100.751V97.2823V97.2857Z" fill="#6599FF"/>
<path d="M204.516 96.6439H182.547V100.751C182.547 103.158 184.207 106.423 186.027 108.007L196.904 117.558C198.723 119.142 200.124 122.408 200.124 124.814V129.909L208.914 134.285V124.818C208.914 122.412 210.622 119.145 212.438 117.561L223.291 108.01C225.11 106.427 226.49 103.161 226.49 100.754V96.6473L204.516 96.6439Z" fill="#F0F4FF"/>
<path d="M226.494 91.1758H182.548V96.6439H226.494V91.1758Z" fill="white"/>
<path fill-rule="evenodd" clip-rule="evenodd" d="M208.27 133.25V124.818C208.27 124.647 208.337 124.484 208.458 124.364C208.579 124.244 208.743 124.176 208.914 124.176C209.085 124.176 209.249 124.244 209.37 124.364C209.491 124.484 209.559 124.647 209.559 124.818V134.288C209.559 134.398 209.531 134.505 209.477 134.601C209.424 134.696 209.347 134.776 209.253 134.834C209.16 134.891 209.053 134.924 208.943 134.929C208.834 134.934 208.724 134.911 208.626 134.862L199.836 130.487C199.729 130.433 199.639 130.351 199.577 130.25C199.514 130.149 199.48 130.032 199.48 129.913V124.818C199.48 122.572 198.178 119.522 196.479 118.044L185.605 108.496C183.665 106.807 181.904 103.322 181.904 100.756V96.649C181.904 96.4788 181.972 96.3156 182.093 96.1953C182.214 96.0749 182.378 96.0073 182.549 96.0073H199.15C199.321 96.0073 199.485 96.0749 199.605 96.1953C199.726 96.3156 199.794 96.4788 199.794 96.649C199.794 96.8192 199.726 96.9824 199.605 97.1028C199.485 97.2231 199.321 97.2907 199.15 97.2907H183.191V100.759C183.191 103.008 184.752 106.053 186.451 107.532L197.325 117.081C199.267 118.771 200.763 122.253 200.763 124.82V129.519L208.264 133.252L208.27 133.25Z" fill="#6599FF"/>
<path fill-rule="evenodd" clip-rule="evenodd" d="M183.191 91.5925V96.6405C183.191 96.8107 183.124 96.9739 183.003 97.0942C182.882 97.2146 182.718 97.2822 182.547 97.2822C182.376 97.2822 182.212 97.2146 182.091 97.0942C181.97 96.9739 181.902 96.8107 181.902 96.6405V90.9474C181.902 90.7772 181.97 90.614 182.091 90.4936C182.212 90.3733 182.376 90.3057 182.547 90.3057H226.634C226.805 90.3057 226.969 90.3733 227.09 90.4936C227.211 90.614 227.279 90.7772 227.279 90.9474V96.5087C227.279 96.6789 227.211 96.8421 227.09 96.9625C226.969 97.0828 226.805 97.1504 226.634 97.1504C226.463 97.1504 226.299 97.0828 226.178 96.9625C226.057 96.8421 225.99 96.6789 225.99 96.5087V91.5891L183.191 91.5925Z" fill="#6599FF"/>
<path fill-rule="evenodd" clip-rule="evenodd" d="M225.849 97.2857H219.555C219.384 97.2857 219.22 97.2181 219.099 97.0978C218.979 96.9774 218.911 96.8142 218.911 96.644C218.911 96.4738 218.979 96.3106 219.099 96.1903C219.22 96.0699 219.384 96.0023 219.555 96.0023H226.49C226.661 96.0023 226.825 96.0699 226.946 96.1903C227.066 96.3106 227.134 96.4738 227.134 96.644V100.751C227.134 103.318 225.657 106.8 223.718 108.488L218.403 113.166C218.275 113.278 218.107 113.336 217.936 113.325C217.765 113.315 217.606 113.237 217.493 113.11C217.379 112.982 217.322 112.815 217.332 112.645C217.342 112.475 217.42 112.317 217.548 112.204L222.866 107.524C224.565 106.046 225.845 102.996 225.845 100.751V97.2823L225.849 97.2857Z" fill="#6599FF"/>
<path d="M75.4124 78.3719C75.2086 79.1198 74.7157 79.7571 74.0416 80.1446C73.3674 80.532 72.5666 80.6382 71.8141 80.4398L43.7658 72.9577C43.0144 72.755 42.3742 72.2644 41.9849 71.5931C41.5957 70.9219 41.4892 70.1245 41.6887 69.3753L50.5749 36.358C50.7785 35.6099 51.2713 34.9725 51.9455 34.585C52.6197 34.1975 53.4206 34.0915 54.1732 34.2901L82.2231 41.7756C82.9744 41.9784 83.6146 42.4688 84.0039 43.1398C84.3932 43.8108 84.5001 44.6079 84.3011 45.3571L75.415 78.3753L75.4124 78.3719Z" fill="white"/>
<path fill-rule="evenodd" clip-rule="evenodd" d="M44.4518 61.5852L51.1989 36.5232C51.358 35.9394 51.7427 35.4421 52.2689 35.1397C52.7951 34.8374 53.4201 34.7546 54.0074 34.9095L82.0514 42.3917C82.6379 42.5501 83.1377 42.9332 83.4416 43.4572C83.7454 43.9812 83.8286 44.6037 83.673 45.1886L79.5101 60.6569C79.4848 60.7393 79.4764 60.8259 79.4855 60.9116C79.4945 60.9973 79.5208 61.0803 79.5627 61.1556C79.6047 61.231 79.6614 61.2971 79.7296 61.3502C79.7978 61.4032 79.8761 61.4421 79.9596 61.4644C80.0432 61.4867 80.1305 61.492 80.2162 61.48C80.3019 61.468 80.3843 61.4389 80.4585 61.3946C80.5326 61.3502 80.5971 61.2914 80.6479 61.2217C80.6988 61.152 80.7351 61.0728 80.7545 60.9888L84.9183 45.5206C85.1614 44.607 85.0316 43.6348 84.557 42.8162C84.0825 41.9977 83.3019 41.3994 82.3857 41.1519L54.3366 33.6698C53.419 33.428 52.4425 33.5574 51.6204 34.0298C50.7982 34.5022 50.1972 35.2792 49.9485 36.1912L43.2065 61.2532C43.1846 61.3346 43.179 61.4195 43.1901 61.5031C43.2012 61.5866 43.2286 61.6672 43.271 61.7402C43.3133 61.8131 43.3697 61.8771 43.4368 61.9284C43.504 61.9797 43.5807 62.0173 43.6624 62.0391C43.7442 62.0609 43.8295 62.0664 43.9134 62.0554C43.9973 62.0444 44.0782 62.017 44.1515 61.9749C44.2248 61.9328 44.2891 61.8766 44.3406 61.8098C44.3921 61.7429 44.4299 61.6666 44.4518 61.5852Z" fill="#6599FF"/>
<path fill-rule="evenodd" clip-rule="evenodd" d="M76.0354 78.5498C75.7844 79.4587 75.1832 80.2323 74.3625 80.7024C73.5418 81.1724 72.5678 81.301 71.6524 81.0601L43.6042 73.577C42.689 73.3298 41.9091 72.7323 41.4345 71.9149C40.9599 71.0975 40.8291 70.1265 41.0707 69.2135L42.2472 64.8414C42.2691 64.76 42.3069 64.6837 42.3584 64.6169C42.4099 64.55 42.4741 64.4939 42.5474 64.4518C42.6207 64.4096 42.7017 64.3822 42.7856 64.3712C42.8695 64.3602 42.9548 64.3658 43.0366 64.3876C43.1183 64.4094 43.195 64.447 43.2621 64.4983C43.3293 64.5495 43.3857 64.6135 43.428 64.6865C43.4703 64.7595 43.4978 64.84 43.5089 64.9236C43.5199 65.0071 43.5144 65.092 43.4925 65.1734L42.3159 69.5455C42.1604 70.1303 42.2436 70.7527 42.5475 71.2766C42.8513 71.8005 43.3511 72.1834 43.9376 72.3416L71.9867 79.8246C72.5741 79.979 73.199 79.8959 73.7251 79.5935C74.2513 79.291 74.6359 78.7938 74.7952 78.2101V78.2041L77.3812 68.5949C77.4031 68.5135 77.4409 68.4372 77.4924 68.3703C77.5439 68.3035 77.6081 68.2474 77.6814 68.2052C77.7547 68.1631 77.8357 68.1357 77.9196 68.1247C78.0035 68.1137 78.0888 68.1192 78.1705 68.141C78.2523 68.1628 78.329 68.2005 78.3961 68.2517C78.4633 68.303 78.5196 68.367 78.562 68.44C78.6043 68.5129 78.6318 68.5935 78.6429 68.6771C78.6539 68.7606 78.6483 68.8455 78.6265 68.9269L76.0354 78.5378V78.5498V78.5498Z" fill="#6599FF"/>
<path fill-rule="evenodd" clip-rule="evenodd" d="M81.4616 44.5991L53.4126 37.1169L45.7029 65.763L73.7519 73.2452L81.4616 44.5991Z" fill="white"/>
<path d="M72.7113 72.9654L45.7029 65.7604L46.8313 61.568L61.258 53.2756C61.7001 53.023 62.2248 52.9549 62.7171 53.0864C63.2095 53.2179 63.6295 53.5382 63.8852 53.9772L68.3799 61.7246L73.391 70.3661C73.6412 70.802 73.7101 71.3181 73.5831 71.804C73.4561 72.2899 73.1432 72.707 72.7113 72.9662V72.9654Z" fill="#F0F4FF"/>
<path d="M76.6079 62.6306L73.7512 73.24L56.3914 68.6095L72.4853 59.3597C72.9276 59.1069 73.4524 59.0387 73.945 59.17C74.4376 59.3013 74.858 59.6214 75.1142 60.0604L76.6079 62.6306Z" fill="#C9D4FF"/>
<path d="M68.5361 52.8607C68.4163 53.3058 68.4317 53.7763 68.5804 54.2126C68.7291 54.649 69.0044 55.0316 69.3716 55.3122C69.7388 55.5928 70.1813 55.7586 70.6431 55.7888C71.105 55.819 71.5654 55.7122 71.9663 55.4818C72.3672 55.2515 72.6904 54.9079 72.8952 54.4947C73.0999 54.0814 73.177 53.617 73.1166 53.1601C73.0562 52.7033 72.8611 52.2745 72.5559 51.928C72.2508 51.5816 71.8493 51.333 71.4022 51.2137C70.8028 51.0538 70.1641 51.1374 69.6266 51.4463C69.0891 51.7552 68.6969 52.2639 68.5361 52.8607Z" fill="white"/>
<path d="M56.5442 43.7948C57.2764 42.4644 58.856 41.7114 60.3908 42.1204C61.1757 42.3249 61.8597 42.8052 62.3165 43.4726C62.7734 44.1401 62.9722 44.9495 62.8762 45.7515C62.939 45.7652 62.9828 45.8517 63.0481 45.8688C64.2349 46.1845 65.1107 46.9391 65.0548 48.4698L53.9832 45.5171C54.3707 44.0754 55.4441 43.5381 56.5442 43.7948Z" fill="white"/>
</svg>
