<svg width="28" height="28" viewBox="0 0 28 28" fill="none" xmlns="http://www.w3.org/2000/svg">
<path fill-rule="evenodd" clip-rule="evenodd" d="M14 1.84383C20.731 1.84383 26.1875 7.30027 26.1875 14.0314C26.1875 20.7623 20.731 26.2188 14 26.2188C7.26902 26.2188 1.8125 20.7623 1.8125 14.0314C1.8125 7.30027 7.26902 1.84383 14 1.84383Z" fill="#F4F8FF"/>
<g clip-path="url(#clip0)">
<path d="M14 6C13.8071 6 13.6221 6.08027 13.4857 6.22316C13.3493 6.36604 13.2727 6.55983 13.2727 6.7619V9.80952C13.2727 10.0116 13.3493 10.2054 13.4857 10.3483C13.6221 10.4911 13.8071 10.5714 14 10.5714C14.1929 10.5714 14.3778 10.4911 14.5142 10.3483C14.6506 10.2054 14.7273 10.0116 14.7273 9.80952V6.7619C14.7273 6.55983 14.6506 6.36604 14.5142 6.22316C14.3778 6.08027 14.1929 6 14 6Z" fill="#7795CA"/>
<path d="M14 18.9524C13.8071 18.9524 13.6221 19.0326 13.4857 19.1755C13.3493 19.3184 13.2727 19.5122 13.2727 19.7143V21.2381C13.2727 21.4402 13.3493 21.634 13.4857 21.7768C13.6221 21.9197 13.8071 22 14 22C14.1929 22 14.3778 21.9197 14.5142 21.7768C14.6506 21.634 14.7273 21.4402 14.7273 21.2381V19.7143C14.7273 19.5122 14.6506 19.3184 14.5142 19.1755C14.3778 19.0326 14.1929 18.9524 14 18.9524Z" fill="#7795CA"/>
<path d="M21.2727 13.619H18.3636C18.1707 13.619 17.9858 13.6993 17.8494 13.8422C17.713 13.9851 17.6364 14.1789 17.6364 14.3809C17.6364 14.583 17.713 14.7768 17.8494 14.9197C17.9858 15.0626 18.1707 15.1428 18.3636 15.1428H21.2727C21.4656 15.1428 21.6506 15.0626 21.787 14.9197C21.9234 14.7768 22 14.583 22 14.3809C22 14.1789 21.9234 13.9851 21.787 13.8422C21.6506 13.6993 21.4656 13.619 21.2727 13.619Z" fill="#7795CA"/>
<path d="M10.3636 14.3809C10.3636 14.1789 10.287 13.9851 10.1506 13.8422C10.0142 13.6993 9.82925 13.619 9.63636 13.619H6.72727C6.53439 13.619 6.3494 13.6993 6.21301 13.8422C6.07662 13.9851 6 14.1789 6 14.3809C6 14.583 6.07662 14.7768 6.21301 14.9197C6.3494 15.0626 6.53439 15.1428 6.72727 15.1428H9.63636C9.82925 15.1428 10.0142 15.0626 10.1506 14.9197C10.287 14.7768 10.3636 14.583 10.3636 14.3809Z" fill="#7795CA"/>
<path d="M19.6567 8.45486C19.5203 8.31202 19.3353 8.23178 19.1425 8.23178C18.9497 8.23178 18.7647 8.31202 18.6283 8.45486L16.5696 10.6095C16.4332 10.7525 16.3566 10.9463 16.3566 11.1484C16.3566 11.3506 16.4332 11.5444 16.5696 11.6874C16.7061 11.8303 16.8911 11.9106 17.0841 11.9106C17.277 11.9106 17.4621 11.8303 17.5985 11.6874L19.6567 9.53016C19.7924 9.38736 19.8686 9.19404 19.8686 8.99251C19.8686 8.79097 19.7924 8.59765 19.6567 8.45486Z" fill="#7795CA"/>
<path d="M10.4 17.0745L8.3433 19.2318C8.27384 19.302 8.21844 19.3861 8.18032 19.4791C8.14221 19.572 8.12214 19.672 8.1213 19.7732C8.12047 19.8743 8.13887 19.9747 8.17543 20.0683C8.212 20.1619 8.266 20.247 8.33429 20.3185C8.40258 20.3901 8.48378 20.4467 8.57316 20.485C8.66254 20.5233 8.7583 20.5426 8.85487 20.5417C8.95144 20.5408 9.04687 20.5198 9.1356 20.4798C9.22433 20.4399 9.30458 20.3819 9.37167 20.3091L11.4303 18.1524C11.4979 18.0816 11.5515 17.9976 11.588 17.9051C11.6246 17.8127 11.6434 17.7136 11.6434 17.6135C11.6434 17.5134 11.6246 17.4143 11.588 17.3218C11.5515 17.2293 11.4979 17.1453 11.4303 17.0745C11.3628 17.0038 11.2826 16.9476 11.1943 16.9093C11.106 16.871 11.0114 16.8513 10.9159 16.8513C10.8204 16.8513 10.7258 16.871 10.6375 16.9093C10.5492 16.9476 10.469 17.0038 10.4015 17.0745H10.4Z" fill="#7795CA"/>
<path d="M9.37161 8.45487C9.23347 8.32284 9.05208 8.25163 8.86513 8.25602C8.67818 8.26042 8.50003 8.34008 8.36767 8.47848C8.23532 8.61687 8.15894 8.80336 8.15439 8.9992C8.14984 9.19505 8.21748 9.3852 8.34325 9.53017L10.4 11.6853C10.5362 11.8285 10.721 11.9091 10.9139 11.9094C11.1068 11.9097 11.292 11.8298 11.4286 11.6871C11.5652 11.5445 11.6421 11.3508 11.6425 11.1487C11.6428 10.9466 11.5665 10.7527 11.4303 10.6095L9.37161 8.45487Z" fill="#7795CA"/>
</g>
<defs>
<clipPath id="clip0">
<rect width="16" height="16" fill="white" transform="translate(6 6)"/>
</clipPath>
</defs>
</svg>
