<svg width="290" height="218" viewBox="0 0 290 218" fill="none" xmlns="http://www.w3.org/2000/svg">
<path d="M260.942 200.219H241.732V200.364H260.942V200.219Z" fill="#EBEBEB"/>
<path d="M192.108 201.798H187.067V201.943H192.108V201.798Z" fill="#EBEBEB"/>
<path d="M241.153 194.806H230.022V194.952H241.153V194.806Z" fill="#EBEBEB"/>
<path d="M55.477 195.785H30.4268V195.931H55.477V195.785Z" fill="#EBEBEB"/>
<path d="M64.3164 195.785H60.645V195.931H64.3164V195.785Z" fill="#EBEBEB"/>
<path d="M130.587 198.244H76.2524V198.389H130.587V198.244Z" fill="#EBEBEB"/>
<path d="M137.46 164.855H25.4676C24.5903 164.853 23.7494 164.502 23.1296 163.878C22.5097 163.254 22.1616 162.409 22.1616 161.528V3.39077C22.1693 2.51455 22.5208 1.67673 23.1398 1.05931C23.7588 0.441882 24.5953 0.094717 25.4676 0.0932159H137.46C138.338 0.0932159 139.181 0.443705 139.802 1.06758C140.423 1.69146 140.772 2.53761 140.772 3.4199V161.528C140.772 162.41 140.423 163.256 139.802 163.88C139.181 164.504 138.338 164.855 137.46 164.855ZM25.4676 0.209738C24.6287 0.211281 23.8247 0.547105 23.2321 1.1435C22.6395 1.73989 22.3066 2.54812 22.3066 3.39077V161.528C22.3066 162.371 22.6395 163.179 23.2321 163.775C23.8247 164.372 24.6287 164.707 25.4676 164.709H137.46C138.299 164.707 139.104 164.372 139.697 163.776C140.291 163.179 140.625 162.371 140.627 161.528V3.39077C140.625 2.54758 140.291 1.73937 139.697 1.14314C139.104 0.546916 138.299 0.211278 137.46 0.209738H25.4676Z" fill="#EBEBEB"/>
<path d="M262.92 164.785H150.922C150.045 164.783 149.204 164.433 148.584 163.811C147.963 163.188 147.613 162.345 147.61 161.464V3.32086C147.613 2.44005 147.963 1.59629 148.584 0.974002C149.204 0.351719 150.045 0.00153451 150.922 0H262.92C263.797 -1.35149e-06 264.639 0.349689 265.259 0.972304C265.88 1.59492 266.23 2.43958 266.231 3.32086V161.475C266.227 162.355 265.876 163.196 265.255 163.816C264.635 164.437 263.795 164.785 262.92 164.785ZM150.922 0.145652C150.083 0.14565 149.278 0.479995 148.684 1.0753C148.091 1.6706 147.756 2.47821 147.755 3.32086V161.475C147.756 162.318 148.091 163.126 148.684 163.721C149.278 164.316 150.083 164.651 150.922 164.651H262.92C263.759 164.651 264.563 164.316 265.157 163.721C265.751 163.126 266.085 162.318 266.086 161.475V3.32086C266.085 2.47821 265.751 1.6706 265.157 1.0753C264.563 0.479995 263.759 0.14565 262.92 0.145652H150.922Z" fill="#EBEBEB"/>
<path d="M290 190.839H0V190.984H290V190.839Z" fill="#EBEBEB"/>
<path d="M223.497 167.721V14.9614H220.51V167.721H223.497Z" fill="#E8E8E8"/>
<path d="M217.819 158.172L218.631 155.882H224.564L226.194 158.172H217.819Z" fill="#E8E8E8"/>
<path d="M211.178 165.594L212.639 167.243L220.458 176.011H221.055H221.107H222.905H222.958H223.555L222.981 175.371L222.905 175.283L222.006 174.275L221.107 173.267L220.957 173.098L220.458 172.539L213.991 165.274L212.57 163.684H212.384L211.178 165.594Z" fill="#E8E8E8"/>
<path d="M232.829 165.594L231.414 167.185L223.555 176.011H220.458V176.006L221.032 175.365L221.108 175.283L222.007 174.275L222.906 173.267L223.056 173.093L223.555 172.533L230.063 165.233L231.443 163.684H231.623L232.829 165.594Z" fill="#E8E8E8"/>
<path d="M246.987 187.39H245.746L231.826 167.243L230.469 165.286L225.551 158.172L223.967 155.877H226.165C226.44 155.876 226.709 155.945 226.95 156.078C227.19 156.21 227.393 156.401 227.54 156.634L232 163.736L233.207 165.653L246.987 187.39Z" fill="#E8E8E8"/>
<path d="M197.2 187.39L216.659 156.634C216.807 156.402 217.01 156.211 217.25 156.079C217.49 155.947 217.76 155.877 218.034 155.877H220.238L198.673 187.39H197.2Z" fill="#E8E8E8"/>
<path d="M68.9507 167.721L68.9507 14.9614H65.9637L65.9637 167.721H68.9507Z" fill="#E8E8E8"/>
<path d="M63.4111 158.056L64.2231 155.76H70.1565L71.7863 158.056H63.4111Z" fill="#E8E8E8"/>
<path d="M56.7705 165.536L58.2321 167.185L66.0505 175.953H66.6479H66.7001H68.4981H68.5503H69.1477L68.5735 175.307L68.4981 175.225L67.5991 174.217L66.7001 173.209L66.5435 173.04L66.0505 172.481L59.5835 165.216L58.1625 163.625H57.9769L56.7705 165.536Z" fill="#E8E8E8"/>
<path d="M78.4217 165.536L77.0065 167.127L69.1475 175.953H66.0503V175.947L66.6245 175.307L66.6999 175.225L67.5989 174.217L68.4979 173.209L68.6487 173.034L69.1475 172.475L75.6551 165.175L77.0355 163.625H77.2153L78.4217 165.536Z" fill="#E8E8E8"/>
<path d="M92.1796 187.273H90.9442L77.0242 167.127L75.6728 165.169L70.7602 158.056L69.1768 155.76H71.3402C71.6144 155.759 71.8844 155.828 72.1249 155.96C72.3653 156.093 72.5683 156.285 72.7148 156.517L77.2098 163.619L78.4162 165.536L92.1796 187.273Z" fill="#E8E8E8"/>
<path d="M43.0127 187.273L62.4717 156.517C62.6193 156.286 62.8226 156.095 63.0628 155.963C63.3029 155.83 63.5724 155.761 63.8463 155.76H66.0503L44.4859 187.273H43.0127Z" fill="#E8E8E8"/>
<path d="M212.112 19.8203H76.8906V158.918H212.112V19.8203Z" fill="#FAFAFA"/>
<path d="M221.525 16.3538H67.9409V19.3542H221.525V16.3538Z" fill="#E8E8E8"/>
<path d="M212.965 14.9614H75.6147L76.0556 22.3546H213.405L212.965 14.9614Z" fill="#F0F0F0"/>
<path d="M145 218C207.108 218 257.456 215.047 257.456 211.405C257.456 207.762 207.108 204.81 145 204.81C82.8923 204.81 32.5439 207.762 32.5439 211.405C32.5439 215.047 82.8923 218 145 218Z" fill="#F5F5F5"/>
<path d="M164.674 108.854C162.093 117.541 165.938 126.979 164.297 135.887C164.023 137.742 163.326 139.509 162.261 141.049C160.144 143.898 127.681 143.811 125.564 140.962C124.501 139.421 123.804 137.655 123.528 135.8C121.887 126.886 125.732 117.448 123.151 108.767C122.674 107.49 122.322 106.169 122.102 104.823C121.788 101.537 123.842 98.5131 126.162 96.171C128.482 93.8289 131.173 91.749 132.692 88.8301C133.412 87.4552 133.852 85.9171 134.543 84.5596C135.257 83.1651 136.243 81.9289 137.443 80.9242C139.153 79.5145 141.297 78.7444 143.509 78.7452H143.567L144.281 78.7802H144.536C146.474 78.834 148.349 79.4849 149.907 80.6445C151.317 81.7152 152.469 83.0912 153.277 84.6703C153.978 86.0453 154.437 87.5834 155.127 88.935C156.646 91.848 159.349 93.9338 161.658 96.2759C163.966 98.6179 166.037 101.647 165.718 104.933C165.495 106.271 165.145 107.584 164.674 108.854Z" fill="#407BFF"/>
<path opacity="0.7" d="M164.674 108.854C162.093 117.541 165.938 126.979 164.297 135.887C164.023 137.742 163.326 139.509 162.261 141.049C160.144 143.898 127.681 143.811 125.564 140.962C124.501 139.421 123.804 137.655 123.528 135.8C121.887 126.886 125.732 117.448 123.151 108.767C122.674 107.49 122.322 106.169 122.102 104.823C121.788 101.537 123.842 98.5131 126.162 96.171C128.482 93.8289 131.173 91.749 132.692 88.8301C133.412 87.4552 133.852 85.9171 134.543 84.5596C135.257 83.1651 136.243 81.9289 137.443 80.9242C139.153 79.5145 141.297 78.7444 143.509 78.7452H143.567L144.281 78.7802H144.536C146.474 78.834 148.349 79.4849 149.907 80.6445C151.317 81.7152 152.469 83.0912 153.277 84.6703C153.978 86.0453 154.437 87.5834 155.127 88.935C156.646 91.848 159.349 93.9338 161.658 96.2759C163.966 98.6179 166.037 101.647 165.718 104.933C165.495 106.271 165.145 107.584 164.674 108.854Z" fill="white"/>
<path d="M143.202 78.7219L143.138 78.7277V78.7219H143.202Z" fill="#407BFF"/>
<path opacity="0.4" d="M156.507 142.873C155.132 141.486 132.727 141.486 131.347 142.873C129.966 144.259 132.141 133.551 131.347 114.564C130.552 95.5768 136.729 92.1976 136.729 92.1976H151.13C151.13 92.1976 157.29 95.5768 156.507 114.564C155.724 133.551 157.882 144.254 156.507 142.873Z" fill="black"/>
<path d="M137.825 94.6795C137.205 95.5068 136.491 96.7245 136.799 97.6567H142.367L143.138 92.1976H138.869V92.3375C138.72 93.193 138.361 93.9978 137.825 94.6795Z" fill="white"/>
<path d="M150.841 94.6795C151.461 95.5068 152.18 96.7245 151.867 97.6567H146.253L145.528 92.1976H149.797V92.3375C149.946 93.193 150.305 93.9978 150.841 94.6795Z" fill="white"/>
<path d="M156.49 86.3191C156.217 87.8164 155.858 90.4498 156.246 92.5588C156.583 94.3416 152.262 94.3067 148.497 93.9571C145.459 93.6716 142.401 93.6716 139.362 93.9571C135.604 94.3125 131.271 94.3416 131.608 92.5588C132.002 90.4498 131.643 87.8164 131.37 86.3191C131.345 86.1767 131.351 86.0304 131.387 85.8905C131.424 85.7506 131.491 85.6206 131.584 85.5095C131.676 85.3984 131.791 85.309 131.922 85.2476C132.052 85.1862 132.195 85.1542 132.339 85.1539H155.539C155.681 85.1567 155.821 85.1905 155.95 85.2531C156.078 85.3156 156.191 85.4054 156.282 85.5161C156.372 85.6269 156.438 85.7561 156.473 85.8947C156.509 86.0333 156.515 86.1781 156.49 86.3191Z" fill="#407BFF"/>
<path opacity="0.5" d="M156.49 86.3191C156.217 87.8164 155.858 90.4498 156.246 92.5588C156.583 94.3416 152.262 94.3067 148.497 93.9571C145.459 93.6716 142.401 93.6716 139.362 93.9571C135.604 94.3125 131.271 94.3416 131.608 92.5588C132.002 90.4498 131.643 87.8164 131.37 86.3191C131.345 86.1767 131.351 86.0304 131.387 85.8905C131.424 85.7506 131.491 85.6206 131.584 85.5095C131.676 85.3984 131.791 85.309 131.922 85.2476C132.052 85.1862 132.195 85.1542 132.339 85.1539H155.539C155.681 85.1567 155.821 85.1905 155.95 85.2531C156.078 85.3156 156.191 85.4054 156.282 85.5161C156.372 85.6269 156.438 85.7561 156.473 85.8947C156.509 86.0333 156.515 86.1781 156.49 86.3191Z" fill="white"/>
<path d="M137.611 86.6454C137.402 86.8665 137.255 87.1402 137.188 87.4377C137.156 87.5871 137.173 87.7429 137.237 87.8816C137.3 88.0203 137.407 88.1344 137.541 88.2068C137.694 88.2506 137.856 88.2515 138.01 88.2094C138.163 88.1673 138.302 88.0838 138.411 87.9679C139.212 87.2921 139.444 86.1618 139.624 85.1248C139.624 85.1248 138.684 85.62 138.609 85.7074C138.243 85.9826 137.908 86.2971 137.611 86.6454Z" fill="#263238"/>
<path d="M151.572 105.399C144.71 104.595 139.896 104.776 133.012 105.586H132.907C132.474 105.659 132.059 105.818 131.687 106.052C131.314 106.287 130.991 106.593 130.737 106.952C130.482 107.312 130.3 107.719 130.202 108.149C130.104 108.579 130.091 109.025 130.164 109.46C132.108 121.313 133.012 133.314 132.867 145.326L157.754 144.859C157.928 133.143 158.914 115.304 158.056 109.851C159.28 106.973 153.973 105.807 151.572 105.399Z" fill="#407BFF"/>
<path opacity="0.4" d="M151.572 105.399C144.71 104.595 139.896 104.776 133.012 105.586H132.907C132.474 105.659 132.059 105.818 131.687 106.052C131.314 106.287 130.991 106.593 130.737 106.952C130.482 107.312 130.3 107.719 130.202 108.149C130.104 108.579 130.091 109.025 130.164 109.46C132.108 121.313 133.012 133.314 132.867 145.326L157.754 144.859C157.928 133.143 158.914 115.304 158.056 109.851C159.28 106.973 153.973 105.807 151.572 105.399Z" fill="black"/>
<path d="M150.8 108.307C150.8 110.363 151.536 112.03 152.441 112.03C153.346 112.03 154.077 110.363 154.077 108.307C154.077 106.25 153.346 104.59 152.441 104.59C151.536 104.59 150.8 106.256 150.8 108.307Z" fill="#263238"/>
<path d="M135.963 106.501C135.9 106.355 134.554 102.842 136.474 100.139C137.935 98.0703 140.847 97.1206 145.116 97.3071C148.538 97.4644 150.864 98.3791 152.024 100.039C153.416 102.026 152.691 104.38 152.418 105.283L152.389 105.388L151.032 104.963L151.067 104.852C151.304 104.083 151.855 102.277 150.869 100.861C149.97 99.5851 148.016 98.8685 145.069 98.7403C141.311 98.5713 138.811 99.3229 137.64 100.972C136.166 103.052 137.286 105.953 137.297 105.982L135.963 106.501Z" fill="#263238"/>
<path d="M148.967 108.307C148.967 110.993 149.924 113.166 151.107 113.166C152.291 113.166 153.248 110.993 153.248 108.307C153.248 105.621 152.291 103.454 151.107 103.454C149.924 103.454 148.967 105.627 148.967 108.307Z" fill="#263238"/>
<path d="M140.076 108.307C140.076 110.993 139.119 113.166 137.936 113.166C136.752 113.166 135.801 110.993 135.801 108.307C135.801 105.621 136.758 103.454 137.936 103.454C139.113 103.454 140.076 105.627 140.076 108.307Z" fill="#263238"/>
<path d="M140.076 108.307C140.076 110.993 139.119 113.166 137.936 113.166C136.752 113.166 135.801 110.993 135.801 108.307C135.801 105.621 136.758 103.454 137.936 103.454C139.113 103.454 140.076 105.627 140.076 108.307Z" fill="#263238"/>
<path d="M138.272 108.307C138.272 110.363 137.535 112.03 136.631 112.03C135.726 112.03 134.989 110.363 134.989 108.307C134.989 106.25 135.726 104.59 136.631 104.59C137.535 104.59 138.272 106.256 138.272 108.307Z" fill="#263238"/>
<path d="M138.272 108.307C138.272 110.363 137.535 112.03 136.631 112.03C135.726 112.03 134.989 110.363 134.989 108.307C134.989 106.25 135.726 104.59 136.631 104.59C137.535 104.59 138.272 106.256 138.272 108.307Z" fill="#263238"/>
<g opacity="0.5">
<path opacity="0.5" d="M138.272 108.307C138.272 110.363 137.535 112.03 136.631 112.03C135.726 112.03 134.989 110.363 134.989 108.307C134.989 106.25 135.726 104.59 136.631 104.59C137.535 104.59 138.272 106.256 138.272 108.307Z" fill="white"/>
<path opacity="0.5" d="M138.272 108.307C138.272 110.363 137.535 112.03 136.631 112.03C135.726 112.03 134.989 110.363 134.989 108.307C134.989 106.25 135.726 104.59 136.631 104.59C137.535 104.59 138.272 106.256 138.272 108.307Z" fill="white"/>
</g>
<path d="M150.8 108.307C150.8 110.363 151.536 112.03 152.441 112.03C153.346 112.03 154.077 110.363 154.077 108.307C154.077 106.25 153.346 104.59 152.441 104.59C151.536 104.59 150.8 106.256 150.8 108.307Z" fill="#263238"/>
<path opacity="0.5" d="M150.8 108.307C150.8 110.363 151.536 112.03 152.441 112.03C153.346 112.03 154.077 110.363 154.077 108.307C154.077 106.25 153.346 104.59 152.441 104.59C151.536 104.59 150.8 106.256 150.8 108.307Z" fill="white"/>
<path d="M139.577 105.091C139.345 105.399 141.978 109.28 146.647 109.28C149.825 109.28 148.532 105.137 148.532 105.137C146.212 104.246 145.864 102.609 146.05 100.692C146.097 100.154 146.182 99.6209 146.305 99.0957L142.355 95.8039L139.455 93.3745C140.215 96.6604 141.415 102.446 139.577 105.091Z" fill="#F9BBB2"/>
<path opacity="0.2" d="M142.448 96.9925C142.412 97.498 142.432 98.006 142.506 98.5072C142.692 100.016 144.652 101.583 146.125 101.881C146.175 101.343 146.261 100.81 146.381 100.284L142.448 96.9925Z" fill="black"/>
<path d="M138.435 86.3191C138.908 84.7288 139.991 83.3926 141.445 82.6038C142.899 81.8151 144.605 81.6384 146.189 82.1127C151.055 83.4294 152.761 90.3041 152.401 94.6329C152.328 95.7584 151.949 96.8423 151.307 97.7674C150.665 98.6926 149.783 99.4239 148.757 99.8822C147.731 100.34 146.6 100.508 145.486 100.368C144.372 100.227 143.318 99.7831 142.437 99.084C139.705 96.9633 139.351 94.196 138.348 89.5526C138.095 88.4856 138.125 87.3708 138.435 86.3191Z" fill="#F9BBB2"/>
<path d="M148.973 94.4756C149.013 94.5465 149.074 94.6028 149.148 94.6363C149.222 94.6699 149.305 94.6789 149.385 94.6621C149.449 94.6302 149.502 94.5801 149.538 94.5179C149.574 94.4558 149.592 94.3843 149.588 94.3125C149.599 94.1479 149.556 93.9841 149.466 93.8464C149.402 93.759 149.298 93.6774 149.199 93.7066C148.961 93.7765 148.863 94.2834 148.973 94.4756Z" fill="#263238"/>
<path d="M138.243 91.1373C139.449 90.8343 140.743 92.2267 141.259 93.2871C141.839 94.4523 141.445 95.67 140.134 95.4369C139.122 95.2385 138.217 94.6773 137.588 93.858C136.816 92.8152 137.037 91.4402 138.243 91.1373Z" fill="#F9BBB2"/>
<path d="M146.038 89.0341C146.293 88.97 146.548 89.2555 146.618 89.6167C146.688 89.9779 146.514 90.3333 146.27 90.3624C146.026 90.3915 145.771 90.1061 145.69 89.7215C145.609 89.337 145.783 89.0923 146.038 89.0341Z" fill="#263238"/>
<path d="M150.713 88.3408C150.939 88.3408 151.166 88.568 151.218 88.9234C151.27 89.2788 151.125 89.5351 150.905 89.5875C150.684 89.64 150.458 89.3894 150.406 89.0457C150.354 88.702 150.487 88.3699 150.713 88.3408Z" fill="#263238"/>
<path d="M149.536 92.7278C149.804 92.7857 150.082 92.7828 150.349 92.7193C150.615 92.6558 150.865 92.5333 151.079 92.3607C150.355 91.5411 149.746 90.6256 149.269 89.64L149.536 92.7278Z" fill="#ED847E"/>
<path d="M145.145 88.702C145.27 88.4504 145.453 88.2328 145.679 88.0675C145.905 87.9022 146.168 87.7941 146.444 87.7523C146.477 87.7543 146.509 87.7494 146.539 87.7378C146.57 87.7261 146.597 87.7081 146.62 87.685C146.642 87.6618 146.66 87.634 146.671 87.6034C146.682 87.5729 146.687 87.5403 146.684 87.5079C146.682 87.4755 146.672 87.4439 146.656 87.4155C146.641 87.387 146.619 87.3623 146.593 87.3429C146.567 87.3236 146.537 87.3101 146.506 87.3033C146.474 87.2965 146.441 87.2967 146.41 87.3037C146.059 87.3463 145.725 87.4749 145.435 87.6781C145.146 87.8814 144.911 88.1529 144.751 88.4689C144.721 88.5192 144.712 88.5793 144.726 88.636C144.74 88.6928 144.776 88.7416 144.826 88.7719C144.86 88.7826 144.897 88.7826 144.931 88.7719C144.969 88.7801 145.01 88.778 145.047 88.7657C145.085 88.7534 145.119 88.7315 145.145 88.702Z" fill="#263238"/>
<path d="M151.56 87.8281C151.58 87.8075 151.597 87.783 151.608 87.756C151.619 87.729 151.625 87.7 151.625 87.6708C151.625 87.6415 151.619 87.6125 151.608 87.5855C151.597 87.5585 151.58 87.534 151.56 87.5135C151.302 87.2587 150.988 87.068 150.644 86.9567C150.299 86.8455 149.934 86.8167 149.576 86.8726C149.547 86.8788 149.52 86.8907 149.496 86.9076C149.472 86.9245 149.451 86.946 149.436 86.971C149.42 86.996 149.41 87.0238 149.405 87.053C149.4 87.0821 149.401 87.1119 149.408 87.1406C149.422 87.1984 149.457 87.2487 149.507 87.2812C149.556 87.3137 149.616 87.326 149.675 87.3154C149.962 87.2739 150.256 87.3002 150.532 87.3922C150.807 87.4842 151.058 87.6394 151.264 87.8455C151.291 87.8697 151.324 87.887 151.359 87.8961C151.394 87.9052 151.431 87.9059 151.467 87.898C151.503 87.8832 151.535 87.8591 151.56 87.8281Z" fill="#263238"/>
<path d="M142.442 86.2841C142.442 86.2131 142.425 86.1431 142.394 86.0795C142.362 86.0158 142.317 85.96 142.262 85.9163C142.206 85.8726 142.141 85.8422 142.072 85.8272C142.003 85.8122 141.931 85.813 141.862 85.8297L138.765 86.0045C138.369 86.0298 137.988 86.1668 137.666 86.3997C137.344 86.6326 137.094 86.9519 136.944 87.3212C135.337 91.2305 136.405 94.1144 137.101 95.1805C141.741 102.236 141.074 96.8235 140.465 95.5126C139.183 95.2097 138.411 94.7261 138.098 93.6075C137.901 92.8792 137.86 91.8597 138.417 91.3761C138.644 91.1855 138.919 91.0613 139.212 91.0171C139.504 90.9729 139.803 91.0105 140.076 91.1256C140.006 92.6579 140.656 93.6541 141.584 94.9766C141.584 94.9766 140.482 90.409 141.712 89.8206C142.419 89.4768 142.437 87.4144 142.442 86.2841Z" fill="#263238"/>
<path d="M138.962 82.5322C138.523 82.9516 138.178 83.4611 137.952 84.026C137.726 84.591 137.624 85.1982 137.651 85.8064C137.656 85.942 137.707 86.0718 137.796 86.1735C137.905 86.2553 138.038 86.2966 138.173 86.29C140.511 86.4415 142.856 86.424 145.191 86.2375L143.631 85.2296C144.715 85.7847 145.898 86.1193 147.111 86.2142C148.213 86.3075 149.431 86.2142 150.336 86.7968C151.241 87.3795 151.699 88.5447 152.076 89.5934C152.677 88.3408 153.009 86.975 153.05 85.585C153.08 84.1886 152.608 82.8281 151.722 81.7515C150.575 80.6013 149.043 79.9202 147.424 79.8405C140.424 79.153 138.962 82.5322 138.962 82.5322Z" fill="#263238"/>
<path d="M127.745 109.419C127.304 110.666 126.046 117.576 134.288 127.311C134.966 128.11 137.82 129.677 140.395 127.02C143.498 123.81 144.246 109.827 144.542 107.992C144.838 106.157 145.157 104.094 145.441 102.323C142.361 102.679 142.79 101.106 142.112 100.168C141.422 101.047 138.261 117.436 136.381 120.623C136.439 118.502 133.534 105.679 132.02 105.895C131.041 105.993 130.112 106.38 129.352 107.008C128.591 107.635 128.032 108.474 127.745 109.419Z" fill="#407BFF"/>
<path d="M137.181 118.799C137.402 118.182 137.582 117.506 137.854 116.556L135.61 115.211C135.537 115.182 135.457 115.175 135.381 115.192C135.305 115.208 135.235 115.247 135.18 115.304L133.98 116.545C133.705 116.811 133.513 117.151 133.427 117.524C133.341 117.897 133.363 118.288 133.493 118.648C133.604 118.94 133.785 119.201 134.02 119.408C134.254 119.614 134.535 119.76 134.839 119.833C135.142 119.906 135.458 119.903 135.76 119.826C136.062 119.748 136.341 119.598 136.572 119.388L137.21 118.805L137.181 118.799Z" fill="#F9BBB2"/>
<path d="M154.53 110.159C154.39 110.637 152.331 122.977 152.407 122.72C151.896 123.303 151.334 123.012 150.963 122.901C148.092 122.039 144.461 119.254 141.59 118.392C141.195 118.275 140.702 118.176 140.43 118.473C140.28 118.667 140.194 118.904 140.186 119.149C140.082 119.936 139.653 121.479 139.548 122.249C139.506 122.427 139.52 122.614 139.589 122.785C139.676 122.913 139.796 123.016 139.937 123.082C143.486 125.138 144.878 126.193 148.422 128.255C149.965 129.147 155.121 131.611 156.873 129.956C158.723 128.209 163.624 109.95 156.791 106.973C156.061 106.658 155.707 106.128 154.53 110.159Z" fill="#407BFF"/>
<path d="M150.609 99.1365C150.58 99.2472 150.556 99.3579 150.539 99.4627C150.441 99.9192 150.186 100.326 149.819 100.613C149.452 100.9 148.997 101.047 148.532 101.03H148.3C148.138 101.065 146.688 101.776 145.563 102.323C145.018 102.599 144.394 102.674 143.801 102.534C143.207 102.395 142.681 102.05 142.315 101.56C142.133 101.146 142.051 100.695 142.077 100.243C142.077 100.156 143.869 98.3674 144.977 97.2313C145.219 96.988 145.513 96.8016 145.836 96.6858C146.159 96.5699 146.503 96.5274 146.844 96.5613C147.424 96.6196 148.55 96.6371 149.24 96.707C150.446 96.806 150.852 97.9712 150.609 99.1365Z" fill="#E6A8A1"/>
<path d="M200.86 210.251H89.4129L82.4819 134.367H207.797L200.86 210.251Z" fill="#407BFF"/>
<path d="M209.339 134.308H80.6606V140.42H209.339V134.308Z" fill="#263238"/>
<path opacity="0.2" d="M209.339 134.308H80.6606V140.42H209.339V134.308Z" fill="white"/>
<path d="M162.087 171.677L133.754 155.247V188.106L162.087 171.677Z" fill="white"/>
<path d="M253.872 172.219L254.846 201.442H255.994L256.969 172.219H253.872Z" fill="black"/>
<path d="M251.232 182.1L252.044 179.81H257.978L259.608 182.1H251.232Z" fill="#263238"/>
<path d="M244.592 189.58L246.053 191.229L253.872 200.003H254.469H254.521H256.319H256.372H256.969L256.395 199.357L256.319 199.269L255.42 198.261L254.521 197.253L254.371 197.084L253.872 196.525L247.405 189.26L245.984 187.669H245.798L244.592 189.58Z" fill="#263238"/>
<path d="M266.243 189.58L264.828 191.171L256.969 200.003H253.872V199.997L254.446 199.351L254.521 199.269L255.42 198.261L256.319 197.253L256.47 197.079L256.969 196.525L263.476 189.219L264.857 187.669H265.037L266.243 189.58Z" fill="#263238"/>
<path d="M256.319 194.731V73.4377H254.521V194.731H256.319Z" fill="#263238"/>
<path opacity="0.2" d="M256.319 80.7902H254.521V194.731H256.319V80.7902Z" fill="white"/>
<path d="M280.001 211.323H278.765L264.828 191.188L263.476 189.237L258.552 182.117L256.969 179.828H259.167C259.441 179.825 259.712 179.894 259.952 180.026C260.193 180.159 260.396 180.351 260.542 180.585L265.06 187.693L266.266 189.604L280.001 211.323Z" fill="#263238"/>
<path d="M230.84 211.317L250.299 180.562C250.446 180.33 250.65 180.139 250.89 180.007C251.13 179.874 251.4 179.805 251.673 179.804H253.877L232.313 211.317H230.84Z" fill="#263238"/>
<path d="M258.094 73.4318H252.752V80.7843H258.094V73.4318Z" fill="#263238"/>
<path opacity="0.3" d="M258.094 73.4318H252.752V80.7843H258.094V73.4318Z" fill="white"/>
<path d="M249.458 69.1497L257.764 65.7589C258.918 66.4424 259.83 67.4739 260.368 68.7069C260.869 70.0007 260.886 71.4334 260.414 72.7385L252.474 76.2342L249.458 69.1497Z" fill="#263238"/>
<path opacity="0.5" d="M249.458 69.1497L257.764 65.7589C258.918 66.4424 259.83 67.4739 260.368 68.7069C260.869 70.0007 260.886 71.4334 260.414 72.7385L252.474 76.2342L249.458 69.1497Z" fill="white"/>
<path d="M247.335 107.066C247.335 107.066 258.123 87.1348 251.436 71.6024C249.449 66.9202 246.399 62.7706 242.528 59.4864C238.657 56.2023 234.074 53.8749 229.146 52.691L228.966 52.7493L247.231 107.072L247.335 107.066Z" fill="#263238"/>
<path d="M229.146 52.691L217.065 56.6061L235.149 107.712L247.335 107.072L229.146 52.691Z" fill="#263238"/>
<path opacity="0.8" d="M229.146 52.691L217.065 56.6061L235.149 107.712L247.335 107.072L229.146 52.691Z" fill="white"/>
<path d="M229.784 54.602L220.005 57.8413L236.147 104.252L246.152 103.535L229.784 54.602Z" fill="#407BFF"/>
<path d="M229.784 54.602L220.005 57.8413L236.147 104.252L246.152 103.535L229.784 54.602Z" fill="white"/>
<path d="M256.969 137.758H253.872V194.725H256.969V137.758Z" fill="#263238"/>
<path d="M34.6953 172.219L33.7209 201.442H32.5725L31.5981 172.219H34.6953Z" fill="black"/>
<path d="M37.3342 182.1L36.5164 179.81H30.5888L28.959 182.1H37.3342Z" fill="#263238"/>
<path d="M43.9695 189.58L42.5137 191.229L34.6953 200.003H34.6895H34.0979H34.0457H32.2477H32.1897H31.5981L32.1723 199.357L32.2477 199.269L33.1467 198.261L34.0457 197.253L34.1965 197.084L34.6895 196.525L41.1623 189.26L42.5833 187.669H42.7631L43.9695 189.58Z" fill="#263238"/>
<path d="M22.3184 189.58L23.7336 191.171L31.5984 200.003H34.6956L34.6898 199.997L34.1214 199.351L34.046 199.269L33.147 198.261L32.248 197.253L32.0972 197.079L31.5984 196.525L25.0908 189.219L23.7104 187.669H23.5248L22.3184 189.58Z" fill="#263238"/>
<path d="M34.0459 194.725L34.0459 73.4318H32.2479L32.2479 194.725H34.0459Z" fill="#263238"/>
<path opacity="0.2" d="M34.0456 80.7902H32.2476V194.731H34.0456V80.7902Z" fill="white"/>
<path d="M8.56641 211.323H9.80181L23.7218 191.171L25.079 189.219L30.0032 182.1L31.5866 179.81H29.3826C29.1083 179.808 28.838 179.877 28.5975 180.01C28.357 180.142 28.1541 180.334 28.008 180.567L23.5246 187.693L22.3182 189.604L8.56641 211.323Z" fill="#263238"/>
<path d="M57.7271 211.317L38.2797 180.562C38.1333 180.329 37.9303 180.137 37.6898 180.005C37.4494 179.872 37.1794 179.803 36.9051 179.804H34.6953L56.2597 211.317H57.7271Z" fill="#263238"/>
<path d="M30.4785 80.7843H35.8203V73.4318H30.4785V80.7843Z" fill="#263238"/>
<path opacity="0.3" d="M30.4785 80.7843H35.8203V73.4318H30.4785V80.7843Z" fill="white"/>
<path d="M39.1035 69.1497L30.8037 65.7589C29.6489 66.4424 28.7377 67.4739 28.1995 68.7069C27.698 70.0007 27.6815 71.4334 28.1531 72.7385L36.0933 76.2342L39.1035 69.1497Z" fill="#263238"/>
<path opacity="0.5" d="M39.1035 69.1497L30.8037 65.7589C29.6489 66.4424 28.7377 67.4739 28.1995 68.7069C27.698 70.0007 27.6815 71.4334 28.1531 72.7385L36.0933 76.2342L39.1035 69.1497Z" fill="white"/>
<path d="M41.232 107.066C41.232 107.066 30.444 87.1348 37.1198 71.6024C39.1059 66.9202 42.1567 62.7706 46.0275 59.4864C49.8983 56.2023 54.4814 53.8749 59.4092 52.691L59.5832 52.7493L41.3364 107.072L41.232 107.066Z" fill="#263238"/>
<path d="M59.4207 52.691L71.5021 56.6061L53.4177 107.712L41.2319 107.072L59.4207 52.691Z" fill="#263238"/>
<path opacity="0.8" d="M59.4207 52.691L71.5021 56.6061L53.4177 107.712L41.2319 107.072L59.4207 52.691Z" fill="white"/>
<path d="M58.7768 54.602L68.5614 57.8413L52.42 104.252L42.415 103.535L58.7768 54.602Z" fill="#407BFF"/>
<path d="M58.7768 54.602L68.5614 57.8413L52.42 104.252L42.415 103.535L58.7768 54.602Z" fill="white"/>
<path d="M31.5981 194.731H34.6953L34.6953 137.763H31.5981L31.5981 194.731Z" fill="#263238"/>
<path d="M82.4585 95.6408C82.4573 98.8859 83.4143 102.058 85.2082 104.757C87.0022 107.456 89.5527 109.56 92.537 110.802C95.5213 112.045 98.8055 112.371 101.974 111.738C105.143 111.106 108.054 109.544 110.338 107.25C112.623 104.955 114.179 102.032 114.81 98.8495C115.441 95.6668 115.117 92.3678 113.881 89.3696C112.645 86.3714 110.552 83.8088 107.866 82.0058C105.18 80.2028 102.022 79.2404 98.7913 79.2404C96.6467 79.2397 94.523 79.6633 92.5414 80.4871C90.5599 81.311 88.7593 82.5189 87.2426 84.0419C85.7259 85.5649 84.5227 87.3731 83.7019 89.3633C82.881 91.3535 82.4585 93.4866 82.4585 95.6408ZM87.0985 95.2272C87.0985 92.9065 87.7836 90.6379 89.0671 88.7083C90.3507 86.7787 92.175 85.2747 94.3095 84.3866C96.444 83.4985 98.7927 83.2662 101.059 83.7189C103.325 84.1717 105.406 85.2892 107.04 86.9302C108.673 88.5712 109.786 90.6619 110.236 92.938C110.687 95.2141 110.456 97.5734 109.572 99.7175C108.688 101.862 107.19 103.694 105.269 104.983C103.348 106.273 101.09 106.961 98.7797 106.961C97.2457 106.959 95.727 106.654 94.3104 106.063C92.8937 105.472 91.6069 104.607 90.5232 103.516C89.4396 102.425 88.5805 101.131 87.9948 99.7067C87.4092 98.2825 87.1086 96.7564 87.1101 95.2155L87.0985 95.2272Z" fill="#263238"/>
<g opacity="0.2">
<path opacity="0.2" d="M82.4585 95.6408C82.4573 98.8859 83.4143 102.058 85.2082 104.757C87.0022 107.456 89.5527 109.56 92.537 110.802C95.5213 112.045 98.8055 112.371 101.974 111.738C105.143 111.106 108.054 109.544 110.338 107.25C112.623 104.955 114.179 102.032 114.81 98.8495C115.441 95.6668 115.117 92.3678 113.881 89.3696C112.645 86.3714 110.552 83.8088 107.866 82.0058C105.18 80.2028 102.022 79.2404 98.7913 79.2404C96.6467 79.2397 94.523 79.6633 92.5414 80.4871C90.5599 81.311 88.7593 82.5189 87.2426 84.0419C85.7259 85.5649 84.5227 87.3731 83.7019 89.3633C82.881 91.3535 82.4585 93.4866 82.4585 95.6408ZM87.0985 95.2272C87.0985 92.9065 87.7836 90.6379 89.0671 88.7083C90.3507 86.7787 92.175 85.2747 94.3095 84.3866C96.444 83.4985 98.7927 83.2662 101.059 83.7189C103.325 84.1717 105.406 85.2892 107.04 86.9302C108.673 88.5712 109.786 90.6619 110.236 92.938C110.687 95.2141 110.456 97.5734 109.572 99.7175C108.688 101.862 107.19 103.694 105.269 104.983C103.348 106.273 101.09 106.961 98.7797 106.961C97.2457 106.959 95.727 106.654 94.3104 106.063C92.8937 105.472 91.6069 104.607 90.5232 103.516C89.4396 102.425 88.5805 101.131 87.9948 99.7067C87.4092 98.2825 87.1086 96.7564 87.1101 95.2155L87.0985 95.2272Z" fill="white"/>
</g>
<path d="M101.709 120.25H103.246V118.194H101.709V120.25Z" fill="#263238"/>
<path d="M99.9976 119.755H102.77V118.747H99.9976V119.755Z" fill="#263238"/>
<path d="M95.9784 120.798H94.4414V122.854H95.9784V120.798Z" fill="#263238"/>
<path d="M97.6894 121.351H94.917V122.359H97.6894V121.351Z" fill="#263238"/>
<path d="M102.863 114.482H104.4V112.426H102.863V114.482Z" fill="#263238"/>
<path d="M101.152 113.923H103.924V112.915H101.152V113.923Z" fill="#263238"/>
<path d="M98.1242 141.626H99.9976V118.427H98.1242V141.626Z" fill="black"/>
<path d="M97.3586 127.9H100.862V124.771H97.3586V127.9Z" fill="#263238"/>
<path d="M98.5011 118.194H99.7017V114.447H98.5011V118.194Z" fill="#263238"/>
<path d="M97.6487 123.402H100.549V117.576C100.549 117.187 100.395 116.813 100.121 116.538C99.8465 116.263 99.4747 116.108 99.0871 116.108C98.8951 116.108 98.7051 116.146 98.5278 116.22C98.3504 116.293 98.1893 116.402 98.0536 116.538C97.9179 116.674 97.8102 116.836 97.7367 117.014C97.6633 117.192 97.6255 117.383 97.6255 117.576L97.6487 123.402Z" fill="black"/>
<path d="M96.8423 124.707H101.418V123.402H96.8423V124.707Z" fill="#263238"/>
<path d="M96.8888 115.013H101.337V111.791H96.8888V115.013Z" fill="#263238"/>
<path d="M95.236 134.396H103.605V131.681H95.236V134.396Z" fill="#263238"/>
<path opacity="0.1" d="M95.236 134.396H103.605V131.681H95.236V134.396Z" fill="black"/>
<path d="M100.763 133.971C100.763 133.971 99.2089 130.102 97.5269 133.971L98.1997 215.151C98.1997 215.151 99.3597 216.992 100.09 215.151L100.763 133.971Z" fill="#263238"/>
<path d="M104.04 132.438C104.04 132.438 112.253 186.038 116.22 209.517C116.592 211.696 114.794 212.972 114.19 210.234C113.953 209.156 101.309 133.289 101.309 133.289C101.309 133.289 101.947 129.723 104.04 132.438Z" fill="#263238"/>
<path d="M94.1802 132.438C94.1802 132.438 85.9674 186.038 82.0002 209.517C81.629 211.696 83.427 212.972 84.0302 210.234C84.268 209.156 96.912 133.289 96.912 133.289C96.912 133.289 96.2798 129.723 94.1802 132.438Z" fill="#263238"/>
<path d="M190.24 80.5921C191.108 80.5934 191.967 80.7738 192.763 81.1222L194.283 81.7981C195.332 82.186 196.237 82.8878 196.876 83.8087C197.516 84.7297 197.859 85.8255 197.859 86.9483C197.859 88.0712 197.516 89.167 196.876 90.0879C196.237 91.0089 195.332 91.7107 194.283 92.0986L192.763 92.7686C191.969 93.1237 191.109 93.3083 190.24 93.3104C189.393 93.3362 188.55 93.1909 187.76 92.8832C186.971 92.5755 186.25 92.1116 185.642 91.5191C185.034 90.9266 184.551 90.2175 184.221 89.4339C183.891 88.6502 183.721 87.808 183.721 86.9571C183.721 86.1062 183.891 85.2639 184.221 84.4802C184.551 83.6966 185.034 82.9875 185.642 82.395C186.25 81.8025 186.971 81.3386 187.76 81.0309C188.55 80.7232 189.393 80.578 190.24 80.6037V80.5921Z" fill="#263238"/>
<path opacity="0.2" d="M190.24 80.5921C191.108 80.5934 191.967 80.7738 192.763 81.1222L194.283 81.7981C195.332 82.186 196.237 82.8878 196.876 83.8087C197.516 84.7297 197.859 85.8255 197.859 86.9483C197.859 88.0712 197.516 89.167 196.876 90.0879C196.237 91.0089 195.332 91.7107 194.283 92.0986L192.763 92.7686C191.969 93.1237 191.109 93.3083 190.24 93.3104C189.393 93.3362 188.55 93.1909 187.76 92.8832C186.971 92.5755 186.25 92.1116 185.642 91.5191C185.034 90.9266 184.551 90.2175 184.221 89.4339C183.891 88.6502 183.721 87.808 183.721 86.9571C183.721 86.1062 183.891 85.2639 184.221 84.4802C184.551 83.6966 185.034 82.9875 185.642 82.395C186.25 81.8025 186.971 81.3386 187.76 81.0309C188.55 80.7232 189.393 80.578 190.24 80.6037V80.5921Z" fill="black"/>
<path d="M192.496 82.136H198.778C199.42 82.1135 200.061 82.2213 200.661 82.4528C201.262 82.6844 201.81 83.0351 202.272 83.4839C202.735 83.9327 203.103 84.4705 203.354 85.0652C203.606 85.6599 203.735 86.2993 203.735 86.9454C203.735 87.5914 203.606 88.2309 203.354 88.8256C203.103 89.4203 202.735 89.9581 202.272 90.4069C201.81 90.8557 201.262 91.2064 200.661 91.438C200.061 91.6695 199.42 91.7773 198.778 91.7548H192.496C191.255 91.7114 190.079 91.1857 189.217 90.2885C188.354 89.3913 187.872 88.1927 187.872 86.9454C187.872 85.6981 188.354 84.4995 189.217 83.6023C190.079 82.7051 191.255 82.1794 192.496 82.136Z" fill="#263238"/>
<path opacity="0.2" d="M192.496 82.136H198.778C199.42 82.1135 200.061 82.2213 200.661 82.4528C201.262 82.6844 201.81 83.0351 202.272 83.4839C202.735 83.9327 203.103 84.4705 203.354 85.0652C203.606 85.6599 203.735 86.2993 203.735 86.9454C203.735 87.5914 203.606 88.2309 203.354 88.8256C203.103 89.4203 202.735 89.9581 202.272 90.4069C201.81 90.8557 201.262 91.2064 200.661 91.438C200.061 91.6695 199.42 91.7773 198.778 91.7548H192.496C191.255 91.7114 190.079 91.1857 189.217 90.2885C188.354 89.3913 187.872 88.1927 187.872 86.9454C187.872 85.6981 188.354 84.4995 189.217 83.6023C190.079 82.7051 191.255 82.1794 192.496 82.136Z" fill="white"/>
<path opacity="0.2" d="M194.242 82.136H195.733C195.09 82.1135 194.449 82.2213 193.849 82.4528C193.249 82.6844 192.701 83.0351 192.238 83.4839C191.775 83.9327 191.408 84.4705 191.156 85.0652C190.905 85.6599 190.775 86.2993 190.775 86.9454C190.775 87.5914 190.905 88.2309 191.156 88.8256C191.408 89.4203 191.775 89.9581 192.238 90.4069C192.701 90.8557 193.249 91.2064 193.849 91.438C194.449 91.6695 195.09 91.7773 195.733 91.7548H194.242C193.001 91.7114 191.826 91.1857 190.963 90.2885C190.1 89.3913 189.618 88.1927 189.618 86.9454C189.618 85.6981 190.1 84.4995 190.963 83.6023C191.826 82.7051 193.001 82.1794 194.242 82.136Z" fill="white"/>
<path d="M197.716 77.8596H201.892C202.098 77.86 202.299 77.9232 202.469 78.0407C202.639 78.1582 202.769 78.3246 202.843 78.518L203.823 81.0873H195.732C195.732 81.0873 197.032 77.8596 197.716 77.8596Z" fill="#263238"/>
<path opacity="0.2" d="M199.166 77.8597H201.892C202.098 77.86 202.3 77.9232 202.469 78.0407C202.639 78.1582 202.77 78.3246 202.843 78.518L203.824 81.0873H197.235L198.215 78.518C198.288 78.3241 198.418 78.1573 198.588 78.0397C198.758 77.922 198.96 77.8592 199.166 77.8597Z" fill="white"/>
<path d="M205.268 92.821H192.253C191.637 92.821 191.047 92.5755 190.612 92.1384C190.177 91.7014 189.933 91.1087 189.933 90.4906V82.2642C189.933 81.9551 190.055 81.6588 190.272 81.4402C190.49 81.2217 190.785 81.099 191.093 81.099H206.428C206.736 81.099 207.031 81.2217 207.248 81.4402C207.466 81.6588 207.588 81.9551 207.588 82.2642V90.4906C207.588 91.1087 207.343 91.7014 206.908 92.1384C206.473 92.5755 205.883 92.821 205.268 92.821Z" fill="#263238"/>
<path opacity="0.2" d="M205.268 92.821H195.35C194.735 92.821 194.145 92.5755 193.709 92.1384C193.274 91.7014 193.03 91.1087 193.03 90.4906V82.2642C193.03 81.9551 193.152 81.6588 193.37 81.4402C193.587 81.2217 193.882 81.099 194.19 81.099H206.428C206.736 81.099 207.031 81.2217 207.248 81.4402C207.466 81.6588 207.588 81.9551 207.588 82.2642V90.4906C207.588 91.1087 207.343 91.7014 206.908 92.1384C206.473 92.5755 205.883 92.821 205.268 92.821Z" fill="white"/>
<path d="M199.363 90.3799H206.416C206.736 90.3799 206.996 90.119 206.996 89.7973V84.1926C206.996 83.8708 206.736 83.61 206.416 83.61H199.363C199.043 83.61 198.783 83.8708 198.783 84.1926V89.7973C198.783 90.119 199.043 90.3799 199.363 90.3799Z" fill="#407BFF"/>
<path opacity="0.5" d="M199.363 90.3799H206.416C206.736 90.3799 206.996 90.119 206.996 89.7973V84.1926C206.996 83.8708 206.736 83.61 206.416 83.61H199.363C199.043 83.61 198.783 83.8708 198.783 84.1926V89.7973C198.783 90.119 199.043 90.3799 199.363 90.3799Z" fill="white"/>
<path d="M199.74 80.8892H201.701C202.021 80.8892 202.281 80.6283 202.281 80.3066V79.5842C202.281 79.2624 202.021 79.0015 201.701 79.0015H199.74C199.42 79.0015 199.16 79.2624 199.16 79.5842V80.3066C199.16 80.6283 199.42 80.8892 199.74 80.8892Z" fill="#407BFF"/>
<path opacity="0.5" d="M199.74 80.8892H201.701C202.021 80.8892 202.281 80.6283 202.281 80.3066V79.5842C202.281 79.2624 202.021 79.0015 201.701 79.0015H199.74C199.42 79.0015 199.16 79.2624 199.16 79.5842V80.3066C199.16 80.6283 199.42 80.8892 199.74 80.8892Z" fill="white"/>
<path opacity="0.2" d="M197.873 85.6899H198.783V84.7752H197.873V85.6899Z" fill="white"/>
<path opacity="0.2" d="M197.873 86.7852H198.783V85.8705H197.873V86.7852Z" fill="white"/>
<path opacity="0.2" d="M197.873 87.8746H198.783V86.9599H197.873V87.8746Z" fill="white"/>
<path opacity="0.2" d="M197.873 88.97H198.783V88.0553H197.873V88.97Z" fill="white"/>
<path d="M193.72 86.8493C193.72 87.2342 193.833 87.6104 194.046 87.9304C194.259 88.2504 194.562 88.4998 194.916 88.6471C195.27 88.7944 195.659 88.8329 196.035 88.7578C196.411 88.6827 196.756 88.4974 197.027 88.2253C197.298 87.9531 197.482 87.6064 197.557 87.2289C197.632 86.8514 197.593 86.4602 197.447 86.1046C197.3 85.7491 197.052 85.4451 196.733 85.2313C196.415 85.0175 196.04 84.9034 195.657 84.9034C195.143 84.9034 194.65 85.1084 194.287 85.4733C193.924 85.8382 193.72 86.3332 193.72 86.8493ZM194.532 86.8493C194.531 86.6255 194.596 86.4064 194.719 86.2198C194.841 86.0331 195.017 85.8874 195.222 85.8009C195.428 85.7145 195.654 85.6913 195.873 85.7342C196.092 85.7772 196.293 85.8843 196.45 86.0422C196.608 86.2 196.716 86.4014 196.76 86.6208C196.804 86.8402 196.782 87.0678 196.697 87.2746C196.612 87.4815 196.468 87.6584 196.283 87.7828C196.097 87.9073 195.88 87.9737 195.657 87.9737C195.508 87.9768 195.36 87.95 195.221 87.8949C195.083 87.8398 194.957 87.7575 194.85 87.6527C194.744 87.548 194.659 87.423 194.602 87.285C194.544 87.1471 194.514 86.9989 194.514 86.8493H194.532Z" fill="#263238"/>
<path d="M194.909 86.8493C194.909 87.0409 194.985 87.2246 195.12 87.3601C195.255 87.4956 195.438 87.5717 195.628 87.5717C195.819 87.5717 196.002 87.4956 196.137 87.3601C196.272 87.2246 196.348 87.0409 196.348 86.8493C196.348 86.6577 196.272 86.4739 196.137 86.3384C196.002 86.2029 195.819 86.1268 195.628 86.1268C195.438 86.1268 195.255 86.2029 195.12 86.3384C194.985 86.4739 194.909 86.6577 194.909 86.8493Z" fill="#263238"/>
<path d="M198.047 82.136C198.047 82.2117 198.077 82.2843 198.13 82.3378C198.183 82.3914 198.256 82.4214 198.331 82.4214C198.368 82.4215 198.405 82.414 198.439 82.3996C198.473 82.3852 198.504 82.3641 198.53 82.3375C198.556 82.3109 198.576 82.2794 198.59 82.2448C198.604 82.2102 198.61 82.1732 198.609 82.136C198.61 82.099 198.604 82.0623 198.59 82.028C198.576 81.9937 198.556 81.9626 198.53 81.9365C198.504 81.9103 198.473 81.8898 198.439 81.876C198.404 81.8622 198.368 81.8555 198.331 81.8563C198.294 81.8556 198.257 81.8622 198.223 81.8759C198.188 81.8896 198.157 81.9101 198.13 81.9361C198.104 81.9622 198.083 81.9933 198.069 82.0276C198.054 82.0619 198.047 82.0988 198.047 82.136Z" fill="#407BFF"/>
<path d="M202.095 102.265H203.812V99.9638H202.095V102.265Z" fill="#263238"/>
<path d="M200.175 101.712H203.278V100.581H200.175V101.712Z" fill="#263238"/>
<path d="M195.68 102.883H193.963V105.184H195.68V102.883Z" fill="#263238"/>
<path d="M197.594 103.5H194.491V104.63H197.594V103.5Z" fill="#263238"/>
<path d="M203.383 95.8156H205.1V93.5143H203.383V95.8156Z" fill="#263238"/>
<path d="M201.469 95.1922H204.572V94.0619H201.469V95.1922Z" fill="#263238"/>
<path d="M198.082 124.241H200.175V107.246H198.082V124.241Z" fill="black"/>
<path d="M194.451 124.73H203.806V121.695H194.451V124.73Z" fill="#263238"/>
<path opacity="0.1" d="M194.451 124.73H203.806V121.695H194.451V124.73Z" fill="black"/>
<path d="M200.633 124.253C200.633 124.253 198.893 119.93 197.014 124.253L197.78 215.075C197.78 215.075 199.102 217.138 199.891 215.075L200.633 124.253Z" fill="#263238"/>
<path d="M204.299 122.546C204.299 122.546 213.486 182.502 217.946 208.772C218.358 211.213 216.346 212.634 215.667 209.57C215.406 208.352 201.26 123.495 201.26 123.495C201.26 123.495 201.956 119.528 204.299 122.546Z" fill="#263238"/>
<path d="M193.273 122.546C193.273 122.546 184.08 182.502 179.626 208.772C179.214 211.213 181.221 212.634 181.9 209.57C182.166 208.37 196.307 123.513 196.307 123.513C196.307 123.513 195.611 119.528 193.273 122.546Z" fill="#263238"/>
<path d="M197.229 117.885H201.144V114.389H197.229V117.885Z" fill="#263238"/>
<path d="M197.229 112.571H201.144V109.076H197.229V112.571Z" fill="#263238"/>
<path d="M198.511 99.9696H199.851V95.7806H198.511V99.9696Z" fill="#263238"/>
<path d="M197.548 105.79H200.819V99.2763C200.819 98.8405 200.647 98.4227 200.34 98.1145C200.033 97.8064 199.617 97.6333 199.183 97.6333C198.75 97.6333 198.334 97.8064 198.027 98.1145C197.72 98.4227 197.548 98.8405 197.548 99.2763V105.79Z" fill="black"/>
<path d="M196.643 107.252H201.765V105.796H196.643V107.252Z" fill="#263238"/>
<path d="M196.701 96.4099H201.677V92.8035H196.701V96.4099Z" fill="#263238"/>
</svg>
