<svg width="246" height="187" viewBox="0 0 246 187" fill="none" xmlns="http://www.w3.org/2000/svg">
<g clip-path="url(#clip0_632:1721)">
<path d="M246 164.842H0V164.964H246V164.842Z" fill="#EBEBEB"/>
<path d="M221.351 172.74H205.056V172.862H221.351V172.74Z" fill="#EBEBEB"/>
<path d="M162.961 174.069H158.685V174.192H162.961V174.069Z" fill="#EBEBEB"/>
<path d="M204.564 168.182H195.123V168.305H204.564V168.182Z" fill="#EBEBEB"/>
<path d="M47.06 169.006H25.8105V169.129H47.06V169.006Z" fill="#EBEBEB"/>
<path d="M54.5577 169.006H51.4434V169.129H54.5577V169.006Z" fill="#EBEBEB"/>
<path d="M110.774 171.081H64.6831V171.204H110.774V171.081Z" fill="#EBEBEB"/>
<path d="M116.604 142.963H21.6037C20.8595 142.961 20.1462 142.666 19.6204 142.141C19.0946 141.615 18.7993 140.904 18.7993 140.162V7.01007C18.8058 6.27228 19.104 5.56684 19.629 5.04697C20.1541 4.5271 20.8637 4.23478 21.6037 4.23352H116.604C117.349 4.23352 118.064 4.52863 118.59 5.05394C119.117 5.57924 119.413 6.2917 119.413 7.0346V140.162C119.413 140.905 119.117 141.617 118.59 142.142C118.064 142.668 117.349 142.963 116.604 142.963ZM21.6037 4.33163C20.8921 4.33293 20.2101 4.6157 19.7074 5.11786C19.2047 5.62002 18.9223 6.30055 18.9223 7.01007V140.162C18.9223 140.871 19.2047 141.552 19.7074 142.054C20.2101 142.556 20.8921 142.839 21.6037 142.84H116.604C117.316 142.839 117.999 142.556 118.502 142.054C119.006 141.552 119.289 140.872 119.29 140.162V7.01007C119.289 6.3001 119.006 5.61958 118.502 5.11756C117.999 4.61554 117.316 4.33293 116.604 4.33163H21.6037Z" fill="#EBEBEB"/>
<path d="M223.028 142.963H128.023C127.279 142.961 126.565 142.666 126.038 142.141C125.512 141.616 125.215 140.904 125.214 140.162V7.01007C125.222 6.27184 125.521 5.5664 126.047 5.04666C126.573 4.52693 127.283 4.23477 128.023 4.23352H223.028C223.768 4.23607 224.476 4.52896 225 5.04869C225.524 5.56842 225.821 6.27313 225.828 7.01007V140.162C225.828 140.903 225.533 141.614 225.008 142.139C224.484 142.664 223.772 142.96 223.028 142.963ZM128.023 4.33163C127.311 4.33293 126.629 4.61554 126.125 5.11756C125.622 5.61958 125.338 6.3001 125.337 7.01007V140.162C125.338 140.872 125.622 141.552 126.125 142.054C126.629 142.556 127.311 142.839 128.023 142.84H223.028C223.74 142.839 224.423 142.556 224.926 142.054C225.43 141.552 225.713 140.872 225.715 140.162V7.01007C225.713 6.3001 225.43 5.61958 224.926 5.11756C224.423 4.61554 223.74 4.33293 223.028 4.33163H128.023Z" fill="#EBEBEB"/>
<path d="M42.1298 27.7066C42.145 25.7965 42.6284 23.919 43.5379 22.2378C44.4475 20.5566 45.7556 19.1227 47.3482 18.061C48.9408 16.9993 50.7697 16.342 52.6755 16.1464C54.5812 15.9508 56.506 16.2229 58.2822 16.9389C59.5747 14.2995 61.6581 12.126 64.2439 10.7191C66.8298 9.31209 69.7903 8.74125 72.7158 9.08553C75.6413 9.4298 78.3872 10.6722 80.5734 12.6407C82.7597 14.6093 84.2783 17.2067 84.919 20.0735C88.0755 20.2921 91.024 21.7222 93.1449 24.0633C95.2658 26.4044 96.3938 29.4742 96.2919 32.6273C96.19 35.7804 94.866 38.7713 92.5983 40.9714C90.3307 43.1715 87.2959 44.4093 84.1318 44.4247H45.2196C43.1935 44.4239 41.2318 43.7155 39.6751 42.4227C38.1183 41.1298 37.0649 39.3342 36.6978 37.3475C36.3306 35.3609 36.6729 33.3088 37.6652 31.5476C38.6575 29.7865 40.2372 28.4274 42.1298 27.7066Z" fill="#E0E0E0"/>
<path d="M180.116 123.321C180.128 122.143 180.427 120.986 180.989 119.949C181.551 118.913 182.358 118.029 183.341 117.375C184.323 116.72 185.451 116.315 186.626 116.193C187.801 116.072 188.988 116.239 190.084 116.679C190.88 115.049 192.165 113.706 193.76 112.837C195.356 111.968 197.183 111.615 198.989 111.827C200.795 112.039 202.489 112.807 203.838 114.022C205.187 115.238 206.123 116.842 206.517 118.612C208.474 118.734 210.307 119.611 211.627 121.058C212.946 122.505 213.648 124.408 213.584 126.363C213.52 128.317 212.695 130.17 211.284 131.528C209.873 132.886 207.986 133.643 206.025 133.637H182.04C180.796 133.629 179.593 133.189 178.64 132.392C177.686 131.595 177.041 130.492 176.816 129.272C176.59 128.051 176.798 126.791 177.404 125.708C178.01 124.624 178.976 123.785 180.136 123.336L180.116 123.321Z" fill="#E0E0E0"/>
<path d="M50.2578 101.967C50.2705 99.9634 50.7753 97.9933 51.7282 96.2291C52.681 94.465 54.0529 92.9605 55.7238 91.8472C57.3947 90.734 59.3137 90.0459 61.313 89.8432C63.3123 89.6404 65.331 89.9292 67.1925 90.6842C68.5458 87.9164 70.729 85.6367 73.4395 84.161C76.1499 82.6852 79.2537 82.0864 82.3206 82.4475C85.3876 82.8086 88.2661 84.1117 90.5573 86.1763C92.8485 88.241 94.439 90.965 95.1086 93.971C98.5012 94.0809 101.711 95.5301 104.032 97.9998C106.353 100.469 107.595 103.757 107.485 107.14C107.375 110.523 105.921 113.723 103.444 116.037C100.967 118.351 97.6697 119.59 94.2771 119.48H53.4952C51.3725 119.477 49.3176 118.734 47.6871 117.379C46.0566 116.024 44.9534 114.142 44.5688 112.061C44.1843 109.979 44.5427 107.829 45.5818 105.984C46.621 104.138 48.2753 102.714 50.2578 101.957V101.967Z" fill="#F0F0F0"/>
<path d="M58.74 113.628C58.74 113.994 58.631 114.353 58.4266 114.658C58.2222 114.963 57.9318 115.2 57.592 115.341C57.2521 115.481 56.8782 115.518 56.5174 115.446C56.1567 115.375 55.8253 115.198 55.5652 114.939C55.3051 114.679 55.128 114.349 55.0562 113.989C54.9845 113.63 55.0213 113.257 55.1621 112.918C55.3028 112.579 55.5412 112.29 55.847 112.086C56.1529 111.882 56.5124 111.773 56.8803 111.773C57.3735 111.773 57.8465 111.969 58.1953 112.316C58.5441 112.664 58.74 113.136 58.74 113.628Z" fill="#E6E6E6"/>
<path d="M65.7508 113.628C65.7508 113.994 65.6417 114.353 65.4374 114.658C65.233 114.963 64.9425 115.2 64.6027 115.341C64.2629 115.481 63.8889 115.518 63.5282 115.446C63.1674 115.375 62.8361 115.198 62.576 114.939C62.3159 114.679 62.1387 114.349 62.067 113.989C61.9952 113.63 62.0321 113.257 62.1728 112.918C62.3136 112.579 62.5519 112.29 62.8578 112.086C63.1636 111.882 63.5232 111.773 63.891 111.773C64.3843 111.773 64.8573 111.969 65.2061 112.316C65.5548 112.664 65.7508 113.136 65.7508 113.628Z" fill="white"/>
<path d="M177.464 42.6245C177.476 41.2377 177.828 39.875 178.489 38.6547C179.15 37.4344 180.099 36.3936 181.256 35.6228C182.412 34.852 183.739 34.3746 185.123 34.2321C186.506 34.0895 187.904 34.2862 189.194 34.805C190.139 32.8981 191.653 31.3298 193.529 30.3155C195.404 29.3011 197.548 28.8904 199.667 29.1399C201.786 29.3893 203.775 30.2865 205.362 31.7084C206.949 33.1303 208.055 35.0072 208.529 37.0812C210.878 37.1579 213.1 38.1619 214.706 39.8721C216.313 41.5823 217.172 43.8587 217.095 46.2006C217.018 48.5425 216.011 50.7579 214.296 52.3596C212.581 53.9613 210.297 54.818 207.949 54.7412H179.703C178.232 54.7402 176.808 54.2256 175.678 53.2867C174.549 52.3479 173.784 51.0441 173.518 49.6019C173.252 48.1596 173.501 46.67 174.222 45.3918C174.943 44.1136 176.09 43.1275 177.464 42.6048V42.6245Z" fill="#F5F5F5"/>
<path d="M203.235 50.3458C203.236 50.5839 203.166 50.8169 203.034 51.0153C202.902 51.2137 202.714 51.3685 202.494 51.4601C202.273 51.5517 202.03 51.5759 201.796 51.5297C201.562 51.4835 201.347 51.3689 201.178 51.2005C201.009 51.0321 200.894 50.8175 200.848 50.5839C200.801 50.3503 200.826 50.1083 200.917 49.8885C201.009 49.6687 201.165 49.481 201.363 49.3493C201.562 49.2176 201.796 49.1478 202.035 49.1488C202.353 49.1501 202.658 49.2766 202.882 49.5008C203.107 49.725 203.234 50.0287 203.235 50.3458Z" fill="white"/>
<path d="M207.772 50.3458C207.773 50.5837 207.703 50.8165 207.571 51.0148C207.439 51.2131 207.251 51.3679 207.031 51.4596C206.811 51.5513 206.568 51.5759 206.334 51.53C206.1 51.4842 205.885 51.3701 205.716 51.2023C205.547 51.0344 205.431 50.8202 205.384 50.587C205.337 50.3537 205.361 50.1118 205.452 49.8919C205.543 49.672 205.698 49.484 205.896 49.3517C206.094 49.2194 206.328 49.1488 206.566 49.1488C206.885 49.1488 207.191 49.2748 207.417 49.4991C207.643 49.7234 207.77 50.0279 207.772 50.3458Z" fill="white"/>
<path d="M198.699 50.3458C198.7 50.5839 198.63 50.8169 198.498 51.0153C198.366 51.2137 198.178 51.3685 197.958 51.4601C197.737 51.5517 197.494 51.5759 197.26 51.5297C197.026 51.4835 196.81 51.3689 196.642 51.2005C196.473 51.0321 196.358 50.8175 196.311 50.5839C196.265 50.3503 196.289 50.1083 196.381 49.8885C196.473 49.6687 196.628 49.481 196.827 49.3493C197.026 49.2176 197.26 49.1478 197.499 49.1488C197.817 49.1501 198.121 49.2766 198.346 49.5008C198.571 49.725 198.698 50.0287 198.699 50.3458Z" fill="#E6E6E6"/>
<path d="M123 186.995C175.685 186.995 218.394 184.509 218.394 181.442C218.394 178.375 175.685 175.889 123 175.889C70.3157 175.889 27.6064 178.375 27.6064 181.442C27.6064 184.509 70.3157 186.995 123 186.995Z" fill="#F5F5F5"/>
<path d="M99.1087 25.0478H90.0657C84.3672 25.0471 78.795 26.7222 74.0465 29.8634C69.298 33.0046 65.5842 37.4725 63.3698 42.7078H56.1718C52.8832 42.6616 49.6181 43.2676 46.5663 44.4905C43.5146 45.7134 40.737 47.5288 38.395 49.8313C36.053 52.1337 34.1933 54.8773 32.924 57.9026C31.6546 60.9279 31.001 64.1746 31.001 67.4539C31.001 70.7333 31.6546 73.9799 32.924 77.0052C34.1933 80.0305 36.053 82.7741 38.395 85.0765C40.737 87.379 43.5146 89.1944 46.5663 90.4173C49.6181 91.6402 52.8832 92.2462 56.1718 92.2H99.1087V25.0478Z" fill="#407BFF"/>
<path d="M77.7364 26.436L77.5347 25.9896C78.6682 25.4847 79.8315 25.0489 81.018 24.6848L81.1607 25.1753C79.9951 25.5271 78.8516 25.9481 77.7364 26.436Z" fill="#407BFF"/>
<path d="M66.5039 35.0846L66.1201 34.7755C68.3814 31.9588 71.1268 29.5652 74.2283 27.7066L74.4841 28.1285C71.4312 29.9567 68.729 32.3122 66.5039 35.0846Z" fill="#407BFF"/>
<path opacity="0.2" d="M99.1087 25.0478H90.0657C84.3672 25.0471 78.795 26.7222 74.0465 29.8634C69.298 33.0046 65.5842 37.4725 63.3698 42.7078H56.1718C52.8832 42.6616 49.6181 43.2676 46.5663 44.4905C43.5146 45.7134 40.737 47.5288 38.395 49.8313C36.053 52.1337 34.1933 54.8773 32.924 57.9026C31.6546 60.9279 31.001 64.1746 31.001 67.4539C31.001 70.7333 31.6546 73.9799 32.924 77.0052C34.1933 80.0305 36.053 82.7741 38.395 85.0765C40.737 87.379 43.5146 89.1944 46.5663 90.4173C49.6181 91.6402 52.8832 92.2462 56.1718 92.2H99.1087V25.0478Z" fill="black"/>
<path opacity="0.5" d="M65.0869 39.3082H78.0659L87.6599 30.8069H72.7129C69.6315 33.1093 67.0394 35.999 65.0869 39.3082Z" fill="#407BFF"/>
<path opacity="0.5" d="M35.5916 53.6177C33.8417 56.1943 32.5994 59.0794 31.9312 62.1191H46.7404V53.6177H35.5916Z" fill="#407BFF"/>
<path opacity="0.5" d="M96.3488 27.0296H79.5028C77.7028 27.7309 75.9786 28.6119 74.3564 29.659H86.7548L96.3488 27.0296Z" fill="#407BFF"/>
<path d="M148.515 61.7413C147.282 56.5669 144.41 51.9261 140.325 48.506C136.24 45.0859 131.159 43.0683 125.834 42.7519C123.591 37.4291 119.8 32.8984 114.95 29.7438C110.1 26.5892 104.414 24.9554 98.6237 25.053C92.8339 25.1507 87.2061 26.9753 82.466 30.2917C77.7258 33.608 74.0907 38.264 72.0291 43.6594C68.6164 42.6901 65.0348 42.4618 61.5261 42.9898C58.0173 43.5179 54.6629 44.7901 51.6892 46.7207C48.7155 48.6512 46.1915 51.1951 44.2877 54.1809C42.3839 57.1667 41.1444 60.5248 40.6528 64.0288C40.1613 67.5328 40.4291 71.1012 41.4383 74.4932C42.4475 77.8852 44.1745 81.022 46.5028 83.6919C48.8312 86.3619 51.7068 88.5029 54.9356 89.9706C58.1644 91.4383 61.6713 92.1985 65.2199 92.2H144.265C148.02 92.1967 151.648 90.8401 154.48 88.3802C157.312 85.9203 159.157 82.5228 159.674 78.8138C160.192 75.1048 159.348 71.3342 157.297 68.1969C155.246 65.0595 152.128 62.7669 148.515 61.7413Z" fill="#407BFF"/>
<path opacity="0.2" d="M147.979 63.63L146.862 63.316L146.596 62.1927C145.446 57.4367 142.798 53.1733 139.04 50.0271C135.282 46.8808 130.613 45.0172 125.716 44.7092L124.491 44.6406L123.999 43.5123C121.944 38.617 118.483 34.4376 114.05 31.5009C109.617 28.5642 104.411 27.0016 99.0889 27.01C98.7396 27.01 98.3952 27.01 98.0508 27.01C103.19 27.2021 108.167 28.856 112.394 31.7766C116.621 34.6971 119.922 38.7624 121.908 43.4927L122.4 44.6209L123.625 44.6896C128.522 44.9976 133.191 46.8612 136.949 50.0074C140.707 53.1537 143.355 57.4171 144.505 62.173L144.771 63.2964L145.888 63.6104C149.058 64.4934 151.799 66.4924 153.604 69.2367C155.408 71.9811 156.154 75.2847 155.702 78.5353C155.251 81.7859 153.632 84.763 151.147 86.9148C148.663 89.0666 145.479 90.2472 142.188 90.2378H144.279C147.559 90.2339 150.728 89.0484 153.201 86.8996C155.674 84.7508 157.285 81.7833 157.737 78.5439C158.189 75.3045 157.452 72.0112 155.662 69.2706C153.872 66.5301 151.148 64.5269 147.994 63.63H147.979Z" fill="black"/>
<path d="M145.888 63.63L144.771 63.316L144.506 62.1927C143.355 57.4367 140.707 53.1733 136.949 50.027C133.191 46.8808 128.522 45.0172 123.625 44.7092L122.4 44.6406L121.908 43.5123C119.923 38.782 116.621 34.7167 112.394 31.7962C108.167 28.8756 103.19 27.2217 98.0509 27.0296H98.0164C92.7343 27.2603 87.6345 29.0224 83.3419 32.1C79.0492 35.1776 75.7503 39.4369 73.8494 44.356L73.2098 46.0387L71.473 45.5481L71.3205 45.5089C69.3276 44.9561 67.2686 44.6756 65.2 44.6749C64.8409 44.6749 64.4866 44.6749 64.1275 44.6749C58.1817 44.9757 52.5884 47.578 48.5377 51.9281C44.487 56.2782 42.2987 62.0326 42.4384 67.9669C42.5782 73.9012 45.035 79.5468 49.286 83.7025C53.537 87.8583 59.2467 90.1959 65.2 90.2181H142.188C145.468 90.2143 148.637 89.0288 151.11 86.88C153.583 84.7311 155.194 81.7637 155.646 78.5243C156.098 75.2848 155.361 71.9916 153.571 69.251C151.781 66.5105 149.057 64.5073 145.903 63.6104L145.888 63.63Z" fill="white"/>
<path d="M89.2291 61.0006V80.4757H108.909V61.0006H115.128L99.0691 43.007L83.0103 61.0006H89.2291Z" fill="#407BFF"/>
<path d="M82.7104 105.47H88.8309V115.555C88.8309 116.232 88.5614 116.881 88.0816 117.359C87.6018 117.838 86.9511 118.106 86.2725 118.106H85.2885C84.61 118.106 83.9593 117.838 83.4795 117.359C82.9997 116.881 82.7301 116.232 82.7301 115.555V105.47H82.7104Z" fill="#407BFF"/>
<path opacity="0.2" d="M82.7104 105.47H88.8309V115.555C88.8309 116.232 88.5614 116.881 88.0816 117.359C87.6018 117.838 86.9511 118.106 86.2725 118.106H85.2885C84.61 118.106 83.9593 117.838 83.4795 117.359C82.9997 116.881 82.7301 116.232 82.7301 115.555V105.47H82.7104Z" fill="black"/>
<path d="M79.9795 92.2245H91.571V103.792C91.571 105.072 91.061 106.3 90.153 107.205C89.2451 108.11 88.0137 108.619 86.7297 108.619H84.8208C83.5368 108.619 82.3054 108.11 81.3975 107.205C80.4896 106.3 79.9795 105.072 79.9795 103.792V92.2245Z" fill="#407BFF"/>
<path opacity="0.2" d="M91.5661 95.0992L79.9795 96.8407V92.2H91.5661V95.0992Z" fill="black"/>
<path d="M89.1357 102.453C89.9862 102.453 90.6756 101.765 90.6756 100.917C90.6756 100.069 89.9862 99.3817 89.1357 99.3817C88.2852 99.3817 87.5957 100.069 87.5957 100.917C87.5957 101.765 88.2852 102.453 89.1357 102.453Z" fill="white"/>
<path opacity="0.5" d="M85.0326 102.453C85.8831 102.453 86.5726 101.765 86.5726 100.917C86.5726 100.069 85.8831 99.3817 85.0326 99.3817C84.1821 99.3817 83.4927 100.069 83.4927 100.917C83.4927 101.765 84.1821 102.453 85.0326 102.453Z" fill="white"/>
<path d="M124.368 135.05H98.5625C94.8453 135.045 91.2817 133.57 88.6532 130.949C86.0247 128.329 84.5457 124.776 84.5405 121.069V118.087H87.0005V121.069C87.0057 124.125 88.2255 127.054 90.3927 129.215C92.5599 131.376 95.4977 132.592 98.5625 132.597H124.368V135.05Z" fill="#407BFF"/>
<path d="M184.594 73.5687H142.306C138.763 73.5687 135.891 76.4327 135.891 79.9656V175.045C135.891 178.578 138.763 181.442 142.306 181.442H184.594C188.137 181.442 191.009 178.578 191.009 175.045V79.9656C191.009 76.4327 188.137 73.5687 184.594 73.5687Z" fill="#407BFF"/>
<path opacity="0.2" d="M184.594 73.5687H142.306C138.763 73.5687 135.891 76.4327 135.891 79.9656V175.045C135.891 178.578 138.763 181.442 142.306 181.442H184.594C188.137 181.442 191.009 178.578 191.009 175.045V79.9656C191.009 76.4327 188.137 73.5687 184.594 73.5687Z" fill="black"/>
<path d="M173.071 73.5687H130.783C127.24 73.5687 124.368 76.4327 124.368 79.9656V175.045C124.368 178.578 127.24 181.442 130.783 181.442H173.071C176.614 181.442 179.486 178.578 179.486 175.045V79.9656C179.486 76.4327 176.614 73.5687 173.071 73.5687Z" fill="#407BFF"/>
<path opacity="0.2" d="M177.346 175.05V79.9656C177.346 77.6112 175.432 75.7026 173.071 75.7026H130.783C128.422 75.7026 126.508 77.6112 126.508 79.9656V175.05C126.508 177.404 128.422 179.313 130.783 179.313H173.071C175.432 179.313 177.346 177.404 177.346 175.05Z" fill="black"/>
<path d="M177.346 175.05V79.9656C177.346 77.6112 175.432 75.7026 173.071 75.7026H132.771C130.41 75.7026 128.496 77.6112 128.496 79.9656V175.05C128.496 177.404 130.41 179.313 132.771 179.313H173.071C175.432 179.313 177.346 177.404 177.346 175.05Z" fill="white"/>
<path opacity="0.3" d="M170.69 88.1726H135.148C134.267 88.1688 133.423 87.8181 132.8 87.1971C132.177 86.576 131.826 85.7348 131.822 84.8565C131.824 83.9773 132.175 83.1348 132.798 82.5127C133.422 81.8906 134.266 81.5393 135.148 81.5354H170.69C171.572 81.538 172.418 81.8887 173.042 82.511C173.666 83.1332 174.018 83.9765 174.021 84.8565C174.017 85.7356 173.664 86.5776 173.04 87.1988C172.417 87.82 171.572 88.17 170.69 88.1726Z" fill="#407BFF"/>
<path d="M158.975 85.5775H134.616C134.52 85.5782 134.426 85.56 134.338 85.524C134.249 85.4881 134.169 85.4351 134.101 85.368C134.034 85.301 133.98 85.2213 133.943 85.1335C133.907 85.0457 133.888 84.9515 133.888 84.8564C133.888 84.6638 133.964 84.4792 134.101 84.343C134.238 84.2069 134.423 84.1304 134.616 84.1304H158.975C159.07 84.1304 159.165 84.1492 159.253 84.1857C159.341 84.2223 159.421 84.2758 159.488 84.3433C159.555 84.4108 159.608 84.4909 159.644 84.5789C159.68 84.667 159.699 84.7613 159.698 84.8564C159.698 85.0476 159.622 85.2311 159.486 85.3663C159.351 85.5015 159.167 85.5775 158.975 85.5775Z" fill="white"/>
<path d="M167.767 85.5824C168.169 85.5824 168.495 85.2574 168.495 84.8564C168.495 84.4554 168.169 84.1304 167.767 84.1304C167.365 84.1304 167.039 84.4554 167.039 84.8564C167.039 85.2574 167.365 85.5824 167.767 85.5824Z" fill="#407BFF"/>
<path d="M170.975 85.5824C171.377 85.5824 171.703 85.2574 171.703 84.8564C171.703 84.4554 171.377 84.1304 170.975 84.1304C170.573 84.1304 170.247 84.4554 170.247 84.8564C170.247 85.2574 170.573 85.5824 170.975 85.5824Z" fill="#407BFF"/>
<path d="M164.559 85.5824C164.961 85.5824 165.287 85.2574 165.287 84.8564C165.287 84.4554 164.961 84.1304 164.559 84.1304C164.157 84.1304 163.831 84.4554 163.831 84.8564C163.831 85.2574 164.157 85.5824 164.559 85.5824Z" fill="#407BFF"/>
<path opacity="0.3" d="M170.69 98.8324H135.148C134.266 98.8298 133.422 98.4796 132.799 97.8582C132.176 97.2369 131.824 96.3949 131.822 95.5162C131.824 94.6375 132.176 93.7955 132.799 93.1742C133.422 92.5529 134.266 92.2027 135.148 92.2001H170.69C171.572 92.2027 172.417 92.5527 173.04 93.1739C173.664 93.7951 174.017 94.6371 174.021 95.5162C174.017 96.3954 173.664 97.2373 173.04 97.8585C172.417 98.4797 171.572 98.8298 170.69 98.8324Z" fill="#407BFF"/>
<path d="M158.975 96.2422H134.616C134.423 96.2422 134.238 96.1657 134.101 96.0296C133.964 95.8934 133.888 95.7087 133.888 95.5162C133.888 95.3236 133.964 95.139 134.101 95.0028C134.238 94.8666 134.423 94.7902 134.616 94.7902H158.975C159.167 94.7915 159.351 94.8685 159.486 95.0045C159.622 95.1405 159.698 95.3245 159.698 95.5162C159.698 95.7079 159.622 95.8918 159.486 96.0278C159.351 96.1638 159.167 96.2409 158.975 96.2422Z" fill="white"/>
<path d="M167.767 96.2422C168.169 96.2422 168.495 95.9172 168.495 95.5162C168.495 95.1152 168.169 94.7902 167.767 94.7902C167.365 94.7902 167.039 95.1152 167.039 95.5162C167.039 95.9172 167.365 96.2422 167.767 96.2422Z" fill="#407BFF"/>
<path d="M170.975 96.2422C171.377 96.2422 171.703 95.9172 171.703 95.5162C171.703 95.1152 171.377 94.7902 170.975 94.7902C170.573 94.7902 170.247 95.1152 170.247 95.5162C170.247 95.9172 170.573 96.2422 170.975 96.2422Z" fill="#407BFF"/>
<path opacity="0.3" d="M164.559 96.2422C164.961 96.2422 165.287 95.9172 165.287 95.5162C165.287 95.1152 164.961 94.7902 164.559 94.7902C164.157 94.7902 163.831 95.1152 163.831 95.5162C163.831 95.9172 164.157 96.2422 164.559 96.2422Z" fill="#407BFF"/>
<path opacity="0.3" d="M170.69 109.497H135.148C134.267 109.493 133.423 109.143 132.8 108.522C132.177 107.9 131.826 107.059 131.822 106.181C131.824 105.302 132.175 104.459 132.798 103.837C133.422 103.215 134.266 102.864 135.148 102.86H170.69C171.572 102.862 172.418 103.213 173.042 103.835C173.666 104.458 174.018 105.301 174.021 106.181C174.017 107.06 173.664 107.902 173.04 108.523C172.417 109.144 171.572 109.495 170.69 109.497Z" fill="#407BFF"/>
<path d="M158.975 106.902H134.616C134.52 106.903 134.426 106.885 134.338 106.849C134.249 106.813 134.169 106.76 134.101 106.693C134.034 106.626 133.98 106.546 133.943 106.458C133.907 106.37 133.888 106.276 133.888 106.181C133.888 105.988 133.964 105.804 134.101 105.668C134.238 105.531 134.423 105.455 134.616 105.455H158.975C159.07 105.455 159.165 105.474 159.253 105.51C159.341 105.547 159.421 105.6 159.488 105.668C159.555 105.735 159.608 105.815 159.644 105.903C159.68 105.992 159.699 106.086 159.698 106.181C159.698 106.372 159.622 106.556 159.486 106.691C159.351 106.826 159.167 106.902 158.975 106.902Z" fill="white"/>
<path d="M167.767 106.907C168.169 106.907 168.495 106.582 168.495 106.181C168.495 105.78 168.169 105.455 167.767 105.455C167.365 105.455 167.039 105.78 167.039 106.181C167.039 106.582 167.365 106.907 167.767 106.907Z" fill="#407BFF"/>
<path d="M170.975 106.907C171.377 106.907 171.703 106.582 171.703 106.181C171.703 105.78 171.377 105.455 170.975 105.455C170.573 105.455 170.247 105.78 170.247 106.181C170.247 106.582 170.573 106.907 170.975 106.907Z" fill="#407BFF"/>
<path opacity="0.6" d="M164.559 106.907C164.961 106.907 165.287 106.582 165.287 106.181C165.287 105.78 164.961 105.455 164.559 105.455C164.157 105.455 163.831 105.78 163.831 106.181C163.831 106.582 164.157 106.907 164.559 106.907Z" fill="#407BFF"/>
<path opacity="0.3" d="M170.69 113.525H135.148C133.311 113.525 131.822 115.009 131.822 116.841C131.822 118.672 133.311 120.157 135.148 120.157H170.69C172.527 120.157 174.016 118.672 174.016 116.841C174.016 115.009 172.527 113.525 170.69 113.525Z" fill="#407BFF"/>
<path d="M158.975 117.552H134.616C134.423 117.552 134.238 117.476 134.101 117.339C133.964 117.203 133.888 117.019 133.888 116.826C133.888 116.633 133.964 116.449 134.101 116.313C134.238 116.176 134.423 116.1 134.616 116.1H158.975C159.167 116.101 159.351 116.178 159.486 116.314C159.622 116.45 159.698 116.634 159.698 116.826C159.698 117.018 159.622 117.202 159.486 117.338C159.351 117.474 159.167 117.551 158.975 117.552Z" fill="white"/>
<path d="M167.767 117.572C168.169 117.572 168.495 117.247 168.495 116.846C168.495 116.445 168.169 116.12 167.767 116.12C167.365 116.12 167.039 116.445 167.039 116.846C167.039 117.247 167.365 117.572 167.767 117.572Z" fill="#407BFF"/>
<path opacity="0.3" d="M170.975 117.572C171.377 117.572 171.703 117.247 171.703 116.846C171.703 116.445 171.377 116.12 170.975 116.12C170.573 116.12 170.247 116.445 170.247 116.846C170.247 117.247 170.573 117.572 170.975 117.572Z" fill="#407BFF"/>
<path opacity="0.6" d="M164.559 117.572C164.961 117.572 165.287 117.247 165.287 116.846C165.287 116.445 164.961 116.12 164.559 116.12C164.157 116.12 163.831 116.445 163.831 116.846C163.831 117.247 164.157 117.572 164.559 117.572Z" fill="#407BFF"/>
<path opacity="0.3" d="M170.69 130.822H135.148C134.267 130.818 133.423 130.467 132.8 129.846C132.177 129.225 131.826 128.384 131.822 127.505C131.824 126.626 132.175 125.784 132.798 125.162C133.422 124.54 134.266 124.188 135.148 124.184H170.69C171.572 124.187 172.418 124.538 173.042 125.16C173.666 125.782 174.018 126.625 174.021 127.505C174.017 128.385 173.664 129.227 173.04 129.848C172.417 130.469 171.572 130.819 170.69 130.822Z" fill="#407BFF"/>
<path d="M158.975 128.227H134.616C134.52 128.227 134.426 128.209 134.338 128.173C134.249 128.137 134.169 128.084 134.101 128.017C134.034 127.95 133.98 127.87 133.943 127.782C133.907 127.695 133.888 127.601 133.888 127.505C133.888 127.41 133.907 127.316 133.943 127.228C133.98 127.139 134.033 127.059 134.101 126.992C134.169 126.925 134.249 126.871 134.337 126.835C134.426 126.798 134.52 126.779 134.616 126.779H158.975C159.07 126.779 159.165 126.798 159.253 126.835C159.341 126.871 159.421 126.925 159.488 126.992C159.555 127.06 159.608 127.14 159.644 127.228C159.68 127.316 159.699 127.41 159.698 127.505C159.698 127.697 159.622 127.88 159.486 128.015C159.351 128.151 159.167 128.227 158.975 128.227Z" fill="white"/>
<path d="M167.767 128.231C168.169 128.231 168.495 127.906 168.495 127.505C168.495 127.104 168.169 126.779 167.767 126.779C167.365 126.779 167.039 127.104 167.039 127.505C167.039 127.906 167.365 128.231 167.767 128.231Z" fill="#407BFF"/>
<path opacity="0.6" d="M170.975 128.231C171.377 128.231 171.703 127.906 171.703 127.505C171.703 127.104 171.377 126.779 170.975 126.779C170.573 126.779 170.247 127.104 170.247 127.505C170.247 127.906 170.573 128.231 170.975 128.231Z" fill="#407BFF"/>
<path d="M164.559 128.231C164.961 128.231 165.287 127.906 165.287 127.505C165.287 127.104 164.961 126.779 164.559 126.779C164.157 126.779 163.831 127.104 163.831 127.505C163.831 127.906 164.157 128.231 164.559 128.231Z" fill="#407BFF"/>
<path opacity="0.3" d="M170.69 141.481H135.148C134.266 141.479 133.422 141.128 132.799 140.507C132.176 139.886 131.824 139.044 131.822 138.165C131.824 137.286 132.176 136.444 132.799 135.823C133.422 135.202 134.266 134.852 135.148 134.849H170.69C171.57 134.852 172.413 135.2 173.037 135.819C173.661 136.438 174.014 137.278 174.021 138.155C174.019 139.036 173.668 139.881 173.044 140.504C172.42 141.127 171.573 141.479 170.69 141.481Z" fill="#407BFF"/>
<path d="M158.975 138.891H134.616C134.423 138.891 134.238 138.815 134.101 138.679C133.964 138.542 133.888 138.358 133.888 138.165C133.888 138.07 133.907 137.975 133.943 137.887C133.98 137.799 134.033 137.719 134.101 137.652C134.169 137.584 134.249 137.531 134.337 137.494C134.426 137.458 134.52 137.439 134.616 137.439H158.975C159.167 137.441 159.351 137.518 159.486 137.654C159.622 137.79 159.698 137.974 159.698 138.165C159.698 138.357 159.622 138.541 159.486 138.677C159.351 138.813 159.167 138.89 158.975 138.891Z" fill="white"/>
<path opacity="0.3" d="M167.767 138.896C168.169 138.896 168.495 138.571 168.495 138.17C168.495 137.769 168.169 137.444 167.767 137.444C167.365 137.444 167.039 137.769 167.039 138.17C167.039 138.571 167.365 138.896 167.767 138.896Z" fill="#407BFF"/>
<path d="M170.975 138.896C171.377 138.896 171.703 138.571 171.703 138.17C171.703 137.769 171.377 137.444 170.975 137.444C170.573 137.444 170.247 137.769 170.247 138.17C170.247 138.571 170.573 138.896 170.975 138.896Z" fill="#407BFF"/>
<path d="M164.559 138.896C164.961 138.896 165.287 138.571 165.287 138.17C165.287 137.769 164.961 137.444 164.559 137.444C164.157 137.444 163.831 137.769 163.831 138.17C163.831 138.571 164.157 138.896 164.559 138.896Z" fill="#407BFF"/>
<path opacity="0.3" d="M170.69 152.146H135.148C134.266 152.143 133.422 151.793 132.799 151.172C132.176 150.551 131.824 149.709 131.822 148.83C131.824 147.951 132.175 147.108 132.798 146.486C133.422 145.864 134.266 145.513 135.148 145.509H170.69C171.572 145.511 172.418 145.862 173.042 146.484C173.666 147.107 174.018 147.95 174.021 148.83C174.017 149.709 173.664 150.551 173.04 151.172C172.417 151.793 171.572 152.143 170.69 152.146Z" fill="#407BFF"/>
<path d="M158.975 149.556H134.616C134.423 149.556 134.238 149.479 134.101 149.343C133.964 149.207 133.888 149.022 133.888 148.83C133.888 148.637 133.964 148.453 134.101 148.317C134.238 148.18 134.423 148.104 134.616 148.104H158.975C159.07 148.104 159.165 148.123 159.253 148.159C159.341 148.196 159.421 148.249 159.488 148.317C159.555 148.384 159.608 148.464 159.644 148.552C159.68 148.641 159.699 148.735 159.698 148.83C159.698 149.022 159.622 149.206 159.486 149.342C159.351 149.478 159.167 149.555 158.975 149.556Z" fill="white"/>
<path opacity="0.3" d="M167.767 149.556C168.169 149.556 168.495 149.231 168.495 148.83C168.495 148.429 168.169 148.104 167.767 148.104C167.365 148.104 167.039 148.429 167.039 148.83C167.039 149.231 167.365 149.556 167.767 149.556Z" fill="#407BFF"/>
<path d="M170.975 149.556C171.377 149.556 171.703 149.231 171.703 148.83C171.703 148.429 171.377 148.104 170.975 148.104C170.573 148.104 170.247 148.429 170.247 148.83C170.247 149.231 170.573 149.556 170.975 149.556Z" fill="#407BFF"/>
<path opacity="0.3" d="M164.559 149.556C164.961 149.556 165.287 149.231 165.287 148.83C165.287 148.429 164.961 148.104 164.559 148.104C164.157 148.104 163.831 148.429 163.831 148.83C163.831 149.231 164.157 149.556 164.559 149.556Z" fill="#407BFF"/>
<path opacity="0.3" d="M170.69 156.173H135.148C133.311 156.173 131.822 157.658 131.822 159.49C131.822 161.321 133.311 162.806 135.148 162.806H170.69C172.527 162.806 174.016 161.321 174.016 159.49C174.016 157.658 172.527 156.173 170.69 156.173Z" fill="#407BFF"/>
<path d="M158.975 160.23H134.616C134.52 160.23 134.426 160.212 134.337 160.175C134.249 160.139 134.169 160.085 134.101 160.018C134.033 159.95 133.98 159.87 133.943 159.782C133.907 159.694 133.888 159.6 133.888 159.504C133.888 159.312 133.964 159.127 134.101 158.991C134.238 158.855 134.423 158.778 134.616 158.778H158.975C159.167 158.78 159.351 158.857 159.486 158.993C159.622 159.129 159.698 159.313 159.698 159.504C159.698 159.696 159.622 159.88 159.486 160.016C159.351 160.152 159.167 160.229 158.975 160.23Z" fill="white"/>
<path d="M167.767 160.221C168.169 160.221 168.495 159.896 168.495 159.495C168.495 159.094 168.169 158.769 167.767 158.769C167.365 158.769 167.039 159.094 167.039 159.495C167.039 159.896 167.365 160.221 167.767 160.221Z" fill="#407BFF"/>
<path d="M170.975 160.221C171.377 160.221 171.703 159.896 171.703 159.495C171.703 159.094 171.377 158.769 170.975 158.769C170.573 158.769 170.247 159.094 170.247 159.495C170.247 159.896 170.573 160.221 170.975 160.221Z" fill="#407BFF"/>
<path d="M164.559 160.221C164.961 160.221 165.287 159.896 165.287 159.495C165.287 159.094 164.961 158.769 164.559 158.769C164.157 158.769 163.831 159.094 163.831 159.495C163.831 159.896 164.157 160.221 164.559 160.221Z" fill="#407BFF"/>
<path opacity="0.3" d="M170.69 173.475H135.148C134.266 173.473 133.422 173.123 132.799 172.501C132.176 171.88 131.824 171.038 131.822 170.159C131.824 169.28 132.175 168.438 132.798 167.815C133.422 167.193 134.266 166.842 135.148 166.838H170.69C171.572 166.841 172.418 167.191 173.042 167.814C173.666 168.436 174.018 169.279 174.021 170.159C174.017 171.038 173.664 171.88 173.04 172.502C172.417 173.123 171.572 173.473 170.69 173.475Z" fill="#407BFF"/>
<path d="M158.975 170.88H134.616C134.423 170.88 134.238 170.804 134.101 170.668C133.964 170.532 133.888 170.347 133.888 170.154C133.888 169.962 133.964 169.777 134.101 169.641C134.238 169.505 134.423 169.428 134.616 169.428H158.975C159.07 169.428 159.165 169.447 159.253 169.484C159.341 169.52 159.421 169.574 159.488 169.641C159.555 169.709 159.608 169.789 159.644 169.877C159.68 169.965 159.699 170.059 159.698 170.154C159.698 170.346 159.622 170.53 159.486 170.666C159.351 170.802 159.167 170.879 158.975 170.88Z" fill="white"/>
<path d="M167.767 170.88C168.169 170.88 168.495 170.555 168.495 170.154C168.495 169.753 168.169 169.428 167.767 169.428C167.365 169.428 167.039 169.753 167.039 170.154C167.039 170.555 167.365 170.88 167.767 170.88Z" fill="#407BFF"/>
<path d="M170.975 170.88C171.377 170.88 171.703 170.555 171.703 170.154C171.703 169.753 171.377 169.428 170.975 169.428C170.573 169.428 170.247 169.753 170.247 170.154C170.247 170.555 170.573 170.88 170.975 170.88Z" fill="#407BFF"/>
<path opacity="0.6" d="M164.559 170.88C164.961 170.88 165.287 170.555 165.287 170.154C165.287 169.753 164.961 169.428 164.559 169.428C164.157 169.428 163.831 169.753 163.831 170.154C163.831 170.555 164.157 170.88 164.559 170.88Z" fill="#407BFF"/>
<path opacity="0.2" d="M187.732 95.84H182.763C181.956 95.84 181.302 96.4923 181.302 97.2969V103.419C181.302 104.224 181.956 104.876 182.763 104.876H187.732C188.539 104.876 189.193 104.224 189.193 103.419V97.2969C189.193 96.4923 188.539 95.84 187.732 95.84Z" fill="black"/>
<path d="M129.357 73.0095L134.921 75.423L131.728 79.1365L127.079 77.1252L129.357 73.0095Z" fill="#CE7A63"/>
<path opacity="0.2" d="M129.357 73.0144L134.921 75.423L133.135 77.503L128.078 75.3151L129.357 73.0144Z" fill="black"/>
<path d="M132.442 81.0938L131.817 80.927C131.634 80.8769 131.467 80.7833 131.329 80.6542C131.191 80.5252 131.087 80.3646 131.025 80.1863L130.616 80.358C130.38 80.4574 130.116 80.4747 129.869 80.407L121.362 78.1259C121.474 77.5368 121.738 76.9871 122.129 76.5316C122.129 76.5316 125.923 77.3361 127.049 76.4728C127.09 76.4383 127.14 76.4163 127.194 76.4093C127.247 76.4023 127.301 76.4107 127.349 76.4335C128.033 76.7769 130.715 78.072 132.476 77.9739C132.53 77.9713 132.584 77.9814 132.634 78.0036C132.683 78.0257 132.727 78.0592 132.761 78.1012C132.795 78.1433 132.818 78.1928 132.83 78.2457C132.841 78.2986 132.839 78.3533 132.825 78.4056C132.632 79.2911 132.504 80.1896 132.442 81.0938Z" fill="#263238"/>
<path d="M179.354 55.5457L176.972 60.5199C173.455 67.8783 164.785 71.5623 157.868 68.673C153.829 66.9805 149.415 63.4142 146.414 61.7807C143.846 67.3877 139.034 73.5785 135.359 77.8856L127.92 74.1476C130.7 67.7703 135.024 57.8611 137.76 51.4152C138.248 50.2696 139.052 49.2851 140.077 48.5751C141.103 47.8651 142.308 47.4586 143.556 47.4024C155.925 47.0738 179.354 55.5457 179.354 55.5457Z" fill="#263238"/>
<path d="M143.527 89.2763L148.875 89.0408L147.886 94.8981L143.414 95.0992L143.527 89.2763Z" fill="#CE7A63"/>
<path opacity="0.2" d="M143.526 89.2763L148.874 89.0408L148.471 91.4495L143.477 91.7732L143.526 89.2763Z" fill="black"/>
<path d="M149.937 95.1629L149.322 95.3542C149.141 95.4105 148.949 95.4216 148.763 95.3865C148.577 95.3514 148.402 95.2713 148.254 95.1531L148.004 95.5161C147.856 95.727 147.644 95.8839 147.398 95.9625L138.995 98.5919C138.77 98.0355 138.697 97.4295 138.783 96.8357C138.783 96.8357 142.414 95.4818 142.906 94.1426C142.924 94.0917 142.955 94.0468 142.997 94.0129C143.039 93.9791 143.089 93.9577 143.143 93.9512C143.9 93.8777 146.862 93.5294 148.294 92.5041C148.339 92.4742 148.391 92.4551 148.444 92.4482C148.498 92.4413 148.553 92.4468 148.604 92.4644C148.656 92.4819 148.702 92.511 148.741 92.5493C148.779 92.5877 148.808 92.6343 148.825 92.6856C149.133 93.5379 149.505 94.366 149.937 95.1629Z" fill="#263238"/>
<path d="M182.823 53.5736L182.783 58.8324C182.72 66.5881 176.127 73.5098 168.255 74.0887C163.659 74.4271 157.431 74.5351 153.864 74.4664C153.342 79.8919 151.64 86.2937 149.928 90.9295L142.189 90.3899C141.982 83.8066 141.697 74.4762 141.436 68.2854C141.425 67.0501 141.768 65.8373 142.424 64.7894C143.08 63.7416 144.023 62.902 145.141 62.3693C156.757 56.669 182.823 53.5736 182.823 53.5736Z" fill="#263238"/>
<path opacity="0.1" d="M148.279 90.9982H148.225C148.179 90.9834 148.141 90.9518 148.118 90.9098C148.096 90.8678 148.09 90.8187 148.102 90.7725C149.273 86.9314 151.384 74.957 151.477 69.4627C151.477 69.4366 151.483 69.4108 151.494 69.3871C151.505 69.3634 151.521 69.3423 151.541 69.3254C151.561 69.3089 151.584 69.2965 151.608 69.2889C151.633 69.2813 151.658 69.2787 151.684 69.2812C163 70.7823 170.65 70.2623 173.824 67.8096C179.408 63.478 179.329 56.4728 177.912 52.8182C177.904 52.7956 177.9 52.7716 177.9 52.7475C177.901 52.7234 177.907 52.6997 177.917 52.6778C177.927 52.6559 177.941 52.6362 177.959 52.6198C177.977 52.6035 177.998 52.5909 178.021 52.5827C178.043 52.574 178.067 52.5697 178.091 52.5702C178.115 52.5706 178.138 52.5758 178.16 52.5854C178.182 52.5949 178.202 52.6087 178.218 52.6259C178.235 52.6431 178.248 52.6635 178.257 52.6857C179.733 56.4434 179.797 63.6447 174.05 68.099C170.764 70.645 163.29 71.1748 151.831 69.6737C151.689 75.2807 149.608 87.0688 148.446 90.8755C148.434 90.9102 148.411 90.9403 148.381 90.9621C148.352 90.9839 148.316 90.9965 148.279 90.9982Z" fill="black"/>
<path opacity="0.2" d="M146.124 62.4281C144.795 65.0803 143.257 67.6228 141.524 70.0318C141.563 71.1208 141.603 72.2736 141.647 73.4657C144.387 69.1537 146.129 62.4183 146.129 62.4183L146.124 62.4281Z" fill="black"/>
<path d="M166.139 28.8299C165.927 29.5903 165.735 30.2526 165.504 30.9442C165.273 31.6359 165.047 32.3129 164.806 32.9948C164.314 34.3487 163.792 35.6977 163.192 37.032C162.592 38.3664 161.977 39.7007 161.224 41.0252C160.476 42.4149 159.624 43.7464 158.675 45.0085L158.36 45.4255C158.163 45.683 157.906 45.8898 157.613 46.0288C157.073 46.2887 156.516 46.51 155.945 46.6911C155.384 46.8713 154.812 47.0139 154.233 47.1179C153.654 47.22 153.068 47.2807 152.481 47.2994C152.186 47.2994 151.886 47.2994 151.59 47.2994L151.133 47.265C150.971 47.265 150.838 47.2209 150.641 47.2062C150.186 47.1796 149.76 46.9741 149.456 46.6348C149.153 46.2954 148.997 45.8499 149.022 45.396C149.032 45.2291 149.063 45.0642 149.116 44.9055L149.77 43.1051C149.825 43.017 149.893 42.9376 149.972 42.8697L150.218 42.6342L150.71 42.178C151.039 41.8738 151.369 41.5893 151.694 41.295C152.019 41.0006 152.319 40.721 152.614 40.4512C152.909 40.1814 153.189 39.892 153.47 39.632L152.407 40.6572C152.991 39.6177 153.52 38.5485 153.991 37.4539L154.365 36.5807L154.72 35.6879C154.961 35.0943 155.212 34.4861 155.423 33.8778C155.876 32.6514 156.324 31.425 156.752 30.1593L158.016 26.4458L158.046 26.3575C158.408 25.3325 159.153 24.4865 160.126 23.9959C161.099 23.5053 162.224 23.408 163.267 23.7243C164.31 24.0406 165.19 24.746 165.724 25.6935C166.259 26.6411 166.405 27.7576 166.134 28.8103L166.139 28.8299Z" fill="#CE7A63"/>
<path d="M162.08 21.9278C159.831 22.5704 156.811 25.0428 155.772 30.6401C157.278 32.9702 164.338 31.1748 164.338 31.1748L162.08 21.9278Z" fill="#407BFF"/>
<path d="M151.536 43.164L151.762 45.5873C151.083 48.0401 148.053 46.6322 148.053 46.6322L146.321 46.5341C146.015 46.4992 145.732 46.3564 145.523 46.1315C145.313 45.9065 145.192 45.6143 145.179 45.3077L145.007 43.6153C144.951 43.2693 145.032 42.915 145.233 42.6275C145.434 42.34 145.74 42.1418 146.085 42.075L147.595 41.9131C148.033 41.8655 148.476 41.9262 148.884 42.0897L151.536 43.164Z" fill="#CE7A63"/>
<path d="M163.167 21.5894C166.864 20.809 170.613 20.3007 174.385 20.0687C175.364 20.014 176.344 20.1625 177.262 20.5047C178.181 20.847 179.019 21.3755 179.722 22.0569C180.425 22.7383 180.979 23.5578 181.348 24.4636C181.718 25.3693 181.895 26.3417 181.868 27.3191C181.553 39.6713 183.3 52.6612 183.049 55.0453C183.049 55.0453 156.919 58.7981 152.914 51.0522C151.231 40.0686 156.668 41.4667 157.106 28.8545C157.219 25.5531 159.925 22.2811 163.167 21.5894Z" fill="#407BFF"/>
<path d="M161.105 32.7593L161.194 32.7348V32.6415C161.247 32.2507 161.434 31.8902 161.724 31.6218C162.014 31.3534 162.388 31.1936 162.783 31.1699H162.881L162.916 31.0767C163.042 30.6879 163.286 30.348 163.615 30.1044C163.944 29.8608 164.341 29.7256 164.751 29.7178C165.193 29.7538 165.616 29.9101 165.974 30.1697C166.332 30.4292 166.612 30.782 166.783 31.1895L166.842 31.3318L166.98 31.2925C167.14 31.2493 167.306 31.2279 167.472 31.2287H167.555C168.051 31.2788 168.511 31.5044 168.853 31.8645C169.196 32.2247 169.397 32.6954 169.42 33.191C169.445 33.4308 169.419 33.6732 169.344 33.9024C169.268 34.1315 169.145 34.3423 168.983 34.5209C168.821 34.6995 168.622 34.842 168.401 34.9392C168.179 35.0363 167.94 35.0858 167.698 35.0845L161.514 34.9815C161.211 34.9639 160.925 34.8356 160.711 34.6211C160.496 34.4067 160.369 34.1211 160.353 33.8189C160.34 33.5835 160.407 33.3507 160.544 33.1583C160.681 32.966 160.878 32.8253 161.105 32.7593Z" fill="white"/>
<path d="M181.587 24.2629L181.828 24.7927L182.035 25.2832C182.173 25.6021 182.291 25.9209 182.419 26.2643C182.665 26.902 182.876 27.5447 183.088 28.1922C183.508 29.4963 183.855 30.8229 184.126 32.1657C184.264 32.8476 184.387 33.5344 184.49 34.231C184.593 34.9275 184.652 35.6388 184.702 36.36C184.812 37.8566 184.769 39.3606 184.574 40.8486L184.529 41.2067C184.465 41.6713 184.297 42.1156 184.037 42.5066C183.57 43.2003 183.017 43.8317 182.389 44.3855C181.869 44.8491 181.322 45.2815 180.751 45.6805C179.713 46.3902 178.623 47.02 177.489 47.5643C176.392 48.0843 175.295 48.5454 174.183 48.9427C173.065 49.3441 171.925 49.6815 170.768 49.9533C170.297 50.061 169.803 50.006 169.367 49.7972C168.931 49.5884 168.579 49.2382 168.368 48.804C168.158 48.3697 168.102 47.8771 168.209 47.4068C168.316 46.9365 168.58 46.5164 168.958 46.2152L169.051 46.1466C169.873 45.4892 170.768 44.8319 171.609 44.1843C172.451 43.5368 173.292 42.8746 174.069 42.2221C174.847 41.5697 175.6 40.8878 176.244 40.2599C176.537 39.9585 176.813 39.6408 177.071 39.3082C177.248 39.0916 177.392 38.8503 177.499 38.592L176.958 40.2501C176.936 39.2519 176.841 38.2566 176.672 37.2724C176.49 36.2324 176.244 35.1679 175.959 34.0985C175.673 33.0291 175.339 31.945 174.975 30.8706C174.798 30.3359 174.601 29.8012 174.414 29.2665L173.853 27.7605L173.769 27.5349C173.373 26.507 173.396 25.3653 173.834 24.3543C174.271 23.3432 175.088 22.5431 176.11 22.125C177.132 21.707 178.277 21.7044 179.301 22.1177C180.324 22.531 181.145 23.3274 181.587 24.3364V24.2629Z" fill="#CE7A63"/>
<path d="M175.757 20.1275C177.563 20.3237 181.386 21.6777 183.9 26.8432C181.44 31.7046 174.99 33.5589 174.99 33.5589C174.99 33.5589 170.508 22.7127 175.757 20.1275Z" fill="#407BFF"/>
<path d="M161.002 54.9913H139.767C138.842 54.9913 138.646 54.7804 139.33 54.5008L149.017 50.8363C149.963 50.528 150.95 50.3626 151.944 50.3458H173.184C174.109 50.3458 174.306 50.5616 173.622 50.8363L163.93 54.5253C162.983 54.8257 161.996 54.9828 161.002 54.9913Z" fill="#407BFF"/>
<path opacity="0.4" d="M161.002 54.9913H139.767C138.842 54.9913 138.646 54.7804 139.33 54.5008L149.017 50.8363C149.963 50.528 150.95 50.3626 151.944 50.3458H173.184C174.109 50.3458 174.306 50.5616 173.622 50.8363L163.93 54.5253C162.983 54.8257 161.996 54.9828 161.002 54.9913Z" fill="black"/>
<path d="M161.002 54.1182H139.767C139.296 54.099 138.844 53.9236 138.483 53.6198C138.122 53.316 137.873 52.9011 137.775 52.4405L135.369 39.3917C135.32 39.1879 135.32 38.9758 135.367 38.7718C135.414 38.5677 135.507 38.3772 135.64 38.215C135.773 38.0528 135.941 37.9232 136.132 37.8363C136.323 37.7494 136.532 37.7076 136.742 37.714H157.981C158.449 37.7384 158.895 37.9161 159.251 38.2195C159.607 38.5229 159.852 38.9349 159.949 39.3917L162.35 52.4405C162.399 52.6422 162.401 52.8524 162.356 53.055C162.31 53.2576 162.219 53.4472 162.089 53.6091C161.959 53.7711 161.793 53.9012 161.605 53.9894C161.416 54.0777 161.21 54.1217 161.002 54.1182Z" fill="#407BFF"/>
<path opacity="0.3" d="M161.002 54.1182H139.767C139.296 54.099 138.844 53.9236 138.483 53.6198C138.122 53.316 137.873 52.9011 137.775 52.4405L135.369 39.3917C135.32 39.1879 135.32 38.9758 135.367 38.7718C135.414 38.5677 135.507 38.3772 135.64 38.215C135.773 38.0528 135.941 37.9232 136.132 37.8363C136.323 37.7494 136.532 37.7076 136.742 37.714H157.981C158.449 37.7384 158.895 37.9161 159.251 38.2195C159.607 38.5229 159.852 38.9349 159.949 39.3917L162.35 52.4405C162.399 52.6422 162.401 52.8524 162.356 53.055C162.31 53.2576 162.219 53.4472 162.089 53.6091C161.959 53.7711 161.793 53.9012 161.605 53.9894C161.416 54.0777 161.21 54.1217 161.002 54.1182Z" fill="black"/>
<path opacity="0.3" d="M160.505 54.1182H139.767C139.296 54.099 138.843 53.9236 138.483 53.6198C138.122 53.316 137.873 52.9011 137.775 52.4405L135.369 39.3917C135.32 39.1879 135.32 38.9758 135.367 38.7718C135.414 38.5677 135.507 38.3772 135.64 38.215C135.773 38.0528 135.941 37.9232 136.132 37.8363C136.323 37.7494 136.532 37.7076 136.742 37.714H157.484C157.952 37.7368 158.4 37.9139 158.756 38.2176C159.112 38.5212 159.357 38.9342 159.452 39.3917L161.858 52.4405C161.907 52.6426 161.909 52.8533 161.863 53.0562C161.818 53.2592 161.726 53.449 161.596 53.6111C161.465 53.7732 161.299 53.9032 161.11 53.9911C160.92 54.079 160.714 54.1225 160.505 54.1182Z" fill="#407BFF"/>
<path d="M170.158 47.0149L171.221 48.1285C172.205 50.4881 168.958 51.2435 168.958 51.2435L167.536 52.2246C167.273 52.3839 166.963 52.4451 166.659 52.3975C166.356 52.3499 166.079 52.1965 165.878 51.9646L164.692 50.7382C164.433 50.5017 164.276 50.1733 164.256 49.8232C164.235 49.4731 164.353 49.129 164.584 48.8643L165.666 47.8096C165.982 47.501 166.369 47.2751 166.793 47.1523L168.672 46.6078C168.934 46.5326 169.211 46.5308 169.473 46.6027C169.735 46.6745 169.972 46.8172 170.158 47.0149Z" fill="#CE7A63"/>
<path d="M164.589 22.8746C164.803 22.1399 165.259 21.4986 165.883 21.0546C166.009 20.3392 165.882 19.6024 165.524 18.9698L171.389 14.0642C171.753 16.517 172.614 19.7547 173.819 20.8143C172.476 22.0505 170.006 24.2776 166.931 24.8025C163.856 25.3274 164.328 24.0421 164.589 22.8746Z" fill="#CE7A63"/>
<path opacity="0.2" d="M165.632 19.1856L170.64 17.1057C170.011 19.6418 167.196 21.7414 165.927 20.7358C165.964 20.2024 165.862 19.6685 165.632 19.1856Z" fill="black"/>
<path d="M165.342 11.3367C165.343 11.9814 165.152 12.6118 164.793 13.1482C164.435 13.6847 163.925 14.1029 163.327 14.3501C162.73 14.5972 162.073 14.6621 161.439 14.5366C160.805 14.4111 160.222 14.1007 159.765 13.6449C159.308 13.1891 158.997 12.6082 158.871 11.9759C158.745 11.3436 158.81 10.6883 159.058 10.0929C159.306 9.49748 159.725 8.98881 160.263 8.63126C160.801 8.27372 161.433 8.08338 162.08 8.08435C162.945 8.08435 163.775 8.42702 164.386 9.03696C164.998 9.6469 165.342 10.4742 165.342 11.3367Z" fill="#263238"/>
<path d="M170.955 9.50695C171.723 13.2254 172.166 15.7714 170.463 17.8906C167.068 22.1044 163.984 20.7946 162.099 17.3706C160.412 14.2899 159.437 8.72697 162.65 6.32815C163.361 5.79564 164.196 5.45189 165.077 5.32915C165.957 5.20641 166.855 5.30871 167.685 5.62644C168.515 5.94417 169.251 6.46693 169.823 7.14568C170.395 7.82442 170.784 8.63692 170.955 9.50695Z" fill="#CE7A63"/>
<path d="M163.63 8.52585C162.877 9.38432 160.884 11.1798 157.987 9.56092C155.089 7.94208 156.269 4.05688 158.016 2.81577C158.736 2.29373 159.575 1.95926 160.458 1.84274C161.34 1.72623 162.238 1.83138 163.069 2.14862C163.069 2.14862 162.833 0.0833744 165.745 -2.01846e-05C168.658 -0.0834147 168.51 1.9622 168.51 1.9622C168.51 1.9622 172.284 0.397332 174.085 3.29161C175.762 5.98477 173.263 8.07454 173.263 8.07454C173.263 8.07454 175.876 9.193 175.015 11.9009C174.845 12.5371 174.478 13.1033 173.965 13.5178C173.452 13.9322 172.82 14.1734 172.161 14.2065C172.161 14.2065 169.371 14.4027 168.899 12.3767C168.612 11.1899 168.757 9.94003 169.307 8.84962C169.307 8.84962 164.82 10.6107 163.63 8.52585Z" fill="#263238"/>
<path d="M167.915 12.9114L167.226 12.8378C167.21 12.8374 167.194 12.8334 167.179 12.8263C167.165 12.8191 167.152 12.8089 167.142 12.7963C167.131 12.7838 167.124 12.7691 167.12 12.7534C167.116 12.7378 167.115 12.7214 167.118 12.7054C167.119 12.6895 167.124 12.6739 167.131 12.6598C167.138 12.6456 167.149 12.6331 167.161 12.623C167.174 12.6129 167.188 12.6054 167.203 12.601C167.219 12.5966 167.235 12.5954 167.251 12.5975L167.915 12.6612L171.393 11.8224C171.409 11.818 171.425 11.8168 171.441 11.819C171.457 11.8211 171.473 11.8264 171.486 11.8347C171.5 11.843 171.512 11.854 171.522 11.8671C171.531 11.8801 171.538 11.895 171.541 11.9107C171.548 11.9419 171.543 11.9748 171.527 12.0023C171.51 12.0298 171.484 12.0498 171.452 12.0579L167.954 12.9065L167.915 12.9114Z" fill="#263238"/>
<path d="M172.928 8.47681C172.815 8.47681 172.702 8.47681 172.584 8.47681C172.551 8.47327 172.52 8.46342 172.492 8.44782C172.463 8.43222 172.438 8.41118 172.418 8.38589C172.397 8.36061 172.382 8.33159 172.373 8.30047C172.364 8.26936 172.361 8.23677 172.365 8.20455C172.368 8.17234 172.378 8.14115 172.394 8.11274C172.409 8.08434 172.431 8.05929 172.456 8.03902C172.481 8.01875 172.51 8.00365 172.542 7.9946C172.573 7.98555 172.606 7.98271 172.638 7.98626C172.956 8.04749 173.285 8.02092 173.59 7.9094C173.894 7.79789 174.162 7.60566 174.365 7.35344C174.49 7.17339 174.564 6.96258 174.578 6.74383C174.592 6.52507 174.545 6.3067 174.443 6.11233C174.428 6.08408 174.419 6.05306 174.416 6.0211C174.413 5.98914 174.416 5.95689 174.426 5.92626C174.435 5.89562 174.451 5.86722 174.472 5.84273C174.493 5.81824 174.518 5.79815 174.547 5.78366C174.605 5.75397 174.673 5.74812 174.735 5.76737C174.798 5.78661 174.85 5.82942 174.881 5.88668C175.021 6.16026 175.085 6.46643 175.065 6.77292C175.045 7.07941 174.942 7.37487 174.768 7.62815C174.556 7.91089 174.277 8.13655 173.956 8.28472C173.635 8.43289 173.281 8.49891 172.928 8.47681Z" fill="#263238"/>
<path d="M159.408 10.8756C158.909 10.8714 158.412 10.7988 157.932 10.6598C157.281 10.5175 156.692 10.1729 156.25 9.67577C155.808 9.1786 155.536 8.55441 155.472 7.89304C155.31 6.4508 156.023 4.92517 157.125 4.34632C157.154 4.32848 157.186 4.31669 157.219 4.31169C157.253 4.30669 157.287 4.30858 157.319 4.31724C157.352 4.3259 157.382 4.34115 157.409 4.36204C157.435 4.38294 157.457 4.40902 157.473 4.43869C157.489 4.46835 157.498 4.50095 157.501 4.53447C157.504 4.56799 157.5 4.6017 157.489 4.63352C157.478 4.66535 157.46 4.69459 157.438 4.71945C157.415 4.7443 157.387 4.76423 157.357 4.77801C156.422 5.26856 155.822 6.58816 155.959 7.83907C156.008 8.40043 156.236 8.93137 156.61 9.35418C156.984 9.77699 157.483 10.0695 158.036 10.1888C160.919 10.9786 162.375 9.12924 162.98 7.9519C163.011 7.89464 163.064 7.85183 163.126 7.83259C163.189 7.81335 163.256 7.8192 163.315 7.84889C163.372 7.87914 163.415 7.93059 163.434 7.9921C163.453 8.0536 163.448 8.12023 163.418 8.17756C162.852 9.26659 161.657 10.8756 159.408 10.8756Z" fill="#263238"/>
<path d="M164.869 16.4974C164.691 16.5723 164.507 16.6314 164.318 16.674C164.293 16.6783 164.266 16.6725 164.245 16.6578C164.224 16.6431 164.21 16.6208 164.205 16.5955C164.2 16.5683 164.205 16.5403 164.22 16.5168C164.234 16.4933 164.257 16.4759 164.284 16.468C164.708 16.3717 165.105 16.1815 165.446 15.9114C165.786 15.6414 166.062 15.2985 166.252 14.908C166.256 14.8957 166.263 14.8843 166.272 14.8746C166.28 14.865 166.291 14.8572 166.303 14.8517C166.315 14.8462 166.328 14.8431 166.341 14.8427C166.354 14.8423 166.367 14.8445 166.379 14.8491C166.392 14.8539 166.403 14.8613 166.413 14.8706C166.423 14.88 166.43 14.8913 166.435 14.9037C166.44 14.9161 166.443 14.9294 166.443 14.9428C166.442 14.9562 166.439 14.9694 166.434 14.9816C166.115 15.6605 165.559 16.1998 164.869 16.4974Z" fill="#263238"/>
<path opacity="0.2" d="M166.331 11.5182C166.684 11.2179 167.142 11.0697 167.605 11.1061C167.211 11.3253 166.778 11.4653 166.331 11.5182Z" fill="black"/>
<path opacity="0.2" d="M166.449 11.8125C166.634 11.7155 166.837 11.6588 167.046 11.6461C167.255 11.6334 167.464 11.6651 167.659 11.739C167.266 11.8507 166.853 11.8758 166.449 11.8125Z" fill="black"/>
<path opacity="0.2" d="M161.293 12.9359C161.293 12.9359 160.87 12.7005 160.727 12.9703C160.819 13.002 160.916 13.0153 161.013 13.0094C161.111 13.0035 161.205 12.9786 161.293 12.9359Z" fill="black"/>
<path opacity="0.2" d="M161.342 13.2302C161.342 13.2302 160.988 13.0095 160.948 13.3627C161.019 13.3847 161.096 13.3838 161.167 13.36C161.237 13.3362 161.299 13.2908 161.342 13.2302Z" fill="black"/>
<path d="M173.263 13.5541C173.12 14.0036 172.89 14.4205 172.585 14.7809C172.28 15.1413 171.907 15.4379 171.487 15.6536C170.35 16.2276 169.519 15.2759 169.632 14.0839C169.72 13.0095 170.419 11.4201 171.659 11.3465C171.93 11.3349 172.199 11.3904 172.443 11.5079C172.687 11.6255 172.897 11.8015 173.056 12.0202C173.215 12.2389 173.317 12.4935 173.353 12.7612C173.389 13.0289 173.358 13.3013 173.263 13.5541Z" fill="#CE7A63"/>
<path d="M165.411 11.9745C165.494 12.2737 165.411 12.5582 165.204 12.6073C164.997 12.6564 164.781 12.4601 164.712 12.1609C164.643 11.8617 164.712 11.5771 164.919 11.5281C165.125 11.479 165.312 11.6752 165.411 11.9745Z" fill="#263238"/>
<path d="M162.257 12.8722C162.336 13.1714 162.257 13.451 162.045 13.505C161.834 13.559 161.627 13.3529 161.553 13.0586C161.479 12.7643 161.553 12.4748 161.765 12.4258C161.976 12.3767 162.173 12.5729 162.257 12.8722Z" fill="#263238"/>
<path d="M160.437 15.0993C160.337 15.0975 160.24 15.0704 160.154 15.0206C160.068 14.9709 159.996 14.9 159.945 14.8148L159.453 13.922C159.424 13.8719 159.406 13.8158 159.402 13.758C159.398 13.7002 159.407 13.6422 159.428 13.5884C159.452 13.5393 159.487 13.4965 159.531 13.4633C159.575 13.4301 159.625 13.4075 159.679 13.3971L162.237 12.833C162.352 12.8128 162.469 12.8278 162.575 12.876C162.68 12.9242 162.769 13.0033 162.828 13.1028L163.32 13.9956C163.349 14.0457 163.366 14.1018 163.371 14.1595C163.375 14.2173 163.366 14.2753 163.344 14.3292C163.321 14.3785 163.285 14.4215 163.242 14.4547C163.198 14.4879 163.147 14.5105 163.093 14.5205L160.535 15.0895L160.437 15.0993ZM162.326 13.0635H162.282L159.718 13.6326C159.703 13.6349 159.688 13.6411 159.675 13.6505C159.662 13.6599 159.652 13.6722 159.645 13.6865C159.636 13.704 159.631 13.7233 159.631 13.7429C159.631 13.7626 159.636 13.7819 159.645 13.7994L160.137 14.6922C160.169 14.7457 160.217 14.7885 160.274 14.8155C160.331 14.8425 160.394 14.8525 160.456 14.8442L163.015 14.2801C163.031 14.2774 163.047 14.2711 163.06 14.2618C163.074 14.2525 163.085 14.2403 163.093 14.2261C163.103 14.2087 163.107 14.1894 163.107 14.1697C163.107 14.1501 163.103 14.1307 163.093 14.1133L162.601 13.2205C162.572 13.1736 162.532 13.1348 162.484 13.1074C162.436 13.08 162.381 13.0649 162.326 13.0635Z" fill="#263238"/>
<path d="M163.305 12.9016L164.388 15.2612C163.953 15.5966 163.41 15.7592 162.862 15.7174C162.754 14.7562 162.907 13.7837 163.305 12.9016Z" fill="#BA4D3C"/>
<path d="M164.677 14.1624C164.578 14.1605 164.481 14.1335 164.394 14.0837C164.308 14.0339 164.236 13.9631 164.185 13.8779L163.693 12.985C163.664 12.9349 163.647 12.8789 163.643 12.8211C163.638 12.7633 163.647 12.7053 163.669 12.6515C163.693 12.6022 163.728 12.5591 163.771 12.5259C163.815 12.4927 163.866 12.4701 163.92 12.4601L166.478 11.8911C166.593 11.8714 166.711 11.8871 166.817 11.9362C166.922 11.9853 167.01 12.0654 167.069 12.1658L167.561 13.0586C167.591 13.1083 167.609 13.1645 167.613 13.2225C167.617 13.2804 167.608 13.3386 167.585 13.3922C167.562 13.4407 167.527 13.4832 167.484 13.5163C167.442 13.5495 167.392 13.5725 167.339 13.5835L164.776 14.1526L164.677 14.1624ZM166.567 12.1266H166.522L163.964 12.6907C163.948 12.6934 163.932 12.6997 163.919 12.709C163.905 12.7183 163.894 12.7305 163.885 12.7447C163.876 12.7621 163.872 12.7814 163.872 12.8011C163.872 12.8207 163.876 12.8401 163.885 12.8575L164.377 13.7503C164.41 13.8051 164.459 13.8492 164.516 13.877C164.574 13.9049 164.638 13.9154 164.702 13.9073L167.26 13.3382C167.277 13.3352 167.292 13.3288 167.306 13.3195C167.319 13.3103 167.331 13.2982 167.339 13.2843C167.347 13.2665 167.351 13.2473 167.351 13.2279C167.351 13.2085 167.347 13.1893 167.339 13.1714L166.847 12.2786C166.818 12.2314 166.776 12.1925 166.727 12.1659C166.678 12.1392 166.623 12.1257 166.567 12.1266Z" fill="#263238"/>
<path d="M162.916 13.6522H162.877C162.862 13.6477 162.848 13.6403 162.836 13.6305C162.824 13.6206 162.814 13.6085 162.807 13.5949C162.8 13.5812 162.795 13.5662 162.794 13.5508C162.792 13.5354 162.794 13.5198 162.798 13.505C162.798 13.505 162.975 12.9703 164.023 13.1812C164.039 13.1841 164.054 13.1902 164.067 13.199C164.08 13.2078 164.092 13.2192 164.1 13.2325C164.109 13.2457 164.115 13.2607 164.118 13.2763C164.121 13.292 164.12 13.308 164.117 13.3235C164.114 13.3395 164.109 13.355 164.1 13.3687C164.092 13.3825 164.08 13.3944 164.067 13.4036C164.054 13.4128 164.038 13.4192 164.022 13.4223C164.006 13.4254 163.99 13.4251 163.974 13.4216C163.167 13.2597 163.034 13.5786 163.029 13.5786C163.02 13.6005 163.004 13.6192 162.984 13.6322C162.964 13.6453 162.94 13.6522 162.916 13.6522Z" fill="#263238"/>
<path d="M166.134 10.8952C166.163 10.8847 166.189 10.8659 166.208 10.8413C166.236 10.8025 166.248 10.7543 166.242 10.7068C166.235 10.6593 166.211 10.6161 166.173 10.5862C165.95 10.4024 165.685 10.2748 165.402 10.2142C165.118 10.1536 164.824 10.1617 164.545 10.2379C164.522 10.245 164.501 10.2568 164.482 10.2724C164.464 10.2881 164.449 10.3073 164.438 10.3288C164.428 10.3504 164.422 10.3739 164.421 10.3979C164.419 10.4219 164.423 10.4459 164.432 10.4684C164.448 10.5132 164.482 10.5499 164.525 10.5709C164.568 10.5918 164.617 10.5956 164.663 10.5813C164.885 10.524 165.118 10.5203 165.342 10.5706C165.567 10.621 165.776 10.7238 165.952 10.8707C165.978 10.8901 166.008 10.9025 166.04 10.9068C166.072 10.9111 166.104 10.9071 166.134 10.8952Z" fill="#263238"/>
<path d="M160.289 12.4307C160.318 12.423 160.344 12.4081 160.366 12.3875C160.387 12.367 160.403 12.3413 160.412 12.3129C160.471 12.0895 160.583 11.8836 160.739 11.7128C160.895 11.542 161.09 11.4113 161.307 11.3318C161.33 11.3256 161.352 11.3149 161.37 11.3004C161.389 11.2859 161.404 11.2678 161.416 11.2473C161.427 11.2267 161.434 11.2041 161.437 11.1807C161.439 11.1573 161.437 11.1336 161.43 11.1111C161.417 11.0647 161.385 11.0255 161.343 11.0017C161.301 10.9779 161.251 10.9714 161.204 10.9835C160.932 11.0774 160.686 11.2351 160.487 11.4434C160.289 11.6517 160.143 11.9044 160.063 12.1805C160.056 12.2034 160.054 12.2273 160.056 12.2511C160.059 12.2748 160.066 12.2978 160.077 12.3187C160.089 12.3397 160.104 12.3582 160.123 12.3732C160.141 12.3882 160.163 12.3994 160.186 12.4061C160.217 12.4241 160.253 12.4326 160.289 12.4307Z" fill="#263238"/>
<path opacity="0.2" d="M124.368 142.786V175.045C124.378 176.733 125.056 178.349 126.253 179.543C127.45 180.737 129.071 181.412 130.764 181.422H138.636L135.822 145.823L124.368 142.786Z" fill="black"/>
<path d="M112.639 143.061L109.495 146.985C109.218 147.334 108.867 147.617 108.467 147.813C108.067 148.009 107.628 148.113 107.182 148.119H78.7891C78.0488 148.133 77.3394 148.417 76.7954 148.918C76.2514 149.419 75.9104 150.102 75.8371 150.836L73.3378 180.971C73.2991 181.319 73.3354 181.671 73.4444 182.003C73.5534 182.336 73.7326 182.642 73.9698 182.899C74.207 183.157 74.4968 183.362 74.8197 183.499C75.1426 183.636 75.4912 183.702 75.842 183.694H131.438C132.18 183.681 132.891 183.397 133.436 182.894C133.98 182.392 134.32 181.707 134.39 180.971L137.406 144.67C137.444 144.323 137.407 143.971 137.298 143.639C137.188 143.307 137.009 143.002 136.772 142.745C136.535 142.488 136.245 142.284 135.923 142.147C135.6 142.01 135.252 141.944 134.902 141.952H114.946C114.503 141.956 114.067 142.057 113.668 142.249C113.269 142.44 112.917 142.718 112.639 143.061Z" fill="#407BFF"/>
<path opacity="0.3" d="M112.639 143.061L109.495 146.985C109.218 147.334 108.867 147.617 108.467 147.813C108.067 148.009 107.628 148.113 107.182 148.119H78.7891C78.0488 148.133 77.3394 148.417 76.7954 148.918C76.2514 149.419 75.9104 150.102 75.8371 150.836L73.3378 180.971C73.2991 181.319 73.3354 181.671 73.4444 182.003C73.5534 182.336 73.7326 182.642 73.9698 182.899C74.207 183.157 74.4968 183.362 74.8197 183.499C75.1426 183.636 75.4912 183.702 75.842 183.694H131.438C132.18 183.681 132.891 183.397 133.436 182.894C133.98 182.392 134.32 181.707 134.39 180.971L137.406 144.67C137.444 144.323 137.407 143.971 137.298 143.639C137.188 143.307 137.009 143.002 136.772 142.745C136.535 142.488 136.245 142.284 135.923 142.147C135.6 142.01 135.252 141.944 134.902 141.952H114.946C114.503 141.956 114.067 142.057 113.668 142.249C113.269 142.44 112.917 142.718 112.639 143.061Z" fill="black"/>
<path d="M101.411 145.205L98.8627 148.913C98.6207 149.251 98.2997 149.525 97.9277 149.711C97.5557 149.898 97.1437 149.991 96.7274 149.983H73.3722C73.0315 149.971 72.6922 150.031 72.3758 150.157C72.0593 150.283 71.7727 150.474 71.534 150.716C71.2953 150.959 71.1098 151.248 70.9892 151.566C70.8686 151.884 70.8156 152.224 70.8335 152.563L72.9196 181.108C72.9999 181.822 73.3427 182.48 73.8817 182.956C74.4206 183.431 75.1173 183.691 75.8371 183.684H131.433C131.773 183.695 132.112 183.636 132.428 183.51C132.744 183.384 133.031 183.194 133.269 182.952C133.508 182.71 133.694 182.421 133.815 182.104C133.936 181.786 133.989 181.447 133.972 181.108L131.458 146.711C131.376 145.998 131.033 145.34 130.494 144.865C129.956 144.389 129.26 144.129 128.54 144.135H103.547C103.13 144.127 102.718 144.22 102.346 144.407C101.974 144.593 101.653 144.867 101.411 145.205Z" fill="#407BFF"/>
</g>
<defs>
<clipPath id="clip0_632:1721">
<rect width="246" height="187" fill="white"/>
</clipPath>
</defs>
</svg>
