<svg width="16" height="16" viewBox="0 0 16 16" fill="none" xmlns="http://www.w3.org/2000/svg">
<path d="M15 1.46667C15 1.3429 14.9508 1.2242 14.8633 1.13668C14.7758 1.04917 14.6571 1 14.5333 1C10.2622 1 8.7105 1.9625 7.67013 3.00346C7.32392 3.34967 6.96458 3.786 6.60758 4.26667H5.42633C4.99715 4.26556 4.57201 4.34956 4.1755 4.51382C3.779 4.67808 3.419 4.91933 3.11633 5.22362L1.60346 6.73679C1.53824 6.80206 1.49383 6.88519 1.47584 6.97568C1.45785 7.06618 1.46709 7.15998 1.50239 7.24522C1.5377 7.33047 1.59748 7.40334 1.67418 7.45462C1.75088 7.5059 1.84107 7.53329 1.93333 7.53333H4.52567C3.87525 8.67754 3.42433 9.575 3.38263 9.65783C3.33883 9.74545 3.32371 9.84463 3.33941 9.94131C3.35512 10.038 3.40085 10.1273 3.47013 10.1965L5.80346 12.5299C5.87271 12.5992 5.962 12.6449 6.05869 12.6606C6.15537 12.6763 6.25455 12.6612 6.34217 12.6174C6.42529 12.5757 7.32246 12.1247 8.46667 11.4743V14.0667C8.46669 14.159 8.49407 14.2492 8.54537 14.3259C8.59666 14.4026 8.66955 14.4624 8.75483 14.4978C8.84009 14.533 8.93388 14.5422 9.02437 14.5242C9.11485 14.5062 9.19797 14.4618 9.26321 14.3965L10.7764 12.8837C11.0807 12.581 11.3219 12.221 11.4862 11.8245C11.6504 11.428 11.7344 11.0028 11.7333 10.5737V9.39242C12.214 9.03542 12.6503 8.67608 12.9965 8.32987C14.0375 7.2895 15 5.73783 15 1.46667ZM3.05975 6.6L3.77638 5.88367C3.99254 5.66629 4.24967 5.49393 4.53288 5.37658C4.8161 5.25923 5.11977 5.19921 5.42633 5.2H5.95425C5.64625 5.66229 5.34904 6.13683 5.07108 6.6H3.05975ZM10.8 10.5737C10.8008 10.8803 10.7407 11.184 10.6234 11.4672C10.506 11.7505 10.3337 12.0077 10.1163 12.2239L9.4 12.9403V10.9278C9.86317 10.6498 10.3377 10.3526 10.8 10.0446V10.5737ZM6.22317 11.6298L4.37021 9.77683C4.91475 8.72683 6.80592 5.18775 8.32987 3.66321C9.19175 2.80133 10.4902 2.00071 14.0626 1.93742C13.9984 5.50975 13.1987 6.80825 12.3368 7.67013C10.8123 9.19408 7.27317 11.0853 6.22317 11.6298V11.6298ZM3.19654 11.4035C3.13538 11.342 3.05826 11.2989 2.97388 11.279C2.88951 11.2591 2.80125 11.2632 2.71908 11.2909C1.01954 11.8573 1 14.4243 1 14.5333C1 14.6571 1.04917 14.7758 1.13668 14.8633C1.2242 14.9508 1.3429 15 1.46667 15C1.57575 15 4.14271 14.9805 4.70912 13.2809C4.73653 13.1987 4.74051 13.1105 4.72063 13.0262C4.70075 12.9419 4.65778 12.8647 4.59654 12.8035L3.19654 11.4035ZM1.97154 14.0285C2.04971 13.4384 2.26729 12.6427 2.77129 12.2971L3.70258 13.2287C3.35696 13.733 2.56129 13.95 1.97125 14.0288L1.97154 14.0285ZM10.3333 3.8C9.96414 3.8 9.60324 3.90948 9.29627 4.11459C8.9893 4.3197 8.75004 4.61124 8.60876 4.95232C8.46747 5.29341 8.43051 5.66874 8.50253 6.03084C8.57456 6.39293 8.75234 6.72554 9.0134 6.9866C9.27446 7.24766 9.60707 7.42544 9.96916 7.49747C10.3313 7.56949 10.7066 7.53253 11.0477 7.39124C11.3888 7.24996 11.6803 7.0107 11.8854 6.70373C12.0905 6.39676 12.2 6.03586 12.2 5.66667C12.1995 5.17174 12.0027 4.69721 11.6528 4.34725C11.3028 3.99728 10.8283 3.80046 10.3333 3.8V3.8ZM10.3333 6.6C10.1487 6.6 9.96829 6.54526 9.8148 6.4427C9.66131 6.34015 9.54169 6.19438 9.47105 6.02384C9.4004 5.85329 9.38192 5.66563 9.41793 5.48458C9.45395 5.30353 9.54284 5.13723 9.67337 5.0067C9.8039 4.87617 9.9702 4.78728 10.1512 4.75127C10.3323 4.71525 10.52 4.73374 10.6905 4.80438C10.861 4.87502 11.0068 4.99465 11.1094 5.14813C11.2119 5.30162 11.2667 5.48207 11.2667 5.66667C11.2667 5.9142 11.1683 6.1516 10.9933 6.32663C10.8183 6.50167 10.5809 6.6 10.3333 6.6Z" fill="#7795CA" stroke="#7795CA" stroke-width="0.2"/>
</svg>
