<svg width="268" height="156" viewBox="0 0 268 156" fill="none" xmlns="http://www.w3.org/2000/svg">
<path fill-rule="evenodd" clip-rule="evenodd" d="M63.6536 154.641C62.2875 153.084 60.9736 151.482 59.7119 149.833C58.7241 148.544 57.453 147.5 55.997 146.781C54.541 146.063 52.9392 145.688 51.3154 145.688C44.9647 145.681 35.2752 145.681 35.2752 145.681C32.2379 145.681 29.3249 144.474 27.1771 142.327C25.0294 140.179 23.8228 137.266 23.8228 134.229C23.8227 132.725 24.1188 131.235 24.6943 129.846C25.2698 128.456 26.1134 127.194 27.1768 126.13C28.2403 125.066 29.5028 124.223 30.8924 123.647C32.2819 123.072 33.7712 122.775 35.2752 122.775H71.4667C74.5043 122.775 77.4175 121.569 79.5654 119.421C81.7133 117.273 82.92 114.36 82.92 111.322C82.9188 108.285 81.7116 105.373 79.5638 103.226C77.416 101.08 74.5035 99.8736 71.4667 99.8738H11.4533C9.94887 99.8738 8.45919 99.5774 7.06933 99.0016C5.67948 98.4257 4.41669 97.5817 3.3531 96.5177C2.2895 95.4537 1.44595 94.1906 0.870616 92.8006C0.295283 91.4105 -0.000555341 89.9207 7.82602e-07 88.4163C7.78491e-07 86.9122 0.296256 85.423 0.871849 84.0334C1.44744 82.6439 2.2911 81.3813 3.35464 80.3179C4.41819 79.2544 5.6808 78.4109 7.07037 77.8354C8.45995 77.2599 9.94927 76.9637 11.4533 76.9638H52.6838C54.1879 76.9638 55.6772 76.6676 57.0668 76.092C58.4564 75.5164 59.719 74.6728 60.7825 73.6092C61.846 72.5457 62.6897 71.2831 63.2653 69.8935C63.8409 68.504 64.1371 67.0146 64.1371 65.5105C64.1371 64.0065 63.8409 62.5172 63.2653 61.1277C62.6897 59.7382 61.846 58.4756 60.7825 57.4121C59.7189 56.3487 58.4563 55.5051 57.0667 54.9296C55.6772 54.3541 54.1878 54.058 52.6838 54.0581H30.2362C28.7321 54.0581 27.2428 53.7618 25.8532 53.1863C24.4636 52.6107 23.201 51.767 22.1375 50.7035C21.0739 49.64 20.2303 48.3774 19.6547 46.9878C19.0791 45.5982 18.7829 44.1089 18.7829 42.6048C18.7829 41.1007 19.0791 39.6114 19.6547 38.2218C20.2303 36.8322 21.0739 35.5696 22.1375 34.5061C23.201 33.4426 24.4636 32.5989 25.8532 32.0233C27.2428 31.4477 28.7321 31.1515 30.2362 31.1515H59.6772C61.0949 31.1514 62.4981 30.8666 63.8036 30.3139C65.109 29.7611 66.2902 28.9518 67.2769 27.9338C84.1859 10.6912 107.739 -0.000854492 133.771 -0.000854492C169.047 -0.000854492 199.771 19.633 215.604 48.555C216.516 50.218 217.857 51.6053 219.489 52.5717C221.121 53.5381 222.982 54.048 224.879 54.0479C231.835 54.0572 241.888 54.0572 241.888 54.0572C244.925 54.0572 247.838 55.2638 249.986 57.4116C252.133 59.5593 253.34 62.4723 253.34 65.5097C253.34 67.0137 253.044 68.503 252.469 69.8926C251.893 71.2822 251.049 72.5448 249.986 73.6083C248.923 74.6719 247.66 75.5155 246.27 76.0911C244.881 76.6667 243.392 76.963 241.888 76.963H219.438C217.934 76.9629 216.445 77.259 215.055 77.8345C213.666 78.41 212.403 79.2536 211.34 80.317C210.276 81.3805 209.432 82.6431 208.857 84.0326C208.281 85.4221 207.985 86.9114 207.985 88.4154C207.984 89.9199 208.28 91.4098 208.855 92.8C209.431 94.1901 210.274 95.4533 211.338 96.5174C212.401 97.5815 213.664 98.4256 215.054 99.0015C216.444 99.5774 217.934 99.8738 219.438 99.8738H256.546C259.583 99.8734 262.496 101.079 264.644 103.226C266.792 105.373 267.999 108.285 268 111.322C268 112.826 267.704 114.315 267.128 115.705C266.553 117.095 265.709 118.357 264.646 119.421C263.582 120.484 262.32 121.328 260.93 121.903C259.541 122.479 258.052 122.775 256.548 122.775H229.515C227.431 122.775 225.394 123.39 223.658 124.543C221.923 125.696 220.566 127.336 219.758 129.256C215.869 138.518 210.508 147.09 203.884 154.642L63.6536 154.641Z" fill="#F3F6FF"/>
<path fill-rule="evenodd" clip-rule="evenodd" d="M252.918 154.006H98.8594C98.691 154.006 98.5295 154.073 98.4104 154.192C98.2913 154.311 98.2244 154.472 98.2244 154.641C98.2244 154.809 98.2913 154.971 98.4104 155.09C98.5295 155.209 98.691 155.276 98.8594 155.276H252.918C253.086 155.276 253.248 155.209 253.367 155.09C253.486 154.971 253.553 154.809 253.553 154.641C253.553 154.472 253.486 154.311 253.367 154.192C253.248 154.073 253.086 154.006 252.918 154.006Z" fill="#6599FF"/>
<path fill-rule="evenodd" clip-rule="evenodd" d="M92.0854 154.006H37.0264C36.858 154.006 36.6965 154.073 36.5774 154.192C36.4583 154.311 36.3914 154.472 36.3914 154.641C36.3914 154.809 36.4583 154.971 36.5774 155.09C36.6965 155.209 36.858 155.276 37.0264 155.276H92.0854C92.2539 155.276 92.4154 155.209 92.5345 155.09C92.6536 154.971 92.7205 154.809 92.7205 154.641C92.7205 154.472 92.6536 154.311 92.5345 154.192C92.4154 154.073 92.2539 154.006 92.0854 154.006Z" fill="#6599FF"/>
<path d="M200.102 45.4821V154.243H68.1169V45.4821C68.121 44.1298 68.6599 42.8341 69.6162 41.8779C70.5724 40.9217 71.8681 40.3827 73.2204 40.3787H194.999C196.351 40.3822 197.647 40.9211 198.604 41.8774C199.56 42.8337 200.099 44.1297 200.102 45.4821Z" fill="white"/>
<path d="M200.102 45.4821V50.5864H68.1169V45.4829C68.121 44.1306 68.6599 42.8348 69.6161 41.8784C70.5723 40.9221 71.868 40.3829 73.2204 40.3787H194.999C196.351 40.3827 197.647 40.9217 198.603 41.8779C199.559 42.8341 200.098 44.1298 200.102 45.4821Z" fill="#6599FF"/>
<path d="M195.411 46.5707C196.012 46.3218 196.297 45.6328 196.049 45.0318C195.8 44.4308 195.111 44.1454 194.51 44.3944C193.909 44.6433 193.623 45.3323 193.872 45.9333C194.121 46.5343 194.81 46.8197 195.411 46.5707Z" fill="white"/>
<path d="M190.543 46.6599C191.194 46.6599 191.721 46.1326 191.721 45.482C191.721 44.8315 191.194 44.3042 190.543 44.3042C189.893 44.3042 189.365 44.8315 189.365 45.482C189.365 46.1326 189.893 46.6599 190.543 46.6599Z" fill="white"/>
<path d="M186.126 46.6599C186.776 46.6599 187.304 46.1326 187.304 45.482C187.304 44.8315 186.776 44.3042 186.126 44.3042C185.475 44.3042 184.948 44.8315 184.948 45.482C184.948 46.1326 185.475 46.6599 186.126 46.6599Z" fill="white"/>
<path d="M95.364 45.4821C95.362 45.7939 95.2373 46.0923 95.0168 46.3128C94.7964 46.5333 94.4979 46.658 94.1862 46.66H74.7522C74.5949 46.6642 74.4383 46.6369 74.2918 46.5796C74.1453 46.5223 74.0117 46.4363 73.8989 46.3265C73.7862 46.2168 73.6966 46.0856 73.6354 45.9406C73.5742 45.7956 73.5427 45.6399 73.5427 45.4826C73.5427 45.3252 73.5742 45.1695 73.6354 45.0245C73.6966 44.8796 73.7862 44.7483 73.8989 44.6386C74.0117 44.5288 74.1453 44.4428 74.2918 44.3855C74.4383 44.3282 74.5949 44.3009 74.7522 44.3051H94.1862C94.4982 44.3058 94.7973 44.43 95.018 44.6505C95.2387 44.8711 95.3631 45.1701 95.364 45.4821Z" fill="white"/>
<path fill-rule="evenodd" clip-rule="evenodd" d="M68.7519 153.608H82.4457C82.6141 153.608 82.7757 153.674 82.8948 153.794C83.0139 153.913 83.0808 154.074 83.0808 154.243C83.0808 154.411 83.0139 154.573 82.8948 154.692C82.7757 154.811 82.6141 154.878 82.4457 154.878H68.1219C67.9535 154.878 67.7919 154.811 67.6728 154.692C67.5537 154.573 67.4868 154.411 67.4868 154.243V147.347C67.4868 147.179 67.5537 147.018 67.6728 146.898C67.7919 146.779 67.9535 146.712 68.1219 146.712C68.2903 146.712 68.4519 146.779 68.571 146.898C68.6901 147.018 68.757 147.179 68.757 147.347V153.608H68.7519Z" fill="#6599FF"/>
<path fill-rule="evenodd" clip-rule="evenodd" d="M68.7518 70.1526V45.4822C68.7554 44.298 69.2274 43.1634 70.0648 42.3262C70.9022 41.489 72.0369 41.0171 73.221 41.0138H162.491C162.659 41.0138 162.821 40.9469 162.94 40.8278C163.059 40.7087 163.126 40.5472 163.126 40.3787C163.126 40.2103 163.059 40.0488 162.94 39.9297C162.821 39.8106 162.659 39.7437 162.491 39.7437H73.221C71.7005 39.7486 70.2437 40.3547 69.1684 41.4298C68.0932 42.5049 67.4868 43.9616 67.4817 45.4822V70.1526C67.4817 70.321 67.5486 70.4825 67.6677 70.6016C67.7868 70.7207 67.9483 70.7877 68.1168 70.7877C68.2852 70.7877 68.4467 70.7207 68.5658 70.6016C68.6849 70.4825 68.7518 70.321 68.7518 70.1526Z" fill="#6599FF"/>
<path fill-rule="evenodd" clip-rule="evenodd" d="M176.242 41.0138H194.999C196.183 41.0169 197.318 41.4887 198.155 42.326C198.992 43.1633 199.464 44.298 199.467 45.4822V84.6321C199.467 84.8006 199.534 84.9621 199.653 85.0812C199.772 85.2003 199.934 85.2672 200.102 85.2672C200.271 85.2672 200.432 85.2003 200.551 85.0812C200.671 84.9621 200.737 84.8006 200.737 84.6321V45.4822C200.732 43.9618 200.126 42.5052 199.051 41.4301C197.976 40.355 196.519 39.7488 194.999 39.7437H176.242C176.074 39.7437 175.912 39.8106 175.793 39.9297C175.674 40.0488 175.607 40.2103 175.607 40.3787C175.607 40.5472 175.674 40.7087 175.793 40.8278C175.912 40.9469 176.074 41.0138 176.242 41.0138Z" fill="#6599FF"/>
<path fill-rule="evenodd" clip-rule="evenodd" d="M199.467 153.608V78.8069C199.467 78.6385 199.534 78.477 199.653 78.3579C199.772 78.2388 199.934 78.1719 200.102 78.1719C200.271 78.1719 200.432 78.2388 200.551 78.3579C200.671 78.477 200.737 78.6385 200.737 78.8069V154.243C200.737 154.411 200.671 154.573 200.551 154.692C200.432 154.811 200.271 154.878 200.102 154.878H89.4898C89.3214 154.878 89.1599 154.811 89.0408 154.692C88.9217 154.573 88.8547 154.411 88.8547 154.243C88.8547 154.074 88.9217 153.913 89.0408 153.794C89.1599 153.675 89.3214 153.608 89.4898 153.608H199.467Z" fill="#6599FF"/>
<path d="M75.4741 117.857C75.4772 118.963 75.9179 120.023 76.6997 120.805C77.4816 121.587 78.5411 122.028 79.647 122.031H140.583C141.689 122.028 142.749 121.587 143.53 120.805C144.312 120.023 144.753 118.963 144.756 117.857V81.2612C144.753 80.1554 144.312 79.0957 143.531 78.3137C142.749 77.5317 141.689 77.0909 140.583 77.0875H79.647C78.5411 77.0909 77.4816 77.5317 76.6997 78.3137C75.9179 79.0957 75.4772 80.1554 75.4741 81.2612V117.857Z" fill="#F0F3FF"/>
<path fill-rule="evenodd" clip-rule="evenodd" d="M145.391 88.6618V81.2611C145.387 79.9874 144.879 78.7671 143.978 77.8663C143.077 76.9655 141.857 76.4573 140.583 76.4524H79.647C78.3733 76.4573 77.1531 76.9655 76.2524 77.8663C75.3518 78.7671 74.8438 79.9874 74.8391 81.2611V103.108C74.8391 103.276 74.906 103.438 75.0251 103.557C75.1442 103.676 75.3058 103.743 75.4742 103.743C75.6426 103.743 75.8042 103.676 75.9232 103.557C76.0423 103.438 76.1093 103.276 76.1093 103.108V81.2611C76.1117 80.3235 76.4852 79.4251 77.1481 78.762C77.811 78.0989 78.7094 77.7252 79.647 77.7225H140.583C141.521 77.7252 142.419 78.0989 143.082 78.762C143.745 79.4251 144.119 80.3235 144.121 81.2611V88.6618C144.121 88.8303 144.188 88.9918 144.307 89.1109C144.426 89.23 144.588 89.2969 144.756 89.2969C144.925 89.2969 145.086 89.23 145.205 89.1109C145.324 88.9918 145.391 88.8303 145.391 88.6618Z" fill="#6599FF"/>
<path fill-rule="evenodd" clip-rule="evenodd" d="M76.4201 121.414C77.3027 122.219 78.4546 122.666 79.6496 122.666H140.586C141.86 122.661 143.08 122.153 143.981 121.252C144.881 120.351 145.389 119.131 145.394 117.857C145.394 117.689 145.327 117.527 145.208 117.408C145.089 117.289 144.927 117.222 144.759 117.222C144.59 117.222 144.429 117.289 144.31 117.408C144.191 117.527 144.124 117.689 144.124 117.857C144.121 118.795 143.748 119.693 143.085 120.356C142.422 121.019 141.524 121.393 140.586 121.396H79.6471C78.7695 121.394 77.9241 121.066 77.2762 120.474C77.1515 120.361 76.987 120.301 76.8187 120.309C76.6505 120.317 76.4923 120.392 76.379 120.517C76.2657 120.641 76.2066 120.806 76.2146 120.974C76.2226 121.142 76.2971 121.3 76.4218 121.414H76.4201Z" fill="#6599FF"/>
<path d="M94.8044 99.5588C94.8044 102.587 95.7024 105.547 97.3847 108.065C99.067 110.583 101.458 112.545 104.256 113.704C107.053 114.862 110.132 115.166 113.102 114.575C116.072 113.984 118.8 112.526 120.941 110.385C123.082 108.244 124.54 105.516 125.131 102.546C125.722 99.5758 125.418 96.4974 124.26 93.6998C123.101 90.9022 121.139 88.5111 118.621 86.8288C116.103 85.1465 113.143 84.2485 110.115 84.2485C106.054 84.2485 102.16 85.8616 99.2887 88.7328C96.4175 91.604 94.8044 95.4983 94.8044 99.5588Z" fill="#316FEA"/>
<path d="M107.695 93.8466C107.163 93.5028 106.728 93.7399 106.728 94.3733V104.744C106.728 105.378 107.163 105.616 107.695 105.271L115.554 100.185C116.087 99.8408 116.087 99.2768 115.554 98.9322L107.695 93.8466Z" fill="white"/>
<path fill-rule="evenodd" clip-rule="evenodd" d="M160.127 75.8901V67.7493C160.127 67.5809 160.194 67.4194 160.313 67.3003C160.432 67.1812 160.593 67.1143 160.762 67.1143C160.93 67.1143 161.092 67.1812 161.211 67.3003C161.33 67.4194 161.397 67.5809 161.397 67.7493V76.5556C161.397 77.0595 161.143 77.3448 160.889 77.4701C160.635 77.5955 160.25 77.6124 159.855 77.3008L153.991 72.608H121.491C121.322 72.608 121.161 72.5411 121.042 72.422C120.923 72.3029 120.856 72.1414 120.856 71.973C120.856 71.8045 120.923 71.643 121.042 71.5239C121.161 71.4048 121.322 71.3379 121.491 71.3379H154.214C154.358 71.338 154.498 71.3869 154.61 71.4768L160.127 75.8901Z" fill="#6599FF"/>
<path fill-rule="evenodd" clip-rule="evenodd" d="M114.06 69.9053C113.241 69.0519 112.784 67.9155 112.784 66.7333V62.8043C112.787 61.5844 113.273 60.4154 114.136 59.5528C114.999 58.6902 116.168 58.204 117.387 58.2004H155.524C156.57 58.1985 157.585 58.5574 158.398 59.2166C158.529 59.3226 158.696 59.3722 158.864 59.3546C159.032 59.3369 159.185 59.2535 159.291 59.1226C159.397 58.9916 159.447 58.824 159.429 58.6564C159.412 58.4889 159.328 58.3352 159.197 58.2292C158.159 57.3861 156.861 56.9268 155.524 56.9286H117.387C115.831 56.9331 114.34 57.5533 113.239 58.6537C112.139 59.7541 111.518 61.2454 111.513 62.8017V66.7307C111.514 68.2394 112.096 69.6898 113.14 70.7791C113.256 70.9011 113.416 70.9718 113.585 70.9759C113.753 70.9799 113.916 70.9169 114.038 70.8007C114.16 70.6845 114.231 70.5246 114.235 70.3562C114.239 70.1878 114.176 70.0247 114.06 69.9027V69.9053Z" fill="#6599FF"/>
<path d="M188.695 118.631C188.667 119.19 188.427 119.717 188.024 120.105C187.621 120.492 187.085 120.711 186.526 120.717H160.566C160.008 120.711 159.474 120.491 159.072 120.104C158.671 119.716 158.434 119.189 158.409 118.631C158.409 118.631 157.97 105.892 160.566 101.95C161.714 100.198 164.893 98.6774 164.893 98.6774C165.937 98.1871 167.718 97.7806 168.865 97.7806H177.206C178.353 97.7806 180.17 98.1134 181.24 98.5207C181.24 98.5207 181.501 98.6249 181.917 98.8027V98.812C183.103 99.3336 185.535 100.533 186.525 101.95C189.225 105.818 188.694 118.631 188.694 118.631H188.695Z" fill="#F0F3FF"/>
<path fill-rule="evenodd" clip-rule="evenodd" d="M161.096 102.299C162.173 100.657 165.167 99.2506 165.167 99.2506C166.135 98.7959 167.796 98.4165 168.865 98.4165H177.205C178.288 98.4165 179.999 98.7315 181.016 99.1151C181.095 99.1506 181.18 99.1696 181.267 99.1708C181.353 99.1721 181.439 99.1557 181.519 99.1225C181.599 99.0894 181.671 99.0402 181.732 98.978C181.792 98.9159 181.839 98.842 181.87 98.7611C181.9 98.6801 181.914 98.5937 181.91 98.5072C181.906 98.4207 181.885 98.3359 181.847 98.258C181.809 98.1802 181.756 98.1109 181.69 98.0544C181.624 97.9979 181.548 97.9555 181.465 97.9297C180.331 97.5003 178.417 97.1489 177.206 97.1489H168.866C167.641 97.1489 165.733 97.5825 164.624 98.1049C164.624 98.1049 161.255 99.7434 160.035 101.605C159.99 101.675 159.958 101.753 159.943 101.835C159.927 101.917 159.928 102.001 159.945 102.083C159.962 102.165 159.995 102.242 160.042 102.311C160.089 102.38 160.149 102.439 160.219 102.485C160.288 102.531 160.367 102.562 160.448 102.578C160.53 102.593 160.615 102.592 160.696 102.575C160.778 102.558 160.855 102.525 160.924 102.478C160.993 102.431 161.052 102.371 161.098 102.302L161.096 102.299Z" fill="#6599FF"/>
<path fill-rule="evenodd" clip-rule="evenodd" d="M186.005 102.315C186.773 103.416 187.244 105.286 187.558 107.355C188.32 112.394 188.061 118.606 188.061 118.606C188.04 119.001 187.87 119.373 187.585 119.647C187.3 119.921 186.921 120.075 186.525 120.079H160.566C160.172 120.075 159.794 119.92 159.511 119.646C159.227 119.372 159.06 119 159.042 118.606C159.036 118.437 158.963 118.278 158.84 118.164C158.716 118.049 158.552 117.988 158.384 117.994C158.215 118 158.056 118.073 157.941 118.197C157.827 118.32 157.766 118.484 157.772 118.652C157.805 119.374 158.112 120.056 158.632 120.557C159.152 121.059 159.844 121.342 160.566 121.349H186.525C187.248 121.342 187.941 121.059 188.462 120.558C188.983 120.056 189.293 119.375 189.329 118.653C189.329 118.653 189.591 112.311 188.813 107.163C188.466 104.866 187.899 102.805 187.047 101.586C187 101.516 186.94 101.456 186.869 101.409C186.799 101.362 186.72 101.33 186.637 101.315C186.554 101.299 186.468 101.3 186.386 101.318C186.303 101.335 186.225 101.369 186.155 101.418C186.086 101.466 186.027 101.528 185.982 101.599C185.937 101.671 185.906 101.75 185.892 101.834C185.878 101.917 185.881 102.002 185.901 102.084C185.92 102.167 185.956 102.244 186.005 102.313V102.315Z" fill="#6599FF"/>
<path fill-rule="evenodd" clip-rule="evenodd" d="M170.1 83.0233C169.599 83.6652 168.914 84.0928 168.225 84.3697C167.43 84.6748 166.589 84.8424 165.737 84.865C165.569 84.865 165.407 84.7981 165.288 84.679C165.169 84.5599 165.102 84.3984 165.102 84.2299V83.1884C165.108 81.3626 165.835 79.613 167.127 78.322C168.418 77.031 170.167 76.3035 171.993 76.2983H174.078C175.904 76.3041 177.653 77.0319 178.944 78.3228C180.235 79.6137 180.962 81.3628 180.968 83.1884V84.2299C180.968 84.3479 180.935 84.4636 180.873 84.564C180.811 84.6643 180.722 84.7454 180.617 84.7981C180.617 84.7981 176.424 86.9667 170.1 83.0199V83.0233ZM179.698 83.793V83.1884C179.694 81.6994 179.1 80.2727 178.047 79.2198C176.995 78.1668 175.568 77.5732 174.079 77.5685H171.993C170.504 77.5727 169.077 78.1662 168.024 79.2192C166.971 80.2722 166.378 81.6992 166.373 83.1884V83.5432C166.846 83.4814 167.309 83.3625 167.754 83.1893C168.37 82.9429 168.997 82.5457 169.34 81.8607C169.38 81.7801 169.437 81.709 169.507 81.6521C169.576 81.5952 169.657 81.5538 169.745 81.5307C169.832 81.5075 169.923 81.5032 170.011 81.5179C170.1 81.5326 170.185 81.566 170.26 81.616C175.111 84.8506 178.617 84.1419 179.699 83.793H179.698Z" fill="#6599FF"/>
<path d="M180.334 84.2282V87.3612C180.333 88.4451 180.049 89.51 179.512 90.4512C178.974 91.3923 178.201 92.1773 177.268 92.7289C176.305 93.3101 175.202 93.617 174.078 93.6163H171.993C170.869 93.6172 169.765 93.3103 168.803 92.7289C167.87 92.1773 167.097 91.3923 166.559 90.4511C166.022 89.5099 165.738 88.445 165.737 87.3612V84.2282C165.737 84.2282 168.865 84.2282 169.908 82.1434C176.164 86.3138 180.334 84.2282 180.334 84.2282Z" fill="#FAB5A3"/>
<path fill-rule="evenodd" clip-rule="evenodd" d="M166.372 84.8201V87.3604C166.373 88.335 166.628 89.2925 167.111 90.1388C167.594 90.9852 168.29 91.691 169.129 92.187C169.993 92.7082 170.983 92.9834 171.992 92.9829H174.078C175.087 92.9838 176.077 92.7086 176.94 92.187C177.084 92.1023 177.256 92.078 177.419 92.1193C177.581 92.1607 177.72 92.2643 177.806 92.4078C177.892 92.5513 177.918 92.723 177.878 92.8855C177.839 93.0481 177.736 93.1884 177.594 93.2759C176.533 93.9165 175.317 94.2544 174.078 94.2531H171.992C170.754 94.2544 169.54 93.9174 168.479 93.2785C167.451 92.6702 166.6 91.805 166.008 90.7678C165.415 89.7306 165.103 88.5572 165.102 87.3629V84.2299C165.102 84.0615 165.169 83.8999 165.288 83.7808C165.407 83.6617 165.569 83.5948 165.737 83.5948C166.427 83.5744 167.109 83.4376 167.754 83.1901C168.37 82.9437 168.997 82.5457 169.339 81.8615C169.379 81.7809 169.436 81.7098 169.506 81.6529C169.575 81.596 169.657 81.5546 169.744 81.5315C169.831 81.5083 169.922 81.5039 170.011 81.5187C170.099 81.5334 170.184 81.5668 170.259 81.6168C176.144 85.5399 180.049 83.6626 180.049 83.6626C180.146 83.614 180.254 83.591 180.362 83.5958C180.47 83.6006 180.575 83.6329 180.667 83.6898C180.759 83.7466 180.835 83.8261 180.888 83.9207C180.941 84.0152 180.968 84.1217 180.968 84.2299V87.3629C180.968 87.5314 180.901 87.6929 180.782 87.812C180.663 87.9311 180.502 87.998 180.333 87.998C180.165 87.998 180.003 87.9311 179.884 87.812C179.765 87.6929 179.698 87.5314 179.698 87.3629V85.1249C178.134 85.5348 174.675 85.8811 170.099 83.0283C169.599 83.6702 168.914 84.0978 168.225 84.3739C167.63 84.6045 167.007 84.7565 166.372 84.826V84.8201Z" fill="#6599FF"/>
<path d="M161.568 100.909L152.06 104.366C150.982 104.759 149.555 104.315 148.888 103.382L144.887 97.7815L140.718 100.909L145.974 110.547C146.524 111.553 147.909 112.293 149.049 112.188L158.442 111.335L161.568 100.909Z" fill="#F0F3FF"/>
<path fill-rule="evenodd" clip-rule="evenodd" d="M141.536 101.087L144.515 106.55C144.59 106.698 144.605 106.869 144.555 107.027C144.506 107.185 144.397 107.317 144.252 107.396C144.106 107.475 143.936 107.494 143.777 107.449C143.617 107.404 143.482 107.299 143.399 107.156L140.157 101.21C140.084 101.076 140.062 100.92 140.094 100.771C140.127 100.622 140.212 100.489 140.334 100.398L144.503 97.2708C144.571 97.2201 144.648 97.1834 144.73 97.1629C144.812 97.1424 144.898 97.1384 144.981 97.1514C145.065 97.1643 145.145 97.1938 145.217 97.2382C145.289 97.2826 145.352 97.3409 145.401 97.4097L149.402 103.011C149.914 103.727 151.011 104.068 151.84 103.766L161.35 100.312C161.429 100.28 161.514 100.265 161.598 100.267C161.683 100.27 161.767 100.288 161.844 100.323C161.921 100.358 161.991 100.408 162.049 100.47C162.106 100.532 162.151 100.605 162.18 100.685C162.209 100.765 162.222 100.849 162.218 100.934C162.213 101.019 162.192 101.102 162.155 101.178C162.119 101.255 162.067 101.323 162.003 101.379C161.94 101.435 161.865 101.478 161.785 101.505L152.277 104.962C150.949 105.446 149.192 104.899 148.372 103.751L144.749 98.6798L141.536 101.087Z" fill="#6599FF"/>
<path fill-rule="evenodd" clip-rule="evenodd" d="M146.991 112.344C147.661 112.702 148.421 112.884 149.108 112.821L158.5 111.967C158.668 111.952 158.823 111.871 158.93 111.741C159.038 111.612 159.09 111.445 159.075 111.277C159.059 111.109 158.978 110.954 158.848 110.846C158.719 110.739 158.552 110.687 158.384 110.702L148.992 111.559C148.536 111.601 148.034 111.464 147.589 111.226C147.515 111.187 147.435 111.163 147.352 111.155C147.269 111.147 147.185 111.155 147.105 111.179C147.025 111.204 146.951 111.243 146.887 111.296C146.822 111.349 146.769 111.414 146.729 111.488C146.69 111.562 146.666 111.642 146.658 111.725C146.65 111.808 146.658 111.892 146.682 111.972C146.707 112.052 146.746 112.126 146.799 112.19C146.852 112.255 146.918 112.308 146.991 112.348V112.344Z" fill="#6599FF"/>
<path d="M144.888 97.7815C144.888 97.7815 144.655 97.0779 144.366 96.2176C144.077 95.3572 142.927 94.4698 141.801 94.2446L135.464 92.9744C134.34 92.7492 133.648 93.4757 133.925 94.5833L133.955 94.7086C134.235 95.8204 135.373 96.9585 136.485 97.2371L138.633 97.7739L140.718 100.901L144.887 97.7739L144.888 97.7815Z" fill="#FAB5A3"/>
<path fill-rule="evenodd" clip-rule="evenodd" d="M138.241 98.3379L136.33 97.8603C135.015 97.5309 133.67 96.1854 133.34 94.8695L133.31 94.7484C133.107 93.9372 133.303 93.275 133.71 92.8483C134.116 92.4215 134.769 92.1937 135.589 92.358L137.816 92.8034C137.981 92.8364 138.126 92.9337 138.22 93.0738C138.313 93.214 138.347 93.3855 138.314 93.5507C138.281 93.7158 138.184 93.8611 138.043 93.9546C137.903 94.048 137.732 94.082 137.567 94.049L135.34 93.6036C135.036 93.5426 134.78 93.5663 134.629 93.7247C134.478 93.883 134.467 94.1396 134.545 94.4402L134.573 94.5604C134.801 95.4699 135.732 96.3996 136.641 96.6274L138.788 97.1642C138.941 97.2022 139.074 97.2962 139.162 97.4276L140.875 99.9967L144.143 97.5461C144.048 97.2616 143.914 96.8603 143.766 96.4174C143.651 96.0736 143.342 95.74 142.961 95.4563C142.886 95.4098 142.822 95.3484 142.773 95.276C142.723 95.2036 142.69 95.1217 142.673 95.0355C142.657 94.9494 142.659 94.8608 142.679 94.7754C142.698 94.6899 142.735 94.6095 142.788 94.5391C142.84 94.4688 142.906 94.41 142.983 94.3665C143.059 94.3231 143.143 94.2958 143.23 94.2865C143.317 94.2772 143.405 94.2861 143.489 94.3125C143.573 94.339 143.65 94.3824 143.716 94.4402C144.325 94.8915 144.785 95.4665 144.97 96.0194C145.259 96.8806 145.491 97.5851 145.491 97.5851C145.533 97.7113 145.535 97.8476 145.495 97.9746C145.455 98.1017 145.377 98.213 145.27 98.293L141.1 101.42C141.031 101.472 140.952 101.509 140.868 101.529C140.784 101.55 140.697 101.553 140.612 101.538C140.527 101.523 140.446 101.492 140.373 101.445C140.301 101.397 140.239 101.336 140.191 101.264L138.243 98.3412L138.241 98.3379Z" fill="#6599FF"/>
<path fill-rule="evenodd" clip-rule="evenodd" d="M75.7563 134.232C75.7631 132.996 76.2576 132.168 76.952 131.782C77.6463 131.397 78.6243 131.417 79.6861 132.08L84.6134 135.16C85.6524 135.809 86.1325 136.693 86.1325 137.548C86.1325 138.403 85.6524 139.286 84.6134 139.937L79.6861 143.018C78.3483 143.855 77.162 143.689 76.4498 142.922C76.3931 142.861 76.3489 142.789 76.3199 142.711C76.2908 142.633 76.2775 142.55 76.2806 142.466C76.2837 142.383 76.3032 142.301 76.338 142.225C76.3727 142.149 76.4221 142.081 76.4833 142.024C76.5444 141.968 76.6162 141.923 76.6944 141.894C76.7726 141.865 76.8558 141.852 76.9392 141.855C77.0226 141.858 77.1046 141.878 77.1804 141.912C77.2563 141.947 77.3245 141.997 77.3813 142.058C77.7403 142.446 78.3364 142.364 79.0121 141.942L83.9403 138.86C84.533 138.492 84.8624 138.034 84.8624 137.549C84.8624 137.064 84.5288 136.605 83.9403 136.238L79.013 133.158C78.4465 132.803 77.9418 132.687 77.5684 132.894C77.195 133.102 77.0265 133.591 77.0265 134.259V136.315C77.0265 136.483 76.9596 136.645 76.8405 136.764C76.7214 136.883 76.5598 136.95 76.3914 136.95C76.223 136.95 76.0614 136.883 75.9424 136.764C75.8233 136.645 75.7563 136.483 75.7563 136.315V134.232Z" fill="#6599FF"/>
<path d="M192.638 138.445H129.561C129.328 138.438 129.108 138.34 128.946 138.173C128.784 138.006 128.693 137.782 128.693 137.549C128.693 137.316 128.784 137.093 128.946 136.926C129.108 136.758 129.328 136.661 129.561 136.654H192.638C192.871 136.661 193.092 136.758 193.254 136.926C193.416 137.093 193.507 137.316 193.507 137.549C193.507 137.782 193.416 138.006 193.254 138.173C193.092 138.34 192.871 138.438 192.638 138.445Z" fill="#316FEA"/>
<path d="M122.315 138.445H90.7049C90.585 138.448 90.4656 138.428 90.3537 138.385C90.2418 138.341 90.1398 138.276 90.0537 138.192C89.9676 138.109 89.8991 138.009 89.8524 137.898C89.8056 137.788 89.7815 137.669 89.7815 137.549C89.7815 137.429 89.8056 137.31 89.8524 137.2C89.8991 137.09 89.9676 136.99 90.0537 136.906C90.1398 136.823 90.2418 136.757 90.3537 136.714C90.4656 136.67 90.585 136.65 90.7049 136.654H122.315C122.547 136.661 122.768 136.758 122.93 136.926C123.092 137.093 123.183 137.316 123.183 137.549C123.183 137.782 123.092 138.006 122.93 138.173C122.768 138.34 122.547 138.437 122.315 138.445Z" fill="#F0F3FF"/>
<path d="M129.561 137.549C129.562 138.266 129.349 138.967 128.951 139.563C128.553 140.159 127.987 140.624 127.325 140.899C126.663 141.174 125.934 141.246 125.23 141.106C124.527 140.966 123.881 140.621 123.374 140.115C122.867 139.608 122.521 138.962 122.381 138.259C122.241 137.556 122.313 136.827 122.587 136.164C122.861 135.502 123.325 134.935 123.922 134.537C124.518 134.138 125.218 133.926 125.935 133.925C126.897 133.926 127.818 134.307 128.498 134.987C129.178 135.666 129.56 136.588 129.561 137.549Z" fill="#316FEA"/>
<path fill-rule="evenodd" clip-rule="evenodd" d="M128.926 137.549C128.927 138.14 128.752 138.718 128.423 139.21C128.095 139.702 127.628 140.086 127.082 140.312C126.536 140.539 125.934 140.598 125.354 140.483C124.774 140.368 124.241 140.083 123.823 139.665C123.405 139.247 123.12 138.715 123.004 138.135C122.888 137.555 122.947 136.954 123.174 136.407C123.4 135.861 123.783 135.394 124.274 135.065C124.766 134.736 125.344 134.561 125.936 134.56C126.104 134.56 126.265 134.494 126.385 134.374C126.504 134.255 126.571 134.094 126.571 133.925C126.571 133.757 126.504 133.595 126.385 133.476C126.265 133.357 126.104 133.29 125.936 133.29C125.093 133.29 124.269 133.54 123.569 134.009C122.868 134.477 122.322 135.143 122 135.921C121.678 136.7 121.594 137.556 121.758 138.383C121.923 139.209 122.329 139.968 122.925 140.564C123.521 141.159 124.28 141.565 125.107 141.729C125.933 141.893 126.79 141.808 127.568 141.486C128.346 141.163 129.011 140.617 129.479 139.916C129.947 139.215 130.197 138.391 130.196 137.549C130.196 137.38 130.13 137.219 130.01 137.1C129.891 136.981 129.73 136.914 129.561 136.914C129.393 136.914 129.231 136.981 129.112 137.1C128.993 137.219 128.926 137.38 128.926 137.549Z" fill="#6599FF"/>
<path d="M59.7188 75.4109V87.943C59.7148 89.2708 59.1855 90.5431 58.2466 91.482C57.3077 92.4209 56.0355 92.9501 54.7077 92.9541H42.1807C40.8527 92.9506 39.5801 92.4215 38.6409 91.4825C37.7018 90.5435 37.1725 89.271 37.1687 87.943V75.4109C37.1727 74.0831 37.7021 72.8107 38.6412 71.872C39.5803 70.9332 40.8528 70.4042 42.1807 70.4006H54.7077C56.0353 70.4047 57.3075 70.9338 58.2463 71.8725C59.1852 72.8112 59.7146 74.0833 59.7188 75.4109Z" fill="#F0F3FF"/>
<path fill-rule="evenodd" clip-rule="evenodd" d="M37.808 82.1502V75.4109C37.8113 74.2512 38.2736 73.1401 39.0938 72.3202C39.9139 71.5004 41.0253 71.0385 42.1849 71.0356H54.7119C55.8713 71.039 56.9823 71.501 57.8022 72.3208C58.6222 73.1405 59.0844 74.2514 59.088 75.4109C59.088 75.5793 59.1549 75.7408 59.274 75.8599C59.3931 75.979 59.5546 76.0459 59.723 76.0459C59.8915 76.0459 60.053 75.979 60.1721 75.8599C60.2912 75.7408 60.3581 75.5793 60.3581 75.4109C60.3534 73.9151 59.7571 72.4819 58.6994 71.4242C57.6417 70.3665 56.2085 69.7702 54.7127 69.7655H42.1807C40.6852 69.7706 39.2526 70.3671 38.1954 71.4248C37.1382 72.4825 36.5423 73.9154 36.5378 75.4109V82.1502C36.5378 82.3187 36.6048 82.4802 36.7239 82.5993C36.843 82.7184 37.0045 82.7853 37.1729 82.7853C37.3413 82.7853 37.5029 82.7184 37.622 82.5993C37.7411 82.4802 37.808 82.3187 37.808 82.1502Z" fill="#6599FF"/>
<path fill-rule="evenodd" clip-rule="evenodd" d="M60.5224 79.5176L65.857 76.1348C66.7698 75.5531 67.5886 75.3973 68.1907 75.7275C68.7927 76.0577 69.1026 76.8325 69.1026 77.9164V85.4331C69.1026 86.5178 68.7944 87.296 68.1915 87.622C67.5886 87.948 66.7698 87.7913 65.857 87.2147C65.715 87.1257 65.5436 87.0965 65.3801 87.1334C65.2167 87.1704 65.0744 87.2704 64.9844 87.4117C64.8943 87.553 64.8638 87.7242 64.8994 87.8879C64.935 88.0517 65.0339 88.1947 65.1745 88.2858C66.581 89.1825 67.8715 89.2452 68.8012 88.7363C69.7309 88.2274 70.3728 87.1063 70.3728 85.4339V77.9172C70.3728 76.2449 69.7309 75.1229 68.8012 74.6149C67.8715 74.1068 66.581 74.1686 65.1745 75.0662L59.8399 78.4465C59.7059 78.5399 59.613 78.6815 59.5807 78.8416C59.5483 79.0018 59.579 79.1683 59.6662 79.3064C59.7534 79.4446 59.8906 79.5438 60.0491 79.5835C60.2076 79.6231 60.3753 79.6001 60.5173 79.5193L60.5224 79.5176Z" fill="#6599FF"/>
<path fill-rule="evenodd" clip-rule="evenodd" d="M59.0837 84.1164V87.9387C59.0801 89.0982 58.6179 90.2092 57.798 91.0291C56.9781 91.849 55.8671 92.3112 54.7076 92.3147H42.1806C41.5474 92.3141 40.9218 92.1759 40.3472 91.9097C39.7726 91.6434 39.2627 91.2555 38.8528 90.7728C38.7987 90.7093 38.7326 90.6572 38.6583 90.6193C38.584 90.5814 38.5029 90.5585 38.4198 90.552C38.3366 90.5454 38.253 90.5553 38.1737 90.581C38.0943 90.6068 38.0208 90.6479 37.9574 90.7021C37.894 90.7562 37.8418 90.8223 37.8039 90.8967C37.766 90.971 37.7432 91.052 37.7366 91.1352C37.73 91.2183 37.7399 91.3019 37.7657 91.3813C37.7914 91.4606 37.8325 91.5341 37.8867 91.5975C38.4159 92.2198 39.074 92.7198 39.8153 93.0629C40.5567 93.406 41.3637 93.5841 42.1806 93.5849H54.7076C56.2037 93.5804 57.6373 92.9841 58.6952 91.9262C59.7531 90.8683 60.3494 89.4348 60.3538 87.9387V84.1164C60.3538 83.948 60.2869 83.7864 60.1678 83.6673C60.0487 83.5482 59.8872 83.4813 59.7188 83.4813C59.5503 83.4813 59.3888 83.5482 59.2697 83.6673C59.1506 83.7864 59.0837 83.948 59.0837 84.1164Z" fill="#6599FF"/>
<path fill-rule="evenodd" clip-rule="evenodd" d="M207.103 111.721H250.025C250.726 111.721 251.399 112 251.894 112.496C252.39 112.992 252.669 113.664 252.669 114.365V154.782C252.669 154.951 252.735 155.112 252.855 155.231C252.974 155.351 253.135 155.417 253.304 155.417C253.472 155.417 253.634 155.351 253.753 155.231C253.872 155.112 253.939 154.951 253.939 154.782V114.365C253.939 113.851 253.838 113.342 253.641 112.867C253.444 112.392 253.156 111.961 252.793 111.597C252.429 111.234 251.998 110.945 251.523 110.749C251.048 110.552 250.539 110.451 250.025 110.451H207.103C206.934 110.451 206.773 110.518 206.654 110.637C206.534 110.756 206.468 110.917 206.468 111.086C206.468 111.254 206.534 111.416 206.654 111.535C206.773 111.654 206.934 111.721 207.103 111.721Z" fill="#6599FF"/>
<path d="M250.025 114.365H199.205V145.513H250.025V114.365Z" fill="white"/>
<path d="M214.463 130.758C214.463 133.007 215.13 135.206 216.379 137.077C217.629 138.947 219.406 140.405 221.484 141.266C223.562 142.127 225.849 142.352 228.055 141.913C230.262 141.474 232.288 140.391 233.879 138.8C235.469 137.21 236.553 135.183 236.991 132.977C237.43 130.77 237.205 128.483 236.344 126.405C235.483 124.327 234.026 122.551 232.155 121.301C230.285 120.051 228.086 119.384 225.836 119.384C224.343 119.384 222.864 119.678 221.484 120.25C220.104 120.821 218.85 121.659 217.794 122.715C216.737 123.771 215.9 125.025 215.328 126.405C214.757 127.785 214.463 129.264 214.463 130.758Z" fill="#F0F3FF"/>
<path d="M221.879 125.875C221.879 125.042 222.457 124.722 223.162 125.163L230.833 129.957C231.538 130.398 231.538 131.12 230.833 131.561L223.164 136.354C222.459 136.794 221.881 136.475 221.881 135.642V125.875H221.879Z" fill="#316FEA"/>
<path fill-rule="evenodd" clip-rule="evenodd" d="M43.339 141.936L41.2043 153.322C41.1662 153.513 41.0542 153.682 40.8927 153.791C40.7311 153.9 40.533 153.942 40.3413 153.906C40.1497 153.87 39.9799 153.76 39.8688 153.599C39.7577 153.439 39.7142 153.242 39.7479 153.05L40.4448 149.334C40.4716 149.17 40.4333 149.002 40.338 148.867C40.2427 148.731 40.0981 148.637 39.9349 148.607C39.7718 148.576 39.6032 148.611 39.4653 148.703C39.3273 148.795 39.2309 148.938 39.1966 149.1L38.4998 152.816C38.4015 153.34 38.5155 153.882 38.8168 154.322C39.118 154.762 39.5818 155.065 40.1061 155.163C40.6303 155.261 41.1722 155.147 41.6123 154.846C42.0525 154.545 42.355 154.081 42.4533 153.557L44.588 142.169C44.6148 142.006 44.5765 141.838 44.4812 141.702C44.3859 141.566 44.2413 141.473 44.0781 141.442C43.915 141.412 43.7464 141.446 43.6085 141.539C43.4705 141.631 43.3741 141.773 43.3398 141.936H43.339Z" fill="#6599FF"/>
<path fill-rule="evenodd" clip-rule="evenodd" d="M51.3687 140.54L53.7142 153.05C53.7479 153.242 53.7045 153.439 53.5934 153.6C53.4823 153.76 53.3125 153.87 53.1208 153.906C52.9291 153.942 52.731 153.901 52.5695 153.791C52.4079 153.682 52.2959 153.514 52.2578 153.322L51.6236 149.94C51.6094 149.857 51.5788 149.778 51.5336 149.707C51.4884 149.636 51.4295 149.574 51.3603 149.526C51.2911 149.478 51.213 149.444 51.1306 149.426C51.0482 149.409 50.9631 149.408 50.8803 149.423C50.7975 149.439 50.7186 149.471 50.6482 149.517C50.5779 149.563 50.5174 149.623 50.4705 149.693C50.4235 149.763 50.3909 149.842 50.3746 149.925C50.3582 150.007 50.3586 150.092 50.3755 150.175L51.0097 153.557C51.1079 154.081 51.4104 154.545 51.8506 154.846C52.2908 155.147 52.8326 155.261 53.3569 155.163C53.8812 155.065 54.345 154.762 54.6462 154.322C54.9474 153.882 55.0615 153.34 54.9632 152.816L52.6177 140.306C52.5866 140.14 52.491 139.994 52.3519 139.899C52.2128 139.804 52.0416 139.768 51.8759 139.799C51.7103 139.83 51.5638 139.925 51.4687 140.064C51.3736 140.204 51.3376 140.375 51.3687 140.54Z" fill="#6599FF"/>
<path d="M71.7513 139.954C71.7504 140.336 71.5985 140.702 71.3289 140.973C71.0593 141.243 70.6936 141.396 70.3118 141.398H23.1591C22.7766 141.397 22.4101 141.244 22.1397 140.974C21.8692 140.703 21.7167 140.337 21.7153 139.954V106.876C21.718 106.494 21.8711 106.129 22.1414 105.859C22.4117 105.59 22.7774 105.438 23.1591 105.436H70.3126C70.6938 105.438 71.0588 105.59 71.3283 105.86C71.5978 106.13 71.7501 106.494 71.7521 106.876L71.7513 139.954Z" fill="#F0F3FF"/>
<path fill-rule="evenodd" clip-rule="evenodd" d="M70.3082 140.763H23.1589C22.9448 140.762 22.7396 140.677 22.5881 140.526C22.4366 140.374 22.3511 140.169 22.3502 139.955V120.818C22.3502 120.65 22.2833 120.488 22.1642 120.369C22.0451 120.25 21.8836 120.183 21.7151 120.183C21.5467 120.183 21.3852 120.25 21.2661 120.369C21.147 120.488 21.0801 120.65 21.0801 120.818V139.955C21.0819 140.506 21.3015 141.034 21.691 141.423C22.0805 141.812 22.6082 142.032 23.1589 142.033H70.3125C70.4809 142.033 70.6424 141.966 70.7615 141.847C70.8806 141.728 70.9475 141.567 70.9475 141.398C70.9475 141.23 70.8806 141.068 70.7615 140.949C70.6424 140.83 70.4809 140.763 70.3125 140.763H70.3082Z" fill="#6599FF"/>
<path fill-rule="evenodd" clip-rule="evenodd" d="M23.159 106.068H70.3125C70.5267 106.069 70.7319 106.154 70.8833 106.306C71.0347 106.457 71.1199 106.662 71.1204 106.877V128.036C71.1204 128.205 71.1873 128.366 71.3064 128.485C71.4255 128.604 71.587 128.671 71.7554 128.671C71.9239 128.671 72.0854 128.604 72.2045 128.485C72.3236 128.366 72.3905 128.205 72.3905 128.036V106.877C72.3889 106.326 72.1695 105.798 71.7802 105.409C71.3909 105.019 70.8632 104.8 70.3125 104.798H23.159C22.9906 104.798 22.829 104.865 22.7099 104.984C22.5908 105.103 22.5239 105.264 22.5239 105.433C22.5239 105.601 22.5908 105.763 22.7099 105.882C22.829 106.001 22.9906 106.068 23.159 106.068Z" fill="#6599FF"/>
<path d="M66.6986 137.79C67.0797 137.788 67.4445 137.635 67.714 137.366C67.9835 137.097 68.1358 136.732 68.1381 136.351V110.485C68.1361 110.103 67.9838 109.738 67.7142 109.469C67.4447 109.199 67.0797 109.047 66.6986 109.045H26.7636C26.3817 109.046 26.0156 109.198 25.7452 109.467C25.4747 109.737 25.3218 110.103 25.3198 110.485V136.347C25.3221 136.729 25.475 137.094 25.7454 137.364C26.0158 137.634 26.3817 137.786 26.7636 137.787L66.6986 137.79Z" fill="white"/>
<path fill-rule="evenodd" clip-rule="evenodd" d="M31.3352 115.628L33.9069 113.056C34.0543 112.909 34.2542 112.826 34.4627 112.826C34.6713 112.826 34.8712 112.909 35.0186 113.056C35.1661 113.204 35.2489 113.404 35.2489 113.612C35.2489 113.821 35.1661 114.021 35.0186 114.168L31.8916 117.296C31.7438 117.443 31.5438 117.526 31.3352 117.526C31.1267 117.526 30.9267 117.443 30.7789 117.296L29.2158 115.733C29.1427 115.66 29.0848 115.573 29.0452 115.478C29.0057 115.382 28.9854 115.28 28.9854 115.176C28.9854 115.073 29.0057 114.971 29.0452 114.875C29.0848 114.78 29.1427 114.693 29.2158 114.62C29.2888 114.547 29.3756 114.489 29.471 114.45C29.5665 114.41 29.6688 114.39 29.7721 114.39C29.8754 114.39 29.9777 114.41 30.0732 114.45C30.1686 114.489 30.2554 114.547 30.3284 114.62L31.3352 115.628Z" fill="#6599FF"/>
<path fill-rule="evenodd" clip-rule="evenodd" d="M38.371 115.962H63.3903C63.4957 115.966 63.6008 115.948 63.6992 115.91C63.7976 115.872 63.8874 115.815 63.9631 115.741C64.0389 115.668 64.0992 115.58 64.1404 115.483C64.1815 115.386 64.2027 115.282 64.2027 115.176C64.2027 115.071 64.1815 114.966 64.1404 114.869C64.0992 114.772 64.0389 114.684 63.9631 114.611C63.8874 114.537 63.7976 114.48 63.6992 114.442C63.6008 114.404 63.4957 114.386 63.3903 114.39H38.371C38.2656 114.386 38.1606 114.404 38.0622 114.442C37.9638 114.48 37.874 114.537 37.7982 114.611C37.7224 114.684 37.6621 114.772 37.621 114.869C37.5798 114.966 37.5586 115.071 37.5586 115.176C37.5586 115.282 37.5798 115.386 37.621 115.483C37.6621 115.58 37.7224 115.668 37.7982 115.741C37.874 115.815 37.9638 115.872 38.0622 115.91C38.1606 115.948 38.2656 115.966 38.371 115.962Z" fill="#6599FF"/>
<path fill-rule="evenodd" clip-rule="evenodd" d="M31.3351 123.447L33.9067 120.874C34.0553 120.731 34.2537 120.653 34.4594 120.655C34.6651 120.657 34.8617 120.74 35.0071 120.886C35.1525 121.031 35.2351 121.228 35.2373 121.434C35.2394 121.639 35.1609 121.838 35.0185 121.986L31.8914 125.113C31.8184 125.186 31.7317 125.244 31.6363 125.284C31.5408 125.324 31.4385 125.344 31.3351 125.344C31.2318 125.344 31.1294 125.324 31.034 125.284C30.9385 125.244 30.8518 125.186 30.7788 125.113L29.2157 123.549C29.0734 123.401 28.9951 123.202 28.9974 122.997C28.9997 122.791 29.0824 122.594 29.2279 122.449C29.3734 122.303 29.5701 122.221 29.7758 122.219C29.9815 122.217 30.1798 122.295 30.3283 122.437L31.336 123.446L31.3351 123.447Z" fill="#6599FF"/>
<path fill-rule="evenodd" clip-rule="evenodd" d="M38.3711 123.78H63.3904C63.599 123.78 63.7991 123.698 63.9466 123.55C64.0942 123.403 64.177 123.202 64.177 122.994C64.177 122.785 64.0942 122.585 63.9466 122.438C63.7991 122.29 63.599 122.207 63.3904 122.207H38.3711C38.1625 122.207 37.9624 122.29 37.8149 122.438C37.6674 122.585 37.5845 122.785 37.5845 122.994C37.5845 123.202 37.6674 123.403 37.8149 123.55C37.9624 123.698 38.1625 123.78 38.3711 123.78Z" fill="#6599FF"/>
<path fill-rule="evenodd" clip-rule="evenodd" d="M31.3354 131.266L33.907 128.694C34.0544 128.547 34.2544 128.464 34.4629 128.464C34.6714 128.464 34.8714 128.547 35.0188 128.694C35.1662 128.842 35.2491 129.042 35.2491 129.25C35.2491 129.459 35.1662 129.659 35.0188 129.806L31.8917 132.933C31.8186 133.006 31.7319 133.064 31.6365 133.104C31.541 133.143 31.4387 133.164 31.3354 133.164C31.232 133.164 31.1297 133.143 31.0343 133.104C30.9388 133.064 30.8521 133.006 30.779 132.933L29.2159 131.374C29.1403 131.301 29.0799 131.214 29.0383 131.118C28.9967 131.022 28.9748 130.919 28.9737 130.814C28.9726 130.709 28.9924 130.605 29.032 130.508C29.0716 130.411 29.1302 130.323 29.2042 130.249C29.2783 130.175 29.3664 130.117 29.4634 130.077C29.5604 130.038 29.6643 130.018 29.769 130.019C29.8738 130.02 29.9772 130.042 30.0733 130.084C30.1694 130.126 30.2561 130.186 30.3286 130.262L31.3362 131.27L31.3354 131.266Z" fill="#6599FF"/>
<path fill-rule="evenodd" clip-rule="evenodd" d="M38.3711 131.598H63.3904C63.599 131.598 63.7991 131.516 63.9466 131.368C64.0942 131.221 64.177 131.02 64.177 130.812C64.177 130.603 64.0942 130.403 63.9466 130.256C63.7991 130.108 63.599 130.025 63.3904 130.025H38.3711C38.1625 130.025 37.9624 130.108 37.8149 130.256C37.6674 130.403 37.5845 130.603 37.5845 130.812C37.5845 131.02 37.6674 131.221 37.8149 131.368C37.9624 131.516 38.1625 131.598 38.3711 131.598Z" fill="#6599FF"/>
</svg>
