<svg width="28" height="28" viewBox="0 0 28 28" fill="none" xmlns="http://www.w3.org/2000/svg">
<path fill-rule="evenodd" clip-rule="evenodd" d="M14 1.84383C20.731 1.84383 26.1875 7.30027 26.1875 14.0314C26.1875 20.7623 20.731 26.2188 14 26.2188C7.26902 26.2188 1.8125 20.7623 1.8125 14.0314C1.8125 7.30027 7.26902 1.84383 14 1.84383Z" fill="#F4F8FF"/>
<g clip-path="url(#clip0)">
<path d="M7 18.3851C7 18.4687 7.01647 18.5514 7.04846 18.6286C7.08045 18.7058 7.12734 18.7759 7.18644 18.835L9.16385 20.8136C9.28321 20.9328 9.445 20.9997 9.61368 20.9997C9.78237 20.9997 9.94416 20.9328 10.0635 20.8136L15.0108 15.8672L16.9912 13.8883C17.1104 13.7689 17.1774 13.607 17.1774 13.4383C17.1774 13.2696 17.1104 13.1077 16.9912 12.9883L15.012 11.0091C14.8926 10.8899 14.7307 10.8229 14.562 10.8229C14.3933 10.8229 14.2314 10.8899 14.112 11.0091L12.1337 12.9877L7.18644 17.9356C7.06715 18.0548 7.00009 18.2165 7 18.3851ZM14.5621 12.3595L15.6438 13.4414L14.5621 14.5234L13.4835 13.4414L14.5621 12.3595ZM12.5835 14.3381L13.6655 15.4197L9.61816 19.4665L8.53951 18.3851L12.5835 14.3381Z" fill="#7795CA"/>
<path d="M18.9695 9.03082C18.9104 8.97172 18.8403 8.92484 18.7631 8.89286C18.686 8.86087 18.6032 8.84441 18.5197 8.84441C18.4361 8.84441 18.3534 8.86087 18.2762 8.89286C18.199 8.92484 18.1289 8.97172 18.0698 9.03082L17.0801 10.0203C16.9587 10.1375 16.8888 10.2982 16.8859 10.4669C16.883 10.6357 16.9472 10.7987 17.0644 10.9201C17.1817 11.0415 17.3423 11.1113 17.5111 11.1143C17.6798 11.1172 17.8428 11.053 17.9642 10.9358L17.9801 10.9202L18.9695 9.93049C19.0286 9.87143 19.0755 9.8013 19.1075 9.72411C19.1394 9.64693 19.1559 9.5642 19.1559 9.48065C19.1559 9.3971 19.1394 9.31437 19.1075 9.23719C19.0755 9.16 19.0286 9.08988 18.9695 9.03082Z" fill="#7795CA"/>
<path d="M20.3638 13.3H18.9639C18.7974 13.3036 18.6391 13.3723 18.5227 13.4912C18.4063 13.6102 18.3411 13.77 18.3411 13.9365C18.3411 14.1029 18.4063 14.2627 18.5227 14.3817C18.6391 14.5006 18.7974 14.5693 18.9639 14.5729H20.3638C20.4485 14.5747 20.5327 14.5596 20.6116 14.5284C20.6904 14.4973 20.7622 14.4507 20.8228 14.3914C20.8833 14.3321 20.9315 14.2614 20.9643 14.1832C20.9972 14.1051 21.0141 14.0212 21.0141 13.9365C21.0141 13.8517 20.9972 13.7678 20.9643 13.6897C20.9315 13.6116 20.8833 13.5408 20.8228 13.4815C20.7622 13.4222 20.6904 13.3756 20.6116 13.3445C20.5327 13.3133 20.4485 13.2982 20.3638 13.3Z" fill="#7795CA"/>
<path d="M17.9801 16.9458C17.8628 16.8244 17.7022 16.7546 17.5334 16.7516C17.3647 16.7487 17.2017 16.8129 17.0803 16.9302C16.9589 17.0474 16.889 17.2081 16.8861 17.3768C16.8831 17.5456 16.9474 17.7086 17.0646 17.83L17.0801 17.8458L18.0728 18.8364C18.1933 18.9496 18.353 19.0115 18.5182 19.009C18.6835 19.0065 18.8413 18.9398 18.9582 18.823C19.0751 18.7062 19.142 18.5485 19.1448 18.3833C19.1475 18.2181 19.0858 18.0582 18.9728 17.9377L17.9801 16.9458Z" fill="#7795CA"/>
<path d="M9.16388 9.03081C9.10479 9.08987 9.05791 9.15999 9.02592 9.23718C8.99394 9.31436 8.97748 9.39709 8.97748 9.48064C8.97748 9.56419 8.99394 9.64692 9.02592 9.7241C9.05791 9.80129 9.10479 9.87141 9.16388 9.93047L10.1545 10.9202C10.2749 11.0347 10.4352 11.0976 10.6012 11.0956C10.7673 11.0935 10.926 11.0266 11.0434 10.9092C11.1609 10.7917 11.2278 10.633 11.2298 10.467C11.2319 10.3009 11.169 10.1406 11.0545 10.0203L10.0647 9.03081C9.94537 8.91151 9.78352 8.8445 9.61476 8.8445C9.446 8.8445 9.28415 8.91151 9.16478 9.03081H9.16388Z" fill="#7795CA"/>
<path d="M13.4313 7.63657V9.03648C13.4313 9.20523 13.4984 9.36707 13.6177 9.48639C13.737 9.60572 13.8989 9.67275 14.0676 9.67275C14.2364 9.67275 14.3982 9.60572 14.5175 9.48639C14.6368 9.36707 14.7039 9.20523 14.7039 9.03648V7.63657C14.7039 7.46782 14.6368 7.30599 14.5175 7.18666C14.3982 7.06734 14.2364 7.0003 14.0676 7.0003C13.8989 7.0003 13.737 7.06734 13.6177 7.18666C13.4984 7.30599 13.4313 7.46782 13.4313 7.63657Z" fill="#7795CA"/>
</g>
<defs>
<clipPath id="clip0">
<rect width="14" height="14" fill="white" transform="translate(7 7)"/>
</clipPath>
</defs>
</svg>
