<svg width="28" height="28" viewBox="0 0 28 28" fill="none" xmlns="http://www.w3.org/2000/svg">
<path fill-rule="evenodd" clip-rule="evenodd" d="M14 1.84383C20.731 1.84383 26.1875 7.30027 26.1875 14.0314C26.1875 20.7623 20.731 26.2188 14 26.2188C7.26902 26.2188 1.8125 20.7623 1.8125 14.0314C1.8125 7.30027 7.26902 1.84383 14 1.84383Z" fill="#E8F7EA"/>
<path d="M18.7188 11.8609L12.7482 18.6829C12.397 19.0874 11.835 19.1142 11.4605 18.7097L8.29962 15.3933C7.92509 14.9888 7.90177 14.3146 8.2292 13.8833C8.5804 13.452 9.16575 13.4251 9.54028 13.8296L12.0454 16.4724L17.3844 10.3235C17.7589 9.89216 18.3442 9.89216 18.7188 10.3235C19.0937 10.7554 19.0937 11.4295 18.7188 11.8609Z" fill="#289C23"/>
</svg>
