<svg width="272" height="155" viewBox="0 0 272 155" fill="none" xmlns="http://www.w3.org/2000/svg">
<path fill-rule="evenodd" clip-rule="evenodd" d="M63.0603 153.637C61.7081 152.091 60.4064 150.498 59.1554 148.86C58.177 147.579 56.9178 146.542 55.4754 145.828C54.0329 145.114 52.4458 144.742 50.8372 144.742C44.5456 144.735 34.9465 144.735 34.9465 144.735C31.9374 144.735 29.0516 143.537 26.9238 141.403C24.7961 139.269 23.6007 136.375 23.6007 133.357C23.6006 131.863 23.894 130.383 24.4641 129.003C25.0343 127.622 25.87 126.368 26.9235 125.311C27.9771 124.255 29.2279 123.416 30.6044 122.845C31.981 122.273 33.4564 121.978 34.9465 121.978H70.8006C73.8099 121.978 76.6959 120.779 78.8238 118.646C80.9517 116.512 82.1471 113.617 82.1471 110.599C82.1458 107.582 80.9498 104.689 78.822 102.557C76.6943 100.424 73.809 99.2255 70.8006 99.2255H11.3465C8.33726 99.2255 5.45122 98.0266 3.32333 95.8927C1.19544 93.7587 0 90.8644 0 87.8465C0 84.8287 1.19544 81.9344 3.32333 79.8004C5.45122 77.6664 8.33726 76.4676 11.3465 76.4676H52.1928C53.6828 76.4677 55.1582 76.1735 56.5348 75.6017C57.9115 75.03 59.1623 74.1919 60.2159 73.1353C61.2696 72.0788 62.1054 70.8244 62.6756 69.4439C63.2458 68.0634 63.5393 66.5837 63.5393 65.0895C63.5393 63.5952 63.2458 62.1156 62.6756 60.7351C62.1054 59.3546 61.2696 58.1002 60.2159 57.0437C59.1623 55.9871 57.9115 55.149 56.5348 54.5772C55.1582 54.0055 53.6828 53.7113 52.1928 53.7114H29.9543C28.4639 53.7114 26.9881 53.4169 25.6112 52.8448C24.2343 52.2727 22.9833 51.4342 21.9296 50.3771C20.876 49.32 20.0403 48.0651 19.4703 46.6841C18.9003 45.303 18.6072 43.8229 18.6078 42.3282C18.6078 39.3103 19.8032 36.4161 21.9311 34.2821C24.059 32.1481 26.9451 30.9493 29.9543 30.9493H59.121C60.5255 30.9492 61.9156 30.6662 63.2089 30.1171C64.5022 29.5679 65.6723 28.7638 66.6498 27.7525C83.4012 10.6218 106.735 -0.000854492 132.525 -0.000854492C167.471 -0.000854492 197.909 19.5056 213.595 48.2398C214.498 49.892 215.827 51.2703 217.443 52.2304C219.06 53.1905 220.904 53.6971 222.783 53.6971C229.674 53.7063 239.633 53.7063 239.633 53.7063C242.642 53.7063 245.528 54.9051 247.656 57.0389C249.783 59.1727 250.979 62.0668 250.979 65.0844C250.979 68.1021 249.783 70.9962 247.656 73.13C245.528 75.2638 242.642 76.4625 239.633 76.4625H217.394C214.385 76.4625 211.498 77.6614 209.371 79.7954C207.243 81.9293 206.047 84.8236 206.047 87.8415C206.047 89.3362 206.34 90.8164 206.91 92.1976C207.479 93.5787 208.315 94.8337 209.369 95.8909C210.423 96.9481 211.674 97.7867 213.051 98.3588C214.427 98.931 215.903 99.2255 217.394 99.2255H254.156C257.165 99.2255 260.05 100.424 262.178 102.558C264.306 104.692 265.501 107.586 265.501 110.604C265.501 112.098 265.208 113.578 264.638 114.958C264.068 116.339 263.232 117.593 262.178 118.65C261.125 119.706 259.874 120.545 258.498 121.116C257.121 121.688 255.646 121.983 254.156 121.983H227.376C225.313 121.982 223.295 122.593 221.575 123.737C219.856 124.882 218.512 126.51 217.711 128.417C213.857 137.619 208.546 146.136 201.984 153.639L63.0603 153.637Z" fill="#F3F6FF"/>
<path fill-rule="evenodd" clip-rule="evenodd" d="M231.738 153.006H97.9388C97.772 153.006 97.612 153.072 97.494 153.191C97.376 153.309 97.3097 153.47 97.3097 153.637C97.3097 153.804 97.376 153.965 97.494 154.083C97.612 154.201 97.772 154.268 97.9388 154.268H231.738C231.905 154.268 232.065 154.201 232.183 154.083C232.301 153.965 232.368 153.804 232.368 153.637C232.368 153.47 232.301 153.309 232.183 153.191C232.065 153.072 231.905 153.006 231.738 153.006Z" fill="#6599FF"/>
<path fill-rule="evenodd" clip-rule="evenodd" d="M91.2279 153.006H36.6813C36.5144 153.006 36.3544 153.072 36.2364 153.191C36.1184 153.309 36.0521 153.47 36.0521 153.637C36.0521 153.804 36.1184 153.965 36.2364 154.083C36.3544 154.201 36.5144 154.268 36.6813 154.268H91.2279C91.3947 154.268 91.5548 154.201 91.6728 154.083C91.7908 153.965 91.857 153.804 91.857 153.637C91.857 153.47 91.7908 153.309 91.6728 153.191C91.5548 153.072 91.3947 153.006 91.2279 153.006Z" fill="#6599FF"/>
<path d="M34.4926 131.249C52.1821 131.249 66.5223 116.679 66.5223 98.7049C66.5223 80.7311 52.1821 66.1605 34.4926 66.1605C16.8031 66.1605 2.46289 80.7311 2.46289 98.7049C2.46289 116.679 16.8031 131.249 34.4926 131.249Z" fill="white"/>
<path fill-rule="evenodd" clip-rule="evenodd" d="M37.5821 132.119C47.0957 125.246 53.4653 112.854 53.4653 98.7065C53.4653 84.5589 47.0957 72.1654 37.5821 65.2923C37.3285 65.1092 37.0127 65.0347 36.7043 65.0851C36.3959 65.1355 36.1201 65.3067 35.9375 65.5611C35.755 65.8154 35.6807 66.1321 35.7309 66.4414C35.7812 66.7507 35.9519 67.0273 36.2055 67.2104C45.1647 73.6822 51.1089 85.3766 51.1089 98.7065C51.1089 112.036 45.1647 123.728 36.2055 130.202C36.08 130.292 35.9735 130.407 35.8921 130.539C35.8107 130.671 35.7561 130.818 35.7312 130.971C35.7064 131.124 35.7118 131.28 35.7473 131.431C35.7828 131.582 35.8476 131.725 35.9379 131.851C36.0283 131.977 36.1426 132.083 36.2741 132.165C36.4056 132.247 36.5519 132.301 36.7046 132.326C36.8573 132.351 37.0134 132.346 37.1639 132.31C37.3145 132.275 37.4566 132.21 37.5821 132.119Z" fill="#F0F3FF"/>
<path fill-rule="evenodd" clip-rule="evenodd" d="M32.0247 65.2923C22.5111 72.1637 16.1416 84.5522 16.1416 98.7048C16.1416 112.857 22.5111 125.244 32.0247 132.119C32.1503 132.21 32.2924 132.275 32.443 132.31C32.5936 132.346 32.7497 132.351 32.9024 132.327C33.0551 132.302 33.2014 132.247 33.333 132.165C33.4646 132.084 33.5789 131.977 33.6693 131.851C33.7598 131.725 33.8246 131.583 33.8601 131.432C33.8957 131.281 33.9012 131.124 33.8764 130.971C33.8516 130.818 33.7969 130.671 33.7155 130.539C33.6342 130.407 33.5277 130.292 33.4022 130.202C24.4422 123.724 18.498 112.03 18.498 98.7064C18.498 85.3825 24.4422 73.6822 33.4013 67.2103C33.6549 67.0273 33.8255 66.7507 33.8757 66.4415C33.9258 66.1323 33.8515 65.8157 33.6689 65.5615C33.4864 65.3072 33.2106 65.1361 32.9023 65.0858C32.5939 65.0355 32.2783 65.11 32.0247 65.2931V65.2923Z" fill="#F0F3FF"/>
<path fill-rule="evenodd" clip-rule="evenodd" d="M57.7293 75.8476C51.0863 79.2564 43.0835 81.2502 34.4926 81.2502C25.9017 81.2502 17.8998 79.2564 11.2559 75.8476C10.9778 75.705 10.6546 75.6789 10.3573 75.7752C10.0601 75.8716 9.81316 76.0823 9.67089 76.3612C9.52861 76.6401 9.50263 76.9643 9.59868 77.2624C9.69472 77.5605 9.90491 77.8081 10.183 77.9508C17.133 81.5177 25.5041 83.6125 34.4918 83.6125C43.4794 83.6125 51.8513 81.5177 58.8014 77.9508C59.0795 77.8081 59.2897 77.5605 59.3857 77.2624C59.4817 76.9643 59.4558 76.6401 59.3135 76.3612C59.1712 76.0823 58.9243 75.8716 58.627 75.7752C58.3298 75.6789 58.0066 75.705 57.7285 75.8476H57.7293Z" fill="#F0F3FF"/>
<path fill-rule="evenodd" clip-rule="evenodd" d="M11.2577 121.451C17.8999 118.04 25.9027 116.049 34.4944 116.049C43.0861 116.049 51.088 118.04 57.731 121.451C57.8687 121.522 58.019 121.565 58.1732 121.577C58.3274 121.59 58.4826 121.572 58.6299 121.524C58.7771 121.476 58.9136 121.4 59.0315 121.3C59.1494 121.199 59.2464 121.076 59.3169 120.938C59.3875 120.8 59.4302 120.649 59.4427 120.495C59.4552 120.34 59.4372 120.184 59.3897 120.037C59.3422 119.889 59.2662 119.752 59.166 119.634C59.0658 119.516 58.9433 119.419 58.8056 119.348C51.8548 115.779 43.4837 113.686 34.4952 113.686C25.5067 113.686 17.1365 115.779 10.1856 119.348C10.0479 119.419 9.92545 119.516 9.82523 119.634C9.72501 119.752 9.64899 119.889 9.60152 120.037C9.55404 120.184 9.53603 120.34 9.54852 120.495C9.56102 120.649 9.60376 120.8 9.67432 120.938C9.74488 121.076 9.84187 121.199 9.95975 121.3C10.0776 121.4 10.2141 121.476 10.3614 121.524C10.5086 121.572 10.6638 121.59 10.818 121.577C10.9722 121.565 11.1225 121.522 11.2602 121.451H11.2577Z" fill="#F0F3FF"/>
<path fill-rule="evenodd" clip-rule="evenodd" d="M2.46384 99.8859H66.5233C66.8357 99.8859 67.1354 99.7615 67.3564 99.5399C67.5773 99.3183 67.7015 99.0178 67.7015 98.7044C67.7015 98.391 67.5773 98.0905 67.3564 97.8689C67.1354 97.6473 66.8357 97.5228 66.5233 97.5228H2.46384C2.15136 97.5228 1.85168 97.6473 1.63073 97.8689C1.40977 98.0905 1.28564 98.391 1.28564 98.7044C1.28564 99.0178 1.40977 99.3183 1.63073 99.5399C1.85168 99.7615 2.15136 99.8859 2.46384 99.8859Z" fill="#F0F3FF"/>
<path fill-rule="evenodd" clip-rule="evenodd" d="M33.3148 66.1639V131.252C33.3148 131.565 33.439 131.866 33.6599 132.087C33.8809 132.309 34.1805 132.433 34.493 132.433C34.8055 132.433 35.1052 132.309 35.3261 132.087C35.5471 131.866 35.6712 131.565 35.6712 131.252V66.1639C35.6712 66.0087 35.6407 65.8551 35.5815 65.7117C35.5223 65.5683 35.4355 65.4381 35.3261 65.3284C35.2167 65.2187 35.0868 65.1316 34.9439 65.0722C34.8009 65.0129 34.6477 64.9823 34.493 64.9823C34.3383 64.9823 34.1851 65.0129 34.0421 65.0722C33.8992 65.1316 33.7693 65.2187 33.6599 65.3284C33.5505 65.4381 33.4637 65.5683 33.4045 65.7117C33.3453 65.8551 33.3148 66.0087 33.3148 66.1639Z" fill="#F0F3FF"/>
<path fill-rule="evenodd" clip-rule="evenodd" d="M34.4936 130.617C17.1609 130.617 3.09302 116.316 3.09302 98.7048C3.09302 81.0938 17.1609 66.7906 34.4936 66.7906C51.8263 66.7906 65.8941 81.0921 65.8941 98.7048C65.9047 104.488 64.3551 110.167 61.4095 115.139C61.3674 115.21 61.3396 115.289 61.3278 115.371C61.316 115.453 61.3204 115.537 61.3408 115.617C61.3612 115.697 61.3972 115.773 61.4467 115.839C61.4962 115.906 61.5583 115.961 61.6293 116.004C61.7004 116.046 61.779 116.074 61.8608 116.086C61.9426 116.098 62.0259 116.093 62.106 116.073C62.1861 116.052 62.2614 116.016 62.3275 115.966C62.3937 115.917 62.4495 115.855 62.4917 115.783C65.5522 110.616 67.1627 104.716 67.1524 98.7057C67.1524 80.3939 52.5159 65.5304 34.4936 65.5304C16.4713 65.5304 1.83472 80.3922 1.83472 98.704C1.83472 117.016 16.4705 131.879 34.4936 131.879C34.6604 131.879 34.8205 131.813 34.9385 131.694C35.0564 131.576 35.1227 131.416 35.1227 131.248C35.1227 131.081 35.0564 130.921 34.9385 130.802C34.8205 130.684 34.6604 130.617 34.4936 130.617Z" fill="#6599FF"/>
<path d="M33.975 30.1803V44.6324C33.9702 46.1641 33.3612 47.6317 32.2812 48.7147C31.2011 49.7976 29.7376 50.4081 28.2103 50.4128H13.8002C12.2728 50.4086 10.8091 49.7982 9.72891 48.7151C8.64875 47.6321 8.03995 46.1643 8.03552 44.6324V30.1803C8.03995 28.6484 8.64872 27.1806 9.72885 26.0973C10.809 25.0141 12.2727 24.4036 13.8002 24.3992H28.2103C29.7379 24.4036 31.2016 25.0141 32.2817 26.0973C33.3618 27.1806 33.9706 28.6484 33.975 30.1803Z" fill="#F0F3FF"/>
<path fill-rule="evenodd" clip-rule="evenodd" d="M18.6792 25.0302H28.2104C29.5713 25.0342 30.8752 25.5781 31.8374 26.5431C32.7997 27.5081 33.342 28.8157 33.346 30.1804V44.6325C33.3437 45.5509 33.0972 46.4521 32.6318 47.2431C32.1664 48.0341 31.499 48.6863 30.6985 49.1324C30.6249 49.172 30.5599 49.226 30.5072 49.291C30.4546 49.3561 30.4154 49.4311 30.392 49.5115C30.3686 49.5919 30.3613 49.6762 30.3708 49.7595C30.3802 49.8427 30.406 49.9233 30.4468 49.9964C30.4876 50.0695 30.5425 50.1338 30.6083 50.1854C30.6741 50.237 30.7495 50.275 30.8301 50.2971C30.9107 50.3192 30.9949 50.3249 31.0777 50.3141C31.1605 50.3032 31.2404 50.2758 31.3126 50.2337C32.3084 49.678 33.1384 48.866 33.717 47.8814C34.2956 46.8968 34.6019 45.7753 34.6043 44.6325V30.1804C34.5992 28.4814 33.9239 26.8534 32.726 25.652C31.528 24.4506 29.9046 23.7734 28.2104 23.7683H18.6792C18.5123 23.7683 18.3523 23.8348 18.2343 23.9531C18.1163 24.0714 18.05 24.2319 18.05 24.3993C18.05 24.5666 18.1163 24.7271 18.2343 24.8454C18.3523 24.9637 18.5123 25.0302 18.6792 25.0302Z" fill="#6599FF"/>
<path fill-rule="evenodd" clip-rule="evenodd" d="M21.1747 49.7819H13.8002C12.4395 49.7781 11.1356 49.2344 10.1733 48.2695C9.21103 47.3047 8.66866 45.9971 8.66468 44.6325V30.1804C8.66646 29.3374 8.87423 28.5076 9.26981 27.7638C9.66539 27.0199 10.2367 26.3846 10.9338 25.9135C11.0053 25.8684 11.067 25.8094 11.1152 25.7399C11.1635 25.6704 11.1973 25.5919 11.2146 25.509C11.232 25.4261 11.2325 25.3406 11.2162 25.2575C11.1999 25.1744 11.1671 25.0955 11.1197 25.0254C11.0724 24.9553 11.0114 24.8955 10.9405 24.8495C10.8696 24.8035 10.7902 24.7723 10.707 24.7578C10.6238 24.7432 10.5386 24.7456 10.4563 24.7648C10.3741 24.784 10.2966 24.8196 10.2283 24.8695C9.36078 25.4558 8.64987 26.2466 8.15789 27.1725C7.6659 28.0984 7.40786 29.1312 7.40637 30.1804V44.6325C7.41124 46.3315 8.08647 47.9595 9.28452 49.1608C10.4826 50.3622 12.106 51.0391 13.8002 51.0438H21.1747C21.3416 51.0438 21.5016 50.9773 21.6196 50.859C21.7376 50.7406 21.8039 50.5801 21.8039 50.4128C21.8039 50.2455 21.7376 50.085 21.6196 49.9667C21.5016 49.8483 21.3416 49.7819 21.1747 49.7819Z" fill="#6599FF"/>
<path fill-rule="evenodd" clip-rule="evenodd" d="M34.6042 39.8221C34.6797 39.876 34.7586 39.9273 34.8366 39.9752L34.845 39.9803L40.9847 43.8829C42.0752 44.5786 43.0533 44.7519 43.7731 44.3566C44.4928 43.9612 44.8745 43.04 44.8745 41.7419V33.0701C44.8745 32.9028 44.9408 32.7423 45.0588 32.624C45.1768 32.5057 45.3368 32.4392 45.5037 32.4392C45.6705 32.4392 45.8305 32.5057 45.9485 32.624C46.0665 32.7423 46.1328 32.9028 46.1328 33.0701V41.7419C46.1328 43.6238 45.4206 44.8899 44.3771 45.4637C43.3335 46.0374 41.8873 45.9566 40.3094 44.948L34.1848 41.0512C33.9604 40.9175 33.7494 40.7622 33.5548 40.5877C33.4905 40.5286 33.4391 40.4567 33.404 40.3766C33.3689 40.2965 33.3509 40.21 33.351 40.1225V34.6896C33.3509 34.602 33.3691 34.5154 33.4043 34.4353C33.4396 34.3552 33.4911 34.2834 33.5556 34.2244C33.7478 34.0524 33.9557 33.8989 34.1764 33.7659L40.3085 29.8641C40.4492 29.7838 40.6154 29.761 40.7724 29.8004C40.9294 29.8397 41.0653 29.9383 41.1517 30.0756C41.2381 30.2129 41.2685 30.3782 41.2364 30.5374C41.2044 30.6965 41.1124 30.8371 40.9796 30.93L34.8341 34.836C34.7561 34.8848 34.6764 34.9361 34.6009 34.9908V39.8221H34.6042Z" fill="#6599FF"/>
<path d="M16.4904 34.2243C16.4904 31.9108 18.091 31.0208 20.0473 32.2473L24.7172 35.1749C26.6735 36.4015 26.6735 38.4079 24.7172 39.6336L20.0456 42.5637C18.0893 43.7903 16.4888 42.9002 16.4888 40.5876V34.2243H16.4904Z" fill="white"/>
<path d="M213.628 43.4657V139.059L155.137 147.749H111.088L51.8757 139.059V43.4665C51.8757 37.0948 57.0767 31.8798 63.4278 31.8798H202.074C208.43 31.8798 213.628 37.0956 213.628 43.4665V43.4657Z" fill="#F0F3FF"/>
<path fill-rule="evenodd" clip-rule="evenodd" d="M52.5049 139.059V86.9178C52.5049 86.7505 52.4386 86.59 52.3206 86.4717C52.2026 86.3533 52.0426 86.2869 51.8757 86.2869C51.7089 86.2869 51.5488 86.3533 51.4309 86.4717C51.3129 86.59 51.2466 86.7505 51.2466 86.9178V139.059C51.2466 139.226 51.3129 139.386 51.4309 139.505C51.5488 139.623 51.7089 139.69 51.8757 139.69C52.0426 139.69 52.2026 139.623 52.3206 139.505C52.4386 139.386 52.5049 139.226 52.5049 139.059Z" fill="#6599FF"/>
<path fill-rule="evenodd" clip-rule="evenodd" d="M52.5049 66.0149V43.469C52.5049 37.4439 57.4207 32.5132 63.4278 32.5132H153.872C154.039 32.5132 154.199 32.4468 154.317 32.3284C154.435 32.2101 154.501 32.0496 154.501 31.8823C154.501 31.715 154.435 31.5545 154.317 31.4361C154.199 31.3178 154.039 31.2513 153.872 31.2513H63.4278C56.7286 31.2513 51.2466 36.7507 51.2466 43.469V66.0149C51.2466 66.1823 51.3129 66.3428 51.4309 66.4611C51.5488 66.5794 51.7089 66.6459 51.8757 66.6459C52.0426 66.6459 52.2026 66.5794 52.3206 66.4611C52.4386 66.3428 52.5049 66.1823 52.5049 66.0149Z" fill="#6599FF"/>
<path fill-rule="evenodd" clip-rule="evenodd" d="M180.691 32.5132H202.074C208.084 32.5132 212.999 37.4447 212.999 43.469C212.999 43.6364 213.065 43.7969 213.183 43.9152C213.301 44.0335 213.461 44.1 213.628 44.1C213.795 44.1 213.955 44.0335 214.073 43.9152C214.191 43.7969 214.257 43.6364 214.257 43.469C214.257 36.7507 208.776 31.2513 202.074 31.2513H180.691C180.524 31.2513 180.364 31.3178 180.246 31.4361C180.128 31.5545 180.062 31.715 180.062 31.8823C180.062 32.0496 180.128 32.2101 180.246 32.3284C180.364 32.4468 180.524 32.5132 180.691 32.5132Z" fill="#6599FF"/>
<path fill-rule="evenodd" clip-rule="evenodd" d="M212.999 73.0193V94.935C212.999 95.1024 213.065 95.2629 213.183 95.3812C213.301 95.4995 213.461 95.566 213.628 95.566C213.795 95.566 213.955 95.4995 214.073 95.3812C214.191 95.2629 214.257 95.1024 214.257 94.935V73.0193C214.257 72.8519 214.191 72.6914 214.073 72.5731C213.955 72.4548 213.795 72.3883 213.628 72.3883C213.461 72.3883 213.301 72.4548 213.183 72.5731C213.065 72.6914 212.999 72.8519 212.999 73.0193Z" fill="#6599FF"/>
<path fill-rule="evenodd" clip-rule="evenodd" d="M212.999 134.931V139.059C212.999 139.226 213.065 139.387 213.183 139.505C213.301 139.623 213.461 139.69 213.628 139.69C213.795 139.69 213.955 139.623 214.073 139.505C214.191 139.387 214.257 139.226 214.257 139.059V134.931C214.257 134.763 214.191 134.603 214.073 134.484C213.955 134.366 213.795 134.3 213.628 134.3C213.461 134.3 213.301 134.366 213.183 134.484C213.065 134.603 212.999 134.763 212.999 134.931Z" fill="#6599FF"/>
<path d="M202.073 43.4673H63.4269V130.369H202.073V43.4673Z" fill="white"/>
<path fill-rule="evenodd" clip-rule="evenodd" d="M201.444 44.0973H71.3525C71.1857 44.0973 71.0257 44.0309 70.9077 43.9125C70.7897 43.7942 70.7234 43.6337 70.7234 43.4664C70.7234 43.2991 70.7897 43.1386 70.9077 43.0203C71.0257 42.9019 71.1857 42.8354 71.3525 42.8354H202.074C202.24 42.8354 202.4 42.9019 202.518 43.0203C202.636 43.1386 202.703 43.2991 202.703 43.4664V73.434C202.703 73.6013 202.636 73.7618 202.518 73.8801C202.4 73.9984 202.24 74.0649 202.074 74.0649C201.907 74.0649 201.747 73.9984 201.629 73.8801C201.511 73.7618 201.444 73.6013 201.444 73.434V44.0973Z" fill="#6599FF"/>
<path fill-rule="evenodd" clip-rule="evenodd" d="M64.056 129.737H202.074C202.24 129.737 202.4 129.804 202.518 129.922C202.636 130.041 202.703 130.201 202.703 130.368C202.703 130.536 202.636 130.696 202.518 130.815C202.4 130.933 202.24 130.999 202.074 130.999H63.4269C63.26 130.999 63.1 130.933 62.982 130.815C62.864 130.696 62.7977 130.536 62.7977 130.368V101.643C62.7977 101.475 62.864 101.315 62.982 101.196C63.1 101.078 63.26 101.012 63.4269 101.012C63.5937 101.012 63.7538 101.078 63.8718 101.196C63.9898 101.315 64.056 101.475 64.056 101.643V129.741V129.737Z" fill="#6599FF"/>
<path d="M219.407 139.059V141.954C219.407 148.328 214.21 153.542 207.855 153.542H57.6521C51.2968 153.542 46.0975 148.326 46.0975 141.953V139.059H118.311L119.914 142.256C120.619 143.692 122.498 144.85 124.086 144.85H141.417C143.005 144.85 144.884 143.692 145.591 142.256L147.196 139.059H219.407V139.059Z" fill="white"/>
<path fill-rule="evenodd" clip-rule="evenodd" d="M117.923 139.69H100.455C100.288 139.69 100.128 139.624 100.01 139.506C99.8925 139.387 99.8262 139.227 99.8262 139.059C99.8262 138.892 99.8925 138.732 100.01 138.613C100.128 138.495 100.288 138.428 100.455 138.428H118.312C118.428 138.428 118.543 138.461 118.642 138.522C118.741 138.584 118.821 138.672 118.874 138.777L120.479 141.979C121.089 143.221 122.714 144.221 124.086 144.221H141.416C142.791 144.221 144.415 143.221 145.024 141.979L146.63 138.776C146.683 138.671 146.763 138.584 146.862 138.522C146.962 138.461 147.076 138.429 147.193 138.428H219.407C219.574 138.428 219.734 138.495 219.852 138.613C219.97 138.732 220.036 138.892 220.036 139.059V141.955C220.036 148.676 214.557 154.174 207.855 154.174H98.9294C98.7626 154.174 98.6026 154.107 98.4846 153.989C98.3666 153.87 98.3003 153.71 98.3003 153.543C98.3003 153.375 98.3666 153.215 98.4846 153.096C98.6026 152.978 98.7626 152.912 98.9294 152.912H207.852C213.861 152.912 218.775 147.982 218.775 141.955V139.69H147.583L146.157 142.538C145.355 144.168 143.221 145.482 141.419 145.482H124.086C122.284 145.482 120.15 144.168 119.352 142.538L117.926 139.686L117.923 139.69Z" fill="#6599FF"/>
<path fill-rule="evenodd" clip-rule="evenodd" d="M45.7267 139.69V141.955C45.7267 147.982 50.6425 152.913 56.6521 152.913H120.787C120.954 152.913 121.114 152.979 121.232 153.097C121.35 153.216 121.417 153.376 121.417 153.543C121.417 153.711 121.35 153.871 121.232 153.99C121.114 154.108 120.954 154.174 120.787 154.174H56.6521C49.9504 154.174 44.4684 148.676 44.4684 141.955V139.059C44.4684 138.892 44.5347 138.732 44.6527 138.613C44.7706 138.495 44.9307 138.428 45.0975 138.428H111.01C111.176 138.428 111.336 138.495 111.454 138.613C111.572 138.732 111.639 138.892 111.639 139.059C111.639 139.227 111.572 139.387 111.454 139.506C111.336 139.624 111.176 139.69 111.01 139.69H45.7267Z" fill="#6599FF"/>
<path d="M212.612 144.98C212.866 145.918 213.479 146.717 214.318 147.203C215.158 147.689 216.154 147.821 217.091 147.572L268.662 133.717C269.597 133.463 270.394 132.848 270.878 132.006C271.362 131.165 271.495 130.165 271.247 129.226L262.945 98.1605C262.691 97.2228 262.078 96.4239 261.239 95.9381C260.4 95.4523 259.403 95.3192 258.467 95.5677L206.893 109.427C205.958 109.681 205.161 110.296 204.676 111.137C204.191 111.979 204.059 112.979 204.307 113.918L212.612 144.98Z" fill="#F0F3FF"/>
<path fill-rule="evenodd" clip-rule="evenodd" d="M258.307 94.9586L206.733 108.816C205.637 109.114 204.703 109.834 204.135 110.82C203.568 111.807 203.412 112.978 203.703 114.079L207.464 128.157C207.484 128.239 207.519 128.316 207.569 128.384C207.619 128.452 207.682 128.51 207.754 128.553C207.826 128.596 207.907 128.624 207.99 128.636C208.073 128.648 208.158 128.642 208.239 128.62C208.321 128.598 208.397 128.56 208.463 128.509C208.53 128.457 208.585 128.392 208.626 128.318C208.667 128.244 208.693 128.163 208.702 128.079C208.711 127.995 208.703 127.91 208.679 127.829L204.918 113.753C204.713 112.975 204.823 112.147 205.224 111.451C205.625 110.754 206.285 110.245 207.059 110.035L258.633 96.1751C258.788 96.1273 258.92 96.0206 258.999 95.8776C259.078 95.7346 259.098 95.5664 259.056 95.4084C259.014 95.2505 258.912 95.1152 258.773 95.0309C258.633 94.9467 258.466 94.9202 258.307 94.957V94.9586Z" fill="#6599FF"/>
<path fill-rule="evenodd" clip-rule="evenodd" d="M217.251 148.182L268.825 134.324C269.921 134.026 270.855 133.305 271.422 132.319C271.99 131.332 272.146 130.161 271.855 129.06L265.671 105.915C265.628 105.754 265.522 105.616 265.378 105.532C265.233 105.448 265.061 105.426 264.9 105.469C264.739 105.512 264.602 105.618 264.518 105.763C264.435 105.908 264.412 106.08 264.455 106.242L270.639 129.387C270.845 130.164 270.735 130.992 270.334 131.689C269.933 132.386 269.273 132.895 268.499 133.106L216.926 146.963C216.764 147.006 216.627 147.112 216.544 147.257C216.46 147.402 216.437 147.574 216.481 147.736C216.524 147.897 216.629 148.035 216.774 148.119C216.918 148.203 217.09 148.225 217.251 148.182Z" fill="#6599FF"/>
<path d="M244.786 128.598C248.656 124.717 248.656 118.424 244.786 114.543C240.916 110.662 234.641 110.662 230.771 114.543C226.9 118.424 226.9 124.717 230.771 128.598C234.641 132.48 240.916 132.48 244.786 128.598Z" fill="white"/>
<path d="M234.011 117.387C233.482 117.219 233.172 117.515 233.311 118.054L235.66 126.856C235.804 127.394 236.226 127.497 236.598 127.083L242.097 120.98C242.469 120.566 242.342 120.087 241.812 119.916L234.011 117.387Z" fill="#316FEA"/>
<path d="M213.017 112.704C213.071 112.907 213.042 113.123 212.937 113.305C212.833 113.487 212.661 113.62 212.459 113.675L209.213 114.547C209.011 114.6 208.796 114.572 208.614 114.467C208.433 114.362 208.301 114.19 208.246 113.987L207.887 112.646C207.834 112.443 207.862 112.227 207.967 112.046C208.072 111.864 208.244 111.731 208.446 111.676L211.691 110.803C211.894 110.75 212.109 110.778 212.29 110.883C212.472 110.988 212.604 111.161 212.659 111.363L213.017 112.704Z" fill="#F0F3FF"/>
<path d="M222.369 110.191C222.422 110.394 222.394 110.61 222.289 110.792C222.184 110.974 222.012 111.106 221.81 111.161L218.568 112.034C218.366 112.087 218.151 112.058 217.969 111.954C217.788 111.849 217.656 111.676 217.601 111.474L217.243 110.133C217.189 109.93 217.218 109.714 217.323 109.532C217.428 109.35 217.6 109.218 217.801 109.163L221.047 108.29C221.249 108.236 221.465 108.265 221.646 108.37C221.827 108.475 221.96 108.648 222.014 108.85L222.369 110.191Z" fill="#F0F3FF"/>
<path d="M231.722 107.679C231.775 107.881 231.746 108.097 231.642 108.279C231.537 108.461 231.365 108.594 231.163 108.649L227.917 109.521C227.715 109.574 227.5 109.546 227.319 109.441C227.138 109.336 227.005 109.163 226.95 108.961L226.591 107.62C226.538 107.417 226.567 107.201 226.671 107.019C226.776 106.838 226.948 106.705 227.15 106.65L230.396 105.777C230.598 105.724 230.813 105.753 230.994 105.858C231.175 105.963 231.308 106.135 231.363 106.338L231.722 107.679Z" fill="#F0F3FF"/>
<path d="M241.073 105.166C241.127 105.369 241.098 105.585 240.994 105.766C240.889 105.948 240.717 106.081 240.515 106.136L237.27 107.006C237.068 107.061 236.852 107.032 236.671 106.927C236.489 106.822 236.357 106.65 236.302 106.447L235.944 105.106C235.89 104.903 235.919 104.687 236.024 104.506C236.128 104.324 236.3 104.191 236.502 104.136L239.748 103.264C239.95 103.21 240.166 103.239 240.347 103.344C240.528 103.449 240.661 103.622 240.715 103.825L241.073 105.165V105.166Z" fill="#F0F3FF"/>
<path d="M250.426 102.652C250.479 102.855 250.451 103.071 250.346 103.253C250.241 103.435 250.069 103.568 249.867 103.623L246.622 104.494C246.419 104.548 246.204 104.519 246.023 104.414C245.841 104.309 245.709 104.137 245.654 103.934L245.296 102.593C245.243 102.39 245.271 102.174 245.376 101.993C245.481 101.811 245.653 101.678 245.855 101.623L249.1 100.752C249.302 100.698 249.518 100.727 249.699 100.832C249.88 100.937 250.013 101.109 250.068 101.312L250.426 102.652Z" fill="#F0F3FF"/>
<path d="M259.778 100.138C259.831 100.341 259.802 100.557 259.698 100.739C259.593 100.921 259.421 101.054 259.219 101.109L255.973 101.982C255.771 102.035 255.556 102.006 255.375 101.901C255.193 101.796 255.061 101.623 255.006 101.42L254.648 100.08C254.595 99.8773 254.623 99.6613 254.728 99.4795C254.833 99.2977 255.005 99.1647 255.207 99.1095L258.452 98.2379C258.655 98.1842 258.87 98.2129 259.051 98.3179C259.232 98.4229 259.365 98.5956 259.42 98.7982L259.778 100.138Z" fill="#F0F3FF"/>
<path d="M221.008 142.611C221.062 142.814 221.033 143.03 220.928 143.212C220.823 143.394 220.651 143.527 220.449 143.581L217.204 144.453C217.002 144.507 216.786 144.478 216.605 144.373C216.424 144.268 216.291 144.095 216.236 143.893L215.878 142.552C215.825 142.349 215.853 142.133 215.958 141.951C216.063 141.77 216.235 141.637 216.437 141.582L219.682 140.71C219.884 140.656 220.1 140.685 220.281 140.79C220.462 140.895 220.595 141.067 220.649 141.269L221.008 142.611Z" fill="#F0F3FF"/>
<path d="M230.36 140.098C230.414 140.3 230.385 140.516 230.28 140.698C230.176 140.88 230.004 141.013 229.802 141.068L226.556 141.94C226.354 141.994 226.138 141.965 225.957 141.86C225.776 141.755 225.643 141.582 225.589 141.38L225.231 140.039C225.177 139.836 225.206 139.62 225.31 139.438C225.415 139.256 225.587 139.124 225.789 139.069L229.034 138.196C229.236 138.143 229.452 138.171 229.633 138.276C229.815 138.381 229.947 138.554 230.002 138.757L230.36 140.098Z" fill="#F0F3FF"/>
<path d="M239.713 137.587C239.766 137.79 239.737 138.006 239.632 138.188C239.528 138.37 239.355 138.502 239.153 138.557L235.908 139.43C235.706 139.483 235.491 139.455 235.309 139.35C235.128 139.245 234.995 139.073 234.94 138.87L234.582 137.529C234.529 137.326 234.557 137.11 234.662 136.929C234.767 136.747 234.939 136.614 235.141 136.559L238.387 135.686C238.589 135.633 238.804 135.662 238.986 135.767C239.167 135.872 239.3 136.045 239.355 136.247L239.713 137.587Z" fill="#F0F3FF"/>
<path d="M249.065 135.072C249.118 135.275 249.089 135.491 248.984 135.673C248.879 135.855 248.707 135.988 248.505 136.043L245.26 136.914C245.058 136.968 244.842 136.94 244.661 136.835C244.48 136.73 244.347 136.557 244.293 136.354L243.935 135.013C243.881 134.81 243.91 134.594 244.014 134.412C244.119 134.23 244.291 134.098 244.494 134.043L247.738 133.172C247.941 133.118 248.156 133.146 248.338 133.251C248.519 133.356 248.652 133.529 248.706 133.732L249.065 135.072Z" fill="#F0F3FF"/>
<path d="M258.415 132.559C258.468 132.762 258.44 132.978 258.335 133.159C258.231 133.341 258.059 133.474 257.857 133.529L254.61 134.401C254.408 134.455 254.193 134.426 254.012 134.321C253.83 134.216 253.698 134.044 253.643 133.841L253.285 132.5C253.231 132.297 253.26 132.081 253.365 131.899C253.47 131.718 253.642 131.585 253.844 131.53L257.089 130.658C257.291 130.604 257.507 130.633 257.688 130.738C257.869 130.843 258.002 131.015 258.056 131.218L258.415 132.559Z" fill="#F0F3FF"/>
<path fill-rule="evenodd" clip-rule="evenodd" d="M231.812 69.6719C230.864 68.8474 229.599 68.346 228.125 68.346C224.632 68.346 221.298 71.1828 220.682 74.6858C220.045 78.3108 222.466 81.2477 226.08 81.2477C229.573 81.2477 232.907 78.4118 233.523 74.9087L237.561 51.9422C237.851 50.29 239.458 48.938 241.13 48.938H252.375C252.542 48.938 252.702 48.8716 252.82 48.7532C252.938 48.6349 253.004 48.4744 253.004 48.3071C253.004 48.1398 252.938 47.9793 252.82 47.8609C252.702 47.7426 252.542 47.6761 252.375 47.6761H241.134C238.88 47.6761 236.716 49.4975 236.325 51.7235L232.287 74.69C231.773 77.6126 228.997 79.99 226.08 79.99C223.287 79.99 221.429 77.7186 221.921 74.9129C222.435 71.9904 225.21 69.613 228.129 69.613C229.271 69.613 230.255 69.9907 230.991 70.6301C231.053 70.6872 231.126 70.7314 231.205 70.7598C231.284 70.7883 231.369 70.8005 231.453 70.7957C231.537 70.791 231.619 70.7693 231.694 70.7321C231.77 70.6949 231.837 70.6428 231.893 70.579C231.948 70.5152 231.989 70.4409 232.015 70.3606C232.041 70.2803 232.051 70.1956 232.044 70.1115C232.037 70.0274 232.013 69.9456 231.973 69.8709C231.934 69.7963 231.88 69.7303 231.815 69.6769L231.812 69.6719Z" fill="#6599FF"/>
<path fill-rule="evenodd" clip-rule="evenodd" d="M254.444 73.6662C254.452 74.0812 254.419 74.4959 254.346 74.9045C253.729 78.4076 250.395 81.2435 246.903 81.2435C243.288 81.2435 240.868 78.3117 241.505 74.6816C242.121 71.1794 245.456 68.3427 248.948 68.3427C250.36 68.3427 251.584 68.802 252.517 69.5667C252.583 69.6184 252.638 69.6828 252.679 69.7561C252.72 69.8294 252.746 69.9102 252.755 69.9937C252.765 70.0772 252.757 70.1617 252.734 70.2423C252.71 70.3228 252.671 70.3979 252.618 70.463C252.565 70.5281 252.499 70.5819 252.425 70.6213C252.351 70.6607 252.27 70.6849 252.187 70.6925C252.104 70.7001 252.019 70.6909 251.94 70.6654C251.86 70.64 251.786 70.5988 251.722 70.5443C250.997 69.9554 250.044 69.6046 248.948 69.6046C246.034 69.6046 243.259 71.9786 242.74 74.9045C242.247 77.706 244.106 79.9816 246.899 79.9816C249.813 79.9816 252.588 77.6075 253.106 74.6816C253.168 74.3358 253.194 73.9846 253.184 73.6334C253.183 73.5909 253.186 73.5483 253.193 73.5064L258.284 44.5568C258.553 43.0257 257.504 41.7722 255.953 41.7722H240.069C238.397 41.7722 236.79 43.1241 236.499 44.7772L236.101 47.0671C236.069 47.2292 235.975 47.3723 235.839 47.4658C235.703 47.5592 235.536 47.5955 235.374 47.5669C235.212 47.5383 235.067 47.447 234.972 47.3126C234.876 47.1783 234.836 47.0116 234.862 46.8484L235.262 44.5601C235.653 42.3342 237.818 40.5128 240.071 40.5128H255.956C258.332 40.5128 259.938 42.4326 259.525 44.7789L254.446 73.6662H254.444Z" fill="#6599FF"/>
<path d="M193.266 105.007C193.262 106.511 192.664 107.953 191.603 109.017C190.542 110.08 189.104 110.68 187.604 110.684H79.9098C78.4097 110.68 76.9722 110.08 75.9114 109.017C74.8506 107.953 74.2527 106.511 74.2483 105.007V55.2081C74.2525 53.7034 74.8503 52.2615 75.9111 51.1974C76.9718 50.1333 78.4094 49.5333 79.9098 49.5287H187.604C189.104 49.5333 190.542 50.1333 191.603 51.1976C192.664 52.2619 193.262 53.704 193.266 55.2089V105.007Z" fill="#6599FF"/>
<path d="M154.53 80.1077C154.53 91.6104 145.231 100.94 133.758 100.94C122.286 100.94 112.983 91.6104 112.983 80.1077C112.983 68.6051 122.285 59.2738 133.758 59.2738C145.232 59.2738 154.53 68.6034 154.53 80.1077Z" fill="white"/>
<path d="M130.26 72.3345C129.538 71.8651 128.948 72.1882 128.948 73.0505V87.1635C128.948 88.0241 129.536 88.3472 130.26 87.8786L140.925 80.9583C141.647 80.4889 141.647 79.7234 140.925 79.2539L130.26 72.3345Z" fill="#316FEA"/>
<path d="M75.7516 117.313C75.7516 116.115 76.5812 115.653 77.5971 116.288L82.6882 119.48C83.7016 120.115 83.7016 121.156 82.6882 121.792L77.5971 124.989C76.5829 125.625 75.7516 125.164 75.7516 123.965V117.313Z" fill="#316FEA"/>
<path d="M191.611 121.746H118.792C118.6 121.746 118.416 121.67 118.28 121.533C118.144 121.397 118.068 121.212 118.068 121.019C118.068 120.827 118.144 120.642 118.28 120.505C118.416 120.369 118.6 120.292 118.792 120.292H191.611C191.803 120.292 191.988 120.369 192.124 120.505C192.26 120.642 192.336 120.827 192.336 121.019C192.336 121.212 192.26 121.397 192.124 121.533C191.988 121.67 191.803 121.746 191.611 121.746Z" fill="#316FEA"/>
<path d="M112.924 121.746H88.2826C88.0904 121.746 87.9061 121.67 87.7701 121.533C87.6342 121.397 87.5579 121.212 87.5579 121.019C87.5579 120.827 87.6342 120.642 87.7701 120.505C87.9061 120.369 88.0904 120.292 88.2826 120.292H112.924C113.116 120.292 113.3 120.369 113.436 120.505C113.572 120.642 113.648 120.827 113.648 121.019C113.648 121.212 113.572 121.397 113.436 121.533C113.3 121.67 113.116 121.746 112.924 121.746Z" fill="#F0F3FF"/>
<path d="M118.792 121.019C118.792 121.601 118.62 122.17 118.297 122.654C117.975 123.139 117.516 123.516 116.98 123.739C116.443 123.962 115.853 124.02 115.283 123.906C114.714 123.793 114.191 123.512 113.78 123.101C113.37 122.689 113.09 122.164 112.977 121.593C112.863 121.022 112.921 120.43 113.144 119.892C113.366 119.354 113.742 118.894 114.225 118.57C114.708 118.247 115.276 118.074 115.856 118.074C116.635 118.074 117.382 118.384 117.932 118.937C118.483 119.489 118.792 120.238 118.792 121.019Z" fill="#316FEA"/>
</svg>
