<svg width="114" height="26" viewBox="0 0 114 26" fill="none" xmlns="http://www.w3.org/2000/svg">
<g clip-path="url(#clip0)">
<path d="M110.96 0H2.8348C1.2692 0 0 1.2692 0 2.8348V23.0052C0 24.5708 1.2692 25.84 2.8348 25.84H110.96C112.64 25.84 114 24.4796 114 22.8V3.04C114 1.3604 112.64 0 110.96 0ZM113.24 22.8C113.24 24.0616 112.222 25.08 110.96 25.08H2.8348C1.6872 25.0724 0.7676 24.1528 0.76 23.0052V2.8348C0.7676 1.6872 1.6872 0.7676 2.8348 0.76H110.96C112.222 0.76 113.24 1.7784 113.24 3.04V22.8Z" fill="#635BFF"/>
<path d="M12.9732 8.54236H9.7052V16.72H11.1644V13.5584H12.9732C14.7972 13.5584 15.9372 12.6768 15.9372 11.0504C15.9372 9.42396 14.7972 8.54236 12.9732 8.54236ZM12.8972 12.3424H11.1644V9.83436H12.92C13.9688 9.83436 14.5236 10.2828 14.5236 11.0884C14.5236 11.894 13.946 12.3044 12.92 12.3044L12.8972 12.3424Z" fill="#635BFF"/>
<path d="M19.076 10.64C17.4952 10.6248 16.1956 11.8864 16.1804 13.4748C16.1804 13.566 16.1804 13.6572 16.188 13.7484C16.0436 15.3444 17.2216 16.7504 18.8176 16.8872C20.4136 17.0316 21.8196 15.8536 21.9564 14.2576C21.9716 14.0904 21.9716 13.9156 21.9564 13.7408C22.0932 12.1676 20.9304 10.7844 19.3572 10.64C19.266 10.64 19.1748 10.64 19.076 10.64ZM19.076 15.7092C18.1488 15.7092 17.556 14.9492 17.556 13.7484C17.556 12.5476 18.1336 11.7876 19.076 11.7876C20.0184 11.7876 20.596 12.5476 20.596 13.7484C20.596 14.9492 19.9956 15.7016 19.076 15.7016V15.7092Z" fill="#635BFF"/>
<path d="M27.9528 14.706L26.8812 10.7388H25.7564L24.6924 14.706L23.6132 10.7388H22.2072L24.0084 16.7276H25.194L26.2884 12.806L27.3828 16.7276H28.5684L30.3696 10.7388H29.0168L27.9528 14.706Z" fill="#635BFF"/>
<path d="M33.44 10.64C31.8364 10.6704 30.552 12.0004 30.5824 13.604C30.5824 13.6496 30.5824 13.7028 30.59 13.7484C30.4608 15.3368 31.6464 16.72 33.2348 16.8492C33.326 16.8568 33.4096 16.8568 33.5008 16.8568C34.6332 16.9176 35.6744 16.2488 36.0924 15.2L34.96 14.7288C34.7776 15.3368 34.2 15.732 33.5692 15.6864C32.68 15.7092 31.9428 15.0024 31.92 14.1132C31.92 14.0904 31.92 14.06 31.92 14.0372H36.1152V13.5812C36.1304 11.9396 35.2032 10.64 33.44 10.64ZM31.9732 13.0188C32.0796 12.2968 32.7104 11.7648 33.44 11.78C34.0936 11.7268 34.6636 12.2056 34.7244 12.8592C34.732 12.9124 34.732 12.958 34.7244 13.0112L31.9732 13.0188Z" fill="#635BFF"/>
<path d="M38.5244 11.6281V10.7389H37.1564V16.7201H38.5244V13.5813C38.4788 12.7909 39.0792 12.1069 39.8696 12.0613C39.9304 12.0613 39.9836 12.0613 40.0444 12.0613C40.2116 12.0461 40.3788 12.0461 40.546 12.0613V10.6933C40.4396 10.6933 40.318 10.6933 40.1584 10.6933C39.4744 10.6553 38.836 11.0201 38.5244 11.6281Z" fill="#635BFF"/>
<path d="M43.6848 10.64C42.0812 10.6704 40.7968 12.0004 40.8272 13.604C40.8272 13.6496 40.8272 13.7028 40.8348 13.7484C40.7056 15.3368 41.8912 16.72 43.4796 16.8492C43.5708 16.8568 43.6544 16.8568 43.7456 16.8568C44.8628 16.9024 45.8888 16.2412 46.3068 15.2L45.1364 14.7516C44.954 15.3596 44.3764 15.7548 43.7456 15.7092C42.8564 15.7016 42.142 14.972 42.1496 14.0828C42.1496 14.0752 42.1496 14.0676 42.1496 14.06H46.36V13.604C46.36 11.9396 45.4176 10.64 43.6848 10.64ZM42.218 13.0188C42.332 12.3044 42.9552 11.78 43.6772 11.7876C44.3308 11.7344 44.9008 12.2132 44.9616 12.8668C44.9692 12.92 44.9692 12.9656 44.9616 13.0188H42.218Z" fill="#635BFF"/>
<path d="M51.3456 11.4C50.92 10.8984 50.2892 10.6172 49.628 10.64C47.9484 10.64 46.9908 12.046 46.9908 13.7484C46.9908 15.4508 47.9484 16.8568 49.628 16.8568C50.2892 16.8796 50.92 16.5984 51.3456 16.0968V16.72H52.7136V8.54236H51.3456V11.4ZM51.3456 13.946C51.4596 14.7744 50.882 15.5496 50.0536 15.6636C49.9776 15.6712 49.9016 15.6788 49.8256 15.6788C48.83 15.6788 48.3056 14.9188 48.3056 13.7636C48.3056 12.6084 48.8376 11.8484 49.8256 11.8484C50.6692 11.8484 51.3456 12.464 51.3456 13.5888V13.946Z" fill="#635BFF"/>
<path d="M60.2756 10.64C59.6068 10.6096 58.9608 10.8908 58.52 11.4V8.54236H57.152V16.72H58.52V16.0892C58.9532 16.5908 59.584 16.872 60.2452 16.8492C61.9172 16.8492 62.8748 15.4356 62.8748 13.7408C62.8748 12.046 61.9476 10.64 60.2756 10.64ZM60.04 15.656C59.204 15.6636 58.5124 14.9872 58.5048 14.1512C58.5048 14.0752 58.5124 13.9992 58.52 13.9232V13.566C58.52 12.4412 59.1584 11.8256 60.04 11.8256C61.028 11.8256 61.56 12.5856 61.56 13.7408C61.56 14.896 60.99 15.656 60.04 15.656Z" fill="#635BFF"/>
<path d="M66.0668 14.9416L64.6 10.7388H63.156L65.36 16.5072L65.132 17.0696C65.0484 17.4724 64.6684 17.7384 64.2656 17.67C64.1136 17.6776 63.9616 17.6776 63.8096 17.67V18.8176C63.992 18.848 64.182 18.8556 64.3644 18.8556C65.3448 18.924 66.234 18.2856 66.4772 17.3356L68.9396 10.7844H67.5032L66.0668 14.9416Z" fill="#635BFF"/>
<path d="M95 9.44678C94.392 9.44678 93.8144 9.68238 93.3812 10.108L93.2748 9.58358H91.4584V19.4028L93.5256 18.9544V16.5756C93.936 16.9176 94.4528 17.1076 94.9924 17.1076C96.4668 17.1076 97.8196 15.8992 97.8196 13.224C97.8196 10.7768 96.4516 9.44678 95 9.44678ZM94.506 15.2456C94.1412 15.2684 93.784 15.124 93.5332 14.8504V11.7268C93.784 11.4456 94.1488 11.2936 94.5212 11.3088C95.2812 11.3088 95.798 12.1676 95.798 13.2696C95.798 14.3716 95.2736 15.2456 94.506 15.2456Z" fill="#635BFF"/>
<path d="M101.635 9.44678C99.6436 9.44678 98.4352 11.1644 98.4352 13.3304C98.4352 15.8916 99.864 17.1912 101.901 17.1912C102.699 17.2064 103.482 17.0164 104.181 16.6364V14.9264C103.542 15.2456 102.843 15.4052 102.129 15.3976C101.308 15.3976 100.609 15.1012 100.502 14.1056H104.591C104.591 13.9916 104.591 13.5432 104.591 13.3456C104.66 11.1644 103.626 9.44678 101.635 9.44678ZM100.518 12.54C100.518 11.5824 101.103 11.1796 101.62 11.1796C102.136 11.1796 102.684 11.5824 102.684 12.54H100.518Z" fill="#635BFF"/>
<path d="M85.88 10.1535L85.7508 9.53035H83.9876V16.91H86.0244V11.9092C86.4044 11.4532 87.02 11.2784 87.5824 11.4684V9.53035C86.9364 9.27955 86.2068 9.54555 85.88 10.1535Z" fill="#635BFF"/>
<path d="M75.5896 11.7495C75.5896 11.4151 75.8632 11.2859 76.2964 11.2859C77.0108 11.3011 77.7176 11.4911 78.3484 11.8331V9.83433C77.6948 9.56833 76.9956 9.43913 76.2964 9.44673C74.6168 9.44673 73.4996 10.3435 73.4996 11.8483C73.4996 14.2043 76.646 13.8243 76.646 14.8351C76.646 15.2303 76.3116 15.3595 75.886 15.3595C75.0804 15.3139 74.3052 15.0783 73.606 14.6755V16.7199C74.3204 17.0391 75.1032 17.2063 75.886 17.2063C77.6036 17.2063 78.7892 16.3323 78.7892 14.8047C78.7512 12.2511 75.5896 12.7071 75.5896 11.7495Z" fill="#635BFF"/>
<path d="M81.5328 7.78235L79.5188 8.22315V15.0099C79.4732 16.1727 80.3852 17.1455 81.548 17.1911C81.586 17.1911 81.624 17.1911 81.662 17.1911C82.1636 17.2139 82.6576 17.1151 83.1136 16.9099V15.1999C82.8476 15.3139 81.548 15.7015 81.548 14.4399V11.3999H83.1136V9.62155H81.548L81.5328 7.78235Z" fill="#635BFF"/>
<path d="M88.35 8.89194L90.4248 8.45874V6.81714L88.35 7.25034V8.89194Z" fill="#635BFF"/>
<path d="M90.4248 9.58362H88.35V16.91H90.4248V9.58362Z" fill="#635BFF"/>
</g>
<defs>
<clipPath id="clip0">
<rect width="114" height="25.84" fill="white"/>
</clipPath>
</defs>
</svg>
