<svg width="8" height="11" viewBox="0 0 8 11" xmlns="http://www.w3.org/2000/svg">
<path d="M1.54221 0.214532C1.15057 0.205864 0.826081 0.517247 0.817437 0.909977C0.812782 1.12768 0.907867 1.33571 1.07543 1.4744L5.41542 5.20267L1.0751 8.92961C0.759255 9.16231 0.691433 9.60738 0.923493 9.9241C1.15555 10.2408 1.59939 10.3088 1.91524 10.0761C1.94416 10.0548 1.97109 10.0314 1.99636 10.0061L6.96537 5.74309C7.26326 5.48805 7.29884 5.03931 7.0445 4.74026C7.02023 4.71192 6.99397 4.68525 6.96537 4.66092L1.99636 0.393561C1.87102 0.281876 1.70977 0.218199 1.54221 0.214532Z" fill="#316FEA"/>
</svg>
