<svg xmlns="http://www.w3.org/2000/svg" viewBox="0 0 42.02 38.86"><defs><style>.cls-1{fill:#366fe0;stroke:#366fe0;stroke-miterlimit:10;stroke-width:0.02px;}</style></defs><title>Asset 2</title><g id="Layer_2" data-name="Layer 2"><g id="Layer_1-2" data-name="Layer 1"><path class="cls-1" d="M42,27.51l-2.2-8A12.15,12.15,0,0,0,41.13,14c0-7.7-7.4-14-16.51-14S8.11,6.28,8.11,14a12.1,12.1,0,0,0,.19,2C3.81,18,.75,22,.75,26.56A10.27,10.27,0,0,0,1.9,31.27L0,38a.6.6,0,0,0,.14.61.6.6,0,0,0,.46.21.25.25,0,0,0,.13,0l7.71-1.62a16.49,16.49,0,0,0,6.4,1.3c7.45,0,13.55-4.9,14.09-11.07a22.16,22.16,0,0,0,3.17-1l9.11,1.92h.13a.64.64,0,0,0,.6-.82Zm-27.1,9.72A15.05,15.05,0,0,1,8.8,36a.5.5,0,0,0-.38,0L1.54,37.37l1.65-6a.64.64,0,0,0,0-.47A9,9,0,0,1,2,26.56c0-5.89,5.76-10.67,12.85-10.67s12.86,4.78,12.86,10.67S22,37.23,14.88,37.23ZM32.21,25.11a.32.32,0,0,0-.13,0,.58.58,0,0,0-.26.06,20.31,20.31,0,0,1-2.82,1c-.28-6.38-6.5-11.51-14.12-11.51a16,16,0,0,0-5.37.91A11,11,0,0,1,9.39,14c0-7,6.84-12.67,15.23-12.67S39.87,7,39.87,14a10.82,10.82,0,0,1-1.33,5.15.64.64,0,0,0,0,.49l2,7.23Z"/><path class="cls-1" d="M33.77,9.41H16.08a.65.65,0,0,0,0,1.29H33.77a.65.65,0,0,0,0-1.29Z"/><path class="cls-1" d="M33.77,14.17H25a.64.64,0,0,0,0,1.28h8.77a.64.64,0,0,0,0-1.28Z"/><path class="cls-1" d="M33.77,18.92H29.46a.64.64,0,1,0,0,1.27h4.31a.64.64,0,0,0,0-1.27Z"/><path class="cls-1" d="M21.05,21.87H8.43a.64.64,0,0,0,0,1.28H21.05a.64.64,0,1,0,0-1.28Z"/><path class="cls-1" d="M21.05,26.37H8.43a.64.64,0,0,0,0,1.28H21.05a.64.64,0,1,0,0-1.28Z"/><path class="cls-1" d="M17.87,30.87H8.43a.64.64,0,0,0,0,1.27h9.44a.64.64,0,1,0,0-1.27Z"/></g></g></svg>