<svg id="Isolation_Mode" data-name="Isolation Mode" xmlns="http://www.w3.org/2000/svg" viewBox="0 0 530.01 530.01"><defs><style>.cls-1{fill:#316fea;}</style></defs><path class="cls-1" d="M367.48,112.05a94,94,0,1,0,94,94A94.15,94.15,0,0,0,367.48,112.05Zm0,171a76.94,76.94,0,1,1,76.94-76.93A77,77,0,0,1,367.48,283Z" transform="translate(17.2 7.63)"/><path class="cls-1" d="M367.48,163.34a42.75,42.75,0,1,0,42.75,42.75A42.8,42.8,0,0,0,367.48,163.34Zm0,68.39a25.65,25.65,0,1,1,25.65-25.64A25.67,25.67,0,0,1,367.48,231.73Z" transform="translate(17.2 7.63)"/><path class="cls-1" d="M512.81,238V174.2l-23.37-7.49a126.91,126.91,0,0,0-7.86-19.05l11.22-21.79L447.71,80.78,427.32,91.26V-7.63H124.58L34.09,82.87V403.39a59.8,59.8,0,0,0,8.55,119H420.75l80-39.08.77-.44a24,24,0,0,0,0-40.65l-74.22-36.3v-85l20.38,10.48,45.09-45.07-11.22-21.79a126.77,126.77,0,0,0,7.86-19.06ZM410.23,85.37c-1.13-.4-2.23-.86-3.37-1.23l-7.5-23.38H335.6l-7.49,23.37A127.82,127.82,0,0,0,309.05,92L287.26,80.77l-45.08,45.09,11.21,21.79a128.36,128.36,0,0,0-7.85,19l-23.38,7.51V238l23.37,7.49a126.77,126.77,0,0,0,7.86,19.06l-11.22,21.79,45.08,45.07L309,320.18a129.18,129.18,0,0,0,19,7.85l7.52,23.38h63.76L406.86,328c1.14-.37,2.24-.84,3.37-1.23V402.7h-359V95h85.49V9.47H410.23Zm0,334.43V454H85.38V419.8ZM85.38,471.09H410.23v34.2H85.38ZM63.27,77.86l56.3-56.3v56.3ZM-.11,462.54A42.8,42.8,0,0,1,42.64,419.8H68.28v85.49H42.64A42.8,42.8,0,0,1-.11,462.54Zm495.82,0a6.81,6.81,0,0,1-2.93,5.64l-65.46,32V424.94l65.46,32a6.81,6.81,0,0,1,2.93,5.63Zm-20.14-230.6-1.25,4.42a109.75,109.75,0,0,1-9.85,23.9l-2.25,4L471.88,283l-27.45,27.45-18.76-9.65-4,2.25a111.25,111.25,0,0,1-23.9,9.85l-4.42,1.25-6.44,20.14H348.08l-6.46-20.14-4.42-1.25a111.46,111.46,0,0,1-23.9-9.85l-4-2.25-18.76,9.65L263.09,283l9.66-18.76-2.25-4a110.27,110.27,0,0,1-9.86-23.9l-1.25-4.42-20.14-6.44V186.68l20.14-6.44,1.25-4.42a110.38,110.38,0,0,1,9.86-23.91l2.24-4-9.65-18.76,27.45-27.46,18.76,9.66,4-2.25a111.43,111.43,0,0,1,23.9-9.84L341.62,98l6.45-20.14h38.82L393.34,98l4.42,1.25a111.22,111.22,0,0,1,23.9,9.84l4,2.25,18.76-9.66,27.45,27.46-9.65,18.76,2.24,4a109.86,109.86,0,0,1,9.85,23.91l1.25,4.42,20.14,6.43v38.82Z" transform="translate(17.2 7.63)"/><path class="cls-1" d="M68.28,137.7a25.67,25.67,0,0,0,25.65,25.64h85.48a8.55,8.55,0,1,1,0,17.1H136.67a25.65,25.65,0,0,0,0,51.29h17.1a8.55,8.55,0,0,1,0,17.1H93.93a25.65,25.65,0,1,0,0,51.29H213.61V283H93.93a8.55,8.55,0,1,1,0-17.09h59.84a25.65,25.65,0,0,0,0-51.29h-17.1a8.55,8.55,0,1,1,0-17.1h42.74a25.65,25.65,0,1,0,0-51.29H93.93a8.55,8.55,0,0,1,0-17.1H222.16v-17.1H93.93A25.68,25.68,0,0,0,68.28,137.7Z" transform="translate(17.2 7.63)"/><path class="cls-1" d="M68.28,334.32h17.1v17.09H68.28Z" transform="translate(17.2 7.63)"/><path class="cls-1" d="M102.48,334.32H222.16v17.09H102.48Z" transform="translate(17.2 7.63)"/><path class="cls-1" d="M68.28,368.51H222.16v17.1H68.28Z" transform="translate(17.2 7.63)"/><path class="cls-1" d="M239.25,368.51h17.1v17.1h-17.1Z" transform="translate(17.2 7.63)"/><path class="cls-1" d="M307.64,368.51h17.1v17.1h-17.1Z" transform="translate(17.2 7.63)"/><path class="cls-1" d="M273.45,368.51h17.1v17.1h-17.1Z" transform="translate(17.2 7.63)"/><path class="cls-1" d="M376,26.57h17.1V43.66H376Z" transform="translate(17.2 7.63)"/><path class="cls-1" d="M307.64,26.57h17.1V43.66h-17.1Z" transform="translate(17.2 7.63)"/><path class="cls-1" d="M341.84,26.57h17.09V43.66H341.84Z" transform="translate(17.2 7.63)"/></svg>