<svg id="Layer_1" data-name="Layer 1" xmlns="http://www.w3.org/2000/svg" viewBox="0 0 197.17 256"><defs><style>.cls-1{fill:#2ea52b;}</style></defs><title>trial_2</title><path class="cls-1" d="M631,279.76c0,54.37,0,138.74,0,193.1.22,5.7-3.34,11-8.26,13.62q-41,23.58-82,47.12a15.5,15.5,0,0,1-15.66.08q-41.18-23.86-82.32-47.76A15.56,15.56,0,0,1,435,471.74c.05-51.65-1.18-184.93-1.18-192m45,74.56c-.6,11.66-1,23.33-1.3,35,2.67.13,5.35.14,8,0,.12-4.72.09-9.44.16-14.16,3.92,0,7.84.07,11.76.06,0-1.89.07-3.79.07-5.68-3.94-.08-7.88-.13-11.81-.13q.07-4.76.08-9.52,6.25.06,12.51,0c0-1.92,0-3.85,0-5.77-6.5-.05-13-.38-19.5.12m27.22.52c-.74,11.53-.32,23.13-.47,34.69,2.35.06,4.7.09,7.05.07.11-4.9.07-9.8.19-14.7,2.25.46,5.27.2,6.45,2.64,2.24,3.79,3.42,8.08,5.14,12.11q3.78.19,7.58.22c-1.92-5.84-3.65-12.18-8.19-16.6,3.27-1.64,6.37-4.47,6.24-8.44.94-5.38-3.79-10-9-10.27-5-.29-10.17-1-15,.28m32.58,3.92c-.05,8.35-.05,16.7-.2,25,.07,1.92-.15,3.94.63,5.74,6.71.73,13.49.26,20.23.41q0-2.77,0-5.55c-4.55-.1-9.11-.09-13.66-.15,0-3.33,0-6.65.09-10,3.88,0,7.76.05,11.64,0,0-1.78,0-3.56,0-5.33-3.87-.14-7.75-.19-11.63-.17q0-4.33.06-8.67,6.78.06,13.58.05c0-1.86,0-3.71,0-5.56-6.43.09-12.89-.47-19.31.06-1.74.63-1.21,2.64-1.39,4.07m28.79-1c-.17,9.38-.16,18.77-.24,28.15.23,1.44-.46,4.22,1.86,4.06,6.3.36,12.63.16,18.94.16,0-1.84,0-3.67,0-5.5-4.53-.09-9.06-.1-13.59-.14,0-3.33.06-6.65.09-10,3.87,0,7.74,0,11.61,0,0-1.78,0-3.55-.06-5.32-3.83-.14-7.67-.16-11.5-.12,0-2.91,0-5.82,0-8.73,4.51.09,9,.12,13.53,0,0-1.83,0-3.66-.05-5.49-6.3.05-12.63-.43-18.92,0-1.66-.28-1.48,1.82-1.63,2.83M464.12,404.39c0,1.89,0,3.79.07,5.69,3.24.11,6.49.14,9.74.16-.1,9.8-.22,19.61-.19,29.42,2.35,0,4.7.06,7.06.1.25-9.82.21-19.64.32-29.46,3.32,0,6.63,0,9.94-.07a50.74,50.74,0,0,0-.28-5.38c-8.83-.9-17.78-.34-26.66-.46m33.09.54c-.75,2.22-.56,4.6-.62,6.9.08,9.38-.25,18.76,0,28.14,2.32,0,4.66,0,7,0,.12-4.92.08-9.84.21-14.75,1.78.48,3.89.31,5.43,1.42,3.43,3.82,3.66,9.41,6.7,13.46A41.42,41.42,0,0,0,523,440c-2.15-5.72-3.82-11.93-8.22-16.42,3.37-1.7,6.46-4.72,6.2-8.79.62-4.93-3.44-9.23-8.19-9.78a63.54,63.54,0,0,0-15.59-.08m32.49-.1c-.26,11.76-.25,23.52-.31,35.28,2.34.1,4.69.13,7,.12.31-11.78.33-23.56.3-35.34-2.34,0-4.69-.06-7-.06m24.94.47c-4.48,11.48-8.52,23.17-12.43,34.87,2.31.12,4.64.18,7,.19q1.33-4.07,2.65-8.13c4.43.08,8.87.09,13.3.11.9,2.73,1.8,5.45,2.71,8.18,2.49,0,5,0,7.48,0-2.15-7.83-5.09-15.41-7.62-23.12-1.46-4-2.44-8.17-4.3-12a17.52,17.52,0,0,0-8.75-.06m26.63,0c.11,11.48-.47,23,0,34.45l1,.55c6,.69,12,.19,18,.35.06-1.92.08-3.84.06-5.75-4-.17-8-.2-12.06-.21,0-9.81.21-19.62.16-29.44-2.39-.05-4.79,0-7.17.05m-68.44-45.71c3.08.39,7.11-.44,9.23,2.43,1.26,2.52.47,6.28-2.42,7.25a34.88,34.88,0,0,1-6.85.75c0-3.48,0-6.95,0-10.43m-9.05,50.35c2.83.33,6.09-.24,8.54,1.55,2.18,2.28,1.57,6.86-1.53,8.06-2.27.7-4.68.6-7,.78q0-5.19,0-10.39m49.72,16.84q2.49-7.54,5.12-15,2.46,7.53,4.89,15.09c-3.34,0-6.68,0-10-.06Z" transform="translate(-433.82 -279.76)"/></svg>