<svg id="Layer_1" data-name="Layer 1" xmlns="http://www.w3.org/2000/svg" viewBox="0 0 249.9 256.06"><defs><style>.cls-1{fill:#8D98A7;}</style></defs><title>trial</title><path class="cls-1" d="M66.59,21.23A9.72,9.72,0,0,1,76,14.5h20a9.61,9.61,0,0,1,9.25,7c.23,4.12,0,8.26.11,12.38q26.39,0,52.77,0c.12-4.3-.25-8.62.18-12.9A9.86,9.86,0,0,1,168,14.49q9.48,0,19,0a9.77,9.77,0,0,1,10,7c.23,4.14,0,8.3.1,12.45h30c5.48-.17,10.43,5.17,9.9,10.63,0,29.37,0,58.74,0,88.1q-5.34-.06-10.66,0,0-16.56,0-33.13-94.51,0-189,0,0,56.42,0,112.82c31.51,0,63,0,94.53,0q0,5.33,0,10.65Q84.89,223,38,223c-5.6.42-10.85-4.91-10.39-10.5q.06-84.49,0-169c0-5.23,5.09-10,10.34-9.6q14.27,0,28.52,0C66.57,29.68,66.23,25.44,66.59,21.23Zm10.52,3.95c0,8.72,0,17.45,0,26.17,5.85,0,11.71,0,17.56,0-.07-8.75.17-17.51-.12-26.25C88.76,25.24,82.93,25.12,77.11,25.18Zm91.78,0c-.07,8.73,0,17.47,0,26.21,5.85,0,11.69,0,17.54,0q0-13.11,0-26.21C180.58,25.16,174.74,25.17,168.89,25.17ZM37.25,44.57c0,14.73,0,29.46,0,44.2q94.54.09,189.09,0c0-14.74,0-29.48,0-44.21-9.74,0-19.47,0-29.2,0-.09,3.67.26,7.37-.2,11A9.91,9.91,0,0,1,187,62.06c-6.34,0-12.68,0-19,0a9.69,9.69,0,0,1-9.67-6.81c-.33-3.55-.06-7.12-.14-10.68q-26.4,0-52.81,0c-.05,4.93.15,9.86,0,14.8-3.21-.54-5.3,2.64-8.4,2.64-7,.09-14,0-21,0a9.61,9.61,0,0,1-9.36-6.94c-.29-3.5,0-7-.11-10.54Z" transform="translate(-27.53 -14.46)"/><path class="cls-1" d="M200.48,139.27a64,64,0,0,1,37.75,5,68.4,68.4,0,0,1,34.6,36.39,63.62,63.62,0,0,1,2.4,40.32c-6.67,25.23-29.21,45.44-55.14,48.9a64.49,64.49,0,0,1-44.29-10.15,67.79,67.79,0,0,1-28.92-41.11,64,64,0,0,1,7.34-46.83C164,155,181.25,142.59,200.48,139.27Zm1.6,10.46a54.59,54.59,0,0,0-39.73,28.19,58.11,58.11,0,0,0-2.82,46.71,54.25,54.25,0,0,0,29.64,30.83,58.41,58.41,0,0,0,41.79,1,54.26,54.26,0,0,0,29.76-26.26,58.13,58.13,0,0,0,2.86-44.84,54.2,54.2,0,0,0-30.42-32.12A58.4,58.4,0,0,0,202.08,149.73Z" transform="translate(-27.53 -14.46)"/><path class="cls-1" d="M206,179.47c3.55-.05,7.11,0,10.68,0q0,14.69,0,29.37c9.77,0,19.53.08,29.29-.07.3,3.57.1,7.15.13,10.72-12.08,0-24.15,0-36.23,0-1.7.41-2.78-1-3.89-1.94C206.08,204.9,205.94,192.18,206,179.47Z" transform="translate(-27.53 -14.46)"/></svg>