<svg id="Isolation_Mode" data-name="Isolation Mode" xmlns="http://www.w3.org/2000/svg" viewBox="0 0 70.86 60.29"><defs><style>.cls-1{fill:#316fea;}</style></defs><title>3</title><path class="cls-1" d="M1092.31,508.05h-69.57a.65.65,0,0,0-.65.65v49.78c.44,0,.87,0,1.3,0V509.35h68.27v38.83a.65.65,0,1,0,1.3,0V508.7A.65.65,0,0,0,1092.31,508.05Z" transform="translate(-1022.09 -508.05)"/><path class="cls-1" d="M1092.31,508.05h-69.57a.65.65,0,0,0-.65.65v49.78c.44,0,.87,0,1.3,0V509.35h68.27v38.83a.65.65,0,1,0,1.3,0V508.7A.65.65,0,0,0,1092.31,508.05Z" transform="translate(-1022.09 -508.05)"/><path class="cls-1" d="M1023.39,558.47V521.56a.65.65,0,0,0-1.3,0v36.92C1022.53,558.46,1023,558.46,1023.39,558.47Z" transform="translate(-1022.09 -508.05)"/><path class="cls-1" d="M1091.66,559.31c.43.07.87.12,1.3.16V508.7a.65.65,0,0,0-.65-.65H1047a.65.65,0,0,0,0,1.3h44.68Z" transform="translate(-1022.09 -508.05)"/><path class="cls-1" d="M1092.31,521.11h-69.57a.65.65,0,1,1,0-1.3h69.57a.65.65,0,0,1,0,1.3Z" transform="translate(-1022.09 -508.05)"/><path class="cls-1" d="M1029.77,517.09a2.64,2.64,0,1,1,2.63-2.64A2.64,2.64,0,0,1,1029.77,517.09Zm0-4a1.33,1.33,0,1,0,1.33,1.33A1.34,1.34,0,0,0,1029.77,513.12Z" transform="translate(-1022.09 -508.05)"/><path class="cls-1" d="M1038.35,517.09a2.64,2.64,0,1,1,2.63-2.64A2.64,2.64,0,0,1,1038.35,517.09Zm0-4a1.33,1.33,0,1,0,1.33,1.33A1.34,1.34,0,0,0,1038.35,513.12Z" transform="translate(-1022.09 -508.05)"/><path class="cls-1" d="M1022.09,543v24h1.3V542.74A3.69,3.69,0,0,1,1022.09,543Z" transform="translate(-1022.09 -508.05)"/><path class="cls-1" d="M1091.66,545.09v11.55a.65.65,0,1,0,1.3,0V545.36A2.82,2.82,0,0,1,1091.66,545.09Z" transform="translate(-1022.09 -508.05)"/><path class="cls-1" d="M1091.66,545.09v11.55a.65.65,0,1,0,1.3,0V545.36A2.82,2.82,0,0,1,1091.66,545.09Z" transform="translate(-1022.09 -508.05)"/><path class="cls-1" d="M1022.09,543v24h1.3V542.74A3.69,3.69,0,0,1,1022.09,543Z" transform="translate(-1022.09 -508.05)"/><path class="cls-1" d="M1022.09,543v24h1.3V542.74A3.69,3.69,0,0,1,1022.09,543Z" transform="translate(-1022.09 -508.05)"/><path class="cls-1" d="M1091.66,545.09v22.68c.43.06.87.11,1.3.15V545.36A2.82,2.82,0,0,1,1091.66,545.09Z" transform="translate(-1022.09 -508.05)"/><path class="cls-1" d="M1068.07,567h-44.68v-3c-.32,0-.65.08-1,.1a1.71,1.71,0,0,1-.32,0v3.55a.65.65,0,0,0,.65.65h45.33a.65.65,0,0,0,0-1.3Z" transform="translate(-1022.09 -508.05)"/><path class="cls-1" d="M1068.07,567h-44.68v-3c-.32,0-.65.08-1,.1a1.71,1.71,0,0,1-.32,0v3.55a.65.65,0,0,0,.65.65h45.33a.65.65,0,0,0,0-1.3Z" transform="translate(-1022.09 -508.05)"/><path class="cls-1" d="M1091.66,565v2h-68.27v-3c-.32,0-.65.08-1,.1a1.71,1.71,0,0,1-.32,0v3.55a.65.65,0,0,0,.65.65h69.57a.65.65,0,0,0,.65-.65v-2.46A2.67,2.67,0,0,1,1091.66,565Z" transform="translate(-1022.09 -508.05)"/><path class="cls-1" d="M1056.71,550a9.83,9.83,0,1,1,9.83-9.84A9.83,9.83,0,0,1,1056.71,550Zm0-18.62a8.79,8.79,0,1,0,8.79,8.78A8.78,8.78,0,0,0,1056.71,531.36Z" transform="translate(-1022.09 -508.05)"/><path class="cls-1" d="M1059.14,531.69l-.14,0a8.61,8.61,0,0,0-4.56,0,.54.54,0,0,1-.46-.09.51.51,0,0,1-.2-.41v-4.09a.52.52,0,0,1,.52-.52h4.84a.52.52,0,0,1,.52.52v4.09a.52.52,0,0,1-.21.41A.51.51,0,0,1,1059.14,531.69Zm-2.43-1.37a9.3,9.3,0,0,1,1.91.19V527.6h-3.8v2.91A9.18,9.18,0,0,1,1056.71,530.32Z" transform="translate(-1022.09 -508.05)"/><path class="cls-1" d="M1065.71,538.28a.65.65,0,0,1-.2,0,.5.5,0,0,1-.3-.35,8.88,8.88,0,0,0-.89-2.13,8.69,8.69,0,0,0-1.4-1.84.52.52,0,0,1-.15-.43.59.59,0,0,1,.26-.39l3.54-2a.51.51,0,0,1,.4,0,.49.49,0,0,1,.31.24l2.42,4.2a.52.52,0,0,1-.19.71l-3.54,2.05A.59.59,0,0,1,1065.71,538.28Zm-1.59-4.6a9.58,9.58,0,0,1,1.11,1.56A10.53,10.53,0,0,1,1066,537l2.52-1.46-1.9-3.3Z" transform="translate(-1022.09 -508.05)"/><path class="cls-1" d="M1066.83,549.3a.59.59,0,0,1-.26-.07l-3.54-2.05a.52.52,0,0,1-.26-.38.53.53,0,0,1,.16-.44,8.68,8.68,0,0,0,1.39-1.82,9.13,9.13,0,0,0,.89-2.13.5.5,0,0,1,.3-.35.53.53,0,0,1,.46,0l3.54,2a.52.52,0,0,1,.19.71l-2.42,4.19a.52.52,0,0,1-.32.24Zm-2.71-2.69,2.52,1.46,1.9-3.29-2.53-1.46a9.42,9.42,0,0,1-.78,1.74A10.34,10.34,0,0,1,1064.12,546.61Z" transform="translate(-1022.09 -508.05)"/><path class="cls-1" d="M1059.14,553.74h-4.84a.52.52,0,0,1-.52-.52v-4.09a.51.51,0,0,1,.2-.41.54.54,0,0,1,.46-.09,8.61,8.61,0,0,0,4.56,0,.51.51,0,0,1,.45.09.52.52,0,0,1,.21.41v4.09A.52.52,0,0,1,1059.14,553.74Zm-4.32-1h3.8v-2.91a9.72,9.72,0,0,1-3.8,0Z" transform="translate(-1022.09 -508.05)"/><path class="cls-1" d="M1046.61,549.3a.52.52,0,0,1-.45-.26l-2.42-4.19a.55.55,0,0,1-.06-.4.55.55,0,0,1,.25-.31l3.54-2a.53.53,0,0,1,.46,0,.5.5,0,0,1,.3.35,8.86,8.86,0,0,0,.88,2.13,9,9,0,0,0,1.4,1.83.52.52,0,0,1,.15.44.52.52,0,0,1-.26.38l-3.53,2A.48.48,0,0,1,1046.61,549.3Zm-1.71-4.52,1.9,3.29,2.52-1.45a9.58,9.58,0,0,1-1.11-1.56,9.76,9.76,0,0,1-.79-1.74Z" transform="translate(-1022.09 -508.05)"/><path class="cls-1" d="M1047.73,538.28a.59.59,0,0,1-.26-.07l-3.54-2.05a.51.51,0,0,1-.19-.71l2.42-4.19a.49.49,0,0,1,.31-.24.51.51,0,0,1,.4.05l3.53,2a.53.53,0,0,1,.26.39.49.49,0,0,1-.15.43,8.85,8.85,0,0,0-2.28,4,.53.53,0,0,1-.3.35A.79.79,0,0,1,1047.73,538.28Zm-2.83-2.76,2.52,1.46a9.79,9.79,0,0,1,1.9-3.29l-2.52-1.46Z" transform="translate(-1022.09 -508.05)"/><path class="cls-1" d="M1056.71,545.32a5.17,5.17,0,1,1,5.18-5.18A5.18,5.18,0,0,1,1056.71,545.32Zm0-9.3a4.13,4.13,0,1,0,4.14,4.12A4.14,4.14,0,0,0,1056.71,536Z" transform="translate(-1022.09 -508.05)"/><path class="cls-1" d="M1063.25,562.17h-13a.53.53,0,0,1-.54-.52.5.5,0,0,1,.5-.52h13.07a.52.52,0,0,1,0,1Z" transform="translate(-1022.09 -508.05)"/><path class="cls-1" d="M1068.58,558.63h-23.72a.52.52,0,0,1,0-1h23.72a.52.52,0,0,1,0,1Z" transform="translate(-1022.09 -508.05)"/></svg>