<svg width="18" height="18" viewBox="0 0 18 18" fill="none" xmlns="http://www.w3.org/2000/svg">
<path d="M15.2129 0H2.78678C1.25013 0 0 1.25016 0 2.78685V3.99167H17.9997V2.78685C17.9997 1.25016 16.7495 0 15.2129 0ZM2.78678 2.52318C2.49675 2.52318 2.25945 2.28693 2.25945 1.99583C2.25945 1.70474 2.49675 1.46849 2.78678 1.46849C3.07682 1.46849 3.31412 1.70474 3.31412 1.99583C3.31412 2.28693 3.07682 2.52318 2.78678 2.52318ZM5.04588 2.52318C4.75585 2.52318 4.51855 2.28693 4.51855 1.99583C4.51855 1.70474 4.75585 1.46849 5.04588 1.46849C5.33591 1.46849 5.57321 1.70474 5.57321 1.99583C5.57321 2.28693 5.33591 2.52318 5.04588 2.52318ZM7.30533 2.52318C7.01529 2.52318 6.77799 2.28693 6.77799 1.99583C6.77799 1.70474 7.01529 1.46849 7.30533 1.46849C7.59536 1.46849 7.83266 1.70474 7.83266 1.99583C7.83266 2.28693 7.59536 2.52318 7.30533 2.52318Z" fill="#B5BECF"/>
<path d="M0 15.2131C0 16.7498 1.25013 17.9999 2.78678 17.9999H15.2132C16.7499 17.9999 18 16.7498 18 15.2131V5.0459H0V15.2131ZM8.8237 8.17199H15.7128V9.22668H8.8237V8.17199ZM8.8237 10.2831H15.7128V11.3378H8.8237V10.2831ZM8.8237 12.3939H15.7128V13.4486H8.8237V12.3939ZM2.28652 7.73781L7.4231 10.8105L2.28652 13.8831V7.73781Z" fill="#B5BECF"/>
</svg>
