<svg xmlns="http://www.w3.org/2000/svg" xmlns:xlink="http://www.w3.org/1999/xlink" viewBox="0 0 679.43 679.43"><defs><style>.cls-1{fill:none;}.cls-2{isolation:isolate;}.cls-3{fill:url(#linear-gradient);}.cls-4{clip-path:url(#clip-path);}.cls-5{opacity:0.5;mix-blend-mode:multiply;}.cls-6{fill:#296bcc;}.cls-7{opacity:0.4;}.cls-8{fill:#fff;}</style><linearGradient id="linear-gradient" x1="59.71" y1="339.71" x2="619.71" y2="339.71" gradientUnits="userSpaceOnUse"><stop offset="0" stop-color="#2266d3"/><stop offset="1" stop-color="#316fea"/></linearGradient><clipPath id="clip-path" transform="translate(59.71 189.71)"><rect class="cls-1" width="560" height="300"/></clipPath></defs><title>background</title><g class="cls-2"><g id="Layer_1" data-name="Layer 1"><rect class="cls-3" x="59.71" y="189.71" width="560" height="300"/><g class="cls-4"><g class="cls-5"><path class="cls-6" d="M215.33,150.81a2.34,2.34,0,0,1,2.45,2.21h0a2.37,2.37,0,0,1-2.23,2.47h0a2.36,2.36,0,0,1-2.45-2.23h0v-.11h0A2.35,2.35,0,0,1,215.33,150.81Zm-1.63-10.26h0a2.32,2.32,0,0,1,2.63-2h0a2.34,2.34,0,0,1,2,2.65h0a2.33,2.33,0,0,1-2.64,2h0a2.34,2.34,0,0,1-2-2.31h0A1.83,1.83,0,0,1,213.7,140.55ZM216.64,163a2.34,2.34,0,0,1,2.82,1.72h0a2.33,2.33,0,0,1-1.71,2.82h0a2.32,2.32,0,0,1-2.82-1.72h0a2.16,2.16,0,0,1-.08-.56h0A2.33,2.33,0,0,1,216.64,163Zm0-34.85a2.34,2.34,0,0,1,3-1.45h0a2.36,2.36,0,0,1,1.45,3h0a2.34,2.34,0,0,1-3,1.43h0a2.33,2.33,0,0,1-1.57-2.2h0A2.2,2.2,0,0,1,216.67,128.18Zm3.57,46.6a2.34,2.34,0,0,1,3.1,1.14h0a2.34,2.34,0,0,1-1.15,3.1h0a2.35,2.35,0,0,1-3.1-1.15h0a2.34,2.34,0,0,1-.2-1h0A2.3,2.3,0,0,1,220.24,174.78ZM222,116.6h0a2.34,2.34,0,0,1,3.2-.86h0a2.33,2.33,0,0,1,.85,3.2h0a2.35,2.35,0,0,1-3.19.85h0a2.34,2.34,0,0,1-1.17-2h0A2.25,2.25,0,0,1,222,116.6Zm4,69a2.37,2.37,0,0,1,3.27.55h0a2.36,2.36,0,0,1-.54,3.27h0a2.37,2.37,0,0,1-3.28-.54h0a2.44,2.44,0,0,1-.42-1.36h0A2.37,2.37,0,0,1,226,185.61Zm3.3-79.38a2.36,2.36,0,0,1,3.31-.25h0a2.34,2.34,0,0,1,.23,3.31h0a2.35,2.35,0,0,1-3.29.23h0a2.34,2.34,0,0,1-.81-1.77h0A2.38,2.38,0,0,1,229.31,106.23Zm4.41,89a2.35,2.35,0,0,1,3.31-.07h0a2.34,2.34,0,0,1,.09,3.3h0a2.33,2.33,0,0,1-3.3.08h0a2.31,2.31,0,0,1-.74-1.7h0A2.38,2.38,0,0,1,233.72,195.18Zm4.79-97.75h0a2.34,2.34,0,0,1,3.29.39h0a2.36,2.36,0,0,1-.39,3.29h0a2.34,2.34,0,0,1-3.28-.39h0a2.33,2.33,0,0,1-.52-1.45h0A2.35,2.35,0,0,1,238.51,97.43Zm4.6,105.7a2.34,2.34,0,0,1,3.24-.7h0a2.33,2.33,0,0,1,.68,3.23h0a2.32,2.32,0,0,1-3.22.7h0a2.35,2.35,0,0,1-1.08-2h0A2.35,2.35,0,0,1,243.11,203.13ZM249.2,90.52a2.33,2.33,0,0,1,3.15,1h0a2.33,2.33,0,0,1-1,3.15h0a2.34,2.34,0,0,1-3.15-1h0a2.44,2.44,0,0,1-.26-1.07h0A2.36,2.36,0,0,1,249.2,90.52Zm4.61,118.63a2.33,2.33,0,0,1,3-1.29h0a2.32,2.32,0,0,1,1.31,3h0a2.33,2.33,0,0,1-3,1.29h0a2.34,2.34,0,0,1-1.48-2.17h0A2.74,2.74,0,0,1,253.81,209.15ZM261,85.77a2.35,2.35,0,0,1,2.92,1.57h0a2.37,2.37,0,0,1-1.6,2.92h0a2.34,2.34,0,0,1-2.89-1.59h0a2.16,2.16,0,0,1-.1-.66h0A2.33,2.33,0,0,1,261,85.77ZM265.47,213a2.36,2.36,0,0,1,2.75-1.85h0a2.34,2.34,0,0,1,1.85,2.74h0a2.34,2.34,0,0,1-2.73,1.85h0a2.34,2.34,0,0,1-1.89-2.29h0A2.32,2.32,0,0,1,265.47,213Zm8-129.68a2.34,2.34,0,0,1,2.56,2.11h0A2.35,2.35,0,0,1,274,88h0a2.33,2.33,0,0,1-2.55-2.11h0a.71.71,0,0,1,0-.21h0A2.34,2.34,0,0,1,273.5,83.35Zm6.5,129h.11l.16,0h0a2.33,2.33,0,0,1,2.33,2.34h0a2.33,2.33,0,0,1-2.32,2.35H280a2.35,2.35,0,0,1-2.34-2.33h0A2.34,2.34,0,0,1,280,212.3Zm3.68-126.86a2.33,2.33,0,0,1,2.54-2.12h0a2.32,2.32,0,0,1,2.1,2.54h0A2.32,2.32,0,0,1,285.78,88h0a2.35,2.35,0,0,1-2.12-2.34h0A.68.68,0,0,1,283.68,85.44ZM292,211.13a2.33,2.33,0,0,1,2.75,1.84h0a2.33,2.33,0,0,1-1.84,2.74h0a2.34,2.34,0,0,1-2.75-1.84h0a2.22,2.22,0,0,1,0-.45h0A2.35,2.35,0,0,1,292,211.13Zm3.79-123.85a2.33,2.33,0,0,1,2.9-1.59h0a2.33,2.33,0,0,1,1.59,2.9h0a2.34,2.34,0,0,1-2.9,1.59h0a2.35,2.35,0,0,1-1.68-2.24h0A2.5,2.5,0,0,1,295.82,87.28Zm7.56,120.47h0a2.31,2.31,0,0,1,3,1.28h0a2.36,2.36,0,0,1-1.28,3.06h0a2.35,2.35,0,0,1-3.05-1.3h0a2.46,2.46,0,0,1-.18-.87h0A2.36,2.36,0,0,1,303.38,207.75Zm4-116.34a2.34,2.34,0,0,1,3.15-1h0a2.35,2.35,0,0,1,1,3.15h0a2.36,2.36,0,0,1-3.15,1h0a2.36,2.36,0,0,1-1.27-2.09h0A2.37,2.37,0,0,1,307.4,91.41Zm6.47,110.87a2.34,2.34,0,0,1,3.24.7h0a2.34,2.34,0,0,1-.68,3.22h0a2.36,2.36,0,0,1-3.25-.68h0a2.38,2.38,0,0,1-.37-1.28h0A2.33,2.33,0,0,1,313.87,202.28ZM318,97.66a2.32,2.32,0,0,1,3.28-.4h0a2.32,2.32,0,0,1,.4,3.28h0a2.34,2.34,0,0,1-3.29.39h0a2.31,2.31,0,0,1-.89-1.84h0A2.29,2.29,0,0,1,318,97.66Zm5.16,97.26h0a2.34,2.34,0,0,1,3.31.08h0a2.32,2.32,0,0,1-.07,3.3h0a2.33,2.33,0,0,1-3.3-.08h0a2.26,2.26,0,0,1-.65-1.6h0A2.44,2.44,0,0,1,323.14,194.92Zm4.06-89.14a2.33,2.33,0,0,1,3.28.24h0a2.34,2.34,0,0,1-.23,3.3h0a2.35,2.35,0,0,1-3.31-.23h0a2.41,2.41,0,0,1-.58-1.53h0A2.39,2.39,0,0,1,327.2,105.78ZM330.87,186h0a2.33,2.33,0,0,1,3.26-.56h0a2.32,2.32,0,0,1,.56,3.25h0a2.33,2.33,0,0,1-3.26.56h0a2.32,2.32,0,0,1-1-1.91h0A2.27,2.27,0,0,1,330.87,186Zm3.84-70.45a2.32,2.32,0,0,1,3.19.84h0a2.31,2.31,0,0,1-.84,3.19h0a2.32,2.32,0,0,1-3.19-.84h0a2.29,2.29,0,0,1-.32-1.17h0A2.31,2.31,0,0,1,334.71,115.51Zm2.06,60.18a2.33,2.33,0,0,1,3.08-1.17h0a2.34,2.34,0,0,1,1.17,3.1h0a2.34,2.34,0,0,1-3.09,1.17h0a2.37,2.37,0,0,1-1.38-2.14h0A2.36,2.36,0,0,1,336.77,175.69Zm3.49-49.21a2.32,2.32,0,0,1,3,1.43h0a2.35,2.35,0,0,1-1.43,3h0a2.35,2.35,0,0,1-3-1.43h0a2.43,2.43,0,0,1-.14-.78h0A2.32,2.32,0,0,1,340.26,126.48Zm.34,38a2.31,2.31,0,0,1,2.81-1.73h0a2.32,2.32,0,0,1,1.74,2.8h0a2.33,2.33,0,0,1-2.82,1.73h0a2.32,2.32,0,0,1-1.79-2.26h0A1.9,1.9,0,0,1,340.6,164.5Zm3-26.2a2.34,2.34,0,0,1,2.65,2h0a2.34,2.34,0,0,1-2,2.65h0a2.35,2.35,0,0,1-2.65-2h0a1.88,1.88,0,0,1,0-.34h0A2.33,2.33,0,0,1,343.61,138.3Zm-1.39,14.47a2.32,2.32,0,0,1,2.45-2.22h0A2.31,2.31,0,0,1,346.9,153h0a2.35,2.35,0,0,1-2.43,2.23h0a2.34,2.34,0,0,1-2.25-2.33h0Z" transform="translate(59.71 189.71)"/><path class="cls-6" d="M200.23,148.85a2.13,2.13,0,0,1,2.15-2.09h0a2.11,2.11,0,0,1,2.09,2.15h0a2.14,2.14,0,0,1-2.16,2.09h0a2.13,2.13,0,0,1-2.09-2.12h0Zm2.6,10.21a2.08,2.08,0,0,1,2.4,1.79h0a2.13,2.13,0,0,1-1.79,2.4h0a2.13,2.13,0,0,1-2.4-1.79h0a1.77,1.77,0,0,1,0-.32h0A2.1,2.1,0,0,1,202.83,159.06Zm-1.43-22.79a2.14,2.14,0,0,1,2.46-1.73h0a2.14,2.14,0,0,1,1.73,2.46h0a2.13,2.13,0,0,1-2.46,1.72h0a2.13,2.13,0,0,1-1.76-2.08h0A2.31,2.31,0,0,1,201.4,136.27Zm3.82,34.85a2.14,2.14,0,0,1,2.66,1.39h0a2.14,2.14,0,0,1-1.4,2.66h0a2.12,2.12,0,0,1-2.65-1.4h0a2.21,2.21,0,0,1-.09-.62h0A2.11,2.11,0,0,1,205.22,171.12ZM204.55,124a2.13,2.13,0,0,1,2.69-1.32h0a2.14,2.14,0,0,1,1.33,2.7h0a2.15,2.15,0,0,1-2.71,1.32h0a2.11,2.11,0,0,1-1.42-2h0A2.16,2.16,0,0,1,204.55,124Zm4.94,58.62a2.14,2.14,0,0,1,2.85.95h0a2.16,2.16,0,0,1-1,2.86h0a2.14,2.14,0,0,1-2.85-1h0a2.06,2.06,0,0,1-.22-.95h0A2.13,2.13,0,0,1,209.49,182.65Zm.11-70.21a2.15,2.15,0,0,1,2.88-.88h0a2.14,2.14,0,0,1,.86,2.89h0a2.12,2.12,0,0,1-2.87.87h0a2.13,2.13,0,0,1-1.12-1.89h0A2.14,2.14,0,0,1,209.6,112.44Zm5.93,80.92a2.15,2.15,0,0,1,3,.5h0a2.12,2.12,0,0,1-.5,3h0a2.11,2.11,0,0,1-2.95-.5h0a2,2,0,0,1-.4-1.23h0A2.16,2.16,0,0,1,215.53,193.36Zm.89-91.55a2.12,2.12,0,0,1,3-.41h0a2.11,2.11,0,0,1,.41,3h0a2.13,2.13,0,0,1-3,.42h0a2.14,2.14,0,0,1-.84-1.7h0A2.05,2.05,0,0,1,216.42,101.81ZM223.2,203a2.13,2.13,0,0,1,3,0h0a2.14,2.14,0,0,1,0,3h0a2.13,2.13,0,0,1-3,0h0a2.13,2.13,0,0,1-.61-1.48h0A2.15,2.15,0,0,1,223.2,203Zm1.64-110.61a2.12,2.12,0,0,1,3,.06h0a2.12,2.12,0,0,1-.06,3v0a2.12,2.12,0,0,1-3-.08h0a2.11,2.11,0,0,1-.57-1.47h0A2.07,2.07,0,0,1,224.84,92.38Zm7.44,118.92a2.12,2.12,0,0,1,3-.45h0a2.13,2.13,0,0,1,.44,3h0a2.12,2.12,0,0,1-3,.43h0a2.1,2.1,0,0,1-.86-1.7h0A2,2,0,0,1,232.28,211.3Zm2.33-126.92a2.12,2.12,0,0,1,3,.55h0a2.1,2.1,0,0,1-.54,2.94h0a2.13,2.13,0,0,1-2.95-.53h0a2.15,2.15,0,0,1-.37-1.21h0A2.14,2.14,0,0,1,234.61,84.38Zm7.94,133.7a2.13,2.13,0,0,1,2.86-.92h0a2.15,2.15,0,0,1,.91,2.87h0a2.1,2.1,0,0,1-2.85.9h0a2.1,2.1,0,0,1-1.16-1.88h0A2.11,2.11,0,0,1,242.55,218.08Zm3-140a2.12,2.12,0,0,1,2.84,1h0a2.13,2.13,0,0,1-1,2.82h0a2.13,2.13,0,0,1-2.84-1h0a2.14,2.14,0,0,1-.2-.91h0A2.09,2.09,0,0,1,245.54,78Zm8.23,145.11a2.12,2.12,0,0,1,2.68-1.36h0a2.14,2.14,0,0,1,1.36,2.68h0a2.15,2.15,0,0,1-2.69,1.36h0v0h0a2.12,2.12,0,0,1-1.46-2h0A2.39,2.39,0,0,1,253.77,223.15Zm3.57-149.66h0A2.14,2.14,0,0,1,260,74.92h0a2.14,2.14,0,0,1-1.43,2.65h0a2.13,2.13,0,0,1-2.64-1.43h0a2.2,2.2,0,0,1-.09-.61h0A2.12,2.12,0,0,1,257.34,73.49Zm8.3,152.87a2.13,2.13,0,0,1,2.44-1.76h0a2.12,2.12,0,0,1,1.76,2.43h0a2.13,2.13,0,0,1-2.43,1.76h0a2.14,2.14,0,0,1-1.8-2.11h0C265.61,226.58,265.63,226.47,265.64,226.36ZM269.7,70.88a2.14,2.14,0,0,1,2.37,1.84h0a2.11,2.11,0,0,1-1.84,2.37h0a2.11,2.11,0,0,1-2.38-1.82h0a1.37,1.37,0,0,1,0-.28h0A2.13,2.13,0,0,1,269.7,70.88ZM280,225.53a2.12,2.12,0,0,1,2.12,2.12h0a2.12,2.12,0,0,1-2.12,2.12h0a2.12,2.12,0,0,1-2.12-2.12h0A2.12,2.12,0,0,1,280,225.53Zm.12-153.21a2.14,2.14,0,0,1,2.19-2.06h0a2.11,2.11,0,0,1,2.05,2.18h0a2.12,2.12,0,0,1-2.18,2.06h0a2.12,2.12,0,0,1-2.06-2.12h0Zm7.47,152.84a2.12,2.12,0,0,1,2.32,1.9h0a2.12,2.12,0,0,1-1.9,2.32h0a2.12,2.12,0,0,1-2.32-1.9h0a.82.82,0,0,1,0-.22h0A2.13,2.13,0,0,1,287.59,225.16Zm4.8-151.86a2.12,2.12,0,0,1,2.48-1.68h0a2.1,2.1,0,0,1,1.68,2.47h0a2.13,2.13,0,0,1-2.48,1.69h0a2.13,2.13,0,0,1-1.73-2.09h0A1.81,1.81,0,0,1,292.39,73.3Zm7,149.72v0a2.11,2.11,0,0,1,2.59,1.49h0a2.15,2.15,0,0,1-1.52,2.61h0a2.12,2.12,0,0,1-2.58-1.51h0a2.09,2.09,0,0,1-.08-.55h0A2.16,2.16,0,0,1,299.36,223Zm5-146.81a2.1,2.1,0,0,1,2.71-1.27h0a2.12,2.12,0,0,1,1.28,2.71h0a2.14,2.14,0,0,1-2.72,1.28h0a2.12,2.12,0,0,1-1.4-2h0A1.86,1.86,0,0,1,304.35,76.21Zm6.29,142.85a2.1,2.1,0,0,1,2.79,1.08h0a2.11,2.11,0,0,1-1.07,2.8h0a2.12,2.12,0,0,1-2.79-1.07h0a2.07,2.07,0,0,1-.19-.87h0A2.12,2.12,0,0,1,310.64,219.06ZM315.69,81a2.13,2.13,0,0,1,2.89-.82h0A2.11,2.11,0,0,1,319.4,83h0a2.12,2.12,0,0,1-2.88.83h0A2.12,2.12,0,0,1,315.43,82h0A2.16,2.16,0,0,1,315.69,81Zm5.46,132.38h0a2.11,2.11,0,0,1,2.93.61h0a2.12,2.12,0,0,1-.63,2.94h0a2.12,2.12,0,0,1-2.93-.62h0a2.17,2.17,0,0,1-.34-1.16h0A2.08,2.08,0,0,1,321.15,213.36Zm5-125.86a2.13,2.13,0,0,1,3-.38h0a2.14,2.14,0,0,1,.36,3h0a2.14,2.14,0,0,1-3,.36h0a2.16,2.16,0,0,1-.81-1.67h0A2,2,0,0,1,326.14,87.5Zm4.48,118.56a2.12,2.12,0,0,1,3,.14h0a2.13,2.13,0,0,1-.16,3h0a2.14,2.14,0,0,1-3-.15h0a2.17,2.17,0,0,1-.55-1.42h0A2.11,2.11,0,0,1,330.62,206.06Zm4.81-110.49a2.12,2.12,0,0,1,3,.11h0a2.12,2.12,0,0,1-.11,3h0a2.11,2.11,0,0,1-3-.11h0a2,2,0,0,1-.58-1.44h0A2.08,2.08,0,0,1,335.43,95.57Zm3.41,101.8a2.13,2.13,0,0,1,3-.33h0a2.11,2.11,0,0,1,.31,3h0a2.1,2.1,0,0,1-3,.32h0a2.08,2.08,0,0,1-.8-1.65h0A2.11,2.11,0,0,1,338.84,197.37ZM343.33,105a2.12,2.12,0,0,1,2.94.58h0a2.12,2.12,0,0,1-.57,2.94h0a2.13,2.13,0,0,1-2.95-.59h0a2,2,0,0,1-.37-1.17h0A2.13,2.13,0,0,1,343.33,105Zm2.26,82.47v0a2.13,2.13,0,0,1,2.9-.8h0a2.14,2.14,0,0,1,.79,2.9h0a2.13,2.13,0,0,1-2.9.78h0a2.13,2.13,0,0,1-1.07-1.84h0A2.16,2.16,0,0,1,345.59,187.47Zm4.05-71.92a2.13,2.13,0,0,1,2.82,1h0a2.14,2.14,0,0,1-1,2.82h0a2.12,2.12,0,0,1-2.81-1h0a2,2,0,0,1-.2-.89h0A2.11,2.11,0,0,1,349.64,115.55Zm1.06,61.1a2.12,2.12,0,0,1,2.73-1.23h0a2.12,2.12,0,0,1,1.23,2.73h0a2.14,2.14,0,0,1-2.73,1.25h0a2.13,2.13,0,0,1-1.37-2h0A2.21,2.21,0,0,1,350.7,176.65ZM354.21,127a2.14,2.14,0,0,1,2.62,1.48h0a2.14,2.14,0,0,1-1.47,2.62h0a2.12,2.12,0,0,1-2.62-1.48h0a1.85,1.85,0,0,1-.08-.58h0A2.14,2.14,0,0,1,354.21,127ZM354,165.15a2.13,2.13,0,0,1,2.51-1.65h0a2.13,2.13,0,0,1,1.66,2.51h0a2.14,2.14,0,0,1-2.5,1.65h0a2.12,2.12,0,0,1-1.7-2.09h0A2.08,2.08,0,0,1,354,165.15ZM356.9,139a2.13,2.13,0,0,1,2.36,1.86h0a2.13,2.13,0,0,1-1.87,2.35h0a2.13,2.13,0,0,1-2.36-1.87h0c0-.08,0-.16,0-.24h0A2.12,2.12,0,0,1,356.9,139Zm-1.45,14.31a2.14,2.14,0,0,1,2.22-2h0a2.11,2.11,0,0,1,2,2.21h0a2.11,2.11,0,0,1-2.19,2h0a2.13,2.13,0,0,1-2.05-2.12h0Z" transform="translate(59.71 189.71)"/><path class="cls-6" d="M187.57,144.45a1.91,1.91,0,0,1,2-1.79h0a1.91,1.91,0,0,1,1.78,2h0a1.92,1.92,0,0,1-2,1.79h0a1.91,1.91,0,0,1-1.8-1.9h0ZM189.43,155a1.89,1.89,0,0,1,2,1.76h0a1.88,1.88,0,0,1-1.75,2h0a1.9,1.9,0,0,1-2-1.76h0a.61.61,0,0,1,0-.14h0A1.91,1.91,0,0,1,189.43,155Zm-.27-23a1.93,1.93,0,0,1,2.25-1.5h0a1.91,1.91,0,0,1,1.49,2.25h0a1.9,1.9,0,0,1-2.23,1.49h0a1.92,1.92,0,0,1-1.54-1.87h0C189.13,132.22,189.15,132.09,189.16,132Zm1.76,35.22a1.9,1.9,0,0,1,2.26,1.47h0a1.88,1.88,0,0,1-1.46,2.26h0a1.91,1.91,0,0,1-2.26-1.45h0v0h0a1.67,1.67,0,0,1,0-.39h0A1.91,1.91,0,0,1,190.92,167.19Zm1.53-47.37h0a1.91,1.91,0,0,1,2.42-1.18h0a1.91,1.91,0,0,1,1.18,2.42h0a1.92,1.92,0,0,1-2.43,1.18h0a1.9,1.9,0,0,1-1.28-1.79h0A1.71,1.71,0,0,1,192.45,119.82Zm1.62,59.3a1.87,1.87,0,0,1,2.43,1.13h0a1.89,1.89,0,0,1-1.13,2.43h0a1.91,1.91,0,0,1-2.44-1.13h0a2.53,2.53,0,0,1-.11-.66h0A1.87,1.87,0,0,1,194.07,179.12Zm3.28-70.89h0a1.92,1.92,0,0,1,2.57-.84h0a1.9,1.9,0,0,1,.82,2.57h0a1.88,1.88,0,0,1-2.55.82h0a1.88,1.88,0,0,1-1.05-1.69h0A1.94,1.94,0,0,1,197.35,108.23Zm1.46,82.25a1.89,1.89,0,0,1,2.57.79h0a1.89,1.89,0,0,1-.79,2.57h0a1.88,1.88,0,0,1-2.57-.79h0a1.78,1.78,0,0,1-.22-.89h0A1.91,1.91,0,0,1,198.81,190.48Zm5-93h0a1.89,1.89,0,0,1,2.65-.49h0a1.89,1.89,0,0,1,.49,2.65h0a1.92,1.92,0,0,1-2.65.49h0a2,2,0,0,1-.83-1.58h0A1.84,1.84,0,0,1,203.78,97.43ZM205,201.09a1.94,1.94,0,0,1,2.67.44h0a1.89,1.89,0,0,1-.45,2.65h0a1.91,1.91,0,0,1-2.65-.43h0a1.9,1.9,0,0,1-.36-1.11h0A2,2,0,0,1,205,201.09Zm6.58-113.5h0a1.89,1.89,0,0,1,2.69-.12h0a1.88,1.88,0,0,1,.13,2.68h0a1.9,1.9,0,0,1-2.7.12h0a1.92,1.92,0,0,1-.61-1.4h0A1.87,1.87,0,0,1,211.62,87.59Zm1,123.18a1.91,1.91,0,0,1,2.69.08h0a1.92,1.92,0,0,1-.07,2.7h0a1.93,1.93,0,0,1-2.7-.08h0a2,2,0,0,1-.51-1.31h0A1.91,1.91,0,0,1,212.67,210.77Zm8-131.88a1.91,1.91,0,0,1,2.68.25h0a1.9,1.9,0,0,1-.25,2.68h0a1.89,1.89,0,0,1-2.68-.24h0a1.87,1.87,0,0,1-.44-1.22h0A1.92,1.92,0,0,1,220.71,78.89Zm.81,140.44a1.92,1.92,0,0,1,2.68-.28h0a1.91,1.91,0,0,1,.28,2.68h0a1.89,1.89,0,0,1-2.68.28h0a1.86,1.86,0,0,1-.7-1.48h0A2,2,0,0,1,221.52,219.33Zm9.35-147.82a1.93,1.93,0,0,1,2.64.6h0a1.9,1.9,0,0,1-.61,2.62h0a1.89,1.89,0,0,1-2.62-.59h0a1.88,1.88,0,0,1-.3-1h0A1.89,1.89,0,0,1,230.87,71.51Zm.58,155.11a1.92,1.92,0,0,1,2.62-.64h0a1.91,1.91,0,0,1,.64,2.62h0a1.89,1.89,0,0,1-2.61.64h0a1.91,1.91,0,0,1-.91-1.62h0A1.91,1.91,0,0,1,231.45,226.62Zm10.5-161h0a1.9,1.9,0,0,1,2.51,1h0a1.87,1.87,0,0,1-1,2.5h0a1.9,1.9,0,0,1-2.51-1h0a1.77,1.77,0,0,1-.17-.78h0A1.91,1.91,0,0,1,242,65.57Zm.33,166.94a1.91,1.91,0,0,1,2.51-1h0a1.93,1.93,0,0,1,1,2.51h0a1.91,1.91,0,0,1-2.51,1h0a1.9,1.9,0,0,1-1.16-1.75h0A1.84,1.84,0,0,1,242.28,232.51ZM253.74,61.19a1.91,1.91,0,0,1,2.37,1.29h0a1.91,1.91,0,0,1-1.3,2.37h0a1.89,1.89,0,0,1-2.35-1.29h0a1.63,1.63,0,0,1-.08-.53h0A1.91,1.91,0,0,1,253.74,61.19Zm.07,175.67a1.92,1.92,0,0,1,2.36-1.32h0a1.91,1.91,0,0,1,1.32,2.35h0a1.92,1.92,0,0,1-2.35,1.33h0a2,2,0,0,1-1.4-1.84h0A2.32,2.32,0,0,1,253.81,236.86ZM266,58.46a1.91,1.91,0,0,1,2.17,1.61h0a1.91,1.91,0,0,1-1.61,2.16h0a1.91,1.91,0,0,1-2.17-1.59h0c0-.11,0-.2,0-.29h0A1.93,1.93,0,0,1,266,58.46Zm-.19,181.15A1.9,1.9,0,0,1,268,238h0a1.91,1.91,0,0,1,1.63,2.13h0a1.91,1.91,0,0,1-2.15,1.64h0a1.9,1.9,0,0,1-1.65-1.88h0A1.9,1.9,0,0,1,265.83,239.61ZM278.55,57.43a1.91,1.91,0,0,1,1.93,1.87h0a1.9,1.9,0,0,1-1.88,1.94h0a1.92,1.92,0,0,1-1.94-1.87h0v0h0A1.92,1.92,0,0,1,278.55,57.43ZM280,238.78h0a1.84,1.84,0,0,1,1.4.62h0a2.1,2.1,0,0,1,.05,2.51h0a1.89,1.89,0,0,1-1.45.67h0a1.89,1.89,0,0,1-1.9-1.9h0A1.89,1.89,0,0,1,280,238.78Zm9-179a1.9,1.9,0,0,1,2.12-1.67h0a1.92,1.92,0,0,1,1.67,2.12h0a1.92,1.92,0,0,1-2.12,1.67h0A1.91,1.91,0,0,1,289,60h0C289,59.9,289,59.82,289,59.74Zm5.83,177.81a1.89,1.89,0,0,1,2.18,1.56h0a1.88,1.88,0,0,1-1.56,2.19h0a1.89,1.89,0,0,1-2.18-1.55h0a1.23,1.23,0,0,1,0-.33h0A1.89,1.89,0,0,1,294.81,237.55Zm6.33-175.77a1.88,1.88,0,0,1,2.32-1.37h0a1.91,1.91,0,0,1,1.35,2.34h0a1.9,1.9,0,0,1-2.32,1.35h0a1.9,1.9,0,0,1-1.42-1.84h0A1.55,1.55,0,0,1,301.14,61.78Zm5.39,173a1.9,1.9,0,0,1,2.38,1.25h0a1.9,1.9,0,0,1-1.24,2.38h0a1.88,1.88,0,0,1-2.39-1.24h0a1.87,1.87,0,0,1-.09-.56h0A1.93,1.93,0,0,1,306.53,234.74Zm6.36-169.28a1.9,1.9,0,0,1,2.49-1h0a1.89,1.89,0,0,1,1,2.48h0a1.9,1.9,0,0,1-2.48,1h0a1.91,1.91,0,0,1-1.18-1.76h0A1.81,1.81,0,0,1,312.89,65.46Zm4.88,164.9a1.89,1.89,0,0,1,2.52.92h0a1.89,1.89,0,0,1-.9,2.53h0a1.9,1.9,0,0,1-2.54-.91h0a1.8,1.8,0,0,1-.18-.81h0A1.89,1.89,0,0,1,317.77,230.36ZM324.05,70.7a1.9,1.9,0,0,1,2.6-.69h0a1.91,1.91,0,0,1,.69,2.6h0a1.9,1.9,0,0,1-2.61.69h0a1.89,1.89,0,0,1-1-1.64h0A2,2,0,0,1,324.05,70.7Zm4.24,153.8a1.91,1.91,0,0,1,2.63.56h0a1.9,1.9,0,0,1-.56,2.64h0a1.9,1.9,0,0,1-2.63-.56h0a1.86,1.86,0,0,1-.32-1h0A1.94,1.94,0,0,1,328.29,224.5Zm6.09-147.09a1.9,1.9,0,0,1,2.67-.32h0a1.87,1.87,0,0,1,.32,2.66h0a1.88,1.88,0,0,1-2.66.33h0a1.9,1.9,0,0,1-.73-1.5h0A1.86,1.86,0,0,1,334.38,77.41Zm3.55,139.86a1.92,1.92,0,0,1,2.69.2h0a1.9,1.9,0,0,1-.21,2.68h0a1.89,1.89,0,0,1-2.68-.2h0a1.88,1.88,0,0,1-.47-1.23h0A1.91,1.91,0,0,1,337.93,217.27Zm5.79-131.83a1.9,1.9,0,0,1,2.68,0h0a1.92,1.92,0,0,1,0,2.69h0a1.9,1.9,0,0,1-2.7,0h0a1.86,1.86,0,0,1-.53-1.33h0A1.91,1.91,0,0,1,343.72,85.44Zm2.79,123.35h0a1.91,1.91,0,0,1,2.69-.15h0a1.9,1.9,0,0,1,.16,2.68h0a1.89,1.89,0,0,1-2.68.17h0a1.94,1.94,0,0,1-.64-1.44h0A2,2,0,0,1,346.51,208.79Zm5.36-114.11a1.9,1.9,0,0,1,2.66.39h0a1.89,1.89,0,0,1-.4,2.67h0a1.88,1.88,0,0,1-2.65-.41h0a1.75,1.75,0,0,1-.37-1.12h0A1.87,1.87,0,0,1,351.87,94.68Zm2,104.56h0a1.91,1.91,0,0,1,2.65-.52h0a1.9,1.9,0,0,1,.53,2.64h0a1.93,1.93,0,0,1-2.65.53h0a1.94,1.94,0,0,1-.84-1.59h0A1.92,1.92,0,0,1,353.88,199.24Zm4.83-94.33a1.92,1.92,0,0,1,2.59.76h0a1.9,1.9,0,0,1-.77,2.59h0a1.91,1.91,0,0,1-2.58-.76h0a1.85,1.85,0,0,1-.24-.91h0A1.9,1.9,0,0,1,358.71,104.91Zm1.17,83.87h0a1.89,1.89,0,0,1,2.54-.87h0a1.88,1.88,0,0,1,.87,2.54h0a1.9,1.9,0,0,1-2.54.89h0a2,2,0,0,1-1.07-1.72h0A1.79,1.79,0,0,1,359.88,188.78ZM364.1,116a1.93,1.93,0,0,1,2.47,1.11h0a1.92,1.92,0,0,1-1.11,2.46h0a1.9,1.9,0,0,1-2.46-1.1h0a2,2,0,0,1-.13-.67h0A1.93,1.93,0,0,1,364.1,116Zm.3,61.63a1.9,1.9,0,0,1,2.4-1.21h0a1.91,1.91,0,0,1,1.22,2.4h0a1.9,1.9,0,0,1-2.4,1.21h0a1.9,1.9,0,0,1-1.31-1.8h0A2,2,0,0,1,364.4,177.6Zm3.54-49.9a1.88,1.88,0,0,1,2.27,1.41h0a1.92,1.92,0,0,1-1.43,2.3h0A1.92,1.92,0,0,1,366.5,130h0a2,2,0,0,1,0-.43h0A1.89,1.89,0,0,1,367.94,127.7Zm-.59,38.21a1.88,1.88,0,0,1,2.21-1.52h0a1.89,1.89,0,0,1,1.54,2.21h0a1.91,1.91,0,0,1-2.21,1.53h0a1.92,1.92,0,0,1-1.58-1.87h0A2.09,2.09,0,0,1,367.35,165.91Zm2.79-26.1a1.88,1.88,0,0,1,2.05,1.73h0a1.9,1.9,0,0,1-1.71,2.07h0a1.91,1.91,0,0,1-2.07-1.73h0v-.19h0A1.89,1.89,0,0,1,370.14,139.81Zm-1.45,14.12a1.89,1.89,0,0,1,2-1.81h0a1.88,1.88,0,0,1,1.82,2h0a1.9,1.9,0,0,1-2,1.82h0a1.9,1.9,0,0,1-1.82-1.9h0Z" transform="translate(59.71 189.71)"/><path class="cls-6" d="M176.29,150.84a1.71,1.71,0,0,1,1.73,1.65h0a1.7,1.7,0,0,1-1.65,1.73h0a1.68,1.68,0,0,1-1.73-1.65h0v0h0A1.7,1.7,0,0,1,176.29,150.84Zm-1.22-10.78a1.68,1.68,0,0,1,1.84-1.53h0a1.67,1.67,0,0,1,1.51,1.84h0a1.67,1.67,0,0,1-1.82,1.52h0a1.69,1.69,0,0,1-1.54-1.68h0A.66.66,0,0,1,175.07,140.06Zm2,23.08a1.69,1.69,0,0,1,1.92,1.43h0a1.72,1.72,0,0,1-1.44,1.92h0a1.72,1.72,0,0,1-1.92-1.43h0c0-.08,0-.17,0-.25h0A1.69,1.69,0,0,1,177.1,163.14ZM177,127.66a1.71,1.71,0,0,1,2-1.29h0a1.69,1.69,0,0,1,1.3,2h0a1.71,1.71,0,0,1-2,1.3h0a1.7,1.7,0,0,1-1.33-1.66h0A1.54,1.54,0,0,1,177,127.66Zm2.4,47.61a1.69,1.69,0,0,1,2.08,1.2v0a1.7,1.7,0,0,1-1.2,2.07h0a1.69,1.69,0,0,1-2.08-1.2h0a1.24,1.24,0,0,1-.06-.43h0A1.69,1.69,0,0,1,179.37,175.27Zm1-59.68h0a1.68,1.68,0,0,1,2.13-1h0a1.68,1.68,0,0,1,1,2.15h0a1.71,1.71,0,0,1-2.14,1h0a1.71,1.71,0,0,1-1.14-1.59h0A1.54,1.54,0,0,1,180.36,115.59ZM183.08,187a1.68,1.68,0,0,1,2.2.95h0a1.72,1.72,0,0,1-.93,2.2h0a1.69,1.69,0,0,1-2.2-1h0a1.33,1.33,0,0,1-.13-.62h0A1.7,1.7,0,0,1,183.08,187Zm2.06-83a1.68,1.68,0,0,1,2.26-.78h0a1.68,1.68,0,0,1,.78,2.26h0a1.69,1.69,0,0,1-2.24.77h0a1.7,1.7,0,0,1-1-1.52h0A1.7,1.7,0,0,1,185.14,104Zm3,94.25a1.68,1.68,0,0,1,2.3.67h0a1.69,1.69,0,0,1-.67,2.29h0a1.7,1.7,0,0,1-2.3-.67h0a1.7,1.7,0,0,1-.2-.81h0A1.68,1.68,0,0,1,188.16,198.26Zm3.12-105.18a1.7,1.7,0,0,1,2.34-.52h0a1.71,1.71,0,0,1,.51,2.34h0a1.68,1.68,0,0,1-2.33.5h0A1.67,1.67,0,0,1,191,94h0A1.74,1.74,0,0,1,191.28,93.08Zm3.26,115.73a1.69,1.69,0,0,1,2.37.39h0a1.69,1.69,0,0,1-.41,2.35h0a1.69,1.69,0,0,1-2.35-.39h0a1.75,1.75,0,0,1-.31-1h0A1.68,1.68,0,0,1,194.54,208.81ZM198.69,83a1.68,1.68,0,0,1,2.37-.22h0a1.69,1.69,0,0,1,.23,2.37h0a1.71,1.71,0,0,1-2.39.23h0a1.7,1.7,0,0,1-.6-1.31h0A1.63,1.63,0,0,1,198.69,83Zm3.44,135.57a1.69,1.69,0,0,1,2.39.11h0a1.71,1.71,0,0,1-.11,2.4h0a1.7,1.7,0,0,1-2.39-.13h0a1.65,1.65,0,0,1-.44-1.14h0A1.71,1.71,0,0,1,202.13,218.52Zm5.08-144.74h0a1.69,1.69,0,0,1,2.39,0h0a1.68,1.68,0,0,1,0,2.38h0a1.68,1.68,0,0,1-2.39,0h0A1.7,1.7,0,0,1,206.7,75h0A1.69,1.69,0,0,1,207.21,73.78Zm3.6,153.5a1.7,1.7,0,0,1,2.39-.17h0a1.69,1.69,0,0,1,.17,2.38h0a1.7,1.7,0,0,1-2.39.17h0a1.73,1.73,0,0,1-.57-1.28h0A1.75,1.75,0,0,1,210.81,227.28Zm6-161.6a1.69,1.69,0,0,1,2.36.32h0a1.68,1.68,0,0,1-.34,2.37h0a1.66,1.66,0,0,1-2.35-.34h0a1.56,1.56,0,0,1-.34-1h0A1.67,1.67,0,0,1,216.77,65.68Zm3.71,169.26a1.69,1.69,0,0,1,2.35-.43h0a1.67,1.67,0,0,1,.46,2.34h0a1.71,1.71,0,0,1-2.34.45h0a1.68,1.68,0,0,1-.75-1.4h0A1.65,1.65,0,0,1,220.48,234.94Zm6.73-176.18a1.7,1.7,0,0,1,2.32.62h0a1.67,1.67,0,0,1-.62,2.29v0a1.71,1.71,0,0,1-2.31-.63h0a1.71,1.71,0,0,1-.23-.84h0A1.69,1.69,0,0,1,227.21,58.76ZM231,241.43a1.7,1.7,0,0,1,2.28-.73h0A1.68,1.68,0,0,1,234,243h0a1.68,1.68,0,0,1-2.27.73h0a1.67,1.67,0,0,1-.91-1.51h0A1.78,1.78,0,0,1,231,241.43Zm7.42-188.3a1.7,1.7,0,0,1,2.23.89h0a1.68,1.68,0,0,1-.89,2.21h0a1.67,1.67,0,0,1-2.21-.89h0a1.46,1.46,0,0,1-.14-.65h0A1.72,1.72,0,0,1,238.4,53.13Zm3.77,193.47a1.7,1.7,0,0,1,2.17-1h0a1.71,1.71,0,0,1,1,2.18h0a1.68,1.68,0,0,1-2.17,1h0a1.67,1.67,0,0,1-1.11-1.57h0A1.59,1.59,0,0,1,242.17,246.6Zm8-197.72h0A1.68,1.68,0,0,1,252.3,50h0a1.71,1.71,0,0,1-1.15,2.09h0A1.68,1.68,0,0,1,249.06,51h0a1.66,1.66,0,0,1-.08-.48h0A1.69,1.69,0,0,1,250.2,48.88Zm3.71,201.53a1.67,1.67,0,0,1,2-1.23h0a1.67,1.67,0,0,1,1.25,2h0a1.69,1.69,0,0,1-2,1.25h0a1.68,1.68,0,0,1-1.3-1.64h0A1.83,1.83,0,0,1,253.91,250.41Zm8.51-204.34h0a1.67,1.67,0,0,1,1.93,1.39h0A1.7,1.7,0,0,1,263,49.41h0A1.69,1.69,0,0,1,261,48h0c0-.1,0-.19,0-.28h0A1.7,1.7,0,0,1,262.42,46.07ZM266,252.79a1.69,1.69,0,0,1,1.87-1.48h0a1.69,1.69,0,0,1,1.48,1.87h0a1.69,1.69,0,0,1-1.87,1.48h0A1.69,1.69,0,0,1,266,253h0A.65.65,0,0,1,266,252.79Zm8.85-208.06a1.67,1.67,0,0,1,1.76,1.61h0A1.67,1.67,0,0,1,275,48.1h0a1.69,1.69,0,0,1-1.76-1.61h0v-.08h0A1.69,1.69,0,0,1,274.87,44.73ZM280,252a1.69,1.69,0,0,1,1.68,1.7h0a1.68,1.68,0,0,1-1.68,1.68h0a1.68,1.68,0,0,1-1.7-1.68h0A1.7,1.7,0,0,1,280,252Zm5.6-205.58a1.68,1.68,0,0,1,1.8-1.56h0A1.69,1.69,0,0,1,289,46.66h0a1.69,1.69,0,0,1-1.79,1.58h0a1.69,1.69,0,0,1-1.57-1.69h0Zm4.31,205.12a1.67,1.67,0,0,1,1.84,1.51h0a1.67,1.67,0,0,1-1.51,1.84h0a1.68,1.68,0,0,1-1.84-1.52h0a.91.91,0,0,1,0-.17h0A1.66,1.66,0,0,1,289.91,251.55Zm7.94-203.73a1.67,1.67,0,0,1,2-1.34h0a1.67,1.67,0,0,1,1.34,2h0a1.67,1.67,0,0,1-2,1.34h0a1.67,1.67,0,0,1-1.37-1.65h0A1.55,1.55,0,0,1,297.85,47.82Zm4,201.84a1.69,1.69,0,0,1,2,1.29h0a1.68,1.68,0,0,1-1.29,2h0a1.68,1.68,0,0,1-2-1.29h0a2.09,2.09,0,0,1,0-.36h0A1.68,1.68,0,0,1,301.9,249.66Zm8-199A1.68,1.68,0,0,1,312,49.55h0a1.69,1.69,0,0,1,1.1,2.12h0a1.7,1.7,0,0,1-2.12,1.1h0a1.71,1.71,0,0,1-1.18-1.62h0A1.81,1.81,0,0,1,309.85,50.64Zm3.72,195.73h0a1.69,1.69,0,0,1,2.15,1h0a1.68,1.68,0,0,1-1,2.15h0a1.7,1.7,0,0,1-2.15-1h0a1.82,1.82,0,0,1-.09-.56h0A1.66,1.66,0,0,1,313.57,246.37Zm7.86-191.48a1.69,1.69,0,0,1,2.24-.84h0a1.71,1.71,0,0,1,.84,2.24h0a1.68,1.68,0,0,1-2.24.83h0a1.67,1.67,0,0,1-1-1.53h0A1.9,1.9,0,0,1,321.43,54.89Zm3.33,186.8h0a1.69,1.69,0,0,1,2.26.78h0a1.67,1.67,0,0,1-.78,2.26h0A1.67,1.67,0,0,1,324,244h0a1.75,1.75,0,0,1-.18-.74h0A1.71,1.71,0,0,1,324.76,241.69Zm7.67-181.2a1.68,1.68,0,0,1,2.32-.56h0a1.69,1.69,0,0,1,.57,2.32h0a1.71,1.71,0,0,1-2.33.56h0a1.65,1.65,0,0,1-.81-1.43h0A1.67,1.67,0,0,1,332.43,60.49Zm2.89,175.23a1.68,1.68,0,0,1,2.33.52h0a1.68,1.68,0,0,1-.49,2.32h0a1.68,1.68,0,0,1-2.34-.5h0a1.6,1.6,0,0,1-.27-.92h0A1.71,1.71,0,0,1,335.32,235.72Zm7.35-168.36a1.68,1.68,0,0,1,2.37-.28h0a1.68,1.68,0,0,1,.3,2.37h0a1.69,1.69,0,0,1-2.37.28h0a1.66,1.66,0,0,1-.66-1.32h0A1.75,1.75,0,0,1,342.67,67.36Zm2.42,161.2h0a1.69,1.69,0,0,1,2.38.21h0a1.7,1.7,0,0,1-.22,2.39h0v0h0a1.68,1.68,0,0,1-2.38-.22h0a1.64,1.64,0,0,1-.39-1.07h0A1.69,1.69,0,0,1,345.09,228.56Zm7-153.17a1.66,1.66,0,0,1,2.38,0h0a1.64,1.64,0,0,1,0,2.38h0a1.68,1.68,0,0,1-2.38,0h0a1.67,1.67,0,0,1-.5-1.2h0A1.68,1.68,0,0,1,352,75.39ZM354,220.26a1.69,1.69,0,0,1,2.38-.06h0a1.69,1.69,0,0,1,.06,2.4h0a1.68,1.68,0,0,1-2.38.05h0a1.71,1.71,0,0,1-.53-1.22h0A1.71,1.71,0,0,1,354,220.26Zm6.43-135.8a1.68,1.68,0,0,1,2.37.28h0a1.68,1.68,0,0,1-.28,2.37h0a1.69,1.69,0,0,1-2.37-.28h0a1.62,1.62,0,0,1-.35-1h0A1.69,1.69,0,0,1,360.39,84.46ZM361.78,211h0a1.69,1.69,0,0,1,2.37-.34h0a1.7,1.7,0,0,1,.34,2.37h0a1.7,1.7,0,0,1-2.37.34h0a1.73,1.73,0,0,1-.68-1.36h0A1.66,1.66,0,0,1,361.78,211Zm5.83-116.54a1.7,1.7,0,0,1,2.32.56h0a1.68,1.68,0,0,1-.56,2.32h0a1.68,1.68,0,0,1-2.32-.54h0a1.72,1.72,0,0,1-.25-.89h0A1.71,1.71,0,0,1,367.61,94.45Zm.84,106.41a1.7,1.7,0,0,1,2.31-.63h0a1.69,1.69,0,0,1,.62,2.31h0a1.67,1.67,0,0,1-2.3.62h0a1.67,1.67,0,0,1-.85-1.46h0A1.7,1.7,0,0,1,368.45,200.86Zm5.13-95.62a1.68,1.68,0,0,1,2.24.82h0a1.7,1.7,0,0,1-.82,2.25h0a1.7,1.7,0,0,1-2.25-.83h0a1.76,1.76,0,0,1-.15-.7h0A1.7,1.7,0,0,1,373.58,105.24Zm.3,84.77a1.69,1.69,0,0,1,2.21-.9h0a1.7,1.7,0,0,1,.89,2.23h0a1.7,1.7,0,0,1-2.22.88h0a1.71,1.71,0,0,1-1-1.55h0A1.51,1.51,0,0,1,373.88,190Zm4.36-73.35a1.67,1.67,0,0,1,2.12,1.09h0a1.67,1.67,0,0,1-1.09,2.12h0a1.68,1.68,0,0,1-2.12-1.09h0a1.51,1.51,0,0,1-.08-.51h0A1.68,1.68,0,0,1,378.24,116.66ZM378,178.59a1.69,1.69,0,0,1,2.09-1.16h0a1.68,1.68,0,0,1,1.15,2.09h0a1.69,1.69,0,0,1-2.09,1.15h0a1.67,1.67,0,0,1-1.21-1.62h0A1.46,1.46,0,0,1,378,178.59Zm3.54-50a1.7,1.7,0,0,1,2,1.34h0a1.7,1.7,0,0,1-1.34,2h0a1.69,1.69,0,0,1-2-1.34h0a1.84,1.84,0,0,1,0-.33h0A1.69,1.69,0,0,1,381.5,128.55Zm-.86,38.2a1.72,1.72,0,0,1,1.95-1.4h0a1.7,1.7,0,0,1,1.39,2h0a1.69,1.69,0,0,1-1.94,1.39h0a1.68,1.68,0,0,1-1.41-1.67h0A2.62,2.62,0,0,1,380.64,166.75Zm2.67-26a1.69,1.69,0,0,1,1.8,1.58h0a1.68,1.68,0,0,1-1.55,1.8h0a1.69,1.69,0,0,1-1.81-1.57h0v-.12h0A1.7,1.7,0,0,1,383.31,140.74Zm-1.41,13.95h0a1.73,1.73,0,0,1,1.78-1.62h0a1.72,1.72,0,0,1,1.61,1.78h0a1.71,1.71,0,0,1-1.77,1.6h0a1.7,1.7,0,0,1-1.62-1.68h0Z" transform="translate(59.71 189.71)"/><path class="cls-6" d="M161.81,148.08v0h0a1.46,1.46,0,0,1,1.5-1.45h0a1.45,1.45,0,0,1,1.44,1.5h0a1.45,1.45,0,0,1-1.49,1.43h0a1.46,1.46,0,0,1-1.45-1.47h0ZM163.6,159a1.47,1.47,0,0,1,1.59,1.34h0a1.46,1.46,0,0,1-1.32,1.6h0a1.49,1.49,0,0,1-1.61-1.34h0v-.14h0A1.49,1.49,0,0,1,163.6,159Zm-.93-23.37a1.46,1.46,0,0,1,1.63-1.27h0a1.44,1.44,0,0,1,1.28,1.63h0a1.48,1.48,0,0,1-1.64,1.3h0a1.49,1.49,0,0,1-1.29-1.47h0A.65.65,0,0,1,162.67,135.61Zm2.52,35.62a1.46,1.46,0,0,1,1.72,1.15h0a1.46,1.46,0,0,1-1.16,1.73h0A1.48,1.48,0,0,1,164,173h0a2.66,2.66,0,0,1,0-.28h0A1.47,1.47,0,0,1,165.19,171.23Zm-.37-47.93a1.47,1.47,0,0,1,1.77-1.09h0a1.44,1.44,0,0,1,1.09,1.76h0a1.46,1.46,0,0,1-1.76,1.11h0a1.49,1.49,0,0,1-1.14-1.44h0A2.23,2.23,0,0,1,164.82,123.3Zm3.24,59.93a1.48,1.48,0,0,1,1.84,1h0a1.47,1.47,0,0,1-1,1.84h0a1.47,1.47,0,0,1-1.84-1h0a1.56,1.56,0,0,1-.08-.44h0A1.48,1.48,0,0,1,168.06,183.23Zm.22-71.95a1.47,1.47,0,0,1,1.88-.9h0a1.47,1.47,0,0,1,.91,1.87h0a1.47,1.47,0,0,1-1.87.92h0a1.51,1.51,0,0,1-1-1.4h0A1.73,1.73,0,0,1,168.28,111.28Zm3.91,83.59a1.46,1.46,0,0,1,1.93.77h0a1.45,1.45,0,0,1-.76,1.93h0a1.46,1.46,0,0,1-1.93-.76h0a1.54,1.54,0,0,1-.13-.6h0A1.46,1.46,0,0,1,172.19,194.87ZM173,99.7a1.48,1.48,0,0,1,2-.7h0a1.47,1.47,0,0,1,.7,2h0a1.48,1.48,0,0,1-2,.7h0a1.47,1.47,0,0,1-.84-1.34h0A1.6,1.6,0,0,1,173,99.7ZM177.54,206a1.48,1.48,0,0,1,2,.55h0a1.48,1.48,0,0,1-.57,2h0a1.49,1.49,0,0,1-2-.56h0a1.51,1.51,0,0,1-.18-.72h0A1.45,1.45,0,0,1,177.54,206Zm1.38-117.3a1.48,1.48,0,0,1,2-.5h0a1.49,1.49,0,0,1,.48,2h0a1.46,1.46,0,0,1-2,.48h0a1.44,1.44,0,0,1-.71-1.25h0A1.4,1.4,0,0,1,178.92,88.7ZM184,216.49a1.49,1.49,0,0,1,2.06.34h0a1.49,1.49,0,0,1-.34,2.06h0a1.49,1.49,0,0,1-2.06-.34h0a1.54,1.54,0,0,1-.28-.86h0A1.46,1.46,0,0,1,184,216.49ZM186,78.37a1.48,1.48,0,0,1,2.05-.29h0a1.48,1.48,0,0,1,.29,2.08h0a1.47,1.47,0,0,1-2.06.26h0a1.43,1.43,0,0,1-.58-1.17h0A1.38,1.38,0,0,1,186,78.37Zm5.62,147.88a1.48,1.48,0,0,1,2.09.12h0a1.48,1.48,0,0,1-.14,2.08h0a1.46,1.46,0,0,1-2.07-.13h0a1.43,1.43,0,0,1-.37-1h0A1.5,1.5,0,0,1,191.59,226.25Zm2.47-157.41a1.47,1.47,0,0,1,2.08-.06h0a1.47,1.47,0,0,1,.07,2.09h0a1.49,1.49,0,0,1-2.09,0h0a1.44,1.44,0,0,1-.45-1.06h0A1.43,1.43,0,0,1,194.06,68.84Zm6.09,166.32a1.45,1.45,0,0,1,2.07-.09h0a1.46,1.46,0,0,1,.1,2.07h0a1.47,1.47,0,0,1-2.08.1h0a1.48,1.48,0,0,1-.48-1.09h0A1.44,1.44,0,0,1,200.15,235.16Zm3-174.94h0a1.49,1.49,0,0,1,2.09.16h0a1.47,1.47,0,0,1-.17,2.07h0A1.48,1.48,0,0,1,203,62.3h0a1.52,1.52,0,0,1-.36-1h0A1.44,1.44,0,0,1,203.11,60.22Zm6.47,182.91a1.46,1.46,0,0,1,2.06-.31h0a1.47,1.47,0,0,1,.31,2.05h0a1.49,1.49,0,0,1-2.06.32h0a1.51,1.51,0,0,1-.59-1.2h0A1.43,1.43,0,0,1,209.58,243.13ZM213,52.6a1.45,1.45,0,0,1,2,.37h0a1.48,1.48,0,0,1-.38,2.05h0a1.46,1.46,0,0,1-2-.38h0a1.35,1.35,0,0,1-.26-.84h0A1.4,1.4,0,0,1,213,52.6Zm6.78,197.45a1.47,1.47,0,0,1,2-.53h0a1.48,1.48,0,0,1,.53,2h0a1.48,1.48,0,0,1-2,.53h0a1.47,1.47,0,0,1-.74-1.26h0A1.33,1.33,0,0,1,219.81,250.05Zm3.86-204a1.47,1.47,0,0,1,2,.6h0a1.46,1.46,0,0,1-.6,2h0a1.46,1.46,0,0,1-2-.59h0a1.32,1.32,0,0,1-.17-.7h0A1.5,1.5,0,0,1,223.67,46.05Zm7,209.8a1.5,1.5,0,0,1,2-.74h0a1.49,1.49,0,0,1,.75,1.95h0a1.46,1.46,0,0,1-2,.73h0a1.46,1.46,0,0,1-.86-1.33h0A1.63,1.63,0,0,1,230.7,255.85ZM235,40.68a1.47,1.47,0,0,1,1.93.81h0a1.47,1.47,0,0,1-.81,1.91h0a1.46,1.46,0,0,1-1.92-.79h0a1.4,1.4,0,0,1-.11-.56h0A1.47,1.47,0,0,1,235,40.68Zm7.2,219.8a1.46,1.46,0,0,1,1.85-.94h0a1.47,1.47,0,0,1,1,1.86h0a1.48,1.48,0,0,1-1.85.93h0a1.46,1.46,0,0,1-1-1.4h0A1.45,1.45,0,0,1,242.16,260.48Zm4.59-223.93a1.45,1.45,0,0,1,1.83,1h0a1.48,1.48,0,0,1-1,1.83h0a1.47,1.47,0,0,1-1.82-1h0a1.23,1.23,0,0,1-.07-.42h0A1.46,1.46,0,0,1,246.75,36.55ZM254,263.84a1.47,1.47,0,0,1,1.76-1.12h0a1.46,1.46,0,0,1,1.13,1.75h0a1.47,1.47,0,0,1-1.75,1.12h0a1.48,1.48,0,0,1-1.17-1.44h0C254,264.05,254,264,254,263.84Zm4.9-230.16h0a1.46,1.46,0,0,1,1.7,1.18h0a1.45,1.45,0,0,1-1.19,1.7v0a1.47,1.47,0,0,1-1.7-1.2h0a2.13,2.13,0,0,1,0-.25h0A1.47,1.47,0,0,1,258.93,33.68Zm7.28,232.25a1.48,1.48,0,0,1,1.62-1.31h0a1.48,1.48,0,0,1,1.31,1.62h0a1.48,1.48,0,0,1-1.63,1.31h0a1.46,1.46,0,0,1-1.3-1.46h0Zm5.11-233.81a1.47,1.47,0,0,1,1.59,1.36h0a1.49,1.49,0,0,1-1.37,1.57h0A1.48,1.48,0,0,1,270,33.69h0v-.1h0A1.47,1.47,0,0,1,271.32,32.12ZM280,265.26h0a1.47,1.47,0,0,1,1.47,1.47h0a1.48,1.48,0,0,1-1.47,1.48h0a1.49,1.49,0,0,1-1.48-1.48h0A1.48,1.48,0,0,1,280,265.26Zm2.31-232a1.47,1.47,0,0,1,1.51-1.43h0a1.49,1.49,0,0,1,1.43,1.52h0a1.47,1.47,0,0,1-1.52,1.42h0a1.46,1.46,0,0,1-1.42-1.48h0Zm12.31.87a1.46,1.46,0,0,1,1.65-1.24h0a1.46,1.46,0,0,1,1.26,1.65h0a1.46,1.46,0,0,1-1.66,1.26h0a1.48,1.48,0,0,1-1.27-1.47h0A.75.75,0,0,1,294.62,34.16ZM296.86,264a1.47,1.47,0,0,1,1.67,1.25h0a1.45,1.45,0,0,1-1.23,1.66h0a1.46,1.46,0,0,1-1.68-1.24h0c0-.06,0-.14,0-.22h0A1.47,1.47,0,0,1,296.86,264Zm9.9-227.69a1.5,1.5,0,0,1,1.79-1.07h0a1.5,1.5,0,0,1,1.08,1.79h0a1.5,1.5,0,0,1-1.79,1.08v0a1.44,1.44,0,0,1-1.11-1.42h0C306.73,36.58,306.75,36.47,306.76,36.34Zm2.06,225.29h0a1.46,1.46,0,0,1,1.79,1.06h0a1.48,1.48,0,0,1-1.06,1.79h0a1.48,1.48,0,0,1-1.79-1.06h0a1.57,1.57,0,0,1-.05-.37h0A1.46,1.46,0,0,1,308.82,261.63Zm9.8-221.83a1.47,1.47,0,0,1,1.89-.87h0a1.45,1.45,0,0,1,.87,1.89h0a1.46,1.46,0,0,1-1.88.87h0a1.47,1.47,0,0,1-1-1.39h0A1.51,1.51,0,0,1,318.62,39.8ZM320.45,258h0a1.46,1.46,0,0,1,1.88.85h0a1.46,1.46,0,0,1-.85,1.9h0a1.48,1.48,0,0,1-1.91-.87h0a1.44,1.44,0,0,1-.09-.51h0A1.46,1.46,0,0,1,320.45,258Zm9.6-213.47a1.47,1.47,0,0,1,2-.67h0a1.48,1.48,0,0,1,.67,2h0a1.47,1.47,0,0,1-2,.67h0a1.48,1.48,0,0,1-.83-1.33h0A1.39,1.39,0,0,1,330.05,44.5Zm1.56,208.59h0a1.46,1.46,0,0,1,2,.65h0a1.49,1.49,0,0,1-.66,2h0a1.49,1.49,0,0,1-2-.65h0a1.48,1.48,0,0,1-.15-.67h0A1.45,1.45,0,0,1,331.61,253.09Zm9.29-202.7a1.49,1.49,0,0,1,2-.47h0v0h0a1.46,1.46,0,0,1,.45,2h0a1.46,1.46,0,0,1-2,.45h0a1.43,1.43,0,0,1-.68-1.24h0A1.59,1.59,0,0,1,340.9,50.39Zm1.31,196.67a1.45,1.45,0,0,1,2,.43h0a1.48,1.48,0,0,1-.43,2h0a1.49,1.49,0,0,1-2.05-.45h0a1.51,1.51,0,0,1-.23-.79h0A1.45,1.45,0,0,1,342.21,247.06Zm8.86-189.67a1.49,1.49,0,0,1,2.08-.25h0a1.46,1.46,0,0,1,.23,2.07h0a1.47,1.47,0,0,1-2.06.25h0a1.49,1.49,0,0,1-.56-1.15h0A1.52,1.52,0,0,1,351.07,57.39Zm1,182.54h0a1.48,1.48,0,0,1,2.07.22h0a1.49,1.49,0,0,1-.22,2.08h0a1.48,1.48,0,0,1-2.07-.22h0a1.51,1.51,0,0,1-.33-.92h0A1.5,1.5,0,0,1,352.09,239.93Zm8.37-174.52a1.48,1.48,0,0,1,2.09,0h0a1.46,1.46,0,0,1,0,2.07h0a1.46,1.46,0,0,1-2.07,0h0a1.46,1.46,0,0,1-.45-1.06h0A1.5,1.5,0,0,1,360.46,65.41Zm.73,166.4h0a1.47,1.47,0,0,1,2.07,0h0a1.47,1.47,0,0,1,0,2.09h0a1.48,1.48,0,0,1-2.09,0h0a1.46,1.46,0,0,1-.42-1h0A1.43,1.43,0,0,1,361.19,231.81Zm7.75-157.42a1.45,1.45,0,0,1,2.07.19h0a1.45,1.45,0,0,1-.19,2.07h0a1.45,1.45,0,0,1-2.07-.19h0a1.39,1.39,0,0,1-.34-.93h0A1.44,1.44,0,0,1,368.94,74.39Zm.43,148.38a1.49,1.49,0,0,1,2.08-.2h0a1.46,1.46,0,0,1,.21,2.07h0a1.47,1.47,0,0,1-2.07.21h0a1.46,1.46,0,0,1-.55-1.14h0A1.52,1.52,0,0,1,369.37,222.77Zm7.06-138.58a1.47,1.47,0,0,1,2,.42h0a1.48,1.48,0,0,1-.4,2h0a1.49,1.49,0,0,1-2-.42h0a1.43,1.43,0,0,1-.25-.81h0A1.48,1.48,0,0,1,376.43,84.19Zm.14,128.75a1.45,1.45,0,0,1,2-.42h0a1.45,1.45,0,0,1,.43,2h0A1.49,1.49,0,0,1,377,215h0a1.49,1.49,0,0,1-.65-1.23h0A1.58,1.58,0,0,1,376.57,212.94Zm6.28-118.19a1.48,1.48,0,0,1,2,.62h0a1.48,1.48,0,0,1-.62,2h0a1.5,1.5,0,0,1-2-.62h0a1.56,1.56,0,0,1-.17-.69h0A1.47,1.47,0,0,1,382.85,94.75Zm-.17,107.64a1.47,1.47,0,0,1,2-.64h0a1.47,1.47,0,0,1,.66,2h0a1.49,1.49,0,0,1-2,.64h0a1.46,1.46,0,0,1-.79-1.31h0A1.45,1.45,0,0,1,382.68,202.39Zm5.44-96.48a1.45,1.45,0,0,1,1.9.84h0a1.44,1.44,0,0,1-.82,1.9h0a1.46,1.46,0,0,1-1.9-.83h0a1.31,1.31,0,0,1-.11-.54h0A1.48,1.48,0,0,1,388.12,105.91Zm-.47,85.35h0a1.46,1.46,0,0,1,1.91-.84h0a1.46,1.46,0,0,1,.84,1.9h0v0h0a1.47,1.47,0,0,1-1.9.86h0a1.49,1.49,0,0,1-.94-1.37h0A1.55,1.55,0,0,1,387.65,191.26Zm4.53-73.68a1.45,1.45,0,0,1,1.8,1h0a1.46,1.46,0,0,1-1,1.81h0a1.45,1.45,0,0,1-1.8-1h0a2,2,0,0,1-.07-.39h0A1.46,1.46,0,0,1,392.18,117.58Zm-.77,62.08a1.44,1.44,0,0,1,1.79-1h0a1.44,1.44,0,0,1,1.05,1.79h0a1.46,1.46,0,0,1-1.79,1h0a1.46,1.46,0,0,1-1.11-1.42h0A1.68,1.68,0,0,1,391.41,179.66ZM395,129.6a1.48,1.48,0,0,1,1.69,1.21h0a1.47,1.47,0,0,1-1.22,1.7h0a1.47,1.47,0,0,1-1.68-1.21h0a1.21,1.21,0,0,1,0-.25h0A1.48,1.48,0,0,1,395,129.6Zm-1,38.12h0a1.47,1.47,0,0,1,1.68-1.23h0a1.47,1.47,0,0,1,1.21,1.68h0a1.48,1.48,0,0,1-1.68,1.23h0a1.45,1.45,0,0,1-1.25-1.44h0A1,1,0,0,1,393.91,167.72Zm2.55-25.87a1.46,1.46,0,0,1,1.54,1.39h0a1.45,1.45,0,0,1-1.38,1.55h0a1.47,1.47,0,0,1-1.55-1.38h0v-.08h0A1.47,1.47,0,0,1,396.46,141.85Zm-1.34,13.75a1.49,1.49,0,0,1,1.54-1.41h0a1.5,1.5,0,0,1,1.41,1.55h0a1.5,1.5,0,0,1-1.55,1.4h0a1.47,1.47,0,0,1-1.4-1.48h0Z" transform="translate(59.71 189.71)"/><path class="cls-6" d="M150.32,154.77a1.24,1.24,0,0,1,1.31,1.18h0a1.24,1.24,0,0,1-1.2,1.31h0a1.25,1.25,0,0,1-1.31-1.18h0V156h0A1.24,1.24,0,0,1,150.32,154.77Zm-1.18-11.18a1.24,1.24,0,0,1,1.32-1.18h0a1.25,1.25,0,0,1,1.19,1.31h0a1.27,1.27,0,0,1-1.31,1.2h0a1.28,1.28,0,0,1-1.2-1.26h0Zm2.21,23.48a1.26,1.26,0,0,1,1.42,1.07h0a1.26,1.26,0,0,1-1.08,1.42h0a1.24,1.24,0,0,1-1.4-1.06h0v-.19h0A1.27,1.27,0,0,1,151.35,167.07Zm-1-35.9a1.29,1.29,0,0,1,1.44-1.06h0a1.26,1.26,0,0,1,1.06,1.42h0a1.24,1.24,0,0,1-1.42,1.06h0a1.24,1.24,0,0,1-1.08-1.23h0Zm3.23,48.07a1.25,1.25,0,0,1,1.51.93h0a1.26,1.26,0,0,1-.94,1.52h0a1.28,1.28,0,0,1-1.51-.94h0a2.58,2.58,0,0,1,0-.29h0A1.26,1.26,0,0,1,153.55,179.24Zm-.86-60.32a1.27,1.27,0,0,1,1.53-.92h0a1.26,1.26,0,0,1,.92,1.51h0a1.24,1.24,0,0,1-1.51.92h0a1.25,1.25,0,0,1-1-1.21h0A2.77,2.77,0,0,1,152.69,118.92Zm4.21,72.21a1.26,1.26,0,0,1,1.59.78h0a1.29,1.29,0,0,1-.78,1.61h0a1.26,1.26,0,0,1-1.59-.78h0a1.25,1.25,0,0,1-.08-.42h0A1.27,1.27,0,0,1,156.9,191.13ZM156.23,107a1.26,1.26,0,0,1,1.59-.78h0a1.27,1.27,0,0,1,.78,1.61h0a1.29,1.29,0,0,1-1.61.78h0a1.28,1.28,0,0,1-.84-1.2h0A1.24,1.24,0,0,1,156.23,107Zm5.14,95.7a1.26,1.26,0,0,1,1.65.62h0a1.24,1.24,0,0,1-.62,1.67h0a1.24,1.24,0,0,1-1.65-.62h0a1.19,1.19,0,0,1-.11-.52h0A1.27,1.27,0,0,1,161.37,202.65Zm-.48-107.28h0a1.26,1.26,0,0,1,1.67-.61h0a1.23,1.23,0,0,1,.6,1.65h0a1.24,1.24,0,0,1-1.66.63h0a1.28,1.28,0,0,1-.72-1.14h0A1.26,1.26,0,0,1,160.89,95.37Zm6,118.33a1.27,1.27,0,0,1,1.72.45h0a1.27,1.27,0,0,1-.46,1.72h0a1.23,1.23,0,0,1-1.71-.45h0a1.35,1.35,0,0,1-.15-.63h0A1.27,1.27,0,0,1,166.92,213.7Zm-.29-129.41a1.27,1.27,0,0,1,1.72-.45h0a1.26,1.26,0,0,1,.46,1.71h0a1.24,1.24,0,0,1-1.72.45h0a1.23,1.23,0,0,1-.62-1.07h0A1.32,1.32,0,0,1,166.63,84.29Zm6.87,139.87a1.26,1.26,0,0,1,1.76.3h0a1.26,1.26,0,0,1-.3,1.74h0a1.25,1.25,0,0,1-1.76-.29h0a1.27,1.27,0,0,1-.22-.72h0A1.25,1.25,0,0,1,173.5,224.16Zm-.1-150.35h0a1.27,1.27,0,0,1,1.77-.29h0a1.27,1.27,0,0,1,.28,1.76h0a1.26,1.26,0,0,1-1.75.28h0a1.23,1.23,0,0,1-.53-1h0A1.3,1.3,0,0,1,173.4,73.81ZM181,234a1.26,1.26,0,0,1,1.78.13h0a1.24,1.24,0,0,1-.13,1.76h0a1.24,1.24,0,0,1-1.77-.13h0a1.26,1.26,0,0,1-.3-.82h0A1.25,1.25,0,0,1,181,234ZM181.15,64a1.24,1.24,0,0,1,1.76-.13h0a1.25,1.25,0,0,1,.13,1.78h0a1.26,1.26,0,0,1-1.76.11h0a1.22,1.22,0,0,1-.44-.94h0A1.17,1.17,0,0,1,181.15,64Zm8.34,179a1.27,1.27,0,0,1,1.78-.05h0a1.27,1.27,0,0,1,0,1.78h0a1.27,1.27,0,0,1-1.77.05h0a1.23,1.23,0,0,1-.39-.92h0A1.2,1.2,0,0,1,189.49,243Zm.28-188h0a1.25,1.25,0,0,1,1.76,0h0a1.24,1.24,0,0,1-.05,1.78h0a1.23,1.23,0,0,1-1.76,0h0a1.26,1.26,0,0,1-.36-.86h0A1.3,1.3,0,0,1,189.77,55Zm9,196.19a1.26,1.26,0,0,1,1.76-.22h0a1.24,1.24,0,0,1,.2,1.76h0A1.26,1.26,0,0,1,199,253h0a1.29,1.29,0,0,1-.47-1h0A1.14,1.14,0,0,1,198.75,251.19Zm.47-204.34a1.25,1.25,0,0,1,1.77.22h0a1.27,1.27,0,0,1-.21,1.76h0a1.27,1.27,0,0,1-1.77-.22h0a1.24,1.24,0,0,1-.26-.78h0A1.22,1.22,0,0,1,199.22,46.85Zm9.52,211.62a1.24,1.24,0,0,1,1.73-.38h0a1.24,1.24,0,0,1,.37,1.73h0a1.26,1.26,0,0,1-1.73.38h0a1.25,1.25,0,0,1-.57-1.06h0A1.15,1.15,0,0,1,208.74,258.47Zm.65-218.85a1.26,1.26,0,0,1,1.75.39h0a1.25,1.25,0,0,1-.39,1.73h0a1.26,1.26,0,0,1-1.73-.38h0a1.22,1.22,0,0,1-.2-.68h0A1.28,1.28,0,0,1,209.39,39.62Zm10,225.14a1.26,1.26,0,0,1,1.7-.54h0a1.26,1.26,0,0,1,.53,1.7h0a1.26,1.26,0,0,1-1.69.53h0a1.25,1.25,0,0,1-.68-1.11h0A1.21,1.21,0,0,1,219.37,264.76Zm.84-231.36a1.25,1.25,0,0,1,1.7.54h0a1.27,1.27,0,0,1-.55,1.69h0a1.26,1.26,0,0,1-1.7-.55h0a1.22,1.22,0,0,1-.14-.56h0A1.24,1.24,0,0,1,220.21,33.4ZM230.56,270a1.29,1.29,0,0,1,1.64-.7h0a1.28,1.28,0,0,1,.7,1.64h0a1.28,1.28,0,0,1-1.64.7h0a1.25,1.25,0,0,1-.79-1.17h0A1.35,1.35,0,0,1,230.56,270Zm1-241.77v0h0a1.29,1.29,0,0,1,1.64.7h0a1.27,1.27,0,0,1-.7,1.64h0a1.25,1.25,0,0,1-1.62-.7h0a1.31,1.31,0,0,1-.09-.47h0A1.24,1.24,0,0,1,231.57,28.24ZM242.2,274.18a1.27,1.27,0,0,1,1.56-.86h0a1.27,1.27,0,0,1,.86,1.56h0a1.28,1.28,0,0,1-1.56.86h0a1.29,1.29,0,0,1-.9-1.21h0A1.34,1.34,0,0,1,242.2,274.18Zm1.17-250a1.27,1.27,0,0,1,1.56.86h0a1.25,1.25,0,0,1-.86,1.56h0a1.28,1.28,0,0,1-1.56-.86h0a1.32,1.32,0,0,1,0-.34h0A1.28,1.28,0,0,1,243.37,24.17Zm10.82,253a1.24,1.24,0,0,1,1.46-1h0a1.24,1.24,0,0,1,1,1.47h0a1.25,1.25,0,0,1-1.46,1h0a1.25,1.25,0,0,1-1-1.24h0A1,1,0,0,1,254.19,277.2Zm1.32-255.93a1.27,1.27,0,0,1,1.47,1h0a1.25,1.25,0,0,1-1,1.47h0a1.24,1.24,0,0,1-1.46-1h0a1,1,0,0,1,0-.24h0A1.25,1.25,0,0,1,255.51,21.27Zm10.9,257.79a1.24,1.24,0,0,1,1.37-1.13h0a1.23,1.23,0,0,1,1.12,1.36h0a1.25,1.25,0,0,1-1.37,1.14h0a1.26,1.26,0,0,1-1.12-1.25h0Zm1.46-259.52h0a1.26,1.26,0,0,1,1.36,1.14h0a1.25,1.25,0,0,1-1.12,1.37h0a1.26,1.26,0,0,1-1.37-1.14h0v-.12h0A1.25,1.25,0,0,1,267.87,19.54Zm12.13,259a1.25,1.25,0,0,1,1.25,1.25h0A1.25,1.25,0,0,1,280,281h0a1.25,1.25,0,0,1-1.26-1.26h0A1.25,1.25,0,0,1,280,278.51ZM280.34,19a1.25,1.25,0,0,1,1.25,1.26h0a1.25,1.25,0,0,1-1.26,1.25h0a1.28,1.28,0,0,1-1.25-1.27h0A1.24,1.24,0,0,1,280.34,19Zm0,2.51ZM291.57,278a1.24,1.24,0,0,1,1.35,1.14h0a1.25,1.25,0,0,1-1.14,1.36h0a1.25,1.25,0,0,1-1.35-1.14h0v-.11h0A1.24,1.24,0,0,1,291.57,278Zm-.15-257.25a1.27,1.27,0,0,1,1.38-1.14h0A1.26,1.26,0,0,1,293.92,21h0a1.25,1.25,0,0,1-1.37,1.13h0a1.28,1.28,0,0,1-1.14-1.26h0Zm12.27,255.59a1.25,1.25,0,0,1,1.47,1h0a1.26,1.26,0,0,1-1,1.47h0a1.25,1.25,0,0,1-1.45-1h0a1.81,1.81,0,0,1,0-.23h0A1.25,1.25,0,0,1,303.69,276.33Zm0-253.94a1.24,1.24,0,0,1,1.46-1h0a1.27,1.27,0,0,1,1,1.48h0a1.29,1.29,0,0,1-1.47,1h0a1.3,1.3,0,0,1-1-1.24h0A1,1,0,0,1,303.68,22.39ZM315.6,273.51h0a1.25,1.25,0,0,1,1.56.85h0a1.27,1.27,0,0,1-.86,1.56h0a1.27,1.27,0,0,1-1.56-.86h0a1.41,1.41,0,0,1-.05-.35h0A1.24,1.24,0,0,1,315.6,273.51Zm.11-248.29a1.25,1.25,0,0,1,1.56-.85h0a1.24,1.24,0,0,1,.84,1.56h0a1.24,1.24,0,0,1-1.56.84h0a1.24,1.24,0,0,1-.89-1.2h0A1.41,1.41,0,0,1,315.71,25.22Zm11.47,244.34a1.27,1.27,0,0,1,1.64.7h0a1.27,1.27,0,0,1-.72,1.64h0a1.24,1.24,0,0,1-1.62-.72h0a1.14,1.14,0,0,1-.1-.45h0A1.28,1.28,0,0,1,327.18,269.56Zm.23-240.39a1.29,1.29,0,0,1,1.64-.7h0a1.28,1.28,0,0,1,.7,1.64h0a1.24,1.24,0,0,1-1.63.7h0a1.26,1.26,0,0,1-.8-1.17h0A1.35,1.35,0,0,1,327.41,29.17Zm10.93,235.36h0a1.24,1.24,0,0,1,1.68.54h0a1.23,1.23,0,0,1-.54,1.69h0a1.25,1.25,0,0,1-1.69-.55h0a1.29,1.29,0,0,1-.14-.56h0A1.24,1.24,0,0,1,338.34,264.53Zm.34-230.29a1.26,1.26,0,0,1,1.7-.53h0a1.22,1.22,0,0,1,.53,1.68h0a1.24,1.24,0,0,1-1.68.55h0a1.25,1.25,0,0,1-.67-1.12h0A1.29,1.29,0,0,1,338.68,34.24ZM349,258.45h0a1.26,1.26,0,0,1,1.73.37h0a1.27,1.27,0,0,1-.39,1.75h0a1.25,1.25,0,0,1-1.73-.39h0a1.34,1.34,0,0,1-.2-.67h0A1.26,1.26,0,0,1,349,258.45Zm.47-218.08a1.24,1.24,0,0,1,1.73-.38h0a1.24,1.24,0,0,1,.37,1.73h0a1.25,1.25,0,0,1-1.73.38h0a1.26,1.26,0,0,1-.58-1.06h0A1.16,1.16,0,0,1,349.44,40.37Zm9.52,211a1.24,1.24,0,0,1,1.76.22h0a1.24,1.24,0,0,1-.22,1.76h0a1.26,1.26,0,0,1-1.76-.22h0a1.31,1.31,0,0,1-.26-.78h0A1.26,1.26,0,0,1,359,251.39Zm.58-203.92a1.26,1.26,0,0,1,1.77-.2h0a1.27,1.27,0,0,1,.21,1.76h0a1.26,1.26,0,0,1-1.78.2h0a1.23,1.23,0,0,1-.49-1h0A1.34,1.34,0,0,1,359.54,47.47Zm8.71,195.94h0a1.26,1.26,0,0,1,1.78.05h0a1.27,1.27,0,0,1,0,1.77h0a1.28,1.28,0,0,1-1.78,0h0a1.28,1.28,0,0,1-.34-.88h0A1.22,1.22,0,0,1,368.25,243.41Zm.69-187.89a1.26,1.26,0,0,1,1.77-.05h0a1.25,1.25,0,0,1,0,1.78h0a1.25,1.25,0,0,1-1.77,0h0a1.27,1.27,0,0,1-.38-.9h0A1.21,1.21,0,0,1,368.94,55.52Zm7.8,179.07a1.25,1.25,0,0,1,1.77-.13h0a1.26,1.26,0,0,1,.12,1.78h0a1.26,1.26,0,0,1-1.78.11h0a1.25,1.25,0,0,1-.42-.94h0A1.22,1.22,0,0,1,376.74,234.59Zm.78-170.19a1.27,1.27,0,0,1,1.78.14h0a1.24,1.24,0,0,1-.14,1.76h0a1.26,1.26,0,0,1-1.76-.12h0a1.29,1.29,0,0,1-.31-.83h0A1.29,1.29,0,0,1,377.52,64.4ZM384.35,225a1.26,1.26,0,0,1,1.76-.29h0a1.26,1.26,0,0,1,.28,1.76h0a1.25,1.25,0,0,1-1.74.28h0a1.23,1.23,0,0,1-.53-1h0A1.26,1.26,0,0,1,384.35,225Zm.89-150.94a1.26,1.26,0,0,1,1.75.3h0a1.27,1.27,0,0,1-.3,1.76h0a1.27,1.27,0,0,1-1.76-.3h0a1.25,1.25,0,0,1-.22-.73h0A1.29,1.29,0,0,1,385.24,74.06ZM391,214.73h0a1.29,1.29,0,0,1,1.73-.45h0a1.27,1.27,0,0,1,.44,1.73h0a1.27,1.27,0,0,1-1.72.45h0a1.27,1.27,0,0,1-.62-1.09h0A1.33,1.33,0,0,1,391,214.73Zm1-130.32a1.25,1.25,0,0,1,1.71.47h0a1.24,1.24,0,0,1-.47,1.71h0a1.24,1.24,0,0,1-1.71-.46h0a1.26,1.26,0,0,1-.16-.63h0A1.26,1.26,0,0,1,392,84.41Zm4.71,119.47a1.24,1.24,0,0,1,1.66-.61h0a1.25,1.25,0,0,1,.61,1.67h0a1.25,1.25,0,0,1-1.67.61h0a1.28,1.28,0,0,1-.73-1.14h0A1.22,1.22,0,0,1,396.7,203.88Zm1-108.51a1.24,1.24,0,0,1,1.67.62h0a1.25,1.25,0,0,1-.62,1.66h0A1.26,1.26,0,0,1,397.1,97h0a1.17,1.17,0,0,1-.11-.51h0A1.24,1.24,0,0,1,397.72,95.37Zm3.57,97.16a1.25,1.25,0,0,1,1.59-.76h0a1.25,1.25,0,0,1,.78,1.61h0a1.26,1.26,0,0,1-1.6.76h0a1.26,1.26,0,0,1-.84-1.18h0A1.68,1.68,0,0,1,401.29,192.53Zm1.11-85.72a1.25,1.25,0,0,1,1.59.78h0a1.24,1.24,0,0,1-.78,1.59h0a1.25,1.25,0,0,1-1.59-.78h0a1.07,1.07,0,0,1-.08-.41h0A1.25,1.25,0,0,1,402.4,106.81Zm2.38,74a1.26,1.26,0,0,1,1.52-.92h0a1.25,1.25,0,0,1,.92,1.52h0a1.26,1.26,0,0,1-1.52.92h0a1.27,1.27,0,0,1-1-1.22h0A1.08,1.08,0,0,1,404.78,180.81ZM406,118.64a1.26,1.26,0,0,1,1.51.94h0a1.26,1.26,0,0,1-.93,1.51h0a1.25,1.25,0,0,1-1.51-.94h0a.86.86,0,0,1,0-.28h0A1.26,1.26,0,0,1,406,118.64Zm1.19,50.16h0a1.24,1.24,0,0,1,1.42-1.06h0a1.25,1.25,0,0,1,1.06,1.41h0a1.24,1.24,0,0,1-1.42,1.07h0a1.25,1.25,0,0,1-1.08-1.24h0A.55.55,0,0,1,407.14,168.8Zm1.2-38a1.26,1.26,0,0,1,1.42,1.07h0a1.26,1.26,0,0,1-1.06,1.42h0a1.26,1.26,0,0,1-1.42-1.08h0a.47.47,0,0,1,0-.17h0A1.25,1.25,0,0,1,408.34,130.77Zm1.31,24.65a1.24,1.24,0,0,1,1.18,1.33h0a1.25,1.25,0,0,1-1.31,1.18h0a1.22,1.22,0,0,1-1.18-1.31h0A1.28,1.28,0,0,1,409.65,155.42Zm-.06-12.36a1.26,1.26,0,0,1,1.3,1.2h0a1.26,1.26,0,0,1-1.21,1.31h0a1.22,1.22,0,0,1-1.29-1.2h0a0,0,0,0,1,0,0h0A1.28,1.28,0,0,1,409.59,143.06Z" transform="translate(59.71 189.71)"/><path class="cls-6" d="M137.21,150.48a1,1,0,0,1,1,1h0a1,1,0,0,1-1,1.05h0a1.05,1.05,0,0,1-1-1h0A1,1,0,0,1,137.21,150.48Zm-.62-11.41a1,1,0,0,1,1.11-.95h0a1,1,0,0,1,1,1.11h0a1.05,1.05,0,0,1-1.12,1h0a1,1,0,0,1-.95-1h0Zm1.19,23.77a1,1,0,0,1,1.13.94h0a1,1,0,0,1-.93,1.12h0a1,1,0,0,1-1.13-.93h0a.49.49,0,0,1,0-.11h0A1,1,0,0,1,137.78,162.84Zm.28-36.14h0a1,1,0,0,1,1.19-.86h0a1,1,0,0,1,.86,1.19h0a1,1,0,0,1-1.2.86h0a1.06,1.06,0,0,1-.87-1h0A.5.5,0,0,1,138.06,126.7Zm1.35,48.41a1,1,0,0,1,1.22.83h0a1.05,1.05,0,0,1-.85,1.21h0a1,1,0,0,1-1.19-.84h0a.58.58,0,0,1,0-.19h0A1,1,0,0,1,139.41,175.11Zm1.19-60.62a1,1,0,0,1,1.26-.74h0a1,1,0,0,1,.75,1.26h0a1,1,0,0,1-1.27.75h0a1,1,0,0,1-.78-1h0A1.36,1.36,0,0,1,140.6,114.49Zm1.51,72.68a1.06,1.06,0,0,1,1.28.74h0a1,1,0,0,1-.74,1.27h0a1,1,0,0,1-1.27-.73h0a1.27,1.27,0,0,1,0-.26h0A1,1,0,0,1,142.11,187.17Zm2.07-84.61a1,1,0,0,1,1.33-.63h0a1,1,0,0,1,.63,1.33h0a1,1,0,0,1-1.32.62h0a1,1,0,0,1-.69-1h0A1.4,1.4,0,0,1,144.18,102.56ZM145.83,199a1,1,0,0,1,1.34.61v0a1,1,0,0,1-.62,1.32h0a1,1,0,0,1-1.33-.61h0a1.09,1.09,0,0,1-.06-.36h0A1,1,0,0,1,145.83,199Zm3-108h0a1,1,0,0,1,1.37-.51h0a1,1,0,0,1,.51,1.37h0a1,1,0,0,1-1.37.53h0a1.06,1.06,0,0,1-.6-1h0A1.15,1.15,0,0,1,148.81,91Zm1.78,119.43a1,1,0,0,1,1.37.5h0a1,1,0,0,1-.49,1.37h0a1,1,0,0,1-1.38-.49h0a1.14,1.14,0,0,1-.1-.45h0A1,1,0,0,1,150.59,210.4Zm3.83-130.55a1,1,0,0,1,1.42-.41h0a1,1,0,0,1,.39,1.42h0a1,1,0,0,1-1.42.4h0a1.07,1.07,0,0,1-.53-.92h0A1,1,0,0,1,154.42,79.85Zm1.87,141.52a1.06,1.06,0,0,1,1.44.37h0a1,1,0,0,1-.38,1.42h0a1,1,0,0,1-1.42-.37h0a1.1,1.1,0,0,1-.14-.53h0A1,1,0,0,1,156.29,221.37ZM161,69.25h0a1,1,0,0,1,1.44-.28h0a1,1,0,0,1,.28,1.45h0a1.05,1.05,0,0,1-1.45.26h0a1,1,0,0,1-.45-.86h0A1.06,1.06,0,0,1,161,69.25Zm2,162.55a1,1,0,0,1,1.45.25h0a1,1,0,0,1-.25,1.45h0a1,1,0,0,1-1.44-.25h0a1,1,0,0,1-.2-.6h0A1.06,1.06,0,0,1,163,231.8Zm5.47-172.56h0a1,1,0,0,1,1.45-.14h0a1,1,0,0,1,.16,1.45h0a1.06,1.06,0,0,1-1.47.16h0a1.05,1.05,0,0,1-.39-.81h0A1,1,0,0,1,168.42,59.24Zm2.05,182.38a1,1,0,0,1,1.47.12h0a1,1,0,0,1-.11,1.47h0a1,1,0,0,1-1.47-.13h0a1,1,0,0,1-.24-.67h0A1.05,1.05,0,0,1,170.47,241.62Zm6.24-191.7v0h0a1,1,0,0,1,1.46,0h0a1,1,0,0,1,0,1.47h0a1,1,0,0,1-1.47,0h0a1.08,1.08,0,0,1-.31-.75h0A1,1,0,0,1,176.71,49.92Zm2.12,200.85a1,1,0,0,1,1.46,0h0a1,1,0,0,1,0,1.46h0a1,1,0,0,1-1.48,0h0a1.07,1.07,0,0,1-.3-.75h0A1,1,0,0,1,178.83,250.77Zm6.92-209.41h0a1,1,0,0,1,1.45.1h0a1,1,0,0,1-.09,1.46h0a1,1,0,0,1-1.46-.09h0a1,1,0,0,1-.27-.69h0A1.06,1.06,0,0,1,185.75,41.36Zm2.18,217.78a1,1,0,0,1,1.47-.13h0a1,1,0,0,1,.12,1.47h0a1,1,0,0,1-1.46.12h0a1.05,1.05,0,0,1-.38-.79h0A1,1,0,0,1,187.93,259.14ZM195.51,33.6h0a1,1,0,0,1,1.45.24h0a1,1,0,0,1-.22,1.44h0a1,1,0,0,1-1.45-.23h0a1,1,0,0,1-.2-.61h0A1,1,0,0,1,195.51,33.6Zm2.21,233.11a1,1,0,0,1,1.45-.26h0a1,1,0,0,1,.25,1.45h0a1,1,0,0,1-1.43.26h0a1,1,0,0,1-.46-.86h0A1.11,1.11,0,0,1,197.72,266.71Zm8.18-240h0a1,1,0,0,1,1.42.36h0a1,1,0,0,1-.34,1.42h0a1.07,1.07,0,0,1-1.44-.34h0a1.23,1.23,0,0,1-.15-.55h0A1.07,1.07,0,0,1,205.9,26.71Zm2.23,246.7a1,1,0,0,1,1.42-.39h0a1,1,0,0,1,.39,1.42h0a1.06,1.06,0,0,1-1.43.39h0a1.05,1.05,0,0,1-.52-.9h0A1.1,1.1,0,0,1,208.13,273.41Zm8.71-252.65a1,1,0,0,1,1.39.47h0a1,1,0,0,1-.48,1.4v0a1,1,0,0,1-1.39-.46h0a1.39,1.39,0,0,1-.11-.46h0A1,1,0,0,1,216.84,20.76Zm2.25,258.42a1,1,0,0,1,1.37-.5h0a1,1,0,0,1,.52,1.37h0a1,1,0,0,1-1.39.5h0a1,1,0,0,1-.61-.93h0A.85.85,0,0,1,219.09,279.18Zm9.16-263.41a1.06,1.06,0,0,1,1.36.59h0A1,1,0,0,1,229,17.7h0a1,1,0,0,1-1.34-.59h0a1,1,0,0,1-.06-.37h0A1,1,0,0,1,228.25,15.77ZM230.5,284a1,1,0,0,1,1.32-.6h0a1,1,0,0,1,.63,1.32h0a1.06,1.06,0,0,1-1.33.63h0a1.08,1.08,0,0,1-.69-1h0A1,1,0,0,1,230.5,284ZM240.07,11.8a1,1,0,0,1,1.29.7h0a1,1,0,0,1-.71,1.29h0a1,1,0,0,1-1.28-.7h0a.82.82,0,0,1-.05-.3h0A1,1,0,0,1,240.07,11.8Zm2.21,276a1,1,0,0,1,1.26-.73h0a1,1,0,0,1,.75,1.26h0A1.05,1.05,0,0,1,243,289h0a1,1,0,0,1-.76-1h0A.83.83,0,0,1,242.28,287.75ZM252.19,8.87h0a1,1,0,0,1,1.23.82h0a1.05,1.05,0,0,1-.83,1.22h0a1,1,0,0,1-1.21-.83h0a.58.58,0,0,1,0-.19h0A1,1,0,0,1,252.19,8.87Zm2.15,281.63a1,1,0,0,1,1.21-.86h0a1,1,0,0,1,.84,1.21h0a1,1,0,0,1-1.2.85h0a1.06,1.06,0,0,1-.86-1h0A.86.86,0,0,1,254.34,290.5ZM264.51,7a1,1,0,0,1,1.15.92h0a1,1,0,0,1-.94,1.14h0a1,1,0,0,1-1.13-.92h0V8h0A1,1,0,0,1,264.51,7Zm2.1,285.15a1,1,0,0,1,1.12-.93h0a1,1,0,0,1,.94,1.12h0a1,1,0,0,1-1.12.95h0a1.07,1.07,0,0,1-.95-1h0A.31.31,0,0,1,266.61,292.16ZM276.94,6.22a1,1,0,0,1,1.07,1h0a1,1,0,0,1-1,1.06h0a1,1,0,0,1-1.06-1h0v0h0A1,1,0,0,1,276.94,6.22ZM277,8.29Zm3,283.45h0a1,1,0,0,1,1,1.05h0a1,1,0,0,1-1,1h0a1,1,0,0,1-1-1h0A1,1,0,0,1,280,291.74ZM288.31,7.45a1,1,0,0,1,1.09-1h0a1,1,0,0,1,1,1.11h0a1,1,0,0,1-1.11,1h0a1,1,0,0,1-1-1h0A.1.1,0,0,1,288.31,7.45Zm9.94,283.12a1.07,1.07,0,0,1,1.16.91h0a1.05,1.05,0,0,1-.89,1.17h0a1,1,0,0,1-1.17-.91h0s0-.09,0-.12h0A1.07,1.07,0,0,1,298.25,290.57ZM300.61,8.69a1,1,0,0,1,1.18-.87h0A1,1,0,0,1,302.66,9h0a1,1,0,0,1-1.18.87h0a1,1,0,0,1-.87-1h0Zm9.74,279.8a1,1,0,0,1,1.23.79h0a1.07,1.07,0,0,1-.78,1.25h0a1.08,1.08,0,0,1-1.25-.8h0a1.77,1.77,0,0,1,0-.23h0A1,1,0,0,1,310.35,288.49ZM312.76,11a1,1,0,0,1,1.27-.76h0a1,1,0,0,1,.76,1.24h0a1,1,0,0,1-1.26.77h0a1.06,1.06,0,0,1-.8-1h0A2.08,2.08,0,0,1,312.76,11Zm9.46,274.35a1,1,0,0,1,1.3.69h0a1,1,0,0,1-.67,1.29h0a1,1,0,0,1-1.31-.68h0a1.11,1.11,0,0,1-.05-.3h0A1,1,0,0,1,322.22,285.35Zm2.45-271A1.05,1.05,0,0,1,326,13.7h0a1,1,0,0,1,.65,1.31h0a1,1,0,0,1-1.32.65h0a1,1,0,0,1-.71-1h0A1.26,1.26,0,0,1,324.67,14.35Zm9.1,266.84a1,1,0,0,1,1.36.56h0a1,1,0,0,1-.56,1.36h0a1,1,0,0,1-1.36-.56h0a1,1,0,0,1-.08-.41h0A1,1,0,0,1,333.77,281.19Zm2.48-262.46a1,1,0,0,1,1.37-.54h0a1,1,0,0,1,.53,1.37h0a1,1,0,0,1-1.35.53h0a1,1,0,0,1-.63-.95h0A1.15,1.15,0,0,1,336.25,18.73ZM344.92,276h0a1,1,0,0,1,1.4.45h0a1,1,0,0,1-.45,1.41h0a1,1,0,0,1-1.39-.46h0a1,1,0,0,1-.12-.46h0A1,1,0,0,1,344.92,276Zm2.49-251.94a1,1,0,0,1,1.4-.4h0a1,1,0,0,1,.42,1.4h0a1,1,0,0,1-1.41.42h0a1,1,0,0,1-.53-.92h0A1,1,0,0,1,347.41,24.09Zm8.17,245.85a1,1,0,0,1,1.43.31h0a1,1,0,0,1-.32,1.45h0a1.07,1.07,0,0,1-1.44-.33h0a1.23,1.23,0,0,1-.15-.56h0A1,1,0,0,1,355.58,269.94Zm2.48-239.52a1,1,0,0,1,1.43-.3h0a1.06,1.06,0,0,1,.3,1.45h0a1.05,1.05,0,0,1-1.45.29h0a1,1,0,0,1-.45-.86h0A.94.94,0,0,1,358.06,30.42Zm7.62,232.5a1,1,0,0,1,1.45.21h0a1,1,0,0,1-.2,1.46h0a1,1,0,0,1-1.45-.2h0a1.07,1.07,0,0,1-.22-.63h0A1.05,1.05,0,0,1,365.68,262.92Zm2.43-225.28a1,1,0,0,1,1.47-.17h0a1.05,1.05,0,0,1,.15,1.46h0a1,1,0,0,1-1.46.17h0a1.09,1.09,0,0,1-.39-.82h0A1,1,0,0,1,368.11,37.64Zm7,217.44h0a1,1,0,0,1,1.47.08h0a1,1,0,0,1-.06,1.47h0a1.05,1.05,0,0,1-1.48-.08h0a1,1,0,0,1-.27-.7h0A1,1,0,0,1,375.12,255.08ZM377.51,45.7a1,1,0,0,1,1.46-.05h0a1,1,0,0,1,0,1.48h0a1,1,0,0,1-1.46,0h0a1,1,0,0,1-.33-.75h0A1,1,0,0,1,377.51,45.7Zm6.36,200.75h0a1,1,0,0,1,1.46,0h0a1.05,1.05,0,0,1,.07,1.47h0a1,1,0,0,1-1.49,0h0a1,1,0,0,1-.32-.74h0A1,1,0,0,1,383.87,246.45Zm2.3-191.93a1.05,1.05,0,0,1,1.47.09h0a1.05,1.05,0,0,1-.09,1.47h0a1,1,0,0,1-1.47-.08h0a1.08,1.08,0,0,1-.26-.7h0A1.08,1.08,0,0,1,386.17,54.52Zm5.66,182.58a1.07,1.07,0,0,1,1.47-.19h0a1,1,0,0,1,.17,1.46h0a1,1,0,0,1-1.45.19h0a1,1,0,0,1-.41-.83h0A1.07,1.07,0,0,1,391.83,237.1Zm2.22-173a1,1,0,0,1,1.45.22h0a1,1,0,0,1-.22,1.45h0a1,1,0,0,1-1.45-.22h0a1,1,0,0,1-.21-.62h0A1,1,0,0,1,394.05,64.07Zm4.9,163a1.06,1.06,0,0,1,1.45-.3h0a1,1,0,0,1,.3,1.44h0a1,1,0,0,1-1.43.29h0a1,1,0,0,1-.47-.87h0A1.12,1.12,0,0,1,399,227.09Zm2.11-152.82a1,1,0,0,1,1.43.34h0a1,1,0,0,1-.34,1.42h0a1,1,0,0,1-1.43-.33h0a1.07,1.07,0,0,1-.14-.55h0A1,1,0,0,1,401.06,74.27Zm4.15,142.24a1,1,0,0,1,1.4-.44h0a1.05,1.05,0,0,1,.43,1.42h0a1.06,1.06,0,0,1-1.41.42h0a1,1,0,0,1-.55-.92h0A1,1,0,0,1,405.21,216.51Zm2-131.49a1,1,0,0,1,1.4.45h0a1.06,1.06,0,0,1-.47,1.41h0a1,1,0,0,1-1.38-.47h0a.93.93,0,0,1-.11-.47h0A1,1,0,0,1,407.17,85Zm3.33,120.39a1.06,1.06,0,0,1,1.36-.55h0a1.05,1.05,0,0,1,.55,1.38h0a1,1,0,0,1-1.36.54h0a1.07,1.07,0,0,1-.64-1h0A1,1,0,0,1,410.5,205.41Zm1.83-109.15a1,1,0,0,1,1.34.59h0a1,1,0,0,1-.58,1.34h0a1,1,0,0,1-1.34-.58h0a.85.85,0,0,1-.08-.39h0A1.05,1.05,0,0,1,412.33,96.26Zm2.48,97.65h0a1,1,0,0,1,1.31-.67h0a1.05,1.05,0,0,1,.67,1.31h0a1.06,1.06,0,0,1-1.31.67h0a1,1,0,0,1-.72-1h0A1.25,1.25,0,0,1,414.81,193.91Zm1.68-86a1,1,0,0,1,1.28.7h0a1,1,0,0,1-.69,1.29h0a1,1,0,0,1-1.29-.7h0a1,1,0,0,1-.05-.3h0A1,1,0,0,1,416.49,107.92Zm1.61,74.16h0a1,1,0,0,1,1.24-.78h0a1,1,0,0,1,.78,1.24h0a1,1,0,0,1-1.25.78h0a1,1,0,0,1-.81-1h0A.93.93,0,0,1,418.1,182.08Zm1.51-62.19a1.06,1.06,0,0,1,1.23.81h0a1.06,1.06,0,0,1-.81,1.23h0a1,1,0,0,1-1.23-.81h0a.82.82,0,0,1,0-.22h0A1,1,0,0,1,419.61,119.89Zm.73,50.11a1,1,0,0,1,1.17-.89h0a1,1,0,0,1,.89,1.18h0a1,1,0,0,1-1.17.88h0a1.05,1.05,0,0,1-.91-1h0S420.34,170,420.34,170Zm1.32-37.91a1,1,0,0,1,1.16.9h0a1,1,0,0,1-.91,1.16h0a1,1,0,0,1-1.15-.91h0v-.12h0A1,1,0,0,1,421.66,132.09Zm-.14,25.69a1,1,0,0,1,1.11-1h0a1,1,0,0,1,1,1.09h0a1,1,0,0,1-1.09,1h0a1,1,0,0,1-1-1.05h0Zm1.16-13.36a1,1,0,0,1,1.07,1h0a1,1,0,0,1-1,1.06h0a1.05,1.05,0,0,1-1.08-1h0v0h0A1.06,1.06,0,0,1,422.68,144.42Z" transform="translate(59.71 189.71)"/><path class="cls-6" d="M123.4,147a.82.82,0,0,1,.83-.82h0a.82.82,0,0,1,.81.85h0a.82.82,0,0,1-.84.81h0a.84.84,0,0,1-.8-.84Zm1,11.58a.81.81,0,0,1,.87.76h0a.83.83,0,0,1-.78.87h0a.82.82,0,0,1-.87-.76h0v-.05h0A.83.83,0,0,1,124.42,158.53Zm-.3-24a.83.83,0,0,1,.9-.74h0a.84.84,0,0,1,.74.91h0a.81.81,0,0,1-.89.73h0a.83.83,0,0,1-.75-.83h0Zm1.45,36.35a.82.82,0,0,1,.94.7h0a.82.82,0,0,1-.69.92h0a.82.82,0,0,1-.93-.71h0v-.11h0A.81.81,0,0,1,125.57,170.86Zm.27-48.68a.81.81,0,0,1,1-.67h0a.84.84,0,0,1,.67,1h0a.84.84,0,0,1-1,.66h0a.81.81,0,0,1-.67-.81h0A.34.34,0,0,1,125.84,122.18Zm1.86,60.88a.82.82,0,0,1,1,.62h0a.83.83,0,0,1-.63,1h0a.82.82,0,0,1-1-.62h0a1.08,1.08,0,0,1,0-.19h0A.82.82,0,0,1,127.7,183.06Zm.82-73h0a.83.83,0,0,1,1-.59h0a.84.84,0,0,1,.58,1h0a.81.81,0,0,1-1,.58h0a.81.81,0,0,1-.63-.8h0A.71.71,0,0,1,128.52,110Zm2.27,85a.83.83,0,0,1,1,.55h0a.82.82,0,0,1-.53,1h0a.85.85,0,0,1-1-.55h0a.85.85,0,0,1,0-.23h0A.85.85,0,0,1,130.79,195Zm1.37-96.93a.84.84,0,0,1,1.06-.5h0a.81.81,0,0,1,.5,1h0a.81.81,0,0,1-1,.5h0a.83.83,0,0,1-.56-.78h0A.93.93,0,0,1,132.16,98.11Zm2.68,108.64a.84.84,0,0,1,1.08.47h0a.83.83,0,0,1-.47,1.07h0a.82.82,0,0,1-1.06-.46h0a.91.91,0,0,1-.06-.32h0A.83.83,0,0,1,134.84,206.75Zm1.92-120.22a.82.82,0,0,1,1.09-.42h0a.85.85,0,0,1,.42,1.09h0a.83.83,0,0,1-1.09.41h0a.82.82,0,0,1-.5-.75h0A.8.8,0,0,1,136.76,86.53Zm3.06,131.57a.82.82,0,0,1,1.1.37h0a.8.8,0,0,1-.37,1.09h0a.82.82,0,0,1-1.11-.36h0a.84.84,0,0,1-.09-.37h0A.8.8,0,0,1,139.82,218.1Zm2.44-142.76a.86.86,0,0,1,1.13-.33h0a.83.83,0,0,1,.32,1.13h0a.83.83,0,0,1-1.12.32h0a.84.84,0,0,1-.42-.71h0A1,1,0,0,1,142.26,75.34ZM145.68,229a.81.81,0,0,1,1.12.28h0a.81.81,0,0,1-.28,1.12h0a.84.84,0,0,1-1.14-.28h0a.8.8,0,0,1-.11-.42h0A.78.78,0,0,1,145.68,229Zm3-164.36a.82.82,0,0,1,1.14-.25h0a.84.84,0,0,1,.24,1.15h0a.82.82,0,0,1-1.14.24h0a.81.81,0,0,1-.38-.69h0A.85.85,0,0,1,148.65,64.65Zm3.73,174.77a.81.81,0,0,1,1.15.19h0a.83.83,0,0,1-.19,1.15h0a.82.82,0,0,1-1.14-.2h0a.83.83,0,0,1-.14-.47h0A.79.79,0,0,1,152.38,239.42Zm3.47-184.93a.85.85,0,0,1,1.16-.16h0a.82.82,0,0,1,.14,1.15h0a.83.83,0,0,1-1.16.16h0a.83.83,0,0,1-.31-.65h0A.78.78,0,0,1,155.85,54.49Zm4,194.78a.82.82,0,0,1,1.16.09h0a.84.84,0,0,1-.1,1.17h0a.85.85,0,0,1-1.17-.11h0a.76.76,0,0,1-.2-.53h0A.8.8,0,0,1,159.89,249.27Zm4-204.34a.81.81,0,0,1,1.16-.06h0a.85.85,0,0,1,.07,1.17h0a.83.83,0,0,1-1.17.05h0a.77.77,0,0,1-.27-.61h0A.82.82,0,0,1,163.84,44.93Zm4.31,213.55a.83.83,0,0,1,1.17,0h0a.84.84,0,0,1,0,1.17h0a.82.82,0,0,1-1.16,0h0a.85.85,0,0,1-.23-.58h0A.89.89,0,0,1,168.15,258.48ZM172.55,36a.84.84,0,0,1,1.17,0h0a.83.83,0,0,1,0,1.17h0a.81.81,0,0,1-1.16,0h0a.87.87,0,0,1-.22-.57h0A.85.85,0,0,1,172.55,36Zm4.58,231a.81.81,0,0,1,1.15-.1h0a.83.83,0,0,1,.1,1.17h0a.83.83,0,0,1-1.17.08h0a.82.82,0,0,1-.28-.62h0A.76.76,0,0,1,177.13,267ZM182,27.85h0a.83.83,0,0,1,1.15.12h0a.83.83,0,0,1-.12,1.16h0a.82.82,0,0,1-1.16-.13h0a.78.78,0,0,1-.19-.51h0A.83.83,0,0,1,182,27.85Zm4.8,247a.8.8,0,0,1,1.15-.18h0a.82.82,0,0,1,.17,1.14h0a.79.79,0,0,1-1.15.17h0v0h0a.84.84,0,0,1-.33-.67h0A.77.77,0,0,1,186.75,274.85ZM192,20.45a.81.81,0,0,1,1.14.21h0a.81.81,0,0,1-.22,1.14h0a.82.82,0,0,1-1.14-.22h0a.83.83,0,0,1-.14-.46h0A.79.79,0,0,1,192,20.45Zm5,261.41a.84.84,0,0,1,1.13-.26h0a.83.83,0,0,1,.27,1.13h0a.83.83,0,0,1-1.14.27h0a.82.82,0,0,1-.39-.7h0A.93.93,0,0,1,197,281.86Zm5.54-268a.82.82,0,0,1,1.13.31h0a.83.83,0,0,1-.3,1.13h0a.83.83,0,0,1-1.12-.31h0a.77.77,0,0,1-.11-.41h0A.82.82,0,0,1,202.5,13.85Zm5.19,274.21a.83.83,0,0,1,1.11-.35h0a.82.82,0,0,1,.36,1.1h0a.82.82,0,0,1-1.11.36h0a.86.86,0,0,1-.45-.73h0A.82.82,0,0,1,207.69,288.06ZM213.55,8.12a.82.82,0,0,1,1.1.39h0a.81.81,0,0,1-.39,1.1h0a.81.81,0,0,1-1.09-.4h0a.81.81,0,0,1-.08-.34h0A.82.82,0,0,1,213.55,8.12Zm5.35,285.26a.83.83,0,0,1,1.08-.45h0a.83.83,0,0,1,.43,1.09h0a.8.8,0,0,1-1.07.43h0a.83.83,0,0,1-.5-.76h0A.64.64,0,0,1,218.9,293.38ZM225,3.29a.83.83,0,0,1,1.06.48h0a.83.83,0,0,1-.49,1.06h0a.84.84,0,0,1-1.06-.48h0a1,1,0,0,1,0-.28h0A.81.81,0,0,1,225,3.29Zm5.45,294.48a.83.83,0,0,1,1.05-.51h0a.8.8,0,0,1,.51,1h0a.82.82,0,0,1-1,.53h0a.83.83,0,0,1-.56-.78h0A.86.86,0,0,1,230.48,297.77ZM236.86-.61h0a.81.81,0,0,1,1,.56h0a.83.83,0,0,1-.56,1h0a.83.83,0,0,1-1-.58h0a.45.45,0,0,1,0-.22h0A.84.84,0,0,1,236.86-.61Zm5.51,301.84a.83.83,0,0,1,1-.59h0a.83.83,0,0,1,.61,1h0a.82.82,0,0,1-1,.61h0a.81.81,0,0,1-.62-.79h0A1.48,1.48,0,0,1,242.37,301.23ZM249-3.56a.84.84,0,0,1,1,.66h0a.82.82,0,0,1-.64,1h0a.82.82,0,0,1-1-.65h0a.76.76,0,0,1,0-.16h0A.83.83,0,0,1,249-3.56Zm5.57,307.3a.8.8,0,0,1,.93-.68h0a.81.81,0,0,1,.69.93h0a.84.84,0,0,1-.95.69h0a.83.83,0,0,1-.69-.81h0A.25.25,0,0,1,254.52,303.74ZM261.25-5.52h0a.83.83,0,0,1,.92.72h0a.84.84,0,0,1-.73.92h0a.83.83,0,0,1-.91-.72h0v-.11h0A.81.81,0,0,1,261.25-5.52Zm5.55,310.78a.83.83,0,0,1,.89-.75h0a.83.83,0,0,1,.76.89h0a.83.83,0,0,1-.89.74h0a.82.82,0,0,1-.76-.81h0ZM273.66-6.5h0a.81.81,0,0,1,.85.79h0a.83.83,0,0,1-.79.86h0a.84.84,0,0,1-.86-.8h0v0h0A.83.83,0,0,1,273.66-6.5ZM280,305h.23a.82.82,0,0,1,.83.83h0a.82.82,0,0,1-.83.81H280a.82.82,0,0,1-.83-.81h0A.83.83,0,0,1,280,305ZM285.25-5.72a.85.85,0,0,1,.86-.8h0a.86.86,0,0,1,.8.86h0a.83.83,0,0,1-.86.79h0a.83.83,0,0,1-.8-.82h0Zm7.3,310.21a.83.83,0,0,1,.89.75h0a.86.86,0,0,1-.77.89h0a.84.84,0,0,1-.89-.76h0v-.07h0A.82.82,0,0,1,292.55,304.49ZM297.61-4.82a.83.83,0,0,1,.91-.73h0a.83.83,0,0,1,.73.91h0a.81.81,0,0,1-.92.71h0a.81.81,0,0,1-.73-.81h0S297.61-4.79,297.61-4.82ZM304.78,303v0a.81.81,0,0,1,.94.67h0a.83.83,0,0,1-.69.95h0a.82.82,0,0,1-.93-.69h0a.3.3,0,0,1,0-.12h0A.86.86,0,0,1,304.78,303Zm5.07-306a.84.84,0,0,1,1-.65h0a.83.83,0,0,1,.64,1h0a.84.84,0,0,1-1,.64h0a.82.82,0,0,1-.65-.81h0Zm7,303.53a.81.81,0,0,1,1,.61h0a.79.79,0,0,1-.6,1h0a.82.82,0,0,1-1-.59h0a1.33,1.33,0,0,1,0-.21h0A.81.81,0,0,1,316.85,300.58ZM321.91-.11a.81.81,0,0,1,1-.56h0a.82.82,0,0,1,.57,1h0a.84.84,0,0,1-1,.58h0a.83.83,0,0,1-.59-.8h0A1.81,1.81,0,0,1,321.91-.11Zm6.78,297.29a.84.84,0,0,1,1.05.53h0a.82.82,0,0,1-.53,1h0a.82.82,0,0,1-1-.51h0a.91.91,0,0,1-.05-.27h0A.83.83,0,0,1,328.69,297.18Zm5-293.49a.82.82,0,0,1,1.05-.48h0a.81.81,0,0,1,.49,1.06h0a.83.83,0,0,1-1.06.48h0a.82.82,0,0,1-.53-.76h0A.73.73,0,0,1,333.7,3.69Zm6.53,289.16a.82.82,0,0,1,1.07.44h0a.82.82,0,0,1-.44,1.07h0a.82.82,0,0,1-1.09-.44h0a1,1,0,0,1-.06-.31h0A.83.83,0,0,1,340.23,292.85ZM345.15,8.43A.83.83,0,0,1,346.26,8h0a.83.83,0,0,1,.39,1.09h0a.82.82,0,0,1-1.09.39h0a.84.84,0,0,1-.49-.75h0A.84.84,0,0,1,345.15,8.43Zm6.2,279.18h0a.86.86,0,0,1,1.13.36h0a.84.84,0,0,1-.36,1.11h0a.84.84,0,0,1-1.11-.36h0a.88.88,0,0,1-.09-.38h0A.88.88,0,0,1,351.35,287.61ZM356.2,14.07a.81.81,0,0,1,1.12-.31h0a.84.84,0,0,1,.32,1.12h0a.85.85,0,0,1-1.13.31h0a.8.8,0,0,1-.42-.71h0A.77.77,0,0,1,356.2,14.07Zm5.86,267.43a.81.81,0,0,1,1.12.27h0a.81.81,0,0,1-.25,1.13h0a.81.81,0,0,1-1.13-.26h0a.87.87,0,0,1-.13-.44h0A.82.82,0,0,1,362.06,281.5Zm4.69-260.94a.82.82,0,0,1,1.14-.22h0a.81.81,0,0,1,.22,1.15h0a.83.83,0,0,1-1.14.22h0a.85.85,0,0,1-.36-.69h0A.88.88,0,0,1,366.75,20.56Zm5.49,254a.79.79,0,0,1,1.14.17h0a.82.82,0,0,1-.16,1.15h0a.82.82,0,0,1-1.15-.17h0a.88.88,0,0,1-.17-.5h0A.79.79,0,0,1,372.24,274.57Zm4.52-246.7a.82.82,0,0,1,1.15-.13h0a.82.82,0,0,1,.13,1.15h0a.82.82,0,0,1-1.15.14h0a.82.82,0,0,1-.32-.65h0A.85.85,0,0,1,376.76,27.87Zm5.07,239a.82.82,0,0,1,1.16.07h0a.83.83,0,0,1-.07,1.17h0a.84.84,0,0,1-1.17-.08h0a.84.84,0,0,1-.2-.54h0A.85.85,0,0,1,381.83,266.84ZM386.16,36a.8.8,0,0,1,1.15,0h0a.83.83,0,0,1,0,1.17h0a.82.82,0,0,1-1.15,0h0a.83.83,0,0,1-.27-.59h0A.8.8,0,0,1,386.16,36Zm4.63,222.42a.84.84,0,0,1,1.17,0h0a.84.84,0,0,1,0,1.17h0a.84.84,0,0,1-1.17,0h0a.9.9,0,0,1-.25-.59h0A.85.85,0,0,1,390.79,258.37Zm4.1-213.62a.79.79,0,0,1,1.15.06h0A.8.8,0,0,1,396,46h0a.82.82,0,0,1-1.16-.05h0a.85.85,0,0,1-.21-.56h0A.78.78,0,0,1,394.89,44.75Zm4.17,204.49a.81.81,0,0,1,1.16-.11h0a.83.83,0,0,1,.11,1.15h0a.82.82,0,0,1-1.17.11h0a.85.85,0,0,1-.3-.64h0A.72.72,0,0,1,399.06,249.24Zm3.82-195a.85.85,0,0,1,1.16.16h0a.82.82,0,0,1-.14,1.15h0a.84.84,0,0,1-1.17-.14h0a.89.89,0,0,1-.17-.51h0A.89.89,0,0,1,402.88,54.19Zm3.7,185.28h0a.8.8,0,0,1,1.13-.21h0a.84.84,0,0,1,.21,1.16h0a.85.85,0,0,1-1.16.18h0a.82.82,0,0,1-.34-.67h0A.76.76,0,0,1,406.58,239.47Zm3.53-175.21a.83.83,0,0,1,1.14.23h0a.83.83,0,0,1-.23,1.14h0a.82.82,0,0,1-1.14-.23h0a.85.85,0,0,1-.14-.45h0A.81.81,0,0,1,410.11,64.26Zm3.18,164.87a.82.82,0,0,1,1.13-.29h0a.83.83,0,0,1,.28,1.13h0a.8.8,0,0,1-1.12.28h0a.83.83,0,0,1-.41-.7h0A.92.92,0,0,1,413.29,229.13Zm3.23-154.27a.81.81,0,0,1,1.12.33h0a.81.81,0,0,1-.34,1.1h0a.81.81,0,0,1-1.11-.33h0a.73.73,0,0,1-.11-.38h0A.8.8,0,0,1,416.52,74.86Zm2.65,143.42h0a.82.82,0,0,1,1.09-.37h0a.84.84,0,0,1,.39,1.11h0a.84.84,0,0,1-1.11.37h0a.82.82,0,0,1-.46-.73h0A.88.88,0,0,1,419.17,218.28Zm2.88-132.36a.82.82,0,0,1,1.09.43h0a.81.81,0,0,1-.4,1.07h0a.82.82,0,0,1-1.09-.42h0a.73.73,0,0,1-.08-.33h0A.85.85,0,0,1,422.05,85.92ZM424.16,207a.83.83,0,0,1,1.07-.46h0a.83.83,0,0,1,.46,1.07h0a.81.81,0,0,1-1.06.46h0a.83.83,0,0,1-.53-.77h0A1.14,1.14,0,0,1,424.16,207ZM426.7,97.4a.83.83,0,0,1,1.06.49h0a.84.84,0,0,1-.52,1.06h0a.82.82,0,0,1-1-.51h0a.75.75,0,0,1-.05-.26h0A.83.83,0,0,1,426.7,97.4Zm1.54,98a.8.8,0,0,1,1-.54h0a.82.82,0,0,1,.55,1h0a.82.82,0,0,1-1,.54h0a.83.83,0,0,1-.59-.78h0A.73.73,0,0,1,428.24,195.37Zm2.17-86.16a.84.84,0,0,1,1,.59h0a.81.81,0,0,1-.59,1h0a.8.8,0,0,1-1-.58h0a1.52,1.52,0,0,1,0-.21h0A.83.83,0,0,1,430.41,109.21Zm.95,74.25h0a.83.83,0,0,1,1-.62h0a.81.81,0,0,1,.62,1h0a.79.79,0,0,1-1,.62h0a.82.82,0,0,1-.66-.8h0C431.34,183.57,431.36,183.51,431.36,183.46Zm1.81-62.17a.82.82,0,0,1,.95.65h0a.81.81,0,0,1-.66,1h0a.83.83,0,0,1-1-.67h0a.66.66,0,0,1,0-.14h0A.83.83,0,0,1,433.17,121.29Zm.36,50a.82.82,0,0,1,.93-.7h0a.83.83,0,0,1,.7.94h0a.84.84,0,0,1-.93.7h0a.82.82,0,0,1-.7-.81h0Zm1.41-37.78a.84.84,0,0,1,.91.75h0a.81.81,0,0,1-.73.89h0a.83.83,0,0,1-.91-.74h0v-.07h0A.83.83,0,0,1,434.94,133.54Zm-.21,25.53a.81.81,0,0,1,.87-.78h0a.82.82,0,0,1,.76.87h0a.8.8,0,0,1-.85.77h0a.8.8,0,0,1-.78-.81h0Zm1-13.17a.85.85,0,0,1,.85.81h0a.84.84,0,0,1-.81.84h0a.85.85,0,0,1-.85-.81h0A.83.83,0,0,1,435.75,145.9Z" transform="translate(59.71 189.71)"/><path class="cls-6" d="M111.22,154.15a.63.63,0,0,1,.62.59h0a.59.59,0,0,1-.59.62h0a.61.61,0,0,1-.63-.59h0v0h0A.62.62,0,0,1,111.22,154.15Zm-.49-11.82a.61.61,0,0,1,.63-.58h0a.59.59,0,0,1,.57.63h0a.6.6,0,0,1-.62.59h0a.62.62,0,0,1-.58-.62h0ZM112,166.52a.63.63,0,0,1,.67.55h0a.61.61,0,0,1-.53.67h0a.62.62,0,0,1-.67-.55h0v-.06h0A.61.61,0,0,1,112,166.52Zm-.23-36.6h0a.63.63,0,0,1,.69-.53h0a.63.63,0,0,1,.53.67h0a.6.6,0,0,1-.69.53h0a.6.6,0,0,1-.53-.59h0Zm1.89,48.9a.61.61,0,0,1,.7.48v0a.61.61,0,0,1-.5.7h0a.62.62,0,0,1-.7-.5h0v-.11h0A.6.6,0,0,1,113.62,178.82Zm0-61.19h0a.6.6,0,0,1,.71-.47h0a.57.57,0,0,1,.47.7h0a.61.61,0,0,1-.72.48h0a.61.61,0,0,1-.5-.59h0S113.65,117.67,113.65,117.63ZM116.16,191a.6.6,0,0,1,.74.44h0a.61.61,0,0,1-.43.73h0a.64.64,0,0,1-.75-.44h0s0-.11,0-.15h0A.6.6,0,0,1,116.16,191Zm.31-85.46a.6.6,0,0,1,.73-.42h0a.62.62,0,0,1,.44.75h0a.6.6,0,0,1-.75.42h0a.6.6,0,0,1-.45-.59h0A.5.5,0,0,1,116.47,105.5Zm3.13,97.37a.61.61,0,0,1,.78.37h0a.64.64,0,0,1-.39.78h0a.61.61,0,0,1-.76-.39h0a.31.31,0,0,1,0-.19h0A.59.59,0,0,1,119.6,202.87Zm.56-109.25a.62.62,0,0,1,.78-.37h0a.64.64,0,0,1,.38.78h0a.63.63,0,0,1-.78.37h0a.61.61,0,0,1-.41-.57h0A.51.51,0,0,1,120.16,93.62Zm3.76,120.86a.58.58,0,0,1,.78.33h0a.61.61,0,0,1-.31.79h0a.61.61,0,0,1-.8-.32h0a.69.69,0,0,1,0-.24h0A.62.62,0,0,1,123.92,214.48ZM124.74,82h0a.6.6,0,0,1,.8-.31h0a.59.59,0,0,1,.31.8h0a.59.59,0,0,1-.79.31h0a.62.62,0,0,1-.38-.56h0A.71.71,0,0,1,124.74,82Zm4.32,143.71a.62.62,0,0,1,.83.26h0a.61.61,0,0,1-.28.81h0a.59.59,0,0,1-.81-.26h0a1,1,0,0,1-.07-.28h0A.61.61,0,0,1,129.06,225.75Zm1.09-154.93a.62.62,0,0,1,.83-.25h0a.61.61,0,0,1,.25.81h0a.61.61,0,0,1-.81.27h0a.6.6,0,0,1-.33-.55h0A.71.71,0,0,1,130.15,70.82ZM135,236.6a.61.61,0,0,1,.84.22h0a.6.6,0,0,1-.2.82h0a.62.62,0,0,1-.84-.2h0a.55.55,0,0,1-.08-.31h0A.62.62,0,0,1,135,236.6ZM136.39,60a.6.6,0,0,1,.84-.19h0a.62.62,0,0,1,.19.84h0a.63.63,0,0,1-.85.19h0a.65.65,0,0,1-.28-.52h0A.55.55,0,0,1,136.39,60Zm5.41,187a.61.61,0,0,1,.84.16h0a.61.61,0,0,1-.14.84h0a.6.6,0,0,1-.84-.14h0a.61.61,0,0,1-.13-.36h0A.62.62,0,0,1,141.8,247Zm1.59-197.26a.61.61,0,0,1,.85-.12h0a.62.62,0,0,1,.13.86h0a.61.61,0,0,1-.84.12h0a.57.57,0,0,1-.25-.48h0A.65.65,0,0,1,143.39,49.73Zm5.9,207.15a.62.62,0,0,1,.86.07h0a.63.63,0,0,1-.09.86h0a.61.61,0,0,1-.84-.08h0a.59.59,0,0,1-.14-.39h0A.6.6,0,0,1,149.29,256.88ZM151.13,40h0a.62.62,0,0,1,.86-.08h0a.61.61,0,0,1,.06.86h0a.6.6,0,0,1-.86.08h0a.64.64,0,0,1-.21-.47h0A.53.53,0,0,1,151.13,40Zm6.36,226.19a.6.6,0,0,1,.86,0h0a.6.6,0,0,1,0,.85h0a.6.6,0,0,1-.85,0h0a.58.58,0,0,1-.18-.42h0A.61.61,0,0,1,157.49,266.18Zm2.06-235.35a.6.6,0,0,1,.86,0h0a.58.58,0,0,1,0,.85h0a.59.59,0,0,1-.85,0h0a.61.61,0,0,1-.18-.43h0A.61.61,0,0,1,159.55,30.83Zm6.79,244a.62.62,0,0,1,.86-.05h0a.61.61,0,0,1,.05.86h0a.61.61,0,0,1-.86.05h0a.71.71,0,0,1-.2-.45h0A.69.69,0,0,1,166.34,274.86ZM168.62,22.3a.61.61,0,0,1,.86.06h0a.61.61,0,0,1,0,.86h0a.61.61,0,0,1-.86-.06h0a.53.53,0,0,1-.15-.39h0A.71.71,0,0,1,168.62,22.3Zm7.2,260.57a.6.6,0,0,1,.84-.11h0a.61.61,0,0,1,.11.86h0a.58.58,0,0,1-.84.09h0a.54.54,0,0,1-.23-.46h0A.58.58,0,0,1,175.82,282.87ZM178.3,14.48a.59.59,0,0,1,.84.11h0a.6.6,0,0,1-.12.85h0a.62.62,0,0,1-.86-.12h0a.7.7,0,0,1-.12-.36h0A.56.56,0,0,1,178.3,14.48Zm7.56,275.69a.6.6,0,0,1,.84-.17h0a.62.62,0,0,1,.16.84h0a.61.61,0,0,1-.85.17h0a.6.6,0,0,1-.26-.5h0A.55.55,0,0,1,185.86,290.17Zm2.65-282.8a.6.6,0,0,1,.84.17h0a.62.62,0,0,1-.19.84h0a.6.6,0,0,1-.84-.18h0a.63.63,0,0,1-.09-.33h0A.57.57,0,0,1,188.51,7.37Zm7.88,289.35a.62.62,0,0,1,.83-.24h0a.61.61,0,0,1,.23.83h0a.6.6,0,0,1-.82.23h0a.59.59,0,0,1-.31-.53h0A.52.52,0,0,1,196.39,296.72ZM199.2,1a.61.61,0,0,1,.83.25h0a.58.58,0,0,1-.24.81h0a.59.59,0,0,1-.82-.24h0a.6.6,0,0,1-.08-.29h0A.61.61,0,0,1,199.2,1Zm8.18,301.44a.6.6,0,0,1,.81-.28h0a.58.58,0,0,1,.3.79h0a.61.61,0,0,1-.81.3h0a.61.61,0,0,1-.34-.55h0A.71.71,0,0,1,207.38,302.47Zm3-307a.61.61,0,0,1,.81.31h0a.61.61,0,0,1-.31.8h0a.6.6,0,0,1-.79-.3h0A.5.5,0,0,1,210-4h0A.64.64,0,0,1,210.34-4.51Zm8.44,311.9a.6.6,0,0,1,.79-.34h0a.59.59,0,0,1,.34.78h0a.62.62,0,0,1-.78.36h0a.62.62,0,0,1-.38-.58h0A1,1,0,0,1,218.78,307.39ZM221.86-9.2a.61.61,0,0,1,.78.36h0a.61.61,0,0,1-.36.78h0a.61.61,0,0,1-.78-.36h0a.54.54,0,0,1,0-.2h0A.61.61,0,0,1,221.86-9.2Zm8.65,320.67a.59.59,0,0,1,.75-.4h0a.59.59,0,0,1,.41.75h0a.59.59,0,0,1-.75.4h0a.6.6,0,0,1-.44-.57h0A.84.84,0,0,1,230.51,311.47ZM233.69-13a.62.62,0,0,1,.77.42h0a.65.65,0,0,1-.42.75h0a.61.61,0,0,1-.75-.43h0a.32.32,0,0,1,0-.17h0A.59.59,0,0,1,233.69-13Zm8.81,327.68a.6.6,0,0,1,.72-.45h0a.6.6,0,0,1,.46.72h0a.6.6,0,0,1-.73.45h0v0h0a.64.64,0,0,1-.47-.61h0A.34.34,0,0,1,242.5,314.65ZM245.79-16a.6.6,0,0,1,.72.47h0a.61.61,0,0,1-.47.72h0a.61.61,0,0,1-.72-.47h0a.34.34,0,0,1,0-.13h0A.62.62,0,0,1,245.79-16ZM254.69,317a.61.61,0,0,1,.68-.52h0a.63.63,0,0,1,.52.7h0a.6.6,0,0,1-.69.5h0a.61.61,0,0,1-.53-.59h0A.15.15,0,0,1,254.69,317Zm3.37-335a.63.63,0,0,1,.68.53h0a.59.59,0,0,1-.51.67v0a.63.63,0,0,1-.69-.53h0v-.08h0A.63.63,0,0,1,258.06-18ZM267,318.35a.59.59,0,0,1,.65-.56h0a.61.61,0,0,1,.57.64h0a.61.61,0,0,1-.66.56h0a.6.6,0,0,1-.56-.6h0Zm3.46-337.52a.61.61,0,0,1,.64.57h0a.63.63,0,0,1-.58.64h0a.6.6,0,0,1-.64-.58h0v0h0A.6.6,0,0,1,270.46-19.17ZM280,318.22a.62.62,0,0,1,.61.61h0a.62.62,0,0,1-.61.61h0a.61.61,0,0,1-.61-.61h0A.61.61,0,0,1,280,318.22Zm2.28-337a.6.6,0,0,1,.62-.59h0a.59.59,0,0,1,.59.61h0a.61.61,0,0,1-.61.61v0a.59.59,0,0,1-.6-.59h0Zm4.31,336.92a.6.6,0,0,1,.64.59h0a.61.61,0,0,1-.59.63h0a.61.61,0,0,1-.62-.6h0A.6.6,0,0,1,286.59,318.1Zm8.08-336.31a.6.6,0,0,1,.65-.54h0a.6.6,0,0,1,.55.65h0a.61.61,0,0,1-.66.55h0a.58.58,0,0,1-.54-.6h0Zm4.25,335.39a.6.6,0,0,1,.67.53h0a.61.61,0,0,1-.54.67h0a.61.61,0,0,1-.67-.53h0v-.08h0A.6.6,0,0,1,298.92,317.18ZM307-16.7a.63.63,0,0,1,.71-.49h0a.6.6,0,0,1,.49.7h0a.6.6,0,0,1-.68.5h0a.63.63,0,0,1-.52-.6h0Zm4.18,332.06a.59.59,0,0,1,.7.48h0a.59.59,0,0,1-.48.7h0a.6.6,0,0,1-.7-.48h0a.22.22,0,0,1,0-.11h0A.6.6,0,0,1,311.14,315.36Zm8-329.64a.62.62,0,0,1,.73-.44h0a.61.61,0,0,1,.44.74h0a.59.59,0,0,1-.72.43h0a.59.59,0,0,1-.47-.57h0A.44.44,0,0,1,319.14-14.28Zm4.05,326.91a.63.63,0,0,1,.75.43h0a.62.62,0,0,1-.44.75h0a.63.63,0,0,1-.75-.43h0a.86.86,0,0,1,0-.16h0A.62.62,0,0,1,323.19,312.63ZM331.09-11a.61.61,0,0,1,.75-.41h0a.63.63,0,0,1,.41.77h0a.62.62,0,0,1-.77.4h0a.61.61,0,0,1-.42-.57h0A.4.4,0,0,1,331.09-11ZM335,309a.62.62,0,0,1,.78.37h0a.63.63,0,0,1-.37.78h0a.61.61,0,0,1-.78-.37h0a.82.82,0,0,1,0-.21h0A.6.6,0,0,1,335,309ZM342.78-6.78a.58.58,0,0,1,.78-.33h0a.62.62,0,0,1,.34.79h0a.62.62,0,0,1-.79.33h0a.61.61,0,0,1-.37-.56h0A.59.59,0,0,1,342.78-6.78Zm3.73,311.35a.61.61,0,0,1,.81.31h0a.62.62,0,0,1-.33.8h0a.59.59,0,0,1-.79-.31h0a.52.52,0,0,1-.05-.24h0A.59.59,0,0,1,346.51,304.57Zm7.6-306.3a.62.62,0,0,1,.81-.28h0a.58.58,0,0,1,.28.81h0a.6.6,0,0,1-.81.28h0a.63.63,0,0,1-.34-.55h0A.76.76,0,0,1,354.11-1.73Zm3.56,301a.6.6,0,0,1,.81.25h0a.63.63,0,0,1-.25.83h0a.63.63,0,0,1-.83-.27h0a.57.57,0,0,1-.06-.28h0A.58.58,0,0,1,357.67,299.27ZM365.05,4.13a.6.6,0,0,1,.83-.22h0a.59.59,0,0,1,.22.82h0a.6.6,0,0,1-.83.22h0a.61.61,0,0,1-.29-.51h0A.55.55,0,0,1,365.05,4.13Zm3.34,289a.62.62,0,0,1,.84.19h0a.6.6,0,0,1-.2.84h0a.6.6,0,0,1-.83-.2h0a.61.61,0,0,1-.09-.31h0A.63.63,0,0,1,368.39,293.16Zm7.14-282.38a.6.6,0,0,1,.84-.15h0a.61.61,0,0,1,.16.84h0a.61.61,0,0,1-.85.15h0a.61.61,0,0,1-.26-.49h0A.54.54,0,0,1,375.53,10.78Zm3.13,275.49v0a.59.59,0,0,1,.84.12h0a.59.59,0,0,1-.14.84h0a.59.59,0,0,1-.84-.12h0a.61.61,0,0,1-.11-.36h0A.62.62,0,0,1,378.66,286.27Zm6.83-268.1a.62.62,0,0,1,.86-.09h0a.61.61,0,0,1,.09.85h0a.62.62,0,0,1-.86.1h0a.63.63,0,0,1-.23-.47h0A.62.62,0,0,1,385.49,18.17Zm2.9,260.5h0a.59.59,0,0,1,.85.07h0a.6.6,0,0,1-.07.85h0a.62.62,0,0,1-.86-.07h0a.64.64,0,0,1-.14-.39h0A.61.61,0,0,1,388.39,278.67Zm6.5-252.39a.6.6,0,0,1,.84,0h0a.6.6,0,0,1,0,.86h0a.59.59,0,0,1-.86,0h0a.6.6,0,0,1-.18-.43h0A.61.61,0,0,1,394.89,26.28Zm2.65,244.08a.58.58,0,0,1,.85,0h0a.59.59,0,0,1,0,.86h0a.62.62,0,0,1-.86,0h0a.61.61,0,0,1-.17-.43h0A.59.59,0,0,1,397.54,270.36Zm6.11-235.31a.59.59,0,0,1,.85,0h0a.6.6,0,0,1,0,.86h0a.62.62,0,0,1-.85,0h0a.63.63,0,0,1-.16-.42h0A.58.58,0,0,1,403.65,35.05Zm2.41,226.36h0a.58.58,0,0,1,.84-.06h0a.61.61,0,0,1,.07.86h0a.61.61,0,0,1-.86.06h0a.63.63,0,0,1-.2-.47h0A.53.53,0,0,1,406.06,261.41Zm5.71-217a.58.58,0,0,1,.84.1h0a.58.58,0,0,1-.09.84h0a.61.61,0,0,1-.86-.09h0a.65.65,0,0,1-.13-.38h0A.58.58,0,0,1,411.77,44.43Zm2.13,207.43a.59.59,0,0,1,.84-.13h0a.61.61,0,0,1,.13.86h0a.63.63,0,0,1-.86.11h0a.61.61,0,0,1-.23-.49h0A.53.53,0,0,1,413.9,251.86Zm5.25-197.48a.62.62,0,0,1,.86.15h0a.62.62,0,0,1-.16.85h0a.61.61,0,0,1-.84-.16h0a.72.72,0,0,1-.11-.34h0A.6.6,0,0,1,419.15,54.38ZM421,241.76a.62.62,0,0,1,.84-.19h0a.6.6,0,0,1,.17.84h0a.6.6,0,0,1-.84.17h0a.58.58,0,0,1-.27-.5h0A.55.55,0,0,1,421,241.76Zm4.78-176.92a.6.6,0,0,1,.83.21h0a.6.6,0,0,1-.22.83h0a.6.6,0,0,1-.83-.22h0a.53.53,0,0,1-.08-.29h0A.6.6,0,0,1,425.81,64.84Zm1.57,166.32h0a.62.62,0,0,1,.83-.25h0a.6.6,0,0,1,.25.82h0a.62.62,0,0,1-.83.25h0a.62.62,0,0,1-.31-.54h0A.71.71,0,0,1,427.38,231.16Zm4.29-155.4a.59.59,0,0,1,.81.28h0a.61.61,0,0,1-.28.81h0a.62.62,0,0,1-.81-.28h0a.88.88,0,0,1-.06-.26h0A.58.58,0,0,1,431.67,75.76ZM433,220.11a.61.61,0,0,1,.8-.3h0a.61.61,0,0,1,.31.81h0a.62.62,0,0,1-.81.3h0a.63.63,0,0,1-.36-.55h0A.82.82,0,0,1,433,220.11Zm3.76-133a.58.58,0,0,1,.78.32h0a.62.62,0,0,1-.34.8h0a.61.61,0,0,1-.78-.34h0a.59.59,0,0,1-.05-.22h0A.58.58,0,0,1,436.72,87.08Zm1,121.6a.63.63,0,0,1,.78-.36h0a.61.61,0,0,1,.36.78h0a.6.6,0,0,1-.78.36h0a.57.57,0,0,1-.39-.56h0A.56.56,0,0,1,437.7,208.68Zm3.21-109.94a.61.61,0,0,1,.77.4h0a.62.62,0,0,1-.41.75h0a.59.59,0,0,1-.76-.39h0a.58.58,0,0,1,0-.19h0A.59.59,0,0,1,440.91,98.74Zm.67,98.22a.62.62,0,0,1,.75-.42h0a.6.6,0,0,1,.42.75h0a.6.6,0,0,1-.75.42h0a.6.6,0,0,1-.43-.58h0A.91.91,0,0,1,441.58,197Zm2.65-86.27a.62.62,0,0,1,.74.45h0a.62.62,0,0,1-.46.74h0a.63.63,0,0,1-.73-.46h0a.61.61,0,0,1,0-.14h0A.59.59,0,0,1,444.23,110.69Zm.36,74.29a.59.59,0,0,1,.72-.47h0a.61.61,0,0,1,.47.72h0a.62.62,0,0,1-.72.46h0a.59.59,0,0,1-.48-.59h0A.41.41,0,0,1,444.59,185Zm2.08-62.13a.6.6,0,0,1,.68.5h0a.61.61,0,0,1-.5.7h0a.62.62,0,0,1-.7-.5h0v-.11h0A.62.62,0,0,1,446.67,122.85Zm0,50a.6.6,0,0,1,.68-.53h0a.62.62,0,0,1,.52.69h0a.6.6,0,0,1-.69.51h0a.6.6,0,0,1-.53-.59h0S446.7,172.82,446.7,172.8Zm1.49-37.65a.63.63,0,0,1,.66.56h0a.61.61,0,0,1-.56.65h0a.61.61,0,0,1-.66-.56h0v-.05h0A.61.61,0,0,1,448.19,135.15Zm-.29,25.35h0a.61.61,0,0,1,.65-.57h0a.61.61,0,0,1,.56.65h0a.6.6,0,0,1-.64.57h0a.6.6,0,0,1-.57-.6h0Zm.92-13a.59.59,0,0,1,.6.61h0a.6.6,0,0,1-.59.6h0a.61.61,0,0,1-.62-.6h0A.62.62,0,0,1,448.82,147.54Z" transform="translate(59.71 189.71)"/><path class="cls-6" d="M98.14,149.74a.38.38,0,0,1,.39.38h0a.39.39,0,0,1-.39.39h0a.39.39,0,0,1-.39-.39h0A.38.38,0,0,1,98.14,149.74Zm0-12.05a.39.39,0,0,1,.42-.36h0a.37.37,0,0,1,.36.4h0a.4.4,0,0,1-.4.38h0a.4.4,0,0,1-.38-.39h0Zm.38,24.45a.39.39,0,0,1,.42.36h0a.39.39,0,0,1-.36.42h0a.41.41,0,0,1-.42-.37h0v0h0A.38.38,0,0,1,98.53,162.14Zm.87-36.83a.39.39,0,0,1,.45-.33h0a.38.38,0,0,1,.33.44h0a.39.39,0,0,1-.44.33h0a.39.39,0,0,1-.34-.39h0Zm.37,49.18a.38.38,0,0,1,.44.32h0a.4.4,0,0,1-.33.46h0a.43.43,0,0,1-.45-.35h0l0,0h0A.42.42,0,0,1,99.77,174.49ZM101.51,113h0a.39.39,0,0,1,.47-.29h0a.39.39,0,0,1,.31.45h0a.41.41,0,0,1-.47.31h0a.39.39,0,0,1-.31-.39h0A.17.17,0,0,1,101.51,113Zm.34,73.68a.41.41,0,0,1,.47.31h0a.4.4,0,0,1-.32.46h0a.4.4,0,0,1-.45-.3h0s0-.05,0-.08h0A.39.39,0,0,1,101.85,186.72ZM104.42,101a.4.4,0,0,1,.48-.27h0a.4.4,0,0,1,.28.49h0a.38.38,0,0,1-.48.26h0a.39.39,0,0,1-.3-.37h0S104.42,101,104.42,101Zm.34,97.84a.41.41,0,0,1,.49.28h0a.41.41,0,0,1-.29.48h0a.41.41,0,0,1-.48-.28h0s0-.06,0-.09h0A.42.42,0,0,1,104.76,198.79Zm3.42-109.7a.39.39,0,0,1,.49-.24h0a.39.39,0,0,1,.24.5h0a.38.38,0,0,1-.5.24h0a.38.38,0,0,1-.25-.36h0A.34.34,0,0,1,108.18,89.09Zm.31,121.54a.4.4,0,0,1,.5.24h0a.37.37,0,0,1-.24.48h0a.39.39,0,0,1-.5-.23h0a.45.45,0,0,1,0-.12h0A.38.38,0,0,1,108.49,210.63Zm4.25-133.12a.38.38,0,0,1,.52-.2h0a.4.4,0,0,1,.2.51h0a.41.41,0,0,1-.51.2h0a.41.41,0,0,1-.24-.37h0A.22.22,0,0,1,112.74,77.51ZM113,222.18a.4.4,0,0,1,.52.19h0a.37.37,0,0,1-.21.51h0a.37.37,0,0,1-.51-.2h0a.7.7,0,0,1,0-.14h0A.39.39,0,0,1,113,222.18Zm5.07-155.93h0a.41.41,0,0,1,.53-.17h0a.38.38,0,0,1,.15.53h0a.37.37,0,0,1-.51.17h0a.39.39,0,0,1-.22-.34h0A.49.49,0,0,1,118.09,66.25Zm.25,167.12a.39.39,0,0,1,.51.17h0a.39.39,0,0,1-.15.53h0a.4.4,0,0,1-.53-.17h0a.31.31,0,0,1,0-.17h0A.42.42,0,0,1,118.34,233.37Zm5.86-178a.38.38,0,0,1,.53-.14h0a.39.39,0,0,1,.14.54h0a.43.43,0,0,1-.55.13h0a.4.4,0,0,1-.18-.33h0A.28.28,0,0,1,124.2,55.41Zm.2,188.79a.37.37,0,0,1,.53.13h0a.37.37,0,0,1-.12.53h0a.38.38,0,0,1-.53-.13h0a.32.32,0,0,1-.07-.2h0A.4.4,0,0,1,124.4,244.2ZM131,45a.38.38,0,0,1,.54-.09h0a.4.4,0,0,1,.09.55h0a.39.39,0,0,1-.54.09h0a.4.4,0,0,1-.17-.33h0A.4.4,0,0,1,131,45Zm.17,209.59a.38.38,0,0,1,.54.1h0a.37.37,0,0,1-.09.53h0a.41.41,0,0,1-.55-.08h0a.55.55,0,0,1-.07-.23h0A.39.39,0,0,1,131.2,254.58Zm7.34-219.5a.4.4,0,0,1,.56-.06h0a.4.4,0,0,1,.05.55h0a.4.4,0,0,1-.55.06h0a.43.43,0,0,1-.14-.31h0A.41.41,0,0,1,138.54,35.08Zm.14,229.4a.4.4,0,0,1,.56.06h0a.42.42,0,0,1-.06.56h0a.39.39,0,0,1-.55-.06h0a.4.4,0,0,1-.09-.25h0A.41.41,0,0,1,138.68,264.48Zm8-238.78h0a.38.38,0,0,1,.55,0h0a.38.38,0,0,1,0,.55h0a.41.41,0,0,1-.56,0h0a.39.39,0,0,1-.13-.28h0A.46.46,0,0,1,146.72,25.7Zm.11,248.15a.39.39,0,0,1,.55,0h0a.4.4,0,0,1,0,.56h0a.39.39,0,0,1-.55,0h0a.44.44,0,0,1-.1-.28h0A.41.41,0,0,1,146.83,273.85Zm8.68-257a.39.39,0,0,1,.55,0h0a.37.37,0,0,1,0,.54h0a.37.37,0,0,1-.54,0h0a.36.36,0,0,1-.11-.27h0A.38.38,0,0,1,155.51,16.89Zm.08,265.77a.37.37,0,0,1,.54,0h0a.39.39,0,0,1,0,.56h0a.38.38,0,0,1-.54,0h0a.43.43,0,0,1-.13-.28h0A.3.3,0,0,1,155.59,282.66Zm9.29-274a.36.36,0,0,1,.54,0h0a.4.4,0,0,1,0,.56h0a.4.4,0,0,1-.55-.06h0a.4.4,0,0,1-.09-.25h0A.37.37,0,0,1,164.88,8.71Zm.05,282.13a.38.38,0,0,1,.54-.06h0a.38.38,0,0,1,.06.54h0a.38.38,0,0,1-.54.06h0a.35.35,0,0,1-.16-.31h0A.3.3,0,0,1,164.93,290.84ZM174.78,1.18a.38.38,0,0,1,.54.1h0a.36.36,0,0,1-.09.52h0a.38.38,0,0,1-.55-.09h0a.4.4,0,0,1-.06-.22h0A.35.35,0,0,1,174.78,1.18Zm0,297.19a.39.39,0,0,1,.54-.1h0a.41.41,0,0,1,.1.55h0a.4.4,0,0,1-.55.09h0a.4.4,0,0,1-.17-.33h0A.34.34,0,0,1,174.81,298.37Zm10.36-304a.4.4,0,0,1,.53.12h0a.42.42,0,0,1-.12.55h0a.4.4,0,0,1-.55-.14h0a.46.46,0,0,1-.05-.2h0A.4.4,0,0,1,185.17-5.66Zm0,310.87a.37.37,0,0,1,.53-.13h0a.37.37,0,0,1,.13.53h0a.37.37,0,0,1-.53.13h0a.36.36,0,0,1-.19-.33h0A.34.34,0,0,1,185.17,305.21ZM196-11.77a.4.4,0,0,1,.53.16h0a.38.38,0,0,1-.17.52h0a.37.37,0,0,1-.52-.15h0a.43.43,0,0,1,0-.19h0A.37.37,0,0,1,196-11.77Zm0,323.1a.42.42,0,0,1,.53-.17h0a.4.4,0,0,1,.17.53h0a.4.4,0,0,1-.53.17h0a.42.42,0,0,1-.2-.35h0A.38.38,0,0,1,196,311.33ZM207.21-17.13h0a.41.41,0,0,1,.52.2h0a.4.4,0,0,1-.21.51h0a.39.39,0,0,1-.51-.2h0a.44.44,0,0,1,0-.15h0A.37.37,0,0,1,207.21-17.13Zm0,333.83a.39.39,0,0,1,.49-.21h0a.39.39,0,0,1,.21.52h0a.37.37,0,0,1-.5.2h0a.37.37,0,0,1-.24-.36h0A.24.24,0,0,1,207.2,316.7ZM218.76-21.7a.39.39,0,0,1,.5.23h0a.38.38,0,0,1-.23.5h0a.38.38,0,0,1-.5-.23h0a.35.35,0,0,1,0-.14h0A.39.39,0,0,1,218.76-21.7Zm0,343a.39.39,0,0,1,.49-.25h0a.39.39,0,0,1,.24.5h0a.38.38,0,0,1-.5.24h0a.39.39,0,0,1-.27-.36h0A.28.28,0,0,1,218.75,321.29ZM230.61-25.47h0a.38.38,0,0,1,.47.26h0a.4.4,0,0,1-.27.49h0a.42.42,0,0,1-.48-.27h0s0-.08,0-.11h0A.37.37,0,0,1,230.61-25.47Zm-.05,350.54a.39.39,0,0,1,.48-.27h0a.38.38,0,0,1,.28.47h0a.41.41,0,0,1-.48.28h0a.41.41,0,0,1-.28-.39h0ZM242.7-28.43h0a.37.37,0,0,1,.45.31h0a.36.36,0,0,1-.29.45h0a.37.37,0,0,1-.45-.3h0a.12.12,0,0,1,0-.07h0A.39.39,0,0,1,242.7-28.43ZM242.62,328a.39.39,0,0,1,.47-.29h0a.39.39,0,0,1,.3.45h0a.38.38,0,0,1-.45.31h0a.4.4,0,0,1-.32-.37h0ZM255-30.54h0a.4.4,0,0,1,.46.33h0a.41.41,0,0,1-.35.44h0a.37.37,0,0,1-.43-.33h0v0h0A.38.38,0,0,1,255-30.54Zm-.09,360.67a.39.39,0,0,1,.44-.33h0a.39.39,0,0,1,.32.44h0a.37.37,0,0,1-.43.34h0a.4.4,0,0,1-.33-.39h0ZM267.33-31.81a.39.39,0,0,1,.42.35h0a.39.39,0,0,1-.36.42h0a.38.38,0,0,1-.42-.35h0v0h0A.38.38,0,0,1,267.33-31.81Zm-.13,363.24a.41.41,0,0,1,.42-.38h0a.39.39,0,0,1,.36.42h0a.38.38,0,0,1-.42.36h0a.4.4,0,0,1-.36-.39h0ZM279.77-32.25a.39.39,0,0,1,.39.39h0a.39.39,0,0,1-.39.39h0a.38.38,0,0,1-.39-.39h0A.38.38,0,0,1,279.77-32.25ZM280,331.47a.4.4,0,0,1,.23.08h0a.37.37,0,0,1,.22-.08h0a.4.4,0,0,1,.41.39h0a.4.4,0,0,1-.39.39h0a.38.38,0,0,1-.24-.08h0a.38.38,0,0,1-.23.08h0a.38.38,0,0,1-.39-.39h0A.38.38,0,0,1,280,331.47Zm.47,0h0Zm11.31-363a.41.41,0,0,1,.42-.36h0a.39.39,0,0,1,.36.42h0a.39.39,0,0,1-.42.36h0a.39.39,0,0,1-.36-.39h0ZM292.84,331a.39.39,0,0,1,.41.36h0a.39.39,0,0,1-.36.42h0a.41.41,0,0,1-.42-.36h0v0h0A.41.41,0,0,1,292.84,331Zm11.3-361.29a.38.38,0,0,1,.44-.33h0a.39.39,0,0,1,.33.44h0a.38.38,0,0,1-.44.32h0a.37.37,0,0,1-.34-.38h0A.07.07,0,0,1,304.14-30.27Zm1,360a.38.38,0,0,1,.43.33h0a.4.4,0,0,1-.32.45h0a.38.38,0,0,1-.44-.33h0v-.05h0A.39.39,0,0,1,305.16,329.74ZM316.38-28.21a.41.41,0,0,1,.47-.32h0a.39.39,0,0,1,.29.47h0a.4.4,0,0,1-.47.3h0a.39.39,0,0,1-.29-.38h0Zm1,355.83h0a.41.41,0,0,1,.47.3h0a.41.41,0,0,1-.31.47h0a.41.41,0,0,1-.46-.32h0a.56.56,0,0,1,0-.07h0A.38.38,0,0,1,317.36,327.62Zm11.1-352.95a.37.37,0,0,1,.47-.27h0a.38.38,0,0,1,.28.47h0a.41.41,0,0,1-.49.28h0a.38.38,0,0,1-.28-.37h0A.22.22,0,0,1,328.46-25.33Zm.93,350a.41.41,0,0,1,.49.28h0a.4.4,0,0,1-.28.48h0a.39.39,0,0,1-.48-.28h0a.15.15,0,0,1,0-.09h0A.42.42,0,0,1,329.39,324.66ZM340.3-21.62a.39.39,0,0,1,.5-.23h0a.38.38,0,0,1,.24.49h0a.39.39,0,0,1-.5.24h0a.42.42,0,0,1-.27-.38h0A1,1,0,0,1,340.3-21.62Zm.89,342.51a.41.41,0,0,1,.5.23h0a.38.38,0,0,1-.23.5h0a.38.38,0,0,1-.5-.23h0a.25.25,0,0,1,0-.13h0A.42.42,0,0,1,341.19,320.89Zm10.69-338a.4.4,0,0,1,.52-.2h0a.39.39,0,0,1,.22.51h0a.38.38,0,0,1-.51.2h0a.37.37,0,0,1-.24-.36h0A.29.29,0,0,1,351.88-17.1Zm.8,333.42h0a.39.39,0,0,1,.51.21h0a.38.38,0,0,1-.18.51h0a.39.39,0,0,1-.52-.2h0a.29.29,0,0,1,0-.16h0A.4.4,0,0,1,352.68,316.32ZM363.12-11.79a.37.37,0,0,1,.52-.17h0a.37.37,0,0,1,.17.52h0a.37.37,0,0,1-.52.17h0a.36.36,0,0,1-.21-.34h0A.34.34,0,0,1,363.12-11.79ZM363.84,311a.39.39,0,0,1,.53.17h0a.39.39,0,0,1-.16.53h0a.41.41,0,0,1-.53-.17h0a.46.46,0,0,1,0-.19h0A.38.38,0,0,1,363.84,311ZM374-5.74a.39.39,0,0,1,.53-.12h0a.37.37,0,0,1,.12.54h0a.39.39,0,0,1-.53.13h0a.41.41,0,0,1-.18-.35h0A.31.31,0,0,1,374-5.74Zm.65,310.62h0a.38.38,0,0,1,.53.13h0a.41.41,0,0,1-.12.54h0a.4.4,0,0,1-.55-.14h0a.42.42,0,0,1,0-.2h0A.39.39,0,0,1,374.62,304.88ZM384.37,1.06a.4.4,0,0,1,.54-.1h0a.41.41,0,0,1,.1.55h0a.4.4,0,0,1-.55.09h0a.39.39,0,0,1-.16-.32h0A.34.34,0,0,1,384.37,1.06Zm.59,297h0a.42.42,0,0,1,.56.1h0a.4.4,0,0,1-.1.54h0a.39.39,0,0,1-.54-.09h0a.41.41,0,0,1-.07-.22h0A.42.42,0,0,1,385,298.05ZM394.28,8.54a.4.4,0,0,1,.56-.06h0a.38.38,0,0,1,.05.54h0a.39.39,0,0,1-.55.06h0a.38.38,0,0,1-.14-.31h0A.38.38,0,0,1,394.28,8.54Zm.51,282a.39.39,0,0,1,.56.05h0a.38.38,0,0,1-.06.54h0a.38.38,0,0,1-.54,0h0a.36.36,0,0,1-.1-.25h0A.34.34,0,0,1,394.79,290.56Zm8.87-273.9a.41.41,0,0,1,.56,0h0a.38.38,0,0,1,0,.55h0a.38.38,0,0,1-.55,0h0a.37.37,0,0,1-.12-.28h0A.45.45,0,0,1,403.66,16.66Zm.45,265.73h0a.38.38,0,0,1,.55,0h0a.36.36,0,0,1,0,.54h0a.37.37,0,0,1-.54,0h0a.38.38,0,0,1-.11-.27h0A.42.42,0,0,1,404.11,282.39Zm8.37-257a.38.38,0,0,1,.55,0h0a.39.39,0,0,1,0,.55h0a.37.37,0,0,1-.54,0h0a.34.34,0,0,1-.11-.26h0A.34.34,0,0,1,412.48,25.42Zm.38,248.2a.38.38,0,0,1,.54,0h0a.39.39,0,0,1,0,.57h0a.41.41,0,0,1-.56,0h0a.46.46,0,0,1-.12-.28h0A.41.41,0,0,1,412.86,273.62Zm7.81-238.88a.4.4,0,0,1,.56.06h0a.41.41,0,0,1-.06.55h0a.38.38,0,0,1-.55-.07h0a.34.34,0,0,1-.09-.24h0A.37.37,0,0,1,420.67,34.74ZM421,264.26h0a.39.39,0,0,1,.55-.05h0a.39.39,0,0,1,.06.55h0a.39.39,0,0,1-.54.06h0a.37.37,0,0,1-.16-.31h0A.38.38,0,0,1,421,264.26Zm7.22-219.67a.4.4,0,0,1,.55.11h0a.39.39,0,0,1-.1.53h0a.39.39,0,0,1-.54-.09h0a.37.37,0,0,1-.06-.22h0A.39.39,0,0,1,428.21,44.59Zm.25,209.78h0a.38.38,0,0,1,.53-.1h0a.4.4,0,0,1,.09.55h0a.4.4,0,0,1-.56.09h0a.42.42,0,0,1-.15-.31h0A.38.38,0,0,1,428.46,254.37Zm6.61-199.43a.38.38,0,0,1,.53.14h0a.38.38,0,0,1-.13.53h0a.39.39,0,0,1-.53-.13h0a.39.39,0,0,1-.06-.2h0A.38.38,0,0,1,435.07,54.94ZM435.26,244a.36.36,0,0,1,.53-.12h0a.4.4,0,0,1,.14.53h0a.39.39,0,0,1-.55.12h0a.4.4,0,0,1-.19-.33h0A.4.4,0,0,1,435.26,244Zm5.93-178.28a.41.41,0,0,1,.53.18h0a.4.4,0,0,1-.17.53h0a.42.42,0,0,1-.53-.18h0a1.13,1.13,0,0,1,0-.18h0A.39.39,0,0,1,441.19,65.72Zm.13,167.46a.41.41,0,0,1,.53-.17h0a.41.41,0,0,1,.17.53h0a.38.38,0,0,1-.51.18h0a.41.41,0,0,1-.22-.35h0A.49.49,0,0,1,441.32,233.18ZM446.57,76.9a.43.43,0,0,1,.52.2h0a.42.42,0,0,1-.21.52h0a.37.37,0,0,1-.51-.21h0a.33.33,0,0,1,0-.15h0A.41.41,0,0,1,446.57,76.9ZM446.63,222a.4.4,0,0,1,.52-.2h0a.41.41,0,0,1,.2.51h0a.37.37,0,0,1-.51.2h0a.37.37,0,0,1-.24-.36h0A.29.29,0,0,1,446.63,222Zm4.54-133.56a.39.39,0,0,1,.5.23h0a.39.39,0,0,1-.24.5h0a.37.37,0,0,1-.49-.23h0a.46.46,0,0,1,0-.13h0A.4.4,0,0,1,451.17,88.42Zm0,122h0a.42.42,0,0,1,.52-.24h0a.43.43,0,0,1,.23.5h0a.38.38,0,0,1-.5.24h0a.36.36,0,0,1-.26-.36h0A.66.66,0,0,1,451.15,210.43ZM455,100.23a.39.39,0,0,1,.48.28h0a.37.37,0,0,1-.26.47h0a.4.4,0,0,1-.49-.26h0s0-.07,0-.1h0A.41.41,0,0,1,455,100.23Zm-.08,98.38h0a.39.39,0,0,1,.48-.26h0a.38.38,0,0,1,.27.48h0a.38.38,0,0,1-.47.27h0a.39.39,0,0,1-.3-.38h0S454.88,198.65,454.88,198.61Zm3.05-86.31a.38.38,0,0,1,.47.29h0a.37.37,0,0,1-.29.45h0a.37.37,0,0,1-.47-.29h0v-.08h0A.38.38,0,0,1,457.93,112.3Zm-.15,74.28a.39.39,0,0,1,.47-.31h0a.39.39,0,0,1,.29.47h0a.38.38,0,0,1-.45.29h0a.37.37,0,0,1-.31-.37h0Zm2.3-62.06a.38.38,0,0,1,.44.32h0a.4.4,0,0,1-.33.46h0a.41.41,0,0,1-.43-.35h0a0,0,0,0,1,0,0h0A.4.4,0,0,1,460.08,124.52Zm-.23,49.84a.38.38,0,0,1,.44-.33h0a.36.36,0,0,1,.32.44h0a.38.38,0,0,1-.43.33h0a.4.4,0,0,1-.34-.39h0S459.85,174.38,459.85,174.36Zm1.54-37.5a.39.39,0,0,1,.41.36h0a.39.39,0,0,1-.36.42h0a.38.38,0,0,1-.4-.36h0v0h0A.39.39,0,0,1,461.39,136.86ZM461.07,162a.39.39,0,0,1,.42-.36h0a.4.4,0,0,1,.36.43h0a.37.37,0,0,1-.41.35h0a.39.39,0,0,1-.37-.39h0Zm.79-12.76a.38.38,0,0,1,.39.39h0a.38.38,0,0,1-.39.39h0a.38.38,0,0,1-.39-.39h0A.38.38,0,0,1,461.86,149.27Z" transform="translate(59.71 189.71)"/></g></g><g class="cls-4"><g class="cls-7"><path class="cls-8" d="M5.07,299.91a11.64,11.64,0,0,1-3.44-.53,11.41,11.41,0,0,1-6.79-5.78,319.47,319.47,0,0,1-.11-287A11.34,11.34,0,0,1,1.51.84a11.3,11.3,0,0,1,8.82.83,11.31,11.31,0,0,1,4.79,15.11,298.26,298.26,0,0,0-13.95,234,292.59,292.59,0,0,0,14.06,32.68,11.31,11.31,0,0,1-4.8,15.12A11.32,11.32,0,0,1,5.07,299.91ZM5,2.48A9.29,9.29,0,0,0-3.34,7.6,320.51,320.51,0,0,0-18.23,42.26a317.25,317.25,0,0,0,15,250.36,9.24,9.24,0,0,0,12.63,4l.51.95-.51-.95a9.25,9.25,0,0,0,3.88-12.23A300.4,300.4,0,0,1-.87,48.52,300,300,0,0,1,13.19,15.8,9.16,9.16,0,0,0,9.3,3.58,9.18,9.18,0,0,0,5,2.48Z" transform="translate(59.71 189.71)"/><path class="cls-8" d="M556.62,296.49a11.4,11.4,0,0,1-10.23-16.34c3.91-8,7.52-16.33,10.71-24.75a298.46,298.46,0,0,0,0-210.8c-3.17-8.35-6.74-16.61-10.61-24.54A11.39,11.39,0,0,1,567,10.18c4.16,8.55,8,17.41,11.39,26.34a321.32,321.32,0,0,1,0,227c-3.43,9-7.29,18-11.48,26.54a11.33,11.33,0,0,1-6.78,5.89A11.54,11.54,0,0,1,556.62,296.49ZM556.73,5.9a9.23,9.23,0,0,0-8.29,13.21c3.9,8,7.49,16.31,10.69,24.72a300.65,300.65,0,0,1,0,212.34c-3.22,8.48-6.85,16.87-10.79,24.93a9.22,9.22,0,0,0,16.62,8c4.16-8.52,8-17.39,11.41-26.36a319.2,319.2,0,0,0,0-225.44c-3.37-8.87-7.18-17.67-11.31-26.16a9.29,9.29,0,0,0-8.34-5.23Z" transform="translate(59.71 189.71)"/><path class="cls-8" d="M280,489.71A340.26,340.26,0,0,1-39.65,265.47a342.34,342.34,0,0,1,0-230.93A340.29,340.29,0,0,1,280-189.71,340.28,340.28,0,0,1,597.67,29.2a342,342,0,0,1,0,241.62A340.23,340.23,0,0,1,280,489.71Zm0-677.26A338.11,338.11,0,0,0-37.61,35.28a340,340,0,0,0,0,229.45A338.15,338.15,0,0,0,280,487.55a338.12,338.12,0,0,0,315.63-217.5,339.69,339.69,0,0,0,0-240.07A338.12,338.12,0,0,0,280-187.55Z" transform="translate(59.71 189.71)"/><path class="cls-8" d="M280,427.89A277.36,277.36,0,0,1,2.11,150,278,278,0,0,1,539.87,51.15h0a280.13,280.13,0,0,1,0,197.7A278.44,278.44,0,0,1,280,427.89Zm0-553.61A275.18,275.18,0,0,0,4.28,150,275.72,275.72,0,1,0,537.84,51.92h0A276.31,276.31,0,0,0,280-125.72Z" transform="translate(59.71 189.71)"/><path class="cls-8" d="M280,407.28A257,257,0,0,1,22.72,150,256.75,256.75,0,0,1,130.57-59.46a257.42,257.42,0,0,1,297-1.33,257.24,257.24,0,0,1,0,421.58A255.74,255.74,0,0,1,280,407.28Zm0-512.39c-107.22,0-203.69,67.73-240,168.55a256.29,256.29,0,0,0,0,173.12C76.31,337.38,172.78,405.11,280,405.11c105.16,0,201-66,238.45-164.23a256.2,256.2,0,0,0,0-181.76C481-39.11,385.16-105.11,280-105.11Z" transform="translate(59.71 189.71)"/><path class="cls-8" d="M280.9,386.76a236.83,236.83,0,0,1-219-146.6,11.41,11.41,0,0,1,21.1-8.7,214,214,0,0,0,394,4,11.4,11.4,0,0,1,14.4-6.12h0a11.52,11.52,0,0,1,6.57,6.26,11.22,11.22,0,0,1,0,9A236.86,236.86,0,0,1,280.9,386.76ZM72.51,226.58a9.24,9.24,0,0,0-3.24.58,9.26,9.26,0,0,0-5.35,12.17A234.68,234.68,0,0,0,496,243.76a9.08,9.08,0,0,0,0-7.26,9.17,9.17,0,0,0-5.31-5.07l.36-1-.38,1A9.24,9.24,0,0,0,479,236.38,216.38,216.38,0,0,1,280.9,366.15a214.67,214.67,0,0,1-121.55-37.5A216.49,216.49,0,0,1,81,232.29,9.19,9.19,0,0,0,72.51,226.58Zm0-151a11.46,11.46,0,0,1-4-.72,11.41,11.41,0,0,1-6.6-15A236.85,236.85,0,0,1,498,55.37a11.22,11.22,0,0,1,0,9,11.43,11.43,0,0,1-21,.14A214,214,0,0,0,83,68.54,11.33,11.33,0,0,1,72.52,75.59ZM280.9-84.59a233.93,233.93,0,0,0-217,145.26,9.26,9.26,0,0,0,5.35,12.17A9.22,9.22,0,0,0,81,67.71a216.49,216.49,0,0,1,78.33-96.36A214.67,214.67,0,0,1,280.9-66.15,216.38,216.38,0,0,1,479,63.62a9.27,9.27,0,0,0,17-.12,9.08,9.08,0,0,0,0-7.26A234.69,234.69,0,0,0,280.9-84.59Z" transform="translate(59.71 189.71)"/></g></g></g></g></svg>