<svg id="Isolation_Mode" data-name="Isolation Mode" xmlns="http://www.w3.org/2000/svg" viewBox="0 0 70.86 60.29"><defs><style>.cls-1{fill:#316fea;}</style></defs><title>4</title><g id="Isolation_Mode-2" data-name="Isolation Mode"><path class="cls-1" d="M988.72,508.05H919.15a.65.65,0,0,0-.65.65v49.78c.44,0,.87,0,1.3,0V509.35h68.27v38.83a.65.65,0,1,0,1.3,0V508.7A.65.65,0,0,0,988.72,508.05Z" transform="translate(-918.5 -508.05)"/><path class="cls-1" d="M988.72,508.05H919.15a.65.65,0,0,0-.65.65v49.78c.44,0,.87,0,1.3,0V509.35h68.27v38.83a.65.65,0,1,0,1.3,0V508.7A.65.65,0,0,0,988.72,508.05Z" transform="translate(-918.5 -508.05)"/><path class="cls-1" d="M919.8,558.47V521.56a.65.65,0,1,0-1.3,0v36.92C918.94,558.46,919.37,558.46,919.8,558.47Z" transform="translate(-918.5 -508.05)"/><path class="cls-1" d="M988.07,559.31c.43.07.87.12,1.3.16V508.7a.65.65,0,0,0-.65-.65H943.39a.65.65,0,1,0,0,1.3h44.68Z" transform="translate(-918.5 -508.05)"/><path class="cls-1" d="M988.72,521.11H919.15a.65.65,0,1,1,0-1.3h69.57a.65.65,0,1,1,0,1.3Z" transform="translate(-918.5 -508.05)"/><path class="cls-1" d="M926.18,517.09a2.64,2.64,0,1,1,2.63-2.64A2.64,2.64,0,0,1,926.18,517.09Zm0-4a1.33,1.33,0,1,0,1.33,1.33A1.34,1.34,0,0,0,926.18,513.12Z" transform="translate(-918.5 -508.05)"/><path class="cls-1" d="M934.76,517.09a2.64,2.64,0,1,1,2.63-2.64A2.64,2.64,0,0,1,934.76,517.09Zm0-4a1.33,1.33,0,1,0,1.33,1.33A1.34,1.34,0,0,0,934.76,513.12Z" transform="translate(-918.5 -508.05)"/><path class="cls-1" d="M918.5,543v24h1.3V542.74A3.69,3.69,0,0,1,918.5,543Z" transform="translate(-918.5 -508.05)"/><path class="cls-1" d="M988.07,545.09v11.55a.65.65,0,0,0,1.3,0V545.36A2.82,2.82,0,0,1,988.07,545.09Z" transform="translate(-918.5 -508.05)"/><path class="cls-1" d="M988.07,545.09v11.55a.65.65,0,0,0,1.3,0V545.36A2.82,2.82,0,0,1,988.07,545.09Z" transform="translate(-918.5 -508.05)"/><path class="cls-1" d="M918.5,543v24h1.3V542.74A3.69,3.69,0,0,1,918.5,543Z" transform="translate(-918.5 -508.05)"/><path class="cls-1" d="M918.5,543v24h1.3V542.74A3.69,3.69,0,0,1,918.5,543Z" transform="translate(-918.5 -508.05)"/><path class="cls-1" d="M988.07,545.09v22.68c.43.06.87.11,1.3.15V545.36A2.82,2.82,0,0,1,988.07,545.09Z" transform="translate(-918.5 -508.05)"/><path class="cls-1" d="M964.48,567H919.8v-3c-.32,0-.65.08-1,.1a1.71,1.71,0,0,1-.32,0v3.55a.65.65,0,0,0,.65.65h45.33a.65.65,0,0,0,0-1.3Z" transform="translate(-918.5 -508.05)"/><path class="cls-1" d="M964.48,567H919.8v-3c-.32,0-.65.08-1,.1a1.71,1.71,0,0,1-.32,0v3.55a.65.65,0,0,0,.65.65h45.33a.65.65,0,0,0,0-1.3Z" transform="translate(-918.5 -508.05)"/><path class="cls-1" d="M988.07,565v2H919.8v-3c-.32,0-.65.08-1,.1a1.71,1.71,0,0,1-.32,0v3.55a.65.65,0,0,0,.65.65h69.57a.65.65,0,0,0,.65-.65v-2.46A2.67,2.67,0,0,1,988.07,565Z" transform="translate(-918.5 -508.05)"/><path class="cls-1" d="M980.28,554.92H959.87a.63.63,0,0,1-.63-.62V533.47a.63.63,0,0,1,.63-.63h20.41a.63.63,0,0,1,.63.63V554.3A.63.63,0,0,1,980.28,554.92Zm-19.78-1.25h19.16V534.1H960.5Z" transform="translate(-918.5 -508.05)"/><path class="cls-1" d="M970.1,550.14A6.57,6.57,0,0,1,969,550a6.25,6.25,0,0,1-5.1-7.21,6.27,6.27,0,0,1,7.22-5.11.62.62,0,1,1-.21,1.23,5,5,0,0,0-1.7,9.86A4.94,4.94,0,0,0,973,548a5,5,0,0,0,2-3.25.61.61,0,0,1,.72-.51.62.62,0,0,1,.51.72,6.25,6.25,0,0,1-6.14,5.21Z" transform="translate(-918.5 -508.05)"/><path class="cls-1" d="M970.08,547.27a.6.6,0,0,1-.45-.19l-2.09-2.2a.63.63,0,0,1,0-.89.64.64,0,0,1,.89,0l1.68,1.77,6.21-5.15a.63.63,0,0,1,.89.08.62.62,0,0,1-.09.88l-6.66,5.53A.67.67,0,0,1,970.08,547.27Z" transform="translate(-918.5 -508.05)"/><path class="cls-1" d="M932.61,537.65h-5.53a.61.61,0,0,1-.61-.61V531.5a.6.6,0,0,1,.61-.6h5.53a.6.6,0,0,1,.61.6V537A.61.61,0,0,1,932.61,537.65Zm-4.93-1.21H932v-4.33h-4.33Z" transform="translate(-918.5 -508.05)"/><path class="cls-1" d="M941.67,537.65h-5.53a.61.61,0,0,1-.61-.61V531.5a.6.6,0,0,1,.61-.6h5.53a.6.6,0,0,1,.61.6V537A.61.61,0,0,1,941.67,537.65Zm-4.93-1.21h4.33v-4.33h-4.33Z" transform="translate(-918.5 -508.05)"/><path class="cls-1" d="M950.73,537.65h-5.54a.6.6,0,0,1-.6-.61V531.5a.6.6,0,0,1,.6-.6h5.54a.61.61,0,0,1,.61.6V537A.61.61,0,0,1,950.73,537.65Zm-4.93-1.21h4.32v-4.33H945.8Z" transform="translate(-918.5 -508.05)"/><path class="cls-1" d="M932.61,547h-5.53a.61.61,0,0,1-.61-.61v-5.54a.6.6,0,0,1,.61-.6h5.53a.6.6,0,0,1,.61.6v5.54A.61.61,0,0,1,932.61,547Zm-4.93-1.21H932v-4.33h-4.33Z" transform="translate(-918.5 -508.05)"/><path class="cls-1" d="M941.67,547h-5.53a.61.61,0,0,1-.61-.61v-5.54a.6.6,0,0,1,.61-.6h5.53a.6.6,0,0,1,.61.6v5.54A.61.61,0,0,1,941.67,547Zm-4.93-1.21h4.33v-4.33h-4.33Z" transform="translate(-918.5 -508.05)"/><path class="cls-1" d="M950.73,547h-5.54a.6.6,0,0,1-.6-.61v-5.54a.6.6,0,0,1,.6-.6h5.54a.61.61,0,0,1,.61.6v5.54A.61.61,0,0,1,950.73,547Zm-4.93-1.21h4.32v-4.33H945.8Z" transform="translate(-918.5 -508.05)"/><path class="cls-1" d="M932.61,556.37h-5.53a.61.61,0,0,1-.61-.61v-5.54a.6.6,0,0,1,.61-.6h5.53a.6.6,0,0,1,.61.6v5.54A.61.61,0,0,1,932.61,556.37Zm-4.93-1.21H932v-4.33h-4.33Z" transform="translate(-918.5 -508.05)"/><path class="cls-1" d="M941.67,556.37h-5.53a.61.61,0,0,1-.61-.61v-5.54a.6.6,0,0,1,.61-.6h5.53a.6.6,0,0,1,.61.6v5.54A.61.61,0,0,1,941.67,556.37Zm-4.93-1.21h4.33v-4.33h-4.33Z" transform="translate(-918.5 -508.05)"/><path class="cls-1" d="M950.73,556.37h-5.54a.6.6,0,0,1-.6-.61v-5.54a.6.6,0,0,1,.6-.6h5.54a.61.61,0,0,1,.61.6v5.54A.61.61,0,0,1,950.73,556.37Zm-4.93-1.21h4.32v-4.33H945.8Z" transform="translate(-918.5 -508.05)"/></g></svg>