<svg id="Isolation_Mode" data-name="Isolation Mode" xmlns="http://www.w3.org/2000/svg" viewBox="0 0 70.86 60.29"><defs><style>.cls-1,.cls-2{fill:#316fea;}.cls-2{stroke:#000;stroke-miterlimit:10;stroke-width:0.5px;}</style></defs><title>2</title><path class="cls-1" d="M988.72,508.05H919.15a.65.65,0,0,0-.65.65v49.78c.44,0,.87,0,1.3,0V509.35h68.27v38.83a.65.65,0,1,0,1.3,0V508.7A.65.65,0,0,0,988.72,508.05Z" transform="translate(-918.5 -508.05)"/><path class="cls-1" d="M988.72,508.05H919.15a.65.65,0,0,0-.65.65v49.78c.44,0,.87,0,1.3,0V509.35h68.27v38.83a.65.65,0,1,0,1.3,0V508.7A.65.65,0,0,0,988.72,508.05Z" transform="translate(-918.5 -508.05)"/><path class="cls-1" d="M919.8,558.47V521.56a.65.65,0,1,0-1.3,0v36.92C918.94,558.46,919.37,558.46,919.8,558.47Z" transform="translate(-918.5 -508.05)"/><path class="cls-1" d="M988.07,559.31c.43.07.87.12,1.3.16V508.7a.65.65,0,0,0-.65-.65H943.39a.65.65,0,1,0,0,1.3h44.68Z" transform="translate(-918.5 -508.05)"/><path class="cls-1" d="M988.72,521.11H919.15a.65.65,0,1,1,0-1.3h69.57a.65.65,0,1,1,0,1.3Z" transform="translate(-918.5 -508.05)"/><path class="cls-1" d="M926.18,517.09a2.64,2.64,0,1,1,2.63-2.64A2.64,2.64,0,0,1,926.18,517.09Zm0-4a1.33,1.33,0,1,0,1.33,1.33A1.34,1.34,0,0,0,926.18,513.12Z" transform="translate(-918.5 -508.05)"/><path class="cls-1" d="M934.76,517.09a2.64,2.64,0,1,1,2.63-2.64A2.64,2.64,0,0,1,934.76,517.09Zm0-4a1.33,1.33,0,1,0,1.33,1.33A1.34,1.34,0,0,0,934.76,513.12Z" transform="translate(-918.5 -508.05)"/><path class="cls-2" d="M945.65,554h-18a1.57,1.57,0,0,1-1.35-1.72V534.71a1.57,1.57,0,0,1,1.35-1.71h18a1.57,1.57,0,0,1,1.35,1.71v17.57A1.57,1.57,0,0,1,945.65,554Zm-18-20a.64.64,0,0,0-.55.7v17.57a.65.65,0,0,0,.55.71h18a.65.65,0,0,0,.55-.71V534.71a.64.64,0,0,0-.55-.7Z" transform="translate(-918.5 -508.05)"/><path class="cls-1" d="M918.5,543v24h1.3V542.74A3.69,3.69,0,0,1,918.5,543Z" transform="translate(-918.5 -508.05)"/><path class="cls-1" d="M988.07,545.09v11.55a.65.65,0,0,0,1.3,0V545.36A2.82,2.82,0,0,1,988.07,545.09Z" transform="translate(-918.5 -508.05)"/><path class="cls-1" d="M988.07,545.09v11.55a.65.65,0,0,0,1.3,0V545.36A2.82,2.82,0,0,1,988.07,545.09Z" transform="translate(-918.5 -508.05)"/><path class="cls-1" d="M918.5,543v24h1.3V542.74A3.69,3.69,0,0,1,918.5,543Z" transform="translate(-918.5 -508.05)"/><path class="cls-1" d="M918.5,543v24h1.3V542.74A3.69,3.69,0,0,1,918.5,543Z" transform="translate(-918.5 -508.05)"/><path class="cls-1" d="M988.07,545.09v22.68c.43.06.87.11,1.3.15V545.36A2.82,2.82,0,0,1,988.07,545.09Z" transform="translate(-918.5 -508.05)"/><path class="cls-1" d="M964.48,567H919.8v-3c-.32,0-.65.08-1,.1a1.71,1.71,0,0,1-.32,0v3.55a.65.65,0,0,0,.65.65h45.33a.65.65,0,0,0,0-1.3Z" transform="translate(-918.5 -508.05)"/><path class="cls-1" d="M964.48,567H919.8v-3c-.32,0-.65.08-1,.1a1.71,1.71,0,0,1-.32,0v3.55a.65.65,0,0,0,.65.65h45.33a.65.65,0,0,0,0-1.3Z" transform="translate(-918.5 -508.05)"/><path class="cls-1" d="M988.07,565v2H919.8v-3c-.32,0-.65.08-1,.1a1.71,1.71,0,0,1-.32,0v3.55a.65.65,0,0,0,.65.65h69.57a.65.65,0,0,0,.65-.65v-2.46A2.67,2.67,0,0,1,988.07,565Z" transform="translate(-918.5 -508.05)"/><path class="cls-1" d="M979.42,535.9H961.7a.58.58,0,1,1,0-1.16h17.72a.58.58,0,1,1,0,1.16Zm-21.64,0h-3.09a.58.58,0,0,1,0-1.16h3.09a.58.58,0,1,1,0,1.16Z" transform="translate(-918.5 -508.05)"/><path class="cls-1" d="M959.74,537.86a2.54,2.54,0,1,1,2.54-2.54A2.54,2.54,0,0,1,959.74,537.86Zm0-3.92a1.39,1.39,0,1,0,1.38,1.38A1.38,1.38,0,0,0,959.74,533.94Z" transform="translate(-918.5 -508.05)"/><path class="cls-1" d="M979.42,543.84H969a.58.58,0,1,1,0-1.15h10.4a.58.58,0,1,1,0,1.15Zm-14.32,0H954.69a.58.58,0,0,1,0-1.15H965.1a.58.58,0,0,1,0,1.15Z" transform="translate(-918.5 -508.05)"/><path class="cls-1" d="M967.06,545.81a2.54,2.54,0,1,1,2.54-2.55A2.55,2.55,0,0,1,967.06,545.81Zm0-3.93a1.39,1.39,0,1,0,1.38,1.38A1.38,1.38,0,0,0,967.06,541.88Z" transform="translate(-918.5 -508.05)"/><path class="cls-1" d="M979.42,551.79H961.7a.57.57,0,0,1-.58-.57.58.58,0,0,1,.58-.58h17.72a.58.58,0,0,1,.58.58A.57.57,0,0,1,979.42,551.79Zm-21.64,0h-3.09a.56.56,0,0,1-.57-.57.57.57,0,0,1,.57-.58h3.09a.58.58,0,0,1,.58.58A.57.57,0,0,1,957.78,551.79Z" transform="translate(-918.5 -508.05)"/><path class="cls-1" d="M959.74,553.75a2.54,2.54,0,1,1,2.54-2.53A2.54,2.54,0,0,1,959.74,553.75Zm0-3.92a1.39,1.39,0,1,0,1.38,1.39A1.38,1.38,0,0,0,959.74,549.83Z" transform="translate(-918.5 -508.05)"/></svg>