<svg id="Isolation_Mode" data-name="Isolation Mode" xmlns="http://www.w3.org/2000/svg" viewBox="0 0 1465.24 997.23"><defs><style>.cls-1{fill:#ebebeb;}.cls-2{fill:#e0e0e0;}.cls-3{fill:#f5f5f5;}.cls-4{fill:#d4edff;}.cls-5{fill:#f7565a;}.cls-6{fill:#15384e;}.cls-7{fill:#387bff;}.cls-8{fill:#abd5ff;}.cls-9{fill:#f9fbfa;}.cls-10{fill:#fff;}.cls-11{fill:#b6d7ff;}.cls-12{fill:#0e1018;}.cls-13{fill:#c7c8c0;}.cls-14{fill:none;}</style></defs><title>updating</title><path class="cls-1" d="M1036.79,290,1023,265.9l-21.66,3.18-17.88-22.47,9.22-22.37-24.15-16-18,18.17-23.73-4.16-9.63-27.92-28.85,3.05-1.63,24.42-21.5,10.92-22.76-16.11L819.28,233.4l12,25.85L817.54,280l-25-1.33-6.52,30.78,23.75,9.14,2,25.87-24.61,14.13L799,385.24l25.48-4,16.88,19.48-8.83,24.29,23.35,16.48,18.21-19.71,25.28,6.84,7.86,26.08,28.09-1.89,3.62-23.43L963,415.59l19.7,15.73,24.92-18.58-12.6-21.94,12.28-22,25.26,1.86,7.75-28.65-21.69-11.74-2.88-26.1Zm-97.85,84.29a56.78,56.78,0,1,1,21-77.51A56.77,56.77,0,0,1,938.94,374.27Z" transform="translate(-562.47 -186.79)"/><path class="cls-1" d="M935.82,308.53c-.16.11-1.35-2.31-4.66-5.7a29.9,29.9,0,0,0-17.57-8.59,29.23,29.23,0,0,0-13.49,1.46,29.62,29.62,0,0,0-12.73,8.84,29.35,29.35,0,0,0-6.7,15.67,29.23,29.23,0,0,0,17.26,30.06,29.38,29.38,0,0,0,16.91,2.11,29.7,29.7,0,0,0,23.55-36.95c-1.26-4.57-2.74-6.82-2.57-6.9a23.41,23.41,0,0,1,3.1,6.75,29.91,29.91,0,0,1-1,20,30.3,30.3,0,0,1-8.23,11.43,30.69,30.69,0,0,1-14.59,6.92,30.59,30.59,0,0,1-17.7-2.12,30.5,30.5,0,0,1-18.09-31.5,30.76,30.76,0,0,1,7.09-16.36,30.58,30.58,0,0,1,13.34-9.1,30.27,30.27,0,0,1,31.85,7.86A23.46,23.46,0,0,1,935.82,308.53Z" transform="translate(-562.47 -186.79)"/><path class="cls-1" d="M962.83,245.3c.33.22-7.37,12.5-17.2,27.43s-18.06,26.86-18.39,26.65,7.37-12.5,17.2-27.43S962.5,245.08,962.83,245.3Z" transform="translate(-562.47 -186.79)"/><path class="cls-1" d="M990.72,344.66c-.07.19-3-.71-7.65-2.13s-11.17-3.3-18.42-5.07-13.87-3.09-18.68-4-7.79-1.43-7.77-1.63,3.06,0,7.93.63a189.21,189.21,0,0,1,37.25,9.09C988,343.24,990.78,344.49,990.72,344.66Z" transform="translate(-562.47 -186.79)"/><path class="cls-1" d="M922.47,351.23c.18-.06,1.14,2.47,2.45,6.64s2.93,10,4.44,16.46,2.61,12.43,3.27,16.74.92,7,.73,7-.8-2.6-1.72-6.85-2.17-10.14-3.67-16.6-3-12.3-4-16.52S922.28,351.29,922.47,351.23Z" transform="translate(-562.47 -186.79)"/><path class="cls-1" d="M891.8,347.75c.34.21-4.7,9.19-11.26,20.06s-12.15,19.52-12.49,19.32,4.71-9.18,11.27-20.06S891.47,347.55,891.8,347.75Z" transform="translate(-562.47 -186.79)"/><path class="cls-1" d="M887.45,251c.38-.12,3.62,9.33,7.25,21.1s6.26,21.4,5.88,21.52-3.62-9.33-7.24-21.1S887.08,251.08,887.45,251Z" transform="translate(-562.47 -186.79)"/><path class="cls-1" d="M881,317.8c0,.39-8-.05-17.73-1s-17.64-2-17.61-2.4,8,.05,17.74,1S881.06,317.41,881,317.8Z" transform="translate(-562.47 -186.79)"/><path class="cls-1" d="M930.09,311.82a23.41,23.41,0,1,1-32-8.65A23.42,23.42,0,0,1,930.09,311.82Z" transform="translate(-562.47 -186.79)"/><path class="cls-2" d="M921.1,323.66c-.23.37-4.67-3.72-11.62-4.45s-12.15,2.27-12.29,1.86c-.1-.15,1-1.11,3.26-2A19.16,19.16,0,0,1,918.34,321C920.31,322.35,921.22,323.53,921.1,323.66Z" transform="translate(-562.47 -186.79)"/><path class="cls-2" d="M911.71,309.94c.38.22-2.45,4.66-3.53,10.89s0,11.36-.48,11.44-2.14-5.12-.92-11.69S911.47,309.68,911.71,309.94Z" transform="translate(-562.47 -186.79)"/><path class="cls-2" d="M1343.47,777.62l-17.89-31.16-28,4.12-23.14-29.07,11.93-29-31.24-20.73-23.33,23.52L1201.07,690l-12.45-36.12-37.33,3.94-2.12,31.6-27.81,14.13-29.44-20.85-29.87,21.76,15.52,33.44-17.77,26.77-32.29-1.71-8.44,39.83,30.73,11.82,2.64,33.47-31.85,18.29,15.23,34.53,33-5.12L1090.63,921l-11.43,31.42,30.2,21.33L1133,948.2l32.7,8.85,10.17,33.75,36.35-2.46,4.69-30.31L1248,940.14l25.49,20.35,32.24-24-16.3-28.39,15.88-28.45L1338,882l10-37.06L1320,829.76,1316.27,796Zm-126.59,109A73.46,73.46,0,1,1,1244,786.39,73.45,73.45,0,0,1,1216.88,886.67Z" transform="translate(-562.47 -186.79)"/><path class="cls-2" d="M1212.84,801.62c-.18.12-1.7-3-6-7.43A38.65,38.65,0,0,0,1184.09,783,38.16,38.16,0,0,0,1150,796.33a38.3,38.3,0,0,0-8.73,20.37,38,38,0,0,0,22.45,39.11,38.29,38.29,0,0,0,22,2.73,38.52,38.52,0,0,0,30.51-48c-1.65-5.91-3.6-8.81-3.4-8.9,0,0,.14.16.35.52l.9,1.62a17.24,17.24,0,0,1,1.29,2.73,26.44,26.44,0,0,1,1.39,3.88,36.5,36.5,0,0,1,1.58,11.19,39.23,39.23,0,0,1-13.6,29.37,39.52,39.52,0,0,1-18.8,8.91,39.59,39.59,0,0,1-22.78-2.75,39.29,39.29,0,0,1-23.28-40.54,39.49,39.49,0,0,1,9.11-21.07,39.56,39.56,0,0,1,17.17-11.74,39.24,39.24,0,0,1,32.22,3.06,36.79,36.79,0,0,1,8.87,7,27.07,27.07,0,0,1,2.65,3.16,18.41,18.41,0,0,1,1.71,2.49c.37.64.68,1.17.94,1.6A2.2,2.2,0,0,1,1212.84,801.62Z" transform="translate(-562.47 -186.79)"/><path class="cls-2" d="M1247.79,719.81c.32.22-9.72,16.06-22.43,35.37s-23.3,34.81-23.63,34.6,9.72-16.06,22.44-35.38S1247.46,719.59,1247.79,719.81Z" transform="translate(-562.47 -186.79)"/><path class="cls-2" d="M1283.87,848.36c-.08.2-3.81-1-9.86-2.89s-14.44-4.33-23.82-6.62-18-4-24.19-5.1-10.11-1.75-10.08-2a10.29,10.29,0,0,1,2.77.09c1.77.14,4.32.44,7.47.88,6.29.87,14.94,2.41,24.37,4.7s17.81,4.93,23.8,7c3,1.06,5.4,2,7,2.66A10.72,10.72,0,0,1,1283.87,848.36Z" transform="translate(-562.47 -186.79)"/><path class="cls-2" d="M1195.56,856.86c.18-.05,1.38,3.23,3,8.63s3.73,12.92,5.68,21.31,3.4,16.07,4.3,21.64,1.27,9,1.08,9.08-.93-3.38-2.07-8.89-2.76-13.13-4.7-21.5-3.86-15.91-5.26-21.37S1195.37,856.92,1195.56,856.86Z" transform="translate(-562.47 -186.79)"/><path class="cls-2" d="M1155.89,852.37c.33.2-6.27,11.77-14.76,25.84s-15.63,25.31-16,25.11,6.27-11.78,14.75-25.85S1155.55,852.16,1155.89,852.37Z" transform="translate(-562.47 -186.79)"/><path class="cls-2" d="M1150.26,727.14c.37-.11,4.48,12.14,9.17,27.36s8.19,27.67,7.82,27.79-4.49-12.14-9.18-27.37S1149.88,727.26,1150.26,727.14Z" transform="translate(-562.47 -186.79)"/><path class="cls-2" d="M1141.94,813.61c0,.39-10.3-.27-22.93-1.48s-22.83-2.5-22.8-2.89,10.31.27,22.94,1.48S1142,813.22,1141.94,813.61Z" transform="translate(-562.47 -186.79)"/><circle class="cls-2" cx="1179.15" cy="820.96" r="30.3" transform="translate(-386.92 1662.36) rotate(-80.54)"/><path class="cls-1" d="M1193.79,821.19c-.15.17-1.58-1-4.17-2.47a28.14,28.14,0,0,0-22.17-2.4c-2.84.85-4.49,1.72-4.6,1.52s1.41-1.34,4.27-2.47a25.18,25.18,0,0,1,23,2.49C1192.7,819.58,1193.9,821.07,1193.79,821.19Z" transform="translate(-562.47 -186.79)"/><path class="cls-1" d="M1181.65,803.44c.39.22-3.38,5.94-4.78,14s0,14.78-.42,14.85c-.3.16-2.55-6.64-1-15.1S1181.42,803.18,1181.65,803.44Z" transform="translate(-562.47 -186.79)"/><path class="cls-3" d="M1353.94,250.67l-9-15.69-14.11,2.08-11.64-14.64,6-14.56-15.73-10.44-11.74,11.84-15.46-2.71L1276,188.37l-18.79,2-1.07,15.9-14,7.12-14.82-10.5-15,10.95,7.81,16.84-8.94,13.47-16.26-.86-4.24,20,15.46,5.95,1.33,16.85-16,9.2,7.66,17.38,16.6-2.57,11,12.69-5.75,15.81,15.2,10.74L1248,336.53l16.46,4.45,5.12,17,18.29-1.23,2.36-15.26,15.68-9,12.84,10.25,16.22-12.1-8.2-14.29,8-14.33,16.45,1.22,5-18.66-14.12-7.65-1.88-17Zm-63.72,54.89a37,37,0,1,1,13.66-50.48A37,37,0,0,1,1290.22,305.56Z" transform="translate(-562.47 -186.79)"/><path class="cls-3" d="M1288.19,262.75a33.81,33.81,0,0,0-3-3.74,19.49,19.49,0,0,0-11.46-5.64,19.2,19.2,0,0,0-17.16,6.72,18.22,18.22,0,0,0-2.91,4.69,17.92,17.92,0,0,0-1.48,5.56,19.12,19.12,0,0,0,11.3,19.69,18.07,18.07,0,0,0,5.55,1.52,17.86,17.86,0,0,0,5.52-.15,19.38,19.38,0,0,0,15.36-24.17,32.85,32.85,0,0,0-1.71-4.48s.07.08.17.26.28.49.46.82a9.39,9.39,0,0,1,.65,1.37,13.56,13.56,0,0,1,.7,1.95,18.67,18.67,0,0,1,.79,5.64,19.77,19.77,0,0,1-6.84,14.78,19.81,19.81,0,0,1-9.47,4.48,19.76,19.76,0,0,1-11.46-1.38,19.76,19.76,0,0,1-11.72-20.41,20,20,0,0,1,4.59-10.6,19.89,19.89,0,0,1,8.64-5.91,19.73,19.73,0,0,1,16.22,1.54,18.4,18.4,0,0,1,4.46,3.53,14.32,14.32,0,0,1,1.34,1.58,8.72,8.72,0,0,1,.85,1.26l.48.8A1.27,1.27,0,0,1,1288.19,262.75Z" transform="translate(-562.47 -186.79)"/><path class="cls-3" d="M1305.78,221.57c.16.11-4.89,8.08-11.29,17.81s-11.73,17.52-11.89,17.41,4.89-8.08,11.29-17.81S1305.61,221.46,1305.78,221.57Z" transform="translate(-562.47 -186.79)"/><path class="cls-3" d="M1323.94,286.28a47.52,47.52,0,0,1-5-1.46c-3-.94-7.27-2.18-12-3.33s-9-2-12.18-2.57a42.68,42.68,0,0,1-5.07-1,5.08,5.08,0,0,1,1.39.05c.89.07,2.18.22,3.76.44,3.17.44,7.52,1.22,12.27,2.37s9,2.48,12,3.55c1.51.53,2.72,1,3.54,1.34A4.86,4.86,0,0,1,1323.94,286.28Z" transform="translate(-562.47 -186.79)"/><path class="cls-3" d="M1279.49,290.56a26.84,26.84,0,0,1,1.53,4.34c.83,2.72,1.87,6.5,2.85,10.73s1.72,8.08,2.17,10.89a25.35,25.35,0,0,1,.54,4.57,33.52,33.52,0,0,1-1-4.48c-.58-2.78-1.39-6.61-2.36-10.82s-2-8-2.65-10.75A31.93,31.93,0,0,1,1279.49,290.56Z" transform="translate(-562.47 -186.79)"/><path class="cls-3" d="M1259.52,288.29c.17.1-3.16,5.93-7.43,13s-7.87,12.74-8,12.64,3.16-5.93,7.43-13S1259.35,288.19,1259.52,288.29Z" transform="translate(-562.47 -186.79)"/><path class="cls-3" d="M1256.69,225.26c.19-.06,2.25,6.11,4.62,13.77s4.12,13.93,3.93,14-2.26-6.11-4.62-13.78S1256.5,225.32,1256.69,225.26Z" transform="translate(-562.47 -186.79)"/><path class="cls-3" d="M1252.5,268.78c0,.2-5.19-.13-11.54-.74s-11.49-1.26-11.48-1.45,5.19.13,11.55.74S1252.52,268.59,1252.5,268.78Z" transform="translate(-562.47 -186.79)"/><path class="cls-3" d="M1284.45,264.89a15.25,15.25,0,1,1-20.81-5.63A15.24,15.24,0,0,1,1284.45,264.89Z" transform="translate(-562.47 -186.79)"/><path class="cls-1" d="M1278.6,272.6a20.52,20.52,0,0,1-2.1-1.24,14.42,14.42,0,0,0-5.45-1.76,14.69,14.69,0,0,0-5.71.55,21.67,21.67,0,0,1-2.31.76,5.26,5.26,0,0,1,2.14-1.24,12.71,12.71,0,0,1,11.6,1.26C1278.05,271.79,1278.66,272.54,1278.6,272.6Z" transform="translate(-562.47 -186.79)"/><path class="cls-1" d="M1272.49,263.66c.2.12-1.7,3-2.41,7.08s0,7.44-.21,7.47-1.28-3.34-.49-7.6S1272.37,263.53,1272.49,263.66Z" transform="translate(-562.47 -186.79)"/><path class="cls-3" d="M973.54,636.93l-22.67-39.49-35.5,5.22-29.32-36.84,15.11-36.67-39.59-26.28L832,532.68l-38.92-6.82-15.78-45.78-47.31,5-2.68,40L692.09,543,654.78,516.6l-37.85,27.57,19.67,42.37-22.52,33.94-40.92-2.18-10.69,50.47,38.94,15,3.35,42.42L564.4,749.34l19.29,43.76,41.78-6.49,27.67,31.95-14.47,39.81,38.27,27,29.86-32.31,41.44,11.2,12.89,42.77,46-3.1,6-38.42,39.48-22.67,32.31,25.79,40.85-30.46-20.66-36,20.13-36.07,41.42,3.06,12.71-47L943.81,703l-4.73-42.79ZM813.13,775.12A93.09,93.09,0,1,1,847.5,648,93.08,93.08,0,0,1,813.13,775.12Z" transform="translate(-562.47 -186.79)"/><path class="cls-3" d="M808,667.34c-.23.16-2.16-3.83-7.58-9.41a49,49,0,0,0-28.85-14.21,48.44,48.44,0,0,0-43.19,16.92,48.57,48.57,0,0,0-11.06,25.81A48.15,48.15,0,0,0,745.78,736a48.57,48.57,0,0,0,27.87,3.47,48.83,48.83,0,0,0,38.67-60.86c-2.1-7.49-4.57-11.16-4.31-11.28,0,0,.17.21.44.66l1.15,2.06a23.12,23.12,0,0,1,1.63,3.45,35.32,35.32,0,0,1,1.77,4.92,46.8,46.8,0,0,1,2,14.18,49.73,49.73,0,0,1-17.24,37.22,50,50,0,0,1-23.82,11.28,50.09,50.09,0,0,1-28.88-3.48,49.77,49.77,0,0,1-29.49-51.37,50.07,50.07,0,0,1,11.55-26.69,49.89,49.89,0,0,1,21.75-14.88,49.66,49.66,0,0,1,40.83,3.87,46.44,46.44,0,0,1,11.24,8.88,35,35,0,0,1,3.36,4,22.13,22.13,0,0,1,2.16,3.16l1.2,2C807.92,667.08,808,667.32,808,667.34Z" transform="translate(-562.47 -186.79)"/><path class="cls-3" d="M852.29,563.67c.42.28-12.31,20.35-28.42,44.83s-29.52,44.11-29.93,43.83,12.3-20.34,28.42-44.82S851.88,563.4,852.29,563.67Z" transform="translate(-562.47 -186.79)"/><path class="cls-3" d="M898,726.57c-.09.26-4.81-1.3-12.48-3.67s-18.3-5.48-30.19-8.38-22.76-5-30.66-6.46-12.8-2.22-12.77-2.49,1.26-.08,3.51.11,5.48.56,9.46,1.12c8,1.1,19,3.05,30.89,6s22.57,6.24,30.16,8.93c3.8,1.35,6.84,2.5,8.92,3.37A13.57,13.57,0,0,1,898,726.57Z" transform="translate(-562.47 -186.79)"/><path class="cls-3" d="M786.12,737.34c.23-.07,1.74,4.1,3.83,10.94s4.73,16.37,7.2,27,4.31,20.35,5.44,27.42,1.62,11.46,1.38,11.5-1.17-4.28-2.63-11.27-3.49-16.64-6-27.25-4.89-20.15-6.66-27.07S785.87,737.42,786.12,737.34Z" transform="translate(-562.47 -186.79)"/><path class="cls-3" d="M735.84,731.65c.43.25-7.94,14.92-18.7,32.74s-19.81,32.08-20.24,31.82,7.94-14.92,18.7-32.75S735.41,731.39,735.84,731.65Z" transform="translate(-562.47 -186.79)"/><path class="cls-3" d="M728.7,573c.48-.15,5.69,15.37,11.63,34.67s10.38,35.06,9.9,35.2-5.68-15.37-11.62-34.67S728.23,573.11,728.7,573Z" transform="translate(-562.47 -186.79)"/><path class="cls-3" d="M718.17,682.53c0,.5-13.06-.34-29.06-1.86s-28.93-3.17-28.89-3.67,13.06.34,29.06,1.87S718.21,682,718.17,682.53Z" transform="translate(-562.47 -186.79)"/><circle class="cls-3" cx="765.32" cy="691.85" r="38.39" transform="translate(-674.23 1048.31) rotate(-73.89)"/><path class="cls-1" d="M783.87,692.14c-.19.22-2-1.3-5.28-3.12a35.63,35.63,0,0,0-28.1-3c-3.59,1.08-5.69,2.18-5.83,1.93s1.79-1.7,5.41-3.13a31.88,31.88,0,0,1,29.19,3.16C782.49,690.11,784,692,783.87,692.14Z" transform="translate(-562.47 -186.79)"/><path class="cls-1" d="M768.48,669.65c.5.27-4.27,7.53-6.05,17.81s0,18.72-.53,18.8c-.38.21-3.23-8.41-1.25-19.12S768.19,669.32,768.48,669.65Z" transform="translate(-562.47 -186.79)"/><path class="cls-3" d="M2021.89,613l-22.68-39.49-35.5,5.22-29.32-36.83,15.11-36.68-39.59-26.27-29.55,29.8-38.92-6.82-15.78-45.78-47.31,5-2.68,40-35.24,17.9-37.31-26.41-37.85,27.56,19.67,42.38-22.52,33.93-40.92-2.18-10.69,50.48,38.94,15,3.35,42.41-40.36,23.17L1632,769.16l41.78-6.48,27.67,31.94L1687,834.43l38.27,27,29.86-32.31,41.44,11.21,12.89,42.77,46-3.11,6-38.42L1901,818.93l32.31,25.79,40.85-30.46-20.66-36,20.13-36.06,41.42,3,12.71-47-35.56-19.26-4.73-42.78ZM1861.47,751.18a93.09,93.09,0,1,1,34.37-127.08A93.09,93.09,0,0,1,1861.47,751.18Z" transform="translate(-562.47 -186.79)"/><path class="cls-3" d="M1856.35,643.4c-.23.16-2.16-3.82-7.57-9.41a49.1,49.1,0,0,0-28.86-14.21,48.44,48.44,0,0,0-43.19,16.92,45.65,45.65,0,0,0-7.32,11.82,45.15,45.15,0,0,0-3.74,14,48.17,48.17,0,0,0,28.45,49.56,48.67,48.67,0,0,0,27.87,3.46,48.83,48.83,0,0,0,38.67-60.86c-2.1-7.49-4.57-11.16-4.31-11.28,0,0,.18.21.44.67l1.15,2a21.7,21.7,0,0,1,1.63,3.45,34.08,34.08,0,0,1,1.77,4.92,46.85,46.85,0,0,1,2,14.18,49.73,49.73,0,0,1-17.24,37.22,50.06,50.06,0,0,1-23.82,11.29,49.94,49.94,0,0,1-28.87-3.49,49.76,49.76,0,0,1-29.5-51.37,50.07,50.07,0,0,1,11.55-26.69,50,50,0,0,1,21.75-14.88,49.76,49.76,0,0,1,40.83,3.87,46.69,46.69,0,0,1,11.24,8.88,35,35,0,0,1,3.36,4,22.13,22.13,0,0,1,2.16,3.16l1.2,2C1856.26,643.14,1856.38,643.38,1856.35,643.4Z" transform="translate(-562.47 -186.79)"/><path class="cls-3" d="M1900.63,539.74c.42.27-12.31,20.34-28.42,44.82s-29.52,44.11-29.93,43.84,12.31-20.34,28.42-44.83S1900.22,539.46,1900.63,539.74Z" transform="translate(-562.47 -186.79)"/><path class="cls-3" d="M1946.35,702.64c-.09.25-4.81-1.3-12.48-3.67s-18.3-5.49-30.18-8.39-22.77-5-30.67-6.46-12.8-2.22-12.77-2.49a13.09,13.09,0,0,1,3.51.12c2.24.18,5.48.56,9.47,1.11,8,1.11,18.94,3.06,30.88,6s22.58,6.24,30.16,8.93c3.8,1.35,6.84,2.5,8.92,3.37S1946.4,702.52,1946.35,702.64Z" transform="translate(-562.47 -186.79)"/><path class="cls-3" d="M1834.46,713.41c.23-.07,1.74,4.09,3.84,10.93s4.72,16.37,7.19,27,4.31,20.36,5.45,27.42,1.61,11.46,1.37,11.5-1.17-4.28-2.63-11.27-3.49-16.64-6-27.24-4.89-20.16-6.66-27.08S1834.21,713.48,1834.46,713.41Z" transform="translate(-562.47 -186.79)"/><path class="cls-3" d="M1784.18,707.71c.43.26-7.94,14.92-18.69,32.74s-19.82,32.08-20.25,31.82,8-14.92,18.7-32.75S1783.75,707.45,1784.18,707.71Z" transform="translate(-562.47 -186.79)"/><path class="cls-3" d="M1777.05,549c.47-.15,5.68,15.38,11.62,34.67s10.38,35.06,9.91,35.21-5.69-15.38-11.63-34.68S1776.57,549.17,1777.05,549Z" transform="translate(-562.47 -186.79)"/><path class="cls-3" d="M1766.51,658.6c0,.49-13.06-.34-29.06-1.87s-28.93-3.17-28.88-3.67,13,.34,29,1.87S1766.56,658.1,1766.51,658.6Z" transform="translate(-562.47 -186.79)"/><circle class="cls-3" cx="1813.66" cy="667.91" r="38.39" transform="translate(127.31 2053.5) rotate(-74.66)"/><path class="cls-1" d="M1832.21,668.21c-.19.21-2-1.31-5.28-3.13a35.63,35.63,0,0,0-28.1-3.05c-3.59,1.08-5.69,2.18-5.82,1.93s1.78-1.69,5.4-3.13A32,32,0,0,1,1827.6,664C1830.83,666.17,1832.36,668.06,1832.21,668.21Z" transform="translate(-562.47 -186.79)"/><path class="cls-1" d="M1816.82,645.71c.5.28-4.27,7.53-6,17.81s0,18.72-.53,18.81c-.38.2-3.23-8.42-1.25-19.13S1816.53,645.38,1816.82,645.71Z" transform="translate(-562.47 -186.79)"/><path class="cls-3" d="M1603.29,857.11l-11.15-19.42-17.46,2.57-14.41-18.11,7.43-18-19.47-12.92-14.53,14.66-19.14-3.36L1506.8,780l-23.26,2.46-1.32,19.69-17.33,8.8-18.35-13-18.61,13.56,9.67,20.84L1426.53,849,1406.41,848l-5.26,24.82,19.15,7.37L1422,901l-19.85,11.4,9.48,21.52,20.55-3.19,13.61,15.71L1438.62,966l18.82,13.3,14.68-15.89,20.38,5.51,6.34,21,22.64-1.53,2.93-18.89,19.41-11.15,15.89,12.68,20.09-15-10.16-17.7,9.9-17.73,20.37,1.5,6.24-23.09-17.48-9.47-2.33-21Zm-78.88,68a45.78,45.78,0,1,1,16.9-62.49A45.78,45.78,0,0,1,1524.41,925.07Z" transform="translate(-562.47 -186.79)"/><path class="cls-3" d="M1521.89,872.07a42.08,42.08,0,0,0-3.72-4.63,24.18,24.18,0,0,0-14.19-7,23.8,23.8,0,0,0-21.24,8.32,23.86,23.86,0,0,0-5.44,12.7,23.69,23.69,0,0,0,14,24.37,22.33,22.33,0,0,0,6.87,1.88,22.65,22.65,0,0,0,6.84-.18,23.86,23.86,0,0,0,17.89-14.15,24.18,24.18,0,0,0,1.12-15.78,42.19,42.19,0,0,0-2.12-5.54,1.21,1.21,0,0,1,.22.32l.56,1a10.5,10.5,0,0,1,.81,1.7,16.76,16.76,0,0,1,.86,2.42,23.16,23.16,0,0,1,1,7,24.49,24.49,0,0,1-8.48,18.31,24.62,24.62,0,0,1-11.71,5.54,24.53,24.53,0,0,1-14.2-1.71,24.47,24.47,0,0,1-14.5-25.26,22.8,22.8,0,0,1,1.92-7.13,23.22,23.22,0,0,1,3.75-6,24.64,24.64,0,0,1,10.7-7.32,24.11,24.11,0,0,1,11.25-1.1,24.44,24.44,0,0,1,8.83,3,22.6,22.6,0,0,1,5.52,4.37,15.8,15.8,0,0,1,1.66,2,10.26,10.26,0,0,1,1.06,1.55c.23.4.43.72.59,1A1.73,1.73,0,0,1,1521.89,872.07Z" transform="translate(-562.47 -186.79)"/><path class="cls-3" d="M1543.67,821.09c.2.14-6.06,10-14,22s-14.52,21.69-14.72,21.56,6-10,14-22.05S1543.46,821,1543.67,821.09Z" transform="translate(-562.47 -186.79)"/><path class="cls-3" d="M1566.15,901.19a53.51,53.51,0,0,1-6.14-1.8c-3.77-1.17-9-2.7-14.84-4.13s-11.2-2.47-15.08-3.17a58.34,58.34,0,0,1-6.28-1.22,6,6,0,0,1,1.72,0c1.11.09,2.7.28,4.66.55,3.92.54,9.31,1.5,15.19,2.93s11.1,3.07,14.83,4.39c1.86.66,3.36,1.23,4.38,1.66A7.18,7.18,0,0,1,1566.15,901.19Z" transform="translate(-562.47 -186.79)"/><path class="cls-3" d="M1511.13,906.49a33.7,33.7,0,0,1,1.88,5.38c1,3.36,2.32,8,3.54,13.28s2.12,10,2.68,13.48a31.77,31.77,0,0,1,.67,5.66,42.94,42.94,0,0,1-1.29-5.54c-.71-3.44-1.71-8.18-2.92-13.4s-2.41-9.91-3.28-13.31A38.9,38.9,0,0,1,1511.13,906.49Z" transform="translate(-562.47 -186.79)"/><path class="cls-3" d="M1486.4,903.69c.21.13-3.9,7.34-9.19,16.1s-9.75,15.77-10,15.65,3.91-7.34,9.2-16.11S1486.19,903.56,1486.4,903.69Z" transform="translate(-562.47 -186.79)"/><path class="cls-3" d="M1482.89,825.66c.24-.07,2.8,7.56,5.72,17.05s5.1,17.24,4.87,17.31-2.79-7.56-5.72-17S1482.66,825.73,1482.89,825.66Z" transform="translate(-562.47 -186.79)"/><path class="cls-3" d="M1477.71,879.54c0,.24-6.42-.17-14.29-.92s-14.22-1.56-14.2-1.8,6.42.17,14.29.92S1477.74,879.29,1477.71,879.54Z" transform="translate(-562.47 -186.79)"/><circle class="cls-3" cx="1500.9" cy="884.12" r="18.88" transform="translate(-362.56 1855.69) rotate(-72.18)"/><path class="cls-1" d="M1510,884.26a26.57,26.57,0,0,1-2.6-1.53,17.51,17.51,0,0,0-13.82-1.5,24.25,24.25,0,0,1-2.86.94,6.68,6.68,0,0,1,2.66-1.53,15.71,15.71,0,0,1,14.35,1.55C1509.34,883.26,1510.09,884.19,1510,884.26Z" transform="translate(-562.47 -186.79)"/><path class="cls-1" d="M1502.45,873.2c.25.14-2.1,3.7-3,8.76s0,9.2-.26,9.25-1.59-4.14-.62-9.41S1502.31,873,1502.45,873.2Z" transform="translate(-562.47 -186.79)"/><path class="cls-2" d="M1736.21,310.57l-17.9-31.16-28,4.11-23.13-29.07,11.92-28.94-31.24-20.73-23.32,23.52-30.71-5.39-12.46-36.12L1544,190.73l-2.11,31.6-27.82,14.13-29.44-20.85-29.86,21.75,15.51,33.45-17.77,26.77-32.29-1.71-8.43,39.83,30.72,11.82,2.65,33.47-31.85,18.29,15.22,34.53,33-5.12,21.84,25.21-11.42,31.42,30.2,21.33,23.57-25.5,32.7,8.84,10.17,33.75,36.34-2.45,4.69-30.31,31.16-17.89,25.5,20.35,32.23-24L1682.2,441l15.89-28.46,32.69,2.41,10-37.06-28.06-15.19L1709,328.94Zm-126.6,109.05a73.46,73.46,0,1,1,27.13-100.28A73.45,73.45,0,0,1,1609.61,419.62Z" transform="translate(-562.47 -186.79)"/><path class="cls-2" d="M1605.57,334.56c-.18.13-1.7-3-6-7.42a38.77,38.77,0,0,0-22.78-11.22,38.2,38.2,0,0,0-34.08,13.36,38.21,38.21,0,0,0-8.73,20.37,38,38,0,0,0,22.45,39.11,38.29,38.29,0,0,0,22,2.73,38.22,38.22,0,0,0,28.72-22.7,38.76,38.76,0,0,0,1.79-25.32c-1.65-5.91-3.6-8.81-3.4-8.91a2.27,2.27,0,0,1,.35.53l.91,1.62a18.69,18.69,0,0,1,1.29,2.73,27.65,27.65,0,0,1,1.39,3.88,37,37,0,0,1,1.58,11.19,39.23,39.23,0,0,1-13.6,29.37,39.61,39.61,0,0,1-18.8,8.91A39.64,39.64,0,0,1,1555.9,390a39.3,39.3,0,0,1-23.28-40.55,39.62,39.62,0,0,1,9.12-21.06,39.39,39.39,0,0,1,17.16-11.74,39.26,39.26,0,0,1,32.23,3.06,36.52,36.52,0,0,1,8.86,7,27.24,27.24,0,0,1,2.66,3.16,17.36,17.36,0,0,1,1.7,2.49c.38.64.69,1.16.94,1.6A2,2,0,0,1,1605.57,334.56Z" transform="translate(-562.47 -186.79)"/><path class="cls-2" d="M1640.52,252.76c.33.21-9.71,16.05-22.43,35.37s-23.29,34.81-23.62,34.59,9.71-16.05,22.43-35.37S1640.19,252.54,1640.52,252.76Z" transform="translate(-562.47 -186.79)"/><path class="cls-2" d="M1676.6,381.31c-.07.2-3.8-1-9.85-2.9s-14.44-4.32-23.82-6.62-18-4-24.2-5.09-10.1-1.76-10.08-2a10.67,10.67,0,0,1,2.77.1c1.77.14,4.32.44,7.47.87,6.29.88,14.95,2.42,24.38,4.71s17.81,4.92,23.8,7c3,1.06,5.39,2,7,2.66A10.72,10.72,0,0,1,1676.6,381.31Z" transform="translate(-562.47 -186.79)"/><path class="cls-2" d="M1588.3,389.81c.18-.05,1.37,3.23,3,8.63s3.72,12.92,5.67,21.31,3.4,16.07,4.3,21.64,1.27,9.05,1.09,9.08-.93-3.38-2.08-8.9-2.75-13.12-4.69-21.5-3.86-15.9-5.26-21.36S1588.1,389.87,1588.3,389.81Z" transform="translate(-562.47 -186.79)"/><path class="cls-2" d="M1548.62,385.31c.34.21-6.27,11.78-14.75,25.85s-15.64,25.31-16,25.1,6.27-11.77,14.76-25.84S1548.28,385.11,1548.62,385.31Z" transform="translate(-562.47 -186.79)"/><path class="cls-2" d="M1543,260.09c.38-.12,4.48,12.14,9.18,27.36s8.19,27.67,7.81,27.78-4.48-12.13-9.18-27.36S1542.61,260.21,1543,260.09Z" transform="translate(-562.47 -186.79)"/><path class="cls-2" d="M1534.67,346.56c0,.39-10.3-.27-22.93-1.48s-22.83-2.5-22.79-2.89,10.3.27,22.93,1.48S1534.71,346.17,1534.67,346.56Z" transform="translate(-562.47 -186.79)"/><circle class="cls-2" cx="1571.88" cy="353.91" r="30.3" transform="translate(-599.68 250.25) rotate(-15.65)"/><path class="cls-1" d="M1586.52,354.14c-.15.17-1.58-1-4.16-2.47a28.16,28.16,0,0,0-22.18-2.4c-2.83.85-4.49,1.72-4.6,1.52s1.41-1.34,4.27-2.47a25.18,25.18,0,0,1,23,2.49C1585.43,352.53,1586.64,354,1586.52,354.14Z" transform="translate(-562.47 -186.79)"/><path class="cls-1" d="M1574.38,336.39c.4.22-3.37,5.94-4.78,14.05s0,14.77-.41,14.84-2.55-6.64-1-15.09S1574.15,336.13,1574.38,336.39Z" transform="translate(-562.47 -186.79)"/><path class="cls-1" d="M1184.19,370.23l-4.64-8.08-7.26,1.07-6-7.53,3.09-7.5-8.1-5.38-6,6.1-8-1.4-3.23-9.36-9.67,1-.55,8.19-7.21,3.66-7.63-5.4-7.74,5.64,4,8.66-4.61,6.95-8.37-.45-2.18,10.32,8,3.07.69,8.67-8.26,4.74,4,8.95,8.54-1.32,5.66,6.53-3,8.14,7.83,5.53,6.11-6.61,8.47,2.29,2.64,8.75,9.42-.63,1.22-7.86,8.07-4.64,6.61,5.28,8.36-6.23-4.23-7.36,4.12-7.38,8.47.63,2.6-9.61-7.27-3.94-1-8.75Zm-32.81,28.27a19,19,0,1,1,7-26A19.06,19.06,0,0,1,1151.38,398.5Z" transform="translate(-562.47 -186.79)"/><path class="cls-1" d="M1150.33,376.45c-.11.07-.57-.71-1.7-1.78a10,10,0,0,0-5.8-2.68,9.46,9.46,0,1,0,7.57,13.19,10.07,10.07,0,0,0,.61-6.37c-.35-1.51-.8-2.3-.68-2.36a5,5,0,0,1,1.22,2.21,10.07,10.07,0,0,1-.22,6.91,10.55,10.55,0,0,1-7.89,6.45,10.68,10.68,0,0,1-10-17.47A10.54,10.54,0,0,1,1143,371a10,10,0,0,1,6.07,3.29A4.94,4.94,0,0,1,1150.33,376.45Z" transform="translate(-562.47 -186.79)"/><path class="cls-1" d="M1159.39,355.25c.33.21-2.08,4.45-5.38,9.46s-6.23,8.89-6.56,8.67,2.08-4.45,5.37-9.46S1159.06,355,1159.39,355.25Z" transform="translate(-562.47 -186.79)"/><path class="cls-1" d="M1168.74,388.57c-.15.38-4-.79-8.85-2s-8.81-1.94-8.76-2.34,4.17-.25,9.09,1S1168.88,388.21,1168.74,388.57Z" transform="translate(-562.47 -186.79)"/><path class="cls-1" d="M1145.85,390.77c.37-.12,1.76,3.27,2.77,7.64s1.27,8,.88,8.08-1.26-3.44-2.27-7.76S1145.47,390.89,1145.85,390.77Z" transform="translate(-562.47 -186.79)"/><path class="cls-1" d="M1135.57,389.6c.33.21-1.18,3.33-3.37,7s-4.26,6.44-4.6,6.24,1.18-3.32,3.38-7S1135.23,389.4,1135.57,389.6Z" transform="translate(-562.47 -186.79)"/><path class="cls-1" d="M1134.11,357.15c.37-.12,1.67,3,2.88,6.93s1.9,7.24,1.52,7.36-1.66-3-2.88-6.94S1133.73,357.26,1134.11,357.15Z" transform="translate(-562.47 -186.79)"/><path class="cls-1" d="M1132,379.56c0,.39-2.72.45-6,.14s-5.9-.88-5.86-1.27,2.72-.46,6-.15S1132,379.17,1132,379.56Z" transform="translate(-562.47 -186.79)"/><path class="cls-1" d="M1148.41,377.55a7.85,7.85,0,1,1-10.72-2.9A7.85,7.85,0,0,1,1148.41,377.55Z" transform="translate(-562.47 -186.79)"/><path class="cls-2" d="M1145.39,381.52c-.27.3-1.81-.81-3.94-1s-3.87.5-4.08.15,1.51-1.84,4.23-1.56S1145.71,381.3,1145.39,381.52Z" transform="translate(-562.47 -186.79)"/><path class="cls-2" d="M1142.24,376.92c.34.24-.38,1.77-.71,3.74s-.24,3.65-.63,3.75-1.2-1.68-.78-4S1142,376.68,1142.24,376.92Z" transform="translate(-562.47 -186.79)"/><path class="cls-1" d="M1941.39,336.44l-7.54-13.13-11.8,1.74-9.74-12.24,5-12.2-13.16-8.73-9.82,9.91-12.94-2.27-5.25-15.21L1860.44,286l-.89,13.31-11.71,6-12.41-8.78-12.57,9.17,6.53,14.08L1821.91,331l-13.6-.72L1804.75,347l13,5,1.11,14.1-13.42,7.7,6.42,14.55,13.88-2.16,9.2,10.62-4.81,13.24,12.72,9,9.93-10.74L1866.5,412l4.28,14.22,15.31-1,2-12.77,13.12-7.54,10.74,8.57,13.58-10.12-6.87-12,6.69-12,13.77,1,4.22-15.61-11.81-6.4-1.58-14.22Zm-53.32,45.93a30.94,30.94,0,1,1,11.42-42.24A30.94,30.94,0,0,1,1888.07,382.37Z" transform="translate(-562.47 -186.79)"/><path class="cls-1" d="M1886.37,346.55c-.13.08-.82-1.22-2.64-3a16.24,16.24,0,0,0-9.51-4.54,15.74,15.74,0,1,0,12.55,21.86,16.35,16.35,0,0,0,.88-10.51c-.65-2.48-1.42-3.73-1.28-3.79s.24.27.6.86a13,13,0,0,1,1.21,2.78,16.28,16.28,0,0,1-.48,11.05,16.88,16.88,0,0,1-22.42,9,16.93,16.93,0,0,1-10-17.49,16.87,16.87,0,0,1,19.11-14.8,16.22,16.22,0,0,1,9.78,5.16,12.13,12.13,0,0,1,1.79,2.44Q1886.43,346.51,1886.37,346.55Z" transform="translate(-562.47 -186.79)"/><path class="cls-1" d="M1901.09,312.09c.33.22-3.75,7-9.11,15.13s-10,14.56-10.29,14.34,3.75-7,9.1-15.13S1900.76,311.87,1901.09,312.09Z" transform="translate(-562.47 -186.79)"/><path class="cls-1" d="M1916.28,366.24c-.14.38-6.4-1.7-14.28-3.61s-14.39-3-14.34-3.38,6.7,0,14.68,2S1916.42,365.89,1916.28,366.24Z" transform="translate(-562.47 -186.79)"/><path class="cls-1" d="M1879.09,369.82c.37-.12,2.43,5.42,4.07,12.52s2.24,13,1.86,13-1.61-5.68-3.25-12.71S1878.7,369.94,1879.09,369.82Z" transform="translate(-562.47 -186.79)"/><path class="cls-1" d="M1862.38,367.92c.34.21-2.29,5.18-5.86,11.1s-6.75,10.57-7.08,10.36,2.28-5.17,5.86-11.1S1862,367.72,1862.38,367.92Z" transform="translate(-562.47 -186.79)"/><path class="cls-1" d="M1860,315.18c.37-.12,2.28,5,4.26,11.4s3.27,11.71,2.89,11.83-2.28-5-4.26-11.41S1859.63,315.29,1860,315.18Z" transform="translate(-562.47 -186.79)"/><path class="cls-1" d="M1856.5,351.6c0,.39-4.38.3-9.69-.21s-9.6-1.24-9.57-1.63,4.38-.3,9.7.21S1856.54,351.21,1856.5,351.6Z" transform="translate(-562.47 -186.79)"/><path class="cls-1" d="M1883.24,348.34a12.76,12.76,0,1,1-17.42-4.71A12.76,12.76,0,0,1,1883.24,348.34Z" transform="translate(-562.47 -186.79)"/><path class="cls-2" d="M1878.34,354.79c-.26.32-2.71-1.72-6.36-2.1s-6.48,1.06-6.67.69,2.58-2.55,6.82-2.11S1878.67,354.6,1878.34,354.79Z" transform="translate(-562.47 -186.79)"/><path class="cls-2" d="M1873.23,347.31c.35.24-1,2.68-1.61,6s-.17,6.08-.58,6.18-1.49-2.77-.82-6.43S1873,347.07,1873.23,347.31Z" transform="translate(-562.47 -186.79)"/><path class="cls-1" d="M965.8,960.3l-7.54-13.12-11.8,1.73-9.74-12.24,5-12.19-13.16-8.74-9.82,9.91-12.94-2.27-5.25-15.21-15.72,1.66L884,923.14l-11.71,6-12.41-8.78-12.58,9.16,6.54,14.08-7.48,11.28-13.6-.72-3.56,16.78,12.94,5L843.22,990l-13.42,7.71,6.41,14.54,13.89-2.15,9.2,10.61-4.81,13.24,12.72,9,9.93-10.74,13.77,3.73,4.28,14.21,15.31-1,2-12.77,13.12-7.54,10.74,8.58,13.58-10.13-6.87-12,6.69-12,13.77,1,4.22-15.61-11.81-6.4L954.34,968Zm-53.32,45.93A30.94,30.94,0,1,1,923.9,964,30.94,30.94,0,0,1,912.48,1006.23Z" transform="translate(-562.47 -186.79)"/><path class="cls-1" d="M910.78,970.41c-.13.08-.82-1.21-2.64-3a16.27,16.27,0,0,0-9.51-4.54,15.74,15.74,0,1,0,12.55,21.86,16.27,16.27,0,0,0,.87-10.51c-.64-2.48-1.41-3.72-1.27-3.79s.24.27.6.87a12.65,12.65,0,0,1,1.21,2.77,16.28,16.28,0,0,1-.48,11.05,16.85,16.85,0,0,1-22.42,9,16.91,16.91,0,0,1-10-17.49,16.87,16.87,0,0,1,19.11-14.8,16.22,16.22,0,0,1,9.78,5.16,12.41,12.41,0,0,1,1.79,2.44Q910.84,970.36,910.78,970.41Z" transform="translate(-562.47 -186.79)"/><path class="cls-1" d="M925.5,936c.32.22-3.75,7-9.11,15.13s-10,14.56-10.29,14.34,3.75-7,9.1-15.12S925.17,935.74,925.5,936Z" transform="translate(-562.47 -186.79)"/><path class="cls-1" d="M940.69,990.1c-.14.39-6.4-1.7-14.28-3.61s-14.39-3-14.34-3.37,6.7,0,14.68,2S940.83,989.75,940.69,990.1Z" transform="translate(-562.47 -186.79)"/><path class="cls-1" d="M903.5,993.68c.36-.12,2.43,5.43,4.07,12.52s2.24,13,1.86,13-1.61-5.68-3.25-12.71S903.11,993.8,903.5,993.68Z" transform="translate(-562.47 -186.79)"/><path class="cls-1" d="M886.79,991.78c.33.21-2.29,5.18-5.86,11.1s-6.75,10.57-7.08,10.36,2.28-5.17,5.86-11.09S886.45,991.58,886.79,991.78Z" transform="translate(-562.47 -186.79)"/><path class="cls-1" d="M884.42,939c.37-.11,2.28,5,4.25,11.4s3.28,11.71,2.9,11.83-2.28-5-4.26-11.41S884,939.16,884.42,939Z" transform="translate(-562.47 -186.79)"/><path class="cls-1" d="M880.91,975.46c0,.39-4.38.3-9.69-.21s-9.6-1.24-9.57-1.63,4.38-.3,9.7.21S881,975.07,880.91,975.46Z" transform="translate(-562.47 -186.79)"/><path class="cls-1" d="M907.65,972.2a12.76,12.76,0,1,1-17.42-4.71A12.76,12.76,0,0,1,907.65,972.2Z" transform="translate(-562.47 -186.79)"/><path class="cls-2" d="M902.75,978.65c-.26.32-2.71-1.72-6.36-2.1s-6.48,1.06-6.67.69,2.58-2.55,6.82-2.1S903.08,978.46,902.75,978.65Z" transform="translate(-562.47 -186.79)"/><path class="cls-2" d="M897.64,971.18c.34.23-1,2.67-1.61,6s-.17,6.08-.58,6.18-1.49-2.77-.82-6.43S897.36,970.93,897.64,971.18Z" transform="translate(-562.47 -186.79)"/><ellipse class="cls-4" cx="734.02" cy="943.99" rx="669.45" ry="53.24"/><polygon class="cls-5" points="753.9 340.14 753.9 340.14 753.89 340.15 753.9 340.14"/><rect class="cls-6" x="217.38" y="263.56" width="896.71" height="541.36" rx="1.83"/><rect class="cls-7" x="979.27" y="297.18" width="492.35" height="847.7" transform="translate(1384 -691.21) rotate(90)"/><rect class="cls-6" x="585.21" y="804.92" width="161.05" height="122.52"/><rect class="cls-6" x="488.74" y="927.43" width="353.99" height="27.11"/><path class="cls-8" d="M1240.69,598.42a15.24,15.24,0,1,1-15.23-15.24A15.24,15.24,0,0,1,1240.69,598.42Z" transform="translate(-562.47 -186.79)"/><path class="cls-8" d="M1195,602.89a15.23,15.23,0,1,1-21-4.58A15.23,15.23,0,0,1,1195,602.89Z" transform="translate(-562.47 -186.79)"/><path class="cls-8" d="M1159,631.35a15.24,15.24,0,1,1-20.19,7.53A15.25,15.25,0,0,1,1159,631.35Z" transform="translate(-562.47 -186.79)"/><path class="cls-8" d="M1144.06,674.77A15.24,15.24,0,1,1,1131.15,692,15.25,15.25,0,0,1,1144.06,674.77Z" transform="translate(-562.47 -186.79)"/><path class="cls-8" d="M1155,719.36a15.23,15.23,0,1,1-1.54,21.5A15.23,15.23,0,0,1,1155,719.36Z" transform="translate(-562.47 -186.79)"/><path class="cls-8" d="M1188.29,751a15.24,15.24,0,1,1,10.32,18.91A15.24,15.24,0,0,1,1188.29,751Z" transform="translate(-562.47 -186.79)"/><path class="cls-8" d="M1233.39,759.55a15.24,15.24,0,1,1,18.91,10.33A15.24,15.24,0,0,1,1233.39,759.55Z" transform="translate(-562.47 -186.79)"/><path class="cls-8" d="M1276,742.39a15.24,15.24,0,1,1,21.49-1.53A15.23,15.23,0,0,1,1276,742.39Z" transform="translate(-562.47 -186.79)"/><path class="cls-9" d="M1302.52,704.93A15.23,15.23,0,1,1,1319.76,692,15.24,15.24,0,0,1,1302.52,704.93Z" transform="translate(-562.47 -186.79)"/><path class="cls-9" d="M1304.6,659.07a15.24,15.24,0,1,1,7.52-20.19A15.23,15.23,0,0,1,1304.6,659.07Z" transform="translate(-562.47 -186.79)"/><path class="cls-9" d="M1281.55,619.36a15.24,15.24,0,1,1-4.58-21.05A15.24,15.24,0,0,1,1281.55,619.36Z" transform="translate(-562.47 -186.79)"/><rect class="cls-10" x="504.94" y="652.63" width="316.09" height="24.49" rx="2.06"/><path class="cls-11" d="M507,652.63H679a0,0,0,0,1,0,0v24.49a0,0,0,0,1,0,0H507a2.06,2.06,0,0,1-2.06-2.06V654.69A2.06,2.06,0,0,1,507,652.63Z"/><path class="cls-6" d="M1711.48,497h-235a39.67,39.67,0,0,0-39.69,39.67v576.5a39.67,39.67,0,0,0,39.69,39.67h235a39.68,39.68,0,0,0,39.69-39.67V536.71A39.68,39.68,0,0,0,1711.48,497Z" transform="translate(-562.47 -186.79)"/><path class="cls-12" d="M1602.63,515.72h-30.52a2.37,2.37,0,0,0,0,4.73h30.52a2.37,2.37,0,1,0,0-4.73Zm12.92-.33a2.69,2.69,0,1,0,2.68,2.69A2.68,2.68,0,0,0,1615.55,515.39Z" transform="translate(-562.47 -186.79)"/><path class="cls-7" d="M1739.23,540.32v569.29a31,31,0,0,1-30.83,31.25H1479.56a31.06,31.06,0,0,1-30.82-31.28V540.32A31.06,31.06,0,0,1,1479.56,509h50.17a3.85,3.85,0,0,1,3.81,3.86v6.15a12.07,12.07,0,0,0,12,12.18h96.88a12.11,12.11,0,0,0,12-12.18V512.9a3.83,3.83,0,0,1,3.81-3.86h50.13A31.07,31.07,0,0,1,1739.23,540.32Z" transform="translate(-562.47 -186.79)"/><path class="cls-13" d="M1639.36,1122.79h-90.75a1.82,1.82,0,0,1,0-3.64h90.75a1.82,1.82,0,1,1,0,3.64Z" transform="translate(-562.47 -186.79)"/><path class="cls-14" d="M1710.62,513.37h-49.14v4.18a18.11,18.11,0,0,1-18.11,18.12h-98.76a18.12,18.12,0,0,1-18.12-18.12v-4.18h-49.16A25.57,25.57,0,0,0,1451.76,539v572a25.57,25.57,0,0,0,25.57,25.58h233.31a25.56,25.56,0,0,0,25.55-25.56V539a25.57,25.57,0,0,0-25.57-25.58Z" transform="translate(-562.47 -186.79)"/><path class="cls-8" d="M1604.7,736.94A10.72,10.72,0,1,1,1594,726.23,10.71,10.71,0,0,1,1604.7,736.94Z" transform="translate(-562.47 -186.79)"/><path class="cls-8" d="M1572.56,740.09a10.72,10.72,0,1,1-14.81-3.22A10.72,10.72,0,0,1,1572.56,740.09Z" transform="translate(-562.47 -186.79)"/><path class="cls-8" d="M1547.22,760.11a10.72,10.72,0,1,1-14.2,5.29A10.71,10.71,0,0,1,1547.22,760.11Z" transform="translate(-562.47 -186.79)"/><path class="cls-8" d="M1536.73,790.65a10.72,10.72,0,1,1-9.08,12.13A10.73,10.73,0,0,1,1536.73,790.65Z" transform="translate(-562.47 -186.79)"/><path class="cls-8" d="M1544.42,822a10.72,10.72,0,1,1-1.08,15.11A10.71,10.71,0,0,1,1544.42,822Z" transform="translate(-562.47 -186.79)"/><path class="cls-8" d="M1567.84,844.25a10.72,10.72,0,1,1,7.27,13.3A10.72,10.72,0,0,1,1567.84,844.25Z" transform="translate(-562.47 -186.79)"/><path class="cls-8" d="M1599.57,850.29a10.71,10.71,0,1,1,13.3,7.26A10.72,10.72,0,0,1,1599.57,850.29Z" transform="translate(-562.47 -186.79)"/><path class="cls-8" d="M1629.52,838.22a10.72,10.72,0,1,1,15.12-1.09A10.72,10.72,0,0,1,1629.52,838.22Z" transform="translate(-562.47 -186.79)"/><path class="cls-9" d="M1648.19,811.87a10.72,10.72,0,1,1,12.13-9.09A10.73,10.73,0,0,1,1648.19,811.87Z" transform="translate(-562.47 -186.79)"/><path class="cls-9" d="M1649.65,779.61a10.72,10.72,0,1,1,5.3-14.21A10.73,10.73,0,0,1,1649.65,779.61Z" transform="translate(-562.47 -186.79)"/><path class="cls-9" d="M1633.44,751.68a10.72,10.72,0,1,1-3.22-14.81A10.72,10.72,0,0,1,1633.44,751.68Z" transform="translate(-562.47 -186.79)"/><rect class="cls-10" x="920.34" y="719.67" width="222.34" height="17.23" rx="1.45"/><path class="cls-11" d="M921.79,719.67h121a0,0,0,0,1,0,0V736.9a0,0,0,0,1,0,0h-121a1.45,1.45,0,0,1-1.45-1.45V721.12A1.45,1.45,0,0,1,921.79,719.67Z"/><path class="cls-10" d="M1521,956.5v13.14c0,4.24,2.17,5.49,4.55,5.49,2.73,0,4.45-1.48,4.45-5.49V956.5h4.77v12.91c0,7.54-4.42,9.46-9.28,9.46s-9.27-2-9.27-9.37v-13Z" transform="translate(-562.47 -186.79)"/><path class="cls-10" d="M1539.82,956.5H1549c4.68,0,7.87,2.64,7.87,6.83,0,4.79-3.63,7-8,7h-4.24v8.24h-4.78Zm4.78,10h3.64c2.2,0,3.76-.85,3.76-3.1s-1.64-3.13-3.66-3.13h-3.74Z" transform="translate(-562.47 -186.79)"/><path class="cls-10" d="M1560.4,956.5h8.74c6.43,0,10.63,4.23,10.63,10.75s-4.08,11.31-10.83,11.31h-8.54Zm4.77,18.2h3.57c4.23,0,6.1-3.14,6.1-7.44,0-3.6-1.75-6.91-6.07-6.91h-3.6Z" transform="translate(-562.47 -186.79)"/><path class="cls-10" d="M1587.7,973.46l-1.72,5.1h-4.69l7.49-22.06h6l7.82,22.06h-5l-1.81-5.1Zm7-3.91c-1.56-4.65-2.56-7.63-3.09-9.61h0c-.54,2.17-1.64,5.64-2.9,9.61Z" transform="translate(-562.47 -186.79)"/><path class="cls-10" d="M1607.52,960.41h-6.7V956.5H1619v3.91h-6.68v18.15h-4.78Z" transform="translate(-562.47 -186.79)"/><path class="cls-10" d="M1626.7,956.5v22.06h-4.77V956.5Z" transform="translate(-562.47 -186.79)"/><path class="cls-10" d="M1632,978.56V956.5h5.91c2.76,5,7.85,13.88,8.86,16.29h.06c-.24-2.3-.24-6.14-.24-9.75V956.5h4.32v22.06h-5.6c-2.37-4.31-8-14.58-9.11-17.12h-.06c.16,1.93.21,6.46.21,10.41v6.71Z" transform="translate(-562.47 -186.79)"/><path class="cls-10" d="M1675.33,978.56h-3.49a11.82,11.82,0,0,1-.37-2.18c-1.22,1.65-3.37,2.55-6.44,2.55-6.4,0-10-4.84-10-11.13,0-6.63,3.86-11.62,10.81-11.62,5.68,0,9,3.2,9.55,7h-4.77c-.45-1.47-1.61-3.22-4.84-3.22-4.53,0-5.82,3.79-5.82,7.68s1.47,7.53,5.85,7.53c4.08,0,4.83-2.83,4.83-4.81v-.2h-4.84v-3.91h9.51Z" transform="translate(-562.47 -186.79)"/><path class="cls-10" d="M1150.73,893v13.14c0,4.24,2.18,5.49,4.55,5.49,2.73,0,4.45-1.48,4.45-5.49V893h4.77v12.91c0,7.54-4.41,9.46-9.28,9.46s-9.27-2-9.27-9.37V893Z" transform="translate(-562.47 -186.79)"/><path class="cls-10" d="M1169.54,893h9.13c4.69,0,7.87,2.64,7.87,6.83,0,4.79-3.63,7-8,7h-4.24v8.24h-4.78Zm4.78,10H1178c2.21,0,3.77-.85,3.77-3.1s-1.65-3.12-3.67-3.12h-3.74Z" transform="translate(-562.47 -186.79)"/><path class="cls-10" d="M1190.12,893h8.75c6.42,0,10.62,4.23,10.62,10.75s-4.07,11.31-10.82,11.31h-8.55Zm4.77,18.21h3.58c4.23,0,6.1-3.15,6.1-7.45,0-3.6-1.76-6.91-6.08-6.91h-3.6Z" transform="translate(-562.47 -186.79)"/><path class="cls-10" d="M1217.42,910l-1.72,5.1H1211L1218.5,893h6l7.82,22.06h-5l-1.81-5.1Zm7-3.91c-1.56-4.65-2.56-7.63-3.09-9.61h0c-.55,2.18-1.65,5.64-2.91,9.61Z" transform="translate(-562.47 -186.79)"/><path class="cls-10" d="M1237.25,896.93h-6.71V893h18.16v3.91H1242v18.15h-4.77Z" transform="translate(-562.47 -186.79)"/><path class="cls-10" d="M1256.43,893v22.06h-4.77V893Z" transform="translate(-562.47 -186.79)"/><path class="cls-10" d="M1261.7,915.08V893h5.91c2.76,5,7.85,13.89,8.87,16.29h.06c-.25-2.3-.25-6.13-.25-9.75V893h4.33v22.06H1275c-2.37-4.31-8-14.57-9.11-17.12h-.06c.16,1.93.21,6.46.21,10.41v6.71Z" transform="translate(-562.47 -186.79)"/><path class="cls-10" d="M1305.06,915.08h-3.5a12.72,12.72,0,0,1-.36-2.18c-1.23,1.65-3.38,2.55-6.45,2.55-6.4,0-10-4.84-10-11.12,0-6.64,3.86-11.63,10.81-11.63,5.68,0,9,3.2,9.56,7h-4.77c-.46-1.47-1.62-3.22-4.85-3.22-4.53,0-5.82,3.79-5.82,7.68s1.48,7.53,5.85,7.53c4.08,0,4.83-2.83,4.83-4.8v-.2h-4.84v-3.91h9.52Z" transform="translate(-562.47 -186.79)"/></svg>