<svg width="22" height="22" viewBox="0 0 22 22" fill="none" xmlns="http://www.w3.org/2000/svg">
<path d="M8.54999 7.7391H9.1971C9.61519 7.7391 9.95378 8.07812 9.95378 8.49577C9.95378 8.49577 9.95378 11.3704 9.95378 12.7767H12.0382C12.0382 11.3807 12.0382 8.53359 12.0382 8.49577C12.0382 8.07769 12.3772 7.7391 12.7949 7.7391H13.5043L11.1006 4.47992C10.4277 5.34015 9.33675 6.73363 8.54999 7.7391Z" fill="white"/>
<path d="M11 0C4.92465 0 0 4.92465 0 11C0 17.0754 4.92465 22 11 22C17.0754 22 22 17.0754 22 11C22 4.92465 17.0754 0 11 0ZM12.7991 19.5276H9.2009V18.0138H12.7991V19.5276ZM13.435 16.9091H8.56496V15.3953H13.435V16.9091ZM15.0038 9.25289H13.5523L13.5519 13.4776C13.5519 14.0744 13.099 14.291 12.7952 14.291H9.19746C8.98691 14.291 8.44078 14.1449 8.44078 13.4776V9.25332H6.9966C6.30094 9.26793 6.15613 8.41027 6.40063 8.03L10.4775 2.82219C10.5798 2.45609 11.4714 2.42258 11.7287 2.78051L15.6131 8.04719C15.9113 8.47688 15.5581 9.25074 15.0038 9.25289Z" fill="white"/>
</svg>
