<svg width="218" height="187" viewBox="0 0 218 187" fill="none" xmlns="http://www.w3.org/2000/svg">
<path d="M59.6486 139.457C49.4054 116.77 49.4979 89.6578 59.9043 67.0876" stroke="#59E3AD" stroke-width="0.25" stroke-miterlimit="10" stroke-linecap="round" stroke-linejoin="round" stroke-dasharray="3 3"/>
<path d="M95.6336 88.3811C94.2683 88.934 93.5126 89.4655 92.6011 90.4363C92.6929 90.6323 93.56 91.1044 93.7755 91.171C92.6867 92.0189 90.2043 93.8877 88.9772 95.9033C90.4422 96.2038 94.8633 94.2368 96.2275 93.6364" stroke="#D3DBE5" stroke-width="0.25" stroke-miterlimit="10" stroke-linecap="round"/>
<path d="M98.6027 95.2244C97.3295 96.6388 95.5214 97.558 93.6248 97.7582C93.689 97.4636 93.7691 97.1687 93.8333 96.8742C90.0981 99.032 76.6356 106.538 72.3432 106.941C74.3161 102.667 86.611 92.7312 90.3534 89.8839C89.8679 89.7916 89.3746 89.7074 88.881 89.6073C90.3222 87.2702 95.2196 85.3403 97.9614 85.3592" stroke="#D3DBE5" stroke-width="0.25" stroke-miterlimit="10" stroke-linecap="round"/>
<path d="M134.919 178.783C135.446 179.287 136.219 178.477 135.691 177.974C135.173 177.478 134.4 178.288 134.919 178.783Z" fill="#EDF1F5"/>
<path d="M14.1018 171.776C21.89 179.214 28.8713 184.544 29.695 183.681C30.5188 182.818 24.873 176.09 17.0849 168.652C9.2967 161.215 2.31538 155.885 1.49164 156.747C0.667894 157.61 6.31366 164.338 14.1018 171.776Z" fill="#F6F8FA"/>
<path d="M84.8694 60.8339L59.8447 36.9357L46.9465 50.442L71.9711 74.3401L84.8694 60.8339Z" fill="#D3DBE5" stroke="#D3DBE5" stroke-width="0.25" stroke-miterlimit="10"/>
<path d="M87.302 63.1568L62.2773 39.2587L49.3791 52.7649L74.4037 76.6631L87.302 63.1568Z" fill="white" stroke="#D3DBE5" stroke-width="0.25" stroke-miterlimit="10"/>
<path d="M70.9581 60.2367L62.3032 58.1296L68.4548 51.688L70.9581 60.2367Z" fill="#D3DBE5"/>
<path d="M99.4988 89.9835C96.9722 86.3948 98.0394 84.3194 98.0394 84.3194L99.2047 83.3589L100.354 84.3636L101.187 89.3522L99.4988 89.9835Z" fill="url(#paint0_linear)"/>
<path d="M94.5084 97.6115L93.189 98.4248" stroke="#B3B3B3" stroke-width="0.25" stroke-miterlimit="10"/>
<path d="M216.126 76.3108C216.126 76.3108 212.909 79.8912 208.766 79.2773L208.758 79.2695C209.071 78.7952 209.256 78.2445 209.258 77.6424C209.247 75.868 207.786 74.7514 206.638 74.1507C209.686 71.089 212.989 70.3747 213.752 70.8253C213.792 70.8482 214.152 70.9749 214.184 70.9901C214.963 71.4404 215.921 72.0452 215.403 72.5874C215.202 72.7978 216.687 73.2721 216.601 74.3198C216.504 75.542 217.34 75.072 216.126 76.3108Z" fill="url(#paint1_linear)"/>
<path d="M64.9845 140.266L66.9069 141.467L65.8809 145.253C65.8809 145.253 52.8079 158.082 50.3103 155.697C47.8127 153.311 50.9386 146.905 61.099 137.824L64.9845 140.266Z" fill="url(#paint2_radial)"/>
<path d="M38.9701 145.378C38.9701 145.378 20.0774 156.378 22.4072 163.647C24.7371 170.916 44.4435 152.57 44.4435 152.57L38.9701 145.378Z" fill="url(#paint3_radial)"/>
<path d="M92.4863 136.064C93.7087 136.489 98.8865 137.983 98.8865 137.983L99.1879 138.983L91.9849 135.972" fill="#F6F8FA"/>
<path d="M63.7972 141.298L44.1942 153.074C38.788 155.261 36.2282 150.619 37.2834 147.387C38.3309 144.164 76.9319 117.202 82.1639 108.103C86.696 100.208 96.9429 91.4263 96.9429 91.4263C108.855 100.156 119.459 111.83 119.459 111.83C119.459 111.83 114.81 150.451 105.656 151.287C96.501 152.106 88.2764 146.805 65.829 145.73C63.8112 144.514 63.8381 141.353 63.8381 141.353L63.7972 141.298ZM98.7574 137.875L98.7941 137.756C97.4176 131.583 98.4094 121.761 98.5439 120.435L74.1297 135.089C82.4712 132.735 94.2509 136.295 98.7574 137.875Z" fill="url(#paint4_radial)"/>
<path d="M63.7971 141.298L44.1941 153.074C38.7879 155.261 36.4355 150.678 37.2833 147.387C38.1377 144.041 76.9318 117.202 82.1638 108.103C86.6959 100.208 96.9428 91.426 96.9428 91.426C108.855 100.156 119.459 111.83 119.459 111.83C119.459 111.83 114.81 150.451 105.656 151.286C96.5009 152.106 88.2763 146.804 65.8289 145.729C63.8111 144.514 63.838 141.352 63.838 141.352L63.7971 141.298ZM98.7573 137.875L98.794 137.755C97.4175 131.582 98.4093 121.76 98.5437 120.434L74.1296 135.089C82.4711 132.735 94.2508 136.294 98.7573 137.875Z" fill="url(#paint5_radial)"/>
<path opacity="0.3" d="M98.5518 120.442L106.104 115.555C106.104 115.555 100.13 125.122 98.2563 124.957C98.5495 122.653 98.5518 120.442 98.5518 120.442Z" fill="#B3B3B3"/>
<path d="M63.7969 141.298L73.6562 135.179C73.6562 135.179 78.9064 134.081 80.346 134.311C81.3707 134.423 61.8116 139.789 65.5731 145.64C63.7979 144.301 63.7969 141.298 63.7969 141.298Z" fill="#F6F8FA"/>
<path d="M149.06 56.8713C149.147 56.5683 149.227 56.2575 149.283 55.9394C149.522 54.6666 149.482 53.3444 149.166 52.0838C148.764 50.5081 147.928 49.0292 146.671 47.8288C143.095 44.4137 137.441 44.5381 134.033 48.1068L129.377 52.8043L131.335 52.8642L142.655 56.418L145.3 58.99L149.06 56.8713Z" fill="#E6E6E6"/>
<path d="M159.161 68.7145C159.145 68.7306 155.245 72.8965 154.702 72.7183C151.466 71.609 144.879 64.5445 143.239 62.901L149.06 56.8708C149.147 56.5678 149.227 56.2571 149.283 55.939C152.135 55.2741 155.251 56.0216 157.521 58.1899C157.61 58.2751 157.692 58.3684 157.781 58.4536C160.259 61.0214 160.369 65.5664 159.161 68.7145Z" fill="#E6E6E6"/>
<path d="M110.397 80.6332L110.351 80.6817L100.984 90.4739L100.822 90.319C99.0267 88.1561 98.8652 85.0619 98.9159 83.5476C98.9339 82.9768 99.1747 82.4487 99.585 82.0514L105.782 76.1634L105.813 76.1311C107.22 77.645 108.769 79.1558 110.397 80.6332Z" fill="#E6E6E6"/>
<path d="M147.593 56.5073C143.117 55.8531 139.116 52.5741 137.595 48.3057C137.392 47.7397 137.235 47.1411 137.292 46.5457C137.349 45.9502 137.659 45.3492 138.191 45.084" stroke="#B3B3B3" stroke-width="0.25" stroke-miterlimit="10"/>
<path d="M159.344 68.4254C154.176 67.327 151.089 62.2136 149.904 57.0584" stroke="#B3B3B3" stroke-width="0.25" stroke-miterlimit="10"/>
<path d="M96.5056 91.6896C94.2876 93.0218 107.481 110.573 119.117 113.747L119.519 109.722C119.519 109.722 98.8021 90.324 96.5056 91.6896Z" fill="#F6F8FA"/>
<path d="M136.572 96.3461L136.58 96.3539C136.58 96.3539 134.728 98.0821 132.217 100.403C127.9 104.404 121.637 110.151 119.601 111.812C119.236 112.113 118.755 112.211 118.301 112.102C111.694 110.496 101.848 100.691 96.7836 93.3789C96.357 92.7704 96.4245 91.9529 96.9426 91.4265L99.3538 88.9017L108.721 79.1095L108.759 79.0691C109.497 79.7421 110.249 80.3989 111.01 81.0635L110.979 81.0959L113.779 93.425L124.268 91.0631C126.826 92.9954 128.286 91.7908 128.286 91.7908L128.286 91.7749C129.715 91.593 130.783 90.5396 130.783 90.5396L130.775 90.5318C131.628 90.0615 132.053 89.3074 132.053 89.3074L132.045 89.2838L143.392 86.7209L136.276 61.9772C139.418 58.8659 143.557 58.038 144.278 57.024L144.374 57.0852C144.577 57.2788 144.805 57.5115 145.08 57.7748C146.996 59.6816 153.016 66.2198 156.438 70.1533C156.438 70.1533 138.578 94.7492 136.572 96.3461Z" fill="url(#paint6_linear)"/>
<path opacity="0.3" d="M108.047 71.859C108.047 71.859 109.879 83.4489 109.911 83.4798L109.888 83.5041L112.68 95.8413L121.837 93.786C121.838 93.8019 121.846 93.8096 121.846 93.8096L139.669 89.7415C134.858 96.5498 131.06 101.403 131.06 101.403C134.789 97.9852 138.481 93.6814 141.813 89.2507C141.943 89.0657 142.081 88.8883 142.219 88.711C148.228 80.6168 153.145 72.2376 154.655 68.1719C153.748 66.9956 153.806 67.4379 153.806 67.4379C150.219 74.132 146.067 81.0129 141.848 87.0872C141.84 87.0952 141.84 87.0952 141.832 87.1033L137.04 66.0796L136.81 65.0706L128.434 66.974L108.047 71.859Z" fill="#B3B3B3"/>
<path d="M144.294 57.0233C119.977 80.9768 107.649 80.3448 107.649 80.3448L107.635 79.7431C113.073 74.9413 140.479 53.8907 140.486 53.8667C142.33 54.0797 144.378 56.9026 144.294 57.0233Z" fill="url(#paint7_linear)"/>
<path d="M113.012 67.7966C113.111 67.937 113.217 68.0852 113.324 68.2334C116.576 72.6697 123.054 79.7842 124.094 81.1952C124.118 81.2343 124.135 81.2656 124.16 81.3047C125.176 83.049 122.193 87.7968 119.727 87.7164C119.315 87.7096 118.931 87.5596 118.567 87.2586C116.152 85.3549 113.551 83.2572 111.018 81.0709C110.258 80.4221 109.505 79.7494 108.768 79.0764C107.14 77.599 105.582 76.0963 104.183 74.5743C100.686 70.8326 98.0765 67.0873 97.528 63.7165C97.0824 61.0009 97.9424 59.2074 99.9946 58.2274C107.678 54.5488 119.048 51.914 127.145 51.9102C127.549 51.9092 127.945 51.9164 128.334 51.9316C130.522 52.0102 132.562 52.1476 134.364 52.3218C136.484 52.5208 138.542 53.0776 140.441 53.9469L140.465 53.9543C139.564 55.3685 132.795 63.8043 131.354 64.1925C129.905 64.5729 129.549 64.5728 129.549 64.5728L116.018 67.6037L113.012 67.7966Z" fill="url(#paint8_linear)"/>
<path d="M205.366 73.6324C206.166 73.9317 210.706 75.9154 207.085 80.5029C192.378 86.3721 162.11 95.1425 145.893 86.2617L156.174 70.365C163.346 76.0223 183.394 76.4766 205.263 73.595C205.254 73.5873 205.302 73.6021 205.366 73.6324Z" fill="url(#paint9_linear)"/>
<path opacity="0.18" d="M156.085 70.2797L155.26 71.5654C155.667 71.0098 155.981 70.583 156.157 70.3336C156.133 70.3103 156.109 70.3029 156.085 70.2797Z" fill="url(#paint10_linear)"/>
<path opacity="0.18" d="M156.085 70.2797L155.26 71.5654C155.667 71.0098 155.981 70.583 156.157 70.3336C156.133 70.3103 156.109 70.3029 156.085 70.2797Z" fill="url(#paint11_linear)"/>
<path opacity="0.18" d="M153.4 58.1222C148.136 63.2767 140.025 65.3406 132.926 63.3261C125.826 61.3115 120 55.2839 118.22 48.1216" stroke="#99C3E4" stroke-width="0.5" stroke-miterlimit="10" stroke-linecap="round" stroke-linejoin="round"/>
<path opacity="0.18" d="M156.646 63.2953C150.379 71.5141 138.936 75.3784 128.951 72.6509C118.966 69.9234 111.045 60.7808 109.776 50.5175" stroke="#99C3E4" stroke-width="0.5" stroke-miterlimit="10" stroke-linecap="round" stroke-linejoin="round"/>
<path opacity="0.18" d="M129.933 109.857C128.502 87.6027 117.298 66.1338 99.8422 52.2178" stroke="#99C3E4" stroke-width="0.5" stroke-miterlimit="10" stroke-linecap="round" stroke-linejoin="round"/>
<path opacity="0.18" d="M135.877 98.421C136.669 89.8157 141.448 81.6614 148.556 76.7516C155.663 71.8418 164.982 70.2662 173.324 72.5545" stroke="#99C3E4" stroke-width="0.5" stroke-miterlimit="10" stroke-linecap="round" stroke-linejoin="round"/>
<path opacity="0.18" d="M157.88 92.5257C160.162 85.6384 165.641 79.8851 172.416 77.288C179.191 74.691 187.12 75.285 193.449 78.8693C196.654 80.6923 199.64 83.6055 199.927 87.2831" stroke="#99C3E4" stroke-width="0.5" stroke-miterlimit="10" stroke-linecap="round" stroke-linejoin="round"/>
<path opacity="0.18" d="M186.552 88.8848C185.76 86.9374 183.495 85.9811 181.401 85.8845C177.087 85.6942 172.83 88.5924 171.431 92.6715" stroke="#99C3E4" stroke-width="0.5" stroke-miterlimit="10" stroke-linecap="round" stroke-linejoin="round"/>
<path opacity="0.18" d="M114.395 116.386C115.841 101.428 109.043 85.9153 97.0743 76.8064" stroke="#99C3E4" stroke-width="0.5" stroke-miterlimit="10" stroke-linecap="round" stroke-linejoin="round"/>
<path opacity="0.3" d="M140.336 53.8623C140.336 53.8623 135.805 62.8113 116.018 67.6038L131.562 64.2673C131.57 64.275 137.891 58.614 140.336 53.8623Z" fill="#B3B3B3"/>
<path d="M132.728 75.8403L126.013 82.9201C125.639 82.857 125.345 82.808 125.13 82.7731L122.778 73.2704L132.728 75.8403Z" fill="#BBEAC7"/>
<path opacity="0.3" d="M142.228 88.7189C142.09 88.8963 141.951 89.0736 141.821 89.2587L142.318 89.1448L142.228 88.7189Z" fill="#B3B3B3"/>
<path d="M124.268 91.0627L113.779 93.4245L110.979 81.0955L111.01 81.0631C113.542 83.2494 116.152 85.3549 118.559 87.2508C118.922 87.5518 119.306 87.7018 119.719 87.7086C120.384 88.0346 120.989 88.1639 121.535 88.144L121.536 88.1598C122.543 89.5241 123.461 90.4467 124.268 91.0627ZM137.909 62.6539L129.533 64.5573L116.018 67.6036L113.331 68.2094L113.323 68.2175C116.575 72.6538 123.053 79.7683 124.093 81.1794C124.118 81.2184 124.135 81.2497 124.159 81.2888C124.454 81.6785 124.648 82.1891 124.757 82.7413L124.812 82.7322C124.812 82.7322 124.931 82.7533 125.138 82.7805L122.786 73.2778L132.743 75.8395L126.029 82.9193C126.792 83.0451 127.827 83.2284 128.814 83.4285C130.717 83.8224 131.827 82.2214 132.265 82.9802C132.538 83.4575 131.337 84.2444 131.057 84.4566C130.372 84.9629 129.235 85.4553 128.938 86.3016C128.569 87.4188 129.386 89.4211 130.634 89.5759L132.085 89.3063L132.076 89.2827L143.424 86.7197L138.163 63.6544L137.909 62.6539Z" fill="url(#paint12_linear)"/>
<path d="M206.631 74.1591C207.778 74.7597 209.247 75.8682 209.25 77.6507C209.256 78.2448 209.064 78.8036 208.75 79.2779C208.384 79.8405 207.808 80.281 207.124 80.4941L207.084 80.5029C210.706 75.9154 206.158 73.9397 205.366 73.6323C205.598 73.6985 206.077 73.8623 206.631 74.1591Z" fill="#91BDFD"/>
<path d="M216.723 74.4204C217.995 75.9293 213.581 78.213 212.623 77.2517C212.556 77.0947 212.408 76.5197 213.144 76.1707C213.743 76.0466 215.842 74.0436 216.723 74.4204Z" fill="url(#paint13_linear)"/>
<path opacity="0.24" d="M216.763 74.4589C216.757 75.18 213.444 76.4412 214.347 75.7876C214.877 75.4115 216.685 74.4923 216.763 74.4589Z" fill="#DB5437"/>
<path d="M216.098 72.8337C216.098 72.8337 218.669 73.9893 215.063 75.5739C215.055 75.582 215.047 75.5742 215.047 75.5742C212.615 76.5467 212.278 76.0709 212.106 75.8449C211.648 75.2212 212.253 74.685 213.186 74.2921C213.367 74.2485 216.098 72.8337 216.098 72.8337Z" fill="url(#paint14_linear)"/>
<path opacity="0.24" d="M216.459 73.0237C216.453 73.7448 213.14 75.006 214.043 74.3524C214.573 73.9763 216.381 73.0571 216.459 73.0237Z" fill="#DB5437"/>
<path d="M211.89 74.4476C211.302 74.0407 211.655 73.5734 212.56 72.9672C213.187 72.3434 214.957 73.1522 215.386 72.5565C215.823 71.9527 214.024 70.5742 212.325 70.7937C215.145 70.4386 216.031 71.037 216.477 72.4216C216.922 73.8061 212.535 74.893 211.89 74.4476Z" fill="url(#paint15_linear)"/>
<path d="M124.268 91.063C123.461 90.4469 122.543 89.5243 121.536 88.1601L121.535 88.1442C123.966 88.067 125.167 84.9904 124.757 82.7416L124.812 82.7324C124.812 82.7324 124.931 82.7536 125.138 82.7807C125.353 82.8156 125.655 82.8565 126.021 82.9277C126.785 83.0535 127.819 83.2367 128.806 83.4368C130.709 83.8307 131.819 82.2297 132.258 82.9886C132.531 83.4658 131.329 84.2528 131.049 84.4649C130.364 84.9712 129.227 85.4636 128.931 86.3099C128.561 87.4272 129.378 89.4295 130.626 89.5842L132.077 89.3146C132.077 89.3146 131.652 90.0687 130.799 90.539L130.807 90.5468C130.807 90.5468 129.732 91.6083 128.31 91.7821L128.31 91.798C128.286 91.7906 126.826 92.9952 124.268 91.063Z" fill="url(#paint16_linear)"/>
<path d="M124.757 82.7415C125.167 84.9903 123.966 88.0669 121.535 88.1441C120.989 88.1641 120.384 88.0348 119.719 87.7087C122.184 87.7892 125.168 83.0414 124.152 81.2971C124.454 81.6786 124.648 82.1893 124.757 82.7415Z" fill="#91BDFD"/>
<path d="M126.005 82.9282L132.728 75.8403L122.77 73.2785L125.122 82.7812L125.123 82.7971" fill="#43AA82"/>
<path d="M141.905 91.4437C140.344 93.0942 138.577 94.7334 136.572 96.3461C136.432 96.4601 136.292 96.5741 136.137 96.6884" stroke="#B3B3B3" stroke-width="0.25" stroke-miterlimit="10"/>
<path d="M131.362 101.753C138.655 97.314 158.565 72.2928 157.736 71.392C157.46 70.4632 155.369 68.2038 154.847 67.9063C154.831 67.8908 154.815 67.8912 154.799 67.8757C154.799 67.8757 146.649 86.7677 131.061 101.403L131.362 101.753Z" fill="url(#paint17_linear)"/>
<path d="M130.664 92.8885C130.696 92.8716 130.72 92.8468 130.744 92.822" stroke="#B3B3B3" stroke-width="0.25" stroke-miterlimit="10"/>
<path opacity="0.24" d="M126.824 89.9766C128.589 91.2132 129.908 91.0179 130.775 90.5314C130.94 90.4406 131.08 90.3425 131.212 90.2366C131.22 90.2443 129.074 92.589 126.824 89.9766Z" fill="#DB5437"/>
<path opacity="0.3" d="M130.61 89.5845C129.355 89.4378 128.538 87.4197 128.915 86.3102C129.203 85.4562 130.348 84.9715 131.033 84.4652C131.314 84.2531 132.523 83.4738 132.242 82.9888C132.242 82.9888 132.655 84.3741 131.134 85.3662C129.613 86.3582 129.941 88.4663 132.061 89.3149L130.61 89.5845Z" fill="#B3B3B3"/>
<path opacity="0.24" d="M126.102 91.2364C126.867 91.7504 127.607 91.8688 128.278 91.7827C128.294 91.7824 127.217 92.4557 126.102 91.2364Z" fill="#DB5437"/>
<path d="M154.031 35.6408C153.254 36.2758 152.791 37.102 152.786 37.9023C152.791 38.0765 152.811 38.2503 152.862 38.4076C152.948 38.3503 153.051 38.3718 153.124 38.4415C153.189 38.5034 153.199 38.5904 153.177 38.6621C153.388 39.1883 153.819 39.6463 154.41 39.8392C155.142 40.9877 157.179 42.3293 158.614 43.0029C158.545 42.7826 158.579 42.5362 158.741 42.3663C158.903 42.1964 159.148 42.1514 159.37 42.1623C159.6 42.181 159.824 42.2553 160.039 42.3219C160.98 42.5864 161.98 42.6278 162.926 42.4327C163.091 42.4053 163.249 42.3701 163.414 42.3269C164.125 43.563 165.258 44.5521 166.594 45.0852C166.97 45.2433 167.369 45.3613 167.731 45.5514C168.06 45.7264 168.938 46.333 168.165 46.4767C168.047 46.5031 167.92 46.5059 167.801 46.5164C168.001 46.5992 168.217 46.6657 168.417 46.7326C168.544 46.7774 168.68 46.814 168.816 46.8506L168.809 46.8904C168.81 46.9537 168.827 47.0167 168.821 47.0882C168.862 47.4517 168.831 47.8247 168.753 48.1988C168.746 48.2227 171.201 47.8756 171.367 47.8323C172.862 47.4192 174.135 46.6544 175.169 45.5066C177.214 43.2355 177.125 39.1891 175.983 36.5364C175.32 34.9903 174.389 33.5134 173.157 32.3521C172.184 31.4387 169.993 29.2686 168.687 29.9866C167.694 30.5234 168.92 31.7719 169.232 33.2149C169.094 33.3922 168.833 33.4217 168.603 33.4188C167.018 33.3903 165.457 33.0444 163.941 32.5866C162.496 32.1509 161.217 31.672 159.687 31.9592C157.502 32.3796 155.426 33.6928 154.123 35.4961C154.092 35.5443 154.062 35.6084 154.031 35.6408Z" fill="#24497E"/>
<path d="M162.926 42.4325C162.845 42.6798 162.86 42.9885 163.033 43.2461C163.205 43.5038 163.402 43.7688 163.606 44.0257C163.606 44.0257 163.606 44.0257 163.614 44.0335C163.916 44.415 164.258 44.772 164.638 45.1043C165.165 45.5918 165.761 46.0223 166.38 46.3652C167.142 46.7842 167.958 47.0831 168.777 47.1998L168.65 48.1929C168.65 48.1929 168.69 48.1999 168.753 48.1986C168.831 47.8245 168.862 47.4515 168.821 47.0879C168.828 47.0165 168.81 46.9535 168.809 46.8901L168.816 46.8504C168.68 46.8137 168.545 46.7771 168.417 46.7324C168.217 46.6655 168.002 46.5989 167.802 46.5162C167.92 46.5056 168.047 46.5029 168.165 46.4765C168.938 46.3327 168.06 45.7262 167.731 45.5512C167.37 45.3611 166.971 45.2431 166.595 45.085C165.259 44.5519 164.126 43.5627 163.415 42.3266C163.241 42.3621 163.092 42.405 162.926 42.4325Z" fill="#24497E"/>
<path d="M167.048 33.9756C167.275 34.1924 167.615 33.8364 167.388 33.6195C167.161 33.4027 166.821 33.7588 167.048 33.9756Z" fill="#24497E"/>
<path opacity="0.3" d="M156.655 73.579C156.655 73.579 151.983 80.598 146.436 86.4876C146.436 86.4876 151.802 89.182 156.529 89.4266C161.257 89.6712 143.807 92.4555 156.655 73.579Z" fill="#B3B3B3"/>
<path opacity="0.3" d="M113.012 67.7966L110.911 65.4344L118.745 67.005L116.018 67.6037L113.012 67.7966Z" fill="#B3B3B3"/>
<path opacity="0.5" d="M182.883 139.241C182.93 139.224 182.985 139.199 183.032 139.182C187.641 137.473 191.227 133.377 192.091 128.121C193.362 120.377 188.204 113.083 180.575 111.817C177.425 111.3 174.35 111.89 171.722 113.311C170.376 114.038 169.163 114.983 168.113 116.116" stroke="#B3B3B3" stroke-width="0.25" stroke-miterlimit="10"/>
<path opacity="0.5" d="M182.66 134.588C183.029 136.085 183.153 137.643 183.016 139.183C182.743 142.326 181.439 145.413 179.074 147.889C173.633 153.586 164.695 153.87 159.1 148.526C154.381 144.019 153.545 136.955 156.668 131.428" stroke="#B3B3B3" stroke-width="0.25" stroke-miterlimit="10"/>
<path opacity="0.5" d="M159.125 111.013C162.349 108.352 167.129 108.46 170.234 111.426C170.826 111.992 171.317 112.63 171.714 113.303C171.739 113.358 171.772 113.405 171.797 113.46" stroke="#B3B3B3" stroke-width="0.25" stroke-miterlimit="10"/>
<path d="M120.836 128.231L110.735 138.808" stroke="#A7B6CB" stroke-width="0.25" stroke-miterlimit="10" stroke-linecap="round"/>
<path d="M123.664 125.269L121.609 127.422" stroke="#A7B6CB" stroke-width="0.25" stroke-miterlimit="10" stroke-linecap="round"/>
<path d="M116.497 134.934L113.591 137.977" stroke="#A7B6CB" stroke-width="0.25" stroke-miterlimit="10" stroke-linecap="round"/>
<path d="M83.2307 85.6038L71.9708 97.3944" stroke="#A7B6CB" stroke-width="0.25" stroke-miterlimit="10" stroke-linecap="round"/>
<path d="M77.7202 89.7022L75.9118 91.5959" stroke="#A7B6CB" stroke-width="0.25" stroke-miterlimit="10" stroke-linecap="round"/>
<path d="M79.3894 87.9545L78.4929 88.8932" stroke="#A7B6CB" stroke-width="0.25" stroke-miterlimit="10" stroke-linecap="round"/>
<path opacity="0.5" d="M154.882 138.186C150.643 138.825 146.184 137.585 142.868 134.417C137.151 128.958 136.995 119.85 142.513 114.072C148.031 108.294 157.136 108.031 162.853 113.49C163.858 114.451 164.684 115.518 165.345 116.66" stroke="#B3B3B3" stroke-width="0.25" stroke-miterlimit="10"/>
<path d="M143.619 59.9218C143.635 62.5675 148.857 68.545 152.764 67.2786C153.108 66.7561 153.484 64.9336 153.729 64.2231C154.217 62.7705 154.905 61.4006 155.753 60.1223L155.761 60.1142C155.785 60.1374 155.81 60.1607 155.842 60.1916C156.278 60.5148 156.768 60.7813 157.287 60.9521C159.515 61.7032 162.181 60.892 163.602 59.0306C164.54 57.8058 165.015 56.1713 166.295 55.3509C166.763 55.0395 167.329 54.8528 167.586 54.3718C167.883 53.8661 167.701 53.2126 167.671 52.627C167.657 52.3817 167.668 52.1438 167.709 51.8893L167.764 51.5237C167.762 51.4762 167.785 51.4203 167.791 51.3647L166.357 50.6753C165.768 51.8766 164.731 52.5886 164.042 52.2552C163.36 51.9295 163.275 50.6718 163.855 49.4469L157.394 46.2933L156.396 45.0159C156.511 45.156 154.228 45.127 154.288 45.3079L152.651 46.762C151.947 47.1261 152.365 47.0614 152.242 47.8564L153.068 48.9236C153.051 49.2329 152.995 49.5352 152.866 49.7836C152.178 51.1377 151.291 52.4565 149.947 53.2307C149.493 53.4784 148.96 53.6961 148.511 53.4842C146.88 56.4909 144.671 58.8846 143.619 59.9218Z" fill="url(#paint18_linear)"/>
<path d="M159.144 42.9987L159.122 43.0705C159.123 43.118 159.117 43.1736 159.11 43.2292C159.118 43.237 159.118 43.237 159.103 43.2373C159.106 43.364 159.092 43.4752 159.072 43.5945C158.899 44.6678 158.289 45.6636 157.418 46.3166L157.41 46.3247L157.634 46.4307L163.559 49.3188L163.751 49.4096L163.879 49.4702C163.879 49.4702 163.887 49.4621 163.887 49.4463C164.415 48.3572 165.31 47.6641 165.986 47.7839C166.073 47.7899 166.145 47.8121 166.217 47.8501C166.907 48.1835 166.985 49.4494 166.388 50.6747C166.388 50.6747 166.389 50.6905 166.381 50.6986L167.808 51.3961C167.808 51.3961 167.816 51.388 167.808 51.3802C168.043 50.3055 168.565 49.272 168.753 48.1984C168.831 47.8243 168.862 47.4513 168.821 47.0877C168.828 47.0163 168.81 46.9533 168.809 46.89L168.816 46.8502C168.68 46.8136 168.545 46.7769 168.417 46.7322C168.217 46.6653 168.001 46.5987 167.801 46.516C167.793 46.5082 167.786 46.5163 167.786 46.5163C166.282 45.9473 164.86 45.0992 163.614 44.0333C163.606 44.0256 163.606 44.0256 163.606 44.0256C163.387 43.8323 163.161 43.6313 162.95 43.43L162.942 43.4381C161.773 43.5747 160.422 43.3984 159.144 42.9987Z" fill="url(#paint19_linear)"/>
<path opacity="0.24" d="M162.973 52.3029C162.224 51.448 163.24 49.5559 163.743 49.4022C163.699 49.8548 163.454 50.2246 163.505 50.6909C163.563 51.1491 163.434 51.6907 163.759 52.0321C164.035 52.3271 164.993 52.2664 164.413 52.5486C164.006 52.7476 163.494 52.8619 162.973 52.3029Z" fill="#DB5437"/>
<path d="M166.053 50.5554C166.06 50.5473 166.06 50.5473 166.06 50.5315C166.657 49.3062 166.579 48.0404 165.889 47.7069C165.192 47.3658 164.147 48.0859 163.551 49.3112C163.543 49.3192 163.543 49.3192 163.544 49.3351C162.963 50.5442 163.048 51.8019 163.73 52.1434C164.427 52.4688 165.456 51.7648 166.053 50.5554Z" fill="#24497E"/>
<path d="M163.879 49.4705C163.298 50.6796 163.384 51.9374 164.066 52.2789C164.755 52.6123 165.784 51.9084 166.381 50.699C166.389 50.6909 166.389 50.6909 166.388 50.675C166.985 49.4498 166.907 48.1839 166.217 47.8505C165.52 47.5093 164.475 48.2295 163.879 49.4547C163.879 49.4547 163.871 49.4628 163.879 49.4705Z" fill="white"/>
<path opacity="0.24" d="M158.741 42.3663C158.579 42.5362 158.545 42.7826 158.614 43.0029C158.614 43.0345 158.623 43.0581 158.631 43.0817C158.666 43.1919 158.732 43.3013 158.813 43.3946C158.887 43.4801 158.967 43.5417 159.072 43.5949C159.144 43.6488 159.216 43.6868 159.312 43.7164C159.472 43.7921 159.656 43.8435 159.839 43.8791C160.428 44.0087 161.024 44.0669 161.634 44.0614C162.077 44.0517 162.544 44.0176 162.945 44.199C163.329 44.3648 163.591 44.7076 163.891 44.9942C164.573 45.6763 165.447 46.1404 166.38 46.3655C166.459 46.3795 166.531 46.4017 166.611 46.4158C166.77 46.444 166.921 46.4645 167.095 46.4765C167.318 46.5191 167.548 46.522 167.786 46.5167C167.786 46.5167 167.793 46.5087 167.801 46.5164C167.92 46.5059 168.047 46.5031 168.165 46.4767C168.938 46.3329 168.06 45.7264 167.731 45.5514C167.37 45.3613 166.971 45.2433 166.594 45.0852C165.259 44.5521 164.126 43.563 163.414 42.3269C163.249 42.3701 163.092 42.4053 162.926 42.4327C161.98 42.6278 160.98 42.5864 160.039 42.3219C159.824 42.2553 159.6 42.181 159.37 42.1623C159.148 42.1514 158.903 42.1963 158.741 42.3663Z" fill="#DB5437"/>
<path opacity="0.24" d="M165.903 54.5594C165.808 54.5457 165.704 54.5242 165.594 54.5425C165.491 54.5527 165.374 54.6107 165.328 54.7068C165.276 54.8109 165.326 54.9207 165.391 55.0144C165.523 55.2016 165.836 55.3928 166.061 55.4988C166.312 55.4298 167.429 54.7319 167.603 54.3874C167.449 54.2561 166.941 54.5604 166.736 54.5808C166.451 54.6029 166.174 54.601 165.903 54.5594Z" fill="#DB5437"/>
<path opacity="0.24" d="M155.762 60.1304C155.655 59.9822 153.875 58.7617 153.341 56.0085C153.401 56.8549 154.545 60.9177 155.762 60.1304Z" fill="#DB5437"/>
<path opacity="0.24" d="M158.688 47.7465C158.04 47.4676 157.326 47.1268 157.057 46.4831C159.063 47.1916 161.01 48.0915 162.842 49.1604C163.107 49.3209 163.316 49.7837 162.869 49.6193C162.469 49.4696 162.066 49.1933 161.658 49.0201C160.674 48.606 159.689 48.1761 158.688 47.7465Z" fill="#DB5437"/>
<path d="M166.373 50.6911C166.38 50.6831 166.38 50.6831 166.38 50.6672C166.976 49.442 166.898 48.1761 166.209 47.8427C165.512 47.5015 164.467 48.2216 163.871 49.4469C163.863 49.455 163.863 49.455 163.863 49.4708C163.282 50.6799 163.368 51.9377 164.05 52.2792C164.747 52.6045 165.784 51.8925 166.373 50.6911Z" stroke="#24497E" stroke-width="0.25" stroke-miterlimit="10" stroke-linecap="round" stroke-linejoin="round"/>
<path opacity="0.24" d="M166.144 51.3696C166.24 51.3992 166.359 51.4362 166.447 51.4738C166.863 51.6232 167.289 51.8752 167.696 51.9851C167.712 51.9848 167.727 51.9844 167.744 51.9999L167.775 51.6427C167.734 51.604 167.678 51.5656 167.637 51.5427C167.244 51.3375 166.828 51.1565 166.419 50.9674C166.335 51.0881 166.244 51.2327 166.144 51.3696Z" fill="#DB5437"/>
<path d="M167.91 51.3543C167.91 51.3543 167.91 51.3702 167.902 51.3783C167.402 52.6331 167.566 53.8733 168.27 54.1589C168.983 54.4522 169.978 53.6697 170.486 52.4068C170.995 51.1439 170.83 49.8879 170.117 49.5945C169.413 49.309 168.434 50.0911 167.91 51.3543Z" fill="#24497E"/>
<path d="M168.146 51.6267C167.646 52.8815 167.81 54.1217 168.514 54.4073C169.226 54.7006 170.222 53.9181 170.73 52.6552C171.239 51.3923 171.074 50.1362 170.361 49.8429C169.649 49.5496 168.662 50.3398 168.138 51.6031C168.154 51.6027 168.154 51.6186 168.146 51.6267Z" fill="white"/>
<path d="M168.154 51.6029C168.154 51.6029 168.154 51.6187 168.146 51.6268C167.646 52.8817 167.81 54.1219 168.514 54.4074C169.227 54.7007 170.222 53.9183 170.73 52.6554C171.239 51.3924 171.074 50.1364 170.361 49.8431C169.657 49.5575 168.67 50.3319 168.154 51.6029Z" fill="white" stroke="#24497E" stroke-width="0.25" stroke-miterlimit="10" stroke-linecap="round" stroke-linejoin="round"/>
<path d="M168.147 51.6267L167.786 51.4683L166.322 50.8746" stroke="#24497E" stroke-width="0.25" stroke-miterlimit="10" stroke-linecap="round" stroke-linejoin="round"/>
<path d="M163.879 49.4703L157.402 46.317L156.568 45.9076" stroke="#24497E" stroke-width="0.25" stroke-miterlimit="10" stroke-linecap="round" stroke-linejoin="round"/>
<path d="M152.862 38.4075C152.864 38.4866 152.889 38.5574 152.915 38.6281C153.12 39.2732 153.624 39.8009 154.256 40.0326C155.094 41.2976 156.698 42.4111 158.631 43.0816C158.783 43.1337 158.927 43.178 159.078 43.2302C159.086 43.2379 159.094 43.2298 159.102 43.2376C159.158 43.2601 159.214 43.2668 159.262 43.2816C160.555 43.6651 161.794 43.7963 162.884 43.6773C163.436 44.2038 164.018 44.6822 164.638 45.1043C165.412 45.6577 166.231 46.1151 167.095 46.4763C167.504 46.6654 167.919 46.8147 168.343 46.9559C168.478 46.9925 168.622 47.0369 168.757 47.0735C168.781 47.0809 168.797 47.0806 168.821 47.088C168.827 47.0165 168.81 46.9536 168.808 46.8902L168.815 46.8504C168.68 46.8138 168.544 46.7772 168.416 46.7325C168.217 46.6655 168.001 46.599 167.801 46.5162C167.92 46.5057 168.046 46.5029 168.165 46.4766C168.938 46.3328 168.059 45.7262 167.73 45.5513C167.369 45.3611 166.97 45.2432 166.594 45.0851C165.258 44.552 164.125 43.5628 163.414 42.3267C163.249 42.37 163.091 42.4051 162.926 42.4325C161.979 42.6276 160.98 42.5862 160.039 42.3217C159.823 42.2552 159.6 42.1809 159.37 42.1622C159.147 42.1512 158.903 42.1962 158.741 42.3661C158.578 42.5361 158.545 42.7824 158.613 43.0027C157.179 42.3292 155.142 40.9876 154.41 39.8391C153.819 39.6461 153.388 39.1881 153.177 38.662C153.199 38.5902 153.189 38.5033 153.124 38.4413C153.043 38.3639 152.948 38.3501 152.862 38.4075Z" fill="#24497E"/>
<path opacity="0.24" d="M150.861 53.0524C150.861 53.0524 143.624 62.4491 147.393 65.6461C147.393 65.6461 143.822 62.7617 143.627 59.9297C143.627 59.9297 146.885 56.7128 148.39 53.7405C149.895 50.7682 149.895 50.7682 149.895 50.7682L150.861 53.0524Z" fill="#DB5437"/>
<path d="M152.792 38.4484C151.848 39.3882 151.187 40.5515 150.717 41.7739C150.247 42.9964 149.953 44.2625 149.658 45.5128C149.363 46.7631 149.06 47.9899 148.565 49.1574C148.318 49.7412 148.055 50.3412 147.864 50.9792C147.777 51.298 147.697 51.6245 147.65 51.9662C147.618 52.2918 147.588 52.6806 147.748 53.0495C147.858 53.3402 148.086 53.6045 148.382 53.7327C148.382 53.7485 148.406 53.7401 148.406 53.7401C148.47 53.7862 148.55 53.8161 148.63 53.8302C149.044 53.9162 149.414 53.8051 149.743 53.6711C150.143 53.4959 150.502 53.2662 150.828 52.9896C151.022 52.8348 151.201 52.6646 151.371 52.4865C151.842 52.0087 152.233 51.4693 152.577 50.9151C152.752 50.634 152.904 50.3454 153.055 50.0569C153.131 49.9285 153.23 49.7282 153.265 49.5611C153.316 49.3777 153.328 49.2032 153.348 49.0364C153.378 48.3385 153.3 47.7382 153.525 47.1945C153.718 46.6357 154.078 46.1445 154.571 45.8722C155.048 45.6003 155.68 45.5547 156.139 45.8377C156.589 46.113 156.873 46.7406 156.672 47.2758L156.665 47.2839C156.643 47.3557 156.684 47.4261 156.748 47.4563C156.804 47.4789 156.875 47.4535 156.905 47.3895C157.012 47.2129 157.062 47.0137 157.081 46.8152C157.089 46.8071 157.097 46.8149 157.105 46.8068C157.144 46.7821 157.175 46.7656 157.206 46.7491C157.277 46.7079 157.339 46.659 157.393 46.6182C157.448 46.5774 157.495 46.5447 157.549 46.5039C157.58 46.4873 157.611 46.455 157.634 46.4307C157.65 46.4303 157.642 46.4226 157.642 46.4226C158.576 45.7207 159.165 44.8284 159.312 43.716C159.333 43.5809 159.337 43.4461 159.342 43.3113C159.318 43.3039 159.294 43.2965 159.262 43.2814C159.214 43.2666 159.166 43.2518 159.11 43.2292C158.958 43.1613 158.79 43.0937 158.614 43.0025C157.179 42.329 155.143 40.9873 154.41 39.8389C153.819 39.6459 153.388 39.1879 153.177 38.6618C153.199 38.59 153.189 38.503 153.124 38.4411C153.051 38.3714 152.948 38.3499 152.862 38.4072C152.83 38.4079 152.815 38.4241 152.792 38.4484Z" fill="#24497E"/>
<path d="M163.119 58.1453C163.275 58.2452 163.566 58.0684 163.769 57.7504C163.971 57.4323 164.009 57.0935 163.852 56.9936C163.695 56.8937 163.404 57.0706 163.202 57.3886C162.999 57.7066 162.962 58.0454 163.119 58.1453Z" fill="white"/>
<path opacity="0.3" d="M151.929 67.4713C151.67 67.8889 145.684 68.0364 141.958 59.372L144.294 57.0231L145.348 58.0457C145.348 58.0457 143.904 59.6065 143.627 59.9295C143.749 62.7076 148.314 67.7013 151.929 67.4713Z" fill="#B3B3B3"/>
<path d="M119.117 113.747C110.558 114.981 99.4111 103.129 95.8985 92.4711" stroke="#A7B6CB" stroke-width="0.25" stroke-miterlimit="10" stroke-linecap="round"/>
<path d="M98.4679 97.8493C90.9953 108.661 80.4309 118.733 69.9661 126.688C60.1392 134.153 49.6072 140.636 39.0495 147.032" stroke="#A7B6CB" stroke-width="0.25" stroke-miterlimit="10" stroke-linecap="round"/>
<path d="M44.4506 152.871C43.3063 152.397 42.1994 151.835 41.2456 151.048C40.1462 150.137 39.2844 148.896 39.0605 147.491C38.9583 146.868 39.1074 145.819 39.283 145.213" stroke="#A7B6CB" stroke-width="0.25" stroke-miterlimit="10" stroke-linecap="round"/>
<path d="M89.705 174.256L97.3762 181.582L104.687 173.926L97.0159 166.601L89.705 174.256Z" fill="url(#paint20_radial)"/>
<path d="M85.6248 174.344L88.1792 176.784L90.6136 174.235L88.0592 171.795L85.6248 174.344Z" stroke="#59E3AD" stroke-width="0.25" stroke-miterlimit="10"/>
<path d="M81.9797 105.389C81.9797 105.389 79.783 108.924 77.4318 108.674C77.4318 108.674 78.5668 106.122 81.9797 105.389Z" stroke="#D3DBE5" stroke-width="0.25" stroke-miterlimit="10" stroke-linecap="round"/>
<path d="M86.8391 91.0145C86.8391 91.0145 85.8153 92.9147 83.9507 93.13C83.9584 93.1219 84.2297 91.5552 86.8391 91.0145Z" stroke="#D3DBE5" stroke-width="0.25" stroke-miterlimit="10" stroke-linecap="round"/>
<path d="M88.0074 35.4999C88.335 37.5922 89.0486 39.5888 90.3019 41.2962C92.5296 44.3211 96.7154 46.0749 100.199 44.6674C102.506 43.7451 104.167 41.6171 104.926 39.2633C106.334 34.8987 104.593 29.6924 100.821 27.05L100.651 26.9032C102.441 23.9088 103.089 20.2106 102.074 16.8738C100.834 12.7656 96.9441 9.46831 92.6546 9.33291C91.14 9.27908 89.6203 9.66901 88.2824 10.3718C86.3173 7.39663 81.8879 6.38492 78.8423 8.22654C75.7731 10.0766 74.6039 14.4993 76.3747 17.6293L76.6064 17.7113C75.5547 20.7608 75.5976 24.1903 76.8655 27.165C78.6637 31.4353 82.8599 34.607 87.4602 35.1475L88.0074 35.4999Z" fill="white"/>
<path d="M100.813 27.0585C104.585 29.7008 106.326 34.9072 104.918 39.2717C104.159 41.6255 102.499 43.7536 100.191 44.6758C96.7153 46.0753 92.5217 44.3295 90.294 41.3046C89.0488 39.6049 88.3272 37.6006 87.9996 35.5083C87.7463 33.874 87.7535 32.1943 87.8965 30.567" stroke="#D3DBE5" stroke-width="0.25" stroke-miterlimit="10" stroke-linecap="round" stroke-linejoin="round"/>
<path d="M87.4525 35.1557C82.8599 34.6071 78.656 31.4434 76.8578 27.1732C75.5977 24.1904 75.5548 20.7609 76.5987 17.7195C77.0422 16.3946 77.7016 15.1522 78.5464 14.0403" stroke="#D3DBE5" stroke-width="0.25" stroke-miterlimit="10" stroke-linecap="round" stroke-linejoin="round"/>
<path d="M99.2086 28.8522C99.7329 28.2544 100.208 27.5943 100.628 26.9117C102.417 23.9173 103.065 20.2191 102.05 16.8823C100.81 12.7741 96.9202 9.47678 92.6307 9.34138C91.1162 9.28755 89.5965 9.67749 88.2586 10.3803C85.8015 11.6544 83.901 14.0017 83.5393 16.7508" stroke="#D3DBE5" stroke-width="0.25" stroke-miterlimit="10" stroke-linecap="round" stroke-linejoin="round"/>
<path d="M88.3067 10.411C88.3063 10.3951 88.2901 10.3797 88.2738 10.3642C86.3087 7.38895 81.8793 6.37724 78.8337 8.21886C75.7646 10.0689 74.5954 14.4916 76.3661 17.6216" stroke="#D3DBE5" stroke-width="0.25" stroke-miterlimit="10" stroke-linecap="round" stroke-linejoin="round"/>
<path d="M200.38 69.8914C189.197 71.3891 177.752 70.8566 166.749 68.3178" stroke="#A7B6CB" stroke-width="0.25" stroke-miterlimit="10" stroke-linecap="round"/>
<path d="M197.199 67.7512C195.466 67.8131 193.74 67.8828 191.999 67.9527" stroke="#A7B6CB" stroke-width="0.25" stroke-miterlimit="10" stroke-linecap="round"/>
<path opacity="0.5" d="M200.444 75.1822C188.539 77.9555 175.971 77.8358 164.109 74.8169" stroke="#F6F8FA" stroke-width="0.25" stroke-miterlimit="10" stroke-linecap="round" stroke-linejoin="round"/>
<path opacity="0.5" d="M169.134 77.2179C168.164 77.065 167.186 76.9201 166.216 76.7672" stroke="#F6F8FA" stroke-width="0.25" stroke-miterlimit="10" stroke-linecap="round" stroke-linejoin="round"/>
<path opacity="0.5" d="M138.129 54.6635C131.772 53.2505 125.074 53.4137 118.801 55.1441" stroke="#F6F8FA" stroke-width="0.25" stroke-miterlimit="10" stroke-linecap="round" stroke-linejoin="round"/>
<path opacity="0.5" d="M110.74 142.634C110.55 145.253 108.672 147.56 106.332 148.744C103.991 149.929 101.247 150.124 98.6321 149.793C96.0256 149.47 93.5028 148.67 90.966 147.949C85.1505 146.295 79.2027 145.071 73.2026 144.308" stroke="#F6F8FA" stroke-width="0.25" stroke-miterlimit="10" stroke-linecap="round" stroke-linejoin="round"/>
<path opacity="0.5" d="M103.595 114.675C92.9673 122.768 81.1695 129.326 68.6948 134.092" stroke="#F6F8FA" stroke-width="0.25" stroke-miterlimit="10" stroke-linecap="round" stroke-linejoin="round"/>
<path opacity="0.5" d="M92.834 121.202C91.4745 121.993 90.1149 122.783 88.7476 123.582" stroke="#F6F8FA" stroke-width="0.25" stroke-miterlimit="10" stroke-linecap="round" stroke-linejoin="round"/>
<path opacity="0.24" d="M212.754 72.8279C212.754 72.8279 211.042 73.4202 210.844 74.4386C210.647 75.457 210.86 75.7692 210.255 76.6302C210.78 76.7137 211.669 74.8086 211.885 74.8752C211.486 75.7475 211.923 76.134 212.403 76.3136C211.987 77.1388 212.702 77.5588 212.993 77.4811C211.984 77.0121 212.737 76.3697 213.213 76.0977C212.065 76.424 211.923 75.4685 211.923 75.4685C211.923 75.4685 211.871 74.9864 212.629 74.5182C211.871 74.6299 211.681 74.3251 211.619 74.0492C211.494 73.4657 212.754 72.8279 212.754 72.8279Z" fill="#DB5437"/>
<path opacity="0.24" d="M214.862 71.4985C214.862 71.4985 215.197 70.9524 215.509 71.0644C215.509 71.0644 214.331 70.4961 212.499 70.7424C212.507 70.7502 213.669 70.6375 214.862 71.4985Z" fill="#DB5437"/>
<defs>
<linearGradient id="paint0_linear" x1="98.9629" y1="84.1902" x2="99.6131" y2="88.407" gradientUnits="userSpaceOnUse">
<stop stop-color="#9FEFCF"/>
<stop offset="0.6961" stop-color="#59E3AD"/>
</linearGradient>
<linearGradient id="paint1_linear" x1="214.615" y1="69.3407" x2="208.93" y2="80.028" gradientUnits="userSpaceOnUse">
<stop offset="0.1718" stop-color="#FFD672"/>
<stop offset="1" stop-color="#F3AD5F"/>
</linearGradient>
<radialGradient id="paint2_radial" cx="0" cy="0" r="1" gradientUnits="userSpaceOnUse" gradientTransform="translate(50.5659 149.029) rotate(43.681) scale(13.8434 13.8149)">
<stop offset="0.1464" stop-color="#1B375F"/>
<stop offset="1" stop-color="#24497E"/>
</radialGradient>
<radialGradient id="paint3_radial" cx="0" cy="0" r="1" gradientUnits="userSpaceOnUse" gradientTransform="translate(24.2295 157.896) rotate(43.681) scale(17.381 17.3453)">
<stop offset="0.1464" stop-color="#1B375F"/>
<stop offset="1" stop-color="#24497E"/>
</radialGradient>
<radialGradient id="paint4_radial" cx="0" cy="0" r="1" gradientUnits="userSpaceOnUse" gradientTransform="translate(110.792 155.471) rotate(-136.319) scale(53.7667 53.6562)">
<stop stop-color="#F6F8FA"/>
<stop offset="0.07" stop-color="#F3F5F8"/>
<stop offset="0.4968" stop-color="#E2E7EE"/>
<stop offset="0.8197" stop-color="#DCE2EA"/>
</radialGradient>
<radialGradient id="paint5_radial" cx="0" cy="0" r="1" gradientUnits="userSpaceOnUse" gradientTransform="translate(110.807 155.463) rotate(-136.319) scale(53.785 53.6744)">
<stop stop-color="#F6F8FA"/>
<stop offset="0.07" stop-color="#F3F5F8"/>
<stop offset="0.4968" stop-color="#E2E7EE"/>
<stop offset="0.8197" stop-color="#DCE2EA"/>
</radialGradient>
<linearGradient id="paint6_linear" x1="163.745" y1="72.0943" x2="99.4897" y2="97.1933" gradientUnits="userSpaceOnUse">
<stop offset="0.0202" stop-color="#4891FB"/>
<stop offset="0.5809" stop-color="#227BFB"/>
<stop offset="1" stop-color="#2F71D1"/>
</linearGradient>
<linearGradient id="paint7_linear" x1="136.696" y1="56.2108" x2="129.396" y2="64.4848" gradientUnits="userSpaceOnUse">
<stop stop-color="#9FEFCF"/>
<stop offset="0.6961" stop-color="#59E3AD"/>
</linearGradient>
<linearGradient id="paint8_linear" x1="155.683" y1="55.1642" x2="92.4494" y2="79.864" gradientUnits="userSpaceOnUse">
<stop offset="0.0202" stop-color="#4891FB"/>
<stop offset="0.5809" stop-color="#227BFB"/>
<stop offset="1" stop-color="#2F71D1"/>
</linearGradient>
<linearGradient id="paint9_linear" x1="192.904" y1="81.1946" x2="139.052" y2="79.7018" gradientUnits="userSpaceOnUse">
<stop offset="0.0202" stop-color="#4891FB"/>
<stop offset="0.5809" stop-color="#227BFB"/>
<stop offset="1" stop-color="#2F71D1"/>
</linearGradient>
<linearGradient id="paint10_linear" x1="155.996" y1="70.104" x2="155.484" y2="71.6157" gradientUnits="userSpaceOnUse">
<stop offset="0.0202" stop-color="#4891FB"/>
<stop offset="0.5809" stop-color="#227BFB"/>
<stop offset="1" stop-color="#2F71D1"/>
</linearGradient>
<linearGradient id="paint11_linear" x1="155.684" y1="70.617" x2="155.762" y2="71.6702" gradientUnits="userSpaceOnUse">
<stop offset="0.0202" stop-color="#4891FB"/>
<stop offset="0.5809" stop-color="#227BFB"/>
<stop offset="1" stop-color="#2F71D1"/>
</linearGradient>
<linearGradient id="paint12_linear" x1="139.214" y1="70.9925" x2="113.786" y2="86.2129" gradientUnits="userSpaceOnUse">
<stop stop-color="#9FEFCF"/>
<stop offset="0.6961" stop-color="#59E3AD"/>
</linearGradient>
<linearGradient id="paint13_linear" x1="213.182" y1="77.2857" x2="218.235" y2="73.6686" gradientUnits="userSpaceOnUse">
<stop offset="0.1718" stop-color="#FFD672"/>
<stop offset="1" stop-color="#F3AD5F"/>
</linearGradient>
<linearGradient id="paint14_linear" x1="212.405" y1="76.1995" x2="217.458" y2="72.5824" gradientUnits="userSpaceOnUse">
<stop offset="0.1718" stop-color="#FFD672"/>
<stop offset="1" stop-color="#F3AD5F"/>
</linearGradient>
<linearGradient id="paint15_linear" x1="211.059" y1="74.3208" x2="216.112" y2="70.7037" gradientUnits="userSpaceOnUse">
<stop offset="0.1718" stop-color="#FFD672"/>
<stop offset="1" stop-color="#F3AD5F"/>
</linearGradient>
<linearGradient id="paint16_linear" x1="126.923" y1="82.8273" x2="126.84" y2="93.036" gradientUnits="userSpaceOnUse">
<stop offset="0.1718" stop-color="#FFD672"/>
<stop offset="1" stop-color="#F3AD5F"/>
</linearGradient>
<linearGradient id="paint17_linear" x1="151.221" y1="76.5526" x2="139.505" y2="90.1778" gradientUnits="userSpaceOnUse">
<stop stop-color="#9FEFCF"/>
<stop offset="0.6961" stop-color="#59E3AD"/>
</linearGradient>
<linearGradient id="paint18_linear" x1="166.564" y1="48.9397" x2="139.681" y2="64.165" gradientUnits="userSpaceOnUse">
<stop offset="0.1718" stop-color="#FFD672"/>
<stop offset="1" stop-color="#F3AD5F"/>
</linearGradient>
<linearGradient id="paint19_linear" x1="165.249" y1="48.6508" x2="135.973" y2="20.3118" gradientUnits="userSpaceOnUse">
<stop offset="0.1718" stop-color="#FFD672"/>
<stop offset="1" stop-color="#F3AD5F"/>
</linearGradient>
<radialGradient id="paint20_radial" cx="0" cy="0" r="1" gradientUnits="userSpaceOnUse" gradientTransform="translate(92.1922 176.209) rotate(-136.319) scale(13.6947 13.6665)">
<stop stop-color="#F6F8FA"/>
<stop offset="0.07" stop-color="#F3F5F8"/>
<stop offset="0.4968" stop-color="#E2E7EE"/>
<stop offset="0.8197" stop-color="#DCE2EA"/>
</radialGradient>
</defs>
</svg>
