<svg id="Layer_1" data-name="Layer 1" xmlns="http://www.w3.org/2000/svg" viewBox="0 0 512 512"><defs><style>.cls-1{fill:#316fea;}</style></defs><path class="cls-1" d="M461.7,194.4,317.6,50.3a16.7,16.7,0,0,0-19.8-2.8A410.5,410.5,0,0,0,173.6,151.3a398,398,0,0,0-59.9,102.2c-4.9,12.4-9.1,25.1-12.8,37.7L47.2,323.4A16.7,16.7,0,0,0,44,349.6l24.8,24.8C52,396.2,25,437.3,25,461.1c0,9.5,3.9,15.5,7.1,18.8s9.2,7.1,18.8,7.1h0c23.8,0,64.9-27,86.7-43.8L162.4,468a16.8,16.8,0,0,0,11.9,4.9h2a16.5,16.5,0,0,0,12.3-8l32.2-53.7c12.6-3.7,25.3-7.9,37.8-12.9a393.7,393.7,0,0,0,102.1-59.8A410.5,410.5,0,0,0,464.5,214.2,16.7,16.7,0,0,0,461.7,194.4ZM170.9,429.2,82.8,341.1l29.7-17.8,76.2,76.2ZM340.1,266.7a67.1,67.1,0,0,1-94.8,0h0a67,67,0,1,1,94.8,0Z" transform="translate(0 0)"/><path class="cls-1" d="M497.1,14.9A50.7,50.7,0,0,0,457.1.2,397.5,397.5,0,0,0,341.7,27L485,170.3A397.5,397.5,0,0,0,511.8,54.9,51,51,0,0,0,497.1,14.9Z" transform="translate(0 0)"/><path class="cls-1" d="M271,429.3c-11.4,4.6-22.9,8.5-34.5,12A177.3,177.3,0,0,1,222,488.1a16.8,16.8,0,0,0,22.3,22.3A217.3,217.3,0,0,0,304.6,468a214.2,214.2,0,0,0,52.6-85.1A433.7,433.7,0,0,1,271,429.3Z" transform="translate(0 0)"/><path class="cls-1" d="M43.9,207.5A217.1,217.1,0,0,0,1.6,267.7a16.7,16.7,0,0,0,15.2,23.9,16.3,16.3,0,0,0,7.1-1.6,170.2,170.2,0,0,1,46.8-14.5c3.5-11.6,7.4-23.1,11.9-34.4a433.4,433.4,0,0,1,46.6-86.3A215.4,215.4,0,0,0,43.9,207.5Z" transform="translate(0 0)"/></svg>