<svg width="10" height="13" viewBox="0 0 10 13" fill="none" xmlns="http://www.w3.org/2000/svg">
<path d="M9.75706 5.7989C9.595 5.63684 9.39828 5.55596 9.16659 5.55596H8.88899V3.88914C8.88899 2.82435 8.5071 1.91006 7.74332 1.14598C6.97923 0.38189 6.06525 0 5.00015 0C3.93505 0 3.02077 0.38189 2.25698 1.14598C1.4929 1.91006 1.11131 2.82435 1.11131 3.88914V5.55596H0.833409C0.602025 5.55596 0.405303 5.63684 0.243242 5.7989C0.0808781 5.96096 0 6.15768 0 6.38937V11.3895C0 11.6209 0.0811821 11.8179 0.242938 11.98C0.404998 12.142 0.601721 12.2229 0.833105 12.2229H9.16659C9.39828 12.2229 9.59469 12.142 9.75706 11.98C9.91912 11.8179 10 11.6209 10 11.3895V6.38906C10.0006 6.15768 9.91912 5.96096 9.75706 5.7989ZM7.22247 5.55596H2.77783V3.88914C2.77783 3.27556 2.99492 2.75198 3.4288 2.3178C3.86299 1.88361 4.38657 1.66682 5.00015 1.66682C5.61373 1.66682 6.13731 1.88361 6.5715 2.3178C7.00538 2.75168 7.22247 3.27556 7.22247 3.88914V5.55596Z" fill="#858D9F"/>
</svg>
