<svg width="33" height="31" viewBox="0 0 33 31" fill="none" xmlns="http://www.w3.org/2000/svg">
<path d="M7.71173 5.90102L20.8673 2.38694L20.1706 1.00888C19.7148 0.113132 18.603 -0.256771 17.6877 0.189288L5.91072 5.90102H7.71173Z" fill="#316FEA"/>
<path d="M24.951 2.48846C24.788 2.48846 24.6249 2.51022 24.4619 2.55374L21.3713 3.38058L11.9326 5.901H22.646H27.3153L26.7372 3.82664C26.5149 3.01793 25.7663 2.48846 24.951 2.48846Z" fill="#316FEA"/>
<path d="M29.246 7.17029H28.8236H28.2492H27.6748H23.2908H7.18181H5.06951H3.29074H2.96092H1.8566C1.27108 7.17029 0.748568 7.43502 0.407636 7.85207C0.251993 8.04427 0.133408 8.26549 0.0667041 8.50846C0.0259405 8.66078 0 8.82034 0 8.98354V9.20113V11.2682V29.1867C0 30.1877 0.830095 31 1.85289 31H29.2423C30.2651 31 31.0952 30.1877 31.0952 29.1867V24.1278H20.1002C18.3622 24.1278 16.9503 22.7461 16.9503 21.0453V19.3843V18.8222V18.2601V17.0126C16.9503 16.1785 17.2912 15.4206 17.8433 14.8657C18.3325 14.3725 18.9884 14.0389 19.7222 13.9555C19.8445 13.941 19.9705 13.9337 20.0965 13.9337H29.5536H30.128H30.7024H31.0952V8.98354C31.0989 7.98262 30.2688 7.17029 29.246 7.17029Z" fill="#316FEA"/>
<path d="M32.396 15.6671C32.2107 15.5003 31.992 15.3734 31.7475 15.29C31.5585 15.2283 31.3583 15.1921 31.1471 15.1921H31.0989H31.0619H30.4875H28.416H20.1002C19.0774 15.1921 18.2473 16.0044 18.2473 17.0053V17.9083V18.4704V19.0325V21.0416C18.2473 22.0425 19.0774 22.8549 20.1002 22.8549H31.0989H31.1471C31.3583 22.8549 31.5585 22.8186 31.7475 22.7569C31.992 22.6772 32.2107 22.5466 32.396 22.3798C32.7665 22.0498 33 21.5711 33 21.0416V17.0053C33 16.4759 32.7665 15.9972 32.396 15.6671ZM23.969 19.3843C23.969 19.8848 23.554 20.2909 23.0426 20.2909H22.4274C21.916 20.2909 21.501 19.8848 21.501 19.3843V18.7823C21.501 18.4922 21.6381 18.2347 21.8567 18.0715C22.0161 17.9518 22.2125 17.8757 22.4274 17.8757H22.5831H23.0426C23.554 17.8757 23.969 18.2818 23.969 18.7823V19.3843Z" fill="#316FEA"/>
</svg>
