<svg width="38" height="26" viewBox="0 0 38 26" fill="none" xmlns="http://www.w3.org/2000/svg">
<path d="M34.5859 0H3.41406C1.53187 0 0 1.52169 0 3.39135V22.5599C0 24.4295 1.53187 25.9512 3.41406 25.9512H34.5859C36.4681 25.9512 38 24.4295 38 22.5599V3.39135C38 1.52169 36.4681 0 34.5859 0ZM11.875 10.3215C11.875 11.7849 10.6764 12.9756 9.20312 12.9756H7.42188C5.94863 12.9756 4.75 11.7849 4.75 10.3215V8.55211C4.75 7.08866 5.94863 5.898 7.42188 5.898H9.20312C10.6764 5.898 11.875 7.08866 11.875 8.55211V10.3215ZM27.1418 16.3456C26.8843 16.3456 26.6252 16.263 26.4078 16.0927C25.8927 15.6894 25.8044 14.9478 26.2104 14.4361C26.5436 14.0166 26.7195 13.5116 26.7195 12.9763C26.7195 12.4411 26.5436 11.9353 26.2104 11.5159C25.8044 11.0042 25.8927 10.2625 26.4078 9.85925C26.9229 9.45597 27.6695 9.54371 28.0755 10.0554C28.7323 10.8826 29.0938 11.9199 29.0938 12.9756C29.0938 14.0314 28.7323 15.0687 28.0747 15.8959C27.8409 16.1915 27.4929 16.3456 27.1418 16.3456ZM30.9745 18.8825C30.7399 19.142 30.4156 19.2739 30.0905 19.2739C29.8077 19.2739 29.5242 19.1744 29.2979 18.9724C28.8095 18.5374 28.7694 17.7913 29.2073 17.307C30.2827 16.1156 30.875 14.5777 30.875 12.9756C30.875 11.3736 30.2827 9.83566 29.2066 8.645C28.7687 8.15989 28.8095 7.41453 29.2971 6.97955C29.7855 6.54457 30.5358 6.58512 30.9745 7.0695C32.4418 8.69366 33.25 10.7911 33.25 12.9756C33.25 15.1601 32.4418 17.2576 30.9745 18.8825Z" fill="#858D9F"/>
</svg>
