<svg id="Capa_1" data-name="Capa 1" xmlns="http://www.w3.org/2000/svg" viewBox="0 0 512 512"><defs><style>.cls-1{fill:#979797;}.cls-2{fill:#fff;}</style></defs><title>time</title><path class="cls-1" d="M256,0C114.61,0,0,114.61,0,256S114.61,512,256,512,512,397.39,512,256,397.39,0,256,0Z"/><path class="cls-2" d="M256,95A161,161,0,1,0,417,256,161,161,0,0,0,256,95Zm69.6,191.62H257.34c-.23,0-.44-.06-.67-.07s-.44.07-.67.07a11.14,11.14,0,0,1-11.14-11.14V161.82a11.14,11.14,0,1,1,22.27,0V264.35H325.6a11.14,11.14,0,0,1,0,22.27Z"/></svg>