<svg id="Capa_1" data-name="Capa 1" xmlns="http://www.w3.org/2000/svg" viewBox="0 0 512 512"><defs><style>.cls-1{fill:#979797;}.cls-2{fill:#fff;}</style></defs><title>money</title><path class="cls-1" d="M254.55.55c-141.39,0-256,114.61-256,256s114.61,256,256,256,256-114.62,256-256S395.93.55,254.55.55Z" transform="translate(1.45 -0.55)"/><path class="cls-2" d="M301.74,241c-13.32-7.35-27.47-13-41.49-18.78-8.13-3.36-15.91-7.28-22.78-12.75-13.52-10.79-10.93-28.31,4.91-35.25a40,40,0,0,1,13.94-2.87,105.71,105.71,0,0,1,52.42,10.37c8.27,4,11,2.73,13.81-5.89,2.94-9.11,5.4-18.36,8.13-27.54,1.82-6.17-.42-10.23-6.24-12.83a133.72,133.72,0,0,0-33.08-9.88c-15-2.31-15-2.38-15.06-17.45-.07-21.23-.07-21.23-21.38-21.23-3.08,0-6.16-.07-9.25,0-9.95.28-11.63,2-11.91,12-.14,4.49,0,9-.07,13.53-.07,13.31-.14,13.1-12.9,17.73C190,141.44,170.9,162.47,168.87,196.1,167,225.89,182.6,246,207.06,260.65c15.07,9,31.74,14.36,47.72,21.44a70.78,70.78,0,0,1,17.38,10.23c15.35,12.69,12.55,33.78-5.67,41.77-9.74,4.28-20.05,5.33-30.63,4-16.33-2-32-6.31-46.67-13.95-8.62-4.49-11.14-3.29-14.09,6-2.52,8.06-4.76,16.18-7,24.31-3,10.94-1.89,13.53,8.55,18.65,13.32,6.44,27.55,9.74,42.05,12.05,11.35,1.82,11.71,2.31,11.85,14.08.07,5.33.07,10.73.14,16.05.07,6.73,3.29,10.66,10.23,10.8,7.85.14,15.77.14,23.61-.07,6.45-.14,9.75-3.65,9.75-10.17,0-7.28.35-14.64.07-21.93s2.87-11.21,10-13.18a79.11,79.11,0,0,0,41.27-26.49C355.63,317.83,344.2,264.5,301.74,241Z" transform="translate(1.45 -0.55)"/></svg>