<svg id="Capa_1" data-name="Capa 1" xmlns="http://www.w3.org/2000/svg" viewBox="0 0 512 512"><defs><style>.cls-1{fill:#316fea;}</style></defs><title>user</title><path class="cls-1" d="M437,75A256,256,0,0,0,75,437,256,256,0,0,0,437,75ZM256,482A225.23,225.23,0,0,1,99.19,418.58a165,165,0,0,1,313.62,0A225.23,225.23,0,0,1,256,482ZM181,200a75,75,0,1,1,75,75A75.09,75.09,0,0,1,181,200ZM435.34,393.35A195.56,195.56,0,0,0,317.56,285a105,105,0,1,0-123.12,0A195.56,195.56,0,0,0,76.66,393.35,224.79,224.79,0,0,1,30,256C30,131.38,131.38,30,256,30S482,131.38,482,256A224.79,224.79,0,0,1,435.34,393.35Z"/></svg>