<svg width="18" height="18" viewBox="0 0 18 18" fill="none" xmlns="http://www.w3.org/2000/svg">
<path d="M16.2 0H1.8C0.81 0 0 0.81 0 1.8V16.2C0 17.19 0.81 18 1.8 18H16.2C17.19 18 18 17.19 18 16.2V1.8C18 0.81 17.19 0 16.2 0ZM9 16.2C8.46 16.2 8.1 15.75 8.1 15.3C8.1 14.76 8.46 14.4 9 14.4C9.54 14.4 9.9 14.76 9.9 15.3C9.9 15.75 9.54 16.2 9 16.2ZM16.2 12.6H1.8V1.8H16.2V12.6Z" fill="#B5BECF"/>
<path d="M7.20007 4.94979V9.44977C7.20007 9.80976 7.65008 10.0798 8.01008 9.80977L10.7101 7.55978C10.8901 7.37978 10.8901 7.10978 10.7101 6.92978L8.01008 4.67979C7.65008 4.31979 7.20007 4.49979 7.20007 4.94979Z" fill="#B5BECF"/>
</svg>
