<svg id="Capa_1" data-name="Capa 1" xmlns="http://www.w3.org/2000/svg" viewBox="0 0 407.51 402.29"><polygon points="167.18 298.84 235.62 258.61 167.18 218.38 167.18 298.84"/><path d="M360.49,112.33H47a47,47,0,0,0-47,47V357.88a47,47,0,0,0,47,47H360.49a47,47,0,0,0,47-47V159.35A47,47,0,0,0,360.49,112.33ZM264.63,265.66a10,10,0,0,1-4.45,4.45l-99.79,58.51a8.84,8.84,0,0,1-5.22,1.57l-4.7-1.57a9.39,9.39,0,0,1-4.18-8.88v-117a9.39,9.39,0,0,1,4.18-8.88,8.88,8.88,0,0,1,9.92,0l99.79,58.51A9.94,9.94,0,0,1,264.63,265.66Z" transform="translate(0 -2.61)"/><path d="M53.81,81H354.22a10.45,10.45,0,0,0,0-20.9H53.81a10.45,10.45,0,0,0,0,20.9Z" transform="translate(0 -2.61)"/><path d="M98.22,23.51H309.29a10.45,10.45,0,0,0,0-20.9H98.22a10.45,10.45,0,0,0,0,20.9Z" transform="translate(0 -2.61)"/></svg>