<svg id="Isolation_Mode" data-name="Isolation Mode" xmlns="http://www.w3.org/2000/svg" viewBox="0 0 512 480"><defs><style>.cls-1{fill:#316fea;}</style></defs><path class="cls-1" d="M309.81,94.5a10,10,0,1,0-10-10A10,10,0,0,0,309.81,94.5Z" transform="translate(6.19 -34.5)"/><path class="cls-1" d="M123.81,94.5a10,10,0,1,0-10-10A10,10,0,0,0,123.81,94.5Z" transform="translate(6.19 -34.5)"/><path class="cls-1" d="M63.81,94.5a10,10,0,1,0-10-10A10,10,0,0,0,63.81,94.5Z" transform="translate(6.19 -34.5)"/><path class="cls-1" d="M475.81,34.5h-452a30,30,0,0,0-30,30v420a30,30,0,0,0,30,30h452a30,30,0,0,0,30-30V64.5A30,30,0,0,0,475.81,34.5Zm-462,100h472v240h-472Zm10-80h452a10,10,0,0,1,10,10v50h-472v-50A10,10,0,0,1,23.81,54.5Zm452,440h-452a10,10,0,0,1-10-10v-90h472v90A10,10,0,0,1,475.81,494.5Z" transform="translate(6.19 -34.5)"/><path class="cls-1" d="M349.81,94.5h86a10,10,0,0,0,0-20h-86a10,10,0,0,0,0,20Z" transform="translate(6.19 -34.5)"/><path class="cls-1" d="M435.81,434.5H198.09a30,30,0,0,0-56.56,0H63.81a10,10,0,0,0,0,20h77.72a30,30,0,0,0,56.56,0H435.81a10,10,0,0,0,0-20Zm-266,20a10,10,0,1,1,10-10A10,10,0,0,1,169.81,454.5Z" transform="translate(6.19 -34.5)"/><path class="cls-1" d="M314.28,245.55l-120-60a10,10,0,0,0-14.47,8.95v120a10,10,0,0,0,14.47,8.95l120-60a10,10,0,0,0,0-17.9ZM199.81,298.32V210.68l87.64,43.82Z" transform="translate(6.19 -34.5)"/></svg>