<svg id="Layer_1" data-name="Layer 1" xmlns="http://www.w3.org/2000/svg" viewBox="0 0 42.15 57.87"><defs><style>.cls-1,.cls-2{fill:#366fe0;;}.cls-1{stroke:#366fe0;;stroke-miterlimit:10;stroke-width:0.21px;}</style></defs><title>video_file</title><path class="cls-1" d="M4.55,1.23a12.8,12.8,0,0,1,2-.06H32a3.27,3.27,0,0,1,2.29.93c2.66,2.66,5.32,5.33,8,8a5.24,5.24,0,0,1,1.46,1.85,6.71,6.71,0,0,1,.23,2.49V55.58a3.22,3.22,0,0,1-3.26,3.24H5.23A3.22,3.22,0,0,1,2,55.58Q2,30,2,4.41A3.25,3.25,0,0,1,4.55,1.23ZM4,4.15V55.84a.84.84,0,0,0,1,1H41a.83.83,0,0,0,1-1V14.14a1.12,1.12,0,0,0-.45-1H35.2a3.21,3.21,0,0,1-3.24-3c0-2.09,0-4.19,0-6.29a.8.8,0,0,0-1-.72H5A.84.84,0,0,0,4,4.15Zm30,.42c0,2,0,3.91,0,5.87a.71.71,0,0,0,.71.7c1.95,0,3.91,0,5.86,0Q37.26,7.85,34,4.57Z" transform="translate(-1.89 -1.06)"/><path class="cls-1" d="M20,26.34c.3-.19.63,0,.9.15,2.62,1.59,5.26,3.14,7.87,4.74a.75.75,0,0,1,0,1.28c-2.65,1.62-5.32,3.2-8,4.8a.79.79,0,0,1-1.25-.61c0-3.15,0-6.3,0-9.45A.89.89,0,0,1,20,26.34Zm1.12,2.11c0,2.28,0,4.55,0,6.83l5.68-3.41C24.9,30.72,23,29.6,21.11,28.45Z" transform="translate(-1.89 -1.06)"/><path class="cls-2" d="M20.68,18.15a13.49,13.49,0,1,1-9.65,7A13.57,13.57,0,0,1,20.68,18.15Zm.38,2.06a11.48,11.48,0,0,0-9.29,9.18,11.38,11.38,0,1,0,22.48.51,11.48,11.48,0,0,0-4.77-7.78A11.34,11.34,0,0,0,21.06,20.21Z" transform="translate(-1.89 -1.06)"/></svg>