<svg id="Layer_1" data-name="Layer 1" xmlns="http://www.w3.org/2000/svg" viewBox="0 0 512 480"><defs><style>.cls-1{fill:#a1a4ae;}</style></defs><path class="cls-1" d="M316,76a10,10,0,1,0-10-10A10,10,0,0,0,316,76Z" transform="translate(0 -16)"/><path class="cls-1" d="M130,76a10,10,0,1,0-10-10A10,10,0,0,0,130,76Z" transform="translate(0 -16)"/><path class="cls-1" d="M70,76A10,10,0,1,0,60,66,10,10,0,0,0,70,76Z" transform="translate(0 -16)"/><path class="cls-1" d="M482,16H30A30,30,0,0,0,0,46V466a30,30,0,0,0,30,30H482a30,30,0,0,0,30-30V46A30,30,0,0,0,482,16ZM20,116H492V356H20ZM30,36H482a10,10,0,0,1,10,10V96H20V46A10,10,0,0,1,30,36ZM482,476H30a10,10,0,0,1-10-10V376H492v90A10,10,0,0,1,482,476Z" transform="translate(0 -16)"/><path class="cls-1" d="M356,76h86a10,10,0,0,0,0-20H356a10,10,0,0,0,0,20Z" transform="translate(0 -16)"/><path class="cls-1" d="M442,416H204.28a30,30,0,0,0-56.56,0H70a10,10,0,0,0,0,20h77.72a30,30,0,0,0,56.56,0H442a10,10,0,0,0,0-20ZM176,436a10,10,0,1,1,10-10A10,10,0,0,1,176,436Z" transform="translate(0 -16)"/><path class="cls-1" d="M320.47,227.05l-120-60A10,10,0,0,0,186,176V296A10,10,0,0,0,200.47,305l120-60a10,10,0,0,0,0-17.9ZM206,279.82V192.18L293.64,236Z" transform="translate(0 -16)"/></svg>