<?xml version="1.0" encoding="utf-8"?>
<!-- Generator: Adobe Illustrator 23.0.1, SVG Export Plug-In . SVG Version: 6.00 Build 0)  -->
<svg version="1.1" id="Layer_1" xmlns="http://www.w3.org/2000/svg" xmlns:xlink="http://www.w3.org/1999/xlink" x="0px" y="0px"
	 viewBox="0 0 36 13" style="enable-background:new 0 0 36 13;" xml:space="preserve">
<style type="text/css">
	.st0{fill-rule:evenodd;clip-rule:evenodd;fill:#454545;}
	.st1{fill-rule:evenodd;clip-rule:evenodd;fill:#B0B0B0;}
</style>
<g>
	<path class="st0" d="M10.6,1L7.8,8.6L7.5,7.1c-0.7-2-2.1-3.6-3.9-4.7l2.5,9.8h3L13.6,1L10.6,1 M12.9,12.2L14.7,1h2.8l-1.8,11.2
		H12.9 M26.1,1.3c-0.8-0.3-1.7-0.5-2.5-0.5c-2.8,0-4.8,1.5-4.8,3.7c0,1.6,1.4,2.5,2.5,3c1.1,0.5,1.5,0.9,1.5,1.4
		c0,0.7-0.9,1.1-1.7,1.1c-1.1,0-1.7-0.2-2.7-0.6l-0.4-0.2l-0.4,2.5c0.7,0.3,1.9,0.6,3.2,0.6c3,0,4.9-1.5,4.9-3.8
		c0-1.3-0.7-2.2-2.4-3c-1-0.5-1.6-0.9-1.6-1.4c0-0.5,0.5-1,1.6-1c0.7,0,1.5,0.1,2.1,0.4l0.3,0.1L26.1,1.3 M33.3,1h-2.2
		c-0.7,0-1.2,0.2-1.5,0.9l-4.2,10.2h3c0,0,0.5-1.4,0.6-1.7l3.6,0c0.1,0.4,0.3,1.7,0.3,1.7h2.6L33.3,1 M29.8,8.2
		C30.1,7.6,31,5.1,31,5.1c0,0,0.2-0.6,0.4-1.1l0.2,1c0,0,0.5,2.7,0.7,3.2H29.8"/>
	<path class="st1" d="M5.2,1H0.6l0,0.2c3.6,0.9,5.9,3.2,6.9,5.9l-1-5.1C6.3,1.2,5.8,1,5.2,1"/>
</g>
</svg>
