<svg id="svg10306" xmlns="http://www.w3.org/2000/svg" xmlns:xlink="http://www.w3.org/1999/xlink" viewBox="0 0 602.3 483.82"><defs><style>.cls-1{fill:none;}.cls-2{clip-path:url(#clip-path);}.cls-3{fill:url(#linear-gradient);}</style><clipPath id="clip-path" transform="translate(51.15 160.5)"><path class="cls-1" d="M258.55,52.41c-.28,22.4,20,34.9,35.22,42.34,15.67,7.62,20.94,12.51,20.88,19.33-.12,10.44-12.51,15-24.09,15.23-20.22.31-32-5.46-41.32-9.83L242,153.56c9.38,4.32,26.74,8.09,44.75,8.26,42.26,0,69.91-20.87,70.06-53.21.16-41-56.78-43.32-56.39-61.67.13-5.56,5.44-11.5,17.07-13,5.76-.76,21.66-1.35,39.68,7l7.07-33A107.85,107.85,0,0,0,326.53,1c-39.77,0-67.75,21.14-68,51.41M432.16,3.84A18.34,18.34,0,0,0,415,15.25L354.66,159.39h42.23l8.41-23.22h51.6l4.88,23.22H499L466.52,3.84H432.16m5.9,42,12.19,58.41H416.87l21.19-58.41m-230.71-42L174.06,159.39H214.3L247.58,3.84H207.35m-59.53,0L105.93,109.72,89,19.69c-2-10-9.84-15.85-18.56-15.85H2L1,8.36c14.06,3.05,30,8,39.7,13.23,5.92,3.22,7.61,6,9.56,13.67L82.35,159.39h42.53L190.08,3.84H147.82"/></clipPath><linearGradient id="linear-gradient" x1="-707.87" y1="620.49" x2="-706.87" y2="620.49" gradientTransform="matrix(419.71, -154.57, -154.57, -419.71, 393052.09, 151167.77)" gradientUnits="userSpaceOnUse"><stop offset="0" stop-color="#222357"/><stop offset="1" stop-color="#254aa5"/></linearGradient></defs><g id="layer1"><g id="g10267"><g class="cls-2"><g id="g10269"><g id="g10275"><path id="path10283" class="cls-3" d="M-51.15,20.21,439.53-160.5,551.15,142.61,60.48,323.32" transform="translate(51.15 160.5)"/></g></g></g></g></g></svg>