<svg id="Layer_1" data-name="Layer 1" xmlns="http://www.w3.org/2000/svg" viewBox="0 0 465.1 381.1"><defs><style>.cls-1{fill:#316fea;stroke:#316fea;stroke-miterlimit:10;}</style></defs><path class="cls-1" d="M453.3,66H58.8A34.8,34.8,0,0,0,24,100.8V411.3a34.8,34.8,0,0,0,34.8,34.8H453.3a34.8,34.8,0,0,0,34.8-34.8V100.8A35,35,0,0,0,453.3,66ZM472,306.8H347.4A42.4,42.4,0,0,1,305,264.4V247.6a42.4,42.4,0,0,1,42.4-42.4H472ZM453.3,430H58.8A18.8,18.8,0,0,1,40,411.2V100.8A18.8,18.8,0,0,1,58.8,82H453.3a18.8,18.8,0,0,1,18.8,18.8v88.5H347.4A58.5,58.5,0,0,0,289,247.7v16.8a58.5,58.5,0,0,0,58.4,58.4H472v88.5A18.7,18.7,0,0,1,453.3,430Z" transform="translate(-23.5 -65.5)"/><path class="cls-1" d="M331.8,256.6a24,24,0,1,0,24-24A24.1,24.1,0,0,0,331.8,256.6Zm24-8a8,8,0,1,1-8,8A8,8,0,0,1,355.8,248.6Z" transform="translate(-23.5 -65.5)"/></svg>