<svg id="Capa_1" data-name="Capa 1" xmlns="http://www.w3.org/2000/svg" viewBox="0 0 512 423.4"><defs><style>.cls-1{fill:#316fea;}</style></defs><path class="cls-1" d="M374.2,182.2H512v-64a73.9,73.9,0,0,0-73.8-73.9H73.8A73.9,73.9,0,0,0,0,118.2V393.8a73.9,73.9,0,0,0,73.8,73.9H438.2A73.9,73.9,0,0,0,512,393.8v-64H374.2a73.8,73.8,0,1,1,0-147.6Z" transform="translate(0 -44.3)"/><path class="cls-1" d="M374.2,211.7a44.3,44.3,0,1,0,0,88.6H512V211.7Zm19.6,59.1H374.2a14.8,14.8,0,1,1,0-29.6h19.6a14.8,14.8,0,1,1,0,29.6Z" transform="translate(0 -44.3)"/></svg>