<svg id="Isolation_Mode" data-name="Isolation Mode" xmlns="http://www.w3.org/2000/svg" viewBox="0 0 57.47 48.03"><defs><style>.cls-1{fill:#316fea;}</style></defs><title>watermark_1</title><path class="cls-1" d="M606.16,636H550a.65.65,0,0,1-.65-.65V588.6A.65.65,0,0,1,550,588h56.17a.65.65,0,0,1,.65.65v46.73A.65.65,0,0,1,606.16,636Zm-55.52-1.3h54.87V589.25H550.64Z" transform="translate(-549.34 -587.95)"/><path class="cls-1" d="M549.88,634.75a.73.73,0,0,0,1-.1l9.75-9.74a.74.74,0,0,0,.1-1,.73.73,0,0,0-1,.1L550,633.73A.74.74,0,0,0,549.88,634.75Z" transform="translate(-549.34 -587.95)"/><path class="cls-1" d="M605.33,634.75a.73.73,0,0,1-1-.1l-9.74-9.74a.74.74,0,0,1-.1-1,.73.73,0,0,1,1,.1l9.74,9.74A.73.73,0,0,1,605.33,634.75Z" transform="translate(-549.34 -587.95)"/><path class="cls-1" d="M605.33,589.42a.73.73,0,0,0-1,.1l-9.74,9.74a.74.74,0,0,0-.1,1,.73.73,0,0,0,1-.1l9.74-9.74A.73.73,0,0,0,605.33,589.42Z" transform="translate(-549.34 -587.95)"/><path class="cls-1" d="M549.88,589.42a.73.73,0,0,1,1,.1l9.75,9.74a.74.74,0,0,1,.1,1,.73.73,0,0,1-1-.1L550,590.44A.74.74,0,0,1,549.88,589.42Z" transform="translate(-549.34 -587.95)"/><path class="cls-1" d="M578.08,616.27a8.42,8.42,0,1,1,8.41-8.42A8.43,8.43,0,0,1,578.08,616.27Zm0-12.63a4.21,4.21,0,1,0,4.21,4.21A4.22,4.22,0,0,0,578.08,603.64Z" transform="translate(-549.34 -587.95)"/><path class="cls-1" d="M571.93,623.62a4.71,4.71,0,0,1,2.55-.84c1.66,0,3.12,1.72,6.12,1.72a6.92,6.92,0,0,0,5.07-2.42l-1.51-2.4a4.76,4.76,0,0,1-2.56.84c-1.65,0-3.11-1.73-6.12-1.73a6.91,6.91,0,0,0-5.06,2.42Z" transform="translate(-549.34 -587.95)"/></svg>