<svg width="28" height="28" viewBox="0 0 28 28" fill="none" xmlns="http://www.w3.org/2000/svg">
<path d="M27.8972 12.3209C27.8108 11.6094 27.2043 11.0729 26.4868 11.0729H25.6228C25.3379 9.93816 24.89 8.85701 24.2873 7.85133L24.8993 7.23994C25.4068 6.73245 25.456 5.92473 25.0141 5.36036C24.6674 4.9174 24.2923 4.49358 23.8991 4.10094C23.5059 3.70774 23.082 3.33259 22.6396 2.98588C22.0753 2.54401 21.2676 2.59378 20.7601 3.10072L20.1487 3.71211C19.143 3.10947 18.0618 2.66104 16.9271 2.37667V1.51263C16.9271 0.795141 16.3906 0.189215 15.6791 0.102264C15.1208 0.0344524 14.5559 0 13.9997 0C13.4436 0 12.8787 0.0344524 12.3209 0.102264C11.6094 0.188668 11.0729 0.795141 11.0729 1.51263V2.37667C9.93816 2.66159 8.85701 3.10947 7.85133 3.71211L7.23939 3.10017C6.7319 2.59268 5.92418 2.54347 5.35982 2.98533C4.9174 3.33204 4.49358 3.70719 4.10039 4.10039C3.70719 4.49358 3.33204 4.9174 2.98533 5.35982C2.54347 5.92418 2.59268 6.7319 3.10017 7.23939L3.71211 7.85078C3.10947 8.85701 2.66104 9.93762 2.37667 11.0724H1.51263C0.795141 11.0724 0.189215 11.6088 0.102264 12.3203C0.0344524 12.8787 0 13.4436 0 13.9997C0 14.5559 0.0344524 15.1203 0.102264 15.6786C0.188668 16.3901 0.795141 16.9265 1.51263 16.9265H2.37667C2.66159 18.0613 3.10947 19.1424 3.71211 20.1487L3.10017 20.7601C2.59268 21.2676 2.54347 22.0753 2.98533 22.6396C3.33204 23.0826 3.70719 23.5064 4.10039 23.8991C4.49358 24.2923 4.9174 24.6674 5.35982 25.0141C5.92418 25.456 6.7319 25.4062 7.23939 24.8993L7.85078 24.2879C8.85701 24.8905 9.93816 25.339 11.0729 25.6233V26.4874C11.0729 27.2049 11.6094 27.8108 12.3209 27.8977C12.8792 27.9655 13.4441 28 13.9997 28C14.5553 28 15.1203 27.9655 15.6786 27.8977C16.3901 27.8113 16.9265 27.2049 16.9265 26.4874V25.6233C18.0613 25.339 19.1424 24.8905 20.1487 24.2879L20.7601 24.8993C21.2676 25.4068 22.0753 25.456 22.6396 25.0141C23.082 24.6674 23.5059 24.2923 23.8991 23.8991C24.2923 23.5059 24.6674 23.082 25.0141 22.6396C25.456 22.0753 25.4068 21.2676 24.8993 20.7601L24.2873 20.1487C24.89 19.1424 25.3384 18.0618 25.6228 16.9265H26.4868C27.2043 16.9265 27.8102 16.3901 27.8972 15.6786C27.965 15.1203 27.9995 14.5553 27.9995 13.9997C27.9995 13.4436 27.965 12.8787 27.8972 12.3209ZM27.0829 15.5796C27.0463 15.8798 26.7903 16.1062 26.4868 16.1062H25.2985C25.106 16.1062 24.9397 16.2397 24.8982 16.4278C24.6176 17.6938 24.1205 18.892 23.4222 19.989C23.3188 20.1514 23.3424 20.3636 23.478 20.4992L24.3191 21.3403C24.5334 21.5547 24.5548 21.8959 24.3683 22.1338C24.0418 22.5505 23.6891 22.9497 23.3194 23.3188C22.9492 23.6891 22.5505 24.0418 22.1343 24.3677C21.8964 24.5542 21.5552 24.5329 21.3408 24.3185L20.4998 23.4774C20.3636 23.3418 20.1514 23.3183 19.9895 23.4217C18.8925 24.1205 17.6943 24.6171 16.4284 24.8976C16.2408 24.9392 16.1068 25.106 16.1068 25.2979V26.4863C16.1068 26.7898 15.8804 27.0457 15.5802 27.0824C15.0546 27.1463 14.5231 27.1786 14.0003 27.1786C13.4775 27.1786 12.9459 27.1463 12.4204 27.0824C12.1202 27.0457 11.8938 26.7898 11.8938 26.4863V25.2979C11.8938 25.1054 11.7603 24.9392 11.5722 24.8976C10.3062 24.6171 9.10857 24.1205 8.01102 23.4217C7.9432 23.3785 7.86664 23.3577 7.79063 23.3577C7.68454 23.3577 7.57954 23.3987 7.50024 23.478L6.65917 24.3191C6.4448 24.5334 6.10355 24.5548 5.86567 24.3683C5.44896 24.0423 5.05029 23.6891 4.68061 23.3194C4.31093 22.9497 3.9582 22.551 3.63173 22.1343C3.44525 21.8964 3.46657 21.5552 3.68094 21.3408L4.52202 20.4998C4.65819 20.3636 4.68116 20.1514 4.5778 19.9895C3.87891 18.8925 3.38236 17.6943 3.10181 16.4284C3.06025 16.2408 2.89346 16.1068 2.70151 16.1068H1.51263C1.20912 16.1068 0.953184 15.8804 0.916545 15.5802C0.852561 15.0541 0.820296 14.5225 0.820296 13.9997C0.820296 13.4769 0.852561 12.9454 0.916545 12.4198C0.953184 12.1196 1.20912 11.8932 1.51263 11.8932H2.70096C2.89346 11.8932 3.05971 11.7598 3.10127 11.5716C3.38181 10.3057 3.87891 9.10748 4.57725 8.01047C4.68061 7.84805 4.6571 7.63587 4.52147 7.50024L3.6804 6.65917C3.46603 6.4448 3.4447 6.10355 3.63118 5.86567C3.95766 5.44896 4.31038 5.05029 4.68006 4.68006C5.04975 4.31038 5.44896 3.95711 5.86512 3.63118C6.10301 3.4447 6.44425 3.46603 6.65862 3.6804L7.4997 4.52147C7.63587 4.65764 7.84805 4.68061 8.00992 4.57725C9.10693 3.87836 10.3046 3.38181 11.5706 3.10127C11.7581 3.05971 11.8921 2.89291 11.8921 2.70096V1.51263C11.8921 1.20912 12.1185 0.953184 12.4187 0.916545C12.9454 0.852561 13.4769 0.820296 13.9997 0.820296C14.5225 0.820296 15.0541 0.852561 15.5796 0.916545C15.8798 0.953184 16.1062 1.20912 16.1062 1.51263V2.70096C16.1062 2.89346 16.2397 3.05971 16.4278 3.10127C17.6938 3.38181 18.892 3.87891 19.9884 4.57725C20.1509 4.68061 20.363 4.6571 20.4987 4.52147L21.3397 3.6804C21.5541 3.46603 21.8954 3.4447 22.1332 3.63118C22.5499 3.95766 22.9486 4.31038 23.3183 4.68006C23.688 5.04975 24.0407 5.44896 24.3672 5.86567C24.5537 6.10355 24.5323 6.4448 24.318 6.65917L23.4769 7.50024C23.3407 7.63641 23.3177 7.8486 23.4211 8.01047C24.12 9.10748 24.6165 10.3057 24.8971 11.5716C24.9387 11.7592 25.1054 11.8932 25.2974 11.8932H26.4857C26.7892 11.8932 27.0452 12.1196 27.0818 12.4198C27.1458 12.9454 27.1781 13.4769 27.1781 13.9997C27.1792 14.5225 27.1469 15.0541 27.0829 15.5796Z" fill="#316FEA"/>
<path d="M19.551 6.95723C15.9877 4.14143 10.8756 4.44384 7.65947 7.65941C4.44336 10.8755 4.14149 15.9876 6.9573 19.551C7.03823 19.6532 7.158 19.7068 7.2794 19.7068C7.36854 19.7068 7.45822 19.6778 7.53369 19.6188C7.71142 19.4782 7.7415 19.2207 7.6015 19.0429C5.04382 15.806 5.31834 11.1615 8.24024 8.24018C11.1621 5.31828 15.8061 5.04375 19.043 7.60144C19.2207 7.74198 19.4789 7.7119 19.6194 7.53363C19.7589 7.35535 19.7288 7.09778 19.551 6.95723Z" fill="#316FEA"/>
<path d="M21.0423 8.44847C20.9017 8.27074 20.6441 8.24066 20.4664 8.38066C20.2887 8.52121 20.2586 8.77878 20.3991 8.95651C22.9568 12.1934 22.6823 16.8379 19.7604 19.7593C16.8385 22.6812 12.1945 22.9557 8.95765 20.398C8.77992 20.2575 8.5218 20.2875 8.38126 20.4653C8.24072 20.643 8.27134 20.9011 8.44907 21.0411C10.0831 22.3323 12.0414 22.9677 13.9943 22.9677C16.3009 22.9677 18.5989 22.0807 20.3406 20.3389C23.5562 17.1239 23.8581 12.0118 21.0423 8.44847Z" fill="#316FEA"/>
<path d="M19.5904 11.3956C19.3673 11.2578 19.0944 11.2458 18.8603 11.3628L17.9329 11.8265V11.4836C17.9329 10.7022 17.2974 10.0667 16.5159 10.0667H10.4764C9.6949 10.0667 9.05945 10.7022 9.05945 11.4836V16.517C9.05945 17.2985 9.6949 17.9339 10.4764 17.9339H16.5159C17.2974 17.9339 17.9329 17.2985 17.9329 16.517V16.1741L18.8603 16.6378C18.967 16.6914 19.0818 16.7177 19.1961 16.7177C19.3328 16.7177 19.469 16.6799 19.5904 16.605C19.813 16.4672 19.9464 16.2288 19.9464 15.9668V12.0343C19.9464 11.7718 19.8135 11.5329 19.5904 11.3956ZM16.5165 17.1131H10.4764C10.1477 17.1131 9.87974 16.8456 9.87974 16.5164V11.4831C9.87974 11.1544 10.1472 10.8865 10.4764 10.8865H16.5159C16.8446 10.8865 17.1126 11.1539 17.1126 11.4831V16.5164C17.1131 16.8451 16.8452 17.1131 16.5165 17.1131ZM19.1261 15.8525L17.9329 15.2559V12.7431L19.1261 12.1464V15.8525Z" fill="#316FEA"/>
<path d="M11.7346 12.0797C11.3698 12.0797 11.0729 12.3767 11.0729 12.7414C11.0729 13.1062 11.3698 13.4031 11.7346 13.4031C12.0993 13.4031 12.3963 13.1062 12.3963 12.7414C12.3963 12.3767 12.0999 12.0797 11.7346 12.0797Z" fill="#316FEA"/>
</svg>
