<svg width="24" height="24" viewBox="0 0 24 24" fill="none" xmlns="http://www.w3.org/2000/svg">
<path d="M22.0645 24H1.93548C0.867097 23.9985 0.00145161 23.1329 0 22.0645V1.93548C0.00145161 0.867098 0.867097 0.00145149 1.93548 0H22.0645C23.1329 0.00145149 23.9985 0.867098 24 1.93548V22.0645C23.9985 23.1329 23.1329 23.9985 22.0645 24ZM19.3548 22.4516V21.6774H18.5806V22.4516H17.8065V21.6774H17.0323V22.4516H16.2581V21.6774H15.4839V22.4516H14.7097V21.6774H13.9355V22.4516H13.1613V21.6774H12.3871V22.4516H11.6129V21.6774H10.8387V22.4516H10.0645V21.6774H9.29032V22.4516H8.51613V21.6774H7.74194V22.4516H6.96774V21.6774H6.19355V22.4516H5.41935V21.6774H4.64516V22.4516H3.87097V21.6774H2.70968V23.2258H21.2903V21.6774H20.129V22.4516H19.3548ZM1.93548 23.2258V21.2903C1.93548 21.0765 2.10871 20.9032 2.32258 20.9032H21.6774C21.8913 20.9032 22.0645 21.0765 22.0645 21.2903V23.2258C22.7056 23.2258 23.2258 22.7056 23.2258 22.0645V15.4839H21.5526L20.8761 17.1765C20.7968 17.3748 20.5718 17.4716 20.3729 17.3927C20.2669 17.3506 20.1847 17.2635 20.1489 17.1552L19.3548 14.7726L18.5608 17.1547C18.4935 17.3574 18.2744 17.4677 18.0716 17.4005C17.9632 17.3647 17.8761 17.2824 17.834 17.1765L17.1571 15.4839H16.1327L15.4563 17.1765C15.3769 17.3748 15.1519 17.4716 14.9531 17.3927C14.8471 17.3506 14.7648 17.2635 14.729 17.1552L13.9355 14.7726L13.1415 17.1547C13.0742 17.3574 12.855 17.4677 12.6523 17.4005C12.5439 17.3647 12.4568 17.2824 12.4147 17.1765L11.7377 15.4839H10.7313L9.65806 18.7031C9.59129 18.9063 9.37258 19.0166 9.16935 18.9498C9.05274 18.9116 8.96081 18.8197 8.92258 18.7031L7.84984 15.4839H6.84339L6.16693 17.1765C6.08758 17.3748 5.86258 17.4721 5.66419 17.3927C5.56548 17.3535 5.4871 17.2752 5.4479 17.1765L5.03226 16.139L3.84339 19.1119C3.76403 19.3103 3.53903 19.4076 3.34065 19.3282C3.24194 19.289 3.16355 19.2106 3.12435 19.1119L1.67323 15.4839H0.774194V22.0645C0.774194 22.7056 1.29435 23.2258 1.93548 23.2258ZM23.2258 14.7097V12.3871H0.774194V14.7097H1.93548C2.09371 14.7097 2.23597 14.806 2.295 14.9526L3.48387 17.9255L4.67274 14.9526C4.7521 14.7542 4.9771 14.6569 5.17548 14.7363C5.27419 14.7755 5.35258 14.8539 5.39177 14.9526L5.80645 15.99L6.22113 14.9526C6.28016 14.8055 6.42242 14.7092 6.58065 14.7097H8.12903C8.29548 14.7097 8.44355 14.8161 8.49629 14.9744L9.29032 17.3565L10.0844 14.9744C10.1371 14.8161 10.2852 14.7097 10.4516 14.7097H12C12.1582 14.7097 12.3005 14.806 12.3595 14.9526L12.7413 15.9073L13.5682 13.426C13.635 13.2227 13.8537 13.1124 14.0569 13.1792C14.1735 13.2174 14.2655 13.3094 14.3037 13.426L15.1306 15.9073L15.5124 14.9526C15.571 14.806 15.7132 14.7097 15.8715 14.7097H17.4198C17.5781 14.7097 17.7203 14.806 17.7794 14.9526L18.1611 15.9073L18.9881 13.426C19.0548 13.2227 19.2735 13.1124 19.4768 13.1792C19.5934 13.2174 19.6853 13.3094 19.7235 13.426L20.5505 15.9073L20.9323 14.9526C20.9908 14.806 21.1331 14.7097 21.2913 14.7097H23.2258ZM22.0645 0.774195H1.93548C1.29435 0.774195 0.774194 1.29436 0.774194 1.93548V11.6129H23.2258V1.93548C23.2258 1.29436 22.7056 0.774195 22.0645 0.774195Z" fill="#316FEA"/>
<path d="M17.4194 10.0645C16.9292 10.0626 16.4928 9.75242 16.3292 9.29032H2.32263V8.51612H16.3292C16.5388 7.91419 17.1968 7.59629 17.7992 7.8058C18.1321 7.92193 18.3934 8.18322 18.5096 8.51612H21.6775V9.29032H18.5096C18.346 9.75242 17.9096 10.0626 17.4194 10.0645ZM17.4194 8.51612C17.2055 8.51612 17.0323 8.68935 17.0323 8.90322C17.0323 9.11709 17.2055 9.29032 17.4194 9.29032C17.6333 9.29032 17.8065 9.11709 17.8065 8.90322C17.8065 8.68935 17.6333 8.51612 17.4194 8.51612Z" fill="#316FEA"/>
<path d="M11.2259 6.96774C10.7357 6.96581 10.2992 6.65565 10.1357 6.19355H2.32263V5.41935H10.1357C10.3452 4.81742 11.0033 4.49951 11.6057 4.70903C11.9386 4.82516 12.1999 5.08645 12.316 5.41935H21.6775V6.19355H12.316C12.1525 6.65565 11.716 6.96581 11.2259 6.96774ZM11.2259 5.41935C11.012 5.41935 10.8388 5.59258 10.8388 5.80645C10.8388 6.02032 11.012 6.19355 11.2259 6.19355C11.4397 6.19355 11.613 6.02032 11.613 5.80645C11.613 5.59258 11.4397 5.41935 11.2259 5.41935Z" fill="#316FEA"/>
<path d="M13.5484 3.87096C13.0583 3.86902 12.6218 3.55886 12.4583 3.09676H2.32263V2.32257H12.4583C12.6678 1.72063 13.3259 1.40273 13.9283 1.61224C14.2612 1.72837 14.5225 1.98966 14.6386 2.32257H21.6775V3.09676H14.6386C14.4751 3.55886 14.0386 3.86902 13.5484 3.87096ZM13.5484 2.32257C13.3346 2.32257 13.1613 2.49579 13.1613 2.70966C13.1613 2.92354 13.3346 3.09676 13.5484 3.09676C13.7623 3.09676 13.9355 2.92354 13.9355 2.70966C13.9355 2.49579 13.7623 2.32257 13.5484 2.32257Z" fill="#316FEA"/>
<path d="M2.32263 10.8387H6.5807V10.0645H2.32263V10.8387Z" fill="#316FEA"/>
<path d="M7.35486 10.8387H8.12905V10.0645H7.35486V10.8387Z" fill="#316FEA"/>
<path d="M2.32263 7.74193H6.5807V6.96774H2.32263V7.74193Z" fill="#316FEA"/>
<path d="M7.35486 7.74193H8.12905V6.96774H7.35486V7.74193Z" fill="#316FEA"/>
<path d="M2.32263 4.64514H6.5807V3.87095H2.32263V4.64514Z" fill="#316FEA"/>
<path d="M7.35486 4.64514H8.12905V3.87095H7.35486V4.64514Z" fill="#316FEA"/>
</svg>
