<svg width="24" height="28" viewBox="0 0 24 28" fill="none" xmlns="http://www.w3.org/2000/svg">
<path d="M23.102 0H0.897952C0.403026 0 0 0.39 0 0.868929V15.8159C0 16.2948 0.403026 16.6848 0.897952 16.6848H7.65584C7.88503 16.6848 8.07105 16.5048 8.07105 16.283C8.07105 16.0613 7.88503 15.8813 7.65584 15.8813H6.62281V14.3491H7.65584C7.88503 14.3491 8.07105 14.1691 8.07105 13.9473C8.07105 13.7255 7.88503 13.5455 7.65584 13.5455H0.830411V3.13929H11.5848V9.74411C11.5848 9.96589 11.7708 10.1459 12 10.1459C12.2292 10.1459 12.4152 9.96589 12.4152 9.74411V3.13929H23.1696V13.5461H16.3442C16.115 13.5461 15.929 13.7261 15.929 13.9479C15.929 14.1696 16.115 14.3496 16.3442 14.3496H17.3772V15.8818H16.3442C16.115 15.8818 15.929 16.0618 15.929 16.2836C15.929 16.5054 16.115 16.6854 16.3442 16.6854H23.102C23.597 16.6854 24 16.2954 24 15.8164V0.868929C24 0.39 23.597 0 23.102 0ZM3.72633 14.3491H5.7924V15.8813H3.72633V14.3491ZM2.89592 14.3491V15.8813H0.897398C0.860306 15.8813 0.829858 15.8518 0.829858 15.8159V14.3491H2.89592ZM2.89592 2.33571H0.830411V0.868929C0.830411 0.833036 0.86086 0.803571 0.897952 0.803571H2.89648V2.33571H2.89592ZM5.7924 2.33571H3.72633V0.803571H5.7924V2.33571ZM8.68832 2.33571H6.62281V0.803571H8.68832V2.33571ZM11.5848 2.33571H9.51928V0.803571H11.5848V2.33571ZM20.2731 15.8813H18.2076V14.3491H20.2731V15.8813ZM23.1696 15.8159C23.1696 15.8518 23.1391 15.8813 23.102 15.8813H21.1035V14.3491H23.169V15.8159H23.1696ZM14.4807 2.33571H12.4147V0.803571H14.4807V2.33571ZM17.3772 2.33571H15.3111V0.803571H17.3772V2.33571ZM20.2731 2.33571H18.2076V0.803571H20.2731V2.33571ZM23.1696 2.33571H21.1035V0.803571H23.102C23.1391 0.803571 23.1696 0.833036 23.1696 0.868929V2.33571Z" fill="#316FEA"/>
<path d="M8.47959 22.7213C8.42257 22.5064 8.19615 22.3773 7.9736 22.4325C7.7516 22.4877 7.61818 22.7068 7.6752 22.9221C7.70676 23.0416 7.72281 23.1648 7.72281 23.2896C7.72281 24.0986 7.04298 24.7564 6.20703 24.7564C5.37108 24.7564 4.69125 24.0986 4.69125 23.2896C4.69125 22.4807 5.37108 21.8229 6.20703 21.8229C6.33547 21.8229 6.46335 21.8384 6.58625 21.8689C6.80825 21.9241 7.03468 21.795 7.0917 21.5802C7.14872 21.3654 7.0153 21.1463 6.7933 21.0911C6.60286 21.0434 6.40522 21.0198 6.20703 21.0198C4.91325 21.0198 3.86084 22.0382 3.86084 23.2902C3.86084 24.5421 4.91325 25.5605 6.20703 25.5605C7.50082 25.5605 8.55322 24.5421 8.55322 23.2902C8.55378 23.0973 8.52831 22.9061 8.47959 22.7213Z" fill="#316FEA"/>
<path d="M20.0639 22.7212C20.0069 22.5064 19.7804 22.3773 19.5584 22.4325C19.3364 22.4877 19.203 22.7068 19.26 22.9216C19.2916 23.0411 19.3076 23.1648 19.3076 23.2891C19.3076 24.098 18.6278 24.7559 17.7919 24.7559C16.9559 24.7559 16.2761 24.098 16.2761 23.2891C16.2761 22.4802 16.9559 21.8223 17.7919 21.8223C17.9203 21.8223 18.0482 21.8378 18.1711 21.8684C18.3936 21.9236 18.6195 21.7945 18.6765 21.5796C18.7336 21.3648 18.6001 21.1457 18.3781 21.0905C18.1877 21.0428 17.9901 21.0193 17.7919 21.0193C16.4981 21.0193 15.4457 22.0377 15.4457 23.2896C15.4457 24.5416 16.4981 25.56 17.7919 25.56C19.0857 25.56 20.1381 24.5416 20.1381 23.2896C20.1381 23.0973 20.1131 22.9061 20.0639 22.7212Z" fill="#316FEA"/>
<path d="M22.0159 22.6286C21.7634 21.0557 20.5682 19.7539 18.9716 19.313C18.2109 19.103 17.4475 19.0961 16.6974 19.2916L14.1973 15.6621C14.2964 15.4077 14.3462 15.1462 14.3462 14.8816C14.3462 14.6057 14.2947 14.3411 14.2006 14.0957L18.8354 7.36821C19.1831 6.86357 19.3071 6.25821 19.1842 5.66357C19.0613 5.06893 18.7064 4.55625 18.1849 4.21982C17.9939 4.09661 17.7365 4.14643 17.6092 4.33125L12 12.4736L6.39086 4.33178C6.26353 4.14696 6.0061 4.09714 5.81511 4.22036C5.29361 4.55678 4.93875 5.06946 4.81585 5.66411C4.69295 6.25875 4.81695 6.86411 5.16407 7.36875L9.80275 14.1016C9.70365 14.3561 9.65383 14.6175 9.65383 14.8821C9.65383 15.158 9.70531 15.4227 9.79943 15.668L7.30265 19.2916C6.55252 19.0961 5.78854 19.103 5.02843 19.313C3.43127 19.7545 2.23659 21.0557 1.98414 22.6286C1.76491 23.9952 2.22385 25.3232 3.24305 26.2725C4.05297 27.0262 5.09874 27.4286 6.20153 27.4286C6.48664 27.4286 6.77617 27.4018 7.06626 27.3466C8.70826 27.0364 10.043 25.763 10.3879 24.1784C10.6531 22.9607 10.3658 21.7371 9.59957 20.7739L12 17.2896L14.4005 20.7739C13.6343 21.7371 13.3475 22.9607 13.6121 24.1779C13.957 25.7625 15.2918 27.0359 16.9338 27.3461C17.2239 27.4007 17.5128 27.428 17.7985 27.428C18.9007 27.428 19.9471 27.0257 20.757 26.272C21.7762 25.3232 22.2351 23.9952 22.0159 22.6286ZM18.0377 5.15786C18.2038 5.34589 18.3178 5.5725 18.3693 5.82161C18.4484 6.20571 18.3687 6.59678 18.144 6.9225L13.7212 13.342C13.471 13.0805 13.1587 12.8754 12.8066 12.7505L18.0377 5.15786ZM8.73705 20.5779C8.63187 20.7305 8.64681 20.932 8.77304 21.0686C9.51543 21.8711 9.80773 22.9441 9.57522 24.0129C9.29786 25.2857 8.22552 26.3084 6.90682 26.558C5.76639 26.7734 4.64091 26.4584 3.8188 25.6929C2.99724 24.9279 2.62743 23.8559 2.80459 22.7518C3.00444 21.5068 3.98986 20.4354 5.25652 20.0855C5.95462 19.8927 6.65549 19.912 7.3403 20.1429C7.51911 20.2029 7.71731 20.1386 7.82249 19.9864L10.2789 16.4212C10.5291 16.6832 10.8419 16.8879 11.194 17.0127L8.73705 20.5779ZM20.1812 25.6934C19.3591 26.4589 18.2336 26.7739 17.0932 26.5586C15.7745 26.3095 14.7022 25.2868 14.4248 24.0134C14.1923 22.9446 14.4846 21.8711 15.2264 21.0691C15.3527 20.9325 15.3676 20.7305 15.2624 20.5784L12.4639 16.5161C12.3864 16.4041 12.2569 16.3371 12.1185 16.3371C12.1102 16.3371 12.1013 16.3371 12.093 16.3377C12.0653 16.3393 12.0377 16.3425 12.0105 16.3462C12.005 16.3468 11.9995 16.3479 11.9939 16.3484C11.1607 16.3452 10.4842 15.6884 10.4842 14.8816C10.4842 14.6652 10.5385 14.4482 10.6459 14.2377C10.7112 14.1091 10.7013 13.9564 10.6188 13.837L5.85497 6.92196C5.6302 6.59625 5.55048 6.20518 5.62965 5.82053C5.68114 5.57143 5.79573 5.34482 5.96126 5.15679L11.535 13.2466C11.6169 13.3655 11.7586 13.4336 11.9059 13.425C11.9336 13.4234 11.9607 13.4202 11.9878 13.4164C11.9934 13.4159 11.9989 13.4148 12.0044 13.4143C12.8376 13.4175 13.5141 14.0737 13.5141 14.8811C13.5141 15.0975 13.4599 15.3145 13.3525 15.525C13.2872 15.6536 13.2971 15.8062 13.3796 15.9257L16.177 19.9859C16.2822 20.1386 16.4804 20.2029 16.6592 20.1423C17.344 19.9114 18.0449 19.8921 18.743 20.085C20.0096 20.4348 20.995 21.5068 21.1949 22.7512C21.3726 23.8559 21.0028 24.9284 20.1812 25.6934Z" fill="#316FEA"/>
<path d="M12.0049 14.4798H12C11.7708 14.4798 11.587 14.6598 11.587 14.8816C11.587 15.1034 11.7752 15.2834 12.0044 15.2834C12.2336 15.2834 12.4196 15.1034 12.4196 14.8816C12.4196 14.6598 12.2341 14.4798 12.0049 14.4798Z" fill="#316FEA"/>
</svg>
