<svg width="28" height="24" viewBox="0 0 28 24" fill="none" xmlns="http://www.w3.org/2000/svg">
<path d="M27.1183 24H0.310224C0.138408 24 0 23.8551 0 23.6752V0.324797C0 0.144909 0.138408 0 0.310224 0H27.1183C27.2902 0 27.4286 0.144909 27.4286 0.324797V23.6752C27.4286 23.8551 27.2902 24 27.1183 24ZM0.620448 23.3504H26.8081V0.649594H0.620448V23.3504Z" fill="#316FEA"/>
<path d="M19.9928 17.569H10.7433C10.5763 17.569 10.4379 17.4241 10.4379 17.2442C10.4379 17.0643 10.5715 16.9194 10.7433 16.9194H19.9975C20.1646 16.9194 20.303 17.0643 20.303 17.2442C20.2982 17.4241 20.1646 17.569 19.9928 17.569Z" fill="#316FEA"/>
<path d="M9.60262 17.2642H7.13037" stroke="#316FEA" stroke-width="0.8" stroke-miterlimit="2.6131" stroke-linecap="round" stroke-linejoin="round"/>
<path d="M7.43582 21.4116H16.69C16.8571 21.4116 16.9955 21.2667 16.9955 21.0868C16.9955 20.9069 16.8619 20.762 16.69 20.762H7.43582C7.26878 20.762 7.13037 20.9069 7.13037 21.0868C7.13037 21.2667 7.26401 21.4116 7.43582 21.4116Z" fill="#316FEA"/>
<path d="M17.8259 21.1118H20.2982" stroke="#316FEA" stroke-width="0.8" stroke-miterlimit="2.6131" stroke-linecap="round" stroke-linejoin="round"/>
<path d="M6.35718 19.158H12.4423" stroke="#316FEA" stroke-width="0.8" stroke-miterlimit="2.6131" stroke-linecap="round" stroke-linejoin="round"/>
<path d="M18.2077 19.1723H16.5564" stroke="#316FEA" stroke-width="0.8" stroke-miterlimit="2.6131" stroke-linecap="round" stroke-linejoin="round"/>
<path d="M21.0714 19.1723H19.42" stroke="#316FEA" stroke-width="0.8" stroke-miterlimit="2.6131" stroke-linecap="round" stroke-linejoin="round"/>
<path d="M15.3441 19.1723H13.6927" stroke="#316FEA" stroke-width="0.8" stroke-miterlimit="2.6131" stroke-linecap="round" stroke-linejoin="round"/>
<path d="M19.1862 6.49594H8.24243V12.3123H19.1862V6.49594Z" stroke="#316FEA" stroke-width="0.8" stroke-miterlimit="2.6131" stroke-linecap="round" stroke-linejoin="round"/>
<path d="M26.9561 6.49594H21.9448V12.3123H26.9561V6.49594Z" stroke="#316FEA" stroke-width="0.8" stroke-miterlimit="2.6131" stroke-linecap="round" stroke-linejoin="round"/>
<path d="M5.47908 6.49594H0.467773V12.3123H5.47908V6.49594Z" stroke="#316FEA" stroke-width="0.8" stroke-miterlimit="2.6131" stroke-linecap="round" stroke-linejoin="round"/>
</svg>
