<svg width="28" height="24" viewBox="0 0 28 24" fill="none" xmlns="http://www.w3.org/2000/svg">
<path d="M27.1183 24H0.310224C0.138408 24 0 23.8551 0 23.6752V0.324797C0 0.144909 0.138408 0 0.310224 0H27.1183C27.2902 0 27.4286 0.144909 27.4286 0.324797V23.6752C27.4286 23.8551 27.2902 24 27.1183 24ZM0.620448 23.3504H26.8081V0.649594H0.620448V23.3504Z" fill="#316FEA"/>
<path d="M24.5268 3.38788H18.6564V7.58526H24.5268V3.38788Z" stroke="#316FEA" stroke-width="0.8" stroke-miterlimit="2.6131" stroke-linecap="round" stroke-linejoin="round"/>
<path d="M16.4132 3.38788H10.5428V7.58526H16.4132V3.38788Z" stroke="#316FEA" stroke-width="0.8" stroke-miterlimit="2.6131" stroke-linecap="round" stroke-linejoin="round"/>
<path d="M24.5268 9.88382H18.6564V14.0812H24.5268V9.88382Z" stroke="#316FEA" stroke-width="0.8" stroke-miterlimit="2.6131" stroke-linecap="round" stroke-linejoin="round"/>
<path d="M16.4132 9.88382H10.5428V14.0812H16.4132V9.88382Z" stroke="#316FEA" stroke-width="0.8" stroke-miterlimit="2.6131" stroke-linecap="round" stroke-linejoin="round"/>
<path d="M24.5268 16.3798H18.6564V20.5771H24.5268V16.3798Z" stroke="#316FEA" stroke-width="0.8" stroke-miterlimit="2.6131" stroke-linecap="round" stroke-linejoin="round"/>
<path d="M16.4132 16.3798H10.5428V20.5771H16.4132V16.3798Z" stroke="#316FEA" stroke-width="0.8" stroke-miterlimit="2.6131" stroke-linecap="round" stroke-linejoin="round"/>
<path d="M2.53906 3.82261H7.59333" stroke="#316FEA" stroke-width="0.8" stroke-miterlimit="2.6131" stroke-linecap="round" stroke-linejoin="round"/>
<path d="M2.53906 5.32168H7.59333" stroke="#316FEA" stroke-width="0.8" stroke-miterlimit="2.6131" stroke-linecap="round" stroke-linejoin="round"/>
<path d="M2.53906 6.82074H7.59333" stroke="#316FEA" stroke-width="0.8" stroke-miterlimit="2.6131" stroke-linecap="round" stroke-linejoin="round"/>
<path d="M2.50562 8.34978H4.95877" stroke="#316FEA" stroke-width="0.8" stroke-miterlimit="2.6131" stroke-linecap="round" stroke-linejoin="round"/>
</svg>
