<svg width="30" height="24" viewBox="0 0 30 24" fill="none" xmlns="http://www.w3.org/2000/svg">
<path d="M19.3163 4.56801C20.1339 4.49368 20.9834 4.76975 21.5886 5.33251C21.8859 5.6192 22.1832 5.90589 22.4593 6.21382C23.2026 7.07389 23.3671 8.37992 22.8734 9.40457C22.7194 9.73373 22.5018 10.031 22.2416 10.2806C21.063 11.4592 19.8791 12.6431 18.7005 13.8217C18.3341 14.204 17.936 14.5809 17.4369 14.7773C16.6565 15.0959 15.6955 15.1224 14.9629 14.6605C14.6656 14.496 14.3683 14.3048 14.1718 14.0235C14.0019 13.7208 14.3258 13.3173 14.6603 13.4235C14.9098 13.5297 15.085 13.758 15.2974 13.9173C16.0725 14.3367 17.0971 14.1933 17.7289 13.5775C19.019 12.2927 20.3038 11.0026 21.5939 9.71249C21.8806 9.44173 22.1089 9.10726 22.2151 8.73031C22.4434 7.98705 22.2204 7.1376 21.6629 6.60138C21.2966 6.25629 20.9834 5.83687 20.5162 5.61389C19.8791 5.29535 19.0827 5.33251 18.4775 5.70415C18.1802 5.87935 17.9572 6.1448 17.713 6.38371C16.9272 7.16414 16.1468 7.9605 15.3558 8.73562C15.085 9.05417 14.5913 8.62944 14.7452 8.28966C14.8726 8.02952 15.154 7.88617 15.2761 7.62603C15.9982 6.88807 16.7361 6.16073 17.4635 5.42808C17.9625 4.93964 18.6261 4.62641 19.3163 4.56801ZM13.8161 9.75496C14.7665 9.48951 15.8176 9.80274 16.5238 10.477C16.752 10.7053 16.9856 10.9283 17.2033 11.1619C17.421 11.3848 17.2776 11.7936 16.975 11.852C16.6618 11.9264 16.476 11.6184 16.2795 11.4379C15.9344 11.061 15.5363 10.7212 15.0425 10.5673C14.3417 10.3974 13.5613 10.615 13.0569 11.13C11.7297 12.4626 10.3971 13.7845 9.07513 15.1171C8.34248 15.8922 8.3531 17.2195 9.09106 17.984C9.46801 18.345 9.79717 18.7751 10.2644 19.0246C10.8908 19.3591 11.6925 19.3431 12.3084 18.9874C12.611 18.8228 12.8393 18.5574 13.0782 18.3185C13.7577 17.6442 14.432 16.9647 15.1115 16.2904C15.2549 16.1099 15.3611 15.8604 15.6159 15.8179C15.9451 15.7489 16.2318 16.1418 16.0619 16.4338C15.8707 16.6886 15.6159 16.8957 15.3929 17.1239C15.2655 17.2354 15.2018 17.4053 15.0797 17.5221C14.4479 18.138 13.8374 18.7804 13.195 19.3909C12.1278 20.3519 10.3493 20.3465 9.29281 19.3697C8.79906 18.8759 8.22568 18.414 7.9443 17.7557C7.44525 16.678 7.67885 15.3082 8.51768 14.4694C9.8184 13.1634 11.1191 11.868 12.4198 10.5619C12.7968 10.1797 13.2852 9.893 13.8161 9.75496Z" fill="#316FEA"/>
<path d="M10.9491 4.13797H1.58923" stroke="#316FEA" stroke-width="0.8" stroke-miterlimit="2.6131" stroke-linecap="round" stroke-linejoin="round"/>
<path d="M3.35722 1.36133L1 4.13797L3.35722 6.92523" stroke="#316FEA" stroke-width="0.8" stroke-miterlimit="2.6131" stroke-linecap="round" stroke-linejoin="round"/>
<path d="M19.0508 20.8137H28.4107" stroke="#316FEA" stroke-width="0.8" stroke-miterlimit="2.6131" stroke-linecap="round" stroke-linejoin="round"/>
<path d="M26.6373 23.5904L28.9999 20.8137L26.6373 18.0265" stroke="#316FEA" stroke-width="0.8" stroke-miterlimit="2.6131" stroke-linecap="round" stroke-linejoin="round"/>
</svg>
