<svg width="23" height="28" viewBox="0 0 23 28" fill="none" xmlns="http://www.w3.org/2000/svg">
<path d="M21.601 9.93488H18.354C18.3666 9.77061 18.3838 9.60633 18.3838 9.44036V2.70893C18.3838 2.58916 18.3354 2.47428 18.2492 2.38959C18.163 2.30489 18.0461 2.25731 17.9242 2.25731H17.7823C15.5785 2.26145 13.4291 1.58467 11.6381 0.322677L11.2974 0.0838817C11.2195 0.0291683 11.1261 -0.000244141 11.0303 -0.000244141C10.9345 -0.000244141 10.8411 0.0291683 10.7632 0.0838817L10.4225 0.322677C8.63151 1.58467 6.48211 2.26145 4.27826 2.25731H4.13636C4.01447 2.25731 3.89757 2.30489 3.81138 2.38959C3.72519 2.47428 3.67677 2.58916 3.67677 2.70893V9.44036C3.67677 9.60633 3.694 9.77004 3.70664 9.93488H0.459596C0.337703 9.93488 0.220803 9.98246 0.134613 10.0672C0.0484216 10.1519 0 10.2667 0 10.3865V24.8384C0 24.9582 0.0484216 25.0731 0.134613 25.1577C0.220803 25.2424 0.337703 25.29 0.459596 25.29H5.97474V27.0965H5.05555V27.9998H17.005V27.0965H16.0859V25.29H21.601C21.7229 25.29 21.8398 25.2424 21.926 25.1577C22.0122 25.0731 22.0606 24.9582 22.0606 24.8384V10.3865C22.0606 10.2667 22.0122 10.1519 21.926 10.0672C21.8398 9.98246 21.7229 9.93488 21.601 9.93488ZM4.59596 3.15604C6.88231 3.09826 9.0983 2.36703 10.9568 1.05713L11.0303 1.00575L11.1038 1.05713C12.9623 2.36703 15.1783 3.09826 17.4646 3.15604V9.44036C17.4629 10.3621 17.2411 11.2707 16.8171 12.0929C16.393 12.9151 15.7785 13.6281 15.023 14.1745L11.0303 17.0536L7.03756 14.1745C6.28219 13.628 5.66781 12.915 5.24377 12.0928C4.81972 11.2706 4.59785 10.3621 4.59596 9.44036V3.15604ZM15.1667 27.0965H6.89394V25.29H15.1667V27.0965ZM21.1414 24.3868H0.919192V10.8381H3.83533C4.1844 12.4669 5.12965 13.9132 6.49179 14.9027L10.7563 17.976C10.8354 18.0326 10.9307 18.063 11.0286 18.063C11.1264 18.063 11.2217 18.0326 11.3009 17.976L15.5688 14.9027C16.9318 13.9137 17.8777 12.4673 18.227 10.8381H21.1414V24.3868Z" fill="#316FEA"/>
<path d="M7.81311 13.0965H14.2475C14.3693 13.0965 14.4862 13.0489 14.5724 12.9642C14.6586 12.8795 14.707 12.7646 14.707 12.6448V9.03186C14.707 8.91209 14.6586 8.79721 14.5724 8.71252C14.4862 8.62782 14.3693 8.58024 14.2475 8.58024H13.7879V6.77376C13.7879 6.05509 13.4973 5.36586 12.9802 4.85769C12.463 4.34951 11.7616 4.06403 11.0303 4.06403C10.2989 4.06403 9.59753 4.34951 9.08038 4.85769C8.56324 5.36586 8.27271 6.05509 8.27271 6.77376V8.58024H7.81311C7.69122 8.58024 7.57432 8.62782 7.48813 8.71252C7.40194 8.79721 7.35352 8.91209 7.35352 9.03186V12.6448C7.35352 12.7646 7.40194 12.8795 7.48813 12.9642C7.57432 13.0489 7.69122 13.0965 7.81311 13.0965ZM9.1919 6.77376C9.1919 6.29465 9.38559 5.83516 9.73035 5.49638C10.0751 5.15759 10.5427 4.96727 11.0303 4.96727C11.5179 4.96727 11.9855 5.15759 12.3302 5.49638C12.675 5.83516 12.8687 6.29465 12.8687 6.77376V8.58024H9.1919V6.77376ZM8.27271 9.48349H13.7879V12.1932H8.27271V9.48349Z" fill="#316FEA"/>
<path d="M10.5707 18.9675H11.4899V19.8708H10.5707V18.9675Z" fill="#316FEA"/>
<path d="M12.4091 18.9675H20.2222V19.8708H12.4091V18.9675Z" fill="#316FEA"/>
<path d="M19.303 20.774H20.2222V21.6773H19.303V20.774Z" fill="#316FEA"/>
<path d="M10.5707 20.774H18.3838V21.6773H10.5707V20.774Z" fill="#316FEA"/>
<path d="M19.303 22.5805H20.2222V23.4837H19.303V22.5805Z" fill="#316FEA"/>
<path d="M10.5707 22.5805H18.3838V23.4837H10.5707V22.5805Z" fill="#316FEA"/>
<path d="M3.35169 21.3578L2.75766 21.942L2.16363 21.3578L1.51331 21.9968L2.10791 22.5805L1.51331 23.1642L2.16363 23.8033L2.75766 23.219L3.35169 23.8033L4.00202 23.1642L3.40741 22.5805L4.00202 21.9968L3.35169 21.3578Z" fill="#316FEA"/>
<path d="M6.56885 21.3578L5.97482 21.942L5.3808 21.3578L4.73047 21.9968L5.32507 22.5805L4.73047 23.1642L5.3808 23.8033L5.97482 23.219L6.56885 23.8033L7.21918 23.1642L6.62458 22.5805L7.21918 21.9968L6.56885 21.3578Z" fill="#316FEA"/>
<path d="M9.78602 21.3578L9.19199 21.942L8.59796 21.3578L7.94763 21.9968L8.54223 22.5805L7.94763 23.1642L8.59796 23.8033L9.19199 23.219L9.78602 23.8033L10.4363 23.1642L9.84174 22.5805L10.4363 21.9968L9.78602 21.3578Z" fill="#316FEA"/>
</svg>
