<svg width="24" height="29" viewBox="0 0 24 29" fill="none" xmlns="http://www.w3.org/2000/svg">
<path d="M16.7046 22.086C16.5945 22.086 16.4889 22.1298 16.411 22.2077C16.3332 22.2856 16.2894 22.3913 16.2894 22.5015V23.4399C16.2894 23.5501 16.3332 23.6558 16.411 23.7337C16.4889 23.8116 16.5945 23.8554 16.7046 23.8554C16.8147 23.8554 16.9203 23.8116 16.9982 23.7337C17.076 23.6558 17.1198 23.5501 17.1198 23.4399V22.5015C17.1198 22.3913 17.076 22.2856 16.9982 22.2077C16.9203 22.1298 16.8147 22.086 16.7046 22.086Z" fill="#316FEA"/>
<path d="M16.7047 17.6881C16.1928 17.6879 15.7017 17.891 15.3392 18.2527C14.9768 18.6144 14.7724 19.1053 14.7711 19.6176V20.7006C14.5399 20.7564 14.3341 20.8883 14.1868 21.0751C14.0394 21.262 13.959 21.4929 13.9585 21.7309V24.2083C13.9589 24.4896 14.0708 24.7592 14.2697 24.9581C14.4685 25.157 14.738 25.2688 15.0191 25.2691H18.3908C18.6719 25.2688 18.9413 25.1569 19.1401 24.9581C19.3388 24.7592 19.4506 24.4895 19.4509 24.2083V21.7309C19.4503 21.4929 19.3699 21.262 19.2226 21.0751C19.0752 20.8883 18.8695 20.7564 18.6383 20.7006V19.6176C18.637 19.1053 18.4326 18.6144 18.0701 18.2527C17.7077 17.891 17.2166 17.6879 16.7047 17.6881ZM16.7047 18.519C16.9964 18.5187 17.2764 18.6342 17.4832 18.8401C17.69 19.046 17.8068 19.3256 17.8079 19.6176V20.6701H15.6015V19.6176C15.6026 19.3256 15.7194 19.046 15.9262 18.8401C16.133 18.6342 16.413 18.5187 16.7047 18.519ZM18.6206 24.2083C18.6204 24.2693 18.5961 24.3278 18.5529 24.3709C18.5097 24.4139 18.4513 24.4382 18.3903 24.4382H15.0191C14.9581 24.4382 14.8996 24.4139 14.8565 24.3709C14.8133 24.3278 14.789 24.2693 14.7888 24.2083V21.7315C14.7888 21.7012 14.7948 21.6713 14.8064 21.6433C14.8179 21.6153 14.8349 21.5899 14.8563 21.5685C14.8777 21.5471 14.903 21.5302 14.931 21.5186C14.9589 21.507 14.9889 21.501 15.0191 21.501H18.3903C18.4513 21.5012 18.5098 21.5255 18.5529 21.5687C18.5961 21.6119 18.6204 21.6704 18.6206 21.7315V24.2083Z" fill="#316FEA"/>
<path d="M6.19984 10.8876C6.30995 10.8876 6.41554 10.8438 6.4934 10.7659C6.57126 10.688 6.615 10.5823 6.615 10.4721V7.93166C6.615 7.82147 6.57126 7.7158 6.4934 7.63788C6.41554 7.55996 6.30995 7.51619 6.19984 7.51619H5.65735C5.54724 7.51619 5.44165 7.55996 5.36379 7.63788C5.28593 7.7158 5.24219 7.82147 5.24219 7.93166C5.24219 8.04185 5.28593 8.14753 5.36379 8.22545C5.44165 8.30336 5.54724 8.34714 5.65735 8.34714H5.78467V10.4699C5.78438 10.5247 5.7949 10.5789 5.81564 10.6296C5.83637 10.6803 5.8669 10.7263 5.90548 10.7651C5.94407 10.804 5.98993 10.8348 6.04045 10.8558C6.09096 10.8768 6.14513 10.8876 6.19984 10.8876Z" fill="#316FEA"/>
<path d="M2.26135 8.61416V9.78912C2.26135 9.94014 2.29108 10.0897 2.34883 10.2292C2.40658 10.3687 2.49123 10.4955 2.59794 10.6023C2.70465 10.7091 2.83134 10.7938 2.97076 10.8516C3.11019 10.9094 3.25962 10.9391 3.41054 10.9391C3.56145 10.9391 3.71088 10.9094 3.85031 10.8516C3.98973 10.7938 4.11642 10.7091 4.22313 10.6023C4.32984 10.4955 4.41449 10.3687 4.47224 10.2292C4.52999 10.0897 4.55972 9.94014 4.55972 9.78912V8.61416C4.55972 8.30915 4.43865 8.01663 4.22313 7.80096C4.00762 7.58529 3.71532 7.46413 3.41054 7.46413C3.10575 7.46413 2.81345 7.58529 2.59794 7.80096C2.38243 8.01663 2.26135 8.30915 2.26135 8.61416ZM3.72938 8.61416V9.78912C3.72938 9.87374 3.69579 9.9549 3.636 10.0147C3.5762 10.0746 3.4951 10.1082 3.41054 10.1082C3.32597 10.1082 3.24487 10.0746 3.18508 10.0147C3.12528 9.9549 3.09169 9.87374 3.09169 9.78912V8.61416C3.09169 8.52953 3.12528 8.44837 3.18508 8.38853C3.24487 8.32869 3.32597 8.29507 3.41054 8.29507C3.4951 8.29507 3.5762 8.32869 3.636 8.38853C3.69579 8.44837 3.72938 8.52953 3.72938 8.61416Z" fill="#316FEA"/>
<path d="M11.2366 10.8876C11.3468 10.8876 11.4524 10.8438 11.5302 10.7659C11.6081 10.688 11.6518 10.5823 11.6518 10.4721V7.93166C11.6518 7.82147 11.6081 7.7158 11.5302 7.63788C11.4524 7.55996 11.3468 7.51619 11.2366 7.51619H10.6936C10.5835 7.51619 10.4779 7.55996 10.4 7.63788C10.3222 7.7158 10.2784 7.82147 10.2784 7.93166C10.2784 8.04185 10.3222 8.14753 10.4 8.22545C10.4779 8.30336 10.5835 8.34714 10.6936 8.34714H10.8215V10.4699C10.8212 10.5247 10.8317 10.5789 10.8524 10.6296C10.8732 10.6803 10.9037 10.7263 10.9423 10.7651C10.9809 10.804 11.0267 10.8348 11.0773 10.8558C11.1278 10.8768 11.1819 10.8876 11.2366 10.8876Z" fill="#316FEA"/>
<path d="M8.17542 8.34714H8.30274V10.4699C8.30274 10.5801 8.34648 10.6858 8.42434 10.7637C8.5022 10.8416 8.6078 10.8854 8.71791 10.8854C8.82802 10.8854 8.93362 10.8416 9.01147 10.7637C9.08933 10.6858 9.13307 10.5801 9.13307 10.4699V7.93166C9.13307 7.82147 9.08933 7.7158 9.01147 7.63788C8.93362 7.55996 8.82802 7.51619 8.71791 7.51619H8.17542C8.06531 7.51619 7.95971 7.55996 7.88185 7.63788C7.80399 7.7158 7.76025 7.82147 7.76025 7.93166C7.76025 8.04185 7.80399 8.14753 7.88185 8.22545C7.95971 8.30336 8.06531 8.34714 8.17542 8.34714Z" fill="#316FEA"/>
<path d="M14.6327 9.78912V8.61416C14.6327 8.30915 14.5116 8.01663 14.2961 7.80096C14.0806 7.58529 13.7883 7.46413 13.4835 7.46413C13.1788 7.46413 12.8865 7.58529 12.6709 7.80096C12.4554 8.01663 12.3344 8.30915 12.3344 8.61416V9.78912C12.3344 10.0941 12.4554 10.3866 12.6709 10.6023C12.8865 10.818 13.1788 10.9391 13.4835 10.9391C13.7883 10.9391 14.0806 10.818 14.2961 10.6023C14.5116 10.3866 14.6327 10.0941 14.6327 9.78912ZM13.1647 9.78912V8.61416C13.1647 8.52953 13.1983 8.44837 13.2581 8.38853C13.3179 8.32869 13.399 8.29507 13.4835 8.29507C13.5681 8.29507 13.6492 8.32869 13.709 8.38853C13.7688 8.44837 13.8024 8.52953 13.8024 8.61416V9.78912C13.8024 9.87374 13.7688 9.9549 13.709 10.0147C13.6492 10.0746 13.5681 10.1082 13.4835 10.1082C13.399 10.1082 13.3179 10.0746 13.2581 10.0147C13.1983 9.9549 13.1647 9.87374 13.1647 9.78912Z" fill="#316FEA"/>
<path d="M9.81571 12.611V13.7854C9.81235 13.9386 9.83959 14.0909 9.89585 14.2334C9.95211 14.3759 10.0362 14.5057 10.1433 14.6152C10.2504 14.7248 10.3782 14.8118 10.5194 14.8712C10.6605 14.9306 10.8121 14.9612 10.9652 14.9612C11.1183 14.9612 11.2698 14.9306 11.411 14.8712C11.5521 14.8118 11.68 14.7248 11.787 14.6152C11.8941 14.5057 11.9782 14.3759 12.0345 14.2334C12.0907 14.0909 12.118 13.9386 12.1146 13.7854V12.611C12.118 12.4578 12.0907 12.3055 12.0345 12.163C11.9782 12.0205 11.8941 11.8906 11.787 11.7811C11.68 11.6716 11.5521 11.5846 11.411 11.5252C11.2698 11.4658 11.1183 11.4352 10.9652 11.4352C10.8121 11.4352 10.6605 11.4658 10.5194 11.5252C10.3782 11.5846 10.2504 11.6716 10.1433 11.7811C10.0362 11.8906 9.95211 12.0205 9.89585 12.163C9.83959 12.3055 9.81235 12.4578 9.81571 12.611ZM10.646 12.611C10.6443 12.5679 10.6512 12.5249 10.6664 12.4846C10.6816 12.4443 10.7049 12.4075 10.7347 12.3764C10.7645 12.3453 10.8003 12.3206 10.8399 12.3037C10.8795 12.2868 10.9221 12.278 10.9652 12.278C11.0082 12.278 11.0509 12.2868 11.0905 12.3037C11.1301 12.3206 11.1659 12.3453 11.1957 12.3764C11.2255 12.4075 11.2487 12.4443 11.2639 12.4846C11.2792 12.5249 11.2861 12.5679 11.2843 12.611V13.7854C11.2861 13.8284 11.2792 13.8714 11.2639 13.9117C11.2487 13.952 11.2255 13.9889 11.1957 14.02C11.1659 14.0511 11.1301 14.0758 11.0905 14.0927C11.0509 14.1096 11.0082 14.1183 10.9652 14.1183C10.9221 14.1183 10.8795 14.1096 10.8399 14.0927C10.8003 14.0758 10.7645 14.0511 10.7347 14.02C10.7049 13.9889 10.6816 13.952 10.6664 13.9117C10.6512 13.8714 10.6443 13.8284 10.646 13.7854V12.611Z" fill="#316FEA"/>
<path d="M3.68177 15.0124C3.79188 15.0124 3.89748 14.9687 3.97534 14.8907C4.0532 14.8128 4.09694 14.7071 4.09694 14.597V12.0587C4.09694 11.9485 4.0532 11.8428 3.97534 11.7649C3.89748 11.687 3.79188 11.6432 3.68177 11.6432H3.13929C3.02918 11.6432 2.92358 11.687 2.84572 11.7649C2.76786 11.8428 2.72412 11.9485 2.72412 12.0587C2.72412 12.1689 2.76786 12.2746 2.84572 12.3525C2.92358 12.4304 3.02918 12.4742 3.13929 12.4742H3.26661V14.5992C3.26719 14.709 3.31119 14.8141 3.38899 14.8915C3.46678 14.969 3.57205 15.0124 3.68177 15.0124Z" fill="#316FEA"/>
<path d="M8.17542 12.4742H8.30274V14.5992C8.30274 14.7094 8.34648 14.815 8.42434 14.893C8.5022 14.9709 8.6078 15.0146 8.71791 15.0146C8.82802 15.0146 8.93362 14.9709 9.01147 14.893C9.08933 14.815 9.13307 14.7094 9.13307 14.5992V12.0587C9.13307 11.9485 9.08933 11.8428 9.01147 11.7649C8.93362 11.687 8.82802 11.6432 8.71791 11.6432H8.17542C8.06531 11.6432 7.95971 11.687 7.88185 11.7649C7.80399 11.8428 7.76025 11.9485 7.76025 12.0587C7.76025 12.1689 7.80399 12.2746 7.88185 12.3525C7.95971 12.4304 8.06531 12.4742 8.17542 12.4742Z" fill="#316FEA"/>
<path d="M4.99304 13.9167C4.99964 14.2174 5.12364 14.5036 5.33848 14.7139C5.55333 14.9242 5.84194 15.042 6.1425 15.042C6.44306 15.042 6.73167 14.9242 6.94652 14.7139C7.16137 14.5036 7.28537 14.2174 7.29196 13.9167V12.7412C7.28537 12.4405 7.16137 12.1543 6.94652 11.9439C6.73167 11.7336 6.44306 11.6158 6.1425 11.6158C5.84194 11.6158 5.55333 11.7336 5.33848 11.9439C5.12364 12.1543 4.99964 12.4405 4.99304 12.7412V13.9167ZM5.82338 12.7417C5.82334 12.6996 5.83159 12.658 5.84765 12.6191C5.86371 12.5802 5.88726 12.5448 5.91698 12.515C5.94669 12.4852 5.98197 12.4616 6.02081 12.4455C6.05964 12.4293 6.10128 12.421 6.14333 12.421C6.18539 12.4209 6.22704 12.4292 6.2659 12.4453C6.30477 12.4613 6.34009 12.4849 6.36985 12.5146C6.39961 12.5444 6.42323 12.5797 6.43936 12.6185C6.45549 12.6574 6.46381 12.6991 6.46384 12.7412V13.9161C6.46041 13.9985 6.42529 14.0764 6.36582 14.1335C6.30635 14.1906 6.22713 14.2225 6.14472 14.2225C6.06231 14.2225 5.98309 14.1906 5.92362 14.1335C5.86414 14.0764 5.82902 13.9985 5.82559 13.9161L5.82338 12.7417Z" fill="#316FEA"/>
<path d="M2.72412 3.67448C2.72412 3.78467 2.76786 3.89034 2.84572 3.96826C2.92358 4.04618 3.02918 4.08995 3.13929 4.08995H3.26661V6.21496C3.26661 6.32515 3.31035 6.43082 3.38821 6.50874C3.46607 6.58666 3.57166 6.63043 3.68177 6.63043C3.79188 6.63043 3.89748 6.58666 3.97534 6.50874C4.0532 6.43082 4.09694 6.32515 4.09694 6.21496V3.67448C4.09694 3.56429 4.0532 3.45861 3.97534 3.38069C3.89748 3.30278 3.79188 3.259 3.68177 3.259H3.13929C3.02918 3.259 2.92358 3.30278 2.84572 3.38069C2.76786 3.45861 2.72412 3.56429 2.72412 3.67448Z" fill="#316FEA"/>
<path d="M8.71791 6.63043C8.82802 6.63043 8.93362 6.58666 9.01147 6.50874C9.08933 6.43082 9.13307 6.32515 9.13307 6.21496V3.67448C9.13307 3.56429 9.08933 3.45861 9.01147 3.38069C8.93362 3.30278 8.82802 3.259 8.71791 3.259H8.17542C8.06531 3.259 7.95971 3.30278 7.88185 3.38069C7.80399 3.45861 7.76025 3.56429 7.76025 3.67448C7.76025 3.78467 7.80399 3.89034 7.88185 3.96826C7.95971 4.04618 8.06531 4.08995 8.17542 4.08995H8.30274V6.21496C8.30274 6.32515 8.34648 6.43082 8.42434 6.50874C8.5022 6.58666 8.6078 6.63043 8.71791 6.63043Z" fill="#316FEA"/>
<path d="M7.29428 5.53246V4.3575C7.28769 4.05679 7.16369 3.77062 6.94884 3.56028C6.73399 3.34994 6.44538 3.23216 6.14482 3.23216C5.84426 3.23216 5.55565 3.34994 5.3408 3.56028C5.12596 3.77062 5.00196 4.05679 4.99536 4.3575V5.53246C5.00196 5.83317 5.12596 6.11934 5.3408 6.32968C5.55565 6.54001 5.84426 6.6578 6.14482 6.6578C6.44538 6.6578 6.73399 6.54001 6.94884 6.32968C7.16369 6.11934 7.28769 5.83317 7.29428 5.53246ZM6.46395 5.53246C6.46052 5.61486 6.42539 5.69274 6.36592 5.74983C6.30645 5.80692 6.22723 5.83879 6.14482 5.83879C6.06241 5.83879 5.98319 5.80692 5.92372 5.74983C5.86425 5.69274 5.82913 5.61486 5.8257 5.53246V4.3575C5.82913 4.2751 5.86425 4.19722 5.92372 4.14013C5.98319 4.08304 6.06241 4.05117 6.14482 4.05117C6.22723 4.05117 6.30645 4.08304 6.36592 4.14013C6.42539 4.19722 6.46052 4.2751 6.46395 4.3575V5.53246Z" fill="#316FEA"/>
<path d="M20.2109 15.5531V13.1157H22.5607C22.6709 13.1157 22.7765 13.0719 22.8543 12.994C22.9322 12.9161 22.9759 12.8104 22.9759 12.7002V9.321C23.3066 9.22131 23.5904 9.00595 23.7756 8.71422C23.9608 8.4225 24.035 8.07386 23.9846 7.73194C23.9343 7.39003 23.7627 7.07763 23.5013 6.85176C23.2399 6.62589 22.9061 6.50162 22.5607 6.50162C22.2154 6.50162 21.8816 6.62589 21.6202 6.85176C21.3588 7.07763 21.1872 7.39003 21.1369 7.73194C21.0865 8.07386 21.1607 8.4225 21.3459 8.71422C21.5311 9.00595 21.8149 9.22131 22.1456 9.321V12.2875H20.2081V3.81183C20.5388 3.71213 20.8226 3.49677 21.0078 3.20505C21.193 2.91332 21.2672 2.56468 21.2168 2.22277C21.1665 1.88085 20.995 1.56845 20.7336 1.34258C20.4722 1.11671 20.1383 0.99244 19.793 0.99244C19.4476 0.99244 19.1138 1.11671 18.8524 1.34258C18.591 1.56845 18.4194 1.88085 18.3691 2.22277C18.3187 2.56468 18.3929 2.91332 18.5781 3.20505C18.7633 3.49677 19.0471 3.71213 19.3778 3.81183V15.1349C18.6525 14.83 17.8804 14.6519 17.0949 14.608V5.48425C17.0949 5.42944 17.084 5.37517 17.063 5.32459C17.0419 5.274 17.011 5.2281 16.972 5.18954L11.8688 0.120764C11.7907 0.0440558 11.6859 0.000746622 11.5765 0L5.30141 0C4.76446 0 4.76446 0.830947 5.30141 0.830947H11.1614V5.00507C11.1618 5.25156 11.26 5.48779 11.4344 5.66187C11.6087 5.83596 11.845 5.93366 12.0913 5.93351H16.2674V14.6108C12.6637 14.8368 9.80183 17.831 9.80183 21.48C9.8016 21.9414 9.84797 22.4017 9.94022 22.8538H0.928314C0.902277 22.8539 0.877239 22.8438 0.858672 22.8255C0.840106 22.8072 0.82952 22.7824 0.829228 22.7563V0.930106C0.829154 0.917064 0.831667 0.904136 0.836621 0.892073C0.841574 0.880009 0.84887 0.869048 0.858086 0.859826C0.867302 0.850603 0.878254 0.843302 0.890309 0.838345C0.902364 0.833388 0.915282 0.830873 0.928314 0.830947H2.92112C3.45807 0.830947 3.45807 0 2.92112 0H0.928314C0.682296 0.000292877 0.446429 0.0981873 0.272416 0.272225C0.0984024 0.446263 0.000439407 0.682245 0 0.928444V22.7546C-1.74744e-07 23.0011 0.0977687 23.2375 0.27183 23.4119C0.445891 23.5863 0.682008 23.6845 0.928314 23.6847H10.165C10.3887 24.3413 10.7106 24.9601 11.1198 25.52H8.40742C8.3078 25.1891 8.09259 24.9051 7.80108 24.7198C7.50957 24.5344 7.16119 24.4602 6.81952 24.5106C6.47786 24.561 6.16569 24.7326 5.93999 24.9942C5.71429 25.2558 5.5901 25.5899 5.5901 25.9355C5.5901 26.2811 5.71429 26.6152 5.93999 26.8768C6.16569 27.1384 6.47786 27.31 6.81952 27.3604C7.16119 27.4108 7.50957 27.3366 7.80108 27.1513C8.09259 26.9659 8.3078 26.6819 8.40742 26.351H11.8334C12.8914 27.4024 14.2605 28.0836 15.7368 28.2932C17.213 28.5028 18.7175 28.2296 20.026 27.5143C20.4971 27.2562 20.0985 26.5271 19.6275 26.7853C18.731 27.2752 17.726 27.532 16.7047 27.532C13.3562 27.532 10.6322 24.8176 10.6322 21.48C10.6322 18.1423 13.3562 15.4274 16.7047 15.4274C20.0531 15.4274 22.7777 18.1418 22.7777 21.48C22.7781 22.9684 22.2281 24.4042 21.2339 25.5112C20.8757 25.9106 21.4935 26.4656 21.8522 26.0651C22.5323 25.3072 23.0353 24.4072 23.3248 23.4306C23.6143 22.4539 23.6829 21.4251 23.5258 20.4186C23.3687 19.4121 22.9897 18.4532 22.4163 17.6115C21.843 16.7697 21.0896 16.0662 20.2109 15.552V15.5531ZM21.9529 7.94053C21.9529 7.77891 22.0171 7.62392 22.1313 7.50964C22.2455 7.39537 22.4004 7.33116 22.5619 7.33116C22.7234 7.33116 22.8782 7.39537 22.9924 7.50964C23.1066 7.62392 23.1708 7.77891 23.1708 7.94053C23.1686 8.74211 21.9529 8.74211 21.9529 7.94053ZM12.0913 5.10312C12.0652 5.10327 12.04 5.09304 12.0213 5.07467C12.0026 5.05629 11.992 5.03127 11.9917 5.00507V1.41759L15.6789 5.10312H12.0913ZM7.02795 26.5415C6.90818 26.5415 6.79109 26.506 6.69151 26.4394C6.59192 26.3728 6.5143 26.2782 6.46846 26.1674C6.42263 26.0567 6.41063 25.9348 6.434 25.8173C6.45737 25.6997 6.51504 25.5917 6.59974 25.507C6.68443 25.4222 6.79234 25.3645 6.90981 25.3411C7.02728 25.3177 7.14905 25.3297 7.2597 25.3756C7.37036 25.4215 7.46494 25.4991 7.53148 25.5988C7.59803 25.6985 7.63354 25.8156 7.63354 25.9355C7.63369 26.0152 7.61813 26.0941 7.58777 26.1678C7.5574 26.2414 7.51281 26.3084 7.45656 26.3648C7.40031 26.4211 7.33351 26.4659 7.25996 26.4964C7.18641 26.5269 7.10757 26.5427 7.02795 26.5427V26.5415ZM19.1879 2.43357C19.1879 2.31305 19.2236 2.19523 19.2906 2.09502C19.3575 1.99481 19.4526 1.91671 19.5638 1.87059C19.6751 1.82447 19.7975 1.8124 19.9156 1.83591C20.0338 1.85943 20.1423 1.91746 20.2274 2.00268C20.3126 2.0879 20.3706 2.19648 20.3941 2.31469C20.4175 2.43289 20.4055 2.55541 20.3594 2.66676C20.3133 2.7781 20.2353 2.87327 20.1351 2.94023C20.035 3.00719 19.9173 3.04293 19.7968 3.04293C19.6353 3.04293 19.4805 2.97873 19.3663 2.86445C19.2521 2.75017 19.1879 2.59518 19.1879 2.43357Z" fill="#316FEA"/>
</svg>
