<svg width="24" height="29" viewBox="0 0 24 29" fill="none" xmlns="http://www.w3.org/2000/svg">
<path d="M1.68577 13.5863L0.182285 15.6759C-0.191491 16.1951 0.0342271 16.9291 0.634279 17.1457L1.60643 17.4955V24.301C1.60643 24.9186 1.99473 25.4732 2.57243 25.6813L10.5078 28.5387C11.4564 28.8807 12.5113 28.892 13.4929 28.5387L21.4283 25.6813C22.006 25.4732 22.3943 24.9186 22.3943 24.301V19.3354C22.3943 19.1025 22.2065 18.9135 21.9752 18.9135C21.7439 18.9135 21.5562 19.1025 21.5562 19.3354V24.301C21.5562 24.5631 21.3914 24.7988 21.1461 24.8871L13.2108 27.7445C12.9538 27.8373 12.6889 27.8998 12.4197 27.9313V18.7268L13.3477 20.0171C13.5935 20.3591 14.0444 20.502 14.4427 20.3586C14.8869 20.1988 21.359 17.8679 21.5556 17.797V20.1786C21.5556 20.4114 21.7434 20.6004 21.9747 20.6004C22.206 20.6004 22.3937 20.4114 22.3937 20.1786V17.4955L23.3658 17.1457C23.9653 16.9297 24.1916 16.1956 23.8178 15.6759L22.3144 13.5863C22.2713 13.5266 22.1965 13.4653 22.1155 13.4361L18.4833 12.1362C18.2654 12.058 18.0257 12.1727 17.9481 12.3921C17.8704 12.6115 17.9844 12.8528 18.2023 12.931L20.7271 13.8349L12.4191 16.8267V11C12.7733 11.0343 13.1219 11.1125 13.4594 11.2334L16.349 12.2678C16.5669 12.346 16.8066 12.2312 16.8843 12.0119C16.9619 11.7925 16.848 11.5512 16.6301 11.473L13.7404 10.4386C12.6431 10.046 11.4145 10.0252 10.2602 10.4386L1.88522 13.4366C1.80477 13.4648 1.73102 13.5238 1.68577 13.5863ZM0.861114 16.1709L2.18022 14.3377L11.333 17.6333C11.0223 18.0648 11.2933 17.6885 9.97419 19.5221C9.94402 19.5643 9.88871 19.5812 9.8401 19.5638C9.68422 19.5075 1.08013 16.4094 0.916985 16.3509C0.842677 16.3244 0.8153 16.2344 0.861114 16.1709ZM2.85402 24.8865C2.60875 24.7982 2.44393 24.5626 2.44393 24.3004V17.797L9.55684 20.3586C9.9591 20.5037 10.4066 20.3557 10.6502 20.0194C10.6508 20.0183 10.6513 20.0177 10.6519 20.0171L11.5799 18.7268V27.9307C11.3106 27.8992 11.0458 27.8362 10.7888 27.744L2.85402 24.8865ZM23.1385 16.1709C23.1843 16.2344 23.1563 16.3244 23.0831 16.3509C22.9993 16.3812 14.2483 19.5323 14.16 19.5638C14.1114 19.5812 14.0561 19.5643 14.0259 19.5221L12.6666 17.6333L21.8193 14.3377L23.1385 16.1709ZM10.5407 11.2334C10.8782 11.1125 11.2263 11.0348 11.581 11V16.8262C11.2218 16.6968 3.5971 13.9513 3.27305 13.8343L10.5407 11.2334Z" fill="#316FEA"/>
<path d="M12.4186 8.79163V3.51891C12.4186 3.28604 12.2308 3.09705 11.9995 3.09705C11.7682 3.09705 11.5805 3.28604 11.5805 3.51891V8.79106C11.5805 9.02393 11.7682 9.21293 11.9995 9.21293C12.2308 9.21293 12.4186 9.0245 12.4186 8.79163Z" fill="#316FEA"/>
<path d="M17.5481 4.32552C17.4285 4.3784 14.6115 5.65636 14.1461 9.17132C14.1126 9.42387 14.3076 9.64886 14.5618 9.64886C14.7685 9.64886 14.9484 9.49474 14.9769 9.28269C15.1451 8.01429 15.6814 6.92701 16.5709 6.05122C17.2397 5.39312 17.8704 5.10456 17.8844 5.09837C18.0956 5.00444 18.1923 4.75638 18.0995 4.5432C18.0073 4.32946 17.7604 4.23215 17.5481 4.32552Z" fill="#316FEA"/>
<path d="M16.6965 10.0724C16.5814 10.2749 16.6513 10.5325 16.8519 10.6478C17.0524 10.7637 17.3089 10.6939 17.4234 10.4915C18.3967 8.77982 19.8426 8.11159 20.884 7.85228C21.1086 7.79659 21.2461 7.56766 21.1902 7.34154C21.1349 7.11543 20.9075 6.97705 20.6829 7.0333C19.7007 7.27798 17.8765 7.99796 16.6965 10.0724Z" fill="#316FEA"/>
<path d="M5.899 4.5432C5.80625 4.75695 5.90291 5.00556 6.11522 5.09894C6.14036 5.11019 8.61823 6.23403 9.02218 9.28325C9.0529 9.51499 9.26465 9.67643 9.49317 9.64549C9.7228 9.61455 9.8837 9.4025 9.85297 9.17132C9.38701 5.65636 6.57057 4.3784 6.451 4.32552C6.23925 4.23215 5.9923 4.32946 5.899 4.5432Z" fill="#316FEA"/>
<path d="M2.80878 7.34154C2.75347 7.56766 2.89035 7.79659 3.11495 7.85228C4.15638 8.11159 5.60231 8.77982 6.57558 10.4915C6.69068 10.6939 6.94656 10.7637 7.14714 10.6478C7.34827 10.532 7.41755 10.2743 7.30246 10.0724C6.12303 7.99796 4.29829 7.27798 3.31553 7.0333C3.09093 6.97705 2.86409 7.11543 2.80878 7.34154Z" fill="#316FEA"/>
<path d="M19.6695 4.29009C19.4382 4.29009 19.2504 4.47909 19.2504 4.71196C19.2504 4.94482 19.4382 5.13382 19.6695 5.13382H19.9611V5.42743C19.9611 5.6603 20.1488 5.8493 20.3801 5.8493C20.6114 5.8493 20.7992 5.6603 20.7992 5.42743V5.13382H21.0908C21.3221 5.13382 21.5098 4.94482 21.5098 4.71196C21.5098 4.47909 21.3221 4.29009 21.0908 4.29009H20.7992V3.99648C20.7992 3.76361 20.6114 3.57462 20.3801 3.57462C20.1488 3.57462 19.9611 3.76361 19.9611 3.99648V4.29009H19.6695Z" fill="#316FEA"/>
<path d="M2.79649 10.136H2.50485C2.27354 10.136 2.08582 10.325 2.08582 10.5578C2.08582 10.7907 2.27354 10.9797 2.50485 10.9797H2.79649V11.2733C2.79649 11.5062 2.98422 11.6952 3.21552 11.6952C3.44683 11.6952 3.63455 11.5062 3.63455 11.2733V10.9797H3.9262C4.1575 10.9797 4.34523 10.7907 4.34523 10.5578C4.34523 10.325 4.1575 10.136 3.9262 10.136H3.63455V9.84236C3.63455 9.6095 3.44683 9.4205 3.21552 9.4205C2.98422 9.4205 2.79649 9.6095 2.79649 9.84236V10.136Z" fill="#316FEA"/>
<path d="M16.8944 1.30049C16.5116 1.10306 16.1932 0.782448 15.9982 0.396584C15.7311 -0.13215 14.9836 -0.131588 14.7165 0.396584C14.5215 0.781885 14.2036 1.10306 13.8209 1.30049C13.2963 1.57049 13.2996 2.32928 13.8181 2.59533C14.1992 2.79108 14.5171 3.11 14.7126 3.49362C14.9786 4.01504 15.7367 4.0156 16.0027 3.49362C16.1982 3.11 16.5156 2.79108 16.8972 2.59533C17.4156 2.32928 17.4195 1.57049 16.8944 1.30049ZM15.3579 2.9272C15.1171 2.52952 14.7808 2.19034 14.3858 1.94848C14.7813 1.70605 15.1177 1.36799 15.3579 0.970317C15.5987 1.36799 15.9351 1.70605 16.3301 1.94848C15.9351 2.19091 15.5982 2.52952 15.3579 2.9272Z" fill="#316FEA"/>
<path d="M8.35789 4.33171C8.5959 4.79857 9.27305 4.79913 9.51106 4.33171C9.64739 4.06453 9.86864 3.84178 10.1346 3.70566C10.5955 3.46886 10.6056 2.79107 10.1329 2.54751C9.86584 2.41027 9.64404 2.1864 9.50827 1.91753C9.26914 1.44448 8.59981 1.44448 8.36068 1.91753C8.22492 2.1864 8.00311 2.41027 7.73605 2.54751C7.27064 2.78769 7.26673 3.46548 7.73437 3.70566C8.00032 3.84178 8.22156 4.06453 8.35789 4.33171ZM8.93448 2.58745C9.08198 2.79557 9.26411 2.97894 9.47084 3.12687C9.26411 3.27536 9.08198 3.45873 8.93448 3.66685C8.78698 3.45873 8.60484 3.27536 8.39812 3.12687C8.60484 2.97837 8.78698 2.79557 8.93448 2.58745Z" fill="#316FEA"/>
</svg>
