<svg width="28" height="28" viewBox="0 0 28 28" fill="none" xmlns="http://www.w3.org/2000/svg">
<path d="M5.44688 7.48672C5.22266 7.48672 5.03672 7.67266 5.03672 7.89687C5.03672 8.12109 5.22266 8.30703 5.44688 8.30703C5.67109 8.30703 5.85703 8.12109 5.85703 7.89687C5.85703 7.67266 5.67656 7.48672 5.44688 7.48672ZM12.9445 3.87734L13.5898 3.23203V6.72656C13.5898 6.95078 13.7758 7.13672 14 7.13672C14.2242 7.13672 14.4102 6.95078 14.4102 6.72656V3.23203L15.0555 3.87734C15.2141 4.03594 15.4766 4.03594 15.6352 3.87734C15.7937 3.71875 15.7937 3.45625 15.6352 3.29766L14.5633 2.22578C14.257 1.91953 13.7484 1.91953 13.4422 2.22578L12.3703 3.29766C12.2117 3.45625 12.2117 3.71875 12.3703 3.87734C12.5289 4.03594 12.7859 4.03594 12.9445 3.87734ZM25.9492 4.92188H18.4625C18.4789 4.77969 18.4844 4.63203 18.4844 4.48438C18.4844 2.0125 16.4719 0 14 0C11.5281 0 9.51562 2.0125 9.51562 4.48438C9.51562 4.63203 9.52109 4.77969 9.5375 4.92188H2.05078C0.91875 4.92188 0 5.84062 0 6.97266V25.9492C0 27.0812 0.91875 28 2.05078 28H25.9492C27.0812 28 28 27.0812 28 25.9492V6.97266C28 5.84062 27.0812 4.92188 25.9492 4.92188ZM14 0.820312C16.018 0.820312 17.6641 2.46641 17.6641 4.48438C17.6641 6.50234 16.018 8.14844 14 8.14844C11.982 8.14844 10.3359 6.50234 10.3359 4.48438C10.3359 2.46641 11.982 0.820312 14 0.820312ZM27.1797 9.84375H7.76016C7.53594 9.84375 7.35 10.0297 7.35 10.2539C7.35 10.4781 7.53594 10.6641 7.76016 10.6641H27.1797V25.9492C27.1797 26.6273 26.6273 27.1797 25.9492 27.1797H2.05078C1.37266 27.1797 0.820312 26.6273 0.820312 25.9492V10.6641H8.58047C8.80469 10.6641 8.99063 10.4781 8.99063 10.2539C8.99063 10.0297 8.80469 9.84375 8.58047 9.84375H0.820312V6.97266C0.820312 6.29453 1.37266 5.74219 2.05078 5.74219H9.69609C10.243 7.60703 11.9656 8.96875 14 8.96875C16.0344 8.96875 17.757 7.60703 18.3039 5.74219H25.9492C26.6273 5.74219 27.1797 6.29453 27.1797 6.97266V9.84375ZM2.98594 7.48672C2.76172 7.48672 2.57578 7.67266 2.57578 7.89687C2.57578 8.12109 2.76172 8.30703 2.98594 8.30703C3.21016 8.30703 3.39609 8.12109 3.39609 7.89687C3.39609 7.67266 3.21563 7.48672 2.98594 7.48672ZM9.91484 20.4039H18.0906C18.9984 20.4039 19.7422 19.6656 19.7422 18.7523V13.9508C19.7422 13.043 19.0039 12.2992 18.0906 12.2992H9.91484C9.00703 12.2992 8.26328 13.0375 8.26328 13.9508V18.7523C8.26328 19.6656 9.00156 20.4039 9.91484 20.4039ZM9.08359 13.9563C9.08359 13.4969 9.45547 13.125 9.91484 13.125H18.0906C18.55 13.125 18.9219 13.4969 18.9219 13.9563V18.7578C18.9219 19.2172 18.55 19.5891 18.0906 19.5891H9.91484C9.45547 19.5891 9.08359 19.2172 9.08359 18.7578V13.9563ZM3.33594 23.4609V25.1562C3.33594 25.5938 3.69141 25.9492 4.12891 25.9492H23.8711C24.3086 25.9492 24.6641 25.5938 24.6641 25.1562V23.4609C24.6641 23.0234 24.3086 22.668 23.8711 22.668H19.075C18.8508 22.668 18.6648 22.8539 18.6648 23.0781C18.6648 23.3023 18.8508 23.4883 19.075 23.4883H19.5836L19.0367 25.1289H15.7992L16.3461 23.4883H19.8953C20.1195 23.4883 20.3055 23.3023 20.3055 23.0781C20.3055 22.8539 20.1195 22.668 19.8953 22.668H4.12891C3.69141 22.668 3.33594 23.0234 3.33594 23.4609ZM20.4477 23.4883H23.8438V25.1289H19.9008L20.4477 23.4883ZM12.2445 23.4883H15.482L14.9352 25.1289H11.6977L12.2445 23.4883ZM8.14297 23.4883H11.3805L10.8336 25.1289H7.59609L8.14297 23.4883ZM4.15625 23.4883H7.27891L6.73203 25.1289H4.15625V23.4883ZM13.2836 18.3641L15.4602 16.8984C15.843 16.6469 15.843 16.0508 15.4602 15.7992L13.2836 14.3336C12.8516 14.0383 12.25 14.3664 12.25 14.8805V17.8062C12.2445 18.3312 12.8516 18.6594 13.2836 18.3641ZM13.0703 15.1867L14.8039 16.3516L13.0703 17.5219V15.1867ZM7.90781 7.48672C7.68359 7.48672 7.49766 7.67266 7.49766 7.89687C7.49766 8.12109 7.68359 8.30703 7.90781 8.30703C8.13203 8.30703 8.31797 8.12109 8.31797 7.89687C8.31797 7.67266 8.1375 7.48672 7.90781 7.48672Z" fill="#316FEA"/>
</svg>
