<svg width="26" height="26" viewBox="0 0 26 26" fill="none" xmlns="http://www.w3.org/2000/svg">
<path d="M25.5938 0H0.40625C0.298506 0 0.195175 0.0428012 0.118988 0.118988C0.0428012 0.195175 0 0.298506 0 0.40625L0 21.9375C0 22.0452 0.0428012 22.1486 0.118988 22.2248C0.195175 22.3009 0.298506 22.3438 0.40625 22.3438H5.28125V21.5312H0.8125V4.0625H25.1875V21.5312H10.9688V22.3438H25.5938C25.7015 22.3438 25.8048 22.3009 25.881 22.2248C25.9572 22.1486 26 22.0452 26 21.9375V0.40625C26 0.298506 25.9572 0.195175 25.881 0.118988C25.8048 0.0428012 25.7015 0 25.5938 0V0ZM0.8125 3.25V0.8125H25.1875V3.25H0.8125Z" fill="#316FEA"/>
<path d="M21.125 1.625H23.5625V2.4375H21.125V1.625Z" fill="#316FEA"/>
<path d="M2.4375 1.625H3.25V2.4375H2.4375V1.625Z" fill="#316FEA"/>
<path d="M4.0625 1.625H4.875V2.4375H4.0625V1.625Z" fill="#316FEA"/>
<path d="M5.6875 1.625H6.5V2.4375H5.6875V1.625Z" fill="#316FEA"/>
<path d="M6.21254 9.86887L4.99378 11.0876C4.95601 11.1253 4.92605 11.1702 4.9056 11.2195C4.88516 11.2688 4.87463 11.3217 4.87463 11.375C4.87463 11.4284 4.88516 11.4813 4.9056 11.5306C4.92605 11.5799 4.95601 11.6247 4.99378 11.6625L6.21254 12.8812L6.78738 12.3064L5.85554 11.375L6.78738 10.4437L6.21254 9.86887Z" fill="#316FEA"/>
<path d="M10.0375 12.8812L11.2562 11.6625C11.294 11.6247 11.324 11.5799 11.3444 11.5306C11.3649 11.4813 11.3754 11.4284 11.3754 11.375C11.3754 11.3217 11.3649 11.2688 11.3444 11.2195C11.324 11.1702 11.294 11.1253 11.2562 11.0876L10.0375 9.86887L9.46265 10.4437L10.3945 11.375L9.46265 12.3064L10.0375 12.8812Z" fill="#316FEA"/>
<path d="M7.33325 12.4648L8.14575 10.0273L8.91661 10.2843L8.10411 12.7218L7.33325 12.4648Z" fill="#316FEA"/>
<path d="M13 11.375C13 10.4108 12.7141 9.46826 12.1784 8.66657C11.6427 7.86488 10.8814 7.24004 9.99058 6.87106C9.09979 6.50208 8.1196 6.40554 7.17394 6.59364C6.22828 6.78175 5.35964 7.24604 4.67786 7.92783C3.99608 8.60961 3.53178 9.47825 3.34367 10.4239C3.15557 11.3696 3.25211 12.3498 3.62109 13.2406C3.99007 14.1313 4.61491 14.8927 5.4166 15.4284C6.21829 15.9641 7.16082 16.25 8.125 16.25C9.41752 16.2486 10.6567 15.7346 11.5707 14.8206C12.4846 13.9067 12.9987 12.6675 13 11.375ZM4.0625 11.375C4.0625 10.5715 4.30076 9.78604 4.74716 9.11797C5.19355 8.44989 5.82803 7.92919 6.57035 7.62171C7.31268 7.31423 8.12951 7.23378 8.91756 7.39053C9.70561 7.54728 10.4295 7.9342 10.9976 8.50235C11.5658 9.0705 11.9527 9.79437 12.1094 10.5824C12.2662 11.3705 12.1857 12.1873 11.8783 12.9296C11.5708 13.6719 11.0501 14.3064 10.382 14.7528C9.71393 15.1992 8.92849 15.4375 8.125 15.4375C7.04793 15.4363 6.01532 15.0079 5.25372 14.2463C4.49211 13.4847 4.06371 12.452 4.0625 11.375Z" fill="#316FEA"/>
<path d="M14.625 11.375C14.625 7.79137 11.7086 4.875 8.125 4.875C4.54137 4.875 1.625 7.79137 1.625 11.375C1.625 14.2492 3.50391 16.6898 6.09375 17.5454V25.1875C6.09375 25.403 6.17935 25.6097 6.33173 25.762C6.4841 25.9144 6.69076 26 6.90625 26H9.34375C9.55924 26 9.7659 25.9144 9.91827 25.762C10.0706 25.6097 10.1562 25.403 10.1562 25.1875V17.5454C12.7461 16.6898 14.625 14.2492 14.625 11.375ZM2.4375 11.375C2.4375 10.2501 2.77107 9.1505 3.39602 8.21519C4.02097 7.27989 4.90923 6.55091 5.94849 6.12043C6.98774 5.68996 8.13131 5.57733 9.23458 5.79678C10.3378 6.01624 11.3513 6.55792 12.1467 7.35333C12.9421 8.14874 13.4838 9.16216 13.7032 10.2654C13.9227 11.3687 13.81 12.5123 13.3796 13.5515C12.9491 14.5908 12.2201 15.479 11.2848 16.104C10.3495 16.7289 9.24988 17.0625 8.125 17.0625C6.61708 17.0609 5.17138 16.4612 4.10511 15.3949C3.03885 14.3286 2.43911 12.8829 2.4375 11.375ZM9.34375 20.3125H6.90625V19.5H9.34375V20.3125ZM6.90625 25.1875V21.125H9.34375V25.1875H6.90625ZM9.34375 18.6875H6.90625V17.7562C7.71103 17.9146 8.53897 17.9146 9.34375 17.7562V18.6875Z" fill="#316FEA"/>
<path d="M14.625 5.6875H15.4375V6.5H14.625V5.6875Z" fill="#316FEA"/>
<path d="M16.25 5.6875H17.0625V6.5H16.25V5.6875Z" fill="#316FEA"/>
<path d="M17.875 5.6875H18.6875V6.5H17.875V5.6875Z" fill="#316FEA"/>
<path d="M19.5 5.6875H21.125V6.5H19.5V5.6875Z" fill="#316FEA"/>
<path d="M23.5625 5.6875H24.375V6.5H23.5625V5.6875Z" fill="#316FEA"/>
<path d="M21.9375 5.6875H22.75V6.5H21.9375V5.6875Z" fill="#316FEA"/>
<path d="M14.625 7.3125H17.0625V8.125H14.625V7.3125Z" fill="#316FEA"/>
<path d="M17.875 7.3125H18.6875V8.125H17.875V7.3125Z" fill="#316FEA"/>
<path d="M19.5 7.3125H21.125V8.125H19.5V7.3125Z" fill="#316FEA"/>
<path d="M23.5625 7.3125H24.375V8.125H23.5625V7.3125Z" fill="#316FEA"/>
<path d="M21.9375 7.3125H22.75V8.125H21.9375V7.3125Z" fill="#316FEA"/>
<path d="M21.9375 8.9375H24.375V9.75H21.9375V8.9375Z" fill="#316FEA"/>
<path d="M20.3125 8.9375H21.125V9.75H20.3125V8.9375Z" fill="#316FEA"/>
<path d="M17.875 8.9375H19.5V9.75H17.875V8.9375Z" fill="#316FEA"/>
<path d="M15.4375 8.9375H17.0625V9.75H15.4375V8.9375Z" fill="#316FEA"/>
<path d="M13.8125 15.4375H15.4375V16.25H13.8125V15.4375Z" fill="#316FEA"/>
<path d="M14.0834 15.4375H15.7084V16.25H14.0834V15.4375Z" fill="#316FEA"/>
<path d="M20.3125 15.4375H21.125V16.25H20.3125V15.4375Z" fill="#316FEA"/>
<path d="M18.6875 15.4375H19.5V16.25H18.6875V15.4375Z" fill="#316FEA"/>
<path d="M18.6875 17.0625H21.125V17.875H18.6875V17.0625Z" fill="#316FEA"/>
<path d="M17.0625 17.0625H17.875V17.875H17.0625V17.0625Z" fill="#316FEA"/>
<path d="M13 17.0625H13.8125V17.875H13V17.0625Z" fill="#316FEA"/>
<path d="M14.625 17.0625H16.25V17.875H14.625V17.0625Z" fill="#316FEA"/>
</svg>
