<svg width="30" height="22" viewBox="0 0 30 22" fill="none" xmlns="http://www.w3.org/2000/svg">
<path d="M7.65504 1.3687C9.67818 1.15574 11.711 1.06378 13.7438 1.01054C15.0409 0.986342 16.3381 1.0057 17.6352 1.04926C19.91 1.14122 22.1848 1.29126 24.4354 1.63975C25.4906 1.80915 26.5505 2.01727 27.5621 2.39479C28.0025 2.57387 28.4527 2.77715 28.7769 3.13048C28.956 3.30956 29.0044 3.56608 28.9996 3.81292C28.9996 8.74975 28.9996 13.6817 28.9996 18.6186C29.0093 18.9041 28.8495 19.1703 28.6366 19.3446C28.1913 19.7076 27.6541 19.9205 27.112 20.0899C25.5486 20.5788 23.9127 20.7917 22.2913 20.9757C22.2187 20.9805 22.1413 20.995 22.0687 20.9902C21.9235 20.9757 21.8218 20.8305 21.8267 20.6901C21.8267 19.4317 21.8267 18.1733 21.8267 16.9149C19.8858 16.731 17.9353 16.6293 15.9847 16.61C13.2162 16.5664 10.4429 16.6826 7.68892 16.9633C7.66472 18.2072 7.68408 19.4511 7.6744 20.6901C7.67924 20.845 7.50984 20.966 7.3598 20.9321C6.21755 20.8014 5.08015 20.6369 3.95726 20.3803C3.24577 20.2109 2.53429 20.0222 1.87605 19.6979C1.60016 19.5527 1.31944 19.3833 1.13068 19.1268C1.01452 18.9816 1 18.788 1 18.6089C1 13.614 1 8.61907 1 3.62416C1.01452 3.30472 1.24684 3.05304 1.49368 2.87879C2.09385 2.46255 2.80533 2.24959 3.50714 2.05599C4.86234 1.70267 6.26111 1.51875 7.65504 1.3687ZM13.4873 1.53811C11.8707 1.56231 10.2541 1.63975 8.64241 1.78495C7.05972 1.93499 5.47219 2.13343 3.91854 2.48675C3.3329 2.62711 2.74725 2.79167 2.19065 3.03367C1.89057 3.15952 1.58564 3.35312 1.48884 3.68224C1.62436 3.871 1.81313 4.0162 2.02125 4.11784C2.46653 4.34048 2.94569 4.49536 3.42486 4.62604C4.74134 4.97937 6.09171 5.17297 7.44208 5.33753C7.56792 5.34721 7.68408 5.45369 7.67924 5.58437C7.66956 7.87371 7.67924 10.163 7.6744 12.4524C7.67924 13.7785 7.66472 15.1096 7.68408 16.4357C12.3838 15.9662 17.1221 15.9566 21.8267 16.3873C21.8267 12.8251 21.8267 9.26763 21.8267 5.70537C21.817 5.56017 21.9138 5.39561 22.0735 5.38593C23.0028 5.27945 23.9369 5.16813 24.8614 4.99873C25.7471 4.83417 26.628 4.64057 27.4701 4.3308C27.7702 4.2098 28.08 4.07912 28.3268 3.86132C28.4333 3.76936 28.5253 3.59512 28.4236 3.46444C28.2397 3.16436 27.8912 3.04336 27.5766 2.91267C26.5602 2.53031 25.4857 2.33187 24.4209 2.14795C21.2362 1.65911 18.003 1.52843 14.7796 1.51875C14.3488 1.54295 13.918 1.51875 13.4873 1.53811ZM25.9213 5.33269C24.7452 5.59889 23.5545 5.75377 22.3591 5.88929C22.3591 10.739 22.3591 15.5936 22.3591 20.4433C23.269 20.3416 24.1838 20.2255 25.084 20.0561C25.9697 19.8818 26.8506 19.6785 27.6879 19.3397C27.9735 19.2236 28.2445 19.0542 28.4527 18.8219C28.4527 14.0205 28.4527 9.21923 28.4527 4.41792C27.6783 4.88257 26.7974 5.12941 25.9213 5.33269ZM1.52272 4.67445C1.52272 4.67445 1.52272 13.8173 1.52272 18.3863C1.52272 18.5024 1.51304 18.6234 1.5324 18.7347C1.57112 18.9138 1.726 19.03 1.87605 19.1171C2.29713 19.3591 2.75693 19.5188 3.22157 19.6543C4.50418 20.0222 5.83035 20.2206 7.15168 20.39C7.15168 15.5355 7.15168 10.6858 7.15168 5.83121C6.02395 5.69085 4.89139 5.53113 3.78302 5.26493C3.07637 5.09553 2.17129 4.76157 1.52272 4.43728V4.67445Z" fill="#316FEA" stroke="#316FEA" stroke-width="0.25" stroke-miterlimit="10"/>
<path d="M10.8591 6.37329H11.4399L12.8823 10.6519L14.3246 6.37329H14.8812L13.2065 11.223H12.5096L10.8591 6.37329Z" fill="#316FEA"/>
<path d="M15.6992 6.37329H17.1561C18.0854 6.37329 18.8501 6.75081 18.8501 7.72366V7.7527C18.8501 8.55131 18.3128 8.94819 17.6498 9.07403L19.1356 11.223H18.4774L17.0351 9.11275H16.2897V11.223H15.6992V6.37329ZM17.1996 8.64327C17.8918 8.64327 18.2644 8.34318 18.2644 7.74786V7.71882C18.2644 7.06058 17.8579 6.84277 17.1996 6.84277H16.2897V8.63843H17.1996V8.64327Z" fill="#316FEA"/>
</svg>
