<svg width="22" height="27" viewBox="0 0 22 27" fill="none" xmlns="http://www.w3.org/2000/svg">
<path d="M19.8003 0H2.19969C1.61642 0.000690707 1.05724 0.235497 0.644846 0.652897C0.232457 1.0703 0.000545866 1.63619 0 2.22642V23.5983C0.000546093 24.1885 0.232474 24.7544 0.644878 25.1717C1.05728 25.589 1.61646 25.8237 2.19969 25.8242H7.55609C7.647 26.0846 7.81541 26.31 8.03813 26.4695C8.26085 26.629 8.52694 26.7147 8.79979 26.7149H13.2002C13.4732 26.7149 13.7395 26.6292 13.9624 26.4697C14.1853 26.3102 14.3539 26.0847 14.4449 25.8242H16.2801C16.3962 25.8238 16.5074 25.7769 16.5895 25.6938L21.8711 20.3493C21.9532 20.2662 21.9995 20.1537 22 20.0362V2.22642C21.9995 1.63619 21.7675 1.0703 21.3552 0.652897C20.9428 0.235497 20.3836 0.000690707 19.8003 0ZM21.1203 2.22642V19.5911H18.0399C17.4567 19.5917 16.8975 19.8264 16.4851 20.2437C16.0727 20.661 15.8408 21.2268 15.8402 21.817V24.9341H14.4382C14.4305 24.9111 14.4284 24.8892 14.4192 24.8652L12.8919 21.1544C12.9884 21.0714 13.0661 20.9683 13.1195 20.8521C13.1729 20.7359 13.2008 20.6094 13.2012 20.4813V18.7004C13.2012 18.4642 13.1085 18.2377 12.9434 18.0706C12.7784 17.9036 12.5545 17.8098 12.3211 17.8098H11.4398V0.890671H19.8003C20.1504 0.890671 20.4862 1.0314 20.7337 1.2819C20.9813 1.5324 21.1203 1.87215 21.1203 2.22642ZM20.498 20.4813L16.7199 24.3043V21.817C16.7199 21.4627 16.859 21.123 17.1065 20.8725C17.3541 20.622 17.6898 20.4813 18.0399 20.4813H20.498ZM12.32 18.7004V20.4813H9.67998V18.7004H12.32ZM0.87967 23.5983V2.22642C0.87967 1.87215 1.01874 1.5324 1.2663 1.2819C1.51385 1.0314 1.8496 0.890671 2.19969 0.890671H10.5602V17.8098H9.67998C9.44654 17.8098 9.22266 17.9036 9.05759 18.0706C8.89253 18.2377 8.79979 18.4642 8.79979 18.7004V20.4813C8.80025 20.6094 8.82815 20.7359 8.88155 20.8521C8.93496 20.9683 9.01262 21.0714 9.10917 21.1544L7.58032 24.8652C7.57156 24.8877 7.57001 24.9101 7.56176 24.9341H2.19918C1.84917 24.934 1.51355 24.7932 1.26611 24.5427C1.01867 24.2922 0.87967 23.9525 0.87967 23.5983ZM13.5668 25.6265C13.527 25.6879 13.4725 25.7382 13.4085 25.7727C13.3444 25.8073 13.2728 25.825 13.2002 25.8242H8.79979C8.72741 25.8242 8.65615 25.8061 8.59234 25.7715C8.52853 25.7369 8.47414 25.6869 8.434 25.626C8.39386 25.565 8.3692 25.495 8.36222 25.4221C8.35524 25.3492 8.36616 25.2756 8.39399 25.208L9.97389 21.3719H12.0277L13.607 25.208C13.6355 25.2756 13.6467 25.3493 13.6397 25.4224C13.6327 25.4956 13.6076 25.5657 13.5668 25.6265Z" fill="#316FEA"/>
<path d="M19.8002 16.029C19.9169 16.029 20.0287 15.9821 20.1112 15.8986C20.1937 15.8151 20.24 15.7019 20.24 15.5839V9.35021C20.2361 9.23474 20.1881 9.12532 20.106 9.04503C20.0238 8.96474 19.9141 8.91986 19.8 8.91986C19.6858 8.91986 19.5761 8.96474 19.494 9.04503C19.4118 9.12532 19.3638 9.23474 19.3599 9.35021V15.5839C19.3599 15.6424 19.3713 15.7003 19.3934 15.7543C19.4155 15.8084 19.448 15.8574 19.4889 15.8988C19.5298 15.9401 19.5783 15.9729 19.6317 15.9952C19.6852 16.0176 19.7424 16.029 19.8002 16.029Z" fill="#316FEA"/>
<path d="M19.8002 18.7004C19.9169 18.7004 20.0287 18.6535 20.1112 18.5701C20.1937 18.4866 20.24 18.3734 20.24 18.2554V17.3647C20.2361 17.2492 20.1881 17.1398 20.106 17.0595C20.0238 16.9792 19.9141 16.9343 19.8 16.9343C19.6858 16.9343 19.5761 16.9792 19.494 17.0595C19.4118 17.1398 19.3638 17.2492 19.3599 17.3647V18.2554C19.3599 18.3138 19.3713 18.3718 19.3934 18.4258C19.4155 18.4798 19.448 18.5289 19.4889 18.5703C19.5298 18.6116 19.5783 18.6444 19.6317 18.6667C19.6852 18.689 19.7424 18.7005 19.8002 18.7004Z" fill="#316FEA"/>
<path d="M9.24021 2.67151H9.68004C9.79415 2.66756 9.90229 2.61891 9.98163 2.53582C10.061 2.45274 10.1053 2.34171 10.1053 2.22617C10.1053 2.11063 10.061 1.99961 9.98163 1.91653C9.90229 1.83344 9.79415 1.78479 9.68004 1.78084H9.24021C9.18115 1.77879 9.12228 1.7888 9.06712 1.81026C9.01196 1.83172 8.96163 1.86419 8.91914 1.90575C8.87664 1.9473 8.84285 1.99709 8.81977 2.05214C8.79668 2.10719 8.78479 2.16637 8.78479 2.22617C8.78479 2.28597 8.79668 2.34516 8.81977 2.40021C8.84285 2.45526 8.87664 2.50505 8.91914 2.5466C8.96163 2.58816 9.01196 2.62063 9.06712 2.64209C9.12228 2.66355 9.18115 2.67356 9.24021 2.67151Z" fill="#316FEA"/>
<path d="M9.24013 4.45228H9.67996C9.79661 4.45228 9.90849 4.40539 9.99097 4.32192C10.0735 4.23846 10.1198 4.12525 10.1198 4.00721C10.1198 3.88917 10.0735 3.77596 9.99097 3.69249C9.90849 3.60903 9.79661 3.56213 9.67996 3.56213H9.24013C9.12348 3.56213 9.0116 3.60903 8.92912 3.69249C8.84663 3.77596 8.80029 3.88917 8.80029 4.00721C8.80029 4.12525 8.84663 4.23846 8.92912 4.32192C9.0116 4.40539 9.12348 4.45228 9.24013 4.45228Z" fill="#316FEA"/>
<path d="M9.24021 6.23364H9.68004C9.79415 6.22969 9.90229 6.18104 9.98163 6.09796C10.061 6.01487 10.1053 5.90385 10.1053 5.78831C10.1053 5.67277 10.061 5.56175 9.98163 5.47866C9.90229 5.39558 9.79415 5.34693 9.68004 5.34297H9.24021C9.18115 5.34093 9.12228 5.35093 9.06712 5.37239C9.01196 5.39385 8.96163 5.42632 8.91914 5.46788C8.87664 5.50943 8.84285 5.55922 8.81977 5.61427C8.79668 5.66932 8.78479 5.72851 8.78479 5.78831C8.78479 5.84811 8.79668 5.9073 8.81977 5.96235C8.84285 6.0174 8.87664 6.06718 8.91914 6.10874C8.96163 6.15029 9.01196 6.18277 9.06712 6.20423C9.12228 6.22568 9.18115 6.23569 9.24021 6.23364Z" fill="#316FEA"/>
<path d="M9.24021 8.01447H9.68004C9.79415 8.01052 9.90229 7.96187 9.98163 7.87878C10.061 7.7957 10.1053 7.68467 10.1053 7.56913C10.1053 7.45359 10.061 7.34257 9.98163 7.25949C9.90229 7.1764 9.79415 7.12775 9.68004 7.1238H9.24021C9.18115 7.12175 9.12228 7.13175 9.06712 7.15321C9.01196 7.17467 8.96163 7.20715 8.91914 7.2487C8.87664 7.29026 8.84285 7.34004 8.81977 7.3951C8.79668 7.45015 8.78479 7.50933 8.78479 7.56913C8.78479 7.62893 8.79668 7.68812 8.81977 7.74317C8.84285 7.79822 8.87664 7.84801 8.91914 7.88957C8.96163 7.93112 9.01196 7.9636 9.06712 7.98505C9.12228 8.00651 9.18115 8.01652 9.24021 8.01447Z" fill="#316FEA"/>
<path d="M9.24013 9.7953H9.67996C9.79661 9.7953 9.90849 9.74841 9.99097 9.66494C10.0735 9.58147 10.1198 9.46827 10.1198 9.35023C10.1198 9.23218 10.0735 9.11898 9.99097 9.03551C9.90849 8.95204 9.79661 8.90515 9.67996 8.90515H9.24013C9.12348 8.90515 9.0116 8.95204 8.92912 9.03551C8.84663 9.11898 8.80029 9.23218 8.80029 9.35023C8.80029 9.46827 8.84663 9.58147 8.92912 9.66494C9.0116 9.74841 9.12348 9.7953 9.24013 9.7953Z" fill="#316FEA"/>
<path d="M9.24021 11.5767H9.68004C9.79415 11.5727 9.90229 11.5241 9.98163 11.441C10.061 11.3579 10.1053 11.2469 10.1053 11.1313C10.1053 11.0158 10.061 10.9048 9.98163 10.8217C9.90229 10.7386 9.79415 10.6899 9.68004 10.686H9.24021C9.18115 10.6839 9.12228 10.6939 9.06712 10.7154C9.01196 10.7369 8.96163 10.7693 8.91914 10.8109C8.87664 10.8525 8.84285 10.9022 8.81977 10.9573C8.79668 11.0123 8.78479 11.0715 8.78479 11.1313C8.78479 11.1911 8.79668 11.2503 8.81977 11.3054C8.84285 11.3604 8.87664 11.4102 8.91914 11.4518C8.96163 11.4933 9.01196 11.5258 9.06712 11.5472C9.12228 11.5687 9.18115 11.5787 9.24021 11.5767Z" fill="#316FEA"/>
<path d="M9.24021 13.3574H9.68004C9.79415 13.3535 9.90229 13.3048 9.98163 13.2218C10.061 13.1387 10.1053 13.0277 10.1053 12.9121C10.1053 12.7966 10.061 12.6856 9.98163 12.6025C9.90229 12.5194 9.79415 12.4707 9.68004 12.4668H9.24021C9.18115 12.4647 9.12228 12.4747 9.06712 12.4962C9.01196 12.5177 8.96163 12.5501 8.91914 12.5917C8.87664 12.6332 8.84285 12.683 8.81977 12.7381C8.79668 12.7931 8.78479 12.8523 8.78479 12.9121C8.78479 12.9719 8.79668 13.0311 8.81977 13.0862C8.84285 13.1412 8.87664 13.191 8.91914 13.2325C8.96163 13.2741 9.01196 13.3066 9.06712 13.328C9.12228 13.3495 9.18115 13.3595 9.24021 13.3574Z" fill="#316FEA"/>
<path d="M9.24013 15.1383H9.67996C9.79661 15.1383 9.90849 15.0914 9.99097 15.0079C10.0735 14.9245 10.1198 14.8113 10.1198 14.6932C10.1198 14.5752 10.0735 14.462 9.99097 14.3785C9.90849 14.295 9.79661 14.2481 9.67996 14.2481H9.24013C9.12348 14.2481 9.0116 14.295 8.92912 14.3785C8.84663 14.462 8.80029 14.5752 8.80029 14.6932C8.80029 14.8113 8.84663 14.9245 8.92912 15.0079C9.0116 15.0914 9.12348 15.1383 9.24013 15.1383Z" fill="#316FEA"/>
<path d="M9.24021 16.9196H9.68004C9.79415 16.9157 9.90229 16.867 9.98163 16.784C10.061 16.7009 10.1053 16.5898 10.1053 16.4743C10.1053 16.3588 10.061 16.2477 9.98163 16.1647C9.90229 16.0816 9.79415 16.0329 9.68004 16.029H9.24021C9.18115 16.0269 9.12228 16.0369 9.06712 16.0584C9.01196 16.0799 8.96163 16.1123 8.91914 16.1539C8.87664 16.1954 8.84285 16.2452 8.81977 16.3003C8.79668 16.3553 8.78479 16.4145 8.78479 16.4743C8.78479 16.5341 8.79668 16.5933 8.81977 16.6483C8.84285 16.7034 8.87664 16.7532 8.91914 16.7947C8.96163 16.8363 9.01196 16.8688 9.06712 16.8902C9.12228 16.9117 9.18115 16.9217 9.24021 16.9196Z" fill="#316FEA"/>
<path d="M12.3201 3.5622H12.7599C12.819 3.56424 12.8778 3.55424 12.933 3.53278C12.9882 3.51132 13.0385 3.47885 13.081 3.43729C13.1235 3.39574 13.1573 3.34595 13.1803 3.2909C13.2034 3.23585 13.2153 3.17666 13.2153 3.11686C13.2153 3.05706 13.2034 2.99787 13.1803 2.94282C13.1573 2.88777 13.1235 2.83799 13.081 2.79643C13.0385 2.75488 12.9882 2.7224 12.933 2.70094C12.8778 2.67948 12.819 2.66948 12.7599 2.67153H12.3201C12.2059 2.67548 12.0978 2.72413 12.0185 2.80721C11.9391 2.8903 11.8948 3.00132 11.8948 3.11686C11.8948 3.2324 11.9391 3.34342 12.0185 3.42651C12.0978 3.50959 12.2059 3.55825 12.3201 3.5622Z" fill="#316FEA"/>
<path d="M12.3201 5.34302H12.7599C12.819 5.34506 12.8778 5.33506 12.933 5.3136C12.9882 5.29214 13.0385 5.25967 13.081 5.21811C13.1235 5.17656 13.1573 5.12677 13.1803 5.07172C13.2034 5.01667 13.2153 4.95748 13.2153 4.89768C13.2153 4.83788 13.2034 4.7787 13.1803 4.72365C13.1573 4.6686 13.1235 4.61881 13.081 4.57725C13.0385 4.5357 12.9882 4.50322 12.933 4.48177C12.8778 4.46031 12.819 4.4503 12.7599 4.45235H12.3201C12.2059 4.4563 12.0978 4.50495 12.0185 4.58804C11.9391 4.67112 11.8948 4.78214 11.8948 4.89768C11.8948 5.01322 11.9391 5.12425 12.0185 5.20733C12.0978 5.29041 12.2059 5.33907 12.3201 5.34302Z" fill="#316FEA"/>
<path d="M12.32 7.12382H12.7598C12.8765 7.12382 12.9883 7.07693 13.0708 6.99346C13.1533 6.91 13.1996 6.79679 13.1996 6.67875C13.1996 6.56071 13.1533 6.4475 13.0708 6.36403C12.9883 6.28056 12.8765 6.23367 12.7598 6.23367H12.32C12.2033 6.23367 12.0914 6.28056 12.009 6.36403C11.9265 6.4475 11.8801 6.56071 11.8801 6.67875C11.8801 6.79679 11.9265 6.91 12.009 6.99346C12.0914 7.07693 12.2033 7.12382 12.32 7.12382Z" fill="#316FEA"/>
<path d="M12.3201 8.90519H12.7599C12.819 8.90723 12.8778 8.89723 12.933 8.87577C12.9882 8.85431 13.0385 8.82184 13.081 8.78028C13.1235 8.73873 13.1573 8.68894 13.1803 8.63389C13.2034 8.57884 13.2153 8.51965 13.2153 8.45985C13.2153 8.40005 13.2034 8.34086 13.1803 8.28581C13.1573 8.23076 13.1235 8.18097 13.081 8.13942C13.0385 8.09786 12.9882 8.06539 12.933 8.04393C12.8778 8.02247 12.819 8.01247 12.7599 8.01451H12.3201C12.2059 8.01847 12.0978 8.06712 12.0185 8.1502C11.9391 8.23329 11.8948 8.34431 11.8948 8.45985C11.8948 8.57539 11.9391 8.68641 12.0185 8.7695C12.0978 8.85258 12.2059 8.90123 12.3201 8.90519Z" fill="#316FEA"/>
<path d="M12.3201 10.686H12.7599C12.819 10.688 12.8778 10.678 12.933 10.6566C12.9882 10.6351 13.0385 10.6026 13.081 10.5611C13.1235 10.5195 13.1573 10.4697 13.1803 10.4147C13.2034 10.3596 13.2153 10.3004 13.2153 10.2406C13.2153 10.1808 13.2034 10.1217 13.1803 10.0666C13.1573 10.0116 13.1235 9.96177 13.081 9.92021C13.0385 9.87866 12.9882 9.84618 12.933 9.82472C12.8778 9.80326 12.819 9.79326 12.7599 9.7953H12.3201C12.2059 9.79926 12.0978 9.84791 12.0185 9.93099C11.9391 10.0141 11.8948 10.1251 11.8948 10.2406C11.8948 10.3562 11.9391 10.4672 12.0185 10.5503C12.0978 10.6334 12.2059 10.682 12.3201 10.686Z" fill="#316FEA"/>
<path d="M12.32 12.4668H12.7598C12.8765 12.4668 12.9883 12.4199 13.0708 12.3364C13.1533 12.253 13.1996 12.1397 13.1996 12.0217C13.1996 11.9037 13.1533 11.7905 13.0708 11.707C12.9883 11.6235 12.8765 11.5766 12.7598 11.5766H12.32C12.2033 11.5766 12.0914 11.6235 12.009 11.707C11.9265 11.7905 11.8801 11.9037 11.8801 12.0217C11.8801 12.1397 11.9265 12.253 12.009 12.3364C12.0914 12.4199 12.2033 12.4668 12.32 12.4668Z" fill="#316FEA"/>
<path d="M12.3201 14.2481H12.7599C12.819 14.2501 12.8778 14.2401 12.933 14.2187C12.9882 14.1972 13.0385 14.1648 13.081 14.1232C13.1235 14.0816 13.1573 14.0319 13.1803 13.9768C13.2034 13.9218 13.2153 13.8626 13.2153 13.8028C13.2153 13.743 13.2034 13.6838 13.1803 13.6287C13.1573 13.5737 13.1235 13.5239 13.081 13.4823C13.0385 13.4408 12.9882 13.4083 12.933 13.3869C12.8778 13.3654 12.819 13.3554 12.7599 13.3574H12.3201C12.2059 13.3614 12.0978 13.41 12.0185 13.4931C11.9391 13.5762 11.8948 13.6872 11.8948 13.8028C11.8948 13.9183 11.9391 14.0293 12.0185 14.1124C12.0978 14.1955 12.2059 14.2442 12.3201 14.2481Z" fill="#316FEA"/>
<path d="M12.7599 15.1383H12.3201C12.2059 15.1422 12.0978 15.1909 12.0185 15.2739C11.9391 15.357 11.8948 15.4681 11.8948 15.5836C11.8948 15.6991 11.9391 15.8102 12.0185 15.8932C12.0978 15.9763 12.2059 16.025 12.3201 16.0289H12.7599C12.819 16.031 12.8778 16.021 12.933 15.9995C12.9882 15.978 13.0385 15.9456 13.081 15.904C13.1235 15.8625 13.1573 15.8127 13.1803 15.7576C13.2034 15.7026 13.2153 15.6434 13.2153 15.5836C13.2153 15.5238 13.2034 15.4646 13.1803 15.4096C13.1573 15.3545 13.1235 15.3047 13.081 15.2632C13.0385 15.2216 12.9882 15.1891 12.933 15.1677C12.8778 15.1462 12.819 15.1362 12.7599 15.1383Z" fill="#316FEA"/>
<path d="M11.4399 24.0434H10.5603C10.5012 24.0414 10.4423 24.0514 10.3872 24.0729C10.332 24.0943 10.2817 24.1268 10.2392 24.1683C10.1967 24.2099 10.1629 24.2597 10.1398 24.3147C10.1168 24.3698 10.1049 24.429 10.1049 24.4888C10.1049 24.5486 10.1168 24.6078 10.1398 24.6628C10.1629 24.7179 10.1967 24.7676 10.2392 24.8092C10.2817 24.8508 10.332 24.8832 10.3872 24.9047C10.4423 24.9262 10.5012 24.9362 10.5603 24.9341H11.4399C11.499 24.9362 11.5579 24.9262 11.613 24.9047C11.6682 24.8832 11.7185 24.8508 11.761 24.8092C11.8035 24.7676 11.8373 24.7179 11.8604 24.6628C11.8835 24.6078 11.8954 24.5486 11.8954 24.4888C11.8954 24.429 11.8835 24.3698 11.8604 24.3147C11.8373 24.2597 11.8035 24.2099 11.761 24.1683C11.7185 24.1268 11.6682 24.0943 11.613 24.0729C11.5579 24.0514 11.499 24.0414 11.4399 24.0434Z" fill="#316FEA"/>
</svg>
