<svg width="29" height="24" viewBox="0 0 29 24" fill="none" xmlns="http://www.w3.org/2000/svg">
<path d="M9.87885 12.9269C9.87885 12.1574 10.3486 11.6627 10.9582 11.4478C10.4135 11.238 10.0937 10.8082 10.0937 10.2486C10.0937 9.31917 10.9732 8.75952 11.8526 8.75952C12.7421 8.75952 13.6065 9.33416 13.6065 10.2336C13.6065 10.8082 13.2567 11.208 12.7271 11.4428C13.3916 11.6827 13.8214 12.1774 13.8214 12.9169C13.8214 14.0612 12.822 14.6259 11.8526 14.6259C10.9182 14.6209 9.87885 14.0612 9.87885 12.9269ZM13.1068 12.8869C13.1068 12.1374 12.5472 11.7527 11.8676 11.7527C11.188 11.7527 10.5884 12.1424 10.5884 12.9019C10.5884 13.6515 11.188 14.0562 11.8526 14.0562C12.5572 14.0512 13.1068 13.6465 13.1068 12.8869ZM12.902 10.2386C12.902 9.68894 12.4472 9.30418 11.8526 9.30418C11.263 9.30418 10.7983 9.66396 10.7983 10.2536C10.7983 10.8532 11.293 11.198 11.8776 11.198C12.4872 11.198 12.902 10.8482 12.902 10.2386Z" fill="#316FEA"/>
<path d="M14.9957 8.82949H15.6902V11.5828L18.1787 8.82449H18.9532L16.4098 11.6078L19.0831 14.5509H18.2436L15.6902 11.7577V14.5509H14.9957V8.82949Z" fill="#316FEA"/>
<path d="M28.3923 24H0.324797C0.144909 24 0 23.8551 0 23.6752V0.324797C0 0.144909 0.144909 0 0.324797 0H28.3923C28.5721 0 28.7171 0.144909 28.7171 0.324797V23.6752C28.7171 23.8551 28.5721 24 28.3923 24ZM0.649594 23.3504H28.0675V0.649594H0.649594V23.3504Z" fill="#316FEA"/>
</svg>
