<svg width="31" height="26" viewBox="0 0 31 26" fill="none" xmlns="http://www.w3.org/2000/svg">
<path d="M30.0779 24.9403H1.33264C1.14841 24.9403 1 24.7961 1 24.6172V1.38769C1 1.20873 1.14841 1.06458 1.33264 1.06458H30.0779C30.2621 1.06458 30.4105 1.20873 30.4105 1.38769V24.6172C30.4105 24.7961 30.2621 24.9403 30.0779 24.9403ZM1.66528 24.2941H29.7452V1.71081H1.66528V24.2941Z" fill="#316FEA" stroke="#316FEA" stroke-width="0.25" stroke-miterlimit="10"/>
<path d="M1.53735 24.314C1.66529 24.4382 1.90069 24.4183 2.05934 24.2642L7.04382 19.4225C7.20247 19.2684 7.22294 19.0397 7.095 18.9154C6.96706 18.7912 6.73165 18.8111 6.57301 18.9652L1.58852 23.8069C1.42988 23.961 1.40429 24.1897 1.53735 24.314Z" fill="#316FEA" stroke="#316FEA" stroke-width="0.25" stroke-miterlimit="10"/>
<path d="M29.9141 24.314C29.7862 24.4382 29.5508 24.4183 29.3921 24.2642L24.4076 19.4225C24.249 19.2684 24.2285 19.0397 24.3564 18.9154C24.4844 18.7912 24.7198 18.8111 24.8784 18.9652L29.8629 23.8069C30.0216 23.961 30.042 24.1897 29.9141 24.314Z" fill="#316FEA" stroke="#316FEA" stroke-width="0.25" stroke-miterlimit="10"/>
<path d="M29.9141 1.7804C29.7862 1.65613 29.5508 1.67601 29.3921 1.83011L24.4076 6.67187C24.249 6.82597 24.2285 7.05463 24.3564 7.17891C24.4844 7.30318 24.7198 7.2833 24.8784 7.1292L29.8629 2.28744C30.0216 2.13334 30.042 1.90468 29.9141 1.7804Z" fill="#316FEA" stroke="#316FEA" stroke-width="0.25" stroke-miterlimit="10"/>
<path d="M1.53735 1.7804C1.66529 1.65613 1.90069 1.67601 2.05934 1.83011L7.04382 6.67187C7.20247 6.82597 7.22294 7.05463 7.095 7.17891C6.96706 7.30318 6.73165 7.2833 6.57301 7.1292L1.58852 2.28744C1.42988 2.13334 1.40429 1.90468 1.53735 1.7804Z" fill="#316FEA" stroke="#316FEA" stroke-width="0.25" stroke-miterlimit="10"/>
<path d="M14.0037 6.61221C14.5973 6.21951 15.3394 6.03558 16.0507 6.13003C16.762 6.21453 17.4273 6.58239 17.893 7.11429C18.4969 7.79531 18.7835 8.74478 18.5992 9.62961C18.5634 9.78869 18.5174 9.94776 18.456 10.1019C18.3792 10.256 18.328 10.425 18.2154 10.5592C17.8572 11.1458 17.5143 11.7522 17.325 12.4134C17.238 12.7514 17.1714 13.1342 17.3659 13.4473C17.5501 13.7158 17.9135 13.7506 18.2205 13.7357C18.7323 13.7357 19.2441 13.7307 19.7558 13.7357C20.5951 13.7555 21.3985 14.198 21.8898 14.8541C21.9103 14.879 21.9256 14.9088 21.9461 14.9337C21.9666 14.9635 21.9819 14.9884 22.0024 15.0182C22.028 15.053 22.0485 15.0927 22.0741 15.1275C22.1048 15.1773 22.1252 15.2319 22.1508 15.2866L22.1662 15.2816C22.1918 15.3562 22.2225 15.4308 22.2481 15.5053C22.3095 15.6197 22.3402 15.7489 22.376 15.8682L22.3555 15.8732C22.376 15.9478 22.3965 16.0273 22.4016 16.1068C22.4067 16.1615 22.4118 16.2112 22.4169 16.2659C22.4476 16.4001 22.4016 16.5393 22.3043 16.6338C22.2736 16.6487 22.2429 16.6686 22.2122 16.6884C22.1866 16.6984 22.1662 16.7083 22.1406 16.7232L22.1355 16.7034C22.0536 16.7133 21.9717 16.7083 21.8898 16.7083C21.8489 16.7034 21.8079 16.6984 21.7721 16.6934C21.7619 16.9817 21.7772 17.27 21.767 17.5584C21.7619 17.7274 21.5981 17.8666 21.4292 17.8666C20.9482 17.8715 20.4723 17.8666 19.9912 17.8715C19.7967 17.8666 19.6074 17.8715 19.4129 17.8715C19.3362 17.8715 19.2543 17.8715 19.1775 17.8715C19.1315 17.8715 19.0905 17.8715 19.0496 17.8715C19.0138 17.8715 18.9779 17.8715 18.9421 17.8765C18.8551 17.8715 18.7681 17.8765 18.676 17.8715C18.6044 17.8715 18.5276 17.8765 18.456 17.8815V17.8666C18.4355 17.8715 18.3945 17.8765 18.3741 17.8815C18.3178 17.8765 18.2666 17.8765 18.2103 17.8765C18.1335 17.8815 18.0517 17.8815 17.9749 17.8815C17.8623 17.8815 17.7497 17.8815 17.6371 17.8815C17.5604 17.8815 17.4785 17.8864 17.4017 17.8864C17.3557 17.8864 17.3147 17.8864 17.2687 17.8864C17.2329 17.8864 17.2022 17.8864 17.1663 17.8864C17.1203 17.8864 17.0793 17.8864 17.0384 17.8864C17.0026 17.8864 16.9667 17.8864 16.936 17.8864C16.89 17.8864 16.849 17.8864 16.803 17.8864C16.7672 17.8864 16.7365 17.8864 16.7006 17.8815C14.9965 17.8914 13.2924 17.8914 11.5882 17.8964C11.5473 17.8964 11.5012 17.8964 11.4603 17.9014C11.3835 17.9014 11.3016 17.9014 11.2249 17.9014C11.1481 17.9014 11.0713 17.9014 10.9895 17.9014C10.9536 17.9014 10.9178 17.9014 10.8871 17.9014C10.8103 17.9014 10.7285 17.9014 10.6517 17.9014C10.5749 17.9014 10.4931 17.9014 10.4163 17.9014C10.3344 17.9014 10.2474 17.9014 10.1655 17.9113L10.1604 17.8964C10.1246 17.8964 10.0837 17.9014 10.0632 17.9014C10.0274 17.9014 9.99154 17.9014 9.95571 17.9014C9.80219 17.8666 9.66401 17.7423 9.67425 17.5782C9.67425 17.2999 9.66913 17.0165 9.67425 16.7381C9.49513 16.7183 9.29043 16.7978 9.13691 16.6735C9.0192 16.594 8.98338 16.4449 9.00385 16.3106C9.03456 15.7042 9.29043 15.1176 9.70495 14.6652C10.186 14.1284 10.8871 13.7804 11.624 13.7506C12.2023 13.7406 12.7806 13.7506 13.364 13.7406C13.5892 13.7406 13.8399 13.676 13.9832 13.4971C14.0651 13.4076 14.1009 13.2883 14.1265 13.1739C14.1316 13.1342 14.1367 13.0894 14.1419 13.0447C14.1419 13.0099 14.1419 12.9801 14.147 12.9453C14.1419 12.9154 14.1419 12.8806 14.1367 12.8508C14.1112 12.5575 14.0293 12.2642 13.9065 11.9958C13.8758 11.9113 13.845 11.8268 13.8143 11.7423L13.799 11.7473C13.7734 11.6727 13.7478 11.5981 13.7069 11.5285C13.6864 11.4788 13.6608 11.4291 13.6403 11.3794C13.6045 11.3247 13.5789 11.2651 13.5431 11.2154C13.5226 11.1706 13.5073 11.1259 13.4868 11.0811L13.4715 11.0861C13.4459 11.0314 13.4254 10.9768 13.3947 10.927C13.3742 10.8873 13.3486 10.8525 13.3282 10.8127C13.3026 10.7779 13.2821 10.7381 13.2565 10.7033C13.1951 10.599 13.1286 10.4995 13.0672 10.3951C13.0416 10.3454 13.016 10.3007 12.9853 10.256C12.9137 10.0571 12.8215 9.86325 12.7704 9.65944C12.7448 9.47054 12.7141 9.28164 12.6987 9.08777C12.6987 9.03309 12.6987 8.98338 12.6987 8.9287C12.7038 8.83922 12.709 8.74975 12.7192 8.66027C12.7499 8.41669 12.8062 8.17808 12.8932 7.94941C13.0877 7.4374 13.451 6.99498 13.9013 6.6669C13.932 6.66192 13.9679 6.63707 14.0037 6.61221ZM14.5103 7.04966C14.4029 7.11429 14.2954 7.18885 14.1982 7.26839C14.1726 7.29324 14.147 7.31313 14.1265 7.33798C14.1009 7.36284 14.0702 7.38769 14.0446 7.41255C13.9935 7.46723 13.9423 7.52688 13.8911 7.58653C13.5841 7.9693 13.3845 8.44154 13.3589 8.9287C13.3589 8.9635 13.3589 8.99332 13.3538 9.02812C13.3538 9.12754 13.3589 9.22199 13.3742 9.32141C13.4049 9.52522 13.4612 9.734 13.5585 9.91793C13.5789 9.96267 13.5943 10.0074 13.6148 10.0521C13.6199 10.0521 13.625 10.0521 13.6301 10.0521C13.6659 10.1367 13.7171 10.2112 13.7683 10.2858C13.7888 10.3156 13.8041 10.3405 13.8246 10.3703C13.845 10.4051 13.8706 10.4449 13.8962 10.4797C13.9628 10.6139 14.0395 10.7431 14.1163 10.8724C14.2084 11.0513 14.2903 11.2352 14.3824 11.4142C14.5973 11.9163 14.7867 12.4432 14.8225 12.995C14.8225 13.0944 14.8174 13.1938 14.8174 13.2932C14.7867 13.5865 14.669 13.8798 14.4336 14.0787C14.3722 14.1234 14.3056 14.1681 14.2442 14.2129C14.1982 14.2278 14.1521 14.2477 14.106 14.2626C14.106 14.2676 14.106 14.2775 14.106 14.2825C13.9832 14.3173 13.8604 14.3521 13.7376 14.3869V14.367C13.6608 14.3869 13.5892 14.4018 13.5124 14.4167L13.5073 14.4018C13.4561 14.4067 13.4101 14.4117 13.3589 14.4117C13.3231 14.4117 13.2924 14.4067 13.2565 14.4067C13.1798 14.4117 13.0979 14.4117 13.0211 14.4067C12.9444 14.4067 12.8625 14.4117 12.7857 14.4117C12.7397 14.4117 12.6987 14.4117 12.6527 14.4117C12.6168 14.4117 12.5861 14.4117 12.5503 14.4067C12.4735 14.4067 12.3917 14.4117 12.3149 14.4117C11.8953 14.4217 11.4654 14.3769 11.0662 14.5161C10.8308 14.5807 10.6108 14.7 10.4163 14.8442C10.3088 14.9337 10.2014 15.0331 10.1144 15.1425C9.88919 15.4059 9.76636 15.739 9.70495 16.072C11.3323 16.0571 12.9648 16.0671 14.5922 16.0521C14.628 16.0521 14.6639 16.0521 14.6997 16.0521C14.7406 16.0521 14.7867 16.0521 14.8276 16.0472C14.8634 16.0472 14.8993 16.0521 14.9351 16.0521C15.0118 16.0521 15.0886 16.0521 15.1705 16.0472C15.2473 16.0472 15.3291 16.0472 15.4059 16.0472C15.4827 16.0472 15.5645 16.0472 15.6413 16.0422C15.7181 16.0422 15.7999 16.0422 15.8767 16.0422C15.9125 16.0422 15.9432 16.0422 15.9791 16.0422C16.0354 16.0422 16.0865 16.0422 16.1428 16.0472C16.1582 16.0472 16.194 16.0472 16.2145 16.0422C16.2656 16.0422 16.3117 16.0372 16.3629 16.0323L16.368 16.0521C16.3885 16.0472 16.4243 16.0422 16.4448 16.0372C16.5266 16.0422 16.6034 16.0422 16.6853 16.0372C16.7416 16.0372 16.7928 16.0372 16.849 16.0422C16.8644 16.0422 16.9002 16.0372 16.9156 16.0323C17.0026 16.0372 17.0896 16.0372 17.1766 16.0372C17.3352 16.0323 17.4939 16.0323 17.6474 16.0323C17.7241 16.0323 17.806 16.0323 17.8828 16.0273C19.0394 16.0273 20.1908 16.0223 21.3474 16.0223C21.4702 16.0223 21.5981 16.0323 21.7209 16.0174C21.6544 15.6495 21.4958 15.2966 21.2399 15.0182C20.8766 14.6155 20.329 14.3869 19.7763 14.3719C19.1775 14.367 18.5839 14.3769 17.9851 14.3719C17.6218 14.362 17.2533 14.2626 16.9719 14.029C16.9463 13.9991 16.9207 13.9743 16.8951 13.9494C16.849 13.8898 16.803 13.8251 16.7569 13.7605C16.6853 13.5965 16.6341 13.4225 16.6034 13.2485C16.6034 13.1541 16.5983 13.0546 16.5983 12.9602C16.6034 12.9254 16.6085 12.8906 16.6085 12.8558C16.6085 12.8508 16.6034 12.8359 16.5983 12.826C16.6085 12.7812 16.6136 12.7365 16.6239 12.6868C16.6239 12.6818 16.6188 12.6669 16.6188 12.657C16.629 12.6072 16.6392 12.5625 16.6495 12.5128C16.6546 12.478 16.6597 12.4482 16.6699 12.4134C16.8644 11.5633 17.2789 10.7829 17.7293 10.0422C17.8111 9.90799 17.8674 9.76383 17.9186 9.6147C17.9493 9.51031 17.9749 9.40592 17.9954 9.29656C17.9954 9.28164 18.0056 9.24187 18.0056 9.22696C18.0107 9.13748 18.021 9.04801 18.0261 8.95853C18.021 8.87899 18.021 8.79946 18.0056 8.71992L18.021 8.71495C18.0005 8.63044 17.9749 8.54096 17.9749 8.45149C17.9391 8.28247 17.8521 8.13334 17.8009 7.97427C17.7702 7.92953 17.7446 7.88479 17.719 7.83508C17.6986 7.80526 17.6832 7.7804 17.6627 7.75057C17.6423 7.72572 17.6269 7.69589 17.6064 7.67104C17.5757 7.63624 17.5501 7.60144 17.5194 7.56665C17.499 7.53682 17.4734 7.51197 17.4478 7.48214C17.4324 7.4722 17.4069 7.44734 17.3966 7.43243C17.3864 7.41752 17.3608 7.39266 17.3506 7.37775C17.2482 7.2833 17.1407 7.19879 17.023 7.11926C16.9463 7.06955 16.8644 7.02481 16.7876 6.98504C16.5318 6.87071 16.2554 6.78123 15.9688 6.76134C15.9637 6.76134 15.9586 6.75637 15.9535 6.7514C15.9023 6.7514 15.8511 6.74643 15.7999 6.74643C15.6515 6.74146 15.5031 6.74146 15.3598 6.77129C15.3598 6.76632 15.3547 6.76134 15.3547 6.75637C15.2473 6.78123 15.1347 6.80608 15.0272 6.821C15.0016 6.83094 14.9504 6.84585 14.93 6.85082C14.843 6.89556 14.7509 6.92539 14.6587 6.96018C14.6076 7.00492 14.5564 7.02978 14.5103 7.04966ZM10.3498 16.7431C10.3498 16.8177 10.3498 16.8873 10.3498 16.9618C10.3498 16.9768 10.3549 17.0116 10.3549 17.0314C10.3498 17.101 10.3446 17.1657 10.3549 17.2352C10.447 17.2452 10.5442 17.2402 10.6363 17.2352C10.795 17.2352 10.9536 17.2402 11.1072 17.2303C11.143 17.2303 11.1788 17.2303 11.2146 17.2303C11.2914 17.2303 11.3682 17.2303 11.4449 17.2303C11.6138 17.2303 11.7827 17.2253 11.9464 17.2253C12.1358 17.2253 12.3303 17.2203 12.5196 17.2253C12.5657 17.2253 12.6066 17.2253 12.6527 17.2253C12.7294 17.2203 12.8062 17.2203 12.8881 17.2253C12.9239 17.2253 12.9546 17.2253 12.9904 17.2253C13.0672 17.2253 13.1491 17.2253 13.2258 17.2253C13.3026 17.2253 13.3845 17.2253 13.4612 17.2253C13.538 17.2253 13.6148 17.2253 13.6966 17.2253C15.4008 17.2154 17.1049 17.2203 18.8091 17.2054C18.85 17.2054 18.8961 17.2054 18.9421 17.2054C19.0547 17.2054 19.1673 17.2054 19.2799 17.2054C19.3566 17.2054 19.4385 17.2054 19.5153 17.2054C19.592 17.2054 19.6739 17.2054 19.7507 17.2054C19.7916 17.2054 19.8377 17.2005 19.8786 17.2005C19.9145 17.2005 19.9503 17.2005 19.981 17.2005C20.1447 17.2005 20.3136 17.2005 20.4774 17.2005C20.5439 17.1955 20.6156 17.1955 20.6821 17.1955C20.7588 17.1955 20.8356 17.1955 20.9175 17.1905C20.9687 17.1955 21.0198 17.2004 21.0659 17.2054C21.0813 17.0364 21.071 16.8624 21.0659 16.6934C20.9431 16.7034 20.8203 16.6984 20.7026 16.6984C20.59 16.6984 20.4774 16.6984 20.3648 16.6984C18.8858 16.7083 17.4069 16.6984 15.9279 16.7133C15.7385 16.7133 15.5441 16.7083 15.3547 16.7133C15.278 16.7133 15.1961 16.7133 15.1193 16.7083C15.0784 16.7083 15.0323 16.7133 14.9914 16.7133C14.9556 16.7133 14.9197 16.7133 14.8839 16.7133C14.8071 16.7133 14.7304 16.7133 14.6485 16.7133C14.6127 16.7133 14.5769 16.7133 14.5462 16.7133C14.5052 16.7133 14.4592 16.7133 14.4182 16.7133C14.3824 16.7133 14.3466 16.7133 14.3159 16.7133C14.2698 16.7133 14.2289 16.7133 14.1828 16.7133C14.147 16.7133 14.1112 16.7133 14.0805 16.7183C14.0242 16.7183 13.973 16.7133 13.9167 16.7133C13.9013 16.7183 13.8655 16.7232 13.845 16.7232C13.7888 16.7183 13.7376 16.7183 13.6813 16.7133C13.6659 16.7133 13.6301 16.7183 13.6148 16.7183C13.5226 16.7133 13.4356 16.7183 13.3486 16.7133C13.2719 16.7183 13.19 16.7183 13.1132 16.7183C13.0365 16.7183 12.9546 16.7183 12.8778 16.7133C12.8625 16.7133 12.8267 16.7183 12.8062 16.7183C12.7499 16.7183 12.6987 16.7183 12.6424 16.7183C12.6066 16.7183 12.5759 16.7183 12.5401 16.7183C12.4633 16.7183 12.3814 16.7183 12.3047 16.7183C12.2279 16.7183 12.1511 16.7183 12.0693 16.7232C11.9925 16.7232 11.9157 16.7232 11.839 16.7232C11.3375 16.7431 10.841 16.7381 10.3498 16.7431Z" fill="#316FEA" stroke="#316FEA" stroke-width="0.25" stroke-miterlimit="10"/>
<path d="M16.7109 12.4681H14.6434C14.4285 12.4681 14.2596 12.299 14.2596 12.0952C14.2596 11.8914 14.4336 11.7224 14.6434 11.7224H16.7109C16.9258 11.7224 17.0947 11.8914 17.0947 12.0952C17.0947 12.299 16.9258 12.4681 16.7109 12.4681Z" fill="#316FEA" stroke="#316FEA" stroke-width="0.25" stroke-miterlimit="10"/>
</svg>
