<svg width="32" height="14" viewBox="0 0 32 14" fill="none" xmlns="http://www.w3.org/2000/svg">
<path d="M7.23008 8.04592H6.09642V10.3781H5.18909V4.32587H7.73858C8.89119 4.32587 9.67987 5.06968 9.67987 6.18639C9.67987 7.27519 8.94503 7.85647 8.1733 7.95618L9.72474 10.379H8.67283L7.23008 8.04592ZM7.62093 5.12352H6.09642V7.24627H7.62093C8.27401 7.24627 8.74562 6.81953 8.74562 6.1844C8.74562 5.54927 8.27401 5.12352 7.62093 5.12352Z" fill="#316FEA"/>
<path d="M12.1845 5.12305H10.306V4.3244H14.9603V5.12305H13.0918V10.3766H12.1845V5.12305Z" fill="#316FEA"/>
<path d="M21.1124 5.56774L19.1521 10.3766H18.7712L16.811 5.56774V10.3766H15.9037V4.3244H17.2009L18.9607 8.67061L20.7205 4.3244H22.0177V10.3766H21.1104V5.56774H21.1124Z" fill="#316FEA"/>
<path d="M23.3628 4.3244H25.9123C27.1556 4.3244 27.8446 5.17689 27.8446 6.18493C27.8446 7.19196 27.1457 8.04545 25.9123 8.04545H24.2701V10.3776H23.3628V4.3244ZM25.7946 5.12305H24.2701V7.2458H25.7946C26.4477 7.2458 26.9103 6.81906 26.9103 6.18393C26.9103 5.5488 26.4477 5.12305 25.7946 5.12305Z" fill="#316FEA"/>
<rect x="0.25" y="0.25" width="31.5" height="13.3378" rx="3.75" stroke="#316FEA" stroke-width="0.5"/>
</svg>
