<svg width="28" height="26" viewBox="0 0 28 26" fill="none" xmlns="http://www.w3.org/2000/svg">
<path d="M9.89771 1.31957C11.2155 0.355802 12.9163 -0.116202 14.5699 0.0243831C15.9521 0.129963 17.2959 0.655039 18.3559 1.50928C19.4407 2.36859 20.2158 3.56949 20.5551 4.87428C22.7585 4.59593 25.0476 5.51905 26.4493 7.15186C27.2829 8.10829 27.8191 9.29903 27.9622 10.5372C28.0544 11.4242 27.9823 12.3315 27.6991 13.1835C27.2374 14.6294 26.2105 15.8958 24.8773 16.7071C25.747 18.524 25.6796 20.7299 24.6568 22.4784C23.676 24.2134 21.8244 25.4714 19.7801 25.7644C17.7068 26.0924 15.4992 25.4183 14.0071 24.0057C13.3449 24.6058 12.5699 25.097 11.7162 25.4098C10.4924 25.866 9.12857 25.9597 7.84568 25.6978C6.55629 25.433 5.35204 24.795 4.43983 23.8848C3.43066 22.9087 2.76676 21.6118 2.58053 20.2511C2.41441 19.0519 2.61009 17.812 3.12738 16.7077C1.89711 15.9522 0.920465 14.8163 0.416178 13.5019C-0.124762 12.1023 -0.141906 10.5208 0.385436 9.11553C0.914553 7.67073 2.00944 6.42749 3.39992 5.67036C4.61541 5.0047 6.05615 4.69699 7.45077 4.87428C7.80666 3.46786 8.68931 2.19187 9.89771 1.31957ZM12.9252 0.946936C11.3875 1.21568 9.9787 2.09815 9.11675 3.34535C8.60064 4.07029 8.30445 4.91775 8.17557 5.78159C7.47501 5.7494 6.77326 5.6139 6.07211 5.70762C4.65207 5.86176 3.3077 6.54097 2.36415 7.56515C1.51402 8.47585 0.988452 9.65868 0.905094 10.8765C0.803409 12.2315 1.23971 13.6188 2.12118 14.6864C2.69522 15.408 3.4685 15.9624 4.30977 16.3706C3.76824 17.2723 3.41293 18.2925 3.41707 19.3398C3.3881 20.5786 3.83681 21.8133 4.62842 22.7918C5.47796 23.8577 6.73897 24.6183 8.11527 24.8797C9.38396 25.1309 10.7384 24.9581 11.8948 24.4009C12.723 24.013 13.4212 23.4151 14.0024 22.7376C14.3003 23.0651 14.5995 23.3953 14.9524 23.6714C15.8297 24.3755 16.9246 24.8373 18.0656 24.957C19.2852 25.0936 20.5468 24.8424 21.6122 24.2614C23.2545 23.3773 24.4079 21.7027 24.5658 19.9039C24.6946 18.6753 24.3541 17.4287 23.6902 16.3763C24.5983 15.9336 25.423 15.3159 26.016 14.5176C26.7153 13.5951 27.1026 12.4619 27.1097 11.3242C27.1321 10.1606 26.7461 8.99753 26.0408 8.05014C24.963 6.56751 23.0919 5.63197 21.1972 5.67657C20.7396 5.70762 20.2832 5.75223 19.8256 5.78102C19.7594 5.39822 19.689 5.0143 19.5525 4.64731C19.0854 3.29679 18.0455 2.14106 16.723 1.48951C15.5678 0.911366 14.2075 0.713757 12.9252 0.946936ZM7.31775 9.80378C7.36091 9.09973 8.03841 8.5069 8.77444 8.51311C12.2666 8.51311 15.7582 8.51141 19.2504 8.51367C19.8812 8.52158 20.4706 8.95519 20.6367 9.53729C20.6976 9.73208 20.7017 9.93703 20.6976 10.1392C20.6946 12.3975 20.6994 14.6565 20.6952 16.9155C20.7011 17.6331 20.0585 18.2852 19.3053 18.3106C18.2016 18.3151 17.0978 18.3117 15.9947 18.3117C15.7972 18.3027 15.6305 18.4173 15.4567 18.4884C12.9045 19.6227 10.3659 20.7852 7.80962 21.9116C8.19685 20.7112 8.59827 19.5143 8.98846 18.3145C8.56635 18.3411 8.12177 18.236 7.80785 17.9543C7.52644 17.72 7.34317 17.379 7.31716 17.0227C7.31893 15.2154 7.29055 13.4082 7.30711 11.6009C7.32839 11.0019 7.30829 10.4028 7.31775 9.80378ZM8.60477 9.39388C8.36357 9.47801 8.18089 9.71627 8.20572 9.96582C8.21754 11.134 8.17734 12.301 8.19035 13.4686C8.17971 14.5995 8.22405 15.7292 8.20335 16.8601C8.1732 17.1673 8.4617 17.4654 8.7845 17.4614C9.25627 17.4603 9.72804 17.4614 10.1998 17.4801C9.89002 18.4263 9.57669 19.372 9.26868 20.3188C11.3491 19.3895 13.4242 18.4489 15.5058 17.5224C15.6565 17.4558 15.8285 17.4733 15.9905 17.4631C17.057 17.4603 18.1236 17.4625 19.1901 17.4625C19.4159 17.4755 19.624 17.3378 19.7363 17.1582C19.825 16.9956 19.8025 16.8065 19.8061 16.6298C19.8043 14.5035 19.8055 12.3772 19.8055 10.2504C19.8008 10.0866 19.8256 9.9167 19.773 9.75748C19.6914 9.526 19.4466 9.35662 19.1895 9.36283C15.8398 9.36396 12.4895 9.36339 9.13921 9.36283C8.96126 9.36791 8.7774 9.34307 8.60477 9.39388Z" fill="#316FEA"/>
</svg>
