<svg width="32" height="14" viewBox="0 0 32 14" fill="none" xmlns="http://www.w3.org/2000/svg">
<path d="M8.09778 9.48406C8.64005 10.0834 9.46772 10.4925 10.5998 10.4925C12.3123 10.4925 12.9972 9.56968 12.9972 8.58028C12.9972 7.22936 11.789 6.9059 10.752 6.63001C9.96243 6.43022 9.27745 6.24947 9.27745 5.67866C9.27745 5.1459 9.76264 4.78439 10.4666 4.78439C11.1516 4.78439 11.8176 5.01271 12.3028 5.52644L12.8545 4.82244C12.2932 4.25163 11.5226 3.93768 10.5428 3.93768C9.22037 3.93768 8.29756 4.69876 8.29756 5.74525C8.29756 7.03909 9.47724 7.33401 10.4952 7.60039C11.3038 7.80968 12.0269 7.99995 12.0269 8.6659C12.0269 9.12255 11.6653 9.64579 10.6379 9.64579C9.75313 9.64579 9.06816 9.2272 8.64005 8.75152L8.09778 9.48406Z" fill="#366FE0"/>
<path d="M17.7525 10.3783H18.8561L17.2293 7.83822C18.0379 7.73358 18.8085 7.12471 18.8085 5.98309C18.8085 4.81293 17.9808 4.03282 16.7726 4.03282H14.0993V10.3783H15.0507V7.93336H16.2399L17.7525 10.3783ZM17.8286 5.98309C17.8286 6.64903 17.3339 7.09617 16.6489 7.09617H15.0507V4.87001H16.6489C17.3339 4.87001 17.8286 5.31714 17.8286 5.98309Z" fill="#366FE0"/>
<path d="M21.438 10.3783H22.3894V4.87001H24.3492V4.03282H19.4687V4.87001H21.438V10.3783Z" fill="#366FE0"/>
<rect x="0.25" y="0.25" width="31.5" height="13.3378" rx="3.75" stroke="#316FEA" stroke-width="0.5"/>
</svg>
