<svg width="26" height="24" viewBox="0 0 26 24" fill="none" xmlns="http://www.w3.org/2000/svg">
<path d="M24.04 0H1.56639C0.701175 0 0 0.704176 0 1.56639V22.4341C0 23.2978 0.702676 24.0005 1.56639 24.0005H24.0405C24.9042 24.0005 25.6069 23.2978 25.6069 22.4341V1.56639C25.6064 0.700175 24.9012 0 24.04 0ZM24.04 23.2498H1.56639C1.11628 23.2498 0.750188 22.8837 0.750188 22.4336V5.22431H2.84121C3.04826 5.22431 3.2163 5.05626 3.2163 4.84921C3.2163 4.64216 3.04826 4.47412 2.84121 4.47412H0.750188V1.56639C0.750188 1.11828 1.11428 0.750188 1.56639 0.750188H24.0405C24.4911 0.750188 24.8562 1.11728 24.8562 1.56639V4.47462H2.04101C1.83396 4.47462 1.66592 4.64266 1.66592 4.84971C1.66592 5.05676 1.83396 5.22481 2.04101 5.22481H24.8562V22.4341C24.8562 22.8837 24.4901 23.2498 24.04 23.2498Z" fill="#316FEA"/>
<path d="M22.4766 7.73248H3.12976C2.64914 7.73248 2.25854 8.12308 2.25854 8.6037V10.8873C2.25854 11.3679 2.64914 11.7585 3.12976 11.7585H3.72141V19.1128C3.72141 20.0181 4.45759 20.7542 5.36232 20.7542H19.4884C19.6954 20.7542 19.8634 20.5862 19.8634 20.3791C19.8634 20.1721 19.6954 20.004 19.4884 20.004H5.36232C4.8712 20.004 4.4716 19.6044 4.4716 19.1128V11.7585H21.1353V19.1128C21.1353 19.6039 20.7357 20.004 20.2445 20.004H18.8882C18.6812 20.004 18.5131 20.1721 18.5131 20.3791C18.5131 20.5862 18.6812 20.7542 18.8882 20.7542H20.2445C21.1493 20.7542 21.8855 20.0181 21.8855 19.1128V11.7585H22.4771C22.9577 11.7585 23.3483 11.3674 23.3483 10.8873V8.6037C23.3478 8.12358 22.9572 7.73248 22.4766 7.73248ZM22.5976 10.8873C22.5976 10.9543 22.5431 11.0083 22.4766 11.0083C19.8004 11.0083 3.86895 11.0083 3.12926 11.0083C3.06225 11.0083 3.00823 10.9538 3.00823 10.8873V8.6037C3.00823 8.53718 3.06225 8.48267 3.12926 8.48267H22.4766C22.5431 8.48267 22.5976 8.53718 22.5976 8.6037V10.8873Z" fill="#316FEA"/>
<path d="M6.51866 9.07579C6.43814 9.03628 6.34062 9.06979 6.30161 9.15031L5.93652 9.9125L5.57142 9.15031C5.51341 9.02878 5.33937 9.02928 5.27985 9.15031L4.91476 9.9125L4.54967 9.15031C4.51116 9.06979 4.41313 9.03628 4.33311 9.07579C4.25259 9.1153 4.21909 9.21233 4.25809 9.29285L4.76922 10.3406C4.80873 10.4211 4.90576 10.4541 4.98628 10.4151C5.02279 10.3976 5.04929 10.3681 5.0638 10.3336L5.42589 9.59142L5.79148 10.3406C5.83099 10.4211 5.92801 10.4546 6.00853 10.4151C6.04504 10.3976 6.07155 10.3676 6.08605 10.3336L6.59368 9.29285C6.63269 9.21233 6.59918 9.1153 6.51866 9.07579Z" fill="#316FEA"/>
<path d="M9.10379 9.07579C9.02327 9.03628 8.92575 9.06979 8.88724 9.15031L8.52214 9.9125L8.15705 9.15031C8.09904 9.02878 7.925 9.02928 7.86548 9.15031L7.50039 9.9125L7.1353 9.15031C7.09679 9.06979 6.99927 9.03628 6.91875 9.07579C6.83823 9.1153 6.80472 9.21233 6.84423 9.29285L7.35535 10.3406C7.39486 10.4211 7.49189 10.4541 7.57241 10.4151C7.60892 10.3976 7.63542 10.3681 7.64993 10.3336L8.01202 9.59142L8.37761 10.3406C8.41712 10.4211 8.51414 10.4546 8.59416 10.4151C8.63067 10.3976 8.65718 10.3676 8.67218 10.3336L9.17981 9.29285C9.21782 9.21233 9.18431 9.1153 9.10379 9.07579Z" fill="#316FEA"/>
<path d="M11.6889 9.07579C11.6084 9.03628 11.5108 9.06979 11.4723 9.15031L11.1072 9.9125L10.7421 9.15031C10.6841 9.02878 10.5101 9.02928 10.4506 9.15031L10.0855 9.9125L9.72038 9.15031C9.68187 9.06979 9.58385 9.03628 9.50383 9.07579C9.42331 9.1153 9.3898 9.21233 9.42931 9.29285L9.94044 10.3406C9.97995 10.4211 10.0765 10.4541 10.157 10.4151C10.1935 10.3976 10.22 10.3681 10.235 10.3336L10.5971 9.59142L10.9627 10.3406C11.0022 10.4211 11.0987 10.4546 11.1792 10.4151C11.2158 10.3976 11.2423 10.3676 11.2573 10.3336L11.7649 9.29285C11.8029 9.21233 11.7694 9.1153 11.6889 9.07579Z" fill="#316FEA"/>
<path d="M2.58766 3.0928C2.87547 3.0928 3.10879 2.85948 3.10879 2.57167C3.10879 2.28386 2.87547 2.05054 2.58766 2.05054C2.29985 2.05054 2.06653 2.28386 2.06653 2.57167C2.06653 2.85948 2.29985 3.0928 2.58766 3.0928Z" fill="#316FEA"/>
<path d="M4.34157 3.0928C4.62938 3.0928 4.8627 2.85948 4.8627 2.57167C4.8627 2.28386 4.62938 2.05054 4.34157 2.05054C4.05375 2.05054 3.82043 2.28386 3.82043 2.57167C3.82043 2.85948 4.05375 3.0928 4.34157 3.0928Z" fill="#316FEA"/>
<path d="M6.04701 3.0928C6.33482 3.0928 6.56814 2.85948 6.56814 2.57167C6.56814 2.28386 6.33482 2.05054 6.04701 2.05054C5.7592 2.05054 5.52588 2.28386 5.52588 2.57167C5.52588 2.85948 5.7592 3.0928 6.04701 3.0928Z" fill="#316FEA"/>
<path fill-rule="evenodd" clip-rule="evenodd" d="M14.5536 15.6039L11.5964 13.6325V17.5754L14.5536 15.6039ZM15.1513 15.2294C15.4184 15.4074 15.4184 15.8005 15.1513 15.9785L11.6529 18.3106C11.3538 18.5102 10.9532 18.2956 10.9532 17.936V13.2719C10.9532 12.9123 11.3538 12.6977 11.6529 12.8973L15.1513 15.2294Z" fill="#316FEA"/>
</svg>
