<svg width="24" height="24" viewBox="0 0 24 24" fill="none" xmlns="http://www.w3.org/2000/svg">
<path d="M22.8 7.2C23.1183 7.2 23.4235 7.07357 23.6485 6.84853C23.8736 6.62348 24 6.31826 24 6V1.2C24 0.88174 23.8736 0.576515 23.6485 0.351472C23.4235 0.126428 23.1183 0 22.8 0L1.2 0C0.88174 0 0.576515 0.126428 0.351472 0.351472C0.126428 0.576515 0 0.88174 0 1.2L0 6C0 6.31826 0.126428 6.62348 0.351472 6.84853C0.576515 7.07357 0.88174 7.2 1.2 7.2H2.4V8.4H1.2C0.88174 8.4 0.576515 8.52643 0.351472 8.75147C0.126428 8.97652 0 9.28174 0 9.6L0 14.4C0 14.7183 0.126428 15.0235 0.351472 15.2485C0.576515 15.4736 0.88174 15.6 1.2 15.6H2.4V16.8H1.2C0.88174 16.8 0.576515 16.9264 0.351472 17.1515C0.126428 17.3765 0 17.6817 0 18L0 22.8C0 23.1183 0.126428 23.4235 0.351472 23.6485C0.576515 23.8736 0.88174 24 1.2 24H22.8C23.1183 24 23.4235 23.8736 23.6485 23.6485C23.8736 23.4235 24 23.1183 24 22.8V18C24 17.6817 23.8736 17.3765 23.6485 17.1515C23.4235 16.9264 23.1183 16.8 22.8 16.8H21.6V15.6H22.8C23.1183 15.6 23.4235 15.4736 23.6485 15.2485C23.8736 15.0235 24 14.7183 24 14.4V9.6C24 9.28174 23.8736 8.97652 23.6485 8.75147C23.4235 8.52643 23.1183 8.4 22.8 8.4H21.6V7.2H22.8ZM22.8 17.6C22.9061 17.6 23.0078 17.6421 23.0828 17.7172C23.1579 17.7922 23.2 17.8939 23.2 18V22.8C23.2 22.9061 23.1579 23.0078 23.0828 23.0828C23.0078 23.1579 22.9061 23.2 22.8 23.2H1.2C1.09391 23.2 0.992172 23.1579 0.917157 23.0828C0.842143 23.0078 0.8 22.9061 0.8 22.8V18C0.8 17.8939 0.842143 17.7922 0.917157 17.7172C0.992172 17.6421 1.09391 17.6 1.2 17.6H22.8ZM3.2 16.8V15.6H4V16.8H3.2ZM4.8 16.8V15.6H19.2V16.8H4.8ZM20 16.8V15.6H20.8V16.8H20ZM22.8 9.2C22.9061 9.2 23.0078 9.24214 23.0828 9.31716C23.1579 9.39217 23.2 9.49391 23.2 9.6V14.4C23.2 14.5061 23.1579 14.6078 23.0828 14.6828C23.0078 14.7579 22.9061 14.8 22.8 14.8H1.2C1.09391 14.8 0.992172 14.7579 0.917157 14.6828C0.842143 14.6078 0.8 14.5061 0.8 14.4V9.6C0.8 9.49391 0.842143 9.39217 0.917157 9.31716C0.992172 9.24214 1.09391 9.2 1.2 9.2H22.8ZM3.2 8.4V7.2H4V8.4H3.2ZM4.8 8.4V7.2H19.2V8.4H4.8ZM20 8.4V7.2H20.8V8.4H20ZM1.2 6.4C1.09391 6.4 0.992172 6.35786 0.917157 6.28284C0.842143 6.20783 0.8 6.10609 0.8 6V1.2C0.8 1.09391 0.842143 0.992172 0.917157 0.917157C0.992172 0.842143 1.09391 0.8 1.2 0.8H22.8C22.9061 0.8 23.0078 0.842143 23.0828 0.917157C23.1579 0.992172 23.2 1.09391 23.2 1.2V6C23.2 6.10609 23.1579 6.20783 23.0828 6.28284C23.0078 6.35786 22.9061 6.4 22.8 6.4H1.2Z" fill="#316FEA"/>
<path d="M12.8 3.20003H4.72651C4.63215 2.93314 4.44648 2.70821 4.20232 2.56497C3.95816 2.42174 3.67122 2.36944 3.39222 2.41731C3.11322 2.46518 2.86013 2.61014 2.67767 2.82656C2.49521 3.04299 2.39514 3.31695 2.39514 3.60003C2.39514 3.8831 2.49521 4.15706 2.67767 4.37349C2.86013 4.58992 3.11322 4.73488 3.39222 4.78275C3.67122 4.83061 3.95816 4.77831 4.20232 4.63508C4.44648 4.49185 4.63215 4.26691 4.72651 4.00003H12.8C12.9061 4.00003 13.0078 3.95788 13.0829 3.88287C13.1579 3.80786 13.2 3.70611 13.2 3.60003C13.2 3.49394 13.1579 3.3922 13.0829 3.31718C13.0078 3.24217 12.9061 3.20003 12.8 3.20003ZM3.60001 4.00003C3.5209 4.00003 3.44356 3.97657 3.37778 3.93261C3.312 3.88866 3.26074 3.82619 3.23046 3.7531C3.20019 3.68001 3.19226 3.59958 3.2077 3.52199C3.22313 3.4444 3.26123 3.37313 3.31717 3.31718C3.37311 3.26124 3.44438 3.22315 3.52198 3.20771C3.59957 3.19228 3.68 3.2002 3.75309 3.23048C3.82618 3.26075 3.88865 3.31202 3.9326 3.3778C3.97655 3.44358 4.00001 3.52091 4.00001 3.60003C4.00001 3.70611 3.95787 3.80786 3.88285 3.88287C3.80784 3.95788 3.7061 4.00003 3.60001 4.00003Z" fill="#316FEA"/>
<path d="M18.4 1.59998H17.6V2.39998H18.4V1.59998Z" fill="#316FEA"/>
<path d="M20 1.59998H19.2V2.39998H20V1.59998Z" fill="#316FEA"/>
<path d="M21.6 1.59998H20.8V2.39998H21.6V1.59998Z" fill="#316FEA"/>
<path d="M16.8 1.59998H16V2.39998H16.8V1.59998Z" fill="#316FEA"/>
<path d="M15.2 1.59998H14.4V2.39998H15.2V1.59998Z" fill="#316FEA"/>
<path d="M18.4 3.19995H17.6V3.99995H18.4V3.19995Z" fill="#316FEA"/>
<path d="M20 3.19995H19.2V3.99995H20V3.19995Z" fill="#316FEA"/>
<path d="M21.6 3.19995H20.8V3.99995H21.6V3.19995Z" fill="#316FEA"/>
<path d="M16.8 3.19995H16V3.99995H16.8V3.19995Z" fill="#316FEA"/>
<path d="M15.2 3.19995H14.4V3.99995H15.2V3.19995Z" fill="#316FEA"/>
<path d="M18.4 4.80005H17.6V5.60005H18.4V4.80005Z" fill="#316FEA"/>
<path d="M20 4.80005H19.2V5.60005H20V4.80005Z" fill="#316FEA"/>
<path d="M21.6 4.80005H20.8V5.60005H21.6V4.80005Z" fill="#316FEA"/>
<path d="M16.8 4.80005H16V5.60005H16.8V4.80005Z" fill="#316FEA"/>
<path d="M15.2 4.80005H14.4V5.60005H15.2V4.80005Z" fill="#316FEA"/>
<path d="M12.8 11.6001H4.72651C4.63215 11.3332 4.44648 11.1082 4.20232 10.965C3.95816 10.8218 3.67122 10.7695 3.39222 10.8173C3.11322 10.8652 2.86013 11.0102 2.67767 11.2266C2.49521 11.443 2.39514 11.717 2.39514 12C2.39514 12.2831 2.49521 12.5571 2.67767 12.7735C2.86013 12.9899 3.11322 13.1349 3.39222 13.1828C3.67122 13.2306 3.95816 13.1783 4.20232 13.0351C4.44648 12.8919 4.63215 12.6669 4.72651 12.4H12.8C12.9061 12.4 13.0078 12.3579 13.0829 12.2829C13.1579 12.2079 13.2 12.1061 13.2 12C13.2 11.894 13.1579 11.7922 13.0829 11.7172C13.0078 11.6422 12.9061 11.6001 12.8 11.6001ZM3.60001 12.4C3.5209 12.4 3.44356 12.3766 3.37778 12.3326C3.312 12.2887 3.26074 12.2262 3.23046 12.1531C3.20019 12.08 3.19226 11.9996 3.2077 11.922C3.22313 11.8444 3.26123 11.7731 3.31717 11.7172C3.37311 11.6613 3.44438 11.6232 3.52198 11.6077C3.59957 11.5923 3.68 11.6002 3.75309 11.6305C3.82618 11.6608 3.88865 11.712 3.9326 11.7778C3.97655 11.8436 4.00001 11.9209 4.00001 12C4.00001 12.1061 3.95787 12.2079 3.88285 12.2829C3.80784 12.3579 3.7061 12.4 3.60001 12.4Z" fill="#316FEA"/>
<path d="M18.4 10H17.6V10.8H18.4V10Z" fill="#316FEA"/>
<path d="M20 10H19.2V10.8H20V10Z" fill="#316FEA"/>
<path d="M21.6 10H20.8V10.8H21.6V10Z" fill="#316FEA"/>
<path d="M16.8 10H16V10.8H16.8V10Z" fill="#316FEA"/>
<path d="M15.2 10H14.4V10.8H15.2V10Z" fill="#316FEA"/>
<path d="M18.4 11.6H17.6V12.4H18.4V11.6Z" fill="#316FEA"/>
<path d="M20 11.6H19.2V12.4H20V11.6Z" fill="#316FEA"/>
<path d="M21.6 11.6H20.8V12.4H21.6V11.6Z" fill="#316FEA"/>
<path d="M16.8 11.6H16V12.4H16.8V11.6Z" fill="#316FEA"/>
<path d="M15.2 11.6H14.4V12.4H15.2V11.6Z" fill="#316FEA"/>
<path d="M18.4 13.2H17.6V13.9999H18.4V13.2Z" fill="#316FEA"/>
<path d="M20 13.2H19.2V13.9999H20V13.2Z" fill="#316FEA"/>
<path d="M21.6 13.2H20.8V13.9999H21.6V13.2Z" fill="#316FEA"/>
<path d="M16.8 13.2H16V13.9999H16.8V13.2Z" fill="#316FEA"/>
<path d="M15.2 13.2H14.4V13.9999H15.2V13.2Z" fill="#316FEA"/>
<path d="M12.8 20H4.72651C4.63215 19.7331 4.44648 19.5081 4.20232 19.3649C3.95816 19.2217 3.67122 19.1694 3.39222 19.2172C3.11322 19.2651 2.86013 19.4101 2.67767 19.6265C2.49521 19.8429 2.39514 20.1169 2.39514 20.4C2.39514 20.683 2.49521 20.957 2.67767 21.1734C2.86013 21.3898 3.11322 21.5348 3.39222 21.5827C3.67122 21.6305 3.95816 21.5782 4.20232 21.435C4.44648 21.2918 4.63215 21.0668 4.72651 20.8H12.8C12.9061 20.8 13.0078 20.7578 13.0829 20.6828C13.1579 20.6078 13.2 20.506 13.2 20.4C13.2 20.2939 13.1579 20.1921 13.0829 20.1171C13.0078 20.0421 12.9061 20 12.8 20ZM3.60001 20.8C3.5209 20.8 3.44356 20.7765 3.37778 20.7325C3.312 20.6886 3.26074 20.6261 3.23046 20.553C3.20019 20.4799 3.19226 20.3995 3.2077 20.3219C3.22313 20.2443 3.26123 20.1731 3.31717 20.1171C3.37311 20.0612 3.44438 20.0231 3.52198 20.0076C3.59957 19.9922 3.68 20.0001 3.75309 20.0304C3.82618 20.0607 3.88865 20.1119 3.9326 20.1777C3.97655 20.2435 4.00001 20.3208 4.00001 20.4C4.00001 20.506 3.95787 20.6078 3.88285 20.6828C3.80784 20.7578 3.7061 20.8 3.60001 20.8Z" fill="#316FEA"/>
<path d="M18.4 18.4H17.6V19.2H18.4V18.4Z" fill="#316FEA"/>
<path d="M20 18.4H19.2V19.2H20V18.4Z" fill="#316FEA"/>
<path d="M21.6 18.4H20.8V19.2H21.6V18.4Z" fill="#316FEA"/>
<path d="M16.8 18.4H16V19.2H16.8V18.4Z" fill="#316FEA"/>
<path d="M15.2 18.4H14.4V19.2H15.2V18.4Z" fill="#316FEA"/>
<path d="M18.4 20H17.6V20.8H18.4V20Z" fill="#316FEA"/>
<path d="M20 20H19.2V20.8H20V20Z" fill="#316FEA"/>
<path d="M21.6 20H20.8V20.8H21.6V20Z" fill="#316FEA"/>
<path d="M16.8 20H16V20.8H16.8V20Z" fill="#316FEA"/>
<path d="M15.2 20H14.4V20.8H15.2V20Z" fill="#316FEA"/>
<path d="M18.4 21.6H17.6V22.4H18.4V21.6Z" fill="#316FEA"/>
<path d="M20 21.6H19.2V22.4H20V21.6Z" fill="#316FEA"/>
<path d="M21.6 21.6H20.8V22.4H21.6V21.6Z" fill="#316FEA"/>
<path d="M16.8 21.6H16V22.4H16.8V21.6Z" fill="#316FEA"/>
<path d="M15.2 21.6H14.4V22.4H15.2V21.6Z" fill="#316FEA"/>
</svg>
