<svg width="24" height="24" viewBox="0 0 24 24" fill="none" xmlns="http://www.w3.org/2000/svg">
<path d="M7.125 12.5156C7.22446 12.5156 7.31984 12.4761 7.39017 12.4058C7.46049 12.3355 7.5 12.2401 7.5 12.1406V4.47188L23.25 4.485V14.6475C23.2496 15.1387 23.0543 15.6097 22.707 15.957C22.3597 16.3043 21.8887 16.4996 21.3975 16.5H11.7881C11.6887 16.5 11.5933 16.5395 11.523 16.6098C11.4526 16.6802 11.4131 16.7755 11.4131 16.875C11.4131 16.9745 11.4526 17.0698 11.523 17.1402C11.5933 17.2105 11.6887 17.25 11.7881 17.25H21.3975C22.0876 17.2495 22.7492 16.9752 23.2372 16.4872C23.7252 15.9992 23.9995 15.3376 24 14.6475V2.60063C23.999 1.91088 23.7244 1.24969 23.2365 0.76214C22.7486 0.274589 22.0872 0.000495865 21.3975 0L9.35062 0C8.66088 0.000992981 7.99969 0.275563 7.51214 0.763465C7.02459 1.25137 6.7505 1.91275 6.75 2.6025V12.1406C6.75 12.2401 6.78951 12.3355 6.85983 12.4058C6.93016 12.4761 7.02554 12.5156 7.125 12.5156ZM9.3525 0.75H21.3994C21.8902 0.750869 22.3607 0.946381 22.7077 1.29366C23.0546 1.64093 23.2496 2.11163 23.25 2.6025V3.7275L7.5 3.71438V2.58938C7.50395 2.10049 7.70081 1.63295 8.04774 1.28848C8.39467 0.944008 8.8636 0.750478 9.3525 0.75Z" fill="#316FEA"/>
<path d="M21.7181 2.71875C21.9252 2.71875 22.0931 2.55086 22.0931 2.34375C22.0931 2.13664 21.9252 1.96875 21.7181 1.96875C21.511 1.96875 21.3431 2.13664 21.3431 2.34375C21.3431 2.55086 21.511 2.71875 21.7181 2.71875Z" fill="#316FEA"/>
<path d="M20.2312 2.71875C20.4383 2.71875 20.6062 2.55086 20.6062 2.34375C20.6062 2.13664 20.4383 1.96875 20.2312 1.96875C20.0241 1.96875 19.8562 2.13664 19.8562 2.34375C19.8562 2.55086 20.0241 2.71875 20.2312 2.71875Z" fill="#316FEA"/>
<path d="M18.7426 2.71875C18.9497 2.71875 19.1176 2.55086 19.1176 2.34375C19.1176 2.13664 18.9497 1.96875 18.7426 1.96875C18.5354 1.96875 18.3676 2.13664 18.3676 2.34375C18.3676 2.55086 18.5354 2.71875 18.7426 2.71875Z" fill="#316FEA"/>
<path d="M12.8325 11.1675C12.7622 11.0972 12.6669 11.0577 12.5675 11.0577C12.468 11.0577 12.3727 11.0972 12.3024 11.1675L7.418 16.0519C7.38316 16.0867 7.35552 16.1281 7.33667 16.1736C7.31781 16.2191 7.30811 16.2679 7.30811 16.3172C7.30811 16.3664 7.31781 16.4152 7.33667 16.4608C7.35552 16.5063 7.38316 16.5476 7.418 16.5825C7.45284 16.6173 7.49421 16.645 7.53973 16.6638C7.58525 16.6827 7.63404 16.6924 7.68331 16.6924C7.73259 16.6924 7.78138 16.6827 7.8269 16.6638C7.87242 16.645 7.91379 16.6173 7.94863 16.5825L12.833 11.6981C12.9033 11.6278 12.9427 11.5324 12.9427 11.433C12.9427 11.3336 12.9033 11.2383 12.833 11.168L12.8325 11.1675Z" fill="#316FEA"/>
<path d="M11.625 14.6082C11.7075 14.6157 11.7895 14.6194 11.8706 14.6194C12.1982 14.62 12.5227 14.5559 12.8255 14.4307C13.1283 14.3055 13.4034 14.1218 13.635 13.89L15.3225 12.2025C15.7395 11.7269 15.9607 11.1108 15.9414 10.4785C15.9221 9.84624 15.6637 9.2448 15.2184 8.79548C14.7732 8.34616 14.1741 8.0824 13.542 8.05738C12.9099 8.03236 12.2919 8.24795 11.8125 8.66066L10.125 10.3482C9.87161 10.6019 9.67585 10.9073 9.55096 11.2434C9.42608 11.5796 9.37501 11.9387 9.40121 12.2963C9.40842 12.3957 9.45485 12.4883 9.53027 12.5535C9.6057 12.6187 9.70394 12.6513 9.8034 12.6441C9.90286 12.6369 9.99537 12.5905 10.0606 12.515C10.1258 12.4396 10.1584 12.3414 10.1512 12.2419C10.1327 11.9918 10.1681 11.7407 10.2551 11.5055C10.3422 11.2703 10.4787 11.0566 10.6556 10.8788L12.3431 9.19129C12.6759 8.88886 13.1124 8.72622 13.562 8.73714C14.0116 8.74806 14.4397 8.93171 14.7575 9.24994C15.0752 9.56818 15.2582 9.99657 15.2685 10.4462C15.2787 10.8958 15.1154 11.332 14.8125 11.6644L13.125 13.3519C12.9423 13.5344 12.7214 13.6742 12.4783 13.7611C12.2351 13.848 11.9757 13.8799 11.7187 13.8544C11.6193 13.845 11.5201 13.8754 11.4431 13.9391C11.3661 14.0027 11.3175 14.0943 11.3081 14.1938C11.2986 14.2932 11.3291 14.3924 11.3927 14.4694C11.4564 14.5464 11.548 14.595 11.6475 14.6044L11.625 14.6082Z" fill="#316FEA"/>
<path d="M4.91066 19.0893C5.37992 19.5569 6.01538 19.8195 6.67785 19.8195C7.34032 19.8195 7.97578 19.5569 8.44504 19.0893L10.1325 17.4018C10.3841 17.1538 10.5804 16.8553 10.7084 16.526C10.8363 16.1967 10.8931 15.844 10.875 15.4912C10.8698 15.3917 10.8253 15.2984 10.7513 15.2318C10.6773 15.1652 10.5798 15.1307 10.4803 15.1359C10.3809 15.1411 10.2876 15.1856 10.221 15.2596C10.1543 15.3337 10.1198 15.4311 10.125 15.5306C10.1382 15.7757 10.0998 16.0208 10.0122 16.2501C9.92472 16.4794 9.79004 16.6878 9.61691 16.8618L7.92941 18.5493C7.60159 18.8746 7.15863 19.0572 6.69685 19.0576C6.23506 19.058 5.79179 18.8761 5.46341 18.5514C5.13503 18.2268 4.94809 17.7856 4.94325 17.3238C4.9384 16.8621 5.11604 16.4171 5.43754 16.0856L7.12504 14.3981C7.29574 14.2249 7.50052 14.0889 7.72643 13.9989C7.95234 13.9088 8.19448 13.8666 8.43754 13.875C8.53699 13.8784 8.63376 13.8423 8.70655 13.7744C8.77933 13.7065 8.82218 13.6125 8.82566 13.5131C8.82914 13.4136 8.79297 13.3169 8.72511 13.2441C8.65724 13.1713 8.56324 13.1284 8.46379 13.125C8.12075 13.1125 7.77881 13.1706 7.45917 13.2957C7.13954 13.4209 6.84903 13.6104 6.60566 13.8524L4.91816 15.5399C4.68461 15.7713 4.4989 16.0463 4.37166 16.3494C4.24441 16.6525 4.17811 16.9777 4.17654 17.3065C4.17498 17.6352 4.23817 17.961 4.36252 18.2653C4.48688 18.5696 4.66995 18.8464 4.90129 19.0799L4.91066 19.0893Z" fill="#316FEA"/>
<path d="M2.6025 24H14.6494C15.3391 23.999 16.0003 23.7244 16.4879 23.2365C16.9754 22.7486 17.2495 22.0872 17.25 21.3975V18.2419C17.25 18.1424 17.2105 18.047 17.1402 17.9767C17.0698 17.9064 16.9745 17.8669 16.875 17.8669C16.7755 17.8669 16.6802 17.9064 16.6098 17.9767C16.5395 18.047 16.5 18.1424 16.5 18.2419V21.3975C16.4996 21.8887 16.3043 22.3597 15.957 22.707C15.6097 23.0543 15.1387 23.2496 14.6475 23.25H2.60063C2.10975 23.2491 1.63926 23.0536 1.29233 22.7063C0.945407 22.3591 0.750372 21.8884 0.75 21.3975V11.25H5.625C5.72446 11.25 5.81984 11.2105 5.89016 11.1402C5.96049 11.0698 6 10.9745 6 10.875C6 10.7755 5.96049 10.6802 5.89016 10.6098C5.81984 10.5395 5.72446 10.5 5.625 10.5H0.75V9.3525C0.750372 8.8613 0.945666 8.39033 1.293 8.043C1.64033 7.69567 2.1113 7.50037 2.6025 7.5H5.625C5.72446 7.5 5.81984 7.46049 5.89016 7.39017C5.96049 7.31984 6 7.22446 6 7.125C6 7.02554 5.96049 6.93016 5.89016 6.85983C5.81984 6.78951 5.72446 6.75 5.625 6.75H2.6025C1.91243 6.7505 1.25076 7.02485 0.762803 7.5128C0.274847 8.00076 0.000496635 8.66243 0 9.3525L0 21.3994C0.000992981 22.0891 0.275563 22.7503 0.763465 23.2379C1.25137 23.7254 1.91275 23.9995 2.6025 24Z" fill="#316FEA"/>
</svg>
