<svg width="26" height="19" viewBox="0 0 26 19" fill="none" xmlns="http://www.w3.org/2000/svg">
<path d="M24.41 9.14085C24.41 8.37924 23.7788 7.75928 23.0033 7.75928C22.2279 7.75928 21.5967 8.37924 21.5967 9.14085C21.5967 9.90246 22.2279 10.5224 23.0033 10.5224C23.7788 10.5224 24.41 9.90246 24.41 9.14085ZM22.3584 9.14085C22.3584 8.79171 22.6479 8.50742 23.0033 8.50742C23.3588 8.50742 23.6483 8.79171 23.6483 9.14085C23.6483 9.48998 23.3588 9.77427 23.0033 9.77427C22.6479 9.77427 22.3584 9.48998 22.3584 9.14085Z" fill="#316FEA"/>
<path d="M20.4896 3.72824C20.4531 3.72824 20.416 3.72874 20.3794 3.72924C20.1692 3.73323 20.0021 3.90381 20.0062 4.11079C20.0102 4.31778 20.1844 4.48087 20.3947 4.47738C20.4261 4.47688 20.4581 4.47638 20.4896 4.47638C23.1085 4.47638 25.2388 6.56869 25.2388 9.1408C25.2388 11.7129 23.1085 13.8052 20.4896 13.8052C17.8708 13.8052 15.7405 11.7129 15.7405 9.1408C15.7405 7.20461 16.9267 5.49835 18.7625 4.79459C18.9585 4.71928 19.0555 4.50232 18.9788 4.3103C18.9022 4.11827 18.6813 4.02301 18.4858 4.09783C17.464 4.48985 16.5916 5.16617 15.9629 6.05397C15.8045 6.27741 15.6648 6.51083 15.5434 6.75173H12.4574V4.40855L13.9575 2.93521C14.2018 3.08185 14.4887 3.16664 14.7954 3.16664C15.6841 3.16664 16.4072 2.4564 16.4072 1.58357C16.4077 0.710236 15.6846 0 14.7959 0C13.9072 0 13.1841 0.710236 13.1841 1.58307C13.1841 1.88432 13.2704 2.16612 13.4197 2.40603L11.8084 3.9886C11.7368 4.05892 11.6967 4.15369 11.6967 4.25294V6.75074H10.714V5.61356C10.714 5.40707 10.5434 5.23949 10.3332 5.23949C10.1229 5.23949 9.9523 5.40707 9.9523 5.61356V6.92431L8.86252 7.63454L8.55986 7.44003V5.13625C9.26573 4.96767 9.79082 4.34222 9.79082 3.59807C9.79082 2.72523 9.06768 2.015 8.17899 2.015C7.2903 2.015 6.56716 2.72523 6.56716 3.59807C6.56716 4.34222 7.09276 4.96767 7.79812 5.13625V6.95124L7.58027 6.81159C7.51831 6.77169 7.44569 6.75074 7.37206 6.75074H6.81498V6.14225C6.81498 5.93576 6.64435 5.76818 6.43411 5.76818C6.22387 5.76818 6.05324 5.93576 6.05324 6.14225V6.94376L5.18944 7.61509L4.71158 7.28491V4.25344C4.71158 4.15418 4.67146 4.05892 4.59986 3.98909L2.98853 2.40652C3.13783 2.16662 3.22416 1.88482 3.22416 1.58357C3.22416 0.710236 2.50103 0 1.61183 0C0.722631 0 0 0.710236 0 1.58357C0 2.4569 0.723139 3.16664 1.61183 3.16664C1.91855 3.16664 2.20547 3.08185 2.44974 2.93521L3.94984 4.40855V6.77568C3.90769 6.76021 3.86301 6.75124 3.81781 6.75124H1.92008C1.80023 6.75124 1.68749 6.8066 1.61538 6.90086L0.0761734 8.91636C-0.0253911 9.04953 -0.0253911 9.23208 0.0761734 9.36525L1.61538 11.3807C1.68749 11.475 1.80023 11.5304 1.92008 11.5304H3.95035V13.8731L2.45024 15.3464C2.20598 15.1998 1.91906 15.115 1.61234 15.115C0.723139 15.115 0 15.8252 0 16.698C0 17.5709 0.723139 18.2811 1.61183 18.2811C2.50052 18.2811 3.22366 17.5709 3.22366 16.698C3.22366 16.3968 3.13733 16.115 2.98803 15.8751L4.59935 14.2925C4.67095 14.2222 4.71107 14.1274 4.71107 14.0282V11.5304H6.05274V12.1389C6.05274 12.3453 6.22336 12.5129 6.4336 12.5129C6.64384 12.5129 6.81447 12.3453 6.81447 12.1389V11.5304H7.79711V13.1449C7.09123 13.3134 6.56614 13.9389 6.56614 14.683C6.56614 15.5559 7.28928 16.2661 8.17797 16.2661C9.06666 16.2661 9.7898 15.5559 9.7898 14.683C9.7898 13.9389 9.2642 13.3134 8.55884 13.1449V11.5304H9.9518V12.6675C9.9518 12.874 10.1224 13.0416 10.3327 13.0416C10.5429 13.0416 10.7135 12.874 10.7135 12.6675V11.5304H11.6962V14.0282C11.6962 14.1274 11.7363 14.2227 11.8079 14.2925L13.4192 15.8751C13.2699 16.115 13.1836 16.3968 13.1836 16.698C13.1836 17.5709 13.9067 18.2811 14.7954 18.2811C15.6841 18.2811 16.4072 17.5709 16.4072 16.698C16.4072 15.8252 15.6841 15.115 14.7954 15.115C14.4887 15.115 14.2018 15.1998 13.9575 15.3464L12.4574 13.8731V11.5304H12.9221C13.1323 11.5304 13.3029 11.3628 13.3029 11.1563C13.3029 10.9498 13.1323 10.7822 12.9221 10.7822H2.11L0.856696 9.1408L2.11 7.49938H3.69695L4.98326 8.38867C5.12139 8.48393 5.30674 8.47895 5.43878 8.3762L6.56614 7.49988H7.25729L8.65482 8.39615C8.78228 8.47795 8.94682 8.47745 9.07377 8.39466L10.4474 7.49988H15.2367C15.1042 7.90886 15.0224 8.33331 14.9924 8.76723H12.0765C11.8663 8.76723 11.6957 8.93481 11.6957 9.1413C11.6957 9.34779 11.8663 9.51537 12.0765 9.51537H14.9924C15.0229 9.95428 15.1072 10.3787 15.2382 10.7827H14.703C14.4927 10.7827 14.3221 10.9503 14.3221 11.1568C14.3221 11.3633 14.4927 11.5309 14.703 11.5309H15.546C16.4463 13.3199 18.3238 14.5539 20.4896 14.5539C23.5279 14.5539 26 12.1259 26 9.1413C26 6.15671 23.5284 3.72824 20.4896 3.72824ZM14.7959 0.748142C15.2646 0.748142 15.646 1.12271 15.646 1.58307C15.646 2.04343 15.2646 2.418 14.7959 2.418C14.3272 2.418 13.9458 2.04343 13.9458 1.58307C13.9458 1.12271 14.3267 0.748142 14.7959 0.748142ZM7.32788 3.59856C7.32788 3.13821 7.70925 2.76364 8.17797 2.76364C8.64669 2.76364 9.02807 3.13821 9.02807 3.59856C9.02807 4.05892 8.64669 4.43349 8.17797 4.43349C7.70925 4.43399 7.32788 4.05892 7.32788 3.59856ZM0.761734 1.58357C0.761734 1.12271 1.14311 0.748142 1.61183 0.748142C2.08055 0.748142 2.46192 1.12271 2.46192 1.58307C2.46192 2.04343 2.08055 2.418 1.61183 2.418C1.14311 2.418 0.761734 2.04392 0.761734 1.58357ZM1.61183 17.5335C1.14311 17.5335 0.761734 17.1589 0.761734 16.6985C0.761734 16.2382 1.14311 15.8636 1.61183 15.8636C2.08055 15.8636 2.46192 16.2382 2.46192 16.6985C2.46243 17.1589 2.08106 17.5335 1.61183 17.5335ZM9.02857 14.683C9.02857 15.1434 8.6472 15.518 8.17848 15.518C7.70976 15.518 7.32839 15.1434 7.32839 14.683C7.32839 14.2227 7.70976 13.8481 8.17848 13.8481C8.6472 13.8476 9.02857 14.2222 9.02857 14.683ZM15.646 16.698C15.646 17.1584 15.2646 17.533 14.7959 17.533C14.3272 17.533 13.9458 17.1584 13.9458 16.698C13.9458 16.2377 14.3272 15.8631 14.7959 15.8631C15.2646 15.8631 15.646 16.2377 15.646 16.698Z" fill="#316FEA"/>
<path d="M17.698 7.61903V10.6625C17.698 11.4186 18.3247 12.0341 19.0945 12.0341H19.1153C19.8852 12.0341 20.5118 11.4186 20.5118 10.6625V7.61903C20.5118 6.86291 19.8852 6.24744 19.1153 6.24744H19.0945C18.3241 6.24744 17.698 6.86291 17.698 7.61903ZM18.4597 7.61903C18.4597 7.27538 18.7446 6.99558 19.0945 6.99558H19.1153C19.4652 6.99558 19.7501 7.27538 19.7501 7.61903V10.6625C19.7501 11.0061 19.4652 11.2859 19.1153 11.2859H19.0945C18.7446 11.2859 18.4597 11.0061 18.4597 10.6625V7.61903Z" fill="#316FEA"/>
</svg>
