<svg width="28" height="24" viewBox="0 0 28 24" fill="none" xmlns="http://www.w3.org/2000/svg">
<path d="M16.5094 23.9994H0.532964C0.391721 23.9994 0.256254 23.9419 0.156322 23.8397C0.0563898 23.7375 0.00016539 23.5988 0 23.4541V11.4544C0.000165167 11.3097 0.0563696 11.171 0.156284 11.0686C0.256198 10.9663 0.391664 10.9087 0.532964 10.9086H16.5094C16.6507 10.9087 16.7861 10.9663 16.8859 11.0687C16.9857 11.171 17.0418 11.3098 17.0418 11.4544V23.4541C17.0418 23.5987 16.9857 23.7374 16.8858 23.8397C16.786 23.9419 16.6506 23.9994 16.5094 23.9994ZM1.0653 22.9089H15.9765V11.9997H1.0653V22.9089Z" fill="#316FEA"/>
<path d="M3.72828 8.72702C3.58703 8.72702 3.45157 8.6696 3.35163 8.56737C3.2517 8.46513 3.19548 8.32645 3.19531 8.18179V7.09067C3.20004 6.94922 3.25823 6.81517 3.35761 6.71681C3.45698 6.61845 3.58977 6.56348 3.72796 6.56348C3.86616 6.56348 3.99895 6.61845 4.09832 6.71681C4.1977 6.81517 4.25589 6.94922 4.26062 7.09067V8.18179C4.26062 8.32639 4.20453 8.46508 4.1047 8.56733C4.00487 8.66958 3.86946 8.72702 3.72828 8.72702Z" fill="#316FEA"/>
<path d="M3.72828 11.9996C3.58703 11.9996 3.45157 11.9422 3.35163 11.84C3.2517 11.7377 3.19548 11.599 3.19531 11.4544V10.3633C3.20004 10.2218 3.25823 10.0878 3.35761 9.98939C3.45698 9.89104 3.58977 9.83606 3.72796 9.83606C3.86616 9.83606 3.99895 9.89104 4.09832 9.98939C4.1977 10.0878 4.25589 10.2218 4.26062 10.3633V11.4544C4.26062 11.599 4.20453 11.7377 4.1047 11.8399C4.00487 11.9422 3.86946 11.9996 3.72828 11.9996Z" fill="#316FEA"/>
<path d="M3.72828 5.45432C3.58703 5.45432 3.45157 5.3969 3.35163 5.29466C3.2517 5.19243 3.19548 5.05375 3.19531 4.90908V3.81797C3.20004 3.67651 3.25823 3.54246 3.35761 3.44411C3.45698 3.34575 3.58977 3.29077 3.72796 3.29077C3.86616 3.29077 3.99895 3.34575 4.09832 3.44411C4.1977 3.54246 4.25589 3.67651 4.26062 3.81797V4.90908C4.26062 5.05369 4.20453 5.19237 4.1047 5.29462C4.00487 5.39687 3.86946 5.45432 3.72828 5.45432Z" fill="#316FEA"/>
<path d="M27.16 8.72702C27.0188 8.72702 26.8834 8.66958 26.7835 8.56733C26.6837 8.46508 26.6276 8.32639 26.6276 8.18179V7.09067C26.6324 6.94922 26.6905 6.81517 26.7899 6.71681C26.8893 6.61845 27.0221 6.56348 27.1603 6.56348C27.2985 6.56348 27.4312 6.61845 27.5306 6.71681C27.63 6.81517 27.6882 6.94922 27.6929 7.09067V8.18179C27.6927 8.32645 27.6365 8.46513 27.5366 8.56737C27.4367 8.6696 27.3012 8.72702 27.16 8.72702Z" fill="#316FEA"/>
<path d="M27.16 11.9996C27.0188 11.9996 26.8834 11.9422 26.7835 11.8399C26.6837 11.7377 26.6276 11.599 26.6276 11.4544V10.3633C26.6324 10.2218 26.6905 10.0878 26.7899 9.98939C26.8893 9.89104 27.0221 9.83606 27.1603 9.83606C27.2985 9.83606 27.4312 9.89104 27.5306 9.98939C27.63 10.0878 27.6882 10.2218 27.6929 10.3633V11.4544C27.6927 11.599 27.6365 11.7377 27.5366 11.84C27.4367 11.9422 27.3012 11.9996 27.16 11.9996Z" fill="#316FEA"/>
<path d="M27.16 15.2724C27.0188 15.2724 26.8834 15.215 26.7835 15.1127C26.6837 15.0105 26.6276 14.8718 26.6276 14.7272V13.6361C26.6324 13.4946 26.6905 13.3606 26.7899 13.2622C26.8893 13.1639 27.0221 13.1089 27.1603 13.1089C27.2985 13.1089 27.4312 13.1639 27.5306 13.2622C27.63 13.3606 27.6882 13.4946 27.6929 13.6361V14.7272C27.6927 14.8719 27.6365 15.0106 27.5366 15.1128C27.4367 15.215 27.3012 15.2724 27.16 15.2724Z" fill="#316FEA"/>
<path d="M27.16 5.45432C27.0188 5.45432 26.8834 5.39687 26.7835 5.29462C26.6837 5.19237 26.6276 5.05369 26.6276 4.90908V3.81797C26.6324 3.67651 26.6905 3.54246 26.7899 3.44411C26.8893 3.34575 27.0221 3.29077 27.1603 3.29077C27.2985 3.29077 27.4312 3.34575 27.5306 3.44411C27.63 3.54246 27.6882 3.67651 27.6929 3.81797V4.90908C27.6927 5.05375 27.6365 5.19243 27.5366 5.29466C27.4367 5.3969 27.3012 5.45432 27.16 5.45432Z" fill="#316FEA"/>
<path d="M27.1599 18.545H26.0953C26.0238 18.5475 25.9525 18.5353 25.8858 18.509C25.819 18.4827 25.7581 18.4429 25.7067 18.392C25.6552 18.3411 25.6143 18.2801 25.5864 18.2127C25.5585 18.1452 25.5441 18.0727 25.5441 17.9995C25.5441 17.9262 25.5585 17.8537 25.5864 17.7863C25.6143 17.7188 25.6552 17.6578 25.7067 17.6069C25.7581 17.556 25.819 17.5162 25.8858 17.4899C25.9525 17.4637 26.0238 17.4514 26.0953 17.4539H26.6276V16.9087C26.6323 16.7672 26.6905 16.6332 26.7899 16.5348C26.8893 16.4364 27.0221 16.3815 27.1602 16.3815C27.2984 16.3815 27.4312 16.4364 27.5306 16.5348C27.63 16.6332 27.6882 16.7672 27.6929 16.9087V17.9998C27.6927 18.1444 27.6365 18.2831 27.5366 18.3854C27.4366 18.4876 27.3012 18.545 27.1599 18.545Z" fill="#316FEA"/>
<path d="M3.72828 2.18159C3.58703 2.18159 3.45157 2.12416 3.35163 2.02193C3.2517 1.9197 3.19548 1.78101 3.19531 1.63635V0.545237C3.19548 0.400573 3.2517 0.261891 3.35163 0.159657C3.45157 0.0574239 3.58703 -9.91782e-08 3.72828 0H4.79296C4.93414 0 5.06955 0.0574446 5.16938 0.159696C5.26921 0.261948 5.3253 0.400631 5.3253 0.545237C5.3253 0.689843 5.26921 0.828526 5.16938 0.930777C5.06955 1.03303 4.93414 1.09047 4.79296 1.09047H4.26062V1.63635C4.26062 1.78096 4.20453 1.91964 4.1047 2.02189C4.00486 2.12414 3.86946 2.18159 3.72828 2.18159Z" fill="#316FEA"/>
<path d="M7.98949 1.09047H6.92419C6.783 1.09047 6.6476 1.03303 6.54776 0.930777C6.44793 0.828526 6.39185 0.689843 6.39185 0.545237C6.39185 0.400631 6.44793 0.261948 6.54776 0.159696C6.6476 0.0574446 6.783 0 6.92419 0H7.98949C8.13068 0 8.26608 0.0574446 8.36591 0.159696C8.46575 0.261948 8.52183 0.400631 8.52183 0.545237C8.52183 0.689843 8.46575 0.828526 8.36591 0.930777C8.26608 1.03303 8.13068 1.09047 7.98949 1.09047Z" fill="#316FEA"/>
<path d="M11.1847 1.09047H10.1194C9.97825 1.09047 9.84285 1.03303 9.74302 0.930777C9.64318 0.828526 9.5871 0.689843 9.5871 0.545237C9.5871 0.400631 9.64318 0.261948 9.74302 0.159696C9.84285 0.0574446 9.97825 0 10.1194 0H11.1847C11.3259 0 11.4613 0.0574446 11.5612 0.159696C11.661 0.261948 11.7171 0.400631 11.7171 0.545237C11.7171 0.689843 11.661 0.828526 11.5612 0.930777C11.4613 1.03303 11.3259 1.09047 11.1847 1.09047Z" fill="#316FEA"/>
<path d="M14.3801 1.09047H13.3147C13.1736 1.09047 13.0382 1.03303 12.9383 0.930777C12.8385 0.828526 12.7824 0.689843 12.7824 0.545237C12.7824 0.400631 12.8385 0.261948 12.9383 0.159696C13.0382 0.0574446 13.1736 0 13.3147 0H14.3801C14.5212 0 14.6566 0.0574446 14.7565 0.159696C14.8563 0.261948 14.9124 0.400631 14.9124 0.545237C14.9124 0.689843 14.8563 0.828526 14.7565 0.930777C14.6566 1.03303 14.5212 1.09047 14.3801 1.09047Z" fill="#316FEA"/>
<path d="M17.5754 1.09047H16.5101C16.3689 1.09047 16.2335 1.03303 16.1336 0.930777C16.0338 0.828526 15.9777 0.689843 15.9777 0.545237C15.9777 0.400631 16.0338 0.261948 16.1336 0.159696C16.2335 0.0574446 16.3689 0 16.5101 0H17.5754C17.7166 0 17.852 0.0574446 17.9518 0.159696C18.0516 0.261948 18.1077 0.400631 18.1077 0.545237C18.1077 0.689843 18.0516 0.828526 17.9518 0.930777C17.852 1.03303 17.7166 1.09047 17.5754 1.09047Z" fill="#316FEA"/>
<path d="M20.7737 1.09047H19.7053C19.5641 1.09047 19.4287 1.03303 19.3289 0.930777C19.2291 0.828526 19.173 0.689843 19.173 0.545237C19.173 0.400631 19.2291 0.261948 19.3289 0.159696C19.4287 0.0574446 19.5641 0 19.7053 0H20.7737C20.9149 0 21.0503 0.0574446 21.1502 0.159696C21.25 0.261948 21.3061 0.400631 21.3061 0.545237C21.3061 0.689843 21.25 0.828526 21.1502 0.930777C21.0503 1.03303 20.9149 1.09047 20.7737 1.09047Z" fill="#316FEA"/>
<path d="M23.9659 1.09047H22.9006C22.7594 1.09047 22.624 1.03303 22.5242 0.930777C22.4244 0.828526 22.3683 0.689843 22.3683 0.545237C22.3683 0.400631 22.4244 0.261948 22.5242 0.159696C22.624 0.0574446 22.7594 0 22.9006 0H23.9659C24.1071 0 24.2425 0.0574446 24.3424 0.159696C24.4422 0.261948 24.4983 0.400631 24.4983 0.545237C24.4983 0.689843 24.4422 0.828526 24.3424 0.930777C24.2425 1.03303 24.1071 1.09047 23.9659 1.09047Z" fill="#316FEA"/>
<path d="M20.7738 18.5451H19.7053C19.5672 18.5403 19.4364 18.4807 19.3403 18.3789C19.2443 18.2771 19.1906 18.1411 19.1906 17.9995C19.1906 17.858 19.2443 17.722 19.3403 17.6202C19.4364 17.5184 19.5672 17.4588 19.7053 17.454H20.7738C20.9119 17.4588 21.0428 17.5184 21.1388 17.6202C21.2348 17.722 21.2885 17.858 21.2885 17.9995C21.2885 18.1411 21.2348 18.2771 21.1388 18.3789C21.0428 18.4807 20.9119 18.5403 20.7738 18.5451Z" fill="#316FEA"/>
<path d="M17.5753 18.5451H16.51C16.3719 18.5403 16.241 18.4807 16.145 18.3789C16.049 18.2771 15.9953 18.1411 15.9953 17.9995C15.9953 17.858 16.049 17.722 16.145 17.6202C16.241 17.5184 16.3719 17.4588 16.51 17.454H17.5753C17.7134 17.4588 17.8443 17.5184 17.9404 17.6202C18.0364 17.722 18.0901 17.858 18.0901 17.9995C18.0901 18.1411 18.0364 18.2771 17.9404 18.3789C17.8443 18.4807 17.7134 18.5403 17.5753 18.5451Z" fill="#316FEA"/>
<path d="M23.9659 18.5451H22.9006C22.7625 18.5403 22.6316 18.4807 22.5356 18.3789C22.4395 18.2771 22.3859 18.1411 22.3859 17.9995C22.3859 17.858 22.4395 17.722 22.5356 17.6202C22.6316 17.5184 22.7625 17.4588 22.9006 17.454H23.9659C24.104 17.4588 24.2349 17.5184 24.3309 17.6202C24.4269 17.722 24.4806 17.858 24.4806 17.9995C24.4806 18.1411 24.4269 18.2771 24.3309 18.3789C24.2349 18.4807 24.104 18.5403 23.9659 18.5451Z" fill="#316FEA"/>
<path d="M27.1599 2.18159C27.0187 2.18159 26.8833 2.12414 26.7835 2.02189C26.6837 1.91964 26.6276 1.78096 26.6276 1.63635V1.09047H26.0953C25.9541 1.09047 25.8187 1.03303 25.7188 0.930777C25.619 0.828526 25.5629 0.689843 25.5629 0.545237C25.5629 0.400631 25.619 0.261948 25.7188 0.159696C25.8187 0.0574446 25.9541 0 26.0953 0H27.1599C27.3012 -9.91782e-08 27.4366 0.0574239 27.5366 0.159657C27.6365 0.261891 27.6927 0.400573 27.6929 0.545237V1.63635C27.6927 1.78101 27.6365 1.9197 27.5366 2.02193C27.4366 2.12416 27.3012 2.18159 27.1599 2.18159Z" fill="#316FEA"/>
<path d="M23.9647 8.72819C23.8234 8.72802 23.688 8.67044 23.5882 8.56808C23.4884 8.46573 23.4323 8.32698 23.4323 8.18232V4.36438H19.7047C19.6332 4.36689 19.562 4.35463 19.4952 4.32834C19.4285 4.30206 19.3675 4.26227 19.3161 4.21137C19.2647 4.16046 19.2238 4.09947 19.1958 4.03203C19.1679 3.96459 19.1535 3.89208 19.1535 3.81882C19.1535 3.74557 19.1679 3.67306 19.1958 3.60562C19.2238 3.53818 19.2647 3.47719 19.3161 3.42628C19.3675 3.37538 19.4285 3.3356 19.4952 3.30931C19.562 3.28302 19.6332 3.27076 19.7047 3.27327H23.9647C24.106 3.27344 24.2414 3.331 24.3414 3.43334C24.4413 3.53567 24.4975 3.67442 24.4976 3.81914V8.18232C24.4975 8.32704 24.4413 8.46579 24.3414 8.56812C24.2414 8.67046 24.106 8.72802 23.9647 8.72819Z" fill="#316FEA"/>
<path d="M18.6394 9.81815C18.5343 9.81773 18.4317 9.78546 18.3445 9.7254C18.2572 9.66534 18.1893 9.58018 18.1493 9.48065C18.1092 9.38113 18.0989 9.27169 18.1194 9.16613C18.14 9.06057 18.1907 8.96361 18.265 8.88748L23.5877 3.43447C23.6355 3.37799 23.6941 3.33218 23.76 3.29988C23.8258 3.26758 23.8973 3.24949 23.9703 3.24671C24.0432 3.24394 24.1159 3.25655 24.1839 3.28377C24.2518 3.31098 24.3136 3.35222 24.3653 3.40491C24.4171 3.45761 24.4577 3.52064 24.4847 3.59009C24.5116 3.65954 24.5244 3.73392 24.5221 3.80863C24.5198 3.88333 24.5026 3.95675 24.4714 4.02434C24.4403 4.09193 24.3959 4.15223 24.341 4.20151L19.0151 9.65579C18.9661 9.70696 18.9076 9.74765 18.8431 9.77552C18.7786 9.80339 18.7094 9.81788 18.6394 9.81815Z" fill="#316FEA"/>
</svg>
