<svg width="24" height="24" viewBox="0 0 24 24" fill="none" xmlns="http://www.w3.org/2000/svg">
<path d="M22.3631 20.6484C23.2655 20.6484 24 19.9144 24 19.0116V2.34375C24 1.05141 22.9486 0 21.6562 0H2.34375C1.05141 0 0 1.05141 0 2.34375V19.0116C0 19.9139 0.734062 20.6484 1.63687 20.6484H2.15625V23.0625H0.46875C0.21 23.0625 0 23.2725 0 23.5312C0 23.79 0.21 24 0.46875 24H23.5312C23.79 24 24 23.79 24 23.5312C24 23.2725 23.79 23.0625 23.5312 23.0625H21.8438V20.6484H22.3631ZM0.9375 2.34375C0.9375 1.56844 1.56844 0.9375 2.34375 0.9375H21.6562C22.4316 0.9375 23.0625 1.56844 23.0625 2.34375V3.375H0.984375C0.968437 3.375 0.952969 3.37594 0.9375 3.37734V2.34375ZM5.15625 23.0625H3.09375V18.8438H5.15625V23.0625ZM10.4062 23.0625H8.34375V13.6608H10.4062V23.0625ZM15.6562 23.0625H13.5938V17.625H15.6562V23.0625ZM21.375 12.0234H18.375C18.1162 12.0234 17.9062 12.2334 17.9062 12.4922V14.8594C17.9062 15.1181 18.1162 15.3281 18.375 15.3281C18.6338 15.3281 18.8438 15.1181 18.8438 14.8594V12.9609H20.9062V23.0625H18.8438V18.0117C18.8438 17.753 18.6338 17.543 18.375 17.543C18.1162 17.543 17.9062 17.753 17.9062 18.0117V23.0625H16.5938V17.1562C16.5938 16.8975 16.3838 16.6875 16.125 16.6875H13.125C12.8663 16.6875 12.6562 16.8975 12.6562 17.1562V23.0625H11.3438V13.192C11.3438 12.9333 11.1337 12.7233 10.875 12.7233H7.875C7.61625 12.7233 7.40625 12.9333 7.40625 13.192V23.0625H6.09375V18.375C6.09375 18.1162 5.88375 17.9062 5.625 17.9062H2.625C2.36625 17.9062 2.15625 18.1162 2.15625 18.375V19.7109H1.63687C1.25109 19.7109 0.9375 19.3973 0.9375 19.0116V4.31016C0.952969 4.31156 0.968906 4.3125 0.984375 4.3125H23.0625V19.0116C23.0625 19.3973 22.7489 19.7109 22.3631 19.7109H21.8438V12.4922C21.8438 12.2334 21.6338 12.0234 21.375 12.0234Z" fill="#316FEA"/>
<path d="M21 1.6875H10.4095C10.1508 1.6875 9.9408 1.8975 9.9408 2.15625C9.9408 2.415 10.1508 2.625 10.4095 2.625H21C21.2588 2.625 21.4688 2.415 21.4688 2.15625C21.4688 1.8975 21.2588 1.6875 21 1.6875Z" fill="#316FEA"/>
<path d="M5.20641 1.82484C5.11922 1.73766 4.99828 1.6875 4.875 1.6875C4.75172 1.6875 4.63078 1.73766 4.54359 1.82484C4.45641 1.91203 4.40625 2.03297 4.40625 2.15625C4.40625 2.27953 4.45641 2.40047 4.54359 2.48766C4.63078 2.57484 4.75172 2.625 4.875 2.625C4.99828 2.625 5.11922 2.57484 5.20641 2.48766C5.29359 2.40047 5.34375 2.27953 5.34375 2.15625C5.34375 2.03297 5.29359 1.91203 5.20641 1.82484Z" fill="#316FEA"/>
<path d="M3.33141 1.82484C3.24422 1.73766 3.12328 1.6875 3 1.6875C2.87672 1.6875 2.75578 1.73766 2.66859 1.82484C2.58141 1.91203 2.53125 2.03297 2.53125 2.15625C2.53125 2.27953 2.58141 2.40047 2.66859 2.48766C2.75578 2.57484 2.87672 2.625 3 2.625C3.12328 2.625 3.24422 2.57484 3.33141 2.48766C3.41859 2.40047 3.46875 2.27953 3.46875 2.15625C3.46875 2.03297 3.41859 1.91203 3.33141 1.82484Z" fill="#316FEA"/>
<path d="M7.08141 1.82484C6.99422 1.73766 6.87375 1.6875 6.75 1.6875C6.62672 1.6875 6.50578 1.73766 6.41859 1.82484C6.33141 1.91203 6.28125 2.03297 6.28125 2.15625C6.28125 2.27953 6.33141 2.40047 6.41859 2.48766C6.50578 2.57484 6.62672 2.625 6.75 2.625C6.87328 2.625 6.99422 2.57484 7.08141 2.48766C7.16859 2.40047 7.21875 2.27953 7.21875 2.15625C7.21875 2.03297 7.16859 1.91203 7.08141 1.82484Z" fill="#316FEA"/>
<path d="M18.7064 16.1986C18.6192 16.111 18.4983 16.0613 18.375 16.0613C18.2517 16.0613 18.1308 16.111 18.0436 16.1986C17.9564 16.2858 17.9062 16.4067 17.9062 16.53C17.9062 16.6533 17.9564 16.7742 18.0436 16.8614C18.1308 16.9486 18.2517 16.9988 18.375 16.9988C18.4983 16.9988 18.6192 16.9486 18.7064 16.8614C18.7936 16.7742 18.8438 16.6533 18.8438 16.53C18.8438 16.4063 18.7936 16.2858 18.7064 16.1986Z" fill="#316FEA"/>
<path d="M19.875 6.37219C18.9446 6.37219 18.1875 7.12922 18.1875 8.05969C18.1875 8.42907 18.3071 8.77125 18.5096 9.04969L15.3957 12.1636C15.1542 12.03 14.8763 11.9536 14.581 11.9536C14.3152 11.9536 14.063 12.0159 13.8394 12.1256L10.5882 8.87438C10.7218 8.63297 10.7982 8.35501 10.7982 8.05969C10.7982 7.12922 10.0411 6.37219 9.11066 6.37219C8.18019 6.37219 7.42316 7.12922 7.42316 8.05969C7.42316 8.385 7.51597 8.68876 7.67581 8.94657L4.90785 11.7145C4.66644 11.5809 4.38847 11.5045 4.09363 11.5045C3.16316 11.5045 2.40613 12.2616 2.40613 13.192C2.40613 14.1225 3.16316 14.8795 4.09363 14.8795C5.0241 14.8795 5.78113 14.1225 5.78113 13.192C5.78113 12.8967 5.70472 12.6192 5.57113 12.3773L8.37238 9.5761C8.5955 9.68532 8.84628 9.74672 9.11113 9.74672C9.40644 9.74672 9.68394 9.67032 9.92534 9.53672L13.1447 12.7561C12.9858 13.0134 12.8939 13.3163 12.8939 13.6402C12.8939 14.5706 13.651 15.3277 14.5814 15.3277C15.5119 15.3277 16.2689 14.5706 16.2689 13.6402C16.2689 13.3448 16.1925 13.0673 16.0589 12.8255L19.2563 9.62813C19.448 9.70407 19.6571 9.74625 19.8755 9.74625C20.806 9.74625 21.563 8.98922 21.563 8.05875C21.5625 7.12922 20.8055 6.37219 19.875 6.37219ZM4.0941 13.942C3.68066 13.942 3.3441 13.6055 3.3441 13.192C3.3441 12.7786 3.68066 12.442 4.0941 12.442C4.50753 12.442 4.8441 12.7786 4.8441 13.192C4.8441 13.6055 4.50753 13.942 4.0941 13.942ZM9.11113 8.80969C8.69769 8.80969 8.36113 8.47313 8.36113 8.05969C8.36113 7.64626 8.69769 7.30969 9.11113 7.30969C9.52456 7.30969 9.86113 7.64626 9.86113 8.05969C9.86113 8.47313 9.52456 8.80969 9.11113 8.80969ZM14.5814 14.3906C14.168 14.3906 13.8314 14.0541 13.8314 13.6406C13.8314 13.2272 14.168 12.8906 14.5814 12.8906C14.9949 12.8906 15.3314 13.2272 15.3314 13.6406C15.3314 14.0541 14.9949 14.3906 14.5814 14.3906ZM19.875 8.80969C19.4616 8.80969 19.125 8.47313 19.125 8.05969C19.125 7.64626 19.4616 7.30969 19.875 7.30969C20.2885 7.30969 20.625 7.64626 20.625 8.05969C20.625 8.47313 20.2885 8.80969 19.875 8.80969Z" fill="#316FEA"/>
<path d="M6.95299 6.04457C6.86533 5.95738 6.74486 5.90723 6.62158 5.90723C6.49783 5.90723 6.37689 5.95738 6.28971 6.04457C6.20252 6.13176 6.15283 6.2527 6.15283 6.37598C6.15283 6.49926 6.20252 6.6202 6.28971 6.70738C6.37736 6.79457 6.49783 6.84473 6.62158 6.84473C6.74486 6.84473 6.86533 6.79457 6.95299 6.70738C7.04018 6.6202 7.09033 6.49926 7.09033 6.37598C7.09033 6.2527 7.04018 6.13176 6.95299 6.04457Z" fill="#316FEA"/>
<path d="M4.875 5.90723H2.625C2.36625 5.90723 2.15625 6.11723 2.15625 6.37598C2.15625 6.63473 2.36625 6.84473 2.625 6.84473H4.875C5.13375 6.84473 5.34375 6.63473 5.34375 6.37598C5.34375 6.11723 5.13375 5.90723 4.875 5.90723Z" fill="#316FEA"/>
<path d="M4.875 8.15723H2.625C2.36625 8.15723 2.15625 8.36723 2.15625 8.62598C2.15625 8.88473 2.36625 9.09473 2.625 9.09473H4.875C5.13375 9.09473 5.34375 8.88473 5.34375 8.62598C5.34375 8.36723 5.13375 8.15723 4.875 8.15723Z" fill="#316FEA"/>
</svg>
