<svg width="26" height="20" viewBox="0 0 26 20" fill="none" xmlns="http://www.w3.org/2000/svg">
<path d="M23.9891 15.8384C23.7789 15.8384 23.6083 16.0085 23.6083 16.2182V18.6546C23.6083 18.8643 23.7789 19.0344 23.9891 19.0344C24.1993 19.0344 24.37 18.8643 24.37 18.6546V16.2182C24.37 16.0085 24.1999 15.8384 23.9891 15.8384Z" fill="#316FEA"/>
<path d="M2.00975 16.3403C1.79952 16.3403 1.62891 16.5105 1.62891 16.7202V18.6547C1.62891 18.8643 1.79952 19.0345 2.00975 19.0345C2.21998 19.0345 2.3906 18.8643 2.3906 18.6547V16.7202C2.3906 16.5105 2.21998 16.3403 2.00975 16.3403Z" fill="#316FEA"/>
<path d="M22.9381 8.56823C22.0535 8.12713 20.3945 8.12207 20.3244 8.12207C20.1142 8.12207 19.9436 8.29223 19.9436 8.50189C19.9436 8.71155 20.1142 8.88171 20.3244 8.88171C20.7525 8.88171 21.9951 8.94754 22.5973 9.24785C22.6522 9.2752 22.7101 9.28786 22.7674 9.28786C22.9071 9.28786 23.0417 9.21088 23.1082 9.07769C23.2026 8.89031 23.1259 8.66242 22.9381 8.56823Z" fill="#316FEA"/>
<path d="M24.8366 13.9763L23.2635 13.5281C23.1955 13.5089 23.1482 13.4461 23.1482 13.3757V12.852C23.2762 12.7634 23.3981 12.6647 23.5123 12.5543C24.0653 12.019 24.37 11.3014 24.37 10.5326V9.80995L24.5218 9.5066C24.6889 9.17388 24.7767 8.80065 24.7767 8.42842V6.47109C24.7767 6.26143 24.6061 6.09128 24.3959 6.09128H20.7311C19.3987 6.09128 18.314 7.17249 18.314 8.50186V8.52465C18.314 8.83407 18.3877 9.144 18.5263 9.42102L18.7213 9.80995V10.4303C18.7213 11.4133 19.2073 12.2955 19.943 12.8267V13.3757C19.943 13.4603 19.943 13.4952 19.6287 13.5848L18.8615 13.8036L16.6414 12.9984C16.6495 12.8941 16.614 12.7877 16.5378 12.7077L15.8284 11.9643V10.7159C15.9036 10.6542 15.9772 10.5909 16.0488 10.524C16.9435 9.6874 17.4569 8.50642 17.4569 7.2834V6.28676C17.727 5.70032 17.8641 5.07944 17.8641 4.44033V0.379818C17.8641 0.170159 17.6935 0 17.4833 0H11.7828C9.77653 0 8.14449 1.62765 8.14449 3.62853V4.44084C8.14449 5.07995 8.28159 5.70082 8.55174 6.28726V7.14464C8.55174 8.56465 9.18495 9.84338 10.1807 10.6871V11.9643L9.47135 12.7077C9.39467 12.7877 9.35963 12.8941 9.36776 12.9984L7.0243 13.8482C6.85469 13.91 6.69677 13.993 6.55357 14.0943L6.18542 13.911C7.28073 13.4354 7.62755 12.767 7.64431 12.7335C7.69814 12.6267 7.69814 12.5006 7.64431 12.3937C7.36959 11.8463 7.33659 10.842 7.30967 10.0358C7.30053 9.76741 7.29241 9.51369 7.27616 9.28783C7.14617 7.46622 5.75786 6.09229 4.04558 6.09229C2.33331 6.09229 0.945002 7.46622 0.815007 9.28783C0.798758 9.51369 0.790633 9.76741 0.781493 10.0358C0.75458 10.842 0.721573 11.8458 0.446858 12.3937C0.393032 12.5006 0.393032 12.6267 0.446858 12.7335C0.463615 12.767 0.809929 13.4339 1.90727 13.91L0.885083 14.4194C0.339206 14.6919 0 15.2398 0 15.8486V18.6547C0 18.8643 0.170618 19.0345 0.380844 19.0345C0.591071 19.0345 0.761689 18.8643 0.761689 18.6547V15.8486C0.761689 15.529 0.939924 15.2414 1.22632 15.0985L2.49885 14.464L2.94164 14.8833C3.2514 15.1765 3.64849 15.3234 4.04558 15.3234C4.44268 15.3234 4.84028 15.1765 5.14953 14.8833L5.59232 14.464L6.00719 14.6711C5.81169 14.9831 5.70099 15.3487 5.70099 15.7316V18.6552C5.70099 18.8648 5.87161 19.035 6.08183 19.035C6.29206 19.035 6.46268 18.8648 6.46268 18.6552V15.7316C6.46268 15.21 6.79274 14.74 7.28429 14.5617L9.7547 13.6659L10.783 15.2044C10.9145 15.4009 11.1252 15.5275 11.3608 15.5508C11.3872 15.5533 11.4131 15.5548 11.4396 15.5548C11.6477 15.5548 11.8468 15.4733 11.9961 15.3244L12.6237 14.6985V18.6547C12.6237 18.8643 12.7943 19.0345 13.0046 19.0345C13.2148 19.0345 13.3854 18.8643 13.3854 18.6547V14.6985L14.013 15.3244C14.1618 15.4728 14.3614 15.5548 14.5696 15.5548C14.5955 15.5548 14.6219 15.5538 14.6483 15.5508C14.8844 15.5275 15.0952 15.4014 15.2262 15.2049L16.2544 13.6664L18.7249 14.5622C19.2164 14.7405 19.5465 15.2105 19.5465 15.7321V18.6557C19.5465 18.8653 19.7171 19.0355 19.9273 19.0355C20.1375 19.0355 20.3082 18.8653 20.3082 18.6557V15.7321C20.3082 15.2039 20.0979 14.7086 19.745 14.3425L19.839 14.3156C19.9339 14.2888 20.0634 14.2513 20.1934 14.188L21.1658 15.1578V18.6557C21.1658 18.8653 21.3364 19.0355 21.5467 19.0355C21.7569 19.0355 21.9275 18.8653 21.9275 18.6557V15.1573L22.8933 14.1941C22.9446 14.2199 22.9984 14.2422 23.0553 14.2584L24.6285 14.7066C24.9875 14.8089 25.2383 15.1406 25.2383 15.5128V18.6547C25.2383 18.8643 25.4089 19.0345 25.6192 19.0345C25.8294 19.0345 26 18.8643 26 18.6547V15.5128C25.999 14.8033 25.5212 14.1713 24.8366 13.9763ZM2.4435 13.3053C1.73107 13.0496 1.37358 12.7087 1.22124 12.5229C1.32534 12.2519 1.39288 11.941 1.43807 11.6133C1.64829 12.1157 1.99969 12.5441 2.4435 12.85V13.3053ZM4.62498 14.3333C4.29999 14.6412 3.79118 14.6412 3.4667 14.3333L3.11277 13.9976C3.17269 13.8862 3.20519 13.7596 3.20519 13.6269V13.2222C3.47076 13.3053 3.7531 13.3499 4.04609 13.3499C4.33858 13.3499 4.62091 13.3048 4.887 13.2227V13.6274C4.887 13.7601 4.92 13.8867 4.97941 13.9986L4.62498 14.3333ZM4.04609 12.5897C2.90864 12.5897 1.98344 11.667 1.98344 10.5331C1.98344 10.3235 1.81282 10.1533 1.60259 10.1533C1.58127 10.1533 1.56045 10.1553 1.54014 10.1589C1.54115 10.1265 1.54217 10.0935 1.54369 10.0611C1.55232 9.79982 1.56045 9.55319 1.57517 9.34151C1.62392 8.65885 1.89711 8.03038 2.34499 7.57054C2.79692 7.10666 3.40069 6.85142 4.04558 6.85142C4.69048 6.85142 5.29425 7.10666 5.74618 7.57054C6.19406 8.02987 6.46776 8.65885 6.516 9.34151C6.53123 9.55319 6.53935 9.79982 6.54799 10.0606C6.54849 10.0829 6.54951 10.1057 6.55002 10.1285C6.13566 9.49192 5.49584 9.02246 4.66915 8.7576C3.90543 8.513 3.24835 8.52819 3.22042 8.5287C3.12089 8.53123 3.02594 8.57326 2.95688 8.64467L2.26983 9.35518C2.12359 9.5061 2.12816 9.74665 2.27948 9.8925C2.4308 10.0383 2.672 10.0338 2.81774 9.88288L3.38952 9.29137C3.88207 9.31518 5.46588 9.49901 6.08234 10.8522C5.92797 11.8488 5.06879 12.5897 4.04609 12.5897ZM5.64818 13.3063V12.8531C6.09097 12.5487 6.44338 12.1208 6.65361 11.6148C6.69931 11.942 6.76684 12.2519 6.87043 12.5224C6.7186 12.7072 6.3596 13.0511 5.64818 13.3063ZM9.31292 7.14464V6.20218C9.31292 6.14496 9.29971 6.08874 9.27483 6.03709C9.02957 5.53117 8.90567 4.99385 8.90567 4.44084V3.62853C8.90567 2.04646 10.1965 0.759637 11.7823 0.759637H17.1025V4.44084C17.1025 4.99385 16.978 5.53066 16.7333 6.03709C16.7084 6.08874 16.6952 6.14496 16.6952 6.20218V7.2834C16.6952 8.31195 16.2803 9.26605 15.5278 9.96998C15.4339 10.0576 15.3364 10.1401 15.2353 10.2171C15.2333 10.2186 15.2307 10.2202 15.2287 10.2217C14.5234 10.756 13.6596 11.0152 12.7573 10.957C10.8261 10.8324 9.31292 9.15768 9.31292 7.14464ZM11.4573 14.7871C11.4548 14.7896 11.4487 14.7957 11.436 14.7947C11.4238 14.7937 11.4187 14.7861 11.4167 14.783L10.2325 13.0111L10.6139 12.6115L12.4105 13.8365L11.4573 14.7871ZM13.0046 13.3215L10.9419 11.9157V11.2067C11.4756 11.4943 12.0733 11.6741 12.7085 11.7151C12.8091 11.7217 12.9086 11.7247 13.0081 11.7247C13.7363 11.7247 14.4371 11.551 15.0667 11.2219V11.9157L13.0046 13.3215ZM14.5919 14.783C14.5899 14.7861 14.5848 14.7932 14.5726 14.7947C14.5604 14.7962 14.5544 14.7896 14.5513 14.7871L13.5982 13.8365L15.3953 12.6115L15.7766 13.0111L14.5919 14.783ZM21.5462 14.4625L20.6819 13.6005C20.6971 13.5322 20.7052 13.4572 20.7052 13.3752V13.2146C20.9449 13.2931 21.1978 13.3397 21.4593 13.3473C21.4888 13.3483 21.5177 13.3488 21.5472 13.3488C21.8361 13.3488 22.1184 13.3053 22.3871 13.2222V13.3752C22.3871 13.4511 22.3967 13.5251 22.4145 13.5965L21.5462 14.4625ZM22.9822 12.0088C22.5785 12.3993 22.0453 12.6059 21.4822 12.5887C20.3803 12.5558 19.4835 11.5875 19.4835 10.4308V9.72082C19.4835 9.66157 19.4698 9.60384 19.4434 9.55117L19.2083 9.08171C19.1219 8.90953 19.0768 8.71709 19.0768 8.52515V8.50236C19.0768 7.59232 19.8191 6.85142 20.7322 6.85142H24.0161V8.42893C24.0161 8.68366 23.9556 8.9389 23.8414 9.1673L23.6489 9.55066C23.6225 9.60333 23.6088 9.66157 23.6088 9.72031V10.5326C23.6083 11.0937 23.3859 11.6179 22.9822 12.0088Z" fill="#316FEA"/>
<path d="M16.1239 4.57854C14.6833 3.14181 11.6701 3.4168 10.4407 3.60164C10.0538 3.65988 9.77295 3.98653 9.77295 4.3785V5.2536C9.77295 5.46326 9.94357 5.63342 10.1538 5.63342C10.364 5.63342 10.5346 5.46326 10.5346 5.2536V4.37799C10.5346 4.36483 10.5433 4.35419 10.5544 4.35217C11.0455 4.27823 12.0194 4.16428 13.0289 4.23164C14.2166 4.31064 15.0768 4.60791 15.5857 5.11535C15.7344 5.26373 15.9756 5.26373 16.1244 5.11535C16.2727 4.96747 16.2727 4.72692 16.1239 4.57854Z" fill="#316FEA"/>
<path d="M8.52489 16.6506C8.31466 16.6506 8.14404 16.8208 8.14404 17.0305V18.6551C8.14404 18.8647 8.31466 19.0349 8.52489 19.0349C8.73511 19.0349 8.90573 18.8647 8.90573 18.6551V17.0305C8.90573 16.8208 8.73562 16.6506 8.52489 16.6506Z" fill="#316FEA"/>
<path d="M17.4839 16.6506C17.2736 16.6506 17.103 16.8208 17.103 17.0305V18.6551C17.103 18.8647 17.2736 19.0349 17.4839 19.0349C17.6941 19.0349 17.8647 18.8647 17.8647 18.6551V17.0305C17.8647 16.8208 17.6941 16.6506 17.4839 16.6506Z" fill="#316FEA"/>
</svg>
