<svg width="28" height="24" viewBox="0 0 28 24" fill="none" xmlns="http://www.w3.org/2000/svg">
<path d="M17.0828 6.08769C17.34 6.30236 17.584 6.532 17.8136 6.77538L18.0697 7.06384L18.7865 6.46154C18.6887 6.35077 18.5956 6.24 18.4956 6.13384C18.2431 5.86454 17.9733 5.61171 17.688 5.37692C17.6176 5.31797 17.5682 5.23808 17.5473 5.14912C17.5263 5.06015 17.5348 4.96685 17.5716 4.88308C17.6458 4.7197 17.6854 4.54299 17.688 4.36384C17.6892 4.0982 17.61 3.83829 17.4607 3.61777C17.3113 3.39724 17.0986 3.22625 16.8501 3.12692L15.1139 2.41154C14.7854 2.27346 14.4151 2.2704 14.0844 2.40305C13.7536 2.53569 13.4896 2.79317 13.3503 3.11884L13.3451 3.13154C13.3132 3.21973 13.2521 3.29462 13.1718 3.34406C13.0915 3.39349 12.9968 3.41456 12.9029 3.40384C12.384 3.36231 11.8625 3.36231 11.3436 3.40384C11.2519 3.41193 11.16 3.39017 11.0819 3.34187C11.0038 3.29357 10.9437 3.22135 10.9107 3.13615C10.8079 2.88702 10.6316 2.67455 10.4048 2.52668C10.1779 2.37881 9.91131 2.30246 9.63992 2.30769C9.45991 2.30748 9.28174 2.3436 9.11626 2.41384L7.37771 3.12461C7.2123 3.19203 7.06197 3.29122 6.93538 3.41648C6.80878 3.54173 6.70841 3.69057 6.64006 3.85444C6.5717 4.0183 6.53671 4.19395 6.53709 4.37128C6.53747 4.54861 6.57321 4.72411 6.64227 4.88769C6.6688 4.94148 6.68159 5.00092 6.6795 5.06077C6.67897 5.1213 6.66541 5.18103 6.63972 5.23595C6.61403 5.29087 6.57681 5.33972 6.53055 5.37923C6.12317 5.71365 5.74836 6.08529 5.41109 6.48923C5.35581 6.55484 5.28095 6.60136 5.1973 6.6221C5.11366 6.64283 5.02553 6.63671 4.94561 6.60461H4.89907C4.57003 6.46913 4.20023 6.46861 3.8708 6.60316C3.54138 6.73771 3.27924 6.99634 3.1419 7.32231L3.13725 7.33384L2.43438 9.03692C2.36498 9.19834 2.32838 9.37175 2.32668 9.54721C2.32498 9.72268 2.35822 9.89676 2.42448 10.0595C2.49075 10.2222 2.58874 10.3703 2.71285 10.4954C2.83695 10.6205 2.98473 10.7201 3.14772 10.7885L3.16052 10.7937C3.24771 10.8327 3.32063 10.8975 3.36936 10.9792C3.41808 11.0608 3.44024 11.1554 3.43282 11.25C3.38847 11.7683 3.38847 12.2894 3.43282 12.8077C3.43906 12.8972 3.41559 12.9862 3.366 13.0612C3.31641 13.1362 3.24343 13.1931 3.15819 13.2231C2.99313 13.2905 2.84316 13.3896 2.71693 13.5148C2.5907 13.6399 2.49072 13.7886 2.42274 13.9523C2.35361 14.1144 2.31799 14.2886 2.31799 14.4646C2.31799 14.6406 2.35361 14.8148 2.42274 14.9769L3.1419 16.7031C3.2099 16.8671 3.30993 17.0161 3.43625 17.1417C3.56258 17.2672 3.71269 17.3667 3.87795 17.4345C4.04321 17.5023 4.22036 17.537 4.3992 17.5366C4.57804 17.5362 4.75504 17.5008 4.92001 17.4323C5.00427 17.4016 5.09567 17.3958 5.18321 17.4154C5.27076 17.4351 5.3507 17.4794 5.41341 17.5431C5.75039 17.946 6.12609 18.3154 6.53521 18.6462C6.60081 18.7014 6.64764 18.7754 6.66929 18.858C6.69095 18.9405 6.68639 19.0278 6.65623 19.1077C6.64477 19.1227 6.63682 19.14 6.63296 19.1585C6.56494 19.3201 6.52971 19.4935 6.52928 19.6687C6.52884 19.8439 6.56321 20.0174 6.63042 20.1794C6.69764 20.3414 6.79638 20.4887 6.921 20.6129C7.04563 20.737 7.1937 20.8357 7.35677 20.9031L7.3684 20.9077L9.10462 21.6231C9.43308 21.7612 9.80341 21.7642 10.1341 21.6316C10.4649 21.4989 10.7289 21.2414 10.8682 20.9158L10.8734 20.9031C10.9128 20.8153 10.9788 20.7419 11.0622 20.6931C11.1457 20.6443 11.2424 20.6225 11.3389 20.6308C11.8616 20.6745 12.3871 20.6745 12.9099 20.6308C12.9992 20.6264 13.0876 20.6504 13.1621 20.6994C13.2367 20.7484 13.2934 20.8198 13.3241 20.9031C13.3921 21.0674 13.4924 21.2167 13.619 21.3422C13.7457 21.4678 13.8962 21.5672 14.0619 21.6346C14.2241 21.7018 14.3982 21.7364 14.5739 21.7362C14.7539 21.7357 14.9319 21.6996 15.0976 21.63L16.8385 20.9192C17.004 20.8516 17.1543 20.7522 17.2809 20.6266C17.4074 20.5011 17.5076 20.352 17.5758 20.1879C17.6439 20.0238 17.6787 19.8479 17.6779 19.6705C17.6772 19.493 17.6411 19.3174 17.5716 19.1538C17.5451 19.1 17.5323 19.0406 17.5344 18.9808C17.5344 18.9208 17.5478 18.8616 17.5735 18.8074C17.5993 18.7531 17.6367 18.7052 17.6833 18.6669C17.9718 18.4258 18.2454 18.1677 18.5025 17.8938C18.6003 17.7877 18.698 17.6815 18.7935 17.5708L18.0673 16.9361C17.9882 17.0331 17.8998 17.13 17.8113 17.2246C17.5832 17.4693 17.3407 17.7005 17.0852 17.9169C16.9333 18.0381 16.8105 18.1913 16.7256 18.3653C16.6407 18.5393 16.5958 18.7298 16.5941 18.9231C16.5922 19.1059 16.6303 19.287 16.7058 19.4538C16.7272 19.5048 16.7383 19.5593 16.7384 19.6145C16.7385 19.6697 16.7277 19.7243 16.7065 19.7753C16.6853 19.8263 16.6542 19.8727 16.615 19.9117C16.5757 19.9508 16.5291 19.9819 16.4777 20.0031L14.7322 20.7185C14.6292 20.76 14.514 20.76 14.411 20.7185C14.3034 20.6698 14.2186 20.5823 14.1736 20.4738C14.0678 20.2108 13.8794 19.9884 13.6363 19.8396C13.3933 19.6909 13.1084 19.6236 12.8238 19.6477C12.3593 19.6904 11.8918 19.6904 11.4273 19.6477C11.1344 19.616 10.8391 19.6806 10.5868 19.8315C10.3345 19.9824 10.1392 20.2114 10.0309 20.4831C10.0113 20.5339 9.98132 20.5803 9.94289 20.6192C9.90445 20.6581 9.85837 20.6887 9.80749 20.7092C9.70292 20.7508 9.58623 20.7508 9.48166 20.7092L7.73846 19.9892C7.68716 19.9698 7.64045 19.9401 7.60121 19.9019C7.56198 19.8638 7.53106 19.8181 7.51037 19.7677C7.47489 19.6748 7.47489 19.5722 7.51037 19.4792L7.5383 19.4285C7.64904 19.1667 7.67218 18.8765 7.60432 18.6007C7.53645 18.3249 7.38116 18.078 7.16127 17.8962C6.80057 17.5976 6.4658 17.2695 6.1605 16.9154C6.03307 16.7661 5.87341 16.6471 5.69333 16.5672C5.51326 16.4873 5.31737 16.4485 5.12017 16.4538C4.93576 16.452 4.75313 16.4897 4.58487 16.5646C4.53352 16.5858 4.47847 16.5968 4.42284 16.5969C4.36722 16.597 4.31211 16.5863 4.26068 16.5653C4.20924 16.5443 4.16248 16.5134 4.12307 16.4745C4.08365 16.4356 4.05235 16.3894 4.03096 16.3385L3.29085 14.6031C3.24894 14.501 3.24894 14.3867 3.29085 14.2846C3.33994 14.1779 3.42815 14.0938 3.53755 14.0492C3.80222 13.9434 4.02583 13.7564 4.17572 13.5156C4.32562 13.2748 4.39395 12.9928 4.37075 12.7108C4.32886 12.2579 4.32886 11.8021 4.37075 11.3492C4.37541 11.2955 4.37541 11.2414 4.37075 11.1877C4.36601 10.9198 4.28301 10.6591 4.13182 10.4371C3.98063 10.2151 3.76773 10.0414 3.51894 9.93692C3.46764 9.91746 3.42093 9.88775 3.38169 9.84964C3.34246 9.81153 3.31154 9.76583 3.29085 9.71538C3.24897 9.61169 3.24897 9.49599 3.29085 9.3923L4.01467 7.66615C4.03482 7.6155 4.06527 7.56949 4.1041 7.53098C4.14293 7.49248 4.18933 7.46229 4.24042 7.44231C4.33589 7.40364 4.44285 7.40364 4.53832 7.44231L4.58487 7.46538C4.84891 7.57519 5.1415 7.59813 5.41966 7.53084C5.69782 7.46355 5.94688 7.30957 6.13024 7.09154C6.43271 6.73512 6.76348 6.40329 7.11938 6.09923C7.27322 5.97617 7.39722 5.82042 7.48222 5.64348C7.56722 5.46653 7.61104 5.27291 7.61045 5.07692C7.61235 4.89407 7.57424 4.71299 7.49874 4.54615C7.45553 4.44333 7.45529 4.3277 7.49806 4.2247C7.54083 4.1217 7.62312 4.03976 7.72682 3.99692L9.47235 3.28154C9.57483 3.24015 9.68968 3.24071 9.79175 3.28309C9.89382 3.32548 9.9748 3.40624 10.017 3.50769C10.1276 3.77799 10.3233 4.0057 10.5748 4.15702C10.8264 4.30834 11.1205 4.37521 11.4134 4.34769C11.8671 4.30846 12.3235 4.30846 12.7772 4.34769C13.0701 4.37939 13.3654 4.31481 13.6177 4.16388C13.87 4.01295 14.0653 3.78402 14.1736 3.51231C14.1933 3.46144 14.2232 3.41513 14.2617 3.37622C14.3001 3.33732 14.3462 3.30666 14.3971 3.28615C14.5016 3.24462 14.6183 3.24462 14.7229 3.28615L16.4661 4.00615C16.5676 4.0491 16.6484 4.12922 16.6918 4.22983C16.7351 4.33043 16.7377 4.44375 16.6988 4.54615C16.5916 4.81075 16.5713 5.10213 16.6406 5.37886C16.71 5.6556 16.8655 5.90363 17.0852 6.08769H17.0828Z" fill="#316FEA"/>
<path d="M12.1023 6.46153C12.866 6.45694 13.6227 6.6059 14.3267 6.89941C15.0308 7.19292 15.6675 7.62489 16.1984 8.16922L16.8641 7.52307C15.9711 6.60156 14.8225 5.9633 13.5637 5.68902C12.3048 5.41475 10.9923 5.51676 9.79189 5.98216C8.59152 6.44757 7.5573 7.25546 6.82 8.30368C6.0827 9.3519 5.67545 10.5934 5.64974 11.8711C5.62402 13.1488 5.981 14.4054 6.67554 15.4819C7.37008 16.5585 8.37097 17.4066 9.55166 17.9192C10.7323 18.4317 12.0398 18.5855 13.3087 18.3613C14.5775 18.137 15.7508 17.5447 16.6802 16.6592C16.7425 16.6015 16.8041 16.5386 16.8641 16.4769L16.1984 15.8308C15.5627 16.5122 14.7655 17.0255 13.8792 17.3244C12.9928 17.6232 12.0453 17.6981 11.1224 17.5422C10.1995 17.3863 9.33042 17.0046 8.59386 16.4316C7.8573 15.8586 7.27653 15.1125 6.90418 14.2608C6.53183 13.4091 6.37964 12.4787 6.46142 11.554C6.54319 10.6293 6.85634 9.73941 7.37249 8.96497C7.88865 8.19053 8.5915 7.556 9.41738 7.11887C10.2433 6.68173 11.1661 6.4558 12.1023 6.46153Z" fill="#316FEA"/>
<path d="M20.681 4.91078L21.4118 4.32001C19.5433 2.10187 16.9301 0.626899 14.0526 0.166168L13.9037 1.08924C16.5541 1.50976 18.9615 2.86721 20.681 4.91078Z" fill="#316FEA"/>
<path d="M10.3149 1.06617L10.1659 0.143097C7.65346 0.541009 5.33221 1.71632 3.53396 3.50102C1.73571 5.28573 0.552534 7.58845 0.153564 10.08L1.08451 10.2277C1.45256 7.93077 2.54339 5.80794 4.20113 4.16255C5.85887 2.51717 7.9987 1.43342 10.3149 1.06617Z" fill="#316FEA"/>
<path d="M10.1659 23.8477L10.3149 22.9246C8.07808 22.5627 6.00476 21.5361 4.36909 19.9806C2.73341 18.4251 1.61242 16.4139 1.15434 14.2131L0.223389 14.3977C0.720582 16.7859 1.93739 18.9681 3.71279 20.6555C5.48819 22.343 7.73849 23.4561 10.1659 23.8477Z" fill="#316FEA"/>
<path d="M13.8898 22.9338L14.0387 23.8569C17.1348 23.364 19.9142 21.6913 21.7842 19.1954L21.0395 18.6415C19.3109 20.9409 16.7458 22.4808 13.8898 22.9338Z" fill="#316FEA"/>
<path d="M27.7283 11.6215L20.2807 6.5446C20.2109 6.49661 20.1292 6.46845 20.0445 6.46318C19.9597 6.45792 19.8751 6.47574 19.7999 6.51472C19.7246 6.5537 19.6615 6.61235 19.6175 6.68433C19.5734 6.75631 19.55 6.83886 19.5499 6.92306V9.23075H13.0333C12.6629 9.23075 12.3077 9.37663 12.0458 9.6363C11.784 9.89596 11.6368 10.2481 11.6368 10.6154V13.3846C11.6368 13.7518 11.784 14.104 12.0458 14.3637C12.3077 14.6233 12.6629 14.7692 13.0333 14.7692H19.5499V17.0769C19.55 17.1611 19.5734 17.2437 19.6175 17.3156C19.6615 17.3876 19.7246 17.4463 19.7999 17.4852C19.8751 17.5242 19.9597 17.5421 20.0445 17.5368C20.1292 17.5315 20.2109 17.5034 20.2807 17.4554L27.7283 12.3784C27.7785 12.3438 27.8213 12.2998 27.8544 12.2487C27.8874 12.1977 27.91 12.1407 27.9208 12.081C27.9316 12.0213 27.9304 11.9601 27.9174 11.9009C27.9043 11.8416 27.8796 11.7855 27.8446 11.7358C27.8129 11.6912 27.7735 11.6526 27.7283 11.6215ZM20.4808 16.2V14.3077C20.4808 14.1853 20.4318 14.0679 20.3445 13.9813C20.2572 13.8948 20.1388 13.8461 20.0154 13.8461H13.0333C12.9098 13.8461 12.7914 13.7975 12.7041 13.711C12.6168 13.6244 12.5678 13.507 12.5678 13.3846V10.6154C12.5678 10.493 12.6168 10.3756 12.7041 10.289C12.7914 10.2025 12.9098 10.1538 13.0333 10.1538H20.0154C20.1388 10.1538 20.2572 10.1052 20.3445 10.0186C20.4318 9.93209 20.4808 9.8147 20.4808 9.69229V7.79998L26.6391 12L20.4808 16.2Z" fill="#316FEA"/>
<path d="M0 11.5385H0.930948V12.4615H0V11.5385Z" fill="#316FEA"/>
<path d="M11.6368 0H12.5678V0.923077H11.6368V0Z" fill="#316FEA"/>
<path d="M11.6368 23.0769H12.5678V24H11.6368V23.0769Z" fill="#316FEA"/>
</svg>
