<svg width="28" height="24" viewBox="0 0 28 24" fill="none" xmlns="http://www.w3.org/2000/svg">
<path d="M25.6 16.5633V16.5556C25.5994 15.9728 25.2389 15.4472 24.6857 15.2222V13.3333C24.9383 13.3333 25.1429 13.1344 25.1429 12.8889V11.1111C25.1429 4.98444 20.016 0 13.7143 0C7.41257 0 2.28572 4.98444 2.28572 11.1111V12.8889C2.28572 13.1344 2.49029 13.3333 2.74286 13.3333V15.2222C2.18972 15.4472 1.82914 15.9728 1.82857 16.5556V16.5633C0.725716 16.9756 -0.00114151 18.0061 1.34576e-06 19.155V19.9561C-0.00114151 21.105 0.725716 22.1356 1.82857 22.5478V22.5556C1.82972 23.3528 2.49429 23.9989 3.31429 24H5.94286C6.19543 24 6.4 23.8011 6.4 23.5556V23.3856L7.21771 22.9883C7.83886 22.6889 8.23086 22.0722 8.22857 21.3983V17.7133C8.23086 17.0394 7.83886 16.4228 7.21771 16.1233L6.4 15.7256V15.5556C6.4 15.31 6.19543 15.1111 5.94286 15.1111H5.48571V13.3333C5.73829 13.3333 5.94286 13.1344 5.94286 12.8889V11.1111C5.94286 6.945 9.42914 3.55556 13.7143 3.55556C17.9994 3.55556 21.4857 6.945 21.4857 11.1111V12.8889C21.4857 13.1344 21.6903 13.3333 21.9429 13.3333V15.1111H21.4857C21.2331 15.1111 21.0286 15.31 21.0286 15.5556V15.7256L20.2109 16.1228C19.5897 16.4222 19.1977 17.0389 19.2 17.7128V21.3978C19.1977 22.0717 19.5897 22.6883 20.2109 22.9878L21.0286 23.385V23.5556C21.0286 23.8011 21.2331 24 21.4857 24H24.1143C24.9343 23.9989 25.5989 23.3528 25.6 22.5556V22.5478C26.7029 22.1356 27.4297 21.105 27.4286 19.9561V19.155C27.4297 18.0067 26.7029 16.9761 25.6 16.5633ZM1.82857 21.5589C1.25943 21.2139 0.913715 20.6078 0.914287 19.9556V19.1544C0.913715 18.5022 1.25943 17.8961 1.82857 17.5517V21.5589ZM6.4 16.7189L6.80857 16.9178C7.11943 17.0672 7.31543 17.3756 7.31429 17.7128V21.3978C7.31543 21.735 7.11943 22.0433 6.80857 22.1928L6.4 22.3917V16.7189ZM21.0286 22.3922L20.62 22.1933C20.3091 22.0439 20.1131 21.7356 20.1143 21.3983V17.7133C20.1131 17.3761 20.3091 17.0678 20.62 16.9183L21.0286 16.7194V22.3922ZM5.48571 23.1111H4.57143V19.1111C4.57143 18.8656 4.36686 18.6667 4.11429 18.6667C3.86172 18.6667 3.65714 18.8656 3.65714 19.1111V23.1111H3.31429C2.99886 23.1106 2.74343 22.8622 2.74286 22.5556V16.5556C2.74343 16.2489 2.99886 16.0006 3.31429 16H3.65714V17.3333C3.65714 17.5789 3.86172 17.7778 4.11429 17.7778C4.36686 17.7778 4.57143 17.5789 4.57143 17.3333V16H5.48571V23.1111ZM3.65714 15.1111V13.3333H4.57143V15.1111H3.65714ZM13.7143 2.66667C8.92514 2.66667 5.02857 6.455 5.02857 11.1111V12.4444H3.2V11.1111C3.2 5.47444 7.91657 0.888889 13.7143 0.888889C19.512 0.888889 24.2286 5.47444 24.2286 11.1111V12.4444H22.4V11.1111C22.4 6.455 18.5034 2.66667 13.7143 2.66667ZM23.7714 13.3333V15.1111H22.8571V13.3333H23.7714ZM24.6857 16.8889V22.5556C24.6851 22.8622 24.4297 23.1106 24.1143 23.1111H23.7714V19.1111C23.7714 18.8656 23.5669 18.6667 23.3143 18.6667C23.0617 18.6667 22.8571 18.8656 22.8571 19.1111V23.1111H21.9429V16H22.8571V17.3333C22.8571 17.5789 23.0617 17.7778 23.3143 17.7778C23.5669 17.7778 23.7714 17.5789 23.7714 17.3333V16H24.1143C24.4297 16.0006 24.6851 16.2489 24.6857 16.5556V16.8889ZM26.5143 19.9561C26.5149 20.6083 26.1691 21.2144 25.6 21.5594V17.5522C26.1691 17.8972 26.5149 18.5033 26.5143 19.1556V19.9561Z" fill="#316FEA"/>
<path d="M9.14282 19.111C9.14282 19.3565 9.34739 19.5554 9.59997 19.5554H10.9714C11.1583 19.5554 11.3263 19.4449 11.396 19.276L11.8297 18.2221L13.2777 22.7971C13.3365 22.9837 13.5137 23.111 13.7148 23.111C13.7211 23.111 13.7268 23.111 13.7331 23.1104C13.9405 23.1026 14.116 22.9599 14.1611 22.7626L15.6091 16.4265L16.4765 19.2382C16.5348 19.426 16.7125 19.5549 16.9142 19.5549H17.8285C18.0811 19.5549 18.2857 19.356 18.2857 19.1104C18.2857 18.8649 18.0811 18.666 17.8285 18.666H17.2542L15.9805 14.5382C15.908 14.3032 15.6531 14.1699 15.4114 14.2399C15.2525 14.286 15.1325 14.4121 15.0965 14.5693L13.6428 20.9293L12.3228 16.7576C12.2485 16.5232 11.9925 16.3915 11.7514 16.4637C11.6194 16.5032 11.5125 16.5987 11.4617 16.7237L10.6617 18.6665H9.59997C9.34739 18.6665 9.14282 18.8654 9.14282 19.111Z" fill="#316FEA"/>
<path d="M10.5143 10.6667V9.33333C10.5143 9.08777 10.3097 8.88889 10.0571 8.88889C9.80455 8.88889 9.59998 9.08777 9.59998 9.33333V10.6667C9.59998 10.9122 9.80455 11.1111 10.0571 11.1111C10.3097 11.1111 10.5143 10.9122 10.5143 10.6667Z" fill="#316FEA"/>
<path d="M11.8857 12.4444C12.1383 12.4444 12.3429 12.2455 12.3429 12V8.44443C12.3429 8.19887 12.1383 7.99998 11.8857 7.99998C11.6332 7.99998 11.4286 8.19887 11.4286 8.44443V12C11.4286 12.2455 11.6332 12.4444 11.8857 12.4444Z" fill="#316FEA"/>
<path d="M14.1714 12.8889V7.55553C14.1714 7.30997 13.9668 7.11108 13.7142 7.11108C13.4617 7.11108 13.2571 7.30997 13.2571 7.55553V12.8889C13.2571 13.1344 13.4617 13.3333 13.7142 13.3333C13.9668 13.3333 14.1714 13.1344 14.1714 12.8889Z" fill="#316FEA"/>
<path d="M15.5428 12.4444C15.7954 12.4444 16 12.2455 16 12V8.44443C16 8.19887 15.7954 7.99998 15.5428 7.99998C15.2903 7.99998 15.0857 8.19887 15.0857 8.44443V12C15.0857 12.2455 15.2903 12.4444 15.5428 12.4444Z" fill="#316FEA"/>
<path d="M17.8286 10.6667V9.33333C17.8286 9.08777 17.624 8.88889 17.3714 8.88889C17.1189 8.88889 16.9143 9.08777 16.9143 9.33333V10.6667C16.9143 10.9122 17.1189 11.1111 17.3714 11.1111C17.624 11.1111 17.8286 10.9122 17.8286 10.6667Z" fill="#316FEA"/>
<path d="M19.6572 10.2222V9.7778C19.6572 9.53225 19.4526 9.33336 19.2001 9.33336C18.9475 9.33336 18.7429 9.53225 18.7429 9.7778V10.2222C18.7429 10.4678 18.9475 10.6667 19.2001 10.6667C19.4526 10.6667 19.6572 10.4678 19.6572 10.2222Z" fill="#316FEA"/>
<path d="M8.68565 9.7778C8.68565 9.53225 8.48108 9.33336 8.22851 9.33336C7.97593 9.33336 7.77136 9.53225 7.77136 9.7778V10.2222C7.77136 10.4678 7.97593 10.6667 8.22851 10.6667C8.48108 10.6667 8.68565 10.4678 8.68565 10.2222V9.7778Z" fill="#316FEA"/>
</svg>
