<svg width="28" height="28" viewBox="0 0 28 28" fill="none" xmlns="http://www.w3.org/2000/svg">
<path d="M14 9.85186C16.5731 9.85186 18.6667 11.9455 18.6667 14.5185C18.6667 17.0916 16.5731 19.1852 14 19.1852C11.427 19.1852 9.33337 17.0916 9.33337 14.5185C9.33337 11.9455 11.427 9.85186 14 9.85186ZM14 18.2519C16.0586 18.2519 17.7334 16.5771 17.7334 14.5185C17.7334 12.46 16.0586 10.7852 14 10.7852C11.9415 10.7852 10.2667 12.46 10.2667 14.5185C10.2667 16.5771 11.9415 18.2519 14 18.2519Z" fill="#316FEA"/>
<path d="M9.71027 21.5516C9.62277 21.6391 9.50435 21.6881 9.3801 21.6881C9.25585 21.6881 9.13744 21.6391 9.04994 21.5516L7.0701 19.5718C6.9826 19.4843 6.9336 19.3653 6.9336 19.2416C6.9336 19.118 6.9826 18.999 7.0701 18.9115L7.91302 18.0691C7.62893 17.5686 7.40843 17.0395 7.25618 16.4883H6.06676C5.80893 16.4883 5.6001 16.2795 5.6001 16.0216V13.2216C5.6001 12.9638 5.80893 12.755 6.06676 12.755H7.2556C7.40843 12.2031 7.62777 11.6735 7.91185 11.1735L7.0701 10.3318C6.9826 10.2443 6.9336 10.1253 6.9336 10.0016C6.9336 9.87795 6.9826 9.75895 7.0701 9.67145L9.04994 7.69161C9.23252 7.50903 9.5271 7.50903 9.70969 7.69161L10.5514 8.53278C11.0514 8.2487 11.581 8.02878 12.1329 7.87653V6.68886C12.1329 6.43103 12.3417 6.22219 12.5995 6.22219H15.3995C15.6574 6.22219 15.8662 6.43103 15.8662 6.68886V7.8777C16.4174 8.03053 16.9465 8.24986 17.447 8.53453L18.2894 7.6922C18.3769 7.6047 18.4953 7.55569 18.6195 7.55569C18.7438 7.55569 18.8622 7.6047 18.9497 7.6922L20.9295 9.67203C21.017 9.75953 21.066 9.87853 21.066 10.0022C21.066 10.1259 21.017 10.2449 20.9295 10.3324L20.0866 11.1747C20.3707 11.6752 20.5912 12.2043 20.7435 12.7555H21.9335C22.1913 12.7555 22.4001 12.9644 22.4001 13.2222V16.0222C22.4001 16.28 22.1913 16.4889 21.9335 16.4889H20.7446C20.5918 17.0407 20.3725 17.5704 20.0884 18.0703L20.9301 18.912C21.0176 18.9995 21.0666 19.1185 21.0666 19.2422C21.0666 19.3659 21.0176 19.4849 20.9301 19.5724L18.9503 21.5522C18.7677 21.7348 18.4731 21.7348 18.2905 21.5522L17.4488 20.711C16.9489 20.9951 16.4192 21.215 15.8674 21.3673V22.5555C15.8674 22.8134 15.6585 23.0222 15.4007 23.0222H12.6007C12.3429 23.0222 12.134 22.8134 12.134 22.5555V21.3667C11.5828 21.2139 11.0537 20.9945 10.5532 20.7099L9.71027 21.5516ZM12.6999 20.5454C12.9139 20.592 13.0668 20.7822 13.0668 21.0015V22.0889H14.9334V21.0015C14.9334 20.7822 15.0863 20.5926 15.3004 20.5454C15.9992 20.3925 16.6613 20.1178 17.2679 19.7287C17.4523 19.6109 17.6938 19.6365 17.8501 19.7917L18.6201 20.5617L19.9402 19.2416L19.1702 18.4716C19.015 18.3165 18.9888 18.0744 19.1072 17.8895C19.4957 17.2834 19.771 16.6213 19.9239 15.9213C19.9711 15.7078 20.1607 15.555 20.38 15.555H21.4668V13.6883H20.3795C20.1601 13.6883 19.9705 13.5355 19.9233 13.3214C19.7705 12.6237 19.4951 11.9622 19.1054 11.3549C18.987 11.17 19.0133 10.9279 19.1685 10.7728L19.9396 10.0016L18.6195 8.68153L17.8489 9.4527C17.6938 9.60786 17.4511 9.63353 17.2668 9.5157C16.6589 9.12603 15.9974 8.8507 15.2998 8.69845C15.0857 8.6512 14.9329 8.46161 14.9329 8.24228V7.15553H13.0662V8.24286C13.0662 8.4622 12.9134 8.65178 12.6993 8.69903C12.0004 8.85186 11.3384 9.12661 10.7317 9.5157C10.5468 9.63411 10.3053 9.60845 10.1495 9.4527L9.37952 8.6827L8.05943 10.0028L8.82944 10.7728C8.9846 10.9279 9.01085 11.17 8.89244 11.3549C8.50394 11.961 8.2286 12.6231 8.07577 13.3231C8.02852 13.5366 7.83893 13.6895 7.6196 13.6895H6.53343V15.5561H7.62077C7.8401 15.5561 8.02968 15.709 8.07693 15.923C8.22977 16.6207 8.5051 17.2822 8.89477 17.8895C9.01319 18.0744 8.98694 18.3165 8.83177 18.4716L8.0606 19.2428L9.38069 20.5629L10.1513 19.7917C10.307 19.636 10.5491 19.6109 10.7334 19.7287C11.3407 20.1184 12.0022 20.3931 12.6999 20.5454Z" fill="#316FEA"/>
<path d="M14.0001 25.2C14.7719 25.2 15.4001 25.8283 15.4001 26.6C15.4001 27.3718 14.7719 28 14.0001 28C13.2283 28 12.6001 27.3718 12.6001 26.6C12.6001 25.8283 13.2283 25.2 14.0001 25.2ZM14.0001 27.0667C14.2579 27.0667 14.4668 26.8573 14.4668 26.6C14.4668 26.3428 14.2579 26.1334 14.0001 26.1334C13.7423 26.1334 13.5334 26.3428 13.5334 26.6C13.5334 26.8573 13.7423 27.0667 14.0001 27.0667Z" fill="#316FEA"/>
<path d="M14.0001 2.80002C13.2283 2.80002 12.6001 2.17177 12.6001 1.40002C12.6001 0.628265 13.2283 1.35899e-05 14.0001 1.35899e-05C14.7719 1.35899e-05 15.4001 0.628265 15.4001 1.40002C15.4001 2.17177 14.7719 2.80002 14.0001 2.80002ZM14.0001 0.933349C13.7423 0.933349 13.5334 1.14277 13.5334 1.40002C13.5334 1.65727 13.7423 1.86668 14.0001 1.86668C14.2579 1.86668 14.4668 1.65727 14.4668 1.40002C14.4668 1.14277 14.2579 0.933349 14.0001 0.933349Z" fill="#316FEA"/>
<path d="M26.6 15.4C25.8282 15.4 25.2 14.7718 25.2 14C25.2 13.2283 25.8282 12.6 26.6 12.6C27.3717 12.6 28 13.2283 28 14C28 14.7718 27.3717 15.4 26.6 15.4ZM26.6 13.5334C26.3421 13.5334 26.1333 13.7428 26.1333 14C26.1333 14.2573 26.3421 14.4667 26.6 14.4667C26.8578 14.4667 27.0666 14.2573 27.0666 14C27.0666 13.7428 26.8578 13.5334 26.6 13.5334Z" fill="#316FEA"/>
<path d="M1.4 12.6C2.17175 12.6 2.8 13.2283 2.8 14C2.8 14.7718 2.17175 15.4 1.4 15.4C0.628251 15.4 0 14.7718 0 14C0 13.2283 0.628251 12.6 1.4 12.6ZM1.4 14.4667C1.65784 14.4667 1.86667 14.2573 1.86667 14C1.86667 13.7428 1.65784 13.5334 1.4 13.5334C1.14217 13.5334 0.933335 13.7428 0.933335 14C0.933335 14.2573 1.14217 14.4667 1.4 14.4667Z" fill="#316FEA"/>
<path d="M8.1079 24.4987L8.42406 23.5502C8.47481 23.3968 8.60198 23.2807 8.75948 23.2434C8.79565 23.2352 8.83123 23.2306 8.86681 23.2306C8.98931 23.2306 9.10831 23.2784 9.19698 23.3671L11.5303 25.7004C11.6552 25.8252 11.6989 26.0101 11.6429 26.1776C11.5875 26.345 11.4411 26.4669 11.2661 26.4914L7.9994 26.9581C7.83723 26.9814 7.67856 26.9196 7.57531 26.7953C7.47148 26.6711 7.4394 26.5025 7.49073 26.3485L7.80865 25.3953C4.35473 23.531 1.87906 20.1686 1.15747 16.3169L2.07447 16.1454C2.73481 19.6676 4.97481 22.7511 8.1079 24.4987ZM10.2102 25.701L9.07098 24.5617L8.61481 25.9291L10.2102 25.701Z" fill="#316FEA"/>
<path d="M26.844 11.5802L25.927 11.7523C25.2649 8.22722 23.0243 5.14371 19.8918 3.39838L19.5756 4.34688C19.5249 4.50029 19.3977 4.61638 19.2402 4.65371C19.0827 4.69163 18.9176 4.64379 18.8027 4.52946L16.4694 2.19612C16.3445 2.07129 16.3008 1.88637 16.3568 1.71896C16.4122 1.55154 16.5586 1.42962 16.7336 1.40512L20.0003 0.938456C20.023 0.934956 20.0452 0.933206 20.0668 0.933206C20.2039 0.933206 20.3357 0.993872 20.4249 1.10062C20.5288 1.22487 20.5609 1.39346 20.5095 1.54746L20.1916 2.50062C23.6449 4.36438 26.1206 7.72671 26.844 11.5802ZM17.79 2.19671L18.9293 3.33654L19.3854 1.96921L17.79 2.19671Z" fill="#316FEA"/>
<path d="M24.6017 20.0107L23.6526 19.6946C23.4992 19.6432 23.3831 19.5161 23.3458 19.3592C23.3091 19.2017 23.3557 19.036 23.4706 18.9217L25.804 16.5883C25.8926 16.4991 26.0122 16.4518 26.1341 16.4518C26.1831 16.4518 26.2333 16.46 26.2817 16.4757C26.4491 16.5317 26.5711 16.6776 26.5961 16.8526L27.0628 20.1192C27.0856 20.2791 27.0243 20.4401 26.8995 20.5433C26.7746 20.6472 26.6061 20.6775 26.4526 20.6279L25.4995 20.31C23.641 23.7622 20.2786 26.2378 16.4199 26.9629L16.2478 26.0453C19.7776 25.3815 22.8611 23.1409 24.6017 20.0107ZM25.8034 17.9078L24.6641 19.0477L26.0315 19.5038L25.8034 17.9078Z" fill="#316FEA"/>
<path d="M4.65432 8.75939C4.69107 8.91689 4.64441 9.08256 4.52949 9.19689L2.19615 11.5302C2.07132 11.6556 1.88699 11.6994 1.71898 11.6434C1.55157 11.5874 1.42965 11.4416 1.40457 11.2666L0.937901 7.99989C0.915151 7.84006 0.976401 7.67905 1.10123 7.5758C1.1864 7.50464 1.29257 7.4673 1.3999 7.4673C1.44948 7.4673 1.49907 7.47547 1.54748 7.49122L2.50065 7.80914C4.36149 4.3523 7.72441 1.87663 11.5808 1.15679L11.7523 2.07438C8.22433 2.73296 5.14082 4.97355 3.3984 8.10897L4.34749 8.42514C4.50149 8.47531 4.61699 8.60189 4.65432 8.75939ZM2.19674 10.2101L3.33599 9.07031L1.96865 8.61414L2.19674 10.2101Z" fill="#316FEA"/>
</svg>
