<svg id="Layer_1" data-name="Layer 1" xmlns="http://www.w3.org/2000/svg" viewBox="0 0 19.22 21.3"><defs><style>.cls-1{fill:#316fea;}</style></defs><title>24_p</title><path class="cls-1" d="M12.15.63c0-.16.16-.22.25-.31,1.32,1,2.6,2.07,3.9,3.1a.8.8,0,0,1,.27.28c.05.18-.13.28-.25.39l-3.15,2.4a6.46,6.46,0,0,1-.75.54.27.27,0,0,1-.27-.28c0-.64,0-1.28,0-1.92a7.47,7.47,0,0,0-4,1.7A7.38,7.38,0,0,0,5.65,10.6a7.46,7.46,0,0,0,.66,5,4.54,4.54,0,0,0,1,1.35A7.53,7.53,0,0,0,9.7,18.79c.64.15,1.24.42,1.89.52a7.59,7.59,0,0,0,3.95-.38,4.55,4.55,0,0,0,1.78-.9,13,13,0,0,0,1.48-1.39,7.29,7.29,0,0,0,1.47-4.72,7.44,7.44,0,0,0-3.82-6.21l1.9-1.4a9.63,9.63,0,0,1,3.89,5.74,9.51,9.51,0,0,1-.81,6.54,8.78,8.78,0,0,1-2.08,2.53,9.61,9.61,0,0,1-13-.08,8.49,8.49,0,0,1-2-2.46A9.61,9.61,0,0,1,12.14,2.63C12.15,2,12.13,1.3,12.15.63Z" transform="translate(-3.27 -0.32)"/><path class="cls-1" d="M7.78,9.52a3.61,3.61,0,0,1,2-1,2.08,2.08,0,0,1,2.17,1.14A2.71,2.71,0,0,1,11.8,12a8.82,8.82,0,0,1-1.92,2.38c.66,0,1.33,0,2,0a.25.25,0,0,1,.26.26,7.37,7.37,0,0,1,0,.94.29.29,0,0,1-.35.27H8.07a.29.29,0,0,1-.36-.27c0-.39,0-.79,0-1.18a18.93,18.93,0,0,0,2.6-2.62,1.76,1.76,0,0,0,.38-1.5.66.66,0,0,0-.81-.39,3.78,3.78,0,0,0-1.26.65c-.27,0-.38-.33-.55-.5S7.71,9.75,7.78,9.52Z" transform="translate(-3.27 -0.32)"/><path class="cls-1" d="M15.87,8.52a9.29,9.29,0,0,1,1.18,0c.2,0,.29.19.27.36v4.07c.23,0,.62-.1.72.19a6.86,6.86,0,0,1,0,1.11c-.11.28-.49.15-.72.19,0,.42,0,.85,0,1.28s-.49.16-.73.2-.61.09-.72-.2,0-.86,0-1.29h-2.7c-.29,0-.27-.35-.26-.55,0-.38-.11-.82.15-1.15.83-1.23,1.65-2.47,2.48-3.71A2.47,2.47,0,0,1,15.87,8.52Zm-1.6,4.42h1.57V10.65C15.31,11.41,14.8,12.18,14.27,12.94Z" transform="translate(-3.27 -0.32)"/></svg>