<svg id="Layer_1" data-name="Layer 1" xmlns="http://www.w3.org/2000/svg" viewBox="0 0 26.07 22.61"><defs><style>.cls-1{fill:#316fea;}</style></defs><title>cloud_settings</title><path class="cls-1" d="M7.8,2.86A6.92,6.92,0,0,1,17.9,5.53a5,5,0,0,1,5.57,3.84,3.89,3.89,0,0,1,2.29,1.33A3.83,3.83,0,0,1,23.11,17c-.81,0-1.63,0-2.44,0a2.53,2.53,0,0,0-.27-1.75c-.32-.54-.62-1.08-.95-1.61a2.45,2.45,0,0,0-2.6-1,2.43,2.43,0,0,0-2.23-1.73H12.69a2.44,2.44,0,0,0-2.23,1.73,2.47,2.47,0,0,0-2.6,1c-.32.53-.62,1.08-.94,1.62A2.45,2.45,0,0,0,6.65,17a6.11,6.11,0,0,1-3.18-.61,5.36,5.36,0,0,1-1.6-8.25A5.47,5.47,0,0,1,5.17,6.3,6.91,6.91,0,0,1,7.8,2.86Z" transform="translate(-0.58 -1.66)"/><path class="cls-1" d="M11.43,13.44a1.55,1.55,0,0,1,1-1.38A12.29,12.29,0,0,1,14.33,12a1.35,1.35,0,0,1,1.19.48,2.33,2.33,0,0,1,.36,1q.37.2.72.42a2.48,2.48,0,0,1,1-.17,1.29,1.29,0,0,1,.94.64c.29.5.58,1,.86,1.49a1.29,1.29,0,0,1-.1,1.42c-.13.16-.31.29-.45.45s0,.57,0,.86a4.18,4.18,0,0,1,.54.57,1.27,1.27,0,0,1,0,1.34l-.85,1.48a1.29,1.29,0,0,1-1.06.64,3.13,3.13,0,0,1-.85-.17c-.26.11-.49.29-.75.41a2.54,2.54,0,0,1-.34.93,1.27,1.27,0,0,1-1,.51H12.79a1.29,1.29,0,0,1-1.2-.83,6.25,6.25,0,0,1-.16-.62,6.51,6.51,0,0,1-.73-.41,1.78,1.78,0,0,1-1.32.08c-.56-.22-.74-.83-1-1.29s-.71-1-.58-1.59a1.8,1.8,0,0,1,.72-1.05q0-.42,0-.84a1.52,1.52,0,0,1-.69-1.62c.24-.57.61-1.08.9-1.62a1.32,1.32,0,0,1,.94-.76,2.2,2.2,0,0,1,1.07.15C10.93,13.71,11.18,13.57,11.43,13.44Zm1.34.91c-.16.34-.57.4-.86.57s-.5.37-.78.51-.76-.09-1.12-.17c-.23.38-.44.77-.67,1.15A6.15,6.15,0,0,1,10,17c.2.34,0,.75,0,1.12s.15.71,0,1a3.52,3.52,0,0,1-.63.65c.21.4.45.77.66,1.16a3.73,3.73,0,0,1,1-.21c.35.08.58.38.9.53s.68.23.86.55a4.06,4.06,0,0,1,.25.86h1.33c.12-.37.11-.83.46-1.08s.55-.24.8-.41.53-.47.89-.44a5,5,0,0,1,.84.22c.22-.39.43-.77.66-1.15-.25-.29-.64-.5-.71-.89s.08-.68,0-1-.12-.66.06-.93a6,6,0,0,1,.61-.62c-.22-.39-.44-.77-.67-1.15a5.93,5.93,0,0,1-.83.21c-.38,0-.63-.3-.93-.47s-.79-.26-1-.63a6.14,6.14,0,0,1-.23-.84H13A7.44,7.44,0,0,1,12.77,14.35Z" transform="translate(-0.58 -1.66)"/><path class="cls-1" d="M13.23,16.65a1.53,1.53,0,1,1-1.14,1.61A1.54,1.54,0,0,1,13.23,16.65Z" transform="translate(-0.58 -1.66)"/></svg>