<?xml version="1.0" encoding="utf-8"?>
<!-- Generator: Adobe Illustrator 23.0.2, SVG Export Plug-In . SVG Version: 6.00 Build 0)  -->
<svg version="1.1" id="Layer_1" xmlns="http://www.w3.org/2000/svg" xmlns:xlink="http://www.w3.org/1999/xlink" x="0px" y="0px"
	 viewBox="0 0 12.3 20" style="enable-background:new 0 0 12.3 20;" xml:space="preserve">
<style type="text/css">
	.st0{fill:#316FEA;}
</style>
<title>money_gs</title>
<path class="st0" d="M11.3,0c0.3-0.1,0.7,0,0.9,0.3c0.2,0.3,0.1,0.7-0.1,0.9L9.3,4.1c-0.1,0.1-0.2,0.3,0,0.5c0,0,0,0,0,0
	C9.8,5,10.4,5.4,11,5.9c0.6,0.6,0.9,1.4,0.9,2.2v8.5c0,0.6-0.1,1.2-0.3,1.7c-0.5,1-1.5,1.6-2.6,1.6H3.1C1.4,20,0,18.7,0,17
	c0,0,0-0.1,0-0.1V8c0-0.9,0.4-1.8,1.2-2.4C1.9,5.1,2.7,4.6,3.4,4c0.4-0.4,0.9-0.8,1.4-1.1c0.3-0.3,0.7-0.5,1.1-0.5
	c0.7,0,1.2,0.7,1.8,1c0.2,0,0.3-0.1,0.4-0.2c0.9-1,1.9-1.9,2.8-2.8C11,0.2,11.1,0.1,11.3,0z M5.3,4.4c-1,0.3-1.7,1.3-1.6,2.4
	C3.7,7.4,4.2,8,4.7,8.4c0.8,0.4,1.7,0.4,2.4-0.1C8,7.7,8.3,6.6,8,5.7c0-0.1-0.2-0.1-0.3-0.1c0,0-0.1,0.1-0.1,0.1
	C7.2,6.1,6.8,6.6,6.4,7c-0.3,0.3-0.7,0.3-1,0c-0.3-0.3-0.3-0.7,0-1c0.4-0.4,0.8-0.8,1.2-1.2c0.1-0.1,0.1-0.2,0.1-0.3
	c0,0,0-0.1-0.1-0.1C6.1,4.3,5.7,4.3,5.3,4.4z M5.4,10.2c-0.2,0.2-0.2,0.4-0.2,0.7c-0.7,0.1-1.3,0.6-1.6,1.3c0,0.5,0,1.1,0,1.6
	c0.2,0.6,0.6,1.1,1.2,1.3c0.6,0.1,1.1,0.2,1.7,0.1c0.7,0.1,0.6,1.4-0.1,1.3c-0.3,0-0.7,0-1,0C5.1,16.4,5,16.1,5,15.9
	c0-0.4-0.4-0.7-0.8-0.7c-0.3,0-0.5,0.2-0.6,0.4c0,0.3,0,0.7,0,1c0.2,0.7,0.8,1.2,1.6,1.4c0,0.2,0.1,0.5,0.2,0.6
	c0.3,0.3,0.8,0.3,1.1,0c0,0,0,0,0,0c0.2-0.2,0.2-0.4,0.2-0.7c0.7-0.1,1.3-0.6,1.5-1.3c0.1-0.4,0.2-0.8,0.1-1.2
	c-0.1-0.9-0.8-1.7-1.7-1.9c-0.4,0-0.9,0-1.3,0c-0.7-0.1-0.6-1.4,0.1-1.3c0.3,0,0.7,0,1,0c0.3,0.1,0.4,0.4,0.4,0.7
	c0.1,0.4,0.5,0.6,0.9,0.5c0.1,0,0.2-0.1,0.3-0.1c0.3-0.3,0.4-0.7,0.2-1.1c-0.2-0.8-0.8-1.4-1.6-1.5c0-0.2-0.1-0.5-0.2-0.7
	C6.2,9.8,5.7,9.8,5.4,10.2C5.4,10.1,5.4,10.1,5.4,10.2L5.4,10.2z"/>
</svg>
