<svg id="Layer_1" data-name="Layer 1" xmlns="http://www.w3.org/2000/svg" viewBox="0 0 15.26 15.33"><defs><style>.cls-1{fill:#9ea3af;}</style></defs><title>price_p</title><path class="cls-1" d="M7,.39A7.67,7.67,0,0,1,11.6,14.74a7.67,7.67,0,0,1-10-2.54,1.69,1.69,0,0,0-.12-.28,7.63,7.63,0,0,1,0-7.83,1.57,1.57,0,0,0,.12-.3A7.62,7.62,0,0,1,7,.39ZM7.77,3V4.15a2.54,2.54,0,0,0-1.6.72A2.22,2.22,0,0,0,5.8,7.1,2.41,2.41,0,0,0,7.13,8.32a9.29,9.29,0,0,1,1.6.74A1.07,1.07,0,0,1,9,10.35a.9.9,0,0,1-.76.43,1.29,1.29,0,0,1-1-.28,1.25,1.25,0,0,1-.33-.95c-.5,0-1,0-1.5,0a2.38,2.38,0,0,0,.44,1.51,2.67,2.67,0,0,0,1.84.87c0,.34,0,.68,0,1h.81c0-.34,0-.68,0-1a2.66,2.66,0,0,0,1.56-.67A2.22,2.22,0,0,0,10.48,9,2.38,2.38,0,0,0,9.19,7.77c-.42-.21-.89-.32-1.3-.55a1.2,1.2,0,0,1-.66-.61,1.09,1.09,0,0,1,.26-1.13,1.15,1.15,0,0,1,1.16,0,1.25,1.25,0,0,1,.45,1h1.49a2.26,2.26,0,0,0-.52-1.58A2.37,2.37,0,0,0,8.6,4.17c0-.38,0-.76,0-1.14Z" transform="translate(-0.35 -0.34)"/></svg>