<svg id="Layer_1" data-name="Layer 1" xmlns="http://www.w3.org/2000/svg" viewBox="0 0 15.26 15.26"><defs><style>.cls-1{fill:#9ea3af;}</style></defs><title>question_p</title><path class="cls-1" d="M7,.49a7.66,7.66,0,0,1,7.24,3.27c.07.11.18.19.25.31A7.66,7.66,0,0,1,8.76,15.63a7.51,7.51,0,0,1-4.61-.94A7.69,7.69,0,0,1,.87,5.06a5,5,0,0,1,.75-1.3A7.7,7.7,0,0,1,7,.49Zm-1.76,5c.34.39.66.79,1,1.18A4.72,4.72,0,0,1,7,6a2.49,2.49,0,0,1,1.57-.22,1,1,0,0,1,.64.33.88.88,0,0,1,.11.71c-.13.36-.54.48-.85.65a1.93,1.93,0,0,0-1,.9,2.94,2.94,0,0,0-.18,1.32H8.41A1.17,1.17,0,0,1,8.67,9c.48-.55,1.28-.64,1.74-1.19A2.22,2.22,0,0,0,10,4.7a3.79,3.79,0,0,0-2.45-.49A4.1,4.1,0,0,0,5.19,5.48ZM7.62,10.8a.83.83,0,1,0,1.08.71A.84.84,0,0,0,7.62,10.8Z" transform="translate(-0.28 -0.43)"/></svg>