<svg id="Layer_1" data-name="Layer 1" xmlns="http://www.w3.org/2000/svg" viewBox="0 0 21.26 21.33"><defs><style>.cls-1{fill:#316fea;}</style></defs><title>shield_p</title><path class="cls-1" d="M2.35,5.58A29.12,29.12,0,0,0,13,.25a29.54,29.54,0,0,0,6.92,4.07c.41.17.84.31,1.24.51.8.29,1.61.53,2.43.75a27,27,0,0,1-.27,5.31,13.5,13.5,0,0,1-2.22,5.2.44.44,0,0,0-.11.27,13.67,13.67,0,0,1-8,5.21,13.69,13.69,0,0,1-10.6-12C2.29,8.25,2.37,6.91,2.35,5.58Zm9.34,5.53L9.57,9c-.63.64-1.27,1.28-1.89,1.93l4,4,6.68-6.68L16.48,6.32Z" transform="translate(-2.35 -0.25)"/></svg>