<svg id="Isolation_Mode" data-name="Isolation Mode" xmlns="http://www.w3.org/2000/svg" viewBox="0 0 32 40"><defs><style>.cls-1{fill:#ffffff;}</style></defs><title>backward</title><path class="cls-1" d="M24,10V2L14,12,24,22V14A12,12,0,1,1,12,26H8A16,16,0,1,0,24,10ZM21.7,32H20V25.5l-2,.6V24.7l3.5-1.3h.2Zm8.5-3.5a7,7,0,0,1-.2,1.6,2.38,2.38,0,0,1-.6,1.1,5.5,5.5,0,0,1-.9.7,2.17,2.17,0,0,1-1.2.2,4.3,4.3,0,0,1-1.2-.2,1.6,1.6,0,0,1-.9-.7,3.88,3.88,0,0,1-.6-1.1,7,7,0,0,1-.2-1.6V27a7,7,0,0,1,.2-1.6,2.38,2.38,0,0,1,.6-1.1,5.5,5.5,0,0,1,.9-.7,2.17,2.17,0,0,1,1.2-.2,4.3,4.3,0,0,1,1.2.2,1.6,1.6,0,0,1,.9.7,3.88,3.88,0,0,1,.6,1.1,7,7,0,0,1,.2,1.6Zm-1.7-1.7a3.08,3.08,0,0,0-.1-1c-.1-.3-.1-.5-.2-.6s-.2-.3-.4-.3-.3-.1-.5-.1a.75.75,0,0,0-.5.1c-.1.1-.3.2-.4.3a1.07,1.07,0,0,0-.2.6c0,.2-.1.6-.1,1v1.9a3.08,3.08,0,0,0,.1,1c.1.3.1.5.2.6s.2.3.4.3.3.1.5.1a.75.75,0,0,0,.5-.1c.1-.1.3-.2.4-.3a1.07,1.07,0,0,0,.2-.6c0-.2.1-.6.1-1Z" transform="translate(-8 -2)"/></svg>