<?xml version="1.0" encoding="utf-8"?>
<!-- Generator: Adobe Illustrator 24.1.0, SVG Export Plug-In . SVG Version: 6.00 Build 0)  -->
<svg version="1.1" id="Layer_1" xmlns="http://www.w3.org/2000/svg" xmlns:xlink="http://www.w3.org/1999/xlink" x="0px" y="0px"
	 viewBox="0 0 400 400" style="enable-background:new 0 0 400 400;" xml:space="preserve">
<style type="text/css">
	.st0{fill:#FFFFFF;stroke:#FFFFFF;stroke-miterlimit:10;}
	.st1{enable-background:new    ;}
</style>
<path class="st0" d="M201.3,42.3c-44.6,0-88.5,17.5-120.8,46.5L56,64.9c-2.9-2.8-7.3-3.7-11.1-2.1c-3.8,1.5-6.2,5.1-6.3,9.1v65.8
	c0.1,5.5,4.6,9.9,10.1,9.9l0,0h67.8c4.1,0,7.8-2.4,9.4-6.1c1.6-3.7,0.7-8-2.2-10.8l-24-23.3c27.3-24,64.7-38.8,101.6-38.8
	c74.8,0,135.6,59,135.6,131.5s-60.8,131.5-135.6,131.5c-36.2,0-70.3-13.7-95.8-38.6c-5.4-5.1-13.8-5.1-19.2,0
	c-5.1,4.9-5.4,13-0.5,18.2c0.1,0.1,0.3,0.3,0.4,0.4c30.6,29.8,71.5,46.3,115,46.3c89.7,0,162.7-70.8,162.7-157.9
	S291.1,42.3,201.3,42.3L201.3,42.3z"/>
<g class="st1">
	<path class="st0" d="M155.9,179.4l-16.8,16.7l-12.3-12.6l32-31.2h18.9V251h-21.8L155.9,179.4L155.9,179.4z"/>
	<path class="st0" d="M235,150.9c29,0,42.1,25.5,42.1,50.9S264,252.9,235,252.9c-29.1,0-42.1-25.6-42.1-51.1S205.9,150.9,235,150.9z
		 M235,169.5c-14.6,0-20.1,14.1-20.1,32.3s5.5,32.4,20.1,32.4c14.5,0,20-14.2,20-32.4C254.9,183.6,249.5,169.5,235,169.5z"/>
</g>
</svg>
