<?xml version="1.0" encoding="utf-8"?>
<!-- Generator: Adobe Illustrator 24.1.0, SVG Export Plug-In . SVG Version: 6.00 Build 0)  -->
<svg version="1.1" id="Layer_1" xmlns="http://www.w3.org/2000/svg" xmlns:xlink="http://www.w3.org/1999/xlink" x="0px" y="0px"
	 viewBox="0 0 400 400" style="enable-background:new 0 0 400 400;" xml:space="preserve">
<style type="text/css">
	.st0{fill:#FFFFFF;}
	.st1{enable-background:new    ;}
</style>
<path class="st0" d="M201.3,42.3c-89.7,0-162.7,70.8-162.7,157.9S111.6,358,201.3,358c43.5,0,84.4-16.4,115-46.3
	c5.1-4.9,5.3-13.1,0.4-18.2c-0.1-0.1-0.3-0.3-0.4-0.4c-5.4-5.1-13.8-5.1-19.2,0c-25.5,24.9-59.6,38.6-95.8,38.6
	c-74.8,0-135.6-59-135.6-131.5S126.6,68.6,201.3,68.6c36.8,0,74.3,14.8,101.6,38.8l-24,23.3c-2.9,2.8-3.8,7.1-2.2,10.8
	c1.6,3.7,5.3,6.1,9.4,6.1h67.8c5.5,0.1,10.1-4.3,10.2-9.8l0,0V71.9c0-4-2.5-7.6-6.3-9.1s-8.1-0.7-11.1,2.1l-24.6,23.8
	C289.8,59.7,245.9,42.3,201.3,42.3z"/>
<g class="st1">
	<path class="st0" d="M155.9,179.4l-16.8,16.7l-12.3-12.6l32-31.2h18.9V251h-21.8L155.9,179.4L155.9,179.4z"/>
	<path class="st0" d="M235,150.9c29,0,42.1,25.5,42.1,50.9S264,252.9,235,252.9c-29.1,0-42.1-25.6-42.1-51.1S205.9,150.9,235,150.9z
		 M235,169.5c-14.6,0-20.1,14.1-20.1,32.3s5.5,32.4,20.1,32.4c14.5,0,20-14.2,20-32.4C254.9,183.6,249.5,169.5,235,169.5z"/>
</g>
</svg>
