<?xml version="1.0" encoding="utf-8"?>
<!-- Generator: Adobe Illustrator 24.1.0, SVG Export Plug-In . SVG Version: 6.00 Build 0)  -->
<svg version="1.1" id="Layer_1" xmlns="http://www.w3.org/2000/svg" xmlns:xlink="http://www.w3.org/1999/xlink" x="0px" y="0px"
	 viewBox="0 0 400 400" style="enable-background:new 0 0 400 400;" xml:space="preserve">
<style type="text/css">
	.st0{fill:#FFFFFF;stroke:#FFFFFF;stroke-width:12;stroke-miterlimit:10;}
</style>
<path class="st0" d="M73.2,175.2c7.8-0.1,14.1-6.5,14-14.3v-37.1c-0.1-7.8,6.2-14.2,14-14.3h56.1c7.9-0.2,14.2-6.8,14-14.7
	c-0.2-7.6-6.3-13.8-14-14h-56c-23.2,0-42.1,19.3-42.1,43v37.1C59.1,168.7,65.3,175.1,73.2,175.2L73.2,175.2z"/>
<path class="st0" d="M322,175.2c-7.8-0.1-14.1-6.5-14-14.3v-37.1c0.1-7.8-6.2-14.2-14-14.3h-56.2c-7.9-0.2-14.2-6.8-14-14.7
	c0.2-7.6,6.3-13.8,14-14h56.1c23.2,0,42.1,19.3,42.1,43v37.1C336.1,168.6,329.8,175.1,322,175.2z"/>
<path class="st0" d="M73.2,225c7.8,0.1,14.1,6.5,14,14.3v37.1c-0.1,7.8,6.2,14.2,14,14.3h56.1c7.9,0,14.3,6.4,14.3,14.4
	c0,7.9-6.4,14.3-14.3,14.3h-56c-23.2,0-42.1-19.3-42.1-43v-37.1C59.1,231.5,65.3,225.1,73.2,225L73.2,225z"/>
<path class="st0" d="M322,225c-7.8,0.1-14.1,6.5-14,14.3v37.1c0.1,7.8-6.2,14.2-14,14.3h-56.2c-7.9,0-14.3,6.4-14.3,14.4
	c0,7.9,6.4,14.3,14.3,14.3h56.1c23.2,0,42.1-19.3,42.1-43v-37.1C336.1,231.5,329.8,225.1,322,225L322,225z"/>
</svg>
