<?xml version="1.0" encoding="utf-8"?>
<!-- Generator: Adobe Illustrator 24.1.0, SVG Export Plug-In . SVG Version: 6.00 Build 0)  -->
<svg version="1.1" id="Layer_1" xmlns="http://www.w3.org/2000/svg" xmlns:xlink="http://www.w3.org/1999/xlink" x="0px" y="0px"
	 viewBox="0 0 400 400" style="enable-background:new 0 0 400 400;" xml:space="preserve">
<style type="text/css">
	.st0{fill:#FFFFFF;}
	.st1{fill:#FFFFFF;stroke:#FFFFFF;stroke-width:0.25;stroke-miterlimit:10;}
</style>
<path class="st0" d="M212.2,73.7c-3.1-1.5-6.9-1.1-9.6,1.1l-88.1,70.5h-42c-10,0-18.1,8.1-18.1,18.1v72.4c0,10,8.1,18.1,18.1,18.2
	l0,0h42.1l88.1,70.5c2.7,2.2,6.5,2.6,9.6,1.1s5.1-4.7,5.1-8.1V81.9C217.4,78.4,215.4,75.2,212.2,73.7z"/>
<path class="st1" d="M239.2,151.9l1.7-1.7c6.1-6.1,15.9-6.1,21.9,0l75,75c6.1,6.1,6.1,15.9,0,21.9l-1.7,1.7
	c-6.1,6.1-15.9,6.1-21.9,0l-75-75C233.1,167.8,233.1,158,239.2,151.9z"/>
<path class="st1" d="M336.1,150.2l1.7,1.7c6.1,6.1,6.1,15.9,0,21.9l-75,75c-6.1,6.1-15.9,6.1-21.9,0l-1.7-1.7
	c-6.1-6.1-6.1-15.9,0-21.9l75-75C320.2,144.1,330,144.1,336.1,150.2z"/>
</svg>
