<svg id="Capa_1" data-name="Capa 1" xmlns="http://www.w3.org/2000/svg" viewBox="0 0 480 448.02"><defs><style>.cls-1{fill:#ffffff}</style></defs><title>Artboard 2</title><path class="cls-1" d="M278.94,1.59A15.93,15.93,0,0,0,262,3.51L106.37,128H32A32.06,32.06,0,0,0,0,160V288a32,32,0,0,0,32,32h74.37L262,444.53A16,16,0,0,0,288,432V16A16,16,0,0,0,278.94,1.59Z"/><path class="cls-1" d="M369,110.87a16,16,0,0,0-22.49,22.78,127.64,127.64,0,0,1,.23,180.51l-.23.23A16,16,0,1,0,368,338.11c.35-.32.69-.65,1-1,30.34-29.86,47-70.05,47-113.09S399.33,140.79,369,110.87Z"/></svg>