<svg id="Layer_1" data-name="Layer 1" xmlns="http://www.w3.org/2000/svg" viewBox="0 0 25.26 21.19"><defs><style>.cls-1{fill:#316fea;}</style></defs><title>cards_p</title><path class="cls-1" d="M8.84.42A9.42,9.42,0,0,1,9.9.4H23.2A2.34,2.34,0,0,1,25,1.09a2.41,2.41,0,0,1,.71,1.77c0,2.85,0,5.71,0,8.57a6.3,6.3,0,0,1-.07,1.23,2.41,2.41,0,0,1-1.71,1.74,5.39,5.39,0,0,1-1.27.08H9.7a3.4,3.4,0,0,1-1.55-.21,2.4,2.4,0,0,1-1.4-2.15V2.75A2.38,2.38,0,0,1,8.84.42Zm1.4,3.19a1.58,1.58,0,0,0,.34,3.09,1.61,1.61,0,0,0,1.2-.43,2.36,2.36,0,0,1,0-2.29A1.59,1.59,0,0,0,10.24,3.61Zm3.15,0A1.58,1.58,0,0,0,14,6.7a1.58,1.58,0,1,0-.56-3.1Zm-4.18,7c-.16.11-.08.33-.1.49s0,.31.19.28c.69,0,1.38,0,2.07,0a.62.62,0,0,0,0-.76Q10.29,10.52,9.21,10.55Zm3.94,0c-.16.11-.08.33-.1.49s0,.31.2.28h2c.21,0,.19-.24.19-.38s0-.42-.2-.4C14.53,10.54,13.84,10.53,13.15,10.55Zm3.94,0c-.17.1-.08.33-.1.49s0,.31.19.28c.69,0,1.38,0,2.07,0,.19-.12.08-.4.1-.58s-.16-.21-.28-.19C18.41,10.55,17.75,10.52,17.09,10.55Zm3.94,0c-.17.1-.09.33-.11.49s0,.3.2.28c.69,0,1.38,0,2.07,0,.19-.12.08-.39.1-.58s-.16-.21-.29-.19C22.35,10.55,21.69,10.52,21,10.55Z" transform="translate(-0.39 -0.39)"/><path class="cls-1" d="M1.66,8.51h4V10H2.38c-.33,0-.48.25-.48.61s0,3.68,0,5.53H17.65v-.79h1.57c0,1.28,0,2.56,0,3.84A2.57,2.57,0,0,1,19,20.41a2.63,2.63,0,0,1-2.08,1.17c-4.7,0-9.4,0-14.1,0A2.22,2.22,0,0,1,.66,20.34a2.38,2.38,0,0,1-.24-1.12c0-2.86,0-5.72,0-8.58C.42,9.92.11,8.51,1.66,8.51Zm.23,10c0,.33,0,.66,0,1a.77.77,0,0,0,.76.58h13.7c.36,0,.78.06,1.06-.23s.18-.9.22-1.35Z" transform="translate(-0.39 -0.39)"/></svg>