<svg id="Layer_1" data-name="Layer 1" xmlns="http://www.w3.org/2000/svg" viewBox="0 0 21.34 21.25"><defs><style>.cls-1{fill:#9ea3af;}</style></defs><title>close_p</title><path class="cls-1" d="M12.2.48a10.61,10.61,0,0,1,4.61.6,6.55,6.55,0,0,0,1.05.37A10.67,10.67,0,1,1,2.62,12.74,10.67,10.67,0,0,1,7.43,2a4.32,4.32,0,0,1,1.35-.65A10.42,10.42,0,0,1,12.2.48ZM8.78,7.58C9.91,8.73,11.06,9.86,12.19,11c-1.13,1.15-2.28,2.28-3.41,3.43l1,1L13.15,12l3.43,3.42,1-1L14.11,11c1.14-1.14,2.29-2.27,3.42-3.42l-1-1C15.43,7.76,14.3,8.91,13.15,10,12,8.91,10.88,7.76,9.73,6.63Z" transform="translate(-2.48 -0.43)"/></svg>