<svg id="Layer_1" data-name="Layer 1" xmlns="http://www.w3.org/2000/svg" viewBox="0 0 20.74 24.18"><defs><style>.cls-1{fill:#316fea;}</style></defs><title>support</title><path class="cls-1" d="M6.24,5.67a8.61,8.61,0,0,1,9.48-4.62,8.29,8.29,0,0,1,6.39,5.51A16.75,16.75,0,0,1,22.52,11a2.48,2.48,0,0,1,1.85,2.27c0,1.17.28,2.59-.65,3.5a3.65,3.65,0,0,1-1.77.87,14.7,14.7,0,0,0-1.05,2c-1.23,2.22-3,4.44-5.51,5.21a5.4,5.4,0,0,1-4.82-1.06,14.33,14.33,0,0,1-4.38-6.23,2.52,2.52,0,0,1-2.48-2.06,15.75,15.75,0,0,1,0-2.57A2.47,2.47,0,0,1,5.5,11,11.55,11.55,0,0,1,6.24,5.67Zm6-2.94A6.58,6.58,0,0,0,7.54,7.07a9.16,9.16,0,0,1,6.74-2.86A9.51,9.51,0,0,1,20.47,7a6.61,6.61,0,0,0-2.56-3.3A7.15,7.15,0,0,0,12.2,2.73Zm-5,9.08q0,2.25,0,4.5a3.22,3.22,0,0,0,.16,1.38,11.94,11.94,0,0,0,3.52,4.86,4.8,4.8,0,0,0,4.72.86,9.31,9.31,0,0,0,4.24-4.15,15,15,0,0,1-4,1.07c-.65.85-1.83.51-2.75.51a1.08,1.08,0,0,1,0-2.07c.91-.1,2-.31,2.76.41a8,8,0,0,0,4.84-1.79c.13-1.14,0-2.3,0-3.45a13.46,13.46,0,0,0-.08-2.29,2,2,0,0,0-1.61-.45,18.12,18.12,0,0,1-7.55,0A4,4,0,0,1,8.75,9C8.1,9.83,7.17,10.67,7.24,11.81Z" transform="translate(-3.66 -0.87)"/></svg>