<svg xmlns="http://www.w3.org/2000/svg" viewBox="0 0 29.93 40.58"><defs><style>.cls-1{fill:#366fe0;stroke:#366fe0;stroke-miterlimit:10;stroke-width:0.02px;}</style></defs><title>Asset 10</title><g id="Layer_2" data-name="Layer 2"><g id="Layer_2-2" data-name="Layer 2"><g id="plain"><path class="cls-1" d="M9.64,31.39c-6.23,1.74,3.79,5.33,11.73,1.93a14.48,14.48,0,0,1-2.23-1.08,23.36,23.36,0,0,1-8.4.35C8.09,32.29,9.64,31.39,9.64,31.39Z"/><path class="cls-1" d="M20.42,28a32.93,32.93,0,0,1-10.83.52C6.93,28.23,8.67,27,8.67,27,1.8,29.23,12.49,31.81,22.09,29A4.71,4.71,0,0,1,20.42,28Z"/><path class="cls-1" d="M24.09,8.31s-13.87,3.47-7.25,11.11c2,2.25-.51,4.27-.51,4.27s5-2.56,2.69-5.77C16.89,14.93,15.25,13.44,24.09,8.31Z"/><path class="cls-1" d="M27.34,34.67s1.15.94-1.26,1.67C21.5,37.73,7,38.15,3,36.4c-1.45-.63,1.27-1.5,2.12-1.69a5.42,5.42,0,0,1,1.4-.15C4.9,33.42-3.89,36.78,2,37.74,18.22,40.37,31.54,36.56,27.34,34.67Z"/><path class="cls-1" d="M21.78,24.82a13.14,13.14,0,0,1,1.85-1s-3.06.54-6.11.8a55.36,55.36,0,0,1-9.74.1c-4.76-.63,2.6-2.38,2.6-2.38A13.82,13.82,0,0,0,4,23.86C-.16,25.87,14.3,26.79,21.78,24.82Z"/><path class="cls-1" d="M23.6,29.74a.65.65,0,0,1-.15.2c10.16-2.67,6.42-9.42,1.57-7.71a1.36,1.36,0,0,0-.65.5,5.37,5.37,0,0,1,.87-.23C27.69,22,31.21,25.78,23.6,29.74Z"/><path class="cls-1" d="M15,22.27c-1.5-3.38-6.58-6.35,0-11.54C23.23,4.25,19,0,19,0c1.7,6.7-6,8.72-8.77,12.89C8.36,15.76,11.18,18.81,15,22.27Z"/><path class="cls-1" d="M23.88,39.08a60.2,60.2,0,0,1-18.48.29s.93.77,5.73,1.08c7.3.46,18.51-.26,18.78-3.72C29.91,36.73,29.4,38,23.88,39.08Z"/></g></g></g></svg>