<svg id="Layer_1" data-name="Layer 1" xmlns="http://www.w3.org/2000/svg" viewBox="0 0 42.04 42.03"><defs><style>.cls-1{fill:#366fe0;stroke-width:0.02px;}.cls-1,.cls-2{stroke:#366fe0;stroke-miterlimit:10;}.cls-2{fill:none;stroke-width:1.25px;}</style></defs><title>tutorials</title><g id="Layer_1-2" data-name="Layer 1-2"><path class="cls-1" d="M41.38,33.68a.62.62,0,0,0-.64.6v4.56a1.93,1.93,0,0,1-1.91,1.91H30.15a.63.63,0,0,0,0,1.26h8.68A3.18,3.18,0,0,0,42,38.84V34.31a.62.62,0,0,0-.61-.63Z" transform="translate(0.01 0.01)"/><path class="cls-1" d="M38.83,0H3.19A3.19,3.19,0,0,0,0,3.19V41.37A.63.63,0,0,0,.63,42H35.06l-.63-1.24H1.28V3.2A1.92,1.92,0,0,1,3.19,1.29H38.83A1.92,1.92,0,0,1,40.74,3.2V6.37H25.06a.66.66,0,0,0-.65.65.67.67,0,0,0,.65.64H40.74V37.42a10.76,10.76,0,0,1,1.27,0S42,3.2,42,3.2A3.19,3.19,0,0,0,38.83,0Z" transform="translate(0.01 0.01)"/><path class="cls-1" d="M38.48,4.28a.62.62,0,0,0,0-.89.67.67,0,0,0-.91,0,.64.64,0,0,0-.19.45.61.61,0,0,0,.19.44.63.63,0,0,0,.89,0h0Z" transform="translate(0.01 0.01)"/><path class="cls-1" d="M35.17,3.84a.64.64,0,0,0-.64-.64.63.63,0,0,0-.63.63h0a.64.64,0,0,0,.63.64A.66.66,0,0,0,35.17,3.84Z" transform="translate(0.01 0.01)"/><path class="cls-1" d="M31.49,4.28a.72.72,0,0,0,.18-.44.74.74,0,0,0-.18-.47.71.71,0,0,0-.91,0,.75.75,0,0,0-.19.47.73.73,0,0,0,.19.44.64.64,0,0,0,.45.19A.66.66,0,0,0,31.49,4.28Z" transform="translate(0.01 0.01)"/><path class="cls-1" d="M23,13.36h9a.62.62,0,0,0,.59-.64h0a.64.64,0,0,0-.59-.64H23a.62.62,0,0,0-.59.64.62.62,0,0,0,.59.64Z" transform="translate(0.01 0.01)"/><path class="cls-1" d="M36,17.48H23a.62.62,0,0,0-.59.64.62.62,0,0,0,.59.64H36a.6.6,0,0,0,.57-.63h0A.61.61,0,0,0,36,17.48Z" transform="translate(0.01 0.01)"/><path class="cls-1" d="M23,24.16h10.7a.62.62,0,0,0,.58-.64.61.61,0,0,0-.57-.64H23a.62.62,0,0,0-.59.64A.62.62,0,0,0,23,24.16Z" transform="translate(0.01 0.01)"/><path class="cls-1" d="M23,29.55h10.7a.62.62,0,0,0,.58-.65h0a.6.6,0,0,0-.58-.62H23a.6.6,0,0,0-.59.62h0A.63.63,0,0,0,23,29.55Z" transform="translate(0.01 0.01)"/><path class="cls-1" d="M36,33.68H23a.6.6,0,0,0-.59.62h0a.63.63,0,0,0,.54.69H36a.6.6,0,0,0,.57-.63h0a.61.61,0,0,0-.51-.68Z" transform="translate(0.01 0.01)"/></g><circle class="cls-2" cx="11.57" cy="13.91" r="3.23"/><path class="cls-1" d="M5.91,20.83a1.33,1.33,0,0,1,1.4-1.38h7a1.21,1.21,0,0,1,1.32,1.23c0,3.54,0,7.08,0,10.63a1.68,1.68,0,0,1,1.42.39c.52.48.34,1.24.37,1.87A1.34,1.34,0,0,1,16.09,35H7.31a1.35,1.35,0,0,1-1.4-1.31c0-.39,0-.77,0-1.16a1.31,1.31,0,0,1,1-1.21,12.64,12.64,0,0,1,1.51,0c0-2.71,0-5.42,0-8.13-.7-.05-1.52.18-2.07-.38S5.93,21.49,5.91,20.83Zm1.23-.15c0,.42,0,.84,0,1.27A7.51,7.51,0,0,1,8.79,22a1.44,1.44,0,0,1,.85,1.28v7.78A1.4,1.4,0,0,1,9,32.33c-.55.36-1.23.16-1.85.21,0,.42,0,.85,0,1.27h9.08V32.55a1.47,1.47,0,0,1-1.74-1.32V20.68Z" transform="translate(0.01 0.01)"/></svg>