<svg width="31" height="49" viewBox="0 0 31 49" fill="none" xmlns="http://www.w3.org/2000/svg">
<path d="M18.1514 1.67767C21.6468 2.34024 24.769 4.28988 26.9039 7.14392C28.492 9.26688 29.4592 11.7915 29.6969 14.4349C29.9346 17.0782 29.4335 19.7357 28.2498 22.1094L15.5045 47.6668L2.75927 22.1094C1.16785 18.9182 0.824566 15.2453 1.79706 11.813C2.76955 8.38079 4.98726 5.43795 8.01361 3.56265C11.0399 1.68738 14.6561 1.0151 18.1514 1.67767ZM10.8549 22.3054C12.231 23.2273 13.8491 23.7194 15.5045 23.7194C16.6036 23.7194 17.692 23.5024 18.7073 23.0807C19.7227 22.659 20.6451 22.041 21.4221 21.2621C22.199 20.4831 22.8151 19.5585 23.2355 18.541C23.6559 17.5235 23.8722 16.433 23.8722 15.3318C23.8722 13.6733 23.3817 12.0519 22.4625 10.6726C21.5433 9.29328 20.2365 8.21794 18.7073 7.58286C17.1781 6.94776 15.4953 6.78156 13.8717 7.10536C12.2481 7.42915 10.7571 8.22832 9.58698 9.4015C8.41689 10.5747 7.62027 12.0691 7.29755 13.6958C6.97484 15.3225 7.14045 17.0086 7.77353 18.541C8.40662 20.0734 9.47885 21.3835 10.8549 22.3054Z" stroke="url(#paint0_linear)" stroke-width="1.5"/>
<defs>
<linearGradient id="paint0_linear" x1="14.3509" y1="93.7148" x2="23.8268" y2="-33.8677" gradientUnits="userSpaceOnUse">
<stop stop-color="#F3B341"/>
<stop offset="0.00561523" stop-color="#F3B341"/>
<stop offset="0.1991" stop-color="#EB8740"/>
<stop offset="0.33" stop-color="#E7663E"/>
<stop offset="0.66" stop-color="#DF3661"/>
<stop offset="0.7322" stop-color="#D33768"/>
<stop offset="0.8742" stop-color="#B4387A"/>
<stop offset="1" stop-color="#943A8C"/>
</linearGradient>
</defs>
</svg>
