<svg width="77" height="77" viewBox="0 0 77 77" fill="none" xmlns="http://www.w3.org/2000/svg">
<path d="M37.8901 36.247C37.8901 36.5832 38.1637 36.8548 38.5 36.8548C38.8363 36.8548 39.1101 36.5833 39.11 36.247C39.11 36.2469 39.11 36.2469 39.11 36.2469L39.11 22.8886C39.11 22.5524 38.8364 22.2808 38.5 22.2808C38.1637 22.2808 37.8901 22.5524 37.8901 22.8886V36.247Z" fill="url(#paint0_linear)" stroke="url(#paint1_linear)" stroke-width="0.25"/>
<path d="M23.5044 44.1331C23.5044 46.0662 25.0835 47.6379 27.0238 47.6379C29.0145 47.6379 30.7048 46.04 30.7048 44.1331C30.7048 42.1111 29.0531 40.4673 27.0238 40.4673C25.0464 40.4673 23.5044 42.0835 23.5044 44.1331ZM24.7242 44.1331C24.7242 42.7269 25.7176 41.683 27.0238 41.683C28.3814 41.683 29.485 42.7827 29.485 44.1331C29.485 45.3647 28.3649 46.4222 27.0238 46.4222C25.7328 46.4222 24.7242 45.4172 24.7242 44.1331Z" fill="url(#paint2_linear)" stroke="url(#paint3_linear)" stroke-width="0.25"/>
<path d="M46.2954 44.1331C46.2954 46.04 47.9859 47.6379 49.9764 47.6379C51.9166 47.6379 53.4958 46.0662 53.4958 44.1331C53.4958 42.0835 51.9537 40.4673 49.9764 40.4673C47.9471 40.4673 46.2954 42.1111 46.2954 44.1331ZM47.5152 44.1331C47.5152 42.7827 48.619 41.683 49.9764 41.683C51.2827 41.683 52.276 42.7269 52.276 44.1331C52.276 45.4172 51.2675 46.4222 49.9764 46.4222C48.6353 46.4222 47.5152 45.3647 47.5152 44.1331Z" fill="url(#paint4_linear)" stroke="url(#paint5_linear)" stroke-width="0.25"/>
<path d="M26.5238 28.1764L26.5238 28.1764C26.2436 28.3625 26.1674 28.7401 26.3546 29.0196C26.4723 29.1954 26.6658 29.2901 26.8624 29.2901C26.9786 29.2901 27.0962 29.257 27.2 29.1881L32.0491 25.9692L32.0491 25.9692C32.3293 25.7831 32.4055 25.4055 32.2183 25.126C32.0315 24.8468 31.6528 24.7718 31.3729 24.9575L31.3729 24.9575L26.5238 28.1764Z" fill="url(#paint6_linear)" stroke="url(#paint7_linear)" stroke-width="0.25"/>
<path d="M25.377 32.2264L25.377 32.2265L26.2184 32.4147L31.0675 29.3568L31.0675 29.3568C31.3521 29.1773 31.4371 28.8015 31.2566 28.5177L31.2566 28.5177C31.0762 28.2342 30.6998 28.15 30.4153 28.3294L30.4153 28.3294L25.5661 31.3873L25.5661 31.3873C25.2815 31.5669 25.1965 31.9427 25.377 32.2264Z" fill="url(#paint8_linear)" stroke="url(#paint9_linear)" stroke-width="0.25"/>
<path d="M45.7513 29.0197C45.869 29.1954 46.0626 29.2901 46.2591 29.2901C46.3752 29.2901 46.4928 29.2571 46.5967 29.1882L46.5967 29.1882L51.4459 25.9693C51.7263 25.7832 51.8023 25.4055 51.6151 25.1261C51.4281 24.8469 51.05 24.7717 50.7697 24.9575L50.7697 24.9576L45.9206 28.1764C45.9206 28.1764 45.9205 28.1764 45.9205 28.1764C45.6401 28.3625 45.5642 28.7402 45.7513 29.0197ZM45.7513 29.0197L45.8547 28.9505L45.7513 29.0197C45.7513 29.0197 45.7513 29.0197 45.7513 29.0197Z" fill="url(#paint10_linear)" stroke="url(#paint11_linear)" stroke-width="0.25"/>
<path d="M44.8086 31.383C44.5212 31.5582 44.4309 31.9327 44.6072 32.2192M44.8086 31.383L44.8737 31.4898L44.8086 31.3831L44.8086 31.383ZM44.8086 31.383L49.8192 28.3252M44.6072 32.2192L49.8845 28.4318M44.6072 32.2192C44.7225 32.4065 44.923 32.5093 45.1276 32.5093C45.2362 32.5093 45.3464 32.4803 45.4455 32.4197C45.4456 32.4197 45.4456 32.4196 45.4457 32.4196L50.4563 29.3618C50.7436 29.1866 50.834 28.8122 50.6577 28.5257C50.4817 28.2396 50.1058 28.1499 49.8192 28.3252M44.6072 32.2192L49.8845 28.4318M49.8192 28.3252L49.8845 28.4318M49.8192 28.3252L49.8193 28.3251L49.8845 28.4318" fill="url(#paint12_linear)" stroke="url(#paint13_linear)" stroke-width="0.25"/>
<mask id="path-8-outside-1" maskUnits="userSpaceOnUse" x="15.8403" y="9.65662" width="45" height="67" fill="black">
<rect fill="white" x="15.8403" y="9.65662" width="45" height="67"/>
<path fill-rule="evenodd" clip-rule="evenodd" d="M44.6422 15.0021H40.9246V18.3817H51.2694C54.6228 18.3817 57.4292 20.7587 58.0784 23.9094C58.1711 24.3595 58.2198 24.8253 58.2198 25.3023V36.2465V49.283V50.7315C58.2198 54.5475 55.1019 57.6521 51.2694 57.6521H48.031L52.26 63.3206C52.4241 63.387 52.5435 63.5404 52.5604 63.7233L60.0637 73.7805C60.2234 73.9946 60.1786 74.297 59.9636 74.456C59.8768 74.5202 59.7753 74.5513 59.6748 74.5513C59.5267 74.5513 59.3804 74.4838 59.2852 74.3564L57.6297 72.1374H20.2354L17.7256 75.7898C17.6317 75.9263 17.4796 75.9998 17.3249 75.9998C17.2306 75.9998 17.1353 75.9725 17.0515 75.9155C16.8304 75.7648 16.7738 75.4645 16.9251 75.2443L29.0138 57.6521H25.7306C21.8982 57.6521 18.7802 54.5475 18.7802 50.7315V49.283V36.2465V25.3023C18.7802 21.4864 21.8982 18.3817 25.7306 18.3817H36.0754V15.0021H32.3577C32.0899 15.0021 31.8728 14.786 31.8728 14.5193V11.1394C31.8728 10.8728 32.0899 10.6566 32.3577 10.6566H44.6422C44.91 10.6566 45.1271 10.8728 45.1271 11.1394V14.5193C45.1271 14.786 44.91 15.0021 44.6422 15.0021ZM20.8989 71.1717H56.9093L54.6274 68.1132L23.2199 67.7941L20.8989 71.1717ZM23.8789 66.835L53.9014 67.14L51.746 64.251H25.6546L23.8789 66.835ZM49.3436 61.0309L51.0256 63.2853H26.3182L27.9773 60.8707C27.9815 60.8709 27.9857 60.871 27.9899 60.871L49.3436 61.0309ZM48.6191 60.0597L28.6374 59.9101L30.189 57.6521H46.8229L48.6191 60.0597ZM39.9547 18.3817H37.0453V15.0021H39.9547V18.3817ZM36.5459 19.3474H25.7306C22.8451 19.3474 20.4303 21.3927 19.8717 24.1037C19.7919 24.491 19.75 24.8919 19.75 25.3023V35.7637H57.25V25.3023C57.25 22.0188 54.5672 19.3474 51.2694 19.3474H40.4541L40.4397 19.3476H36.5604L36.5459 19.3474ZM32.8426 14.0364H44.1573V11.6223H32.8426V14.0364ZM57.25 36.7294V48.8002H19.75V36.7294H57.25ZM57.25 50.7315V49.7659H19.75V50.7315C19.75 54.0151 22.4329 56.6865 25.7306 56.6865H51.2694C54.5672 56.6865 57.25 54.0151 57.25 50.7315Z"/>
</mask>
<path fill-rule="evenodd" clip-rule="evenodd" d="M44.6422 15.0021H40.9246V18.3817H51.2694C54.6228 18.3817 57.4292 20.7587 58.0784 23.9094C58.1711 24.3595 58.2198 24.8253 58.2198 25.3023V36.2465V49.283V50.7315C58.2198 54.5475 55.1019 57.6521 51.2694 57.6521H48.031L52.26 63.3206C52.4241 63.387 52.5435 63.5404 52.5604 63.7233L60.0637 73.7805C60.2234 73.9946 60.1786 74.297 59.9636 74.456C59.8768 74.5202 59.7753 74.5513 59.6748 74.5513C59.5267 74.5513 59.3804 74.4838 59.2852 74.3564L57.6297 72.1374H20.2354L17.7256 75.7898C17.6317 75.9263 17.4796 75.9998 17.3249 75.9998C17.2306 75.9998 17.1353 75.9725 17.0515 75.9155C16.8304 75.7648 16.7738 75.4645 16.9251 75.2443L29.0138 57.6521H25.7306C21.8982 57.6521 18.7802 54.5475 18.7802 50.7315V49.283V36.2465V25.3023C18.7802 21.4864 21.8982 18.3817 25.7306 18.3817H36.0754V15.0021H32.3577C32.0899 15.0021 31.8728 14.786 31.8728 14.5193V11.1394C31.8728 10.8728 32.0899 10.6566 32.3577 10.6566H44.6422C44.91 10.6566 45.1271 10.8728 45.1271 11.1394V14.5193C45.1271 14.786 44.91 15.0021 44.6422 15.0021ZM20.8989 71.1717H56.9093L54.6274 68.1132L23.2199 67.7941L20.8989 71.1717ZM23.8789 66.835L53.9014 67.14L51.746 64.251H25.6546L23.8789 66.835ZM49.3436 61.0309L51.0256 63.2853H26.3182L27.9773 60.8707C27.9815 60.8709 27.9857 60.871 27.9899 60.871L49.3436 61.0309ZM48.6191 60.0597L28.6374 59.9101L30.189 57.6521H46.8229L48.6191 60.0597ZM39.9547 18.3817H37.0453V15.0021H39.9547V18.3817ZM36.5459 19.3474H25.7306C22.8451 19.3474 20.4303 21.3927 19.8717 24.1037C19.7919 24.491 19.75 24.8919 19.75 25.3023V35.7637H57.25V25.3023C57.25 22.0188 54.5672 19.3474 51.2694 19.3474H40.4541L40.4397 19.3476H36.5604L36.5459 19.3474ZM32.8426 14.0364H44.1573V11.6223H32.8426V14.0364ZM57.25 36.7294V48.8002H19.75V36.7294H57.25ZM57.25 50.7315V49.7659H19.75V50.7315C19.75 54.0151 22.4329 56.6865 25.7306 56.6865H51.2694C54.5672 56.6865 57.25 54.0151 57.25 50.7315Z" fill="url(#paint14_linear)"/>
<path d="M40.9246 15.0021V14.7521H40.6746V15.0021H40.9246ZM40.9246 18.3817H40.6746V18.6317H40.9246V18.3817ZM58.0784 23.9094L57.8335 23.9598L58.0784 23.9094ZM48.031 57.6521V57.4021H47.5325L47.8306 57.8016L48.031 57.6521ZM52.26 63.3206L52.0596 63.4701L52.1014 63.5262L52.1662 63.5524L52.26 63.3206ZM52.5604 63.7233L52.3115 63.7463L52.3179 63.8164L52.36 63.8728L52.5604 63.7233ZM60.0637 73.7805L59.8633 73.93V73.93L60.0637 73.7805ZM59.9636 74.456L59.815 74.255L59.8149 74.255L59.9636 74.456ZM59.2852 74.3564L59.0849 74.5059L59.0849 74.506L59.2852 74.3564ZM57.6297 72.1374L57.8301 71.9879L57.7551 71.8874H57.6297V72.1374ZM20.2354 72.1374V71.8874H20.1038L20.0293 71.9958L20.2354 72.1374ZM17.7256 75.7898L17.9315 75.9315L17.9316 75.9314L17.7256 75.7898ZM17.0515 75.9155L16.9108 76.1221L16.9109 76.1222L17.0515 75.9155ZM16.9251 75.2443L17.1312 75.3859H17.1312L16.9251 75.2443ZM29.0138 57.6521L29.2198 57.7937L29.4889 57.4021H29.0138V57.6521ZM36.0754 18.3817V18.6317H36.3254V18.3817H36.0754ZM36.0754 15.0021H36.3254V14.7521H36.0754V15.0021ZM56.9093 71.1717V71.4217H57.4077L57.1097 71.0222L56.9093 71.1717ZM20.8989 71.1717L20.6929 71.0301L20.4238 71.4217H20.8989V71.1717ZM54.6274 68.1132L54.8278 67.9637L54.7538 67.8644L54.63 67.8632L54.6274 68.1132ZM23.2199 67.7941L23.2225 67.5441L23.0893 67.5427L23.0139 67.6525L23.2199 67.7941ZM53.9014 67.14L53.8989 67.39L54.4037 67.3951L54.1018 66.9905L53.9014 67.14ZM23.8789 66.835L23.6729 66.6934L23.4071 67.0802L23.8764 67.085L23.8789 66.835ZM51.746 64.251L51.9464 64.1015L51.8714 64.001H51.746V64.251ZM25.6546 64.251V64.001H25.523L25.4485 64.1094L25.6546 64.251ZM51.0256 63.2853V63.5353H51.524L51.2259 63.1358L51.0256 63.2853ZM49.3436 61.0309L49.544 60.8814L49.4697 60.7818L49.3455 60.7809L49.3436 61.0309ZM26.3182 63.2853L26.1121 63.1437L25.843 63.5353H26.3182V63.2853ZM27.9773 60.8707L27.9855 60.6209L27.8488 60.6164L27.7713 60.7292L27.9773 60.8707ZM27.9899 60.871L27.9879 61.121L27.988 61.121L27.9899 60.871ZM28.6374 59.9101L28.4314 59.7685L28.1647 60.1566L28.6356 60.1601L28.6374 59.9101ZM48.6191 60.0597L48.6172 60.3097L49.1203 60.3135L48.8195 59.9102L48.6191 60.0597ZM30.189 57.6521V57.4021H30.0575L29.983 57.5105L30.189 57.6521ZM46.8229 57.6521L47.0233 57.5026L46.9483 57.4021H46.8229V57.6521ZM37.0453 18.3817H36.7953V18.6317H37.0453V18.3817ZM39.9547 18.3817V18.6317H40.2047V18.3817H39.9547ZM37.0453 15.0021V14.7521H36.7953V15.0021H37.0453ZM39.9547 15.0021H40.2047V14.7521H39.9547V15.0021ZM36.5459 19.3474L36.5495 19.0974H36.5459V19.3474ZM19.8717 24.1037L20.1166 24.1542L19.8717 24.1037ZM19.75 35.7637H19.5V36.0137H19.75V35.7637ZM57.25 35.7637V36.0137H57.5V35.7637H57.25ZM40.4541 19.3474V19.0974L40.4505 19.0974L40.4541 19.3474ZM40.4397 19.3476V19.5976L40.4433 19.5976L40.4397 19.3476ZM36.5604 19.3476L36.5567 19.5976H36.5604V19.3476ZM44.1573 14.0364V14.2864H44.4073V14.0364H44.1573ZM32.8426 14.0364H32.5926V14.2864H32.8426V14.0364ZM44.1573 11.6223H44.4073V11.3723H44.1573V11.6223ZM32.8426 11.6223V11.3723H32.5926V11.6223H32.8426ZM57.25 48.8002V49.0502H57.5V48.8002H57.25ZM57.25 36.7294H57.5V36.4794H57.25V36.7294ZM19.75 48.8002H19.5V49.0502H19.75V48.8002ZM19.75 36.7294V36.4794H19.5V36.7294H19.75ZM57.25 49.7659H57.5V49.5159H57.25V49.7659ZM19.75 49.7659V49.5159H19.5V49.7659H19.75ZM40.9246 15.2521H44.6422V14.7521H40.9246V15.2521ZM41.1746 18.3817V15.0021H40.6746V18.3817H41.1746ZM51.2694 18.1317H40.9246V18.6317H51.2694V18.1317ZM58.3232 23.8589C57.6505 20.5939 54.7433 18.1317 51.2694 18.1317V18.6317C54.5023 18.6317 57.2079 20.9235 57.8335 23.9598L58.3232 23.8589ZM58.4698 25.3023C58.4698 24.8083 58.4194 24.3255 58.3232 23.8589L57.8335 23.9598C57.9229 24.3934 57.9698 24.8424 57.9698 25.3023H58.4698ZM58.4698 36.2465V25.3023H57.9698V36.2465H58.4698ZM58.4698 49.283V36.2465H57.9698V49.283H58.4698ZM58.4698 50.7315V49.283H57.9698V50.7315H58.4698ZM51.2694 57.9021C55.2389 57.9021 58.4698 54.6866 58.4698 50.7315H57.9698C57.9698 54.4084 54.9648 57.4021 51.2694 57.4021V57.9021ZM48.031 57.9021H51.2694V57.4021H48.031V57.9021ZM52.4604 63.1711L48.2313 57.5026L47.8306 57.8016L52.0596 63.4701L52.4604 63.1711ZM52.8093 63.7002C52.7835 63.4214 52.6019 63.1893 52.3538 63.0889L52.1662 63.5524C52.2464 63.5848 52.3034 63.6594 52.3115 63.7463L52.8093 63.7002ZM60.2641 73.631L52.7608 63.5738L52.36 63.8728L59.8633 73.93L60.2641 73.631ZM60.1123 74.657C60.4384 74.4158 60.5067 73.9563 60.2641 73.631L59.8633 73.93C59.94 74.0329 59.9188 74.1782 59.815 74.255L60.1123 74.657ZM59.6748 74.8013C59.8269 74.8013 59.981 74.7542 60.1123 74.657L59.8149 74.255C59.7727 74.2863 59.7237 74.3013 59.6748 74.3013V74.8013ZM59.0849 74.506C59.2294 74.6994 59.4514 74.8013 59.6748 74.8013V74.3013C59.6021 74.3013 59.5315 74.2683 59.4855 74.2068L59.0849 74.506ZM57.4294 72.2869L59.0849 74.5059L59.4856 74.2069L57.8301 71.9879L57.4294 72.2869ZM20.2354 72.3874H57.6297V71.8874H20.2354V72.3874ZM17.9316 75.9314L20.4414 72.279L20.0293 71.9958L17.5195 75.6482L17.9316 75.9314ZM17.3249 76.2498C17.558 76.2498 17.7888 76.1389 17.9315 75.9315L17.5196 75.6481C17.4745 75.7137 17.4011 75.7498 17.3249 75.7498V76.2498ZM16.9109 76.1222C17.0374 76.2083 17.1821 76.2498 17.3249 76.2498V75.7498C17.2792 75.7498 17.2331 75.7367 17.1922 75.7088L16.9109 76.1222ZM16.7191 75.1028C16.4892 75.4374 16.5756 75.8937 16.9108 76.1221L17.1923 75.7089C17.0853 75.636 17.0585 75.4917 17.1312 75.3859L16.7191 75.1028ZM28.8078 57.5105L16.7191 75.1028L17.1312 75.3859L29.2198 57.7937L28.8078 57.5105ZM25.7306 57.9021H29.0138V57.4021H25.7306V57.9021ZM18.5302 50.7315C18.5302 54.6866 21.7611 57.9021 25.7306 57.9021V57.4021C22.0352 57.4021 19.0302 54.4084 19.0302 50.7315H18.5302ZM18.5302 49.283V50.7315H19.0302V49.283H18.5302ZM18.5302 36.2465V49.283H19.0302V36.2465H18.5302ZM18.5302 25.3023V36.2465H19.0302V25.3023H18.5302ZM25.7306 18.1317C21.7611 18.1317 18.5302 21.3473 18.5302 25.3023H19.0302C19.0302 21.6254 22.0352 18.6317 25.7306 18.6317V18.1317ZM36.0754 18.1317H25.7306V18.6317H36.0754V18.1317ZM35.8254 15.0021V18.3817H36.3254V15.0021H35.8254ZM32.3577 15.2521H36.0754V14.7521H32.3577V15.2521ZM31.6228 14.5193C31.6228 14.925 31.9528 15.2521 32.3577 15.2521V14.7521C32.2269 14.7521 32.1228 14.6469 32.1228 14.5193H31.6228ZM31.6228 11.1394V14.5193H32.1228V11.1394H31.6228ZM32.3577 10.4066C31.9528 10.4066 31.6228 10.7337 31.6228 11.1394H32.1228C32.1228 11.0118 32.2269 10.9066 32.3577 10.9066V10.4066ZM44.6422 10.4066H32.3577V10.9066H44.6422V10.4066ZM45.3771 11.1394C45.3771 10.7337 45.0471 10.4066 44.6422 10.4066V10.9066C44.773 10.9066 44.8771 11.0118 44.8771 11.1394H45.3771ZM45.3771 14.5193V11.1394H44.8771V14.5193H45.3771ZM44.6422 15.2521C45.0471 15.2521 45.3771 14.925 45.3771 14.5193H44.8771C44.8771 14.6469 44.773 14.7521 44.6422 14.7521V15.2521ZM56.9093 70.9217H20.8989V71.4217H56.9093V70.9217ZM54.4271 68.2627L56.7089 71.3212L57.1097 71.0222L54.8278 67.9637L54.4271 68.2627ZM23.2174 68.044L54.6249 68.3632L54.63 67.8632L23.2225 67.5441L23.2174 68.044ZM21.105 71.3133L23.426 67.9356L23.0139 67.6525L20.6929 71.0301L21.105 71.3133ZM53.904 66.89L23.8815 66.585L23.8764 67.085L53.8989 67.39L53.904 66.89ZM51.5456 64.4004L53.701 67.2895L54.1018 66.9905L51.9464 64.1015L51.5456 64.4004ZM25.6546 64.501H51.746V64.001H25.6546V64.501ZM24.085 66.9766L25.8606 64.3925L25.4485 64.1094L23.6729 66.6934L24.085 66.9766ZM51.2259 63.1358L49.544 60.8814L49.1432 61.1804L50.8252 63.4348L51.2259 63.1358ZM26.3182 63.5353H51.0256V63.0353H26.3182V63.5353ZM27.7713 60.7292L26.1121 63.1437L26.5242 63.4269L28.1834 61.0123L27.7713 60.7292ZM27.992 60.621C27.9897 60.621 27.9876 60.6209 27.9855 60.6209L27.9691 61.1206C27.9754 61.1208 27.9817 61.1209 27.9879 61.121L27.992 60.621ZM49.3455 60.7809L27.9918 60.621L27.988 61.121L49.3417 61.2809L49.3455 60.7809ZM28.6356 60.1601L48.6172 60.3097L48.621 59.8097L28.6393 59.6601L28.6356 60.1601ZM29.983 57.5105L28.4314 59.7685L28.8435 60.0517L30.3951 57.7937L29.983 57.5105ZM46.8229 57.4021H30.189V57.9021H46.8229V57.4021ZM48.8195 59.9102L47.0233 57.5026L46.6225 57.8016L48.4187 60.2092L48.8195 59.9102ZM37.0453 18.6317H39.9547V18.1317H37.0453V18.6317ZM36.7953 15.0021V18.3817H37.2953V15.0021H36.7953ZM39.9547 14.7521H37.0453V15.2521H39.9547V14.7521ZM40.2047 18.3817V15.0021H39.7047V18.3817H40.2047ZM25.7306 19.5974H36.5459V19.0974H25.7306V19.5974ZM20.1166 24.1542C20.6516 21.5575 22.9656 19.5974 25.7306 19.5974V19.0974C22.7247 19.0974 20.2091 21.2278 19.6269 24.0533L20.1166 24.1542ZM20 25.3023C20 24.909 20.0402 24.525 20.1166 24.1542L19.6269 24.0533C19.5437 24.457 19.5 24.8748 19.5 25.3023H20ZM20 35.7637V25.3023H19.5V35.7637H20ZM57.25 35.5137H19.75V36.0137H57.25V35.5137ZM57 25.3023V35.7637H57.5V25.3023H57ZM51.2694 19.5974C54.4301 19.5974 57 22.1578 57 25.3023H57.5C57.5 21.8797 54.7042 19.0974 51.2694 19.0974V19.5974ZM40.4541 19.5974H51.2694V19.0974H40.4541V19.5974ZM40.4433 19.5976L40.4577 19.5974L40.4505 19.0974L40.436 19.0976L40.4433 19.5976ZM36.5604 19.5976H40.4397V19.0976H36.5604V19.5976ZM36.5423 19.5974L36.5567 19.5976L36.564 19.0976L36.5495 19.0974L36.5423 19.5974ZM44.1573 13.7864H32.8426V14.2864H44.1573V13.7864ZM43.9073 11.6223V14.0364H44.4073V11.6223H43.9073ZM32.8426 11.8723H44.1573V11.3723H32.8426V11.8723ZM33.0926 14.0364V11.6223H32.5926V14.0364H33.0926ZM57.5 48.8002V36.7294H57V48.8002H57.5ZM19.75 49.0502H57.25V48.5502H19.75V49.0502ZM19.5 36.7294V48.8002H20V36.7294H19.5ZM57.25 36.4794H19.75V36.9794H57.25V36.4794ZM57 49.7659V50.7315H57.5V49.7659H57ZM19.75 50.0159H57.25V49.5159H19.75V50.0159ZM20 50.7315V49.7659H19.5V50.7315H20ZM25.7306 56.4365C22.5699 56.4365 20 53.876 20 50.7315H19.5C19.5 54.1542 22.2958 56.9365 25.7306 56.9365V56.4365ZM51.2694 56.4365H25.7306V56.9365H51.2694V56.4365ZM57 50.7315C57 53.876 54.4301 56.4365 51.2694 56.4365V56.9365C54.7042 56.9365 57.5 54.1542 57.5 50.7315H57Z" fill="url(#paint15_linear)" mask="url(#path-8-outside-1)"/>
<path d="M53.1592 66.314L53.1592 66.314C52.997 66.0194 53.1054 65.6498 53.4008 65.4884L53.4607 65.5982L53.4008 65.4884C63.5751 59.933 69.8942 49.4062 69.8942 38.0173C69.8942 20.7816 55.8111 6.75818 38.4998 6.75818C21.1885 6.75818 7.10541 20.7816 7.10541 38.0173C7.10541 49.6843 13.6052 60.2694 24.0701 65.6422C24.0701 65.6422 24.0701 65.6423 24.0701 65.6423L24.013 65.7535L53.1592 66.314ZM53.1592 66.314C53.3213 66.6081 53.6919 66.7158 53.9869 66.5546L53.1592 66.314ZM5.88574 38.0171C5.88574 50.1417 12.6402 61.1412 23.5116 66.7227L53.987 66.5546C64.5506 60.7864 71.1142 49.852 71.1142 38.0171C71.1142 20.1098 56.4832 5.54236 38.5 5.54236C20.5168 5.54236 5.88574 20.1098 5.88574 38.0171Z" fill="url(#paint16_linear)" stroke="url(#paint17_linear)" stroke-width="0.25"/>
<path d="M56.6237 69.6783C56.3315 69.8451 56.23 70.2168 56.3979 70.5083C56.5107 70.7044 56.7164 70.8138 56.9273 70.8138C57.0303 70.8138 57.1346 70.7876 57.2298 70.7333L57.2299 70.7333C68.8847 64.0776 76.1251 51.6652 76.1251 38.3389C76.1251 38.0026 75.8515 37.731 75.5152 37.731C75.1788 37.731 74.9052 38.0026 74.9052 38.3389C74.9052 51.2296 67.9005 63.2386 56.6237 69.6783ZM56.6237 69.6783L56.6856 69.7869L56.6236 69.6783C56.6236 69.6783 56.6237 69.6783 56.6237 69.6783Z" fill="url(#paint18_linear)" stroke="url(#paint19_linear)" stroke-width="0.25"/>
<path d="M0.875 38.3391C0.875 38.6753 1.14855 38.9469 1.48491 38.9469C1.82128 38.9469 2.09483 38.6753 2.09483 38.3391C2.09483 18.3522 18.4257 2.09067 38.5 2.09067C38.8362 2.09067 39.1099 1.81909 39.1099 1.48283C39.1099 1.14661 38.8364 0.875 38.5 0.875C28.4698 0.875 19.0314 4.76048 11.9247 11.8153C4.79931 18.8887 0.875 28.3087 0.875 38.3391Z" fill="url(#paint20_linear)" stroke="url(#paint21_linear)" stroke-width="0.25"/>
<defs>
<linearGradient id="paint0_linear" x1="38.4628" y1="50.1693" x2="56.3173" y2="24.1278" gradientUnits="userSpaceOnUse">
<stop stop-color="#F3B341"/>
<stop offset="0.00561523" stop-color="#F3B341"/>
<stop offset="0.1991" stop-color="#EB8740"/>
<stop offset="0.33" stop-color="#E7663E"/>
<stop offset="0.66" stop-color="#DF3661"/>
<stop offset="0.7322" stop-color="#D33768"/>
<stop offset="0.8742" stop-color="#B4387A"/>
<stop offset="1" stop-color="#943A8C"/>
</linearGradient>
<linearGradient id="paint1_linear" x1="38.4628" y1="50.1693" x2="56.3173" y2="24.1278" gradientUnits="userSpaceOnUse">
<stop stop-color="#F3B341"/>
<stop offset="0.00561523" stop-color="#F3B341"/>
<stop offset="0.1991" stop-color="#EB8740"/>
<stop offset="0.33" stop-color="#E7663E"/>
<stop offset="0.66" stop-color="#DF3661"/>
<stop offset="0.7322" stop-color="#D33768"/>
<stop offset="0.8742" stop-color="#B4387A"/>
<stop offset="1" stop-color="#943A8C"/>
</linearGradient>
<linearGradient id="paint2_linear" x1="26.8373" y1="54.0061" x2="27.6904" y2="35.5493" gradientUnits="userSpaceOnUse">
<stop stop-color="#F3B341"/>
<stop offset="0.00561523" stop-color="#F3B341"/>
<stop offset="0.1991" stop-color="#EB8740"/>
<stop offset="0.33" stop-color="#E7663E"/>
<stop offset="0.66" stop-color="#DF3661"/>
<stop offset="0.7322" stop-color="#D33768"/>
<stop offset="0.8742" stop-color="#B4387A"/>
<stop offset="1" stop-color="#943A8C"/>
</linearGradient>
<linearGradient id="paint3_linear" x1="26.8373" y1="54.0061" x2="27.6904" y2="35.5493" gradientUnits="userSpaceOnUse">
<stop stop-color="#F3B341"/>
<stop offset="0.00561523" stop-color="#F3B341"/>
<stop offset="0.1991" stop-color="#EB8740"/>
<stop offset="0.33" stop-color="#E7663E"/>
<stop offset="0.66" stop-color="#DF3661"/>
<stop offset="0.7322" stop-color="#D33768"/>
<stop offset="0.8742" stop-color="#B4387A"/>
<stop offset="1" stop-color="#943A8C"/>
</linearGradient>
<linearGradient id="paint4_linear" x1="49.6284" y1="54.0061" x2="50.4815" y2="35.5493" gradientUnits="userSpaceOnUse">
<stop stop-color="#F3B341"/>
<stop offset="0.00561523" stop-color="#F3B341"/>
<stop offset="0.1991" stop-color="#EB8740"/>
<stop offset="0.33" stop-color="#E7663E"/>
<stop offset="0.66" stop-color="#DF3661"/>
<stop offset="0.7322" stop-color="#D33768"/>
<stop offset="0.8742" stop-color="#B4387A"/>
<stop offset="1" stop-color="#943A8C"/>
</linearGradient>
<linearGradient id="paint5_linear" x1="49.6284" y1="54.0061" x2="50.4815" y2="35.5493" gradientUnits="userSpaceOnUse">
<stop stop-color="#F3B341"/>
<stop offset="0.00561523" stop-color="#F3B341"/>
<stop offset="0.1991" stop-color="#EB8740"/>
<stop offset="0.33" stop-color="#E7663E"/>
<stop offset="0.66" stop-color="#DF3661"/>
<stop offset="0.7322" stop-color="#D33768"/>
<stop offset="0.8742" stop-color="#B4387A"/>
<stop offset="1" stop-color="#943A8C"/>
</linearGradient>
<linearGradient id="paint6_linear" x1="29.0627" y1="33.0911" x2="29.4356" y2="21.92" gradientUnits="userSpaceOnUse">
<stop stop-color="#F3B341"/>
<stop offset="0.00561523" stop-color="#F3B341"/>
<stop offset="0.1991" stop-color="#EB8740"/>
<stop offset="0.33" stop-color="#E7663E"/>
<stop offset="0.66" stop-color="#DF3661"/>
<stop offset="0.7322" stop-color="#D33768"/>
<stop offset="0.8742" stop-color="#B4387A"/>
<stop offset="1" stop-color="#943A8C"/>
</linearGradient>
<linearGradient id="paint7_linear" x1="29.0627" y1="33.0911" x2="29.4356" y2="21.92" gradientUnits="userSpaceOnUse">
<stop stop-color="#F3B341"/>
<stop offset="0.00561523" stop-color="#F3B341"/>
<stop offset="0.1991" stop-color="#EB8740"/>
<stop offset="0.33" stop-color="#E7663E"/>
<stop offset="0.66" stop-color="#DF3661"/>
<stop offset="0.7322" stop-color="#D33768"/>
<stop offset="0.8742" stop-color="#B4387A"/>
<stop offset="1" stop-color="#943A8C"/>
</linearGradient>
<linearGradient id="paint8_linear" x1="28.093" y1="36.1595" x2="28.4379" y2="25.4161" gradientUnits="userSpaceOnUse">
<stop stop-color="#F3B341"/>
<stop offset="0.00561523" stop-color="#F3B341"/>
<stop offset="0.1991" stop-color="#EB8740"/>
<stop offset="0.33" stop-color="#E7663E"/>
<stop offset="0.66" stop-color="#DF3661"/>
<stop offset="0.7322" stop-color="#D33768"/>
<stop offset="0.8742" stop-color="#B4387A"/>
<stop offset="1" stop-color="#943A8C"/>
</linearGradient>
<linearGradient id="paint9_linear" x1="28.093" y1="36.1595" x2="28.4379" y2="25.4161" gradientUnits="userSpaceOnUse">
<stop stop-color="#F3B341"/>
<stop offset="0.00561523" stop-color="#F3B341"/>
<stop offset="0.1991" stop-color="#EB8740"/>
<stop offset="0.33" stop-color="#E7663E"/>
<stop offset="0.66" stop-color="#DF3661"/>
<stop offset="0.7322" stop-color="#D33768"/>
<stop offset="0.8742" stop-color="#B4387A"/>
<stop offset="1" stop-color="#943A8C"/>
</linearGradient>
<linearGradient id="paint10_linear" x1="48.4594" y1="33.0913" x2="48.8324" y2="21.92" gradientUnits="userSpaceOnUse">
<stop stop-color="#F3B341"/>
<stop offset="0.00561523" stop-color="#F3B341"/>
<stop offset="0.1991" stop-color="#EB8740"/>
<stop offset="0.33" stop-color="#E7663E"/>
<stop offset="0.66" stop-color="#DF3661"/>
<stop offset="0.7322" stop-color="#D33768"/>
<stop offset="0.8742" stop-color="#B4387A"/>
<stop offset="1" stop-color="#943A8C"/>
</linearGradient>
<linearGradient id="paint11_linear" x1="48.4594" y1="33.0913" x2="48.8324" y2="21.92" gradientUnits="userSpaceOnUse">
<stop stop-color="#F3B341"/>
<stop offset="0.00561523" stop-color="#F3B341"/>
<stop offset="0.1991" stop-color="#EB8740"/>
<stop offset="0.33" stop-color="#E7663E"/>
<stop offset="0.66" stop-color="#DF3661"/>
<stop offset="0.7322" stop-color="#D33768"/>
<stop offset="0.8742" stop-color="#B4387A"/>
<stop offset="1" stop-color="#943A8C"/>
</linearGradient>
<linearGradient id="paint12_linear" x1="47.4025" y1="36.1595" x2="47.738" y2="25.4161" gradientUnits="userSpaceOnUse">
<stop stop-color="#F3B341"/>
<stop offset="0.00561523" stop-color="#F3B341"/>
<stop offset="0.1991" stop-color="#EB8740"/>
<stop offset="0.33" stop-color="#E7663E"/>
<stop offset="0.66" stop-color="#DF3661"/>
<stop offset="0.7322" stop-color="#D33768"/>
<stop offset="0.8742" stop-color="#B4387A"/>
<stop offset="1" stop-color="#943A8C"/>
</linearGradient>
<linearGradient id="paint13_linear" x1="47.4025" y1="36.1595" x2="47.738" y2="25.4161" gradientUnits="userSpaceOnUse">
<stop stop-color="#F3B341"/>
<stop offset="0.00561523" stop-color="#F3B341"/>
<stop offset="0.1991" stop-color="#EB8740"/>
<stop offset="0.33" stop-color="#E7663E"/>
<stop offset="0.66" stop-color="#DF3661"/>
<stop offset="0.7322" stop-color="#D33768"/>
<stop offset="0.8742" stop-color="#B4387A"/>
<stop offset="1" stop-color="#943A8C"/>
</linearGradient>
<linearGradient id="paint14_linear" x1="36.8341" y1="137.308" x2="49.0029" y2="-36.4783" gradientUnits="userSpaceOnUse">
<stop stop-color="#F3B341"/>
<stop offset="0.00561523" stop-color="#F3B341"/>
<stop offset="0.1991" stop-color="#EB8740"/>
<stop offset="0.33" stop-color="#E7663E"/>
<stop offset="0.66" stop-color="#DF3661"/>
<stop offset="0.7322" stop-color="#D33768"/>
<stop offset="0.8742" stop-color="#B4387A"/>
<stop offset="1" stop-color="#943A8C"/>
</linearGradient>
<linearGradient id="paint15_linear" x1="36.8341" y1="137.308" x2="49.0029" y2="-36.4783" gradientUnits="userSpaceOnUse">
<stop stop-color="#F3B341"/>
<stop offset="0.00561523" stop-color="#F3B341"/>
<stop offset="0.1991" stop-color="#EB8740"/>
<stop offset="0.33" stop-color="#E7663E"/>
<stop offset="0.66" stop-color="#DF3661"/>
<stop offset="0.7322" stop-color="#D33768"/>
<stop offset="0.8742" stop-color="#B4387A"/>
<stop offset="1" stop-color="#943A8C"/>
</linearGradient>
<linearGradient id="paint16_linear" x1="36.0013" y1="123.897" x2="43.092" y2="-38.8196" gradientUnits="userSpaceOnUse">
<stop stop-color="#F3B341"/>
<stop offset="0.00561523" stop-color="#F3B341"/>
<stop offset="0.1991" stop-color="#EB8740"/>
<stop offset="0.33" stop-color="#E7663E"/>
<stop offset="0.66" stop-color="#DF3661"/>
<stop offset="0.7322" stop-color="#D33768"/>
<stop offset="0.8742" stop-color="#B4387A"/>
<stop offset="1" stop-color="#943A8C"/>
</linearGradient>
<linearGradient id="paint17_linear" x1="36.0013" y1="123.897" x2="43.092" y2="-38.8196" gradientUnits="userSpaceOnUse">
<stop stop-color="#F3B341"/>
<stop offset="0.00561523" stop-color="#F3B341"/>
<stop offset="0.1991" stop-color="#EB8740"/>
<stop offset="0.33" stop-color="#E7663E"/>
<stop offset="0.66" stop-color="#DF3661"/>
<stop offset="0.7322" stop-color="#D33768"/>
<stop offset="0.8742" stop-color="#B4387A"/>
<stop offset="1" stop-color="#943A8C"/>
</linearGradient>
<linearGradient id="paint18_linear" x1="65.4689" y1="101.494" x2="72.2657" y2="14.2738" gradientUnits="userSpaceOnUse">
<stop stop-color="#F3B341"/>
<stop offset="0.00561523" stop-color="#F3B341"/>
<stop offset="0.1991" stop-color="#EB8740"/>
<stop offset="0.33" stop-color="#E7663E"/>
<stop offset="0.66" stop-color="#DF3661"/>
<stop offset="0.7322" stop-color="#D33768"/>
<stop offset="0.8742" stop-color="#B4387A"/>
<stop offset="1" stop-color="#943A8C"/>
</linearGradient>
<linearGradient id="paint19_linear" x1="65.4689" y1="101.494" x2="72.2657" y2="14.2738" gradientUnits="userSpaceOnUse">
<stop stop-color="#F3B341"/>
<stop offset="0.00561523" stop-color="#F3B341"/>
<stop offset="0.1991" stop-color="#EB8740"/>
<stop offset="0.33" stop-color="#E7663E"/>
<stop offset="0.66" stop-color="#DF3661"/>
<stop offset="0.7322" stop-color="#D33768"/>
<stop offset="0.8742" stop-color="#B4387A"/>
<stop offset="1" stop-color="#943A8C"/>
</linearGradient>
<linearGradient id="paint20_linear" x1="18.5318" y1="74.3082" x2="23.1941" y2="-26.5603" gradientUnits="userSpaceOnUse">
<stop stop-color="#F3B341"/>
<stop offset="0.00561523" stop-color="#F3B341"/>
<stop offset="0.1991" stop-color="#EB8740"/>
<stop offset="0.33" stop-color="#E7663E"/>
<stop offset="0.66" stop-color="#DF3661"/>
<stop offset="0.7322" stop-color="#D33768"/>
<stop offset="0.8742" stop-color="#B4387A"/>
<stop offset="1" stop-color="#943A8C"/>
</linearGradient>
<linearGradient id="paint21_linear" x1="18.5318" y1="74.3082" x2="23.1941" y2="-26.5603" gradientUnits="userSpaceOnUse">
<stop stop-color="#F3B341"/>
<stop offset="0.00561523" stop-color="#F3B341"/>
<stop offset="0.1991" stop-color="#EB8740"/>
<stop offset="0.33" stop-color="#E7663E"/>
<stop offset="0.66" stop-color="#DF3661"/>
<stop offset="0.7322" stop-color="#D33768"/>
<stop offset="0.8742" stop-color="#B4387A"/>
<stop offset="1" stop-color="#943A8C"/>
</linearGradient>
</defs>
</svg>
