<svg xmlns="http://www.w3.org/2000/svg" width="14.89" height="23.937" viewBox="0 0 14.89 23.937">
    <defs>
        <style>
            .cls-1{fill:#fff}
        </style>
    </defs>
    <path id="iconfinder_arrow-right-01_186409" d="M24.291 14.276L14.7 4.69a2.267 2.267 0 0 0-3.195 0l-.8.8a2.266 2.266 0 0 0 0 3.194L18.024 16l-7.315 7.315a2.266 2.266 0 0 0 0 3.194l.8.8a2.265 2.265 0 0 0 3.195 0l9.586-9.587A2.241 2.241 0 0 0 24.937 16a2.239 2.239 0 0 0-.646-1.724z" class="cls-1" transform="translate(-10.051 -4.031)"/>
</svg>
