<svg xmlns="http://www.w3.org/2000/svg" viewBox="0 0 54.05 23.89"><defs><style>.cls-1{fill:#eeeeee;}.cls-2{fill:#e94a49;}.cls-3{fill:#0487c0;}</style></defs><title>Asset 1</title><g id="Layer_2" data-name="Layer 2"><g id="front"><circle class="cls-1" cx="49.25" cy="5.86" r="1.42"/><polygon class="cls-1" points="4.42 6.63 7.58 6.63 7.58 14.33 9.51 14.33 9.51 6.63 12.67 6.63 12.67 4.7 4.42 4.7 4.42 6.63"/><path class="cls-1" d="M16.85,7.77A3.52,3.52,0,0,0,15,7.25,3.65,3.65,0,1,0,16.85,14v.3h1.79V7.45H16.85Zm-1.86,5a1.86,1.86,0,1,1,1.86-1.86A1.85,1.85,0,0,1,15,12.75Z"/><path class="cls-1" d="M24.21,7.25a3.64,3.64,0,0,0-1.86.51v-.3H20.57v9.63h1.79V14a3.52,3.52,0,0,0,1.86.52,3.65,3.65,0,1,0,0-7.29Zm0,5.5a1.86,1.86,0,1,1,1.86-1.86A1.85,1.85,0,0,1,24.21,12.75Z"/><rect class="cls-1" x="29.37" y="7.45" width="1.79" height="6.88"/><path class="cls-1" d="M38.17,7.76a3.64,3.64,0,1,0-1.86,6.78,3.52,3.52,0,0,0,1.82-.5,1.85,1.85,0,0,1-1.82,1.46A1.81,1.81,0,0,1,35,14.95l-1.27,1.27A3.65,3.65,0,0,0,40,13.64V7.45H38.17Zm-1.86,5a1.86,1.86,0,1,1,1.86-1.86A1.85,1.85,0,0,1,36.32,12.75Z"/><path class="cls-2" d="M45.12,7.25a3.65,3.65,0,1,0,3.65,3.65A3.65,3.65,0,0,0,45.12,7.25Zm0,5.5A1.86,1.86,0,1,1,47,10.89,1.85,1.85,0,0,1,45.12,12.75Z"/><path class="cls-3" d="M9.56,23.89A9.57,9.57,0,0,1,0,14.33H4.45a5.12,5.12,0,0,0,5.11,5.11Z"/><path class="cls-1" d="M45.1,19.83V16.58a5.72,5.72,0,0,0,5.71-5.71h3.25A9,9,0,0,1,45.1,19.83Z"/><path class="cls-2" d="M14.49,4.2l-1.7-1.7a8.54,8.54,0,0,1,12.07,0l-1.7,1.7a6.13,6.13,0,0,0-8.67,0Z"/></g></g></svg>