<svg id="Layer_1" data-name="Layer 1" xmlns="http://www.w3.org/2000/svg" viewBox="0 0 19.59 19.59"><defs><style>.cls-1{fill:#686d71;}</style></defs><title>linkedin</title><rect class="cls-1" y="6.12" width="4.38" height="13.46"/><path class="cls-1" d="M20.51,7.91l-.14,0-.18,0a4.36,4.36,0,0,0-.78-.08,6.09,6.09,0,0,0-4.71,2.58V7.75H10.32V21.22H14.7V13.87S18,9.26,19.41,12.65v8.57h4.38V12.13a4.37,4.37,0,0,0-3.28-4.22Zm0,0" transform="translate(-4.2 -1.63)"/><path class="cls-1" d="M8.49,3.78A2.15,2.15,0,1,1,6.34,1.63,2.14,2.14,0,0,1,8.49,3.78Zm0,0" transform="translate(-4.2 -1.63)"/></svg>