<svg id="Layer_1" data-name="Layer 1" xmlns="http://www.w3.org/2000/svg" viewBox="0 0 25.67 20.86"><defs><style>.cls-1{fill:#686d71;}</style></defs><title>twitter</title><path class="cls-1" d="M26.46,3.34a10.71,10.71,0,0,1-3,.83,5.2,5.2,0,0,0,2.31-2.91,10.43,10.43,0,0,1-3.33,1.28,5.26,5.26,0,0,0-9.11,3.6,5.81,5.81,0,0,0,.12,1.2A14.9,14.9,0,0,1,2.58,1.83a5.28,5.28,0,0,0,1.61,7,5.18,5.18,0,0,1-2.37-.65v.06A5.29,5.29,0,0,0,6,13.45a5.12,5.12,0,0,1-1.38.17,4.68,4.68,0,0,1-1-.09A5.3,5.3,0,0,0,8.57,17.2a10.56,10.56,0,0,1-6.52,2.24,10.41,10.41,0,0,1-1.26-.07,14.83,14.83,0,0,0,8.07,2.36,14.87,14.87,0,0,0,15-15c0-.24,0-.46,0-.68a10.42,10.42,0,0,0,2.64-2.74Zm0,0" transform="translate(-0.79 -0.87)"/></svg>