<svg id="Layer_1" data-name="Layer 1" xmlns="http://www.w3.org/2000/svg" viewBox="0 0 26.4 18.15"><defs><style>.cls-1{fill:#686d71;}</style></defs><title>youtube</title><path class="cls-1" d="M29.37,6.15c-.72-1.27-1.49-1.51-3.07-1.6s-5.56-.15-9-.15-7.43,0-9,.15-2.36.32-3.08,1.6S4.1,9.61,4.1,13.47h0c0,3.84.37,6.05,1.11,7.31s1.5,1.5,3.08,1.61,5.56.15,9,.15,7.41-.06,9-.15,2.36-.33,3.07-1.61,1.12-3.46,1.12-7.3v0c0-3.86-.37-6.05-1.12-7.32ZM14,18.42V8.53l8.25,5Zm0,0" transform="translate(-4.1 -4.4)"/></svg>