<svg id="Layer_1" data-name="Layer 1" xmlns="http://www.w3.org/2000/svg" viewBox="0 0 512.21 511.97"><defs><style>.cls-1{fill:#316fea;}</style></defs><title>9</title><path id="Shape" class="cls-1" d="M256,42.67a42.67,42.67,0,1,0,42.67,42.66A42.67,42.67,0,0,0,256,42.67Zm0,68.26a25.59,25.59,0,1,1,18.1-7.49,25.6,25.6,0,0,1-18.1,7.49Z" transform="translate(0.11 0.01)"/><path class="cls-1" d="M418.13,114.49l12-12.09h32.2a25.6,25.6,0,1,0,0-17.07h-32.2a17.12,17.12,0,0,0-12,5l-12,12.09H381.44a126.44,126.44,0,0,0-22.76-51.2H389a17.07,17.07,0,0,0,12-5l12-12.1h32.2a25.6,25.6,0,1,0,0-17.06H413.1a17,17,0,0,0-12,5L389,34.13H343.18a128.18,128.18,0,0,0-172.45-1.59c-.56.51-1,1.08-1.6,1.59H123.05L110.93,22.05a17,17,0,0,0-12-5H66.7a25.6,25.6,0,1,0,0,17.06H98.84l12.09,12.09a17.12,17.12,0,0,0,12,5h30.72a128.18,128.18,0,0,0-23,51.2H106L93.87,90.32a17.09,17.09,0,0,0-12-5H49.63a25.6,25.6,0,1,0,0,17.07H81.77l12.1,12.08a17.07,17.07,0,0,0,12,5h22.55c-.19,2.84-.45,5.67-.45,8.53s.29,5.69.48,8.53H105.9a17.1,17.1,0,0,0-12,5l-12,12.09H49.63a25.6,25.6,0,1,0,0,17.07h32.2a17.12,17.12,0,0,0,12-5l12-12.09h24.75a126.52,126.52,0,0,0,23,51.2H116.14a17.06,17.06,0,0,0-15.36,9.48l-3.67,7.59H66.7a25.6,25.6,0,1,0,0,17.06H97.11a17.06,17.06,0,0,0,15.36-9.48l3.75-7.58h53.09c2.2,2,4.33,4.1,6.68,6a8,8,0,0,1,3.21,6.07v30.62a25.6,25.6,0,0,0,25.6,25.6v22.1a17.13,17.13,0,0,0,5,12l8.53,8.58-11,11a8.5,8.5,0,0,0-2.49,6v8.53a8.53,8.53,0,0,0,2.5,6l11,11.1-11,11a8.56,8.56,0,0,0-2.5,6v8.54a8.53,8.53,0,0,0,2.5,6l11,11.09-8.54,8.54a17.14,17.14,0,0,0-5,12v28.91a17.19,17.19,0,0,0,6.44,13.31l34.14,27.31a17.07,17.07,0,0,0,21.26,0l34.07-27.31a17.12,17.12,0,0,0,6.49-13.31V290.13a25.6,25.6,0,0,0,25.6-25.6V233.9a8,8,0,0,1,3.19-6.05c2.42-1.93,4.74-3.94,7-6l52.84-.1,3.78,7.76a17,17,0,0,0,15.3,9.39H445.3a25.6,25.6,0,1,0,0-17.06l-30.43.08-3.78-7.75a17,17,0,0,0-15.31-9.4H358.4a125.86,125.86,0,0,0,23-51.2h24.62l12.07,12.08a17.09,17.09,0,0,0,12,5h32.2a25.6,25.6,0,1,0,0-17.07H430.23l-12.1-12.08a17.07,17.07,0,0,0-12-5H383.68a134.88,134.88,0,0,0,0-17.06H406.1a17.1,17.1,0,0,0,12-5ZM486.4,85.33a8.54,8.54,0,1,1-8.53,8.54A8.53,8.53,0,0,1,486.4,85.33ZM469.33,17.07a8.53,8.53,0,1,1-8.53,8.53A8.53,8.53,0,0,1,469.33,17.07ZM42.67,34.13a8.54,8.54,0,1,1,6-2.5A8.53,8.53,0,0,1,42.67,34.13ZM25.6,102.4a8.54,8.54,0,1,1,8.53-8.53A8.53,8.53,0,0,1,25.6,102.4Zm0,68.27a8.54,8.54,0,1,1,8.53-8.54A8.53,8.53,0,0,1,25.6,170.67Zm17.07,68.26a8.53,8.53,0,1,1,8.53-8.53A8.53,8.53,0,0,1,42.67,238.93Zm426.66-17.06a8.53,8.53,0,1,1-8.53,8.53A8.53,8.53,0,0,1,469.33,221.87ZM486.4,153.6a8.54,8.54,0,1,1-8.53,8.53A8.53,8.53,0,0,1,486.4,153.6Zm-161.09,61a24.88,24.88,0,0,0-9.58,19.37v30.61a8.53,8.53,0,0,1-8.53,8.54H273.07a8.53,8.53,0,1,0,0,17.06h17.06v177.5l-17.06,13.65v-157a8.54,8.54,0,1,0-17.07,0V494.93l-34.13-27.3V438.75l8.53-8.53a17.14,17.14,0,0,0,0-24.19l-8.53-8.53V396l8.53-8.53a17.13,17.13,0,0,0,0-24.18l-8.53-8.54v-1.47l8.53-8.53a17.13,17.13,0,0,0,0-24.18l-8.53-8.48v-22h17.06a8.53,8.53,0,1,0,0-17.06H204.8a8.53,8.53,0,0,1-8.53-8.54V233.9a24.9,24.9,0,0,0-9.6-19.38,111,111,0,1,1,146.85-7.29l-.15.16c-2.56,2.47-5.21,4.89-8.05,7.15Z" transform="translate(0.11 0.01)"/></svg>