<svg id="Layer_1" data-name="Layer 1" xmlns="http://www.w3.org/2000/svg" viewBox="0 0 512 500.26"><defs><style>.cls-1{fill:#316fea;}</style></defs><title>11</title><g id="search_book" data-name="search book"><path class="cls-1" d="M192.39,61.92H148.32a8,8,0,0,0,0,16h44.07a8,8,0,0,0,0-16Z" transform="translate(0 -5.87)"/><path class="cls-1" d="M192.39,105.73H148.32a8,8,0,0,0,0,16h44.07a8,8,0,0,0,0-16Z" transform="translate(0 -5.87)"/><path class="cls-1" d="M192.39,149.54H148.32a8,8,0,0,0,0,16h44.07a8,8,0,0,0,0-16Z" transform="translate(0 -5.87)"/><path class="cls-1" d="M505.18,443.65,469.33,399.9a29.85,29.85,0,0,0-35.53-8.34L420.11,375a95.24,95.24,0,0,0-56.87-163.18c-.77-.07-1.54-.06-2.31-.11V113.93a8,8,0,0,0-8-8H238.28V13.87a8,8,0,0,0-8-8H107.63a8,8,0,0,0-8,8v92.06H8a8,8,0,0,0-8,8v384.2a8,8,0,0,0,8,8H352.93a8,8,0,0,0,8-8V401.54a94.68,94.68,0,0,0,46.83-16.4l13.67,16.57a30.16,30.16,0,0,0,1.2,36.46l35.86,43.72a30,30,0,0,0,20.37,10.89q1.54.15,3.06.15a30.18,30.18,0,0,0,23.26-49.28Zm-90-187.29a79.23,79.23,0,1,1-61.45-29.05q4,0,8,.39a78.71,78.71,0,0,1,53.48,28.66ZM344.93,443.2H238.28V166.83H344.93v44.9a95.21,95.21,0,0,0,0,189.61V443.2Zm0-321.27v28.9H238.28v-28.9ZM16,229.94H99.63V390.78H16Zm0-43.81H99.63v27.81H16Zm0,220.65H99.63V434.6H16ZM99.63,121.93v48.2H16v-48.2ZM16,450.6H99.63v39.53H16Zm99.63-8V21.87H222.28V490.13H115.63Zm122.65,47.53V459.2H344.93v30.93Zm257.65-26a14.18,14.18,0,0,1-25.05,7.59h0L435,428a14.2,14.2,0,0,1,2-20,14.15,14.15,0,0,1,10.37-3.13A14.1,14.1,0,0,1,457,410l35.85,43.75a14.12,14.12,0,0,1,3.13,10.39Z" transform="translate(0 -5.87)"/><path class="cls-1" d="M192.39,434.08H148.32a8,8,0,0,0,0,16h44.07a8,8,0,1,0,0-16Z" transform="translate(0 -5.87)"/><path class="cls-1" d="M318.75,263.8A55.36,55.36,0,0,0,311,341.69a8,8,0,0,0,12.38-10.14,39.4,39.4,0,0,1,5.49-55.38,8,8,0,0,0-10.14-12.37Z" transform="translate(0 -5.87)"/></g></svg>