<svg id="Layer_1" data-name="Layer 1" xmlns="http://www.w3.org/2000/svg" viewBox="0 0 480 480"><defs><style>.cls-1{fill:#316fea;}</style></defs><title>5</title><path class="cls-1" d="M256,336a80,80,0,1,0-80-80A80.09,80.09,0,0,0,256,336Zm0-144a64,64,0,1,1-64,64A64.07,64.07,0,0,1,256,192Z" transform="translate(-16 -16)"/><path class="cls-1" d="M182.46,137.21a8,8,0,0,0-11.31,0l-33.94,33.94a8,8,0,0,0,0,11.31l14.45,14.44A119.07,119.07,0,0,0,140.39,224H120a8,8,0,0,0-8,8v48a8,8,0,0,0,8,8h20.38a119.61,119.61,0,0,0,11.25,27.11L137.2,329.54a8,8,0,0,0,0,11.32l33.94,33.94a8,8,0,0,0,11.32,0l14.43-14.42A118.23,118.23,0,0,0,224,371.62V392a8,8,0,0,0,8,8h48a8,8,0,0,0,8-8V371.62a119.07,119.07,0,0,0,27.1-11.27l14.44,14.44a8,8,0,0,0,11.32,0l33.94-33.94a8,8,0,0,0,0-11.31L360.35,315.1A119.52,119.52,0,0,0,371.62,288H392a8,8,0,0,0,8-8V232a8,8,0,0,0-8-8H371.62a119.61,119.61,0,0,0-11.25-27.11l14.43-14.43a8,8,0,0,0,0-11.32L340.86,137.2a8,8,0,0,0-11.32,0l-14.43,14.42A118.23,118.23,0,0,0,288,140.38V120a8,8,0,0,0-8-8H232a8,8,0,0,0-8,8v20.38a119.07,119.07,0,0,0-27.1,11.27Zm51.25,17.25a8,8,0,0,0,6.29-7.82V128h32v18.64a8,8,0,0,0,6.29,7.82,102.89,102.89,0,0,1,33.73,14,8,8,0,0,0,10-1.08l13.2-13.2,22.63,22.63L344.62,190a8,8,0,0,0-1.08,10,103.06,103.06,0,0,1,14,33.74,8,8,0,0,0,7.82,6.28H384v32H365.36a8,8,0,0,0-7.82,6.29,103.07,103.07,0,0,1-14,33.71,8,8,0,0,0,1.08,10l13.21,13.21-22.63,22.63L322,344.61a8,8,0,0,0-10-1.08,103,103,0,0,1-33.72,14,8,8,0,0,0-6.29,7.82V384H240V365.36a8,8,0,0,0-6.29-7.82,102.89,102.89,0,0,1-33.73-14,8,8,0,0,0-10,1.08l-13.2,13.2-22.63-22.63,13.2-13.2a8,8,0,0,0,1.08-10,103.06,103.06,0,0,1-14-33.74,8,8,0,0,0-7.82-6.28H128V240h18.64a8,8,0,0,0,7.82-6.29,103.07,103.07,0,0,1,14-33.71,8,8,0,0,0-1.08-10l-13.21-13.21,22.63-22.63L190,167.39a8,8,0,0,0,10,1.08,102.78,102.78,0,0,1,33.72-14Z" transform="translate(-16 -16)"/><path class="cls-1" d="M256,64a24,24,0,1,0-24-24A24,24,0,0,0,256,64Zm0-32a8,8,0,1,1-8,8A8,8,0,0,1,256,32Z" transform="translate(-16 -16)"/><path class="cls-1" d="M256,448a24,24,0,1,0,24,24A24,24,0,0,0,256,448Zm0,32a8,8,0,1,1,8-8A8,8,0,0,1,256,480Z" transform="translate(-16 -16)"/><path class="cls-1" d="M472,232a24,24,0,1,0,24,24A24,24,0,0,0,472,232Zm0,32a8,8,0,1,1,8-8A8,8,0,0,1,472,264Z" transform="translate(-16 -16)"/><path class="cls-1" d="M40,280a24,24,0,1,0-24-24A24,24,0,0,0,40,280Zm0-32a8,8,0,1,1-8,8A8,8,0,0,1,40,248Z" transform="translate(-16 -16)"/><path class="cls-1" d="M155,74.27l5.42,16.26a8,8,0,0,0,5.75,5.25A7.77,7.77,0,0,0,168,96a8,8,0,0,0,5.66-2.34l40-40a8,8,0,0,0-4.53-13.57l-56-8a8,8,0,0,0-8.72,10.45l5.45,16.34c-59.21,32-101.65,89.62-114,155.65l15.72,2.94C62.88,157.09,101.28,104.23,155,74.27Zm36-20.61L171.5,73.19l-7.82-23.44Z" transform="translate(-16 -16)"/><path class="cls-1" d="M476.18,297.48l-15.72-3C449.11,355,410.7,407.82,357,437.74l-5.42-16.27a8,8,0,0,0-13.25-3.13l-40,40a8,8,0,0,0,4.53,13.57l56,8A6.33,6.33,0,0,0,360,480a8,8,0,0,0,7.59-10.53l-5.45-16.34c59.2-31.95,101.64-89.59,114-155.65ZM321,458.34l19.53-19.53,7.82,23.44Z" transform="translate(-16 -16)"/><path class="cls-1" d="M437.74,155l-16.28,5.43a8,8,0,0,0-3.12,13.25l40,40A8,8,0,0,0,464,216a8.22,8.22,0,0,0,2.53-.41,8,8,0,0,0,5.39-6.45l8-56a8,8,0,0,0-2.8-7.28,8.07,8.07,0,0,0-7.66-1.44l-16.33,5.44c-31.86-59.17-89.5-101.61-155.65-114l-3,15.72A208.93,208.93,0,0,1,437.74,155ZM458.34,191,438.82,171.5l23.44-7.82Z" transform="translate(-16 -16)"/><path class="cls-1" d="M95.79,345.84a8,8,0,0,0-2.13-7.5l-40-40a8,8,0,0,0-13.58,4.52l-8,56A8,8,0,0,0,40,368a8.17,8.17,0,0,0,2.53-.41l16.33-5.45c31.91,59.26,89.56,101.7,155.67,114l2.93-15.72C157,449.17,104.13,410.76,74.26,357l16.27-5.43a8,8,0,0,0,5.26-5.74ZM53.66,321,73.18,340.5l-23.44,7.82Z" transform="translate(-16 -16)"/></svg>