<svg id="Layer_1" data-name="Layer 1" xmlns="http://www.w3.org/2000/svg" viewBox="0 0 409.6 511.96"><defs><style>.cls-1{fill:#316fea;}</style></defs><title>6</title><path id="Shape" class="cls-1" d="M246.74,510.29a26,26,0,0,0,18.53,0c32.65-12.68,195.53-81.92,195.53-202.4V25.64A25.66,25.66,0,0,0,435.2,0H76.8a25.66,25.66,0,0,0-25.6,25.6V307.89c0,120.48,162.88,189.72,195.54,202.4ZM68.27,25.64a8.52,8.52,0,0,1,8.53-8.57H435.2a8.53,8.53,0,0,1,8.53,8.53V307.89c0,109.39-153.79,174.52-184.62,186.46a8.74,8.74,0,0,1-6.21,0C222.06,482.41,68.27,417.28,68.27,307.89Z" transform="translate(-51.2 -0.04)"/><path class="cls-1" d="M124.87,395.67c.07.07.17.09.25.16a346.08,346.08,0,0,0,85.45,62.79,6.28,6.28,0,0,0,.92.5c15.36,8.27,28,13.93,34.42,16.68a25.63,25.63,0,0,0,20.18,0c26.82-11.46,160.58-73.29,160.58-166.27V42.67a8.54,8.54,0,0,0-8.54-8.54H93.87a8.54,8.54,0,0,0-8.54,8.54V309.53c0,32.77,16.64,61.64,39.33,85.83C124.75,395.45,124.77,395.58,124.87,395.67ZM102.4,302.2l23.1-23.1A8.54,8.54,0,0,0,113.43,267l-11,11V165.67L168.17,99.9A8.54,8.54,0,0,0,156.1,87.83l-53.7,53.7V51.2h90.33l-11,11A8.54,8.54,0,1,0,193.77,74.3l23.1-23.1h112.4L241.43,139A8.54,8.54,0,1,0,253.5,151.1l99.9-99.9h56.2V98.87l-48.7,48.7A8.53,8.53,0,1,0,373,159.63L409.6,123V243.93L386.5,267a8.54,8.54,0,1,0,12.07,12.07l11-11v41.46c0,63.79-80.9,121-150.19,150.57a8.59,8.59,0,0,1-6.78,0c-7.86-3.35-15.87-7.12-23.89-11.14L338.86,338.88a8.54,8.54,0,0,0-12.07-12.07L212.92,440.62a324.78,324.78,0,0,1-69.87-51.06l50.72-50.73a8.53,8.53,0,0,0-12.07-12.06l-50.3,50.34a106.3,106.3,0,0,1-29-67.58Z" transform="translate(-51.2 -0.04)"/><path id="Path" class="cls-1" d="M145.07,221.87a8.53,8.53,0,0,0,8.53,8.53h17.07a8.54,8.54,0,0,0,0-17.07V179.2a8.54,8.54,0,0,0-14.57-6l-8.53,8.53a8.54,8.54,0,0,0,6,14.57v17.06a8.53,8.53,0,0,0-8.53,8.54Z" transform="translate(-51.2 -0.04)"/><path class="cls-1" d="M145.07,298.67a8.53,8.53,0,0,0,8.53,8.53h17.07a8.54,8.54,0,0,0,0-17.07V256a8.54,8.54,0,0,0-14.57-6l-8.53,8.53a8.54,8.54,0,0,0,6,14.57v17.06A8.53,8.53,0,0,0,145.07,298.67Z" transform="translate(-51.2 -0.04)"/><path class="cls-1" d="M264.53,221.87a8.53,8.53,0,0,0,8.54,8.53h17.06a8.54,8.54,0,1,0,0-17.07V179.2a8.53,8.53,0,0,0-14.56-6L267,181.7a8.54,8.54,0,0,0,6,14.57v17.06a8.54,8.54,0,0,0-8.54,8.54Z" transform="translate(-51.2 -0.04)"/><path class="cls-1" d="M196.27,298.67a8.53,8.53,0,0,0,8.53,8.53h17.07a8.54,8.54,0,0,0,0-17.07V256a8.54,8.54,0,0,0-14.57-6l-8.53,8.53a8.54,8.54,0,0,0,6,14.57v17.06a8.53,8.53,0,0,0-8.53,8.54Z" transform="translate(-51.2 -0.04)"/><path class="cls-1" d="M221.87,230.4a25.6,25.6,0,0,0,25.6-25.6v-8.53a25.6,25.6,0,1,0-51.2,0v8.53A25.6,25.6,0,0,0,221.87,230.4Zm-8.54-34.13a8.54,8.54,0,1,1,17.07,0v8.53a8.54,8.54,0,0,1-17.07,0Z" transform="translate(-51.2 -0.04)"/><path class="cls-1" d="M341.33,307.2a25.6,25.6,0,0,0,25.6-25.6v-8.53a25.6,25.6,0,0,0-51.2,0v8.53A25.6,25.6,0,0,0,341.33,307.2Zm-8.53-34.13a8.54,8.54,0,1,1,17.07,0v8.53a8.54,8.54,0,0,1-17.07,0Z" transform="translate(-51.2 -0.04)"/><path class="cls-1" d="M341.33,230.4a25.6,25.6,0,0,0,25.6-25.6v-8.53a25.6,25.6,0,0,0-51.2,0v8.53A25.6,25.6,0,0,0,341.33,230.4Zm-8.53-34.13a8.54,8.54,0,1,1,17.07,0v8.53a8.54,8.54,0,0,1-17.07,0Z" transform="translate(-51.2 -0.04)"/><path class="cls-1" d="M247.47,281.6a25.6,25.6,0,1,0,51.2,0v-8.53a25.6,25.6,0,0,0-51.2,0Zm17.06-8.53a8.54,8.54,0,1,1,17.07,0v8.53a8.54,8.54,0,0,1-17.07,0Z" transform="translate(-51.2 -0.04)"/></svg>