<svg id="Layer_1" data-name="Layer 1" xmlns="http://www.w3.org/2000/svg" viewBox="0 0 409.63 512"><defs><style>.cls-1,.cls-2{fill:#316fea;}.cls-2{fill-rule:evenodd;}</style></defs><title>4</title><path class="cls-1" d="M76.63,460.8h25.6v25.6A25.61,25.61,0,0,0,127.84,512H435a25.6,25.6,0,0,0,25.59-25.6V76.8A25.6,25.6,0,0,0,435,51.2H409.43V25.6A25.6,25.6,0,0,0,383.84,0H144.9c-.18,0-.34.09-.52.1a8.42,8.42,0,0,0-2.22.45,6.78,6.78,0,0,0-.79.3,8.61,8.61,0,0,0-2.5,1.71L53.54,87.89a8.36,8.36,0,0,0-1.71,2.5,7.58,7.58,0,0,0-.28.8,8.27,8.27,0,0,0-.45,2.21c0,.19-.1.35-.1.53V435.2a25.61,25.61,0,0,0,25.63,25.6ZM435,68.27a8.53,8.53,0,0,1,8.53,8.53V486.4a8.53,8.53,0,0,1-8.53,8.53H127.84a8.53,8.53,0,0,1-8.54-8.53V460.8H383.84a25.6,25.6,0,0,0,25.59-25.6V68.27ZM392.37,25.6V435.2a8.53,8.53,0,0,1-8.53,8.53H76.63a8.53,8.53,0,0,1-8.53-8.53V102.4h59.74a25.6,25.6,0,0,0,25.59-25.6V17.07H383.84A8.53,8.53,0,0,1,392.37,25.6Zm-256,3.53V76.8a8.53,8.53,0,0,1-8.53,8.53H80.17Z" transform="translate(-51)"/><path class="cls-1" d="M127.84,187.73A102.4,102.4,0,1,0,230.23,85.33,102.39,102.39,0,0,0,127.84,187.73ZM230.23,102.4a85.34,85.34,0,1,1-85.33,85.33A85.34,85.34,0,0,1,230.23,102.4Z" transform="translate(-51)"/><path class="cls-1" d="M196.24,236.2A18.13,18.13,0,0,0,214,237l65.85-32.92a18.27,18.27,0,0,0,0-32.68L214,138.48a18.25,18.25,0,0,0-26.45,16.34v65.82A18.17,18.17,0,0,0,196.24,236.2Zm8.39-81.38a1.12,1.12,0,0,1,.58-1,1.23,1.23,0,0,1,.63-.19,1.33,1.33,0,0,1,.54.15l65.85,32.91a1.2,1.2,0,0,1,0,2.15l-65.89,32.91a1.08,1.08,0,0,1-1.17,0,1.13,1.13,0,0,1-.54-1.08Z" transform="translate(-51)"/><path class="cls-2" d="M102.23,324.27a8.53,8.53,0,0,0,8.54,8.53H349.7a8.54,8.54,0,0,0,0-17.07H110.77A8.54,8.54,0,0,0,102.23,324.27Z" transform="translate(-51)"/><path class="cls-2" d="M213.17,358.4h-8.54a8.53,8.53,0,0,0,0,17.06h8.54a8.53,8.53,0,0,0,0-17.06Z" transform="translate(-51)"/><path class="cls-2" d="M162,358.4h-51.2a8.53,8.53,0,1,0,0,17.06H162a8.53,8.53,0,0,0,0-17.06Z" transform="translate(-51)"/></svg>