<svg id="Capa_1" data-name="Capa 1" xmlns="http://www.w3.org/2000/svg" viewBox="0 0 416 480"><defs><style>.cls-1{fill:#316fea;}</style></defs><title>2</title><path class="cls-1" d="M408,64h-8V80h8a24,24,0,0,1,24,24V320H48V104A24,24,0,0,1,72,80h8V64H72a40.05,40.05,0,0,0-40,40V344a40.05,40.05,0,0,0,40,40H188.9l-26.66,80H136v16H344V464H317.76L291.1,384H408a40.05,40.05,0,0,0,40-40V104A40.05,40.05,0,0,0,408,64ZM300.9,464H179.1l26.67-80h68.46ZM432,344a24,24,0,0,1-24,24H72a24,24,0,0,1-24-24v-8H432Z" transform="translate(-32)"/><path class="cls-1" d="M360,0H120A24,24,0,0,0,96,24V304h16V24a8,8,0,0,1,8-8H360a8,8,0,0,1,8,8V304h16V24A24,24,0,0,0,360,0Z" transform="translate(-32)"/><path class="cls-1" d="M351.24,192A40,40,0,0,0,312,160H207.79a39.2,39.2,0,0,0,0-48H312a40,40,0,1,0-40-40,39.56,39.56,0,0,0,8.21,24H176a40,40,0,0,0,0,80H280.21a39.2,39.2,0,0,0,0,48H184a40,40,0,1,0,40,40,39.56,39.56,0,0,0-8.21-24H320v-.8A40,40,0,0,0,351.24,192ZM312,48a24,24,0,1,1-24,24A24,24,0,0,1,312,48ZM176,160a24,24,0,1,1,24-24A24,24,0,0,1,176,160Zm8,128a24,24,0,1,1,24-24A24,24,0,0,1,184,288Zm128-64a24,24,0,1,1,24-24A24,24,0,0,1,312,224Z" transform="translate(-32)"/><rect class="cls-1" x="272" y="64" width="16" height="16"/><rect class="cls-1" x="136" y="128" width="16" height="16"/><rect class="cls-1" x="272" y="192" width="16" height="16"/><rect class="cls-1" x="144" y="256" width="16" height="16"/><rect class="cls-1" x="96" y="32" width="16" height="16"/><rect class="cls-1" x="128" y="32" width="16" height="16"/><rect class="cls-1" x="160" y="32" width="16" height="16"/></svg>