<svg id="Layer_1" data-name="Layer 1" xmlns="http://www.w3.org/2000/svg" viewBox="0 0 512 512"><defs><style>.cls-1{fill:#316fea;}</style></defs><title>8</title><path class="cls-1" d="M469.33,153.6V119.46A42.71,42.71,0,0,0,426.67,76.8V42.67A42.72,42.72,0,0,0,384,0H128A42.72,42.72,0,0,0,85.33,42.67V76.8a42.71,42.71,0,0,0-42.66,42.66V153.6A42.72,42.72,0,0,0,0,196.27V469.33A42.72,42.72,0,0,0,42.67,512H469.33A42.72,42.72,0,0,0,512,469.33V196.27A42.72,42.72,0,0,0,469.33,153.6ZM102.4,42.67A25.6,25.6,0,0,1,128,17.07H384a25.6,25.6,0,0,1,25.6,25.6V76.8H102.4ZM59.73,119.46a25.6,25.6,0,0,1,25.6-25.59H426.67a25.6,25.6,0,0,1,25.6,25.59V153.6H59.73Zm435.2,349.87a25.6,25.6,0,0,1-25.6,25.6H42.67a25.6,25.6,0,0,1-25.6-25.6V196.27a25.6,25.6,0,0,1,25.6-25.6H469.33a25.6,25.6,0,0,1,25.6,25.6Z"/><path class="cls-1" d="M351.13,328.42,212.71,241.49a16.67,16.67,0,0,0-16.93-.45,15.17,15.17,0,0,0-8.05,13.35V428.28a15.16,15.16,0,0,0,8,13.36,16.67,16.67,0,0,0,16.94-.45l138.43-87a15.09,15.09,0,0,0,0-25.81ZM204.8,426.22V256.66l134.82,84.67Z"/><path class="cls-1" d="M102.4,187.73H59.73a25.6,25.6,0,0,0-25.6,25.6V256a8.54,8.54,0,1,0,17.07,0V213.33a8.53,8.53,0,0,1,8.53-8.53H102.4a8.54,8.54,0,0,0,0-17.07Z"/><path class="cls-1" d="M452.27,187.73H409.6a8.54,8.54,0,0,0,0,17.07h42.67a8.53,8.53,0,0,1,8.53,8.53V256a8.54,8.54,0,1,0,17.07,0V213.33A25.6,25.6,0,0,0,452.27,187.73Z"/></svg>