<svg id="Layer_1" data-name="Layer 1" xmlns="http://www.w3.org/2000/svg" viewBox="0 0 493 468.57"><defs><style>.cls-1{fill:#316fea;}</style></defs><title>10</title><path class="cls-1" d="M307.85,204.14a67,67,0,1,0-67-67A67,67,0,0,0,307.85,204.14Zm0-120a53,53,0,1,1-53,53A53,53,0,0,1,307.85,84.14Z" transform="translate(-9.5 -21.71)"/><path class="cls-1" d="M295.34,171.53a7,7,0,0,0,7.33-.66l37.5-28.13a7,7,0,0,0,1.4-9.8,7.14,7.14,0,0,0-1.4-1.4l-37.5-28.12a7,7,0,0,0-11.2,5.6v56.25A7,7,0,0,0,295.34,171.53ZM305.47,123l18.83,14.12-18.83,14.13Z" transform="translate(-9.5 -21.71)"/><path class="cls-1" d="M16.5,490.29H262.87a7,7,0,0,0,7-7V443.23a45.65,45.65,0,0,0-1.14-10.55c-.14-.61-.3-1.22-.46-1.84a48.57,48.57,0,0,0-32.19-33.15l-53.91-17.48V357.14a81.32,81.32,0,0,0,37.4-54l1.43-4.91h30.25v60.31H234.09a7,7,0,1,0,0,14H392.2a7,7,0,0,0,0-14H364.44V298.26H469.57a33,33,0,0,0,32.93-32.93V54.64a33,33,0,0,0-32.93-32.93H146.12a33,33,0,0,0-32.93,32.93V128a86.94,86.94,0,0,0-60.28,82.64v35.15A21.88,21.88,0,0,0,39.68,261a27.08,27.08,0,0,0,17.14,31.92l3,10.25a81.28,81.28,0,0,0,37.4,54v23.08L43.29,397.69A48.54,48.54,0,0,0,11.1,430.85c-.17.61-.32,1.22-.46,1.83A45.65,45.65,0,0,0,9.5,443.23v40.06A7,7,0,0,0,16.5,490.29ZM146.09,213.91c7.47,7.72,28.15,25.5,63.73,30.28-17.18-.84-54.76-5.14-86.21-25.93A228.05,228.05,0,0,0,146.09,213.91ZM350.44,358.57H265.25V298.26h85.19Zm119.13-74.31h-235A27.09,27.09,0,0,0,239.69,261a22,22,0,0,0-8-12.34H488.5v16.67a19,19,0,0,1-18.93,18.93ZM127.19,54.64a19,19,0,0,1,18.93-18.93H469.57A19,19,0,0,1,488.5,54.64v180h-262V210.59a86.83,86.83,0,0,0-99.3-85.88Zm-60.28,156a72.79,72.79,0,0,1,145.58,0v19.83a101.17,101.17,0,0,1-42.38-15,86,86,0,0,1-8.37-6.1c13.6-4.71,25.28-10.76,34.9-18.14A7,7,0,0,0,188.13,180C148.83,210.18,78.41,207,77.71,207a7,7,0,0,0-7.36,6.63v0L69,242.6a3.66,3.66,0,0,1-1.93,3.08l-.2.1Zm6.58,89.65a6.38,6.38,0,0,0-.15-.66l-4-13.66a7,7,0,0,0-5.67-5.62,13.06,13.06,0,0,1-10.58-15.16c0-.27.1-.54.17-.81a7.85,7.85,0,0,1,5-5.66A17.7,17.7,0,0,0,83,243.24l1-22.15c4.61,0,11.24-.12,19.16-.66,47.19,40.1,113.72,38,116.57,37.92l.19,0a8,8,0,0,1,6.14,6,13.08,13.08,0,0,1-9.6,15.81l-.81.17a7,7,0,0,0-5.68,5.61l-4,13.66c-.06.22-.12.44-.16.66a67.35,67.35,0,0,1-132.38,0Zm66.2,68.9A80.81,80.81,0,0,0,168.17,364V381a68.36,68.36,0,0,1-57,0V364a80.82,80.82,0,0,0,28.49,5.16ZM23.5,443.23a32,32,0,0,1,.77-7.37c.1-.44.22-.88.33-1.31A34.56,34.56,0,0,1,47.6,411l55.91-18.13a82.36,82.36,0,0,0,72.35,0L231.76,411a34.56,34.56,0,0,1,23,23.54c.12.43.24.87.34,1.31a32,32,0,0,1,.77,7.37v33.06H23.5Z" transform="translate(-9.5 -21.71)"/></svg>