<svg id="Layer_1" data-name="Layer 1" xmlns="http://www.w3.org/2000/svg" viewBox="0 0 400 464"><defs><style>.cls-1{fill:#316fea;}</style></defs><title>3</title><g id="_14_Protected" data-name=" 14 Protected"><path class="cls-1" d="M248,280a88,88,0,1,0,88-88A88,88,0,0,0,248,280Zm160,0a72,72,0,1,1-72-72A72,72,0,0,1,408,280Z" transform="translate(-56 -24)"/><path class="cls-1" d="M296.41,240.4a56,56,0,0,0,79.2,79.2,8,8,0,0,0-11.31-11.31,40,40,0,1,1,0-56.58,8,8,0,0,0,11.31-11.31,56,56,0,0,0-79.2,0Z" transform="translate(-56 -24)"/><path class="cls-1" d="M450.2,160.31,392,143.68V80c0-.17-.09-.31-.1-.48a7.76,7.76,0,0,0-.43-2.13q-.12-.37-.27-.75a8,8,0,0,0-1.52-2.24v0l-48-48a8.09,8.09,0,0,0-2.32-1.56,6.81,6.81,0,0,0-.76-.26,7.47,7.47,0,0,0-2.1-.43A4,4,0,0,0,336,24H64a8,8,0,0,0-8,8V480a8,8,0,0,0,8,8H384a8,8,0,0,0,8-8V409.94c32.28-19.78,64-47.45,64-100.1V168a8,8,0,0,0-5.8-7.69ZM364.69,72H344V51.31ZM376,472H72V40H328V80a8,8,0,0,0,8,8h40v51.08L338.19,128.3a8,8,0,0,0-4.38,0l-112,32A8,8,0,0,0,216,168V309.84c0,66.33,48.48,92.47,95.36,117.74,6.94,3.75,13.88,7.48,20.67,11.36a8,8,0,0,0,7.93,0c6.78-3.87,13.72-7.6,20.65-11.32,4.74-2.56,9.55-5.16,14.34-7.8l1.05-.57Zm64-162.16c0,44-24,67.31-60.1,88.73-8.63,5.14-17.9,10.13-26.88,15-5.69,3.07-11.4,6.13-17,9.29-5.6-3.16-11.34-6.24-17.05-9.32C274.23,389.39,232,366.62,232,309.84V174l104-29.71L440,174Z" transform="translate(-56 -24)"/><path class="cls-1" d="M112,88H224a8,8,0,0,0,0-16H112a8,8,0,0,0,0,16Z" transform="translate(-56 -24)"/><path class="cls-1" d="M112,136H224a8,8,0,0,0,0-16H112a8,8,0,0,0,0,16Z" transform="translate(-56 -24)"/><path class="cls-1" d="M192,152H176a8,8,0,0,0,0,16h16a8,8,0,0,0,0-16Z" transform="translate(-56 -24)"/><path class="cls-1" d="M112,168h32a8,8,0,0,0,0-16H112a8,8,0,0,0,0,16Z" transform="translate(-56 -24)"/><path class="cls-1" d="M112,232h16a8,8,0,0,0,0-16H112a8,8,0,0,0,0,16Z" transform="translate(-56 -24)"/><path class="cls-1" d="M192,216H160a8,8,0,0,0,0,16h32a8,8,0,0,0,0-16Z" transform="translate(-56 -24)"/><path class="cls-1" d="M197.68,186.32l-1.2-1a6.47,6.47,0,0,0-1.44-.72,5.2,5.2,0,0,0-1.44-.48,7.62,7.62,0,0,0-4.64.48,8.31,8.31,0,0,0-2.64,1.68A8,8,0,0,0,184,192a5.38,5.38,0,0,0,.16,1.6,5.2,5.2,0,0,0,.48,1.44,4.45,4.45,0,0,0,.72,1.36,7.51,7.51,0,0,0,1,1.28,8.31,8.31,0,0,0,2.64,1.68,7.92,7.92,0,0,0,3,.64,8.31,8.31,0,0,0,5.68-2.32c.32-.4.64-.8,1-1.28a4.68,4.68,0,0,0,.72-1.36,4.87,4.87,0,0,0,.47-1.44A9.55,9.55,0,0,0,200,192a8.4,8.4,0,0,0-2.32-5.68Z" transform="translate(-56 -24)"/><path class="cls-1" d="M112,200h48a8,8,0,0,0,0-16H112a8,8,0,0,0,0,16Z" transform="translate(-56 -24)"/><path class="cls-1" d="M208,392H112a8,8,0,0,0,0,16h96a8,8,0,0,0,0-16Z" transform="translate(-56 -24)"/><path class="cls-1" d="M176,424H112a8,8,0,0,0,0,16h64a8,8,0,0,0,0-16Z" transform="translate(-56 -24)"/><path class="cls-1" d="M112,280h64a8,8,0,0,0,0-16H112a8,8,0,0,0,0,16Z" transform="translate(-56 -24)"/><path class="cls-1" d="M112,312h64a8,8,0,0,0,0-16H112a8,8,0,0,0,0,16Z" transform="translate(-56 -24)"/></g></svg>