<svg id="Capa_1" data-name="Capa 1" xmlns="http://www.w3.org/2000/svg" viewBox="0 0 512 463.2"><defs><style>.cls-1{fill:#316fea;}</style></defs><title>1</title><path class="cls-1" d="M415.68,24.4H31.51A31.55,31.55,0,0,0,0,55.91V376.05a31.55,31.55,0,0,0,31.51,31.51H283.12a7.5,7.5,0,0,0,0-15h-28V344A31.43,31.43,0,0,0,235.71,315l-39.4-16.42a8.47,8.47,0,0,1-5.23-7.85V279a55.73,55.73,0,0,0,16-39V208c0-26.2-24.9-47.52-55.52-47.52S96,181.78,96,208v32a55.7,55.7,0,0,0,16,39v11.71a8.48,8.48,0,0,1-5.24,7.85L67.41,315A31.43,31.43,0,0,0,48,344v48.52H31.51A16.53,16.53,0,0,1,15,376.05V119.43H432.19V244a7.5,7.5,0,1,0,15,0V55.91A31.55,31.55,0,0,0,415.68,24.4ZM63,344A16.46,16.46,0,0,1,73.18,328.8l39.4-16.42a23.45,23.45,0,0,0,14.47-21.7v-1.62a7.49,7.49,0,0,0,4.24-14A40.68,40.68,0,0,1,111,240V208c0-17.93,18.18-32.52,40.52-32.52s40.53,14.59,40.53,32.52v32a40.7,40.7,0,0,1-20.27,35.11,7.5,7.5,0,0,0,3.76,14c.17,0,.33,0,.5,0v1.62a23.45,23.45,0,0,0,14.47,21.7L230,328.8A16.46,16.46,0,0,1,240.11,344v48.52H63ZM432.19,104.43H15V55.91A16.53,16.53,0,0,1,31.51,39.4H415.68a16.53,16.53,0,0,1,16.51,16.51Z" transform="translate(0 -24.4)"/><path class="cls-1" d="M39.59,64.42h-.08a7.54,7.54,0,1,0,.08,0Z" transform="translate(0 -24.4)"/><path class="cls-1" d="M87.54,64.42h-.08a7.54,7.54,0,1,0,.08,0Z" transform="translate(0 -24.4)"/><path class="cls-1" d="M63.52,64.42h-.08a7.54,7.54,0,1,0,.08,0Z" transform="translate(0 -24.4)"/><path class="cls-1" d="M407.67,64.42H119.55a7.5,7.5,0,0,0,0,15H407.68a7.5,7.5,0,1,0,0-15Z" transform="translate(0 -24.4)"/><path class="cls-1" d="M507,294.5l-108-37.58a7.44,7.44,0,0,0-4.93,0l-77.7,27a7.5,7.5,0,1,0,4.93,14.17l75.23-26.17,100.19,34.85A224.57,224.57,0,0,1,396.45,471.21,221.21,221.21,0,0,1,310,364.07c-13.33-34.88-14.12-62.38-14.13-62.65a7.5,7.5,0,0,0-15,.32c0,1.21.79,29.91,14.89,67.1a236.17,236.17,0,0,0,96.7,117.62,7.45,7.45,0,0,0,7.92,0,236.17,236.17,0,0,0,96.7-117.62C511.21,331.65,512,303,512,301.74A7.48,7.48,0,0,0,507,294.5Z" transform="translate(0 -24.4)"/><path class="cls-1" d="M445.21,336.8a7.5,7.5,0,0,0-10.61,0l-46.37,46.37-27.58-27.58a7.5,7.5,0,0,0-10.6,10.61l32.88,32.88a7.5,7.5,0,0,0,10.61,0l51.67-51.68A7.49,7.49,0,0,0,445.21,336.8Z" transform="translate(0 -24.4)"/><path class="cls-1" d="M383.67,152.46H255.61A15.52,15.52,0,0,0,240.1,168v24a15.52,15.52,0,0,0,15.51,15.5H383.66A15.52,15.52,0,0,0,399.17,192V168A15.52,15.52,0,0,0,383.67,152.46Zm.5,39.51a.5.5,0,0,1-.51.5h-128a.5.5,0,0,1-.51-.5V168a.5.5,0,0,1,.51-.5H383.66a.5.5,0,0,1,.51.5Z" transform="translate(0 -24.4)"/><path class="cls-1" d="M351.65,224.49h-96a7.5,7.5,0,0,0,0,15h96a7.5,7.5,0,0,0,0-15Z" transform="translate(0 -24.4)"/><path class="cls-1" d="M311.63,256.5h-56a7.5,7.5,0,0,0,0,15h56a7.5,7.5,0,0,0,0-15Z" transform="translate(0 -24.4)"/></svg>