<svg id="Capa_1" data-name="Capa 1" xmlns="http://www.w3.org/2000/svg" viewBox="0 0 60 58"><defs><style>.cls-1{fill:#316fea;}</style></defs><title>7</title><path class="cls-1" d="M10.5,7A4.5,4.5,0,1,0,15,11.5,4.51,4.51,0,0,0,10.5,7Zm0,7A2.5,2.5,0,1,1,13,11.5,2.5,2.5,0,0,1,10.5,14Z" transform="translate(0 -1)"/><circle class="cls-1" cx="50" cy="9" r="1"/><circle class="cls-1" cx="46" cy="9" r="1"/><circle class="cls-1" cx="52" cy="12" r="1"/><circle class="cls-1" cx="48" cy="12" r="1"/><circle class="cls-1" cx="42" cy="9" r="1"/><circle class="cls-1" cx="44" cy="12" r="1"/><circle class="cls-1" cx="38" cy="9" r="1"/><circle class="cls-1" cx="40" cy="12" r="1"/><circle class="cls-1" cx="34" cy="9" r="1"/><circle class="cls-1" cx="36" cy="12" r="1"/><path class="cls-1" d="M60,17.39V5.61A4.62,4.62,0,0,0,55.39,1H4.61A4.62,4.62,0,0,0,0,5.61V17.39A4.56,4.56,0,0,0,1.78,21,4.56,4.56,0,0,0,0,24.61V36.39A4.62,4.62,0,0,0,4.61,41H29v8.1A5,5,0,0,0,25.1,53H1a1,1,0,0,0,0,2H25.1a5,5,0,0,0,9.8,0H59a1,1,0,0,0,0-2H34.9A5,5,0,0,0,31,49.1V41H55.39A4.62,4.62,0,0,0,60,36.39V24.61A4.56,4.56,0,0,0,58.22,21,4.56,4.56,0,0,0,60,17.39ZM33,54a3,3,0,1,1-3-3A3,3,0,0,1,33,54ZM58,24.61V36.39A2.61,2.61,0,0,1,55.39,39H4.61A2.61,2.61,0,0,1,2,36.39V24.61A2.61,2.61,0,0,1,4.61,22H55.39A2.61,2.61,0,0,1,58,24.61ZM4.61,20A2.61,2.61,0,0,1,2,17.39V5.61A2.61,2.61,0,0,1,4.61,3H55.39A2.61,2.61,0,0,1,58,5.61V17.39A2.61,2.61,0,0,1,55.39,20Z" transform="translate(0 -1)"/><path class="cls-1" d="M10.5,35A4.5,4.5,0,1,0,6,30.5,4.51,4.51,0,0,0,10.5,35Zm0-7A2.5,2.5,0,1,1,8,30.5,2.5,2.5,0,0,1,10.5,28Z" transform="translate(0 -1)"/><circle class="cls-1" cx="50" cy="28" r="1"/><circle class="cls-1" cx="46" cy="28" r="1"/><circle class="cls-1" cx="52" cy="31" r="1"/><circle class="cls-1" cx="48" cy="31" r="1"/><circle class="cls-1" cx="42" cy="28" r="1"/><circle class="cls-1" cx="44" cy="31" r="1"/><circle class="cls-1" cx="38" cy="28" r="1"/><circle class="cls-1" cx="40" cy="31" r="1"/><circle class="cls-1" cx="34" cy="28" r="1"/><circle class="cls-1" cx="36" cy="31" r="1"/></svg>