<svg id="Layer_1" data-name="Layer 1" xmlns="http://www.w3.org/2000/svg" viewBox="0 0 422 512"><defs><style>.cls-1{fill:#316fea;}</style></defs><title>1</title><path class="cls-1" d="M170,147a86.1,86.1,0,0,1,86-86,85.06,85.06,0,0,1,46.77,13.82l-41.88,42.59A29.25,29.25,0,0,0,256,117a30,30,0,1,0,27.59,18.23,7.13,7.13,0,0,0,.82-1.06l34.13-54a7.76,7.76,0,0,0,1.69-1.56,7.5,7.5,0,0,0-1.17-10.54A101,101,0,0,0,155,147a7.5,7.5,0,0,0,15,0Zm86,15a15,15,0,1,1,15-15A15,15,0,0,1,256,162Z" transform="translate(-45)"/><path class="cls-1" d="M256,234.5a7.5,7.5,0,0,0-7.5,7.5v15a7.5,7.5,0,0,0,15,0V242A7.5,7.5,0,0,0,256,234.5Z" transform="translate(-45)"/><path class="cls-1" d="M351,154.5h15a7.5,7.5,0,0,0,0-15H351a7.5,7.5,0,0,0,0,15Z" transform="translate(-45)"/><path class="cls-1" d="M183.52,208.87l-10.61,10.61a7.5,7.5,0,0,0,10.61,10.61l10.61-10.61a7.5,7.5,0,0,0-10.61-10.61Z" transform="translate(-45)"/><path class="cls-1" d="M317.87,219.48l10.61,10.61a7.5,7.5,0,0,0,10.61-10.61l-10.61-10.61a7.5,7.5,0,0,0-10.61,10.61Z" transform="translate(-45)"/><path class="cls-1" d="M459.5,259a7.5,7.5,0,0,0-7.5,7.5v213A17.52,17.52,0,0,1,434.5,497h-35a7.5,7.5,0,0,0,0,15h35A32.54,32.54,0,0,0,467,479.5v-213A7.5,7.5,0,0,0,459.5,259Z" transform="translate(-45)"/><path class="cls-1" d="M434.5,139H402.78C398.61,61.65,334.37,0,256,0S113.39,61.65,109.22,139H77.5A32.54,32.54,0,0,0,45,171.5v308A32.54,32.54,0,0,0,77.5,512h287a7.5,7.5,0,0,0,0-15H77.5A17.52,17.52,0,0,1,60,479.5V209h62.73a149.09,149.09,0,0,0,8.1,15H87.5A12.52,12.52,0,0,0,75,236.5v233A12.52,12.52,0,0,0,87.5,482h337A12.52,12.52,0,0,0,437,469.5v-233A12.52,12.52,0,0,0,424.5,224H381.17a149.09,149.09,0,0,0,8.1-15H452v22.5a7.5,7.5,0,0,0,15,0v-60A32.54,32.54,0,0,0,434.5,139ZM256,15A132,132,0,1,1,124,147,132.14,132.14,0,0,1,256,15ZM60,194V171.5A17.52,17.52,0,0,1,77.5,154h31.67a146.39,146.39,0,0,0,7.54,40Zm310.67,45H422V467H90V239h51.44a146.81,146.81,0,0,0,229.12,0Zm24.63-45a146.76,146.76,0,0,0,7.53-40H434.5A17.52,17.52,0,0,1,452,171.5V194Z" transform="translate(-45)"/><path class="cls-1" d="M274.5,395h-20A12.52,12.52,0,0,0,242,407.5v32A12.52,12.52,0,0,0,254.5,452h20A12.52,12.52,0,0,0,287,439.5v-32A12.52,12.52,0,0,0,274.5,395ZM272,437H257V410h15Z" transform="translate(-45)"/><path class="cls-1" d="M334.5,365h-20A12.52,12.52,0,0,0,302,377.5v62A12.52,12.52,0,0,0,314.5,452h20A12.52,12.52,0,0,0,347,439.5v-62A12.52,12.52,0,0,0,334.5,365ZM332,437H317V380h15Z" transform="translate(-45)"/><path class="cls-1" d="M374.5,452h20A12.52,12.52,0,0,0,407,439.5v-112A12.52,12.52,0,0,0,394.5,315h-20A12.52,12.52,0,0,0,362,327.5v112A12.52,12.52,0,0,0,374.5,452ZM377,330h15V437H377Z" transform="translate(-45)"/><path class="cls-1" d="M192,437H113a7.5,7.5,0,0,0,0,15h79a7.5,7.5,0,0,0,0-15Z" transform="translate(-45)"/><path class="cls-1" d="M113,407a7.5,7.5,0,0,0,0,15h49a7.5,7.5,0,0,0,0-15Z" transform="translate(-45)"/><path class="cls-1" d="M189.5,384.5A7.5,7.5,0,0,0,182,377H113a7.5,7.5,0,0,0,0,15h69A7.5,7.5,0,0,0,189.5,384.5Z" transform="translate(-45)"/><path class="cls-1" d="M112,362h49a7.5,7.5,0,0,0,0-15H112a7.5,7.5,0,0,0,0,15Z" transform="translate(-45)"/><path class="cls-1" d="M112,332h69a7.5,7.5,0,0,0,0-15H112a7.5,7.5,0,0,0,0,15Z" transform="translate(-45)"/></svg>