<svg id="Capa_1" data-name="Capa 1" xmlns="http://www.w3.org/2000/svg" viewBox="0 0 56.42 60"><defs><style>.cls-1{fill:#316fea;}</style></defs><title>2</title><path class="cls-1" d="M31.63,38a3.56,3.56,0,0,0,2.61-1.46L43.6,23.59a1,1,0,0,0-1.39-1.4L29.26,31.56a3.55,3.55,0,0,0-.42,5.4,3.54,3.54,0,0,0,2.51,1ZM29.8,34.31a1.57,1.57,0,0,1,.63-1.14l7.9-5.71-5.71,7.89a1.52,1.52,0,0,1-1.14.64,1.56,1.56,0,0,1-1.68-1.68Z" transform="translate(-1.79)"/><path class="cls-1" d="M54,19.56s0,0,0-.06l0-.05a27.14,27.14,0,0,0-3.57-4.81l2.15-2.15L54,13.91l4.24-4.24L54,5.42,49.72,9.67l1.42,1.41L49,13.23a26.79,26.79,0,0,0-4.81-3.57l0,0-.06,0A26.81,26.81,0,0,0,33.79,6.19V5h1.5a2.5,2.5,0,0,0,0-5h-9a2.5,2.5,0,0,0,0,5h1.5V6.16a27,27,0,0,0-3.22.53,1,1,0,0,0,.45,2,26.48,26.48,0,0,1,2.78-.48l1.07-.08L29.79,8v2a1,1,0,0,0,2,0V8a24.67,24.67,0,0,1,10.46,2.85l-1,1.7a1,1,0,0,0,1.74,1l1-1.7a25.05,25.05,0,0,1,7.77,7.77l-1.7,1a1,1,0,0,0,1,1.74l1.71-1A24.89,24.89,0,0,1,55.6,32h-2a1,1,0,1,0,0,2h2a24.89,24.89,0,0,1-2.84,10.62l-1.71-1a1,1,0,0,0-1.37.37,1,1,0,0,0,.37,1.36l1.7,1A25.16,25.16,0,0,1,44,54.12l-1-1.7a1,1,0,0,0-1.74,1l1,1.7A24.63,24.63,0,0,1,31.79,58V56a1,1,0,0,0-2,0v2A25.87,25.87,0,0,1,25,57.36a1,1,0,1,0-.45,2,27.08,27.08,0,0,0,6.06.69h.19A26.79,26.79,0,0,0,44,56.42l.1,0,0,0A27.28,27.28,0,0,0,54,46.58L54,46.5s0,0,0-.06a26.89,26.89,0,0,0,0-26.88ZM54,8.25l1.41,1.42L54,11.08,52.55,9.66ZM29.79,6V3h-3.5a.5.5,0,0,1,0-1h9a.5.5,0,0,1,0,1h-3.5V6l-1,0h-1Z" transform="translate(-1.79)"/><path class="cls-1" d="M21.79,14h-5a1,1,0,0,0,0,2h5a1,1,0,0,0,0-2Z" transform="translate(-1.79)"/><path class="cls-1" d="M21.79,21h-10a1,1,0,0,0,0,2h10a1,1,0,0,0,0-2Z" transform="translate(-1.79)"/><path class="cls-1" d="M21.79,28h-15a1,1,0,1,0,0,2h15a1,1,0,0,0,0-2Z" transform="translate(-1.79)"/><path class="cls-1" d="M21.79,35h-19a1,1,0,1,0,0,2h19a1,1,0,0,0,0-2Z" transform="translate(-1.79)"/><path class="cls-1" d="M21.79,42h-13a1,1,0,1,0,0,2h13a1,1,0,0,0,0-2Z" transform="translate(-1.79)"/><path class="cls-1" d="M21.79,49h-7a1,1,0,1,0,0,2h7a1,1,0,0,0,0-2Z" transform="translate(-1.79)"/></svg>