<svg id="Isolation_Mode" data-name="Isolation Mode" xmlns="http://www.w3.org/2000/svg" viewBox="0 0 42.03 42.05"><defs><style>.cls-1{fill:#316fea;}</style></defs><title>m_features</title><path class="cls-1" d="M41.59,24.17l-2.17-.57a16.13,16.13,0,0,0,0-2.78l2.17-.56a1.7,1.7,0,0,0,1-.8,1.65,1.65,0,0,0,.17-1.27l-.8-3A1.69,1.69,0,0,0,39.91,14l-2.15.58a18.42,18.42,0,0,0-1.38-2.4L38,10.63a1.66,1.66,0,0,0,.5-1.19A1.63,1.63,0,0,0,38,8.27L35.76,6.08a1.67,1.67,0,0,0-2.37,0L31.81,7.65a16.52,16.52,0,0,0-2.39-1.38L30,4.11a1.69,1.69,0,0,0-1.18-2.06l-3-.79a1.66,1.66,0,0,0-2.05,1.19L23.19,4.6a18.16,18.16,0,0,0-2.76,0l-.58-2.15a1.64,1.64,0,0,0-.78-1,1.61,1.61,0,0,0-1.27-.17l-3,.79a1.69,1.69,0,0,0-1.19,2.06l.58,2.16a17.08,17.08,0,0,0-2.39,1.38L10.23,6.08a1.68,1.68,0,0,0-2.38,0L5.67,8.27a1.65,1.65,0,0,0,0,2.36L7.24,12.2a19.64,19.64,0,0,0-1.38,2.4L3.71,14a1.7,1.7,0,0,0-2.06,1.19l-.8,3A1.65,1.65,0,0,0,1,19.46a1.7,1.7,0,0,0,1,.8l2.17.56a18.43,18.43,0,0,0,0,2.78L2,24.17A1.7,1.7,0,0,0,.85,26.23l.8,3a1.68,1.68,0,0,0,2.06,1.19l2.56-.68a.92.92,0,0,0,.29-.17l4.15-4.16a.62.62,0,0,0,.17-.61A11.34,11.34,0,0,1,24.75,11.11l-8.27,8.26a.67.67,0,0,0-.17.62A10.57,10.57,0,0,0,24,27.7a.6.6,0,0,0,.61-.15l8.27-8.28a11.44,11.44,0,0,1-3,10.89,11.31,11.31,0,0,1-10.73,3,.61.61,0,0,0-.61.17l-4.15,4.14a.62.62,0,0,0-.16.3l-.69,2.55a1.67,1.67,0,0,0,1.19,2.06l3,.8a2.14,2.14,0,0,0,.43.07,1.67,1.67,0,0,0,.84-.22,1.75,1.75,0,0,0,.78-1l.58-2.15a21.18,21.18,0,0,0,2.76,0L23.77,42a1.67,1.67,0,0,0,2.05,1.18l3-.8A1.68,1.68,0,0,0,30,40.31l-.58-2.13a17.61,17.61,0,0,0,2.39-1.4l1.58,1.58a1.68,1.68,0,0,0,2.37,0L38,36.17a1.66,1.66,0,0,0,.5-1.19,1.71,1.71,0,0,0-.5-1.19l-1.57-1.57a17.78,17.78,0,0,0,1.38-2.4l2.15.59A1.68,1.68,0,0,0,42,29.22l.8-3a1.7,1.7,0,0,0-1.18-2.06Zm-.07,1.72-.8,3a.37.37,0,0,1-.47.28l-2.68-.72a.66.66,0,0,0-.76.36A16.84,16.84,0,0,1,35,31.92a.64.64,0,0,0,.06.83l2,2a.34.34,0,0,1,.11.26.38.38,0,0,1-.11.29l-2.19,2.17a.38.38,0,0,1-.54,0l-2-1.95a.65.65,0,0,0-.84-.07,14.64,14.64,0,0,1-3.1,1.79A.66.66,0,0,0,28,38l.72,2.68a.37.37,0,0,1-.27.47l-3,.8a.38.38,0,0,1-.47-.27L24.3,39a.64.64,0,0,0-.62-.47H23.6a16.48,16.48,0,0,1-3.58,0,.64.64,0,0,0-.69.47l-.72,2.68a.39.39,0,0,1-.48.27l-3-.8a.28.28,0,0,1-.23-.18.36.36,0,0,1,0-.29l.64-2.4,3.77-3.76A12.65,12.65,0,0,0,33.84,17.84a.64.64,0,0,0-1.07-.23L24,26.38A9.34,9.34,0,0,1,17.66,20l8.77-8.77a.66.66,0,0,0,.17-.61.62.62,0,0,0-.41-.45A12.63,12.63,0,0,0,9.55,24.74L5.77,28.52l-2.4.64a.38.38,0,0,1-.47-.28l-.8-3a.37.37,0,0,1,.27-.47l2.69-.72a.63.63,0,0,0,.47-.7,16.39,16.39,0,0,1,0-3.57.64.64,0,0,0-.47-.7L2.37,19a.38.38,0,0,1-.27-.47l.8-3a.4.4,0,0,1,.47-.28L6.06,16a.62.62,0,0,0,.75-.36,16.36,16.36,0,0,1,1.79-3.1.67.67,0,0,0-.06-.85l-2-2a.37.37,0,0,1,0-.53L8.76,7a.4.4,0,0,1,.56,0l2,2a.64.64,0,0,0,.84.06,16.4,16.4,0,0,1,3.1-1.8.64.64,0,0,0,.37-.75l-.72-2.69a.38.38,0,0,1,.27-.47l3-.79a.39.39,0,0,1,.48.28l.72,2.66a.63.63,0,0,0,.69.48,17.85,17.85,0,0,1,3.58,0,.65.65,0,0,0,.7-.48L25,2.79a.38.38,0,0,1,.47-.28l3,.79a.38.38,0,0,1,.27.47L28,6.46a.64.64,0,0,0,.37.75A16.09,16.09,0,0,1,31.5,9,.64.64,0,0,0,32.34,9l2-2a.38.38,0,0,1,.54,0L37,9.18a.34.34,0,0,1,.11.26.31.31,0,0,1-.11.27l-2,2a.67.67,0,0,0-.06.85,17,17,0,0,1,1.79,3.1.63.63,0,0,0,.76.36l2.68-.71a.4.4,0,0,1,.47.28l.8,3a.38.38,0,0,1-.27.47l-2.69.72a.65.65,0,0,0-.47.7,16.39,16.39,0,0,1,0,3.57.63.63,0,0,0,.47.7l2.69.72A.37.37,0,0,1,41.52,25.89Z" transform="translate(-0.79 -1.2)"/></svg>