<svg id="Isolation_Mode" data-name="Isolation Mode" xmlns="http://www.w3.org/2000/svg" viewBox="0 0 34 43.62"><defs><style>.cls-1{fill:#316fea;}</style></defs><title>m_security</title><path class="cls-1" d="M36.19,17.69H36V14.36a14.14,14.14,0,1,0-28.28,0v3.33H7.49a2.64,2.64,0,0,0-2.65,2.63v6.51a17.08,17.08,0,0,0,16.77,17h.22a16.67,16.67,0,0,0,11.75-4.91,17.61,17.61,0,0,0,5.26-12.47V20.32A2.65,2.65,0,0,0,36.19,17.69ZM9,14.36a12.81,12.81,0,1,1,25.62,0v3.33h-3V14.36a9.83,9.83,0,1,0-19.65,0v3.33H9Zm4.31,3.33V14.36a8.5,8.5,0,1,1,17,0v3.33Zm24.18,8.77A16.34,16.34,0,0,1,32.66,38a15.26,15.26,0,0,1-11,4.51A15.73,15.73,0,0,1,6.16,26.83V20.32A1.31,1.31,0,0,1,7.49,19h28.7a1.32,1.32,0,0,1,1.33,1.31Z" transform="translate(-4.84 -0.21)"/><path class="cls-1" d="M21.83,23.83a3.31,3.31,0,0,0-3.29,3.32,3.23,3.23,0,0,0,1,2.33l-1,5.41a.65.65,0,0,0,.14.55.69.69,0,0,0,.51.24h5.28a.71.71,0,0,0,.51-.24.68.68,0,0,0,.14-.55l-1-5.41a3.27,3.27,0,0,0,1-2.33A3.32,3.32,0,0,0,21.83,23.83Zm1,5.51.89,5H20l.89-5a.66.66,0,0,0-.24-.63,2,2,0,1,1,2.4,0A.64.64,0,0,0,22.8,29.34Z" transform="translate(-4.84 -0.21)"/></svg>