<svg id="Isolation_Mode" data-name="Isolation Mode" xmlns="http://www.w3.org/2000/svg" viewBox="0 0 41.83 42.95"><defs><style>.cls-1{fill:#316fea;}</style></defs><title>m_speed</title><path class="cls-1" d="M18,38.8A16.77,16.77,0,0,1,18,5.26a16.6,16.6,0,0,1,6.75,1.41,17,17,0,0,1,5.43,3.83.7.7,0,0,1-1,1A15.19,15.19,0,0,0,18,6.66a15.37,15.37,0,1,0,5.71,29.65.7.7,0,0,1,.52,1.3A16.75,16.75,0,0,1,18,38.8Z" transform="translate(-1.26 -0.65)"/><path class="cls-1" d="M18,22.73a.69.69,0,0,1-.47-.18l-7.67-7a.69.69,0,0,1-.05-1,.7.7,0,0,1,1-.05l7.67,7a.7.7,0,0,1,.05,1A.71.71,0,0,1,18,22.73Z" transform="translate(-1.26 -0.65)"/><path class="cls-1" d="M18.06,9h0a.47.47,0,0,1-.46-.46V6a.47.47,0,0,1,.47-.47h0a.47.47,0,0,1,.47.47V8.51A.47.47,0,0,1,18.06,9Z" transform="translate(-1.26 -0.65)"/><path class="cls-1" d="M18,38.57h0a.46.46,0,0,1-.46-.47V35.55a.47.47,0,0,1,.47-.46h0a.46.46,0,0,1,.46.46V38.1A.47.47,0,0,1,18,38.57Z" transform="translate(-1.26 -0.65)"/><path class="cls-1" d="M4.51,22.47H2A.47.47,0,0,1,1.49,22,.46.46,0,0,1,2,21.54H4.51a.47.47,0,0,1,0,.93Z" transform="translate(-1.26 -0.65)"/><path class="cls-1" d="M6.65,33.84a.47.47,0,0,1-.33-.8l1.8-1.79a.45.45,0,0,1,.66,0,.47.47,0,0,1,0,.66L7,33.7A.47.47,0,0,1,6.65,33.84Z" transform="translate(-1.26 -0.65)"/><path class="cls-1" d="M8.49,12.92a.47.47,0,0,1-.33-.14L6.36,11a.46.46,0,0,1,0-.65.45.45,0,0,1,.66,0l1.8,1.8a.48.48,0,0,1-.33.8Z" transform="translate(-1.26 -0.65)"/><path class="cls-1" d="M12.43,9.4A.46.46,0,0,1,12,9.11l-.72-1.67a.46.46,0,0,1,.25-.61.45.45,0,0,1,.61.24l.71,1.68a.45.45,0,0,1-.24.61A.58.58,0,0,1,12.43,9.4Z" transform="translate(-1.26 -0.65)"/><path class="cls-1" d="M3.26,28.82a.47.47,0,0,1-.43-.28.48.48,0,0,1,.24-.62l1.68-.71a.47.47,0,0,1,.61.24.46.46,0,0,1-.25.61l-1.67.72A.39.39,0,0,1,3.26,28.82Z" transform="translate(-1.26 -0.65)"/><path class="cls-1" d="M12.05,37.41l-.17,0a.46.46,0,0,1-.26-.6l.68-1.7a.46.46,0,1,1,.86.35l-.67,1.69A.48.48,0,0,1,12.05,37.41Z" transform="translate(-1.26 -0.65)"/><path class="cls-1" d="M23.33,9.27a.46.46,0,0,1-.43-.64l.68-1.69a.46.46,0,1,1,.86.34L23.76,9A.46.46,0,0,1,23.33,9.27Z" transform="translate(-1.26 -0.65)"/><path class="cls-1" d="M4.8,17.2a.38.38,0,0,1-.17,0l-1.69-.68a.45.45,0,0,1-.26-.6.47.47,0,0,1,.61-.26L5,16.3a.46.46,0,0,1,.26.6A.47.47,0,0,1,4.8,17.2Z" transform="translate(-1.26 -0.65)"/><path class="cls-1" d="M24,43.6a.76.76,0,0,1-.38-.11.71.71,0,0,1-.26-.87l8-18.28L24,22.24a.7.7,0,0,1-.32-1.14L41.88.88a.69.69,0,0,1,.9-.12.71.71,0,0,1,.25.87l-8,18,7.42,2a.69.69,0,0,1,.48.47.67.67,0,0,1-.15.66L24.56,43.36A.67.67,0,0,1,24,43.6Zm1.45-22.4,7,2a.72.72,0,0,1,.44.38.71.71,0,0,1,0,.57l-6.52,15L41,22.69l-7.11-1.94a.71.71,0,0,1-.45-.38.69.69,0,0,1,0-.58L40,5.08Z" transform="translate(-1.26 -0.65)"/></svg>