<?xml version="1.0" encoding="utf-8"?>
<!-- Generator: Adobe Illustrator 23.0.1, SVG Export Plug-In . SVG Version: 6.00 Build 0)  -->
<svg version="1.1" id="Layer_1" xmlns="http://www.w3.org/2000/svg" xmlns:xlink="http://www.w3.org/1999/xlink" x="0px" y="0px"
	 viewBox="0 0 25.3 25.3" style="enable-background:new 0 0 25.3 25.3;" xml:space="preserve">
<style type="text/css">
	.st0{fill:#FFFFFF;}
</style>
<title>calculator</title>
<path class="st0" d="M1,0.3C1.4,0.1,1.8,0,2.2,0h9.4v11.5H0V2.1C0,1.4,0.4,0.7,1,0.3z M5.2,3c0,0.7,0,1.4,0,2.1H3.1
	c0,0.4,0,0.8,0,1.1c0.7,0,1.4,0,2.1,0c0,0.7,0,1.4,0,2.1h1.2c0-0.7,0-1.4,0-2.1h2.1c0-0.4,0-0.8,0-1.2H6.4c0-0.7,0-1.4,0-2.1L5.2,3z
	"/>
<path class="st0" d="M13.9,0h9.3c1.1,0,2,0.9,2.1,2.1c0,3.1,0,6.3,0,9.4H13.9C13.9,7.7,13.9,3.8,13.9,0z M16.9,5.1v1.2h5.3
	c0-0.4,0-0.8,0-1.2C22.2,5.1,16.9,5.1,16.9,5.1z"/>
<path class="st0" d="M0,13.8h11.6v11.5H2.1c-1.1,0-2.1-1-2.1-2.1V13.8z M4,16.9l-0.8,0.8L5,19.5l-1.9,1.8c0.3,0.3,0.6,0.6,0.8,0.8
	l1.9-1.9l1.9,1.9c0.3-0.3,0.6-0.6,0.8-0.8l-1.9-1.9l1.8-1.8c-0.3-0.3-0.5-0.6-0.8-0.8C7,17.4,6.4,18,5.8,18.6L4,16.9z"/>
<path class="st0" d="M13.9,13.8h11.4c0,3.1,0,6.3,0,9.4c0,1.1-0.9,2-2.1,2.1h-9.3C13.9,21.4,13.9,17.6,13.9,13.8z M16.9,17.9
	c0,0.4,0,0.8,0,1.2h5.3v-1.2H16.9z M16.9,20c0,0.4,0,0.8,0,1.2h5.3V20H16.9z"/>
</svg>
