<?xml version="1.0" encoding="utf-8"?>
<!-- Generator: Adobe Illustrator 23.0.1, SVG Export Plug-In . SVG Version: 6.00 Build 0)  -->
<svg version="1.1" id="Layer_1" xmlns="http://www.w3.org/2000/svg" xmlns:xlink="http://www.w3.org/1999/xlink" x="0px" y="0px"
	 viewBox="0 0 35.8 53.4" style="enable-background:new 0 0 35.8 53.4;" xml:space="preserve">
<style type="text/css">
	.st0{fill:#316FEA;}
</style>
<title>logo</title>
<path class="st0" d="M17.9,35.8C8,35.8,0,27.8,0,17.9C0,8,8,0,17.9,0c9.9,0,17.9,8,17.9,17.9v0C35.8,27.8,27.8,35.8,17.9,35.8z
	 M17.9,9c-5,0-9,4-9,9s4,9,9,9s9-4,9-9C26.9,13,22.9,9,17.9,9L17.9,9z"/>
<path class="st0" d="M4.8,51.5c1.6-1.1,3.5-1.7,5.4-1.8c3.5,0,6.6,3.7,13,3.7c4.2-0.1,8.1-2,10.8-5.1l-3.2-5.1
	c-1.6,1.1-3.5,1.7-5.4,1.8c-3.5,0-6.6-3.7-13-3.7c-4.2,0.1-8.1,2-10.8,5.1L4.8,51.5z"/>
</svg>
