<svg width="365" height="333" viewBox="0 0 365 333" fill="none" xmlns="http://www.w3.org/2000/svg">
<g clip-path="url(#clip0)">
<path d="M44.6404 238.858L31.588 239.106L24.9782 239.203C22.7691 239.247 20.5512 239.238 18.3332 239.256H17.946V238.858L17.902 227.709V227.267H18.342L31.5 227.32C35.8831 227.329 40.275 227.417 44.658 227.462H44.9045V227.7C44.8869 229.589 44.8252 231.469 44.79 233.332L44.6404 238.858ZM44.6404 238.858L44.5172 233.226C44.4732 231.372 44.4204 229.527 44.4028 227.7L44.6404 227.938C40.2574 227.982 35.8655 228.079 31.4824 228.079L18.3244 228.132L18.7645 227.691L18.7205 238.841L18.3244 238.444C20.4984 238.461 22.6635 238.452 24.8374 238.488L31.3768 238.585L44.6404 238.858Z" fill="#EBEBEB"/>
<path d="M29.9598 252.922L16.9074 253.169L10.2888 253.266C8.07966 253.31 5.86173 253.301 3.64379 253.31H3.25653V252.913L3.21252 241.763V241.322H3.65259L16.8106 241.375C21.1936 241.383 25.5855 241.472 29.9686 241.516H30.215V241.754C30.1974 243.643 30.1358 245.524 30.1006 247.386L29.9598 252.922ZM29.9598 252.922L29.8366 247.289C29.7925 245.435 29.7397 243.59 29.7221 241.763L29.9598 242.001C25.5767 242.045 21.1848 242.143 16.8018 242.143L3.64379 242.196L4.08386 241.754L4.03985 252.922L3.64379 252.524C5.81772 252.542 7.98285 252.533 10.1568 252.568L16.6962 252.665L29.9598 252.922Z" fill="#EBEBEB"/>
<path d="M29.9598 11.5911L16.9074 11.8383L10.2888 11.9354C8.07967 11.9796 5.86174 11.9707 3.6438 11.9884H3.25654V11.5911L3.20374 0.441399V0H3.6438L16.8018 0.0529678C21.1849 0.0529678 25.5767 0.150076 29.9598 0.194215H30.2062V0.432571C30.1886 2.32176 30.127 4.20212 30.0918 6.06482L29.9598 11.5911ZM29.9598 11.5911L29.8366 5.96771C29.7926 4.11384 29.7397 2.26879 29.7221 0.441399L29.9598 0.679754C25.5767 0.723894 21.1849 0.821002 16.8018 0.821002L3.6438 0.882797L4.08387 0.441399L4.03986 11.5911L3.6438 11.1939C5.81773 11.2115 7.98286 11.2027 10.1568 11.2468L16.6962 11.3439L29.9598 11.5911Z" fill="#EBEBEB"/>
<path d="M362.633 11.5911L349.58 11.8383L342.962 11.9354C340.752 11.9796 338.534 11.9707 336.317 11.9884H335.929V11.5911L335.876 0.441399V0H336.317L349.475 0.0529678C353.858 0.0529678 358.249 0.150076 362.633 0.194215H362.879V0.432571C362.861 2.32176 362.8 4.20212 362.765 6.06482L362.633 11.5911ZM362.633 11.5911L362.509 5.95888C362.465 4.10501 362.413 2.25996 362.395 0.432571L362.633 0.670926C358.249 0.715066 353.858 0.812174 349.475 0.812174L336.317 0.882797L336.757 0.441399L336.713 11.5911L336.317 11.1939C338.49 11.2115 340.656 11.2027 342.83 11.2468L349.369 11.3439L362.633 11.5911Z" fill="#EBEBEB"/>
<path d="M347.952 25.6541L334.899 25.9013L328.281 25.9984C326.072 26.0426 323.854 26.0337 321.636 26.0514H321.249V25.6541L321.205 14.5044V14.063H321.645L334.803 14.116C339.186 14.116 343.578 14.2131 347.961 14.2572H348.207V14.4956C348.189 16.3847 348.128 18.2651 348.093 20.1278L347.952 25.6541ZM347.952 25.6541L347.829 20.0219C347.785 18.168 347.732 16.3229 347.714 14.4956L347.952 14.7339C343.569 14.7781 339.177 14.8752 334.794 14.8752L321.636 14.9281L322.076 14.4867L322.032 25.6365L321.636 25.2392C323.81 25.2569 325.975 25.248 328.149 25.2922L334.688 25.3893L347.952 25.6541Z" fill="#EBEBEB"/>
<path d="M276.556 129.868L263.503 130.115L256.885 130.213C254.675 130.257 252.457 130.248 250.24 130.257H249.852V129.859L249.808 118.71V118.268H250.248L263.406 118.321C267.789 118.33 272.181 118.418 276.564 118.463H276.811V118.701C276.793 120.59 276.732 122.47 276.696 124.333L276.556 129.868ZM276.556 129.868L276.432 124.236C276.388 122.382 276.336 120.537 276.318 118.71L276.556 118.948C272.172 118.992 267.781 119.089 263.398 119.089L250.24 119.142L250.68 118.701L250.636 129.851L250.24 129.453C252.413 129.471 254.579 129.462 256.753 129.506L263.292 129.603L276.556 129.868Z" fill="#EBEBEB"/>
<path d="M261.884 143.931L248.831 144.178L242.222 144.276C240.012 144.32 237.794 144.311 235.577 144.32H235.189V143.922L235.145 132.773V132.331H235.585L248.743 132.384C253.126 132.393 257.518 132.481 261.901 132.526H262.148V132.764C262.13 134.653 262.069 136.533 262.033 138.396L261.884 143.931ZM261.884 143.931L261.76 138.299C261.716 136.445 261.664 134.6 261.646 132.773L261.884 133.011C257.501 133.055 253.109 133.152 248.726 133.152L235.568 133.205L236.008 132.764L235.964 143.914L235.568 143.516C237.742 143.534 239.907 143.525 242.081 143.569L248.62 143.666L261.884 143.931Z" fill="#EBEBEB"/>
<path d="M247.256 129.868L234.203 130.115L227.585 130.213C225.376 130.257 223.158 130.248 220.94 130.257H220.553V129.859L220.509 118.71V118.268H220.949L234.107 118.321C238.49 118.33 242.882 118.418 247.265 118.463H247.511V118.701C247.493 120.59 247.432 122.47 247.397 124.333L247.256 129.868ZM247.256 129.868L247.133 124.236C247.089 122.382 247.036 120.537 247.018 118.71L247.256 118.948C242.873 118.992 238.481 119.089 234.098 119.089L220.94 119.142L221.38 118.701L221.336 129.851L220.94 129.453C223.114 129.471 225.279 129.462 227.453 129.506L233.992 129.603L247.256 129.868Z" fill="#EBEBEB"/>
<path d="M362.632 252.922L349.58 253.169L342.962 253.266C340.752 253.31 338.534 253.301 336.317 253.31H335.929V252.913L335.885 241.763V241.322H336.325L349.483 241.375C353.866 241.383 358.258 241.472 362.641 241.516H362.888V241.754C362.87 243.643 362.809 245.524 362.773 247.386L362.632 252.922ZM362.632 252.922L362.509 247.289C362.465 245.435 362.412 243.59 362.395 241.763L362.632 242.001C358.249 242.045 353.858 242.143 349.475 242.143L336.317 242.196L336.757 241.754L336.713 252.904L336.317 252.507C338.49 252.524 340.656 252.515 342.829 252.551L349.369 252.648L362.632 252.922Z" fill="#EBEBEB"/>
<path d="M125.41 89.7275L112.358 89.9747L105.748 90.0718C103.539 90.1159 101.321 90.1071 99.103 90.1247H98.7158V89.7275L98.6718 78.5778V78.1364H99.1118L112.27 78.1893C116.653 78.1893 121.045 78.2864 125.428 78.3306H125.674V78.5689C125.657 80.4581 125.595 82.3385 125.56 84.2012L125.41 89.7275ZM125.41 89.7275L125.287 84.0952C125.243 82.2414 125.19 80.3963 125.173 78.5689L125.41 78.8073C121.027 78.8514 116.635 78.9485 112.252 78.9485L99.0942 79.0015L99.5343 78.5601L99.4903 89.7098L99.0942 89.3126C101.268 89.3302 103.433 89.3214 105.607 89.3655L112.147 89.4626L125.41 89.7275Z" fill="#EBEBEB"/>
<path d="M4.03101 272.811H129.336L133.367 193.059H0L4.03101 272.811Z" fill="#EBEBEB"/>
<path d="M120.112 229.518H9.83988L8.32605 201.931H121.872L120.112 229.518ZM10.676 228.636H119.284L120.939 202.814H9.25899L10.676 228.636Z" fill="#DBDBDB"/>
<path d="M118.615 261.37H13.0171L11.7849 236.475H120.165L118.615 261.37ZM13.8532 260.487H117.788L119.232 237.358H12.7091L13.8532 260.487Z" fill="#DBDBDB"/>
<path d="M77.6277 218.678H54.3129L53.468 212.101H78.4726L77.6277 218.678ZM55.0875 217.795H76.8444L77.4604 212.984H54.4714L55.0875 217.795Z" fill="#DBDBDB"/>
<path d="M77.6277 252.215H54.3129L53.468 245.638H78.4726L77.6277 252.215ZM55.0875 251.332H76.8444L77.4604 246.521H54.4714L55.0875 251.332Z" fill="#DBDBDB"/>
<path d="M21.4048 272.811L20.1903 281.498L17.7435 298.959H12.9556V272.811H21.4048Z" fill="#EBEBEB"/>
<path d="M21.4048 272.811L20.1903 281.498H12.9556V272.811H21.4048Z" fill="#DBDBDB"/>
<path d="M111.962 272.811L113.176 281.498L115.623 298.959H120.411V272.811H111.962Z" fill="#EBEBEB"/>
<path d="M111.962 272.811L113.176 281.498H120.411V272.811H111.962Z" fill="#DBDBDB"/>
<path d="M1.27625 298.951L46.7439 298.73L92.2116 298.65L183.138 298.509L274.065 298.65L319.532 298.73L365 298.951L319.532 299.162L274.065 299.242L183.138 299.392L92.2116 299.242L46.7439 299.162L1.27625 298.951Z" fill="#263238"/>
<path d="M356.102 222.818C345.743 236.899 334.935 253.23 332.303 270.886C332.268 271.151 332.699 271.24 332.761 270.975C333.967 266.128 335.489 261.432 337.346 256.841C344.158 254.961 350.847 253.416 354.421 246.636C358.073 239.662 357.607 230.569 356.912 222.977C356.868 222.562 356.313 222.544 356.102 222.818Z" fill="#FFC727"/>
<path d="M337.443 256.709C342.099 246.23 348.075 235.707 355.671 227.091C355.723 227.029 355.803 227.117 355.75 227.179C350.777 233.315 347.001 239.997 343.305 246.804C346.737 243.308 350.496 240.183 353.743 236.475C353.805 236.404 353.91 236.51 353.849 236.581C350.619 240.465 347.098 244.685 342.891 247.563C341.765 249.646 340.629 251.739 339.476 253.84C339.758 253.681 340.048 253.539 340.339 253.398C340.392 253.372 340.436 253.451 340.383 253.478C340.066 253.637 339.749 253.813 339.415 253.954C338.869 254.943 338.332 255.932 337.769 256.921C337.654 257.124 337.346 256.929 337.443 256.709Z" fill="#263238"/>
<path d="M340.911 253.054C343.692 251.456 346.368 249.743 348.867 247.731C348.938 247.678 349.034 247.766 348.964 247.828C346.508 249.911 343.895 251.774 341.025 253.257C340.893 253.31 340.779 253.124 340.911 253.054Z" fill="#263238"/>
<path d="M331.106 268.265C331.124 268.476 331.493 268.476 331.485 268.247C331.537 262.429 331.493 256.594 331.581 250.75C333.069 247.748 336.255 246.08 338.473 243.67C340.075 241.931 341.439 239.971 342.609 237.896C345.347 232.979 346.834 227.444 347.406 221.856C348.022 215.641 345.664 195.116 343.05 195.831C341.694 196.202 337.311 206.363 336.14 209.726C334.231 215.253 332.893 220.982 332.013 226.764C329.892 240.448 330.068 254.493 331.106 268.265Z" fill="#FFC727"/>
<path d="M331.062 243.184C331.071 243.175 331.08 243.167 331.088 243.158C331.405 235.804 333.06 228.371 334.609 221.238C336.272 213.549 338.226 206.31 342.169 199.459C342.24 199.336 342.433 199.442 342.363 199.574C339.678 204.88 337.76 210.512 336.29 216.294C336.554 215.879 336.871 215.491 337.152 215.094C337.258 214.944 337.513 215.085 337.408 215.244C337.02 215.826 336.668 216.497 336.176 216.992C336.158 217.009 336.14 217.009 336.123 217.018C334.767 222.509 333.79 228.132 332.954 233.738C333.016 233.668 333.077 233.588 333.139 233.518C333.183 233.473 333.253 233.526 333.227 233.579C333.121 233.765 333.007 233.95 332.893 234.136C332.47 236.978 332.083 239.821 331.696 242.637C336.748 238.302 341.06 233.2 343.489 226.914C343.498 226.888 343.551 226.897 343.533 226.932C341.148 233.456 337.39 239.256 331.608 243.211C331.502 243.97 331.396 244.729 331.291 245.479C331.264 245.638 331.018 245.594 331.018 245.444C331.018 244.773 331.053 244.102 331.08 243.431C331.009 243.361 330.974 243.255 331.062 243.184Z" fill="#263238"/>
<path d="M333.438 232.52C337.302 226.747 340.902 221.132 343.727 214.741C343.762 214.67 343.877 214.723 343.85 214.793C341.474 221.141 338.138 227.568 333.632 232.67C333.544 232.776 333.359 232.635 333.438 232.52Z" fill="#263238"/>
<path d="M338.57 213.319C340.171 210.485 341.852 207.722 343.357 204.827C343.401 204.747 343.507 204.818 343.481 204.897C342.222 207.855 340.708 210.856 338.816 213.46C338.71 213.611 338.482 213.478 338.57 213.319Z" fill="#263238"/>
<path d="M337.945 214.555C337.98 214.555 337.98 214.608 337.945 214.608C337.918 214.599 337.918 214.555 337.945 214.555Z" fill="#263238"/>
<path d="M327.181 251.447C327.084 255.296 326.67 259.154 325.825 262.906C325.887 263.321 325.948 263.736 326.001 264.16C327.216 259.984 327.841 255.711 328.043 251.394C328.105 251.271 328.14 251.147 328.061 250.997C328.061 250.997 328.061 250.997 328.061 250.988C328.281 245.223 327.744 239.397 326.785 233.685C324.989 223.003 321.073 212.745 313.635 204.738C313.398 204.491 312.931 204.624 312.817 204.906C309.816 212.551 310.863 221.679 313.415 229.307C314.806 233.412 316.786 237.358 319.303 240.898C321.865 244.482 325.112 247.519 327.181 251.447Z" fill="#FFC727"/>
<path d="M314.516 208.314C321.557 219.772 326.459 233.368 327.057 246.901C327.066 247.139 326.661 247.201 326.635 246.963C326.468 245.744 326.283 244.544 326.089 243.343C326.089 243.343 326.08 243.343 326.08 243.334C323.167 240.536 320.175 237.587 318.089 234.083C318.054 234.021 318.142 233.95 318.186 234.003C320.72 236.908 323.088 239.883 325.948 242.478C325.447 239.485 324.848 236.537 324.135 233.632C323.951 233.412 323.766 233.191 323.581 232.979C323.458 232.838 323.66 232.626 323.792 232.767C323.845 232.829 323.907 232.891 323.959 232.953C322.965 228.971 321.741 225.06 320.28 221.229C318.485 219.084 316.487 217.23 315.176 214.652C315.14 214.59 315.228 214.537 315.272 214.599C316.32 216.074 317.341 217.565 318.529 218.934C319.004 219.481 319.524 219.993 320.016 220.523C318.415 216.427 316.513 212.419 314.252 208.473C314.146 208.296 314.41 208.137 314.516 208.314Z" fill="#263238"/>
<path d="M315.941 222.447C318.221 225.52 320.808 228.45 322.93 231.629C322.991 231.717 322.859 231.814 322.78 231.743C320.06 229.183 317.763 225.696 315.792 222.545C315.73 222.439 315.88 222.359 315.941 222.447Z" fill="#263238"/>
<path d="M323.247 232.343L323.343 232.441C323.414 232.511 323.308 232.617 323.238 232.547L323.141 232.449C323.07 232.379 323.176 232.273 323.247 232.343Z" fill="#263238"/>
<path d="M303.488 230.348C304.051 236.245 307.149 243.29 310.916 247.837C312.588 249.849 314.612 251.385 316.945 252.551C319.55 253.848 322.287 255.34 324.989 256.4C326.248 259.631 327.216 263.012 327.832 266.543C327.92 266.252 328.008 265.943 328.096 265.643C326.362 250.715 316.734 237.949 304.412 229.757C303.963 229.466 303.435 229.845 303.488 230.348Z" fill="#FFC727"/>
<path d="M307.747 234.753C307.659 234.674 307.774 234.524 307.871 234.595C314.401 239.441 320.28 246.521 323.572 253.998C323.66 254.201 323.378 254.378 323.264 254.175C322.692 253.169 322.111 252.189 321.513 251.226H321.504C318.687 250.697 316.029 248.711 313.943 246.83C313.891 246.777 313.97 246.698 314.023 246.751C315.114 247.713 316.285 248.596 317.578 249.258C318.723 249.84 319.955 250.211 321.152 250.679C320.113 249.019 319.022 247.43 317.886 245.886C314.859 244.853 311.981 242.99 309.437 241.118C309.358 241.057 309.428 240.924 309.516 240.986C312.113 242.549 314.665 243.926 317.367 245.197C315.66 242.928 313.82 240.783 311.822 238.708C310.863 238.205 309.895 237.693 308.971 237.155C308.891 237.111 308.944 236.978 309.032 237.013C309.772 237.261 310.52 237.649 311.224 238.09C310.115 236.952 308.971 235.839 307.747 234.753Z" fill="#263238"/>
<path d="M308.003 239.909C308.17 240.015 308.328 240.112 308.478 240.244C308.522 240.289 308.469 240.342 308.416 240.324C308.24 240.244 308.091 240.147 307.923 240.041C307.844 239.997 307.923 239.856 308.003 239.909Z" fill="#263238"/>
<path d="M347.318 298.871H313.556L316.285 268.035L316.883 261.229H343.991L344.59 268.035L347.318 298.871Z" fill="#316FEA"/>
<path d="M344.59 268.035H316.285L316.883 261.229H343.991L344.59 268.035Z" fill="#2455A3"/>
<path d="M345.602 256.479H315.264V263.206H345.602V256.479Z" fill="#316FEA"/>
<path d="M183.138 333C221.004 333 251.7 327.886 251.7 321.577C251.7 315.268 221.004 310.153 183.138 310.153C145.272 310.153 114.576 315.268 114.576 321.577C114.576 327.886 145.272 333 183.138 333Z" fill="#EBEBEB"/>
<path d="M93.6638 118.93H37.0536V98.9968L84.0791 24.7712H118.862V96.6839H134.123V118.93H118.862V143.499H93.6638V118.93ZM61.7237 96.6751H93.6638V47.1943L61.7237 96.6751Z" fill="#316FEA"/>
<path d="M313.609 118.878H256.999V98.944L304.024 24.7184H338.807V96.6311H354.069V118.878H338.807V143.446H313.609V118.878ZM281.66 96.6222H313.6V47.1414L281.66 96.6222Z" fill="#316FEA"/>
<path d="M116.266 213.822C116.266 213.822 121.511 182.933 123.729 176.833C125.261 172.622 131.527 162.002 135.998 154.119C136.896 152.53 142.678 148.681 145.451 147.207C149.183 145.229 156.206 148.416 156.725 156.555C156.937 159.937 151.198 163.794 149.596 167.352C147.343 172.349 147.193 178.846 147.009 179.888C146.692 181.671 159.128 195.478 158.582 200.739C158.037 206.001 143.62 224.054 140.496 225.096C137.371 226.129 116.345 218.916 116.266 213.822Z" fill="#FFC727"/>
<path d="M141.869 160.572C144.676 162.647 149.165 163.883 151.585 164.448C153.847 161.764 156.875 159.036 156.716 156.555C156.206 148.425 149.174 145.229 145.442 147.207C143.532 148.222 140.214 150.358 138.031 152.115C138.031 152.106 137.873 157.632 141.869 160.572Z" fill="#EBEBEB"/>
<path d="M153.522 149.149C153.583 149.113 153.636 149.202 153.592 149.246C152.342 150.429 151.136 151.656 150.01 152.954C148.98 154.128 148.03 155.372 147.889 156.988C147.88 157.085 147.739 157.085 147.739 156.988C147.713 155.417 148.144 153.766 149.068 152.486C150.177 150.923 151.885 150.049 153.522 149.149Z" fill="#263238"/>
<path d="M149.711 146.306C149.763 146.271 149.825 146.35 149.781 146.403C148.831 147.313 147.748 148.601 146.525 150.146C145.653 151.25 144.122 152.874 144.738 154.393C144.844 154.657 144.694 154.684 144.535 154.445C143.594 153.015 144.562 151.197 145.398 149.97C146.507 148.354 148.047 147.268 149.711 146.306Z" fill="#263238"/>
<path opacity="0.1" d="M140.504 225.096C143.629 224.054 158.037 206.001 158.582 200.739C158.996 196.723 151.849 187.727 148.584 182.898L121.538 185.555C119.144 196.82 116.266 213.805 116.266 213.805C116.345 218.925 137.371 226.129 140.504 225.096Z" fill="black"/>
<path d="M65.4995 225.025C65.4995 225.025 39.2539 222.668 38.3122 224.548C37.6961 225.775 43.4874 241.463 46.7791 246.662C50.0708 251.862 71.2116 271.857 76.8092 276.263L65.4995 225.025Z" fill="#FFC727"/>
<path opacity="0.1" d="M54.7971 246.459C57.0327 249.991 67.383 259.86 74.5561 266.04L66.0804 227.673C59.5146 226.808 46.0398 225.202 45.4765 226.499C44.9836 227.612 51.6374 241.472 54.7971 246.459Z" fill="black"/>
<path d="M90.689 196.299C90.7066 195.646 84.8977 176.595 93.479 164.73C95.072 162.532 123.967 189.395 123.967 189.395L90.689 196.299Z" fill="#FFC727"/>
<path opacity="0.1" d="M96.1722 195.16L122.831 189.634C120.05 187.065 99.6928 168.332 98.4958 169.983C92.0444 178.881 95.6265 192.777 96.1722 195.16Z" fill="black"/>
<path d="M170.737 224.857C170.737 224.857 161.381 199.901 145.169 187.851C143.154 186.359 104.208 187.692 96.4626 189.625C94.2535 190.172 68.8176 213.355 61.5565 228.309C60.3596 230.781 66.2476 258.227 75.7443 274.585C78.0942 278.637 120.323 315.115 147.915 321.294C153.126 322.459 219.083 320.367 234.934 309.412C250.785 298.456 278.404 258.642 280.094 247.528C281.783 236.413 242.362 202.805 228.949 202.805C215.545 202.814 170.737 224.857 170.737 224.857Z" fill="#FFC727"/>
<path d="M110.888 195.063C114.065 190.269 120.429 191.037 126.009 194.754C130.524 197.764 133.243 203.679 130.198 208.278C127.153 212.878 119.848 212.11 115.605 209.285C111.363 206.46 107.438 200.263 110.888 195.063Z" fill="#263238"/>
<path d="M111.75 196.299C114.734 191.797 120.719 192.521 125.965 196.008C130.207 198.833 132.768 204.403 129.899 208.72C127.03 213.046 120.173 212.322 116.186 209.664C112.199 207.016 108.512 201.19 111.75 196.299Z" fill="white"/>
<path d="M116.054 198.091C118.395 194.569 123.078 195.134 127.179 197.861C130.497 200.077 132.504 204.429 130.26 207.81C128.015 211.192 122.647 210.627 119.522 208.552C116.406 206.486 113.511 201.922 116.054 198.091Z" fill="#263238"/>
<path d="M112.692 199.353C113.757 197.755 115.878 198.011 117.744 199.247C119.249 200.254 120.165 202.231 119.144 203.767C118.123 205.303 115.685 205.047 114.268 204.103C112.859 203.167 111.539 201.092 112.692 199.353Z" fill="white"/>
<path d="M89.5534 228.53C84.0702 233.615 85.2056 240.386 89.7559 245.321C93.4348 249.311 100.449 250.37 105.704 245.488C110.958 240.607 109.797 232.803 106.346 229.051C102.887 225.308 95.5031 223.012 89.5534 228.53Z" fill="#263238"/>
<path d="M91.0321 229.068C85.8833 233.844 86.9483 240.218 91.2169 244.844C94.6758 248.596 101.268 249.593 106.206 245.003C111.152 240.412 110.052 233.076 106.804 229.554C103.565 226.04 96.6297 223.886 91.0321 229.068Z" fill="white"/>
<path d="M95.0807 231.072C91.0497 234.815 91.8858 239.794 95.2303 243.423C97.9411 246.362 103.099 247.139 106.963 243.546C110.835 239.953 109.973 234.215 107.429 231.452C104.885 228.698 99.455 227.011 95.0807 231.072Z" fill="#263238"/>
<path d="M90.5567 233.562C88.7261 235.257 89.1045 237.526 90.6271 239.168C91.8593 240.501 94.2005 240.854 95.9608 239.221C97.721 237.587 97.325 234.983 96.172 233.73C95.0102 232.485 92.537 231.717 90.5567 233.562Z" fill="white"/>
<path d="M111.786 220.647C112.331 220.955 116.406 219.34 116.662 218.996C116.917 218.651 117.339 214.22 116.899 213.77C116.468 213.319 114.206 215.985 113.669 216.692C113.141 217.407 111.249 220.346 111.786 220.647Z" fill="#263238"/>
<path d="M122.11 214.176C122.453 215.191 122.778 216.215 123.007 217.239C123.113 217.751 123.21 218.272 123.192 218.749C123.183 218.978 123.131 219.208 123.051 219.296C122.972 219.384 122.778 219.499 122.576 219.543C122.162 219.658 121.661 219.614 121.168 219.552C120.675 219.481 120.173 219.367 119.672 219.225C118.686 218.943 117.683 218.59 116.741 218.184L114.998 217.424L116.063 219.005C116.767 220.046 117.401 221.185 117.92 222.333C118.175 222.907 118.395 223.498 118.536 224.089C118.659 224.672 118.73 225.281 118.536 225.749L118.457 225.917L118.351 226.067C118.263 226.173 118.167 226.27 118.052 226.358C117.832 226.535 117.577 226.685 117.295 226.808C116.741 227.056 116.116 227.197 115.491 227.294C114.224 227.488 112.921 227.497 111.618 227.418C112.895 227.709 114.215 227.859 115.544 227.797C116.213 227.762 116.882 227.665 117.551 227.435C118.202 227.197 118.888 226.861 119.293 226.085C119.645 225.343 119.592 224.575 119.478 223.886C119.346 223.198 119.135 222.545 118.888 221.918C118.378 220.664 117.727 219.508 116.987 218.369L116.31 219.19C117.33 219.614 118.351 219.967 119.425 220.223C119.962 220.346 120.508 220.444 121.071 220.496C121.634 220.541 122.224 220.541 122.84 220.329C123.148 220.214 123.439 220.055 123.685 219.72C123.905 219.349 123.887 219.022 123.879 218.722C123.826 218.131 123.676 217.601 123.491 217.08C123.122 216.082 122.655 215.103 122.11 214.176Z" fill="#263238"/>
<path d="M131.008 195.972C132.759 193.359 134.59 190.799 136.482 188.292C138.375 185.785 140.293 183.304 142.326 180.912C143.312 179.693 144.342 178.511 145.363 177.319C146.401 176.145 147.449 174.971 148.514 173.823C150.617 171.492 152.844 169.276 155.053 167.034C153.865 168.067 152.677 169.1 151.533 170.177C150.397 171.263 149.262 172.357 148.17 173.487C145.961 175.73 143.884 178.104 141.851 180.514C139.853 182.951 137.917 185.44 136.104 188.018C135.197 189.307 134.317 190.614 133.455 191.929C132.601 193.262 131.765 194.586 131.008 195.972Z" fill="#263238"/>
<path d="M133.226 196.096C134.159 195.028 135.083 193.951 136.033 192.9C136.975 191.841 137.917 190.79 138.876 189.749C140.786 187.665 142.722 185.591 144.711 183.587C145.688 182.563 146.692 181.565 147.695 180.567L150.749 177.628L152.289 176.162L153.865 174.732C154.886 173.752 155.986 172.852 157.025 171.89C154.754 173.584 152.536 175.359 150.424 177.257C148.294 179.137 146.26 181.115 144.263 183.136C142.3 185.184 140.355 187.259 138.515 189.422C136.676 191.585 134.88 193.792 133.226 196.096Z" fill="#263238"/>
<path d="M134.124 197.835C135.004 197.041 135.866 196.246 136.764 195.469C137.644 194.683 138.524 193.898 139.422 193.139C141.217 191.611 143.004 190.075 144.826 188.583C146.648 187.083 148.479 185.608 150.327 184.143C152.166 182.669 154.059 181.256 155.916 179.791C154.912 180.417 153.918 181.062 152.941 181.715C151.973 182.386 150.996 183.057 150.036 183.754C148.109 185.132 146.261 186.597 144.421 188.098C142.599 189.607 140.813 191.161 139.096 192.785C137.38 194.401 135.69 196.061 134.124 197.835Z" fill="#263238"/>
<path d="M94.6143 255.234C93.2677 256.647 92.0003 258.139 90.7329 259.622C89.4919 261.132 88.2773 262.659 87.0891 264.213C84.7128 267.32 82.4772 270.525 80.3297 273.791C78.2174 277.084 76.1755 280.412 74.3096 283.855C73.359 285.567 72.4789 287.307 71.5988 289.054C71.1587 289.928 70.7539 290.811 70.3402 291.703L69.1256 294.369C70.9475 290.908 72.743 287.457 74.7321 284.093C75.7002 282.398 76.7124 280.739 77.7157 279.061C78.7543 277.41 79.7664 275.751 80.8578 274.135C82.9525 270.851 85.1968 267.655 87.4764 264.504C89.7735 261.352 92.1323 258.245 94.6143 255.234Z" fill="#263238"/>
<path d="M95.5736 257.83C93.4701 260.655 91.525 263.595 89.6503 266.578C87.7756 269.562 86.033 272.626 84.3255 275.715C82.6621 278.823 81.0602 281.966 79.5992 285.17C78.1118 288.366 76.8004 291.641 75.5946 294.952C76.3427 293.354 76.994 291.721 77.7773 290.14L78.8863 287.748L80.0481 285.382C80.8138 283.802 81.6147 282.239 82.4068 280.668C83.2254 279.114 84.0351 277.552 84.8888 276.016C86.5435 272.917 88.2861 269.862 90.0728 266.834C90.9617 265.316 91.8683 263.807 92.7836 262.315C93.6901 260.805 94.6319 259.313 95.5736 257.83Z" fill="#263238"/>
<path d="M97.95 258.262C96.4449 260.787 95.1071 263.4 93.8309 266.049C92.5548 268.697 91.3842 271.39 90.2488 274.1C89.1662 276.828 88.0837 279.564 87.1419 282.345C86.6579 283.731 86.2178 285.135 85.7601 286.53C85.3289 287.933 84.924 289.346 84.5367 290.758C85.5577 288.004 86.5434 285.241 87.5996 282.504C88.6382 279.759 89.7031 277.031 90.8297 274.329C91.9123 271.61 93.0916 268.927 94.271 266.243C94.8519 264.901 95.468 263.568 96.0841 262.235C96.6826 260.911 97.3163 259.587 97.95 258.262Z" fill="#263238"/>
<path opacity="0.1" d="M120.314 241.392C121.828 240.598 123.351 239.918 124.856 239.229C125.595 238.867 126.352 238.55 127.056 238.161C127.751 237.79 128.473 237.393 128.957 236.969C129.406 236.59 129.758 235.901 130.092 235.186C130.436 234.471 130.708 233.703 131.017 232.935C131.589 231.39 132.143 229.81 132.794 228.221C132.865 229.942 132.689 231.637 132.337 233.315C132.178 234.162 131.923 234.983 131.633 235.822C131.316 236.634 130.946 237.526 130.136 238.267C129.353 238.938 128.561 239.3 127.76 239.662C126.95 239.989 126.149 240.28 125.322 240.509C123.694 240.977 122.03 241.304 120.314 241.392Z" fill="black"/>
<path d="M279.002 251.297C287.223 234.453 296.376 209.364 288.349 190.137C280.322 170.91 236.905 138.988 230.199 119.831C223.492 100.674 230.375 90.9105 224.337 89.7894C221.248 89.2067 214.559 105.591 217.833 121.711C222.295 143.693 266.988 183.86 272.401 196.431C277.805 209.002 272.102 219.693 264.894 230.693L279.002 251.297Z" fill="#FFC727"/>
<path d="M203.179 179.605C228.72 192.723 238.859 224.239 225.789 249.858C212.719 275.477 181.299 285.656 155.757 272.537C130.216 259.419 120.068 227.912 133.147 202.293C146.225 176.674 177.637 166.487 203.179 179.605ZM167.586 249.337C180.383 255.905 196.12 250.812 202.668 237.976C209.216 225.14 204.138 209.364 191.341 202.796C178.544 196.228 162.807 201.322 156.259 214.158C149.711 226.985 154.789 242.778 167.586 249.337Z" fill="#316FEA"/>
<path d="M257.43 156.803C257.43 156.803 248.875 158.294 240.998 154.242C231.862 149.555 228.747 135.96 212.191 127.458C194.791 118.524 177.488 126.496 177.488 126.496L179.045 144.011C179.045 144.011 187.592 142.528 195.469 146.571C204.605 151.259 207.72 164.854 224.276 173.355C241.676 182.289 258.979 174.317 258.979 174.317L257.43 156.803Z" fill="#316FEA"/>
<path d="M132.434 262.526C132.434 262.526 148.32 235.539 152.562 230.64C155.493 227.25 166.328 221.256 173.316 215.491C174.724 214.326 177.039 209.276 180.154 208.888C184.344 208.376 190.628 217.106 188.216 224.893C185.805 232.679 174.152 240.262 173.219 241.816C172.286 243.37 179.001 260.717 176.616 265.44C174.24 270.163 154.349 281.868 151.057 281.727C147.766 281.586 130.7 267.32 132.434 262.526Z" fill="#FFC727"/>
<path d="M178.984 226.305C181.29 228.203 184.089 228.653 186.456 228.556C187.222 227.356 187.838 226.138 188.216 224.902C190.628 217.124 184.344 208.384 180.154 208.896C177.03 209.276 174.715 214.335 173.316 215.5C173.316 215.5 173.861 222.085 178.984 226.305Z" fill="#EBEBEB"/>
<path d="M185.418 211.571C185.47 211.527 185.541 211.598 185.506 211.651C184.52 213.054 183.578 214.511 182.724 216.003C181.95 217.363 181.263 218.766 181.448 220.382C181.457 220.479 181.316 220.505 181.299 220.408C180.964 218.872 181.052 217.168 181.703 215.729C182.496 213.973 183.992 212.781 185.418 211.571Z" fill="#263238"/>
<path d="M181.765 208.817C181.818 208.773 181.888 208.843 181.853 208.896C181.105 209.982 180.295 211.457 179.406 213.213C178.773 214.467 177.593 216.365 178.5 217.733C178.658 217.972 178.517 218.025 178.315 217.83C177.109 216.621 177.699 214.635 178.271 213.275C179.037 211.474 180.331 210.097 181.765 208.817Z" fill="#263238"/>
<path d="M140.24 249.523C139.818 250.697 139.29 251.8 138.735 252.886C138.181 253.972 137.574 255.023 136.958 256.073C136.315 257.106 135.681 258.139 134.977 259.137C134.291 260.143 133.569 261.123 132.795 262.094C133.085 260.876 133.56 259.728 134.088 258.624C134.608 257.512 135.206 256.444 135.831 255.393C136.474 254.352 137.134 253.328 137.864 252.348C138.586 251.359 139.352 250.406 140.24 249.523Z" fill="#263238"/>
<path d="M175.903 266.508C173.994 268.909 171.652 270.913 169.267 272.811C166.873 274.709 164.321 276.404 161.698 277.967C159.058 279.503 156.312 280.871 153.486 282.027C150.661 283.184 147.722 284.084 144.738 284.685C147.502 283.378 150.239 282.142 152.914 280.774C155.581 279.388 158.23 277.975 160.809 276.448C163.406 274.939 165.949 273.341 168.466 271.699C170.975 270.03 173.501 268.371 175.903 266.508Z" fill="#263238"/>
<path d="M158.081 278.982C157.649 279.776 157.121 280.5 156.549 281.18C155.977 281.868 155.352 282.504 154.692 283.104C153.363 284.287 151.876 285.347 150.186 285.965C150.846 285.347 151.506 284.782 152.157 284.199C152.8 283.608 153.469 283.043 154.103 282.451C155.414 281.286 156.681 280.103 158.081 278.982Z" fill="#263238"/>
<path d="M218.563 281.789C218.563 281.789 189.255 239.706 197.933 222.28C204.332 209.444 235.33 191.276 235.33 191.276C235.33 191.276 220.702 172.26 220.509 168.411C220.315 164.554 229.988 164.386 235.189 165.648C240.391 166.911 261.628 192.785 261.884 196.043C262.139 199.3 255.054 211.05 256.031 216.1C256.999 221.15 264.427 226.985 264.938 227.85C265.448 228.715 270.333 249.92 265.967 256.912C261.602 263.895 224.848 285.082 218.563 281.789Z" fill="#FFC727"/>
<path d="M228.456 181.998C236.606 182.933 241.06 173.938 242.292 170.998C239.335 168.111 236.703 166.001 235.189 165.631C229.996 164.368 220.324 164.545 220.517 168.402C220.632 170.795 225.085 177.354 228.456 181.998Z" fill="#EBEBEB"/>
<path d="M226.846 164.73C226.854 164.659 226.96 164.659 226.969 164.73C227.224 166.513 227.559 168.297 227.99 170.053C228.377 171.651 228.87 173.214 230.173 174.308C230.252 174.37 230.164 174.494 230.076 174.441C228.72 173.514 227.559 172.154 227.013 170.583C226.353 168.676 226.634 166.672 226.846 164.73Z" fill="#263238"/>
<path d="M222.084 165.277C222.093 165.207 222.198 165.207 222.207 165.277C222.41 166.646 222.867 168.358 223.457 170.336C223.871 171.748 224.346 174.052 226.027 174.432C226.317 174.494 226.247 174.644 225.957 174.635C224.161 174.591 223.184 172.658 222.647 171.192C221.917 169.277 221.908 167.299 222.084 165.277Z" fill="#263238"/>
<path d="M199.57 246.53C201.533 250.185 203.434 253.849 205.326 257.503C207.245 261.158 209.128 264.822 211.074 268.441C213.01 272.078 214.99 275.68 217.014 279.264C219.065 282.831 221.169 286.362 223.369 289.875C220.588 286.803 218.132 283.44 215.844 279.979C213.564 276.51 211.496 272.908 209.524 269.271C207.597 265.607 205.766 261.882 204.094 258.095C202.422 254.316 200.864 250.467 199.57 246.53Z" fill="#263238"/>
<path d="M256.717 218.095C259.006 220.788 261.303 223.454 263.811 225.837C264.128 226.129 264.445 226.42 264.771 226.694C265.105 226.985 265.387 227.179 265.818 227.656C266.531 228.521 266.804 229.448 267.076 230.34C267.561 232.149 267.71 233.941 267.833 235.734C268.009 239.309 267.86 242.867 267.534 246.389C267.208 249.92 266.724 253.425 265.959 256.885C265.985 253.345 266.091 249.823 266.161 246.309C266.205 242.796 266.276 239.291 266.073 235.822C265.985 234.1 265.844 232.361 265.457 230.746C265.272 229.951 265.026 229.139 264.621 228.627C264.489 228.433 264.075 228.071 263.758 227.771C263.442 227.453 263.125 227.126 262.825 226.791C260.423 224.151 258.407 221.211 256.717 218.095Z" fill="#263238"/>
<path d="M214.251 275.963C215.105 277.596 215.729 279.282 216.328 280.977C216.909 282.681 217.455 284.385 217.886 286.168C216.812 284.667 216.108 282.972 215.501 281.268C214.92 279.547 214.436 277.799 214.251 275.963Z" fill="#263238"/>
<path d="M266.971 243.802C267.86 244.915 268.467 246.168 268.96 247.475C269.198 248.128 269.4 248.799 269.532 249.496C269.664 250.185 269.752 250.909 269.629 251.615C269.382 250.944 269.118 250.326 268.872 249.69C268.608 249.064 268.379 248.419 268.133 247.784C267.684 246.486 267.226 245.197 266.971 243.802Z" fill="#263238"/>
</g>
<defs>
<clipPath id="clip0">
<rect width="365" height="333" fill="white"/>
</clipPath>
</defs>
</svg>
