<svg id="api" xmlns="http://www.w3.org/2000/svg" xmlns:xlink="http://www.w3.org/1999/xlink" viewBox="0 0 340.12 214.34"><defs><style>.cls-1{fill:#408fff;}.cls-2{fill:#90bffe;}.cls-3{fill:#549afe;}.cls-4{fill:url(#linear-gradient);}.cls-5,.cls-8{fill:#66a6ff;}.cls-6{fill:#fff;}.cls-7{fill:#c7dffe;}.cls-8{font-size:22.45px;font-family:Avenir-Medium, Avenir;}</style><linearGradient id="linear-gradient" x1="202.9" y1="295.52" x2="202.9" y2="295.42" gradientUnits="userSpaceOnUse"><stop offset="0.02" stop-color="#5f6767"/><stop offset="0.48" stop-color="#676b6c"/><stop offset="0.51" stop-color="#717576"/><stop offset="0.62" stop-color="#878a8b"/><stop offset="0.72" stop-color="#949899"/><stop offset="0.81" stop-color="#999c9d"/></linearGradient></defs><title>api</title><path class="cls-1" d="M10.06,303.14s-2.11,3.93,12.87,7.2H336.62s10.49-.67,13.26-5.62l0-2.71Z" transform="translate(-9.91 -96)"/><path class="cls-2" d="M10.13,295.21H350v8.73s.51,1.17-3.49.88H13.33s-3.13.88-3.42-1.17Z" transform="translate(-9.91 -96)"/><path class="cls-3" d="M334.22,300.31a.56.56,0,0,1-.5.61H322.15a.56.56,0,0,1-.5-.61h0a.57.57,0,0,1,.5-.62h11.57a.57.57,0,0,1,.5.62Z" transform="translate(-9.91 -96)"/><path class="cls-1" d="M157,295.28s-1.31,4.37,3.05,4.8h39.43s4.19.55,3.64-4.65Z" transform="translate(-9.91 -96)"/><path class="cls-4" d="M202.9,295.52v-.1h0A.61.61,0,0,0,202.9,295.52Z" transform="translate(-9.91 -96)"/><path class="cls-5" d="M316.59,295.17V140.26a12.82,12.82,0,0,0-12.78-12.78H56.13a12.82,12.82,0,0,0-12.78,12.78V295.17Z" transform="translate(-9.91 -96)"/><rect class="cls-6" x="42.23" y="41.06" width="255.66" height="148.6"/><g id="Layer_5" data-name="Layer 5"><polygon class="cls-7" points="92.51 40.87 101.08 181.88 239.2 181.88 247.77 40.87 92.51 40.87"/><rect class="cls-6" x="101.08" width="138.12" height="181.88"/><rect class="cls-2" x="117.27" y="61.3" width="104.99" height="6.72"/><rect class="cls-2" x="117.27" y="78.29" width="105.34" height="1.92"/><rect class="cls-2" x="117.27" y="85.39" width="105.34" height="1.92"/><rect class="cls-2" x="117.27" y="92.55" width="52.67" height="1.92"/><rect class="cls-2" x="117.27" y="99.72" width="105.34" height="1.92"/><rect class="cls-2" x="117.27" y="106.88" width="105.34" height="1.92"/><rect class="cls-2" x="117.27" y="114.04" width="52.67" height="1.92"/><rect class="cls-2" x="117.27" y="121.2" width="81.45" height="1.92"/><rect class="cls-2" x="117.27" y="128.36" width="81.45" height="1.92"/><rect class="cls-2" x="117.27" y="135.52" width="105.34" height="1.92"/><rect class="cls-2" x="117.27" y="142.68" width="105.34" height="1.92"/><rect class="cls-2" x="117.27" y="149.84" width="105.34" height="1.92"/><rect class="cls-2" x="117.27" y="157.01" width="51.46" height="1.92"/><text class="cls-8" transform="translate(118.68 51.91)">API</text></g></svg>