<svg id="Layer_1" data-name="Layer 1" xmlns="http://www.w3.org/2000/svg" viewBox="0 0 65.62 55.51"><defs><style>.cls-1{fill:#171717;}</style></defs><title>cloud_upload</title><path class="cls-1" d="M32.86,4.86A17.23,17.23,0,0,1,57.23,12.7a18.71,18.71,0,0,1,1.7,8.6c.84.41,6.61,2.84,8.34,9.34a14.36,14.36,0,0,1-15,17.9,1.12,1.12,0,0,1-.49-1.82c.38-.45,1-.32,1.52-.36a12.14,12.14,0,0,0,10.33-5.59A12,12,0,0,0,64.87,30.5a12.21,12.21,0,0,0-10.21-8.28,9.61,9.61,0,0,1-1.86-.17c-.79-.63-.45-2,.53-1.83a12.68,12.68,0,0,1,3.36.31,15.32,15.32,0,0,0-1.88-7.67c-.34-.56-3.69-6.31-9.57-7.64a15.26,15.26,0,0,0-10.58,1.2A15.55,15.55,0,0,0,27.4,14a10.66,10.66,0,0,1,2.1,3,1.17,1.17,0,0,1-1.33,1.34c-.58-.15-.81-.76-1.13-1.21a7.77,7.77,0,0,0-9.19-3,7.92,7.92,0,0,0-5,6.44,17,17,0,0,1,3.41-.33,1.12,1.12,0,0,1,.8,1.74c-.21.37-.7.2-1,.25-6.68,0-10,5.9-10.3,6.45a11.92,11.92,0,0,0-.08,11.15c.36.6,3.42,6.61,10.12,6.57a9,9,0,0,1,2,.13,1.12,1.12,0,0,1-.23,2.05c-8.42.61-13-6-13.74-7.43A14.35,14.35,0,0,1,5.25,25.29a19.27,19.27,0,0,1,5.35-4,10.38,10.38,0,0,1,2.85-6.89,10,10,0,0,1,12.13-1.75A17.88,17.88,0,0,1,32.86,4.86Z" transform="translate(-2.1 -2.55)"/><path class="cls-1" d="M32.74,32.67a12.8,12.8,0,0,1,7.45,1,12.94,12.94,0,0,1,6.93,7.84A12.78,12.78,0,0,1,28.55,56.36a12.93,12.93,0,0,1-5.78-7.08,12.71,12.71,0,0,1,.82-9.94A12.94,12.94,0,0,1,32.74,32.67Zm.36,1.95a10.93,10.93,0,0,0-8.82,8.71,10.78,10.78,0,1,0,8.82-8.71Z" transform="translate(-2.1 -2.55)"/><path class="cls-1" d="M35.5,51.76A1,1,0,0,1,34,51c0-3,0-6,0-9-.8.78-1.53,1.64-2.4,2.34-.81.48-1.85-.66-1.2-1.4,1.21-1.31,2.54-2.52,3.76-3.82a1,1,0,0,1,1.36-.23c1.2,1.18,2.36,2.39,3.57,3.56.32.34.78.73.59,1.26a.94.94,0,0,1-1.5.52c-.79-.71-1.52-1.49-2.26-2.26v8.85A1.11,1.11,0,0,1,35.5,51.76Z" transform="translate(-2.1 -2.55)"/></svg>