<svg width="194" height="120" viewBox="0 0 194 120" fill="none" xmlns="http://www.w3.org/2000/svg">
<path d="M30.9487 79.8511C31.7219 81.0856 32.1141 82.523 32.0758 83.9817C32.0375 85.4404 31.5704 86.8549 30.7336 88.0466C29.8967 89.2383 28.7277 90.1537 27.3741 90.6771C26.0205 91.2005 24.5431 91.3084 23.1286 90.9873C21.7141 90.6661 20.4259 89.9303 19.4267 88.8727C18.4276 87.8151 17.7624 86.4833 17.5151 85.0454C17.2679 83.6076 17.4497 82.1283 18.0375 80.7943C18.6254 79.4604 19.5929 78.3318 20.8179 77.5509C21.6325 77.0302 22.5413 76.6766 23.4921 76.5104C24.4429 76.3442 25.417 76.3686 26.3583 76.5824C27.2997 76.7961 28.1898 77.1949 28.9776 77.7559C29.7654 78.3168 30.4352 79.0288 30.9487 79.8511Z" fill="#F5F5F5"/>
<path d="M29.4549 80.7877C30.0461 81.7279 30.3467 82.8235 30.3187 83.9358C30.2908 85.0481 29.9356 86.127 29.2981 87.0361C28.6605 87.9451 27.7693 88.6434 26.7373 89.0425C25.7052 89.4416 24.5787 89.5237 23.5002 89.2782C22.4218 89.0328 21.44 88.471 20.679 87.6638C19.918 86.8566 19.4121 85.8404 19.2253 84.7437C19.0385 83.6471 19.1793 82.5194 19.6297 81.5032C20.0801 80.4871 20.8199 79.6283 21.7556 79.0355C22.3754 78.6418 23.0663 78.3748 23.7887 78.2497C24.5111 78.1247 25.2509 78.1441 25.9659 78.3068C26.6809 78.4695 27.357 78.7723 27.9556 79.198C28.5543 79.6237 29.0638 80.1639 29.4549 80.7877Z" fill="#EBEBEB"/>
<path d="M29.3659 80.6378C29.3374 80.6569 29.1855 80.4625 28.8815 80.1472C28.4564 79.7005 27.9639 79.3242 27.4221 79.0321C27.0518 78.8339 26.6611 78.6768 26.257 78.5638C25.7925 78.4372 25.3137 78.3708 24.8324 78.3663C24.574 78.3645 24.3159 78.3816 24.0599 78.4173C23.5121 78.4914 22.9784 78.6482 22.477 78.8824C22.2169 79.0061 21.9661 79.1488 21.7267 79.3093C21.4899 79.473 21.2646 79.6529 21.0523 79.8477C20.8477 80.0406 20.6573 80.2483 20.4825 80.4689C20.3157 80.6822 20.1654 80.908 20.0329 81.1443C19.9033 81.37 19.7911 81.6054 19.6974 81.8484C19.5198 82.2984 19.4006 82.7695 19.3428 83.2501C19.223 84.2878 19.3872 85.3387 19.8177 86.2894C19.9304 86.4915 20.0217 86.7051 20.0899 86.9265C20.0678 86.9265 19.8968 86.7577 19.6689 86.3658C19.3464 85.807 19.1316 85.192 19.0357 84.5531C18.8908 83.5953 18.991 82.6162 19.3269 81.7082C19.4233 81.4447 19.5398 81.1891 19.6752 80.9436C19.8152 80.6871 19.975 80.4421 20.1532 80.2109C20.3379 79.97 20.5412 79.7442 20.7611 79.5355C20.9879 79.3232 21.2302 79.1283 21.4861 78.9525C21.7456 78.7794 22.0175 78.6261 22.2997 78.4937C22.5737 78.365 22.8574 78.2585 23.1482 78.1751C23.4281 78.0959 23.714 78.0395 24.0029 78.0063C25.2428 77.8558 26.4973 78.1224 27.5709 78.7645C28.1229 79.0967 28.6091 79.5287 29.005 80.0388C29.1644 80.2118 29.2871 80.4156 29.3659 80.6378Z" fill="#E0E0E0"/>
<path d="M27.0365 86.283L27.5684 87.1049L26.8403 87.5796L26.3211 86.7832C25.661 87.1855 24.9019 87.3931 24.1303 87.3821L23.953 86.2256C24.5615 86.2452 25.1647 86.1058 25.7037 85.821L24.9122 84.5945C23.9625 84.9131 22.8956 85.2317 22.2181 84.1963C21.7147 83.419 21.8477 82.3868 22.9114 81.5011L22.4017 80.676L23.133 80.2013L23.6491 81.0009C24.1882 80.6877 24.7938 80.5086 25.4156 80.4785L25.6341 81.619C25.1617 81.6441 24.699 81.7632 24.2727 81.9694L25.061 83.2246C25.995 82.8869 27.0587 82.5875 27.7267 83.6101C28.2206 84.3747 28.1003 85.3973 27.0365 86.283ZM24.2158 83.5177L23.5414 82.476C23.2248 82.8168 23.1963 83.1131 23.3546 83.3712C23.5129 83.6292 23.8295 83.626 24.2158 83.5177ZM26.6091 84.4735C26.4445 84.2154 26.1438 84.2154 25.7575 84.3078L26.4129 85.3209C26.7231 84.9959 26.7611 84.6996 26.6091 84.4671V84.4735Z" fill="#E0E0E0"/>
<path d="M23.684 25.4858C24.9562 24.3318 25.8221 22.7936 26.1517 21.1022C26.4812 19.4109 26.2566 17.6575 25.5116 16.1055C24.7666 14.5535 23.5414 13.2866 22.0199 12.495C20.4984 11.7034 18.7628 11.4299 17.0737 11.7154C15.3846 12.001 13.8331 12.8302 12.6521 14.0786C11.4712 15.327 10.7246 16.9273 10.5245 18.6391C10.3243 20.3508 10.6813 22.0818 11.542 23.5719C12.4027 25.0621 13.7205 26.2311 15.2976 26.9035C15.8706 27.182 16.3608 27.6072 16.7191 28.1364C17.3871 29.0921 17.9253 30.1498 18.6598 31.405L22.2214 37.5026L23.9373 40.3125C25.4379 42.8102 27.7015 46.9167 29.2243 49.3984C30.5254 51.517 32.3901 53.61 34.9228 54.1453C36.1543 54.4065 37.3194 54.2886 38.9181 54.0242C32.6086 43.2275 27.3469 34.2308 22.7279 26.3332C23.0508 26.0433 23.3706 25.7693 23.684 25.4858ZM21.7117 21.5035C21.1974 22.3664 20.3706 22.9949 19.4052 23.2569C18.4399 23.5189 17.4112 23.394 16.5355 22.9085C16.0911 22.6641 15.7002 22.3321 15.3861 21.9324C15.072 21.5326 14.8411 21.0733 14.7073 20.5818C14.5734 20.0903 14.5393 19.5768 14.607 19.0717C14.6747 18.5667 14.8428 18.0806 15.1013 17.6423C15.6064 16.774 16.4278 16.1379 17.3913 15.8691C18.3547 15.6002 19.3844 15.7198 20.2617 16.2024C21.1465 16.7176 21.7944 17.5623 22.0657 18.5541C22.337 19.5459 22.2098 20.6053 21.7117 21.5035Z" fill="#EBEBEB"/>
<path d="M17.0299 11.7359C15.3516 12.0362 13.8144 12.8739 12.6472 14.1241C11.48 15.3744 10.7451 16.9705 10.552 18.6749C10.3588 20.3793 10.7176 22.1009 11.5751 23.5835C12.4326 25.0661 13.7428 26.2306 15.3109 26.9035C15.8819 27.1852 16.3705 27.6111 16.7292 28.1396L17.6125 29.5477L23.7891 28.044L22.7348 26.3332C23.0514 26.0465 23.368 25.7725 23.6846 25.489C24.9542 24.3316 25.8164 22.7909 26.1416 21.0983C26.4669 19.4057 26.2376 17.6526 25.4882 16.1024C24.7388 14.5521 23.5097 13.2884 21.9857 12.501C20.4617 11.7137 18.7249 11.4452 17.0363 11.7359H17.0299ZM20.2781 16.196C21.1631 16.6937 21.8154 17.5247 22.0915 18.5063C22.3675 19.488 22.2448 20.5397 21.7503 21.4303C21.5054 21.8712 21.1766 22.2593 20.7827 22.5724C20.3887 22.8855 19.9374 23.1175 19.4544 23.255C18.4789 23.5329 17.4337 23.4093 16.5487 22.9117C16.1042 22.667 15.7132 22.3347 15.3991 21.9346C15.0851 21.5345 14.8544 21.0748 14.7208 20.5829C14.5872 20.0911 14.5535 19.5772 14.6217 19.072C14.69 18.5668 14.8587 18.0805 15.1178 17.6424C15.6228 16.774 16.4444 16.138 17.4081 15.8697C18.3717 15.6014 19.4014 15.7219 20.2781 16.2056V16.196Z" fill="#E0E0E0"/>
<path d="M23.7887 28.0441L23.8678 28.1938L24.1085 28.6207C24.3269 28.9966 24.6435 29.5478 25.0582 30.2582C25.8813 31.6791 27.0685 33.7307 28.5407 36.2634L33.7074 45.1678C34.6824 46.8435 35.7008 48.5946 36.7624 50.4211C37.2943 51.3323 37.8335 52.2593 38.3802 53.2023L38.7917 53.9096L38.8424 53.9988L38.8709 54.0434C38.9437 53.8618 38.8709 53.9956 38.8962 53.9574H38.8709L38.6746 54.0084L38.2789 54.1167L37.8768 54.1931L37.6742 54.2314L37.4716 54.2505L37.06 54.2951H36.6484C36.5104 54.3046 36.3718 54.3046 36.2337 54.2951C36.0976 54.2951 35.9615 54.2951 35.8253 54.2664C35.5538 54.2323 35.2843 54.1834 35.018 54.1199C34.4912 53.9951 33.9803 53.8102 33.4952 53.5687C32.5521 53.0761 31.7023 52.4205 30.9847 51.6317C30.8011 51.447 30.6396 51.2399 30.475 51.0424C30.3104 50.8449 30.1584 50.6314 30.0065 50.4243C29.9336 50.3192 29.8482 50.2204 29.7849 50.1057L29.5917 49.7872L29.1897 49.1468L27.6827 46.5982C25.7135 43.2626 23.9438 40.2584 22.4559 37.7321L18.9228 31.7269L17.973 30.1085L17.7166 29.6879C17.6596 29.5924 17.6279 29.5478 17.6279 29.5478C17.6279 29.5478 17.6533 29.5987 17.7071 29.6943L17.9508 30.1212L18.9006 31.7523L22.3831 37.748L27.5846 46.63L29.0915 49.1978C29.2213 49.4144 29.348 49.6342 29.4778 49.8573L29.674 50.1758C29.7374 50.2873 29.8228 50.3893 29.8957 50.4944C30.0508 50.7047 30.1964 50.9213 30.3705 51.1316C30.5447 51.3418 30.6871 51.5425 30.8866 51.7305C31.61 52.5298 32.4672 53.1951 33.4193 53.6961C33.9137 53.9414 34.4341 54.1294 34.9705 54.2568C35.241 54.3214 35.5147 54.3714 35.7905 54.4066C35.9298 54.4066 36.0691 54.4257 36.2084 54.4353C36.3486 54.4448 36.4893 54.4448 36.6294 54.4353H37.0505L37.4652 54.3907L37.6742 54.3684L37.88 54.3301L38.2884 54.2537L38.6904 54.1453L38.8899 54.0912H38.9152C38.9342 54.0466 38.8899 54.1804 38.9595 53.9924L38.9342 53.9478L38.8835 53.8586C38.7442 53.6197 38.6081 53.3839 38.4688 53.1514C37.9222 52.2084 37.3829 51.2824 36.8511 50.3734L33.7802 45.1072L28.5913 36.2188L25.0804 30.2327L24.1306 28.608C24.023 28.4232 23.9375 28.2894 23.8805 28.1874L23.7887 28.0441Z" fill="#E0E0E0"/>
<path d="M15.6839 36.5597L46.9753 43.0237C46.7094 41.4149 46.4466 40.268 45.8008 39.1816C44.4774 36.9516 41.9099 35.8493 39.4944 35.2981C36.6672 34.661 32.0704 33.8231 29.237 33.2019L26.0363 32.4755L19.1473 31.0547C17.729 30.7616 16.564 30.5895 15.4433 30.2614C14.8294 30.0906 14.2706 29.7611 13.8224 29.3056C12.6806 28.0205 11.1553 27.1429 9.47556 26.8045C7.79583 26.4661 6.05234 26.6853 4.50695 27.4291C2.96156 28.1729 1.6977 29.4012 0.905204 30.9295C0.112705 32.4578 -0.165653 34.2036 0.111936 35.9046C0.389525 37.6057 1.20808 39.1702 2.44465 40.3632C3.68122 41.5562 5.26905 42.3133 6.96967 42.5207C8.67029 42.7281 10.3919 42.3747 11.8759 41.5135C13.3599 40.6523 14.5261 39.3299 15.1995 37.7448C15.3641 37.3594 15.5193 36.9643 15.6839 36.5597ZM5.35684 37.4932C4.6184 36.8156 4.17207 35.8746 4.11293 34.8707C4.0538 33.8668 4.38653 32.8794 5.04026 32.1187C5.36905 31.7308 5.77206 31.4133 6.22529 31.1853C6.67851 30.9574 7.17269 30.8235 7.6784 30.7917C8.18411 30.7599 8.69101 30.8308 9.16892 31.0002C9.64683 31.1696 10.086 31.4341 10.4602 31.7778C11.201 32.4529 11.6519 33.3915 11.7175 34.3951C11.783 35.3986 11.4582 36.3885 10.8116 37.1555C10.1272 37.919 9.17263 38.382 8.15276 38.4452C7.13289 38.5083 6.12908 38.1665 5.35684 37.4932Z" fill="#EBEBEB"/>
<path d="M25.0235 36.6968C25.0235 36.6968 25.1597 36.6044 25.3623 36.3973C25.6467 36.0986 25.8238 35.7129 25.8656 35.3014C25.8952 35.0219 25.8594 34.7394 25.7612 34.4763C25.6685 34.2291 25.5231 34.0054 25.3353 33.8209C25.1475 33.6363 24.9218 33.4953 24.6741 33.4079C24.4264 33.3204 24.1627 33.2886 23.9014 33.3147C23.6402 33.3408 23.3878 33.4241 23.162 33.5588C22.8358 33.7554 22.5798 34.051 22.4307 34.403C22.2918 34.7304 22.2532 35.092 22.3199 35.4416C22.3746 35.7384 22.5024 36.0166 22.6915 36.2509C22.8807 36.4852 23.1251 36.6681 23.4026 36.7828C23.7826 36.9394 24.2033 36.9651 24.5993 36.8561C24.8779 36.7764 25.0172 36.684 25.0235 36.6968C24.993 36.7221 24.9601 36.7445 24.9254 36.7637C24.8255 36.8223 24.7193 36.8693 24.6088 36.9039C24.2036 37.037 23.765 37.0246 23.3678 36.8688C23.0923 36.7616 22.846 36.5902 22.6491 36.3686C22.4213 36.1132 22.266 35.8006 22.1996 35.4639C22.1208 35.0758 22.1638 34.6726 22.3226 34.3101C22.4814 33.9477 22.7482 33.6438 23.0861 33.4406C23.424 33.2373 23.8163 33.1447 24.2087 33.1756C24.6012 33.2065 24.9744 33.3593 25.2768 33.6129C25.5393 33.8313 25.7392 34.1161 25.8561 34.438C25.956 34.7185 25.9885 35.0187 25.9511 35.3141C25.901 35.741 25.7039 36.1366 25.3939 36.4324C25.3115 36.5113 25.2213 36.5818 25.1248 36.6426C25.093 36.6641 25.059 36.6822 25.0235 36.6968Z" fill="#E0E0E0"/>
<path d="M22.8072 36.359C22.7851 36.3303 23.3739 35.8047 24.0736 35.1452C24.7732 34.4857 25.3589 33.9378 25.3843 33.9633C25.2965 34.1094 25.19 34.2432 25.0677 34.3615C24.8492 34.594 24.5358 34.9063 24.1781 35.2408C23.8203 35.5753 23.4847 35.8588 23.2283 36.0595C23.101 36.1767 22.9595 36.2773 22.8072 36.359Z" fill="#E0E0E0"/>
<path d="M25.3879 36.3368C24.9057 35.9714 24.4507 35.5711 24.0266 35.1389C23.5748 34.7382 23.1516 34.306 22.7603 33.8455C23.2417 34.2117 23.6966 34.612 24.1216 35.0433C24.5724 35.445 24.9955 35.8771 25.3879 36.3368Z" fill="#E0E0E0"/>
<path d="M7.01307 42.5331C8.70769 42.7312 10.4206 42.373 11.8964 41.5119C13.3723 40.6508 14.5322 39.3328 15.2032 37.7544C15.371 37.3625 15.5198 36.9707 15.6907 36.5661L17.6345 37.0217L17.052 30.6501L15.4438 30.2646C14.8303 30.0927 14.2718 29.7633 13.8228 29.3088C12.9696 28.3456 11.8966 27.6054 10.6961 27.1519C9.49556 26.6985 8.20354 26.5453 6.93118 26.7057C5.65883 26.866 4.44424 27.335 3.39193 28.0724C2.33962 28.8098 1.4811 29.7934 0.890258 30.9386C0.299411 32.0838 -0.0060733 33.3564 9.14854e-05 34.6467C0.00625627 35.9371 0.323886 37.2066 0.925648 38.3461C1.52741 39.4855 2.39528 40.4608 3.45459 41.1879C4.51389 41.9151 5.73291 42.3723 7.00674 42.5204L7.01307 42.5331ZM5.05023 32.1283C5.37903 31.7403 5.78203 31.4229 6.23526 31.1949C6.68849 30.9669 7.18267 30.833 7.68838 30.8012C8.19409 30.7694 8.70099 30.8404 9.1789 31.0098C9.65681 31.1792 10.096 31.4436 10.4702 31.7874C11.2105 32.4629 11.6608 33.4017 11.7258 34.4053C11.7908 35.4088 11.4654 36.3985 10.8184 37.165C10.1354 37.9307 9.18042 38.3954 8.15981 38.4586C7.13919 38.5217 6.13484 38.1784 5.36366 37.5027C4.62566 36.8247 4.17992 35.8835 4.12138 34.8796C4.06283 33.8757 4.39612 32.8885 5.05023 32.1283Z" fill="#E0E0E0"/>
<path d="M17.634 37.0216C17.634 37.0216 17.691 37.0216 17.7987 37.0503L18.2799 37.1395L20.1224 37.5058L26.9005 38.8726L36.9458 40.9147L42.885 42.138L46.0255 42.7752L46.8233 42.9376L46.9246 42.9568H46.9753C46.8265 43.0842 46.9341 42.9854 46.8993 43.0109V42.9854V42.7815L46.874 42.3706L46.8138 41.9628L46.7853 41.7589L46.7378 41.5582L46.646 41.1536L46.5225 40.7585C46.4831 40.6251 46.4355 40.4942 46.3801 40.3667C46.3263 40.2393 46.2756 40.1118 46.2186 39.9876C46.0975 39.7403 45.9611 39.5009 45.8102 39.2708C45.521 38.8101 45.1823 38.3827 44.8003 37.9965C44.0311 37.2591 43.1397 36.6629 42.1663 36.2347C41.932 36.12 41.6883 36.034 41.4445 35.9384C41.2007 35.8429 40.957 35.7728 40.7132 35.6931C40.5897 35.6581 40.4726 35.6103 40.3459 35.5848L39.9724 35.5083L39.2252 35.3522L36.3253 34.7438L26.2927 32.6348L19.5336 31.2011L17.6942 30.8029L17.2193 30.6978L17.0547 30.6564L17.2193 30.685L17.7005 30.7806L19.5336 31.1502L26.3053 32.5456L36.3443 34.6291L39.2474 35.2344L39.9945 35.3873L40.3681 35.4669C40.4944 35.4967 40.619 35.5329 40.7417 35.5753C40.9886 35.6549 41.2419 35.725 41.4825 35.8237C41.7231 35.9225 41.9764 36.0053 42.2106 36.1232C43.1988 36.5549 44.1033 37.1589 44.8826 37.9073C45.2726 38.2995 45.6177 38.7344 45.9115 39.2039C46.0609 39.4399 46.1962 39.6845 46.3168 39.9366C46.3769 40.064 46.4244 40.1947 46.4814 40.3221C46.5393 40.4512 46.5879 40.5843 46.627 40.7203L46.7537 41.1217L46.8455 41.5327L46.893 41.7398L46.9246 41.9469L46.9816 42.361L47.0101 42.7783V42.9854V43.0109C46.9753 43.0428 47.0861 42.9568 46.9341 43.0842H46.8835L46.7822 43.0651L45.9844 42.9026L42.847 42.2654L36.9458 41.0293L26.8879 38.9522L20.1192 37.5473L18.2672 37.165L17.7892 37.063L17.634 37.0216Z" fill="#E0E0E0"/>
<path d="M191.919 79.8956C190.871 81.515 189.368 82.785 187.603 83.5449C185.837 84.3048 183.886 84.5205 181.998 84.1645C180.111 83.8086 178.37 82.8971 176.998 81.5453C175.625 80.1936 174.681 78.4624 174.287 76.5709C173.892 74.6795 174.064 72.7127 174.781 70.9195C175.497 69.1263 176.726 67.5874 178.312 66.4975C179.899 65.4076 181.77 64.8157 183.691 64.7967C185.611 64.7778 187.494 65.3326 189.101 66.391C190.168 67.0913 191.087 67.9962 191.806 69.054C192.524 70.1118 193.029 71.3017 193.291 72.5558C193.552 73.8099 193.566 75.1036 193.331 76.363C193.095 77.6224 192.616 78.8228 191.919 79.8956Z" fill="#F5F5F5"/>
<path d="M189.984 78.6246C189.185 79.859 188.04 80.827 186.694 81.4061C185.348 81.9853 183.861 82.1495 182.422 81.8781C180.983 81.6066 179.657 80.9117 178.61 79.8813C177.564 78.8508 176.845 77.5312 176.544 76.0894C176.244 74.6475 176.375 73.1484 176.921 71.7816C177.468 70.4148 178.405 69.2419 179.614 68.4113C180.823 67.5807 182.25 67.1297 183.714 67.1155C185.178 67.1012 186.613 67.5244 187.838 68.3313C188.651 68.8652 189.351 69.555 189.899 70.3613C190.446 71.1676 190.831 72.0746 191.03 73.0305C191.229 73.9864 191.24 74.9724 191.06 75.9323C190.881 76.8921 190.515 77.807 189.984 78.6246Z" fill="#EBEBEB"/>
<path d="M190.111 78.427C190.188 78.1314 190.294 77.8442 190.428 77.57C190.726 76.8093 190.905 76.0064 190.957 75.1902C190.991 74.6324 190.963 74.0726 190.874 73.5209C190.77 72.8889 190.585 72.2731 190.323 71.689C190.186 71.3731 190.024 71.0685 189.839 70.7779C189.651 70.4727 189.439 70.183 189.206 69.9114C188.714 69.3384 188.136 68.8461 187.493 68.4523C187.17 68.254 186.834 68.0794 186.486 67.9298C186.144 67.7889 185.792 67.6738 185.432 67.5857C184.75 67.4198 184.047 67.3543 183.346 67.3914C182.711 67.4254 182.083 67.5421 181.478 67.7386C180.949 67.911 180.44 68.1418 179.962 68.4268C179.264 68.8458 178.634 69.3701 178.094 69.9814C177.711 70.4179 177.524 70.6887 177.486 70.6632C177.577 70.3618 177.731 70.0836 177.939 69.8476C178.431 69.1513 179.048 68.5538 179.759 68.0859C180.822 67.3772 182.049 66.9579 183.321 66.8689C183.687 66.8402 184.056 66.8402 184.422 66.8689C185.206 66.928 185.976 67.1097 186.705 67.4073C187.467 67.7158 188.175 68.1461 188.801 68.6816C189.104 68.9438 189.386 69.2304 189.643 69.5386C189.893 69.8383 190.118 70.1579 190.317 70.4944C190.51 70.8104 190.679 71.1405 190.824 71.482C191.089 72.1123 191.268 72.7756 191.359 73.454C191.428 74.0445 191.428 74.6411 191.359 75.2316C191.27 76.0814 191.024 76.9069 190.634 77.6656C190.355 78.1944 190.14 78.4461 190.111 78.427Z" fill="#E0E0E0"/>
<path d="M182.079 78.7232L181.389 79.816L180.417 79.1979L181.104 78.1307C180.257 77.5536 179.588 76.7475 179.176 75.805L180.462 74.9544C180.771 75.7077 181.271 76.3665 181.912 76.8659L182.94 75.2348C182.026 74.279 181.041 73.1513 181.931 71.7527C182.586 70.7173 183.893 70.3032 185.54 71.1155L186.223 70.0292L187.183 70.6185L186.512 71.6858C187.177 72.1702 187.719 72.8054 188.095 73.5399L186.863 74.4415C186.576 73.8816 186.179 73.3855 185.698 72.9824L184.65 74.6454C185.568 75.6011 186.524 76.7066 185.657 78.0829C185.014 79.1023 183.722 79.5101 182.079 78.7232ZM183.833 73.7789L184.707 72.393C184.118 72.1796 183.735 72.3357 183.533 72.6575C183.33 72.9792 183.491 73.3711 183.833 73.7789ZM184.017 77.2036C184.235 76.8595 184.071 76.4964 183.745 76.0822L182.893 77.4298C183.447 77.6273 183.821 77.5158 184.017 77.2036Z" fill="#E0E0E0"/>
<path d="M178.908 28.5801C179.685 29.8144 180.08 31.2528 180.044 32.7133C180.008 34.1737 179.541 35.5905 178.704 36.7841C177.868 37.9778 176.697 38.8948 175.342 39.4189C173.987 39.9429 172.508 40.0506 171.092 39.7282C169.676 39.4058 168.387 38.6679 167.388 37.6078C166.389 36.5477 165.725 35.2132 165.481 33.7732C165.236 32.3333 165.421 30.8526 166.013 29.5187C166.605 28.1847 167.577 27.0576 168.806 26.2799C170.449 25.2382 172.436 24.8954 174.33 25.3266C176.224 25.7579 177.871 26.9281 178.908 28.5801Z" fill="#F5F5F5"/>
<path d="M177.437 29.5167C178.028 30.457 178.328 31.5525 178.3 32.6645C178.272 33.7766 177.916 34.8553 177.279 35.7641C176.641 36.6729 175.75 37.371 174.718 37.7701C173.686 38.1691 172.56 38.2512 171.482 38.0059C170.403 37.7607 169.422 37.199 168.661 36.3921C167.9 35.5852 167.394 34.5693 167.207 33.4729C167.019 32.3765 167.16 31.2489 167.61 30.2328C168.06 29.2167 168.799 28.3577 169.734 27.7645C170.987 26.9692 172.502 26.707 173.946 27.0355C175.391 27.3641 176.646 28.2566 177.437 29.5167Z" fill="#EBEBEB"/>
<path d="M177.341 29.3702C177.313 29.3893 177.161 29.1918 176.857 28.8764C176.431 28.4321 175.939 28.0561 175.4 27.7613C175.029 27.5631 174.637 27.4061 174.232 27.293C173.769 27.1675 173.291 27.1022 172.811 27.0987C172.551 27.0943 172.292 27.1102 172.035 27.1465C171.767 27.1829 171.503 27.2393 171.244 27.3153C170.975 27.3948 170.713 27.4938 170.458 27.6116C169.936 27.8524 169.455 28.175 169.034 28.5674C168.829 28.7584 168.64 28.965 168.467 29.1854C168.299 29.3986 168.148 29.6244 168.014 29.8608C167.885 30.0868 167.773 30.3221 167.679 30.5649C167.501 31.0146 167.383 31.4859 167.327 31.9666C167.279 32.39 167.279 32.8175 167.327 33.2409C167.393 33.8551 167.554 34.455 167.805 35.0186C167.919 35.2206 168.01 35.4342 168.078 35.6558C168.059 35.6558 167.885 35.4869 167.657 35.0983C167.337 34.5383 167.122 33.9238 167.023 33.2855C166.954 32.842 166.938 32.3917 166.976 31.9443C167.021 31.4289 167.135 30.922 167.315 30.4374C167.411 30.1742 167.526 29.9187 167.66 29.6728C167.946 29.15 168.313 28.6759 168.746 28.2679C168.974 28.0545 169.217 27.8586 169.474 27.6817C169.732 27.508 170.003 27.3546 170.284 27.2229C170.559 27.0948 170.842 26.9882 171.133 26.9044C171.413 26.8244 171.699 26.7669 171.988 26.7323C172.777 26.6374 173.577 26.7101 174.337 26.9458C174.762 27.078 175.17 27.2609 175.552 27.4906C176.105 27.8218 176.591 28.254 176.986 28.7649C177.147 28.9386 177.267 29.1451 177.341 29.3702Z" fill="#E0E0E0"/>
<path d="M175.014 35.0122L175.546 35.8341L174.818 36.312L174.302 35.5124C173.641 35.9153 172.881 36.1229 172.108 36.1113L171.943 34.9517C172.552 34.9716 173.155 34.8321 173.694 34.5471L172.893 33.3269C171.943 33.6455 170.876 33.9641 170.199 32.9287C169.699 32.1513 169.829 31.116 170.895 30.2303L170.36 29.4179L171.089 28.9401L171.605 29.7397C172.145 29.4277 172.752 29.2497 173.374 29.2204L173.593 30.3609C173.119 30.3839 172.656 30.502 172.228 30.7082L173.036 31.9538C173.966 31.6161 175.03 31.3167 175.698 32.3393C176.198 33.1039 176.059 34.1265 175.014 35.0122ZM172.193 32.2469L171.522 31.2052C171.206 31.546 171.177 31.8614 171.332 32.1036C171.487 32.3457 171.807 32.3552 172.193 32.2469ZM174.59 33.2027C174.422 32.9446 174.121 32.9446 173.738 33.0402L174.391 34.0501C174.704 33.7251 174.742 33.432 174.59 33.1963V33.2027Z" fill="#E0E0E0"/>
<path d="M117.271 21.6152L113.978 21.2265C112.125 23.12 109.634 24.2474 106.996 24.387C104.359 24.5266 101.765 23.6684 99.7238 21.981C97.6831 20.2936 96.3433 17.8992 95.9678 15.2682C95.5924 12.6372 96.2084 9.96011 97.6948 7.76301C99.1813 5.56591 101.431 4.00775 104.001 3.39479C106.571 2.78184 109.276 3.15841 111.584 4.45051C113.892 5.74261 115.637 7.85677 116.475 10.3774C117.312 12.8981 117.183 15.643 116.112 18.0726L117.271 21.6152Z" fill="white"/>
<path d="M117.27 21.6151C117.27 21.6151 117.251 21.5419 117.204 21.3921C117.156 21.2424 117.087 21.0066 116.995 20.7199C116.805 20.1051 116.523 19.213 116.159 18.0534L116.134 17.9706L116.077 18.0375L116.156 18.0885C116.888 16.4531 117.199 14.6582 117.058 12.8701C116.968 11.7248 116.691 10.6022 116.238 9.54732C115.173 7.01782 113.178 5 110.67 3.91482C108.429 2.93231 105.921 2.75674 103.567 3.41767C101.213 4.07861 99.1576 5.53567 97.7465 7.54344C96.738 8.97125 96.0933 10.6264 95.8691 12.3636C95.6602 14.0191 95.8313 15.7007 96.3693 17.2793C96.8783 18.7638 97.7112 20.1147 98.807 21.2328C100.172 22.6404 101.896 23.6431 103.789 24.1314C105.683 24.6196 107.673 24.5746 109.542 24.0013C111.235 23.4782 112.769 22.5349 114.003 21.2583H113.965L116.435 21.5196L117.068 21.5801L117.274 21.5992C117.274 21.5992 117.194 21.5992 117.052 21.5642L116.419 21.4813L113.987 21.1627H113.965H113.949C112.965 22.1576 111.793 22.9452 110.503 23.4796C109.212 24.014 107.829 24.2845 106.434 24.2753C105.038 24.2661 103.659 23.9774 102.375 23.4261C101.092 22.8747 99.9307 22.0718 98.959 21.064C97.8883 19.9632 97.074 18.6367 96.5751 17.1805C96.0518 15.6317 95.8872 13.983 96.0939 12.3604C96.4207 9.86923 97.6209 7.57746 99.4784 5.89813C101.336 4.2188 103.728 3.26236 106.225 3.2012C108.314 3.15625 110.369 3.74026 112.126 4.87832C113.883 6.01638 115.262 7.65663 116.086 9.58873C116.537 10.6265 116.815 11.7319 116.909 12.8605C117.059 14.6249 116.769 16.3989 116.064 18.0215L115.925 18.3401L116.143 18.0661H116.064L116.944 20.6817L117.179 21.3603C117.239 21.5323 117.27 21.6151 117.27 21.6151Z" fill="#263238"/>
<path d="M101.407 14.1635L102.711 12.7618L105.389 14.995L110.322 9.88184L111.62 11.1944L105.285 17.617L101.407 14.1635Z" fill="#E8505B"/>
<path d="M96.1968 61.3305L71.501 50.0188L72.3659 49.2049C74.137 47.5235 76.4986 47.0186 78.6594 47.8533L93.3009 53.224L95.7599 55.0063L95.9724 57.1183L98.7 58.7729L96.1968 61.3305Z" fill="#E0E0E0"/>
<path d="M96.1973 61.3305C96.1973 61.3305 96.2534 61.2652 96.3597 61.1523L96.8408 60.6533L98.6769 58.7581V58.8115L95.9405 57.1689H95.9198V57.1421C95.8519 56.4886 95.7781 55.7816 95.7014 55.033L95.722 55.0717L93.2601 53.2894H93.2749L84.9003 50.2297L80.1152 48.4771L78.8695 48.0226C78.6599 47.9424 78.4503 47.8711 78.2437 47.7998C78.0311 47.7358 77.8153 47.6833 77.5972 47.6424C76.7127 47.4788 75.8022 47.5287 74.9405 47.788C74.2737 47.995 73.6454 48.3111 73.0808 48.7237C72.5488 49.1489 72.0403 49.6031 71.5576 50.0842L71.5369 49.9564L89.092 58.0303L94.3051 60.4424L95.7132 61.1018L96.0792 61.2741L96.2032 61.3395L96.0822 61.289L95.7191 61.1285L94.311 60.4988L89.092 58.1224L71.4749 50.102L71.3687 50.0545L71.4543 49.9772C71.9421 49.4934 72.4544 49.0354 72.9893 48.6049C73.5682 48.1825 74.2126 47.8594 74.8962 47.6483C75.7841 47.3779 76.7236 47.326 77.6356 47.4969C77.8598 47.539 78.0815 47.5936 78.2998 47.6602C78.5123 47.7315 78.7278 47.8058 78.9344 47.883L80.1802 48.3405L84.9623 50.099L93.3192 53.1587L95.7722 54.9588H95.7929V54.9826C95.8637 55.7282 95.9346 56.4351 95.9995 57.0916L95.9759 57.056L98.6976 58.7224L98.7389 58.7462L98.7064 58.7789C97.8947 59.5898 97.2659 60.2225 96.832 60.6592L96.3626 61.179C96.2534 61.28 96.1973 61.3305 96.1973 61.3305Z" fill="#263238"/>
<path d="M92.321 91.4308L84.3184 40.6113C84.2176 39.912 83.9732 39.2415 83.6006 38.6426C83.2281 38.0437 82.7356 37.5295 82.1546 37.1328L62.0461 23.3882C60.999 22.6733 59.7239 22.3787 58.4717 22.5623C57.2196 22.7459 56.0811 23.3945 55.2803 24.3804L39.9066 43.3293C39.4632 43.8772 39.1377 44.5118 38.9507 45.1929C38.7637 45.874 38.7193 46.5867 38.8203 47.286L46.823 98.1056C46.9188 98.7675 47.1432 99.4038 47.4835 99.9784C47.8237 100.553 48.2731 101.054 48.8061 101.454C49.339 101.854 49.9449 102.144 50.5893 102.308C51.2337 102.472 51.9039 102.507 52.5615 102.41L88.0437 97.2055C88.7014 97.1091 89.3338 96.8833 89.9048 96.5409C90.4757 96.1985 90.9741 95.7462 91.3713 95.21C91.7685 94.6737 92.0568 94.0639 92.2198 93.4155C92.3828 92.767 92.4171 92.0927 92.321 91.4308ZM61.2284 40.6083C60.2912 40.6818 59.3534 40.474 58.5336 40.0112C57.7138 39.5484 57.0488 38.8513 56.6227 38.0082C56.1966 37.165 56.0285 36.2136 56.1397 35.2743C56.251 34.335 56.6365 33.45 57.2476 32.7313C57.8586 32.0125 58.6678 31.4922 59.5727 31.2362C60.4777 30.9802 61.4377 31 62.3315 31.293C63.2252 31.5861 64.0125 32.1393 64.5938 32.8827C65.1751 33.6261 65.5243 34.5262 65.5972 35.4693C65.695 36.7337 65.2896 37.9855 64.4703 38.9492C63.651 39.9129 62.4849 40.5097 61.2284 40.6083Z" fill="#E8505B"/>
<path d="M61.2284 40.6083C61.6133 40.5464 61.9931 40.456 62.3649 40.338C62.7959 40.1912 63.2021 39.9788 63.5693 39.7082C64.4586 39.0714 65.0998 38.1428 65.3827 37.0819C65.6655 36.021 65.5723 34.8942 65.119 33.8949C64.935 33.4814 64.6891 33.0988 64.3899 32.7602C64.2371 32.5837 64.0734 32.417 63.8999 32.2611C63.713 32.1087 63.5157 31.9698 63.3095 31.8453C62.4677 31.322 61.4823 31.0817 60.4958 31.1592C59.5093 31.2366 58.5729 31.6277 57.8219 32.276C57.6428 32.432 57.4742 32.5997 57.3171 32.778C57.1689 32.9585 57.0319 33.148 56.9068 33.3454C56.6646 33.7283 56.4815 34.146 56.3636 34.5841C56.0702 35.6407 56.1502 36.767 56.59 37.7708C57.0298 38.7747 57.8022 39.5938 58.7753 40.0884C59.1813 40.2972 59.6162 40.4434 60.0653 40.5221C60.4503 40.5804 60.839 40.6102 61.2284 40.6113H61.1516L60.9243 40.6261C60.8015 40.6364 60.6781 40.6364 60.5553 40.6261C60.387 40.6233 60.2191 40.6065 60.0535 40.5756C59.5963 40.5046 59.1524 40.3644 58.737 40.1597C58.1243 39.8585 57.5821 39.4296 57.1465 38.9016C56.7109 38.3737 56.3917 37.7586 56.2101 37.0971C55.9827 36.261 55.9827 35.3787 56.2101 34.5425C56.3287 34.0905 56.5159 33.6597 56.7651 33.2652C57.016 32.8469 57.3342 32.4735 57.7067 32.1601C58.4823 31.4824 59.4538 31.0733 60.4779 30.9931C61.502 30.9128 62.5246 31.1658 63.3951 31.7146C63.8109 31.9669 64.1828 32.286 64.4962 32.6592C64.8033 33.0145 65.0542 33.4152 65.24 33.8474C65.5945 34.6371 65.7321 35.508 65.6385 36.3694C65.5633 37.0515 65.3442 37.7096 64.996 38.2997C64.6478 38.8898 64.1785 39.3984 63.6194 39.7914C63.2404 40.0587 62.8234 40.267 62.3826 40.4093C62.2236 40.4638 62.0608 40.5065 61.8955 40.537C61.7753 40.5666 61.6529 40.5865 61.5295 40.5964L61.3051 40.6172L61.2284 40.6083Z" fill="#263238"/>
<path d="M92.321 91.4308C92.321 91.4308 92.3506 91.6209 92.3801 91.9952C92.3968 92.5526 92.3251 93.1092 92.1675 93.6438C92.141 93.7329 92.1144 93.8221 92.0849 93.9141C92.0554 94.0062 92.0111 94.0983 91.9698 94.1904C91.8839 94.3945 91.7853 94.5929 91.6746 94.7845C91.4198 95.209 91.109 95.5967 90.7506 95.9371C90.325 96.3283 89.8383 96.6465 89.3101 96.8787C89.1671 96.9434 89.0202 96.9989 88.8702 97.0451C88.7179 97.0984 88.562 97.1411 88.4038 97.1728C88.0821 97.2441 87.7485 97.2887 87.4061 97.3391L64.2394 100.764L56.5644 101.893L52.4789 102.487C51.7595 102.58 51.0288 102.518 50.3347 102.306C49.6407 102.094 48.9992 101.737 48.4525 101.257C47.8901 100.769 47.4434 100.16 47.1448 99.475C46.8696 98.7712 46.6927 98.0324 46.6193 97.2797C46.3832 95.7945 46.1441 94.2706 45.902 92.7349C45.414 89.6574 44.9141 86.4888 44.4024 83.2292C43.3781 76.7327 42.3036 69.9153 41.1878 62.8455C40.6289 59.3126 40.0631 55.7193 39.4904 52.0655C39.3458 51.1536 39.1953 50.2357 39.0565 49.3178C38.9827 48.8574 38.9119 48.3969 38.8381 47.9365C38.7479 47.4733 38.6966 47.0033 38.6846 46.5315C38.6893 45.5713 38.9591 44.6313 39.4639 43.8164C39.7289 43.4234 40.0167 43.0465 40.3258 42.6876L41.2114 41.5855C45.9876 35.7019 50.6389 29.9788 55.1652 24.416C55.4464 24.0617 55.7707 23.7443 56.1304 23.4713C56.3081 23.3353 56.4945 23.2113 56.6884 23.1C56.8838 22.9866 57.087 22.8873 57.2965 22.803C58.1264 22.4677 59.0286 22.3551 59.9148 22.4762C60.3528 22.5387 60.7813 22.6565 61.19 22.8267C61.5912 23.0034 61.973 23.2215 62.3295 23.4773L64.4637 24.9388L72.7675 30.6154L80.6698 36.0188L81.6262 36.6723C81.9421 36.8951 82.2668 37.0971 82.5679 37.3437C83.1636 37.8348 83.6409 38.4553 83.9641 39.1586C84.1254 39.5041 84.2472 39.8668 84.3272 40.2399C84.404 40.6142 84.4512 40.9796 84.5103 41.3479C84.6264 42.0826 84.7415 42.8114 84.8556 43.5342L87.3766 59.6077C88.9145 69.4341 90.1573 77.3862 91.0163 82.8846C91.4443 85.6294 91.7749 87.7652 91.9993 89.2118C92.1085 89.9366 92.1941 90.4862 92.2502 90.8605C92.3063 91.2347 92.3299 91.4219 92.3299 91.4219L92.2354 90.8634C92.1744 90.4891 92.0859 89.9406 91.9698 89.2178C91.7366 87.7711 91.3971 85.6383 90.9573 82.8935C90.0864 77.3951 88.826 69.446 87.2673 59.6225C86.491 54.7093 85.6408 49.3297 84.7287 43.552C84.6126 42.8292 84.4975 42.1014 84.3833 41.3687C84.3213 41.0004 84.2741 40.629 84.2003 40.2666C83.9583 39.1596 83.3531 38.1666 82.4823 37.4476C82.1871 37.21 81.8653 37.005 81.5495 36.7852L80.593 36.1317L72.6878 30.7343L64.3811 25.0606C63.6765 24.5774 62.9651 24.0912 62.2468 23.6021C61.8987 23.3512 61.5258 23.1371 61.134 22.9634C60.7359 22.8001 60.3196 22.6864 59.8941 22.6248C59.0339 22.5066 58.1579 22.6162 57.3525 22.9426C57.1503 23.0236 56.9532 23.1168 56.7622 23.2218C56.5742 23.3319 56.3929 23.4529 56.219 23.5842C55.8688 23.849 55.5534 24.1574 55.2803 24.5021L41.3531 41.6717C41.0579 42.04 40.7627 42.4054 40.4675 42.7738C40.1601 43.1266 39.8752 43.4987 39.6144 43.8877C39.1258 44.679 38.8643 45.5909 38.8587 46.5225C38.8706 46.9856 38.922 47.4467 39.0122 47.9009C39.0831 48.3643 39.1569 48.8247 39.2277 49.2822C39.3734 50.203 39.518 51.1189 39.6617 52.0299C40.2343 55.6797 40.8001 59.274 41.359 62.8129C42.4689 69.8827 43.5405 76.7 44.5619 83.1965L46.0555 92.7022C46.2976 94.2409 46.5357 95.7569 46.7699 97.25C46.8408 97.9904 47.0136 98.7172 47.2835 99.4096C47.5729 100.081 48.0087 100.678 48.5588 101.156C49.092 101.624 49.7174 101.973 50.394 102.18C51.0706 102.387 51.7831 102.449 52.4848 102.359L56.5673 101.765L64.2423 100.642L87.4179 97.2679C87.7574 97.2174 88.0909 97.1758 88.4097 97.1045C88.5659 97.0738 88.7198 97.0321 88.8702 96.9797C89.0198 96.9364 89.1658 96.8818 89.3071 96.8163C89.8309 96.5901 90.3137 96.2779 90.7359 95.8925C91.0903 95.553 91.3981 95.1674 91.651 94.7459C91.7593 94.5601 91.8578 94.3688 91.9462 94.1726C91.9835 94.0775 92.0219 93.9854 92.0613 93.8963C92.0878 93.8042 92.1174 93.7151 92.1439 93.629C92.3042 93.0977 92.3799 92.5443 92.3683 91.9893C92.3683 91.8021 92.3447 91.6625 92.3388 91.5674C92.3329 91.4724 92.321 91.4308 92.321 91.4308Z" fill="#263238"/>
<path d="M47.2334 65.2546C46.4482 60.2879 49.0695 56.8094 53.2642 56.1291C57.4589 55.4489 61.0661 57.9441 61.8513 62.9019C62.6366 67.8597 60.0153 71.3471 55.7822 72.0273C51.5491 72.7076 48.0245 70.2539 47.2334 65.2546ZM56.9364 63.701C56.4759 60.7928 55.2774 59.8066 53.893 60.0294C52.5882 60.2374 51.6731 61.5622 52.1218 64.4703C52.5705 67.3785 53.8634 68.3528 55.1652 68.1419C56.5497 67.9191 57.3851 66.6091 56.9364 63.701ZM70.1905 53.8032L76.0442 52.8616L61.1222 84.6669L55.2597 85.6056L70.1905 53.8032ZM69.5027 75.5504C68.7175 70.5926 71.2975 67.1111 75.5306 66.4339C79.7636 65.7566 83.3355 68.2488 84.1207 73.2066C84.9059 78.1644 82.2846 81.6518 78.0486 82.3321C73.8126 83.0123 70.282 80.5498 69.4909 75.5504H69.5027ZM79.1939 73.9968C78.7334 71.0887 77.4906 70.1114 76.1475 70.3252C74.8044 70.5391 73.9277 71.858 74.3764 74.7662C74.8251 77.6743 76.0767 78.6546 77.4198 78.4377C78.7629 78.2209 79.6426 76.9228 79.1821 73.9968H79.1939Z" fill="white"/>
<path d="M139.51 2.27076C139.757 1.96 140.072 1.7109 140.431 1.54291C140.789 1.37493 141.181 1.2926 141.577 1.30237C141.896 1.30237 142.25 1.37663 142.507 1.18355C142.67 1.02176 142.805 0.832852 142.905 0.625091C143.01 0.485766 143.142 0.369109 143.293 0.282037C143.444 0.194966 143.61 0.139252 143.783 0.118198C143.956 0.0971437 144.131 0.111178 144.298 0.15947C144.465 0.207761 144.621 0.289327 144.756 0.399331C144.87 0.531593 145.006 0.643128 145.157 0.729058C145.804 0.996405 146.377 -0.233389 147.02 0.0398985C146.753 0.167989 146.532 0.375336 146.385 0.634002C146.316 0.76651 146.293 0.918635 146.321 1.06579C146.348 1.21294 146.424 1.34653 146.536 1.44495C147.159 1.90241 148.012 0.672617 148.682 1.03205C149.051 1.2281 149.154 1.81627 149.568 1.87568C149.728 1.87682 149.888 1.84968 150.04 1.79547C150.307 1.75048 150.58 1.80923 150.806 1.95982C151.031 2.11041 151.191 2.34156 151.253 2.60642C151.345 3.06388 151.165 3.64611 151.548 3.92236C151.676 3.98836 151.816 4.02597 151.959 4.03263C152.102 4.0393 152.245 4.01486 152.378 3.96098C152.41 4.3866 152.346 4.81399 152.192 5.21157C152.578 5.40671 152.873 5.74484 153.016 6.15481C153.16 6.56478 153.139 7.01464 152.959 7.40975C153.363 7.63635 153.72 7.93888 154.01 8.30091C154.152 8.48583 154.24 8.70715 154.264 8.93976C154.287 9.17236 154.245 9.40693 154.143 9.61684C154.08 9.70148 154.03 9.79445 153.993 9.8931C153.971 10.0066 153.982 10.1237 154.022 10.2317C154.197 10.6368 154.325 11.0602 154.406 11.4942C154.432 11.9368 154.155 12.4477 153.715 12.4507C153.612 12.4507 153.497 12.4299 153.42 12.4923C153.392 12.5201 153.371 12.553 153.356 12.5892C153.341 12.6254 153.334 12.6641 153.334 12.7032C153.327 13.024 153.371 13.344 153.464 13.6508C153.562 13.9558 153.542 14.2868 153.408 14.5776C153.371 14.6467 153.32 14.707 153.258 14.7543C153.196 14.8016 153.124 14.8347 153.048 14.8514C152.972 14.868 152.893 14.8679 152.817 14.8509C152.741 14.8339 152.67 14.8004 152.608 14.7529C152.779 15.2321 152.949 15.7104 153.119 16.1876C153.222 16.4847 153.314 16.8174 153.119 17.0491C152.871 17.3461 152.351 17.1827 152.109 16.8708C151.867 16.5589 151.776 16.149 151.519 15.843C151.408 15.7274 151.309 15.601 151.224 15.4658C151.168 15.3529 151.138 15.2133 151.032 15.142C150.822 14.9964 150.545 15.2994 150.595 15.5519C150.685 15.7891 150.84 15.9954 151.044 16.146C151.144 16.2258 151.218 16.3333 151.258 16.4553C151.298 16.5773 151.301 16.7083 151.268 16.8322C151.215 16.9451 151.108 17.0253 151.058 17.1293C150.887 17.5214 151.463 17.8333 151.566 18.2492C151.581 18.4069 151.56 18.5659 151.503 18.7138C151.447 18.8618 151.357 18.9945 151.241 19.1017C150.996 19.3988 150.492 19.6691 150.291 19.3393C150.22 19.2265 150.229 19.0779 150.17 18.9591C150.087 18.825 149.972 18.7137 149.836 18.6353C149.525 18.3987 149.289 18.0755 149.157 17.7056C149.514 18.0769 149.904 18.5759 149.718 19.0571C149.62 19.2502 149.493 19.4266 149.34 19.58C149.078 19.9127 148.933 20.3256 148.676 20.6612C148.419 20.9969 147.965 21.2553 147.578 21.0801C147.661 21.2789 147.675 21.5002 147.618 21.7081C147.561 21.9161 147.435 22.0983 147.262 22.2253C147.088 22.3523 146.877 22.4165 146.663 22.4076C146.449 22.3987 146.244 22.3171 146.081 22.1762C146.004 22.0884 145.908 22.0185 145.801 21.9712C145.677 21.9508 145.55 21.9663 145.435 22.0158C145.068 22.1145 144.68 22.1093 144.316 22.0008C143.951 21.8923 143.623 21.6847 143.369 21.4009L143.732 21.2345C142.985 21.2078 142.205 21.1722 141.553 20.8068C140.901 20.4414 140.423 19.6364 140.668 18.9294C140.78 18.6324 141.016 18.2997 140.868 18.0086C140.802 17.918 140.718 17.8422 140.622 17.7859C140.525 17.7297 140.418 17.6942 140.307 17.6818L137.589 16.9986C137.139 16.9271 136.717 16.7329 136.37 16.4371C136.051 16.1104 135.971 15.5074 136.322 15.2222C136.08 14.83 135.732 14.5148 135.319 14.3132C134.855 14.0904 134.336 14.0162 133.863 13.8201C133.391 13.6241 132.942 13.226 132.925 12.7002C132.907 12.1745 133.574 11.7229 133.961 12.0616C133.819 11.2982 132.446 11.3784 132.257 10.6238C132.104 10.009 132.866 9.6109 133.229 9.09403C133.125 8.8861 132.892 8.77025 132.783 8.56528C132.556 8.13456 132.975 7.64145 133.391 7.39193C133.807 7.1424 134.321 6.87803 134.383 6.39383C134.445 5.90964 133.978 5.3898 134.197 4.93828C134.271 4.81806 134.387 4.73056 134.522 4.69359C134.658 4.65662 134.802 4.67295 134.926 4.73926C135.195 3.81543 136.922 4.32933 137.329 3.45896C137.365 3.39188 137.378 3.31434 137.364 3.23914C137.346 3.1757 137.311 3.11828 137.264 3.0728C137.023 2.87611 136.759 2.70954 136.479 2.57672C136.339 2.50773 136.225 2.39695 136.151 2.25968C136.077 2.12241 136.047 1.9654 136.065 1.81033C136.148 1.51327 136.697 1.46575 136.721 1.77765C136.796 1.70608 136.887 1.65274 136.986 1.62168C137.085 1.59062 137.189 1.58267 137.292 1.59842C137.394 1.61417 137.492 1.65321 137.577 1.71258C137.662 1.77194 137.733 1.85007 137.783 1.94103C137.893 1.80948 138.045 1.7204 138.213 1.68898C138.381 1.65756 138.555 1.68575 138.704 1.76874C138.998 1.93803 139.247 2.17531 139.431 2.46087" fill="#263238"/>
<path d="M144.609 11.7021C144.187 10.4604 143.133 9.53957 142.011 8.8712C141.554 8.56357 141.029 8.37382 140.482 8.31868C140.209 8.29645 139.935 8.35521 139.695 8.48772C139.455 8.62023 139.258 8.82067 139.13 9.06428L139.31 9.95544C139.366 11.4169 140.621 12.5041 141.308 13.7933C141.604 14.3518 141.875 15.038 142.489 15.2192C142.814 15.2986 143.157 15.2541 143.452 15.0944C144.629 14.5419 145.04 12.9438 144.609 11.7021Z" fill="#455A64"/>
<path d="M145.532 18.3857C145.856 17.7806 145.959 17.08 145.823 16.4063C145.686 15.7325 145.319 15.1284 144.785 14.6993C145.225 13.9597 144.897 12.9556 144.274 12.3675C143.651 11.7793 142.798 11.506 141.987 11.2506C141.305 9.35239 138.943 8.28004 137.075 8.99593C135.87 7.64138 133.698 7.69485 132.056 8.42856C131.668 8.63783 131.251 8.78989 130.819 8.88008C130.496 8.90087 130.172 8.90087 129.848 8.88008C128.077 8.88008 126.498 10.3475 126.034 12.0734C125.981 12.3548 125.889 12.6276 125.763 12.8843C125.542 13.187 125.283 13.4596 124.992 13.6953C124.709 13.9859 124.491 14.3346 124.354 14.7174C124.216 15.1003 124.162 15.5085 124.195 15.9143C124.257 16.6005 124.57 17.2985 124.367 17.955C124.263 18.2847 124.039 18.5699 123.968 18.9085C123.77 19.8918 124.93 20.7117 124.854 21.7127C124.854 21.9147 124.777 22.1137 124.747 22.3068C124.692 22.7221 124.786 23.1435 125.013 23.495C125.19 23.7653 125.447 23.997 125.506 24.3149C125.522 24.5595 125.507 24.8052 125.459 25.0456C125.417 25.6397 126.961 27.7191 127.501 27.9657L142.441 26.1269C142.989 25.9245 143.46 25.5554 143.79 25.071C144.119 24.5865 144.291 24.0107 144.28 23.4237C144.247 23.2313 144.27 23.0334 144.345 22.8534C144.447 22.7229 144.573 22.6139 144.717 22.5326C145.603 21.885 145.553 20.5423 145.308 19.464C145.265 19.3146 145.248 19.1588 145.257 19.0036C145.306 18.7809 145.399 18.5706 145.532 18.3857Z" fill="#263238"/>
<path d="M141.282 18.977C140.987 16.3035 138.92 13.4815 136.122 12.531C134.351 11.9369 133.07 12.1002 132.187 12.1151C130.951 12.1596 129.757 12.5824 128.766 13.3271C127.969 13.6241 125.321 16.8115 125.563 19.8444C125.832 23.2159 126.289 27.3212 127.039 29.757C128.547 34.6554 132.456 34.7415 132.456 34.7415L133.205 41.2202L143.463 37.3912L141.282 18.977Z" fill="#FFBF9D"/>
<path d="M127.387 23.8219C127.41 23.9894 127.497 24.1413 127.629 24.2455C127.761 24.3498 127.929 24.3981 128.096 24.3803C128.178 24.3751 128.258 24.3534 128.332 24.3165C128.405 24.2795 128.471 24.2281 128.525 24.1653C128.578 24.1025 128.619 24.0294 128.644 23.9506C128.669 23.8717 128.679 23.7886 128.671 23.706C128.649 23.5382 128.563 23.3858 128.43 23.2815C128.298 23.1771 128.13 23.129 127.963 23.1476C127.881 23.1528 127.8 23.1745 127.727 23.2115C127.653 23.2484 127.587 23.2998 127.534 23.3626C127.48 23.4255 127.439 23.4985 127.414 23.5774C127.389 23.6562 127.38 23.7394 127.387 23.8219Z" fill="#263238"/>
<path d="M126.959 21.6058C127.05 21.6771 127.481 21.2494 128.169 21.1513C128.857 21.0533 129.412 21.3266 129.474 21.2315C129.503 21.187 129.403 21.0474 129.161 20.9196C128.834 20.7543 128.463 20.6951 128.101 20.7503C127.744 20.8012 127.412 20.9656 127.154 21.2197C126.965 21.4127 126.915 21.5731 126.959 21.6058Z" fill="#263238"/>
<path d="M131.762 26.4865C131.383 26.4265 130.998 26.4125 130.616 26.4449C130.436 26.4449 130.265 26.4449 130.221 26.3261C130.178 26.1459 130.193 25.9569 130.262 25.7854C130.365 25.3339 130.475 24.8616 130.59 24.3655C131.036 22.3456 131.334 20.6969 131.251 20.6791C131.168 20.6613 130.743 22.2832 130.295 24.3031C130.188 24.7992 130.088 25.2745 129.999 25.726C129.917 25.9543 129.917 26.2047 129.999 26.433C130.034 26.4914 130.081 26.5412 130.137 26.5787C130.193 26.6163 130.257 26.6406 130.324 26.6498C130.422 26.6611 130.521 26.6611 130.619 26.6498C131.005 26.6428 131.389 26.588 131.762 26.4865Z" fill="#263238"/>
<path d="M132.456 34.7415C134.806 34.4382 137.027 33.4839 138.87 31.9849C138.87 31.9849 137.689 35.9743 132.627 36.2268L132.456 34.7415Z" fill="#FF9A6C"/>
<path d="M133.851 26.6735C133.739 26.6735 133.851 27.434 133.281 28.0578C132.712 28.6816 131.915 28.7173 131.923 28.8212C131.923 28.8717 132.121 28.943 132.458 28.9014C132.895 28.8455 133.299 28.6349 133.597 28.3073C133.885 27.9933 134.04 27.5788 134.028 27.1518C134.01 26.834 133.901 26.6617 133.851 26.6735Z" fill="#263238"/>
<path d="M126.868 18.974C127.006 19.1255 127.517 18.9383 128.14 18.8997C128.763 18.8611 129.294 18.9502 129.406 18.7809C129.456 18.6977 129.365 18.5432 129.129 18.4036C128.806 18.2383 128.445 18.1653 128.084 18.1926C127.724 18.2198 127.377 18.3463 127.083 18.5581C126.871 18.7333 126.806 18.8997 126.868 18.974Z" fill="#263238"/>
<path d="M134.759 22.9782C134.778 23.1464 134.731 23.3155 134.629 23.4497C134.526 23.584 134.376 23.6727 134.209 23.6971C134.129 23.7124 134.045 23.7113 133.965 23.6938C133.884 23.6763 133.808 23.6427 133.741 23.5951C133.673 23.5475 133.616 23.4867 133.572 23.4165C133.529 23.3463 133.499 23.2679 133.486 23.1861C133.467 23.018 133.513 22.8488 133.616 22.7146C133.718 22.5804 133.869 22.4916 134.035 22.4673C134.116 22.4519 134.199 22.4531 134.28 22.4706C134.36 22.4881 134.437 22.5216 134.504 22.5693C134.571 22.6169 134.629 22.6776 134.672 22.7478C134.716 22.8181 134.745 22.8964 134.759 22.9782Z" fill="#263238"/>
<path d="M136.402 20.5187C136.331 20.6107 135.812 20.2988 135.118 20.3761C134.424 20.4533 133.958 20.8514 133.872 20.7741C133.831 20.7414 133.899 20.581 134.1 20.3939C134.377 20.1542 134.722 20.0069 135.086 19.9721C135.444 19.9321 135.806 20.008 136.119 20.1889C136.343 20.3315 136.438 20.483 136.402 20.5187Z" fill="#263238"/>
<path d="M136.266 18.1689C136.145 18.3412 135.596 18.2342 134.956 18.2966C134.315 18.359 133.775 18.5283 133.642 18.3768C133.577 18.3026 133.642 18.1332 133.866 17.961C134.171 17.7398 134.531 17.61 134.905 17.5867C135.277 17.5515 135.651 17.6237 135.983 17.7946C136.225 17.9313 136.316 18.0857 136.266 18.1689Z" fill="#263238"/>
<path d="M141.137 23.8426C141.084 23.4713 141.388 22.5267 141.745 22.4168C142.701 22.1197 144.476 21.9475 144.85 24.4457C145.361 27.8588 141.848 27.6687 141.828 27.5736C141.807 27.4786 141.317 25.1319 141.137 23.8426Z" fill="#FFBF9D"/>
<path d="M142.578 26.1834C142.578 26.1834 142.642 26.2161 142.749 26.2488C142.898 26.2881 143.057 26.2667 143.192 26.1893C143.531 26.0022 143.747 25.3843 143.673 24.7665C143.636 24.4727 143.535 24.1907 143.378 23.9407C143.329 23.8389 143.258 23.7504 143.168 23.6826C143.079 23.6148 142.974 23.5699 142.864 23.5515C142.793 23.5418 142.721 23.5585 142.661 23.5984C142.601 23.6383 142.558 23.6987 142.539 23.7684C142.507 23.8694 142.539 23.9347 142.521 23.9436C142.504 23.9525 142.442 23.8961 142.448 23.7505C142.453 23.6638 142.488 23.5818 142.548 23.5188C142.589 23.4758 142.638 23.4414 142.692 23.4179C142.746 23.3945 142.805 23.3823 142.864 23.3822C143.007 23.3884 143.146 23.4316 143.267 23.5076C143.389 23.5835 143.489 23.6897 143.558 23.8159C143.748 24.0889 143.868 24.4054 143.906 24.7368C143.989 25.4289 143.735 26.127 143.265 26.3438C143.179 26.3855 143.084 26.4071 142.988 26.4071C142.892 26.4071 142.797 26.3855 142.71 26.3438C142.595 26.2666 142.566 26.1923 142.578 26.1834Z" fill="#FF9A6C"/>
<path d="M124.795 20.0048C125.418 19.473 125.772 18.8166 125.616 18.0175C126.088 18.0858 126.466 17.4234 126.676 16.9956C126.885 16.5679 127.183 16.3154 127.095 15.8401C127.067 15.7431 127.067 15.6401 127.095 15.543C127.145 15.4034 127.301 15.3381 127.434 15.2727C127.779 15.1022 128.076 14.8477 128.298 14.5323C128.52 14.2168 128.661 13.8505 128.707 13.4667C129.484 13.6808 130.303 13.6982 131.089 13.5172C131.303 13.7497 131.572 13.9237 131.871 14.0227C132.17 14.1217 132.49 14.1424 132.799 14.083C133.109 14.0236 133.398 13.886 133.64 13.683C133.882 13.4801 134.068 13.2186 134.182 12.9231C134.327 13.1145 134.51 13.2727 134.721 13.3869C134.931 13.5012 135.163 13.5689 135.401 13.5855C135.878 13.6128 136.357 13.5697 136.821 13.4577C136.8 13.934 136.95 14.4021 137.244 14.776C137.537 15.1498 137.956 15.4043 138.421 15.4925C138.55 15.4936 138.673 15.5459 138.764 15.6381C138.789 15.6992 138.803 15.7649 138.803 15.8312C138.803 15.8975 138.789 15.9632 138.764 16.0243C138.727 16.2305 138.732 16.442 138.779 16.6461C138.825 16.8503 138.912 17.043 139.034 17.2126C139.156 17.3823 139.311 17.5255 139.489 17.6337C139.667 17.7418 139.865 17.8128 140.071 17.8422C139.96 17.9759 139.879 18.1332 139.836 18.3026C139.793 18.4719 139.788 18.6488 139.823 18.8201C139.857 18.9914 139.929 19.1527 140.034 19.292C140.139 19.4313 140.274 19.545 140.429 19.6245C140.564 19.681 140.739 19.7463 140.739 19.8949C140.734 19.9501 140.716 20.0033 140.685 20.0493C140.45 20.4086 140.32 20.8278 140.311 21.2583C140.34 21.6831 140.691 22.1168 141.113 22.0752C141.007 22.1808 140.923 22.3073 140.868 22.4468C140.812 22.5863 140.785 22.7358 140.789 22.8862C140.824 23.1832 141.167 23.4416 141.426 23.2961C141.539 23.2337 143.18 22.6545 143.242 22.5445C144.015 21.092 142.601 19.8146 142.274 18.2017C141.915 16.5875 141.188 15.0794 140.151 13.7964C139.738 13.2399 139.253 12.7405 138.711 12.3111C138.066 11.8618 137.373 11.488 136.644 11.1972C135.708 10.7813 134.749 10.3714 133.734 10.2823C131.839 10.11 130.029 11.0546 128.42 12.0943C127.8 12.4701 127.232 12.9276 126.732 13.4548C126.179 14.1282 125.751 14.8959 125.468 15.7213C124.975 16.8821 124.726 18.1332 124.736 19.3958" fill="#263238"/>
<path d="M123.945 18.9027C123.968 18.7658 124.013 18.6335 124.078 18.5106C124.134 18.3858 124.216 18.2403 124.287 18.0561C124.368 17.8441 124.402 17.6172 124.388 17.3907C124.367 17.1062 124.322 16.8241 124.255 16.5471C124.171 16.2141 124.131 15.8715 124.137 15.5282C124.156 15.1316 124.257 14.7433 124.432 14.3875C124.529 14.1938 124.646 14.0115 124.783 13.8439C124.934 13.6682 125.098 13.5044 125.273 13.3538C125.453 13.2073 125.606 13.0315 125.728 12.8339C125.834 12.6152 125.911 12.3835 125.958 12.1448C126.086 11.6306 126.303 11.143 126.599 10.7041C126.913 10.2305 127.314 9.82124 127.779 9.49803C128.021 9.32814 128.28 9.18568 128.553 9.07324C128.838 8.96058 129.135 8.88279 129.438 8.84154C129.589 8.82075 129.734 8.82075 129.899 8.81481C130.064 8.80887 130.209 8.81481 130.365 8.83263C130.673 8.85394 130.982 8.81043 131.271 8.7049C131.567 8.60093 131.862 8.44646 132.157 8.32467C132.461 8.19917 132.775 8.0998 133.096 8.02762C133.422 7.94997 133.753 7.8993 134.088 7.87612C134.43 7.85839 134.773 7.87331 135.112 7.92068C135.812 8.01401 136.465 8.32565 136.981 8.81184L137.131 8.96333H137.075C138.037 8.63179 139.089 8.68381 140.014 9.1087C140.939 9.53359 141.667 10.299 142.049 11.2477L142.019 11.218C142.455 11.3452 142.882 11.5 143.298 11.6814C143.705 11.8559 144.077 12.1057 144.393 12.418C144.694 12.7268 144.904 13.1134 145.001 13.535C145.1 13.9373 145.042 14.3627 144.839 14.7232V14.6667C145.362 15.0774 145.727 15.6596 145.869 16.3124C146.008 16.8928 145.968 17.5022 145.754 18.059C145.705 18.1875 145.646 18.3117 145.577 18.4304C145.509 18.5462 145.438 18.6561 145.385 18.769C145.331 18.8788 145.306 19.0003 145.311 19.1225C145.322 19.2416 145.342 19.3598 145.37 19.476C145.461 19.9044 145.503 20.342 145.494 20.78C145.494 21.1352 145.427 21.4871 145.296 21.8168C145.197 22.0587 145.043 22.2742 144.847 22.4465C144.688 22.5861 144.537 22.6544 144.461 22.7287C144.421 22.7658 144.384 22.8066 144.351 22.8505C144.375 22.8002 144.409 22.7556 144.452 22.7198C144.529 22.6396 144.676 22.5683 144.83 22.4227C145.018 22.2502 145.166 22.0369 145.261 21.7989C145.385 21.4731 145.448 21.1263 145.444 20.7771C145.441 20.3427 145.389 19.91 145.287 19.4879C145.257 19.3689 145.236 19.2477 145.225 19.1255C145.219 18.9934 145.246 18.8618 145.302 18.7423C145.36 18.6263 145.424 18.5133 145.494 18.4036C145.853 17.7737 145.952 17.0268 145.768 16.3243C145.629 15.6909 145.274 15.1266 144.765 14.7291L144.732 14.7083L144.753 14.6727C144.947 14.327 145 13.9191 144.901 13.535C144.805 13.1306 144.601 12.7606 144.31 12.4656C144.001 12.1628 143.638 11.9201 143.242 11.7497C142.828 11.5716 142.404 11.4198 141.972 11.2952H141.949V11.2714C141.574 10.3494 140.864 9.60618 139.963 9.19372C139.062 8.78126 138.038 8.73072 137.102 9.05245H137.072L137.045 9.02571L136.901 8.88016C136.401 8.40756 135.766 8.10516 135.085 8.01574C134.754 7.96775 134.419 7.95381 134.085 7.97415C133.756 7.99481 133.43 8.04451 133.111 8.12268C132.795 8.1952 132.486 8.29457 132.187 8.41973C131.891 8.54152 131.596 8.69599 131.301 8.79995C131.149 8.85621 130.992 8.89605 130.832 8.91878C130.674 8.93703 130.515 8.942 130.356 8.93363C130.2 8.93363 130.046 8.91581 129.896 8.91284C129.746 8.91376 129.596 8.92368 129.447 8.94254C129.154 8.97886 128.866 9.05273 128.591 9.16236C128.324 9.27261 128.07 9.41102 127.833 9.57526C126.951 10.1987 126.318 11.1166 126.047 12.1655C125.998 12.4111 125.917 12.649 125.805 12.8725C125.68 13.0781 125.521 13.2609 125.335 13.4132C125.164 13.5549 125.005 13.7109 124.86 13.8795C124.725 14.0421 124.609 14.2195 124.515 14.4083C124.342 14.7557 124.242 15.1347 124.219 15.5222C124.209 15.8612 124.245 16.2 124.326 16.5292C124.392 16.8092 124.435 17.0945 124.453 17.3818C124.463 17.613 124.425 17.8439 124.34 18.059C124.264 18.2432 124.178 18.3888 124.119 18.5106C124.072 18.6064 124.033 18.7057 124.001 18.8076C123.985 18.8411 123.967 18.8729 123.945 18.9027Z" fill="#455A64"/>
<path d="M135.375 8.47322C135.375 8.47322 135.278 8.43163 135.101 8.3752C134.852 8.29377 134.591 8.2556 134.33 8.26232C133.944 8.26986 133.567 8.38059 133.238 8.58313C132.837 8.83713 132.527 9.21264 132.352 9.65549C132.299 9.78743 132.26 9.92491 132.237 10.0654C132.224 10.1269 132.223 10.1906 132.237 10.2522C132.25 10.3137 132.276 10.3716 132.314 10.4219L132.411 10.5258L132.27 10.508C131.903 10.46 131.532 10.5581 131.237 10.7813C131.002 10.9615 130.832 11.2124 130.749 11.4972C130.692 11.6896 130.674 11.8917 130.696 12.0913C130.709 12.161 130.718 12.2314 130.723 12.3022C130.723 12.3022 130.723 12.3022 130.702 12.2517C130.683 12.201 130.669 12.1482 130.661 12.0943C130.618 11.8399 130.645 11.5787 130.736 11.3378C130.828 11.097 130.983 10.8853 131.183 10.7249C131.338 10.6044 131.515 10.5161 131.704 10.4651C131.893 10.4141 132.091 10.4014 132.284 10.4278L132.24 10.514C132.192 10.4525 132.157 10.3809 132.139 10.3043C132.121 10.2278 132.121 10.1482 132.137 10.0714C132.16 9.92245 132.201 9.77685 132.258 9.63766C132.44 9.17409 132.768 8.78298 133.191 8.52372C133.478 8.35078 133.802 8.24594 134.135 8.21712C134.469 8.1883 134.806 8.23626 135.118 8.35737C135.185 8.38363 135.25 8.4144 135.313 8.44946C135.354 8.4554 135.375 8.46728 135.375 8.47322Z" fill="#455A64"/>
<path d="M141.435 11.616C141.435 11.616 141.405 11.6695 141.335 11.7556C141.23 11.8742 141.113 11.9817 140.986 12.0765C140.796 12.2228 140.575 12.3243 140.34 12.3735C140.038 12.4409 139.721 12.3911 139.454 12.2339L139.528 12.2131L139.448 12.3676L139.351 12.5191C139.15 12.7972 138.883 13.0207 138.575 13.1696C138.327 13.2935 138.057 13.3672 137.781 13.3865C137.596 13.4044 137.41 13.3934 137.228 13.3538C137.162 13.34 137.097 13.317 137.037 13.2855C137.28 13.3305 137.528 13.3454 137.775 13.33C138.04 13.3005 138.297 13.222 138.533 13.0983C138.824 12.9517 139.075 12.7367 139.265 12.4715C139.299 12.4258 139.329 12.3782 139.357 12.3289L139.434 12.1834L139.46 12.1329L139.507 12.1626C139.752 12.3052 140.039 12.3528 140.316 12.2963C140.541 12.2526 140.755 12.1615 140.942 12.0289C141.27 11.7972 141.423 11.6012 141.435 11.616Z" fill="#455A64"/>
<path d="M143.676 14.5419C143.679 14.5635 143.679 14.5856 143.676 14.6072C143.668 14.6682 143.65 14.7274 143.622 14.7825C143.518 14.988 143.341 15.1468 143.127 15.2281C142.809 15.3329 142.467 15.3433 142.144 15.2578C141.952 15.2236 141.763 15.1779 141.577 15.1211C141.363 15.0671 141.175 14.9388 141.045 14.7587L141.019 14.7052H141.102C140.833 15.0008 140.521 15.2542 140.178 15.4568C139.892 15.6211 139.567 15.7024 139.239 15.6915C139.018 15.6846 138.802 15.6202 138.613 15.5043C138.562 15.4728 138.515 15.4359 138.471 15.3944C138.445 15.3677 138.43 15.3499 138.433 15.3469C138.436 15.3439 138.501 15.4004 138.634 15.4687C138.822 15.5668 139.03 15.6177 139.242 15.6172C139.553 15.6173 139.859 15.5332 140.127 15.3736C140.456 15.1698 140.754 14.9198 141.013 14.631L141.06 14.5805L141.096 14.6458L141.119 14.6874C141.236 14.8473 141.404 14.9618 141.595 15.0112C141.778 15.0706 141.969 15.1092 142.147 15.1508C142.453 15.2379 142.778 15.2379 143.085 15.1508C143.289 15.081 143.461 14.9411 143.572 14.7557C143.613 14.6876 143.647 14.616 143.676 14.5419Z" fill="#455A64"/>
<path d="M145.603 1.80737C145.603 1.80737 145.544 1.80737 145.447 1.85787C145.306 1.92151 145.186 2.02462 145.102 2.15493C144.972 2.36088 144.914 2.60429 144.936 2.84705C144.978 3.1622 145.065 3.46946 145.196 3.759L145.217 3.81247H145.161C144.739 3.86166 144.344 4.04719 144.036 4.34123C143.862 4.5036 143.728 4.70478 143.645 4.92866C143.562 5.15254 143.532 5.39289 143.558 5.63043C143.578 5.8472 143.648 6.0563 143.762 6.24167C143.876 6.42704 144.03 6.58377 144.213 6.69981L144.34 6.77408L144.195 6.7919C143.953 6.82621 143.72 6.91071 143.512 7.04006C143.304 7.16941 143.124 7.34081 142.985 7.54344C142.763 7.86871 142.659 8.26098 142.69 8.65442C142.711 8.914 142.786 9.16615 142.911 9.39407C142.997 9.55448 143.065 9.63172 143.056 9.63469C143.047 9.63766 143.038 9.61983 143.006 9.58419C142.959 9.53115 142.917 9.47342 142.882 9.4119C142.741 9.18408 142.654 8.92704 142.628 8.66036C142.581 8.2514 142.679 7.83883 142.905 7.49591C143.049 7.28089 143.236 7.09848 143.454 6.96037C143.672 6.82226 143.917 6.73149 144.172 6.69387L144.154 6.78596C143.956 6.66346 143.79 6.49636 143.667 6.29787C143.545 6.09938 143.47 5.87494 143.448 5.64231C143.417 5.38267 143.45 5.11912 143.546 4.87592C143.641 4.65174 143.78 4.44954 143.956 4.28181C144.28 3.97528 144.695 3.78429 145.137 3.73821L145.099 3.79762C144.969 3.49833 144.886 3.18069 144.854 2.85597C144.833 2.60035 144.901 2.34554 145.045 2.13413C145.137 1.99705 145.269 1.89295 145.423 1.83708C145.462 1.82348 145.503 1.8145 145.544 1.81034L145.603 1.80737Z" fill="#455A64"/>
<path d="M152.706 8.35438C152.69 8.36942 152.673 8.38331 152.655 8.39597C152.617 8.41676 152.567 8.45835 152.496 8.49697C152.288 8.61341 152.064 8.69848 151.832 8.74946C151.476 8.83219 151.107 8.84028 150.749 8.77322C150.285 8.69402 149.852 8.48854 149.497 8.17912L149.574 8.1613C149.452 8.46311 149.264 8.73379 149.025 8.9537C148.786 9.17361 148.502 9.33722 148.192 9.43268C147.859 9.52791 147.505 9.51517 147.18 9.39625C146.854 9.27734 146.574 9.05831 146.38 8.77025H146.465C146.415 9.0087 146.301 9.22918 146.138 9.40891C145.992 9.57028 145.819 9.7041 145.627 9.80399C145.309 9.96014 144.962 10.0481 144.609 10.0624C144.38 10.0726 144.151 10.0677 143.924 10.0476C143.843 10.0424 143.762 10.0325 143.682 10.0179C143.763 10.0102 143.845 10.0102 143.927 10.0179C144.083 10.0179 144.313 10.0179 144.603 10.0179C144.946 9.99619 145.282 9.90421 145.589 9.74755C145.782 9.65166 145.953 9.51419 146.088 9.34482C146.223 9.17544 146.32 8.9783 146.371 8.76728L146.397 8.64549L146.459 8.74946C146.646 9.01863 146.911 9.22258 147.218 9.33282C147.525 9.44306 147.858 9.45408 148.172 9.36436C148.466 9.2726 148.737 9.11672 148.965 8.90778C149.193 8.69884 149.373 8.44195 149.491 8.15536L149.515 8.09595L149.565 8.13753C149.907 8.43955 150.322 8.6446 150.769 8.73164C151.118 8.80036 151.477 8.80036 151.826 8.73164C152.136 8.65145 152.433 8.52425 152.706 8.35438Z" fill="#455A64"/>
<path d="M149.845 13.8617C149.839 13.8867 149.828 13.91 149.812 13.93C149.765 13.9848 149.702 14.0241 149.632 14.0429C149.379 14.1007 149.115 14.0936 148.865 14.0221C148.488 13.9309 148.15 13.7231 147.897 13.428C147.591 13.0583 147.434 12.5866 147.457 12.1061L147.539 12.1507C147.146 12.4188 146.677 12.5531 146.202 12.5339C145.819 12.5203 145.445 12.4186 145.107 12.2368C144.881 12.1154 144.673 11.9624 144.49 11.7823C144.418 11.7222 144.357 11.651 144.307 11.5714C144.56 11.804 144.84 12.0036 145.143 12.1655C145.472 12.3339 145.835 12.4262 146.205 12.4358C146.658 12.4478 147.104 12.3181 147.48 12.0645L147.563 12.0051V12.121C147.54 12.535 147.659 12.9445 147.9 13.2812C148.14 13.618 148.488 13.8616 148.886 13.9716C149.125 14.0439 149.377 14.0612 149.624 14.0221C149.714 13.998 149.793 13.9408 149.845 13.8617Z" fill="#455A64"/>
<path d="M138.194 2.98669C138.13 3.34124 138.13 3.7045 138.194 4.05905C138.275 4.48353 138.472 4.877 138.762 5.19544C139.052 5.51389 139.425 5.74473 139.838 5.86215C140.1 5.94034 140.372 5.97152 140.644 5.95424H140.706V6.01662C140.598 6.69063 140.719 7.38178 141.052 7.97716C141.105 8.08076 141.166 8.18007 141.235 8.27421C141.256 8.30775 141.285 8.33571 141.32 8.35583C141.354 8.37595 141.393 8.38768 141.432 8.39006C141.457 8.38997 141.482 8.38434 141.504 8.37355C141.527 8.36276 141.547 8.3471 141.562 8.32768C141.572 8.3126 141.581 8.2967 141.589 8.28015C141.589 8.28015 141.589 8.30094 141.589 8.33659C141.573 8.36153 141.552 8.38237 141.527 8.39736C141.502 8.41235 141.473 8.42105 141.444 8.42274C141.398 8.4239 141.353 8.4143 141.311 8.39471C141.27 8.37511 141.234 8.34606 141.205 8.30985C141.13 8.21651 141.063 8.11717 141.004 8.0128C140.644 7.41025 140.506 6.69937 140.615 6.00474L140.668 6.06118C140.384 6.08171 140.099 6.05051 139.827 5.96909C139.354 5.82993 138.934 5.55037 138.622 5.16705C138.411 4.90379 138.256 4.59892 138.169 4.27202C138.081 3.94512 138.063 3.60342 138.114 3.26889C138.128 3.19763 138.146 3.12722 138.168 3.05799C138.173 3.03308 138.182 3.00908 138.194 2.98669Z" fill="#455A64"/>
<path d="M128.471 108.464L139.735 106.411C139.735 106.411 145.595 117.245 147.705 117.069L144.532 94.942L126.856 97.4194L128.471 108.464Z" fill="#455A64"/>
<path d="M137.801 99.7067C137.835 99.4845 137.95 99.2828 138.122 99.1403C138.295 98.9978 138.514 98.9244 138.737 98.9344C138.959 98.9591 139.163 99.0689 139.306 99.241C139.45 99.413 139.522 99.634 139.508 99.8582C139.46 100.307 138.95 100.749 138.513 100.672C138.076 100.595 137.665 100.042 137.819 99.6206" fill="#E0E0E0"/>
<path d="M144.986 94.9568L143.274 95.1944L146.456 116.454C146.456 116.454 147.026 117.378 147.699 117.167L144.986 94.9568Z" fill="#E0E0E0"/>
<path d="M139.676 106.785C139.782 106.765 139.752 106.218 140.021 105.636C140.29 105.054 140.703 104.706 140.647 104.614C140.591 104.522 139.992 104.771 139.679 105.481C139.366 106.191 139.59 106.824 139.676 106.785Z" fill="#263238"/>
<path d="M140.963 108.969C141.07 108.969 141.185 108.482 141.586 108.051C141.988 107.62 142.454 107.442 142.433 107.335C142.413 107.228 141.796 107.246 141.309 107.795C140.822 108.345 140.86 108.981 140.963 108.969Z" fill="#263238"/>
<path d="M143.912 109.896C143.912 109.795 143.363 109.723 142.814 110.086C142.265 110.448 142.105 110.977 142.2 111.021C142.294 111.066 142.566 110.695 143.02 110.403C143.475 110.112 143.915 109.994 143.912 109.896Z" fill="#263238"/>
<path d="M138.052 107.195C138.135 107.124 137.848 106.687 137.71 106.084C137.571 105.481 137.618 104.964 137.515 104.938C137.412 104.911 137.172 105.466 137.344 106.173C137.515 106.88 137.987 107.272 138.052 107.195Z" fill="#263238"/>
<path d="M128.47 80.9003C128.051 80.7844 112.123 96.2459 109.091 100.042C105.997 103.904 109.191 108.954 111.485 108.995C116.208 109.102 138.56 107.641 138.56 107.641L136.225 97.244L145.149 94.22L137.178 79.5338L128.47 80.9003Z" fill="#263238"/>
<g opacity="0.3">
<path opacity="0.3" d="M124.128 85.2907L123.538 85.9264C123.538 85.9264 134.055 97.0272 137.282 96.8757L142.445 95.1142L124.978 84.3282L124.128 85.2907Z" fill="black"/>
</g>
<path d="M136.287 97.5055C136.305 97.5708 132.476 98.7591 127.727 100.161C122.977 101.563 119.128 102.647 119.107 102.582C119.086 102.517 122.915 101.329 127.668 99.9265C132.42 98.5244 136.267 97.4401 136.287 97.5055Z" fill="#263238"/>
<path d="M113.371 98.6492L116.94 110.035C116.94 110.035 106.638 117.506 107.092 119.674L129.276 113.508L124.444 95.5391L113.371 98.6492Z" fill="#455A64"/>
<path d="M123.532 107.16C123.763 107.166 123.985 107.257 124.153 107.418C124.322 107.578 124.425 107.795 124.444 108.027C124.446 108.26 124.36 108.484 124.203 108.655C124.046 108.825 123.83 108.929 123.6 108.945C123.139 108.945 122.608 108.485 122.637 108.021C122.667 107.558 123.172 107.062 123.623 107.166" fill="#E0E0E0"/>
<path d="M129.421 113.974L128.963 112.233L107.665 118.299C107.665 118.299 106.797 119.006 107.101 119.674L129.421 113.974Z" fill="#E0E0E0"/>
<path d="M116.547 110.02C116.583 110.127 117.138 110.02 117.766 110.228C118.395 110.436 118.806 110.822 118.891 110.739C118.977 110.656 118.646 110.086 117.879 109.848C117.111 109.61 116.497 109.928 116.547 110.02Z" fill="#263238"/>
<path d="M114.499 111.636C114.499 111.749 115.025 111.803 115.518 112.162C116.011 112.521 116.253 112.979 116.359 112.943C116.465 112.908 116.359 112.275 115.742 111.838C115.125 111.402 114.461 111.532 114.499 111.636Z" fill="#263238"/>
<path d="M113.936 114.806C114.039 114.806 114.042 114.212 113.599 113.695C113.156 113.178 112.587 113.077 112.563 113.181C112.539 113.285 112.944 113.517 113.301 113.95C113.658 114.384 113.823 114.824 113.936 114.806Z" fill="#263238"/>
<path d="M116.022 107.335C116.093 107.421 116.55 107.133 117.173 107.005C117.796 106.877 118.327 106.937 118.354 106.83C118.38 106.723 117.817 106.459 117.085 106.619C116.353 106.779 115.945 107.264 116.022 107.335Z" fill="#263238"/>
<g opacity="0.3">
<path opacity="0.3" d="M129.093 108.351L128.071 104.314L129.087 103.836L122.882 86.8384L121.698 87.8751L126.575 103.447L127.809 108.048L129.093 108.351Z" fill="black"/>
</g>
<path d="M114.794 67.628C113.59 67.3681 112.345 67.368 111.142 67.6276C109.938 67.8872 108.802 68.4006 107.81 69.1341C106.145 70.3936 104.755 72.4016 105.203 75.5831C106.204 82.6321 115.157 106.696 115.157 106.696L127.555 102.947C127.626 102.927 127.697 102.722 127.659 102.784C127.555 102.947 121.374 82.9024 121.53 83.1371C121.687 83.3718 134.029 93.4032 139.156 95.2449C144.423 97.1401 149.633 94.8736 152.145 91.3446C153.346 89.6544 156.115 80.7221 150.628 73.3492L140.373 75.292C140.373 75.292 116.087 67.9964 115.727 67.8657C115.421 67.7671 115.11 67.6878 114.794 67.628Z" fill="#263238"/>
<path d="M152.614 91.0981C152.614 91.0981 152.567 91.1813 152.464 91.3358C152.31 91.5656 152.142 91.7858 151.962 91.9952C151.25 92.7944 150.428 93.4866 149.521 94.0508C148.082 94.9792 146.468 95.5981 144.78 95.8688C143.719 96.0422 142.639 96.0573 141.574 95.9133C140.37 95.766 139.2 95.4124 138.114 94.8677C137.524 94.6152 136.969 94.2736 136.373 93.9766C135.777 93.6795 135.192 93.3023 134.602 92.925C133.421 92.1853 132.193 91.3833 130.953 90.51C128.468 88.7752 125.858 86.8176 123.157 84.6551L122.145 83.8293L121.637 83.4015L121.504 83.2797L121.436 83.2144C121.48 83.2144 121.318 83.1609 121.528 83.2441C121.69 83.0718 121.572 83.1579 121.61 83.1401V83.1758L121.699 83.4906L122.496 86.0809C123.043 87.8276 123.605 89.6158 124.181 91.4457C125.339 95.1024 126.543 98.9195 127.8 102.867L127.836 102.983L127.724 103.019L115.175 106.818L115.066 106.851L115.027 106.744C114.227 104.584 113.395 102.288 112.566 99.9562C110.768 94.9063 109.062 89.9278 107.547 85.0858C106.792 82.6678 106.089 80.2765 105.528 77.8972C105.46 77.6001 105.381 77.303 105.321 77.006C105.262 76.7089 105.212 76.4119 105.159 76.1148C105.036 75.5209 104.978 74.9154 104.985 74.3088C104.986 73.1006 105.331 71.9181 105.98 70.9016C107.29 68.9084 109.493 67.738 111.677 67.435C112.759 67.2828 113.859 67.3301 114.924 67.5746L115.709 67.7736L116.462 67.9994L117.956 68.4479L128.963 71.7333L144.848 76.5218L149.164 77.8377L150.282 78.1853C150.536 78.2655 150.663 78.3101 150.663 78.3101C150.663 78.3101 150.53 78.2803 150.276 78.2091L149.149 77.8853L144.815 76.6258L128.904 71.9086L117.917 68.641L116.424 68.1984L115.668 67.9727L114.909 67.7825C113.866 67.5441 112.789 67.4998 111.73 67.6518C109.599 67.9489 107.45 69.1014 106.189 71.0263C105.565 72.008 105.234 73.1493 105.236 74.3147C105.229 74.9084 105.286 75.5011 105.407 76.0822C105.463 76.3792 105.516 76.6763 105.569 76.9733C105.623 77.2704 105.708 77.5674 105.776 77.8645C106.337 80.2409 107.04 82.6173 107.798 85.0323C109.304 89.8683 111.016 94.835 112.816 99.8849C113.646 102.214 114.478 104.513 115.275 106.67L115.125 106.595L127.676 102.802L127.597 102.953C126.351 99.0027 125.144 95.1826 123.989 91.5259L122.307 86.1314C122.038 85.2581 121.776 84.3937 121.513 83.5382L121.424 83.2144V83.1668C121.46 83.1371 121.336 83.2055 121.504 83.0272C121.722 83.1193 121.572 83.0599 121.625 83.0837L121.681 83.1312L121.79 83.2322L122.292 83.657L123.302 84.4828C125.994 86.6483 128.594 88.6118 131.074 90.3525C132.308 91.2259 133.524 92.0309 134.705 92.7735C135.295 93.1508 135.886 93.4835 136.458 93.828C137.031 94.1726 137.607 94.4726 138.188 94.7192C139.258 95.2638 140.414 95.6186 141.604 95.7678C142.656 95.9156 143.724 95.9066 144.774 95.7411C146.453 95.4784 148.06 94.8718 149.497 93.9587C150.403 93.4038 151.228 92.7261 151.95 91.9447C152.132 91.739 152.304 91.5239 152.464 91.3001C152.555 91.1813 152.614 91.0981 152.614 91.0981Z" fill="#455A64"/>
<path d="M115.854 77.6179C116.22 77.7581 116.567 77.9469 116.884 78.1794C117.677 78.6954 118.42 79.2851 119.104 79.9409C119.791 80.5955 120.407 81.3213 120.943 82.1064C121.181 82.4212 121.373 82.7682 121.515 83.1371C121.257 82.8441 121.019 82.5334 120.804 82.2074C120.235 81.4668 119.611 80.7716 118.935 80.128C118.259 79.4826 117.541 78.8822 116.786 78.3308C116.458 78.1171 116.146 77.8788 115.854 77.6179Z" fill="#263238"/>
<path d="M120.084 76.2278C120.275 76.5188 120.426 76.8346 120.532 77.1665C120.836 77.9475 121.078 78.7509 121.258 79.5696C121.441 80.3867 121.56 81.2171 121.613 82.053C121.66 82.3989 121.66 82.7497 121.613 83.0956C121.536 83.0956 121.456 81.5183 121.022 79.6231C120.588 77.7279 120.013 76.2575 120.084 76.2278Z" fill="#263238"/>
<path d="M110.741 62.2661C110.358 61.8397 109.833 61.5692 109.265 61.5057L102.859 60.4244L96.07 57.2014L93.4546 60.0828L99.8839 63.0118C100.203 63.2007 100.465 63.4737 100.641 63.8014C100.818 64.1291 100.902 64.499 100.885 64.8713C100.885 66.2674 101.006 68.3854 101.826 69.2379C104.061 71.5668 106.783 72.1223 108.025 71.7659C109.268 71.4094 112.32 69.3568 112.238 67.12C112.19 65.3377 111.78 63.4098 110.741 62.2661ZM109.855 67.6457C109.427 68.2925 108.817 68.7953 108.102 69.0894C107.03 69.5796 105.823 69.7667 104.731 69.3419C104.14 69.0954 103.623 68.6971 103.233 68.1867C102.843 67.6764 102.593 67.0719 102.508 66.4338C102.438 65.9599 102.487 65.476 102.65 65.0258C102.738 64.4317 103.14 63.7841 103.606 63.6088C104.092 63.4245 104.611 63.3435 105.129 63.3712C106.111 63.4426 107.087 63.5826 108.049 63.79C108.852 63.9772 109.726 64.3247 110.115 65.198C110.262 65.5994 110.313 66.0297 110.265 66.4545C110.218 66.8794 110.072 67.2873 109.841 67.6457H109.855Z" fill="#E8505B"/>
<path d="M114.053 43.9857C114.053 43.9857 111.718 41.137 110.6 40.6142C109.481 40.0914 104.654 40.0884 104.654 40.0884C104.654 40.0884 103.875 41.0033 104.991 41.5261C106.107 42.0489 107.822 41.8647 108.471 42.3371C109.121 42.8094 108.887 44.7907 110.496 45.7323C110.956 46.0093 111.466 46.1914 111.997 46.2679C112.528 46.3444 113.068 46.3138 113.587 46.1779L114.053 43.9857Z" fill="#FFBF9D"/>
<path d="M96.5511 50.9783C96.0522 50.9783 70.8428 59.3284 70.8428 59.3284L71.6398 60.2344C73.2899 62.1088 75.5954 62.8811 77.8034 62.293L94.2102 58.0214L95.8426 55.8767L95.757 55.0152L98.5997 53.6755L96.5511 50.9783Z" fill="#E0E0E0"/>
<path d="M96.5515 50.9784C96.5515 50.9784 96.5988 51.0319 96.6903 51.1477L97.0829 51.6735C97.4371 52.1369 97.9537 52.8082 98.6208 53.6697L98.6474 53.7053L98.6061 53.7231L95.7663 55.0747L95.7929 55.0272C95.8224 55.2886 95.8519 55.5827 95.8844 55.8857V55.9065V55.9213L94.2579 58.072V58.0868H94.2402L85.0538 60.493L79.6665 61.8861L78.2614 62.2515C77.786 62.3975 77.2976 62.497 76.8032 62.5485C75.7891 62.6313 74.7713 62.4449 73.8513 62.0079C73.2244 61.7161 72.6475 61.3261 72.1421 60.8524C71.6403 60.386 71.227 59.8662 70.796 59.3879L70.7163 59.2988L70.8285 59.2632C78.0814 56.866 84.5018 54.7658 89.1304 53.2776C91.4388 52.5349 93.2926 51.9468 94.5738 51.5517C95.2143 51.3527 95.7132 51.2071 96.0497 51.1091C96.215 51.0586 96.3449 51.0319 96.4394 51.0111L96.5693 50.9873L96.4364 51.0259C96.3508 51.0527 96.2239 51.0824 96.0556 51.1388L94.5797 51.6052L89.1511 53.3875L70.8669 59.3968L70.8993 59.2721C71.3333 59.7533 71.7495 60.2761 72.2366 60.7276C72.7304 61.1908 73.2944 61.5718 73.9073 61.8564C74.8074 62.2829 75.8026 62.4652 76.7943 62.3852C77.2789 62.3339 77.758 62.2395 78.226 62.103L79.6311 61.7376L85.0007 60.3415L94.1959 57.965L94.1664 57.9858L95.8047 55.8441V55.8768C95.7752 55.5797 95.7486 55.2827 95.7221 55.0183V54.9856H95.7516L98.6002 53.6578V53.7113L97.0829 51.6913L96.6932 51.1626L96.5515 50.9784Z" fill="#263238"/>
<path d="M133.887 38.8675C133.887 38.8675 129.822 37.9169 128.278 39.5656C126.735 41.2142 121.654 54.1627 121.654 54.1627L114.056 43.9857L110.957 48.9435C110.957 48.9435 116.019 59.7561 118.153 62.284C119.021 63.3235 120.168 64.0886 121.457 64.4875C122.747 64.8865 124.123 64.9022 125.421 64.5327C126.921 64.0872 128.895 60.2255 128.895 60.2255L133.887 38.8675Z" fill="#FFBF9D"/>
<path d="M108.905 41.8053C107.697 41.3122 104.946 41.5558 102.54 43.6233C101.655 44.3778 101.289 46.3859 101.191 47.782C101.185 48.1334 101.076 48.4751 100.878 48.7642C100.679 49.0533 100.4 49.2769 100.076 49.4069L93.2861 52.012L96.5126 54.6647L102.88 52.1665H109.342C109.904 52.166 110.446 51.9541 110.862 51.5724C111.984 50.5506 112.542 48.6821 112.742 46.9117C112.996 44.6927 110.112 42.2985 108.905 41.8053ZM110.443 48.5752C109.994 49.398 109.097 49.6475 108.285 49.7426C107.304 49.8415 106.318 49.8703 105.333 49.8287C104.811 49.7987 104.302 49.6601 103.836 49.4218C103.385 49.193 103.036 48.492 102.995 47.9038C102.868 47.4415 102.856 46.9546 102.963 46.4869C103.093 45.8657 103.388 45.2917 103.817 44.8261C104.246 44.3606 104.792 44.0208 105.398 43.8431C106.52 43.5461 107.706 43.8669 108.737 44.4758C109.427 44.8506 109.994 45.4193 110.369 46.1126C110.57 46.4894 110.681 46.9079 110.693 47.3352C110.706 47.7624 110.62 48.1869 110.443 48.5752Z" fill="#E8505B"/>
<path d="M150.937 68.6262L150.279 63.7991L152.009 47.4613C153.272 37.712 143.383 35.9089 143.383 35.9089C143.065 36.4199 133.76 41.8886 132.597 36.8892C132.036 37.0704 128.311 38.3091 126.797 39.7201C125.152 41.247 121.064 51.9141 121.064 51.9141L124.202 55.9272C125.368 60.3058 128.14 67.3518 128.14 67.3518L125.672 69.7045C136.96 78.6903 146.412 75.6455 150.067 73.8632C150.514 73.6472 150.905 73.3303 151.21 72.9372C151.516 72.5442 151.727 72.0855 151.828 71.5969C151.928 71.1083 151.915 70.603 151.79 70.1202C151.665 69.6374 151.431 69.1902 151.106 68.8133C151.053 68.748 150.997 68.6856 150.937 68.6262Z" fill="#3B62DA"/>
<path d="M150.938 68.6261C151.083 68.7629 151.215 68.9142 151.33 69.0777C151.671 69.5557 151.869 70.1212 151.903 70.7085C151.933 71.1381 151.877 71.5695 151.738 71.9769C151.574 72.4676 151.295 72.9116 150.926 73.272C150.826 73.3728 150.719 73.4652 150.604 73.5483L150.427 73.679L150.235 73.7889C149.975 73.9434 149.692 74.0533 149.409 74.1929C149.125 74.3325 148.818 74.4365 148.505 74.5672C148.192 74.6979 147.862 74.7929 147.528 74.9118C144.263 75.9466 140.793 76.1507 137.43 75.5059C135.377 75.0816 133.385 74.4052 131.496 73.4918L130.006 72.7136C129.753 72.5806 129.508 72.4349 129.271 72.2769L128.536 71.8165L127.783 71.3442C127.541 71.1808 127.308 70.9996 127.065 70.8243L125.616 69.7549L125.554 69.7074L125.613 69.6539L128.078 67.2983L128.063 67.3755C127.375 65.614 126.688 63.7753 126.015 61.8712C125.342 59.9671 124.677 57.9917 124.119 55.9301V55.9569L120.993 51.9704L120.967 51.9378L120.982 51.8962C121.962 49.3831 123.03 46.7572 124.229 44.1313C124.648 43.2401 125.073 42.3489 125.539 41.4578C125.774 41.0231 126.03 40.6008 126.307 40.1923C126.373 40.0861 126.449 39.9866 126.534 39.8953C126.612 39.7983 126.696 39.7061 126.785 39.619L127.08 39.3814L127.375 39.1675C128.182 38.6365 129.037 38.1839 129.929 37.8159C130.803 37.4397 131.688 37.105 132.586 36.8119L132.662 36.7881L132.683 36.8683C132.793 37.3905 133.057 37.8674 133.439 38.2377C133.841 38.5762 134.332 38.7898 134.853 38.8526C135.894 38.9502 136.944 38.8299 137.937 38.4991C138.919 38.2055 139.875 37.831 140.795 37.3793C141.249 37.1565 141.68 36.9248 142.129 36.6782C142.345 36.5535 142.56 36.4257 142.767 36.2921C142.971 36.1716 143.162 36.0292 143.336 35.8673L143.375 35.8257H143.407C145.15 36.2184 146.795 36.961 148.246 38.009C149.622 38.9882 150.711 40.3221 151.398 41.8707C151.711 42.6108 151.931 43.3871 152.054 44.1818C152.157 44.9474 152.188 45.7213 152.145 46.4928C152.015 48.0018 151.85 49.4307 151.699 50.806C151.109 56.2896 150.631 60.7275 150.297 63.808C150.504 65.3586 150.663 66.5646 150.769 67.3726C150.823 67.7825 150.864 68.0944 150.89 68.3083C150.917 68.5222 150.926 68.6261 150.926 68.6261C150.926 68.6261 150.908 68.5222 150.876 68.3142C150.843 68.1063 150.802 67.7914 150.743 67.3874C150.628 66.5646 150.448 65.3586 150.238 63.805C150.56 60.7246 151.02 56.2836 151.59 50.7971C151.729 49.4247 151.9 47.984 152.027 46.4898C152.069 45.7261 152.037 44.9601 151.933 44.2025C151.811 43.4185 151.592 42.653 151.28 41.9242C150.597 40.3954 149.517 39.0799 148.154 38.116C146.714 37.0888 145.084 36.3635 143.36 35.9831L143.431 35.9504C143.345 36.0504 143.245 36.1384 143.136 36.2119C143.032 36.2831 142.929 36.3544 142.823 36.4228C142.613 36.5594 142.398 36.6842 142.179 36.8119C141.742 37.0614 141.295 37.2971 140.836 37.5189C139.909 37.9738 138.946 38.3523 137.958 38.6506C136.944 38.9897 135.872 39.1121 134.808 39.0101C134.259 38.944 133.741 38.7179 133.318 38.3595C132.912 37.9693 132.632 37.4652 132.515 36.9129L132.612 36.9664C131.727 37.2634 130.841 37.5902 129.973 37.9645C129.092 38.3292 128.247 38.7767 127.449 39.3012C126.611 39.8032 126.156 40.6884 125.678 41.538C125.2 42.3876 124.792 43.2936 124.37 44.1936C123.19 46.8136 122.109 49.4396 121.123 51.9497V51.8754L124.261 55.8856V55.9004C124.816 57.9442 125.48 59.9136 126.15 61.8177C126.82 63.7218 127.505 65.5606 128.19 67.3191L128.205 67.3637L128.172 67.3963L125.716 69.752V69.648L127.157 70.7144C127.396 70.8897 127.629 71.0709 127.871 71.2343L128.609 71.7006L129.338 72.1581C129.583 72.3066 129.817 72.473 130.071 72.5947L131.547 73.373C133.426 74.2846 135.408 74.9619 137.45 75.39C140.795 76.0449 144.249 75.8571 147.505 74.8434C147.838 74.7276 148.163 74.6206 148.479 74.5048C148.795 74.3889 149.09 74.2612 149.379 74.1364C149.668 74.0117 149.949 73.8899 150.203 73.7414L150.392 73.6344L150.566 73.5067C150.679 73.4263 150.785 73.3359 150.882 73.2364C151.248 72.8844 151.525 72.4496 151.69 71.968C151.827 71.5671 151.885 71.1434 151.862 70.7204C151.832 70.1389 151.642 69.5773 151.313 69.0984C151.192 68.944 151.112 68.8192 151.038 68.7479L150.938 68.6261Z" fill="#263238"/>
<path d="M128.713 41.6212C128.625 41.81 128.526 41.9935 128.417 42.1708C128.214 42.5213 127.942 43.0411 127.644 43.7006C127.346 44.36 127.027 45.165 126.699 46.077C126.372 46.9889 126.032 47.9781 125.64 49.0148C125.247 50.0515 124.893 51.0437 124.642 51.9675C124.409 52.7816 124.26 53.6178 124.199 54.4628C124.16 55.0329 124.191 55.6057 124.294 56.1678C124.37 56.5629 124.438 56.7798 124.423 56.7827C124.396 56.7357 124.376 56.6846 124.364 56.6312C124.311 56.484 124.267 56.3331 124.235 56.1797C124.109 55.6157 124.062 55.0369 124.093 54.4598C124.136 53.6043 124.275 52.7563 124.506 51.9319C124.786 50.9252 125.117 49.9337 125.498 48.9614L126.567 46.0265C126.903 45.1353 127.231 44.3244 127.547 43.6679C127.789 43.1471 128.062 42.6412 128.364 42.1529C128.471 41.9777 128.565 41.8559 128.624 41.7638C128.648 41.713 128.678 41.6652 128.713 41.6212Z" fill="#263238"/>
<path d="M116.907 64.0991C116.907 64.0991 113.07 62.1415 112.11 61.4583C111.41 60.9924 110.606 60.7096 109.77 60.6354C109.598 60.6354 107.06 60.4364 106.552 61.2622L109.262 62.6227C109.262 62.6227 107.709 63.1633 107.426 63.0772C107.142 62.9911 104.577 62.1682 104.155 62.5395C103.733 62.9108 103.42 63.3624 103.86 63.8733C104.3 64.3842 105.663 64.6397 105.663 64.6397C105.663 64.6397 105.805 66.2022 106.844 66.6834C106.735 66.8965 106.709 67.143 106.771 67.3745C106.833 67.606 106.98 67.8056 107.181 67.934C107.181 67.934 108.509 69.5529 109.185 69.948C109.861 70.3431 109.607 70.147 111.16 69.948C112.713 69.749 114.112 68.7004 115.11 68.7865C116.107 68.8727 116.907 64.0991 116.907 64.0991Z" fill="#FFBF9D"/>
<path d="M103.733 44.9333C103.733 44.9333 103.668 46.4185 104.267 46.6651C104.867 46.9116 105.274 46.5314 105.649 45.8422C105.649 45.8422 105.838 46.7958 107.125 46.677C107.125 46.677 107.624 48.0107 108.379 47.5533C108.379 47.5533 108.757 49.4009 109.979 47.8087C111.201 46.2165 111.349 44.4728 111.119 44.2233C110.889 43.9738 110.785 43.9827 110.785 43.9827C110.785 43.9827 111.429 42.8688 110.962 42.3341C110.496 41.7994 109.714 42.6578 109.714 42.6578C109.714 42.6578 109.979 41.8558 109.531 41.5885C109.082 41.3211 108.551 41.5528 108.117 42.1083C107.526 42.8598 107.184 43.3322 107.184 43.3322C107.184 43.3322 107.65 42.2657 106.936 42.1172C106.095 41.942 103.733 44.9333 103.733 44.9333Z" fill="#FFBF9D"/>
<path d="M103.733 44.9334C103.748 44.9011 103.768 44.8712 103.792 44.8443L103.978 44.6037C104.146 44.3928 104.394 44.0898 104.73 43.7125C105.133 43.2531 105.573 42.8288 106.047 42.4441C106.194 42.3294 106.352 42.2299 106.519 42.147C106.612 42.1018 106.712 42.0717 106.814 42.0579C106.924 42.0485 107.033 42.0734 107.127 42.1292C107.223 42.1896 107.299 42.2762 107.347 42.3789C107.395 42.4815 107.413 42.5959 107.399 42.7085C107.385 42.9313 107.335 43.1503 107.248 43.356L107.139 43.2937C107.334 43.0352 107.538 42.7709 107.744 42.4946C107.944 42.1929 108.181 41.9183 108.45 41.6777C108.601 41.5535 108.779 41.467 108.969 41.4252C109.171 41.3834 109.381 41.4172 109.56 41.5203C109.654 41.5772 109.731 41.6595 109.781 41.7579C109.826 41.8511 109.853 41.9518 109.861 42.055C109.872 42.2629 109.846 42.4712 109.784 42.6699L109.657 42.5956C109.839 42.395 110.061 42.236 110.31 42.1292C110.446 42.0708 110.597 42.0583 110.74 42.0936C110.886 42.1395 111.01 42.2379 111.089 42.3698C111.22 42.6333 111.245 42.9376 111.16 43.2194C111.092 43.4966 110.988 43.7634 110.85 44.0125L110.776 43.8967C110.845 43.9001 110.911 43.925 110.965 43.968C111.011 44.0006 111.055 44.0374 111.095 44.0779L111.174 44.1581C111.203 44.1943 111.225 44.2356 111.239 44.2799C111.261 44.3544 111.275 44.4311 111.281 44.5086C111.289 44.6553 111.284 44.8025 111.266 44.9482C111.233 45.2329 111.176 45.5142 111.095 45.7889C110.935 46.3176 110.706 46.8229 110.416 47.292C110.277 47.5194 110.122 47.7368 109.952 47.9425C109.792 48.1572 109.585 48.332 109.347 48.4534C109.218 48.5127 109.072 48.5253 108.934 48.4891C108.805 48.4409 108.693 48.3551 108.612 48.2425C108.466 48.0377 108.366 47.8037 108.317 47.5563L108.417 47.6009C108.272 47.6915 108.097 47.7214 107.93 47.6841C107.774 47.6423 107.634 47.5556 107.526 47.4346C107.329 47.2154 107.174 46.9617 107.068 46.686L107.133 46.7276C106.799 46.768 106.46 46.7092 106.159 46.5583C106.022 46.4835 105.903 46.3815 105.807 46.2584C105.711 46.1353 105.641 45.9937 105.601 45.8424L105.696 45.8572C105.568 46.1063 105.402 46.333 105.203 46.5285C105.112 46.6193 105.002 46.6877 104.88 46.7284C104.759 46.7691 104.63 46.781 104.503 46.7632C104.39 46.7481 104.281 46.7085 104.184 46.6474C104.094 46.5895 104.018 46.5099 103.966 46.4157C103.879 46.2574 103.819 46.0857 103.789 45.9077C103.742 45.6671 103.719 45.4222 103.721 45.177C103.721 45.0908 103.721 45.0284 103.721 44.9869C103.721 44.9453 103.721 44.9215 103.721 44.9215C103.73 45.0053 103.735 45.0896 103.736 45.174C103.747 45.4169 103.778 45.6583 103.83 45.8958C103.864 46.0659 103.925 46.2294 104.01 46.38C104.063 46.4648 104.135 46.536 104.22 46.5876C104.305 46.6392 104.401 46.6698 104.5 46.6771C104.614 46.6915 104.731 46.6788 104.839 46.6402C104.948 46.6015 105.046 46.5378 105.126 46.4543C105.314 46.2637 105.47 46.0441 105.589 45.8037L105.654 45.6879L105.687 45.8186C105.725 45.954 105.791 46.0801 105.879 46.1893C105.967 46.2986 106.077 46.3887 106.2 46.4543C106.483 46.5999 106.803 46.6588 107.118 46.6236H107.163L107.18 46.6682C107.281 46.9263 107.43 47.1631 107.617 47.3662C107.708 47.4682 107.826 47.5415 107.957 47.5771C108.09 47.6049 108.228 47.5804 108.344 47.5088L108.423 47.4643L108.447 47.5534C108.494 47.7791 108.588 47.9925 108.721 48.1802C108.786 48.2691 108.876 48.3372 108.978 48.3762C109.029 48.3881 109.081 48.3881 109.132 48.3762C109.187 48.374 109.242 48.3598 109.291 48.3346C109.507 48.2197 109.695 48.0573 109.84 47.8593C110.004 47.6588 110.154 47.4474 110.289 47.2266C110.571 46.7673 110.792 46.273 110.947 45.7562C111.027 45.4914 111.083 45.2201 111.115 44.9453C111.127 44.8079 111.127 44.6697 111.115 44.5324C111.111 44.468 111.1 44.4043 111.083 44.3423C111.074 44.3184 111.064 44.2955 111.05 44.2739L110.977 44.1997C110.941 44.167 110.903 44.1343 110.867 44.1076C110.839 44.0891 110.81 44.0731 110.779 44.0601L110.705 43.9442C110.836 43.7091 110.936 43.4574 111 43.1956C111.075 42.9548 111.059 42.6947 110.956 42.4649C110.898 42.3646 110.806 42.2894 110.696 42.254C110.583 42.2281 110.465 42.2396 110.36 42.2867C110.135 42.3846 109.934 42.5294 109.769 42.7114L109.557 42.9283L109.645 42.6312C109.702 42.452 109.726 42.2637 109.716 42.0758C109.718 41.9904 109.698 41.9061 109.658 41.8308C109.618 41.7554 109.56 41.6915 109.489 41.645C109.335 41.5666 109.16 41.5379 108.989 41.5628C108.818 41.5878 108.658 41.6653 108.532 41.7846C108.273 42.0176 108.043 42.282 107.848 42.5718L107.234 43.356L106.938 43.7303L107.118 43.2937C107.2 43.1053 107.249 42.9044 107.263 42.6996C107.278 42.6087 107.267 42.5154 107.23 42.431C107.193 42.3467 107.133 42.2748 107.056 42.2243C106.98 42.1814 106.893 42.1588 106.806 42.1588C106.718 42.1588 106.631 42.1814 106.555 42.2243C106.395 42.3025 106.242 42.396 106.1 42.5035C105.626 42.8804 105.183 43.2946 104.775 43.7422C104.432 44.1076 104.184 44.4046 103.998 44.6066C103.916 44.7017 103.848 44.7759 103.798 44.8383C103.779 44.8718 103.757 44.9036 103.733 44.9334Z" fill="#FF9A6C"/>
<path d="M107.184 43.4303C107.02 43.8666 106.811 44.2847 106.561 44.6779C106.348 45.0996 106.045 45.4695 105.676 45.7621C105.643 45.7324 106.045 45.2631 106.425 44.5977C106.806 43.9323 107.143 43.4036 107.184 43.4303Z" fill="#FF9A6C"/>
<path d="M109.752 42.5034C109.705 42.7394 109.622 42.9667 109.507 43.1777C109.264 43.6995 108.992 44.2073 108.692 44.6986C108.421 45.2091 108.109 45.6969 107.759 46.1571C107.612 46.3561 107.405 46.5019 107.169 46.573C107.353 46.4289 107.521 46.2656 107.671 46.0859C107.939 45.7502 108.205 45.1947 108.556 44.6214C108.908 44.0481 109.206 43.5193 109.407 43.1361C109.507 42.9173 109.622 42.7059 109.752 42.5034Z" fill="#FF9A6C"/>
<path d="M110.956 43.5579C110.924 43.7836 110.857 44.003 110.759 44.2084C110.349 45.2309 109.747 46.1647 108.987 46.9591C108.841 47.1334 108.67 47.2855 108.48 47.4106C108.444 47.375 109.188 46.6561 109.867 45.5838C110.546 44.5114 110.9 43.54 110.956 43.5579Z" fill="#FF9A6C"/>
<path d="M92.3742 55.7073C92.3748 55.9812 92.2946 56.2492 92.1439 56.4772C91.9931 56.7052 91.7784 56.8831 91.5271 56.9884C91.2758 57.0936 90.9991 57.1214 90.7321 57.0683C90.4651 57.0153 90.2197 56.8837 90.027 56.6902C89.8343 56.4967 89.703 56.2501 89.6497 55.9815C89.5964 55.7129 89.6234 55.4344 89.7275 55.1813C89.8315 54.9282 90.0078 54.7118 90.2341 54.5595C90.4604 54.4073 90.7265 54.3261 90.9986 54.326C91.363 54.326 91.7124 54.4715 91.9703 54.7304C92.2282 54.9894 92.3735 55.3407 92.3742 55.7073Z" fill="#E0E0E0"/>
<path d="M92.3742 55.7074C92.3594 55.7074 92.3594 55.5856 92.3004 55.3777C92.2179 55.0866 92.0413 54.8316 91.7986 54.6529C91.6041 54.5068 91.3732 54.4181 91.1315 54.3966C90.8899 54.3751 90.647 54.4216 90.4302 54.531C90.2133 54.6405 90.0309 54.8084 89.9035 55.0162C89.7761 55.2239 89.7086 55.4633 89.7086 55.7074C89.7086 55.9515 89.7761 56.1908 89.9035 56.3986C90.0309 56.6063 90.2133 56.7743 90.4302 56.8837C90.647 56.9932 90.8899 57.0397 91.1315 57.0182C91.3732 56.9967 91.6041 56.908 91.7986 56.7619C92.0413 56.5832 92.2179 56.3282 92.3004 56.0371C92.3594 55.8292 92.3594 55.7074 92.3742 55.7074C92.3799 55.7368 92.3799 55.7671 92.3742 55.7965C92.3775 55.8823 92.3695 55.9682 92.3506 56.052C92.2839 56.3688 92.1083 56.6517 91.8546 56.851C91.6652 57.0002 91.4415 57.0988 91.2041 57.1377C90.9667 57.1767 90.7234 57.1547 90.4968 57.0738C90.2174 56.9724 89.9759 56.7868 89.8052 56.5423C89.6346 56.2978 89.543 56.0062 89.543 55.7074C89.543 55.4086 89.6346 55.117 89.8052 54.8725C89.9759 54.6279 90.2174 54.4423 90.4968 54.3409C90.7234 54.2601 90.9667 54.2381 91.2041 54.277C91.4415 54.316 91.6652 54.4146 91.8546 54.5637C92.1073 54.7639 92.2827 55.0465 92.3506 55.3628C92.3695 55.4466 92.3775 55.5324 92.3742 55.6183C92.3799 55.6477 92.3799 55.678 92.3742 55.7074Z" fill="#263238"/>
<path d="M91.8869 56.2242C91.2056 56.0525 90.6033 55.651 90.1807 55.0865C90.2102 55.0568 90.5526 55.3627 91.022 55.6806C91.3199 55.8458 91.6087 56.0272 91.8869 56.2242Z" fill="#263238"/>
<path d="M91.61 54.843C91.6395 54.8787 91.3 55.1995 90.996 55.6807C90.6919 56.1619 90.5325 56.5986 90.4912 56.5719C90.5207 56.2131 90.6507 55.8701 90.8661 55.5827C91.042 55.2721 91.2993 55.0163 91.61 54.843Z" fill="#263238"/>
<path d="M124.349 61.2562C124.322 61.2562 124.257 60.8285 124.104 60.1453C123.711 58.3591 123.041 56.646 122.12 55.0686C121.766 54.4745 121.53 54.1032 121.545 54.0884C121.619 54.1578 121.685 54.2367 121.739 54.323C121.86 54.4775 122.035 54.7122 122.212 55.0122C123.193 56.573 123.871 58.3067 124.21 60.1215C124.275 60.4691 124.316 60.7542 124.334 60.9503C124.35 61.0514 124.355 61.154 124.349 61.2562Z" fill="#FF9A6C"/>
<path d="M115.311 63.3653L133.887 63.698C133.887 63.698 139.59 44.4223 141.562 41.6686C143.369 39.1318 144.184 39.3635 146.961 39.1734C149.739 38.9833 151.906 42.441 151.475 45.7353C151.044 49.0296 141.335 67.2269 139.714 69.6241C138.094 72.0213 137.914 72.2768 135.918 72.4847C133.923 72.6927 114.168 68.9469 114.168 68.9469L115.311 63.3653Z" fill="#FFBF9D"/>
<path d="M135.685 53.6845L147.519 58.5056C147.519 58.5056 152.151 47.2504 152.121 44.5888C152.092 41.9272 150.268 38.8765 148.119 38.1873C145.97 37.4982 142.855 38.4457 141.468 40.8043C140.08 43.1629 135.685 53.6845 135.685 53.6845Z" fill="#3B62DA"/>
<path d="M135.685 53.6844C135.685 53.6844 135.7 53.6369 135.735 53.5448C135.771 53.4527 135.83 53.3131 135.898 53.1408L136.535 51.5962C137.093 50.2594 137.911 48.3286 138.956 45.9522C139.481 44.764 140.057 43.4688 140.727 42.0905C141.047 41.3648 141.451 40.679 141.928 40.0468C142.475 39.4002 143.154 38.8795 143.918 38.52C144.312 38.3303 144.724 38.183 145.149 38.0803C145.581 37.9687 146.025 37.9059 146.471 37.8932C147.403 37.8351 148.329 38.0787 149.113 38.5883C149.51 38.8502 149.869 39.1649 150.182 39.524C150.505 39.883 150.791 40.273 151.038 40.6884C151.288 41.1098 151.503 41.5509 151.682 42.0074C151.859 42.4705 151.994 42.9487 152.086 43.4362C152.152 43.7991 152.191 44.1665 152.201 44.5353C152.201 44.7194 152.175 44.9066 152.163 45.0878C152.142 45.2684 152.113 45.4478 152.074 45.6254C151.941 46.3384 151.744 47.0245 151.549 47.7048C151.147 49.0564 150.702 50.3545 150.253 51.6051C149.352 54.1092 148.44 56.4322 147.596 58.5264L147.572 58.5858L147.513 58.562L138.914 55.0241L136.515 54.0498L135.892 53.7914L135.685 53.6993L135.912 53.7825L136.55 54.035L138.956 54.9974C141.022 55.8321 143.974 57.0203 147.543 58.458L147.46 58.4907C148.308 56.4114 149.214 54.0736 150.117 51.5694C150.563 50.3188 151.003 49.0237 151.407 47.6781C151.602 47.0038 151.797 46.3205 151.927 45.6195C151.953 45.4442 152 45.269 152.015 45.0907C152.03 44.9125 152.048 44.7373 152.051 44.559C152.039 44.1993 152.002 43.8408 151.938 43.4867C151.848 43.0072 151.715 42.5369 151.54 42.0816C151.365 41.6341 151.154 41.2018 150.908 40.7894C150.669 40.3817 150.389 39.9995 150.073 39.6488C149.767 39.2996 149.418 38.992 149.034 38.7339C148.275 38.2425 147.381 38.0063 146.48 38.0595C145.615 38.0889 144.765 38.2972 143.983 38.6715C143.235 39.0193 142.57 39.526 142.035 40.1567C141.566 40.7806 141.17 41.4563 140.854 42.1707C140.187 43.5372 139.602 44.8442 139.083 46.0146C138.026 48.391 137.196 50.307 136.621 51.6378L135.927 53.1587C135.85 53.328 135.791 53.4557 135.75 53.5567C135.709 53.6577 135.685 53.6844 135.685 53.6844Z" fill="#3B62DA"/>
<path d="M136.007 66.9507C135.946 66.8839 135.891 66.8113 135.844 66.7339L135.407 66.0952L133.837 63.7188L133.887 63.7456C131.956 63.7456 129.394 63.7307 126.593 63.6743L118.705 63.5109L116.314 63.4663L115.665 63.4485C115.589 63.4499 115.513 63.4449 115.438 63.4337C115.513 63.4205 115.589 63.4156 115.665 63.4188H116.314C116.881 63.4188 117.696 63.4188 118.705 63.4188C120.727 63.4188 123.514 63.4782 126.596 63.5376C129.397 63.5941 131.959 63.6357 133.887 63.6475H133.92V63.6743L135.449 66.0655L135.856 66.722C135.912 66.7945 135.962 66.8709 136.007 66.9507Z" fill="#FF9A6C"/>
<path d="M139.717 72.0215C139.863 72.0152 140.009 72.0202 140.154 72.0363C140.293 72.0363 140.449 72.0601 140.665 72.0601C140.88 72.0601 141.09 72.0779 141.341 72.0601C141.926 72.0511 142.511 72.0065 143.091 71.9264C144.514 71.7306 145.898 71.3116 147.192 70.6847C147.72 70.4269 148.231 70.1362 148.724 69.8144C148.936 69.6837 149.116 69.547 149.282 69.4312C149.447 69.3153 149.577 69.2143 149.692 69.1341C149.802 69.0381 149.92 68.9525 150.046 68.8787C149.951 68.988 149.845 69.0875 149.73 69.1757C149.624 69.2708 149.494 69.3836 149.332 69.5054C149.169 69.6272 148.995 69.7728 148.783 69.9094C148.296 70.2431 147.786 70.5409 147.256 70.8006C146.604 71.1223 145.928 71.3934 145.234 71.6115C144.54 71.8198 143.83 71.9728 143.112 72.069C142.525 72.1465 141.933 72.1813 141.341 72.173C141.087 72.173 140.86 72.1551 140.659 72.1433C140.488 72.1354 140.318 72.1186 140.148 72.0928C140.002 72.085 139.858 72.0611 139.717 72.0215Z" fill="#263238"/>
</svg>
