<svg width="263" height="121" viewBox="0 0 263 121" fill="none" xmlns="http://www.w3.org/2000/svg">
<path d="M42.3979 65.5263C35.7521 58.7303 25.3425 55.8722 16.1582 58.3296C23.9902 63.6626 33.231 66.5487 42.7071 66.6214" fill="#E8505B"/>
<path d="M33.4964 34.0227C34.592 26.2918 31.5878 17.6145 25.7971 11.9785C25.6062 19.6407 28.8508 28.2607 33.4964 34.0227Z" fill="#E8505B"/>
<path d="M38.1264 48.6221C33.9398 40.6823 27.2781 34.3231 19.1509 30.5083C21.5672 39.4069 29.1826 46.6875 38.1836 48.7061" fill="#E8505B"/>
<path d="M39.0847 51.4573C34.4162 51.587 29.6866 51.4229 25.1708 50.2286C20.655 49.0342 16.3301 46.7371 13.3374 43.1616C22.4752 43.1936 31.4011 45.9156 39.0007 50.9879" fill="#E8505B"/>
<path d="M36.7104 42.1619C39.081 33.2786 42.9936 27.135 49.9753 22.1592C50.5101 26.5262 49.4677 30.9407 47.0359 34.6078C44.6041 38.2748 40.9425 40.9536 36.7104 42.1619Z" fill="#E8505B"/>
<path d="M54.342 57.4787C54.3593 54.8879 53.6102 52.3497 52.1886 50.1832C50.7671 48.0168 48.7367 46.3187 46.3525 45.3024C46.7343 49.8814 50.3454 55.193 54.342 57.4787Z" fill="#E8505B"/>
<path d="M56.5601 49.9882C57.0907 42.5702 62.3623 35.7054 69.3974 33.2786C67.798 40.7004 63.5074 46.8783 56.5601 49.9882Z" fill="#E8505B"/>
<path d="M53.2119 63.2864C54.8571 60.932 57.5445 59.4705 60.3272 58.7379C63.11 58.0052 66.0149 57.948 68.8893 57.887C66.9305 60.0125 64.5342 61.6886 61.8654 62.7998C59.1966 63.9111 56.3186 64.4312 53.4295 64.3243" fill="#E8505B"/>
<path d="M49.8721 82.2091C55.1132 80.5931 60.7699 80.9987 65.7267 83.3459C70.6835 85.6931 74.5808 89.8115 76.65 94.8892C66.9237 93.05 57.3233 88.7266 49.8721 82.2091Z" fill="#E8505B"/>
<path d="M39.1989 75.6306C40.8136 80.4042 40.5044 86.1776 36.9085 90.2911C36.1931 87.8289 36.0274 85.2396 36.4231 82.7063C36.8189 80.173 37.7665 77.7575 39.1989 75.6306Z" fill="#E8505B"/>
<path d="M32.8926 72.9786C32.6307 76.056 31.5798 79.014 29.8413 81.5672C28.1029 84.1204 25.7356 86.1827 22.9678 87.5552C22.839 87.6377 22.6946 87.6928 22.5435 87.7171C22.3925 87.7414 22.2381 87.7343 22.0899 87.6964C21.6509 87.5208 21.6127 86.9332 21.6662 86.4524C22.3685 80.347 26.9034 74.421 32.8926 72.9786Z" fill="#E8505B"/>
<path d="M28.7666 72.3568C27.3955 73.8371 25.7349 75.0201 23.8877 75.8325C22.0405 76.645 20.046 77.0696 18.0279 77.0799C16.0098 77.0903 14.0111 76.6863 12.1557 75.8929C10.3002 75.0994 8.62748 73.9336 7.24121 72.4674C14.0817 71.7043 21.9796 71.2197 28.7666 72.3568Z" fill="#E8505B"/>
<path d="M27.7437 17.6755C27.7583 17.7446 27.7787 17.8122 27.8047 17.8778C27.8582 18.019 27.9269 18.2098 28.0147 18.454C28.2094 18.9729 28.4842 19.717 28.8392 20.671C29.1942 21.6249 29.6332 22.8079 30.1256 24.1816L30.9158 26.3757C31.1868 27.1388 31.4731 27.986 31.7708 28.8522C32.9847 32.3169 34.3284 36.4838 35.7828 41.101C37.2371 45.7182 38.7106 50.8581 40.184 56.2576C41.6575 61.657 42.9286 66.8427 44.0242 71.5706C45.1197 76.2984 46.0091 80.576 46.6695 84.1857C46.84 85.0863 47.0016 85.9436 47.1543 86.7576C47.2955 87.5704 47.4253 88.3412 47.536 89.0471C47.7842 90.4819 47.9941 91.7182 48.1392 92.7371C48.2842 93.7559 48.414 94.5267 48.498 95.0724C48.54 95.328 48.5743 95.5303 48.5972 95.6791C48.6056 95.7488 48.6196 95.8177 48.6392 95.8851C48.6452 95.8153 48.6452 95.7451 48.6392 95.6753C48.6201 95.5265 48.5972 95.3242 48.5629 95.0647C48.4903 94.5153 48.3873 93.7292 48.2537 92.7218C48.1201 91.7144 47.9292 90.4628 47.6964 89.0242C47.578 88.3031 47.4559 87.5322 47.3146 86.7157C47.1734 85.8991 47.0131 85.0443 46.8489 84.14C46.2076 80.5225 45.322 76.245 44.257 71.5057C43.192 66.7664 41.8865 61.5845 40.4398 56.1774C38.9931 50.7704 37.4585 45.6533 36.0156 41.0171C34.5727 36.3808 33.187 32.2406 31.9502 28.7797C31.6449 27.9147 31.3535 27.0918 31.0761 26.3108L30.2668 24.1205C29.7592 22.7506 29.3202 21.5753 28.9384 20.6214C28.5567 19.6674 28.2704 18.9386 28.0681 18.4234L27.8353 17.8549C27.8088 17.7931 27.7782 17.7332 27.7437 17.6755Z" fill="#263238"/>
<path d="M65.3394 37.2433C65.296 37.2757 65.2563 37.3128 65.2211 37.3539L64.8928 37.6974C64.6065 38.0026 64.1942 38.4605 63.6789 39.0558C62.2108 40.7499 60.8638 42.5453 59.6479 44.4285C57.8373 47.2225 56.4241 50.2546 55.4489 53.4377C54.3038 57.0208 53.6167 61.1 52.9219 65.3584C51.5286 73.8869 49.8223 81.5262 48.5855 87.0515C47.9633 89.8028 47.4404 92.0312 47.1045 93.5957C46.9365 94.3589 46.8029 94.9503 46.7227 95.3739C46.6807 95.5685 46.6502 95.7211 46.6235 95.8394C46.6106 95.892 46.6029 95.9457 46.6006 95.9997C46.6227 95.9495 46.6393 95.897 46.6502 95.8433C46.6807 95.7288 46.7227 95.5761 46.7724 95.3853C46.8792 94.9656 47.0243 94.3741 47.2152 93.6186C47.5969 92.0617 48.1198 89.8371 48.7764 87.0935C50.059 81.5796 51.7958 73.9403 53.1891 65.4004C53.8877 61.1419 54.5786 57.0781 55.6894 53.5064C56.6547 50.3397 58.0468 47.3191 59.8273 44.5277C61.0247 42.6423 62.3445 40.8373 63.7782 39.1245C64.282 38.514 64.6828 38.0484 64.9577 37.7317C65.0836 37.5829 65.1867 37.4646 65.2631 37.3692C65.292 37.3295 65.3176 37.2873 65.3394 37.2433Z" fill="#263238"/>
<path d="M26.7241 72.0628C26.8028 72.0904 26.8851 72.1058 26.9684 72.1086L27.6784 72.185L28.1899 72.2384L28.7931 72.3261C29.2282 72.391 29.7245 72.4559 30.2627 72.5742L31.1139 72.7459L32.0224 72.9748C32.6561 73.116 33.3089 73.3564 34.0074 73.5587C35.501 74.0761 36.95 74.7142 38.34 75.4666C39.7201 76.2386 41.0216 77.1434 42.2259 78.1682C42.7475 78.6182 43.2444 79.0958 43.7146 79.5991C44.1347 80.0292 44.5286 80.4841 44.8942 80.9614C45.2071 81.346 45.4989 81.7472 45.7683 82.1634C45.987 82.4731 46.1871 82.7954 46.3676 83.1288L46.7303 83.7431C46.7681 83.8177 46.8156 83.887 46.8715 83.9492C46.8515 83.8673 46.8193 83.7888 46.7761 83.7164L46.4554 83.0792C46.2916 82.7388 46.1027 82.411 45.8905 82.0985C45.6317 81.6706 45.3488 81.2579 45.043 80.8622C44.6814 80.3742 44.2913 79.9079 43.875 79.4656C43.4049 78.9511 42.9067 78.4632 42.3824 78.0041C41.1744 76.9579 39.862 76.0385 38.4659 75.2605C37.0625 74.5005 35.5964 73.8621 34.0838 73.3526C33.3776 73.1466 32.7172 72.9214 32.0759 72.7879L31.1559 72.5704L30.2971 72.4177C29.7512 72.3071 29.2511 72.2575 28.8122 72.204L28.2014 72.1354L27.6861 72.1086L26.9722 72.0628C26.8899 72.052 26.8065 72.052 26.7241 72.0628Z" fill="#263238"/>
<path d="M24.7734 37.4036C24.9184 37.5787 25.0808 37.7385 25.2582 37.8805L26.6668 39.1016C27.8654 40.1243 29.5297 41.5209 31.3773 43.0548C33.2248 44.5888 34.912 45.9663 36.1374 46.9508L37.5994 48.0956C37.7709 48.2424 37.9577 48.3704 38.1567 48.4772C38.0094 48.3017 37.8443 48.1419 37.6642 48.0002L36.2557 46.7791C35.0571 45.7565 33.3928 44.3599 31.5452 42.8259C29.6977 41.2919 28.0143 39.9182 26.7889 38.9337L25.3269 37.789C25.1543 37.6443 24.9691 37.5153 24.7734 37.4036Z" fill="#263238"/>
<path d="M23.0903 46.4547C23.0903 46.5234 26.6633 47.6452 31.1065 48.9617C35.5498 50.2782 39.1876 51.2856 39.2067 51.2169C39.2258 51.1482 35.6338 50.0225 31.1905 48.7099C26.7472 47.3972 23.1132 46.386 23.0903 46.4547Z" fill="#263238"/>
<path d="M36.3594 42.8526C36.5034 42.694 36.6313 42.5214 36.7411 42.3374L37.6878 40.895C38.4894 39.6778 39.6307 38.0217 40.982 36.255C42.3334 34.4882 43.6312 32.9543 44.5893 31.8591C45.0398 31.3402 45.4215 30.9052 45.7345 30.5617C45.8772 30.4089 46.0051 30.2428 46.1162 30.0657C45.9412 30.1863 45.7821 30.3286 45.6429 30.4892C45.349 30.7754 44.9405 31.199 44.4405 31.7332C43.448 32.8016 42.1196 34.328 40.7645 36.0985C39.4093 37.8691 38.2909 39.5519 37.5236 40.792C37.1419 41.414 36.8403 41.9368 36.6457 42.284C36.5282 42.4616 36.4321 42.6524 36.3594 42.8526Z" fill="#263238"/>
<path d="M48.834 47.8743C49.0847 48.3539 49.3665 48.8166 49.6776 49.2594C50.2158 50.1027 50.9449 51.2742 51.6969 52.5983C52.4489 53.9224 53.0864 55.1511 53.5406 56.0325C53.7631 56.5259 54.0182 57.004 54.3041 57.4635C54.1553 56.9367 53.9559 56.4255 53.7086 55.9372C53.3002 55.0214 52.6856 53.7774 51.9298 52.4418C51.174 51.1063 50.4029 49.9501 49.8379 49.1297C49.5442 48.6801 49.208 48.2597 48.834 47.8743Z" fill="#263238"/>
<path d="M53.124 63.5268C53.1431 63.5612 53.8264 63.2254 54.9487 62.7217C56.0709 62.218 57.6207 61.5769 59.4072 60.9359C61.1937 60.2948 62.816 59.856 64.007 59.5545C65.1979 59.2531 65.9423 59.0814 65.9156 59.0432C65.7357 59.0388 65.556 59.0581 65.3812 59.1004C65.0376 59.15 64.549 59.2416 63.9459 59.3714C62.3718 59.7159 60.8203 60.1568 59.3003 60.6917C57.7805 61.2221 56.2942 61.844 54.8494 62.5538C54.2959 62.8285 53.8569 63.0613 53.5554 63.2368C53.4006 63.3161 53.2558 63.4134 53.124 63.5268Z" fill="#263238"/>
<path d="M49.7422 82.2397C49.8124 82.2737 49.8869 82.2981 49.9636 82.3122L50.6125 82.4763L53.0021 83.0296C55.6365 83.5824 58.2407 84.2702 60.8045 85.0902C63.3579 85.9472 65.8023 87.0998 68.0878 88.5244C68.9582 89.0777 69.6376 89.5662 70.0957 89.921C70.3252 90.1134 70.5662 90.2918 70.8172 90.4553C70.8172 90.4553 70.7675 90.3904 70.6568 90.2836C70.5461 90.1767 70.382 90.0241 70.1568 89.8409C69.5295 89.3119 68.8718 88.8201 68.1871 88.368C65.9144 86.893 63.4631 85.7134 60.8923 84.8574C58.3193 84.0297 55.6968 83.3644 53.0403 82.8655L50.6316 82.3657C50.3387 82.3017 50.0414 82.2596 49.7422 82.2397Z" fill="#263238"/>
<path d="M37.5921 86.8493C37.6608 86.8493 38.0883 84.3422 38.5464 81.2247C39.0045 78.1071 39.3098 75.5696 39.2411 75.5581C39.1724 75.5467 38.7449 78.069 38.2868 81.1865C37.8288 84.3041 37.5196 86.8416 37.5921 86.8493Z" fill="#263238"/>
<path d="M24.938 82.2588C25.349 81.8328 25.7315 81.3803 26.0832 80.9042C26.7664 80.0532 27.7131 78.8818 28.7858 77.6073C29.8584 76.3328 30.8471 75.1957 31.5685 74.3753C31.9815 73.951 32.3641 73.4984 32.7137 73.0206C32.5731 73.1059 32.4447 73.2099 32.332 73.3297C32.1106 73.5434 31.8014 73.8563 31.4197 74.2531C30.6562 75.043 29.6485 76.1611 28.572 77.4394C27.4955 78.7177 26.5718 79.9082 25.9228 80.7897C25.5984 81.2323 25.3426 81.5948 25.1594 81.8467C25.0662 81.9727 24.9916 82.1115 24.938 82.2588Z" fill="#263238"/>
<path d="M58.4228 93.9888V100.239H56.8615L51.3036 117.773H38.9777L33.5954 100.415L31.5112 100.239V93.9888H58.4228Z" fill="#455A64"/>
<path d="M32.5532 100.411C32.5532 100.483 37.9928 100.544 44.7035 100.544C51.4142 100.544 56.8576 100.483 56.8576 100.411C56.8576 100.338 51.418 100.281 44.7035 100.281C37.989 100.281 32.5532 100.338 32.5532 100.411Z" fill="#263238"/>
<path d="M23.6899 60.2108C23.9469 60.3039 24.2112 60.3754 24.4801 60.4245L26.6407 60.9473C28.4653 61.3975 30.9694 62.092 33.6835 62.9926C36.3975 63.8931 38.81 64.8738 40.5545 65.6179L42.5929 66.507C42.8388 66.63 43.0941 66.7333 43.3563 66.8161C43.1307 66.6616 42.8919 66.5276 42.6425 66.4154C42.1768 66.1712 41.4974 65.8392 40.6347 65.4462C36.1673 63.4085 31.5005 61.8395 26.7094 60.7641C25.7932 60.5619 25.0451 60.4131 24.5259 60.3253C24.2509 60.2641 23.9713 60.2258 23.6899 60.2108Z" fill="#263238"/>
<path d="M36.6455 110.149C36.6455 110.221 40.4627 110.279 45.1694 110.279C49.8761 110.279 53.6971 110.221 53.6971 110.149C53.6971 110.076 49.8799 110.019 45.1694 110.019C40.4589 110.019 36.6455 110.076 36.6455 110.149Z" fill="#FAFAFA"/>
<path d="M36.1646 108.695C36.1646 108.768 40.2108 108.825 45.2 108.825C50.1891 108.825 54.2392 108.768 54.2392 108.695C54.2392 108.623 50.1929 108.565 45.2 108.565C40.207 108.565 36.1646 108.626 36.1646 108.695Z" fill="#FAFAFA"/>
<path d="M232.21 69.6857L206.761 41.105C205.758 39.9797 204.531 39.0771 203.158 38.4553C201.786 37.8335 200.297 37.5065 198.79 37.4952L115.006 36.8885C113.582 36.8779 112.171 37.1495 110.853 37.6876C109.535 38.2257 108.336 39.0196 107.327 40.0234C106.318 41.0272 105.518 42.221 104.973 43.5358C104.428 44.8507 104.15 46.2604 104.153 47.6835L104.295 106.989C104.298 108.405 104.58 109.807 105.126 111.114C105.671 112.421 106.469 113.607 107.474 114.605C108.479 115.603 109.671 116.393 110.982 116.93C112.292 117.468 113.696 117.741 115.113 117.735L198.607 117.384C200.149 117.38 201.672 117.045 203.074 116.402C204.475 115.759 205.722 114.822 206.73 113.656L232.332 83.8921C234.039 81.912 234.967 79.3794 234.945 76.7659C234.922 74.1524 233.951 71.6362 232.21 69.6857ZM218.048 79.9885C217.387 81.6162 216.257 83.0113 214.802 83.9972C213.347 84.9831 211.633 85.5156 209.875 85.5274C208.117 85.5391 206.396 85.0296 204.928 84.0632C203.46 83.0968 202.312 81.717 201.628 80.0982C200.945 78.4795 200.757 76.6945 201.088 74.969C201.42 73.2435 202.256 71.6551 203.49 70.4045C204.725 69.1539 206.303 68.2974 208.024 67.9433C209.746 67.5891 211.534 67.7533 213.162 68.415C215.342 69.3023 217.08 71.0175 217.996 73.1842C218.912 75.351 218.931 77.7925 218.048 79.9732V79.9885Z" fill="#E8505B"/>
<path opacity="0.4" d="M232.21 69.6857L206.761 41.105C205.758 39.9797 204.531 39.0771 203.158 38.4553C201.786 37.8335 200.297 37.5065 198.79 37.4952L115.006 36.8885C113.582 36.8779 112.171 37.1495 110.853 37.6876C109.535 38.2257 108.336 39.0196 107.327 40.0234C106.318 41.0272 105.518 42.221 104.973 43.5358C104.428 44.8507 104.15 46.2604 104.153 47.6835L104.295 106.989C104.298 108.405 104.58 109.807 105.126 111.114C105.671 112.421 106.469 113.607 107.474 114.605C108.479 115.603 109.671 116.393 110.982 116.93C112.292 117.468 113.696 117.741 115.113 117.735L198.607 117.384C200.149 117.38 201.672 117.045 203.074 116.402C204.475 115.759 205.722 114.822 206.73 113.656L232.332 83.8921C234.039 81.912 234.967 79.3794 234.945 76.7659C234.922 74.1524 233.951 71.6362 232.21 69.6857ZM218.048 79.9885C217.387 81.6162 216.257 83.0113 214.802 83.9972C213.347 84.9831 211.633 85.5156 209.875 85.5274C208.117 85.5391 206.396 85.0296 204.928 84.0632C203.46 83.0968 202.312 81.717 201.628 80.0982C200.945 78.4795 200.757 76.6945 201.088 74.969C201.42 73.2435 202.256 71.6551 203.49 70.4045C204.725 69.1539 206.303 68.2974 208.024 67.9433C209.746 67.5891 211.534 67.7533 213.162 68.415C215.342 69.3023 217.08 71.0175 217.996 73.1842C218.912 75.351 218.931 77.7925 218.048 79.9732V79.9885Z" fill="black"/>
<path d="M236.619 69.6857L211.158 41.105C210.155 39.9801 208.928 39.0777 207.555 38.456C206.182 37.8343 204.694 37.507 203.187 37.4952L119.403 36.8885C117.979 36.8774 116.567 37.1487 115.249 37.6866C113.931 38.2245 112.732 39.0183 111.723 40.0223C110.714 41.0262 109.914 42.2202 109.369 43.5353C108.825 44.8503 108.546 46.2603 108.55 47.6835L108.688 106.989C108.691 108.409 108.975 109.813 109.523 111.122C110.071 112.431 110.873 113.619 111.882 114.618C112.891 115.616 114.087 116.406 115.402 116.941C116.717 117.475 118.124 117.745 119.544 117.735L203.035 117.384C204.577 117.38 206.1 117.045 207.501 116.401C208.902 115.758 210.149 114.822 211.158 113.656L236.756 83.8921C238.461 81.9105 239.388 79.3768 239.362 76.7631C239.337 74.1493 238.362 71.6339 236.619 69.6857ZM222.461 79.9885C221.799 81.6162 220.669 83.0113 219.214 83.9972C217.759 84.9831 216.045 85.5156 214.287 85.5274C212.53 85.5391 210.808 85.0296 209.34 84.0632C207.872 83.0969 206.724 81.717 206.04 80.0983C205.357 78.4795 205.169 76.6945 205.501 74.969C205.832 73.2436 206.668 71.6551 207.903 70.4045C209.137 69.1539 210.715 68.2974 212.437 67.9433C214.158 67.5892 215.946 67.7533 217.574 68.415C219.754 69.3023 221.492 71.0175 222.408 73.1843C223.324 75.3511 223.343 77.7926 222.461 79.9732V79.9885Z" fill="#E8505B"/>
<path d="M136.432 67.6976C136.497 60.5085 140.929 55.9791 147.143 56.0402C153.358 56.1012 157.644 60.6459 157.579 67.8922C157.515 75.1385 153.136 79.6107 146.926 79.5534C140.715 79.4962 136.363 74.8866 136.432 67.6976ZM151.483 67.8388C151.525 63.2597 149.781 61.058 147.097 61.0351C144.479 61.0084 142.627 63.2445 142.585 67.7548C142.543 72.2651 144.353 74.5318 146.971 74.5585C149.655 74.5814 151.441 72.4063 151.483 67.8388ZM172.551 56.7728L179.803 56.8415L150.277 99.1974L143.024 99.1287L172.551 56.7728ZM165.252 88.0895C165.321 80.9004 169.749 76.371 175.906 76.4282C182.12 76.4893 186.464 81.0988 186.4 88.2841C186.335 95.4693 181.903 99.9835 175.685 99.9186C169.55 99.869 165.187 95.2594 165.252 88.0895ZM180.242 88.2268C180.284 83.7203 178.54 81.4499 175.856 81.427C173.238 81.4003 171.39 83.5753 171.348 88.1467C171.306 92.7181 173.112 94.9237 175.73 94.9504C178.414 94.958 180.2 92.7181 180.239 88.2078L180.242 88.2268Z" fill="white"/>
<path d="M233.833 87.3264C234.137 87.4882 234.418 87.6897 234.669 87.9255C235.191 88.3414 235.955 88.9672 236.921 89.7952C237.886 90.6233 239.062 91.6459 240.383 92.8784C241.704 94.1109 243.185 95.5495 244.715 97.2552C246.398 99.1038 247.922 101.091 249.269 103.196L249.812 104.063L250.323 104.967C250.68 105.585 251.004 106.222 251.293 106.875C251.935 108.26 252.305 109.754 252.384 111.278C252.409 112.093 252.29 112.905 252.033 113.679C251.765 114.478 251.336 115.214 250.773 115.842C249.619 117.115 248.09 117.989 246.407 118.338C244.699 118.675 242.939 118.633 241.249 118.216C239.553 117.805 237.909 117.2 236.352 116.411C233.292 114.851 230.516 112.787 228.141 110.305C227.009 109.143 225.95 107.912 224.969 106.619C224.012 105.365 223.101 104.117 222.236 102.876C218.8 97.9153 216.128 93.1455 214.449 88.8794C214.029 87.8148 213.666 86.7921 213.353 85.8077C213.2 85.3154 213.055 84.8346 212.937 84.3576C212.807 83.8964 212.714 83.4256 212.658 82.9496C212.525 82.0466 212.752 81.1275 213.288 80.3892C213.75 79.7966 214.381 79.3576 215.098 79.1299C215.393 79.0322 215.697 78.962 216.006 78.9201C216.277 78.8913 216.551 78.8849 216.823 78.901C217.25 78.9214 217.67 79.013 218.067 79.1719C218.309 79.2728 218.533 79.4106 218.732 79.5802C218.861 79.6985 218.919 79.7634 218.907 79.7786C218.896 79.7939 218.816 79.7519 218.67 79.6642C218.46 79.5359 218.234 79.4346 217.999 79.3627C217.615 79.2468 217.216 79.1902 216.815 79.1948C216.56 79.1973 216.305 79.2177 216.052 79.2559C215.769 79.3106 215.492 79.3897 215.224 79.4924C214.6 79.7217 214.058 80.1307 213.666 80.6677C213.229 81.317 213.065 82.1117 213.208 82.8809C213.271 83.3296 213.371 83.7724 213.506 84.205C213.632 84.6629 213.788 85.1284 213.949 85.6092C214.282 86.5708 214.664 87.5731 215.094 88.6161C216.823 92.7754 219.526 97.4727 222.976 102.353C223.842 103.574 224.754 104.804 225.713 106.043C226.679 107.301 227.72 108.499 228.832 109.63C231.138 112.026 233.827 114.022 236.787 115.537C238.281 116.292 239.856 116.873 241.482 117.269C243.032 117.657 244.647 117.703 246.216 117.403C247.7 117.1 249.051 116.34 250.079 115.228C251.032 114.151 251.534 112.75 251.483 111.313C251.411 109.899 251.069 108.512 250.476 107.226C250.205 106.595 249.9 105.978 249.563 105.379L249.086 104.498L248.567 103.635C247.269 101.549 245.802 99.5717 244.181 97.7246C242.708 96.0151 241.276 94.5498 239.982 93.2829C238.688 92.016 237.57 90.9552 236.642 90.089L234.535 88.0895C234.27 87.8651 234.034 87.6088 233.833 87.3264Z" fill="#263238"/>
<path d="M197.412 50.4081L199.893 48.9771L201.214 46.4358L202.642 48.9161L205.184 50.2364L202.703 51.6635L201.382 54.2049L199.954 51.7246L197.412 50.4081Z" fill="white"/>
<path d="M183.999 46.4662L184.869 45.9664L185.331 45.0773L185.831 45.9473L186.72 46.409L185.854 46.9089L185.392 47.798L184.892 46.928L183.999 46.4662Z" fill="white"/>
<path d="M192.564 63.9924L194.244 63.027L195.137 61.306L196.103 62.985L197.825 63.8779L196.145 64.8433L195.252 66.5643L194.286 64.8853L192.564 63.9924Z" fill="white"/>
<path d="M263 117.773C263 117.826 204.119 117.872 131.504 117.872C58.8885 117.872 0 117.826 0 117.773C0 117.719 58.8656 117.674 131.504 117.674C204.142 117.674 263 117.716 263 117.773Z" fill="#263238"/>
<path d="M76.6806 111.007C76.6806 111.007 60.7589 115.419 60.0985 115.644C59.1404 115.98 59.3007 119.498 60.7971 119.46C61.5032 119.433 73.0389 119.887 74.4971 119.795C75.9553 119.704 79.8794 118.158 79.8794 118.158L76.6806 111.007Z" fill="#455A64"/>
<path d="M70.0386 117.09C69.9585 117.09 69.8516 116.258 69.3362 115.38C68.8209 114.503 68.1605 113.976 68.2102 113.915C68.2598 113.854 69.0309 114.297 69.5691 115.247C70.1073 116.197 70.1073 117.09 70.0386 117.09Z" fill="#263238"/>
<path d="M71.7031 116.327C71.6229 116.327 71.4626 115.587 71.0389 114.755C70.6151 113.923 70.1113 113.339 70.1685 113.286C70.2258 113.232 70.8366 113.755 71.2755 114.636C71.7145 115.518 71.7718 116.327 71.7031 116.327Z" fill="#263238"/>
<path d="M73.26 115.918C73.1798 115.918 73.2409 115.117 72.8783 114.232C72.5156 113.347 71.9507 112.801 72.0079 112.744C72.0652 112.686 72.7714 113.175 73.1264 114.136C73.4814 115.098 73.3249 115.945 73.26 115.918Z" fill="#263238"/>
<path d="M72.9743 113.858C72.8348 113.48 72.7763 113.077 72.8025 112.675C72.8091 112.234 72.8667 111.794 72.9743 111.366C73.0339 111.114 73.113 110.866 73.2109 110.626C73.2606 110.478 73.3489 110.346 73.4667 110.244C73.5462 110.184 73.6446 110.153 73.7445 110.158C73.8444 110.163 73.9393 110.203 74.0125 110.271C74.1353 110.391 74.2112 110.551 74.2263 110.721C74.2356 110.861 74.2356 111.001 74.2263 111.141C74.2219 111.398 74.1886 111.654 74.1271 111.904C74.0209 112.331 73.8565 112.74 73.6385 113.122C73.461 113.483 73.2176 113.807 72.9208 114.079C72.8865 114.056 73.1537 113.698 73.4705 113.034C73.6569 112.658 73.7967 112.261 73.8866 111.851C73.9388 111.611 73.9657 111.367 73.9667 111.122C73.9667 110.878 73.9667 110.573 73.8179 110.454C73.792 110.425 73.7558 110.406 73.7167 110.403C73.6776 110.399 73.6387 110.411 73.6079 110.435C73.5268 110.512 73.4664 110.608 73.4323 110.714C73.3363 110.942 73.256 111.177 73.1918 111.416C73.0799 111.822 73.0095 112.239 72.9819 112.66C72.9475 113.4 73.0201 113.854 72.9743 113.858Z" fill="#263238"/>
<path d="M72.9971 113.698C73.3227 113.562 73.6758 113.504 74.0277 113.53C74.4139 113.529 74.7986 113.576 75.1729 113.671C75.4012 113.718 75.6211 113.799 75.8256 113.911C75.9566 113.976 76.0626 114.082 76.1274 114.213C76.1922 114.344 76.2122 114.493 76.1845 114.636C76.1479 114.774 76.0751 114.899 75.9738 114.999C75.8724 115.099 75.7461 115.17 75.6081 115.205C75.3738 115.264 75.1285 115.264 74.8942 115.205C74.1832 114.996 73.5599 114.56 73.1192 113.965C73.4151 114.136 73.6983 114.329 73.9667 114.541C74.2627 114.743 74.5943 114.886 74.9439 114.965C75.1382 115.012 75.3412 115.012 75.5355 114.965C75.6268 114.939 75.71 114.891 75.7769 114.824C75.8438 114.757 75.8922 114.674 75.9173 114.583C75.9327 114.493 75.9179 114.401 75.875 114.321C75.8321 114.241 75.7637 114.177 75.6806 114.14C75.4982 114.04 75.303 113.964 75.1004 113.915C74.7503 113.815 74.3908 113.753 74.0277 113.728C73.3941 113.675 73.0047 113.74 72.9971 113.698Z" fill="#263238"/>
<path d="M67.5922 117.258C67.5121 117.258 67.5923 116.567 67.2754 115.823C66.9586 115.079 66.4471 114.636 66.512 114.575C66.5769 114.514 67.2029 114.888 67.5388 115.72C67.8747 116.552 67.6571 117.288 67.5922 117.258Z" fill="#263238"/>
<path d="M78.7002 117.994C78.5032 118.109 78.2962 118.206 78.0818 118.284C77.5029 118.507 76.9099 118.69 76.3068 118.834C74.3095 119.273 72.2662 119.466 70.2221 119.41C67.8325 119.383 65.6796 119.276 64.1145 119.212L62.267 119.116C62.0399 119.115 61.8135 119.09 61.5913 119.044C61.8204 119.002 62.0535 118.987 62.286 118.998H64.1374L70.245 119.116C72.271 119.168 74.2968 119.003 76.2877 118.624C77.8069 118.338 78.7002 117.945 78.7002 117.994Z" fill="#263238"/>
<path d="M79.1848 118.357C78.7776 118.197 78.3788 118.016 77.99 117.815C77.0508 117.371 76.0065 117.198 74.9744 117.315C73.772 117.498 72.9207 118.307 72.3672 118.864C72.0841 119.199 71.7766 119.513 71.4473 119.803C71.6598 119.415 71.923 119.057 72.2298 118.738C72.5428 118.369 72.8977 118.037 73.2872 117.75C73.772 117.389 74.3361 117.15 74.9324 117.052C76.0147 116.921 77.1109 117.129 78.0702 117.647C78.4767 117.824 78.8528 118.063 79.1848 118.357Z" fill="#263238"/>
<path d="M63.1942 119.047C63.2604 118.842 63.3381 118.641 63.4271 118.445C63.5944 117.964 63.6338 117.448 63.5414 116.948C63.4491 116.447 63.2281 115.98 62.9003 115.59C62.6483 115.285 62.446 115.14 62.4651 115.11C62.4842 115.079 62.717 115.193 63.011 115.491C63.3966 115.879 63.6561 116.374 63.7556 116.912C63.855 117.45 63.7897 118.005 63.5683 118.506C63.3965 118.88 63.2133 119.063 63.1942 119.047Z" fill="#263238"/>
<path d="M93.3121 111.481C93.3121 111.481 109.665 113.965 110.326 114.114C111.322 114.335 111.578 117.846 110.089 117.968C109.383 118.025 97.9806 119.849 96.5224 119.933C95.0643 120.017 90.4912 118.819 90.4912 118.819L93.3121 111.481Z" fill="#455A64"/>
<path d="M100.63 116.727C100.71 116.727 100.718 115.88 101.123 114.945C101.527 114.01 102.126 113.419 102.069 113.354C102.012 113.289 101.306 113.839 100.878 114.842C100.451 115.846 100.565 116.743 100.63 116.727Z" fill="#263238"/>
<path d="M98.8895 116.178C98.9697 116.178 99.0384 115.415 99.3628 114.537C99.6873 113.659 100.126 113.011 100.05 112.976C99.9736 112.942 99.443 113.518 99.1109 114.446C98.7788 115.373 98.8208 116.182 98.8895 116.178Z" fill="#263238"/>
<path d="M97.2935 115.945C97.3699 115.945 97.2172 115.148 97.4615 114.228C97.7058 113.308 98.2249 112.702 98.1486 112.645C98.0722 112.587 97.4577 113.163 97.2057 114.171C96.9538 115.178 97.2325 115.98 97.2935 115.945Z" fill="#263238"/>
<path d="M97.3282 113.869C97.4257 113.478 97.4361 113.071 97.3588 112.675C97.3042 112.24 97.1978 111.814 97.042 111.404C96.9515 111.16 96.843 110.923 96.7175 110.695C96.6518 110.552 96.549 110.429 96.4198 110.34C96.3331 110.289 96.2312 110.27 96.1321 110.287C96.0329 110.304 95.9429 110.355 95.8777 110.431C95.7703 110.565 95.7148 110.733 95.7212 110.904C95.7216 111.045 95.7318 111.185 95.7517 111.324C95.7859 111.585 95.85 111.841 95.9426 112.087C96.0993 112.496 96.3112 112.881 96.5724 113.232C96.7919 113.57 97.0713 113.865 97.397 114.102C97.4313 114.072 97.1221 113.721 96.729 113.129C96.4976 112.771 96.3105 112.387 96.1716 111.984C96.0933 111.753 96.0395 111.514 96.0113 111.271C95.9884 111.027 95.9502 110.725 96.0762 110.592C96.0986 110.559 96.1325 110.537 96.1709 110.529C96.2092 110.522 96.2491 110.529 96.2823 110.55C96.3728 110.616 96.445 110.704 96.4923 110.805C96.6145 111.02 96.7216 111.243 96.8129 111.473C96.9718 111.864 97.092 112.269 97.1718 112.683C97.3015 113.415 97.2863 113.869 97.3282 113.869Z" fill="#263238"/>
<path d="M97.2897 113.713C96.9554 113.614 96.6024 113.594 96.2591 113.656C95.8805 113.701 95.5088 113.792 95.1521 113.927C94.9322 114.003 94.7241 114.11 94.5337 114.243C94.4116 114.324 94.3191 114.442 94.2702 114.58C94.2212 114.717 94.2186 114.867 94.2627 115.007C94.3159 115.139 94.4033 115.255 94.5159 115.343C94.6286 115.431 94.7625 115.487 94.904 115.506C95.1443 115.535 95.3879 115.505 95.614 115.419C96.2937 115.124 96.8601 114.619 97.2287 113.976C96.9587 114.182 96.7036 114.406 96.4652 114.648C96.1956 114.884 95.8834 115.067 95.5453 115.186C95.3567 115.252 95.1554 115.273 94.9574 115.247C94.8634 115.234 94.7743 115.197 94.6988 115.139C94.6232 115.082 94.5638 115.006 94.526 114.919C94.5008 114.831 94.505 114.737 94.538 114.651C94.5711 114.566 94.6313 114.494 94.7093 114.446C94.8785 114.327 95.0618 114.229 95.2551 114.156C95.5916 114.014 95.9422 113.909 96.3011 113.843C96.8927 113.74 97.2897 113.755 97.2897 113.713Z" fill="#263238"/>
<path d="M103.081 116.605C103.161 116.586 103 115.922 103.222 115.14C103.443 114.358 103.909 113.866 103.852 113.812C103.794 113.759 103.199 114.194 102.966 115.071C102.733 115.949 103.023 116.643 103.081 116.605Z" fill="#263238"/>
<path d="M92.1255 118.658C92.3339 118.751 92.5514 118.823 92.7744 118.872C93.3742 119.025 93.9839 119.138 94.5991 119.208C96.6334 119.406 98.6844 119.356 100.707 119.059C103.077 118.746 105.2 118.384 106.742 118.136L108.566 117.819C108.791 117.792 109.013 117.741 109.227 117.666C109 117.659 108.774 117.675 108.551 117.716L106.715 117.949L100.672 118.792C98.6669 119.084 96.636 119.16 94.6143 119.021C93.0683 118.891 92.1369 118.616 92.1255 118.658Z" fill="#263238"/>
<path d="M91.7017 119.074C91.7284 119.109 92.1292 118.803 92.8239 118.395C93.7026 117.84 94.72 117.544 95.7594 117.54C96.9733 117.578 97.9123 118.28 98.5307 118.769C98.853 119.066 99.1948 119.341 99.5537 119.593C99.2994 119.231 98.9962 118.906 98.6528 118.628C98.298 118.297 97.9061 118.009 97.4848 117.769C96.9595 117.47 96.3708 117.3 95.767 117.273C94.674 117.27 93.607 117.606 92.7132 118.235C92.3343 118.46 91.9929 118.743 91.7017 119.074Z" fill="#263238"/>
<path d="M144.169 44.3179C144.069 44.1115 143.9 43.9459 143.692 43.8486L144.074 43.0854C144.048 42.8118 143.972 42.5453 143.849 42.2994C143.658 41.9712 142.99 41.9979 142.99 41.9979L143.093 41.7804C143.163 41.6264 143.192 41.457 143.177 41.2886C143.162 41.1202 143.104 40.9584 143.009 40.8188C142.978 40.7768 142.948 40.7349 142.91 40.6891C142.678 40.4645 142.384 40.3154 142.066 40.2617C142.066 40.2617 142.448 39.5291 142.276 39.22C142.097 38.9658 141.848 38.7696 141.559 38.6556C141.27 38.5417 140.954 38.515 140.65 38.5789C139.631 38.9788 138.643 39.4506 137.691 39.9908C137.603 40.039 137.504 40.0675 137.403 40.0741C137.303 40.0807 137.201 40.0653 137.107 40.029C137.013 39.9927 136.927 39.9364 136.857 39.8639C136.786 39.7914 136.733 39.7045 136.699 39.6092C136.359 38.6346 135.871 37.7182 135.252 36.8923C134.535 36.0299 133.863 36.0986 133.47 36.2512C133.426 36.2684 133.386 36.2949 133.353 36.329C133.32 36.3631 133.296 36.404 133.28 36.4487C133.265 36.4934 133.26 36.5409 133.265 36.5878C133.27 36.6348 133.285 36.6801 133.309 36.7206C133.695 37.3344 134.042 37.9716 134.348 38.6285C134.535 39.1284 134.729 42.8908 134.729 42.8908L133.699 44.8522L123.304 61.2641C123.304 61.2641 107.596 50.6828 107.654 50.4195L106.913 62.5539L118.747 70.4145C119.76 71.0874 120.909 71.5303 122.112 71.7121C123.315 71.8939 124.544 71.8102 125.711 71.467C126.878 71.1237 127.956 70.5291 128.869 69.725C129.782 68.9209 130.508 67.9268 130.996 66.8124L138.963 49.5266L139.928 48.1147L143.681 45.7107C143.681 45.7107 144.303 44.6347 144.169 44.3179Z" fill="#FFBE9D"/>
<path d="M142.448 40.2654C142.448 40.2654 142.425 40.2922 142.375 40.3341L142.15 40.5173C141.94 40.6776 141.654 40.8989 141.31 41.1698L140.054 42.1238C139.818 42.2993 139.581 42.5053 139.291 42.6732C139.147 42.7728 138.982 42.8368 138.809 42.86C138.636 42.8833 138.46 42.865 138.295 42.8068C138.125 42.7303 137.99 42.5946 137.913 42.4252C137.845 42.2678 137.815 42.0965 137.825 41.9253C137.854 41.6059 137.988 41.3052 138.207 41.0706C138.4 40.8635 138.609 40.6721 138.833 40.4982L139.398 40.0289L140.222 39.3534L140.448 39.1741C140.501 39.1359 140.528 39.1131 140.532 39.1169L140.459 39.1894L140.245 39.384L139.444 40.0785L138.886 40.5554C138.668 40.7299 138.464 40.9213 138.276 41.1278C138.061 41.3438 137.926 41.6264 137.894 41.9291C137.874 42.0858 137.902 42.2447 137.973 42.3855C138.045 42.5263 138.157 42.6425 138.295 42.719C138.443 42.7799 138.607 42.7958 138.764 42.7648C138.921 42.7345 139.071 42.6763 139.207 42.5931C139.474 42.429 139.719 42.2115 139.97 42.0551L141.234 41.1126L142.093 40.4868L142.33 40.3189L142.448 40.2654Z" fill="#EB996E"/>
<path d="M143.28 42.0322C143.227 42.0871 143.168 42.1357 143.104 42.1772C142.99 42.265 142.818 42.3909 142.604 42.5359C142.18 42.8336 141.581 43.2304 140.898 43.6311C140.726 43.7303 140.562 43.8333 140.386 43.9134C140.216 43.9936 140.028 44.0291 139.84 44.0165C139.681 43.9974 139.531 43.934 139.406 43.8335C139.281 43.7329 139.187 43.5993 139.134 43.4479C139.07 43.2436 139.086 43.0224 139.18 42.8297C139.207 42.7794 139.239 42.7321 139.275 42.6886C139.302 42.658 139.317 42.6466 139.321 42.6466C139.325 42.6466 139.272 42.7153 139.214 42.845C139.145 43.0321 139.145 43.2379 139.214 43.425C139.263 43.5621 139.35 43.6823 139.465 43.7716C139.58 43.8608 139.718 43.9153 139.863 43.9287C140.036 43.9367 140.208 43.9012 140.363 43.8257C140.535 43.7428 140.702 43.6511 140.863 43.5509C141.547 43.1503 142.15 42.7649 142.585 42.4825L143.097 42.1467C143.154 42.1036 143.216 42.0654 143.28 42.0322Z" fill="#EB996E"/>
<path d="M143.765 43.7571C143.709 43.7977 143.648 43.8322 143.585 43.8601L143.077 44.1158C142.646 44.3295 142.047 44.6157 141.386 44.9286C141.225 45.0094 141.06 45.0807 140.89 45.1422C140.725 45.2032 140.547 45.2177 140.375 45.1842C140.295 45.1693 140.219 45.1369 140.153 45.0894C140.087 45.0419 140.033 44.9805 139.993 44.9095C139.929 44.7848 139.908 44.6429 139.932 44.505C139.974 44.3115 140.08 44.1379 140.234 44.0127C140.337 43.925 140.405 43.8906 140.409 43.8983C140.413 43.9059 140.352 43.9479 140.256 44.0395C140.124 44.1682 140.035 44.3348 140.001 44.5164C139.982 44.6382 140.003 44.7628 140.062 44.8713C140.097 44.9311 140.146 44.9825 140.203 45.022C140.26 45.0615 140.325 45.0882 140.394 45.1003C140.55 45.1282 140.712 45.1123 140.86 45.0545C141.025 44.9931 141.187 44.9217 141.344 44.8408C142.009 44.5317 142.608 44.2531 143.047 44.0547L143.57 43.8296C143.631 43.7959 143.696 43.7715 143.765 43.7571Z" fill="#EB996E"/>
<path d="M144.036 45.352C143.842 45.4194 143.643 45.4717 143.441 45.5084C143.059 45.5924 142.555 45.703 141.986 45.8175L141.57 45.9015C141.439 45.9336 141.304 45.949 141.169 45.9473C141.04 45.9471 140.915 45.9027 140.814 45.8213C140.77 45.7846 140.735 45.7385 140.711 45.6863C140.687 45.6341 140.676 45.5772 140.677 45.5199C140.683 45.4404 140.707 45.3634 140.747 45.2942C140.786 45.2249 140.841 45.1652 140.906 45.1192C140.949 45.0816 141.002 45.0577 141.059 45.0505C141.059 45.0505 141.005 45.0811 140.929 45.1498C140.873 45.1969 140.828 45.2553 140.796 45.321C140.765 45.3868 140.748 45.4584 140.746 45.5313C140.746 45.5778 140.756 45.6235 140.777 45.6652C140.797 45.7069 140.827 45.7433 140.864 45.7717C140.952 45.8382 141.059 45.8732 141.169 45.8709C141.298 45.8687 141.426 45.8521 141.551 45.8213L141.967 45.7336C142.536 45.6191 143.051 45.5199 143.425 45.4512C143.626 45.4038 143.83 45.3706 144.036 45.352Z" fill="#EB996E"/>
<path d="M139.963 44.5888C139.611 44.5184 139.253 44.4826 138.894 44.482C138.538 44.5152 138.186 44.5855 137.844 44.6918C138.157 44.4932 138.52 44.3874 138.89 44.3866C139.26 44.3537 139.631 44.4237 139.963 44.5888Z" fill="#EB996E"/>
<path d="M83.8762 40.9943C83.8762 40.9943 78.5931 36.5412 79.8147 33.4733C81.0362 30.4053 84.4297 28.8943 86.0978 23.3041C87.4301 18.8471 95.3661 10.2462 104.772 16.7332C104.772 16.7332 107.955 16.2333 109.765 17.6833C111.574 19.1333 112.013 22.0257 112.78 25.3646C113.964 30.5122 114.613 34.4692 112.322 36.9877C110.032 39.5061 109.192 40.1815 109.314 43.0434C109.475 46.7791 111.124 46.2793 109.696 49.0038L101.81 46.4319L101.726 44.2607L100.928 46.3022L96.3471 44.6537L83.8762 40.9943Z" fill="#263238"/>
<path d="M110.142 22.2128C109.631 23.388 110.051 24.7465 110.524 25.937C110.997 27.1276 111.574 28.383 111.329 29.6422C110.894 31.8745 108.119 33.1185 107.814 35.366C107.65 36.5718 108.253 37.8005 108.02 38.9987C107.787 40.1969 106.825 41.0287 105.798 41.6087C104.771 42.1887 103.638 42.5779 102.672 43.2572C102.672 43.2572 100.549 44.9972 96.8926 42.1315" fill="#263238"/>
<path d="M95.1601 19.2936C94.6857 19.1838 94.1873 19.2557 93.7633 19.4951C93.3393 19.7346 93.0205 20.1242 92.8698 20.5871L85.2926 45.7336C84.3115 48.6756 88.0142 51.816 91.1711 52.8387C94.3623 53.8728 95.0074 52.3579 96.019 49.5876C97.7138 44.9628 98.3093 43.2151 98.3093 43.2418C98.3093 43.2685 102.539 43.9668 105.18 39.0444C106.493 36.5908 107.852 32.2903 108.833 28.7416C109.727 25.5439 108.986 20.9802 105.753 20.2285L95.1601 19.2936Z" fill="#FFBE9D"/>
<path d="M106.161 31.3671C106.103 31.5427 105.978 31.6883 105.813 31.7726C105.648 31.8568 105.456 31.8729 105.28 31.8173C105.192 31.7944 105.11 31.7542 105.038 31.6992C104.966 31.6441 104.906 31.5753 104.862 31.4968C104.817 31.4182 104.788 31.3315 104.777 31.2417C104.767 31.152 104.774 31.061 104.799 30.974C104.858 30.799 104.983 30.654 105.148 30.5699C105.313 30.4858 105.504 30.4692 105.68 30.5238C105.768 30.5467 105.85 30.5869 105.922 30.6419C105.993 30.697 106.053 30.7658 106.098 30.8443C106.143 30.9229 106.172 31.0096 106.182 31.0993C106.193 31.1891 106.186 31.2801 106.161 31.3671Z" fill="#263238"/>
<path d="M107.207 30.4703C107.096 30.5275 106.718 29.9781 105.997 29.73C105.275 29.482 104.623 29.6575 104.577 29.5431C104.55 29.4896 104.691 29.3599 104.959 29.2721C105.346 29.1653 105.756 29.18 106.134 29.3141C106.51 29.4446 106.835 29.6903 107.062 30.0162C107.241 30.2452 107.264 30.4321 107.207 30.4703Z" fill="#263238"/>
<path d="M99.0154 29.085C98.9568 29.2599 98.8323 29.4051 98.6684 29.4899C98.5045 29.5746 98.3141 29.5923 98.1374 29.5391C98.0499 29.5161 97.9679 29.476 97.8961 29.4209C97.8244 29.3659 97.7644 29.2971 97.7196 29.2185C97.6748 29.14 97.6461 29.0533 97.6353 28.9635C97.6244 28.8738 97.6316 28.7827 97.6564 28.6958C97.7151 28.5209 97.8395 28.3757 98.0034 28.2909C98.1673 28.2062 98.3577 28.1885 98.5344 28.2417C98.6219 28.2646 98.7039 28.3048 98.7757 28.3599C98.8474 28.4149 98.9075 28.4837 98.9523 28.5623C98.9971 28.6408 99.0257 28.7275 99.0366 28.8173C99.0474 28.907 99.0402 28.9981 99.0154 29.085Z" fill="#263238"/>
<path d="M100.023 28.2989C99.9088 28.36 99.5309 27.8067 98.8094 27.5586C98.088 27.3106 97.4352 27.4861 97.3894 27.3717C97.3627 27.3183 97.504 27.1923 97.7902 27.1046C98.1769 26.9957 98.588 27.0104 98.9659 27.1465C99.3418 27.2743 99.6669 27.519 99.8935 27.8448C100.054 28.089 100.077 28.276 100.023 28.2989Z" fill="#263238"/>
<path d="M100.779 34.5494C101.201 34.5612 101.619 34.6266 102.024 34.744C102.215 34.7898 102.405 34.8127 102.474 34.6982C102.554 34.5133 102.577 34.3085 102.539 34.1106C102.539 33.6069 102.505 33.0765 102.486 32.5232C102.421 30.2642 102.444 28.4364 102.535 28.4326C102.627 28.4288 102.753 30.2604 102.814 32.5156C102.814 33.0689 102.833 33.5993 102.844 34.1068C102.886 34.3717 102.83 34.6427 102.688 34.8699C102.641 34.9243 102.582 34.9673 102.516 34.9957C102.45 35.0241 102.378 35.0372 102.306 35.034C102.196 35.0273 102.086 35.0054 101.982 34.9692C101.565 34.8812 101.161 34.7401 100.779 34.5494Z" fill="#263238"/>
<path d="M98.3131 43.2419C95.8421 42.4268 93.6467 40.9405 91.9727 38.9491C91.9727 38.9491 92.488 43.1465 97.8817 44.4783L98.3131 43.2419Z" fill="#EB996E"/>
<path d="M100.557 26.2384C100.447 26.4292 99.7175 26.1888 98.8166 26.1277C97.9157 26.0667 97.1637 26.1697 97.0798 25.9675C97.0454 25.8683 97.2057 25.7004 97.5302 25.5592C97.9565 25.3842 98.4188 25.3148 98.8777 25.3569C99.3379 25.3874 99.7842 25.5274 100.179 25.7652C100.477 25.956 100.611 26.1468 100.557 26.2384Z" fill="#263238"/>
<path d="M108.246 28.0663C108.047 28.1884 107.482 27.8449 106.761 27.6313C106.039 27.4176 105.383 27.3642 105.287 27.1505C105.249 27.0474 105.394 26.9063 105.707 26.8261C106.135 26.7417 106.577 26.7647 106.993 26.8933C107.409 27.0218 107.787 27.2518 108.093 27.5626C108.303 27.7992 108.337 28.0014 108.246 28.0663Z" fill="#263238"/>
<path d="M86.3345 35.8124C87.7545 31.0578 89.1758 26.3008 90.5983 21.5411C90.8884 20.5643 91.2244 19.5225 92.0374 18.9082C92.8505 18.2938 93.8354 18.2595 94.7973 18.2404C98.9538 18.154 103.106 18.5639 107.165 19.4615C107.356 20.4269 106.52 21.3465 105.581 21.6632C104.642 21.9799 103.627 21.8655 102.642 21.8769C101.657 21.8884 100.577 22.0639 99.9086 22.7927C99.2406 23.5215 99.126 24.7617 98.4542 25.5707C97.309 26.9596 94.8774 26.6658 93.7285 28.0624C92.8619 29.1194 93.0948 30.6648 92.8085 32.0004C92.484 33.5267 92.484 33.5267 91.2816 35.7475C90.5525 37.1136 92.3848 39.7236 90.5602 43.1083L87.0178 42.1009L88.5714 36.8732L86.4643 41.7766L86.3345 35.8124Z" fill="#263238"/>
<path d="M98.6411 34.4616C98.7136 34.5036 98.6754 34.6944 98.6716 34.9691C98.6484 35.3091 98.72 35.6489 98.8783 35.9507C99.0367 36.2525 99.2757 36.5044 99.5687 36.6786C99.7939 36.8313 99.9733 36.9076 99.9504 36.9915C99.9275 37.0755 99.7328 37.148 99.3931 37.0678C99.1683 37.0082 98.9585 36.9024 98.7768 36.7573C98.5952 36.6121 98.4458 36.4308 98.3381 36.2248C98.2304 36.0187 98.1667 35.7926 98.1512 35.5606C98.1357 35.3287 98.1686 35.0961 98.2479 34.8776C98.3891 34.5494 98.5762 34.4197 98.6411 34.4616Z" fill="#263238"/>
<path d="M97.5877 22.9911C97.5274 23.0377 97.4605 23.075 97.3892 23.1018C97.1965 23.1956 97.0092 23.3001 96.828 23.4146C95.9986 23.9292 95.2899 24.6166 94.7503 25.4298C94.2108 26.2431 93.8531 27.1632 93.7017 28.1272C93.6103 28.8072 93.6103 29.4963 93.7017 30.1763C93.8147 30.9186 93.8594 31.6696 93.8353 32.42C93.8109 32.8112 93.7299 33.1968 93.5948 33.5648C93.4518 33.9095 93.2821 34.2425 93.0871 34.5607C92.6941 35.1208 92.4211 35.7561 92.2855 36.4267C92.2115 37.0414 92.2282 37.6637 92.3351 38.2736C92.4153 38.8574 92.5184 39.4183 92.5565 39.9029C92.6635 40.7035 92.5431 41.518 92.2092 42.2535C92.106 42.4464 91.9777 42.6248 91.8275 42.7839C91.7168 42.8869 91.6557 42.9365 91.6519 42.9289C91.8425 42.7135 92.0054 42.4751 92.1367 42.2191C92.4307 41.4941 92.5268 40.704 92.4153 39.9296C92.3657 39.4336 92.255 38.8955 92.1672 38.3117C92.0502 37.6826 92.0283 37.0394 92.1023 36.4038C92.2512 34.9996 93.6063 33.9693 93.6292 32.4277C93.6529 31.6889 93.6108 30.9496 93.5032 30.2183C93.4078 29.522 93.4078 28.8159 93.5032 28.1196C93.6912 26.9391 94.1906 25.83 94.95 24.9066C95.4558 24.2882 96.0735 23.7704 96.7708 23.3803C96.9578 23.2722 97.1531 23.1791 97.3548 23.1018C97.4261 23.0527 97.5047 23.0154 97.5877 22.9911Z" fill="#263238"/>
<path d="M114.697 44.4477L114.632 44.5011C114.586 44.5316 114.521 44.5851 114.429 44.6385C114.159 44.7973 113.867 44.9156 113.563 44.9895C113.077 45.1103 112.571 45.1285 112.078 45.043C111.417 44.9381 110.804 44.6331 110.322 44.1691C109.74 43.6008 109.37 42.851 109.272 42.0437C109.209 41.596 109.239 41.14 109.36 40.7044C109.494 40.2466 109.705 39.8154 109.986 39.4299C110.624 38.6513 111.331 37.9311 112.097 37.2777C112.481 36.922 112.828 36.5297 113.135 36.1063C113.439 35.6634 113.679 35.1805 113.849 34.6715C114.162 33.6528 114.297 32.588 114.25 31.5234C114.212 30.5269 114.109 29.5339 113.941 28.5509C113.668 26.8839 113.244 25.2452 112.673 23.6551C112.289 22.5809 111.843 21.5298 111.337 20.5071C111.158 20.1446 111.013 19.866 110.914 19.679C110.856 19.5921 110.806 19.5001 110.765 19.4043C110.831 19.4908 110.89 19.5827 110.94 19.679C111.051 19.8584 111.208 20.1331 111.398 20.4918C111.935 21.5037 112.403 22.5503 112.799 23.6246C113.394 25.2176 113.836 26.8632 114.12 28.5394C114.296 29.5307 114.404 30.5328 114.445 31.5387C114.496 32.6252 114.358 33.7124 114.036 34.7516C113.863 35.2791 113.615 35.779 113.299 36.236C112.983 36.6703 112.625 37.0728 112.231 37.438C111.472 38.0816 110.77 38.7902 110.135 39.5558C109.864 39.9221 109.659 40.3327 109.528 40.7692C109.412 41.1835 109.379 41.6168 109.433 42.0437C109.523 42.817 109.872 43.5373 110.421 44.089C110.881 44.5384 111.464 44.8401 112.097 44.9552C112.576 45.0469 113.068 45.0391 113.544 44.9323C113.951 44.8307 114.339 44.6672 114.697 44.4477Z" fill="#263238"/>
<path d="M82.2231 39.2734C82.6698 39.1578 83.0873 38.9498 83.4485 38.6629C84.3952 37.8224 84.9783 36.6471 85.0746 35.385C85.1568 34.5189 85.1798 33.6481 85.1433 32.7788C85.088 31.7681 85.1663 30.7545 85.3762 29.7643C85.505 29.2281 85.7121 28.7138 85.9908 28.238C86.2873 27.7347 86.7012 27.3106 87.197 27.0016C88.2315 26.3682 89.4873 26.3987 90.6325 26.0057C91.1906 25.8102 91.6925 25.4814 92.0945 25.0479C92.4815 24.6174 92.8266 24.151 93.1252 23.6551C93.7359 22.6935 94.3238 21.6823 95.2552 21.0832C95.7026 20.7986 96.2067 20.615 96.7325 20.5452C97.2194 20.4799 97.7114 20.4594 98.2021 20.4842C99.0702 20.5518 99.9425 20.5441 100.809 20.4613C102.06 20.2898 103.25 19.8156 104.275 19.0799C104.551 18.878 104.816 18.6614 105.069 18.4312L105.264 18.2481L105.337 18.187C105.041 18.5479 104.7 18.8686 104.321 19.141C103.297 19.911 102.096 20.4134 100.828 20.6024C99.9546 20.6933 99.0746 20.7086 98.1983 20.6482C97.2745 20.6482 96.2248 20.6482 95.3544 21.2397C94.4841 21.8311 93.9001 22.7889 93.2893 23.7582C92.9848 24.2666 92.632 24.7445 92.2358 25.1853C91.816 25.6398 91.292 25.9856 90.7089 26.1927C89.5331 26.5971 88.2811 26.5743 87.3153 27.1695C86.4082 27.7853 85.7812 28.7344 85.5709 29.8101C85.3589 30.7833 85.2755 31.7801 85.3227 32.775C85.3558 33.6524 85.3252 34.5311 85.2311 35.4041C85.1186 36.6938 84.5013 37.8869 83.5134 38.7239C83.2398 38.9398 82.9276 39.1017 82.5934 39.2009C82.5068 39.2259 82.4189 39.2463 82.33 39.2619C82.2955 39.2726 82.2592 39.2765 82.2231 39.2734Z" fill="#455A64"/>
<path d="M86.0483 23.4681C86.2971 23.5555 86.5524 23.6231 86.8118 23.6704C87.5172 23.7564 88.2326 23.6386 88.8731 23.3308C89.807 22.8396 90.6429 22.1813 91.339 21.3885C91.7589 20.9611 92.1979 20.5032 92.6942 20.072C93.203 19.6127 93.7848 19.2413 94.4157 18.9731C95.057 18.7229 95.739 18.5935 96.4274 18.5915C97.0587 18.5899 97.6896 18.6243 98.3169 18.6945C98.9124 18.7517 99.4621 18.8128 100.004 18.8166C100.494 18.8246 100.984 18.785 101.466 18.6983C102.166 18.5886 102.824 18.2964 103.375 17.8512C103.564 17.6738 103.744 17.4866 103.913 17.2903C103.885 17.3524 103.851 17.4113 103.81 17.4658C103.766 17.5358 103.716 17.6021 103.661 17.6642C103.589 17.7522 103.51 17.8339 103.424 17.9084C102.875 18.3905 102.202 18.7114 101.481 18.8357C100.991 18.9338 100.493 18.9824 99.9927 18.9807C99.4545 18.9807 98.8857 18.9273 98.2864 18.8777C97.6664 18.8117 97.0432 18.7811 96.4198 18.7861C95.7556 18.7852 95.0969 18.9068 94.4768 19.1448C93.2133 19.6676 92.3048 20.6711 91.4574 21.5068C90.7428 22.309 89.8811 22.967 88.9189 23.4452C88.2539 23.7528 87.5119 23.8538 86.7889 23.7352C86.594 23.6984 86.4044 23.6382 86.2239 23.5559C86.1627 23.5325 86.1038 23.5031 86.0483 23.4681Z" fill="#455A64"/>
<path d="M113.666 34.1678C113.76 33.934 113.822 33.689 113.853 33.4389C113.888 32.7546 113.698 32.0776 113.311 31.5119C112.868 30.7488 112.047 30.1077 111.215 29.2949C110.767 28.8708 110.391 28.3757 110.104 27.8296C109.825 27.23 109.665 26.5822 109.631 25.9217C109.543 24.5671 109.776 23.3002 109.745 22.1517C109.789 21.1359 109.494 20.1344 108.906 19.305C108.495 18.7571 107.9 18.3762 107.23 18.2328C106.977 18.1964 106.721 18.19 106.466 18.2137C106.528 18.186 106.594 18.168 106.661 18.1603C106.85 18.1344 107.041 18.1344 107.23 18.1603C107.934 18.2783 108.568 18.6571 109.005 19.2211C109.596 19.9041 109.902 20.9878 109.917 22.1517C109.932 23.3155 109.73 24.59 109.818 25.9103C109.848 26.549 110.001 27.176 110.268 27.7571C110.542 28.2871 110.902 28.768 111.333 29.1804C112.143 29.9894 112.979 30.6686 113.418 31.47C113.809 32.0637 113.985 32.7732 113.918 33.4809C113.893 33.6701 113.839 33.8543 113.757 34.0266C113.733 34.0772 113.702 34.1246 113.666 34.1678Z" fill="#455A64"/>
<path d="M79.8834 36.4534C79.7993 36.414 79.7177 36.3694 79.6391 36.3199C79.4177 36.1705 79.2185 35.9907 79.0474 35.7857C78.7321 35.4013 78.5034 34.9535 78.3769 34.4728C78.2505 33.9921 78.2292 33.4898 78.3145 33.0001C78.376 32.6742 78.4854 32.3592 78.639 32.0652C78.8216 31.757 79.0479 31.4768 79.3108 31.2334C79.9137 30.7378 80.5815 30.327 81.2958 30.0123C82.0721 29.6806 82.789 29.2243 83.4181 28.6615C84.0259 27.9933 84.4414 27.1732 84.6206 26.288C84.8496 25.3837 85.0023 24.4679 85.3039 23.6169C85.5865 22.8034 85.9591 22.024 86.4147 21.2931C87.1798 20.0526 88.1626 18.9603 89.3158 18.0687C90.0903 17.4677 90.9398 16.97 91.8428 16.5881C92.0855 16.4814 92.334 16.3884 92.5871 16.3096C92.673 16.274 92.7627 16.2484 92.8543 16.2333C92.8543 16.2562 92.4955 16.3706 91.8733 16.6606C90.9899 17.065 90.1603 17.5778 89.4036 18.187C88.2774 19.0812 87.3184 20.1677 86.5712 21.3961C86.1272 22.1168 85.7648 22.8847 85.4909 23.6856C85.2008 24.5175 85.0481 25.4218 84.8114 26.3567C84.6252 27.2763 84.1909 28.1274 83.5556 28.8179C82.9109 29.3935 82.1758 29.8589 81.3797 30.1955C80.6773 30.4994 80.0187 30.8959 79.4215 31.3746C79.1696 31.6051 78.9512 31.8696 78.7726 32.1606C78.6223 32.4381 78.5142 32.7365 78.4519 33.0459C78.357 33.5835 78.387 34.1358 78.5397 34.66C78.6567 35.0576 78.8485 35.4293 79.1047 35.7551C79.3332 36.0203 79.5949 36.255 79.8834 36.4534Z" fill="#263238"/>
<path d="M114.742 34.5226C114.723 34.5226 114.903 34.3395 115.147 33.977C115.484 33.4642 115.714 32.8896 115.826 32.2866C115.986 31.392 115.954 30.4736 115.731 29.5926C115.434 28.5172 114.973 27.4939 114.364 26.559C113.735 25.5478 113.055 24.632 112.483 23.7658C111.964 23.0029 111.513 22.1959 111.135 21.3542C110.881 20.7839 110.695 20.1858 110.582 19.5722C110.552 19.4055 110.531 19.2374 110.52 19.0685C110.512 19.0103 110.512 18.9512 110.52 18.8929C110.52 18.8929 110.566 19.1333 110.662 19.5569C110.8 20.1611 111.001 20.7494 111.261 21.3122C111.655 22.1361 112.115 22.9272 112.635 23.678C113.212 24.5366 113.899 25.4486 114.544 26.4712C115.164 27.4236 115.629 28.4681 115.922 29.5659C116.14 30.4732 116.159 31.4172 115.975 32.3324C115.845 32.9488 115.585 33.5303 115.212 34.038C115.111 34.1746 114.999 34.3023 114.876 34.4196C114.836 34.4597 114.791 34.4943 114.742 34.5226Z" fill="#263238"/>
<path d="M75.0927 87.7079L71.9588 93.1608C71.9588 93.1608 56.3806 87.4637 47.2612 89.1236C43.7914 89.7532 40.081 97.6177 45.1351 102.67C50.0631 107.596 58.8771 114.564 75.4172 116.819C75.8294 116.872 82.605 118.326 82.1852 118.277C81.7653 118.227 91.6824 119.803 91.6824 119.803L94.011 111.004L112.483 113.9C123.369 113.16 128.698 101.521 122.14 97.7741C116.033 94.2826 104.527 94.0003 104.527 94.0003L100.359 87.4675L75.0927 87.7079Z" fill="#263238"/>
<path d="M92.0605 120.143C92.1063 119.845 92.24 119.044 92.5072 117.399C92.656 116.521 92.8354 115.453 93.0683 114.224C93.1866 113.606 93.3164 112.953 93.4729 112.263C93.5531 111.916 93.6371 111.565 93.7401 111.202C93.7897 111.023 93.8432 110.843 93.9081 110.66C93.9667 110.463 94.0626 110.279 94.1906 110.118L94.2173 110.252C90.2855 108.855 85.3689 107.012 80.1317 104.803C76.9099 103.433 73.8714 102.052 71.1955 100.605C69.9194 99.9405 68.6945 99.1816 67.531 98.335C66.4469 97.5336 65.4773 96.7323 64.5688 96.0454C62.7747 94.626 61.1333 93.7101 59.9232 93.3209C59.6567 93.2263 59.3853 93.146 59.1101 93.0805C58.9108 93.0245 58.7081 92.9812 58.5032 92.9508L58.1215 92.8821L57.9917 92.8516C58.0361 92.8465 58.0809 92.8465 58.1253 92.8516L58.507 92.9012C58.7155 92.9235 58.9221 92.9605 59.1254 93.0118C59.4046 93.0701 59.6799 93.1453 59.9499 93.237C60.6938 93.4779 61.4103 93.7964 62.0876 94.1871C62.9835 94.7051 63.8419 95.2853 64.6566 95.9233C65.5727 96.614 66.5423 97.4077 67.6302 98.2128C68.7907 99.0501 70.0118 99.8 71.2833 100.457C73.9554 101.884 76.9901 103.261 80.208 104.627C85.4414 106.833 90.3504 108.691 94.2707 110.107L94.3814 110.149L94.2974 110.24C94.1903 110.386 94.109 110.548 94.057 110.721C93.9921 110.897 93.9386 111.076 93.8852 111.252C93.7821 111.606 93.6943 111.961 93.6142 112.301C93.4538 112.988 93.3164 113.64 93.1943 114.255C92.95 115.483 92.7591 116.544 92.5988 117.422C92.4384 118.299 92.3087 118.967 92.217 119.444C92.1712 119.677 92.1369 119.856 92.1063 119.975C92.0949 120.032 92.0796 120.088 92.0605 120.143Z" fill="#455A64"/>
<path d="M118.56 98.8426H118.457L118.17 98.7968C117.918 98.7624 117.552 98.6709 117.067 98.6213C115.709 98.4425 114.338 98.394 112.971 98.4762C110.943 98.6068 108.933 98.9391 106.97 99.4684C105.863 99.7622 104.711 100.113 103.535 100.522C102.359 100.93 101.153 101.399 99.92 101.891C98.7169 102.369 97.4869 102.775 96.2364 103.109C95.0263 103.441 93.8468 103.7 92.7169 103.918C90.4571 104.36 88.3996 104.631 86.6742 104.841C84.9488 105.051 83.5479 105.192 82.5821 105.291L81.4675 105.402L81.1774 105.425C81.1445 105.43 81.111 105.43 81.0781 105.425H81.1736L81.4637 105.383L82.5707 105.234L86.6551 104.723C88.3805 104.494 90.4304 104.208 92.6787 103.757C93.8048 103.536 94.9691 103.273 96.1829 102.937C97.4262 102.603 98.6497 102.199 99.8475 101.727C101.077 101.235 102.287 100.762 103.474 100.357C104.661 99.953 105.814 99.5943 106.928 99.3081C108.903 98.7849 110.927 98.4665 112.967 98.358C114.342 98.2863 115.721 98.3553 117.082 98.564C117.567 98.6251 117.93 98.7319 118.182 98.7777L118.468 98.8426C118.498 98.8385 118.529 98.8385 118.56 98.8426Z" fill="#455A64"/>
<path d="M90.0982 95.6754C90.0982 95.8052 89.2737 96.015 87.888 96.1448C84.2698 96.4406 80.6283 96.0522 77.154 95C75.8294 94.5803 75.0545 94.1949 75.0927 94.069C75.1805 93.7942 78.4518 94.6642 82.5744 95.0916C86.6971 95.519 90.0715 95.3854 90.0982 95.6754Z" fill="#263238"/>
<path d="M104.703 94.13C104.504 94.2 104.3 94.2548 104.092 94.2941C103.851 94.3427 103.613 94.4039 103.378 94.4772C103.103 94.5574 102.787 94.6413 102.447 94.7634C101.644 95.0318 100.857 95.3439 100.088 95.6983C99.2251 96.1104 98.2937 96.5989 97.3432 97.1636C95.7332 98.1456 94.189 99.2316 92.7205 100.415C92.1556 100.865 91.7013 101.239 91.3921 101.498C91.2369 101.64 91.0695 101.768 90.8921 101.88C91.0296 101.72 91.1789 101.571 91.3387 101.434C91.6364 101.155 92.0754 100.766 92.6327 100.289C94.0819 99.0662 95.6236 97.9575 97.244 96.9728C98.1399 96.438 99.0637 95.9515 100.011 95.5152C100.789 95.1633 101.589 94.8612 102.405 94.6108C102.748 94.4963 103.069 94.42 103.352 94.3513C103.59 94.2862 103.832 94.2352 104.077 94.1987C104.283 94.1579 104.493 94.1349 104.703 94.13Z" fill="#455A64"/>
<path d="M87.3844 101.888C87.0072 101.831 86.639 101.726 86.2889 101.575C85.4343 101.248 84.5994 100.872 83.7886 100.449L81.3723 99.1783C81.0286 99.0199 80.6958 98.8389 80.376 98.6365C80.743 98.7384 81.0986 98.8778 81.4372 99.0524C82.0746 99.3424 82.9373 99.785 83.8878 100.27C84.8383 100.754 85.7048 101.174 86.3499 101.445C86.9951 101.716 87.3921 101.857 87.3844 101.888Z" fill="#455A64"/>
<path d="M89.0677 88.3643C89.0983 88.3643 89.0448 88.9366 88.9876 89.8563C88.9303 90.7759 88.8769 92.0465 88.9036 93.4508C88.9303 94.855 89.0334 96.1219 89.125 97.0453C89.197 97.5387 89.2442 98.0354 89.2662 98.5335C89.216 98.4114 89.1826 98.283 89.167 98.1519C89.1135 97.9001 89.0525 97.5299 88.9876 97.072C88.8221 95.8767 88.7278 94.6726 88.7051 93.466C88.6827 92.2611 88.7299 91.0558 88.8463 89.8563C88.896 89.3945 88.9418 89.0244 88.9838 88.7687C88.9952 88.631 89.0234 88.4952 89.0677 88.3643Z" fill="#455A64"/>
<path d="M90.8048 88.929C90.8048 88.929 90.736 88.99 90.6406 89.1045C90.507 89.2641 90.4222 89.4589 90.3963 89.6654C90.3748 89.8138 90.3851 89.9651 90.4266 90.1091C90.4681 90.2532 90.5397 90.3868 90.6368 90.5011C90.7702 90.6196 90.9334 90.6997 91.1088 90.7327C91.2842 90.7657 91.4653 90.7504 91.6327 90.6885C91.8001 90.6265 91.9475 90.5203 92.0592 90.3811C92.1709 90.2419 92.2426 90.075 92.2668 89.8982C92.2629 89.747 92.2269 89.5983 92.1611 89.4621C92.0953 89.3259 92.0012 89.2053 91.885 89.1083C91.7314 88.9683 91.5405 88.8755 91.3354 88.8412C91.1865 88.8183 91.1025 88.8412 91.0987 88.8145C91.0949 88.7878 91.1788 88.7649 91.343 88.7649C91.5745 88.7717 91.7973 88.8549 91.9767 89.0015C92.1161 89.107 92.2296 89.2429 92.3083 89.399C92.3871 89.5551 92.429 89.7272 92.4309 89.902C92.4133 90.1193 92.3339 90.327 92.2022 90.5008C92.0705 90.6745 91.8919 90.8071 91.6874 90.8828C91.4829 90.9586 91.2611 90.9744 91.0479 90.9284C90.8347 90.8824 90.6391 90.7765 90.4841 90.6232C90.3732 90.4882 90.294 90.3299 90.2523 90.1602C90.2107 89.9905 90.2077 89.8136 90.2436 89.6425C90.2842 89.4133 90.3997 89.204 90.5719 89.0473C90.7093 88.9442 90.8009 88.9214 90.8048 88.929Z" fill="#455A64"/>
<path d="M95.5456 82.6443C95.4609 82.7821 95.361 82.9101 95.2478 83.0259C94.9613 83.3662 94.6554 83.6898 94.3317 83.9951C93.8526 84.4509 93.3424 84.8729 92.8048 85.2581C92.143 85.7269 91.4477 86.1465 90.7244 86.5135C89.9973 86.8708 89.2445 87.1731 88.4723 87.4179C87.8396 87.6144 87.1943 87.7674 86.5407 87.8758C86.1026 87.9523 85.6603 88.002 85.2162 88.0246C85.0537 88.0404 84.89 88.0404 84.7275 88.0246C84.7275 87.9865 85.4185 87.9483 86.5178 87.7346C87.1632 87.6067 87.8005 87.441 88.4264 87.2386C90.574 86.5372 92.5524 85.3976 94.2363 83.8921C95.0684 83.1518 95.5151 82.6214 95.5456 82.6443Z" fill="#263238"/>
<path d="M102.512 86.8799C102.512 86.9371 101.825 86.9371 101.015 87.1432C100.206 87.3492 99.5955 87.6545 99.5649 87.6049C100.412 86.9823 101.472 86.7215 102.512 86.8799Z" fill="#263238"/>
<path opacity="0.3" d="M86.491 87.8338C89.8095 87.2259 92.8156 85.4895 94.9996 82.9189C95.1983 83.523 95.2254 84.1703 95.0778 84.7887C94.9302 85.4072 94.6137 85.9726 94.1636 86.4219C95.1332 86.8798 96.2707 86.5745 97.3319 86.4219C98.3931 86.2693 99.691 86.4219 100.199 87.3644C95.4508 87.8037 90.6798 87.9401 85.9146 87.7727" fill="black"/>
<path d="M77.0127 80.3548C76.5344 79.9019 75.9767 79.541 75.3675 79.2902C74.7025 79.0324 73.9923 78.9117 73.2795 78.9353C72.4083 78.9666 71.5557 79.1963 70.7868 79.6069C69.1225 80.4693 68.1147 81.9422 67.3818 82.8847C67.0979 83.2806 66.8428 83.6963 66.6184 84.1287C66.5442 84.2912 66.4561 84.447 66.355 84.5942C66.4029 84.4215 66.4681 84.254 66.5497 84.0943C66.7456 83.6447 66.9807 83.2132 67.252 82.8046C67.607 82.2933 68.0651 81.7209 68.5919 81.0951C69.1826 80.4174 69.8913 79.8524 70.6837 79.4276C71.4807 79.0041 72.3657 78.7728 73.268 78.7522C74.0037 78.7374 74.7344 78.8765 75.4133 79.1605C75.8698 79.347 76.2889 79.6146 76.6501 79.9503C76.7504 80.0384 76.8424 80.1354 76.9249 80.2403C76.9898 80.3128 77.0203 80.351 77.0127 80.3548Z" fill="#263238"/>
<path d="M87.0104 43.757L81.6777 44.8903L84.346 54.8611L93.7784 56.8873L100.252 52.293L101.142 46.7982L95.5916 44.6995L87.0104 43.757Z" fill="#FFBE9D"/>
<path d="M83.2543 44.4783C83.2543 44.4783 86.8615 54.9489 93.5264 53.9797C100.191 53.0105 99.634 46.2259 99.634 46.2259C99.634 46.2259 106.589 48.3475 108.738 50.6027C110.887 52.8579 109.62 57.7612 109.62 57.7612L107.818 66.6216L103.894 83.5945C103.894 83.5945 105.394 88.2269 101.558 89.3717L100.348 87.4638L77.3414 88.1125C77.3414 88.1125 72.4209 93.7828 70.8864 91.8291C69.3519 89.8754 67.8784 86.0595 67.8784 86.0595L78.4484 45.7337L83.2543 44.4783Z" fill="#316FEA"/>
<path d="M106.921 49.2633C107.108 49.3701 123.255 61.0924 123.255 61.0924C123.255 61.0924 121.988 70.7389 129.744 69.2049C129.744 69.2049 126.614 77.2716 122.377 75.5774C121.171 75.0966 106.287 65.6829 106.287 65.6829L103.13 58.9632L106.921 49.2633Z" fill="#316FEA"/>
<path d="M83.2538 44.9934C83.2538 44.9934 82.872 44.9934 82.2727 45.0621C79.1121 45.3674 67.4466 47.7828 66.3663 56.0136C65.8014 60.3179 65.641 72.9063 65.0303 78.1837C65.0303 78.1837 66.0037 85.5177 66.3663 86.8762C67.0114 89.2954 78.6998 85.4185 78.6998 85.4185L78.7227 62.1418L82.8988 45.0049" fill="#316FEA"/>
<path d="M75.8714 66.1407C75.8819 66.2026 75.8819 66.2658 75.8714 66.3277C75.8743 66.5089 75.8871 66.6898 75.9096 66.8696C75.9925 67.5238 76.158 68.1648 76.402 68.7775C76.6997 69.5636 77.1654 70.4565 77.6082 71.4791C77.8515 72.0157 78.0556 72.5692 78.219 73.1352C78.3826 73.7459 78.4887 74.3706 78.5358 75.0011C78.6039 76.2151 78.572 77.4327 78.4404 78.6415C78.345 79.7557 78.2534 80.7593 78.1159 81.5949C78.0118 82.2557 77.8574 82.9075 77.654 83.5448C77.5777 83.77 77.5128 83.9264 77.4632 84.0561C77.4437 84.1172 77.4154 84.175 77.3792 84.2279C77.3792 84.2279 77.4517 83.976 77.5815 83.5219C77.7523 82.8812 77.8798 82.2298 77.9632 81.572C78.0854 80.7402 78.1617 79.7404 78.2495 78.63C78.3664 77.4291 78.392 76.2211 78.3259 75.0164C78.281 74.3977 78.1787 73.7846 78.0205 73.1848C77.8615 72.6273 77.6638 72.0816 77.4288 71.5516C76.986 70.5328 76.5432 69.6246 76.2569 68.8271C76.0196 68.1972 75.8731 67.5369 75.8218 66.8658C75.8062 66.6842 75.8062 66.5016 75.8218 66.3201C75.833 66.259 75.8496 66.1989 75.8714 66.1407Z" fill="#263238"/>
<path d="M76.4098 63.2025C76.4441 63.2025 76.4708 63.794 76.6044 64.7289C76.7776 65.9593 77.0625 67.1714 77.4557 68.3501C77.574 68.6973 77.6962 69.0293 77.8374 69.3499C77.8651 69.4241 77.897 69.4967 77.9328 69.5674L78.0703 69.7772C78.1589 69.9168 78.2404 70.0607 78.3146 70.2084C78.5877 70.7157 78.7356 71.2809 78.7459 71.8569C78.748 72.2496 78.6715 72.6389 78.5207 73.0016C78.468 73.1376 78.3974 73.2659 78.3107 73.3832C78.5036 72.9107 78.6034 72.4054 78.6047 71.895C78.5769 71.3446 78.4228 70.808 78.1542 70.3267C78.0817 70.1893 77.9977 70.052 77.9099 69.9146L77.7725 69.7047C77.7263 69.626 77.6879 69.5429 77.658 69.4567C77.5244 69.1362 77.4022 68.7966 77.2763 68.4493C76.8755 67.2587 76.6067 66.0277 76.4746 64.7785C76.4212 64.3015 76.4059 63.9084 76.4021 63.6337C76.3879 63.4902 76.3904 63.3455 76.4098 63.2025Z" fill="#263238"/>
<path d="M76.8753 59.7072C76.8447 59.7072 76.6691 59.2302 76.3256 58.4785C75.8761 57.4965 75.3355 56.5588 74.7109 55.6777C74.0811 54.8015 73.372 53.9853 72.5923 53.2394C71.993 52.667 71.5884 52.3426 71.6113 52.3159C71.7215 52.3681 71.8242 52.4349 71.9167 52.5143C72.1817 52.7083 72.4366 52.9159 72.6801 53.1363C74.3206 54.5896 75.6089 56.3969 76.4477 58.4213C76.6042 58.8029 76.7187 59.1272 76.7836 59.3523C76.8288 59.4664 76.8596 59.5856 76.8753 59.7072Z" fill="#263238"/>
<path d="M109.959 52.8693C109.967 53.1789 109.942 53.4885 109.883 53.7927C109.814 54.3613 109.715 55.1435 109.627 56.0097C109.539 56.8759 109.467 57.662 109.417 58.2343C109.411 58.544 109.373 58.8523 109.303 59.154C109.259 58.8468 109.25 58.5358 109.276 58.2267C109.276 57.6505 109.337 56.8606 109.429 55.9906C109.52 55.1206 109.639 54.3345 109.742 53.7736C109.78 53.465 109.853 53.1616 109.959 52.8693Z" fill="#263238"/>
<path d="M113.281 62.6684C113.281 62.7028 112.777 62.7524 111.994 62.9737C110.975 63.2562 110.048 63.7994 109.303 64.5496C108.907 64.9735 108.563 65.4422 108.276 65.9462C108.052 66.3651 107.855 66.7985 107.688 67.2436L107.501 67.7625C107.455 67.9037 107.417 68.0373 107.379 68.1441C107.352 68.2611 107.31 68.3739 107.253 68.4799C107.251 68.3595 107.269 68.2395 107.307 68.125L107.394 67.7168L107.555 67.1825C107.706 66.7221 107.894 66.2742 108.116 65.8432C108.404 65.3308 108.755 64.8564 109.162 64.4313C109.926 63.6543 110.895 63.1093 111.956 62.8592C112.136 62.8095 112.32 62.7725 112.506 62.7485C112.643 62.7223 112.782 62.7044 112.922 62.6951C113.039 62.6674 113.16 62.6584 113.281 62.6684Z" fill="#263238"/>
<path d="M123.972 73.2878C123.872 73.1551 123.786 73.0118 123.717 72.8605C123.637 72.7231 123.545 72.5476 123.449 72.3377C123.354 72.1278 123.24 71.8989 123.14 71.628C122.889 71.0014 122.683 70.3574 122.526 69.701C122.334 68.8944 122.207 68.074 122.144 67.2474C122.092 66.4221 122.106 65.5939 122.186 64.7709C122.256 64.0995 122.373 63.4338 122.537 62.779C122.598 62.4966 122.686 62.2486 122.751 62.0158C122.803 61.8277 122.867 61.6429 122.942 61.4625C122.992 61.3034 123.058 61.1499 123.14 61.0046C123.178 61.0046 122.923 61.68 122.675 62.7943C122.532 63.4462 122.43 64.1064 122.369 64.7709C122.301 65.5857 122.291 66.4044 122.339 67.2207C122.4 68.0359 122.52 68.8457 122.697 69.6437C122.846 70.2908 123.035 70.928 123.262 71.5516C123.667 72.6468 124.007 73.2726 123.972 73.2878Z" fill="#263238"/>
<path d="M119.777 70.4221C119.708 70.2936 119.657 70.1562 119.625 70.0138C119.518 69.6385 119.439 69.2559 119.388 68.8691C119.224 67.5661 119.347 66.243 119.747 64.9922C120.136 63.7359 120.803 62.5831 121.697 61.619C121.966 61.3082 122.34 61.1072 122.747 61.0542C122.859 61.0511 122.97 61.0733 123.072 61.1191C123.136 61.1535 123.171 61.1763 123.167 61.184C123.033 61.1407 122.892 61.1226 122.751 61.1306C122.377 61.2127 122.042 61.4184 121.8 61.7144C120.955 62.685 120.321 63.8207 119.938 65.0494C119.548 66.2814 119.408 67.5786 119.525 68.8653C119.625 69.8192 119.812 70.4107 119.777 70.4221Z" fill="#263238"/>
<path opacity="0.3" d="M80.3071 72.2995L78.1084 64.2862C78.0015 63.9046 77.8221 63.4353 77.4213 63.3628C77.2328 63.3562 77.0485 63.4196 76.904 63.5408C76.7595 63.662 76.665 63.8324 76.6387 64.0191C76.5853 64.4078 76.5853 64.8019 76.6387 65.1905C76.8105 66.9344 76.9479 68.1173 77.761 69.4681C79.3451 72.101 78.303 73.3794 78.303 73.3794C78.429 76.5847 78.158 80.9576 77.1579 84.2507L78.1007 88.223C78.994 85.2695 81.0362 82.8083 81.3797 79.7404C81.6431 77.2257 80.9904 74.734 80.3071 72.2995Z" fill="black"/>
<path opacity="0.3" d="M107.826 66.6749C110.44 68.0334 112.765 69.9108 115.311 71.3646C114.315 69.285 112.639 67.2282 110.624 66.1254C110.098 65.786 109.478 65.6217 108.853 65.6561C108.234 65.7438 107.791 66.0911 107.887 66.7054" fill="black"/>
<path opacity="0.3" d="M122.808 60.9245C121.915 60.9016 121.243 61.7144 120.804 62.4928C119.569 64.7078 119.065 67.2553 119.361 69.7734C119.414 70.2237 119.582 70.7655 120.029 70.8533C120.194 70.8715 120.36 70.8355 120.503 70.7508C120.645 70.6661 120.756 70.5374 120.819 70.384C120.942 70.0777 120.993 69.7475 120.968 69.4186C120.968 67.8922 120.861 66.3468 121.083 64.8395C121.304 63.3323 121.873 61.8059 122.991 60.7719" fill="black"/>
<path d="M83.6242 108.531L81.2919 104.158L76.047 79.6183C76.047 79.6183 71.222 76.848 67.2674 82.919C67.1109 83.1632 72.7031 100.739 74.2644 105.627L74.482 110.305C74.482 110.305 74.2071 115.842 74.482 116.327C74.7278 116.666 75.0636 116.931 75.4515 117.09C75.4515 117.09 75.2454 118.475 76.8372 118.616C76.8372 118.616 76.9746 120.143 78.1503 119.933C78.4699 119.894 78.7776 119.787 79.0527 119.62C79.3279 119.453 79.5642 119.229 79.7459 118.963C79.7459 118.963 79.7459 120.898 80.7842 120.692C81.8225 120.486 81.9905 119.654 82.1813 119.379C82.3722 119.105 82.5936 116.262 82.5936 116.262L82.5745 111.576L85.2771 113.766C86.0405 114.148 87.2048 114.636 87.8537 114.052L83.6242 108.531Z" fill="#FFBE9D"/>
<path d="M82.5781 111.336C82.7558 112.165 82.8073 113.017 82.7308 113.862C82.7003 114.51 82.6735 115.102 82.6468 115.644C82.6553 115.891 82.6322 116.139 82.5781 116.38C82.4717 115.542 82.4563 114.695 82.5323 113.854C82.601 112.465 82.517 111.343 82.5781 111.336Z" fill="#EB996E"/>
<path d="M79.6009 114.602C79.7535 116.143 79.774 117.694 79.6619 119.238C79.5093 117.697 79.4888 116.146 79.6009 114.602Z" fill="#EB996E"/>
<path d="M77.1044 115.453C77.2803 116.53 77.1738 117.635 76.7952 118.658C76.7418 118.658 76.8792 117.937 76.9594 117.056C76.9783 116.519 77.0267 115.984 77.1044 115.453Z" fill="#EB996E"/>
<path d="M75.4972 114.911C75.5614 115.614 75.4915 116.322 75.2911 116.998C75.2239 116.65 75.2239 116.293 75.2911 115.945C75.2961 115.591 75.366 115.24 75.4972 114.911Z" fill="#EB996E"/>
<path d="M248.112 40.5818L244.6 34.3925C246.771 30.8692 247.545 26.6615 246.77 22.5966C245.996 18.5318 243.728 14.9036 240.413 12.4253C237.098 9.94695 232.975 8.79771 228.856 9.20344C224.736 9.60917 220.917 11.5405 218.15 14.6179C215.382 17.6953 213.866 21.6961 213.9 25.834C213.934 29.9719 215.514 33.9476 218.331 36.9797C221.148 40.0118 224.998 41.8811 229.123 42.22C233.249 42.5589 237.352 41.343 240.627 38.8113L248.112 40.5818Z" fill="white"/>
<path d="M248.112 40.5819L240.612 38.8648C240.605 38.8639 240.599 38.8617 240.593 38.8583C240.588 38.8548 240.583 38.8502 240.579 38.8448C240.576 38.8394 240.573 38.8333 240.572 38.8268C240.571 38.8204 240.572 38.8139 240.573 38.8076C240.573 38.8076 240.573 38.8076 240.573 38.7885L240.642 38.8572C239.592 39.6736 238.449 40.3627 237.237 40.9101C235.799 41.5564 234.276 41.9946 232.714 42.2113C231.846 42.3321 230.97 42.3755 230.095 42.341C229.641 42.3181 229.183 42.3067 228.721 42.2685L227.32 42.0548C223.151 41.2375 219.451 38.8633 216.971 35.4153C215.594 33.5071 214.64 31.3266 214.173 29.0199C213.695 26.5807 213.761 24.0659 214.368 21.6553C214.994 19.1367 216.211 16.8032 217.918 14.8479L218.594 14.0847C218.819 13.8328 219.082 13.6268 219.323 13.3978C219.563 13.1689 219.804 12.9361 220.086 12.7453L220.88 12.1501C221.142 11.949 221.417 11.7666 221.705 11.6044L222.545 11.0969L223.423 10.6695C223.711 10.5238 224.008 10.3964 224.312 10.2879C226.668 9.354 229.204 8.96273 231.733 9.14317C234.124 9.30463 236.451 9.99125 238.546 11.1541C242.308 13.2578 245.116 16.7265 246.391 20.8426C246.905 22.5899 247.148 24.4057 247.112 26.2267C247.066 27.8067 246.794 29.3718 246.303 30.8744C245.89 32.1234 245.331 33.3195 244.639 34.4384V34.3888L248.109 40.601L244.547 34.4155C244.543 34.4085 244.542 34.4006 244.542 34.3926C244.542 34.3847 244.543 34.3768 244.547 34.3697C245.226 33.2539 245.773 32.063 246.177 30.821C246.659 29.3276 246.924 27.7726 246.963 26.2038C246.992 24.3965 246.746 22.5952 246.234 20.8616C244.954 16.7962 242.165 13.3755 238.44 11.3029C236.366 10.1568 234.066 9.48067 231.702 9.32252C229.202 9.14915 226.694 9.54039 224.365 10.4673C224.065 10.5764 223.772 10.7038 223.487 10.8489L222.621 11.2686L221.789 11.7723C221.506 11.9329 221.234 12.1127 220.976 12.3103L220.189 12.898C219.922 13.0888 219.697 13.333 219.449 13.5467C219.201 13.7603 218.949 13.974 218.731 14.2221L218.063 14.9585C216.375 16.8904 215.171 19.1965 214.551 21.6859C213.951 24.0674 213.883 26.552 214.353 28.9627C214.813 31.2436 215.754 33.4004 217.113 35.2894C219.562 38.705 223.219 41.0622 227.343 41.8831L228.728 42.0968C229.187 42.135 229.641 42.1464 230.087 42.1731C230.957 42.2101 231.828 42.1693 232.691 42.051C234.246 41.8457 235.764 41.4191 237.199 40.7842C238.406 40.247 239.545 39.5695 240.592 38.7656C240.597 38.7606 240.603 38.7567 240.609 38.754C240.615 38.7512 240.622 38.7498 240.629 38.7498C240.636 38.7498 240.642 38.7512 240.648 38.754C240.655 38.7567 240.66 38.7606 240.665 38.7656C240.671 38.7747 240.674 38.7853 240.674 38.7961C240.674 38.8069 240.671 38.8175 240.665 38.8266L240.638 38.7465L248.112 40.5819Z" fill="#263238"/>
<path d="M225.633 22.575C225.374 22.4529 225.094 22.3804 224.808 22.3613C224.39 22.2942 223.96 22.3361 223.563 22.4832C223.165 22.6302 222.811 22.8774 222.537 23.2008C224.327 24.2387 226.767 25.6162 228.511 26.6122L230.714 25.353C229.126 24.4791 227.133 23.3802 225.633 22.575Z" fill="#E8505B"/>
<path opacity="0.3" d="M225.633 22.575C225.374 22.4529 225.094 22.3804 224.808 22.3613C224.39 22.2942 223.96 22.3361 223.563 22.4832C223.165 22.6302 222.811 22.8774 222.537 23.2008C224.327 24.2387 226.767 25.6162 228.511 26.6122L230.714 25.353C229.126 24.4791 227.133 23.3802 225.633 22.575Z" fill="black"/>
<path d="M232.378 28.9322L232.298 28.8635C231.748 28.5468 231.153 27.9439 230.611 27.9554C230.401 27.9554 230.172 28.1423 229.626 28.4476C228.717 28.9628 227.187 29.8595 226.271 30.3555C225.507 30.7867 224.538 31.1187 223.648 30.8287C223.194 30.6621 222.777 30.4094 222.419 30.0846L232.374 24.3151C232.325 24.1662 232.271 24.0251 232.222 23.8801C232.021 23.2962 232.016 22.6631 232.206 22.0759C232.396 21.4886 232.772 20.979 233.277 20.6237C233.782 20.2684 234.389 20.0865 235.006 20.1055C235.623 20.1244 236.218 20.3431 236.7 20.7287C237.182 21.1144 237.526 21.646 237.68 22.2438C237.834 22.8416 237.79 23.4732 237.554 24.0437C237.318 24.6141 236.903 25.0926 236.372 25.4072C235.84 25.7217 235.221 25.8553 234.607 25.788C234.378 25.7731 234.149 25.8192 233.943 25.9215C233.561 26.1047 233.21 26.3375 232.756 26.5969C233.519 26.9404 234.042 27.4898 234.939 27.4059C236.176 27.2914 237.272 28.1881 237.65 29.3825C237.828 29.9532 237.821 30.5655 237.63 31.1322C237.44 31.6988 237.075 32.1909 236.589 32.5382C236.099 32.8897 235.51 33.077 234.907 33.0731C234.304 33.0692 233.718 32.8743 233.233 32.5165C232.747 32.1586 232.388 31.6563 232.207 31.0815C232.025 30.5067 232.03 29.8892 232.222 29.3176C232.267 29.207 232.332 29.0772 232.378 28.9322ZM234.92 24.3532C235.103 24.3553 235.284 24.3207 235.453 24.2515C235.622 24.1823 235.775 24.0799 235.904 23.9503C236.032 23.8208 236.133 23.6667 236.201 23.4973C236.269 23.328 236.302 23.1467 236.298 22.9642C236.292 22.6045 236.146 22.2613 235.891 22.0076C235.636 21.7539 235.292 21.6097 234.932 21.6058C234.563 21.6098 234.211 21.7585 233.951 22.0197C233.691 22.281 233.544 22.6339 233.542 23.0024C233.553 23.3611 233.703 23.7016 233.96 23.9522C234.217 24.2027 234.561 24.3438 234.92 24.3456V24.3532ZM234.92 31.6339C235.28 31.6371 235.627 31.4997 235.888 31.251C236.148 31.0022 236.301 30.6618 236.314 30.3021C236.321 30.1196 236.292 29.9374 236.228 29.7665C236.163 29.5955 236.065 29.4392 235.939 29.3071C235.813 29.1749 235.661 29.0696 235.494 28.9973C235.326 28.925 235.145 28.8873 234.962 28.8864C234.602 28.8821 234.254 29.0177 233.992 29.2647C233.73 29.5118 233.574 29.8509 233.558 30.2105C233.554 30.5752 233.693 30.9269 233.945 31.1911C234.196 31.4553 234.541 31.6114 234.905 31.6262L234.92 31.6339Z" fill="#E8505B"/>
<path d="M231.217 26.5664C231.183 26.5664 231.198 26.3107 230.916 26.1085C230.838 26.0547 230.749 26.0206 230.655 26.0093C230.561 25.998 230.466 26.0098 230.378 26.0436C230.273 26.0854 230.182 26.1577 230.119 26.2513C230.056 26.3448 230.022 26.4552 230.022 26.5683C230.022 26.6813 230.056 26.7917 230.119 26.8852C230.182 26.9788 230.273 27.0511 230.378 27.0929C230.466 27.1268 230.561 27.1385 230.655 27.1272C230.749 27.1159 230.838 27.0819 230.916 27.0281C231.198 26.8258 231.183 26.5587 231.217 26.5664C231.252 26.574 231.248 26.6274 231.217 26.7343C231.195 26.8931 231.113 27.0375 230.988 27.1387C230.894 27.2168 230.782 27.2694 230.661 27.2915C230.541 27.3135 230.417 27.3043 230.301 27.2647C230.156 27.2148 230.03 27.1208 229.941 26.996C229.852 26.8712 229.804 26.7216 229.804 26.5683C229.804 26.4149 229.852 26.2654 229.941 26.1405C230.03 26.0157 230.156 25.9218 230.301 25.8719C230.417 25.8322 230.541 25.823 230.661 25.8451C230.782 25.8671 230.894 25.9197 230.988 25.9978C231.113 26.0976 231.195 26.2407 231.217 26.3985C231.248 26.5053 231.229 26.5664 231.217 26.5664Z" fill="#263238"/>
<path d="M233.653 26.0818C233.588 26.1304 233.521 26.175 233.451 26.2153L232.882 26.5588L231 27.6654L229.091 28.7491L228.511 29.0696C228.442 29.1127 228.369 29.1497 228.293 29.1803C228.357 29.1294 228.425 29.0835 228.496 29.0429L229.065 28.6995L230.946 27.5967L232.855 26.513L233.435 26.1886C233.505 26.1475 233.578 26.1118 233.653 26.0818Z" fill="#263238"/>
<path d="M231.997 24.5554C231.968 24.5793 231.937 24.6009 231.905 24.6203L231.63 24.792L230.615 25.4216C229.76 25.9406 228.573 26.6503 227.24 27.402L223.839 29.3329L222.789 29.89L222.507 30.0426L222.408 30.0922C222.408 30.0922 222.438 30.0693 222.499 30.0312L222.774 29.8633L223.797 29.2642L227.191 27.3143C228.519 26.5511 229.71 25.8604 230.577 25.3568L231.603 24.7653L231.886 24.605L231.997 24.5554Z" fill="#263238"/>
<path d="M127.631 28.3365L128.356 29.6606L129.68 30.3818L128.356 31.1069L127.631 32.431L126.909 31.1069L125.584 30.3818L126.909 29.6606L127.631 28.3365Z" fill="#E8505B"/>
<path d="M132.471 10.1997L133.223 10.1501L133.833 9.70361L133.883 10.4553L134.33 11.0621L133.578 11.1117L132.971 11.5619L132.921 10.8064L132.471 10.1997Z" fill="#E8505B"/>
<path d="M254.569 70.4139L255.325 70.3643L255.932 69.9178L255.981 70.6696L256.428 71.2763L255.676 71.3259L255.069 71.7723L255.019 71.0206L254.569 70.4139Z" fill="#E8505B"/>
<path d="M168.562 32.74L169.318 32.6904L169.925 32.2439L169.975 32.9956L170.422 33.6023L169.67 33.6519L169.063 34.1022L169.013 33.3467L168.562 32.74Z" fill="#E8505B"/>
<path d="M173.151 0.499875L173.903 0.45027L174.51 0L174.559 0.755536L175.01 1.36226L174.254 1.41186L173.647 1.85831L173.597 1.1066L173.151 0.499875Z" fill="#E8505B"/>
<path d="M150.038 20.5102L151.183 19.8501L151.794 18.6748L152.45 19.8234L153.626 20.4301L152.481 21.0902L151.87 22.2617L151.209 21.1169L150.038 20.5102Z" fill="#E8505B"/>
<path d="M246.251 85.5704L247.396 84.914L248.003 83.7388L248.663 84.8835L249.835 85.4941L248.69 86.1542L248.083 87.3257L247.423 86.1809L246.251 85.5704Z" fill="#E8505B"/>
<path d="M240.499 64.6404L241.648 63.9803L242.254 62.8088L242.915 63.9536L244.087 64.5641L242.942 65.2205L242.335 66.3957L241.674 65.251L240.499 64.6404Z" fill="#E8505B"/>
</svg>
