<svg id="Layer_1" data-name="Layer 1" xmlns="http://www.w3.org/2000/svg" viewBox="0 0 20.96 17.73"><defs><style>.cls-1{fill:#316fea;stroke:#316fea;stroke-miterlimit:10;stroke-width:0.25px;}</style></defs><title>download_csv</title><path class="cls-1" d="M11.18,2a.66.66,0,1,1,1.31,0c0,3.56,0,7.12,0,10.69,1-1.14,1.94-2.26,2.9-3.4A.79.79,0,0,1,16,8.94a.67.67,0,0,1,.71.69c0,.29-.23.5-.4.71-1.22,1.41-2.43,2.84-3.65,4.25-.18.2-.33.45-.59.53a.67.67,0,0,1-.7-.22l-4-4.71A.81.81,0,0,1,7,9.45a.67.67,0,0,1,1.17-.26l3,3.49Z" transform="translate(-1.35 -1.17)"/><path class="cls-1" d="M1.49,12.49a.65.65,0,0,1,1-.53.7.7,0,0,1,.36.71c0,1.59,0,3.18,0,4.77H21c0-1.65,0-3.31,0-5,0-.3.26-.48.48-.62a.7.7,0,0,1,.73.71c0,1.83,0,3.67,0,5.5a.68.68,0,0,1-.5.68,4.92,4.92,0,0,1-.77,0H2.18a.67.67,0,0,1-.7-.7C1.48,16.21,1.48,14.35,1.49,12.49Z" transform="translate(-1.35 -1.17)"/></svg>