<svg id="Isolation_Mode" data-name="Isolation Mode" xmlns="http://www.w3.org/2000/svg" viewBox="0 0 424 424"><defs><style>.cls-1{fill:#eef0f2;}.cls-2{fill:#868686;stroke:#868686;stroke-miterlimit:10;stroke-width:14px;}</style></defs><circle class="cls-1" cx="212" cy="212" r="212"/><path class="cls-2" d="M212.13,369.59A157.78,157.78,0,1,1,369.9,211.81,157.6,157.6,0,0,1,212.13,369.59Zm0-289.37c-72.51,0-131.59,59.08-131.59,131.59S139.62,343.4,212.13,343.4s131.59-59.08,131.59-131.59S284.63,80.22,212.13,80.22Z" transform="translate(0 0.19)"/><path class="cls-2" d="M247.72,232.24H210.13a13.46,13.46,0,0,1-13.43-13.43V143.62a13.43,13.43,0,1,1,26.85,0v61.77h24.84a13.46,13.46,0,0,1,13.43,13.42C261.82,226.2,255.11,232.24,247.72,232.24Z" transform="translate(0 0.19)"/></svg>