<svg id="Layer_1" data-name="Layer 1" xmlns="http://www.w3.org/2000/svg" viewBox="0 0 512 412.92"><defs><style>.cls-1{fill:#ea7a7a;}</style></defs><title>error_text</title><path class="cls-1" d="M486.74,239.89H403.27v-8a23.57,23.57,0,0,0-23.63-23.46H357.72a160.64,160.64,0,0,0-20.64-46.89l13.85-13.7a23.56,23.56,0,0,0,0-33.24L332,95.85a23.79,23.79,0,0,0-33.35,0l-14.39,14.22a164.16,164.16,0,0,0-49.39-20V73A23.57,23.57,0,0,0,211.2,49.54H184.34A23.58,23.58,0,0,0,160.71,73V90.1a164,164,0,0,0-51.34,21.21L99.2,101.25a23.8,23.8,0,0,0-33.35,0L46.86,120a23.56,23.56,0,0,0,0,33.24l10.33,10.21A160.16,160.16,0,0,0,36,216.11H23.63A23.57,23.57,0,0,0,0,239.56v26.56a23.58,23.58,0,0,0,23.63,23.46h14A160.51,160.51,0,0,0,61.2,341.4l-8.87,8.77a23.56,23.56,0,0,0,0,33.24l19,18.77a23.8,23.8,0,0,0,33.36,0l11.06-10.93a163.85,163.85,0,0,0,52.71,19V425a23.57,23.57,0,0,0,23.63,23.46h26.85A23.57,23.57,0,0,0,242.56,425V406.71c5.1-1.42,10.12-3.11,15.08-5V437.2a25.29,25.29,0,0,0,25.26,25.26H486.74A25.29,25.29,0,0,0,512,437.2v-172a25.29,25.29,0,0,0-25.26-25.26ZM257.63,265.15v38.09a77.18,77.18,0,0,1-56,24.44C158.81,327.68,124,292.39,124,249s34.84-78.66,77.66-78.66c39.72,0,72.81,30.7,77.14,69.91a25.27,25.27,0,0,0-21.14,24.89Zm16.52,26.27H495.48V409.84H274.15Zm221.33-26.27v9.76H274.15v-9.76a8.75,8.75,0,0,1,8.75-8.74H486.74a8.75,8.75,0,0,1,8.74,8.74ZM232.41,392.26a8.26,8.26,0,0,0-6.37,8V425a7,7,0,0,1-7.11,6.94H192.08A7,7,0,0,1,185,425V403.13a8.24,8.24,0,0,0-7.17-8.18,148.06,148.06,0,0,1-59-21.08A8.26,8.26,0,0,0,108.66,375l-15.6,15.41a7.22,7.22,0,0,1-10.12,0L64,371.66a6.92,6.92,0,0,1,0-9.75l13.9-13.75a8.26,8.26,0,0,0,.78-10.86,144.49,144.49,0,0,1-26.39-57.7,8.24,8.24,0,0,0-8.08-6.55H23.63a7,7,0,0,1-7.11-6.94V239.56a7,7,0,0,1,7.11-6.94H42.87A8.27,8.27,0,0,0,51,225.69,144,144,0,0,1,74.61,167a8.27,8.27,0,0,0-1-10.55l-15.12-15a6.9,6.9,0,0,1,0-9.75l19-18.78a7.23,7.23,0,0,1,10.13,0l14.92,14.76a8.27,8.27,0,0,0,10.49.94A147.8,147.8,0,0,1,170.45,105a8.26,8.26,0,0,0,6.77-8.13V73a7,7,0,0,1,7.11-6.94h26.86A7,7,0,0,1,218.3,73V96.83a8.27,8.27,0,0,0,6.77,8.13,148.22,148.22,0,0,1,55.68,22.48,8.25,8.25,0,0,0,10.38-1l19.08-18.85a7.22,7.22,0,0,1,10.12,0l19,18.77a6.92,6.92,0,0,1,0,9.75l-18.73,18.52a8.25,8.25,0,0,0-.93,10.64,144.66,144.66,0,0,1,23.47,53.18A8.25,8.25,0,0,0,351.2,225h28.44a7,7,0,0,1,7.11,6.95v8H295.32c-4.59-48.14-45-86.06-93.69-86.06-51.93,0-94.18,42.7-94.18,95.18s42.25,95.18,94.18,95.18a93.46,93.46,0,0,0,56-18.77V383.8a149.6,149.6,0,0,1-25.23,8.46Zm254.33,53.68H282.89a8.76,8.76,0,0,1-8.74-8.75V426.35H495.48v10.84A8.76,8.76,0,0,1,486.74,445.94Z" transform="translate(0 -49.54)"/><path class="cls-1" d="M324,377.25c-7.23,0-10.92-9.05-5.83-14.11L339,342.52l-20.32-20.2c-7.54-7.49,4.1-19.22,11.65-11.71l26.21,26.05a8.36,8.36,0,0,1,0,11.71l-26.64,26.48A8.2,8.2,0,0,1,324,377.25Z" transform="translate(0 -49.54)"/><path class="cls-1" d="M425.84,377.25H385.23c-10.64,0-10.66-16.51,0-16.51h40.61C436.48,360.74,436.5,377.25,425.84,377.25Z" transform="translate(0 -49.54)"/></svg>