<svg id="Layer_1" data-name="Layer 1" xmlns="http://www.w3.org/2000/svg" viewBox="0 0 20.42 14.72"><defs><style>.cls-1{fill:#9ea3af;}</style></defs><title>eye_gs</title><path class="cls-1" d="M12.91,5.13A9.45,9.45,0,0,1,19,6.91a15.49,15.49,0,0,1,4.31,4.34,2.21,2.21,0,0,1,.5,1.57,5.35,5.35,0,0,1-.86,1.57,15.21,15.21,0,0,1-4.82,4.28c-.17.1-.38.09-.56.18a8.6,8.6,0,0,1-5,.89,9.35,9.35,0,0,1-2.82-.88c-.18-.09-.38-.09-.56-.19A15,15,0,0,1,5.75,16a12.93,12.93,0,0,1-2.11-2.77,1.23,1.23,0,0,1-.2-.93,6.56,6.56,0,0,1,.9-1.61A15.9,15.9,0,0,1,8,7.12,10.46,10.46,0,0,1,12.91,5.13Zm.25,2a5.37,5.37,0,0,0-1.47,10.35,5.36,5.36,0,0,0,4.52-9.7A5.31,5.31,0,0,0,13.16,7.16Z" transform="translate(-3.4 -5.09)"/><path class="cls-1" d="M12.59,9.67a3,3,0,1,1-2,3,3.12,3.12,0,0,1,.28-1.44l2.72,1.27C13.27,11.56,12.92,10.62,12.59,9.67Z" transform="translate(-3.4 -5.09)"/></svg>