<svg id="Layer_1" data-name="Layer 1" xmlns="http://www.w3.org/2000/svg" viewBox="0 0 336 480"><defs><style>.cls-1{fill:#a1a4ae;}</style></defs><title>face</title><path class="cls-1" d="M172.69,0,72,100.69V480H408V0ZM168,27.31V96H99.31ZM392,464H88V112h96V16H392Z" transform="translate(-72)"/><path class="cls-1" d="M198.62,190.05,176,212.69l-22.62-22.64-11.32,11.32L164.69,224l-22.63,22.63L153.38,258,176,235.31,198.62,258l11.32-11.32L187.31,224l22.63-22.63Z" transform="translate(-72)"/><path class="cls-1" d="M273.38,258,296,235.31,318.62,258l11.32-11.32L307.31,224l22.63-22.63-11.32-11.32L296,212.69l-22.62-22.64-11.32,11.32L284.69,224l-22.63,22.63Z" transform="translate(-72)"/><path class="cls-1" d="M170.34,330.34l11.32,11.32,7.43-7.44a72.1,72.1,0,0,1,101.82,0l7.43,7.44,11.32-11.32-7.44-7.43a88.09,88.09,0,0,0-124.44,0Z" transform="translate(-72)"/></svg>