<svg id="formats" xmlns="http://www.w3.org/2000/svg" viewBox="0 0 280.32 309.95"><defs><style>.cls-1{fill:#e3f1ff;}.cls-2{fill:#408fff;}.cls-12,.cls-3,.cls-7,.cls-9{fill:#fff;}.cls-4{fill:#a1ccff;}.cls-5{fill:#90bffe;}.cls-6{fill:#65a6ff;}.cls-7{font-size:16px;}.cls-12,.cls-7,.cls-9{font-family:Graphik-Medium, Graphik;}.cls-8{letter-spacing:-0.01em;}.cls-9{font-size:15px;}.cls-10{letter-spacing:-0.03em;}.cls-11{letter-spacing:0em;}.cls-12{font-size:15.62px;}.cls-13{letter-spacing:-0.01em;}.cls-14{letter-spacing:-0.04em;}.cls-15{letter-spacing:-0.02em;}.cls-16{letter-spacing:0em;}</style></defs><title>formats</title><g id="Site_Map" data-name="Site Map"><g id="Web"><path class="cls-1" d="M285.1,323.68c0,5.48-4.08,9.92-9.1,9.92H56.78c-5,0-9.1-4.44-9.1-9.92V147.53c0-5.48,4.08-9.92,9.1-9.92H276c5,0,9.1,4.44,9.1,9.92Z" transform="translate(-47.68 -86)"/><path class="cls-2" d="M276,137.61H56.78c-5,0-9.1,3.54-9.1,7.9v30.6H285.1V145.5C285.1,141.14,281,137.61,276,137.61Z" transform="translate(-47.68 -86)"/><ellipse class="cls-1" cx="200.39" cy="61.43" rx="3.6" ry="3.93"/><ellipse class="cls-1" cx="212.31" cy="61.43" rx="3.6" ry="3.93"/><ellipse class="cls-1" cx="224.72" cy="61.43" rx="3.6" ry="3.93"/><path class="cls-1" d="M226,156.14a7.72,7.72,0,0,1-7.76,7.68H65.5a7.72,7.72,0,0,1-7.76-7.68h0a7.72,7.72,0,0,1,7.76-7.68H218.24a7.72,7.72,0,0,1,7.76,7.68Z" transform="translate(-47.68 -86)"/><rect class="cls-3" x="11.76" y="107" width="169.57" height="94"/><rect class="cls-4" x="11.63" y="213.64" width="214.16" height="5.83"/><rect class="cls-4" x="11.63" y="225.57" width="214.16" height="5.83"/></g><g id="Map"><g id="Map3"><polygon class="cls-5" points="206.85 104.28 206.85 205.79 280.32 205.79 280.32 121.35 263.99 104.28 206.85 104.28"/><polygon class="cls-2" points="264.04 121.46 280.25 138.05 280.25 121.46 268.23 114.69 264.04 121.46"/><polygon class="cls-6" points="280.32 121.34 263.99 121.6 263.99 104.28 280.32 121.34"/><rect class="cls-6" x="213.74" y="147.69" width="59.04" height="22.8" rx="11.01" ry="11.01"/><text class="cls-7" transform="translate(220.95 164.43)">H<tspan class="cls-8" x="12.02" y="0">.26</tspan><tspan x="35.9" y="0">4</tspan></text></g><g id="Map3-2" data-name="Map3"><polygon class="cls-5" points="26.43 208.44 26.43 309.95 99.9 309.95 99.9 225.5 83.57 208.44 26.43 208.44"/><polygon class="cls-2" points="83.78 225.62 100 242.2 100 225.62 87.97 218.85 83.78 225.62"/><polygon class="cls-6" points="100.07 225.5 83.73 225.76 83.73 208.44 100.07 225.5"/><rect class="cls-6" x="32.65" y="251.85" width="59.04" height="22.8" rx="11.01" ry="11.01"/><text class="cls-9" transform="translate(42.44 268.96)">HE<tspan class="cls-10" x="20.02" y="0">V</tspan><tspan class="cls-11" x="29.82" y="0">C</tspan></text></g><g id="Map3-3" data-name="Map3"><polygon class="cls-5" points="42.09 0 42.09 101.51 115.56 101.51 115.56 17.06 99.23 0 42.09 0"/><polygon class="cls-2" points="99.27 17.18 115.49 33.76 115.49 17.18 103.47 10.41 99.27 17.18"/><polygon class="cls-6" points="115.56 17.06 99.22 17.32 99.22 0 115.56 17.06"/></g><rect class="cls-6" x="49.85" y="31" width="58.48" height="43.6" rx="11.01" ry="11.01"/><text class="cls-12" transform="translate(56.69 49.16)">MP<tspan class="cls-13" x="23.41" y="0">E</tspan><tspan x="32.38" y="0">G</tspan><tspan class="cls-14"><tspan x="0" y="18.74">D</tspan><tspan class="cls-15" x="10.53" y="18.74">A</tspan><tspan class="cls-16" x="21.27" y="18.74">SH</tspan></tspan></text></g><path class="cls-2" d="M134.3,219.81a6.14,6.14,0,0,1,3.26.84l8.64,4.8a8.13,8.13,0,0,1,1,.63l14.21,7.9c.43.21.79.53,1.22.73a4.89,4.89,0,0,1,1.87,3.13,4.27,4.27,0,0,1-.8,3,6.56,6.56,0,0,1-2.19,1.89l-14.32,8a3.68,3.68,0,0,1-.54.35l-8,4.42a19.76,19.76,0,0,1-2.07,1.08,5.29,5.29,0,0,1-3.64.18,4.47,4.47,0,0,1-2.55-2.3,6.52,6.52,0,0,1-.63-3q0-13,0-26.08a6,6,0,0,1,1.34-4.06A4.36,4.36,0,0,1,134.3,219.81Z" transform="translate(-47.68 -86)"/><g id="Line"><circle class="cls-2" cx="61.18" cy="228.23" r="5.83"/><circle class="cls-2" cx="32.43" cy="171.84" r="5.83"/><circle class="cls-2" cx="244.34" cy="191.84" r="5.83"/><circle class="cls-2" cx="135.47" cy="171.95" r="5.83"/><path class="cls-2" d="M289.93,276.91v.94a3.27,3.27,0,0,0,.42,1.59H202.5L182.09,259l2.12-2.12,19.54,19.54H290A2.64,2.64,0,0,0,289.93,276.91Z" transform="translate(-47.68 -86)"/><path class="cls-2" d="M107.67,311.32l.25-.11.1,0,2.64-.36V286.28l-29.5-29.5L79,258.9l28.62,28.62Z" transform="translate(-47.68 -86)"/><circle class="cls-2" cx="49.76" cy="145.23" r="5.83"/><circle class="cls-2" cx="78.51" cy="88.84" r="5.83"/><path class="cls-2" d="M98.63,228.32l-.25-.11-.1,0-2.64-.36V203.28l29.5-29.5,2.12,2.12L98.63,204.52Z" transform="translate(-47.68 -86)"/></g></g></svg>