<svg id="Layer_1" data-name="Layer 1" xmlns="http://www.w3.org/2000/svg" xmlns:xlink="http://www.w3.org/1999/xlink" viewBox="0 0 119.51 171.99"><defs><style>.cls-1{fill:url(#Sfumatura_senza_nome_34);}.cls-2{fill:url(#Sfumatura_senza_nome_6);}.cls-3{fill:#43aa82;}.cls-4{fill:#fff;}</style><radialGradient id="Sfumatura_senza_nome_34" cx="90.66" cy="49.03" r="40.86" gradientUnits="userSpaceOnUse"><stop offset="0" stop-color="#e1e1e1"/><stop offset="0.28" stop-color="#fff"/><stop offset="0.87" stop-color="#e1e1e1"/></radialGradient><linearGradient id="Sfumatura_senza_nome_6" x1="47.69" y1="76.29" x2="134.88" y2="163.48" gradientUnits="userSpaceOnUse"><stop offset="0.14" stop-color="#9fefcf"/><stop offset="0.74" stop-color="#59e3ad"/></linearGradient></defs><title>lock_gs</title><path class="cls-1" d="M117.22,89V50.87a26.56,26.56,0,0,0-53.12,0V89H48.89V50.87a41.77,41.77,0,0,1,83.54,0V89Z" transform="translate(-30.9 -9.1)"/><path class="cls-2" d="M112.88,80.11h0a3.6,3.6,0,0,1-3.41,2.45H71.84a3.59,3.59,0,0,1-3.4-2.45h0A3.62,3.62,0,0,0,65,77.67H47a3.58,3.58,0,0,0-3,1.6c-9.45,14.6-13.29,33.12-13.13,42.16.57,33.52,26.39,59.32,59,59.67h1.46c32.63-.35,58.45-26.15,59-59.67.16-9-3.68-27.56-13.14-42.16a3.55,3.55,0,0,0-3-1.6h-18A3.6,3.6,0,0,0,112.88,80.11Z" transform="translate(-30.9 -9.1)"/><path class="cls-3" d="M112.61,118,85.16,145.44a.62.62,0,0,1-.87,0L68.71,129.85a.6.6,0,0,1,0-.87l3.78-3.79a.63.63,0,0,1,.88,0l11.36,11.36L108,113.33a.63.63,0,0,1,.88,0l3.78,3.79A.62.62,0,0,1,112.61,118Z" transform="translate(-30.9 -9.1)"/><path class="cls-4" d="M129.91,87.43a2,2,0,0,0-1.67-.92l-14.14,0a1.93,1.93,0,0,0-1.73,1.06A6,6,0,0,1,107,90.86H73.57a6,6,0,0,1-5.35-3.3,1.93,1.93,0,0,0-1.73-1l-14.12,0a2,2,0,0,0-1.67.92c-8.07,12.87-10.89,28.42-10.77,35.2a51.54,51.54,0,0,0,14.75,35.7,49.73,49.73,0,0,0,35,14.65h1.23a49.73,49.73,0,0,0,35-14.65,51.54,51.54,0,0,0,14.75-35.7C140.8,115.83,138,100.27,129.91,87.43Zm-4.54,70.32a48.92,48.92,0,0,1-34.45,14.42H89.69a48.94,48.94,0,0,1-34.45-14.42A50.78,50.78,0,0,1,40.72,122.6c-.11-6.69,2.68-22,10.65-34.77a1.19,1.19,0,0,1,1-.55l14.12,0a1.12,1.12,0,0,1,1,.61,6.77,6.77,0,0,0,6.06,3.73H107a6.73,6.73,0,0,0,6-3.71,1.13,1.13,0,0,1,1-.62h14.14a1.22,1.22,0,0,1,1,.54c8,12.7,10.76,28.05,10.65,34.75A50.78,50.78,0,0,1,125.37,157.75Z" transform="translate(-30.9 -9.1)"/></svg>