<svg id="Layer_1" data-name="Layer 1" xmlns="http://www.w3.org/2000/svg" viewBox="0 0 173.82 53.37"><defs><style>.cls-1{fill:#316fea;}.cls-2{fill:#316fe9;}</style></defs><title>logo</title><path class="cls-1" d="M708.92,160.6a17.92,17.92,0,1,1,17.92-17.92A18,18,0,0,1,708.92,160.6Zm0-26.88a9,9,0,1,0,9,9A9,9,0,0,0,708.92,133.72Z" transform="translate(-691 -124.76)"/><path class="cls-1" d="M695.84,176.25a10,10,0,0,1,5.43-1.79c3.53,0,6.63,3.67,13,3.67A14.71,14.71,0,0,0,725.08,173l-3.21-5.12a10,10,0,0,1-5.43,1.79c-3.53,0-6.63-3.67-13-3.67a14.71,14.71,0,0,0-10.78,5.15Z" transform="translate(-691 -124.76)"/><path class="cls-2" d="M758.05,135.14v20.64h-5v-7.41a5.13,5.13,0,0,1-1.92,1.61,5.85,5.85,0,0,1-2.57.55,6.94,6.94,0,0,1-3.71-1,6.61,6.61,0,0,1-2.49-2.77,9.14,9.14,0,0,1-.88-4.11,8.93,8.93,0,0,1,.87-4,6.44,6.44,0,0,1,2.44-2.7,6.9,6.9,0,0,1,3.65-1,6,6,0,0,1,2.63.56,5.56,5.56,0,0,1,2,1.6v-2Zm-5.9,10.4a4.64,4.64,0,0,0,0-5.49,3.2,3.2,0,0,0-4.73,0,4.56,4.56,0,0,0,0,5.48,3,3,0,0,0,2.37,1.05A3,3,0,0,0,752.15,145.55Z" transform="translate(-691 -124.76)"/><path class="cls-2" d="M774.39,137.16a8.6,8.6,0,0,1,2,6q0,.59,0,.9H765.8a3.65,3.65,0,0,0,1.26,2,3.49,3.49,0,0,0,2.19.69,4.74,4.74,0,0,0,1.9-.39,5.35,5.35,0,0,0,1.67-1.15l2.61,2.61a7.7,7.7,0,0,1-2.85,2,9.84,9.84,0,0,1-3.78.69,9.08,9.08,0,0,1-4.27-1,6.64,6.64,0,0,1-2.79-2.7,8.18,8.18,0,0,1-1-4,8.38,8.38,0,0,1,1-4.11,6.79,6.79,0,0,1,2.78-2.75,8.62,8.62,0,0,1,4.16-1A7.32,7.32,0,0,1,774.39,137.16Zm-2.86,4.24a2.93,2.93,0,0,0-.77-2.12,2.94,2.94,0,0,0-4,0,3.91,3.91,0,0,0-1.05,2.13Z" transform="translate(-691 -124.76)"/><path class="cls-2" d="M793,136.52a5.89,5.89,0,0,1,1.5,4.24v9.58h-5v-8.14a2.85,2.85,0,0,0-.7-2,2.47,2.47,0,0,0-1.88-.74,2.89,2.89,0,0,0-2,.81,3.31,3.31,0,0,0-.94,2.08v8h-5V135.14h5v2.47a5.4,5.4,0,0,1,2.09-2,6.2,6.2,0,0,1,2.93-.67A5.28,5.28,0,0,1,793,136.52Z" transform="translate(-691 -124.76)"/><path class="cls-2" d="M804.7,139.1a2.7,2.7,0,0,0-2.19,1,4.62,4.62,0,0,0,0,5.32,2.72,2.72,0,0,0,2.19,1,3.1,3.1,0,0,0,3-1.71l3.68,2.11a6.25,6.25,0,0,1-2.7,2.7,8.85,8.85,0,0,1-4.21,1,8.5,8.5,0,0,1-4.1-1,6.72,6.72,0,0,1-2.74-2.7,8.18,8.18,0,0,1-1-4,8.38,8.38,0,0,1,1-4.11,6.81,6.81,0,0,1,2.77-2.75,9.19,9.19,0,0,1,8.16,0,6.78,6.78,0,0,1,2.75,2.65l-3.62,2.11A3.4,3.4,0,0,0,804.7,139.1Z" transform="translate(-691 -124.76)"/><path class="cls-2" d="M824.64,135.94a7.08,7.08,0,0,1,2.92,2.72,8.5,8.5,0,0,1,0,8.14,7.08,7.08,0,0,1-2.92,2.72,10.26,10.26,0,0,1-8.71,0,7,7,0,0,1-2.91-2.72,8.6,8.6,0,0,1,0-8.14,7,7,0,0,1,2.91-2.72,10.26,10.26,0,0,1,8.71,0Zm-6.71,4.11a4,4,0,0,0-.9,2.72,4.06,4.06,0,0,0,.9,2.75,3,3,0,0,0,2.36,1,3,3,0,0,0,2.39-1,4.06,4.06,0,0,0,.9-2.75,4,4,0,0,0-.91-2.72,3,3,0,0,0-2.37-1A3,3,0,0,0,817.92,140.06Z" transform="translate(-691 -124.76)"/><path class="cls-2" d="M846.48,129.5v20.84h-5v-2a5.13,5.13,0,0,1-1.92,1.61,5.85,5.85,0,0,1-2.57.55,6.94,6.94,0,0,1-3.71-1,6.61,6.61,0,0,1-2.49-2.77,9.14,9.14,0,0,1-.88-4.11,8.93,8.93,0,0,1,.87-4,6.44,6.44,0,0,1,2.44-2.7,6.9,6.9,0,0,1,3.65-1,6,6,0,0,1,2.63.56,5.56,5.56,0,0,1,2,1.6V129.5Zm-5.9,16a4.64,4.64,0,0,0,0-5.49,3.2,3.2,0,0,0-4.73,0,4.56,4.56,0,0,0,0,5.48,3,3,0,0,0,2.37,1.05A3,3,0,0,0,840.59,145.55Z" transform="translate(-691 -124.76)"/><path class="cls-2" d="M862.83,137.16a8.6,8.6,0,0,1,2,6q0,.59,0,.9H854.24a3.65,3.65,0,0,0,1.26,2,3.49,3.49,0,0,0,2.19.69,4.74,4.74,0,0,0,1.9-.39,5.35,5.35,0,0,0,1.67-1.15l2.61,2.61a7.7,7.7,0,0,1-2.85,2,9.84,9.84,0,0,1-3.78.69,9.08,9.08,0,0,1-4.27-1,6.64,6.64,0,0,1-2.79-2.7,8.18,8.18,0,0,1-1-4,8.38,8.38,0,0,1,1-4.11,6.79,6.79,0,0,1,2.78-2.75,8.62,8.62,0,0,1,4.16-1A7.32,7.32,0,0,1,862.83,137.16ZM860,141.4a2.93,2.93,0,0,0-.77-2.12,2.94,2.94,0,0,0-4,0,3.91,3.91,0,0,0-1.05,2.13Z" transform="translate(-691 -124.76)"/></svg>