<svg id="Isolation_Mode" data-name="Isolation Mode" xmlns="http://www.w3.org/2000/svg" viewBox="0 0 576.23 590.99"><defs><style>.cls-1{fill:#316fea;}.cls-2{fill:#fff;}.cls-3{fill:#2ea52b;}</style></defs><title>mail_sent</title><path class="cls-1" d="M128,256.21a9.38,9.38,0,0,1-5.16-1.54L17.22,185.73a10,10,0,0,1,1.62-17.47l557-226.54a9.48,9.48,0,0,1,12.09,4.68,10,10,0,0,1-3.38,12.78L133.19,254.67A9.46,9.46,0,0,1,128,256.21ZM43.4,179.47,128,234.69,489.52-2Z" transform="translate(-12.77 58.99)"/><path class="cls-1" d="M204.84,443.35a9.59,9.59,0,0,1-8.84-6L119.17,250.18a10,10,0,0,1,3.69-12.12L574.23-57.43a9.45,9.45,0,0,1,12.69,2.19,10,10,0,0,1-.82,13.18l-353,352.29L214.35,435a9.7,9.7,0,0,1-8.31,8.27Q205.43,443.35,204.84,443.35ZM140,250.2l60.5,147.38L214.56,304a9.78,9.78,0,0,1,2.79-5.55l288-287.35Z" transform="translate(-12.77 58.99)"/><path class="cls-1" d="M396.92,413.81a9.46,9.46,0,0,1-4.67-1.24L219.39,314.06a9.84,9.84,0,0,1-4.86-7.3,10,10,0,0,1,2.83-8.36L572.69-56.2a9.4,9.4,0,0,1,12.08-1.09,10,10,0,0,1,3.49,11.92L405.79,407.72a9.67,9.67,0,0,1-5.71,5.53A9.32,9.32,0,0,1,396.92,413.81ZM240,303.29,392.15,390,552.76-8.82Z" transform="translate(-12.77 58.99)"/><path class="cls-1" d="M22.38,374.41a9.46,9.46,0,0,1-6.79-2.89,10,10,0,0,1,0-13.93l67.22-68.95a9.43,9.43,0,0,1,13.58,0,10,10,0,0,1,0,13.93L29.17,371.52A9.42,9.42,0,0,1,22.38,374.41Z" transform="translate(-12.77 58.99)"/><path class="cls-1" d="M22.38,532a9.42,9.42,0,0,1-6.79-2.89,10,10,0,0,1,0-13.92l19.21-19.7a9.43,9.43,0,0,1,13.58,0,10,10,0,0,1,0,13.93L29.17,529.11A9.42,9.42,0,0,1,22.38,532Z" transform="translate(-12.77 58.99)"/><path class="cls-1" d="M70.4,482.75a9.46,9.46,0,0,1-6.79-2.89,10,10,0,0,1,0-13.92l57.62-59.1a9.42,9.42,0,0,1,13.57,0,10,10,0,0,1,0,13.93L77.18,479.86A9.37,9.37,0,0,1,70.4,482.75Z" transform="translate(-12.77 58.99)"/><path class="cls-1" d="M214.45,532a9.42,9.42,0,0,1-6.79-2.89,10,10,0,0,1,0-13.92l9.6-9.85a9.41,9.41,0,0,1,13.58,0,10,10,0,0,1,0,13.93l-9.6,9.84A9.43,9.43,0,0,1,214.45,532Z" transform="translate(-12.77 58.99)"/><path class="cls-1" d="M252.86,492.6a9.46,9.46,0,0,1-6.79-2.88,10,10,0,0,1,0-13.93l48-49.25a9.43,9.43,0,0,1,13.58,0,10,10,0,0,1,0,13.93l-48,49.25A9.41,9.41,0,0,1,252.86,492.6Z" transform="translate(-12.77 58.99)"/><circle class="cls-2" cx="432.94" cy="467.26" r="90"/><path class="cls-3" d="M450,287.91A113.85,113.85,0,1,0,563.81,401.8h0A113.85,113.85,0,0,0,450,287.91ZM431,453.12l-38.34-38.33,13.42-13.42L431,426.29l62.86-62.87,13.42,13.42Z" transform="translate(-12.77 58.99)"/></svg>