<svg width="29" height="28" viewBox="0 0 29 28" fill="none" xmlns="http://www.w3.org/2000/svg">
<g clip-path="url(#clip0_639_287)">
<path d="M27.7343 1.2794C27.4966 0.891191 27.1639 0.569984 26.7676 0.346122C26.3712 0.122261 25.9244 0.00313572 25.4692 0L2.62871 0C2.49304 0.00470103 2.3577 0.0163685 2.22322 0.0349563C1.60448 0.140091 1.04253 0.459777 0.635986 0.937914C0.229442 1.41605 0.00427512 2.02209 0 2.64969L0 25.4622C0.0303811 26.1231 0.305634 26.749 0.772165 27.2181C1.2387 27.6873 1.86312 27.966 2.52385 28H25.4552C26.1349 27.9954 26.787 27.7304 27.2772 27.2597C27.7675 26.7889 28.0587 26.1481 28.0909 25.4692V2.7965C28.1182 2.26723 27.9945 1.7411 27.7343 1.2794ZM27.0842 13.626V25.3293C27.0859 25.6103 27.0147 25.8868 26.8774 26.1319C26.7401 26.377 26.5416 26.5823 26.3011 26.7276C25.9403 26.917 25.5322 26.9971 25.1266 26.9583C21.631 26.9583 13.612 26.9583 13.612 26.9583H2.98527C2.58129 26.9936 2.17575 26.911 1.81773 26.7206C1.57389 26.5791 1.37256 26.3746 1.23481 26.1287C1.09706 25.8827 1.02795 25.6042 1.03471 25.3223V2.6427C1.03097 2.21372 1.19734 1.80073 1.49739 1.49412C1.79745 1.18752 2.20674 1.01227 2.63571 1.00674H13.619L14.6327 1.0417H25.4971C25.7092 1.04534 25.9185 1.09073 26.1131 1.17527C26.3076 1.25981 26.4836 1.38185 26.631 1.53442C26.7784 1.68699 26.8942 1.86709 26.972 2.06445C27.0497 2.26181 27.0879 2.47255 27.0842 2.68464V13.626Z" fill="#316FEA"/>
<path d="M8.68326 16.0801L7.24306 19.7645H6.76765L5.32046 16.0801V19.7645H4.23682V14.6189H5.76091L6.99137 17.8139L8.22883 14.6189H9.78788V19.7365H8.68326V16.0801Z" fill="#316FEA"/>
<path d="M10.7876 14.6189H13.1856C13.4014 14.6189 13.615 14.6614 13.8143 14.744C14.0137 14.8265 14.1948 14.9475 14.3473 15.1001C14.4999 15.2527 14.6209 15.4338 14.7035 15.6331C14.7861 15.8324 14.8285 16.0461 14.8285 16.2618C14.8285 16.4776 14.7861 16.6912 14.7035 16.8906C14.6209 17.0899 14.4999 17.271 14.3473 17.4236C14.1948 17.5761 14.0137 17.6972 13.8143 17.7797C13.615 17.8623 13.4014 17.9048 13.1856 17.9048H11.8852V19.7365H10.7876V14.6189ZM13.0388 15.5557H11.8852V16.954H13.0458C13.2312 16.954 13.409 16.8803 13.5401 16.7492C13.6712 16.6181 13.7449 16.4403 13.7449 16.2549C13.7449 16.0694 13.6712 15.8916 13.5401 15.7605C13.409 15.6294 13.2312 15.5557 13.0458 15.5557H13.0388Z" fill="#316FEA"/>
<path d="M17.7089 18.6808H15.262V17.8209L17.2894 14.6189H18.7995V17.716H19.4567V18.6808H18.7995V19.7365H17.7089V18.6808ZM16.3107 17.716H17.7089V15.5837L16.3107 17.716Z" fill="#316FEA"/>
<path d="M23.5045 11.6125H0.713013V22.6937H23.5045V11.6125Z" stroke="#316FEA" stroke-width="0.8" stroke-miterlimit="10"/>
</g>
<defs>
<clipPath id="clip0_639_287">
<rect width="28.0909" height="28" fill="white"/>
</clipPath>
</defs>
</svg>
