<svg width="24" height="27" viewBox="0 0 24 27" fill="none" xmlns="http://www.w3.org/2000/svg">
<g clip-path="url(#clip0_660_166)">
<path d="M6.38294 11.7452H14.5531C14.9102 11.745 15.259 11.6379 15.5546 11.4377C15.8502 11.2375 16.0791 10.9533 16.2117 10.6218L18.2956 11.664C18.4124 11.7224 18.5421 11.75 18.6725 11.7442C18.803 11.7383 18.9297 11.6992 19.0408 11.6306C19.1518 11.562 19.2435 11.4662 19.3071 11.3522C19.3708 11.2382 19.4042 11.1098 19.4042 10.9793V4.85159C19.4043 4.721 19.3709 4.59257 19.3073 4.4785C19.2438 4.36442 19.1521 4.2685 19.041 4.19983C18.9299 4.13117 18.8031 4.09204 18.6727 4.08618C18.5422 4.08031 18.4124 4.1079 18.2956 4.16632L16.2117 5.20904C16.0864 4.89721 15.8758 4.62696 15.6041 4.42919C15.3324 4.23143 15.0105 4.11414 14.6752 4.09074C14.8336 3.64519 14.8506 3.16163 14.724 2.70603C14.5974 2.25043 14.3334 1.84497 13.9679 1.54497C13.6024 1.24497 13.1532 1.06504 12.6817 1.02971C12.2101 0.994389 11.7392 1.1054 11.3331 1.34759C10.9537 0.729879 10.3502 0.282763 9.64882 0.0997637C8.94741 -0.083236 8.2024 0.0120548 7.56963 0.365705C6.93686 0.719355 6.46534 1.30397 6.25368 1.99728C6.04203 2.69058 6.10664 3.43887 6.434 4.08563H6.38294C5.90893 4.08563 5.45434 4.27393 5.11917 4.6091C4.784 4.94427 4.5957 5.39886 4.5957 5.87287V9.95797C4.5957 10.432 4.784 10.8866 5.11917 11.2217C5.45434 11.5569 5.90893 11.7452 6.38294 11.7452ZM17.8723 9.73993L16.3404 8.97397V6.85687L17.8723 6.09091V9.73993ZM12.5106 2.55372C12.6621 2.55372 12.8102 2.59864 12.9361 2.68281C13.0621 2.76697 13.1603 2.8866 13.2182 3.02656C13.2762 3.16652 13.2914 3.32053 13.2618 3.46911C13.2323 3.61769 13.1593 3.75417 13.0522 3.86129C12.9451 3.96841 12.8086 4.04136 12.66 4.07092C12.5114 4.10047 12.3574 4.0853 12.2175 4.02733C12.0775 3.96936 11.9579 3.87118 11.8737 3.74522C11.7896 3.61926 11.7446 3.47117 11.7446 3.31968C11.7446 3.11653 11.8253 2.92171 11.969 2.77806C12.1126 2.63442 12.3075 2.55372 12.5106 2.55372ZM7.65953 2.80904C7.65953 2.55655 7.7344 2.30973 7.87468 2.0998C8.01495 1.88986 8.21433 1.72624 8.4476 1.62962C8.68086 1.53299 8.93754 1.50771 9.18518 1.55697C9.43282 1.60623 9.66028 1.72781 9.83882 1.90635C10.0174 2.08488 10.1389 2.31235 10.1882 2.55999C10.2375 2.80762 10.2122 3.0643 10.1155 3.29757C10.0189 3.53084 9.8553 3.73021 9.64537 3.87049C9.43543 4.01076 9.18862 4.08563 8.93613 4.08563C8.59755 4.08563 8.27285 3.95114 8.03344 3.71173C7.79403 3.47232 7.65953 3.14761 7.65953 2.80904ZM6.12762 5.87287C6.12762 5.80515 6.15452 5.74021 6.2024 5.69233C6.25028 5.64445 6.31522 5.61755 6.38294 5.61755H14.5531C14.6209 5.61755 14.6858 5.64445 14.7337 5.69233C14.7816 5.74021 14.8085 5.80515 14.8085 5.87287V9.95797C14.8085 10.0257 14.7816 10.0906 14.7337 10.1385C14.6858 10.1864 14.6209 10.2133 14.5531 10.2133H6.38294C6.31522 10.2133 6.25028 10.1864 6.2024 10.1385C6.15452 10.0906 6.12762 10.0257 6.12762 9.95797V5.87287Z" fill="#316FEA"/>
<path d="M21.7021 13.3789H2.29787C1.68865 13.3796 1.10457 13.6219 0.673778 14.0527C0.242989 14.4835 0.000675792 15.0676 0 15.6768V23.847C0.000675792 24.4562 0.242989 25.0403 0.673778 25.4711C1.10457 25.9019 1.68865 26.1442 2.29787 26.1449H21.7021C22.3114 26.1442 22.8954 25.9019 23.3262 25.4711C23.757 25.0403 23.9993 24.4562 24 23.847V15.6768C23.9993 15.0676 23.757 14.4835 23.3262 14.0527C22.8954 13.6219 22.3114 13.3796 21.7021 13.3789ZM22.4681 23.847C22.4681 24.0501 22.3874 24.245 22.2437 24.3886C22.1001 24.5322 21.9053 24.6129 21.7021 24.6129H2.29787C2.09473 24.6129 1.8999 24.5322 1.75626 24.3886C1.61261 24.245 1.53191 24.0501 1.53191 23.847V15.6768C1.53191 15.4736 1.61261 15.2788 1.75626 15.1352C1.8999 14.9915 2.09473 14.9108 2.29787 14.9108H21.7021C21.9053 14.9108 22.1001 14.9915 22.2437 15.1352C22.3874 15.2788 22.4681 15.4736 22.4681 15.6768V23.847Z" fill="#316FEA"/>
<path d="M6.17311 21.5447H6.16851C5.8223 21.5447 5.45719 21.5477 5.15081 21.5483V17.2083C5.15081 17.0052 5.07011 16.8104 4.92647 16.6667C4.78282 16.5231 4.588 16.4424 4.38485 16.4424C4.18171 16.4424 3.98688 16.5231 3.84324 16.6667C3.6996 16.8104 3.6189 17.0052 3.6189 17.2083V22.3106C3.61894 22.4913 3.68281 22.6661 3.79923 22.8042C3.91565 22.9423 4.07713 23.0348 4.25515 23.0654C4.3103 23.0751 4.34707 23.0812 4.91898 23.0812C5.19422 23.0812 5.59353 23.0812 6.17873 23.0766C6.27931 23.0763 6.37886 23.0562 6.47169 23.0175C6.56452 22.9788 6.64881 22.9221 6.71974 22.8508C6.79068 22.7795 6.84687 22.6949 6.88512 22.6019C6.92336 22.5088 6.94291 22.4092 6.94264 22.3086C6.94237 22.208 6.9223 22.1085 6.88355 22.0156C6.84481 21.9228 6.78817 21.8385 6.71685 21.7676C6.64554 21.6966 6.56095 21.6405 6.46792 21.6022C6.37488 21.564 6.27523 21.5444 6.17464 21.5447H6.17311Z" fill="#316FEA"/>
<path d="M8.72628 16.4424C8.52314 16.4424 8.32832 16.5231 8.18467 16.6667C8.04103 16.8104 7.96033 17.0052 7.96033 17.2083V22.3147C7.96033 22.5179 8.04103 22.7127 8.18467 22.8563C8.32832 23 8.52314 23.0807 8.72628 23.0807C8.92943 23.0807 9.12425 23 9.2679 22.8563C9.41154 22.7127 9.49224 22.5179 9.49224 22.3147V17.2083C9.49224 17.0052 9.41154 16.8104 9.2679 16.6667C9.12425 16.5231 8.92943 16.4424 8.72628 16.4424Z" fill="#316FEA"/>
<path d="M19.6152 17.9743C19.8183 17.9743 20.0131 17.8936 20.1568 17.75C20.3004 17.6063 20.3811 17.4115 20.3811 17.2083C20.3811 17.0052 20.3004 16.8104 20.1568 16.6667C20.0131 16.5231 19.8183 16.4424 19.6152 16.4424H17.4638C17.2607 16.4424 17.0659 16.5231 16.9222 16.6667C16.7786 16.8104 16.6979 17.0052 16.6979 17.2083V22.3147C16.6979 22.5179 16.7786 22.7127 16.9222 22.8563C17.0659 23 17.2607 23.0807 17.4638 23.0807H19.6152C19.8183 23.0807 20.0131 23 20.1568 22.8563C20.3004 22.7127 20.3811 22.5179 20.3811 22.3147C20.3811 22.1116 20.3004 21.9168 20.1568 21.7731C20.0131 21.6295 19.8183 21.5488 19.6152 21.5488H18.2298V20.5275H19.4553C19.6585 20.5275 19.8533 20.4468 19.9969 20.3031C20.1406 20.1595 20.2213 19.9647 20.2213 19.7615C20.2213 19.5584 20.1406 19.3636 19.9969 19.2199C19.8533 19.0763 19.6585 18.9956 19.4553 18.9956H18.2298V17.9743H19.6152Z" fill="#316FEA"/>
<path d="M15.1514 16.4931C15.0559 16.4611 14.9549 16.4483 14.8544 16.4554C14.7538 16.4626 14.6557 16.4894 14.5655 16.5346C14.4754 16.5797 14.3951 16.6421 14.3291 16.7184C14.2632 16.7946 14.2129 16.8831 14.1812 16.9788L13.1181 20.1784L12.0008 16.9614C11.9682 16.8659 11.917 16.7779 11.8502 16.7023C11.7834 16.6267 11.7023 16.565 11.6117 16.5208C11.521 16.4766 11.4225 16.4507 11.3218 16.4447C11.221 16.4387 11.1202 16.4526 11.0249 16.4857C10.9296 16.5188 10.8417 16.5704 10.7664 16.6375C10.6911 16.7047 10.6298 16.786 10.586 16.8769C10.5422 16.9678 10.5168 17.0664 10.5113 17.1672C10.5057 17.2679 10.5201 17.3687 10.5537 17.4639L12.2995 22.4937V22.4988C12.3615 22.67 12.4749 22.8179 12.6244 22.9221C12.7738 23.0262 12.9518 23.0815 13.1339 23.0804H13.1395C13.3226 23.079 13.5006 23.0208 13.6491 22.9137C13.7976 22.8067 13.9091 22.6561 13.9683 22.4829V22.4778L15.6355 17.4588C15.6988 17.2665 15.6834 17.057 15.5927 16.8761C15.502 16.6952 15.3433 16.5575 15.1514 16.4931Z" fill="#316FEA"/>
</g>
<defs>
<clipPath id="clip0_660_166">
<rect width="24" height="26.1447" fill="white"/>
</clipPath>
</defs>
</svg>
