<svg width="24" height="24" viewBox="0 0 24 24" fill="none" xmlns="http://www.w3.org/2000/svg">
<path d="M9.09218 11.571H14.8729C16.4839 11.571 17.7679 10.2635 17.7679 8.66074V3.21047C17.7679 1.65927 16.446 0.49236 14.8729 0.234608C13.8768 0.0729842 12.8687 -0.00539922 11.8593 0.000288643C10.9319 0.00178721 10.0063 0.0801681 9.09218 0.234608C6.6425 0.66107 6.1971 1.55617 6.1971 3.21047V5.38964H11.9825V6.11603H4.02224C2.34016 6.11603 0.866558 7.11423 0.406947 9.0169C-0.123739 11.1961 -0.14743 12.5598 0.406947 14.8374C0.819175 16.5339 1.8 17.7383 3.48208 17.7383H5.47215V15.1233C5.47689 13.2347 7.13054 11.571 9.09218 11.571ZM8.72733 3.93686C8.43453 3.93686 8.15372 3.82181 7.94668 3.61704C7.73964 3.41226 7.62332 3.13453 7.62332 2.84493C7.62332 2.55533 7.73964 2.27759 7.94668 2.07282C8.15372 1.86804 8.43453 1.753 8.72733 1.753C9.32436 1.753 9.8124 2.24507 9.8124 2.84961C9.81365 2.99156 9.78654 3.13234 9.73263 3.26389C9.67871 3.39544 9.59906 3.51517 9.49824 3.61619C9.39742 3.71721 9.27742 3.79754 9.14513 3.85257C9.01283 3.9076 8.87085 3.93624 8.72733 3.93686ZM23.5534 9.02159C23.1364 7.36729 22.3451 6.12072 20.6583 6.12072H18.4882V8.66074C18.4882 10.6337 16.7966 12.2927 14.8729 12.2927H9.09218C7.5096 12.2927 6.1971 13.633 6.1971 15.2029V20.6532C6.1971 22.2044 7.56172 23.1183 9.09218 23.5635C10.9259 24.0977 12.679 24.1914 14.8729 23.5635C16.3275 23.1464 17.7679 22.3075 17.7679 20.6532V18.4694H11.9873V17.743H20.663C22.3451 17.743 22.9705 16.5807 23.5581 14.8421C24.1599 13.0425 24.1362 11.3179 23.5534 9.02159ZM15.2377 19.9221C15.4564 19.9189 15.6711 19.9801 15.8544 20.0979C16.0378 20.2157 16.1816 20.3849 16.2675 20.5838C16.3533 20.7827 16.3774 21.0024 16.3366 21.2149C16.2958 21.4274 16.1919 21.6231 16.0383 21.777C15.8847 21.931 15.6882 22.0362 15.4739 22.0793C15.2596 22.1224 15.0372 22.1015 14.835 22.0192C14.6328 21.9368 14.4599 21.7969 14.3384 21.617C14.2168 21.4372 14.1522 21.2257 14.1526 21.0094C14.1514 20.8674 14.1785 20.7267 14.2324 20.5951C14.2863 20.4635 14.366 20.3438 14.4668 20.2428C14.5676 20.1418 14.6876 20.0614 14.8199 20.0064C14.9522 19.9514 15.0942 19.9227 15.2377 19.9221Z" fill="#316FEA"/>
</svg>
