<svg width="26" height="23" viewBox="0 0 26 23" fill="none" xmlns="http://www.w3.org/2000/svg">
<path d="M9.16867 22.3649C8.89798 22.371 8.6323 22.2913 8.40969 22.1372C8.0302 21.8336 7.8025 21.3782 7.8784 20.8623L8.5603 17.1739L5.93559 14.6081C5.55609 14.2287 5.4043 13.6974 5.55609 13.2571C5.70789 12.8017 6.08827 12.4222 6.60355 12.3463L10.292 11.815L11.9618 8.50605C12.1895 8.05066 12.6437 7.74707 13.161 7.74707C13.6923 7.74707 14.1326 8.05066 14.3603 8.50605L16.0149 11.815L19.7034 12.3463C20.007 12.4222 20.4624 12.8017 20.6142 13.2571C20.766 13.7125 20.6142 14.2287 20.3106 14.6081L17.6088 17.1736L18.216 20.7855C18.2919 21.3168 18.0642 21.7571 17.6847 22.0604C17.3052 22.3637 16.7739 22.364 16.3336 22.1363L13.0851 20.4825L9.85176 22.2131C9.62406 22.289 9.39637 22.3649 9.16867 22.3649ZM13.0851 18.98C13.2963 18.9851 13.5036 19.037 13.6923 19.1318L16.698 20.7102L16.1667 17.3254C16.0908 16.87 16.2426 16.4905 16.5462 16.202L18.9595 13.7887L15.5756 13.333C15.1202 13.2571 14.7407 13.0294 14.604 12.574L13.0851 9.49273L11.5823 12.5731C11.3546 12.9526 11.051 13.255 10.6107 13.3321L7.22586 13.8643L9.63948 16.2791C9.94307 16.5827 10.0949 17.0381 10.019 17.4024L9.41178 20.7855L12.2046 19.3132C12.311 19.2525 12.4172 19.1766 12.5236 19.1158C12.7057 18.9794 12.9031 18.9794 13.0851 18.9794V18.98Z" fill="#316FEA"/>
<path d="M16.4782 11.0015L16.4783 11.0014C16.204 10.7821 16.0367 10.4501 16.0922 10.0725L16.0925 10.0707L16.0925 10.0707L16.5597 7.54336L14.7617 5.78573L14.7613 5.78533C14.4879 5.51195 14.3742 5.12487 14.4866 4.79858C14.5967 4.46837 14.8737 4.19032 15.2518 4.13463L15.252 4.13461L17.7797 3.77051L18.9239 1.50309C18.9239 1.50305 18.924 1.503 18.924 1.50296L18.924 1.50292L16.4782 11.0015ZM16.4782 11.0015L16.481 11.0035C16.6437 11.1161 16.8377 11.1744 17.0355 11.17M16.4782 11.0015L21.8077 3.77052L24.3353 4.13461L24.3404 4.13534L24.3403 4.13559C24.4565 4.16464 24.5952 4.24928 24.7172 4.36449C24.8398 4.48026 24.9504 4.63147 25.0062 4.79882C25.1181 5.13444 25.0053 5.50917 24.7876 5.78121L24.7833 5.78657L24.783 5.78623L22.9318 7.54398L23.3478 10.0183L23.348 10.0196L23.348 10.0196C23.4034 10.4078 23.236 10.7292 22.9619 10.9483C22.6803 11.1733 22.2905 11.1707 21.9724 11.0062C21.9724 11.0062 21.9724 11.0062 21.9723 11.0062L19.7469 9.87327L17.5314 11.059L17.5239 11.0631L17.5237 11.0624L17.5196 11.0637C17.365 11.1152 17.2011 11.1699 17.0355 11.17M17.0355 11.17C17.0353 11.17 17.0351 11.17 17.0349 11.17V11.12L17.0361 11.17C17.0359 11.17 17.0357 11.17 17.0355 11.17ZM20.1899 8.83746L20.19 8.83746L20.1891 8.83705C20.0665 8.77542 19.933 8.73875 19.7963 8.72899V8.72623H19.7463H19.7421C19.619 8.72622 19.4688 8.7262 19.3301 8.82875C19.2931 8.85005 19.2562 8.87371 19.2207 8.89658L19.2201 8.89694C19.1834 8.92057 19.1479 8.94334 19.1127 8.96351L17.2706 9.93463L17.6727 7.69399C17.7289 7.42287 17.6162 7.09143 17.3962 6.87143L15.7947 5.26913L18.0411 4.91596L18.0411 4.91597L18.0419 4.91582C18.367 4.8589 18.5875 4.63562 18.7488 4.36684L18.7489 4.36694L18.7508 4.36304L19.7466 2.32209L20.7512 4.36016C20.8542 4.69732 21.1371 4.8623 21.4623 4.9165L21.4622 4.91652L21.4638 4.91673L23.7065 5.21873L22.1076 6.81762C21.8866 7.02778 21.775 7.30658 21.8304 7.63914C21.8304 7.6392 21.8304 7.63927 21.8304 7.63934L22.1827 9.88399L20.1899 8.83746Z" fill="#316FEA" stroke="#316FEA" stroke-width="0.1"/>
<path d="M2.98453 11.0015L2.9846 11.0014C2.71038 10.7821 2.54301 10.4501 2.59856 10.0725L2.59882 10.0707L2.59886 10.0707L3.06609 7.54336L1.26804 5.78573L1.26764 5.78533C0.994255 5.51195 0.880543 5.12487 0.992918 4.79858C1.10308 4.46837 1.38006 4.19032 1.75815 4.13463L1.7583 4.13461L4.28609 3.77051L5.43026 1.50309C5.43028 1.50305 5.4303 1.503 5.43033 1.50296L5.43034 1.50292L2.98453 11.0015ZM2.98453 11.0015L2.98738 11.0035C3.15001 11.1161 3.34408 11.1744 3.54183 11.17M2.98453 11.0015L8.31403 3.77052L10.8417 4.13461L10.8468 4.13534L10.8467 4.13559C10.9629 4.16464 11.1016 4.24928 11.2236 4.36449C11.3462 4.48026 11.4568 4.63147 11.5125 4.79882C11.6244 5.13444 11.5116 5.50917 11.294 5.78121L11.2897 5.78657L11.2894 5.78623L9.43817 7.54398L9.85412 10.0183L9.85432 10.0196L9.85431 10.0196C9.90977 10.4078 9.74233 10.7292 9.46821 10.9483C9.18665 11.1733 8.79682 11.1707 8.47878 11.0062C8.47875 11.0062 8.47872 11.0062 8.47868 11.0062L6.25327 9.87327L4.03779 11.059L4.03023 11.0631L4.03 11.0624L4.02597 11.0637C3.87137 11.1152 3.70742 11.1699 3.54183 11.17M3.54183 11.17C3.54165 11.17 3.54147 11.17 3.54129 11.17V11.12L3.54242 11.17C3.54222 11.17 3.54203 11.17 3.54183 11.17ZM6.6963 8.83746L6.6963 8.83746L6.6955 8.83705C6.57282 8.77542 6.43931 8.73875 6.30269 8.72899V8.72623H6.25269H6.24845C6.12538 8.72622 5.97518 8.7262 5.83649 8.82875C5.7994 8.85005 5.76259 8.87371 5.72703 8.89658L5.72647 8.89694C5.68972 8.92057 5.65428 8.94334 5.61902 8.96351L3.77691 9.93463L4.17905 7.69399C4.23521 7.42287 4.12259 7.09143 3.90259 6.87143L2.30107 5.26913L4.54741 4.91596L4.54741 4.91597L4.54826 4.91582C4.87334 4.8589 5.09386 4.63562 5.25513 4.36684L5.25529 4.36694L5.25719 4.36304L6.25292 2.32209L7.25754 4.36016C7.36059 4.69732 7.64342 4.8623 7.9686 4.9165L7.9686 4.91652L7.97015 4.91673L10.2128 5.21873L8.6139 6.81762C8.39299 7.02778 8.28138 7.30658 8.33674 7.63914C8.33675 7.6392 8.33676 7.63927 8.33678 7.63934L8.68909 9.88399L6.6963 8.83746Z" fill="#316FEA" stroke="#316FEA" stroke-width="0.1"/>
</svg>
