<svg width="28" height="23" viewBox="0 0 28 23" fill="none" xmlns="http://www.w3.org/2000/svg">
<g clip-path="url(#clip0_639_587)">
<path d="M24.0575 11.4559C20.2294 11.2191 17.431 11.539 15.7559 11.8487C15.655 11.8668 15.5645 11.9219 15.5025 12.003C15.4404 12.0841 15.4111 12.1854 15.4206 12.2869C15.43 12.3884 15.4773 12.4826 15.5533 12.5511C15.6292 12.6196 15.7283 12.6574 15.8308 12.6569C16.0119 12.6569 18.9595 11.9568 24.0066 12.2691C24.1154 12.2758 24.2224 12.2393 24.3041 12.1676C24.3858 12.096 24.4355 11.995 24.4422 11.887C24.449 11.7789 24.4122 11.6726 24.3401 11.5915C24.2679 11.5104 24.1663 11.461 24.0575 11.4543V11.4559Z" fill="#316FEA"/>
<path d="M24.0575 13.7276C20.2294 13.4913 17.4305 13.8113 15.7559 14.1209C15.655 14.139 15.5645 14.1941 15.5025 14.2752C15.4404 14.3563 15.4111 14.4576 15.4206 14.5591C15.43 14.6606 15.4773 14.7549 15.5533 14.8234C15.6292 14.8919 15.7283 14.9296 15.8308 14.9291C16.0119 14.9291 18.9595 14.229 24.0066 14.5413C24.1154 14.548 24.2224 14.5115 24.3041 14.4398C24.3858 14.3682 24.4355 14.2672 24.4422 14.1592C24.449 14.0511 24.4122 13.9448 24.3401 13.8637C24.2679 13.7826 24.1663 13.7332 24.0575 13.7265V13.7276Z" fill="#316FEA"/>
<path d="M19.775 15.9546C18.4269 16.0088 17.0843 16.1553 15.7565 16.3929C15.6556 16.411 15.5652 16.4661 15.5031 16.5471C15.4411 16.6282 15.4118 16.7294 15.4211 16.8309C15.4305 16.9323 15.4777 17.0266 15.5536 17.0951C15.6294 17.1637 15.7284 17.2015 15.8309 17.2012C15.995 17.2012 17.2971 16.8812 19.8122 16.7666C19.9209 16.7617 20.0233 16.7141 20.0967 16.6342C20.1702 16.5544 20.2086 16.4488 20.2037 16.3408C20.1988 16.2327 20.1508 16.131 20.0704 16.0581C19.99 15.9852 19.8837 15.9469 19.775 15.9518V15.9546Z" fill="#316FEA"/>
<path d="M3.99228 14.3066C9.09299 13.9916 11.9329 14.6945 12.1681 14.6945C12.2701 14.6941 12.3683 14.6559 12.4435 14.5874C12.5188 14.519 12.5656 14.4251 12.5749 14.3242C12.5842 14.2233 12.5553 14.1225 12.4938 14.0416C12.4323 13.9607 12.3427 13.9055 12.2424 13.8867C10.5685 13.5771 7.769 13.2572 3.94142 13.4935C3.88756 13.4968 3.83488 13.5106 3.7864 13.5341C3.73791 13.5577 3.69457 13.5905 3.65885 13.6307C3.62312 13.6708 3.59571 13.7176 3.57819 13.7683C3.56066 13.819 3.55336 13.8726 3.5567 13.9261C3.56004 13.9796 3.57395 14.0319 3.59765 14.0801C3.62135 14.1283 3.65436 14.1713 3.69481 14.2068C3.73526 14.2423 3.78235 14.2695 3.83339 14.2869C3.88443 14.3043 3.93842 14.3116 3.99228 14.3083V14.3066Z" fill="#316FEA"/>
<path d="M3.99228 16.5972C9.09244 16.2822 11.9329 16.9851 12.1681 16.9851C12.2701 16.9847 12.3683 16.9465 12.4435 16.878C12.5188 16.8096 12.5656 16.7157 12.5749 16.6148C12.5842 16.5139 12.5553 16.4131 12.4938 16.3322C12.4323 16.2513 12.3427 16.1961 12.2424 16.1773C10.5685 15.8672 7.769 15.5478 3.94142 15.7841C3.88756 15.7874 3.83488 15.8012 3.7864 15.8247C3.73791 15.8483 3.69457 15.8811 3.65885 15.9213C3.62312 15.9614 3.59571 16.0082 3.57819 16.0589C3.56066 16.1096 3.55336 16.1632 3.5567 16.2167C3.56004 16.2702 3.57395 16.3225 3.59765 16.3707C3.62135 16.4189 3.65436 16.4619 3.69481 16.4974C3.73526 16.5329 3.78235 16.5601 3.83339 16.5775C3.88443 16.5949 3.93842 16.6022 3.99228 16.5989V16.5972Z" fill="#316FEA"/>
<path d="M3.99228 12.0164C9.09244 11.7014 11.9329 12.4042 12.1681 12.4042C12.2701 12.4038 12.3683 12.3657 12.4435 12.2972C12.5188 12.2287 12.5656 12.1349 12.5749 12.034C12.5842 11.933 12.5553 11.8323 12.4938 11.7514C12.4323 11.6705 12.3427 11.6153 12.2424 11.5965C10.5679 11.2864 7.76845 10.967 3.94142 11.2033C3.88756 11.2066 3.83488 11.2204 3.7864 11.2439C3.73791 11.2675 3.69457 11.3003 3.65885 11.3404C3.62312 11.3806 3.59571 11.4274 3.57819 11.4781C3.56066 11.5288 3.55336 11.5824 3.5567 11.6359C3.56004 11.6894 3.57395 11.7417 3.59765 11.7899C3.62135 11.838 3.65436 11.8811 3.69481 11.9166C3.73526 11.9521 3.78235 11.9793 3.83339 11.9967C3.88443 12.0141 3.93842 12.0214 3.99228 12.018V12.0164Z" fill="#316FEA"/>
<path d="M3.99228 9.72588C9.09244 9.41084 11.9329 10.1137 12.1681 10.1137C12.2701 10.1133 12.3683 10.0752 12.4435 10.0067C12.5188 9.93822 12.5656 9.84436 12.5749 9.74344C12.5842 9.64252 12.5553 9.54178 12.4938 9.46089C12.4323 9.38001 12.3427 9.32478 12.2424 9.306C10.5679 8.99584 7.76845 8.67645 3.94142 8.91273C3.88756 8.91605 3.83488 8.92987 3.7864 8.95341C3.73791 8.97695 3.69457 9.00974 3.65885 9.04991C3.62312 9.09009 3.59571 9.13686 3.57819 9.18756C3.56066 9.23825 3.55336 9.29188 3.5567 9.34538C3.56004 9.39888 3.57395 9.4512 3.59765 9.49936C3.62135 9.54752 3.65436 9.59057 3.69481 9.62605C3.73526 9.66154 3.78235 9.68876 3.83339 9.70617C3.88443 9.72358 3.93842 9.73083 3.99228 9.72751V9.72588Z" fill="#316FEA"/>
<path d="M3.99216 7.43581C9.09287 7.12076 11.9328 7.82365 12.1679 7.82365C12.2733 7.82842 12.3765 7.7927 12.456 7.7239C12.5355 7.6551 12.5853 7.55851 12.595 7.4542C12.6048 7.34989 12.5736 7.24587 12.5082 7.16375C12.4427 7.08162 12.3479 7.02771 12.2434 7.01321C10.5694 6.70359 7.76998 6.38366 3.9424 6.62049C3.88854 6.6238 3.83586 6.63763 3.78737 6.66116C3.73889 6.6847 3.69555 6.71749 3.65982 6.75767C3.6241 6.79784 3.59669 6.84462 3.57916 6.89531C3.56163 6.94601 3.55433 6.99964 3.55767 7.05314C3.56101 7.10664 3.57493 7.15896 3.59862 7.20712C3.62232 7.25527 3.65534 7.29832 3.69579 7.33381C3.73623 7.36929 3.78332 7.39652 3.83436 7.41392C3.8854 7.43133 3.9394 7.43859 3.99326 7.43527L3.99216 7.43581Z" fill="#316FEA"/>
<path d="M8.05166 5.09455C10.6712 5.20319 12.0006 5.53291 12.1691 5.53291C12.2711 5.5325 12.3693 5.49434 12.4446 5.42587C12.5198 5.3574 12.5666 5.26355 12.5759 5.16262C12.5852 5.0617 12.5563 4.96096 12.4948 4.88008C12.4333 4.79919 12.3437 4.74397 12.2435 4.72518C10.8704 4.4793 9.48149 4.33081 8.08721 4.28085C8.03335 4.27868 7.97958 4.28706 7.92898 4.30553C7.87838 4.32399 7.83194 4.35217 7.7923 4.38846C7.75266 4.42475 7.72061 4.46844 7.69798 4.51704C7.67534 4.56563 7.66256 4.61818 7.66037 4.67168C7.65818 4.72518 7.66662 4.77858 7.68521 4.82884C7.7038 4.8791 7.73217 4.92523 7.76871 4.9646C7.80525 5.00397 7.84924 5.03581 7.89816 5.05829C7.94708 5.08077 7.99999 5.09346 8.05385 5.09564L8.05166 5.09455Z" fill="#316FEA"/>
<path d="M26.3359 1.9218V1.42859C26.3342 1.11062 26.2135 0.804645 25.9971 0.570276C25.7808 0.335907 25.4843 0.189929 25.1655 0.160781C18.964 -0.368829 15.1763 0.554594 14.1641 0.850089C14.0569 0.881202 13.9431 0.881202 13.8359 0.850089C12.8237 0.554594 9.03602 -0.368829 2.83445 0.160781C2.51567 0.189929 2.21923 0.335907 2.00289 0.570276C1.78654 0.804645 1.66578 1.11062 1.66414 1.42859V1.9218C0.827969 2.1016 0 2.5318 0 3.83926V18.878C0.000723252 19.674 0.319295 20.4373 0.885832 21.0003C1.45237 21.5633 2.22061 21.8802 3.02203 21.8813C3.35016 21.8813 8.38141 21.3381 12.5836 22.3343C13.5148 22.5551 14.4852 22.5551 15.4164 22.3343C18.2427 21.664 21.7541 21.6282 24.7275 21.871C25.1442 21.9053 25.5634 21.8534 25.9589 21.7186C26.3543 21.5838 26.7173 21.3689 27.0248 21.0876C27.3324 20.8063 27.5779 20.4647 27.7457 20.0844C27.9136 19.7041 28.0001 19.2933 28 18.878V3.83926C28 2.5318 27.172 2.10105 26.3359 1.9218ZM27.1797 18.878C27.1798 19.1806 27.1167 19.48 26.9944 19.7572C26.8721 20.0344 26.6932 20.2833 26.4691 20.4883C26.2449 20.6933 25.9804 20.8498 25.6922 20.948C25.404 21.0463 25.0984 21.084 24.7948 21.0589C21.7399 20.808 18.1371 20.8514 15.2245 21.5418C14.4187 21.7322 13.5791 21.7322 12.7734 21.5418C8.45961 20.519 3.30094 21.0665 3.02148 21.0665C2.43763 21.0655 1.87801 20.8345 1.46537 20.4243C1.05272 20.014 0.820746 19.4579 0.820312 18.878V3.83926C0.820312 3.23035 1.03633 2.92942 1.66414 2.7594V4.53237C1.66414 4.64042 1.70735 4.74404 1.78427 4.82044C1.86119 4.89684 1.96552 4.93976 2.0743 4.93976C2.18308 4.93976 2.2874 4.89684 2.36432 4.82044C2.44124 4.74404 2.48445 4.64042 2.48445 4.53237V1.42859C2.48504 1.31425 2.52841 1.20422 2.60614 1.11989C2.68387 1.03556 2.79039 0.982957 2.905 0.972307C8.93211 0.457906 12.5885 1.33679 13.5898 1.62413V19.821C13.45 19.8051 13.3112 19.781 13.1742 19.7487C11.5773 19.3685 8.12984 18.7976 2.98266 19.2208C2.91918 19.2259 2.85532 19.218 2.79509 19.1974C2.73487 19.1768 2.6796 19.1441 2.63278 19.1012C2.58596 19.0583 2.5486 19.0062 2.52307 18.9483C2.49754 18.8903 2.48439 18.8277 2.48445 18.7645V6.43408C2.48445 6.32603 2.44124 6.22241 2.36432 6.14601C2.2874 6.06961 2.18308 6.02669 2.0743 6.02669C1.96552 6.02669 1.86119 6.06961 1.78427 6.14601C1.70735 6.22241 1.66414 6.32603 1.66414 6.43408V18.7645C1.66431 18.9404 1.70115 19.1143 1.77233 19.2753C1.84351 19.4363 1.94749 19.581 2.07773 19.7001C2.20796 19.8193 2.36162 19.9104 2.52904 19.9676C2.69645 20.0249 2.87399 20.0471 3.05047 20.0328C8.08172 19.6189 11.4346 20.1735 12.9834 20.5413C13.6519 20.6985 14.3481 20.6985 15.0166 20.5413C16.5659 20.1735 19.9161 19.6178 24.9495 20.0328C25.126 20.0471 25.3035 20.0249 25.471 19.9676C25.6384 19.9104 25.792 19.8193 25.9223 19.7001C26.0525 19.581 26.1565 19.4363 26.2277 19.2753C26.2988 19.1143 26.3357 18.9404 26.3359 18.7645V17.0621C26.3359 16.9541 26.2926 16.8505 26.2157 16.7741C26.1388 16.6977 26.0345 16.6547 25.9257 16.6547C25.8169 16.6547 25.7126 16.6977 25.6357 16.7741C25.5588 16.8505 25.5155 16.9541 25.5155 17.0621V18.7672C25.5156 18.8305 25.5025 18.893 25.4769 18.951C25.4514 19.009 25.414 19.061 25.3672 19.1039C25.3204 19.1468 25.2651 19.1795 25.2049 19.2001C25.1447 19.2207 25.0808 19.2287 25.0173 19.2235C19.8707 18.8003 16.4227 19.3723 14.8263 19.7515C14.6892 19.7837 14.5502 19.8078 14.4102 19.8237V1.62685C15.4115 1.33679 19.0684 0.457906 25.0955 0.975022C25.2101 0.985681 25.3166 1.03831 25.3942 1.12265C25.4718 1.20699 25.5151 1.31702 25.5155 1.4313V15.1468C25.5155 15.2549 25.5588 15.3585 25.6357 15.4349C25.7126 15.5113 25.8169 15.5542 25.9257 15.5542C26.0345 15.5542 26.1388 15.5113 26.2157 15.4349C26.2926 15.3585 26.3359 15.2549 26.3359 15.1468V2.76212C26.9642 2.93213 27.1797 3.23306 27.1797 3.84198V18.878Z" fill="#316FEA"/>
<path d="M23.4544 2.96732C20.6106 2.82663 18.1962 2.99937 16.328 3.32528C16.0662 3.37084 15.829 3.50678 15.6582 3.70911C15.4874 3.91144 15.394 4.16718 15.3945 4.43122V8.97445C15.3947 9.27204 15.5138 9.5574 15.7256 9.76783C15.9375 9.97826 16.2248 10.0965 16.5244 10.0967C16.8963 10.0967 19.1073 9.56925 23.3477 9.77077C23.5005 9.77797 23.6531 9.75431 23.7963 9.70122C23.9396 9.64812 24.0705 9.5667 24.1811 9.46188C24.2918 9.35706 24.3799 9.23103 24.44 9.09141C24.5002 8.95179 24.5312 8.8015 24.5312 8.64963V4.08683C24.5311 3.79828 24.4192 3.52083 24.2187 3.31199C24.0183 3.10316 23.7446 2.97896 23.4544 2.96515V2.96732ZM23.7109 8.65071C23.711 8.69232 23.7026 8.73353 23.6862 8.77182C23.6698 8.8101 23.6457 8.84468 23.6154 8.87343C23.5851 8.90219 23.5493 8.92453 23.51 8.9391C23.4708 8.95366 23.429 8.96015 23.3871 8.95816C21.1449 8.84952 18.7797 8.9185 16.5758 9.2781C16.5314 9.28543 16.4859 9.28307 16.4425 9.27119C16.3991 9.25931 16.3589 9.23819 16.3245 9.2093C16.2902 9.1804 16.2626 9.14443 16.2436 9.10388C16.2247 9.06332 16.2149 9.01916 16.2148 8.97445V4.43122C16.2145 4.35896 16.2399 4.2889 16.2865 4.23344C16.3332 4.17798 16.398 4.14067 16.4697 4.12812C18.2919 3.81035 20.6445 3.64413 23.415 3.78102C23.4949 3.78451 23.5703 3.81838 23.6257 3.87562C23.6811 3.93286 23.7122 4.00907 23.7125 4.08846L23.7109 8.65071Z" fill="#316FEA"/>
<path d="M21.3894 5.6982L19.6805 4.50318C19.5695 4.42573 19.4392 4.38002 19.3039 4.37103C19.1686 4.36203 19.0334 4.39011 18.913 4.45219C18.7926 4.51426 18.6917 4.60797 18.6212 4.72308C18.5508 4.8382 18.5135 4.97032 18.5134 5.10503V7.49507C18.5134 7.62982 18.5507 7.76199 18.6211 7.87714C18.6916 7.9923 18.7925 8.08601 18.9129 8.14806C19.0334 8.21011 19.1686 8.23811 19.304 8.22899C19.4393 8.21988 19.5696 8.17401 19.6805 8.09638L21.3894 6.90136C21.4866 6.83349 21.5659 6.7434 21.6206 6.6387C21.6753 6.534 21.7039 6.41776 21.7039 6.29978C21.7039 6.18181 21.6753 6.06556 21.6206 5.96086C21.5659 5.85616 21.4866 5.76607 21.3894 5.6982ZM19.3337 7.34189V5.25821L20.8245 6.30005L19.3337 7.34189Z" fill="#316FEA"/>
</g>
<defs>
<clipPath id="clip0_639_587">
<rect width="28" height="22.5" fill="white"/>
</clipPath>
</defs>
</svg>
