<svg width="32" height="30" viewBox="0 0 32 30" fill="none" xmlns="http://www.w3.org/2000/svg">
<g clip-path="url(#clip0_639_219)">
<path d="M0.75413 0.49133C1.05079 0.190673 1.45585 0.0173421 1.88144 0.00894116H29.9708C30.2613 0.00512323 30.548 0.0732372 30.8048 0.207028C31.0615 0.340818 31.28 0.535996 31.4402 0.774638C31.7769 1.1935 31.9628 1.71059 31.9689 2.24478V7.42854H0V2.2218C0.00984418 1.56961 0.280891 0.947645 0.75413 0.49133ZM1.53158 1.05029C1.37991 1.18154 1.25998 1.34456 1.18061 1.52741C1.10124 1.71025 1.06443 1.90827 1.07289 2.10695C1.07289 2.87265 1.07289 3.63834 1.07289 4.35044C2.28571 3.20955 3.48299 2.06867 4.68805 0.927777C3.91059 0.927777 3.07094 0.927777 2.26239 0.927777C1.98251 0.927777 1.72595 0.881836 1.53158 1.05029ZM1.07289 5.70573V6.47142H4.06608L10.0136 0.943091C8.71526 0.943091 7.41691 0.943091 6.12634 0.943091C4.43926 2.51277 2.75996 4.11308 1.07289 5.70573ZM11.4674 0.92012C9.50049 2.77311 7.49465 4.59547 5.53547 6.44845H9.42274C11.3975 4.59547 13.3774 2.75269 15.3625 0.92012C14.0719 0.912463 12.7658 0.927777 11.4674 0.92012ZM16.8241 0.92012L10.8766 6.44079H15.3236C17.2906 4.58781 19.2809 2.75014 21.2634 0.912463L16.8241 0.92012ZM22.7172 0.92012C20.7269 2.75779 18.7522 4.61078 16.7619 6.44079H20.4781C20.688 6.44079 20.7969 6.28765 20.9368 6.18811L26.62 0.912463L22.7172 0.92012ZM27.4286 1.51736C25.6482 3.1483 23.8912 4.8022 22.1186 6.44079C23.4169 6.44079 24.7153 6.44079 26.0058 6.44079C26.6453 5.88662 27.2381 5.28229 27.7784 4.63375C28.8047 3.67663 29.8154 2.71185 30.826 1.73942C30.8261 1.62986 30.8038 1.52142 30.7606 1.42049C30.7173 1.31956 30.6539 1.2282 30.5742 1.15181C30.4945 1.07542 30.4 1.01556 30.2964 0.975767C30.1927 0.935971 30.082 0.917049 29.9708 0.92012C29.3022 0.92012 28.6258 0.92012 27.9572 0.92012C27.6851 1.04263 27.6385 1.30297 27.4286 1.52502V1.51736ZM27.7629 6.02732C27.6486 6.15018 27.5542 6.28964 27.483 6.44079H30.9271C30.9271 5.30756 30.9271 4.1437 30.9271 3.03344C29.8542 4.04416 28.8202 5.04723 27.7629 6.03498V6.02732Z" fill="#316FEA"/>
<path d="M0 8.43799H31.9922V27.4732C31.9884 28.133 31.7243 28.7655 31.2557 29.237C30.7871 29.7085 30.1507 29.9821 29.481 30H2.5034C1.83375 29.9801 1.19817 29.7046 0.731012 29.2317C0.263853 28.7587 0.00171404 28.1254 0 27.4656V8.43799ZM1.07289 9.51762C1.07289 9.51762 1.07289 22.1516 1.07289 27.7029C1.08278 27.8777 1.12773 28.0487 1.20515 28.2063C1.28257 28.3638 1.39091 28.5047 1.52393 28.6207C1.65694 28.7368 1.81199 28.8257 1.9801 28.8824C2.14822 28.9391 2.32608 28.9624 2.5034 28.951H29.3567C29.5522 28.975 29.7507 28.9576 29.9389 28.8999C30.1271 28.8423 30.3006 28.7457 30.4478 28.6166C30.595 28.4876 30.7125 28.3291 30.7925 28.1517C30.8725 27.9743 30.9131 27.7822 30.9116 27.5881C30.9116 22.0751 30.9116 9.51762 30.9116 9.51762H1.07289Z" fill="#316FEA"/>
<path d="M12.6802 13.6142C12.8279 13.4917 12.9912 13.2926 13.1778 13.4151C13.3644 13.5376 13.5743 13.5606 13.7609 13.6678C16.0155 15.1456 18.2779 16.631 20.5403 18.1012C20.6156 18.1526 20.6772 18.2213 20.7198 18.3013C20.7623 18.3813 20.7845 18.4703 20.7845 18.5606C20.7845 18.6509 20.7623 18.7399 20.7198 18.8199C20.6772 18.8999 20.6156 18.9686 20.5403 19.02C18.1146 20.605 15.689 22.2053 13.2555 23.7826C12.999 24.0124 12.6258 23.7214 12.6724 23.3156L12.6802 13.6142ZM13.4577 14.5177C13.4577 17.2206 13.4577 19.9235 13.4577 22.6264C15.5309 21.2635 17.6041 19.9133 19.6773 18.5759C17.5315 17.1977 15.4868 15.85 13.4343 14.5177H13.4577Z" fill="#316FEA"/>
</g>
<defs>
<clipPath id="clip0_639_219">
<rect width="32" height="30" fill="white"/>
</clipPath>
</defs>
</svg>
