<svg width="24" height="24" viewBox="0 0 24 24" fill="none" xmlns="http://www.w3.org/2000/svg">
<path d="M20.4844 3.51563C18.2231 1.31949 15.1885 0.101308 12.0363 0.124344C8.88419 0.147381 5.8677 1.40979 3.63874 3.63874C1.40979 5.8677 0.147381 8.88419 0.124344 12.0363C0.101308 15.1885 1.31949 18.2231 3.51563 20.4844C5.77693 22.6805 8.81155 23.8987 11.9637 23.8757C15.1158 23.8526 18.1323 22.5902 20.3613 20.3613C22.5902 18.1323 23.8526 15.1158 23.8757 11.9637C23.8987 8.81155 22.6805 5.77693 20.4844 3.51563ZM21.6975 7.725H19.6327C19.4822 7.20942 19.1714 6.75517 18.7453 6.42814C18.3193 6.10111 17.8001 5.91831 17.2631 5.90625C16.6167 4.22719 15.7219 2.82047 14.617 1.73063C16.1733 2.13017 17.6189 2.87695 18.8453 3.91496C20.0717 4.95297 21.0472 6.25524 21.6984 7.72407L21.6975 7.725ZM22.5938 12C22.5946 12.9699 22.4629 13.9354 22.2023 14.8697H18.1242C18.3446 13.4906 18.4057 12.0908 18.3066 10.6978C18.6252 10.5434 18.9079 10.3239 19.1366 10.0535C19.3652 9.7831 19.5347 9.46783 19.6341 9.12797H22.2038C22.464 10.0631 22.5952 11.0294 22.5938 12ZM3.68016 14.8697H1.79766C1.27579 12.9922 1.27579 11.0079 1.79766 9.13032H5.8786C5.6918 10.297 5.61896 11.4792 5.6611 12.66C5.1749 12.8374 4.73987 13.1318 4.39439 13.5172C4.04891 13.9026 3.80362 14.3671 3.68016 14.8697ZM17.2102 9.54375C16.9894 9.54348 16.7736 9.47775 16.5902 9.3549C16.4068 9.23204 16.2639 9.05756 16.1796 8.85351C16.0953 8.64946 16.0734 8.425 16.1166 8.2085C16.1599 7.992 16.2663 7.79318 16.4225 7.63717C16.5787 7.48115 16.7777 7.37495 16.9943 7.33198C17.2108 7.28901 17.4352 7.31121 17.6392 7.39576C17.8431 7.48031 18.0174 7.62342 18.1401 7.80701C18.2627 7.9906 18.3281 8.20642 18.3281 8.42719C18.3279 8.72349 18.21 9.00756 18.0003 9.21694C17.7907 9.42633 17.5065 9.54388 17.2102 9.54375ZM14.7877 7.72407H12.7031V1.94813C14.333 3.12 15.315 4.81547 15.8967 6.27422C15.3599 6.60309 14.9646 7.11987 14.7877 7.72407ZM11.2969 1.95V7.72407H7.6186C7.7709 7.16468 7.95878 6.61559 8.1811 6.08016C8.92547 4.30172 9.99047 2.89266 11.2959 1.95H11.2969ZM11.2969 9.13032V14.8697H9.78282C9.62904 14.2417 9.28559 13.6762 8.79915 13.2503C8.31271 12.8243 7.7069 12.5585 7.06407 12.4889C7.03156 11.3641 7.1126 10.2389 7.30594 9.13032H11.2969ZM6.73172 13.8778C7.07475 13.8778 7.41007 13.9795 7.69529 14.1701C7.98051 14.3607 8.20281 14.6316 8.33408 14.9485C8.46535 15.2654 8.49969 15.6141 8.43277 15.9506C8.36585 16.287 8.20067 16.596 7.95811 16.8386C7.71555 17.0811 7.40652 17.2463 7.07008 17.3132C6.73365 17.3802 6.38492 17.3458 6.06801 17.2145C5.75109 17.0833 5.48022 16.861 5.28964 16.5758C5.09907 16.2905 4.99735 15.9552 4.99735 15.6122C4.99735 15.1522 5.18008 14.7111 5.50533 14.3858C5.83059 14.0605 6.27174 13.8778 6.73172 13.8778ZM9.80157 16.2759H11.2969V22.0584C10.0552 21.1777 9.0661 19.9209 8.34375 18.3084C8.71257 18.087 9.03216 17.7925 9.28288 17.443C9.53359 17.0934 9.7101 16.6963 9.80157 16.2759ZM12.7031 22.0509V16.2759H16.3819C16.2539 16.7447 16.101 17.2063 15.9239 17.6588C15.1739 19.5633 14.0742 21.0605 12.7031 22.0509ZM12.7031 14.8697V9.13032H14.7877C14.9264 9.60557 15.2016 10.0296 15.5792 10.3499C15.9568 10.6701 16.42 10.8724 16.9116 10.9317C16.9955 12.2481 16.9236 13.5697 16.6973 14.8692H12.7031V14.8697ZM4.50891 4.50891C5.85405 3.15714 7.54117 2.19619 9.39001 1.72875C8.36672 2.73844 7.51875 4.02235 6.885 5.53782C6.59017 6.24726 6.34979 6.97812 6.16594 7.72407H2.30157C2.83204 6.52498 3.5805 5.43479 4.50891 4.50891ZM2.30157 16.2745H3.66094C3.81331 16.9757 4.20082 17.6038 4.75919 18.0545C5.31756 18.5051 6.01322 18.7514 6.73079 18.7523C6.82125 18.7523 6.91032 18.7472 6.99891 18.7397C7.60579 20.1422 8.39063 21.3158 9.35344 22.2605C7.80344 21.8579 6.36428 21.1107 5.14328 20.0745C3.92227 19.0383 2.95089 17.7398 2.30157 16.2759V16.2745ZM19.4911 19.4897C18.1464 20.841 16.46 21.8018 14.6119 22.2694C15.6994 21.1964 16.5872 19.8145 17.2327 18.1716C17.4745 17.5529 17.676 16.9192 17.8359 16.2745H21.6984C21.168 17.4736 20.4195 18.5638 19.4911 19.4897Z" fill="#316FEA"/>
</svg>
