<svg width="21" height="28" viewBox="0 0 21 28" fill="none" xmlns="http://www.w3.org/2000/svg">
<g clip-path="url(#clip0_639_604)">
<path d="M10.2451 5.18787C8.95156 6.09856 7.48455 7.12951 6.69963 8.83614C5.33359 11.8124 9.49045 15.0558 9.66855 15.1972C9.70876 15.2275 9.75773 15.2439 9.80809 15.244C9.84759 15.2443 9.88649 15.2343 9.92098 15.2151C9.95548 15.1958 9.9844 15.168 10.0049 15.1342C10.0255 15.1005 10.0369 15.062 10.0381 15.0225C10.0393 14.983 10.0303 14.9439 10.0119 14.9089C9.99721 14.8805 8.50448 11.9813 8.56048 9.90197C8.57976 9.1804 9.59327 8.35417 10.6665 7.48663C11.6497 6.68978 12.7632 5.78735 13.415 4.73253C14.8463 2.40715 13.2553 0.121252 13.2397 0.0983013C13.2093 0.0541895 13.1644 0.0221012 13.1129 0.00759629C13.0613 -0.00690863 13.0063 -0.00291628 12.9573 0.0188816C12.9084 0.0406795 12.8686 0.0789095 12.8449 0.126948C12.8212 0.174986 12.815 0.229805 12.8275 0.281908C12.9884 1.3427 12.7947 2.42694 12.2767 3.3665C11.9251 4.00545 11.1466 4.55351 10.2451 5.18787Z" fill="#316FEA"/>
<path d="M15.6953 6.2132C15.7395 6.17988 15.7701 6.13175 15.7816 6.07766C15.793 6.02356 15.7846 5.96715 15.7578 5.91878C15.731 5.87042 15.6876 5.83336 15.6356 5.81442C15.5837 5.79548 15.5267 5.79593 15.475 5.8157C15.2556 5.89924 10.0935 7.88861 10.0935 10.2929C10.0935 11.9509 10.8013 12.8258 11.3182 13.4657C11.521 13.7163 11.6955 13.9329 11.7533 14.1175C11.9158 14.6508 11.5311 15.6139 11.3696 15.9398C11.3464 15.9853 11.3392 16.0373 11.349 16.0875C11.3589 16.1376 11.3852 16.183 11.4239 16.2164C11.4626 16.2498 11.5114 16.2693 11.5624 16.2717C11.6135 16.2742 11.6639 16.2594 11.7056 16.2298C11.7974 16.1683 13.8749 14.6977 13.5022 12.9249C13.3635 12.252 13.0321 11.759 12.7402 11.3248C12.2876 10.6519 11.9608 10.1662 12.4565 9.26841C13.0376 8.22186 15.6687 6.2334 15.6953 6.2132Z" fill="#316FEA"/>
<path d="M2.25854 16.3098C2.21441 16.4366 2.20238 16.5724 2.22352 16.7051C2.24467 16.8377 2.29833 16.9631 2.37972 17.0699C2.9388 17.8466 4.92084 18.2753 7.96136 18.2753C8.37356 18.2753 8.80779 18.267 9.25395 18.2505C14.114 18.077 15.917 16.5622 15.9914 16.498C16.0307 16.4639 16.0573 16.4174 16.0668 16.3662C16.0763 16.3151 16.068 16.2622 16.0435 16.2163C16.0189 16.1704 15.9795 16.1342 15.9317 16.1136C15.8838 16.0931 15.8304 16.0894 15.7802 16.1032C14.069 16.5705 10.8724 16.7367 8.65539 16.7367C6.1767 16.7367 4.91165 16.5576 4.60228 16.4264C4.7611 16.2079 5.73972 15.8186 6.95244 15.5799C7.01331 15.5741 7.06937 15.5443 7.10827 15.4971C7.14718 15.45 7.16576 15.3893 7.15992 15.3284C7.15407 15.2675 7.12429 15.2115 7.07712 15.1726C7.02994 15.1337 6.96925 15.1151 6.90838 15.1209C6.19598 15.1255 2.63034 15.1824 2.25854 16.3098Z" fill="#316FEA"/>
<path d="M18.5215 14.75C17.519 14.75 16.5679 15.2531 16.5284 15.2742C16.4835 15.2984 16.448 15.3369 16.4274 15.3836C16.4068 15.4303 16.4024 15.4826 16.4148 15.5321C16.4272 15.5815 16.4558 15.6255 16.496 15.6569C16.5362 15.6884 16.5857 15.7055 16.6367 15.7057C16.6579 15.7057 18.7748 15.7231 18.9667 16.9331C19.1365 17.976 16.9636 19.667 16.1116 20.2307C16.0703 20.2578 16.0388 20.2976 16.0219 20.3441C16.005 20.3905 16.0035 20.4413 16.0178 20.4886C16.032 20.536 16.0612 20.5775 16.1009 20.6069C16.1407 20.6364 16.1889 20.6522 16.2383 20.652C16.2544 20.652 16.2704 20.6502 16.2861 20.6465C16.488 20.6034 21.2306 19.5587 20.7284 16.7972C20.4227 15.1053 19.3596 14.75 18.5215 14.75Z" fill="#316FEA"/>
<path d="M15.2697 19.8929C15.2776 19.8497 15.2732 19.8052 15.257 19.7644C15.2407 19.7237 15.2133 19.6883 15.1779 19.6624L14.0414 18.8665C14.0139 18.8474 13.9826 18.8344 13.9496 18.8285C13.9167 18.8227 13.8828 18.824 13.8504 18.8325C12.8873 19.0668 11.9095 19.2364 10.9237 19.3402C10.1856 19.4211 9.44369 19.4619 8.70117 19.4623C6.97527 19.4623 5.84701 19.2594 5.68268 19.1107C5.66065 19.0685 5.66799 19.0501 5.67167 19.0391C5.70196 18.9565 5.8617 18.8555 5.96452 18.8188C6.02027 18.7991 6.06628 18.7587 6.09298 18.706C6.11969 18.6533 6.12501 18.5922 6.10785 18.5357C6.09069 18.4791 6.05237 18.4314 6.00088 18.4024C5.94938 18.3733 5.88867 18.3653 5.8314 18.3799C4.69029 18.6554 4.13304 19.04 4.17343 19.5238C4.24596 20.3812 6.23258 20.8219 7.91258 20.9385C8.15403 20.955 8.41475 20.9633 8.68832 20.9633C11.481 20.9633 15.0622 20.0875 15.098 20.0783C15.1415 20.0673 15.1808 20.0439 15.2113 20.011C15.2418 19.9781 15.262 19.937 15.2697 19.8929Z" fill="#316FEA"/>
<path d="M6.69689 21.7334C6.73837 21.706 6.76977 21.6658 6.78634 21.6189C6.80291 21.572 6.80373 21.521 6.7887 21.4736C6.77365 21.426 6.74362 21.3846 6.70308 21.3555C6.66255 21.3263 6.61368 21.3111 6.56378 21.3121C6.41047 21.3121 5.0683 21.3772 4.97374 22.2301C4.95949 22.355 4.97192 22.4816 5.01022 22.6014C5.04852 22.7212 5.11181 22.8315 5.19591 22.925C5.67788 23.497 6.97965 23.8366 9.17374 23.9642C9.43355 23.9789 9.69702 23.9872 9.95774 23.9872C12.7476 23.9872 14.6269 23.1132 14.7058 23.0765C14.7434 23.059 14.7755 23.0315 14.7986 22.9972C14.8218 22.9628 14.8352 22.9227 14.8374 22.8813C14.8396 22.8399 14.8304 22.7987 14.811 22.7621C14.7915 22.7255 14.7625 22.6949 14.7269 22.6735L13.2902 21.7959C13.2404 21.7656 13.181 21.7555 13.124 21.7674C13.1149 21.7674 12.206 21.9583 10.829 22.1456C10.5073 22.1843 10.1835 22.202 9.85952 22.1989C8.48247 22.1989 6.95394 21.974 6.66109 21.8271C6.65734 21.8097 6.65872 21.7916 6.66508 21.7749C6.67144 21.7583 6.68249 21.7439 6.69689 21.7334Z" fill="#316FEA"/>
<path d="M8.6551 26.6231C15.0455 26.6176 18.4781 25.4811 19.1363 24.7659C19.2226 24.6828 19.289 24.5813 19.3305 24.4689C19.372 24.3565 19.3875 24.2361 19.3759 24.1169C19.3263 23.7322 18.9756 23.4963 18.9362 23.4742C18.8897 23.444 18.8339 23.4315 18.779 23.4389C18.7241 23.4463 18.6736 23.4732 18.6369 23.5146C18.6005 23.556 18.5805 23.6092 18.5805 23.6643C18.5805 23.7193 18.6005 23.7725 18.6369 23.8139C18.6773 23.8653 18.7002 23.9525 18.5827 24.07C18.3183 24.317 15.6542 25.0661 11.2183 25.291C10.6124 25.3204 9.96973 25.3378 9.3271 25.3378C5.35569 25.3378 2.4492 24.7935 2.0673 24.4767C2.21419 24.2656 3.24238 23.9259 4.33576 23.7368C4.39457 23.7261 4.44689 23.6929 4.48157 23.6442C4.51626 23.5955 4.53058 23.5352 4.52149 23.4761C4.5124 23.417 4.48062 23.3638 4.4329 23.3278C4.38518 23.2918 4.3253 23.2758 4.26599 23.2833C4.23478 23.2833 4.13012 23.2934 4.00894 23.3007C2.20501 23.4109 0.120153 23.6569 0.0118256 24.586C-0.00527592 24.724 0.00823253 24.864 0.0513903 24.9962C0.0945482 25.1284 0.166295 25.2494 0.261531 25.3507C0.749006 25.9015 2.14992 26.6258 8.65969 26.6258L8.6551 26.6231Z" fill="#316FEA"/>
<path d="M20.3915 24.9706C20.3475 24.9505 20.2983 24.9447 20.2508 24.9541C20.2034 24.9635 20.1601 24.9876 20.1271 25.0229C20.1179 25.033 19.1567 26.0383 16.2713 26.6277C15.1651 26.8498 13.0894 26.9618 10.1003 26.9618C7.11121 26.9618 4.25797 26.8443 4.22951 26.8425C4.17252 26.8402 4.11671 26.8592 4.07297 26.8958C4.02922 26.9324 4.00067 26.9839 3.99288 27.0404C3.98508 27.0969 3.99861 27.1543 4.03081 27.2014C4.06302 27.2485 4.1116 27.2819 4.16708 27.2951C4.19646 27.3024 7.1819 28.002 11.2644 28.002C13.1619 28.0072 15.0564 27.849 16.9268 27.5292C20.2822 26.9407 20.5172 25.2772 20.5255 25.2066C20.531 25.1581 20.521 25.1092 20.4969 25.0668C20.4728 25.0244 20.4359 24.9907 20.3915 24.9706Z" fill="#316FEA"/>
</g>
<defs>
<clipPath id="clip0_639_604">
<rect width="20.7659" height="28" fill="white"/>
</clipPath>
</defs>
</svg>
