<svg width="22" height="28" viewBox="0 0 22 28" fill="none" xmlns="http://www.w3.org/2000/svg">
<g clip-path="url(#clip0_639_293)">
<path d="M20.1238 11.2197H20.0018V9.08219C20.0018 6.67493 19.0456 4.36627 17.3434 2.66408C15.6412 0.961894 13.3325 0.00561523 10.9253 0.00561523C8.51801 0.00561523 6.20935 0.961894 4.50716 2.66408C2.80497 4.36627 1.84869 6.67493 1.84869 9.08219V11.2197H1.70105C1.47851 11.2189 1.25798 11.2619 1.05206 11.3463C0.846129 11.4307 0.65884 11.5548 0.500883 11.7115C0.342925 11.8683 0.217391 12.0547 0.13145 12.2599C0.0455079 12.4652 0.00084137 12.6854 0 12.908V17.0868C0.0129467 19.9515 1.14664 22.6974 3.15848 24.7368C5.17033 26.7762 7.9005 27.9472 10.7648 27.9992H10.906C13.7382 27.9882 16.4504 26.8548 18.4484 24.8474C19.5113 23.8018 20.3568 22.5562 20.9363 21.1825C21.5158 19.8087 21.8178 18.3338 21.8249 16.8428V12.908C21.8215 12.459 21.6408 12.0297 21.3221 11.7134C21.0035 11.3972 20.5727 11.2197 20.1238 11.2197ZM2.67033 9.08219C2.67033 8.00235 2.88302 6.93308 3.29626 5.93544C3.7095 4.9378 4.31519 4.03132 5.07875 3.26776C5.84231 2.5042 6.74879 1.89851 7.74643 1.48528C8.74407 1.07204 9.81333 0.859352 10.8932 0.859352C11.973 0.859352 13.0423 1.07204 14.0399 1.48528C15.0376 1.89851 15.944 2.5042 16.7076 3.26776C17.4712 4.03132 18.0768 4.9378 18.4901 5.93544C18.9033 6.93308 19.116 8.00235 19.116 9.08219V11.2197H17.1903V9.08219C17.2172 8.23704 17.0741 7.3951 16.7693 6.60638C16.4645 5.81765 16.0042 5.09824 15.4159 4.49087C14.8276 3.8835 14.1233 3.40057 13.3447 3.07076C12.5661 2.74096 11.7291 2.57101 10.8835 2.57101C10.038 2.57101 9.20102 2.74096 8.42242 3.07076C7.64382 3.40057 6.93944 3.8835 6.35114 4.49087C5.76285 5.09824 5.30262 5.81765 4.99781 6.60638C4.69301 7.3951 4.54983 8.23704 4.5768 9.08219V11.2197H2.67033V9.08219ZM5.43696 11.2197V9.08219C5.43696 8.36567 5.57808 7.65616 5.85228 6.99418C6.12649 6.33221 6.52839 5.73072 7.03504 5.22406C7.5417 4.7174 8.14319 4.3155 8.80517 4.0413C9.46714 3.7671 10.1766 3.62597 10.8932 3.62597C11.6097 3.62597 12.3192 3.7671 12.9812 4.0413C13.6431 4.3155 14.2446 4.7174 14.7513 5.22406C15.2579 5.73072 15.6599 6.33221 15.9341 6.99418C16.2083 7.65616 16.3494 8.36567 16.3494 9.08219V11.2197H5.43696ZM20.9583 16.8493C20.9534 18.2271 20.677 19.5905 20.1451 20.8615C19.6131 22.1326 18.8359 23.2863 17.8579 24.2569C16.9345 25.1873 15.8338 25.923 14.6209 26.4203C13.408 26.9176 12.1077 27.1663 10.7969 27.1519C8.15015 27.1132 5.62446 26.0367 3.76357 24.1542C1.90269 22.2717 0.855449 19.7338 0.847318 17.0868V12.908C0.846449 12.7959 0.867986 12.6848 0.910664 12.5812C0.953341 12.4776 1.0163 12.3835 1.09583 12.3046C1.17537 12.2257 1.26988 12.1634 1.37382 12.1215C1.47775 12.0796 1.58901 12.0589 1.70105 12.0606H20.1238C20.2351 12.0598 20.3454 12.0809 20.4485 12.1227C20.5517 12.1645 20.6455 12.2262 20.7248 12.3043C20.8041 12.3823 20.8672 12.4753 20.9106 12.5778C20.9539 12.6802 20.9767 12.7903 20.9775 12.9015L20.9583 16.8493Z" fill="#316FEA"/>
<path d="M10.906 15.1619C10.3437 15.1653 9.80555 15.3915 9.40967 15.791C9.0138 16.1905 8.79246 16.7306 8.79417 17.293C8.79475 17.5727 8.85192 17.8494 8.96223 18.1064C9.07255 18.3635 9.23373 18.5955 9.43608 18.7886L8.79417 22.2614C8.78148 22.3232 8.78297 22.3871 8.79854 22.4482C8.8141 22.5094 8.84334 22.5662 8.88404 22.6144C8.92469 22.6617 8.97486 22.6998 9.03128 22.7264C9.08769 22.7529 9.14908 22.7673 9.21141 22.7685H12.6007C12.6629 22.7665 12.724 22.7518 12.7803 22.7253C12.8366 22.6988 12.8869 22.6611 12.9281 22.6144C12.9676 22.5655 12.9961 22.5086 13.0116 22.4477C13.0271 22.3868 13.0293 22.3232 13.0179 22.2614L12.376 18.7886C12.5772 18.5946 12.7376 18.3624 12.8478 18.1056C12.9581 17.8487 13.0159 17.5725 13.0179 17.293C13.0179 16.7311 12.7961 16.1919 12.4006 15.7928C12.005 15.3937 11.4679 15.1669 10.906 15.1619ZM11.548 18.6988L12.1193 21.9083H9.73136L10.3027 18.6988C10.3157 18.6237 10.3083 18.5466 10.2812 18.4754C10.254 18.4043 10.2083 18.3417 10.1486 18.2944C9.93304 18.1327 9.77381 17.9073 9.69347 17.6501C9.61313 17.3929 9.61574 17.117 9.70095 16.8613C9.78616 16.6057 9.94964 16.3834 10.1682 16.2258C10.3868 16.0683 10.6494 15.9835 10.9189 15.9835C11.1883 15.9835 11.451 16.0683 11.6695 16.2258C11.8881 16.3834 12.0516 16.6057 12.1368 16.8613C12.222 17.117 12.2246 17.3929 12.1443 17.6501C12.064 17.9073 11.9047 18.1327 11.6892 18.2944C11.6272 18.34 11.5794 18.4021 11.551 18.4736C11.5226 18.5451 11.5149 18.6231 11.5287 18.6988H11.548Z" fill="#316FEA"/>
</g>
<defs>
<clipPath id="clip0_639_293">
<rect width="21.8249" height="28" fill="white"/>
</clipPath>
</defs>
</svg>
