<svg width="28" height="28" viewBox="0 0 28 28" fill="none" xmlns="http://www.w3.org/2000/svg">
<g clip-path="url(#clip0_639_263)">
<path d="M17.1797 13.0162L13.0388 10.4515C12.854 10.3373 12.642 10.2746 12.4249 10.2698C12.2077 10.265 11.9932 10.3183 11.8035 10.4241C11.6211 10.5229 11.4689 10.6692 11.3629 10.8475C11.257 11.0258 11.2014 11.2295 11.2019 11.4369V16.5642C11.2014 16.7718 11.2571 16.9757 11.363 17.1542C11.4689 17.3328 11.6211 17.4794 11.8035 17.5786C11.9933 17.6846 12.2081 17.7379 12.4255 17.733C12.6429 17.7281 12.855 17.6652 13.0399 17.5507L17.1802 14.9849C17.3501 14.8828 17.4907 14.7385 17.5882 14.566C17.6858 14.3935 17.7371 14.1987 17.7371 14.0005C17.7371 13.8024 17.6858 13.6076 17.5882 13.4351C17.4907 13.2626 17.3501 13.1183 17.1802 13.0162H17.1797ZM16.6875 14.1887L12.5477 16.7556C12.5044 16.7825 12.4545 16.7972 12.4035 16.798C12.3525 16.7989 12.3022 16.7859 12.2579 16.7605C12.221 16.7421 12.1899 16.7139 12.168 16.679C12.1461 16.6441 12.1343 16.6038 12.1338 16.5626V11.4369C12.1343 11.3955 12.1462 11.3551 12.1682 11.3201C12.1902 11.2851 12.2214 11.2568 12.2584 11.2384C12.3022 11.2143 12.3512 11.2013 12.4012 11.2007C12.4531 11.2007 12.5039 11.2155 12.5477 11.2433L16.6875 13.8097C16.7375 13.8376 16.7745 13.884 16.7906 13.9389C16.8068 13.9938 16.8008 14.0528 16.7739 14.1034C16.7539 14.1398 16.7239 14.1697 16.6875 14.1898V14.1887Z" fill="#316FEA"/>
<path d="M14.0005 4.66748C12.1545 4.66748 10.35 5.21486 8.81513 6.2404C7.28027 7.26594 6.08399 8.72358 5.37758 10.429C4.67116 12.1344 4.48633 14.011 4.84646 15.8214C5.20658 17.6319 6.0955 19.2949 7.40079 20.6002C8.70608 21.9054 10.3691 22.7943 12.1796 23.1544C13.9901 23.5146 15.8667 23.3297 17.5722 22.6233C19.2776 21.9169 20.7353 20.7207 21.7608 19.1859C22.7864 17.651 23.3338 15.8466 23.3338 14.0006C23.3338 12.775 23.0924 11.5613 22.6233 10.429C22.1543 9.29664 21.4668 8.26776 20.6001 7.4011C19.7334 6.53443 18.7045 5.84696 17.5722 5.37792C16.4398 4.90889 15.2261 4.66748 14.0005 4.66748ZM14.0005 22.4003C12.3391 22.4003 10.7151 21.9077 9.33375 20.9847C7.95241 20.0617 6.87578 18.7499 6.24002 17.215C5.60425 15.6802 5.43791 13.9913 5.76202 12.3619C6.08613 10.7326 6.88613 9.23588 8.06087 8.06117C9.23561 6.88645 10.7323 6.08646 12.3617 5.76236C13.9911 5.43825 15.6801 5.60459 17.2149 6.24035C18.7498 6.8761 20.0617 7.9527 20.9847 9.33402C21.9076 10.7153 22.4003 12.3393 22.4003 14.0006C22.4003 15.1037 22.183 16.1959 21.7609 17.215C21.3388 18.2341 20.72 19.1601 19.94 19.9401C19.16 20.7201 18.234 21.3388 17.2149 21.7609C16.1958 22.183 15.1035 22.4003 14.0005 22.4003Z" fill="#316FEA"/>
<path d="M14.0003 6.53442C12.5236 6.53442 11.08 6.97231 9.8522 7.7927C8.62437 8.6131 7.66739 9.77916 7.10228 11.1434C6.53717 12.5077 6.38931 14.0089 6.6774 15.4572C6.96549 16.9055 7.67659 18.2358 8.72078 19.28C9.76497 20.3242 11.0953 21.0353 12.5437 21.3233C13.992 21.6114 15.4932 21.4636 16.8575 20.8985C18.2218 20.3334 19.3879 19.3764 20.2083 18.1486C21.0287 16.9208 21.4666 15.4773 21.4666 14.0006C21.4667 13.0201 21.2736 12.0492 20.8984 11.1433C20.5232 10.2375 19.9733 9.41437 19.2799 8.72106C18.5866 8.02775 17.7635 7.47779 16.8576 7.10261C15.9517 6.72742 14.9808 6.53435 14.0003 6.53442ZM14.0003 20.5339C12.7081 20.5339 11.4449 20.1507 10.3705 19.4328C9.29611 18.7149 8.45871 17.6946 7.96421 16.5008C7.46972 15.307 7.34033 13.9934 7.59243 12.726C7.84452 11.4587 8.46676 10.2946 9.38048 9.3809C10.2942 8.46721 11.4583 7.84498 12.7257 7.59289C13.993 7.3408 15.3067 7.47018 16.5005 7.96467C17.6943 8.45916 18.7147 9.29654 19.4326 10.3709C20.1505 11.4453 20.5337 12.7085 20.5337 14.0006C20.5337 14.8586 20.3647 15.7081 20.0363 16.5008C19.708 17.2934 19.2268 18.0137 18.6201 18.6203C18.0134 19.227 17.2932 19.7082 16.5005 20.0366C15.7078 20.3649 14.8583 20.5339 14.0003 20.5339Z" fill="#316FEA"/>
<path d="M27.9295 12.6789C27.8946 12.3983 27.7694 12.1368 27.5728 11.9336C27.3762 11.7304 27.1189 11.5966 26.8396 11.5524L25.3543 11.309C25.0679 10.0961 24.5868 8.93763 23.9298 7.87863L24.8047 6.65313C24.9723 6.42348 25.0604 6.14541 25.0555 5.86116C25.0507 5.57691 24.9532 5.30201 24.7779 5.07819C24.5019 4.73649 24.2067 4.41077 23.8937 4.1026C23.5819 3.7898 23.2555 3.4925 22.9142 3.21069C22.6908 3.03825 22.4174 2.94322 22.1352 2.93997C21.8531 2.93671 21.5775 3.0254 21.3502 3.19264L20.1252 4.07089C19.0657 3.41543 17.9073 2.93532 16.6947 2.64907L16.4514 1.16491C16.4073 0.884216 16.2729 0.625564 16.0685 0.428186C15.8641 0.230808 15.6009 0.105475 15.3188 0.0711995C14.4424 -0.0234076 13.5583 -0.0234076 12.6819 0.0711995C12.4011 0.105979 12.1393 0.231185 11.9359 0.427902C11.7326 0.624619 11.5988 0.882161 11.5548 1.16163L11.3114 2.64688C10.0989 2.93313 8.94046 3.41324 7.88093 4.0687L6.65541 3.19373C6.42583 3.02589 6.14767 2.93772 5.86333 2.94266C5.57898 2.94759 5.30405 3.04537 5.08044 3.22108C4.74199 3.4981 4.418 3.79233 4.10975 4.1026C3.79241 4.41298 3.49349 4.74165 3.21454 5.08694C3.04123 5.31047 2.94532 5.58429 2.94127 5.86711C2.93723 6.14992 3.02527 6.42638 3.19212 6.65477L4.07093 7.88191C3.41385 8.94091 2.93275 10.0994 2.64635 11.3123L1.16216 11.5557C0.881496 11.5998 0.622887 11.7343 0.425521 11.9387C0.228155 12.143 0.102791 12.4062 0.0684275 12.6882C-0.0250878 13.5651 -0.0250878 14.4494 0.0684275 15.3262C0.104113 15.6065 0.229645 15.8677 0.426225 16.0707C0.622805 16.2737 0.879853 16.4075 1.15887 16.4522L2.64416 16.6955C2.9297 17.9083 3.40987 19.0668 4.066 20.126L3.19102 21.346C3.02193 21.5759 2.9327 21.8548 2.93694 22.1401C2.94119 22.4255 3.03868 22.7016 3.21454 22.9264C3.48031 23.2425 3.78054 23.5706 4.10702 23.8987C4.41687 24.2138 4.74384 24.5115 5.08645 24.7906C5.30896 24.965 5.58272 25.0613 5.86541 25.0646C6.14811 25.0678 6.42401 24.9779 6.65048 24.8087L7.87546 23.9304C8.93504 24.5858 10.0934 25.0659 11.3059 25.3522L11.5493 26.8364C11.5935 27.1171 11.728 27.3758 11.9325 27.5732C12.137 27.7705 12.4003 27.8959 12.6824 27.9301C13.5591 28.0236 14.4432 28.0236 15.3199 27.9301C15.6004 27.8947 15.8618 27.7693 16.0649 27.5727C16.2681 27.376 16.4019 27.1188 16.4465 26.8397L16.6898 25.3544C17.9025 25.0684 19.0609 24.5883 20.1203 23.9326L21.3458 24.8076C21.5753 24.9784 21.855 25.0683 22.1411 25.0629C22.4271 25.0576 22.7033 24.9574 22.9263 24.778C23.2663 24.503 23.5909 24.2094 23.8986 23.8987C24.2129 23.5858 24.5113 23.2572 24.7927 22.9144C24.9645 22.6909 25.0591 22.4177 25.0623 22.1359C25.0656 21.8541 24.9773 21.5788 24.8108 21.3515L23.9298 20.1254C24.5868 19.0664 25.0679 17.9079 25.3543 16.695L26.8391 16.4511C27.1198 16.407 27.3784 16.2726 27.5758 16.0682C27.7732 15.8638 27.8985 15.6006 27.9328 15.3186C28.0252 14.444 28.0252 13.5622 27.9328 12.6877L27.9295 12.6789ZM27.0026 15.2141C26.9895 15.2926 26.952 15.365 26.8954 15.421C26.8389 15.4771 26.7662 15.5139 26.6876 15.5264L24.8911 15.8211C24.7978 15.8361 24.7112 15.8791 24.6428 15.9445C24.5744 16.0098 24.5275 16.0944 24.5083 16.187C24.2365 17.504 23.7169 18.7574 22.9771 19.8804C22.9255 19.9591 22.8988 20.0515 22.9007 20.1456C22.9025 20.2397 22.9328 20.331 22.9875 20.4076L24.0544 21.8983C24.1013 21.9605 24.1271 22.0361 24.128 22.1141C24.1289 22.192 24.1048 22.2681 24.0594 22.3314C23.8187 22.6256 23.5415 22.933 23.2363 23.2354C22.9531 23.5228 22.6546 23.7948 22.3422 24.0502C22.2777 24.0997 22.1987 24.1265 22.1174 24.1265C22.0362 24.1265 21.9572 24.0997 21.8927 24.0502L20.409 22.9882C20.3325 22.9333 20.2412 22.903 20.1471 22.9011C20.0529 22.8993 19.9605 22.926 19.8819 22.9778C18.7584 23.7172 17.5049 24.2368 16.1878 24.509C16.0952 24.5282 16.0106 24.5751 15.9453 24.6434C15.88 24.7118 15.8369 24.7984 15.8219 24.8918L15.5272 26.6877C15.5167 26.7658 15.4813 26.8384 15.4262 26.8948C15.3711 26.9511 15.2993 26.9882 15.2215 27.0005C14.4115 27.0874 13.5946 27.0874 12.7847 27.0005C12.7057 26.9891 12.6327 26.9522 12.5765 26.8956C12.5204 26.839 12.4842 26.7656 12.4735 26.6866L12.1804 24.8901C12.1654 24.7967 12.1223 24.71 12.0569 24.6416C11.9914 24.5732 11.9067 24.5264 11.814 24.5073C10.4972 24.2348 9.2439 23.7152 8.12046 22.9762C8.04184 22.9244 7.94937 22.8976 7.85525 22.8995C7.76113 22.9013 7.66979 22.9317 7.59328 22.9865L6.108 24.0491C6.04677 24.0972 5.97173 24.1245 5.89387 24.1269C5.81602 24.1292 5.73945 24.1066 5.67543 24.0622C5.35685 23.8037 5.05304 23.5274 4.76544 23.2348C4.46029 22.9297 4.18303 22.6256 3.95062 22.3407C3.90139 22.2761 3.87473 22.1972 3.87473 22.116C3.87473 22.0347 3.90139 21.9558 3.95062 21.8912L5.01263 20.4076C5.06747 20.3311 5.09783 20.2397 5.09969 20.1456C5.10154 20.0515 5.07481 19.959 5.02302 19.8804C4.28344 18.7571 3.76384 17.5036 3.4918 16.1864C3.47245 16.0939 3.42551 16.0094 3.35718 15.9441C3.28884 15.8788 3.2023 15.8357 3.10899 15.8206L1.31309 15.5275C1.23567 15.5154 1.16392 15.4795 1.10778 15.4248C1.05164 15.3702 1.01388 15.2994 0.999737 15.2223C0.913334 14.4122 0.913334 13.5951 0.999737 12.785C1.01111 12.7061 1.04784 12.6331 1.10437 12.577C1.1609 12.5209 1.23416 12.4847 1.31309 12.4738L3.11009 12.1791C3.20337 12.1639 3.28986 12.1208 3.35819 12.0555C3.42652 11.9902 3.47348 11.9057 3.49289 11.8132C3.76491 10.4966 4.28452 9.24362 5.02411 8.12088C5.07576 8.04222 5.1024 7.94977 5.10055 7.85569C5.09869 7.76161 5.06842 7.67028 5.01372 7.59372L3.95007 6.10682C3.90271 6.04412 3.87636 5.96806 3.87479 5.8895C3.87322 5.81094 3.8965 5.73388 3.94132 5.66934C4.19708 5.35245 4.47097 5.05063 4.76162 4.76539C5.06786 4.4586 5.37246 4.1819 5.65574 3.95003C5.72044 3.90106 5.79936 3.87456 5.8805 3.87456C5.96164 3.87456 6.04056 3.90106 6.10526 3.95003L7.5889 5.01147C7.66542 5.06626 7.75671 5.09662 7.8508 5.09857C7.94488 5.10052 8.03736 5.07398 8.11608 5.02241C9.23943 4.28282 10.493 3.76323 11.8101 3.49122C11.9027 3.47202 11.9873 3.42513 12.0527 3.35676C12.118 3.2884 12.161 3.20179 12.176 3.10842L12.4708 1.31092C12.4811 1.23281 12.5165 1.16015 12.5716 1.10385C12.6267 1.04755 12.6986 1.01064 12.7765 0.998663C13.5866 0.911168 14.4037 0.911168 15.2138 0.998663C15.2934 1.0095 15.3672 1.04622 15.4238 1.10314C15.4804 1.16007 15.5168 1.23404 15.5272 1.31365L15.8203 3.11225C15.8353 3.20562 15.8783 3.29223 15.9436 3.36059C16.009 3.42896 16.0936 3.47585 16.1862 3.49505C17.5033 3.76706 18.7569 4.28665 19.8802 5.02624C19.9588 5.07803 20.0513 5.10476 20.1454 5.10291C20.2395 5.10105 20.3309 5.0707 20.4074 5.01585L21.8927 3.95331C21.9551 3.90531 22.0313 3.87857 22.11 3.87699C22.1887 3.87542 22.2659 3.8991 22.3302 3.94456C22.624 4.18408 22.9272 4.45988 23.2396 4.77195C23.5274 5.0545 23.7991 5.35301 24.0533 5.66606C24.1002 5.73107 24.125 5.80946 24.1239 5.88962C24.1228 5.96978 24.096 6.04747 24.0473 6.1112L22.9859 7.59481C22.9311 7.67132 22.9007 7.76262 22.8988 7.8567C22.8968 7.95078 22.9234 8.04326 22.9749 8.12198C23.7147 9.2452 24.2344 10.4988 24.5061 11.816C24.5256 11.9085 24.5725 11.9929 24.6409 12.0582C24.7092 12.1235 24.7957 12.1666 24.889 12.1818L26.6876 12.4738C26.766 12.4849 26.8388 12.5209 26.8951 12.5766C26.9514 12.6322 26.9884 12.7045 27.0004 12.7828C27.0868 13.5913 27.0868 14.4067 27.0004 15.2152L27.0026 15.2141Z" fill="#316FEA"/>
</g>
<defs>
<clipPath id="clip0_639_263">
<rect width="28" height="28" fill="white"/>
</clipPath>
</defs>
</svg>
