<svg width="24" height="24" viewBox="0 0 24 24" fill="none" xmlns="http://www.w3.org/2000/svg">
<g clip-path="url(#clip0_733_207)">
<path d="M20.8819 11.2153H2.34797C1.72548 11.2161 1.12869 11.4637 0.688526 11.9039C0.248358 12.344 0.000744311 12.9408 0 13.5633V21.6521C0.000744311 22.2745 0.248358 22.8713 0.688526 23.3115C1.12869 23.7517 1.72548 23.9993 2.34797 24H20.8819C21.5044 23.9994 22.1013 23.7518 22.5415 23.3116C22.9816 22.8714 23.2292 22.2746 23.2298 21.6521V13.5633C23.2292 12.9408 22.9816 12.3439 22.5415 11.9037C22.1013 11.4635 21.5044 11.216 20.8819 11.2153ZM21.8236 21.6521C21.8233 21.9017 21.724 22.1411 21.5475 22.3177C21.3709 22.4942 21.1316 22.5935 20.8819 22.5938H2.34797C2.09829 22.5935 1.8589 22.4942 1.68235 22.3177C1.50579 22.1411 1.4065 21.9017 1.40625 21.6521V13.5633C1.4065 13.3136 1.50579 13.0742 1.68235 12.8977C1.8589 12.7211 2.09829 12.6218 2.34797 12.6216H20.8819C21.1316 12.6218 21.3709 12.7211 21.5475 12.8977C21.724 13.0742 21.8233 13.3136 21.8236 13.5633V21.6521Z" fill="#316FEA"/>
<path d="M11.6169 7.52985C12.1209 7.52902 12.609 7.35349 12.9981 7.03317C13.3872 6.71285 13.6532 6.26754 13.7508 5.77311C13.8484 5.27868 13.7716 4.7657 13.5335 4.32154C13.2953 3.87739 12.9105 3.52953 12.4447 3.33722C11.9788 3.14491 11.4607 3.12005 10.9786 3.26686C10.4965 3.41367 10.0802 3.72309 9.8006 4.14239C9.52101 4.5617 9.39543 5.06497 9.44524 5.56648C9.49506 6.06799 9.7172 6.53671 10.0738 6.89282C10.2765 7.09532 10.5171 7.25583 10.7819 7.36514C11.0467 7.47446 11.3305 7.53043 11.6169 7.52985ZM11.0676 4.80501C11.2135 4.65997 11.4109 4.57857 11.6167 4.57857C11.8225 4.57857 12.0199 4.65997 12.1658 4.80501C12.2377 4.87669 12.2947 4.96184 12.3337 5.05559C12.3726 5.14934 12.3926 5.24984 12.3926 5.35134C12.3926 5.45284 12.3726 5.55335 12.3337 5.6471C12.2947 5.74084 12.2377 5.826 12.1658 5.89767C12.0199 6.04285 11.8224 6.12435 11.6165 6.12435C11.4106 6.12435 11.2131 6.04285 11.0671 5.89767C10.9952 5.82603 10.9381 5.74089 10.8992 5.64713C10.8602 5.55338 10.8402 5.45286 10.8402 5.35134C10.8402 5.24982 10.8602 5.1493 10.8992 5.05555C10.9381 4.9618 10.9952 4.87666 11.0671 4.80501H11.0676Z" fill="#316FEA"/>
<path d="M14.1863 8.4261C14.3182 8.55791 14.497 8.63196 14.6834 8.63196C14.8699 8.63196 15.0487 8.55791 15.1805 8.4261C15.5852 8.02254 15.9062 7.54311 16.1252 7.01529C16.3442 6.48747 16.457 5.92162 16.457 5.35016C16.457 4.77869 16.3442 4.21284 16.1252 3.68502C15.9062 3.1572 15.5852 2.67778 15.1805 2.27422C15.0485 2.1425 14.8696 2.06863 14.6831 2.06885C14.4966 2.06907 14.3178 2.14336 14.1861 2.27539C14.0544 2.40742 13.9805 2.58637 13.9807 2.77286C13.9809 2.95936 14.0552 3.13813 14.1873 3.26985C14.461 3.54274 14.6781 3.86697 14.8263 4.22395C14.9745 4.58093 15.0508 4.96365 15.0508 5.35016C15.0508 5.73667 14.9745 6.11938 14.8263 6.47636C14.6781 6.83334 14.461 7.15757 14.1873 7.43047C14.1217 7.49572 14.0697 7.57326 14.0342 7.65865C13.9986 7.74404 13.9803 7.8356 13.9802 7.92809C13.9801 8.02057 13.9983 8.11217 14.0337 8.19762C14.069 8.28308 14.1209 8.36072 14.1863 8.4261Z" fill="#316FEA"/>
<path d="M8.04939 8.42805C8.18142 8.55977 8.36036 8.63364 8.54686 8.63342C8.73335 8.6332 8.91212 8.55891 9.04384 8.42688C9.17556 8.29485 9.24943 8.11591 9.24921 7.92941C9.24899 7.74292 9.1747 7.56414 9.04267 7.43243C8.769 7.15946 8.55188 6.83518 8.40373 6.47816C8.25558 6.12115 8.17932 5.73841 8.17932 5.35188C8.17932 4.96535 8.25558 4.58261 8.40373 4.2256C8.55188 3.86858 8.769 3.5443 9.04267 3.27133C9.10988 3.20654 9.16352 3.129 9.20045 3.04325C9.23737 2.9575 9.25686 2.86526 9.25775 2.7719C9.25865 2.67854 9.24095 2.58594 9.20568 2.4995C9.1704 2.41305 9.11827 2.3345 9.05232 2.26842C8.98636 2.20234 8.90791 2.15006 8.82153 2.11462C8.73515 2.07919 8.64259 2.06131 8.54923 2.06203C8.45587 2.06275 8.36359 2.08206 8.27777 2.11883C8.19195 2.1556 8.11431 2.20909 8.04939 2.27618C7.64478 2.67974 7.32376 3.15916 7.10473 3.68698C6.8857 4.2148 6.77295 4.78065 6.77295 5.35211C6.77295 5.92358 6.8857 6.48943 7.10473 7.01725C7.32376 7.54507 7.64478 8.02449 8.04939 8.42805Z" fill="#316FEA"/>
<path d="M6.11205 19.7813H4.22486V14.7324C4.22486 14.5459 4.15078 14.3671 4.01892 14.2352C3.88705 14.1034 3.70821 14.0293 3.52173 14.0293C3.33525 14.0293 3.15641 14.1034 3.02454 14.2352C2.89268 14.3671 2.8186 14.5459 2.8186 14.7324V20.4845C2.8186 20.6709 2.89268 20.8498 3.02454 20.9816C3.15641 21.1135 3.33525 21.1876 3.52173 21.1876H6.11205C6.29853 21.1876 6.47737 21.1135 6.60923 20.9816C6.74109 20.8498 6.81517 20.6709 6.81517 20.4845C6.81517 20.298 6.74109 20.1191 6.60923 19.9873C6.47737 19.8554 6.29853 19.7813 6.11205 19.7813Z" fill="#316FEA"/>
<path d="M8.29028 14.0293C8.1038 14.0293 7.92496 14.1034 7.7931 14.2352C7.66124 14.3671 7.58716 14.5459 7.58716 14.7324V20.4845C7.58716 20.6709 7.66124 20.8498 7.7931 20.9816C7.92496 21.1135 8.1038 21.1876 8.29028 21.1876C8.47676 21.1876 8.65561 21.1135 8.78747 20.9816C8.91933 20.8498 8.99341 20.6709 8.99341 20.4845V14.7324C8.99341 14.5459 8.91933 14.3671 8.78747 14.2352C8.65561 14.1034 8.47676 14.0293 8.29028 14.0293Z" fill="#316FEA"/>
<path d="M14.4375 14.0594C14.2592 14.0056 14.0668 14.0247 13.9025 14.1126C13.7382 14.2004 13.6156 14.3499 13.5614 14.5282L12.4983 18.0499L11.4375 14.5315C11.4127 14.441 11.3699 14.3564 11.3119 14.2827C11.2538 14.209 11.1816 14.1477 11.0995 14.1023C11.0174 14.0569 10.927 14.0285 10.8337 14.0186C10.7404 14.0087 10.6461 14.0175 10.5563 14.0447C10.4664 14.0718 10.383 14.1166 10.3107 14.1765C10.2385 14.2364 10.179 14.3101 10.1357 14.3934C10.0924 14.4766 10.0662 14.5677 10.0587 14.6612C10.0511 14.7547 10.0624 14.8488 10.0917 14.9379L11.8261 20.689C12.0174 21.3012 12.96 21.3382 13.1714 20.689L14.9058 14.9379C14.9328 14.8494 14.9422 14.7566 14.9333 14.6645C14.9244 14.5725 14.8974 14.4831 14.8539 14.4015C14.8104 14.3199 14.7512 14.2477 14.6798 14.189C14.6083 14.1303 14.526 14.0863 14.4375 14.0594Z" fill="#316FEA"/>
<path d="M19.7087 15.4355C19.8951 15.4355 20.074 15.3615 20.2058 15.2296C20.3377 15.0977 20.4118 14.9189 20.4118 14.7324C20.4118 14.5459 20.3377 14.3671 20.2058 14.2352C20.074 14.1034 19.8951 14.0293 19.7087 14.0293H16.5366C16.3501 14.0293 16.1713 14.1034 16.0394 14.2352C15.9076 14.3671 15.8335 14.5459 15.8335 14.7324V20.4845C15.8335 20.6709 15.9076 20.8498 16.0394 20.9816C16.1713 21.1135 16.3501 21.1876 16.5366 21.1876H19.614C19.8004 21.1876 19.9793 21.1135 20.1111 20.9816C20.243 20.8498 20.3171 20.6709 20.3171 20.4845C20.3171 20.298 20.243 20.1191 20.1111 19.9873C19.9793 19.8554 19.8004 19.7813 19.614 19.7813H17.2397V17.949H19.2352C19.4217 17.949 19.6005 17.8749 19.7324 17.743C19.8643 17.6112 19.9383 17.4323 19.9383 17.2459C19.9383 17.0594 19.8643 16.8805 19.7324 16.7487C19.6005 16.6168 19.4217 16.5427 19.2352 16.5427H17.2397V15.4355H19.7087Z" fill="#316FEA"/>
<path d="M17.5003 5.3519C17.5023 6.12329 17.351 6.88739 17.0553 7.59985C16.7595 8.31231 16.3253 8.95894 15.7776 9.50221C15.6453 9.63393 15.5707 9.81282 15.5702 9.99954C15.5698 10.1863 15.6436 10.3655 15.7753 10.4978C15.907 10.6302 16.0859 10.7048 16.2726 10.7052C16.4593 10.7057 16.6386 10.6319 16.7709 10.5002C17.4481 9.8252 17.9854 9.0232 18.352 8.14015C18.7186 7.2571 18.9074 6.31037 18.9074 5.35424C18.9074 4.39812 18.7186 3.45139 18.352 2.56834C17.9854 1.68529 17.4481 0.883289 16.7709 0.208307C16.706 0.141215 16.6283 0.0877253 16.5425 0.0509584C16.4567 0.0141915 16.3644 -0.00511631 16.2711 -0.00583835C16.1777 -0.00656038 16.0851 0.0113178 15.9988 0.046753C15.9124 0.0821882 15.8339 0.134471 15.768 0.20055C15.702 0.26663 15.6499 0.345183 15.6146 0.431626C15.5793 0.518069 15.5616 0.610671 15.5625 0.704029C15.5634 0.797387 15.5829 0.889632 15.6198 0.975381C15.6568 1.06113 15.7104 1.13866 15.7776 1.20346C16.325 1.74653 16.7592 2.39285 17.0549 3.10497C17.3506 3.81709 17.502 4.58083 17.5003 5.3519Z" fill="#316FEA"/>
<path d="M6.95581 10.7029C7.09502 10.703 7.23114 10.6619 7.34692 10.5846C7.46271 10.5073 7.55295 10.3974 7.60622 10.2688C7.65948 10.1402 7.67337 9.99863 7.64612 9.86211C7.61887 9.7256 7.55171 9.60024 7.45315 9.50193C6.90685 8.95757 6.4734 8.31072 6.17763 7.59847C5.88187 6.88623 5.72962 6.1226 5.72962 5.35139C5.72962 4.58017 5.88187 3.81655 6.17763 3.1043C6.4734 2.39205 6.90685 1.7452 7.45315 1.20084C7.51852 1.13556 7.5704 1.05804 7.60582 0.972711C7.64123 0.887382 7.65949 0.795912 7.65956 0.703525C7.65962 0.611138 7.64149 0.519643 7.6062 0.434263C7.5709 0.348884 7.51914 0.271292 7.45385 0.205919C7.38857 0.140545 7.31105 0.0886694 7.22572 0.0532541C7.1404 0.0178388 7.04893 -0.000422816 6.95654 -0.000488106C6.86415 -0.000553396 6.77266 0.0175789 6.68728 0.0528736C6.6019 0.0881683 6.52431 0.139934 6.45893 0.205215C5.78196 0.880363 5.24484 1.68245 4.87836 2.56552C4.51189 3.44859 4.32324 4.39529 4.32324 5.35139C4.32324 6.30748 4.51189 7.25419 4.87836 8.13726C5.24484 9.02033 5.78196 9.82241 6.45893 10.4976C6.59082 10.6291 6.76952 10.703 6.95581 10.7029Z" fill="#316FEA"/>
</g>
<defs>
<clipPath id="clip0_733_207">
<rect width="23.2298" height="24" fill="white"/>
</clipPath>
</defs>
</svg>
