<svg width="20" height="28" viewBox="0 0 20 28" fill="none" xmlns="http://www.w3.org/2000/svg">
<g clip-path="url(#clip0_639_274)">
<path d="M16.6253 13.6555C16.5171 13.6555 16.4132 13.6987 16.3367 13.7756C16.2601 13.8525 16.2171 13.9568 16.2171 14.0656V25.0578C16.2163 25.6209 15.9931 26.1606 15.5965 26.5584C15.2 26.9562 14.6625 27.1797 14.1022 27.1797H2.92917C2.36905 27.1791 1.83205 26.9552 1.43603 26.5572C1.04002 26.1592 0.817357 25.6195 0.816925 25.0567V2.94328C0.817357 2.38046 1.04002 1.84081 1.43603 1.44279C1.83205 1.04476 2.36905 0.820892 2.92917 0.820312H14.1022C14.6622 0.820891 15.1992 1.04467 15.5953 1.44256C15.9914 1.84045 16.2142 2.37996 16.215 2.94273V4.63805C16.2121 4.69369 16.2205 4.74934 16.2397 4.8016C16.259 4.85387 16.2886 4.90165 16.3268 4.94206C16.3649 4.98246 16.4109 5.01463 16.4619 5.03662C16.5128 5.0586 16.5677 5.06994 16.6231 5.06994C16.6786 5.06994 16.7335 5.0586 16.7844 5.03662C16.8354 5.01463 16.8813 4.98246 16.9195 4.94206C16.9577 4.90165 16.9873 4.85387 17.0065 4.8016C17.0258 4.74934 17.0342 4.69369 17.0313 4.63805V2.94273C17.0302 2.16253 16.7212 1.41463 16.1721 0.862992C15.623 0.311358 14.8786 0.00101258 14.1022 0L2.92917 0C2.15257 0.000868493 1.40803 0.311242 0.85889 0.863026C0.30975 1.41481 0.00086433 2.16294 0 2.94328V25.0567C0.00086433 25.8371 0.30975 26.5852 0.85889 27.137C1.40803 27.6888 2.15257 27.9991 2.92917 28H14.1022C14.8788 27.9991 15.6234 27.6888 16.1726 27.137C16.7219 26.5852 17.0309 25.8371 17.0319 25.0567V14.0645C17.0319 14.0106 17.0213 13.9572 17.0008 13.9074C16.9802 13.8576 16.9501 13.8124 16.9121 13.7743C16.8742 13.7362 16.8291 13.706 16.7795 13.6854C16.7299 13.6649 16.6768 13.6543 16.6231 13.6544L16.6253 13.6555Z" fill="#316FEA"/>
<path d="M5.63032 26.3593H14.1022C14.447 26.3589 14.7776 26.221 15.0215 25.976C15.2653 25.731 15.4025 25.3988 15.4029 25.0523V14.0655C15.3975 13.9604 15.3522 13.8614 15.2762 13.7889C15.2003 13.7164 15.0995 13.676 14.9947 13.676C14.89 13.676 14.7892 13.7164 14.7133 13.7889C14.6373 13.8614 14.592 13.9604 14.5866 14.0655V25.0512C14.5867 25.1152 14.5743 25.1786 14.55 25.2378C14.5257 25.2969 14.4901 25.3507 14.4451 25.396C14.4001 25.4413 14.3466 25.4773 14.2878 25.5018C14.229 25.5264 14.1659 25.539 14.1022 25.539H5.63032C5.52571 25.5444 5.42717 25.59 5.35503 25.6663C5.28289 25.7426 5.24268 25.8439 5.24268 25.9491C5.24268 26.0544 5.28289 26.1556 5.35503 26.232C5.42717 26.3083 5.52571 26.3539 5.63032 26.3593Z" fill="#316FEA"/>
<path d="M2.45512 3.98858C2.45512 3.93465 2.44455 3.88124 2.42401 3.83141C2.40347 3.78159 2.37336 3.73631 2.33541 3.69817C2.29745 3.66004 2.25239 3.62978 2.2028 3.60914C2.15321 3.5885 2.10006 3.57788 2.04639 3.57788C1.93701 3.57817 1.83219 3.62192 1.7548 3.69958C1.67741 3.77724 1.63373 3.88251 1.6333 3.99241V25.0515C1.63344 25.3982 1.7705 25.7307 2.01438 25.9759C2.25826 26.2212 2.58903 26.3592 2.93407 26.3596H6.61104C6.66642 26.3625 6.7218 26.354 6.77381 26.3347C6.82582 26.3154 6.87338 26.2856 6.91359 26.2472C6.9538 26.2089 6.98582 26.1627 7.0077 26.1115C7.02958 26.0603 7.04086 26.0052 7.04086 25.9494C7.04086 25.8937 7.02958 25.8386 7.0077 25.7874C6.98582 25.7362 6.9538 25.69 6.91359 25.6516C6.87338 25.6133 6.82582 25.5835 6.77381 25.5642C6.7218 25.5449 6.66642 25.5364 6.61104 25.5393H2.93407C2.80579 25.5391 2.6828 25.4879 2.5921 25.3967C2.50139 25.3056 2.45037 25.182 2.45022 25.0531V4.05257C2.4537 4.03142 2.45552 4.01002 2.45567 3.98858H2.45512Z" fill="#316FEA"/>
<path d="M14.9915 5.04984C15.0999 5.04984 15.2038 5.00657 15.2805 4.92955C15.3571 4.85253 15.4002 4.74807 15.4002 4.63914V2.94875C15.4001 2.60252 15.2634 2.27046 15.0201 2.02528C14.7768 1.7801 14.4467 1.64178 14.1021 1.64062H12.188C12.0926 1.64094 12.0001 1.67428 11.9263 1.73504C11.8524 1.7958 11.8017 1.88026 11.7825 1.97422C11.757 2.10172 11.6883 2.21643 11.5883 2.29894C11.4882 2.38145 11.3628 2.4267 11.2334 2.42703H5.80011C5.6701 2.42649 5.54428 2.38078 5.44399 2.29765C5.3437 2.21452 5.27511 2.09909 5.24987 1.97094C5.22977 1.87813 5.17872 1.795 5.10518 1.73532C5.03164 1.67565 4.94001 1.64301 4.84548 1.64281H2.93407C2.58921 1.64325 2.25861 1.78109 2.01476 2.02611C1.77092 2.27113 1.63373 2.60333 1.6333 2.94984V4.42203C1.63359 4.53212 1.67728 4.63761 1.7548 4.71541C1.83233 4.79321 1.93737 4.83697 2.04693 4.83711C2.15472 4.83711 2.25814 4.79428 2.33461 4.71795C2.41108 4.64162 2.4544 4.53799 2.45512 4.42969C2.45498 4.40807 2.45316 4.38649 2.44968 4.36516V2.94875C2.44954 2.88474 2.46196 2.82133 2.48624 2.76216C2.51052 2.70298 2.54618 2.64919 2.59117 2.60388C2.63616 2.55857 2.68961 2.52262 2.74845 2.49809C2.80729 2.47356 2.87036 2.46094 2.93407 2.46094H4.55812C4.6706 2.69619 4.84677 2.89483 5.06643 3.03411C5.2861 3.17339 5.54037 3.24767 5.80011 3.24844H11.2334C11.4932 3.24771 11.7476 3.17345 11.9673 3.03417C12.1871 2.89489 12.3633 2.69623 12.4759 2.46094H14.1021C14.2304 2.46108 14.3534 2.51235 14.4441 2.60349C14.5348 2.69464 14.5858 2.81821 14.586 2.94711V4.63914C14.5859 4.69305 14.5964 4.74644 14.6169 4.79627C14.6374 4.84609 14.6674 4.89137 14.7054 4.92952C14.7433 4.96766 14.7883 4.99792 14.8378 5.01857C14.8874 5.03922 14.9405 5.04984 14.9942 5.04984H14.9915Z" fill="#316FEA"/>
<path d="M8.91271 7.35547C8.85906 7.35547 8.80593 7.3661 8.75637 7.38674C8.70681 7.40739 8.66179 7.43765 8.62388 7.47579C8.58597 7.51394 8.55591 7.55922 8.53543 7.60904C8.51495 7.65887 8.50445 7.71226 8.50452 7.76617V10.8287C8.50452 10.9375 8.54752 11.0418 8.62407 11.1187C8.70062 11.1956 8.80445 11.2388 8.91271 11.2388H10.1188C10.1742 11.2417 10.2295 11.2332 10.2815 11.2139C10.3336 11.1946 10.3811 11.1649 10.4213 11.1265C10.4615 11.0881 10.4936 11.0419 10.5154 10.9907C10.5373 10.9395 10.5486 10.8844 10.5486 10.8287C10.5486 10.773 10.5373 10.7178 10.5154 10.6666C10.4936 10.6154 10.4615 10.5692 10.4213 10.5309C10.3811 10.4925 10.3336 10.4628 10.2815 10.4434C10.2295 10.4241 10.1742 10.4156 10.1188 10.4185H9.3209V7.76563C9.3209 7.65685 9.27789 7.55252 9.20134 7.4756C9.12479 7.39868 9.02097 7.35547 8.91271 7.35547Z" fill="#316FEA"/>
<path d="M11.2177 7.76563V10.8281C11.2231 10.9332 11.2685 11.0323 11.3444 11.1047C11.4204 11.1772 11.5211 11.2176 11.6259 11.2176C11.7306 11.2176 11.8314 11.1772 11.9074 11.1047C11.9833 11.0323 12.0287 10.9332 12.0341 10.8281V7.76563C12.0369 7.70999 12.0285 7.65434 12.0093 7.60208C11.9901 7.54981 11.9605 7.50203 11.9223 7.46162C11.8841 7.42122 11.8381 7.38905 11.7872 7.36706C11.7362 7.34508 11.6813 7.33374 11.6259 7.33374C11.5704 7.33374 11.5156 7.34508 11.4646 7.36706C11.4137 7.38905 11.3677 7.42122 11.3295 7.46162C11.2913 7.50203 11.2617 7.54981 11.2425 7.60208C11.2233 7.65434 11.2148 7.70999 11.2177 7.76563Z" fill="#316FEA"/>
<path d="M14.2817 7.65631L13.8675 9.17115L13.5143 7.67052C13.502 7.6181 13.4795 7.56862 13.4481 7.52493C13.4168 7.48124 13.3772 7.44417 13.3315 7.41586C13.2859 7.38755 13.2352 7.36855 13.1823 7.35993C13.1294 7.35131 13.0753 7.35325 13.0231 7.36564C12.9709 7.37803 12.9217 7.40062 12.8782 7.43213C12.8347 7.46364 12.7978 7.50344 12.7697 7.54927C12.7415 7.59511 12.7226 7.64606 12.714 7.69924C12.7054 7.75242 12.7074 7.80677 12.7197 7.8592L13.4408 10.9217C13.4617 11.0103 13.5113 11.0894 13.5819 11.1465C13.6524 11.2036 13.7399 11.2356 13.8305 11.2372H13.8381C13.9276 11.2373 14.0146 11.2078 14.0857 11.1534C14.1569 11.0989 14.2083 11.0225 14.2322 10.9359L15.0698 7.87341C15.0986 7.76841 15.0848 7.65617 15.0313 7.56141C14.9779 7.46664 14.8891 7.39711 14.7846 7.3681C14.6801 7.33909 14.5684 7.35299 14.4741 7.40673C14.3798 7.46047 14.3106 7.54966 14.2817 7.65466V7.65631Z" fill="#316FEA"/>
<path d="M17.3899 8.17627C17.4945 8.17084 17.593 8.12526 17.6652 8.04893C17.7373 7.97261 17.7775 7.87137 17.7775 7.76611C17.7775 7.66086 17.7373 7.55962 17.6652 7.48329C17.593 7.40697 17.4945 7.36139 17.3899 7.35596H16.2959C16.1227 7.35596 15.9566 7.4251 15.8341 7.54817C15.7116 7.67124 15.6428 7.83816 15.6428 8.01221V10.5825C15.6428 10.7566 15.7116 10.9235 15.8341 11.0466C15.9566 11.1696 16.1227 11.2388 16.2959 11.2388H17.3899C17.4945 11.2333 17.593 11.1878 17.6652 11.1114C17.7373 11.0351 17.7775 10.9339 17.7775 10.8286C17.7775 10.7234 17.7373 10.6221 17.6652 10.5458C17.593 10.4695 17.4945 10.4239 17.3899 10.4185H16.4581V9.76221H16.9866C17.0912 9.75678 17.1897 9.7112 17.2619 9.63487C17.334 9.55855 17.3742 9.45731 17.3742 9.35205C17.3742 9.24679 17.334 9.14555 17.2619 9.06923C17.1897 8.99291 17.0912 8.94732 16.9866 8.9419H16.457V8.17627H17.3899Z" fill="#316FEA"/>
<path d="M18.3473 5.87061H17.2381C17.1335 5.87604 17.0349 5.92162 16.9628 5.99794C16.8906 6.07427 16.8504 6.1755 16.8504 6.28076C16.8504 6.38602 16.8906 6.48726 16.9628 6.56358C17.0349 6.63991 17.1335 6.68549 17.2381 6.69092H18.3473C18.5507 6.69106 18.7457 6.77227 18.8895 6.91673C19.0334 7.06119 19.1144 7.2571 19.1147 7.46147V11.242C19.1144 11.4464 19.0334 11.6424 18.8896 11.7869C18.7457 11.9315 18.5507 12.0128 18.3473 12.0131H7.30218C7.0987 12.013 6.90359 11.9317 6.75971 11.7871C6.61582 11.6425 6.53493 11.4465 6.53478 11.242V7.46201C6.53507 7.25764 6.61603 7.06174 6.7599 6.91728C6.90377 6.77282 7.09879 6.69161 7.30218 6.69147H17.6746C17.7792 6.68604 17.8777 6.64045 17.9499 6.56413C18.022 6.48781 18.0622 6.38657 18.0622 6.28131C18.0622 6.17605 18.022 6.07481 17.9499 5.99849C17.8777 5.92216 17.7792 5.87658 17.6746 5.87115H7.30218C6.88279 5.87231 6.48092 6.04034 6.18452 6.33848C5.88811 6.63662 5.7213 7.0406 5.72058 7.46201V11.2426C5.72101 11.6646 5.88807 12.0693 6.1851 12.3678C6.48212 12.6662 6.88485 12.8341 7.3049 12.8345H18.3473C18.7672 12.8339 19.1698 12.666 19.4667 12.3676C19.7636 12.0691 19.9306 11.6645 19.931 11.2426V7.46201C19.9306 7.04008 19.7636 6.63555 19.4667 6.3372C19.1698 6.03885 18.7672 5.87104 18.3473 5.87061Z" fill="#316FEA"/>
<path d="M6.8044 16.9642C6.69978 16.9696 6.60124 17.0152 6.5291 17.0915C6.45697 17.1678 6.41675 17.2691 6.41675 17.3743C6.41675 17.4796 6.45697 17.5808 6.5291 17.6571C6.60124 17.7335 6.69978 17.7791 6.8044 17.7845C7.96901 17.7858 9.08554 18.2512 9.90905 19.0787C10.7326 19.9062 11.1958 21.0281 11.1971 22.1983C11.1942 22.254 11.2026 22.3096 11.2219 22.3619C11.2411 22.4141 11.2707 22.4619 11.3089 22.5023C11.3471 22.5427 11.393 22.5749 11.444 22.5969C11.4949 22.6189 11.5498 22.6302 11.6053 22.6302C11.6607 22.6302 11.7156 22.6189 11.7665 22.5969C11.8175 22.5749 11.8634 22.5427 11.9016 22.5023C11.9398 22.4619 11.9694 22.4141 11.9886 22.3619C12.0079 22.3096 12.0163 22.254 12.0134 22.1983C12.0119 20.8105 11.4625 19.4799 10.4858 18.4986C9.50919 17.5172 8.18503 16.9652 6.80385 16.9636L6.8044 16.9642Z" fill="#316FEA"/>
<path d="M9.56376 22.1987C9.56376 22.3075 9.60676 22.4118 9.68332 22.4887C9.75987 22.5656 9.86369 22.6088 9.97195 22.6088C10.0802 22.6088 10.184 22.5656 10.2606 22.4887C10.3371 22.4118 10.3801 22.3075 10.3801 22.1987C10.3791 21.2461 10.0021 20.3328 9.33171 19.6592C8.66135 18.9856 7.75243 18.6067 6.8044 18.6057C6.69978 18.6111 6.60124 18.6567 6.5291 18.733C6.45697 18.8094 6.41675 18.9106 6.41675 19.0159C6.41675 19.1211 6.45697 19.2224 6.5291 19.2987C6.60124 19.375 6.69978 19.4206 6.8044 19.426C7.536 19.4267 8.23744 19.7191 8.75476 20.2389C9.27209 20.7587 9.56304 21.4636 9.56376 22.1987Z" fill="#316FEA"/>
<path d="M4.86243 22.1988C4.86232 22.5849 4.97616 22.9623 5.18956 23.2834C5.40296 23.6044 5.70632 23.8547 6.06128 24.0025C6.41623 24.1503 6.80684 24.189 7.18369 24.1137C7.56053 24.0384 7.90669 23.8525 8.17838 23.5795C8.45007 23.3065 8.63508 22.9587 8.71001 22.58C8.78494 22.2013 8.74643 21.8088 8.59935 21.4522C8.45226 21.0955 8.20321 20.7907 7.88369 20.5763C7.56418 20.3618 7.18855 20.2475 6.80432 20.2476C6.28952 20.2483 5.79601 20.4541 5.43199 20.8199C5.06797 21.1856 4.86315 21.6815 4.86243 22.1988ZM6.80432 21.0684C7.02698 21.0683 7.24466 21.1346 7.42983 21.2588C7.61501 21.383 7.75935 21.5596 7.84461 21.7663C7.92986 21.973 7.9522 22.2004 7.90878 22.4199C7.86537 22.6393 7.75817 22.8409 7.60073 22.999C7.44329 23.1572 7.24269 23.265 7.02431 23.3086C6.80593 23.3522 6.57958 23.3298 6.3739 23.2441C6.16822 23.1584 5.99244 23.0134 5.86881 22.8273C5.74518 22.6413 5.67924 22.4225 5.67935 22.1988C5.67978 21.8991 5.79845 21.6119 6.00933 21.4C6.22021 21.1881 6.5061 21.0689 6.80432 21.0684Z" fill="#316FEA"/>
</g>
<defs>
<clipPath id="clip0_639_274">
<rect width="19.9322" height="28" fill="white"/>
</clipPath>
</defs>
</svg>
