<svg width="28" height="28" viewBox="0 0 28 28" fill="none" xmlns="http://www.w3.org/2000/svg">
<path d="M27.4464 5.93222V5.735C27.4464 5.69944 27.4464 5.66581 27.4464 5.63413C27.4502 5.37548 27.4554 5.05217 27.1037 4.72886L22.2496 0.247801L22.2329 0.232282C22.1593 0.153307 22.0693 0.0916624 21.9693 0.0517559C21.8693 0.0118495 21.7617 -0.0053323 21.6543 0.00143919H4.26208C3.90971 0.0019527 3.57194 0.143022 3.32284 0.393704C3.07374 0.644386 2.93365 0.984213 2.93331 1.33865V13.832L1.61483 15.1588C1.50103 15.2729 1.41074 15.4085 1.34913 15.5578C1.28752 15.7071 1.2558 15.8672 1.2558 16.0288C1.2558 16.1905 1.28752 16.3505 1.34913 16.4998C1.41074 16.6491 1.50103 16.7847 1.61483 16.8989L1.93626 17.2222C1.84185 17.4264 1.75775 17.6353 1.68426 17.8481H1.22141C0.897472 17.8481 0.586802 17.9775 0.357743 18.2079C0.128684 18.4383 0 18.7508 0 19.0767V21.0566C0 21.3825 0.128684 21.6949 0.357743 21.9254C0.586802 22.1558 0.897472 22.2852 1.22141 22.2852H1.72219C1.79547 22.4882 1.87776 22.6857 1.96904 22.8775L1.61419 23.2344C1.50029 23.3486 1.40991 23.4842 1.34825 23.6336C1.28658 23.7829 1.25484 23.9431 1.25484 24.1048C1.25484 24.2665 1.28658 24.4266 1.34825 24.576C1.40991 24.7253 1.50029 24.861 1.61419 24.9751L3.0066 26.377C3.12002 26.4915 3.2549 26.5822 3.40342 26.6439C3.55195 26.7057 3.71117 26.7371 3.87187 26.7365C4.03191 26.7369 4.19045 26.7054 4.33831 26.6438C4.48617 26.5822 4.62042 26.4918 4.73329 26.3776L5.09135 26.0194C5.2842 26.1117 5.48092 26.1944 5.68148 26.2677V26.7714C5.68148 27.0973 5.81017 27.4098 6.03923 27.6402C6.26829 27.8706 6.57896 28 6.90289 28H8.87258C9.19652 28 9.50719 27.8706 9.73625 27.6402C9.9653 27.4098 10.094 27.0973 10.094 26.7714V26.3059C10.3063 26.2323 10.5146 26.1477 10.7182 26.0524L11.0396 26.3757C11.2692 26.6059 11.5801 26.7352 11.9042 26.7352C12.2284 26.7352 12.5393 26.6059 12.7689 26.3757L14.1613 24.9764C14.2082 24.93 14.2512 24.8799 14.2899 24.8264H26.1182C26.4705 24.8257 26.8081 24.6846 27.0571 24.4339C27.306 24.1832 27.446 23.8435 27.4464 23.4892V6.00723C27.4464 5.99494 27.4464 5.98266 27.4464 5.96972C27.4464 5.95679 27.4464 5.94451 27.4464 5.93222ZM26.4519 5.44532C26.466 5.4589 26.475 5.4686 26.4802 5.47441C26.4799 5.47786 26.4799 5.48132 26.4802 5.48476H21.7462C21.691 5.48476 21.6241 5.48476 21.5695 5.48476V0.971366H21.6074L26.4519 5.44532ZM12.0939 25.6909C12.07 25.7154 12.0414 25.7348 12.01 25.748C11.9785 25.7613 11.9448 25.7681 11.9107 25.7681C11.8766 25.7681 11.8428 25.7613 11.8114 25.748C11.7799 25.7348 11.7514 25.7154 11.7275 25.6909L11.1592 25.12C11.0862 25.0464 10.9916 24.9984 10.8893 24.9831C10.7871 24.9678 10.6827 24.9861 10.5916 25.0353C10.2393 25.2237 9.86826 25.3741 9.48457 25.484C9.38372 25.5128 9.29496 25.5739 9.23174 25.6581C9.16851 25.7422 9.13428 25.8448 9.13422 25.9502V26.7714C9.13306 26.8397 9.1056 26.9048 9.05762 26.953C9.00965 27.0013 8.94491 27.0289 8.87708 27.0301H6.90932C6.84149 27.0289 6.77675 27.0013 6.72878 26.953C6.6808 26.9048 6.65334 26.8397 6.65218 26.7714V25.9185C6.65199 25.8145 6.6186 25.7132 6.55692 25.6296C6.49525 25.546 6.40854 25.4846 6.30955 25.4543C5.93721 25.3408 5.57747 25.1891 5.23599 25.0016C5.14418 24.95 5.03806 24.9301 4.93391 24.9449C4.82976 24.9597 4.73331 25.0085 4.65936 25.0838L4.05187 25.6922C4.00371 25.7399 3.93882 25.7666 3.87123 25.7666C3.83712 25.7669 3.80331 25.7603 3.77174 25.7473C3.74018 25.7343 3.7115 25.7152 3.68737 25.6909L2.29561 24.2916C2.24748 24.2425 2.22049 24.1763 2.22049 24.1074C2.22049 24.0384 2.24748 23.9722 2.29561 23.9231L2.89924 23.3165C2.97318 23.2422 3.02112 23.1457 3.03584 23.0415C3.05057 22.9374 3.03128 22.8313 2.98088 22.7391C2.79407 22.3965 2.64326 22.0353 2.53089 21.6612C2.50062 21.5618 2.43944 21.4748 2.35636 21.413C2.27327 21.3512 2.17266 21.3179 2.06933 21.3179H1.22141C1.15357 21.3167 1.08884 21.2891 1.04087 21.2408C0.992891 21.1926 0.965428 21.1274 0.964271 21.0592V19.0767C0.964271 19.0081 0.991362 18.9423 1.03959 18.8938C1.08781 18.8453 1.15321 18.818 1.22141 18.818H2.03783C2.14292 18.8179 2.24511 18.7833 2.32888 18.7195C2.41264 18.6556 2.47341 18.5661 2.50196 18.4643C2.61148 18.0787 2.76101 17.7057 2.9481 17.3515C2.99576 17.2595 3.01286 17.1545 2.9969 17.052C2.98094 16.9495 2.93274 16.8548 2.85939 16.7818L2.29304 16.2128C2.26893 16.1885 2.24987 16.1597 2.23696 16.1279C2.22405 16.0962 2.21754 16.0622 2.21782 16.0279C2.21796 15.9935 2.22491 15.9595 2.23827 15.9278C2.25163 15.8962 2.27112 15.8676 2.29561 15.8436L3.68737 14.4437C3.73663 14.3958 3.80243 14.3691 3.87091 14.3691C3.93938 14.3691 4.00518 14.3958 4.05444 14.4437L4.59122 14.9829C4.66578 15.0579 4.76271 15.1063 4.86719 15.1207C4.97166 15.135 5.07794 15.1146 5.16978 15.0625C5.52962 14.859 5.91052 14.6957 6.30569 14.5756C6.40473 14.5453 6.4915 14.4839 6.55319 14.4003C6.61488 14.3167 6.64824 14.2154 6.64833 14.1113V13.3651C6.64932 13.2968 6.67673 13.2316 6.72474 13.1833C6.77275 13.135 6.83758 13.1075 6.90547 13.1064H8.87515C8.94304 13.1075 9.00786 13.135 9.05587 13.1833C9.10388 13.2316 9.13129 13.2968 9.13229 13.3651V14.0815C9.13243 14.1872 9.16685 14.2899 9.23032 14.374C9.29379 14.4582 9.38284 14.5192 9.48393 14.5478C9.89057 14.6633 10.2829 14.8249 10.6533 15.0295C10.7446 15.0798 10.8498 15.099 10.9529 15.0842C11.0561 15.0694 11.1517 15.0214 11.2254 14.9474L11.7242 14.4456C11.7735 14.3974 11.8394 14.3704 11.9081 14.3704C11.9768 14.3704 12.0427 14.3974 12.092 14.4456L13.4857 15.8481C13.5331 15.8965 13.5596 15.9618 13.5596 16.0298C13.5598 16.064 13.5532 16.0979 13.5403 16.1295C13.5274 16.1612 13.5084 16.1899 13.4844 16.2141L12.9862 16.7146C12.9126 16.7888 12.8649 16.8849 12.8501 16.9886C12.8353 17.0923 12.8541 17.198 12.9039 17.2901C13.1068 17.6635 13.2678 18.0584 13.3841 18.4676C13.4133 18.5694 13.4749 18.6588 13.5594 18.7221C13.6439 18.7854 13.7467 18.8191 13.8521 18.818H14.5592C14.6275 18.8188 14.6927 18.8463 14.7413 18.8945C14.7898 18.9427 14.8179 19.008 14.8196 19.0767V21.0566C14.8181 21.1253 14.79 21.1907 14.7415 21.239C14.6929 21.2872 14.6275 21.3146 14.5592 21.3153H13.818C13.7146 21.3153 13.6139 21.3488 13.5308 21.4107C13.4477 21.4726 13.3866 21.5598 13.3564 21.6593C13.2365 22.0567 13.0735 22.4396 12.8704 22.8012C12.8186 22.8936 12.7983 23.0006 12.8127 23.1057C12.8271 23.2108 12.8754 23.3083 12.9502 23.3831L13.4863 23.9205C13.5344 23.9696 13.5614 24.0358 13.5614 24.1048C13.5614 24.1737 13.5344 24.2399 13.4863 24.2891L12.0939 25.6909ZM26.1182 23.8578H14.5007C14.453 23.622 14.3369 23.4058 14.1671 23.2364L13.8829 22.9512C13.9888 22.7354 14.0831 22.5139 14.1651 22.2878H14.5592C14.8834 22.2876 15.1943 22.1582 15.4238 21.9279C15.6534 21.6977 15.7828 21.3853 15.7838 21.0592V19.0767C15.7826 18.7506 15.6531 18.4384 15.4236 18.2081C15.1941 17.9779 14.8833 17.8484 14.5592 17.8481H14.2011C14.1192 17.6104 14.0241 17.3775 13.9164 17.1504L14.1658 16.8989C14.2794 16.7848 14.3695 16.6492 14.431 16.5001C14.4925 16.3509 14.5242 16.191 14.5242 16.0295C14.5242 15.868 14.4925 15.7081 14.431 15.5589C14.3695 15.4097 14.2794 15.2742 14.1658 15.1601L12.7721 13.7576C12.5419 13.5288 12.2314 13.4006 11.9078 13.4006C11.5842 13.4006 11.2737 13.5288 11.0435 13.7576L10.7915 14.0104C10.5655 13.9012 10.3332 13.8055 10.0959 13.724V13.3638C10.0959 13.038 9.96723 12.7255 9.73818 12.4951C9.50912 12.2647 9.19845 12.1352 8.87451 12.1352H6.90932C6.58538 12.1352 6.27471 12.2647 6.04566 12.4951C5.8166 12.7255 5.68791 13.038 5.68791 13.3638V13.7621C5.46233 13.8438 5.24149 13.9381 5.02642 14.0447L4.74036 13.7576C4.51814 13.5343 4.21867 13.4062 3.90465 13.4V1.33865C3.90576 1.24291 3.94354 1.1513 4.01012 1.08289C4.0767 1.01447 4.16695 0.974523 4.26208 0.971366H20.6052V5.50481C20.6052 6.01369 20.852 6.24324 21.059 6.34541C21.277 6.45404 21.5155 6.45404 21.7462 6.45404H26.4821V23.4905C26.4809 23.5873 26.4423 23.6799 26.3743 23.7484C26.3064 23.817 26.2145 23.8563 26.1182 23.8578Z" fill="#316FEA"/>
<path d="M10.4453 19.3878L6.93732 17.351C6.7906 17.2598 6.62245 17.2093 6.45004 17.2048C6.04183 17.2048 5.76733 17.5372 5.76733 18.0306V22.1043C5.76733 22.5976 6.04183 22.9293 6.45004 22.9293C6.62235 22.9248 6.79042 22.8746 6.93732 22.7839L10.4453 20.747C10.7417 20.575 10.905 20.3332 10.905 20.0674C10.905 19.8017 10.7423 19.5598 10.4453 19.3878ZM10.2525 20.4062L6.74511 22.4431C6.65733 22.4987 6.55685 22.5308 6.45325 22.5362C6.19033 22.5362 6.16204 22.2336 6.16204 22.1043V18.0306C6.16204 17.9012 6.19033 17.5986 6.45325 17.5986C6.55685 17.6041 6.65733 17.6361 6.74511 17.6917L10.2525 19.7286C10.4203 19.8262 10.5167 19.9497 10.5167 20.0674C10.5167 20.1851 10.4177 20.3086 10.2525 20.4062Z" fill="#316FEA" stroke="#316FEA" stroke-width="0.4" stroke-miterlimit="10"/>
</svg>
