<svg width="28" height="11" viewBox="0 0 28 11" fill="none" xmlns="http://www.w3.org/2000/svg">
<path d="M3.6994 0V10.2091H4.89147V2.82705C4.90146 2.35962 4.88137 1.89204 4.83132 1.4272H4.87506C4.96272 1.64991 5.07072 1.86408 5.19768 2.06697L10.4471 10.2036H11.9126V0H10.726V7.17425C10.7141 7.67474 10.7378 8.17543 10.7971 8.67253H10.7698C10.7041 8.54677 10.5674 8.32257 10.3542 7.98901L5.2469 0H3.6994ZM14.5592 0V10.2091H19.9836L19.9891 9.08812H15.7786V5.54473H19.4696V4.4675H15.7841V1.07723H19.7376V0H14.5592ZM20.9023 0V1.07723H23.8387V10.2036H25.0308V1.07723H28V0H20.9023ZM0.76299 8.74909C0.663015 8.75187 0.564602 8.77459 0.473521 8.8159C0.38244 8.85722 0.300524 8.9163 0.232577 8.98969C0.121763 9.101 0.0462434 9.24252 0.0154719 9.39654C-0.0152996 9.55056 4.40134e-05 9.71024 0.0595821 9.85558C0.11912 10.0009 0.220207 10.1255 0.35019 10.2136C0.480172 10.3018 0.633274 10.3497 0.790331 10.3513C0.895226 10.3522 0.999212 10.3318 1.09601 10.2914C1.19281 10.2509 1.28042 10.1913 1.35355 10.1161C1.50338 9.96691 1.58794 9.76437 1.58869 9.55291C1.58688 9.34167 1.50248 9.13951 1.35355 8.98969C1.28103 8.91331 1.19366 8.85258 1.0968 8.8112C0.999945 8.76982 0.895653 8.74869 0.790331 8.74909H0.76299Z" fill="#316FEA"/>
</svg>
