<svg width="28" height="28" viewBox="0 0 28 28" fill="none" xmlns="http://www.w3.org/2000/svg">
<g clip-path="url(#clip0_639_577)">
<path d="M26.4421 16.9633L25.4812 16.4055C25.8038 14.8175 25.8053 13.1804 25.4855 11.5918L26.4421 11.0367C26.5878 10.9522 26.7155 10.8397 26.818 10.7055C26.9204 10.5714 26.9955 10.4183 27.039 10.2549C27.0826 10.0916 27.0937 9.92119 27.0717 9.75354C27.0497 9.58588 26.995 9.42423 26.9109 9.27781L24.2946 4.72219C24.2105 4.57571 24.0986 4.44732 23.9651 4.34436C23.8317 4.24139 23.6794 4.16587 23.5169 4.12211C23.3544 4.07834 23.1849 4.0672 23.0181 4.08931C22.8514 4.11142 22.6906 4.16635 22.5449 4.25096L21.5872 4.80658C20.3758 3.73645 18.9663 2.91715 17.4393 2.39562V1.28767C17.439 0.946249 17.304 0.618893 17.0638 0.377471C16.8237 0.136048 16.498 0.000290202 16.1584 0L10.9258 0C10.5862 0.000290202 10.2606 0.136048 10.0204 0.377471C9.78026 0.618893 9.64521 0.946249 9.64493 1.28767V2.39397C8.11959 2.91778 6.71193 3.73872 5.50245 4.80986L4.53933 4.25096C4.39368 4.16635 4.23288 4.11142 4.0661 4.08931C3.89933 4.0672 3.72986 4.07834 3.56737 4.12211C3.40488 4.16587 3.25257 4.24139 3.11913 4.34436C2.98569 4.44732 2.87374 4.57571 2.78968 4.72219L0.173378 9.27781C0.0892112 9.42423 0.0345699 9.58588 0.0125769 9.75354C-0.00941609 9.92119 0.00167031 10.0916 0.0452026 10.2549C0.0887349 10.4183 0.16386 10.5714 0.266284 10.7055C0.368708 10.8397 0.496423 10.9522 0.642132 11.0367L1.60308 11.5945C1.28042 13.1825 1.27893 14.8196 1.59872 16.4082L0.642132 16.9633C0.3483 17.1344 0.133946 17.4156 0.0460735 17.7453C-0.041799 18.0751 0.00398221 18.4263 0.173378 18.7222L2.78968 23.2778C2.95986 23.5732 3.23961 23.7887 3.5676 23.877C3.89559 23.9654 4.24504 23.9193 4.53933 23.749L5.497 23.1934C6.70842 24.2635 8.11798 25.0829 9.64493 25.6044V26.7123C9.64521 27.0538 9.78026 27.3811 10.0204 27.6225C10.2606 27.864 10.5862 27.9997 10.9258 28H16.1584C16.498 27.9997 16.8237 27.864 17.0638 27.6225C17.304 27.3811 17.439 27.0538 17.4393 26.7123V25.606C18.9648 25.0825 20.3725 24.2615 21.5818 23.1901L22.5449 23.749C22.8392 23.9193 23.1887 23.9654 23.5166 23.877C23.8446 23.7887 24.1244 23.5732 24.2946 23.2778L26.9109 18.7222C27.0803 18.4263 27.126 18.0751 27.0382 17.7453C26.9503 17.4156 26.7359 17.1344 26.4421 16.9633ZM26.2028 18.3112L23.5865 22.8668C23.525 22.9737 23.4238 23.0516 23.3052 23.0836C23.1865 23.1155 23.0601 23.0989 22.9537 23.0373L21.7333 22.3288C21.6576 22.2851 21.57 22.2668 21.4832 22.2767C21.3964 22.2865 21.3151 22.324 21.2509 22.3836C20.0085 23.5407 18.5255 24.4054 16.9095 24.9151C16.8262 24.941 16.7533 24.9931 16.7015 25.0637C16.6497 25.1343 16.6218 25.2197 16.6217 25.3074V26.7123C16.6216 26.8358 16.5727 26.9542 16.4859 27.0415C16.399 27.1288 16.2813 27.1779 16.1584 27.1781H10.9258C10.803 27.1779 10.6852 27.1288 10.5984 27.0415C10.5115 26.9542 10.4627 26.8358 10.4625 26.7123V25.3074C10.4626 25.2196 10.4347 25.1341 10.3829 25.0634C10.3311 24.9927 10.2582 24.9405 10.1747 24.9145C8.55766 24.4063 7.07337 23.5427 5.82949 22.3863C5.76533 22.3268 5.68397 22.2894 5.59722 22.2795C5.51047 22.2697 5.42286 22.2879 5.34711 22.3315L4.13053 23.0373C4.0241 23.0989 3.89771 23.1155 3.77908 23.0836C3.66045 23.0516 3.55926 22.9737 3.49771 22.8668L0.881414 18.3112C0.820139 18.2042 0.803574 18.0772 0.835351 17.9579C0.867129 17.8387 0.944655 17.7369 1.05093 17.6751L2.26478 16.9704C2.34038 16.9266 2.40005 16.8596 2.43507 16.7793C2.47008 16.6989 2.47859 16.6094 2.45937 16.5238C2.08211 14.8632 2.0836 13.1383 2.46373 11.4784C2.48287 11.3928 2.47431 11.3033 2.43931 11.223C2.4043 11.1426 2.34468 11.0757 2.26914 11.0318L1.05093 10.3249C0.944544 10.2632 0.866922 10.1614 0.835133 10.0421C0.803345 9.92284 0.819992 9.79573 0.881414 9.68877L3.49771 5.13315C3.55916 5.0262 3.66035 4.94817 3.77902 4.91621C3.89769 4.88426 4.02413 4.90099 4.13053 4.96274L5.35092 5.67123C5.42665 5.71494 5.51428 5.7332 5.60105 5.72335C5.68782 5.71349 5.76919 5.67603 5.8333 5.61644C7.07574 4.45931 8.55871 3.59458 10.1747 3.08493C10.258 3.059 10.3308 3.007 10.3826 2.93652C10.4343 2.86603 10.4624 2.78077 10.4625 2.69315V1.28767C10.4627 1.16419 10.5115 1.04581 10.5984 0.958494C10.6852 0.87118 10.803 0.822063 10.9258 0.821918H16.1584C16.2813 0.822063 16.399 0.87118 16.4859 0.958494C16.5727 1.04581 16.6216 1.16419 16.6217 1.28767V2.69315C16.6218 2.78086 16.6497 2.86625 16.7015 2.93684C16.7533 3.00743 16.8262 3.05952 16.9095 3.08548C18.5265 3.59386 20.0108 4.45746 21.2548 5.6137C21.3187 5.67333 21.4 5.71081 21.4867 5.72067C21.5734 5.73053 21.661 5.71225 21.7366 5.66849L22.9515 4.96329C23.0579 4.90154 23.1844 4.88481 23.303 4.91676C23.4217 4.94872 23.5229 5.02675 23.5843 5.1337L26.2006 9.68931C26.2621 9.79628 26.2787 9.92338 26.2469 10.0427C26.2151 10.162 26.1375 10.2637 26.0311 10.3255L24.8195 11.0296C24.7439 11.0733 24.6843 11.1402 24.6492 11.2204C24.6142 11.3007 24.6057 11.3901 24.6249 11.4756C25.0019 13.1364 25.0006 14.8614 24.6211 16.5216C24.6018 16.6072 24.6102 16.6966 24.6451 16.777C24.68 16.8573 24.7396 16.9243 24.8151 16.9682L26.0333 17.6751C26.1396 17.7369 26.2171 17.8387 26.2489 17.9579C26.2807 18.0772 26.2641 18.2042 26.2028 18.3112Z" fill="#316FEA"/>
<path d="M13.541 5.69849C8.98975 5.69849 5.28333 9.42451 5.28333 13.9999C5.28333 18.5752 8.98975 22.3012 13.541 22.3012C18.0923 22.3012 21.7987 18.5752 21.7987 13.9999C21.7987 9.42451 18.0923 5.69849 13.541 5.69849ZM13.541 21.4793C9.43834 21.4793 6.10092 18.1242 6.10092 13.9999C6.10092 9.87547 9.43834 6.5204 13.541 6.5204C17.6437 6.5204 20.9811 9.87547 20.9811 13.9999C20.9811 18.1242 17.6437 21.4793 13.541 21.4793Z" fill="#316FEA"/>
<path d="M15.0671 11.8357H13.5409C13.4325 11.8357 13.3285 11.879 13.2518 11.9561C13.1751 12.0331 13.1321 12.1377 13.1321 12.2467V15.7535C13.1321 15.8625 13.1751 15.967 13.2518 16.0441C13.3285 16.1212 13.4325 16.1645 13.5409 16.1645C13.6493 16.1645 13.7533 16.1212 13.8299 16.0441C13.9066 15.967 13.9497 15.8625 13.9497 15.7535V14.8494H15.0671C15.4646 14.8494 15.8458 14.6906 16.1269 14.408C16.4081 14.1255 16.566 13.7422 16.566 13.3425C16.566 12.9429 16.4081 12.5596 16.1269 12.277C15.8458 11.9945 15.4646 11.8357 15.0671 11.8357ZM15.0671 14.0275H13.9497V12.6576H15.0671C15.2478 12.6576 15.421 12.7298 15.5488 12.8582C15.6766 12.9867 15.7484 13.1609 15.7484 13.3425C15.7484 13.5242 15.6766 13.6984 15.5488 13.8269C15.421 13.9553 15.2478 14.0275 15.0671 14.0275Z" fill="#316FEA"/>
<path d="M11.3074 12.1025C11.2784 12.0243 11.2263 11.9569 11.1581 11.9092C11.0899 11.8615 11.0089 11.8359 10.9259 11.8357H10.4898C10.4068 11.8358 10.3257 11.8614 10.2575 11.9091C10.1893 11.9568 10.1373 12.0243 10.1083 12.1025L8.80013 15.6094C8.77143 15.7088 8.78112 15.8155 8.82725 15.908C8.87338 16.0006 8.95256 16.0722 9.04895 16.1086C9.14535 16.145 9.25186 16.1435 9.3472 16.1044C9.44254 16.0653 9.51969 15.9914 9.56321 15.8976L9.79105 15.2878H11.6225L11.8503 15.8976C11.8794 15.9758 11.9315 16.0432 11.9997 16.0909C12.0678 16.1385 12.1488 16.1642 12.2318 16.1645C12.2808 16.1646 12.3294 16.1557 12.3752 16.1382C12.4255 16.1193 12.4715 16.0906 12.5108 16.0538C12.55 16.017 12.5817 15.9728 12.6039 15.9237C12.6261 15.8745 12.6385 15.8215 12.6403 15.7676C12.6421 15.7137 12.6333 15.6599 12.6145 15.6094L11.3074 12.1025ZM10.0974 14.4658L10.7068 12.8324L11.3161 14.4658H10.0974Z" fill="#316FEA"/>
<path d="M17.4654 11.8357C17.357 11.8357 17.253 11.879 17.1764 11.9561C17.0997 12.0331 17.0566 12.1377 17.0566 12.2467V15.7535C17.0566 15.8625 17.0997 15.967 17.1764 16.0441C17.253 16.1212 17.357 16.1645 17.4654 16.1645C17.5739 16.1645 17.6778 16.1212 17.7545 16.0441C17.8312 15.967 17.8742 15.8625 17.8742 15.7535V12.2467C17.8742 12.1377 17.8312 12.0331 17.7545 11.9561C17.6778 11.879 17.5739 11.8357 17.4654 11.8357Z" fill="#316FEA"/>
<path d="M16.4653 4.78364C16.7493 4.8746 17.0322 4.98035 17.3058 5.09761C17.3565 5.1191 17.411 5.13027 17.4661 5.13049C17.5602 5.13018 17.6513 5.09726 17.7241 5.03729C17.797 4.97732 17.847 4.89396 17.8658 4.80125C17.8846 4.70853 17.8711 4.61213 17.8274 4.52828C17.7838 4.44443 17.7128 4.37825 17.6263 4.3409C17.3293 4.21377 17.0218 4.09925 16.7139 4.00008C16.6627 3.98347 16.6087 3.97719 16.5551 3.98159C16.5015 3.98598 16.4493 4.00098 16.4014 4.0257C16.3536 4.05043 16.3111 4.08441 16.2763 4.12569C16.2416 4.16696 16.2153 4.21473 16.1989 4.26625C16.1826 4.31777 16.1765 4.37203 16.181 4.42591C16.1856 4.4798 16.2007 4.53225 16.2254 4.58027C16.2502 4.62828 16.2841 4.67091 16.3253 4.70572C16.3664 4.74052 16.414 4.76682 16.4653 4.78309V4.78364Z" fill="#316FEA"/>
<path d="M5.09 18.6247C5.03803 18.5291 4.95037 18.458 4.84631 18.4273C4.74225 18.3966 4.63032 18.4087 4.53512 18.4609C4.43993 18.5132 4.36928 18.6013 4.33872 18.7059C4.30815 18.8105 4.32018 18.923 4.37215 19.0187C4.54267 19.3325 4.72895 19.6374 4.93029 19.9321C4.96068 19.9767 4.99949 20.0147 5.0445 20.0441C5.08951 20.0736 5.13985 20.0938 5.19264 20.1037C5.24543 20.1135 5.29964 20.1129 5.35217 20.1017C5.4047 20.0905 5.45452 20.069 5.49879 20.0385C5.54307 20.0079 5.58092 19.9689 5.61019 19.9236C5.63947 19.8784 5.65959 19.8278 5.66941 19.7747C5.67922 19.7216 5.67855 19.6671 5.66742 19.6143C5.65629 19.5615 5.63492 19.5114 5.60454 19.4669C5.41876 19.1953 5.24702 18.9142 5.09 18.6247Z" fill="#316FEA"/>
<path d="M12.7037 23.6349C10.5035 23.4413 8.4364 22.4934 6.84867 20.95C6.77062 20.8749 6.66618 20.8339 6.55816 20.836C6.45015 20.8381 6.34735 20.8831 6.27223 20.9611C6.19711 21.0392 6.15578 21.144 6.15727 21.2526C6.15875 21.3611 6.20294 21.4647 6.28017 21.5407C8.00279 23.216 10.2458 24.2454 12.6334 24.4563H12.6688C12.7773 24.4609 12.8831 24.4221 12.963 24.3483C13.0429 24.2745 13.0905 24.1719 13.0951 24.0629C13.0997 23.9539 13.0611 23.8475 12.9877 23.7671C12.9143 23.6868 12.8121 23.639 12.7037 23.6344V23.6349Z" fill="#316FEA"/>
<path d="M19.4233 5.33101C19.3792 5.2967 19.3285 5.27183 19.2745 5.25793C19.2205 5.24404 19.1641 5.24141 19.109 5.25021C19.054 5.25901 19.0012 5.27905 18.9541 5.30911C18.907 5.33916 18.8665 5.37859 18.8352 5.42496C18.8038 5.47133 18.7822 5.52367 18.7717 5.57875C18.7612 5.63383 18.762 5.69049 18.7741 5.74523C18.7862 5.79998 18.8094 5.85166 18.8421 5.89708C18.8748 5.94251 18.9164 5.98072 18.9644 6.00937C20.8613 7.3099 22.2338 9.24887 22.8343 11.4768C22.8578 11.564 22.9091 11.641 22.9804 11.696C23.0518 11.7509 23.1391 11.7808 23.2289 11.7809C23.2657 11.7809 23.3024 11.7761 23.338 11.7666C23.4426 11.7381 23.5318 11.6691 23.5859 11.5745C23.6399 11.48 23.6545 11.3678 23.6263 11.2625C22.9735 8.84485 21.4829 6.74122 19.4233 5.33101Z" fill="#316FEA"/>
</g>
<defs>
<clipPath id="clip0_639_577">
<rect width="27.082" height="28" fill="white"/>
</clipPath>
</defs>
</svg>
