<svg width="20" height="24" viewBox="0 0 20 24" fill="none" xmlns="http://www.w3.org/2000/svg">
<path d="M18.9995 7.4935C18.9969 7.29826 18.9181 7.11177 18.7801 6.97365C11.6087 -0.195411 12.0049 0.175839 11.8539 0.0938081C11.6115 -0.0346294 11.2975 0.00615181 1.62886 0.00615181C1.19701 0.00664806 0.782994 0.178374 0.477631 0.483658C0.172267 0.788942 0.000496378 1.20285 0 1.63459V22.3716C0.000372477 22.8034 0.172104 23.2174 0.477494 23.5227C0.782884 23.828 1.19697 23.9997 1.62886 24.0001H17.3711C17.8034 24.0003 18.2181 23.8289 18.524 23.5235C18.8299 23.2181 19.002 22.8038 19.0023 22.3716C19.0023 22.1701 19.0023 7.5535 19.0023 7.4935H18.9995ZM12.2506 6.62537V2.566L16.44 6.75428C12.0818 6.75428 12.3734 6.75428 12.3533 6.75193C12.3242 6.74581 12.2982 6.72989 12.2795 6.70685C12.2608 6.6838 12.2506 6.65504 12.2506 6.62537ZM17.502 22.3716C17.502 22.4058 17.4884 22.4386 17.4642 22.4628C17.44 22.4869 17.4072 22.5005 17.373 22.5005H1.62886C1.61177 22.5008 1.5948 22.4976 1.57894 22.4913C1.56308 22.4849 1.54864 22.4754 1.53647 22.4634C1.5243 22.4514 1.51463 22.4372 1.50804 22.4214C1.50144 22.4056 1.49804 22.3887 1.49805 22.3716V1.63459C1.49805 1.61766 1.50138 1.6009 1.50786 1.58526C1.51434 1.56962 1.52384 1.55541 1.53581 1.54344C1.54779 1.53147 1.562 1.52197 1.57764 1.5155C1.59329 1.50902 1.61005 1.50568 1.62699 1.50568H10.7502V6.62537C10.7506 7.05719 10.9223 7.47122 11.2277 7.7766C11.533 8.08199 11.9471 8.25378 12.3791 8.25428H17.502V22.3716Z" fill="#316FEA"/>
<path d="M12.7195 12.6661L8.87477 10.2656C8.64732 10.1234 8.38595 10.0445 8.11775 10.0372C7.84955 10.0299 7.58427 10.0944 7.3494 10.2241C7.11453 10.3537 6.91861 10.5438 6.78195 10.7747C6.64529 11.0055 6.57285 11.2686 6.57215 11.5369V16.3453C6.5715 16.6142 6.64293 16.8783 6.77902 17.1103C6.91511 17.3422 7.11087 17.5334 7.34595 17.6641C7.58103 17.7947 7.84683 17.86 8.1157 17.8531C8.38457 17.8463 8.64668 17.7675 8.87477 17.625L12.7195 15.217C12.9356 15.0816 13.1136 14.8936 13.2371 14.6705C13.3605 14.4475 13.4253 14.1967 13.4253 13.9418C13.4253 13.6869 13.3605 13.4361 13.2371 13.2131C13.1136 12.99 12.9356 12.8015 12.7195 12.6661ZM8.07769 16.3453V11.5373L11.9224 13.9453L8.07769 16.3453Z" fill="#316FEA"/>
</svg>
