<svg width="24" height="26" viewBox="0 0 24 26" fill="none" xmlns="http://www.w3.org/2000/svg">
<g clip-path="url(#clip0_811_213)">
<path d="M23.9995 10.9359L23.9085 3.19008C23.9062 3.00563 23.8403 2.82762 23.7218 2.68621C23.6034 2.5448 23.4397 2.44867 23.2585 2.4141C22.9035 2.3441 18.0216 2.69959 12.3347 0.0731443C12.2296 0.0246341 12.1153 -0.000488281 11.9995 -0.000488281C11.8837 -0.000488281 11.7694 0.0246341 11.6643 0.0731443C8.27283 1.63861 4.6914 2.3996 0.799983 2.3996C0.587815 2.3996 0.384336 2.48388 0.23431 2.63391C0.0842837 2.78393 0 2.98741 0 3.19958V10.9454C0 17.9753 4.9114 24.0991 11.8318 25.5811C11.9423 25.6051 12.0567 25.6051 12.1672 25.5811C19.2106 24.0721 24.053 17.7813 23.9995 10.9359ZM11.9998 23.9796C5.96288 22.6042 1.59997 17.1493 1.59997 10.9454V3.99556C5.18577 3.919 8.7207 3.13129 11.9998 1.67811C15.2537 3.12007 18.76 3.90638 22.318 3.99206L22.3995 10.9494C22.3995 17.1528 18.0346 22.6042 11.9998 23.9796Z" fill="#316FEA"/>
<path d="M15.9998 10.3999H15.1998V9.19993C15.1998 8.35126 14.8626 7.53734 14.2625 6.93724C13.6624 6.33713 12.8485 6 11.9999 6C11.1512 6 10.3373 6.33713 9.73716 6.93724C9.13705 7.53734 8.79992 8.35126 8.79992 9.19993V10.3999H7.99993C7.78777 10.3999 7.58429 10.4842 7.43426 10.6342C7.28424 10.7842 7.19995 10.9877 7.19995 11.1999V17.5998C7.19995 17.8119 7.28424 18.0154 7.43426 18.1654C7.58429 18.3155 7.78777 18.3997 7.99993 18.3997H15.9998C16.2119 18.3997 16.4154 18.3155 16.5654 18.1654C16.7155 18.0154 16.7997 17.8119 16.7997 17.5998V11.1999C16.7997 10.9877 16.7155 10.7842 16.5654 10.6342C16.4154 10.4842 16.2119 10.3999 15.9998 10.3999ZM10.3999 9.19993C10.3999 8.7756 10.5685 8.36864 10.8685 8.06859C11.1686 7.76853 11.5755 7.59997 11.9999 7.59997C12.4242 7.59997 12.8311 7.76853 13.1312 8.06859C13.4312 8.36864 13.5998 8.7756 13.5998 9.19993V10.3999H10.3999V9.19993ZM15.1998 16.7998H8.79992V11.9999H15.1998V16.7998Z" fill="#316FEA"/>
<path d="M11.9997 13.1997C11.7875 13.1997 11.584 13.284 11.434 13.434C11.284 13.584 11.1997 13.7875 11.1997 13.9997V14.7997C11.1997 15.0118 11.284 15.2153 11.434 15.3653C11.584 15.5154 11.7875 15.5997 11.9997 15.5997C12.2119 15.5997 12.4153 15.5154 12.5654 15.3653C12.7154 15.2153 12.7997 15.0118 12.7997 14.7997V13.9997C12.7997 13.7875 12.7154 13.584 12.5654 13.434C12.4153 13.284 12.2119 13.1997 11.9997 13.1997Z" fill="#316FEA"/>
</g>
<defs>
<clipPath id="clip0_811_213">
<rect width="24" height="25.5995" fill="white"/>
</clipPath>
</defs>
</svg>
