<svg width="33" height="32" viewBox="0 0 33 32" fill="none" xmlns="http://www.w3.org/2000/svg">
<g clip-path="url(#clip0_639_212)">
<path d="M2.54082 0.03995C2.69447 0.0183716 2.84917 0.00503587 3.00424 0H29.1076C29.628 0.00282733 30.139 0.138649 30.5921 0.394563C31.0452 0.650477 31.4253 1.01798 31.6964 1.46217C31.9865 1.97817 32.1275 2.56459 32.1039 3.15605C32.1039 11.8066 32.1039 20.4571 32.1039 29.1076C32.0671 29.8836 31.7343 30.6159 31.174 31.1539C30.6137 31.6919 29.8684 31.9947 29.0916 32H2.88439C2.12927 31.9611 1.41565 31.6426 0.882475 31.1065C0.349295 30.5703 0.0347213 29.855 0 29.0996C0 20.4065 0 11.716 0 3.02821C0.00330765 2.31053 0.260078 1.61708 0.724977 1.07032C1.18988 0.523548 1.83301 0.158616 2.54082 0.03995ZM1.18252 3.02022C1.18252 7.19101 1.18252 11.3618 1.18252 15.5326C5.97653 15.5326 10.7705 15.5326 15.5645 15.5326C15.5645 10.7386 15.5645 5.94457 15.5645 1.15056H3.01223C2.52199 1.15688 2.05422 1.35716 1.71131 1.70757C1.36839 2.05797 1.17825 2.52996 1.18252 3.02022ZM16.7231 1.19051V15.5725C21.4612 15.5725 26.2072 15.5725 30.9533 15.5725C30.9533 11.4097 30.9533 7.23895 30.9533 3.06816C30.9576 2.82311 30.9129 2.57966 30.8221 2.35203C30.7312 2.1244 30.596 1.91714 30.4242 1.74235C30.2523 1.56757 30.0474 1.42875 29.8214 1.334C29.5954 1.23925 29.3527 1.19048 29.1076 1.19051C24.9768 1.19051 20.8459 1.19051 16.7231 1.19051ZM1.18252 16.7311C1.18252 20.8113 1.18252 24.8942 1.18252 28.9798C1.17564 29.3017 1.25498 29.6197 1.41233 29.9007C1.56968 30.1816 1.7993 30.4154 2.0774 30.5778C2.48657 30.7954 2.95005 30.8898 3.41174 30.8494C7.45468 30.8494 11.4976 30.8494 15.5486 30.8494V16.7231C10.7546 16.7231 5.96854 16.7151 1.18252 16.7311ZM16.7231 16.7311V30.8095C20.7181 30.8574 24.7131 30.8095 28.7081 30.8095C29.1717 30.8539 29.6381 30.7622 30.0504 30.5458C30.3247 30.3792 30.5512 30.1445 30.708 29.8645C30.8648 29.5845 30.9465 29.2687 30.9453 28.9478C30.9453 24.8569 30.9453 20.766 30.9453 16.6831L16.7231 16.7311Z" fill="#316FEA"/>
<path d="M7.79036 4.7861C7.78737 4.68999 7.80886 4.5947 7.85281 4.50917C7.89676 4.42365 7.96173 4.3507 8.04162 4.29717C8.1215 4.24365 8.21368 4.21131 8.30949 4.2032C8.40531 4.19508 8.50161 4.21145 8.58936 4.25077C8.69492 4.29358 8.78462 4.36803 8.84614 4.46389C8.90766 4.55975 8.93798 4.67231 8.93293 4.7861C8.93293 5.78486 8.93293 6.78361 8.93293 7.79035C9.97963 7.79035 11.0263 7.79035 12.073 7.79035C12.1956 7.82635 12.3032 7.90108 12.3797 8.00334C12.4563 8.1056 12.4976 8.2299 12.4976 8.35764C12.4976 8.48538 12.4563 8.60968 12.3797 8.71194C12.3032 8.8142 12.1956 8.88893 12.073 8.92493C11.0263 8.92493 9.97963 8.92493 8.94092 8.92493C8.94092 9.93167 8.94092 10.9384 8.94092 11.9531C8.93123 12.0653 8.88972 12.1723 8.8213 12.2617C8.75287 12.351 8.66035 12.419 8.55463 12.4576C8.4489 12.4962 8.33436 12.5038 8.22445 12.4796C8.11455 12.4553 8.01384 12.4002 7.93418 12.3207C7.74242 12.1689 7.79835 11.8972 7.78237 11.6815V8.95689H4.77014C4.67543 8.95645 4.58229 8.93264 4.499 8.88757C4.4157 8.84249 4.34483 8.77755 4.29266 8.69851C4.24049 8.61946 4.20864 8.52876 4.19994 8.43445C4.19124 8.34014 4.20596 8.24514 4.2428 8.15789C4.27874 8.04496 4.35223 7.94773 4.45106 7.88232C4.5499 7.81692 4.66812 7.78729 4.78612 7.79834C5.78487 7.79834 6.78362 7.79834 7.78237 7.79834C7.79835 6.78361 7.78237 5.78486 7.79036 4.7861Z" fill="#316FEA"/>
<path d="M20.0629 7.82227C20.2622 7.80241 20.4629 7.80241 20.6622 7.82227H27.3498C27.4316 7.81265 27.5145 7.82046 27.5931 7.84517C27.6716 7.86989 27.744 7.91096 27.8056 7.96568C27.8671 8.02041 27.9164 8.08754 27.9501 8.16266C27.9838 8.23779 28.0013 8.3192 28.0013 8.40155C28.0013 8.4839 27.9838 8.56531 27.9501 8.64043C27.9164 8.71556 27.8671 8.78269 27.8056 8.83741C27.744 8.89213 27.6716 8.9332 27.5931 8.95792C27.5145 8.98264 27.4316 8.99044 27.3498 8.98082H20.2707C20.1314 8.97913 19.997 8.92894 19.8907 8.83888C19.7843 8.74882 19.7127 8.62453 19.6881 8.48738C19.6635 8.35023 19.6875 8.2088 19.7559 8.08741C19.8243 7.96602 19.9329 7.87227 20.0629 7.82227Z" fill="#316FEA"/>
<path d="M5.64902 21.0138C5.77315 20.9306 5.92393 20.8967 6.07175 20.9189C6.21958 20.941 6.35378 21.0177 6.44802 21.1337L8.3816 23.0593C9.06874 22.3801 9.73991 21.669 10.451 21.0138C10.9224 20.6223 11.6495 21.3494 11.25 21.8128C10.5948 22.5239 9.88373 23.1871 9.20457 23.8822C9.86775 24.5454 10.5389 25.2006 11.1941 25.8797C11.2719 25.9654 11.3226 26.0722 11.3395 26.1867C11.3565 26.3011 11.339 26.4181 11.2893 26.5226C11.2396 26.6271 11.16 26.7144 11.0605 26.7735C10.961 26.8327 10.8462 26.8608 10.7307 26.8545C10.5149 26.8545 10.3711 26.6947 10.2273 26.5669L8.37361 24.7212C7.67848 25.3844 7.01531 26.0875 6.32018 26.7507C6.24728 26.7986 6.16543 26.8314 6.07955 26.8469C5.99367 26.8625 5.90553 26.8605 5.82044 26.8411C5.73535 26.8216 5.65507 26.7852 5.58442 26.734C5.51376 26.6828 5.4542 26.6178 5.40932 26.5429C5.40932 26.3432 5.33741 26.0875 5.5052 25.9357C6.16837 25.2405 6.8635 24.5774 7.53466 23.8902C6.87948 23.2271 6.21631 22.5799 5.56113 21.9087C5.50058 21.8478 5.45423 21.7742 5.42541 21.6933C5.39659 21.6124 5.386 21.5261 5.39439 21.4406C5.40279 21.3551 5.42997 21.2725 5.47398 21.1987C5.518 21.125 5.57777 21.0618 5.64902 21.0138Z" fill="#316FEA"/>
<path d="M20.0629 21.557C20.2646 21.5331 20.4685 21.5331 20.6702 21.557C22.9393 21.557 25.2085 21.557 27.4777 21.557C27.6092 21.5841 27.7273 21.6557 27.8121 21.7598C27.897 21.8638 27.9433 21.994 27.9433 22.1283C27.9433 22.2625 27.897 22.3927 27.8121 22.4968C27.7273 22.6009 27.6092 22.6725 27.4777 22.6996C25.0807 22.6996 22.6837 22.6996 20.2866 22.6996C20.1526 22.6934 20.0245 22.6423 19.9229 22.5547C19.8213 22.467 19.752 22.3478 19.7263 22.2161C19.7005 22.0844 19.7196 21.9479 19.7807 21.8284C19.8417 21.7088 19.9411 21.6133 20.0629 21.557Z" fill="#316FEA"/>
<path d="M20.2067 25.1046C22.5398 25.1046 24.8889 25.1046 27.2299 25.1046C27.358 25.0884 27.4879 25.1119 27.6022 25.1719C27.7165 25.232 27.8097 25.3256 27.8691 25.4401C27.9172 25.5281 27.9411 25.6273 27.9384 25.7276C27.9357 25.8278 27.9065 25.9255 27.8537 26.0108C27.8009 26.0961 27.7265 26.1658 27.6379 26.213C27.5494 26.2601 27.45 26.2829 27.3498 26.2791H20.2786C20.1229 26.2886 19.9697 26.2359 19.8528 26.1325C19.736 26.0291 19.6649 25.8835 19.6554 25.7278C19.6459 25.572 19.6986 25.4189 19.802 25.302C19.9054 25.1851 20.051 25.1141 20.2067 25.1046Z" fill="#316FEA"/>
</g>
<defs>
<clipPath id="clip0_639_212">
<rect width="32.1278" height="32" fill="white"/>
</clipPath>
</defs>
</svg>
