<svg width="24" height="24" viewBox="0 0 24 24" fill="none" xmlns="http://www.w3.org/2000/svg">
<g clip-path="url(#clip0_662_182)">
<path d="M11.9531 22.0781H20.25C21.2442 22.077 22.1974 21.6816 22.9004 20.9785C23.6034 20.2755 23.9989 19.3223 24 18.3281V3.75C23.9989 2.75578 23.6034 1.8026 22.9004 1.09958C22.1974 0.396563 21.2442 0.00111661 20.25 0H3.75C2.75578 0.00111661 1.8026 0.396563 1.09958 1.09958C0.396563 1.8026 0.0011158 2.75578 0 3.75V10.9844C0 11.233 0.0987701 11.4715 0.274586 11.6473C0.450401 11.8231 0.68886 11.9219 0.9375 11.9219C1.18614 11.9219 1.4246 11.8231 1.60041 11.6473C1.77623 11.4715 1.875 11.233 1.875 10.9844V3.75C1.87562 3.25291 2.07336 2.77636 2.42486 2.42486C2.77636 2.07336 3.25291 1.87562 3.75 1.875H20.25C20.7471 1.87562 21.2236 2.07336 21.5751 2.42486C21.9266 2.77636 22.1244 3.25291 22.125 3.75V18.3281C22.1244 18.8252 21.9266 19.3018 21.5751 19.6533C21.2236 20.0048 20.7471 20.2025 20.25 20.2031H11.9531C11.7045 20.2031 11.466 20.3019 11.2902 20.4777C11.1144 20.6535 11.0156 20.892 11.0156 21.1406C11.0156 21.3893 11.1144 21.6277 11.2902 21.8035C11.466 21.9794 11.7045 22.0781 11.9531 22.0781ZM18.5156 17.3906C18.5156 17.2052 18.5706 17.0239 18.6736 16.8698C18.7766 16.7156 18.9231 16.5954 19.0944 16.5245C19.2657 16.4535 19.4542 16.435 19.636 16.4711C19.8179 16.5073 19.9849 16.5966 20.116 16.7277C20.2471 16.8588 20.3364 17.0259 20.3726 17.2077C20.4088 17.3896 20.3902 17.5781 20.3193 17.7494C20.2483 17.9207 20.1281 18.0671 19.974 18.1701C19.8198 18.2731 19.6385 18.3281 19.4531 18.3281C19.2045 18.3281 18.966 18.2294 18.7902 18.0535C18.6144 17.8777 18.5156 17.6393 18.5156 17.3906ZM14.7656 17.3906C14.7656 17.2052 14.8206 17.0239 14.9236 16.8698C15.0266 16.7156 15.1731 16.5954 15.3444 16.5245C15.5157 16.4535 15.7042 16.435 15.886 16.4711C16.0679 16.5073 16.2349 16.5966 16.366 16.7277C16.4971 16.8588 16.5864 17.0259 16.6226 17.2077C16.6588 17.3896 16.6402 17.5781 16.5693 17.7494C16.4983 17.9207 16.3781 18.0671 16.224 18.1701C16.0698 18.2731 15.8885 18.3281 15.7031 18.3281C15.58 18.3281 15.4581 18.3039 15.3444 18.2568C15.2306 18.2097 15.1273 18.1406 15.0402 18.0535C14.9532 17.9665 14.8841 17.8631 14.837 17.7494C14.7899 17.6356 14.7656 17.5137 14.7656 17.3906ZM11.0156 17.3906C11.0156 17.2052 11.0706 17.0239 11.1736 16.8698C11.2766 16.7156 11.4231 16.5954 11.5944 16.5245C11.7657 16.4535 11.9542 16.435 12.136 16.4711C12.3179 16.5073 12.4849 16.5966 12.616 16.7277C12.7471 16.8588 12.8364 17.0259 12.8726 17.2077C12.9088 17.3896 12.8902 17.5781 12.8193 17.7494C12.7483 17.9207 12.6281 18.0671 12.474 18.1701C12.3198 18.2731 12.1385 18.3281 11.9531 18.3281C11.7045 18.3281 11.466 18.2294 11.2902 18.0535C11.1144 17.8777 11.0156 17.6393 11.0156 17.3906ZM18.5156 4.6875C18.5156 4.50208 18.5706 4.32082 18.6736 4.16665C18.7766 4.01248 18.9231 3.89232 19.0944 3.82136C19.2657 3.75041 19.4542 3.73184 19.636 3.76801C19.8179 3.80419 19.9849 3.89348 20.116 4.02459C20.2471 4.1557 20.3364 4.32275 20.3726 4.5046C20.4088 4.68646 20.3902 4.87496 20.3193 5.04627C20.2483 5.21757 20.1281 5.36399 19.974 5.467C19.8198 5.57002 19.6385 5.625 19.4531 5.625C19.2045 5.625 18.966 5.52623 18.7902 5.35041C18.6144 5.1746 18.5156 4.93614 18.5156 4.6875ZM14.7656 4.6875C14.7656 4.50208 14.8206 4.32082 14.9236 4.16665C15.0266 4.01248 15.1731 3.89232 15.3444 3.82136C15.5157 3.75041 15.7042 3.73184 15.886 3.76801C16.0679 3.80419 16.2349 3.89348 16.366 4.02459C16.4971 4.1557 16.5864 4.32275 16.6226 4.5046C16.6588 4.68646 16.6402 4.87496 16.5693 5.04627C16.4983 5.21757 16.3781 5.36399 16.224 5.467C16.0698 5.57002 15.8885 5.625 15.7031 5.625C15.58 5.625 15.4581 5.60075 15.3444 5.55364C15.2306 5.50652 15.1273 5.43747 15.0402 5.35041C14.9532 5.26336 14.8841 5.16001 14.837 5.04627C14.7899 4.93252 14.7656 4.81061 14.7656 4.6875ZM11.0156 4.6875C11.0156 4.50208 11.0706 4.32082 11.1736 4.16665C11.2766 4.01248 11.4231 3.89232 11.5944 3.82136C11.7657 3.75041 11.9542 3.73184 12.136 3.76801C12.3179 3.80419 12.4849 3.89348 12.616 4.02459C12.7471 4.1557 12.8364 4.32275 12.8726 4.5046C12.9088 4.68646 12.8902 4.87496 12.8193 5.04627C12.7483 5.21757 12.6281 5.36399 12.474 5.467C12.3198 5.57002 12.1385 5.625 11.9531 5.625C11.7045 5.625 11.466 5.52623 11.2902 5.35041C11.1144 5.1746 11.0156 4.93614 11.0156 4.6875ZM7.26562 4.6875C7.26562 4.50208 7.32061 4.32082 7.42362 4.16665C7.52664 4.01248 7.67305 3.89232 7.84436 3.82136C8.01567 3.75041 8.20416 3.73184 8.38602 3.76801C8.56788 3.80419 8.73493 3.89348 8.86604 4.02459C8.99715 4.1557 9.08644 4.32275 9.12261 4.5046C9.15878 4.68646 9.14022 4.87496 9.06926 5.04627C8.99831 5.21757 8.87814 5.36399 8.72397 5.467C8.5698 5.57002 8.38855 5.625 8.20312 5.625C7.95448 5.625 7.71603 5.52623 7.54021 5.35041C7.3644 5.1746 7.26562 4.93614 7.26562 4.6875ZM3.51562 4.6875C3.51562 4.50208 3.57061 4.32082 3.67362 4.16665C3.77664 4.01248 3.92305 3.89232 4.09436 3.82136C4.26567 3.75041 4.45416 3.73184 4.63602 3.76801C4.81788 3.80419 4.98493 3.89348 5.11604 4.02459C5.24715 4.1557 5.33644 4.32275 5.37261 4.5046C5.40878 4.68646 5.39022 4.87496 5.31926 5.04627C5.24831 5.21757 5.12814 5.36399 4.97397 5.467C4.8198 5.57002 4.63854 5.625 4.45312 5.625C4.20448 5.625 3.96603 5.52623 3.79021 5.35041C3.6144 5.1746 3.51562 4.93614 3.51562 4.6875ZM3.11803 22.7405L8.11585 19.8638C8.42728 19.685 8.68603 19.4272 8.86597 19.1164C9.0459 18.8056 9.14065 18.4529 9.14065 18.0938C9.14065 17.7346 9.0459 17.3819 8.86597 17.0711C8.68603 16.7603 8.42728 16.5025 8.11585 16.3238L3.11803 13.447C2.80701 13.2675 2.45422 13.1729 2.09508 13.1727C1.73594 13.1726 1.38308 13.2669 1.07191 13.4462C0.76075 13.6256 0.502226 13.8836 0.322292 14.1944C0.142359 14.5052 0.0473442 14.8579 0.0467854 15.217V20.9705C0.0448475 21.3293 0.138378 21.6821 0.317787 21.9928C0.497196 22.3035 0.756023 22.5609 1.06772 22.7386C1.3787 22.9206 1.73254 23.0166 2.09288 23.0166C2.45322 23.0166 2.80706 22.9206 3.11803 22.7386V22.7405ZM2.18053 15.0722L7.17882 17.9489C7.20458 17.9633 7.22604 17.9843 7.24098 18.0098C7.25591 18.0352 7.26379 18.0642 7.26379 18.0938C7.26379 18.1233 7.25591 18.1523 7.24098 18.1777C7.22604 18.2032 7.20458 18.2242 7.17882 18.2386L2.18241 21.1153C2.156 21.1319 2.12546 21.1406 2.09429 21.1406C2.06311 21.1406 2.03257 21.1319 2.00616 21.1153C1.97996 21.1015 1.95816 21.0806 1.94325 21.055C1.92833 21.0294 1.9209 21.0001 1.92179 20.9705V15.217C1.9209 15.1874 1.92833 15.1581 1.94325 15.1325C1.95816 15.1069 1.97996 15.086 2.00616 15.0722C2.03294 15.0561 2.06351 15.0474 2.09476 15.0469C2.12571 15.0474 2.15596 15.0561 2.18241 15.0722H2.18053Z" fill="#316FEA"/>
</g>
<defs>
<clipPath id="clip0_662_182">
<rect width="24" height="23.0175" fill="white" transform="matrix(-1 0 0 1 24 0)"/>
</clipPath>
</defs>
</svg>
