<svg width="28" height="28" viewBox="0 0 28 28" fill="none" xmlns="http://www.w3.org/2000/svg">
<g clip-path="url(#clip0_639_600)">
<path d="M24.1593 28H3.84071C1.74752 28 0 26.2525 0 24.1593V21.4336H0.743363V24.1593C0.743363 25.8473 2.15265 27.2566 3.84071 27.2566H24.1593C25.8473 27.2566 27.2566 25.8473 27.2566 24.1593V3.84071C27.2566 2.15204 25.848 0.743363 24.1593 0.743363H20.9381V0H24.1593C26.2525 0 28 1.74752 28 3.84071V24.1593C28 26.2525 26.2525 28 24.1593 28ZM0.743363 20.9381H0V20.1947H0.743363V20.9381ZM0.743363 19.6991H0V3.84071C0 1.74752 1.74752 0 3.84071 0H20.4425V0.743363H3.84071C2.15265 0.743363 0.743363 2.15265 0.743363 3.84071V19.6991Z" fill="#316FEA" stroke="#316FEA" stroke-width="0.2"/>
<path d="M14.6938 22.758C13.0869 22.758 11.5097 22.7245 10.9863 22.6793C10.8308 22.6663 10.4659 22.6347 10.4659 22.2766C10.4659 21.9669 10.7137 21.7873 10.9274 21.6318C11.156 21.4664 11.3059 21.3462 11.3059 21.1808C11.3059 20.8339 11.301 20.1277 11.2979 19.673C11.1195 19.6879 10.8946 19.7003 10.6394 19.7003C8.79955 19.7003 8.24575 18.3907 8.06424 17.9602C7.81646 17.3661 7.50177 17.0756 7.11026 16.8228C6.71876 16.5701 6.70761 16.2963 6.73486 16.1557C6.7553 16.0528 6.84389 15.8063 7.22486 15.7344C8.25814 15.5399 8.81814 16.2678 9.26911 16.8526C9.5169 17.1741 9.74982 17.4776 9.99761 17.5557C10.487 17.7099 11.0829 17.661 11.428 17.5166C11.4914 17.2493 11.6063 16.9968 11.7662 16.7733C9.85389 16.4598 8.57345 15.6756 7.86354 14.3877C7.84062 14.3487 7.81955 14.309 7.80159 14.2688C7.77123 14.2068 7.73221 14.122 7.69318 14.0358C7.56929 13.7571 7.52778 13.6524 7.51539 13.5861C7.29982 12.9295 7.19451 12.1793 7.19327 11.2941C7.19327 9.79063 7.66778 9.1216 8.23398 8.39806C7.82203 6.69328 8.45699 5.52682 8.48486 5.47664C8.51037 5.42967 8.54571 5.38875 8.58848 5.35668C8.63124 5.32461 8.68042 5.30214 8.73265 5.2908C8.84725 5.26726 9.87867 5.10496 11.7247 6.37302C12.8596 6.00133 15.2606 5.95735 16.6086 6.29125C17.1289 5.96355 18.7699 4.99965 19.5975 5.2939C19.677 5.32212 19.7445 5.37651 19.7889 5.44815C20.0051 5.79567 20.3211 6.6047 20.0708 8.16328C20.0956 8.19487 20.1247 8.22957 20.1532 8.26426C20.5156 8.7078 21.2682 9.62709 21.2738 11.4973V11.5053C21.2583 12.3032 21.1766 12.9759 21.026 13.5601C21.0075 13.6852 20.9758 13.8079 20.9312 13.9262C20.8849 14.0798 20.8247 14.2288 20.7516 14.3716C20.7413 14.3894 20.7297 14.4064 20.7169 14.4224C19.9797 15.9754 18.5116 16.5125 16.9239 16.7559C17.3117 17.2967 17.3959 18.0159 17.3959 19.0777C17.3959 20.0249 17.3879 20.4697 17.3829 20.7639C17.3798 20.9497 17.3773 21.0619 17.3798 21.1975C17.3798 21.379 17.632 21.563 17.8135 21.6968C18.0235 21.8517 18.262 22.027 18.2105 22.3243C18.1486 22.6824 17.8172 22.696 16.9326 22.7251C16.4054 22.7437 15.6788 22.7543 14.8319 22.7549L14.6938 22.758ZM11.6875 21.9712C13.0058 22.0152 15.6874 22.0332 16.9939 21.9843C16.8037 21.7916 16.6389 21.5395 16.6346 21.2099C16.6346 21.0637 16.6346 20.9405 16.6377 20.7534C16.6427 20.4622 16.6507 20.0218 16.6507 19.0808C16.6507 17.5563 16.45 17.1605 15.8857 16.8036C15.8213 16.762 15.7714 16.7016 15.7428 16.6305C15.7141 16.5594 15.7081 16.4812 15.7256 16.4066C15.7431 16.3321 15.7832 16.2647 15.8405 16.2138C15.8978 16.1629 15.9694 16.1309 16.0455 16.1222C18.3722 15.8837 19.4997 15.3051 20.0665 14.0606C20.0808 14.0283 20.1 13.9985 20.1235 13.972C20.1849 13.8208 20.2374 13.6661 20.2808 13.5087C20.2814 13.4794 20.2856 13.4503 20.2932 13.422C20.4381 12.8861 20.5156 12.2574 20.5311 11.5016C20.5267 9.90151 19.9116 9.14762 19.5783 8.74249C19.4948 8.64766 19.4197 8.54568 19.3541 8.43771C19.3121 8.36236 19.2977 8.27476 19.3132 8.18992C19.535 6.95098 19.3677 6.28939 19.2296 5.98151C18.799 5.97656 17.7689 6.41824 16.8756 7.00797C16.8304 7.03779 16.7793 7.0574 16.7258 7.06542C16.6723 7.07344 16.6177 7.06969 16.5658 7.05443C15.3504 6.69948 12.7313 6.7447 11.817 7.13558C11.7582 7.16086 11.694 7.17055 11.6304 7.16371C11.5668 7.15688 11.506 7.13374 11.454 7.09656C10.2033 6.2008 9.38805 6.04346 9.05106 6.02364C8.9123 6.38169 8.67566 7.23965 8.99655 8.38381C9.01225 8.44004 9.01449 8.49918 9.00308 8.55644C8.99168 8.61369 8.96694 8.66746 8.93088 8.71337L8.89433 8.75983C8.31699 9.49576 7.93539 9.98142 7.93539 11.2953C7.93539 12.1186 8.03327 12.8056 8.23398 13.3959C8.24003 13.4142 8.24479 13.4328 8.24823 13.4517C8.29345 13.5694 8.45699 13.9262 8.50097 14.0092L8.51212 14.0272C9.18177 15.2426 10.5093 15.9289 12.5703 16.1266C12.6451 16.1332 12.7162 16.1623 12.7742 16.2102C12.8321 16.258 12.8742 16.3223 12.8949 16.3946C12.9155 16.4669 12.9138 16.5437 12.8899 16.6149C12.866 16.6862 12.8211 16.7485 12.7611 16.7937C12.4978 16.9938 12.175 17.3766 12.1329 17.7966C12.1274 17.8523 12.1094 17.906 12.0802 17.9537C12.051 18.0015 12.0114 18.042 11.9644 18.0723C11.4404 18.4105 10.4981 18.4935 9.77274 18.265C9.30194 18.1163 8.9854 17.7043 8.67876 17.306C8.45451 17.0143 8.26619 16.7801 8.06548 16.6302C8.36052 16.9278 8.5923 17.282 8.7469 17.6715C9.01513 18.3071 9.45 18.9569 10.6369 18.9569C10.9594 18.9589 11.2817 18.9363 11.6008 18.8894C11.6489 18.8811 11.6982 18.8824 11.7458 18.8932C11.7934 18.904 11.8385 18.924 11.8783 18.9522C11.9182 18.9804 11.9521 19.0162 11.9782 19.0575C12.0042 19.0988 12.0218 19.1448 12.0301 19.1929C12.0333 19.2134 12.0351 19.2341 12.0357 19.2549C12.0357 19.2691 12.0468 20.6493 12.0468 21.1833C12.0468 21.5351 11.8758 21.7885 11.685 21.9737L11.6875 21.9712ZM8.40867 13.9095C8.44162 13.9339 8.4703 13.9636 8.49354 13.9974C8.47068 13.9633 8.44194 13.9335 8.40867 13.9095ZM8.19123 13.8364C8.21814 13.8364 8.24495 13.8395 8.27115 13.8457C8.24495 13.8395 8.21814 13.8364 8.19123 13.8364Z" fill="#316FEA" stroke="#316FEA" stroke-width="0.2"/>
</g>
<defs>
<clipPath id="clip0_639_600">
<rect width="28" height="28" fill="white"/>
</clipPath>
</defs>
</svg>
