<svg width="28" height="28" viewBox="0 0 28 28" fill="none" xmlns="http://www.w3.org/2000/svg">
<g clip-path="url(#clip0_639_268)">
<path d="M27.1552 15.314L25.711 14.9344C25.7642 14.3185 25.7642 13.6992 25.711 13.0833L27.1552 12.7104C27.437 12.6245 27.6752 12.4339 27.8208 12.1777C27.9017 12.0518 27.9553 11.9103 27.9783 11.7623C28.0012 11.6144 27.9929 11.4633 27.9539 11.3187L27.4214 9.3211C27.3434 9.03635 27.1566 8.7937 26.9014 8.64546C26.6461 8.49723 26.3429 8.4553 26.0571 8.52871L24.6261 8.90826C24.3534 8.35721 24.0397 7.82746 23.6877 7.32348L24.7659 6.29137C24.8714 6.18822 24.9552 6.06496 25.0124 5.92886C25.0695 5.79277 25.0989 5.6466 25.0986 5.49898C25.0982 5.35343 25.0686 5.20946 25.0114 5.07562C24.9542 4.94178 24.8707 4.82081 24.7659 4.71991L23.295 3.24833C23.0866 3.04014 22.8041 2.9232 22.5096 2.9232C22.2151 2.9232 21.9327 3.04014 21.7243 3.24833L20.6328 4.29375C20.1295 3.94295 19.5973 3.63555 19.0421 3.37484L19.4281 1.93656C19.5035 1.64963 19.4625 1.34454 19.3142 1.08766C19.1659 0.830778 18.9222 0.642884 18.6361 0.564855L16.6394 0.0388142C16.3607 -0.0308389 16.0658 0.0108533 15.8174 0.15505C15.5689 0.299247 15.3863 0.534609 15.3083 0.811228L14.909 2.26283C14.2975 2.21621 13.6835 2.21621 13.072 2.26283L12.686 0.831204C12.6053 0.55056 12.4193 0.311983 12.1669 0.16533C12.0404 0.0886615 11.8994 0.0390239 11.7528 0.0195421C11.6061 6.03744e-05 11.4571 0.0111564 11.315 0.0521317L9.31829 0.578172C9.03221 0.656202 8.78849 0.844096 8.64017 1.10098C8.49185 1.35786 8.45091 1.66295 8.52627 1.94987L8.9123 3.38816C8.35836 3.65142 7.82643 3.9587 7.32162 4.30707L6.28335 3.24833C6.17947 3.14404 6.05603 3.06129 5.92012 3.00483C5.78421 2.94837 5.6385 2.9193 5.49133 2.9193C5.34417 2.9193 5.19846 2.94837 5.06254 3.00483C4.92663 3.06129 4.8032 3.14404 4.69932 3.24833L3.2484 4.70659C3.04316 4.91254 2.92791 5.19151 2.92791 5.48233C2.92791 5.77316 3.04316 6.05213 3.2484 6.25808L4.29333 7.32348C3.94894 7.83325 3.64198 8.36735 3.37486 8.92157L1.94391 8.52205C1.6563 8.4487 1.3514 8.49136 1.09493 8.64083C0.838458 8.7903 0.650965 9.03461 0.572865 9.3211L0.040419 11.3187C0.000346689 11.4593 -0.011463 11.6064 0.0056734 11.7516C0.0228098 11.8967 0.068552 12.037 0.140253 12.1644C0.285829 12.4206 0.524017 12.6112 0.80581 12.6971L2.25007 13.07C2.20349 13.6861 2.20349 14.3049 2.25007 14.9211L0.80581 15.314C0.535097 15.4003 0.306451 15.5848 0.164819 15.8312C0.0231871 16.0777 -0.0211873 16.3682 0.040419 16.6457L0.572865 18.6433C0.610711 18.7855 0.676228 18.9189 0.765662 19.0357C0.855096 19.1525 0.96669 19.2505 1.09405 19.3241C1.22141 19.3978 1.36204 19.4455 1.50787 19.4646C1.65371 19.4838 1.80188 19.474 1.94391 19.4357L3.64774 18.9829C3.71774 18.9558 3.78291 18.9176 3.84075 18.8697L6.60281 16.0997C6.65583 16.048 6.69423 15.9832 6.7141 15.9119C6.73398 15.8405 6.73462 15.7652 6.71596 15.6935C6.40281 14.4216 6.42608 13.09 6.78349 11.8298C7.1409 10.5696 7.82013 9.42418 8.75432 8.50634C9.68851 7.5885 10.8455 6.92983 12.1114 6.59516C13.3772 6.2605 14.7084 6.26136 15.9739 6.59767L10.4697 12.0978C10.4178 12.1516 10.3802 12.2176 10.3604 12.2898C10.3406 12.3619 10.3393 12.4378 10.3566 12.5106C10.6644 13.7502 11.3032 14.8826 12.2048 15.7869C13.1063 16.6912 14.2366 17.3333 15.4747 17.6445C15.545 17.667 15.6201 17.6696 15.6918 17.652C15.7635 17.6344 15.8288 17.5972 15.8807 17.5446L21.3848 12.0312C21.7149 13.3039 21.7089 14.6406 21.3674 15.9102C21.0258 17.1799 20.3605 18.3391 19.4366 19.2742C18.5127 20.2092 17.3619 20.8882 16.0968 21.2445C14.8318 21.6009 13.4959 21.6223 12.2201 21.3068C12.1486 21.2867 12.0729 21.2866 12.0013 21.3066C11.9297 21.3266 11.865 21.3658 11.8141 21.42L9.05206 24.1501C8.99774 24.2048 8.96071 24.2743 8.94557 24.3499L8.48634 26.0479C8.44705 26.1886 8.43607 26.3358 8.45402 26.4809C8.47198 26.626 8.51851 26.766 8.59093 26.893C8.66335 27.0199 8.76022 27.1312 8.87593 27.2205C8.99164 27.3097 9.1239 27.3751 9.26504 27.4129L11.2617 27.9456C11.3551 27.9715 11.4511 27.9871 11.5479 27.9922C11.7439 27.9936 11.9368 27.943 12.107 27.8457C12.358 27.6975 12.5435 27.4595 12.6261 27.1798L13.0121 25.7482C13.6238 25.7882 14.2374 25.7882 14.8491 25.7482L15.3083 27.1665C15.3821 27.4471 15.5626 27.6878 15.8113 27.8371C16.06 27.9863 16.3572 28.0325 16.6394 27.9656L18.6361 27.4329C18.7781 27.3951 18.9112 27.3295 19.0277 27.2399C19.1442 27.1503 19.2418 27.0385 19.3148 26.911C19.3879 26.7834 19.4349 26.6426 19.4532 26.4967C19.4715 26.3509 19.4607 26.2028 19.4214 26.0612L19.0554 24.6362C19.6055 24.3634 20.1329 24.0473 20.6328 23.6907L21.6843 24.7427C21.8939 24.9513 22.1774 25.0684 22.473 25.0684C22.7686 25.0684 23.0522 24.9513 23.2617 24.7427L24.7659 23.3045C24.8714 23.2013 24.9552 23.078 25.0124 22.9419C25.0695 22.8059 25.0989 22.6597 25.0986 22.5121C25.0985 22.3645 25.069 22.2184 25.0119 22.0824C24.9547 21.9464 24.8711 21.8231 24.7659 21.7197L23.7209 20.641C24.0616 20.1359 24.3641 19.6062 24.6261 19.0562L26.0571 19.449C26.3383 19.5144 26.6339 19.4685 26.882 19.3208C27.1301 19.1731 27.3115 18.9351 27.3882 18.6567L27.9206 16.659C27.9885 16.3821 27.9495 16.0898 27.8113 15.8404C27.6731 15.591 27.4459 15.403 27.1752 15.314H27.1552ZM27.1086 16.4593L26.5762 18.4569C26.5618 18.5207 26.5233 18.5765 26.4687 18.6125C26.4141 18.6485 26.3476 18.6619 26.2833 18.65L24.4997 18.1706C24.4006 18.1441 24.2954 18.1537 24.2028 18.1976C24.1101 18.2415 24.0361 18.3168 23.9938 18.4103C23.6669 19.1414 23.2631 19.8356 22.7892 20.4811C22.7289 20.5629 22.6998 20.6635 22.7071 20.7649C22.7144 20.8662 22.7577 20.9616 22.8291 21.0338L24.1602 22.3656C24.1834 22.388 24.2019 22.4149 24.2145 22.4447C24.2271 22.4744 24.2335 22.5064 24.2334 22.5387C24.2364 22.5743 24.2313 22.6101 24.2187 22.6435C24.206 22.677 24.186 22.7071 24.1602 22.7318L22.7026 24.1768C22.6791 24.2005 22.6511 24.2194 22.6203 24.2322C22.5895 24.2451 22.5564 24.2517 22.5229 24.2517C22.4895 24.2517 22.4564 24.2451 22.4256 24.2322C22.3947 24.2194 22.3668 24.2005 22.3432 24.1768L21.0121 22.845C20.9404 22.7708 20.8442 22.7252 20.7413 22.7166C20.6385 22.708 20.5361 22.7371 20.4531 22.7984C19.8081 23.2711 19.1087 23.6645 18.3699 23.9703C18.2737 24.0102 18.1948 24.083 18.1472 24.1757C18.0997 24.2684 18.0866 24.3749 18.1103 24.4764L18.5895 26.2609C18.6083 26.3227 18.6022 26.3895 18.5723 26.4468C18.5424 26.5041 18.4912 26.5473 18.4298 26.5672L16.4331 27.0999C16.3687 27.1184 16.2995 27.1106 16.2409 27.0781C16.1822 27.0457 16.1388 26.9912 16.1203 26.9268L15.6677 25.1423C15.6428 25.052 15.589 24.9724 15.5144 24.9159C15.4398 24.8593 15.3487 24.8289 15.2551 24.8293H15.2018C14.4099 24.9159 13.611 24.9159 12.8191 24.8293C12.7176 24.8164 12.6148 24.8411 12.5302 24.8988C12.4457 24.9564 12.3851 25.043 12.3599 25.1423L11.8807 26.9268C11.8621 26.993 11.818 27.0491 11.7581 27.0828C11.6982 27.1165 11.6274 27.125 11.5612 27.1066L9.56454 26.5739C9.53047 26.5699 9.49816 26.5567 9.47115 26.5355C9.44414 26.5144 9.42349 26.4862 9.41147 26.454C9.39847 26.4235 9.39177 26.3907 9.39177 26.3575C9.39177 26.3243 9.39847 26.2915 9.41147 26.2609L9.83742 24.6628L12.3466 22.1591C13.8112 22.4654 15.3309 22.3756 16.7493 21.8991C18.1677 21.4225 19.4336 20.5764 20.4165 19.4478C21.3995 18.3192 22.0641 16.9489 22.3419 15.478C22.6198 14.0071 22.5007 12.4886 21.9972 11.079C21.9593 10.9733 21.882 10.8865 21.7814 10.8368C21.6808 10.7871 21.5649 10.7785 21.4581 10.8127C21.3934 10.8384 21.3345 10.8769 21.285 10.9259L15.4481 16.7656C14.4436 16.4711 13.5299 15.9272 12.7921 15.1844C12.0543 14.4416 11.5164 13.5241 11.2284 12.5173L17.0654 6.6576C17.1173 6.60517 17.1549 6.54032 17.1747 6.46923C17.1945 6.39814 17.1958 6.32316 17.1785 6.25142C17.1569 6.18958 17.1209 6.13377 17.0734 6.08861C17.026 6.04345 16.9685 6.01025 16.9056 5.99173C15.494 5.47889 13.9707 5.3541 12.4945 5.63037C11.0183 5.90664 9.64306 6.57385 8.51214 7.56252C7.38122 8.55118 6.53594 9.82514 6.06435 11.2517C5.59275 12.6782 5.51209 14.2052 5.83077 15.6735L3.32827 18.1905L1.71762 18.6433C1.68528 18.6524 1.65146 18.6549 1.61814 18.6507C1.58482 18.6466 1.55266 18.6358 1.52354 18.6191C1.49443 18.6023 1.46893 18.5799 1.44854 18.5532C1.42816 18.5266 1.41329 18.4961 1.40481 18.4635L0.872366 16.4659C0.853517 16.4041 0.859698 16.3374 0.889577 16.2801C0.919457 16.2228 0.970641 16.1795 1.0321 16.1596L2.82245 15.6802C2.92294 15.6549 3.01052 15.5933 3.06828 15.5072C3.12604 15.4211 3.1499 15.3167 3.13526 15.2141C3.04875 14.4241 3.04875 13.6269 3.13526 12.8369C3.14842 12.7345 3.12395 12.6308 3.06642 12.545C3.00888 12.4593 2.92218 12.3974 2.82245 12.3708L1.05207 11.8514C0.98791 11.8342 0.933099 11.7924 0.899475 11.7351C0.865851 11.6778 0.856113 11.6096 0.872366 11.5451L1.40481 9.5475C1.42353 9.48248 1.46628 9.42703 1.52438 9.3924C1.58247 9.35778 1.65157 9.34657 1.71762 9.36105L3.50797 9.86046C3.60505 9.88544 3.7079 9.87421 3.7973 9.82887C3.88671 9.78353 3.95657 9.70718 3.99383 9.61408C4.31212 8.88339 4.71176 8.19095 5.18518 7.54987C5.24519 7.46555 5.27402 7.36297 5.26673 7.25971C5.25945 7.15645 5.2165 7.05894 5.14524 6.98388L3.81413 5.65213C3.76861 5.60602 3.74308 5.54382 3.74308 5.47901C3.74308 5.41419 3.76861 5.35199 3.81413 5.30588L5.32494 3.86093C5.37471 3.81213 5.44162 3.78479 5.5113 3.78479C5.58098 3.78479 5.64789 3.81213 5.69766 3.86093L7.02877 5.19268C7.10136 5.26588 7.19801 5.31027 7.30081 5.31761C7.40361 5.32496 7.50559 5.29477 7.58784 5.23263C8.22853 4.75705 8.92062 4.355 9.65107 4.03406C9.74516 3.9942 9.8218 3.92184 9.867 3.83016C9.91221 3.73849 9.92297 3.63361 9.89732 3.53465L9.41812 1.74345C9.39962 1.67899 9.40746 1.60982 9.43991 1.55114C9.47235 1.49246 9.52676 1.44906 9.59117 1.43049L11.5878 0.90445C11.654 0.886014 11.7248 0.894585 11.7847 0.928286C11.8446 0.961988 11.8887 1.01807 11.9073 1.08424L12.3865 2.85546C12.4103 2.95595 12.4703 3.04412 12.5551 3.10309C12.6398 3.16207 12.7433 3.1877 12.8457 3.17508C13.638 3.0952 14.4362 3.0952 15.2284 3.17508C15.3315 3.1865 15.4352 3.16052 15.5207 3.10185C15.6062 3.04319 15.6678 2.95575 15.6943 2.85546L16.1269 1.05094C16.1347 1.01855 16.1489 0.988025 16.1685 0.961109C16.1881 0.934193 16.2129 0.91142 16.2413 0.894097C16.2698 0.876773 16.3013 0.865241 16.3342 0.860162C16.3672 0.855083 16.4008 0.856556 16.4331 0.864498L18.4298 1.39054C18.4939 1.40776 18.5487 1.44953 18.5824 1.50685C18.616 1.56416 18.6257 1.6324 18.6095 1.69684L18.117 3.48804C18.0913 3.58699 18.1021 3.69187 18.1473 3.78355C18.1925 3.87523 18.2691 3.94759 18.3632 3.98745C19.0982 4.31035 19.7947 4.71462 20.4397 5.19268C20.5173 5.26013 20.6165 5.29728 20.7193 5.29728C20.822 5.29728 20.9213 5.26013 20.9988 5.19268L22.3299 3.86093C22.3534 3.83717 22.3814 3.81832 22.4123 3.80545C22.4431 3.79258 22.4762 3.78595 22.5096 3.78595C22.5431 3.78595 22.5761 3.79258 22.607 3.80545C22.6378 3.81832 22.6658 3.83717 22.6893 3.86093L24.1003 5.32585C24.1235 5.34829 24.142 5.37519 24.1546 5.40494C24.1672 5.43469 24.1736 5.46668 24.1735 5.49898C24.1764 5.53261 24.1713 5.56644 24.1586 5.5977C24.1458 5.62896 24.1259 5.65674 24.1003 5.67877L22.7692 7.01052C22.6979 7.08557 22.655 7.18308 22.6477 7.28634C22.6404 7.3896 22.6693 7.49218 22.7293 7.57651C23.195 8.22256 23.5942 8.91416 23.9206 9.64072C23.9594 9.73696 24.033 9.81507 24.1267 9.85949C24.2204 9.90391 24.3274 9.91139 24.4264 9.88043L26.2101 9.40766C26.2762 9.39318 26.3453 9.40439 26.4034 9.43902C26.4615 9.47364 26.5042 9.52909 26.5229 9.59411L27.0554 11.5917C27.0739 11.6562 27.0661 11.7254 27.0336 11.784C27.0012 11.8427 26.9468 11.8861 26.8823 11.9047L25.092 12.3841C24.9923 12.4107 24.9056 12.4726 24.848 12.5584C24.7905 12.6441 24.766 12.7478 24.7792 12.8502C24.8657 13.6403 24.8657 14.4374 24.7792 15.2274C24.7645 15.33 24.7884 15.4345 24.8462 15.5205C24.9039 15.6066 24.9915 15.6682 25.092 15.6935L26.8823 16.1729C26.9147 16.1746 26.9464 16.1827 26.9756 16.1967C27.0049 16.2107 27.031 16.2303 27.0527 16.2544C27.0743 16.2785 27.091 16.3067 27.1017 16.3373C27.1125 16.3679 27.1171 16.4003 27.1153 16.4326L27.1086 16.4593Z" fill="#316FEA"/>
</g>
<defs>
<clipPath id="clip0_639_268">
<rect width="28" height="28" fill="white"/>
</clipPath>
</defs>
</svg>
