<svg width="24" height="24" viewBox="0 0 24 24" fill="none" xmlns="http://www.w3.org/2000/svg">
<g clip-path="url(#clip0_733_188)">
<path d="M21.7969 0H2.10938C1.55012 0.000620356 1.01396 0.223057 0.618507 0.618507C0.223057 1.01396 0.000620356 1.55012 0 2.10938V21.8906C0.000620356 22.4499 0.223057 22.986 0.618507 23.3815C1.01396 23.7769 1.55012 23.9994 2.10938 24H21.7969C22.3561 23.9994 22.8923 23.7769 23.2877 23.3815C23.6832 22.986 23.9056 22.4499 23.9062 21.8906V2.10938C23.9056 1.55012 23.6832 1.01396 23.2877 0.618507C22.8923 0.223057 22.3561 0.000620356 21.7969 0V0ZM1.40625 2.10938C1.40625 1.92289 1.48033 1.74405 1.61219 1.61219C1.74405 1.48033 1.92289 1.40625 2.10938 1.40625H21.7969C21.9834 1.40625 22.1622 1.48033 22.2941 1.61219C22.4259 1.74405 22.5 1.92289 22.5 2.10938V16.9688H1.40625V2.10938ZM22.5 21.8906C22.5 22.0771 22.4259 22.2559 22.2941 22.3878C22.1622 22.5197 21.9834 22.5938 21.7969 22.5938H2.10938C1.92289 22.5938 1.74405 22.5197 1.61219 22.3878C1.48033 22.2559 1.40625 22.0771 1.40625 21.8906V18.375H22.5V21.8906Z" fill="#316FEA"/>
<path d="M3.51563 21.1875H14.7656C14.9521 21.1875 15.1309 21.1134 15.2628 20.9816C15.3947 20.8497 15.4688 20.6709 15.4688 20.4844C15.4688 20.2979 15.3947 20.1191 15.2628 19.9872C15.1309 19.8553 14.9521 19.7812 14.7656 19.7812H3.51563C3.32914 19.7812 3.1503 19.8553 3.01844 19.9872C2.88658 20.1191 2.8125 20.2979 2.8125 20.4844C2.8125 20.6709 2.88658 20.8497 3.01844 20.9816C3.1503 21.1134 3.32914 21.1875 3.51563 21.1875Z" fill="#316FEA"/>
<path d="M17.5781 21.1875C17.9665 21.1875 18.2812 20.8727 18.2812 20.4844C18.2812 20.096 17.9665 19.7812 17.5781 19.7812C17.1898 19.7812 16.875 20.096 16.875 20.4844C16.875 20.8727 17.1898 21.1875 17.5781 21.1875Z" fill="#316FEA"/>
<path d="M20.3906 21.1875C20.779 21.1875 21.0938 20.8727 21.0938 20.4844C21.0938 20.096 20.779 19.7812 20.3906 19.7812C20.0023 19.7812 19.6875 20.096 19.6875 20.4844C19.6875 20.8727 20.0023 21.1875 20.3906 21.1875Z" fill="#316FEA"/>
<path d="M11.9531 2.85938C8.46375 2.85938 5.625 5.69812 5.625 9.1875C5.625 12.6769 8.46375 15.5156 11.9531 15.5156C15.4425 15.5156 18.2812 12.6769 18.2812 9.1875C18.2812 5.69812 15.4425 2.85938 11.9531 2.85938ZM11.9531 14.1094C10.9797 14.1094 10.0281 13.8207 9.21868 13.2799C8.40928 12.7391 7.77843 11.9704 7.40591 11.071C7.03338 10.1717 6.93591 9.18204 7.12582 8.22729C7.31573 7.27254 7.7845 6.39555 8.47283 5.70721C9.16117 5.01887 10.0382 4.55011 10.9929 4.3602C11.9477 4.17029 12.9373 4.26776 13.8366 4.64028C14.736 5.01281 15.5047 5.64365 16.0455 6.45305C16.5863 7.26245 16.875 8.21405 16.875 9.1875C16.8735 10.4924 16.3545 11.7434 15.4318 12.6661C14.5091 13.5889 13.258 14.1079 11.9531 14.1094Z" fill="#316FEA"/>
<path d="M14.6719 8.59126L10.9219 6.24751C10.8154 6.18038 10.6929 6.14306 10.567 6.13945C10.4412 6.13584 10.3167 6.16607 10.2066 6.22699C10.0964 6.28791 10.0047 6.37727 9.94084 6.48576C9.87702 6.59425 9.84349 6.71789 9.84375 6.84376V11.5313C9.84349 11.6571 9.87702 11.7808 9.94084 11.8893C10.0047 11.9978 10.0964 12.0871 10.2066 12.148C10.3167 12.209 10.4412 12.2392 10.567 12.2356C10.6929 12.232 10.8154 12.1947 10.9219 12.1275L14.6719 9.78377C14.773 9.72056 14.8564 9.63268 14.9142 9.52837C14.972 9.42407 15.0023 9.30677 15.0023 9.18752C15.0023 9.06826 14.972 8.95097 14.9142 8.84666C14.8564 8.74236 14.773 8.65447 14.6719 8.59126ZM11.25 10.2628V8.1122L12.9703 9.18752L11.25 10.2628Z" fill="#316FEA"/>
</g>
<defs>
<clipPath id="clip0_733_188">
<rect width="23.9062" height="24" fill="white"/>
</clipPath>
</defs>
</svg>
