<svg width="32" height="32" viewBox="0 0 32 32" fill="none" xmlns="http://www.w3.org/2000/svg">
<g clip-path="url(#clip0_639_241)">
<path d="M31.8831 14.0812C31.8346 13.6878 31.644 13.3257 31.3472 13.063C31.0503 12.8003 30.6676 12.6552 30.2712 12.655H29.2837C28.9591 11.3592 28.4448 10.1186 27.7575 8.97312L28.4562 8.27375C28.7366 7.99335 28.9048 7.62011 28.929 7.22434C28.9533 6.82857 28.8321 6.43758 28.5881 6.125C27.797 5.11402 26.886 4.20296 25.875 3.41187C25.5625 3.16809 25.1716 3.04694 24.776 3.07122C24.3803 3.09551 24.0072 3.26356 23.7269 3.54375L23.0269 4.2425C21.8814 3.55521 20.6408 3.0409 19.345 2.71625V1.72875C19.3448 1.33235 19.1997 0.949706 18.937 0.652839C18.6743 0.355971 18.3122 0.165356 17.9187 0.116874C16.6443 -0.038958 15.3557 -0.038958 14.0812 0.116874C13.6878 0.165356 13.3257 0.355971 13.063 0.652839C12.8003 0.949706 12.6552 1.33235 12.655 1.72875V2.71625C11.3592 3.0409 10.1186 3.55521 8.97312 4.2425L8.27375 3.54312C7.99327 3.26286 7.61999 3.09482 7.22422 3.07065C6.82846 3.04647 6.43751 3.16783 6.125 3.41187C5.11402 4.20296 4.20296 5.11402 3.41187 6.125C3.16809 6.43753 3.04694 6.8284 3.07122 7.22402C3.09551 7.61965 3.26356 7.99275 3.54375 8.27312L4.2425 8.9725C3.55521 10.1179 3.0409 11.3586 2.71625 12.6544H1.72875C1.33226 12.6546 0.949533 12.7998 0.652651 13.0626C0.355769 13.3254 0.165215 13.6877 0.116874 14.0812C-0.038958 15.3557 -0.038958 16.6443 0.116874 17.9187C0.165356 18.3122 0.355971 18.6743 0.652839 18.937C0.949706 19.1997 1.33235 19.3448 1.72875 19.345H2.71625C3.0409 20.6408 3.55521 21.8814 4.2425 23.0269L3.54312 23.7262C3.26286 24.0067 3.09482 24.38 3.07065 24.7758C3.04647 25.1715 3.16783 25.5625 3.41187 25.875C4.20296 26.886 5.11402 27.797 6.125 28.5881C6.43753 28.8319 6.8284 28.9531 7.22402 28.9288C7.61965 28.9045 7.99275 28.7364 8.27312 28.4562L8.9725 27.7575C10.1179 28.4448 11.3586 28.9591 12.6544 29.2837V30.2712C12.6546 30.6676 12.7997 31.0503 13.0624 31.3472C13.3251 31.644 13.6872 31.8346 14.0806 31.8831C15.355 32.039 16.6437 32.039 17.9181 31.8831C18.3115 31.8346 18.6737 31.644 18.9364 31.3472C19.199 31.0503 19.3441 30.6676 19.3444 30.2712V29.2837C20.6401 28.9591 21.8808 28.4448 23.0262 27.7575L23.7256 28.4562C24.0061 28.7368 24.3794 28.905 24.7753 28.9293C25.1712 28.9536 25.5624 28.8323 25.875 28.5881C26.886 27.797 27.797 26.886 28.5881 25.875C28.832 25.5625 28.9532 25.1717 28.9291 24.7761C28.9049 24.3805 28.737 24.0073 28.4569 23.7269L27.7575 23.0275C28.4448 21.8821 28.9591 20.6414 29.2837 19.3456H30.2712C30.6676 19.3454 31.0503 19.2003 31.3472 18.9376C31.644 18.6749 31.8346 18.3128 31.8831 17.9194C32.039 16.6449 32.039 15.3563 31.8831 14.0819V14.0812ZM30.9525 17.8056C30.9317 17.9717 30.851 18.1244 30.7255 18.2352C30.6001 18.346 30.4386 18.4073 30.2712 18.4075H28.9131C28.8065 18.4074 28.703 18.4437 28.6198 18.5104C28.5366 18.5771 28.4787 18.6703 28.4556 18.7744C28.1353 20.2192 27.5642 21.5968 26.7681 22.8444C26.7107 22.9342 26.6856 23.0409 26.6969 23.1469C26.7083 23.2529 26.7554 23.3519 26.8306 23.4275L27.7919 24.3894C27.91 24.5078 27.9808 24.6653 27.9912 24.8322C28.0015 24.9991 27.9507 25.1641 27.8481 25.2962C27.1033 26.2477 26.2458 27.1052 25.2944 27.85C25.1622 27.9527 24.9971 28.0037 24.83 27.9933C24.6629 27.983 24.5054 27.912 24.3869 27.7937L23.4256 26.8325C23.3501 26.7572 23.2511 26.71 23.1451 26.6986C23.039 26.6872 22.9323 26.7124 22.8425 26.77C21.5949 27.5661 20.2174 28.1372 18.7725 28.4575C18.6684 28.4806 18.5753 28.5385 18.5085 28.6217C18.4418 28.7049 18.4055 28.8084 18.4056 28.915V30.2731C18.4054 30.4405 18.3441 30.602 18.2333 30.7274C18.1225 30.8528 17.9698 30.9335 17.8037 30.9544C16.6045 31.101 15.3918 31.101 14.1925 30.9544C14.0264 30.9335 13.8737 30.8528 13.7629 30.7274C13.6521 30.602 13.5908 30.4405 13.5906 30.2731V28.9131C13.5907 28.8064 13.5543 28.7028 13.4875 28.6196C13.4206 28.5364 13.3274 28.4786 13.2231 28.4556C11.7785 28.1352 10.4012 27.5641 9.15375 26.7681C9.0789 26.7208 8.99228 26.6955 8.90375 26.695C8.84219 26.6949 8.78123 26.707 8.72437 26.7306C8.66752 26.7542 8.6159 26.7888 8.5725 26.8325L7.61062 27.7937C7.49217 27.9118 7.33474 27.9827 7.1678 27.993C7.00087 28.0034 6.83588 27.9525 6.70375 27.85C5.7523 27.1052 4.89478 26.2477 4.15 25.2962C4.04728 25.1641 3.99633 24.9989 4.00668 24.8319C4.01704 24.6648 4.088 24.5072 4.20625 24.3887L5.1675 23.4275C5.24278 23.352 5.29001 23.253 5.30138 23.1469C5.31275 23.0409 5.28756 22.9341 5.23 22.8444C4.43391 21.5968 3.86276 20.2193 3.5425 18.7744C3.51933 18.6703 3.46138 18.5773 3.3782 18.5106C3.29503 18.4439 3.19161 18.4075 3.085 18.4075H1.72875C1.5614 18.4073 1.39987 18.346 1.27445 18.2352C1.14904 18.1244 1.06834 17.9717 1.0475 17.8056C0.900837 16.6063 0.900837 15.3937 1.0475 14.1944C1.06834 14.0283 1.14904 13.8756 1.27445 13.7648C1.39987 13.654 1.5614 13.5927 1.72875 13.5925H3.08687C3.1936 13.5926 3.29715 13.5562 3.38036 13.4893C3.46356 13.4225 3.52143 13.3292 3.54437 13.225C3.86478 11.7804 4.43592 10.4031 5.23187 9.15562C5.28933 9.06581 5.31444 8.95909 5.30308 8.85308C5.29172 8.74707 5.24455 8.6481 5.16937 8.5725L4.20625 7.61062C4.08816 7.49217 4.01731 7.33474 4.00696 7.1678C3.9966 7.00087 4.04746 6.83588 4.15 6.70375C4.89478 5.7523 5.7523 4.89478 6.70375 4.15C6.83593 4.04728 7.00105 3.99633 7.16812 4.00668C7.3352 4.01704 7.49276 4.088 7.61125 4.20625L8.5725 5.1675C8.64804 5.24278 8.74702 5.29001 8.85306 5.30138C8.9591 5.31275 9.06584 5.28756 9.15562 5.23C10.4033 4.43416 11.7808 3.86303 13.2256 3.5425C13.3297 3.51943 13.4229 3.46151 13.4896 3.37832C13.5563 3.29512 13.5926 3.19164 13.5925 3.085V1.72875C13.5927 1.5614 13.654 1.39987 13.7648 1.27445C13.8756 1.14904 14.0283 1.06834 14.1944 1.0475C15.3937 0.900837 16.6063 0.900837 17.8056 1.0475C17.9717 1.06834 18.1244 1.14904 18.2352 1.27445C18.346 1.39987 18.4073 1.5614 18.4075 1.72875V3.08687C18.4074 3.1936 18.4438 3.29715 18.5107 3.38036C18.5775 3.46356 18.6708 3.52143 18.775 3.54437C20.2196 3.86491 21.5969 4.43605 22.8444 5.23187C22.9341 5.28955 23.0409 5.3148 23.147 5.30343C23.253 5.29206 23.352 5.24476 23.4275 5.16937L24.3894 4.20625C24.5078 4.08816 24.6653 4.01731 24.8322 4.00696C24.9991 3.9966 25.1641 4.04746 25.2962 4.15C26.2477 4.89478 27.1052 5.7523 27.85 6.70375C27.9525 6.83588 28.0034 7.00087 27.993 7.1678C27.9827 7.33474 27.9118 7.49217 27.7937 7.61062L26.8325 8.5725C26.7572 8.64804 26.71 8.74702 26.6986 8.85306C26.6872 8.9591 26.7124 9.06584 26.77 9.15562C27.5661 10.4032 28.1372 11.7807 28.4575 13.2256C28.4807 13.3297 28.5386 13.4227 28.6218 13.4894C28.705 13.5561 28.8084 13.5925 28.915 13.5925H30.2731C30.4405 13.5927 30.602 13.654 30.7274 13.7648C30.8528 13.8756 30.9335 14.0283 30.9544 14.1944C31.101 15.3937 31.101 16.6063 30.9544 17.8056H30.9525Z" fill="#316FEA"/>
<path d="M22.3442 7.95109C20.373 6.40099 17.9019 5.6273 15.3987 5.77646C12.8954 5.92561 10.5337 6.98726 8.76047 8.76047C6.98726 10.5337 5.92561 12.8954 5.77646 15.3987C5.6273 17.9019 6.40099 20.373 7.95109 22.3442C7.98925 22.3925 8.03656 22.4328 8.0903 22.4628C8.14405 22.4929 8.20318 22.512 8.26432 22.5192C8.32546 22.5263 8.38742 22.5214 8.44665 22.5046C8.50588 22.4878 8.56122 22.4596 8.60953 22.4214C8.65783 22.3832 8.69814 22.3359 8.72816 22.2822C8.75818 22.2284 8.77732 22.1693 8.78449 22.1082C8.79165 22.047 8.78671 21.9851 8.76993 21.9258C8.75316 21.8666 8.72488 21.8113 8.68671 21.763C7.27976 19.9719 6.57793 17.7274 6.71399 15.4539C6.85006 13.1804 7.81456 11.0356 9.42509 9.42512C11.0356 7.81468 13.1805 6.85027 15.454 6.71432C17.7275 6.57837 19.972 7.2803 21.763 8.68734C21.8605 8.76442 21.9847 8.79959 22.1082 8.78511C22.2316 8.77064 22.3443 8.7077 22.4214 8.61015C22.4985 8.5126 22.5336 8.38843 22.5192 8.26495C22.5047 8.14147 22.4418 8.02879 22.3442 7.95171V7.95109Z" fill="#316FEA"/>
<path d="M24.0486 9.65545C23.9715 9.5579 23.8588 9.49496 23.7353 9.48048C23.6119 9.46601 23.4877 9.50118 23.3901 9.57826C23.2926 9.65534 23.2297 9.76801 23.2152 9.89149C23.2007 10.015 23.2359 10.1391 23.3129 10.2367C24.7199 12.0277 25.4217 14.2723 25.2857 16.5458C25.1496 18.8193 24.1851 20.9641 22.5746 22.5745C20.9641 24.185 18.8192 25.1494 16.5457 25.2853C14.2722 25.4213 12.0277 24.7194 10.2367 23.3123C10.1884 23.2742 10.133 23.2459 10.0738 23.2291C10.0146 23.2123 9.95263 23.2074 9.89149 23.2146C9.76801 23.229 9.65534 23.292 9.57826 23.3895C9.50118 23.4871 9.46601 23.6112 9.48048 23.7347C9.49496 23.8582 9.5579 23.9709 9.65545 24.0479C11.6267 25.5975 14.0975 26.3708 16.6004 26.2215C19.1034 26.0722 21.4647 25.0107 23.2378 23.2377C25.0108 21.4648 26.0724 19.1034 26.2218 16.6005C26.3713 14.0976 25.5981 11.6267 24.0486 9.65545Z" fill="#316FEA"/>
<path d="M22.3895 13.0238C22.2654 12.9464 22.1234 12.9022 21.9773 12.8955C21.8312 12.8888 21.6858 12.9199 21.5551 12.9856L20.4957 13.5156V13.125C20.4946 12.6956 20.3235 12.284 20.0198 11.9803C19.7161 11.6767 19.3046 11.5055 18.8751 11.5044H11.9732C11.5438 11.5051 11.1322 11.6761 10.8287 11.9799C10.5252 12.2837 10.3547 12.6956 10.3545 13.125V18.875C10.355 19.3042 10.5257 19.7158 10.8291 20.0193C11.1326 20.3229 11.544 20.4937 11.9732 20.4944H18.8751C19.3044 20.4932 19.7157 20.3223 20.0193 20.0189C20.323 19.7155 20.4942 19.3043 20.4957 18.875V18.4831L21.5551 19.0131C21.6745 19.0728 21.806 19.104 21.9395 19.1044C22.166 19.1034 22.383 19.0132 22.5434 18.8532C22.7038 18.6933 22.7947 18.4765 22.7964 18.25V13.7563C22.7975 13.6094 22.7607 13.4648 22.6894 13.3364C22.6181 13.2081 22.5148 13.1004 22.3895 13.0238ZM18.8751 19.5581H11.9732C11.7923 19.5578 11.619 19.4857 11.4912 19.3576C11.3635 19.2295 11.2918 19.0559 11.292 18.875V13.125C11.2922 12.9443 11.364 12.7711 11.4917 12.6433C11.6194 12.5154 11.7926 12.4435 11.9732 12.4431H18.8751C19.0561 12.4431 19.2296 12.5149 19.3577 12.6428C19.4858 12.7706 19.5579 12.9441 19.5582 13.125V18.875C19.5582 19.0562 19.4863 19.2299 19.3582 19.3581C19.23 19.4862 19.0563 19.5581 18.8751 19.5581ZM21.8576 18.1175L20.4957 17.4375V14.5625L21.8589 13.8806L21.8576 18.1175Z" fill="#316FEA"/>
<path d="M13.4113 13.8057C13.2617 13.8057 13.1155 13.85 12.9911 13.9331C12.8668 14.0162 12.7698 14.1343 12.7126 14.2725C12.6554 14.4107 12.6404 14.5628 12.6696 14.7094C12.6987 14.8561 12.7708 14.9909 12.8765 15.0967C12.9823 15.2024 13.117 15.2745 13.2637 15.3036C13.4104 15.3328 13.5625 15.3178 13.7007 15.2606C13.8389 15.2034 13.957 15.1064 14.0401 14.9821C14.1232 14.8577 14.1675 14.7115 14.1675 14.5619C14.1672 14.3614 14.0874 14.1693 13.9457 14.0275C13.8039 13.8858 13.6117 13.806 13.4113 13.8057Z" fill="#316FEA"/>
</g>
<defs>
<clipPath id="clip0_639_241">
<rect width="32" height="32" fill="white"/>
</clipPath>
</defs>
</svg>
