<svg width="24" height="24" viewBox="0 0 24 24" fill="none" xmlns="http://www.w3.org/2000/svg">
<g clip-path="url(#clip0_745_171)">
<path d="M24 7.73438C24.0005 7.45601 23.9455 7.18033 23.8383 6.92344L21.4945 1.29844C21.335 0.913476 21.0647 0.584563 20.7179 0.353403C20.3712 0.122243 19.9636 -0.000755114 19.5469 3.48801e-06H4.45313C4.03653 -0.00070059 3.6291 0.122271 3.28246 0.353339C2.93582 0.584406 2.66556 0.913169 2.50594 1.29797L0.16219 6.92297C0.0547286 7.17997 -0.000408857 7.45582 2.28243e-06 7.73438V10.6406C-0.00039482 11.1598 0.191471 11.6608 0.538596 12.0469C0.191471 12.433 -0.00039482 12.9339 2.28243e-06 13.4531V16.2656C-0.00039482 16.7848 0.191471 17.2858 0.538596 17.6719C0.191471 18.058 -0.00039482 18.5589 2.28243e-06 19.0781V21.8906C0.000622639 22.4499 0.223059 22.986 0.618509 23.3815C1.01396 23.7769 1.55013 23.9994 2.10938 24H21.8906C22.4499 23.9994 22.986 23.7769 23.3815 23.3815C23.7769 22.986 23.9994 22.4499 24 21.8906V19.0781C24.0004 18.5589 23.8085 18.058 23.4614 17.6719C23.8085 17.2858 24.0004 16.7848 24 16.2656V13.4531C24.0004 12.9339 23.8085 12.433 23.4614 12.0469C23.8085 11.6608 24.0004 11.1598 24 10.6406V7.73438ZM3.80391 1.83891C3.85732 1.71075 3.94747 1.60127 4.06301 1.52428C4.17854 1.44728 4.31429 1.40621 4.45313 1.40625H19.5469C19.6857 1.40621 19.8215 1.44728 19.937 1.52428C20.0525 1.60127 20.1427 1.71075 20.1961 1.83891L21.7739 5.625H2.22703L3.80391 1.83891ZM22.5938 21.8906C22.5938 22.0771 22.5197 22.256 22.3878 22.3878C22.256 22.5197 22.0771 22.5938 21.8906 22.5938H2.10938C1.9229 22.5938 1.74405 22.5197 1.61219 22.3878C1.48033 22.256 1.40625 22.0771 1.40625 21.8906V19.0781C1.40625 18.8916 1.48033 18.7128 1.61219 18.5809C1.74405 18.4491 1.9229 18.375 2.10938 18.375H21.8906C22.0771 18.375 22.256 18.4491 22.3878 18.5809C22.5197 18.7128 22.5938 18.8916 22.5938 19.0781V21.8906ZM22.5938 16.2656C22.5938 16.4521 22.5197 16.631 22.3878 16.7628C22.256 16.8947 22.0771 16.9688 21.8906 16.9688H2.10938C1.9229 16.9688 1.74405 16.8947 1.61219 16.7628C1.48033 16.631 1.40625 16.4521 1.40625 16.2656V13.4531C1.40625 13.2666 1.48033 13.0878 1.61219 12.9559C1.74405 12.8241 1.9229 12.75 2.10938 12.75H21.8906C22.0771 12.75 22.256 12.8241 22.3878 12.9559C22.5197 13.0878 22.5938 13.2666 22.5938 13.4531V16.2656ZM22.5938 10.6406C22.5938 10.8271 22.5197 11.006 22.3878 11.1378C22.256 11.2697 22.0771 11.3438 21.8906 11.3438H2.10938C1.9229 11.3438 1.74405 11.2697 1.61219 11.1378C1.48033 11.006 1.40625 10.8271 1.40625 10.6406V7.73438C1.40625 7.5479 1.48033 7.36906 1.61219 7.23719C1.74405 7.10533 1.9229 7.03125 2.10938 7.03125H21.8906C22.0771 7.03125 22.256 7.10533 22.3878 7.23719C22.5197 7.36906 22.5938 7.5479 22.5938 7.73438V10.6406Z" fill="#316FEA"/>
<path d="M20.4844 19.7812H7.73438C7.54789 19.7812 7.36905 19.8553 7.23719 19.9872C7.10533 20.1191 7.03125 20.2979 7.03125 20.4844C7.03125 20.6709 7.10533 20.8497 7.23719 20.9816C7.36905 21.1134 7.54789 21.1875 7.73438 21.1875H20.4844C20.6709 21.1875 20.8497 21.1134 20.9816 20.9816C21.1134 20.8497 21.1875 20.6709 21.1875 20.4844C21.1875 20.2979 21.1134 20.1191 20.9816 19.9872C20.8497 19.8553 20.6709 19.7812 20.4844 19.7812Z" fill="#316FEA"/>
<path d="M20.4844 8.4375H7.73438C7.54789 8.4375 7.36905 8.51158 7.23719 8.64344C7.10533 8.7753 7.03125 8.95414 7.03125 9.14062C7.03125 9.32711 7.10533 9.50595 7.23719 9.63781C7.36905 9.76967 7.54789 9.84375 7.73438 9.84375H20.4844C20.6709 9.84375 20.8497 9.76967 20.9816 9.63781C21.1134 9.50595 21.1875 9.32711 21.1875 9.14062C21.1875 8.95414 21.1134 8.7753 20.9816 8.64344C20.8497 8.51158 20.6709 8.4375 20.4844 8.4375Z" fill="#316FEA"/>
<path d="M3.51562 8.4375C3.32914 8.4375 3.1503 8.51158 3.01844 8.64344C2.88658 8.7753 2.8125 8.95414 2.8125 9.14062C2.8125 9.52875 3.1275 9.9375 3.51562 9.9375C3.90375 9.9375 4.21875 9.52875 4.21875 9.14062C4.21875 8.95414 4.14467 8.7753 4.01281 8.64344C3.88095 8.51158 3.70211 8.4375 3.51562 8.4375Z" fill="#316FEA"/>
<path d="M20.4844 14.1562H7.73438C7.54789 14.1562 7.36905 14.2303 7.23719 14.3622C7.10533 14.4941 7.03125 14.6729 7.03125 14.8594C7.03125 15.0459 7.10533 15.2247 7.23719 15.3566C7.36905 15.4884 7.54789 15.5625 7.73438 15.5625H20.4844C20.6709 15.5625 20.8497 15.4884 20.9816 15.3566C21.1134 15.2247 21.1875 15.0459 21.1875 14.8594C21.1875 14.6729 21.1134 14.4941 20.9816 14.3622C20.8497 14.2303 20.6709 14.1562 20.4844 14.1562Z" fill="#316FEA"/>
<path d="M3.51562 15.5625C3.90395 15.5625 4.21875 15.2477 4.21875 14.8594C4.21875 14.471 3.90395 14.1562 3.51562 14.1562C3.1273 14.1562 2.8125 14.471 2.8125 14.8594C2.8125 15.2477 3.1273 15.5625 3.51562 15.5625Z" fill="#316FEA"/>
<path d="M3.51562 21.1875C3.90395 21.1875 4.21875 20.8727 4.21875 20.4844C4.21875 20.096 3.90395 19.7812 3.51562 19.7812C3.1273 19.7812 2.8125 20.096 2.8125 20.4844C2.8125 20.8727 3.1273 21.1875 3.51562 21.1875Z" fill="#316FEA"/>
</g>
<defs>
<clipPath id="clip0_745_171">
<rect width="24" height="24" fill="white"/>
</clipPath>
</defs>
</svg>
