<svg width="29" height="14" viewBox="0 0 29 14" fill="none" xmlns="http://www.w3.org/2000/svg">
<path d="M11.6928 0.126042C11.6966 0.0849187 11.6996 0.0437959 11.7029 0.00285991C12.5512 -0.00330852 13.3994 0.00285988 14.2477 5.60464e-05C14.2462 0.0400574 14.2449 0.0798718 14.2438 0.119873L14.2275 0.116882C14.2222 0.193812 14.2126 0.270383 14.1987 0.346236L14.189 0.297262C14.1864 0.354273 14.1836 0.411472 14.1817 0.468483H14.1641C14.1641 0.482502 14.166 0.510727 14.1667 0.52456H14.1481C14.1469 0.56886 14.1452 0.613348 14.1445 0.657648L14.1294 0.653536C14.1149 0.71641 14.107 0.780622 14.1058 0.845131L14.0942 0.839897C14.0882 0.867001 14.0819 0.894292 14.0755 0.921208C14.0733 0.958593 14.071 0.995977 14.0694 1.03336L14.0555 1.02663C14.0435 1.09026 14.0352 1.15455 14.0309 1.21916L14.0187 1.21337C14.0135 1.24926 14.0073 1.28496 14 1.32047C13.9983 1.34365 13.9966 1.36683 13.9955 1.39001L13.9813 1.38309C13.9748 1.49525 13.9439 1.60347 13.9234 1.71338C13.9223 1.73002 13.9215 1.74666 13.9209 1.76329L13.9043 1.75806C13.903 1.80236 13.9015 1.84647 13.9006 1.89077H13.8819C13.8819 1.90972 13.8826 1.92841 13.8841 1.94685H13.8667C13.8654 1.99096 13.8639 2.03489 13.863 2.079L13.8507 2.07583C13.8443 2.099 13.8383 2.12218 13.832 2.14517C13.8294 2.18592 13.8271 2.22655 13.8252 2.26705L13.8131 2.26144C13.8071 2.28873 13.8008 2.31621 13.7944 2.34331C13.7922 2.3807 13.7899 2.41696 13.7882 2.45378L13.7736 2.44967C13.7662 2.50164 13.7566 2.55323 13.752 2.60538L13.737 2.6022C13.7355 2.63958 13.7341 2.67653 13.7329 2.71304C14.5761 2.71417 15.4191 2.71155 16.2623 2.71435L16.2571 2.73024C16.3111 2.73024 16.3653 2.73323 16.4195 2.73585C16.4791 2.7471 16.5397 2.7523 16.6003 2.75136L16.5943 2.76706C16.6412 2.76912 16.6878 2.77174 16.7358 2.77473C16.7644 2.78052 16.7936 2.78594 16.8229 2.79099C16.8229 2.79435 16.8214 2.8009 16.821 2.80426C16.861 2.80613 16.9016 2.80837 16.942 2.8108C16.965 2.81679 16.9881 2.82277 17.0117 2.82856L17.0067 2.83996C17.0638 2.84365 17.1206 2.85202 17.1764 2.86501L17.1747 2.8809L17.2846 2.88576L17.2818 2.90314C17.3207 2.91212 17.3596 2.91997 17.3994 2.92651L17.3958 2.93567L17.4455 2.95436L17.5113 2.95941L17.5048 2.97361C17.5306 2.98202 17.5564 2.99081 17.5827 2.99922C17.6149 3.01268 17.6476 3.0252 17.6807 3.03661L17.6785 3.0424C17.7485 3.0682 17.8153 3.10203 17.8841 3.1325V3.14539L17.9072 3.13997L17.9044 3.16147L17.9622 3.16353L17.96 3.19605L18.0063 3.20016C18.128 3.28708 18.2516 3.37176 18.3615 3.47382L18.394 3.50784C18.4099 3.52541 18.426 3.54316 18.4424 3.56092C18.4783 3.60148 18.5142 3.64223 18.5476 3.68541L18.5618 3.68448C18.5605 3.69364 18.5579 3.71214 18.5568 3.72186L18.5863 3.72504C18.6037 3.7613 18.6224 3.79701 18.6404 3.83327L18.6486 3.83233C18.6716 3.87794 18.6955 3.92324 18.7202 3.96823C18.728 3.98879 18.7362 4.00935 18.7448 4.02991L18.7419 4.0443L18.757 4.04113C18.7659 4.08309 18.7802 4.12374 18.7994 4.16206C18.8005 4.18431 18.802 4.20655 18.8037 4.22898H18.8256C18.8256 4.2344 18.8224 4.24524 18.8213 4.25085C18.8333 4.2935 18.8404 4.33742 18.8422 4.3817L18.8553 4.37721C18.8566 4.39983 18.8583 4.42226 18.8602 4.44488C18.8809 4.53647 18.8748 4.63087 18.8761 4.72395C18.8774 4.81704 18.8796 4.90863 18.8607 4.9991C18.8432 5.07387 18.837 5.14864 18.8219 5.22341C18.8036 5.28825 18.7954 5.35553 18.7977 5.42285L18.7826 5.42024C18.7678 5.48903 18.7604 5.55922 18.7605 5.62959L18.7467 5.62436C18.7326 5.69405 18.7247 5.76486 18.7232 5.83595L18.7097 5.82941C18.6968 5.89956 18.6888 5.9705 18.6856 6.04175L18.6727 6.03521C18.6639 6.10549 18.6512 6.1754 18.6478 6.24662L18.6349 6.24157C18.6319 6.28326 18.6276 6.32494 18.6205 6.36644C18.603 6.44008 18.5925 6.51504 18.5807 6.58981C18.5624 6.65385 18.5536 6.72023 18.5546 6.78683H18.5428C18.5294 6.85034 18.5201 6.91465 18.5149 6.97935C18.4891 7.05637 18.4774 7.13743 18.4803 7.21862L18.4678 7.21376C18.462 7.23749 18.4564 7.26142 18.4504 7.28535C18.4476 7.3317 18.445 7.37881 18.4431 7.42479L18.4303 7.41862C18.4246 7.44828 18.4188 7.478 18.4129 7.50778C18.4103 7.54872 18.4074 7.58947 18.4058 7.6304L18.3927 7.62442C18.388 7.65975 18.3822 7.69489 18.3759 7.72985C18.3731 7.76461 18.3701 7.7992 18.368 7.83415L18.354 7.83172C18.3521 7.87985 18.3458 7.92771 18.3353 7.97472C18.3353 7.98705 18.3338 8.0121 18.3332 8.02388L18.3174 8.01976C18.3169 8.07316 18.3111 8.12638 18.3002 8.17865C18.2812 8.24281 18.2724 8.30953 18.274 8.37641H18.2568C18.2568 8.3951 18.2587 8.4138 18.26 8.43398L18.2424 8.43305C18.2411 8.48352 18.2392 8.53417 18.2381 8.58502L18.2261 8.57941C18.22 8.60651 18.2134 8.63362 18.2074 8.66072C18.2044 8.70951 18.2018 8.75848 18.2 8.80745L18.1858 8.80222C18.1719 8.87182 18.1641 8.94249 18.1624 9.01344L18.1489 9.00802C18.1359 9.07751 18.1278 9.14785 18.1248 9.2185L18.1119 9.2142C18.0745 9.47589 18.0203 9.73608 17.9775 9.99703C17.9788 10.0028 17.9816 10.0146 17.9831 10.0204L17.9628 10.0221C17.9615 10.0724 17.9594 10.1225 17.9583 10.1729L17.9457 10.1684C17.9398 10.1955 17.9334 10.2226 17.9271 10.2499C17.9243 10.2983 17.9216 10.3469 17.9198 10.3955L17.9065 10.3918C17.8983 10.4292 17.8893 10.4653 17.8811 10.5021C17.0344 10.5021 16.1879 10.5021 15.3414 10.5021L15.3546 10.4883C15.3023 10.4883 15.2507 10.4892 15.1987 10.4883C15.1987 10.4752 15.1978 10.4492 15.1976 10.4363L15.2172 10.4348V10.4053C15.2306 10.3533 15.2368 10.2997 15.2359 10.246L15.2503 10.2505C15.2646 10.1875 15.2723 10.1233 15.2733 10.0587L15.2883 10.063C15.2999 10.0061 15.307 9.94846 15.3096 9.89048L15.3214 9.89198C15.3266 9.85721 15.3333 9.823 15.3401 9.78898C15.3401 9.7658 15.3419 9.74263 15.3432 9.71982L15.3578 9.723C15.3632 9.6587 15.3765 9.59533 15.3832 9.5314L15.3965 9.53813C15.3986 9.50336 15.401 9.46878 15.4042 9.43439C15.4113 9.40467 15.4165 9.37439 15.4229 9.34467L15.4348 9.35177C15.4343 9.29743 15.4406 9.24324 15.4535 9.19046C15.4545 9.17868 15.4561 9.15494 15.4571 9.14317L15.4731 9.1456C15.4731 9.10111 15.4756 9.05681 15.4769 9.01269L15.4918 9.01512C15.5066 8.95293 15.5145 8.88931 15.5154 8.8254L15.5292 8.82895C15.5433 8.76595 15.551 8.7017 15.5524 8.63717L15.5668 8.64259C15.5798 8.57935 15.5875 8.51513 15.5898 8.45062L15.6021 8.45641C15.6074 8.42688 15.6133 8.39735 15.6208 8.36819C15.6231 8.33342 15.6249 8.29846 15.6274 8.26388L15.6412 8.26968C15.6505 8.20594 15.6621 8.14238 15.6662 8.07808L15.6778 8.08182C15.6819 8.03995 15.6885 7.99845 15.6965 7.95733C15.6976 7.94051 15.6988 7.92406 15.7003 7.90742L15.7146 7.91266C15.7157 7.86415 15.722 7.8159 15.7333 7.76873C15.7343 7.75284 15.7354 7.73714 15.7367 7.72144L15.753 7.72461C15.753 7.68031 15.7556 7.6362 15.7569 7.59227L15.7683 7.59339C15.7743 7.5704 15.7812 7.54778 15.7883 7.52535C15.7911 7.47937 15.7935 7.43339 15.796 7.38741L15.813 7.39114C15.824 7.33929 15.8302 7.28655 15.8317 7.23357L15.8431 7.23787C15.8477 7.20852 15.853 7.17936 15.8593 7.15058C15.8633 7.10201 15.8717 7.0539 15.8844 7.00683C15.8951 6.95807 15.9028 6.90869 15.9074 6.85898L15.9191 6.86589C15.9255 6.79561 15.9401 6.72664 15.9462 6.65654L15.9578 6.66121C15.9608 6.61972 15.9663 6.57845 15.9745 6.53766C15.9919 6.46868 16.0029 6.3984 16.0167 6.32868L16.013 6.30288H16.0317C16.0302 6.24727 16.0377 6.19178 16.0539 6.13858C16.0524 6.13297 16.0496 6.12194 16.0483 6.11633L16.0691 6.11521C16.0704 6.06512 16.0728 6.01521 16.0747 5.96568L16.0911 5.9696C16.1019 5.91761 16.1086 5.86486 16.1113 5.81184L16.1231 5.81689C16.1317 5.75277 16.1449 5.6894 16.1489 5.62473L16.1608 5.6309C16.1687 5.5537 16.1844 5.47725 16.1859 5.3993L16.2008 5.4079C16.1986 5.2864 16.2195 5.16172 16.1863 5.04265C16.1771 5.01312 16.1676 4.98396 16.1595 4.95443L16.1399 4.9563C16.1421 4.94732 16.1464 4.92919 16.1487 4.92003H16.1261L16.1283 4.89629L16.1036 4.89966L16.1089 4.87405C16.0859 4.85536 16.0638 4.83667 16.0421 4.81797L15.9829 4.77237L15.9584 4.77498V4.75479C15.9261 4.7462 15.8941 4.73704 15.8619 4.72881L15.8668 4.71853C15.8383 4.71205 15.8099 4.70514 15.7816 4.69778C15.7532 4.69554 15.7255 4.6933 15.6969 4.69143L15.7012 4.67647C15.6029 4.67778 15.5062 4.65498 15.4079 4.65778C14.7124 4.65778 14.017 4.65778 13.3215 4.65778C13.3071 4.71234 13.2997 4.76848 13.2994 4.82489L13.2792 4.82358C13.2792 4.83031 13.2811 4.84377 13.2817 4.8505C13.2704 4.89794 13.2641 4.94643 13.263 4.99518L13.2503 4.98845C13.2386 5.04577 13.2305 5.10376 13.2262 5.1621L13.2136 5.16023C13.2043 5.22303 13.1925 5.28547 13.1878 5.34902L13.1759 5.34379C13.1718 5.37893 13.1669 5.41407 13.1607 5.44902C13.1393 5.52722 13.1236 5.60687 13.1138 5.68735L13.1 5.68249C13.0985 5.72642 13.0968 5.77053 13.0957 5.81464H13.0804C13.0665 5.87002 13.0587 5.92674 13.0572 5.98381H13.048C13.0415 6.00624 13.0351 6.02867 13.028 6.0511C13.025 6.09147 13.0228 6.13204 13.0207 6.1726L13.0056 6.16774C12.9949 6.21961 12.9877 6.27212 12.9839 6.32494L12.9725 6.31952C12.9605 6.44663 12.9146 6.56794 12.908 6.69579L12.8966 6.69206C12.8916 6.73337 12.885 6.77467 12.8768 6.81561C12.8755 6.83206 12.8744 6.8487 12.8736 6.86533L12.859 6.86029C12.8565 6.907 12.8502 6.95344 12.8403 6.99917C12.8253 7.05569 12.8137 7.11305 12.8054 7.17095C12.7983 7.18964 12.7912 7.20833 12.7839 7.22815C12.7817 7.26852 12.7798 7.30896 12.7785 7.34946L12.763 7.34516C12.7498 7.4018 12.7422 7.45958 12.7403 7.51769L12.7288 7.51601C12.7231 7.53863 12.7174 7.56124 12.7114 7.58367C12.7089 7.61844 12.7067 7.65321 12.7048 7.68816L12.6912 7.68312C12.6789 7.7463 12.6704 7.81015 12.6656 7.87434L12.6532 7.86761C12.6454 7.93507 12.633 8.0019 12.6159 8.06762C12.6102 8.09827 12.6045 8.12911 12.5985 8.15996C12.5843 8.22226 12.5711 8.28457 12.5588 8.34688C12.5435 8.41024 12.5338 8.47492 12.5188 8.53847L12.5233 8.56408H12.503C12.5015 8.60857 12.4996 8.65306 12.4985 8.69773L12.4831 8.69324C12.4702 8.74967 12.4624 8.80718 12.46 8.86502L12.4474 8.86222C12.4343 8.92531 12.4258 8.98929 12.4222 9.05363L12.4108 9.04615C12.4048 9.07587 12.3985 9.10578 12.3921 9.13569C12.3908 9.15887 12.3897 9.18186 12.3889 9.20522L12.3745 9.19905C12.3676 9.26859 12.3529 9.33719 12.3469 9.40691L12.336 9.40261C12.3312 9.43832 12.3248 9.47402 12.3173 9.50953C12.3151 9.5314 12.3129 9.55327 12.3112 9.57533L12.296 9.57197C12.2945 9.60636 12.2923 9.64057 12.2899 9.67515C12.2636 9.73782 12.2508 9.80534 12.2525 9.87328L12.2385 9.87197C12.2239 9.93325 12.2161 9.99593 12.2151 10.0589L12.2 10.0553C12.1873 10.1124 12.18 10.1706 12.1781 10.229L12.1642 10.2232C12.1521 10.281 12.1444 10.3396 12.1413 10.3985L12.1257 10.3927C12.1244 10.4241 12.1229 10.4555 12.1216 10.4871C11.27 10.4905 10.4182 10.4883 9.56641 10.4883C9.56641 10.4632 9.56641 10.4383 9.56641 10.4135L9.58136 10.4187C9.58547 10.3884 9.59014 10.3585 9.59575 10.3286C9.61071 10.238 9.63744 10.1496 9.64435 10.058L9.6565 10.0647C9.65907 10.0175 9.66532 9.97067 9.67519 9.9245C9.69033 9.86842 9.70155 9.80954 9.71389 9.75197C9.71389 9.7359 9.7152 9.72001 9.71613 9.70412L9.73164 9.70748C9.73036 9.65226 9.73812 9.5972 9.75464 9.54449C9.75351 9.53888 9.75109 9.52748 9.74978 9.52187L9.76996 9.51925C9.77109 9.47514 9.77277 9.43121 9.77426 9.38841L9.79053 9.39252C9.80454 9.2684 9.8466 9.15401 9.85034 9.03213L9.86249 9.03905C9.86791 9.0097 9.87389 8.98036 9.88118 8.95157C9.8823 8.92746 9.88324 8.90334 9.88455 8.87942L9.89894 8.88633C9.90343 8.82708 9.91464 8.76857 9.92343 8.70988L9.93614 8.71717C9.93912 8.65818 9.94662 8.5995 9.95857 8.54165L9.97277 8.54726C9.97598 8.47734 9.98505 8.40781 9.99988 8.3394L10.013 8.34351C10.0141 8.30837 10.016 8.2736 10.018 8.23884C10.045 8.17006 10.058 8.09661 10.0563 8.02275L10.0702 8.02836C10.0844 7.91247 10.124 7.80088 10.1303 7.68386L10.1421 7.69022C10.1511 7.62106 10.1647 7.55227 10.1694 7.48255L10.181 7.48647C10.1922 7.38703 10.2195 7.29058 10.2382 7.19245C10.2382 7.176 10.2388 7.15973 10.2399 7.14366L10.2571 7.14815C10.2582 7.10403 10.2601 7.05992 10.2614 7.01599H10.2758C10.2911 6.95439 10.2993 6.89123 10.3003 6.82776H10.3219C10.3188 6.81879 10.3126 6.80066 10.3094 6.7915H10.3304C10.3319 6.7414 10.3343 6.69168 10.3363 6.64196L10.3537 6.64533C10.3652 6.58859 10.3721 6.53102 10.3743 6.47317L10.3876 6.47859C10.399 6.42016 10.407 6.36112 10.4115 6.30176L10.4229 6.3098C10.4279 6.2741 10.4343 6.23858 10.4416 6.20344C10.4438 6.17428 10.4459 6.14512 10.4481 6.11633L10.4614 6.12269C10.4685 6.06437 10.4801 6.0068 10.4861 5.94848L10.4984 5.95184C10.5025 5.89452 10.5103 5.83751 10.5218 5.78118H10.5373C10.5373 5.73819 10.5401 5.69501 10.5414 5.65221H10.559C10.559 5.63819 10.5573 5.61034 10.5569 5.59613H10.5756C10.5756 5.5522 10.5782 5.50828 10.5795 5.46435L10.5945 5.46865C10.6089 5.40588 10.617 5.34182 10.6186 5.27743L10.6335 5.2821C10.6461 5.16098 10.6896 5.04508 10.6934 4.92302L10.7059 4.92714C10.71 4.89742 10.7145 4.8677 10.7199 4.83835C10.7498 4.69236 10.7836 4.54675 10.8059 4.39946L10.8195 4.40151C10.8195 4.36413 10.821 4.32525 10.822 4.2873L10.8349 4.28842C10.8501 4.22674 10.8591 4.16368 10.8616 4.10019L10.8717 4.10225C10.8777 4.07926 10.8842 4.05664 10.8904 4.03402C10.8929 3.99352 10.8951 3.95309 10.8971 3.91271L10.9124 3.9172C10.9235 3.85932 10.9311 3.80083 10.9352 3.74205L10.9472 3.75009C10.9593 3.68612 10.9678 3.62153 10.9728 3.55662L10.9851 3.56317C10.9928 3.50391 11.0038 3.44522 11.01 3.38559L11.0216 3.39643C11.0251 3.35419 11.0302 3.31213 11.0379 3.27063C11.0589 3.19266 11.0746 3.11335 11.0848 3.03324L11.0984 3.03679C11.0995 2.99249 11.1012 2.94857 11.1025 2.90445H11.1223C11.1223 2.89772 11.121 2.88408 11.1205 2.87735C11.1349 2.82494 11.1418 2.77076 11.141 2.71641L11.1622 2.7179C11.1622 2.71174 11.1597 2.69921 11.159 2.69342C11.1703 2.64529 11.1766 2.59611 11.1777 2.54668L11.1904 2.55304C11.2036 2.48978 11.212 2.4256 11.2154 2.36107L11.2287 2.36649C11.2382 2.30836 11.2485 2.25022 11.2524 2.19153L11.2646 2.1977C11.2685 2.16218 11.273 2.12667 11.2794 2.09153C11.2911 2.03545 11.3042 1.9805 11.3167 1.92498C11.3205 1.89601 11.3237 1.86666 11.3274 1.83769L11.3405 1.84087C11.3408 1.79145 11.348 1.74233 11.3618 1.69488C11.3601 1.6889 11.3569 1.67619 11.3552 1.67133H11.3782C11.3794 1.6274 11.381 1.58347 11.3824 1.54048L11.3969 1.54272C11.412 1.48064 11.4202 1.41707 11.4212 1.35319L11.4353 1.35767C11.4475 1.30061 11.4552 1.24267 11.4582 1.18439L11.4695 1.18869C11.4751 1.15953 11.4814 1.13056 11.4882 1.10178C11.4904 1.06682 11.4923 1.03187 11.4945 0.996912L11.5085 1.00345C11.5177 0.944947 11.5283 0.886441 11.5326 0.827L11.5442 0.83429C11.5536 0.728679 11.5833 0.626619 11.6027 0.522877C11.6027 0.506428 11.6033 0.489979 11.6044 0.47353L11.6196 0.477829C11.6206 0.430432 11.6269 0.383295 11.6383 0.337264C11.6552 0.282743 11.6644 0.226112 11.6655 0.169034L11.6928 0.126042Z" fill="#316FEA"/>
<path d="M2.18288 2.71338C3.84412 2.71338 5.50536 2.71338 7.1666 2.71338C7.26099 2.72142 7.3552 2.73207 7.44922 2.74422C7.5081 2.74889 7.56717 2.75132 7.62642 2.75301C7.62493 2.75674 7.62194 2.76403 7.62063 2.76777C7.66876 2.76925 7.71676 2.77362 7.76437 2.78086C7.79652 2.78721 7.82905 2.79319 7.86101 2.80161C7.90363 2.8074 7.94606 2.8145 7.98831 2.82348L8.03597 2.82684L8.03373 2.84404C8.07111 2.84404 8.10943 2.84609 8.14756 2.84703L8.14906 2.87095L8.18345 2.85656C8.18345 2.86161 8.18345 2.87133 8.18345 2.87638C8.22228 2.88036 8.26068 2.88774 8.29822 2.89843C8.33456 2.91136 8.37215 2.92044 8.41038 2.92554L8.40757 2.94423L8.43468 2.9375C8.4932 2.96281 8.55364 2.98344 8.61543 2.99918L8.61319 3.00965C8.64496 3.01731 8.67674 3.02573 8.7087 3.03339C8.7087 3.03601 8.7087 3.04124 8.7087 3.04386C8.76963 3.06307 8.82815 3.08922 8.8831 3.1218L8.93432 3.12853C8.93432 3.13601 8.93226 3.15078 8.93151 3.15825L9.0074 3.16498C9.0074 3.17115 9.0074 3.18367 9.0074 3.18966C9.05077 3.20835 9.09339 3.22704 9.13694 3.24573C9.13694 3.24947 9.139 3.25714 9.13975 3.26087C9.1618 3.27396 9.18442 3.28742 9.20666 3.30106C9.23283 3.31471 9.259 3.32854 9.28573 3.34162L9.28798 3.36966L9.31489 3.36667C9.39209 3.43004 9.46948 3.49322 9.54481 3.55883C9.64773 3.65119 9.74031 3.75448 9.82089 3.86688L9.83809 3.87809C9.88314 3.94669 9.92781 4.01567 9.97323 4.0837C10.0031 4.14445 10.0471 4.19866 10.0628 4.26577L10.0871 4.26446C10.0887 4.28951 10.0904 4.31474 10.0923 4.34016L10.1071 4.33736C10.1127 4.34951 10.1237 4.37362 10.1291 4.38577C10.1278 4.39306 10.1248 4.40783 10.1233 4.41512L10.1431 4.41213C10.1514 4.44503 10.1603 4.47755 10.1689 4.51045L10.18 4.5054C10.1876 4.54409 10.1972 4.58241 10.2059 4.62111L10.2174 4.61849C10.2235 4.64784 10.2306 4.67718 10.2383 4.70634C10.2383 4.71363 10.237 4.72821 10.2366 4.73532L10.2553 4.73008C10.2604 4.78212 10.2687 4.8338 10.28 4.88485L10.2957 4.87962C10.2968 4.92392 10.2985 4.96841 10.2996 5.0129H10.3203L10.3084 5.04934L10.3312 5.05121C10.3286 5.26617 10.3826 5.47758 10.3704 5.6931C10.383 5.9404 10.3295 6.18415 10.3317 6.43107L10.3183 6.4279C10.3022 6.50304 10.2941 6.57966 10.2942 6.6565L10.2824 6.65239C10.2764 6.67532 10.2702 6.69831 10.2637 6.72136C10.2611 6.76211 10.2587 6.80305 10.2566 6.84417L10.2411 6.838C10.2305 6.88907 10.2227 6.94067 10.2177 6.99259L10.2033 6.99034C10.1949 7.03483 10.1863 7.07951 10.1805 7.12455L10.1654 7.11969C10.1654 7.13596 10.1639 7.15241 10.1633 7.16904C10.1562 7.19166 10.1495 7.21446 10.1431 7.23764L10.1349 7.23316C10.1271 7.26344 10.1194 7.29409 10.1112 7.32456C10.1123 7.33017 10.1147 7.34138 10.116 7.3468L10.0936 7.34531L10.0869 7.40812C10.0669 7.45522 10.0458 7.50158 10.0282 7.55018C10.0208 7.58347 10.0064 7.61481 9.98594 7.64214C9.9837 7.65766 9.97903 7.68869 9.97678 7.7042L9.96071 7.69878C9.95323 7.7257 9.94557 7.75243 9.93884 7.77972L9.91846 7.77822C9.92033 7.78682 9.92445 7.80439 9.92632 7.81318L9.90164 7.81804L9.91155 7.85318L9.89099 7.85112C9.88276 7.87822 9.87416 7.90514 9.86575 7.93243L9.85379 7.92608C9.84575 7.95243 9.83734 7.9786 9.82911 8.00477L9.81771 8.00215C9.80164 8.03954 9.78463 8.07692 9.76837 8.11337H9.75435L9.75809 8.13599H9.74388C9.72762 8.17225 9.71042 8.20833 9.69397 8.24478L9.67715 8.24179L9.68294 8.26571L9.65771 8.26702C9.66051 8.27562 9.66612 8.29282 9.66874 8.30142L9.65004 8.30029C9.60182 8.39114 9.53527 8.47058 9.48518 8.5603L9.46817 8.56685C9.45588 8.59133 9.44014 8.61393 9.42144 8.63395V8.65657H9.40574C9.35845 8.72316 9.30687 8.7866 9.25134 8.84648L9.24797 8.86125C9.12722 8.97864 9.02778 9.11658 8.89675 9.2235C8.79824 9.31304 8.70235 9.40594 8.59468 9.48519L8.54029 9.53006C8.47972 9.57473 8.4201 9.62109 8.35523 9.65978C8.35411 9.66333 8.35168 9.67025 8.35056 9.67361C8.32925 9.68632 8.30776 9.69885 8.28589 9.711C8.22499 9.75663 8.1599 9.79637 8.09149 9.82969C8.09149 9.83493 8.09149 9.84539 8.09149 9.85063L8.04812 9.85885C8.02662 9.87231 8.00588 9.8867 7.98569 9.90184C7.95877 9.91381 7.93167 9.92502 7.90456 9.93624L7.90812 9.95287L7.88307 9.94502L7.884 9.97026L7.8498 9.9596L7.84456 9.98858L7.81279 9.98166C7.81148 9.98783 7.80867 10.0004 7.80718 10.0067L7.77353 9.99774L7.77148 10.0282L7.73876 10.0174L7.73278 10.043L7.69745 10.0359L7.69876 10.0557C7.67241 10.063 7.64605 10.0704 7.61988 10.0783L7.62212 10.0884C7.58874 10.1005 7.5561 10.1147 7.52436 10.1306L7.47483 10.1379V10.1566L7.45315 10.1499C7.45315 10.1551 7.45315 10.1656 7.45315 10.1708L7.37838 10.1746C7.37838 10.1822 7.38025 10.1976 7.381 10.2054C7.34922 10.2073 7.31725 10.2091 7.28566 10.2114L7.28791 10.234L7.26417 10.2306C7.24024 10.2379 7.2165 10.2452 7.19258 10.2521C7.19258 10.2546 7.19389 10.2596 7.19426 10.2622C7.15594 10.2699 7.11781 10.2791 7.07968 10.2873L7.08323 10.2991C7.04341 10.3062 7.00435 10.3155 6.96491 10.3234L6.97051 10.3349C6.89107 10.3445 6.81518 10.371 6.73686 10.3856C6.71443 10.3908 6.69181 10.3953 6.6692 10.4002V10.4118C6.61165 10.4137 6.5544 10.4209 6.49816 10.4333L6.50078 10.449C6.41741 10.4478 6.33419 10.4563 6.25273 10.474V10.4858C6.15728 10.4873 6.06182 10.4894 5.96637 10.4921C5.9304 10.4997 5.8939 10.5044 5.85721 10.5064C4.94372 10.5026 4.03023 10.5041 3.11674 10.505C3.11674 10.5202 3.11674 10.5508 3.11674 10.5662L3.10123 10.56C3.08927 10.6235 3.08103 10.6877 3.07655 10.7522L3.06478 10.7471C3.05973 10.7826 3.05337 10.8179 3.04608 10.8535C3.04365 10.8813 3.04122 10.9095 3.03917 10.937L3.02627 10.9352C3.01954 10.9931 3.00758 11.0503 3.00141 11.1084L2.98907 11.1036C2.98782 11.1511 2.98155 11.1983 2.97038 11.2445C2.95165 11.3027 2.94287 11.3636 2.9444 11.4247L2.93038 11.4221C2.91565 11.4841 2.90788 11.5477 2.9072 11.6114L2.89299 11.6073C2.87912 11.6702 2.87136 11.7343 2.86982 11.7987L2.85748 11.7937C2.85187 11.8193 2.84608 11.8447 2.83991 11.8703C2.83748 11.9077 2.83505 11.9451 2.83299 11.984L2.81823 11.9825C2.80869 12.0386 2.79953 12.0946 2.79561 12.1522L2.78308 12.1531C2.77916 12.1933 2.77336 12.2333 2.76607 12.2733C2.76308 12.2864 2.76028 12.2995 2.75729 12.313C2.74514 12.3616 2.7386 12.4113 2.72794 12.4604C2.71261 12.5292 2.70159 12.5988 2.68607 12.6675C2.68738 12.6746 2.68981 12.6889 2.69093 12.6961L2.67 12.6937C2.66887 12.7376 2.66719 12.7818 2.66607 12.8261H2.65486C2.6485 12.8485 2.64214 12.8711 2.63504 12.8935C2.63168 12.9395 2.62925 12.9855 2.62682 13.0317L2.6113 13.0283C2.59853 13.0904 2.59096 13.1534 2.58868 13.2167C1.8524 13.2238 1.11574 13.2178 0.379265 13.2199C0.252906 13.2173 0.125799 13.2268 0 13.2115L0.0325245 13.2055C0.0465436 13.1274 0.0657966 13.0489 0.0790681 12.9707C0.101312 12.8363 0.148229 12.7053 0.150099 12.5681H0.164492C0.177924 12.5122 0.185443 12.4551 0.186922 12.3976L0.197203 12.3995C0.203371 12.3771 0.210101 12.3548 0.21683 12.333C0.21926 12.2918 0.221316 12.2507 0.223185 12.21L0.235709 12.2148C0.241503 12.1915 0.247672 12.1685 0.254401 12.1455C0.256831 12.1049 0.259261 12.0642 0.261317 12.0238L0.276832 12.029C0.288038 11.9712 0.29553 11.9128 0.299262 11.8541L0.311599 11.8602C0.319263 11.8017 0.330291 11.744 0.336273 11.6855L0.350105 11.6901C0.351974 11.6612 0.353844 11.6327 0.356087 11.604C0.363003 11.5746 0.368984 11.5451 0.374779 11.5157L0.38562 11.5219C0.387823 11.4731 0.395026 11.4247 0.407116 11.3774C0.408238 11.3613 0.409546 11.3456 0.410855 11.3299L0.427304 11.3335C0.428426 11.2892 0.430108 11.2447 0.431229 11.2006L0.446183 11.203C0.46138 11.141 0.469469 11.0775 0.470296 11.0137H0.492914C0.489736 11.0047 0.483194 10.9867 0.479829 10.9778L0.500578 10.9761C0.501886 10.9316 0.503568 10.8873 0.505064 10.8432L0.518335 10.8494C0.52413 10.8217 0.530485 10.7944 0.537027 10.7673C0.53927 10.7299 0.541514 10.6938 0.54357 10.6572L0.557776 10.6634C0.567309 10.6049 0.577776 10.5467 0.581515 10.4878L0.593665 10.4942C0.597777 10.4585 0.602263 10.423 0.608619 10.3878C0.629224 10.3039 0.645198 10.2188 0.656471 10.1331L0.668621 10.1377C0.669783 10.0884 0.677002 10.0394 0.690117 9.99175C0.688808 9.98577 0.686565 9.97306 0.685444 9.96745H0.707127C0.708248 9.92371 0.70993 9.87997 0.711052 9.83661H0.729744C0.729744 9.82259 0.728249 9.79455 0.727688 9.78053H0.745072C0.746193 9.73623 0.747876 9.69212 0.749184 9.648L0.764699 9.65249C0.778352 9.58953 0.786359 9.52547 0.788625 9.46108L0.803018 9.46744C0.815089 9.40962 0.822527 9.35092 0.825261 9.29192L0.838159 9.29827C0.850103 9.23524 0.858527 9.17158 0.863393 9.10761L0.87573 9.11079C0.883768 9.05303 0.894422 8.99583 0.900404 8.93789L0.912367 8.94144C0.916744 8.8804 0.928353 8.8201 0.946948 8.76181C0.952182 8.71844 0.958724 8.67545 0.96807 8.63302C0.986557 8.57484 0.995397 8.51404 0.994239 8.45301H1.01592L1.00396 8.41675H1.02489C1.0262 8.37226 1.02788 8.32777 1.02938 8.28347L1.04452 8.28889C1.05854 8.22599 1.06655 8.1619 1.06845 8.09748L1.08022 8.10291C1.08602 8.07636 1.09219 8.05019 1.09892 8.02402C1.10078 7.99113 1.10247 7.95804 1.10434 7.92533L1.11667 7.93711C1.12172 7.90626 1.12695 7.87561 1.13387 7.84533C1.13723 7.81093 1.14023 7.77673 1.14303 7.74252L1.15537 7.74775C1.16048 7.71186 1.16671 7.67622 1.17406 7.64083C1.1758 7.61815 1.17748 7.59572 1.17911 7.57354L1.19294 7.57709C1.19668 7.53578 1.20154 7.49503 1.2092 7.45447C1.2249 7.39223 1.23724 7.32923 1.25032 7.26643L1.25313 7.21876L1.26939 7.22138C1.27051 7.17689 1.27219 7.13259 1.27331 7.08829L1.28902 7.09166C1.30333 7.02926 1.31116 6.96556 1.31238 6.90156L1.33294 6.90361L1.32995 6.87501C1.3412 6.82814 1.34747 6.78021 1.34864 6.73202L1.36117 6.73856C1.37404 6.67517 1.38247 6.61097 1.3864 6.5464L1.39911 6.55182C1.40322 6.52248 1.40752 6.49313 1.41276 6.46397C1.43286 6.37921 1.44871 6.29349 1.46024 6.20714L1.47201 6.2135C1.47479 6.16554 1.48154 6.1179 1.4922 6.07106C1.4922 6.05928 1.49519 6.03555 1.49612 6.02358L1.5122 6.02564C1.51332 5.98171 1.515 5.93779 1.51631 5.89386L1.53818 5.89274C1.53538 5.88339 1.52996 5.86451 1.52715 5.85535H1.54865C1.54977 5.81143 1.55127 5.76769 1.55258 5.72451L1.56454 5.72656C1.57077 5.70351 1.577 5.68071 1.58323 5.65815C1.58585 5.61777 1.58809 5.57721 1.59015 5.53702L1.6051 5.5417C1.61816 5.47915 1.62604 5.41563 1.62865 5.35179L1.64361 5.35459C1.64529 5.34281 1.64903 5.31907 1.6509 5.3073C1.65856 5.2658 1.66192 5.22356 1.66585 5.18169L1.67837 5.18598C1.68697 5.12804 1.69707 5.07065 1.70249 5.01215L1.71482 5.01701C1.72137 4.90485 1.758 4.79644 1.77483 4.68522C1.7737 4.67887 1.77109 4.66653 1.76997 4.6598L1.79128 4.66092C1.7924 4.61699 1.79408 4.57307 1.79539 4.52895L1.81053 4.53082C1.82413 4.47495 1.83189 4.41782 1.83371 4.36035L1.84548 4.36166C1.85979 4.29908 1.86836 4.23532 1.87109 4.17118L1.88175 4.17717C1.88754 4.15361 1.89352 4.13025 1.90044 4.10688C1.90249 4.0723 1.90455 4.03772 1.90642 4.00333L1.92044 4.00688C1.93016 3.94351 1.94193 3.88033 1.94567 3.81622L1.95764 3.82164C1.97099 3.72306 1.98971 3.62528 2.01371 3.52873C2.01521 3.50612 2.01652 3.48368 2.01801 3.46125L2.03184 3.4663C2.03665 3.40771 2.04502 3.34947 2.05689 3.2919L2.07035 3.29714C2.07147 3.26162 2.07297 3.22611 2.07446 3.19078C2.08568 3.16031 2.09615 3.12965 2.10736 3.09919C2.10904 3.05806 2.11091 3.01675 2.11259 2.97563L2.12792 2.9803C2.14077 2.92311 2.14834 2.86486 2.15054 2.80628L2.16045 2.81151C2.1668 2.78759 2.17353 2.76403 2.18101 2.74048L2.18288 2.71338ZM4.31884 4.67924C4.31797 4.75152 4.30534 4.82317 4.28145 4.8914C4.27908 4.93252 4.27722 4.97377 4.27584 5.01514L4.26351 5.01084C4.24966 5.08037 4.2411 5.15086 4.2379 5.22169L4.22612 5.21645C4.21771 5.2929 4.20201 5.36861 4.20014 5.44581L4.18836 5.4387C4.18388 5.47497 4.17827 5.51123 4.17079 5.54712C4.16799 5.58207 4.16575 5.61684 4.16388 5.65179L4.14687 5.64488C4.14687 5.67441 4.14687 5.70432 4.14687 5.73404L4.13135 5.75535C4.13135 5.78358 4.13135 5.81143 4.13042 5.84021L4.11304 5.83423C4.11098 5.88096 4.10855 5.92769 4.10575 5.97424C4.07359 6.0748 4.06986 6.18078 4.05098 6.28397L4.03677 6.28266C4.03546 6.33873 4.03303 6.39481 4.03135 6.45089L4.01621 6.44846C4.00206 6.51141 3.99485 6.57572 3.99471 6.64024L3.98387 6.63781C3.97826 6.66678 3.97266 6.69613 3.96518 6.72492C3.962 6.76585 3.95976 6.80679 3.95808 6.84772L3.94518 6.84155C3.92649 6.99109 3.90387 7.13951 3.87041 7.28587C3.86648 7.31578 3.86293 7.34587 3.85882 7.37596C3.85209 7.41148 3.84761 7.44737 3.84349 7.48326L3.83022 7.47672C3.82891 7.51167 3.82723 7.547 3.82574 7.58214C3.81975 7.6055 3.81396 7.62906 3.80873 7.6528H3.79564C3.79359 7.72046 3.79359 7.78944 3.7734 7.85505C3.75228 7.92682 3.75601 8.0029 3.7347 8.07487C3.72117 8.12796 3.7142 8.18251 3.71396 8.2373C3.70667 8.2573 3.69975 8.2773 3.69302 8.29768C3.68243 8.35596 3.67705 8.41508 3.67695 8.47432L3.6605 8.46796C3.6605 8.49488 3.65956 8.5218 3.659 8.5489C4.22893 8.5489 4.79923 8.55414 5.36878 8.54572L5.357 8.53021C5.45308 8.53339 5.54766 8.51619 5.64262 8.50441L5.63963 8.49133C5.68991 8.49002 5.74038 8.48796 5.79066 8.48666V8.46404L5.81328 8.46703C5.85573 8.45715 5.89894 8.4509 5.94244 8.44834L5.93833 8.42965L5.9645 8.43226C6.00001 8.42385 6.03572 8.41693 6.07179 8.41058C6.07179 8.40834 6.07011 8.40385 6.06974 8.40161C6.11887 8.38853 6.16718 8.37255 6.21441 8.35375C6.23535 8.34815 6.25666 8.34273 6.27797 8.33787L6.27554 8.32871C6.32264 8.31263 6.369 8.29413 6.41423 8.27469C6.46059 8.24927 6.50769 8.22478 6.55592 8.20328V8.18926L6.57985 8.19543L6.57854 8.18291C6.61106 8.16422 6.64415 8.14552 6.6763 8.12683L6.72565 8.09318V8.07599L6.76135 8.07991C6.76247 8.07374 6.7649 8.06122 6.76602 8.05524L6.83294 8.00589H6.85518L6.85892 7.96851L6.88378 7.96739C7.00883 7.83523 7.14323 7.7057 7.22454 7.54083L7.23837 7.5369C7.25295 7.50943 7.26809 7.48251 7.28361 7.45559C7.28548 7.44344 7.2894 7.41933 7.29146 7.40718L7.3152 7.40905C7.31914 7.37556 7.33331 7.34411 7.35576 7.31895L7.36174 7.27447L7.37651 7.27727C7.38511 7.24531 7.3952 7.21353 7.40343 7.18157L7.42212 7.184L7.41782 7.1582C7.42343 7.141 7.43483 7.10642 7.44062 7.08923L7.45128 7.09166C7.4595 7.05427 7.46997 7.01595 7.47707 6.97801L7.48661 6.97969C7.49408 6.95016 7.50212 6.921 7.51053 6.89184C7.50904 6.88529 7.50623 6.87202 7.50492 6.86529L7.52362 6.86828C7.52904 6.8337 7.53521 6.7995 7.54231 6.76566C7.56262 6.70846 7.57232 6.64803 7.57091 6.58734L7.59371 6.58566L7.581 6.55089L7.60119 6.54809C7.60343 6.46378 7.60792 6.37986 7.61259 6.29555C7.61733 6.34154 7.62306 6.38765 7.62979 6.43388C7.63895 6.33443 7.641 6.23443 7.64306 6.1348L7.6582 6.14097C7.65812 6.09204 7.66275 6.04321 7.67203 5.99517C7.68269 5.8189 7.68755 5.6374 7.62269 5.46992L7.62717 5.44655H7.60381C7.60287 5.42786 7.60119 5.38917 7.60026 5.36992L7.56867 5.3716C7.56736 5.35291 7.56437 5.31552 7.56306 5.29683H7.53165L7.52493 5.2529C7.48754 5.20711 7.45016 5.16131 7.41277 5.11477C7.35035 5.05507 7.28463 4.9989 7.21594 4.94654L7.19108 4.94542V4.93102C7.16809 4.91962 7.14529 4.90822 7.12229 4.89738C7.09669 4.88186 7.07145 4.86597 7.04584 4.85121L6.98565 4.84448C6.98565 4.83681 6.98771 4.82167 6.98827 4.81401L6.91089 4.81121L6.91238 4.79401C6.875 4.78541 6.8363 4.77625 6.79817 4.76896L6.80135 4.75775C6.75013 4.7484 6.6991 4.73775 6.64751 4.73158L6.65462 4.71999C6.53704 4.71251 6.42283 4.67625 6.30451 4.67812C6.22974 4.67662 6.15385 4.68017 6.0802 4.66821C5.9559 4.66653 5.83066 4.6583 5.70636 4.67288C5.64435 4.66541 5.58185 4.66284 5.51944 4.66522C5.13974 4.66522 4.75966 4.66522 4.37921 4.66522L4.31884 4.67924Z" fill="#316FEA"/>
<path d="M19.8282 2.71346C21.5538 2.71757 23.2795 2.70523 25.0048 2.7185L25.0013 2.7329C25.0972 2.73738 25.1923 2.75514 25.2887 2.75477L25.2831 2.76972C25.3123 2.77122 25.3418 2.7729 25.3716 2.77495C25.413 2.78331 25.455 2.78911 25.4972 2.79234L25.4903 2.8043C25.5387 2.80635 25.5868 2.8126 25.6342 2.82299L25.682 2.82729L25.6779 2.84393C25.7153 2.84486 25.7544 2.84636 25.7929 2.84748L25.7944 2.87122L25.8286 2.85626C25.8286 2.8615 25.8286 2.87178 25.8286 2.87683C25.8696 2.8813 25.9104 2.88816 25.9506 2.89739H25.962L25.9604 2.91739L26.0557 2.92075L26.0534 2.9443L26.0785 2.93982C26.1077 2.94842 26.1376 2.95627 26.1678 2.96374L26.1652 2.98132L26.1897 2.9772C26.2135 2.98487 26.2374 2.99197 26.2619 2.99907L26.2579 3.00991C26.2903 3.01777 26.3232 3.02674 26.3561 3.03459L26.3531 3.04393C26.3942 3.05851 26.435 3.07515 26.4755 3.09253C26.4905 3.09852 26.5058 3.10431 26.5215 3.11011V3.12618H26.5776C26.5776 3.13422 26.5776 3.15048 26.5787 3.1587L26.6535 3.16469C26.6535 3.17272 26.6535 3.18899 26.6523 3.19702L26.7112 3.19908L26.7058 3.22039H26.7193C26.7398 3.2288 26.7608 3.23702 26.7823 3.24488L26.7852 3.26189C26.8476 3.29551 26.9075 3.33349 26.9645 3.37553L27.0453 3.43572C27.0961 3.4761 27.1443 3.52003 27.1948 3.56152L27.1959 3.56732L27.2415 3.60283C27.2789 3.64152 27.3163 3.68115 27.3516 3.72321L27.3572 3.72452C27.3813 3.75536 27.4066 3.78545 27.432 3.81517C27.4654 3.85712 27.4966 3.9008 27.5255 3.94602L27.5481 3.94808L27.5533 4.00415L27.5855 4.0021C27.5866 4.01668 27.5886 4.04584 27.5898 4.06023H27.6228C27.6228 4.07444 27.6247 4.10247 27.6253 4.11631L27.6399 4.11219C27.6615 4.15706 27.6851 4.20154 27.7064 4.24697L27.7159 4.24547C27.7227 4.27164 27.7298 4.29781 27.7374 4.32379L27.7501 4.32117L27.7746 4.38847C27.7746 4.39445 27.7731 4.40716 27.7728 4.41258H27.7886C27.7958 4.43538 27.8034 4.45819 27.8118 4.4808C27.8118 4.48679 27.8118 4.4995 27.8118 4.50492L27.8262 4.5066C27.8479 4.5866 27.8722 4.66642 27.901 4.74399C27.903 4.77184 27.9051 4.80007 27.9075 4.82792L27.9236 4.82194C27.9247 4.83857 27.926 4.8554 27.9281 4.87203C27.9346 4.90755 27.9406 4.94325 27.9457 4.97914L27.9589 4.97391C27.9602 5.00886 27.9627 5.044 27.9649 5.07914C27.9707 5.11073 27.9771 5.14232 27.9821 5.17429C28.0042 5.26476 28.0008 5.3584 28.0023 5.45074C28.0023 5.72832 28.0053 6.0059 27.9952 6.28329L27.9806 6.27563C27.9792 6.32437 27.974 6.37293 27.9651 6.42087C27.9621 6.46137 27.9597 6.50199 27.958 6.54274L27.9444 6.54069C27.9389 6.60461 27.9257 6.66761 27.9206 6.73153L27.9088 6.7291C27.9052 6.77089 27.899 6.81241 27.8902 6.85341C27.8888 6.865 27.8864 6.88799 27.8853 6.89939L27.8726 6.89696C27.8675 6.93191 27.8621 6.96687 27.8539 7.00145C27.8372 7.04637 27.8272 7.09346 27.824 7.14127L27.8098 7.13772C27.801 7.17678 27.7929 7.21585 27.7872 7.25548H27.7672C27.7685 7.26108 27.7713 7.2723 27.7726 7.27772C27.7639 7.30738 27.7559 7.33741 27.7486 7.36782L27.7311 7.3652C27.7311 7.37212 27.7341 7.38614 27.735 7.39305C27.7272 7.41611 27.7199 7.43928 27.7131 7.46259L27.7029 7.45791C27.6944 7.491 27.686 7.52408 27.6784 7.55717L27.6683 7.55268C27.6623 7.56988 27.6496 7.60427 27.6442 7.62128C27.6453 7.62801 27.6473 7.6411 27.6485 7.64764L27.6251 7.64484C27.6232 7.67044 27.6217 7.69605 27.6206 7.72185L27.5896 7.71998L27.5858 7.77961C27.5737 7.79232 27.5619 7.80521 27.5503 7.81811C27.5503 7.83176 27.5488 7.85905 27.5483 7.87288H27.5236C27.5049 7.94597 27.4617 8.00896 27.4322 8.07756H27.426C27.3944 8.14224 27.358 8.20467 27.3215 8.26673L27.3073 8.26467L27.3043 8.32075L27.272 8.31888C27.2707 8.33364 27.2683 8.3628 27.2669 8.37738L27.2352 8.37551C27.2339 8.38972 27.2314 8.41832 27.2301 8.43253L27.198 8.43159C27.1967 8.44561 27.194 8.47365 27.1926 8.48767L27.1718 8.48972C27.1559 8.51309 27.1404 8.53645 27.1243 8.55963C27.1243 8.56524 27.1228 8.57646 27.1223 8.58206H27.0957L27.1025 8.61646L27.0742 8.62225C27.0494 8.65964 27.0236 8.69702 26.9965 8.73216C26.8544 8.90301 26.7097 9.07273 26.5465 9.22395C26.3884 9.36265 26.2329 9.50695 26.0555 9.62116C26.0555 9.62471 26.0529 9.63182 26.0521 9.63518C25.9439 9.69406 25.8504 9.77724 25.7375 9.82771V9.84865L25.6944 9.85799C25.6492 9.88912 25.6008 9.91525 25.5501 9.93594L25.5486 9.96117L25.4994 9.96267C25.4807 9.9765 25.4645 9.99033 25.4474 10.0045L25.4205 9.99538L25.4183 10.0178C25.3922 10.0247 25.3666 10.032 25.3415 10.0397C25.3415 10.0425 25.3435 10.0483 25.3443 10.0513C25.2846 10.0714 25.2271 10.0975 25.1727 10.129L25.1321 10.1389C25.0995 10.1587 25.0635 10.172 25.0259 10.1782L25.0302 10.1903C24.9973 10.1988 24.9641 10.2066 24.9312 10.2135L24.933 10.2322L24.9093 10.2275C24.8848 10.2352 24.8603 10.2423 24.8364 10.2496L24.8403 10.258C24.817 10.2644 24.794 10.2711 24.7713 10.2784L24.7239 10.2819L24.7287 10.2967C24.6889 10.3034 24.6497 10.3124 24.6104 10.3204L24.6156 10.3318C24.5801 10.338 24.5452 10.3449 24.5106 10.3532L24.4822 10.3517L24.4854 10.3728C24.45 10.3743 24.4153 10.3763 24.3807 10.3784C24.3551 10.3883 24.3296 10.3971 24.3048 10.4077C24.2607 10.4113 24.217 10.4182 24.1739 10.4283H24.1457L24.1468 10.447C24.0637 10.4459 23.9807 10.4542 23.8994 10.4717L23.9027 10.484C23.7965 10.4851 23.6904 10.4896 23.5849 10.4887L23.5863 10.5038C22.647 10.5014 21.7075 10.5038 20.768 10.5021C20.739 10.5812 20.724 10.6647 20.7235 10.7489H20.7088C20.6946 10.8108 20.6872 10.8741 20.6865 10.9377L20.6723 10.9322C20.6611 10.9907 20.6536 11.0498 20.6452 11.1089C20.6211 11.1906 20.6106 11.2754 20.5891 11.3577C20.5813 11.4038 20.5774 11.4511 20.574 11.4973L20.5624 11.493C20.5569 11.5288 20.5507 11.5644 20.5437 11.5999C20.5418 11.6222 20.5402 11.6444 20.5389 11.6668L20.5247 11.6635C20.522 11.7101 20.5157 11.7564 20.506 11.802C20.4868 11.8603 20.4778 11.9215 20.4792 11.9829L20.4661 11.9814C20.4507 12.0434 20.4427 12.1071 20.4422 12.171L20.4284 12.1676C20.414 12.2302 20.4063 12.2942 20.4052 12.3585L20.3919 12.353C20.3775 12.4211 20.369 12.4904 20.3667 12.56H20.3525C20.3447 12.6149 20.3341 12.6694 20.3207 12.7233C20.3035 12.823 20.285 12.9224 20.2622 13.0209C20.2605 13.0433 20.2594 13.0658 20.2587 13.0886L20.2415 13.085C20.24 13.1286 20.2383 13.1723 20.2368 13.2159C19.3844 13.2215 18.5321 13.2159 17.6797 13.2179C17.6808 13.1805 17.6821 13.1432 17.6834 13.1058L17.6984 13.1086C17.7145 13.0284 17.7206 12.9456 17.753 12.8697C17.7522 12.8323 17.7505 12.7957 17.7477 12.76C17.7573 12.7822 17.7664 12.8052 17.7739 12.8287C17.8206 12.7596 17.7821 12.6734 17.79 12.5966L17.8064 12.6028C17.8133 12.5381 17.8266 12.4745 17.833 12.41L17.8464 12.4171C17.8481 12.388 17.8505 12.3594 17.8532 12.3306C17.8606 12.2953 17.8666 12.2598 17.8718 12.2242L17.8831 12.231C17.8852 12.1838 17.8914 12.1369 17.9018 12.0908C17.9152 12.0417 17.9254 11.9917 17.9322 11.9412C17.9373 11.9173 17.9419 11.8936 17.9466 11.8698L17.9573 11.8732C17.9578 11.8262 17.9641 11.7794 17.976 11.7339C17.9942 11.6754 18.003 11.6143 18.0021 11.553L18.0169 11.558C18.0289 11.5004 18.0364 11.4419 18.0393 11.3831L18.0518 11.3898C18.0642 11.3262 18.0727 11.2619 18.0773 11.1973L18.0902 11.2035C18.0976 11.1504 18.1089 11.0978 18.113 11.0446L18.1251 11.0511C18.1296 10.9864 18.1427 10.9227 18.1513 10.8586L18.1633 10.8649C18.1651 10.8167 18.1717 10.7687 18.1831 10.7218C18.184 10.7057 18.1851 10.6898 18.1866 10.6739L18.201 10.6776C18.202 10.629 18.2083 10.5806 18.2197 10.5333L18.2262 10.5199C18.2383 10.4672 18.2445 10.4134 18.2449 10.3593L18.261 10.3614C18.2736 10.3043 18.2804 10.2461 18.2814 10.1877L18.2956 10.1937C18.3074 10.1359 18.315 10.0773 18.3186 10.0184L18.3294 10.0238C18.3347 9.99351 18.3412 9.9636 18.3481 9.93388C18.3506 9.90005 18.3526 9.8664 18.3552 9.83276L18.3689 9.83724C18.3767 9.77949 18.3876 9.72229 18.393 9.66416L18.4046 9.66733C18.4089 9.62601 18.4154 9.58495 18.4242 9.54434C18.4242 9.53237 18.4257 9.50845 18.4261 9.49649L18.4425 9.49817C18.4438 9.45042 18.45 9.40293 18.4612 9.35648C18.4612 9.34489 18.4636 9.32171 18.4644 9.31013L18.4814 9.31181C18.4814 9.26807 18.484 9.22451 18.4853 9.18096L18.4999 9.18246C18.5149 9.12124 18.5231 9.05855 18.5244 8.99553H18.5405C18.5522 8.93915 18.5591 8.88187 18.561 8.82431L18.5721 8.8303C18.5777 8.80562 18.584 8.78132 18.5907 8.75702C18.5932 8.71777 18.5955 8.67858 18.5977 8.63945L18.6126 8.64206C18.6223 8.58449 18.6313 8.52692 18.636 8.4686L18.6479 8.47608C18.6598 8.38402 18.6771 8.29276 18.6999 8.2028C18.7036 8.17383 18.7066 8.14448 18.7106 8.11551L18.7233 8.11775C18.7244 8.06877 18.7316 8.02012 18.7446 7.97288C18.7435 7.96672 18.7408 7.95419 18.7397 7.9484H18.7614C18.7614 7.90428 18.764 7.86036 18.7655 7.81643L18.7801 7.81886C18.7952 7.75676 18.8034 7.69321 18.8046 7.62932L18.819 7.63287C18.8298 7.57287 18.8377 7.51231 18.8521 7.45324C18.8678 7.3945 18.8769 7.33419 18.8792 7.27342L18.8921 7.28015C18.9014 7.22164 18.9121 7.16332 18.916 7.10426L18.9276 7.10893C18.9323 7.07341 18.9384 7.03827 18.9463 7.00332C18.9487 6.97528 18.9508 6.94724 18.9536 6.9192L18.9665 6.92313C18.9721 6.86481 18.9838 6.80742 18.9919 6.74948L19.0033 6.75434C19.0056 6.71257 19.011 6.67103 19.0194 6.63004C19.0379 6.57238 19.0476 6.51226 19.0481 6.45171L19.0573 6.45339C19.0635 6.4304 19.0706 6.40778 19.0779 6.38535L19.0846 6.26329L19.0996 6.2689C19.1122 6.21135 19.1197 6.15281 19.122 6.09394L19.1345 6.10161C19.1471 6.03779 19.1556 5.97323 19.1599 5.90833L19.1728 5.91338C19.1818 5.85506 19.1915 5.79711 19.1968 5.73842L19.2082 5.74552C19.2128 5.70346 19.2196 5.66197 19.228 5.62066C19.228 5.60346 19.2297 5.58664 19.231 5.56963L19.2497 5.57617C19.2511 5.51299 19.2508 5.45 19.2497 5.387C19.2526 5.42028 19.256 5.45373 19.2594 5.48719C19.2762 5.39654 19.2953 5.30625 19.3095 5.21503L19.3212 5.21952C19.3232 5.15589 19.332 5.09265 19.3476 5.03092H19.3603C19.3614 4.9868 19.3631 4.94269 19.3646 4.89858L19.3773 4.90418C19.3829 4.88007 19.3895 4.85614 19.396 4.83241C19.3985 4.7924 19.4008 4.75253 19.4029 4.71278L19.4156 4.71782C19.4211 4.69446 19.4269 4.67128 19.433 4.6481L19.4409 4.52623L19.4553 4.53221C19.4635 4.47931 19.474 4.4266 19.4777 4.37314L19.4908 4.38043C19.4932 4.34641 19.4964 4.31258 19.5005 4.27874C19.507 4.24883 19.5121 4.21874 19.5169 4.18865L19.5272 4.19313C19.5313 4.13444 19.5433 4.07705 19.5525 4.01911L19.5667 4.02378C19.5678 3.97967 19.5695 3.93574 19.5708 3.89181L19.5852 3.89275C19.6005 3.83064 19.6087 3.76699 19.6097 3.70302L19.6315 3.7047L19.6196 3.66732L19.6399 3.66582C19.6414 3.61592 19.6439 3.56619 19.6459 3.51629L19.6685 3.51741C19.6685 3.51143 19.6659 3.49872 19.665 3.49292C19.6758 3.44495 19.682 3.39608 19.6837 3.34694L19.6968 3.35254C19.7052 3.30002 19.7155 3.24749 19.7196 3.19441L19.7383 3.19908L19.7196 3.0944C19.7224 3.11721 19.7358 3.16917 19.7704 3.16394L19.7459 3.1516C19.7472 3.10917 19.7502 3.06711 19.7517 3.02506L19.7667 3.03085C19.7715 2.97285 19.7793 2.91514 19.79 2.85795L19.8031 2.86038C19.8072 2.81077 19.8156 2.76162 19.8282 2.71346ZM21.9647 4.67726C21.957 4.75782 21.9411 4.83764 21.938 4.91876L21.9238 4.91446C21.9219 4.94325 21.92 4.97204 21.918 5.00101C21.9101 5.03671 21.9051 5.07316 21.9006 5.10961L21.8888 5.10232C21.8865 5.17328 21.8783 5.24393 21.8643 5.31354L21.8505 5.30999C21.849 5.36607 21.8466 5.42214 21.8453 5.47822L21.8266 5.47617C21.8266 5.49075 21.829 5.51972 21.8299 5.5343H21.8124C21.8109 5.59037 21.8084 5.64645 21.8071 5.70159H21.7849C21.7858 5.70757 21.7879 5.72029 21.7888 5.72571C21.7748 5.7856 21.7686 5.84703 21.7701 5.90852L21.757 5.90272C21.7522 5.92908 21.7473 5.95543 21.7421 5.98198C21.7195 6.16441 21.6716 6.34367 21.6581 6.52723L21.6449 6.52087C21.6425 6.56877 21.6376 6.6165 21.6301 6.66387C21.6232 6.6949 21.6153 6.72593 21.6077 6.75733C21.6047 6.80118 21.5996 6.84485 21.5922 6.88817C21.5852 6.90836 21.5781 6.92855 21.5712 6.94892C21.5704 7.00304 21.5636 7.05689 21.5509 7.10949C21.5269 7.18426 21.534 7.26445 21.5101 7.33941C21.5101 7.34539 21.5129 7.3581 21.514 7.36352L21.4953 7.36539C21.494 7.41586 21.4918 7.46651 21.4907 7.51717L21.4766 7.511C21.4637 7.57552 21.4559 7.64096 21.4533 7.70671L21.4411 7.69998C21.4307 7.77942 21.4224 7.85961 21.4037 7.93793C21.3935 7.99774 21.3828 8.05737 21.3778 8.11794L21.3647 8.1127C21.3617 8.17767 21.3544 8.24236 21.3428 8.30635L21.3282 8.30318C21.3258 8.35514 21.323 8.40729 21.32 8.45926C21.3125 8.48785 21.306 8.51683 21.3 8.5458C21.864 8.54867 22.4281 8.54867 22.9922 8.5458C22.9907 8.54169 22.9879 8.53309 22.9864 8.52898C23.0517 8.52786 23.1173 8.52599 23.1821 8.52075C23.2271 8.51012 23.2729 8.50288 23.319 8.49907C23.2844 8.49645 23.25 8.49365 23.216 8.4901C23.3431 8.50655 23.4616 8.45271 23.5868 8.44636L23.5842 8.42505L23.6216 8.43608V8.41589L23.715 8.41215C23.715 8.40542 23.715 8.39234 23.715 8.38561L23.7367 8.39365C23.7664 8.3848 23.7965 8.37676 23.8272 8.36953L23.8244 8.35084L23.8521 8.35701L23.9194 8.33327V8.3243C23.9691 8.30673 24.0186 8.28822 24.0689 8.27289V8.24841L24.1453 8.24149C24.1453 8.23401 24.1429 8.21869 24.142 8.21121L24.2167 8.20373C24.2167 8.19794 24.2167 8.18635 24.2167 8.18037C24.2389 8.1672 24.2625 8.15649 24.287 8.1484C24.3046 8.13042 24.3237 8.11409 24.3442 8.09962H24.3682L24.367 8.08429C24.5063 7.99083 24.6233 7.86821 24.7306 7.74073H24.7448C24.7448 7.73512 24.7448 7.72353 24.7448 7.71773C24.7657 7.69138 24.7867 7.66465 24.8085 7.63867C24.8547 7.56917 24.8971 7.49729 24.9356 7.42333L24.9474 7.42539C24.9485 7.41679 24.9506 7.39959 24.9517 7.391C24.9732 7.3529 24.9924 7.31357 25.0093 7.27323L25.0142 7.27436C25.0264 7.23896 25.041 7.20442 25.0579 7.17099C25.0594 7.14968 25.0611 7.12856 25.0631 7.10743L25.0938 7.10444C25.0955 7.07267 25.0973 7.0407 25.0996 7.00911L25.1293 7.01341C25.131 6.97603 25.1334 6.93864 25.1357 6.90126L25.1517 6.90444C25.1592 6.86425 25.1678 6.82443 25.1747 6.78425L25.1843 6.78761C25.1893 6.75845 25.1951 6.72966 25.203 6.70107C25.2044 6.68443 25.2078 6.65153 25.2095 6.63508L25.225 6.63826C25.2269 6.60387 25.2293 6.56985 25.2319 6.53564C25.2525 6.45595 25.2664 6.37466 25.2732 6.29264C25.2807 6.25133 25.2835 6.20946 25.2869 6.16759L25.3011 6.17245C25.3011 6.09413 25.3035 6.01581 25.308 5.93768C25.3254 5.85704 25.3254 5.77363 25.308 5.693C25.3039 5.64608 25.3015 5.59953 25.2996 5.55224L25.285 5.55822C25.2772 5.51916 25.2682 5.48046 25.2615 5.44121H25.2493C25.2405 5.40999 25.2306 5.37878 25.2231 5.34775H25.2132C25.1855 5.28253 25.1477 5.22209 25.1011 5.16868L25.0934 5.15466C25.0723 5.12942 25.0499 5.1055 25.0291 5.07989C24.9679 5.02592 24.9029 4.97632 24.8347 4.93147C24.8347 4.92811 24.8347 4.92119 24.8347 4.91764L24.7786 4.91502C24.7786 4.90848 24.7786 4.89502 24.7786 4.88848C24.7462 4.88336 24.7158 4.86961 24.6906 4.84867L24.6586 4.83764C24.63 4.80904 24.5895 4.8053 24.5521 4.80025L24.5556 4.78792C24.5169 4.77932 24.4781 4.76923 24.4396 4.76268L24.4448 4.75109C24.3979 4.74306 24.3513 4.73334 24.3046 4.72661L24.3143 4.7152C24.2262 4.70734 24.1385 4.69487 24.0517 4.67782C23.9418 4.66455 23.8304 4.67988 23.7212 4.66062C23.5094 4.65614 23.2973 4.66062 23.0857 4.66175C23.0131 4.65796 22.9403 4.65971 22.8679 4.66698C22.6688 4.65651 22.4692 4.66268 22.2698 4.66399C22.1686 4.67576 22.0641 4.64567 21.9647 4.67726Z" fill="#316FEA"/>
</svg>
