<svg width="28" height="24" viewBox="0 0 28 24" fill="none" xmlns="http://www.w3.org/2000/svg">
<g clip-path="url(#clip0_639_296)">
<path d="M23.3333 0H0V23.3333H28V0H23.3333ZM3.73333 22.4H0.933333V19.6H3.73333V22.4ZM3.73333 18.6667H0.933333V15.8667H3.73333V18.6667ZM3.73333 14.9333H0.933333V12.1333H3.73333V14.9333ZM3.73333 11.2H0.933333V8.4H3.73333V11.2ZM3.73333 7.46667H0.933333V4.66667H3.73333V7.46667ZM3.73333 3.73333H0.933333V0.933333H3.73333V3.73333ZM23.3333 22.4H4.66667V0.933333H23.3333V22.4ZM27.0667 22.4H24.2667V19.6H27.0667V22.4ZM27.0667 18.6667H24.2667V15.8667H27.0667V18.6667ZM27.0667 14.9333H24.2667V12.1333H27.0667V14.9333ZM27.0667 11.2H24.2667V8.4H27.0667V11.2ZM27.0667 7.46667H24.2667V4.66667H27.0667V7.46667ZM27.0667 3.73333H24.2667V0.933333H27.0667V3.73333Z" fill="#316FEA"/>
<path d="M17.675 11.4333C17.6334 11.3602 17.573 11.2998 17.5 11.2583L10.9666 7.52493C10.8954 7.48379 10.8145 7.46222 10.7322 7.4624C10.65 7.46259 10.5692 7.48452 10.4981 7.52597C10.4271 7.56743 10.3682 7.62694 10.3276 7.69846C10.2869 7.76999 10.2659 7.851 10.2666 7.93327V15.3999C10.2667 15.4818 10.2883 15.5622 10.3293 15.6331C10.3703 15.704 10.4292 15.7628 10.5002 15.8037C10.5711 15.8446 10.6515 15.8661 10.7334 15.8661C10.8153 15.8661 10.8957 15.8445 10.9666 15.8036L17.5 12.0703C17.5533 12.04 17.6002 11.9995 17.6379 11.951C17.6755 11.9026 17.7033 11.8472 17.7196 11.7881C17.7358 11.7289 17.7402 11.6671 17.7326 11.6062C17.7249 11.5453 17.7053 11.4866 17.675 11.4333ZM11.2 14.5955V8.73768L16.3257 11.6666L11.2 14.5955Z" fill="#316FEA"/>
</g>
<defs>
<clipPath id="clip0_639_296">
<rect width="28" height="23.3333" fill="white"/>
</clipPath>
</defs>
</svg>
