<svg width="32" height="26" viewBox="0 0 32 26" fill="none" xmlns="http://www.w3.org/2000/svg">
<g clip-path="url(#clip0_639_525)">
<path d="M27.4943 13.1812C23.1193 12.9087 19.9212 13.2768 18.0068 13.6331C17.8915 13.654 17.7881 13.7173 17.7172 13.8107C17.6462 13.904 17.6128 14.0206 17.6236 14.1373C17.6343 14.2541 17.6884 14.3625 17.7752 14.4414C17.862 14.5202 17.9752 14.5636 18.0925 14.5631C18.2993 14.5631 21.6681 13.7574 27.4362 14.1168C27.5605 14.1245 27.6828 14.0825 27.7762 14.0001C27.8695 13.9176 27.9263 13.8015 27.934 13.6771C27.9417 13.5528 27.8997 13.4305 27.8173 13.3372C27.7348 13.2438 27.6187 13.187 27.4943 13.1793V13.1812Z" fill="#316FEA"/>
<path d="M27.4943 15.7951C23.1193 15.5232 19.9206 15.8914 18.0068 16.2476C17.8915 16.2685 17.7881 16.3319 17.7172 16.4252C17.6462 16.5185 17.6128 16.6351 17.6236 16.7518C17.6343 16.8686 17.6884 16.9771 17.7752 17.0559C17.862 17.1347 17.9752 17.1782 18.0925 17.1776C18.2993 17.1776 21.6681 16.372 27.4362 16.7314C27.5605 16.7391 27.6828 16.6971 27.7762 16.6146C27.8695 16.5322 27.9263 16.416 27.934 16.2917C27.9417 16.1674 27.8997 16.0451 27.8173 15.9517C27.7348 15.8583 27.6187 15.8016 27.4943 15.7939V15.7951Z" fill="#316FEA"/>
<path d="M22.6001 18.3574C21.0595 18.4198 19.525 18.5883 18.0076 18.8617C17.8922 18.8826 17.7889 18.9459 17.718 19.0392C17.647 19.1325 17.6136 19.249 17.6243 19.3657C17.6349 19.4824 17.6889 19.5908 17.7756 19.6697C17.8623 19.7486 17.9754 19.7921 18.0926 19.7917C18.2801 19.7917 19.7682 19.4236 22.6426 19.2917C22.7669 19.2861 22.8839 19.2313 22.9678 19.1394C23.0517 19.0475 23.0957 18.9261 23.0901 18.8017C23.0844 18.6774 23.0296 18.5604 22.9377 18.4765C22.8459 18.3926 22.7244 18.3486 22.6001 18.3542V18.3574Z" fill="#316FEA"/>
<path d="M4.56268 16.4612C10.3921 16.0987 13.6377 16.9074 13.9064 16.9074C14.023 16.907 14.1353 16.8631 14.2212 16.7843C14.3072 16.7055 14.3607 16.5975 14.3714 16.4814C14.382 16.3653 14.3489 16.2494 14.2787 16.1563C14.2084 16.0632 14.106 15.9997 13.9914 15.9781C12.0783 15.6218 8.87893 15.2537 4.50455 15.5256C4.443 15.5294 4.38279 15.5453 4.32738 15.5724C4.27197 15.5995 4.22244 15.6372 4.18161 15.6834C4.14078 15.7296 4.10946 15.7835 4.08942 15.8418C4.06939 15.9001 4.06105 15.9618 4.06486 16.0234C4.06868 16.0849 4.08459 16.1451 4.11167 16.2006C4.13875 16.256 4.17648 16.3055 4.22271 16.3463C4.26894 16.3872 4.32275 16.4185 4.38108 16.4385C4.43941 16.4585 4.50112 16.4669 4.56268 16.4631V16.4612Z" fill="#316FEA"/>
<path d="M4.56268 19.097C10.3914 18.7345 13.6377 19.5433 13.9064 19.5433C14.023 19.5428 14.1353 19.4989 14.2212 19.4201C14.3072 19.3413 14.3607 19.2333 14.3714 19.1172C14.382 19.0011 14.3489 18.8852 14.2787 18.7921C14.2084 18.6991 14.106 18.6355 13.9914 18.6139C12.0783 18.257 8.87893 17.8895 4.50455 18.1614C4.443 18.1652 4.38279 18.1811 4.32738 18.2082C4.27197 18.2353 4.22244 18.273 4.18161 18.3192C4.14078 18.3655 4.10946 18.4193 4.08942 18.4776C4.06939 18.5359 4.06105 18.5977 4.06486 18.6592C4.06868 18.7208 4.08459 18.781 4.11167 18.8364C4.13875 18.8918 4.17648 18.9413 4.22271 18.9822C4.26894 19.023 4.32275 19.0543 4.38108 19.0743C4.43941 19.0944 4.50112 19.1027 4.56268 19.0989V19.097Z" fill="#316FEA"/>
<path d="M4.56268 13.8263C10.3914 13.4638 13.6377 14.2725 13.9064 14.2725C14.023 14.272 14.1353 14.2281 14.2212 14.1494C14.3072 14.0706 14.3607 13.9626 14.3714 13.8465C14.382 13.7303 14.3489 13.6144 14.2787 13.5214C14.2084 13.4283 14.106 13.3648 13.9914 13.3431C12.0777 12.9863 8.8783 12.6188 4.50455 12.8906C4.443 12.8945 4.38279 12.9104 4.32738 12.9375C4.27197 12.9645 4.22244 13.0023 4.18161 13.0485C4.14078 13.0947 4.10946 13.1485 4.08942 13.2069C4.06939 13.2652 4.06105 13.3269 4.06486 13.3885C4.06868 13.45 4.08459 13.5102 4.11167 13.5656C4.13875 13.621 4.17648 13.6706 4.22271 13.7114C4.26894 13.7522 4.32275 13.7836 4.38108 13.8036C4.43941 13.8236 4.50112 13.832 4.56268 13.8281V13.8263Z" fill="#316FEA"/>
<path d="M4.56268 11.1908C10.3914 10.8283 13.6377 11.637 13.9064 11.637C14.023 11.6365 14.1353 11.5926 14.2212 11.5139C14.3072 11.4351 14.3607 11.3271 14.3714 11.211C14.382 11.0948 14.3489 10.9789 14.2787 10.8859C14.2084 10.7928 14.106 10.7293 13.9914 10.7076C12.0777 10.3508 8.8783 9.98328 4.50455 10.2551C4.443 10.259 4.38279 10.2749 4.32738 10.302C4.27197 10.329 4.22244 10.3668 4.18161 10.413C4.14078 10.4592 4.10946 10.513 4.08942 10.5714C4.06939 10.6297 4.06105 10.6914 4.06486 10.753C4.06868 10.8145 4.08459 10.8747 4.11167 10.9301C4.13875 10.9855 4.17648 11.0351 4.22271 11.0759C4.26893 11.1167 4.32275 11.1481 4.38108 11.1681C4.43941 11.1881 4.50112 11.1965 4.56268 11.1926V11.1908Z" fill="#316FEA"/>
<path d="M4.5624 8.5556C10.3918 8.1931 13.6374 9.00185 13.9062 9.00185C14.0266 9.00734 14.1445 8.96624 14.2354 8.88708C14.3263 8.80792 14.3832 8.69678 14.3943 8.57676C14.4054 8.45674 14.3698 8.33705 14.295 8.24256C14.2201 8.14807 14.1118 8.08604 13.9924 8.06935C12.0793 7.7131 8.8799 7.34498 4.50553 7.61748C4.44397 7.6213 4.38377 7.6372 4.32836 7.66428C4.27295 7.69136 4.22341 7.7291 4.18259 7.77532C4.14176 7.82155 4.11043 7.87536 4.0904 7.9337C4.07037 7.99203 4.06202 8.05373 4.06584 8.11529C4.06966 8.17685 4.08556 8.23705 4.11264 8.29246C4.13973 8.34787 4.17746 8.3974 4.22369 8.43823C4.26991 8.47906 4.32373 8.51039 4.38206 8.53042C4.44039 8.55045 4.5021 8.55879 4.56365 8.55498L4.5624 8.5556Z" fill="#316FEA"/>
<path d="M9.20173 5.86193C12.1955 5.98693 13.7149 6.36631 13.9074 6.36631C14.024 6.36584 14.1362 6.32193 14.2222 6.24315C14.3081 6.16437 14.3617 6.05638 14.3723 5.94025C14.3829 5.82413 14.3499 5.70822 14.2796 5.61516C14.2094 5.52209 14.1069 5.45854 13.9924 5.43693C12.4232 5.15401 10.8358 4.98316 9.24235 4.92568C9.18079 4.92318 9.11935 4.93282 9.06152 4.95407C9.00369 4.97531 8.95061 5.00774 8.90531 5.0495C8.86001 5.09125 8.82338 5.14152 8.79751 5.19744C8.77164 5.25335 8.75704 5.31381 8.75454 5.37537C8.75203 5.43693 8.76168 5.49837 8.78292 5.5562C8.80417 5.61403 8.8366 5.66711 8.87835 5.71241C8.92011 5.75771 8.97038 5.79434 9.02629 5.82021C9.08221 5.84608 9.14267 5.86068 9.20423 5.86318L9.20173 5.86193Z" fill="#316FEA"/>
<path d="M30.0981 2.21125V1.64375C30.0962 1.27789 29.9582 0.925834 29.711 0.656166C29.4637 0.386499 29.1249 0.218534 28.7606 0.184997C21.6731 -0.424378 17.3444 0.638122 16.1875 0.978122C16.0651 1.01392 15.9349 1.01392 15.8125 0.978122C14.6556 0.638122 10.3269 -0.424378 3.23938 0.184997C2.87505 0.218534 2.53627 0.386499 2.28901 0.656166C2.04176 0.925834 1.90375 1.27789 1.90188 1.64375V2.21125C0.94625 2.41812 0 2.91312 0 4.4175V21.7212C0.000826574 22.6372 0.364909 23.5153 1.01238 24.1632C1.65985 24.811 2.53784 25.1755 3.45375 25.1769C3.82875 25.1769 9.57875 24.5519 14.3813 25.6981C15.4455 25.9522 16.5545 25.9522 17.6187 25.6981C20.8487 24.9269 24.8619 24.8856 28.26 25.165C28.7362 25.2045 29.2154 25.1448 29.6673 24.9897C30.1192 24.8345 30.534 24.5873 30.8855 24.2636C31.237 23.94 31.5175 23.5469 31.7094 23.1093C31.9012 22.6717 32.0002 22.1991 32 21.7212V4.4175C32 2.91312 31.0538 2.4175 30.0981 2.21125ZM31.0625 21.7212C31.0627 22.0695 30.9906 22.4139 30.8508 22.7328C30.711 23.0518 30.5065 23.3382 30.2504 23.5741C29.9942 23.8099 29.6918 23.99 29.3625 24.1031C29.0331 24.2161 28.6839 24.2595 28.3369 24.2306C24.8456 23.9419 20.7281 23.9919 17.3994 24.7862C16.4785 25.0053 15.519 25.0053 14.5981 24.7862C9.66813 23.6094 3.7725 24.2394 3.45312 24.2394C2.78586 24.2382 2.1463 23.9725 1.67471 23.5004C1.20311 23.0283 0.937995 22.3885 0.9375 21.7212V4.4175C0.9375 3.71687 1.18438 3.37062 1.90188 3.175V5.215C1.90188 5.33932 1.95126 5.45855 2.03917 5.54645C2.12708 5.63436 2.2463 5.68375 2.37063 5.68375C2.49495 5.68375 2.61417 5.63436 2.70208 5.54645C2.78999 5.45855 2.83938 5.33932 2.83938 5.215V1.64375C2.84004 1.5122 2.88961 1.38559 2.97844 1.28856C3.06728 1.19153 3.18902 1.131 3.32 1.11875C10.2081 0.526872 14.3869 1.53812 15.5312 1.86875V22.8062C15.3714 22.788 15.2128 22.7602 15.0562 22.7231C13.2312 22.2856 9.29125 21.6287 3.40875 22.1156C3.33621 22.1216 3.26322 22.1124 3.19439 22.0888C3.12557 22.0651 3.0624 22.0274 3.00889 21.978C2.95538 21.9287 2.91269 21.8688 2.88351 21.8021C2.85433 21.7354 2.8393 21.6634 2.83938 21.5906V7.40312C2.83938 7.2788 2.78999 7.15957 2.70208 7.07167C2.61417 6.98376 2.49495 6.93437 2.37063 6.93437C2.2463 6.93437 2.12708 6.98376 2.03917 7.07167C1.95126 7.15957 1.90188 7.2788 1.90188 7.40312V21.5906C1.90207 21.793 1.94417 21.9931 2.02552 22.1784C2.10687 22.3637 2.22571 22.5301 2.37454 22.6672C2.52338 22.8043 2.699 22.9091 2.89033 22.975C3.08166 23.0408 3.28456 23.0664 3.48625 23.05C9.23625 22.5737 13.0681 23.2119 14.8381 23.635C15.6021 23.816 16.3979 23.816 17.1619 23.635C18.9325 23.2119 22.7612 22.5725 28.5138 23.05C28.7154 23.0664 28.9183 23.0408 29.1097 22.975C29.301 22.9091 29.4766 22.8043 29.6255 22.6672C29.7743 22.5301 29.8931 22.3637 29.9745 22.1784C30.0558 21.9931 30.0979 21.793 30.0981 21.5906V19.6319C30.0981 19.5076 30.0487 19.3883 29.9608 19.3004C29.8729 19.2125 29.7537 19.1631 29.6294 19.1631C29.5051 19.1631 29.3858 19.2125 29.2979 19.3004C29.21 19.3883 29.1606 19.5076 29.1606 19.6319V21.5937C29.1607 21.6665 29.1457 21.7385 29.1165 21.8052C29.0873 21.8719 29.0446 21.9318 28.9911 21.9812C28.9376 22.0305 28.8744 22.0682 28.8056 22.0919C28.7368 22.1156 28.6638 22.1247 28.5912 22.1187C22.7094 21.6319 18.7687 22.29 16.9444 22.7262C16.7876 22.7633 16.6288 22.791 16.4688 22.8094V1.87187C17.6131 1.53812 21.7925 0.526871 28.6806 1.12187C28.8115 1.13414 28.9332 1.19469 29.0219 1.29173C29.1107 1.38878 29.1601 1.51538 29.1606 1.64687V17.4281C29.1606 17.5524 29.21 17.6717 29.2979 17.7596C29.3858 17.8475 29.5051 17.8969 29.6294 17.8969C29.7537 17.8969 29.8729 17.8475 29.9608 17.7596C30.0487 17.6717 30.0981 17.5524 30.0981 17.4281V3.17812C30.8162 3.37375 31.0625 3.72 31.0625 4.42062V21.7212Z" fill="#316FEA"/>
<path d="M26.805 3.41445C23.555 3.25257 20.7956 3.45132 18.6606 3.82632C18.3614 3.87875 18.0903 4.03516 17.8951 4.26796C17.6999 4.50077 17.5932 4.79502 17.5938 5.09882V10.3263C17.5939 10.6687 17.73 10.9971 17.9721 11.2392C18.2143 11.4813 18.5426 11.6174 18.885 11.6176C19.31 11.6176 21.8369 11.0107 26.6831 11.2426C26.8577 11.2509 27.0321 11.2236 27.1958 11.1625C27.3595 11.1015 27.5091 11.0078 27.6356 10.8872C27.762 10.7666 27.8627 10.6215 27.9315 10.4609C28.0002 10.3002 28.0357 10.1273 28.0356 9.95258V4.70257C28.0355 4.37056 27.9077 4.05132 27.6785 3.81103C27.4494 3.57075 27.1366 3.42784 26.805 3.41195V3.41445ZM27.0981 9.95382C27.0983 10.0017 27.0887 10.0491 27.0699 10.0932C27.0512 10.1372 27.0236 10.177 26.989 10.2101C26.9544 10.2432 26.9135 10.2689 26.8686 10.2856C26.8237 10.3024 26.776 10.3099 26.7281 10.3076C24.1656 10.1826 21.4625 10.2619 18.9438 10.6757C18.893 10.6841 18.841 10.6814 18.7915 10.6678C18.7419 10.6541 18.6958 10.6298 18.6566 10.5965C18.6173 10.5633 18.5858 10.5219 18.5642 10.4752C18.5425 10.4286 18.5313 10.3778 18.5313 10.3263V5.09882C18.5309 5.01568 18.5599 4.93508 18.6132 4.87126C18.6665 4.80745 18.7406 4.76452 18.8225 4.75007C20.905 4.38445 23.5938 4.1932 26.76 4.3507C26.8513 4.35471 26.9375 4.39369 27.0008 4.45955C27.0641 4.52541 27.0996 4.6131 27.1 4.70445L27.0981 9.95382Z" fill="#316FEA"/>
<path d="M24.4451 6.55629L22.492 5.18129C22.3651 5.09217 22.2163 5.03958 22.0616 5.02923C21.9069 5.01889 21.7524 5.05119 21.6148 5.12262C21.4773 5.19404 21.3619 5.30186 21.2814 5.43431C21.2009 5.56677 21.1583 5.71878 21.1582 5.87379V8.62379C21.1582 8.77884 21.2007 8.93091 21.2813 9.06341C21.3618 9.19591 21.4771 9.30374 21.6148 9.37513C21.7524 9.44653 21.907 9.47874 22.0617 9.46825C22.2164 9.45777 22.3652 9.40498 22.492 9.31567L24.4451 7.94067C24.5561 7.86257 24.6467 7.75892 24.7093 7.63845C24.7718 7.51797 24.8045 7.38422 24.8045 7.24848C24.8045 7.11274 24.7718 6.97898 24.7093 6.85851C24.6467 6.73804 24.5561 6.63438 24.4451 6.55629ZM22.0957 8.44754V6.05004L23.7995 7.24879L22.0957 8.44754Z" fill="#316FEA"/>
</g>
<defs>
<clipPath id="clip0_639_525">
<rect width="32" height="25.8888" fill="white"/>
</clipPath>
</defs>
</svg>
