<svg width="24" height="24" viewBox="0 0 24 24" fill="none" xmlns="http://www.w3.org/2000/svg">
<g clip-path="url(#clip0_733_166)">
<path d="M21.8906 0H2.10938C1.55012 0.000620356 1.01396 0.223057 0.618507 0.618507C0.223057 1.01396 0.000620356 1.55012 0 2.10938L0 21.8906C0.000620356 22.4499 0.223057 22.986 0.618507 23.3815C1.01396 23.7769 1.55012 23.9994 2.10938 24H21.8906C22.4499 23.9994 22.986 23.7769 23.3815 23.3815C23.7769 22.986 23.9994 22.4499 24 21.8906V2.10938C23.9994 1.55012 23.7769 1.01396 23.3815 0.618507C22.986 0.223057 22.4499 0.000620356 21.8906 0V0ZM22.5938 2.10938V11.2969H12.7031V1.40625H21.8906C22.0771 1.40625 22.2559 1.48033 22.3878 1.61219C22.5197 1.74405 22.5938 1.92289 22.5938 2.10938ZM2.10938 1.40625H11.2969V11.2969H1.40625V2.10938C1.40625 1.92289 1.48033 1.74405 1.61219 1.61219C1.74405 1.48033 1.92289 1.40625 2.10938 1.40625ZM1.40625 21.8906V12.7031H11.2969V22.5938H2.10938C1.92289 22.5938 1.74405 22.5197 1.61219 22.3878C1.48033 22.2559 1.40625 22.0771 1.40625 21.8906ZM21.8906 22.5938H12.7031V12.7031H22.5938V21.8906C22.5938 22.0771 22.5197 22.2559 22.3878 22.3878C22.2559 22.5197 22.0771 22.5938 21.8906 22.5938Z" fill="#316FEA"/>
<path d="M4.26562 7.07812H5.67188V8.48438C5.67188 8.67086 5.74595 8.8497 5.87782 8.98156C6.00968 9.11342 6.18852 9.1875 6.375 9.1875C6.56148 9.1875 6.74032 9.11342 6.87218 8.98156C7.00405 8.8497 7.07812 8.67086 7.07812 8.48438V7.07812H8.48438C8.67086 7.07812 8.8497 7.00405 8.98156 6.87218C9.11342 6.74032 9.1875 6.56148 9.1875 6.375C9.1875 6.18852 9.11342 6.00968 8.98156 5.87782C8.8497 5.74595 8.67086 5.67188 8.48438 5.67188H7.07812V4.26562C7.07812 4.07914 7.00405 3.9003 6.87218 3.76844C6.74032 3.63658 6.56148 3.5625 6.375 3.5625C6.18852 3.5625 6.00968 3.63658 5.87782 3.76844C5.74595 3.9003 5.67188 4.07914 5.67188 4.26562V5.67188H4.26562C4.07914 5.67188 3.9003 5.74595 3.76844 5.87782C3.63658 6.00968 3.5625 6.18852 3.5625 6.375C3.5625 6.56148 3.63658 6.74032 3.76844 6.87218C3.9003 7.00405 4.07914 7.07812 4.26562 7.07812Z" fill="#316FEA"/>
<path d="M7.36907 17.6251L8.36376 16.6309C8.42907 16.5656 8.48088 16.488 8.51622 16.4027C8.55157 16.3174 8.56976 16.2259 8.56976 16.1335C8.56976 16.0412 8.55157 15.9497 8.51622 15.8644C8.48088 15.779 8.42907 15.7015 8.36376 15.6362C8.29845 15.5709 8.22091 15.5191 8.13557 15.4837C8.05024 15.4484 7.95878 15.4302 7.86641 15.4302C7.77405 15.4302 7.68259 15.4484 7.59725 15.4837C7.51192 15.5191 7.43438 15.5709 7.36907 15.6362L6.37485 16.6309L5.38063 15.6362C5.24872 15.5043 5.06982 15.4302 4.88328 15.4302C4.69674 15.4302 4.51784 15.5043 4.38594 15.6362C4.25403 15.7681 4.17993 15.947 4.17993 16.1335C4.17993 16.3201 4.25403 16.499 4.38594 16.6309L5.38063 17.6251L4.38594 18.6193C4.32063 18.6846 4.26882 18.7622 4.23347 18.8475C4.19812 18.9328 4.17993 19.0243 4.17993 19.1167C4.17993 19.209 4.19812 19.3005 4.23347 19.3858C4.26882 19.4711 4.32063 19.5487 4.38594 19.614C4.51784 19.7459 4.69674 19.82 4.88328 19.82C4.97565 19.82 5.06711 19.8018 5.15244 19.7665C5.23778 19.7311 5.31532 19.6793 5.38063 19.614L6.37485 18.6193L7.36907 19.614C7.50097 19.7459 7.67987 19.82 7.86641 19.82C8.05295 19.82 8.23185 19.7459 8.36376 19.614C8.49566 19.4821 8.56976 19.3032 8.56976 19.1167C8.56976 18.9301 8.49566 18.7512 8.36376 18.6193L7.36907 17.6251Z" fill="#316FEA"/>
<path d="M19.7344 15.5156H15.5156C15.3291 15.5156 15.1503 15.5897 15.0184 15.7216C14.8866 15.8534 14.8125 16.0323 14.8125 16.2188C14.8125 16.4052 14.8866 16.5841 15.0184 16.7159C15.1503 16.8478 15.3291 16.9219 15.5156 16.9219H19.7344C19.9209 16.9219 20.0997 16.8478 20.2316 16.7159C20.3634 16.5841 20.4375 16.4052 20.4375 16.2188C20.4375 16.0323 20.3634 15.8534 20.2316 15.7216C20.0997 15.5897 19.9209 15.5156 19.7344 15.5156Z" fill="#316FEA"/>
<path d="M19.7344 18.3281H15.5156C15.3291 18.3281 15.1503 18.4022 15.0184 18.5341C14.8866 18.6659 14.8125 18.8448 14.8125 19.0312C14.8125 19.2177 14.8866 19.3966 15.0184 19.5284C15.1503 19.6603 15.3291 19.7344 15.5156 19.7344H19.7344C19.9209 19.7344 20.0997 19.6603 20.2316 19.5284C20.3634 19.3966 20.4375 19.2177 20.4375 19.0312C20.4375 18.8448 20.3634 18.6659 20.2316 18.5341C20.0997 18.4022 19.9209 18.3281 19.7344 18.3281Z" fill="#316FEA"/>
<path d="M15.5156 7.07812H19.7344C19.9209 7.07812 20.0997 7.00405 20.2316 6.87218C20.3634 6.74032 20.4375 6.56148 20.4375 6.375C20.4375 6.18852 20.3634 6.00968 20.2316 5.87782C20.0997 5.74595 19.9209 5.67188 19.7344 5.67188H15.5156C15.3291 5.67188 15.1503 5.74595 15.0184 5.87782C14.8866 6.00968 14.8125 6.18852 14.8125 6.375C14.8125 6.56148 14.8866 6.74032 15.0184 6.87218C15.1503 7.00405 15.3291 7.07812 15.5156 7.07812Z" fill="#316FEA"/>
<g clip-path="url(#clip1_733_166)">
<path d="M222 -244H-198C-209.931 -243.987 -221.369 -239.241 -229.805 -230.805C-238.241 -222.369 -242.987 -210.931 -243 -199V223C-242.987 234.931 -238.241 246.369 -229.805 254.805C-221.369 263.241 -209.931 267.987 -198 268H222C233.931 267.987 245.369 263.241 253.805 254.805C262.241 246.369 266.987 234.931 267 223V-199C266.987 -210.931 262.241 -222.369 253.805 -230.805C245.369 -239.241 233.931 -243.987 222 -244V-244ZM-213 -199C-213 -202.978 -211.42 -206.794 -208.607 -209.607C-205.794 -212.42 -201.978 -214 -198 -214H222C225.978 -214 229.794 -212.42 232.607 -209.607C235.42 -206.794 237 -202.978 237 -199V118H-213V-199ZM237 223C237 226.978 235.42 230.794 232.607 233.607C229.794 236.42 225.978 238 222 238H-198C-201.978 238 -205.794 236.42 -208.607 233.607C-211.42 230.794 -213 226.978 -213 223V148H237V223Z" fill="#316FEA"/>
<path d="M12 -183C-62.44 -183 -123 -122.44 -123 -48C-123 26.44 -62.44 87 12 87C86.44 87 147 26.44 147 -48C147 -122.44 86.44 -183 12 -183ZM12 57C-8.76704 57 -29.0677 50.8419 -46.3349 39.3043C-63.602 27.7668 -77.0602 11.368 -85.0074 -7.81824C-92.9546 -27.0045 -95.0339 -48.1165 -90.9825 -68.4845C-86.931 -88.8525 -76.9307 -107.562 -62.2462 -122.246C-47.5617 -136.931 -28.8525 -146.931 -8.48448 -150.982C11.8835 -155.034 32.9955 -152.955 52.1818 -145.007C71.368 -137.06 87.7668 -123.602 99.3043 -106.335C110.842 -89.0677 117 -68.767 117 -48C116.968 -20.162 105.896 6.52669 86.2111 26.2111C66.5267 45.8956 39.838 56.9682 12 57Z" fill="#316FEA"/>
</g>
</g>
<defs>
<clipPath id="clip0_733_166">
<rect width="24" height="24" fill="white"/>
</clipPath>
<clipPath id="clip1_733_166">
<rect width="510" height="512" fill="white" transform="translate(-243 -244)"/>
</clipPath>
</defs>
</svg>
