<svg width="25" height="28" viewBox="0 0 25 28" fill="none" xmlns="http://www.w3.org/2000/svg">
<g clip-path="url(#clip0_639_270)">
<path d="M12.2128 28.0012C12.1325 28.0015 12.0535 27.9813 11.9833 27.9427L7.44697 25.4175C5.18944 24.1601 3.30965 22.3282 2.00084 20.1099C0.692035 17.8917 0.00142335 15.3671 0 12.7959V5.13414C0 5.01012 0.049591 4.89117 0.137863 4.80347C0.226136 4.71577 0.345859 4.6665 0.470694 4.6665H1.315C4.31785 4.66108 7.23566 3.6752 9.61923 1.86066L11.9268 0.0976494C12.0089 0.0352656 12.1094 0.00146484 12.2128 0.00146484C12.3161 0.00146484 12.4166 0.0352656 12.4987 0.0976494L14.8057 1.86066C17.1893 3.67513 20.1071 4.66099 23.1099 4.6665H23.9554C24.0802 4.6665 24.2 4.71577 24.2882 4.80347C24.3765 4.89117 24.4261 5.01012 24.4261 5.13414V12.7959C24.4245 15.3672 23.7337 17.8917 22.4248 20.1099C21.1159 22.3282 19.2361 24.1601 16.9785 25.4175L12.4416 27.9427C12.3716 27.9813 12.2928 28.0014 12.2128 28.0012ZM0.939035 5.60062V12.7959C0.940663 15.2012 1.58681 17.5628 2.8111 19.638C4.03538 21.7132 5.79367 23.4271 7.90531 24.6038L12.2128 27.0005L16.5196 24.6038C18.6314 23.4273 20.3898 21.7134 21.6142 19.6382C22.8385 17.563 23.4845 15.2013 23.4859 12.7959V5.60062H23.1099C19.8996 5.59509 16.7801 4.54098 14.232 2.6007L12.2128 1.05631L10.1923 2.6007C7.64453 4.54106 4.52521 5.59517 1.315 5.60062H0.939035Z" fill="#316FEA"/>
<path d="M15.9054 12.0106V9.94363C15.9115 9.4607 15.8211 8.98136 15.6393 8.53341C15.4576 8.08547 15.1881 7.67784 14.8465 7.33417C14.505 6.99051 14.0981 6.71764 13.6496 6.5314C13.2011 6.34517 12.7198 6.24927 12.2337 6.24927C11.7475 6.24927 11.2662 6.34517 10.8177 6.5314C10.3692 6.71764 9.96233 6.99051 9.62077 7.33417C9.27921 7.67784 9.00973 8.08547 8.82797 8.53341C8.64621 8.98136 8.55579 9.4607 8.56194 9.94363V12.0106C8.10122 12.1047 7.68726 12.3537 7.38992 12.7158C7.09258 13.0779 6.93007 13.5308 6.92981 13.9981V19.6729C6.93043 20.2102 7.14555 20.7253 7.52796 21.1053C7.91038 21.4852 8.42886 21.6989 8.96968 21.6995H15.5006C16.0411 21.6981 16.559 21.4839 16.9408 21.1038C17.3226 20.7237 17.5372 20.2087 17.5375 19.6717V13.9969C17.5369 13.5298 17.3742 13.0773 17.0769 12.7155C16.7796 12.3537 16.3658 12.1047 15.9054 12.0106ZM9.37801 9.94363C9.37258 9.56763 9.44243 9.1943 9.5835 8.84536C9.72457 8.49641 9.93405 8.17881 10.1998 7.911C10.4655 7.6432 10.7821 7.43054 11.1313 7.28539C11.4804 7.14024 11.8552 7.06549 12.2337 7.06549C12.6121 7.06549 12.9869 7.14024 13.336 7.28539C13.6852 7.43054 14.0018 7.6432 14.2675 7.911C14.5333 8.17881 14.7427 8.49641 14.8838 8.84536C15.0249 9.1943 15.0947 9.56763 15.0893 9.94363V11.9703H14.2738V9.94363C14.2647 9.41202 14.0458 8.90523 13.6642 8.53247C13.2826 8.15971 12.7688 7.95083 12.2337 7.95083C11.6985 7.95083 11.1847 8.15971 10.8031 8.53247C10.4215 8.90523 10.2026 9.41202 10.1935 9.94363V11.9703H9.37801V9.94363ZM11.0096 9.94363C11.0166 9.6257 11.1486 9.32314 11.3774 9.10076C11.6062 8.87837 11.9136 8.75384 12.2337 8.75384C12.5537 8.75384 12.8611 8.87837 13.0899 9.10076C13.3187 9.32314 13.4507 9.6257 13.4578 9.94363V11.9703H11.0096V9.94363ZM16.7214 19.6717C16.7214 19.8314 16.6898 19.9895 16.6283 20.137C16.5668 20.2845 16.4766 20.4186 16.363 20.5315C16.2493 20.6444 16.1144 20.7339 15.966 20.795C15.8175 20.8561 15.6583 20.8876 15.4976 20.8876H8.96968C8.64511 20.8876 8.33383 20.7595 8.10432 20.5315C7.87481 20.3035 7.74588 19.9942 7.74588 19.6717V13.9969C7.74588 13.6744 7.87481 13.3652 8.10432 13.1372C8.33383 12.9091 8.64511 12.781 8.96968 12.781H15.5006C15.6613 12.781 15.8204 12.8125 15.9689 12.8736C16.1174 12.9347 16.2523 13.0243 16.3659 13.1372C16.4796 13.2501 16.5697 13.3841 16.6312 13.5316C16.6927 13.6791 16.7244 13.8372 16.7244 13.9969L16.7214 19.6717Z" fill="#316FEA"/>
<path d="M12.2333 19.3345C11.9837 19.3345 11.7442 19.236 11.5677 19.0606C11.3911 18.8852 11.2919 18.6473 11.2919 18.3993V17.1466C11.0014 16.9303 10.7951 16.6209 10.708 16.2707C10.6209 15.9205 10.6585 15.5512 10.8143 15.2254C10.9701 14.8996 11.2346 14.6374 11.5629 14.4833C11.8911 14.3292 12.2629 14.2926 12.6152 14.3799C12.8915 14.4462 13.1442 14.5864 13.3459 14.7854C13.5475 14.9845 13.6904 15.2346 13.759 15.5087C13.8353 15.8081 13.8207 16.1232 13.7172 16.4145C13.6136 16.7057 13.4257 16.96 13.1771 17.1454V18.3958C13.1775 18.5191 13.1535 18.6413 13.1062 18.7553C13.059 18.8693 12.9895 18.9729 12.9018 19.0602C12.8141 19.1475 12.7098 19.2166 12.5951 19.2637C12.4804 19.3108 12.3575 19.3349 12.2333 19.3345ZM12.2333 14.9592C12.0216 14.9581 11.816 15.0293 11.6508 15.1608C11.5297 15.2554 11.4338 15.378 11.3714 15.5179C11.3091 15.6578 11.2823 15.8108 11.2933 15.9634C11.3044 16.116 11.3529 16.2637 11.4347 16.3933C11.5166 16.5229 11.6292 16.6306 11.7626 16.707C11.8106 16.7345 11.8504 16.774 11.878 16.8216C11.9057 16.8692 11.9203 16.9232 11.9203 16.9782V18.3969C11.9185 18.4391 11.9253 18.4812 11.9402 18.5207C11.9552 18.5602 11.9781 18.5963 12.0075 18.6267C12.0368 18.6572 12.0721 18.6815 12.1112 18.6981C12.1503 18.7146 12.1923 18.7232 12.2348 18.7232C12.2773 18.7232 12.3193 18.7146 12.3584 18.6981C12.3975 18.6815 12.4328 18.6572 12.4621 18.6267C12.4915 18.5963 12.5144 18.5602 12.5294 18.5207C12.5443 18.4812 12.5511 18.4391 12.5493 18.3969V16.9776C12.5493 16.9228 12.5638 16.8689 12.5914 16.8214C12.619 16.7739 12.6586 16.7345 12.7064 16.707C12.8853 16.6034 13.0253 16.4445 13.1048 16.2545C13.1844 16.0645 13.1992 15.8539 13.1471 15.6548C13.1052 15.4931 13.0201 15.3457 12.9008 15.2282C12.7814 15.1107 12.6323 15.0274 12.4693 14.9872C12.3915 14.9684 12.3116 14.959 12.2316 14.9592H12.2333Z" fill="#316FEA"/>
</g>
<defs>
<clipPath id="clip0_639_270">
<rect width="24.4255" height="28" fill="white"/>
</clipPath>
</defs>
</svg>
