<svg width="26" height="22" viewBox="0 0 26 22" fill="none" xmlns="http://www.w3.org/2000/svg">
<g clip-path="url(#clip0_801_216)">
<path d="M19.6355 4.0492L17.4011 1.81482C17.3301 1.74381 17.2458 1.68747 17.1531 1.64904C17.0603 1.6106 16.9609 1.59082 16.8605 1.59082C16.7601 1.59082 16.6607 1.6106 16.5679 1.64904C16.4752 1.68747 16.3909 1.74381 16.3199 1.81482L0.222292 17.9125C0.151277 17.9835 0.0949434 18.0677 0.0565085 18.1605C0.0180736 18.2532 -0.00170898 18.3526 -0.00170898 18.453C-0.00170898 18.5534 0.0180736 18.6529 0.0565085 18.7456C0.0949434 18.8384 0.151277 18.9226 0.222292 18.9936L2.45667 21.228C2.52746 21.2992 2.61164 21.3558 2.70437 21.3943C2.7971 21.4329 2.89654 21.4528 2.99698 21.4528C3.09741 21.4528 3.19686 21.4329 3.28959 21.3943C3.38231 21.3558 3.4665 21.2992 3.53729 21.228L19.6349 5.13033C19.706 5.05936 19.7623 4.97508 19.8007 4.88233C19.8392 4.78958 19.8589 4.69016 19.8589 4.58976C19.8589 4.48936 19.8392 4.38995 19.8007 4.29719C19.7623 4.20444 19.706 4.12017 19.6349 4.0492H19.6355ZM2.99901 19.6045L1.84526 18.4508L14.208 6.08857L15.3612 7.24232L2.99901 19.6045ZM16.4423 6.16119L15.2886 5.00744L16.8592 3.43627L18.0125 4.58951L16.4423 6.16119Z" fill="#316FEA"/>
<path d="M25.3907 8.73934C24.7015 8.59485 24.0693 8.25278 23.5714 7.75489C23.0734 7.25701 22.7312 6.62488 22.5866 5.93572C22.5531 5.76185 22.4602 5.60506 22.3237 5.49231C22.1872 5.37955 22.0156 5.31787 21.8386 5.31787C21.6615 5.31787 21.49 5.37955 21.3535 5.49231C21.217 5.60506 21.124 5.76185 21.0906 5.93572C20.946 6.62488 20.6038 7.25701 20.1058 7.75489C19.6078 8.25278 18.9756 8.59485 18.2864 8.73934C18.1148 8.77558 17.9609 8.8697 17.8504 9.00593C17.74 9.14216 17.6797 9.31222 17.6797 9.4876C17.6797 9.66299 17.74 9.83305 17.8504 9.96927C17.9609 10.1055 18.1148 10.1996 18.2864 10.2359C18.9756 10.3803 19.6078 10.7223 20.1057 11.2202C20.6036 11.7181 20.9457 12.3503 21.0901 13.0395C21.1263 13.2111 21.2204 13.365 21.3567 13.4755C21.4929 13.586 21.6629 13.6462 21.8383 13.6462C22.0137 13.6462 22.1838 13.586 22.32 13.4755C22.4562 13.365 22.5503 13.2111 22.5866 13.0395C22.7312 12.3503 23.0734 11.7182 23.5714 11.2203C24.0693 10.7224 24.7015 10.3804 25.3907 10.2359C25.5623 10.1996 25.7163 10.1055 25.8267 9.96927C25.9372 9.83305 25.9975 9.66299 25.9975 9.4876C25.9975 9.31222 25.9372 9.14216 25.8267 9.00593C25.7163 8.8697 25.5623 8.77558 25.3907 8.73934ZM21.836 10.9361C21.4549 10.3613 20.9624 9.86871 20.3878 9.48735C20.9625 9.10631 21.455 8.61384 21.836 8.03907C22.2171 8.61384 22.7096 9.10631 23.2843 9.48735C22.7113 9.86918 22.2204 10.3618 21.8406 10.9361H21.836Z" fill="#316FEA"/>
<path d="M11.0195 2.89848C10.4563 2.78041 9.9397 2.50084 9.5328 2.09394C9.1259 1.68704 8.84633 1.17043 8.72825 0.607232C8.69201 0.43563 8.59789 0.281699 8.46166 0.171235C8.32544 0.0607716 8.15538 0.000488281 7.97999 0.000488281C7.80461 0.000488281 7.63455 0.0607716 7.49832 0.171235C7.36209 0.281699 7.26797 0.43563 7.23173 0.607232C7.11381 1.17042 6.83436 1.68705 6.42754 2.09396C6.02071 2.50087 5.50415 2.78044 4.94099 2.89848C4.76898 2.93424 4.61454 3.02817 4.50367 3.16445C4.3928 3.30074 4.33228 3.47106 4.33228 3.64674C4.33228 3.82243 4.3928 3.99275 4.50367 4.12904C4.61454 4.26532 4.76898 4.35925 4.94099 4.39501C5.504 4.51319 6.02042 4.79274 6.42721 5.19953C6.83399 5.60632 7.11354 6.12274 7.23173 6.68575C7.26749 6.85776 7.36141 7.01219 7.4977 7.12306C7.63398 7.23393 7.80431 7.29446 7.97999 7.29446C8.15568 7.29446 8.326 7.23393 8.46228 7.12306C8.59857 7.01219 8.6925 6.85776 8.72825 6.68575C8.84648 6.12267 9.1261 5.6062 9.53299 5.19941C9.93987 4.79262 10.4564 4.5131 11.0195 4.39501C11.1911 4.35877 11.345 4.26464 11.4555 4.12842C11.566 3.99219 11.6262 3.82213 11.6262 3.64674C11.6262 3.47136 11.566 3.3013 11.4555 3.16507C11.345 3.02884 11.1911 2.93472 11.0195 2.89848ZM7.98025 4.67583C7.69584 4.28022 7.34906 3.93343 6.95345 3.64903C7.34889 3.36396 7.69534 3.01648 7.97923 2.6202C8.26358 3.01568 8.61018 3.36245 9.00552 3.647C8.61008 3.93123 8.26346 4.27784 7.97923 4.67329L7.98025 4.67583Z" fill="#316FEA"/>
<path d="M19.4819 14.3995C18.9188 14.2812 18.4023 14.0016 17.9955 13.5947C17.5888 13.1879 17.3092 12.6713 17.1911 12.1082C17.1554 11.9362 17.0615 11.7818 16.9252 11.6709C16.7889 11.56 16.6186 11.4995 16.4429 11.4995C16.2672 11.4995 16.0969 11.56 15.9606 11.6709C15.8243 11.7818 15.7304 11.9362 15.6946 12.1082C15.5765 12.6714 15.2969 13.1879 14.89 13.5947C14.4831 14.0015 13.9665 14.281 13.4034 14.399C13.2318 14.4352 13.0778 14.5293 12.9674 14.6656C12.8569 14.8018 12.7966 14.9718 12.7966 15.1472C12.7966 15.3226 12.8569 15.4927 12.9674 15.6289C13.0778 15.7651 13.2318 15.8593 13.4034 15.8955C13.9666 16.0136 14.4832 16.2931 14.8901 16.7C15.297 17.1069 15.5765 17.6235 15.6946 18.1867C15.7309 18.3583 15.825 18.5123 15.9612 18.6227C16.0974 18.7332 16.2675 18.7935 16.4429 18.7935C16.6183 18.7935 16.7883 18.7332 16.9246 18.6227C17.0608 18.5123 17.1549 18.3583 17.1911 18.1867C17.3092 17.6236 17.5888 17.1071 17.9955 16.7002C18.4023 16.2933 18.9188 16.0137 19.4819 15.8955C19.6557 15.862 19.8125 15.7691 19.9253 15.6326C20.038 15.4961 20.0997 15.3245 20.0997 15.1475C20.0997 14.9704 20.038 14.7989 19.9253 14.6624C19.8125 14.5259 19.6557 14.4329 19.4819 14.3995ZM16.4426 16.1743C16.1584 15.7787 15.8118 15.4319 15.4163 15.1475C15.8118 14.8631 16.1584 14.5163 16.4426 14.1207C16.7269 14.5163 17.0735 14.863 17.4689 15.1475C17.0735 15.4319 16.7269 15.7787 16.4426 16.1743Z" fill="#316FEA"/>
</g>
<defs>
<clipPath id="clip0_801_216">
<rect width="26" height="21.45" fill="white"/>
</clipPath>
</defs>
</svg>
