<svg width="26" height="28" viewBox="0 0 26 28" fill="none" xmlns="http://www.w3.org/2000/svg">
<path d="M12.4562 0.0121682C12.9335 -0.0338666 13.4276 0.0490484 13.8461 0.289423C17.3411 2.25985 20.8355 4.23185 24.3292 6.20542C24.9701 6.56115 25.4048 7.26161 25.4294 7.99529C25.4294 11.9804 25.4294 15.9655 25.4294 19.9505C25.4231 20.6883 24.9944 21.3972 24.3617 21.7699C21.195 23.5557 18.0279 25.3413 14.8602 27.1267C14.4958 27.3302 14.1341 27.5381 13.769 27.7398C13.1621 28.0686 12.4049 28.0819 11.7774 27.8018C11.6205 27.7322 11.4761 27.6367 11.3268 27.5525C10.2272 26.9166 9.12746 26.2811 8.02768 25.6462C7.9343 25.5848 7.8404 25.5176 7.77658 25.4247C7.77085 25.4116 7.77037 25.3968 7.77524 25.3834C7.78011 25.3699 7.78995 25.3589 7.80274 25.3525C7.93692 25.2298 8.12263 25.1992 8.28741 25.1378C8.69257 25.0104 9.07053 24.8132 9.44247 24.612C9.51649 24.5744 9.58606 24.5197 9.67029 24.5092C9.79584 24.4959 9.89942 24.5806 10.0035 24.6371C10.8559 25.1278 11.7024 25.6295 12.559 26.1129C12.729 26.212 12.9134 26.0938 13.0617 26.0082C16.4993 24.065 19.9388 22.1251 23.38 20.1885C23.4907 20.1257 23.548 19.996 23.5456 19.872C23.5456 15.9486 23.5456 12.0246 23.5456 8.10017C23.5444 8.0349 23.5262 7.97107 23.4929 7.91494C23.4596 7.85881 23.4122 7.81231 23.3554 7.78002C19.868 5.81727 16.3812 3.85372 12.8951 1.8894C12.841 1.85555 12.7785 1.83747 12.7147 1.83719C12.6509 1.83692 12.5883 1.85445 12.5339 1.88783C9.04812 3.85355 5.56203 5.81788 2.07558 7.78081C1.97253 7.84175 1.88203 7.94847 1.887 8.07454C1.887 12.0154 1.887 15.9568 1.887 19.8987C1.87758 20.0193 1.95317 20.131 2.05466 20.1898C2.9703 20.7061 3.88577 21.2225 4.80106 21.739C5.10944 21.9114 5.44737 22.0422 5.7997 22.0827C6.0351 22.0908 6.27992 22.1068 6.50591 22.027C7.04238 21.8777 7.44597 21.3441 7.43629 20.7864C7.4389 16.8979 7.43978 13.0093 7.43891 9.12079C7.42321 8.95365 7.56289 8.78677 7.73395 8.79253C8.18749 8.79253 8.64104 8.79044 9.09407 8.79253C9.26722 8.78233 9.39879 8.95757 9.39251 9.12027C9.39076 12.9133 9.39024 16.7059 9.39094 20.4982C9.398 20.919 9.38362 21.3438 9.28919 21.7558C9.19555 22.146 9.04228 22.525 8.80975 22.8543C8.58049 23.186 8.26912 23.4525 7.90605 23.6278C7.51458 23.8153 7.09243 23.9305 6.65997 23.9678C6.259 24.0201 5.85253 23.9806 5.45679 23.9155C4.99032 23.8301 4.53881 23.677 4.11655 23.4612C3.10666 22.9527 2.14254 22.3603 1.14913 21.8209C0.565066 21.5086 0.129043 20.9209 0.0231107 20.2649C-0.00618419 20.0998 0.00297081 19.9319 0.00140145 19.7656C0.00140145 15.877 0.00140145 11.9885 0.00140145 8.09991C-0.0286781 7.32726 0.42827 6.57318 1.09996 6.2015C4.58483 4.23578 8.06953 2.26979 11.5541 0.303548C11.8312 0.144587 12.1384 0.0453359 12.4562 0.0121682Z" fill="#316FEA"/>
<path d="M14.9454 8.4977C15.2352 8.46892 15.5271 8.4807 15.818 8.47729C16.9079 8.48488 18.0264 8.64365 19.0054 9.14846C19.3934 9.34205 19.7342 9.61839 20.0038 9.95799C20.4876 10.563 20.7463 11.3325 20.7751 12.1028C20.7892 12.2642 20.6252 12.3905 20.4733 12.3845C20.0111 12.3845 19.5489 12.3869 19.087 12.3845C18.9264 12.3916 18.8254 12.2336 18.7933 12.0942C18.702 11.6571 18.5055 11.231 18.1794 10.919C17.9719 10.7212 17.7086 10.5993 17.4386 10.5088C16.8253 10.3059 16.1711 10.2852 15.5311 10.2878C15.1567 10.285 14.7827 10.3092 14.4118 10.36C13.9905 10.4246 13.5625 10.5483 13.2228 10.8162C12.9612 11.0322 12.8317 11.3783 12.8378 11.7123C12.8406 11.9082 12.867 12.1222 13.007 12.2718C13.2047 12.4865 13.4985 12.5639 13.7679 12.6468C15.3896 13.0653 17.0897 13.0779 18.7072 13.5155C19.1207 13.6327 19.5374 13.7585 19.913 13.9722C20.2755 14.177 20.6067 14.4532 20.8285 14.8092C21.0443 15.1385 21.1272 15.5342 21.1795 15.9216C21.2501 16.5661 21.1533 17.2375 20.8494 17.815C20.6459 18.2092 20.3391 18.5438 19.9862 18.8108C19.584 19.1126 19.1189 19.3261 18.6405 19.4804C17.973 19.6938 17.2733 19.7875 16.5755 19.8288C15.6493 19.8526 14.715 19.8387 13.8029 19.6541C12.9814 19.4958 12.1629 19.1987 11.5161 18.6539C11.1968 18.39 10.9367 18.0617 10.7528 17.6905C10.5174 17.2247 10.4058 16.7037 10.3893 16.1842C10.3893 16.0929 10.3812 15.9959 10.4243 15.9122C10.4539 15.8618 10.4967 15.8205 10.5482 15.7928C10.5996 15.7652 10.6576 15.7522 10.716 15.7552C11.17 15.7552 11.6241 15.7524 12.0779 15.7568C12.2241 15.7581 12.3431 15.8876 12.3656 16.026C12.397 16.2064 12.4247 16.3885 12.4857 16.5622C12.6037 16.9231 12.8069 17.2765 13.1333 17.4857C13.4668 17.6922 13.8361 17.8343 14.2219 17.9045C14.8583 18.0366 15.5117 18.0248 16.1575 18.0314C16.576 18.0214 16.9945 18.0052 17.4091 17.9409C17.8537 17.871 18.2984 17.7316 18.6567 17.4525C18.9183 17.2498 19.0661 16.9273 19.0998 16.603C19.109 16.3644 19.126 16.1023 18.9839 15.8952C18.8024 15.6266 18.487 15.5005 18.1909 15.3982C16.5668 14.8921 14.8303 15.0033 13.1919 14.5638C12.7616 14.4435 12.3316 14.3004 11.9511 14.0619C11.5354 13.8082 11.1727 13.447 10.9791 12.995C10.8217 12.6127 10.7444 12.2023 10.7518 11.7889C10.7416 11.2779 10.8648 10.773 11.1094 10.3242C11.3594 9.86906 11.7533 9.50628 12.192 9.23556C12.8963 8.80582 13.7166 8.61043 14.5298 8.52307C14.6679 8.50214 14.8073 8.50894 14.9454 8.4977Z" fill="#316FEA"/>
</svg>
