<svg width="28" height="32" viewBox="0 0 28 32" fill="none" xmlns="http://www.w3.org/2000/svg">
<g clip-path="url(#clip0_639_231)">
<path d="M16.7476 9.36501L17.6947 8.41689C17.8023 8.30956 17.8863 8.18093 17.9414 8.03923C17.9965 7.89754 18.0214 7.74589 18.0146 7.594C18.0078 7.4421 17.9693 7.2933 17.9018 7.15712C17.8342 7.02094 17.739 6.90037 17.6223 6.80314C16.235 5.65106 14.4891 5.02051 12.6866 5.02051C10.8841 5.02051 9.13826 5.65106 7.75096 6.80314C7.63436 6.90048 7.53931 7.02109 7.47186 7.15726C7.40442 7.29343 7.36607 7.44218 7.35926 7.59402C7.35244 7.74586 7.37731 7.89745 7.43229 8.03913C7.48726 8.18081 7.57113 8.30946 7.67854 8.41689L8.62565 9.36501C8.72766 9.4673 8.84882 9.54845 8.9822 9.60379C9.11558 9.65913 9.25856 9.68758 9.40294 9.68751C9.64654 9.68788 9.88309 9.60572 10.0741 9.45439C10.8164 8.86229 11.7375 8.53987 12.6866 8.53987C13.6358 8.53987 14.5568 8.86229 15.2991 9.45439C15.5096 9.61973 15.7734 9.70192 16.0405 9.68532C16.3075 9.66873 16.5591 9.55452 16.7476 9.36439V9.36501ZM9.49222 8.72001C9.46181 8.74224 9.42439 8.75271 9.38687 8.74949C9.34936 8.74628 9.31426 8.72959 9.28807 8.70251L8.34096 7.75376C8.32532 7.73835 8.31312 7.7198 8.30516 7.69934C8.29719 7.67887 8.29365 7.65695 8.29476 7.63501C8.29558 7.6138 8.30084 7.59299 8.3102 7.57393C8.31955 7.55488 8.3328 7.538 8.34907 7.52439C9.56851 6.51116 11.1034 5.95657 12.6882 5.95657C14.2729 5.95657 15.8078 6.51116 17.0273 7.52439C17.0436 7.538 17.0568 7.55488 17.0662 7.57393C17.0755 7.59299 17.0808 7.6138 17.0816 7.63501C17.0828 7.65696 17.0793 7.6789 17.0713 7.69938C17.0633 7.71986 17.0511 7.7384 17.0354 7.75376L16.0883 8.70251C16.0621 8.72959 16.027 8.74628 15.9895 8.74949C15.952 8.75271 15.9145 8.74224 15.8841 8.72001C14.9743 8.00104 13.8489 7.60999 12.6897 7.60999C11.5306 7.60999 10.4052 8.00104 9.49534 8.72001H9.49222Z" fill="#316FEA"/>
<path d="M5.06466 5.80006C5.26267 5.99586 5.52762 6.109 5.80584 6.11654C6.08406 6.12408 6.35475 6.02547 6.56305 5.84069C8.25172 4.34471 10.4287 3.51887 12.6837 3.51887C14.9386 3.51887 17.1157 4.34471 18.8043 5.84069C19.0056 6.0197 19.2655 6.11845 19.5348 6.11819C19.6779 6.11869 19.8197 6.09084 19.9521 6.03624C20.0844 5.98164 20.2046 5.90137 20.3058 5.80006L21.2529 4.85506C21.3579 4.75041 21.4404 4.6253 21.4951 4.48748C21.5499 4.34967 21.5758 4.20207 21.5714 4.05381C21.567 3.90455 21.5326 3.75771 21.47 3.62214C21.4074 3.48658 21.3181 3.36511 21.2074 3.26506C20.7389 2.84336 20.24 2.45689 19.7146 2.10881C19.611 2.04543 19.487 2.02478 19.3685 2.0512C19.25 2.07763 19.1465 2.14906 19.0796 2.25045C19.0127 2.35184 18.9878 2.47526 19.01 2.5947C19.0323 2.71414 19.1 2.82026 19.1989 2.89069C19.6857 3.21351 20.1481 3.57176 20.5824 3.96256C20.5988 3.97714 20.612 3.99493 20.6212 4.01481C20.6304 4.0347 20.6355 4.05627 20.6361 4.07819C20.6369 4.09923 20.6333 4.12021 20.6256 4.13979C20.6178 4.15937 20.6061 4.17713 20.5912 4.19194L19.6472 5.13694C19.6178 5.16513 19.5786 5.18087 19.5379 5.18087C19.4972 5.18087 19.458 5.16513 19.4286 5.13694C17.5686 3.48831 15.1702 2.57814 12.6859 2.57814C10.2015 2.57814 7.80312 3.48831 5.94309 5.13694C5.91376 5.16527 5.87459 5.18111 5.83383 5.18111C5.79307 5.18111 5.7539 5.16527 5.72458 5.13694L4.78246 4.19194C4.7674 4.1772 4.75562 4.15946 4.74787 4.13986C4.74013 4.12026 4.7366 4.09924 4.73751 4.07819C4.73795 4.05624 4.74295 4.03462 4.7522 4.01472C4.76144 3.99481 4.77472 3.97705 4.7912 3.96256C6.47651 2.4516 8.55879 1.45535 10.7918 1.09162C13.0248 0.727897 15.3152 1.0119 17.3921 1.91006C17.506 1.95979 17.635 1.96218 17.7507 1.9167C17.8663 1.87122 17.9592 1.7816 18.0089 1.66756C18.0586 1.55352 18.061 1.42439 18.0155 1.30859C17.9701 1.19278 17.8806 1.09979 17.7667 1.05006C15.525 0.0801198 13.0526 -0.226735 10.6422 0.165802C8.23172 0.558338 5.98402 1.63384 4.165 3.26506C4.05437 3.36521 3.96511 3.48669 3.90256 3.62224C3.84001 3.75778 3.80547 3.90457 3.80101 4.05381C3.79662 4.20207 3.82274 4.34965 3.87773 4.48738C3.93272 4.62511 4.01541 4.75005 4.12067 4.85444L5.06466 5.80006Z" fill="#316FEA"/>
<path d="M25.8166 15.3369H22.2186C22.0944 15.3369 21.9753 15.3863 21.8875 15.4742C21.7997 15.5621 21.7503 15.6813 21.7503 15.8057C21.7503 15.93 21.7997 16.0492 21.8875 16.1371C21.9753 16.225 22.0944 16.2744 22.2186 16.2744H25.8166C26.0235 16.2746 26.2219 16.3569 26.3682 16.5034C26.5146 16.6499 26.5968 16.8485 26.597 17.0557V30.2813C26.5968 30.4884 26.5146 30.6871 26.3682 30.8335C26.2219 30.98 26.0235 31.0624 25.8166 31.0625H1.7174C1.51047 31.0624 1.31207 30.98 1.16575 30.8335C1.01943 30.6871 0.937151 30.4884 0.936985 30.2813V17.0557C0.937151 16.8485 1.01943 16.6499 1.16575 16.5034C1.31207 16.3569 1.51047 16.2746 1.7174 16.2744H5.33852C5.46271 16.2744 5.58181 16.225 5.66962 16.1371C5.75744 16.0492 5.80677 15.93 5.80677 15.8057C5.80677 15.6813 5.75744 15.5621 5.66962 15.4742C5.58181 15.3863 5.46271 15.3369 5.33852 15.3369H1.7174C1.2622 15.3374 0.825783 15.5187 0.503908 15.8409C0.182032 16.1631 0.000984053 16.6 0.000488281 17.0557V30.2813C0.000984053 30.737 0.182032 31.1739 0.503908 31.4961C0.825783 31.8183 1.2622 31.9995 1.7174 32H25.8166C26.2718 31.9995 26.7082 31.8183 27.0301 31.4961C27.352 31.1739 27.533 30.737 27.5335 30.2813V17.0557C27.533 16.6 27.352 16.1631 27.0301 15.8409C26.7082 15.5187 26.2718 15.3374 25.8166 15.3369Z" fill="#316FEA"/>
<path d="M6.07347 21.8225C5.94929 21.8225 5.83019 21.8719 5.74237 21.9598C5.65456 22.0477 5.60522 22.1669 5.60522 22.2913V27.53C5.60513 27.6406 5.64413 27.7476 5.71532 27.8322C5.78651 27.9167 5.8853 27.9733 5.99418 27.9919C6.0279 27.9982 6.06099 28.0038 6.62725 28.0038C6.90508 28.0038 7.31402 28.0038 7.91025 27.9988C8.03444 27.9988 8.15354 27.9494 8.24136 27.8615C8.32917 27.7736 8.3785 27.6543 8.3785 27.53C8.3785 27.4057 8.32917 27.2865 8.24136 27.1986C8.15354 27.1107 8.03444 27.0613 7.91025 27.0613H7.90713C7.4239 27.0613 6.90321 27.0657 6.54422 27.0657V22.2913C6.54422 22.2295 6.53203 22.1683 6.50834 22.1113C6.48465 22.0543 6.44994 22.0025 6.40619 21.9589C6.36244 21.9154 6.31053 21.8809 6.25343 21.8575C6.19633 21.8341 6.13517 21.8222 6.07347 21.8225Z" fill="#316FEA"/>
<path d="M9.70898 22.2913V27.5344C9.70898 27.6587 9.75832 27.7779 9.84613 27.8658C9.93394 27.9537 10.053 28.0031 10.1772 28.0031C10.3014 28.0031 10.4205 27.9537 10.5083 27.8658C10.5961 27.7779 10.6455 27.6587 10.6455 27.5344V22.2913C10.6455 22.1669 10.5961 22.0477 10.5083 21.9598C10.4205 21.8719 10.3014 21.8225 10.1772 21.8225C10.053 21.8225 9.93394 21.8719 9.84613 21.9598C9.75832 22.0477 9.70898 22.1669 9.70898 22.2913Z" fill="#316FEA"/>
<path d="M21.4608 22.7837C21.585 22.7837 21.7041 22.7343 21.7919 22.6464C21.8797 22.5585 21.929 22.4393 21.929 22.3149C21.929 22.1906 21.8797 22.0714 21.7919 21.9835C21.7041 21.8956 21.585 21.8462 21.4608 21.8462H19.2756C19.1514 21.8462 19.0323 21.8956 18.9445 21.9835C18.8567 22.0714 18.8074 22.1906 18.8074 22.3149V27.5106C18.8074 27.6349 18.8567 27.7541 18.9445 27.842C19.0323 27.9299 19.1514 27.9793 19.2756 27.9793H21.4608C21.585 27.9793 21.7041 27.9299 21.7919 27.842C21.8797 27.7541 21.929 27.6349 21.929 27.5106C21.929 27.3863 21.8797 27.267 21.7919 27.1791C21.7041 27.0912 21.585 27.0418 21.4608 27.0418H19.742V25.3818H21.2997C21.4239 25.3818 21.543 25.3324 21.6308 25.2445C21.7186 25.1566 21.768 25.0374 21.768 24.9131C21.768 24.7887 21.7186 24.6695 21.6308 24.5816C21.543 24.4937 21.4239 24.4443 21.2997 24.4443H19.742V22.7837H21.4608Z" fill="#316FEA"/>
<path d="M16.1434 22.1529L14.7586 26.3261L13.3058 22.1386C13.2859 22.0801 13.2546 22.0263 13.2137 21.98C13.1729 21.9337 13.1234 21.896 13.0679 21.8689C13.0125 21.8419 12.9523 21.826 12.8907 21.8224C12.8291 21.8187 12.7675 21.8272 12.7092 21.8475C12.6509 21.8677 12.5972 21.8993 12.5512 21.9404C12.5052 21.9814 12.4677 22.0312 12.4409 22.0868C12.4142 22.1425 12.3986 22.2028 12.3952 22.2645C12.3918 22.3261 12.4006 22.3878 12.4211 22.4461L14.213 27.6136C14.2536 27.7279 14.3286 27.8268 14.4276 27.8968C14.5267 27.9667 14.6449 28.0042 14.7661 28.0042H14.7699C14.8922 28.0032 15.0112 27.9639 15.1103 27.892C15.2093 27.8201 15.2835 27.719 15.3224 27.6029L17.0325 22.4498C17.0716 22.3318 17.0623 22.203 17.0067 22.0919C16.951 21.9807 16.8535 21.8962 16.7356 21.857C16.6177 21.8178 16.4891 21.8271 16.378 21.8828C16.267 21.9385 16.1826 22.0362 16.1434 22.1542V22.1529Z" fill="#316FEA"/>
<path d="M18.3908 18.8706V17.9375L19.2892 18.6444C19.4044 18.7349 19.5426 18.7912 19.6882 18.8068C19.8337 18.8224 19.9808 18.7966 20.1124 18.7326C20.2441 18.6685 20.3551 18.5686 20.4328 18.4444C20.5104 18.3202 20.5516 18.1766 20.5516 18.03V13.5844C20.5516 13.4378 20.5104 13.2942 20.4328 13.17C20.3551 13.0458 20.2441 12.9459 20.1124 12.8818C19.9808 12.8178 19.8337 12.7921 19.6882 12.8076C19.5426 12.8232 19.4044 12.8795 19.2892 12.97L18.3908 13.6769V12.7394C18.3905 12.4494 18.2753 12.1713 18.0705 11.9661C17.8657 11.761 17.588 11.6455 17.2982 11.645H16.2544C16.1343 11.6512 16.0213 11.7033 15.9386 11.7905C15.8558 11.8778 15.8097 11.9935 15.8097 12.1138C15.8097 12.2341 15.8558 12.3498 15.9386 12.437C16.0213 12.5242 16.1343 12.5763 16.2544 12.5825H17.2982C17.3396 12.5825 17.3793 12.599 17.4086 12.6283C17.4379 12.6576 17.4543 12.6973 17.4543 12.7388V18.8688C17.4543 18.9103 17.4379 18.9501 17.4086 18.9795C17.3794 19.0089 17.3397 19.0255 17.2982 19.0256H8.075C8.03355 19.0255 7.99385 19.0089 7.9646 18.9795C7.93534 18.9501 7.91892 18.9103 7.91892 18.8688V12.7406C7.91892 12.6992 7.93536 12.6595 7.96463 12.6302C7.9939 12.6009 8.0336 12.5844 8.075 12.5844H9.15509C9.2751 12.5782 9.38814 12.5261 9.47089 12.4389C9.55364 12.3516 9.59978 12.2359 9.59978 12.1156C9.59978 11.9954 9.55364 11.8796 9.47089 11.7924C9.38814 11.7052 9.2751 11.6531 9.15509 11.6469H8.075C7.78527 11.6474 7.50757 11.7629 7.30276 11.968C7.09795 12.1732 6.98275 12.4512 6.98242 12.7413V18.8713C6.98275 19.1613 7.09795 19.4394 7.30276 19.6445C7.50757 19.8497 7.78527 19.9651 8.075 19.9656H17.2982C17.5881 19.9651 17.8659 19.8496 18.0707 19.6443C18.2755 19.439 18.3906 19.1608 18.3908 18.8706ZM19.6151 13.9056V17.7056L18.3908 16.7419V14.8669L19.6151 13.9056Z" fill="#316FEA"/>
<path d="M10.5549 12.1156C10.5549 12.5377 10.68 12.9504 10.9143 13.3014C11.1485 13.6524 11.4815 13.9259 11.8711 14.0875C12.2607 14.249 12.6894 14.2913 13.103 14.2089C13.5166 14.1266 13.8965 13.9233 14.1946 13.6248C14.4928 13.3263 14.6959 12.946 14.7782 12.532C14.8604 12.1179 14.8182 11.6888 14.6568 11.2988C14.4955 10.9088 14.2222 10.5754 13.8716 10.3409C13.5209 10.1064 13.1087 9.9812 12.687 9.9812C12.1218 9.98186 11.5798 10.2069 11.1801 10.6071C10.7804 11.0072 10.5556 11.5497 10.5549 12.1156ZM13.882 12.1156C13.882 12.3523 13.8119 12.5837 13.6805 12.7806C13.5491 12.9774 13.3623 13.1308 13.1438 13.2214C12.9253 13.312 12.6849 13.3356 12.4529 13.2894C12.221 13.2432 12.0079 13.1291 11.8408 12.9617C11.6736 12.7942 11.5598 12.5809 11.5137 12.3487C11.4676 12.1165 11.4914 11.8758 11.582 11.6571C11.6726 11.4384 11.8259 11.2515 12.0226 11.1201C12.2193 10.9887 12.4505 10.9186 12.687 10.9187C13.0039 10.9192 13.3077 11.0455 13.5317 11.2698C13.7557 11.4942 13.8817 11.7984 13.882 12.1156Z" fill="#316FEA"/>
</g>
<defs>
<clipPath id="clip0_639_231">
<rect width="27.5349" height="32" fill="white"/>
</clipPath>
</defs>
</svg>
