<svg width="26" height="24" viewBox="0 0 26 24" fill="none" xmlns="http://www.w3.org/2000/svg">
<g clip-path="url(#clip0_801_199)">
<path d="M24.4465 18.0109L25.4479 17.2926C25.65 17.1469 25.7914 16.9319 25.8449 16.6886C25.8984 16.4453 25.8603 16.1908 25.738 15.9738L25.2231 15.0625C25.1039 14.853 24.9139 14.6928 24.6872 14.6109C24.4605 14.5289 24.2119 14.5306 23.9863 14.6155L22.8321 15.0534C22.7308 14.9759 22.622 14.9051 22.5121 14.8377L22.5055 14.8337C22.46 14.8058 22.4129 14.7795 22.3658 14.7532L22.3238 14.7299C22.2823 14.7076 22.2403 14.6864 22.1977 14.6656L22.1345 14.6347L22.0767 14.6064L21.8616 13.4126C21.8192 13.1797 21.6965 12.9689 21.5149 12.8171C21.3332 12.6652 21.1041 12.5818 20.8673 12.5814H19.9054C19.6618 12.5817 19.4265 12.67 19.2427 12.8298C19.0588 12.9896 18.9388 13.2104 18.9046 13.4516L18.7431 14.6074C18.4455 14.7417 18.1653 14.9117 17.9087 15.1136L16.7363 14.7476C16.5054 14.676 16.2566 14.6892 16.0346 14.785C15.8127 14.8809 15.6324 15.0529 15.5263 15.2701L15.095 16.156C14.9897 16.3733 14.9654 16.6211 15.0267 16.8546C15.088 17.0882 15.2307 17.2922 15.4291 17.4298L16.3738 18.0828C16.3707 18.1512 16.3687 18.22 16.3687 18.2894C16.3687 18.3587 16.3687 18.4129 16.3733 18.4747C16.3733 18.4959 16.3733 18.5172 16.3768 18.5385C16.3804 18.5597 16.3794 18.582 16.3809 18.6038L15.423 19.3707C15.2356 19.5212 15.1079 19.7335 15.0626 19.9695C15.0174 20.2056 15.0575 20.45 15.176 20.6592L15.6387 21.4671C15.7568 21.675 15.9447 21.8342 16.1692 21.9164C16.3936 21.9986 16.64 21.9986 16.8643 21.9162L17.972 21.5112C18.2131 21.6939 18.4739 21.8489 18.7496 21.9734L18.9648 23.1671C19.0072 23.4001 19.1299 23.6108 19.3115 23.7627C19.4932 23.9146 19.7223 23.998 19.9591 23.9984H20.8703C21.1107 23.9985 21.3431 23.9128 21.526 23.7568C21.7088 23.6008 21.8299 23.3847 21.8677 23.1474L22.0545 21.983C22.0788 21.9724 22.1051 21.9607 22.1274 21.9491L22.178 21.9248C22.221 21.904 22.2635 21.8818 22.3061 21.8595C22.3486 21.8372 22.3795 21.819 22.4159 21.7977C22.4189 21.7967 22.4216 21.7952 22.424 21.7932C22.621 21.6805 22.8083 21.5516 22.9839 21.4079L24.1655 21.7466C24.3922 21.8113 24.6344 21.7949 24.8503 21.7002C25.0662 21.6054 25.2423 21.4383 25.3482 21.2277L25.7532 20.4177C25.8619 20.2019 25.8899 19.9543 25.832 19.7197C25.7742 19.4851 25.6343 19.2789 25.4378 19.1384L24.4521 18.4387C24.4521 18.3881 24.4551 18.34 24.4551 18.2904C24.4551 18.2296 24.4551 18.1689 24.4506 18.1081L24.4475 18.0575C24.4475 18.0408 24.4475 18.0246 24.4465 18.0109ZM21.8828 19.6446C21.7344 19.8293 21.5489 19.9808 21.3381 20.0891L21.3184 20.0992C21.2804 20.1185 21.2409 20.1367 21.2014 20.1539L21.171 20.1661C21.1397 20.1787 21.1078 20.1909 21.0754 20.202L21.0354 20.2157C20.9944 20.2288 20.9529 20.241 20.9108 20.2516C20.5698 20.3386 20.2119 20.3344 19.873 20.2395C19.8442 20.2319 19.8153 20.2228 19.787 20.2137C19.7708 20.2086 19.7539 20.203 19.7363 20.1969C19.7115 20.1883 19.6857 20.1787 19.6619 20.1691L19.592 20.1357L19.5272 20.1058L19.471 20.077L19.4204 20.0481C19.3936 20.0329 19.3673 20.0172 19.3409 20.0005L19.2802 19.961L19.2296 19.9251L19.1789 19.8866L19.1334 19.8512C19.106 19.8284 19.0787 19.8046 19.0524 19.7803C19.0392 19.7687 19.0271 19.7565 19.0144 19.7444C19.0017 19.7322 18.978 19.7084 18.9602 19.6897C18.7094 19.4307 18.5325 19.1092 18.4479 18.7587C18.4418 18.7308 18.4353 18.703 18.4302 18.6751C18.4277 18.6635 18.4256 18.6519 18.4236 18.6407C18.4189 18.6134 18.4148 18.586 18.4115 18.5587C18.4094 18.5469 18.4079 18.5352 18.4069 18.5238C18.4034 18.4949 18.4008 18.4666 18.3988 18.4382C18.3988 18.4281 18.3988 18.4175 18.3963 18.4068C18.3963 18.3678 18.3927 18.3294 18.3927 18.2909C18.3927 18.2524 18.3927 18.216 18.3963 18.179C18.396 18.1743 18.396 18.1696 18.3963 18.1648C18.3963 18.1314 18.4013 18.0975 18.4049 18.0636C18.4051 18.0606 18.4051 18.0575 18.4049 18.0545C18.4094 18.019 18.4145 17.9841 18.4201 17.9492V17.9426C18.4261 17.9077 18.4327 17.8727 18.4408 17.8378C18.5241 17.4746 18.7066 17.1416 18.9678 16.8759L18.9866 16.8562L19.0493 16.7964L19.0625 16.7848C19.105 16.7468 19.1486 16.7104 19.1946 16.6759L19.2053 16.6678C19.2802 16.6138 19.3587 16.5647 19.4402 16.521L19.4594 16.5104C19.4842 16.4972 19.51 16.4841 19.5353 16.4714L19.5622 16.4593C19.6027 16.44 19.6442 16.4228 19.6862 16.4061L19.7368 16.3864L19.7976 16.3661C19.8254 16.357 19.8538 16.3484 19.8821 16.3408C20.2336 16.2446 20.6045 16.2457 20.9554 16.3438C20.9832 16.3519 21.0111 16.36 21.0389 16.3692C21.0551 16.3742 21.0718 16.3798 21.0895 16.3859C21.1138 16.3945 21.1376 16.4036 21.1614 16.4132C21.1852 16.4228 21.2075 16.4319 21.2303 16.4421L21.3022 16.475L21.3528 16.5023L21.4095 16.5337L21.4601 16.5615C21.49 16.5803 21.5199 16.5995 21.5497 16.6198L21.5928 16.6501L21.652 16.6947L21.6905 16.7245C21.7198 16.7488 21.7487 16.7752 21.777 16.7995L21.8039 16.8253C21.8256 16.846 21.8474 16.8673 21.8687 16.8896C22.1193 17.1491 22.2955 17.4712 22.379 17.8221C22.3861 17.8498 22.3921 17.8776 22.3972 17.9056C22.3972 17.9178 22.4018 17.9299 22.4038 17.9421C22.4083 17.9684 22.4129 17.9927 22.4164 18.0221L22.421 18.059C22.424 18.0869 22.4266 18.1147 22.4286 18.1431C22.4286 18.1537 22.4286 18.1648 22.4311 18.1755C22.4336 18.2139 22.4347 18.2529 22.4347 18.2919C22.4347 18.3617 22.4311 18.4315 22.424 18.501V18.5106C22.421 18.5415 22.4169 18.5724 22.4124 18.6033C22.4124 18.6159 22.4078 18.6281 22.4053 18.6407C22.4018 18.6615 22.3982 18.6822 22.3942 18.7025C22.336 18.9823 22.2188 19.2466 22.0504 19.4776C21.9881 19.5264 21.9318 19.5824 21.8828 19.6446ZM17.5832 10.7624C17.5854 10.4154 17.4954 10.074 17.3224 9.77316C17.1494 9.47233 16.8996 9.22285 16.5986 9.05024L12.2605 6.53263C11.9601 6.35877 11.6193 6.26712 11.2723 6.26694C10.9252 6.26677 10.5843 6.35805 10.2838 6.53161C9.98328 6.70517 9.73383 6.95487 9.56056 7.25555C9.38729 7.55622 9.29634 7.89725 9.29685 8.24428V13.279C9.29478 13.6266 9.38476 13.9686 9.55765 14.2702C9.73054 14.5718 9.98019 14.8222 10.2812 14.9961C10.5823 15.1699 10.9239 15.261 11.2716 15.2601C11.6192 15.2591 11.9604 15.1661 12.2605 14.9906L16.5986 12.4735C16.8995 12.301 17.1492 12.0517 17.3222 11.751C17.4952 11.4504 17.5853 11.1092 17.5832 10.7624ZM11.3178 13.2015V8.32275L15.5197 10.7619L11.3178 13.2015ZM25.8696 4.04237V11.5709C25.8783 11.709 25.8587 11.8474 25.8119 11.9776C25.765 12.1077 25.692 12.227 25.5973 12.3278C25.5027 12.4287 25.3883 12.5091 25.2613 12.5641C25.1344 12.619 24.9975 12.6474 24.8591 12.6474C24.7208 12.6474 24.5839 12.619 24.4569 12.5641C24.3299 12.5091 24.2156 12.4287 24.1209 12.3278C24.0262 12.227 23.9532 12.1077 23.9064 11.9776C23.8595 11.8474 23.8399 11.709 23.8486 11.5709V4.04237C23.8477 3.50662 23.6345 2.99307 23.2557 2.61418C22.8769 2.2353 22.3634 2.02197 21.8277 2.0209H4.04193C3.50618 2.02197 2.99269 2.2353 2.6139 2.61418C2.23511 2.99307 2.0219 3.50662 2.02097 4.04237V17.2804C2.02204 17.8161 2.2353 18.3295 2.61408 18.7083C2.99285 19.087 3.50627 19.3003 4.04193 19.3014H12.0256C12.1636 19.2926 12.3021 19.3123 12.4322 19.3591C12.5624 19.4059 12.6816 19.4789 12.7825 19.5736C12.8834 19.6683 12.9638 19.7827 13.0188 19.9097C13.0737 20.0366 13.1021 20.1735 13.1021 20.3119C13.1021 20.4502 13.0737 20.5871 13.0188 20.7141C12.9638 20.8411 12.8834 20.9554 12.7825 21.0501C12.6816 21.1448 12.5624 21.2178 12.4322 21.2646C12.3021 21.3114 12.1636 21.3311 12.0256 21.3223H4.04193C2.97036 21.321 1.94305 20.8947 1.18533 20.137C0.427615 19.3793 0.00133964 18.352 0 17.2804L0 4.04237C0.00174136 2.97106 0.428194 1.94414 1.18587 1.18675C1.94355 0.429359 2.97062 0.00329186 4.04193 0.00195312H21.8277C22.899 0.00329186 23.926 0.429359 24.6837 1.18675C25.4414 1.94414 25.8679 2.97106 25.8696 4.04237Z" fill="#316FEA"/>
</g>
<defs>
<clipPath id="clip0_801_199">
<rect width="25.8696" height="24" fill="white"/>
</clipPath>
</defs>
</svg>
