<svg xmlns="http://www.w3.org/2000/svg" viewBox="0 0 324.93 273.67"><defs><style>.cls-1{isolation:isolate;}.cls-2{fill:#66a6ff;}.cls-3{fill:#82b6ff;}.cls-4{fill:#408fff;}.cls-5,.cls-7{fill:#95c2fe;}.cls-6{fill:#a9ccfe;}.cls-7{opacity:0.22;mix-blend-mode:overlay;}.cls-8{fill:#96c2ff;}.cls-9{fill:#81afff;}.cls-10{fill:#87e1b8;}.cls-11{fill:#42c187;}.cls-12,.cls-13{fill:#fff;}.cls-13{font-size:46.04px;font-family:MyriadPro-Regular, Myriad Pro;}.cls-14{fill:#f2f2f2;}.cls-15{fill:#e8e8e8;}</style></defs><title>money</title><g class="cls-1"><g id="money"><path class="cls-2" d="M245.59,161.45l-36.12,54.78A9.79,9.79,0,0,1,204.7,220l-5.43,2a30.71,30.71,0,0,0-15,11.88l-24.21,36.72-10.43-6.88L262.9,92.05a23.86,23.86,0,0,1,1.24,4.29C266,105.37,267.45,128.31,245.59,161.45Z" transform="translate(-17.07 -85)"/><path class="cls-3" d="M204.69,189.54l-7.63,2.36L262.9,92.05a23.86,23.86,0,0,1,1.24,4.29c-18.76,31.06-41.87,70.79-52.59,87.92A12.41,12.41,0,0,1,204.69,189.54Z" transform="translate(-17.07 -85)"/><path class="cls-2" d="M159.37,260.55a27.23,27.23,0,1,0,7.74,37.73A27.23,27.23,0,0,0,159.37,260.55Zm-24.55,37.23a17.36,17.36,0,1,1,24.06-4.94A17.37,17.37,0,0,1,134.82,297.78Z" transform="translate(-17.07 -85)"/><path class="cls-3" d="M155.09,267A19.45,19.45,0,1,0,160.62,294,19.45,19.45,0,0,0,155.09,267Zm-20.27,30.73a17.36,17.36,0,1,1,24.06-4.94A17.37,17.37,0,0,1,134.82,297.78Z" transform="translate(-17.07 -85)"/><path class="cls-4" d="M204.5,180.61l-7.44,11.28-12.74,19.33,5.1,7.75a14.73,14.73,0,0,0,5.61,5,30.89,30.89,0,0,1,4.24-2l5.43-2a9.78,9.78,0,0,0,4.77-3.78l9.26-14Z" transform="translate(-17.07 -85)"/><path class="cls-5" d="M157.45,161.45l36.12,54.78a9.79,9.79,0,0,0,4.77,3.79l5.43,2a30.71,30.71,0,0,1,15,11.88l24.21,36.72,10.43-6.88L140.13,92.05a23.87,23.87,0,0,0-1.24,4.29C137,105.37,135.59,128.31,157.45,161.45Z" transform="translate(-17.07 -85)"/><path class="cls-6" d="M198.35,189.54l7.63,2.36L140.13,92.05a23.87,23.87,0,0,0-1.24,4.29c18.76,31.06,41.87,70.79,52.59,87.92A12.41,12.41,0,0,0,198.35,189.54Z" transform="translate(-17.07 -85)"/><circle class="cls-5" cx="201.59" cy="205.76" r="6.4" transform="translate(-97.05 59.97) rotate(-33.4)"/><circle class="cls-4" cx="201.59" cy="205.76" r="6.4" transform="translate(-97.05 59.97) rotate(-33.4)"/><path class="cls-5" d="M197.51,204l8.52,1.75a1,1,0,0,1,.78,1.19h0a1,1,0,0,1-1.19.78L197.1,206a1,1,0,0,1-.78-1.19h0A1,1,0,0,1,197.51,204Z" transform="translate(-17.07 -85)"/><path class="cls-7" d="M196.32,204.79h0a1,1,0,0,1,.12-.3,1,1,0,0,0,.8,1l8.52,1.75a1,1,0,0,0,1.07-.48,1,1,0,0,1,0,.24,1,1,0,0,1-1.19.78L197.1,206A1,1,0,0,1,196.32,204.79Z" transform="translate(-17.07 -85)"/><path class="cls-8" d="M235.92,298.28a27.23,27.23,0,1,0,7.74-37.73A27.23,27.23,0,0,0,235.92,298.28Zm8.24-5.43a17.36,17.36,0,1,1,24.06,4.94A17.36,17.36,0,0,1,244.16,292.84Z" transform="translate(-17.07 -85)"/><path class="cls-9" d="M242.42,294A19.45,19.45,0,1,0,247.95,267,19.45,19.45,0,0,0,242.42,294Zm1.74-1.15a17.36,17.36,0,1,1,24.06,4.94A17.36,17.36,0,0,1,244.16,292.84Z" transform="translate(-17.07 -85)"/><rect class="cls-10" x="107.31" y="85.27" width="180.02" height="85.08" transform="translate(-17.46 -84.41) rotate(-0.17)"/><path class="cls-11" d="M263.82,88.8l-131.76.4-19.91.06.06,21.27.1,34.27.06,21.27,19.91-.06,131.76-.4,19.91-.06-.06-21.27-.1-34.27-.06-21.27Zm15.92,56c-7.65,1.76-13.66,8.22-15.26,16.41l-132.63.4c-1.65-8.18-7.7-14.6-15.36-16.32l-.11-35.21c7.65-1.76,13.66-8.22,15.26-16.41l132.63-.4c1.65,8.18,7.7,14.6,15.36,16.32Z" transform="translate(-17.07 -85)"/><path class="cls-11" d="M225.84,126.63c-.05-19.24-12.42-34.79-27.63-34.74s-27.49,15.69-27.44,34.93,12.42,34.79,27.63,34.74S225.9,145.87,225.84,126.63Z" transform="translate(-17.07 -85)"/><circle class="cls-12" cx="234.21" cy="41.73" r="7.95"/><circle class="cls-12" cx="126.79" cy="41.73" r="7.95"/><text class="cls-13" transform="translate(169.47 57.1)">$</text><path class="cls-2" d="M263.26,97.61A23.86,23.86,0,0,0,262,93.32l-57.56,87.29,28.47-.11,11.78-17.78C266.57,129.58,265.16,106.64,263.26,97.61Z" transform="translate(-17.07 -85)"/><path class="cls-3" d="M213.87,180.53c-.22.22,31.59-53.44,49.39-82.92A23.86,23.86,0,0,0,262,93.32l-57.56,87.29S213.1,181.19,213.87,180.53Z" transform="translate(-17.07 -85)"/><path class="cls-14" d="M137.77,250.47a56.31,56.31,0,0,1,35.45-3.76,33.2,33.2,0,0,1,6.72,2.07,56.83,56.83,0,0,1,29.14,24.12,58.16,58.16,0,0,1,14.12-12.21c12.31-7.54,27.71-9.16,41.61-5.8a41.47,41.47,0,0,1,19,10.67c5.33,5.23,11.59,18.88,11.59,18.88s13.6,6,18.43,11.5a37.86,37.86,0,0,1,9.39,24.93,18.89,18.89,0,0,1,13,5.24,19.12,19.12,0,0,1,5.73,11.39c-8.65,7.34-20.08,10.57-31.23,11.27-7.7.05-15.59-1.46-22.21-5.53-5.92-3.43-10.93-8.12-16-12.65-1.51-1.22-2.81-2.67-4.24-4-5.55,6-11.9,11.59-19.58,14.71-3.24,1.29-6.43,2.68-9.63,4.06a50.23,50.23,0,0,1-18.82,3.29c-2.09-.16-4.19-.2-6.27-.36a68.29,68.29,0,0,1-33.63-14.07c-2.77-2.48-5.59-4.91-8.15-7.61-2.19,1.74-3.89,4-6.08,5.76a48.21,48.21,0,0,1-17.13,10.29c-2.88,1.18-5.67,2.56-8.62,3.55-8.22,2.73-17,3-25.6,2.23a63.79,63.79,0,0,1-25.74-7.61c-.92-.37-1.93-1.32-2.94-.69a70,70,0,0,1-32.85,8.64c-1.31,0-2.61-.18-3.92-.27-11.32-.58-22.27-4.68-31.79-10.73a25.58,25.58,0,0,1,1.71-14.35,25,25,0,0,1,35.61-11.72,44.14,44.14,0,0,1,12.84-28.36,43.69,43.69,0,0,1,45.15-10.43A56.87,56.87,0,0,1,137.77,250.47Z" transform="translate(-17.07 -85)"/><path class="cls-15" d="M166,332.4c2.19-1.76,3.88-4,6.08-5.76,2.57,2.69,5.38,5.13,8.15,7.61a68.29,68.29,0,0,0,33.63,14.07c2.09.16,4.19.2,6.27.36A50.23,50.23,0,0,0,239,345.38c3.2-1.38,6.4-2.77,9.63-4.06,7.67-3.12,14-8.68,19.58-14.71,1.43,1.31,2.73,2.76,4.24,4,5.07,4.53,10.08,9.22,16,12.65,6.62,4.06,14.52,5.58,22.21,5.53,11.15-.69,22.58-3.93,31.23-11.27a23.27,23.27,0,0,1-.59,7.79,13.7,13.7,0,0,1-5.37,10.47c-2.91,2.35-6.75,3-10.4,2.88q-143.05,0-286.11,0a21,21,0,0,1-14.85-5.15,20,20,0,0,1-6.17-10.15c-.47-1.82-.52-3.71-.95-5.54,9.52,6,20.47,10.14,31.79,10.73,1.31.09,2.61.23,3.92.27A70,70,0,0,0,86,340.17c1-.63,2,.33,2.94.69a63.79,63.79,0,0,0,25.74,7.61c8.56.77,17.38.51,25.6-2.23,3-1,5.75-2.38,8.62-3.55A48.21,48.21,0,0,0,166,332.4Z" transform="translate(-17.07 -85)"/></g></g></svg>