<svg id="Layer_1" data-name="Layer 1" xmlns="http://www.w3.org/2000/svg" viewBox="0 0 51.18 33.42"><defs><style>.cls-1{fill:#8d98a7;}</style></defs><title>payment_black_gs</title><path class="cls-1" d="M8,4.8q21.84,0,43.67,0a3.94,3.94,0,0,1,3.85,3.78q0,12.93,0,25.86a4,4,0,0,1-3.75,3.78H8.21a3.94,3.94,0,0,1-3.85-3.79q0-12.85,0-25.72A3.93,3.93,0,0,1,8,4.8ZM6,8.18A15.12,15.12,0,0,0,6,10.31h48c0-.68,0-1.36,0-2a2.35,2.35,0,0,0-2.36-1.89H8.35A2.34,2.34,0,0,0,6,8.18ZM6,11.9c0,1.31,0,2.61,0,3.92h48c0-1.31,0-2.61,0-3.91Zm0,5.52c0,5.36,0,10.71,0,16.07a3.86,3.86,0,0,0,.2,1.75,2.34,2.34,0,0,0,2.18,1.37H51.67a2.33,2.33,0,0,0,2.26-2.32V17.42Q29.94,17.41,6,17.42Z" transform="translate(-4.35 -4.79)"/><path class="cls-1" d="M51.78,27.89a4.8,4.8,0,0,1-5.85,4.69A7.33,7.33,0,0,1,44.36,32a4.8,4.8,0,1,1,0-8.11,4.89,4.89,0,0,1,5.74.4A4.81,4.81,0,0,1,51.78,27.89ZM45.64,25a4.89,4.89,0,0,1,0,5.84,3.43,3.43,0,0,0,2.19.16,3.19,3.19,0,0,0,1.06-5.64A3.22,3.22,0,0,0,45.64,25Zm-6,.58a3.2,3.2,0,0,0,1.94,5.52,3.2,3.2,0,0,0,3-4.83,3.18,3.18,0,0,0-4.91-.69Z" transform="translate(-4.35 -4.79)"/><path class="cls-1" d="M33.62,27.16A1.43,1.43,0,0,0,33,27.1c-1.73,0-3.46,0-5.19,0a.8.8,0,0,0-.74.91.83.83,0,0,0,.87.69c1.83,0,3.66,0,5.49,0A.8.8,0,0,0,33.62,27.16Z" transform="translate(-4.35 -4.79)"/><path class="cls-1" d="M24.16,27.16a1.79,1.79,0,0,0-.61-.07H18.34a.79.79,0,0,0-.74.91.82.82,0,0,0,.88.69h5.35a.79.79,0,0,0,.75-.53A.81.81,0,0,0,24.16,27.16Z" transform="translate(-4.35 -4.79)"/><path class="cls-1" d="M14.6,27.13c-1.85-.08-3.71,0-5.57,0a.81.81,0,1,0,0,1.6c1.78,0,3.57,0,5.35,0a.8.8,0,0,0,.79-.79A.83.83,0,0,0,14.6,27.13Z" transform="translate(-4.35 -4.79)"/></svg>