<svg id="Layer_1" data-name="Layer 1" xmlns="http://www.w3.org/2000/svg" viewBox="0 0 72.72 19.38"><defs><style>.cls-1{fill:#009cde;}.cls-2{fill:#003087;}</style></defs><title>paypal</title><path class="cls-1" d="M57.5,12.54c-.31,2-1.86,2-3.36,2h-.86l.6-3.79a.48.48,0,0,1,.47-.4h.39c1,0,2,0,2.48.58a1.89,1.89,0,0,1,.28,1.58m-.66-5.3H51.19a.79.79,0,0,0-.78.66L48.12,22.41a.48.48,0,0,0,.47.54h2.9a.55.55,0,0,0,.54-.46l.65-4.12a.79.79,0,0,1,.78-.66h1.79c3.73,0,5.88-1.8,6.44-5.38A4.37,4.37,0,0,0,61,8.68a5.28,5.28,0,0,0-4.13-1.44" transform="translate(-7.77 -7.24)"/><path class="cls-2" d="M17.15,12.54c-.31,2-1.86,2-3.36,2h-.85l.6-3.79a.46.46,0,0,1,.46-.4h.4c1,0,2,0,2.48.58a1.86,1.86,0,0,1,.27,1.58m-.65-5.3H10.84a.78.78,0,0,0-.77.66L7.78,22.41a.48.48,0,0,0,.47.54H11a.78.78,0,0,0,.77-.66l.62-3.92a.79.79,0,0,1,.78-.66h1.79c3.72,0,5.87-1.8,6.43-5.38a4.34,4.34,0,0,0-.72-3.65A5.25,5.25,0,0,0,16.5,7.24" transform="translate(-7.77 -7.24)"/><path class="cls-2" d="M29.63,17.74a3,3,0,0,1-3.06,2.59,2.26,2.26,0,0,1-1.81-.73,2.3,2.3,0,0,1-.43-1.9,3,3,0,0,1,3-2.61,2.24,2.24,0,0,1,1.8.74,2.29,2.29,0,0,1,.46,1.91m3.78-5.27H30.7a.48.48,0,0,0-.47.4l-.12.76-.19-.28c-.58-.85-1.89-1.13-3.2-1.13a6.22,6.22,0,0,0-6,5.44,5.13,5.13,0,0,0,1,4.17A4.22,4.22,0,0,0,25.1,23.2a5.19,5.19,0,0,0,3.75-1.55l-.12.76a.46.46,0,0,0,.46.54h2.44a.79.79,0,0,0,.78-.66L33.87,13a.47.47,0,0,0-.46-.55" transform="translate(-7.77 -7.24)"/><path class="cls-1" d="M70,17.74a3,3,0,0,1-3,2.59,2.27,2.27,0,0,1-1.82-.73,2.33,2.33,0,0,1-.43-1.9,3,3,0,0,1,3-2.61,2.28,2.28,0,0,1,1.81.74A2.32,2.32,0,0,1,70,17.74m3.78-5.27H71a.48.48,0,0,0-.47.4l-.11.76-.19-.28c-.59-.85-1.9-1.13-3.2-1.13a6.22,6.22,0,0,0-6,5.44,5.13,5.13,0,0,0,1,4.17,4.25,4.25,0,0,0,3.41,1.37,5.19,5.19,0,0,0,3.75-1.55l-.12.76a.47.47,0,0,0,.47.54H72a.79.79,0,0,0,.78-.66L74.22,13a.48.48,0,0,0-.47-.55" transform="translate(-7.77 -7.24)"/><path class="cls-2" d="M47.83,12.47H45.11a.78.78,0,0,0-.65.35l-3.75,5.53L39.11,13a.78.78,0,0,0-.75-.56H35.68a.47.47,0,0,0-.44.62l3,8.8-2.82,4a.48.48,0,0,0,.38.75h2.72a.8.8,0,0,0,.65-.34l9-13.07a.47.47,0,0,0-.39-.74" transform="translate(-7.77 -7.24)"/><path class="cls-1" d="M77,7.64,74.63,22.41a.46.46,0,0,0,.46.54h2.34a.78.78,0,0,0,.77-.66L80.49,7.78A.46.46,0,0,0,80,7.24H77.41a.46.46,0,0,0-.46.4" transform="translate(-7.77 -7.24)"/></svg>