<svg xmlns="http://www.w3.org/2000/svg" viewBox="0 0 676.23 408.03"><defs><style>.cls-1{opacity:0.34;}.cls-2{opacity:0.6;}.cls-3{fill:#53d0f7;}.cls-4{opacity:0.41;}.cls-5{opacity:0.35;}.cls-6{opacity:0.47;}.cls-7{opacity:0.7;}.cls-15,.cls-8{fill:#233863;}.cls-9{opacity:0.57;}.cls-10{fill:#3aaed5;}.cls-11{opacity:0.22;}.cls-12,.cls-16{fill:#fff;}.cls-13{fill:#ffb44f;}.cls-14{fill:#3d85fd;}.cls-15{opacity:0.24;}.cls-16{opacity:0.12;}.cls-17{fill:none;stroke:#233863;stroke-linecap:round;stroke-linejoin:round;stroke-width:3px;}</style></defs><title>per_title_results</title><g id="BACKGROUND"><g class="cls-1"><g class="cls-2"><path class="cls-3" d="M620.85,291.59a115.74,115.74,0,0,1-54.17,126,122.83,122.83,0,0,1-28.85,11.91c-1.64,2.63-3.43,5.17-5.32,7.63h86.23c21.93-26.11,34.49-59.57,36.47-93.63a161.39,161.39,0,0,0-.74-27.63c-4-35.51-19.76-69.35-43.4-96.19q-.52,2.84-.86,5.68C607.63,248,615.93,269.89,620.85,291.59Z" transform="translate(-33.38 -29.14)"/></g><g class="cls-4"><path class="cls-3" d="M353.87,431.91c-5.06-7-9-15.9-14.39-23-11.49,2.34-22.84,5.75-34.31,8.69-23.49,6-47.69,10.49-71.92,10.82-26.94.37-54.4-4.82-77.82-18.65-17.86-10.56-33.57-26.68-42.07-45.93,2.37,26.55,12,52.44,28.22,73.37H357.94Q355.82,434.6,353.87,431.91Z" transform="translate(-33.38 -29.14)"/></g><g class="cls-4"><path class="cls-3" d="M388,67.68c6.55-.23,13.58-.62,21.26-1.2C445.07,63.77,480.55,71.93,515,83.2q5,1.64,9.9,3.51a133.23,133.23,0,0,0-54.5-36.19C429.2,36.26,379.3,41.93,343.05,64.39A325.2,325.2,0,0,1,388,67.68Z" transform="translate(-33.38 -29.14)"/></g><g class="cls-5"><path class="cls-3" d="M154.56,410c23.35,13.52,50.79,18.69,77.72,18.46,24.24-.2,48.46-4.41,72-10.13,11.49-2.79,22.85-6,34.35-8.24-4.69-6.12-10.49-10.91-19.12-11.94-33.36-4-68.47,9.79-101.68,12.13-22.32,1.57-46-1.46-64.07-14.8-11.7-8.66-20.23-21.13-26.05-34.54-12.08-27.82-12.4-59.74-2.2-88.18,6.9-19.24,23.67-33.87,29.54-53.47,4.9-16.38-.78-33.47.82-50a47.19,47.19,0,0,1,2-10c5.75-17.59,33.34-43,50.25-51.51a292.88,292.88,0,0,1,126-31.28c-24.52-4.1-47.72-11.47-88.82-20.2C196.45,45.84,141.61,81.67,112.8,123.35a98.73,98.73,0,0,0-7.75,13.34,106.09,106.09,0,0,0-8.15,67c5.43,26.3,22.21,46.58,16.21,74.58-3.65,17.06-4.62,32.87-6.52,49.76a71,71,0,0,0,6.12,37.3C121.11,384,136.74,399.68,154.56,410Z" transform="translate(-33.38 -29.14)"/></g><g class="cls-6"><path class="cls-3" d="M409.24,66.48c-7.68.58-14.71,1-21.26,1.2A387.54,387.54,0,0,1,454.92,83.5L538.47,111c39.27,12.92,65.29,50.55,62.85,91.81,0,.28,0,.55-.05.82a137.34,137.34,0,0,1-22.72,67c-11.93,17.8-28.39,37.71-32.51,59.56-3.28,17.41,3.81,35,4.67,52.73.82,16.84-4.21,32.82-12.88,46.63a122.83,122.83,0,0,0,28.85-11.91,115.74,115.74,0,0,0,54.17-126c-4.92-21.7-13.22-43.58-10.64-66.19q.33-2.85.86-5.68c2.55-13.75,8-27.19,6.82-41.09-.88-10.5-5.5-20.35-11.15-29.24-18.77-29.52-49-50.17-81.88-62.68q-4.92-1.87-9.9-3.51C480.55,71.93,445.07,63.77,409.24,66.48Z" transform="translate(-33.38 -29.14)"/></g><g class="cls-7"><path class="cls-3" d="M157.51,150.88a49.4,49.4,0,0,0-2,10.38C154,178.36,159.77,196,155,212.9c-5.77,20.26-22.47,35.44-29.28,55.34-10.06,29.4-9.57,62.34,2.64,91,5.89,13.81,14.49,26.64,26.23,35.52,18.11,13.67,41.83,16.68,64.14,14.94,33.21-2.58,68.24-17,101.62-13,8.63,1,14.46,5.93,19.18,12.22,5.37,7.14,9.33,16.05,14.39,23q2,2.7,4.07,5.26H532.51c1.89-2.46,3.68-5,5.32-7.63,8.67-13.81,13.7-29.79,12.88-46.63-.86-17.72-8-35.32-4.67-52.73,4.12-21.85,20.58-41.76,32.51-59.56a137.34,137.34,0,0,0,22.72-67c0-.27,0-.54.05-.82,2.44-41.26-23.58-78.89-62.85-91.81L454.92,83.5A387.54,387.54,0,0,0,388,67.68a325.2,325.2,0,0,0-44.93-3.29q-4.89,0-9.75.14A285.59,285.59,0,0,0,207.5,97.46C190.63,106.31,163.17,132.69,157.51,150.88Z" transform="translate(-33.38 -29.14)"/></g><g class="cls-5"><circle class="cls-3" cx="278.41" cy="13.58" r="13.58"/></g><g class="cls-5"><circle class="cls-3" cx="645.56" cy="175.15" r="30.68"/></g><g class="cls-5"><circle class="cls-3" cx="64.06" cy="263.06" r="30.68" transform="translate(-186.7 72.52) rotate(-39.72)"/></g><g class="cls-5"><circle class="cls-3" cx="518.06" cy="42.22" r="9.32"/></g></g><rect class="cls-8" x="51.91" y="401.44" width="579.42" height="2.77" rx="1.17"/></g><g id="OBJECTS"><g class="cls-9"><path class="cls-10" d="M251.26,345a1,1,0,0,1-1-1,124.81,124.81,0,0,1,39.29-90.7,126.44,126.44,0,0,1,14.15-11.45,1,1,0,0,1,1.39.25,1,1,0,0,1-.25,1.39A122.49,122.49,0,0,0,252.26,344,1,1,0,0,1,251.26,345Z" transform="translate(-33.38 -29.14)"/><path class="cls-10" d="M497.89,345a1,1,0,0,1-1-1,122,122,0,0,0-6.93-40.7,1,1,0,1,1,1.88-.67A124,124,0,0,1,498.89,344,1,1,0,0,1,497.89,345Z" transform="translate(-33.38 -29.14)"/><path class="cls-10" d="M488.23,297.11a1,1,0,0,1-.92-.61,122.09,122.09,0,0,0-46.56-55.36,1,1,0,0,1,1.09-1.68,124.23,124.23,0,0,1,47.32,56.26,1,1,0,0,1-.54,1.31A1,1,0,0,1,488.23,297.11Z" transform="translate(-33.38 -29.14)"/><path class="cls-10" d="M312.37,238.53a1,1,0,0,1-.87-.49,1,1,0,0,1,.36-1.37,124.5,124.5,0,0,1,115.34-5.3,1,1,0,1,1-.85,1.81,122.53,122.53,0,0,0-113.48,5.21A.93.93,0,0,1,312.37,238.53Z" transform="translate(-33.38 -29.14)"/><path class="cls-10" d="M229.31,345a1,1,0,0,1-1-1A146.4,146.4,0,0,1,315.7,210.09a1,1,0,0,1,.81,1.83A144.39,144.39,0,0,0,230.31,344,1,1,0,0,1,229.31,345Z" transform="translate(-33.38 -29.14)"/><path class="cls-10" d="M519.84,345a1,1,0,0,1-1-1,145,145,0,0,0-58.42-116,1,1,0,0,1-.21-1.4,1,1,0,0,1,1.4-.21,147.63,147.63,0,0,1,43.09,50.71A144.7,144.7,0,0,1,520.84,344,1,1,0,0,1,519.84,345Z" transform="translate(-33.38 -29.14)"/><path class="cls-10" d="M452.36,222.32a1,1,0,0,1-.54-.16c-2.95-1.87-6-3.67-9.11-5.33a1,1,0,0,1-.41-1.35,1,1,0,0,1,1.36-.41c3.13,1.68,6.24,3.5,9.24,5.41a1,1,0,0,1,.3,1.38A1,1,0,0,1,452.36,222.32Z" transform="translate(-33.38 -29.14)"/><path class="cls-10" d="M436.78,213.72a.9.9,0,0,1-.42-.1,144.81,144.81,0,0,0-108-6.31,1,1,0,1,1-.64-1.89,146.71,146.71,0,0,1,109.46,6.4,1,1,0,0,1-.43,1.9Z" transform="translate(-33.38 -29.14)"/><path class="cls-10" d="M544.17,345a1,1,0,0,1-1-1,168.14,168.14,0,0,0-8.91-54.23,1,1,0,0,1,1.9-.64,170.4,170.4,0,0,1,9,54.87A1,1,0,0,1,544.17,345Z" transform="translate(-33.38 -29.14)"/><path class="cls-10" d="M531.67,281a1,1,0,0,1-.92-.62,168.93,168.93,0,0,0-57.38-73,1,1,0,0,1-.22-1.39,1,1,0,0,1,1.39-.23,170.86,170.86,0,0,1,58.06,73.86,1,1,0,0,1-.55,1.3A1,1,0,0,1,531.67,281Z" transform="translate(-33.38 -29.14)"/><path class="cls-10" d="M464.23,201a1,1,0,0,1-.53-.15,169.11,169.11,0,0,0-131.2-20.17,1,1,0,0,1-1.22-.72,1,1,0,0,1,.72-1.21,171.06,171.06,0,0,1,132.76,20.4,1,1,0,0,1-.53,1.85Z" transform="translate(-33.38 -29.14)"/><path class="cls-10" d="M300,192.66a1,1,0,0,1-.44-1.9,173.21,173.21,0,0,1,16.05-6.87,1,1,0,0,1,1.29.6,1,1,0,0,1-.6,1.28,167.65,167.65,0,0,0-15.86,6.79A1,1,0,0,1,300,192.66Z" transform="translate(-33.38 -29.14)"/><path class="cls-10" d="M205,345a1,1,0,0,1-1-1,170.52,170.52,0,0,1,84.38-147.24,1,1,0,1,1,1,1.73A169.39,169.39,0,0,0,206,344,1,1,0,0,1,205,345Z" transform="translate(-33.38 -29.14)"/></g><g class="cls-11"><path class="cls-10" d="M187.08,336.59a1.5,1.5,0,0,1-1.5-1.5A188.46,188.46,0,0,1,245.32,197.2a190.09,190.09,0,0,1,21.51-17.41,1.5,1.5,0,0,1,1.71,2.47,186.16,186.16,0,0,0-80,152.83A1.5,1.5,0,0,1,187.08,336.59Z" transform="translate(-33.38 -29.14)"/><path class="cls-10" d="M562.07,336.59a1.5,1.5,0,0,1-1.5-1.5A185.56,185.56,0,0,0,550,273.19a1.49,1.49,0,0,1,.91-1.91,1.51,1.51,0,0,1,1.92.92,188.54,188.54,0,0,1,10.71,62.89A1.5,1.5,0,0,1,562.07,336.59Z" transform="translate(-33.38 -29.14)"/><path class="cls-10" d="M547.39,263.73a1.5,1.5,0,0,1-1.38-.92,185.71,185.71,0,0,0-70.8-84.17,1.5,1.5,0,1,1,1.62-2.52,188.65,188.65,0,0,1,71.94,85.52,1.51,1.51,0,0,1-1.38,2.09Z" transform="translate(-33.38 -29.14)"/><path class="cls-10" d="M280,174.66a1.5,1.5,0,0,1-.76-2.79,189.32,189.32,0,0,1,175.35-8.06,1.5,1.5,0,0,1-1.27,2.72,186.3,186.3,0,0,0-172.56,7.93A1.49,1.49,0,0,1,280,174.66Z" transform="translate(-33.38 -29.14)"/><path class="cls-10" d="M153.7,336.59a1.5,1.5,0,0,1-1.5-1.5A222.56,222.56,0,0,1,285.07,131.46a1.5,1.5,0,0,1,1.21,2.75A219.56,219.56,0,0,0,155.2,335.09,1.5,1.5,0,0,1,153.7,336.59Z" transform="translate(-33.38 -29.14)"/><path class="cls-10" d="M595.45,336.59a1.5,1.5,0,0,1-1.5-1.5,220.46,220.46,0,0,0-88.84-176.33,1.49,1.49,0,0,1-.31-2.1,1.51,1.51,0,0,1,2.1-.31,224.42,224.42,0,0,1,65.51,77.1A219.93,219.93,0,0,1,597,335.09,1.5,1.5,0,0,1,595.45,336.59Z" transform="translate(-33.38 -29.14)"/><path class="cls-10" d="M492.84,150a1.49,1.49,0,0,1-.8-.24c-4.51-2.86-9.17-5.59-13.86-8.1A1.5,1.5,0,0,1,479.6,139c4.76,2.55,9.48,5.32,14,8.22a1.5,1.5,0,0,1-.81,2.77Z" transform="translate(-33.38 -29.14)"/><path class="cls-10" d="M469.16,136.94a1.5,1.5,0,0,1-.64-.15,220.21,220.21,0,0,0-164.17-9.59,1.5,1.5,0,0,1-1-2.85,223.27,223.27,0,0,1,166.42,9.73,1.5,1.5,0,0,1-.65,2.86Z" transform="translate(-33.38 -29.14)"/><path class="cls-10" d="M632.44,336.59a1.5,1.5,0,0,1-1.5-1.5,256.24,256.24,0,0,0-13.54-82.46,1.5,1.5,0,1,1,2.84-1,259.08,259.08,0,0,1,13.7,83.42A1.5,1.5,0,0,1,632.44,336.59Z" transform="translate(-33.38 -29.14)"/><path class="cls-10" d="M613.44,239.24a1.5,1.5,0,0,1-1.39-.93,256.71,256.71,0,0,0-87.25-111,1.5,1.5,0,0,1,1.76-2.43,259.66,259.66,0,0,1,88.27,112.28,1.5,1.5,0,0,1-.83,1.95A1.36,1.36,0,0,1,613.44,239.24Z" transform="translate(-33.38 -29.14)"/><path class="cls-10" d="M510.89,117.66a1.54,1.54,0,0,1-.79-.23A257.12,257.12,0,0,0,310.59,86.77a1.5,1.5,0,1,1-.75-2.91,260.15,260.15,0,0,1,201.85,31,1.49,1.49,0,0,1,.48,2.06A1.51,1.51,0,0,1,510.89,117.66Z" transform="translate(-33.38 -29.14)"/><path class="cls-10" d="M261.19,104.92a1.5,1.5,0,0,1-.66-2.85,260.82,260.82,0,0,1,24.4-10.44,1.5,1.5,0,0,1,1,2.82,254.87,254.87,0,0,0-24.12,10.32A1.55,1.55,0,0,1,261.19,104.92Z" transform="translate(-33.38 -29.14)"/><path class="cls-10" d="M116.71,336.59a1.5,1.5,0,0,1-1.5-1.5A259.25,259.25,0,0,1,243.49,111.24a1.49,1.49,0,1,1,1.51,2.58A257.57,257.57,0,0,0,118.21,335.09,1.5,1.5,0,0,1,116.71,336.59Z" transform="translate(-33.38 -29.14)"/></g><path class="cls-12" d="M424.77,356.94a8.15,8.15,0,0,1-7.64-5.34L414.69,345a41,41,0,0,1-16-.47L395.71,351a8.27,8.27,0,0,1-4.6,4.34,8.12,8.12,0,0,1-6.29-.18,8.27,8.27,0,0,1-4.05-10.94l2.94-6.48A40.69,40.69,0,0,1,372.8,326l-6.59,2.53a8.17,8.17,0,0,1-10.58-4.8A8.36,8.36,0,0,1,360.47,313l6.62-2.53a41.59,41.59,0,0,1,.6-16.18l-6.4-2.9a8.31,8.31,0,0,1,.56-15.28,8.12,8.12,0,0,1,6.29.19l6.39,2.9a41.85,41.85,0,0,1,11.78-11.11l-2.45-6.64a8.34,8.34,0,0,1,4.83-10.66,8.15,8.15,0,0,1,10.58,4.79l2.44,6.63a40.67,40.67,0,0,1,16,.47l2.94-6.48a8.25,8.25,0,0,1,10.89-4.16,8.09,8.09,0,0,1,4.28,4.61,8.29,8.29,0,0,1-.23,6.32l-2.95,6.49a40.82,40.82,0,0,1,10.92,11.75l6.59-2.52a8.14,8.14,0,0,1,10.57,4.79,8.35,8.35,0,0,1-4.83,10.67l-6.62,2.53a41.54,41.54,0,0,1-.6,16.17l6.4,2.91a8.29,8.29,0,0,1-6.85,15.09l-6.39-2.9a41.67,41.67,0,0,1-11.78,11.1l2.45,6.64a8.3,8.3,0,0,1-7.77,11.21ZM416,342.7l3,8.21a6.15,6.15,0,0,0,8,3.62,6.36,6.36,0,0,0,3.68-8.1l-3-8.19.71-.43a39.9,39.9,0,0,0,12.35-11.64l.47-.7,7.92,3.59a6.28,6.28,0,0,0,5.19-11.44L446.37,314l.21-.82a40,40,0,0,0,.63-17l-.15-.81,8.15-3.12a6.36,6.36,0,0,0,3.68-8.1,6.19,6.19,0,0,0-3.23-3.49,6.12,6.12,0,0,0-4.75-.13l-8.17,3.12-.43-.73a38.81,38.81,0,0,0-11.45-12.33l-.68-.48,3.62-8a6.27,6.27,0,0,0,.18-4.81,6.08,6.08,0,0,0-3.23-3.48,6.25,6.25,0,0,0-8.24,3.16l-3.63,8-.81-.21a39,39,0,0,0-16.82-.49l-.83.16-3-8.2a6.13,6.13,0,0,0-8-3.62,6.35,6.35,0,0,0-3.68,8.1l3,8.19-.71.42a39.71,39.71,0,0,0-12.35,11.65l-.47.69-7.92-3.59a6.16,6.16,0,0,0-4.75-.14,6.31,6.31,0,0,0-.44,11.59L370,293.2l-.21.81a39.79,39.79,0,0,0-.63,17l.15.82-8.15,3.11a6.36,6.36,0,0,0-3.68,8.11,6.15,6.15,0,0,0,8,3.62l8.17-3.13.43.73a38.72,38.72,0,0,0,11.45,12.34l.68.47-3.62,8a6.25,6.25,0,0,0,3,8.29,6.12,6.12,0,0,0,4.75.13,6.24,6.24,0,0,0,3.49-3.3l3.63-8,.81.2a38.8,38.8,0,0,0,16.82.49Zm-8.08-8.46a30.07,30.07,0,0,1-28.21-19.74A30.95,30.95,0,0,1,397.62,275a30,30,0,0,1,23.26.68,30.55,30.55,0,0,1,14.95,40.48h0A30.73,30.73,0,0,1,407.9,334.24Zm.56-59.27a28.35,28.35,0,0,0-10.13,1.89,28.93,28.93,0,0,0-16.76,36.95,28,28,0,0,0,14.78,15.92,28.68,28.68,0,0,0,23.7-52.24A28,28,0,0,0,408.46,275Z" transform="translate(-33.38 -29.14)"/><path class="cls-12" d="M326,342.28a5.68,5.68,0,0,1-5.7-5.67l0-4.36a27,27,0,0,1-9.4-3.74l-3.07,3.14a5.76,5.76,0,0,1-4.06,1.75,5.51,5.51,0,0,1-4.09-1.62,5.73,5.73,0,0,1-1.71-4.06,5.83,5.83,0,0,1,1.67-4.09l3.07-3.14a27.35,27.35,0,0,1-3.93-9.32l-4.35.07a5.81,5.81,0,0,1-4.09-1.62,5.68,5.68,0,0,1-1.71-4.05,5.85,5.85,0,0,1,5.72-5.85l4.37-.07a28.1,28.1,0,0,1,3.85-9.46l-3.09-3a5.61,5.61,0,0,1-1.71-4.05,5.82,5.82,0,0,1,5.72-5.84,5.64,5.64,0,0,1,4.08,1.62l3.1,3a27.67,27.67,0,0,1,9.38-4.05l0-4.37a5.84,5.84,0,0,1,5.72-5.84,5.7,5.7,0,0,1,5.8,5.68l0,4.35a27.29,27.29,0,0,1,9.4,3.74L344,278.3h0a5.81,5.81,0,0,1,4.06-1.75,5.56,5.56,0,0,1,4.09,1.63,5.77,5.77,0,0,1,0,8.14l-3.08,3.14a27,27,0,0,1,3.93,9.32l4.36-.07a5.75,5.75,0,0,1,4.09,1.63,5.69,5.69,0,0,1,1.71,4.05,5.84,5.84,0,0,1-5.73,5.84l-4.37.07a27.61,27.61,0,0,1-3.85,9.46l3.1,3a5.8,5.8,0,0,1-4,9.89,5.64,5.64,0,0,1-4.09-1.62l-3.09-3a27.85,27.85,0,0,1-9.38,4l0,4.37a5.84,5.84,0,0,1-5.72,5.84Zm-15.39-16.35.69.47a25.08,25.08,0,0,0,10.14,4l.83.14,0,6a3.71,3.71,0,0,0,1.11,2.63,3.66,3.66,0,0,0,2.59,1h.06a3.83,3.83,0,0,0,3.76-3.83l0-6,.81-.16a25.84,25.84,0,0,0,10.11-4.36l.68-.49,4.28,4.2a3.56,3.56,0,0,0,2.66,1.05,3.79,3.79,0,0,0,2.64-6.46L346.71,320l.47-.7a25.86,25.86,0,0,0,4.15-10.19l.14-.81,6-.1a3.83,3.83,0,0,0,3.76-3.83,3.69,3.69,0,0,0-3.71-3.69h-.06l-6,.1-.16-.83a25,25,0,0,0-4.23-10.05l-.48-.68,4.23-4.33a3.77,3.77,0,0,0,0-5.31,3.48,3.48,0,0,0-2.66-1.06,3.82,3.82,0,0,0-2.66,1.15h0L341.23,284l-.69-.46a25.11,25.11,0,0,0-10.13-4l-.84-.14,0-6a3.69,3.69,0,0,0-3.71-3.69h-.06A3.82,3.82,0,0,0,322,273.5l0,6-.81.15A25.86,25.86,0,0,0,311.14,284l-.68.49-4.29-4.2a3.66,3.66,0,0,0-2.65-1.05,3.82,3.82,0,0,0-3.75,3.83,3.65,3.65,0,0,0,1.11,2.63l4.28,4.2-.47.69a25.83,25.83,0,0,0-4.15,10.19l-.14.82-6,.09a3.84,3.84,0,0,0-3.75,3.84,3.71,3.71,0,0,0,1.11,2.63,3.75,3.75,0,0,0,2.66,1.05l6-.09.15.83a25.24,25.24,0,0,0,4.24,10l.48.68L301.07,325a3.83,3.83,0,0,0-1.1,2.68,3.72,3.72,0,0,0,1.11,2.64,3.59,3.59,0,0,0,2.66,1,3.75,3.75,0,0,0,2.66-1.15Zm15.07-.56a20,20,0,0,1-14.11-5.75,20.55,20.55,0,0,1,14.24-35,20.11,20.11,0,0,1,20.49,20.07A20.64,20.64,0,0,1,326,325.36Zm.46-38.78h-.3A18.55,18.55,0,0,0,313,318.19a18.08,18.08,0,0,0,13,5.17,18.42,18.42,0,0,0,13-5.6h0a18.49,18.49,0,0,0,5.33-13.09,18.11,18.11,0,0,0-18.16-18.08Z" transform="translate(-33.38 -29.14)"/><path class="cls-12" d="M343.16,424a7.12,7.12,0,0,1-2.43-.43,7,7,0,0,1-4.13-9.05l2-5.4a34.53,34.53,0,0,1-9.72-9l-5.29,2.42a7.07,7.07,0,0,1-9.38-3.44,7,7,0,0,1-.17-5.39,7,7,0,0,1,3.7-4l5.3-2.43a34.39,34.39,0,0,1-.43-13.22l-5.42-2a7,7,0,0,1-4.14-9,7.17,7.17,0,0,1,9.12-4.17l5.45,2a35.15,35.15,0,0,1,9.13-9.74L334.4,346a7,7,0,0,1-.18-5.39,7.12,7.12,0,0,1,13.09-.52l2.39,5.23a35,35,0,0,1,13.34-.53l2-5.42a7.16,7.16,0,0,1,9.12-4.17,7,7,0,0,1,4.14,9l-2.05,5.41a34.21,34.21,0,0,1,9.72,9l5.3-2.42a7.05,7.05,0,0,1,5.41-.21,7,7,0,0,1,4.14,9,7.07,7.07,0,0,1-3.71,4l-5.29,2.42a34.19,34.19,0,0,1,.42,13.22l5.43,2a7,7,0,0,1,4.13,9.05,7.16,7.16,0,0,1-9.12,4.17l-5.44-2a35.16,35.16,0,0,1-9.13,9.74l2.39,5.22a7,7,0,0,1,.17,5.39,7.13,7.13,0,0,1-9.12,4.17,6.91,6.91,0,0,1-4-3.65l-2.39-5.23a35.25,35.25,0,0,1-13.34.54l-2.05,5.41A7.18,7.18,0,0,1,343.16,424ZM329.6,397.63l.48.68a32.32,32.32,0,0,0,10.3,9.51l.73.42-2.64,7a5,5,0,0,0,2.95,6.46,5.17,5.17,0,0,0,6.57-3l2.63-7,.82.14a33,33,0,0,0,14.12-.57l.81-.21,3.09,6.75a5,5,0,0,0,2.83,2.61,5.15,5.15,0,0,0,6.56-3,4.92,4.92,0,0,0-.12-3.84l-3.08-6.75.69-.47A33.29,33.29,0,0,0,386,396.06l.42-.71,7,2.55a5.14,5.14,0,0,0,6.56-3,5,5,0,0,0-3-6.46l-7-2.56.15-.83a32.46,32.46,0,0,0-.45-14l-.2-.81,6.8-3.11a5.11,5.11,0,0,0,2.67-2.85,5,5,0,0,0-.12-3.85,5,5,0,0,0-2.83-2.61,5.12,5.12,0,0,0-3.9.16l-6.81,3.11-.47-.68a32.28,32.28,0,0,0-10.3-9.5l-.73-.43,2.64-7a5,5,0,0,0-3-6.46,5.15,5.15,0,0,0-6.57,3L364.32,347l-.81-.14a33,33,0,0,0-14.13.57l-.81.21-3.08-6.74a5.11,5.11,0,0,0-9.4.39,5,5,0,0,0,.13,3.85l3.08,6.74-.69.47a33,33,0,0,0-9.67,10.32l-.43.71-7-2.56a5.15,5.15,0,0,0-6.57,3,5,5,0,0,0,3,6.46l7,2.56-.16.84a32.41,32.41,0,0,0,.45,14l.21.81-6.81,3.11a5.1,5.1,0,0,0-2.66,2.85,5,5,0,0,0,.12,3.85,5.06,5.06,0,0,0,6.72,2.45ZM357.3,405A25.64,25.64,0,1,1,381,368.61a25.27,25.27,0,0,1,.63,19.59A26.1,26.1,0,0,1,357.3,405Zm.35-49.22a23.63,23.63,0,1,0,9.62,45h0a23.84,23.84,0,0,0,12.47-13.29,23.26,23.26,0,0,0-.58-18.05A23.59,23.59,0,0,0,357.65,355.75Z" transform="translate(-33.38 -29.14)"/><rect class="cls-13" x="238.76" y="134" width="35.21" height="29.04" rx="2.58" transform="translate(7.85 -84.34) rotate(13.35)"/><path class="cls-8" d="M268.23,167.68a3.77,3.77,0,0,1-.94-.11h0l-29.24-6.94a4.08,4.08,0,0,1-3-4.91l5.52-23.23a4.09,4.09,0,0,1,4.91-3l29.24,6.94a4.08,4.08,0,0,1,3,4.91l-5.52,23.23A4.08,4.08,0,0,1,268.23,167.68Zm-.25-3a1.07,1.07,0,0,0,1.3-.8l5.52-23.23a1.08,1.08,0,0,0-.8-1.3l-29.24-6.94a1.07,1.07,0,0,0-1.3.8l-5.52,23.23a1.08,1.08,0,0,0,.81,1.3L268,164.65Z" transform="translate(-33.38 -29.14)"/><path class="cls-12" d="M254,154a2.21,2.21,0,0,1-.51-.05,2.35,2.35,0,0,1-1.49-1l-3.67-5.77a1.5,1.5,0,1,1,2.53-1.61l3.33,5.23,12.41-8a1.5,1.5,0,1,1,1.62,2.52l-12.94,8.35A2.35,2.35,0,0,1,254,154Z" transform="translate(-33.38 -29.14)"/><rect class="cls-10" x="485.45" y="141.01" width="35.21" height="29.04" rx="2.58" transform="translate(-47.48 27.38) rotate(-6.34)"/><path class="cls-8" d="M489.43,173.14a4.1,4.1,0,0,1-4.05-3.63l-2.63-23.73a4.09,4.09,0,0,1,3.61-4.51L516.22,138a4.09,4.09,0,0,1,4.51,3.61l2.63,23.73a4.08,4.08,0,0,1-3.6,4.5l-29.87,3.32A3.44,3.44,0,0,1,489.43,173.14Zm27.24-32.21h-.12l-29.86,3.32a1.08,1.08,0,0,0-1,1.2l2.64,23.72a1.05,1.05,0,0,0,.4.73,1.07,1.07,0,0,0,.79.23l29.87-3.32h0a1.07,1.07,0,0,0,1-1.19l-2.63-23.73A1.1,1.1,0,0,0,516.67,140.93Z" transform="translate(-33.38 -29.14)"/><path class="cls-12" d="M501.86,161.64a2.34,2.34,0,0,1-1.45-.5L495,157a1.5,1.5,0,0,1,1.84-2.37l4.9,3.8,9-11.71a1.5,1.5,0,1,1,2.38,1.83l-9.38,12.21a2.3,2.3,0,0,1-1.57.91Z" transform="translate(-33.38 -29.14)"/><circle class="cls-10" cx="126.82" cy="160.87" r="8.16"/><circle class="cls-10" cx="340.72" cy="48.08" r="8.16"/><path class="cls-14" d="M212.4,188.18a3.1,3.1,0,1,1-3.1-3.1A3.1,3.1,0,0,1,212.4,188.18Z" transform="translate(-33.38 -29.14)"/><path class="cls-14" d="M569.39,161a3.11,3.11,0,1,1-3.1-3.1A3.1,3.1,0,0,1,569.39,161Z" transform="translate(-33.38 -29.14)"/><circle class="cls-14" cx="238.23" cy="70.31" r="3.1"/><circle class="cls-13" cx="136.15" cy="216.86" r="3.1"/><circle class="cls-13" cx="552.74" cy="243.56" r="3.1"/><path class="cls-13" d="M637.76,311.2a5.71,5.71,0,1,1-5.71-5.71A5.71,5.71,0,0,1,637.76,311.2Z" transform="translate(-33.38 -29.14)"/><path class="cls-13" d="M457.06,126.93a6.76,6.76,0,1,1-6.75-6.76A6.75,6.75,0,0,1,457.06,126.93Z" transform="translate(-33.38 -29.14)"/><rect class="cls-14" x="163.32" y="312.12" width="136.97" height="99.62" rx="14.94" transform="translate(-34.14 -28.65) rotate(-0.12)"/><path class="cls-8" d="M178.34,413.35a16.46,16.46,0,0,1-16.44-16.41l-.15-69.73a16.46,16.46,0,0,1,16.41-16.48l107.09-.22h0a16.45,16.45,0,0,1,16.44,16.4l.15,69.74a16.47,16.47,0,0,1-16.41,16.47h0l-107.09.23Zm107.12-1.73h0Zm-.18-98.11h0l-107.08.22a13.46,13.46,0,0,0-13.42,13.47l.15,69.73a13.45,13.45,0,0,0,13.44,13.42h0l107.09-.23a13.49,13.49,0,0,0,13.41-13.47l-.15-69.73A13.45,13.45,0,0,0,285.28,313.51Z" transform="translate(-33.38 -29.14)"/><rect class="cls-15" x="163.32" y="312.12" width="136.97" height="99.62" rx="14.94" transform="translate(-34.14 -28.65) rotate(-0.12)"/><rect class="cls-12" x="253.41" y="295.12" width="67.88" height="91" rx="1.28" transform="translate(282.27 -133.25) rotate(43.79)"/><path class="cls-8" d="M280.32,397.92a2.75,2.75,0,0,1-1.92-.77h0l-47.16-45.21a2.79,2.79,0,0,1-.08-3.93l61.21-63.84a2.79,2.79,0,0,1,3.93-.09l47.15,45.21a2.78,2.78,0,0,1,.09,3.93l-61.21,63.84a2.79,2.79,0,0,1-1.95.86Zm.16-2.94h0Zm-47-45.05,46.84,44.9,60.9-63.52L294.38,286.4Z" transform="translate(-33.38 -29.14)"/><path class="cls-10" d="M300,346.74l-7.1-20.1a5,5,0,0,0-1.45-2.24c-1.63-1.4-3.86-1-5.54.94l-13.85,16.19c-1.68,2-1.72,4.22-.08,5.62a5.12,5.12,0,0,0,2.44,1.08l20.95,3.91a3.82,3.82,0,0,0,4.63-5.4Zm-5.54,3.48-21-3.91c.67-.22.16-.43-.18-.73-1.06-.9-.14-2.2.3-2.71l13.86-16.19c.44-.52,1.58-1.62,2.63-.72a3.1,3.1,0,0,1,.85,1.37l7.09,20.1a2.32,2.32,0,0,1-.09,2.25C297.57,350.14,296.76,350.31,294.47,350.22Z" transform="translate(-33.38 -29.14)"/><rect class="cls-12" x="170.9" y="263.16" width="67.88" height="91" rx="1.28" transform="translate(-134.9 71.25) rotate(-22.22)"/><path class="cls-8" d="M191.33,364.73a2.71,2.71,0,0,1-1.08-.22,2.76,2.76,0,0,1-1.49-1.51l-33.45-81.88a2.78,2.78,0,0,1,1.52-3.62l60.47-24.7a2.78,2.78,0,0,1,3.62,1.52l33.45,81.88a2.78,2.78,0,0,1-1.52,3.62h0l-60.47,24.7A2.77,2.77,0,0,1,191.33,364.73ZM158.17,280.2l33.28,81.46,60.06-24.54-33.28-81.46Zm94.11,58.23h0Zm-.56-1.39h0Z" transform="translate(-33.38 -29.14)"/><path class="cls-8" d="M209.3,285.25a1,1,0,0,1-.38-1.92l10.4-4.25a1,1,0,0,1,1.31.55,1,1,0,0,1-.55,1.3l-10.4,4.25A1,1,0,0,1,209.3,285.25Z" transform="translate(-33.38 -29.14)"/><path class="cls-8" d="M180.49,315.09a1,1,0,0,1-.38-1.92l45.54-18.61a1,1,0,0,1,1.3.55,1,1,0,0,1-.55,1.3L180.87,315A1,1,0,0,1,180.49,315.09Z" transform="translate(-33.38 -29.14)"/><path class="cls-13" d="M212.23,314.42a1,1,0,0,1-.38-1.93L230,305.1a1,1,0,1,1,.76,1.85l-18.1,7.39A1,1,0,0,1,212.23,314.42Z" transform="translate(-33.38 -29.14)"/><path class="cls-13" d="M184.79,325.62a1,1,0,0,1-.37-1.92l11.08-4.53a1,1,0,0,1,.75,1.85l-11.08,4.53A1,1,0,0,1,184.79,325.62Z" transform="translate(-33.38 -29.14)"/><path class="cls-8" d="M188.37,337.91A1,1,0,0,1,188,336l28-11.46a1,1,0,0,1,.75,1.86l-28,11.45A1.08,1.08,0,0,1,188.37,337.91Z" transform="translate(-33.38 -29.14)"/><rect class="cls-13" x="170.51" y="267.13" width="30.36" height="32.28" rx="2" transform="translate(-130.7 68.03) rotate(-23.43)"/><path class="cls-8" d="M179.22,304.49a2.85,2.85,0,0,1-1.11-.22,3,3,0,0,1-1.65-1.6l-11.24-25.94a3,3,0,0,1,0-2.29,3,3,0,0,1,1.6-1.66L191,262.31a3,3,0,0,1,4,1.56l11.24,25.94a3,3,0,0,1-1.57,3.95h0l-24.18,10.48A3.1,3.1,0,0,1,179.22,304.49Zm12.94-40.43a1.14,1.14,0,0,0-.4.08l-24.18,10.48a1,1,0,0,0-.54.55,1,1,0,0,0,0,.77l11.24,25.94a.93.93,0,0,0,.55.53,1,1,0,0,0,.77,0l24.18-10.48a1,1,0,0,0,.52-1.32l-11.24-25.94A1,1,0,0,0,192.16,264.06Zm12,28.78h0Z" transform="translate(-33.38 -29.14)"/><path class="cls-8" d="M178.41,279.1a2.18,2.18,0,0,1-.87-.17,2.33,2.33,0,0,1-1.3-1.26l-1.32-3a.5.5,0,1,1,.91-.39l1.32,3a1.38,1.38,0,0,0,1.8.71l.22-.1a1.06,1.06,0,0,0,.55-1.39l-3.34-7.69a1.08,1.08,0,0,0-1.43-.57l-.38.16a1.16,1.16,0,0,0-.6,1.53l.08.19a.5.5,0,0,1-.26.65.5.5,0,0,1-.66-.25l-.08-.19a2.16,2.16,0,0,1,1.12-2.84l.38-.17a2.1,2.1,0,0,1,2.75,1.09l3.34,7.7a2.06,2.06,0,0,1-1.07,2.7l-.23.1A2.35,2.35,0,0,1,178.41,279.1Z" transform="translate(-33.38 -29.14)"/><path class="cls-12" d="M192.59,267.74a2.12,2.12,0,1,1-3,0A2.12,2.12,0,0,1,192.59,267.74Z" transform="translate(-33.38 -29.14)"/><rect class="cls-12" x="227.65" y="198.16" width="67.88" height="91" rx="1.28" transform="translate(-107.8 92.46) rotate(-23)"/><path class="cls-8" d="M248.81,299.91a2.82,2.82,0,0,1-2.56-1.7L211.69,216.8a2.78,2.78,0,0,1,1.47-3.64l60.13-25.53a2.81,2.81,0,0,1,2.13,0,2.78,2.78,0,0,1,1.52,1.49l34.56,81.42a2.78,2.78,0,0,1-1.47,3.64L249.9,299.69A3,3,0,0,1,248.81,299.91Zm-34.27-84.08,34.39,81,59.72-25.36-34.39-81Z" transform="translate(-33.38 -29.14)"/><path class="cls-10" d="M271.64,236.91,250.52,234a5.13,5.13,0,0,0-2.66.26c-2,.81-2.67,3-1.7,5.36l8.06,19.72c1,2.4,3,3.46,5,2.64a5.12,5.12,0,0,0,2.08-1.67l13.06-16.85a4.17,4.17,0,0,0,.9-4.2A4.22,4.22,0,0,0,271.64,236.91Zm.55,6.52-13.06,16.84c.12-.69-.31-.33-.73-.16-1.28.52-2-.89-2.28-1.51l-8.05-19.73c-.26-.63-.72-2.15.56-2.67a3.07,3.07,0,0,1,1.61-.13L271.36,239a2.31,2.31,0,0,1,1.95,1.12C273.55,240.64,273.32,241.43,272.19,243.43Z" transform="translate(-33.38 -29.14)"/><rect class="cls-12" x="219.29" y="264.22" width="67.88" height="91" rx="1.28" transform="translate(15.94 -63.62) rotate(8.63)"/><path class="cls-8" d="M278.9,361.12a3,3,0,0,1-.42,0h0l-64.59-9.8a2.78,2.78,0,0,1-2.33-3.17l13.27-87.44a2.78,2.78,0,0,1,3.16-2.33l64.59,9.8a2.78,2.78,0,0,1,2.33,3.16l-13.27,87.45a2.78,2.78,0,0,1-2.74,2.36Zm-64.34-12.76,64.15,9.73,13.2-87-64.15-9.73Z" transform="translate(-33.38 -29.14)"/><path class="cls-12" d="M248.5,275.42h-.15L236,273.53a1,1,0,0,1-.84-1.14,1,1,0,0,1,1.14-.84l12.4,1.88a1,1,0,0,1-.15,2Z" transform="translate(-33.38 -29.14)"/><path class="cls-12" d="M256.37,290.05h-.15l-24.32-3.69a1,1,0,0,1,.3-2l24.32,3.69a1,1,0,0,1-.15,2Z" transform="translate(-33.38 -29.14)"/><path class="cls-12" d="M275.82,325.84h-.15L227,318.45a1,1,0,0,1,.3-2L276,323.85a1,1,0,0,1,.84,1.14A1,1,0,0,1,275.82,325.84Z" transform="translate(-33.38 -29.14)"/><path class="cls-12" d="M252,339.14h-.15L224.53,335a1,1,0,1,1,.3-2l27.34,4.14a1,1,0,0,1,.84,1.14A1,1,0,0,1,252,339.14Z" transform="translate(-33.38 -29.14)"/><path class="cls-10" d="M265.62,307.54l-16.4-13.6a5.16,5.16,0,0,0-2.4-1.19c-2.12-.36-3.84,1.11-4.27,3.66l-3.59,21c-.43,2.55.7,4.5,2.82,4.86a5.17,5.17,0,0,0,2.66-.32l20-7.4a3.82,3.82,0,0,0,1.2-7Zm-3,5.83-20,7.4c.46-.53-.09-.45-.53-.53-1.37-.23-1.25-1.81-1.14-2.48l3.59-21c.11-.67.52-2.2,1.89-2a3.17,3.17,0,0,1,1.43.74l16.4,13.61a2.28,2.28,0,0,1,1.07,2C265.27,311.72,264.66,312.27,262.65,313.37Z" transform="translate(-33.38 -29.14)"/><path class="cls-12" d="M289.41,424.07l-115,.24a11,11,0,0,1-11-11l-.17-77.64a11,11,0,0,1,11-11l115-.24a11,11,0,0,1,11,11l.16,77.65A11,11,0,0,1,289.41,424.07Z" transform="translate(-33.38 -29.14)"/><path class="cls-8" d="M174.39,425.31a12,12,0,0,1-12-12l-.17-77.65a12,12,0,0,1,12-12l115-.24h0a12,12,0,0,1,12,12l.16,77.64a12,12,0,0,1-12,12v0l-115,.24Zm114.84-99.86h0l-115,.24a10,10,0,0,0-10,10l.17,77.64a10,10,0,0,0,10,10h0l115-.24h0a10,10,0,0,0,10-10l-.16-77.64A10,10,0,0,0,289.23,325.45Z" transform="translate(-33.38 -29.14)"/><path class="cls-14" d="M290.35,305.77l-29,.06a9.81,9.81,0,0,0-9.76,9.8l0,13.88-73.47.15a15,15,0,0,0-14.91,15l.15,69.73a15,15,0,0,0,15,14.91l107.09-.22a15,15,0,0,0,14.91-15l-.14-68.3v-1.43l-.06-28.82A9.81,9.81,0,0,0,290.35,305.77Z" transform="translate(-33.38 -29.14)"/><path class="cls-8" d="M178.33,430.78a16.46,16.46,0,0,1-16.44-16.41l-.15-69.73a16.47,16.47,0,0,1,16.41-16.48l72-.15,0-12.38a11.3,11.3,0,0,1,11.25-11.3l29-.06h0a11.28,11.28,0,0,1,11.27,11.25l.21,98.56a16.46,16.46,0,0,1-16.41,16.48l-107.09.22Zm112-123.51-29,.06a8.31,8.31,0,0,0-8.26,8.3l0,13.88a1.52,1.52,0,0,1-.44,1.06,1.5,1.5,0,0,1-1.06.44l-73.47.15a13.46,13.46,0,0,0-13.41,13.47l.15,69.74a13.45,13.45,0,0,0,13.44,13.41h0l107.09-.22a13.46,13.46,0,0,0,13.41-13.48l-.21-98.55a8.28,8.28,0,0,0-8.27-8.26Zm0-1.5h0Z" transform="translate(-33.38 -29.14)"/><path class="cls-16" d="M289.35,316.89l-26,.06a8.77,8.77,0,0,0-8.73,8.77l0,12.42-65.74.14a13.41,13.41,0,0,0-13.34,13.4l.13,62.4a13.42,13.42,0,0,0,13.4,13.35l95.82-.21a13.41,13.41,0,0,0,13.34-13.4l-.13-61.12v-1.28l-.06-25.8A8.77,8.77,0,0,0,289.35,316.89Z" transform="translate(-33.38 -29.14)"/><path class="cls-12" d="M290.85,414.68a4.88,4.88,0,1,1-4.88-4.89A4.88,4.88,0,0,1,290.85,414.68Z" transform="translate(-33.38 -29.14)"/><path class="cls-12" d="M294.27,332.13a1,1,0,0,1-1-1V317.84a4.24,4.24,0,0,0-4.41-4h-9.69a1,1,0,0,1,0-2h9.69a6.24,6.24,0,0,1,6.41,6v13.29A1,1,0,0,1,294.27,332.13Z" transform="translate(-33.38 -29.14)"/><path class="cls-12" d="M222.74,371.57a2.5,2.5,0,0,1-1.75-4.28l11.75-11.55L244.3,367.3a2.5,2.5,0,1,1-3.53,3.54l-8.06-8.06-8.22,8.07A2.49,2.49,0,0,1,222.74,371.57Z" transform="translate(-33.38 -29.14)"/><path class="cls-12" d="M232.64,387.06a2.5,2.5,0,0,1-2.5-2.5v-25.3a2.5,2.5,0,0,1,5,0v25.3A2.5,2.5,0,0,1,232.64,387.06Z" transform="translate(-33.38 -29.14)"/><path class="cls-12" d="M251,399.07h-37.1a5.39,5.39,0,0,1-5.38-5.37V380.22a2.5,2.5,0,0,1,5,0V393.7a.38.38,0,0,0,.38.37H251a.67.67,0,0,0,.67-.67V380.22a2.5,2.5,0,1,1,5,0V393.4A5.67,5.67,0,0,1,251,399.07Z" transform="translate(-33.38 -29.14)"/><rect class="cls-14" x="440.29" y="312.12" width="136.97" height="99.62" rx="14.94" transform="translate(-34.14 -28.07) rotate(-0.12)"/><path class="cls-8" d="M455.3,413.35a16.51,16.51,0,0,1-16.44-16.41l-.14-69.73a16.46,16.46,0,0,1,16.4-16.48l107.09-.22h0a16.46,16.46,0,0,1,16.44,16.4l.15,69.74a16.46,16.46,0,0,1-16.41,16.47h0l-107.09.23Zm107.13-1.73h0Zm-.18-98.11h0l-107.09.22a13.46,13.46,0,0,0-13.41,13.47l.14,69.73a13.49,13.49,0,0,0,13.44,13.42h0l107.09-.23a13.49,13.49,0,0,0,13.42-13.47l-.15-69.73A13.46,13.46,0,0,0,562.25,313.51Z" transform="translate(-33.38 -29.14)"/><rect class="cls-13" x="440.29" y="312.12" width="136.97" height="99.62" rx="14.94" transform="translate(-34.14 -28.07) rotate(-0.12)"/><path class="cls-8" d="M455.3,413.35a16.51,16.51,0,0,1-16.44-16.41l-.14-69.73a16.46,16.46,0,0,1,16.4-16.48l107.09-.22h0a16.46,16.46,0,0,1,16.44,16.4l.15,69.74a16.46,16.46,0,0,1-16.41,16.47h0l-107.09.23Zm107.13-1.73h0Zm-.18-98.11h0l-107.09.22a13.46,13.46,0,0,0-13.41,13.47l.14,69.73a13.49,13.49,0,0,0,13.44,13.42h0l107.09-.23a13.49,13.49,0,0,0,13.42-13.47l-.15-69.73A13.46,13.46,0,0,0,562.25,313.51Z" transform="translate(-33.38 -29.14)"/><rect class="cls-15" x="440.29" y="312.12" width="136.97" height="99.62" rx="14.94" transform="translate(-34.14 -28.07) rotate(-0.12)"/><rect class="cls-12" x="440.29" y="318.34" width="136.97" height="99.62" rx="10.99" transform="translate(-34.16 -28.07) rotate(-0.12)"/><path class="cls-8" d="M451.36,419.08a12,12,0,0,1-12-12l-.16-77.64a12,12,0,0,1,12-12l115-.24h0a12,12,0,0,1,12,12l.16,77.64a12,12,0,0,1-12,12l-115,.24Zm115-2.24v0a10,10,0,0,0,10-10l-.16-77.64a10,10,0,0,0-10-10h0l-115,.24a10,10,0,0,0-10,10l.16,77.65a10,10,0,0,0,10,10h0Z" transform="translate(-33.38 -29.14)"/><path class="cls-12" d="M566.38,424.07l-115,.24a11,11,0,0,1-11-11l-.16-77.64a11,11,0,0,1,11-11l115-.24a11,11,0,0,1,11,11l.17,77.65A11,11,0,0,1,566.38,424.07Z" transform="translate(-33.38 -29.14)"/><path class="cls-8" d="M451.36,425.31a12,12,0,0,1-12-12l-.16-77.65a12,12,0,0,1,12-12l115-.24h0a12,12,0,0,1,12,12l.16,77.64a12,12,0,0,1-12,12v0l-115,.24ZM566.2,325.45h0l-115,.24a10,10,0,0,0-10,10l.16,77.64a10,10,0,0,0,10,10h0l115-.24h0a10,10,0,0,0,10-10l-.16-77.64A10,10,0,0,0,566.2,325.45Z" transform="translate(-33.38 -29.14)"/><path class="cls-13" d="M567.32,305.77l-29,.06a9.8,9.8,0,0,0-9.75,9.8l0,13.88-73.47.15a15,15,0,0,0-14.91,15l.14,69.73a15,15,0,0,0,15,14.91l107.09-.22a15,15,0,0,0,14.91-15l-.15-68.3v-1.43l-.06-28.82A9.81,9.81,0,0,0,567.32,305.77Z" transform="translate(-33.38 -29.14)"/><path class="cls-8" d="M455.3,430.78a16.46,16.46,0,0,1-16.45-16.41l-.14-69.73a16.47,16.47,0,0,1,16.41-16.48l72-.15,0-12.38a11.3,11.3,0,0,1,11.25-11.3l29-.06h0a11.3,11.3,0,0,1,11.28,11.25l.21,98.56a16.51,16.51,0,0,1-16.41,16.48l-107.09.22Zm112-123.51-29,.06a8.31,8.31,0,0,0-8.26,8.3l0,13.88a1.49,1.49,0,0,1-1.49,1.5l-73.47.15a13.46,13.46,0,0,0-13.41,13.47l.14,69.74a13.46,13.46,0,0,0,13.45,13.41h0l107.09-.22a13.49,13.49,0,0,0,13.42-13.48l-.21-98.55a8.31,8.31,0,0,0-8.28-8.26Zm0-1.5h0Z" transform="translate(-33.38 -29.14)"/><path class="cls-16" d="M566,316.89l-25.95.06a8.77,8.77,0,0,0-8.73,8.77l0,12.42-65.73.14a13.39,13.39,0,0,0-13.34,13.4l.13,62.4a13.41,13.41,0,0,0,13.4,13.35l95.81-.21A13.39,13.39,0,0,0,575,413.82l-.12-61.12v-1.28l-.05-25.8A8.78,8.78,0,0,0,566,316.89Z" transform="translate(-33.38 -29.14)"/><path class="cls-12" d="M567.54,414.68a4.89,4.89,0,1,1-4.88-4.89A4.89,4.89,0,0,1,567.54,414.68Z" transform="translate(-33.38 -29.14)"/><path class="cls-12" d="M571,332.13a1,1,0,0,1-1-1V317.84a4.24,4.24,0,0,0-4.41-4h-9.68a1,1,0,0,1,0-2h9.68a6.24,6.24,0,0,1,6.41,6v13.29A1,1,0,0,1,571,332.13Z" transform="translate(-33.38 -29.14)"/><path class="cls-12" d="M512.62,388.08l-11.56-11.57a2.5,2.5,0,0,1,3.53-3.53l8.06,8.06,8.22-8.08a2.5,2.5,0,0,1,3.5,3.57Z" transform="translate(-33.38 -29.14)"/><path class="cls-12" d="M512.72,387.06a2.5,2.5,0,0,1-2.5-2.5v-25.3a2.5,2.5,0,0,1,5,0v25.3A2.5,2.5,0,0,1,512.72,387.06Z" transform="translate(-33.38 -29.14)"/><path class="cls-12" d="M531.13,399.07H494a5.38,5.38,0,0,1-5.37-5.37V380.22a2.5,2.5,0,0,1,5,0V393.7a.38.38,0,0,0,.37.37h37.11a.66.66,0,0,0,.66-.67V380.22a2.5,2.5,0,0,1,5,0V393.4A5.67,5.67,0,0,1,531.13,399.07Z" transform="translate(-33.38 -29.14)"/><rect class="cls-12" x="469.04" y="201.37" width="63.45" height="85.06" rx="1.28" transform="translate(203.75 -275.9) rotate(35.78)"/><path class="cls-8" d="M501.34,298a2.78,2.78,0,0,1-1.61-.52h0l-49.41-35.61a2.79,2.79,0,0,1-.63-3.88L497.94,191a2.75,2.75,0,0,1,1.81-1.12,2.72,2.72,0,0,1,2.06.49L551.22,226a2.78,2.78,0,0,1,.63,3.87L503.6,296.8a2.75,2.75,0,0,1-1.81,1.12Zm.14-3Zm-49.22-35.47,49,35.34,48-66.57-49-35.35Z" transform="translate(-33.38 -29.14)"/><rect class="cls-10" x="469.04" y="201.37" width="63.45" height="85.06" rx="1.28" transform="translate(203.75 -275.9) rotate(35.78)"/><path class="cls-8" d="M501.34,298a2.78,2.78,0,0,1-1.61-.52h0l-49.41-35.61a2.79,2.79,0,0,1-.63-3.88L497.94,191a2.75,2.75,0,0,1,1.81-1.12,2.72,2.72,0,0,1,2.06.49L551.22,226a2.78,2.78,0,0,1,.63,3.87L503.6,296.8a2.75,2.75,0,0,1-1.81,1.12Zm.14-3Zm-49.22-35.47,49,35.34,48-66.57-49-35.35Z" transform="translate(-33.38 -29.14)"/><path class="cls-8" d="M530.85,242.49a1,1,0,0,1-.59-.19l-8.52-6.14a1,1,0,0,1,1.17-1.62l8.52,6.14a1,1,0,0,1-.58,1.81Z" transform="translate(-33.38 -29.14)"/><path class="cls-8" d="M521.71,255.18a1.06,1.06,0,0,1-.59-.19l-37.3-26.89a1,1,0,1,1,1.17-1.62l37.3,26.88a1,1,0,0,1-.58,1.82Z" transform="translate(-33.38 -29.14)"/><path class="cls-13" d="M515.49,263.8a1,1,0,0,1-.59-.18l-14.82-10.69a1,1,0,1,1,1.17-1.62L516.07,262a1,1,0,0,1-.58,1.81Z" transform="translate(-33.38 -29.14)"/><path class="cls-13" d="M487.26,243.46a1,1,0,0,1-.58-.19l-9.08-6.54a1,1,0,0,1,1.17-1.62l9.08,6.54a1,1,0,0,1,.22,1.39A1,1,0,0,1,487.26,243.46Z" transform="translate(-33.38 -29.14)"/><path class="cls-8" d="M493.19,262.4a1.05,1.05,0,0,1-.58-.19l-23-16.56a1,1,0,0,1-.22-1.4,1,1,0,0,1,1.39-.23l23,16.56A1,1,0,0,1,494,262,1,1,0,0,1,493.19,262.4Z" transform="translate(-33.38 -29.14)"/><rect class="cls-12" x="457.4" y="188.46" width="67.88" height="91" rx="1.28" transform="translate(83.37 -189.94) rotate(21.04)"/><path class="cls-8" d="M505.94,289.74a2.68,2.68,0,0,1-1-.19h0L444,266.1a2.79,2.79,0,0,1-1.6-3.59L474.14,180a2.78,2.78,0,0,1,3.59-1.6l61,23.46a2.78,2.78,0,0,1,1.59,3.59L508.54,288A2.79,2.79,0,0,1,505.94,289.74Zm-60.68-26.36,60.56,23.29,31.59-82.13-60.55-23.3Z" transform="translate(-33.38 -29.14)"/><path class="cls-10" d="M504.25,236,492,221.12a4.68,4.68,0,0,0-1.94-1.46c-1.82-.68-3.59.33-4.41,2.52l-6.75,18.08c-.82,2.19-.14,4.12,1.68,4.8a4.7,4.7,0,0,0,2.42.16L502,242a3.46,3.46,0,0,0,2.25-6Zm-3.63,4.68-19,3.19c.5-.39,0-.42-.39-.56-1.17-.44-.8-1.83-.58-2.4l6.74-18.07c.22-.58.85-1.87,2-1.43a2.85,2.85,0,0,1,1.15.89l12.28,14.89a2.1,2.1,0,0,1,.62,1.94C503.23,239.65,502.6,240,500.62,240.68Z" transform="translate(-33.38 -29.14)"/><rect class="cls-13" x="334.38" y="135.12" width="79.46" height="107.38" rx="1.58" transform="translate(47.69 -139.89) rotate(18.85)"/><path class="cls-8" d="M393.37,253.54a2.87,2.87,0,0,1-1-.17l-72.21-24.65a3.08,3.08,0,0,1-1.92-3.91l33.68-98.63a3.07,3.07,0,0,1,3.91-1.92l72.21,24.65a3.08,3.08,0,0,1,1.92,3.91l-33.68,98.63A3.1,3.1,0,0,1,393.37,253.54ZM354.85,127.09a.09.09,0,0,0-.08.06l-33.68,98.63a.09.09,0,0,0,.05.1l72.21,24.65h0s.09,0,.1-.05l33.68-98.63a.1.1,0,0,0-.05-.1L354.87,127.1Z" transform="translate(-33.38 -29.14)"/><rect class="cls-12" x="334.38" y="135.12" width="79.46" height="107.38" rx="1.58" transform="translate(-17.11 -58.4) rotate(4.58)"/><path class="cls-8" d="M408,246.89h-.25l-76.06-6.09a3.09,3.09,0,0,1-2.1-1.08,3,3,0,0,1-.72-2.24l8.32-103.89a3.08,3.08,0,0,1,3.32-2.83l76.05,6.1a3.08,3.08,0,0,1,2.83,3.31l-8.32,103.89a3.1,3.1,0,0,1-3.07,2.84ZM340.24,133.74a.09.09,0,0,0-.08.08l-8.32,103.89a.07.07,0,0,0,.07.08l76.06,6.1h0a.11.11,0,0,0,.09-.08l8.32-103.89a.08.08,0,0,0-.08-.08l-76.05-6.1Z" transform="translate(-33.38 -29.14)"/><path class="cls-10" d="M386.05,185.43l-17.57-12.06a5.07,5.07,0,0,0-2.5-1c-2.14-.17-3.72,1.45-3.92,4l-1.66,21.25c-.2,2.57,1.11,4.42,3.25,4.58a5.08,5.08,0,0,0,2.62-.56l19.23-9.18a3.82,3.82,0,0,0,.55-7.09Zm-2.43,6.07-19.23,9.19c.41-.57-.13-.44-.58-.48-1.38-.11-1.41-1.69-1.35-2.37l1.66-21.25c.05-.67.32-2.24,1.7-2.13a3.21,3.21,0,0,1,1.49.6l17.58,12.07a2.3,2.3,0,0,1,1.24,1.87C386.08,189.62,385.53,190.22,383.62,191.5Z" transform="translate(-33.38 -29.14)"/><path class="cls-17" d="M363.29,140" transform="translate(-33.38 -29.14)"/></g></svg>