<svg width="58" height="58" viewBox="0 0 58 58" fill="none" xmlns="http://www.w3.org/2000/svg">
<path d="M28.9999 19.3334C34.3299 19.3334 38.6665 23.6701 38.6665 29C38.6665 34.33 34.3299 38.6667 28.9999 38.6667C23.67 38.6667 19.3333 34.33 19.3333 29C19.3333 23.6701 23.67 19.3334 28.9999 19.3334ZM28.9999 36.7333C33.2641 36.7333 36.7332 33.2642 36.7332 29C36.7332 24.7358 33.2641 21.2667 28.9999 21.2667C24.7357 21.2667 21.2666 24.7358 21.2666 29C21.2666 33.2642 24.7357 36.7333 28.9999 36.7333Z" fill="#316FEA"/>
<path d="M20.1138 43.354C19.9325 43.5353 19.6872 43.6368 19.4298 43.6368C19.1725 43.6368 18.9272 43.5353 18.7459 43.354L14.6448 39.2529C14.4636 39.0717 14.3621 38.8252 14.3621 38.569C14.3621 38.3128 14.4636 38.0663 14.6448 37.8851L16.3909 36.1403C15.8024 35.1035 15.3457 34.0076 15.0303 32.8657H12.5665C12.0324 32.8657 11.5999 32.4331 11.5999 31.899V26.099C11.5999 25.565 12.0324 25.1324 12.5665 25.1324H15.0291C15.3457 23.9893 15.8 22.8921 16.3885 21.8566L14.6448 20.113C14.4636 19.9317 14.3621 19.6852 14.3621 19.429C14.3621 19.1729 14.4636 18.9264 14.6448 18.7451L18.7459 14.6441C19.1241 14.2658 19.7343 14.2658 20.1125 14.6441L21.8562 16.3865C22.8917 15.798 23.9889 15.3425 25.132 15.0271V12.5669C25.132 12.0329 25.5645 11.6003 26.0986 11.6003H31.8986C32.4327 11.6003 32.8653 12.0329 32.8653 12.5669V15.0295C34.0071 15.3461 35.1031 15.8004 36.1399 16.3901L37.8847 14.6453C38.0659 14.464 38.3112 14.3625 38.5686 14.3625C38.826 14.3625 39.0713 14.464 39.2525 14.6453L43.3536 18.7463C43.5348 18.9276 43.6363 19.1741 43.6363 19.4303C43.6363 19.6864 43.5348 19.9329 43.3536 20.1142L41.6075 21.859C42.196 22.8957 42.6528 23.9917 42.9681 25.1336H45.4331C45.9672 25.1336 46.3998 25.5662 46.3998 26.1002V31.9002C46.3998 32.4343 45.9672 32.8669 45.4331 32.8669H42.9705C42.654 34.01 42.1996 35.1071 41.6112 36.1427L43.3548 37.8863C43.536 38.0676 43.6376 38.3141 43.6376 38.5702C43.6376 38.8264 43.536 39.0729 43.3548 39.2541L39.2537 43.3552C38.8755 43.7334 38.2653 43.7334 37.8871 43.3552L36.1435 41.6128C35.1079 42.2013 34.0108 42.6568 32.8677 42.9722V45.4335C32.8677 45.9676 32.4351 46.4002 31.901 46.4002H26.101C25.567 46.4002 25.1344 45.9676 25.1344 45.4335V42.971C23.9925 42.6544 22.8965 42.2 21.8598 41.6104L20.1138 43.354ZM26.3065 41.2696C26.7499 41.3663 27.0665 41.7602 27.0665 42.2145V44.4669H30.9332V42.2145C30.9332 41.7602 31.2497 41.3675 31.6932 41.2696C33.1408 40.953 34.5122 40.3839 35.7689 39.578C36.1507 39.3339 36.651 39.3871 36.9748 39.7085L38.5698 41.3035L41.3043 38.569L39.7093 36.974C39.3878 36.6526 39.3335 36.1511 39.5788 35.7681C40.3835 34.5126 40.9538 33.1412 41.2704 31.6912C41.3683 31.2489 41.761 30.9324 42.2153 30.9324H44.4665V27.0657H42.2141C41.7598 27.0657 41.3671 26.7491 41.2692 26.3057C40.9526 24.8605 40.3823 23.4902 39.5751 22.2324C39.3298 21.8493 39.3842 21.3479 39.7056 21.0265L41.3031 19.429L38.5686 16.6946L36.9724 18.292C36.651 18.6134 36.1483 18.6666 35.7665 18.4225C34.5074 17.6153 33.1371 17.045 31.692 16.7296C31.2485 16.6318 30.9319 16.2391 30.9319 15.7847V13.5336H27.0653V15.7859C27.0653 16.2403 26.7487 16.633 26.3052 16.7308C24.8577 17.0474 23.4862 17.6165 22.2295 18.4225C21.8465 18.6678 21.3463 18.6146 21.0236 18.292L19.4286 16.697L16.6942 19.4315L18.2892 21.0265C18.6106 21.3479 18.665 21.8493 18.4197 22.2324C17.6149 23.4878 17.0446 24.8593 16.728 26.3093C16.6301 26.7515 16.2374 27.0681 15.7831 27.0681H13.5332V30.9348H15.7855C16.2398 30.9348 16.6326 31.2514 16.7304 31.6948C17.047 33.14 17.6173 34.5102 18.4245 35.7681C18.6698 36.1511 18.6154 36.6526 18.294 36.974L16.6966 38.5714L19.431 41.3059L21.0273 39.7085C21.3499 39.3858 21.8513 39.3339 22.2332 39.578C23.491 40.3851 24.8613 40.9543 26.3065 41.2696Z" fill="#316FEA"/>
<path d="M28.9998 52.2C30.5985 52.2 31.8998 53.5014 31.8998 55.1C31.8998 56.6986 30.5985 58 28.9998 58C27.4012 58 26.0999 56.6986 26.0999 55.1C26.0999 53.5014 27.4012 52.2 28.9998 52.2ZM28.9998 56.0666C29.5339 56.0666 29.9665 55.6328 29.9665 55.1C29.9665 54.5671 29.5339 54.1333 28.9998 54.1333C28.4658 54.1333 28.0332 54.5671 28.0332 55.1C28.0332 55.6328 28.4658 56.0666 28.9998 56.0666Z" fill="#316FEA"/>
<path d="M28.9998 5.79996C27.4012 5.79996 26.0999 4.49858 26.0999 2.89996C26.0999 1.30134 27.4012 -3.33786e-05 28.9998 -3.33786e-05C30.5985 -3.33786e-05 31.8998 1.30134 31.8998 2.89996C31.8998 4.49858 30.5985 5.79996 28.9998 5.79996ZM28.9998 1.9333C28.4658 1.9333 28.0332 2.36709 28.0332 2.89996C28.0332 3.43284 28.4658 3.86663 28.9998 3.86663C29.5339 3.86663 29.9665 3.43284 29.9665 2.89996C29.9665 2.36709 29.5339 1.9333 28.9998 1.9333Z" fill="#316FEA"/>
<path d="M55.0999 31.9002C53.5013 31.9002 52.2 30.5988 52.2 29.0002C52.2 27.4016 53.5013 26.1002 55.0999 26.1002C56.6986 26.1002 57.9999 27.4016 57.9999 29.0002C57.9999 30.5988 56.6986 31.9002 55.0999 31.9002ZM55.0999 28.0335C54.5659 28.0335 54.1333 28.4673 54.1333 29.0002C54.1333 29.5331 54.5659 29.9669 55.0999 29.9669C55.634 29.9669 56.0666 29.5331 56.0666 29.0002C56.0666 28.4673 55.634 28.0335 55.0999 28.0335Z" fill="#316FEA"/>
<path d="M2.89999 26.1002C4.49862 26.1002 5.79999 27.4016 5.79999 29.0002C5.79999 30.5988 4.49862 31.9002 2.89999 31.9002C1.30137 31.9002 0 30.5988 0 29.0002C0 27.4016 1.30137 26.1002 2.89999 26.1002ZM2.89999 29.9669C3.43408 29.9669 3.86666 29.5331 3.86666 29.0002C3.86666 28.4673 3.43408 28.0335 2.89999 28.0335C2.36591 28.0335 1.93333 28.4673 1.93333 29.0002C1.93333 29.5331 2.36591 29.9669 2.89999 29.9669Z" fill="#316FEA"/>
<path d="M16.7947 50.9593L17.4496 48.9945C17.5548 48.6767 17.8182 48.4363 18.1444 48.359C18.2193 48.342 18.2931 48.3324 18.3668 48.3324C18.6205 48.3324 18.867 48.4315 19.0507 48.6151L23.884 53.4484C24.1426 53.707 24.2332 54.0901 24.1172 54.4369C24.0024 54.7836 23.6991 55.0362 23.3366 55.0869L16.57 56.0536C16.2341 56.1019 15.9054 55.9739 15.6915 55.7165C15.4764 55.4591 15.41 55.1099 15.5163 54.7909L16.1749 52.8165C9.02032 48.9547 3.89217 41.9898 2.39746 34.0112L4.29696 33.656C5.66479 40.9519 10.3048 47.3391 16.7947 50.9593ZM21.1496 53.4497L18.7897 51.0898L17.8448 53.9221L21.1496 53.4497Z" fill="#316FEA"/>
<path d="M55.6051 23.9875L53.7056 24.344C52.3342 17.042 47.693 10.6548 41.2043 7.03945L40.5493 9.0042C40.4442 9.32199 40.1808 9.56245 39.8545 9.63978C39.5283 9.71832 39.1863 9.61924 38.9483 9.38241L34.115 4.54908C33.8564 4.2905 33.7658 3.90746 33.8818 3.56067C33.9966 3.21387 34.2998 2.96133 34.6623 2.91058L41.429 1.94392C41.4761 1.93667 41.522 1.93304 41.5668 1.93304C41.8507 1.93304 42.1238 2.05871 42.3087 2.27983C42.5238 2.53721 42.5902 2.88642 42.4839 3.20542L41.8253 5.17983C48.9787 9.04045 54.1068 16.0053 55.6051 23.9875ZM36.8506 4.55029L39.2105 6.91137L40.1554 4.07904L36.8506 4.55029Z" fill="#316FEA"/>
<path d="M50.9603 41.2065L48.9943 40.5516C48.6765 40.4453 48.4361 40.1819 48.3587 39.8568C48.2826 39.5306 48.3793 39.1874 48.6173 38.9506L53.4506 34.1173C53.6343 33.9324 53.882 33.8345 54.1346 33.8345C54.2361 33.8345 54.34 33.8514 54.4403 33.884C54.7871 34 55.0396 34.3021 55.0916 34.6646L56.0582 41.4313C56.1053 41.7624 55.9785 42.0959 55.7199 42.3097C55.4613 42.5248 55.1121 42.5877 54.7943 42.4849L52.8199 41.8264C48.9701 48.9773 42.0053 54.1055 34.0122 55.6074L33.6558 53.7067C40.9674 52.3316 47.3546 47.6904 50.9603 41.2065ZM53.4494 36.8505L51.0896 39.2116L53.9219 40.1565L53.4494 36.8505Z" fill="#316FEA"/>
<path d="M9.64106 18.1445C9.71719 18.4708 9.62052 18.814 9.38248 19.0508L4.54916 23.8841C4.29057 24.1439 3.90874 24.2345 3.56074 24.1185C3.21395 24.0025 2.96141 23.7005 2.90945 23.338L1.94279 16.5713C1.89566 16.2402 2.02254 15.9067 2.28112 15.6928C2.45753 15.5454 2.67745 15.4681 2.89978 15.4681C3.00249 15.4681 3.1052 15.485 3.20549 15.5176L5.1799 16.1762C9.03448 9.0156 16.0005 3.88745 23.9888 2.39636L24.344 4.29707C17.036 5.66128 10.6488 10.3025 7.03953 16.7973L9.00548 17.4522C9.32448 17.5561 9.56373 17.8183 9.64106 18.1445ZM4.55036 21.1497L6.91023 18.7886L4.07791 17.8437L4.55036 21.1497Z" fill="#316FEA"/>
</svg>
