<svg width="56" height="56" viewBox="0 0 56 56" fill="none" xmlns="http://www.w3.org/2000/svg">
<path d="M52.1806 48.1797C54.2861 48.1797 56 46.4669 56 44.3603V5.46875C56 2.45328 53.5467 0 50.5312 0H5.46875C2.45328 0 0 2.45328 0 5.46875V44.3603C0 46.4658 1.71281 48.1797 3.81937 48.1797H5.03125V53.8125H1.09375C0.49 53.8125 0 54.3025 0 54.9062C0 55.51 0.49 56 1.09375 56H54.9062C55.51 56 56 55.51 56 54.9062C56 54.3025 55.51 53.8125 54.9062 53.8125H50.9688V48.1797H52.1806ZM2.1875 5.46875C2.1875 3.65969 3.65969 2.1875 5.46875 2.1875H50.5312C52.3403 2.1875 53.8125 3.65969 53.8125 5.46875V7.875H2.29688C2.25969 7.875 2.22359 7.87719 2.1875 7.88047V5.46875ZM12.0312 53.8125H7.21875V43.9688H12.0312V53.8125ZM24.2812 53.8125H19.4688V31.8752H24.2812V53.8125ZM36.5312 53.8125H31.7188V41.125H36.5312V53.8125ZM49.875 28.0547H42.875C42.2713 28.0547 41.7812 28.5447 41.7812 29.1484V34.6719C41.7812 35.2756 42.2713 35.7656 42.875 35.7656C43.4787 35.7656 43.9688 35.2756 43.9688 34.6719V30.2422H48.7812V53.8125H43.9688V42.0273C43.9688 41.4236 43.4787 40.9336 42.875 40.9336C42.2713 40.9336 41.7812 41.4236 41.7812 42.0273V53.8125H38.7188V40.0312C38.7188 39.4275 38.2287 38.9375 37.625 38.9375H30.625C30.0212 38.9375 29.5312 39.4275 29.5312 40.0312V53.8125H26.4688V30.7814C26.4688 30.1777 25.9788 29.6877 25.375 29.6877H18.375C17.7712 29.6877 17.2812 30.1777 17.2812 30.7814V53.8125H14.2188V42.875C14.2188 42.2713 13.7288 41.7812 13.125 41.7812H6.125C5.52125 41.7812 5.03125 42.2713 5.03125 42.875V45.9922H3.81937C2.91922 45.9922 2.1875 45.2605 2.1875 44.3603V10.057C2.22359 10.0603 2.26078 10.0625 2.29688 10.0625H53.8125V44.3603C53.8125 45.2605 53.0808 45.9922 52.1806 45.9922H50.9688V29.1484C50.9688 28.5447 50.4787 28.0547 49.875 28.0547Z" fill="#316FEA"/>
<path d="M49.0002 3.9375H24.2891C23.6853 3.9375 23.1953 4.4275 23.1953 5.03125C23.1953 5.635 23.6853 6.125 24.2891 6.125H49.0002C49.6039 6.125 50.0939 5.635 50.0939 5.03125C50.0939 4.4275 49.6039 3.9375 49.0002 3.9375Z" fill="#316FEA"/>
<path d="M12.1483 4.25797C11.9448 4.05453 11.6627 3.9375 11.375 3.9375C11.0873 3.9375 10.8052 4.05453 10.6017 4.25797C10.3983 4.46141 10.2812 4.74359 10.2812 5.03125C10.2812 5.31891 10.3983 5.60109 10.6017 5.80453C10.8052 6.00797 11.0873 6.125 11.375 6.125C11.6627 6.125 11.9448 6.00797 12.1483 5.80453C12.3517 5.60109 12.4688 5.31891 12.4688 5.03125C12.4688 4.74359 12.3517 4.46141 12.1483 4.25797Z" fill="#316FEA"/>
<path d="M7.77328 4.25797C7.56984 4.05453 7.28766 3.9375 7 3.9375C6.71234 3.9375 6.43016 4.05453 6.22672 4.25797C6.02328 4.46141 5.90625 4.74359 5.90625 5.03125C5.90625 5.31891 6.02328 5.60109 6.22672 5.80453C6.43016 6.00797 6.71234 6.125 7 6.125C7.28766 6.125 7.56984 6.00797 7.77328 5.80453C7.97672 5.60109 8.09375 5.31891 8.09375 5.03125C8.09375 4.74359 7.97672 4.46141 7.77328 4.25797Z" fill="#316FEA"/>
<path d="M16.5233 4.25797C16.3198 4.05453 16.0388 3.9375 15.75 3.9375C15.4623 3.9375 15.1802 4.05453 14.9767 4.25797C14.7733 4.46141 14.6562 4.74359 14.6562 5.03125C14.6562 5.31891 14.7733 5.60109 14.9767 5.80453C15.1802 6.00797 15.4623 6.125 15.75 6.125C16.0377 6.125 16.3198 6.00797 16.5233 5.80453C16.7267 5.60109 16.8438 5.31891 16.8438 5.03125C16.8438 4.74359 16.7267 4.46141 16.5233 4.25797Z" fill="#316FEA"/>
<path d="M43.6483 37.7967C43.4448 37.5922 43.1627 37.4763 42.875 37.4763C42.5873 37.4763 42.3052 37.5922 42.1017 37.7967C41.8983 38.0002 41.7812 38.2824 41.7812 38.57C41.7812 38.8577 41.8983 39.1398 42.1017 39.3433C42.3052 39.5467 42.5873 39.6638 42.875 39.6638C43.1627 39.6638 43.4448 39.5467 43.6483 39.3433C43.8517 39.1398 43.9688 38.8577 43.9688 38.57C43.9688 38.2813 43.8517 38.0002 43.6483 37.7967Z" fill="#316FEA"/>
<path d="M46.375 14.8684C44.2039 14.8684 42.4375 16.6348 42.4375 18.8059C42.4375 19.6678 42.7164 20.4662 43.1889 21.1159L35.9232 28.3817C35.3599 28.07 34.7113 27.8917 34.0222 27.8917C33.4021 27.8917 32.8136 28.0372 32.2919 28.2931L24.7057 20.7069C25.0174 20.1436 25.1957 19.495 25.1957 18.8059C25.1957 16.6348 23.4293 14.8684 21.2582 14.8684C19.0871 14.8684 17.3207 16.6348 17.3207 18.8059C17.3207 19.565 17.5372 20.2737 17.9102 20.8753L11.4516 27.3339C10.8883 27.0222 10.2397 26.8439 9.55176 26.8439C7.38066 26.8439 5.61426 28.6103 5.61426 30.7814C5.61426 32.9525 7.38066 34.7189 9.55176 34.7189C11.7228 34.7189 13.4893 32.9525 13.4893 30.7814C13.4893 30.0923 13.311 29.4448 12.9993 28.8805L19.5355 22.3442C20.0561 22.5991 20.6413 22.7423 21.2593 22.7423C21.9483 22.7423 22.5958 22.5641 23.1591 22.2523L30.671 29.7642C30.3002 30.3647 30.0858 31.0712 30.0858 31.827C30.0858 33.9981 31.8522 35.7645 34.0233 35.7645C36.1944 35.7645 37.9608 33.9981 37.9608 31.827C37.9608 31.138 37.7825 30.4905 37.4708 29.9261L44.9313 22.4656C45.3786 22.6428 45.8664 22.7412 46.3761 22.7412C48.5472 22.7412 50.3136 20.9748 50.3136 18.8038C50.3125 16.6348 48.5461 14.8684 46.375 14.8684ZM9.55285 32.5314C8.58816 32.5314 7.80285 31.7461 7.80285 30.7814C7.80285 29.8167 8.58816 29.0314 9.55285 29.0314C10.5175 29.0314 11.3028 29.8167 11.3028 30.7814C11.3028 31.7461 10.5175 32.5314 9.55285 32.5314ZM21.2593 20.5559C20.2946 20.5559 19.5093 19.7706 19.5093 18.8059C19.5093 17.8413 20.2946 17.0559 21.2593 17.0559C22.2239 17.0559 23.0093 17.8413 23.0093 18.8059C23.0093 19.7706 22.2239 20.5559 21.2593 20.5559ZM34.0233 33.5781C33.0586 33.5781 32.2733 32.7928 32.2733 31.8281C32.2733 30.8634 33.0586 30.0781 34.0233 30.0781C34.988 30.0781 35.7733 30.8634 35.7733 31.8281C35.7733 32.7928 34.988 33.5781 34.0233 33.5781ZM46.375 20.5559C45.4103 20.5559 44.625 19.7706 44.625 18.8059C44.625 17.8413 45.4103 17.0559 46.375 17.0559C47.3397 17.0559 48.125 17.8413 48.125 18.8059C48.125 19.7706 47.3397 20.5559 46.375 20.5559Z" fill="#316FEA"/>
<path d="M16.2235 14.1039C16.0189 13.9005 15.7379 13.7834 15.4502 13.7834C15.1614 13.7834 14.8793 13.9005 14.6758 14.1039C14.4724 14.3074 14.3564 14.5895 14.3564 14.8772C14.3564 15.1649 14.4724 15.447 14.6758 15.6505C14.8804 15.8539 15.1614 15.9709 15.4502 15.9709C15.7379 15.9709 16.0189 15.8539 16.2235 15.6505C16.4269 15.447 16.5439 15.1649 16.5439 14.8772C16.5439 14.5895 16.4269 14.3074 16.2235 14.1039Z" fill="#316FEA"/>
<path d="M11.375 13.7834H6.125C5.52125 13.7834 5.03125 14.2734 5.03125 14.8772C5.03125 15.4809 5.52125 15.9709 6.125 15.9709H11.375C11.9788 15.9709 12.4688 15.4809 12.4688 14.8772C12.4688 14.2734 11.9788 13.7834 11.375 13.7834Z" fill="#316FEA"/>
<path d="M11.375 19.0334H6.125C5.52125 19.0334 5.03125 19.5234 5.03125 20.1272C5.03125 20.7309 5.52125 21.2209 6.125 21.2209H11.375C11.9788 21.2209 12.4688 20.7309 12.4688 20.1272C12.4688 19.5234 11.9788 19.0334 11.375 19.0334Z" fill="#316FEA"/>
</svg>
