<svg width="60" height="60" viewBox="0 0 60 60" fill="none" xmlns="http://www.w3.org/2000/svg">
<path d="M11.6719 16.043C11.1914 16.043 10.793 16.4414 10.793 16.9219C10.793 17.4023 11.1914 17.8008 11.6719 17.8008C12.1523 17.8008 12.5508 17.4023 12.5508 16.9219C12.5508 16.4414 12.1641 16.043 11.6719 16.043ZM27.7383 8.30859L29.1211 6.92578V14.4141C29.1211 14.8945 29.5195 15.293 30 15.293C30.4805 15.293 30.8789 14.8945 30.8789 14.4141V6.92578L32.2617 8.30859C32.6016 8.64844 33.1641 8.64844 33.5039 8.30859C33.8438 7.96875 33.8438 7.40625 33.5039 7.06641L31.207 4.76953C30.5508 4.11328 29.4609 4.11328 28.8047 4.76953L26.5078 7.06641C26.168 7.40625 26.168 7.96875 26.5078 8.30859C26.8477 8.64844 27.3984 8.64844 27.7383 8.30859ZM55.6055 10.5469H39.5625C39.5977 10.2422 39.6094 9.92578 39.6094 9.60938C39.6094 4.3125 35.2969 0 30 0C24.7031 0 20.3906 4.3125 20.3906 9.60938C20.3906 9.92578 20.4023 10.2422 20.4375 10.5469H4.39453C1.96875 10.5469 0 12.5156 0 14.9414V55.6055C0 58.0312 1.96875 60 4.39453 60H55.6055C58.0312 60 60 58.0312 60 55.6055V14.9414C60 12.5156 58.0312 10.5469 55.6055 10.5469ZM30 1.75781C34.3242 1.75781 37.8516 5.28516 37.8516 9.60938C37.8516 13.9336 34.3242 17.4609 30 17.4609C25.6758 17.4609 22.1484 13.9336 22.1484 9.60938C22.1484 5.28516 25.6758 1.75781 30 1.75781ZM58.2422 21.0938H16.6289C16.1484 21.0938 15.75 21.4922 15.75 21.9727C15.75 22.4531 16.1484 22.8516 16.6289 22.8516H58.2422V55.6055C58.2422 57.0586 57.0586 58.2422 55.6055 58.2422H4.39453C2.94141 58.2422 1.75781 57.0586 1.75781 55.6055V22.8516H18.3867C18.8672 22.8516 19.2656 22.4531 19.2656 21.9727C19.2656 21.4922 18.8672 21.0938 18.3867 21.0938H1.75781V14.9414C1.75781 13.4883 2.94141 12.3047 4.39453 12.3047H20.7773C21.9492 16.3008 25.6406 19.2188 30 19.2188C34.3594 19.2188 38.0508 16.3008 39.2227 12.3047H55.6055C57.0586 12.3047 58.2422 13.4883 58.2422 14.9414V21.0938ZM6.39844 16.043C5.91797 16.043 5.51953 16.4414 5.51953 16.9219C5.51953 17.4023 5.91797 17.8008 6.39844 17.8008C6.87891 17.8008 7.27734 17.4023 7.27734 16.9219C7.27734 16.4414 6.89062 16.043 6.39844 16.043ZM21.2461 43.7227H38.7656C40.7109 43.7227 42.3047 42.1406 42.3047 40.1836V29.8945C42.3047 27.9492 40.7227 26.3555 38.7656 26.3555H21.2461C19.3008 26.3555 17.707 27.9375 17.707 29.8945V40.1836C17.707 42.1406 19.2891 43.7227 21.2461 43.7227ZM19.4648 29.9062C19.4648 28.9219 20.2617 28.125 21.2461 28.125H38.7656C39.75 28.125 40.5469 28.9219 40.5469 29.9062V40.1953C40.5469 41.1797 39.75 41.9766 38.7656 41.9766H21.2461C20.2617 41.9766 19.4648 41.1797 19.4648 40.1953V29.9062ZM7.14844 50.2734V53.9062C7.14844 54.8438 7.91016 55.6055 8.84766 55.6055H51.1523C52.0898 55.6055 52.8516 54.8438 52.8516 53.9062V50.2734C52.8516 49.3359 52.0898 48.5742 51.1523 48.5742H40.875C40.3945 48.5742 39.9961 48.9727 39.9961 49.4531C39.9961 49.9336 40.3945 50.332 40.875 50.332H41.9648L40.793 53.8477H33.8555L35.0273 50.332H42.6328C43.1133 50.332 43.5117 49.9336 43.5117 49.4531C43.5117 48.9727 43.1133 48.5742 42.6328 48.5742H8.84766C7.91016 48.5742 7.14844 49.3359 7.14844 50.2734ZM43.8164 50.332H51.0938V53.8477H42.6445L43.8164 50.332ZM26.2383 50.332H33.1758L32.0039 53.8477H25.0664L26.2383 50.332ZM17.4492 50.332H24.3867L23.2148 53.8477H16.2773L17.4492 50.332ZM8.90625 50.332H15.5977L14.4258 53.8477H8.90625V50.332ZM28.4648 39.3516L33.1289 36.2109C33.9492 35.6719 33.9492 34.3945 33.1289 33.8555L28.4648 30.7148C27.5391 30.082 26.25 30.7852 26.25 31.8867V38.1562C26.2383 39.2812 27.5391 39.9844 28.4648 39.3516ZM28.0078 32.543L31.7227 35.0391L28.0078 37.5469V32.543ZM16.9453 16.043C16.4648 16.043 16.0664 16.4414 16.0664 16.9219C16.0664 17.4023 16.4648 17.8008 16.9453 17.8008C17.4258 17.8008 17.8242 17.4023 17.8242 16.9219C17.8242 16.4414 17.4375 16.043 16.9453 16.043Z" fill="#316FEA"/>
</svg>
