<svg width="58" height="58" viewBox="0 0 58 58" fill="none" xmlns="http://www.w3.org/2000/svg">
<path d="M29.0283 24.0156C28.7304 24.0156 28.4381 24.1368 28.2274 24.3475C28.0167 24.5582 27.8955 24.8505 27.8955 25.1484C27.8955 25.4464 28.0167 25.7386 28.2274 25.9493C28.4381 26.16 28.7304 26.2812 29.0283 26.2812C29.3262 26.2812 29.6185 26.16 29.8292 25.9493C30.0399 25.7386 30.1611 25.4464 30.1611 25.1484C30.1611 24.8505 30.0399 24.5582 29.8292 24.3475C29.6185 24.1368 29.3262 24.0156 29.0283 24.0156Z" fill="#316FEA"/>
<path d="M39.7549 22.3923C39.8784 22.4354 40.0041 22.4557 40.1276 22.4557C40.5966 22.4557 41.035 22.1623 41.197 21.6956C41.6728 20.3306 41.9141 18.8998 41.9141 17.4453C41.9141 10.3245 36.1209 4.53125 29 4.53125C21.8791 4.53125 16.0859 10.3245 16.0859 17.4453C16.0859 18.8727 16.3182 20.2762 16.777 21.6186C16.9786 22.2111 17.6232 22.5271 18.2156 22.3243C18.8081 22.1216 19.1241 21.4781 18.9214 20.8868C18.543 19.7812 18.3516 18.6234 18.3516 17.4453C18.3516 11.5739 23.1286 6.79688 29 6.79688C34.8714 6.79688 39.6484 11.5739 39.6484 17.4453C39.6484 18.6461 39.4502 19.8254 39.0582 20.9502C38.8521 21.5404 39.1636 22.1861 39.7549 22.3923Z" fill="#316FEA"/>
<path d="M13.8305 23.8366C14.4218 23.6327 14.7356 22.9882 14.5317 22.3968C13.9846 20.8086 13.707 19.1423 13.707 17.4453C13.707 9.07496 20.5164 2.26562 28.8867 2.26562C37.2571 2.26562 44.0664 9.07496 44.0664 17.4453C44.0664 19.1423 43.7889 20.8086 43.2406 22.3968C43.0367 22.9882 43.3505 23.6327 43.9418 23.8366C44.0641 23.8786 44.1888 23.8989 44.3111 23.8989C44.7812 23.8989 45.2196 23.6044 45.3816 23.1354C46.0114 21.3093 46.3309 19.3949 46.3309 17.4453C46.332 7.82547 38.5066 0 28.8867 0C19.2669 0 11.4414 7.82547 11.4414 17.4453C11.4414 19.3949 11.7609 21.3093 12.3907 23.1354C12.5946 23.7268 13.2392 24.0405 13.8305 23.8366Z" fill="#316FEA"/>
<path d="M52.3359 29.6797H34.723C36.3576 28.1493 37.3828 25.9743 37.3828 23.5625V17.4453C37.3828 12.8234 33.6219 9.0625 29 9.0625C24.3781 9.0625 20.6172 12.8234 20.6172 17.4453V23.5625C20.6172 25.9743 21.6424 28.1493 23.277 29.6797H17.4453C16.82 29.6797 16.3125 30.1872 16.3125 30.8125C16.3125 31.4378 16.82 31.9453 17.4453 31.9453H27.8672V35.1172H24.6749C24.0496 35.1172 23.5421 35.6247 23.5421 36.25C23.5421 36.8753 24.0496 37.3828 24.6749 37.3828H33.3251C33.9504 37.3828 34.4579 36.8753 34.4579 36.25C34.4579 35.6247 33.9504 35.1172 33.3251 35.1172H30.1328V31.9453H52.3359C54.2096 31.9453 55.7344 33.4701 55.7344 35.3438V52.3359C55.7344 54.2096 54.2096 55.7344 52.3359 55.7344H5.66406C3.79039 55.7344 2.26562 54.2096 2.26562 52.3359V35.3438C2.26562 33.4701 3.79039 31.9453 5.66406 31.9453H7.25C7.87531 31.9453 8.38281 31.4378 8.38281 30.8125C8.38281 30.1872 7.87531 29.6797 7.25 29.6797H5.66406C2.5409 29.6797 0 32.2206 0 35.3438V52.3359C0 55.4591 2.5409 58 5.66406 58H52.3359C55.4591 58 58 55.4591 58 52.3359V35.3438C58 32.2206 55.4591 29.6797 52.3359 29.6797ZM29 11.3281C32.3735 11.3281 35.1172 14.0718 35.1172 17.4453V19.6101H22.8828V17.4453C22.8828 14.0718 25.6265 11.3281 29 11.3281ZM22.8828 23.5625V21.8757H35.1172V23.5625C35.1172 26.936 32.3735 29.6797 29 29.6797C25.6265 29.6797 22.8828 26.936 22.8828 23.5625Z" fill="#316FEA"/>
<path d="M13.4634 40.5955C12.8381 40.5955 12.3306 41.103 12.3306 41.7283V50.7828C12.3306 51.3345 12.7282 51.8058 13.2719 51.8998C13.3524 51.9134 13.4147 51.9247 14.424 51.9247C14.9088 51.9247 15.6135 51.9225 16.6432 51.9168C17.2685 51.9134 17.7737 51.4036 17.7692 50.7772C17.7658 50.1541 17.2594 49.6512 16.6364 49.6512C16.6341 49.6512 16.6319 49.6512 16.6296 49.6512C15.9306 49.6557 15.183 49.658 14.5951 49.6591V41.7294C14.5962 41.103 14.0887 40.5955 13.4634 40.5955Z" fill="#316FEA"/>
<path d="M23.6599 50.7908V41.7283C23.6599 41.103 23.1524 40.5955 22.5271 40.5955C21.9018 40.5955 21.3943 41.103 21.3943 41.7283V50.7908C21.3943 51.4161 21.9018 51.9236 22.5271 51.9236C23.1524 51.9236 23.6599 51.4172 23.6599 50.7908Z" fill="#316FEA"/>
<path d="M44.5365 42.903C45.1618 42.903 45.6693 42.3955 45.6693 41.7702C45.6693 41.1449 45.1618 40.6374 44.5365 40.6374H40.7529C40.1276 40.6374 39.6201 41.1449 39.6201 41.7702V50.75C39.6201 51.3753 40.1276 51.8828 40.7529 51.8828H44.5365C45.1618 51.8828 45.6693 51.3753 45.6693 50.75C45.6693 50.1247 45.1618 49.6172 44.5365 49.6172H41.8857V47.3924H44.2579C44.8832 47.3924 45.3907 46.8849 45.3907 46.2595C45.3907 45.6342 44.8832 45.1267 44.2579 45.1267H41.8857V42.9019L44.5365 42.903Z" fill="#316FEA"/>
<path d="M31.7098 51.9236H31.7189C32.2875 51.9202 32.7928 51.5554 32.9785 51.0094L35.9375 42.1021C36.1346 41.5085 35.8128 40.8673 35.2193 40.6702C34.6257 40.4731 33.9845 40.7948 33.7874 41.3884L31.6905 47.7005L29.4883 41.3579C29.2833 40.7665 28.6376 40.4539 28.0463 40.6589C27.4549 40.864 27.1423 41.5097 27.3473 42.101L30.449 51.0355C30.6393 51.5679 31.1445 51.9236 31.7098 51.9236Z" fill="#316FEA"/>
<path d="M12.3477 31.9453C12.6456 31.9453 12.9379 31.8241 13.1486 31.6134C13.3593 31.4027 13.4805 31.1104 13.4805 30.8125C13.4805 30.5146 13.3593 30.2223 13.1486 30.0116C12.9379 29.8009 12.6456 29.6797 12.3477 29.6797C12.0497 29.6797 11.7575 29.8009 11.5468 30.0116C11.3361 30.2223 11.2148 30.5146 11.2148 30.8125C11.2148 31.1104 11.3361 31.4027 11.5468 31.6134C11.7575 31.8241 12.0497 31.9453 12.3477 31.9453Z" fill="#316FEA"/>
</svg>
