<svg width="18" height="18" viewBox="0 0 18 18" fill="none" xmlns="http://www.w3.org/2000/svg">
<path d="M18 9.00755C18.0044 4.03723 13.9784 0.00428376 9.00766 -8.79957e-05C4.03733 -0.00445975 0.00437532 4.02156 3.55702e-06 8.99225C-0.00436821 13.9629 4.02166 17.9955 8.99236 17.9999C8.99491 17.9999 8.99746 17.9999 9.00001 17.9999C13.9656 17.9955 17.9916 13.9735 18 9.00755ZM2.61833 9.00755L6.7726 4.6817L7.5147 5.46606L4.19143 9.00755L7.5147 12.5377L6.75037 13.3338L2.61833 9.00755ZM10.4886 12.5377L13.8119 9.00755L10.4886 5.46606L11.242 4.69299L15.374 9.00755L11.2198 13.3338L10.4886 12.5377Z" fill="#316FEA"/>
</svg>
