<?xml version="1.0" encoding="UTF-8" standalone="no"?>
<svg
   xmlns:dc="http://purl.org/dc/elements/1.1/"
   xmlns:cc="http://creativecommons.org/ns#"
   xmlns:rdf="http://www.w3.org/1999/02/22-rdf-syntax-ns#"
   xmlns:svg="http://www.w3.org/2000/svg"
   xmlns="http://www.w3.org/2000/svg"
   xmlns:sodipodi="http://sodipodi.sourceforge.net/DTD/sodipodi-0.dtd"
   xmlns:inkscape="http://www.inkscape.org/namespaces/inkscape"
   width="24"
   height="25"
   viewBox="0 0 24 25"
   fill="none"
   version="1.1"
   id="svg845"
   sodipodi:docname="round_slider.svg"
   inkscape:version="1.0.2-2 (e86c870879, 2021-01-15)">
  <metadata
     id="metadata851">
    <rdf:RDF>
      <cc:Work
         rdf:about="">
        <dc:format>image/svg+xml</dc:format>
        <dc:type
           rdf:resource="http://purl.org/dc/dcmitype/StillImage" />
      </cc:Work>
    </rdf:RDF>
  </metadata>
  <defs
     id="defs849" />
  <sodipodi:namedview
     pagecolor="#ffffff"
     bordercolor="#666666"
     borderopacity="1"
     objecttolerance="10"
     gridtolerance="10"
     guidetolerance="10"
     inkscape:pageopacity="0"
     inkscape:pageshadow="2"
     inkscape:window-width="1788"
     inkscape:window-height="766"
     id="namedview847"
     showgrid="false"
     inkscape:zoom="33.2"
     inkscape:cx="11.879518"
     inkscape:cy="12.439759"
     inkscape:window-x="0"
     inkscape:window-y="0"
     inkscape:window-maximized="0"
     inkscape:current-layer="svg845" />
  <path
     d="M24 12.6768C24.0059 6.04975 18.6378 0.672484 12.0102 0.666655C5.38311 0.660826 0.00583376 6.02886 4.7427e-06 12.6564C-0.00582428 19.284 5.36222 24.6608 11.9898 24.6666C11.9932 24.6666 11.9966 24.6666 12 24.6666C18.6208 24.6608 23.9889 19.2981 24 12.6768ZM3.4911 12.6768L9.03013 6.90904L10.0196 7.95486L5.58858 12.6768L10.0196 17.3838L9.0005 18.4451L3.4911 12.6768ZM13.9848 17.3838L18.4158 12.6768L13.9848 7.95486L14.9893 6.9241L20.4987 12.6768L14.9597 18.4451L13.9848 17.3838Z"
     fill="#316FEA"
     id="path843" />
  <path
     style="fill:#ffffff;fill-opacity:0.728745;stroke-width:0.0301205"
     d="M 6.2510641,15.540138 3.5159261,12.676662 3.7974958,12.385017 C 3.9523592,12.224613 5.1883504,10.937877 6.5441431,9.5256024 7.8999355,8.1133283 9.0191355,6.9578313 9.0312539,6.9578313 c 0.012118,0 0.2339476,0.2244764 0.4929542,0.4988364 L 9.9951292,7.955504 7.9685434,10.1148 c -1.1146223,1.187613 -2.1114885,2.250248 -2.2152585,2.361411 l -0.1886726,0.202115 2.2156199,2.353618 2.2156202,2.353617 -0.4888901,0.508694 C 9.2380729,18.174037 9.0109015,18.403099 9.002137,18.403282 8.9933729,18.403463 7.7553901,17.11505 6.2510641,15.540138 Z"
     id="path855" />
  <path
     style="fill:#ffffff;fill-opacity:0.728745;stroke-width:0.0301205"
     d="m 14.488365,17.905436 c -0.253204,-0.274562 -0.454116,-0.51538 -0.446471,-0.535151 0.0076,-0.01977 0.99487,-1.077423 2.193834,-2.350336 1.198964,-1.272914 2.183279,-2.323366 2.187367,-2.334338 0.0041,-0.01097 -0.981982,-1.074337 -2.191266,-2.363035 -1.209283,-1.2886975 -2.198446,-2.3527035 -2.19814,-2.3644577 3.05e-4,-0.011754 0.214297,-0.244054 0.475537,-0.5162217 l 0.474981,-0.4948505 2.734785,2.8536828 c 1.504133,1.5695261 2.728597,2.8697681 2.721033,2.8894291 -0.01469,0.03819 -5.435661,5.692892 -5.470567,5.706438 -0.0114,0.0044 -0.22789,-0.216599 -0.481093,-0.49116 z"
     id="path857" />
  <path
     style="fill:#ffffff;fill-opacity:0.728745;stroke-width:0.0301205"
     d="m 6.2620482,15.550035 c -1.499247,-1.569388 -2.7259036,-2.861877 -2.7259036,-2.872198 0,-0.02661 5.4697822,-5.7200057 5.4953455,-5.7200057 0.01159,0 0.2328286,0.2248193 0.4916406,0.4995985 L 9.9936985,7.9570282 7.967828,10.115562 C 6.8535994,11.302756 5.8567004,12.365427 5.7524973,12.477053 L 5.563037,12.68001 6.2237325,13.380668 c 0.3633826,0.385362 1.3608798,1.444191 2.2166606,2.352955 l 1.555965,1.652297 -0.4840232,0.501317 c -0.2662126,0.275724 -0.4931042,0.504673 -0.5042033,0.508774 -0.011099,0.0041 -1.2468364,-1.276588 -2.7460834,-2.845976 z"
     id="path859" />
  <path
     style="fill:#ff0000;fill-opacity:0.728745;stroke-width:0.0301205"
     d="M 8.4596651,17.852314 C 8.1704033,17.549098 6.9392846,16.260537 5.7238456,14.988844 L 3.5139562,12.676675 3.7817356,12.400085 C 3.9290142,12.24796 4.5439464,11.608287 5.1482514,10.97859 8.0483217,7.9566623 9.0132723,6.9578313 9.0326262,6.9578313 c 0.01158,0 0.2345389,0.2254663 0.4954636,0.5010363 L 10.002498,7.9599038 9.7936117,8.174229 C 9.6787247,8.2921079 9.0646006,8.9442771 8.4288916,9.623494 6.5509265,11.629988 5.8996811,12.324144 5.725983,12.504499 l -0.1638809,0.170161 2.217578,2.354655 2.217578,2.354654 -0.4895927,0.509813 c -0.2692762,0.280396 -0.4969006,0.509816 -0.5058317,0.509822 -0.00893,6e-6 -0.2529072,-0.248075 -0.5421686,-0.55129 z"
     id="path861" />
  <path
     style="fill:#ffffff;fill-opacity:0.728745;stroke-width:0.0301205"
     d="m 14.491204,17.90656 c -0.251939,-0.273844 -0.458071,-0.508641 -0.458071,-0.52177 0,-0.01313 0.276803,-0.317542 0.615119,-0.676472 1.918641,-2.035548 3.768337,-4.007413 3.774505,-4.023803 0.0039,-0.01037 -0.982168,-1.073954 -2.191265,-2.363523 -1.209098,-1.2895696 -2.197918,-2.3535756 -2.197377,-2.3644583 5.4e-4,-0.010883 0.214489,-0.2421529 0.475441,-0.5139338 l 0.47446,-0.4941471 1.656923,1.7290869 c 3.344998,3.4906823 3.807856,3.9767943 3.807856,3.9991563 0,0.01255 -0.558481,0.604808 -1.24107,1.316132 -3.153902,3.286674 -4.22221,4.39632 -4.239627,4.403678 -0.01035,0.0044 -0.224955,-0.216102 -0.476894,-0.489946 z"
     id="path863" />
  <path
     style="fill:#ffffff;fill-opacity:0.728745;stroke-width:0.0301205"
     d="m 6.260154,15.551413 c -1.4982052,-1.568711 -2.7240094,-2.861957 -2.7240094,-2.87388 0,-0.01864 0.978154,-1.041613 4.7562747,-4.9742197 0.3939081,-0.4100151 0.7263506,-0.745482 0.7387608,-0.745482 0.01241,0 0.2364316,0.2250425 0.4978256,0.5000945 L 10.004267,7.9580202 9.8092723,8.158227 c -0.107247,0.1101137 -1.0259042,1.0880079 -2.0414606,2.173098 -1.0155563,1.085091 -1.9271866,2.056101 -2.0258454,2.1578 l -0.1793795,0.184909 2.2176472,2.354643 2.2176473,2.354643 -0.4899045,0.510137 c -0.2694476,0.280576 -0.497534,0.510141 -0.506859,0.510147 -0.00932,6e-6 -1.2427585,-1.28348 -2.7409638,-2.852191 z"
     id="path865" />
  <path
     style="fill:#ffffff;fill-opacity:0.728745;stroke-width:0.0301205"
     d="M 7.8560181,17.22502 C 7.2361117,16.576792 6.7020729,16.017681 6.6692651,15.98255 6.6364572,15.947418 5.9180838,15.194753 5.0728796,14.30996 4.2276753,13.425167 3.5361446,12.690821 3.5361446,12.678081 c 0,-0.03024 5.4647102,-5.7202497 5.4937509,-5.7202497 0.012195,0 0.2368057,0.2246246 0.4991343,0.4991658 L 10.005991,7.9561628 9.8250223,8.142238 c -0.099533,0.1023414 -1.01841,1.0806536 -2.0419485,2.174027 -1.0235389,1.093374 -1.9418903,2.071183 -2.0407812,2.172909 l -0.1798017,0.184956 1.7118166,1.818056 c 0.9414991,0.99993 1.9399211,2.059147 2.2187154,2.353815 L 9.9999214,17.38176 9.51135,17.892687 c -0.2687145,0.28101 -0.4974946,0.510927 -0.5084006,0.510927 -0.010906,0 -0.527025,-0.530367 -1.1469313,-1.178594 z"
     id="path867" />
  <path
     style="fill:#ffffff;fill-opacity:0.728745;stroke-width:0.0301205"
     d="M 8.6248063,18.021653 C 8.261866,17.651127 6.9039521,16.232005 4.6112282,13.827162 4.0199322,13.206951 3.5361446,12.689016 3.5361446,12.676195 c 0,-0.01282 0.3619223,-0.399952 0.8042718,-0.860294 C 4.7827659,11.355559 5.6003396,10.504518 6.1572468,9.9246988 6.7141539,9.3448795 7.5800069,8.4435241 8.0813645,7.9216867 8.5827223,7.3998494 9.0087479,6.9728916 9.0280886,6.9728916 c 0.037598,0 0.9538391,0.9427804 0.9538391,0.9814681 0,0.01266 -0.9894578,1.076815 -2.1987952,2.3647883 -1.2093373,1.287974 -2.1986349,2.349616 -2.1984392,2.359203 1.958e-4,0.0096 0.9896537,1.067725 2.1987953,2.351416 1.2091415,1.283692 2.1984391,2.34477 2.1984391,2.357952 0,0.01318 -0.220256,0.248084 -0.4894578,0.522006 L 9.003012,18.407763 Z"
     id="path869" />
</svg>
