<svg id="Layer_1" data-name="Layer 1" xmlns="http://www.w3.org/2000/svg" xmlns:xlink="http://www.w3.org/1999/xlink" viewBox="0 0 340.12 182.87"><defs><style>.cls-1,.cls-10{fill:#408fff;}.cls-2{fill:#90bffe;}.cls-3{fill:#549afe;}.cls-4{fill:url(#linear-gradient);}.cls-11,.cls-5,.cls-9{fill:#66a6ff;}.cls-6{fill:#fff;}.cls-7,.cls-8{fill:#c7dffe;}.cls-10,.cls-8,.cls-9{fill-rule:evenodd;}.cls-11{font-size:23.6px;font-family:Graphik-Bold, Graphik;font-weight:700;}</style><linearGradient id="linear-gradient" x1="202.9" y1="295.52" x2="202.9" y2="295.42" gradientUnits="userSpaceOnUse"><stop offset="0.02" stop-color="#5f6767"/><stop offset="0.48" stop-color="#676b6c"/><stop offset="0.51" stop-color="#717576"/><stop offset="0.62" stop-color="#878a8b"/><stop offset="0.72" stop-color="#949899"/><stop offset="0.81" stop-color="#999c9d"/></linearGradient></defs><title>speed</title><path class="cls-1" d="M10.06,303.14s-2.11,3.93,12.87,7.2H336.62s10.49-.67,13.26-5.62l0-2.71Z" transform="translate(-9.91 -127.47)"/><path class="cls-2" d="M10.13,295.21H350v8.73s.51,1.17-3.49.88H13.33s-3.13.88-3.42-1.17Z" transform="translate(-9.91 -127.47)"/><path class="cls-3" d="M334.22,300.31a.56.56,0,0,1-.5.61H322.15a.56.56,0,0,1-.5-.61h0a.57.57,0,0,1,.5-.62h11.57a.57.57,0,0,1,.5.62Z" transform="translate(-9.91 -127.47)"/><path class="cls-1" d="M157,295.28s-1.31,4.37,3.05,4.8h39.43s4.19.55,3.64-4.65Z" transform="translate(-9.91 -127.47)"/><path class="cls-4" d="M202.9,295.52v-.1h0A.61.61,0,0,0,202.9,295.52Z" transform="translate(-9.91 -127.47)"/><path class="cls-5" d="M316.59,295.17V140.26a12.82,12.82,0,0,0-12.78-12.78H56.13a12.82,12.82,0,0,0-12.78,12.78V295.17Z" transform="translate(-9.91 -127.47)"/><rect class="cls-6" x="42.23" y="9.59" width="255.66" height="148.6"/><path class="cls-7" d="M179.94,151.59a58.48,58.48,0,1,0,58.48,58.48A58.55,58.55,0,0,0,179.94,151.59Zm0,113.27a54.77,54.77,0,1,1,27.58-7.44A54.62,54.62,0,0,1,179.94,264.85Z" transform="translate(-9.91 -127.47)"/><path class="cls-8" d="M179.95,171a45.23,45.23,0,0,1,42.22,29L201,208.06a22.62,22.62,0,0,0-42.22,0L137.71,200a45.25,45.25,0,0,1,42.23-29Z" transform="translate(-9.91 -127.47)"/><path class="cls-9" d="M179.95,171a44.93,44.93,0,0,1,24.24,7L191.73,196.9a22.62,22.62,0,0,0-32.9,11.17L137.71,200a45.25,45.25,0,0,1,42.23-29Z" transform="translate(-9.91 -127.47)"/><path class="cls-10" d="M208.52,171.48h0l-28.19,48.58a2.07,2.07,0,0,1-2.9.63h0a2.07,2.07,0,0,1-.63-2.9Z" transform="translate(-9.91 -127.47)"/><text class="cls-11" transform="translate(149.52 121.69)">10x</text></svg>