<svg width="59" height="30" viewBox="0 0 59 30" fill="none" xmlns="http://www.w3.org/2000/svg">
<g clip-path="url(#clip0)">
<path d="M55.842 29.3266H2.98222C1.71233 29.3266 0.67334 28.2876 0.67334 27.0177V2.98234C0.67334 1.71246 1.71233 0.673462 2.98222 0.673462H55.842C57.1119 0.673462 58.1509 1.71246 58.1509 2.98234V27.0177C58.1509 28.2876 57.1119 29.3266 55.842 29.3266Z" stroke="#CECECE" stroke-width="1.34684" stroke-miterlimit="10"/>
<path d="M12.9701 16.1034H10.7824V20.6038H9.03149V8.92474H13.9513C16.1755 8.92474 17.6975 10.3601 17.6975 12.515C17.6975 14.6161 16.2794 15.7379 14.7902 15.9303L17.7841 20.6057H15.7542L12.9701 16.1034ZM13.7243 10.464H10.7824V14.5603H13.7243C14.9845 14.5603 15.8946 13.7368 15.8946 12.5112C15.8946 11.2856 14.9845 10.464 13.7243 10.464Z" fill="#CECECE"/>
<path d="M22.5307 10.4631H18.9058V8.92194H27.8873V10.4631H24.2816V20.601H22.5307V10.4631Z" fill="#CECECE"/>
<path d="M39.7588 11.3212L35.9761 20.601H35.2411L31.4584 11.3212V20.601H29.7075V8.92194H32.2107L35.6067 17.3089L39.0027 8.92194H41.5059V20.601H39.755V11.3212H39.7588Z" fill="#CECECE"/>
<path d="M44.1013 8.92194H49.0211C51.4205 8.92194 52.75 10.567 52.75 12.5122C52.75 14.4555 51.4012 16.1025 49.0211 16.1025H45.8522V20.6029H44.1013V8.92194ZM48.7941 10.4631H45.8522V14.5594H48.7941C50.0544 14.5594 50.9471 13.7359 50.9471 12.5103C50.9471 11.2847 50.0544 10.4631 48.7941 10.4631Z" fill="#CECECE"/>
</g>
<defs>
<clipPath id="clip0">
<rect width="58.8244" height="30" fill="white"/>
</clipPath>
</defs>
</svg>
