<svg width="525" height="276" viewBox="0 0 525 276" fill="none" xmlns="http://www.w3.org/2000/svg">
<path d="M525 63.557V226.103C525 235.225 521.202 243.308 514.659 250.114C485.31 280.658 421.896 278.259 275.824 271.379C224.019 268.933 120.886 272.965 68.4449 273.297C50.5789 273.407 34.3073 268.692 22.12 260.936C8.52215 252.291 0 239.857 0 226.103V63.557C0 37.4937 30.7096 14.8386 68.4449 16.3633C103.488 17.7902 155.032 23.4244 208.765 19.9734C272.668 15.868 393.967 12.3802 456.555 16.3633C494.196 18.7605 525 37.4937 525 63.557Z" fill="#F8FAFF"/>
<path d="M410.87 220.523L117.971 218.112V225.245C117.971 227.181 119.247 228.828 120.978 229.117L203.801 243.166C204.782 243.333 205.781 243.377 206.773 243.298L407.687 227.28C409.481 227.137 410.87 225.486 410.87 223.496V220.523Z" fill="#2255BC"/>
<path d="M304.578 208.958L120.999 222.01C117.714 222.243 115.043 219.762 115.043 216.466V84.444C115.043 82.8631 115.669 81.3465 116.786 80.2276C117.903 79.1087 119.418 78.4789 120.999 78.4767H304.578C307.284 78.4767 309.469 80.8918 309.469 83.8714V203.22C309.472 206.196 307.284 208.767 304.578 208.958Z" fill="url(#paint0_linear)"/>
<path d="M307.504 208.958L123.926 222.01C120.641 222.243 117.971 219.762 117.971 216.466V84.444C117.97 82.8631 118.597 81.3465 119.713 80.2276C120.83 79.1087 122.345 78.4789 123.926 78.4767H307.504C310.212 78.4767 312.395 80.8918 312.395 83.8714V203.22C312.399 206.196 310.212 208.767 307.504 208.958Z" fill="#2359C4"/>
<path d="M301.786 200.545L130.802 211.882C128.128 212.059 125.956 210.022 125.956 207.332V91.7412C125.954 90.4512 126.463 89.213 127.371 88.2966C128.279 87.3803 129.512 86.8602 130.802 86.85L301.786 86.1367C304.019 86.1275 305.825 88.1054 305.825 90.5561V195.841C305.825 198.291 304.019 200.397 301.786 200.545Z" fill="#E9F0FC"/>
<path d="M222.199 82.0881C222.199 83.3109 221.254 84.3126 220.087 84.3156C218.921 84.3187 217.971 83.3252 217.971 82.0962C217.971 80.8673 218.919 79.8697 220.087 79.8687C221.256 79.8677 222.199 80.8612 222.199 82.0881Z" fill="white"/>
<path d="M314.822 208.367L117.975 222.104L203.805 236.663C204.786 236.829 205.785 236.874 206.777 236.794L410.869 220.523L317.948 208.46C316.911 208.326 315.864 208.295 314.822 208.367Z" fill="#7AA5FC"/>
<path style="mix-blend-mode:multiply" opacity="0.3" d="M146.694 222.45L310.58 210.843L361.3 217.374L198.827 229.783L146.694 222.45Z" fill="#366FE0"/>
<path d="M345.356 5.0238L197.902 0.00519365C192.967 -0.162942 188.951 3.72457 188.951 8.68814V116.318C188.944 117.487 189.172 118.646 189.621 119.726C190.07 120.806 190.732 121.785 191.567 122.604C192.402 123.423 193.393 124.066 194.481 124.495C195.569 124.923 196.733 125.129 197.902 125.099L345.356 121.708C349.63 121.606 353.082 117.806 353.082 113.212V13.6059C353.082 9.01218 349.63 5.17053 345.356 5.0238Z" fill="url(#paint1_linear)"/>
<g style="mix-blend-mode:soft-light" opacity="0.74">
<path d="M191.817 114.058V10.982C191.817 6.38835 195.529 2.78616 200.091 2.93188L343.447 7.62543C347.421 7.75586 350.622 11.3152 350.622 15.5737V111.203C350.622 115.466 347.416 118.989 343.447 119.076L200.091 122.186C199.01 122.211 197.935 122.019 196.93 121.621C195.924 121.224 195.008 120.628 194.237 119.87C193.465 119.112 192.854 118.208 192.438 117.209C192.022 116.211 191.811 115.139 191.817 114.058Z" fill="white"/>
</g>
<path d="M345.356 5.0238L197.902 0.00519365C192.968 -0.162942 188.951 3.72457 188.951 8.68814V15.1354L353.082 19.5721V13.6059C353.082 9.01218 349.63 5.17053 345.356 5.0238Z" fill="#316FEA"/>
<path d="M204.866 8.30084C204.869 8.67999 204.796 9.05593 204.65 9.40606C204.505 9.75619 204.29 10.0733 204.019 10.3383C203.748 10.6033 203.426 10.8107 203.073 10.9481C202.719 11.0855 202.342 11.15 201.963 11.1378C201.183 11.108 200.444 10.7779 199.902 10.2163C199.36 9.65477 199.055 8.90527 199.053 8.12455C199.049 7.74488 199.123 7.36842 199.269 7.0179C199.415 6.66739 199.63 6.35008 199.902 6.08514C200.174 5.82021 200.497 5.61313 200.851 5.47642C201.205 5.3397 201.583 5.27617 201.963 5.28968C202.741 5.32092 203.478 5.6515 204.019 6.21249C204.559 6.77348 204.863 7.52158 204.866 8.30084Z" fill="white"/>
<path d="M215.001 8.60865C215.005 8.9851 214.933 9.35854 214.789 9.70649C214.646 10.0545 214.433 10.3697 214.164 10.6334C213.896 10.8971 213.576 11.1037 213.226 11.2408C212.875 11.3779 212.501 11.4427 212.124 11.4313C211.35 11.4005 210.617 11.0713 210.08 10.5125C209.542 9.95373 209.242 9.20872 209.241 8.43338C209.236 8.05627 209.308 7.68216 209.453 7.33365C209.597 6.98514 209.81 6.66945 210.079 6.40564C210.349 6.14184 210.669 5.93539 211.02 5.79877C211.372 5.66215 211.747 5.59818 212.124 5.61074C212.898 5.64356 213.628 5.97365 214.164 6.53218C214.7 7.09072 215 7.83458 215.001 8.60865Z" fill="white"/>
<path d="M225.04 8.91332C225.046 9.28747 224.975 9.65882 224.833 10.005C224.691 10.3512 224.48 10.665 224.214 10.9276C223.947 11.1901 223.63 11.3961 223.282 11.5329C222.934 11.6697 222.562 11.7346 222.188 11.7237C220.61 11.6779 219.335 10.342 219.335 8.74009C219.329 8.36589 219.4 7.99449 219.542 7.64826C219.684 7.30202 219.894 6.98814 220.161 6.72552C220.428 6.46291 220.745 6.25701 221.093 6.12023C221.441 5.98345 221.814 5.91863 222.188 5.92967C223.766 5.97961 225.04 7.3145 225.04 8.91332Z" fill="white"/>
<path d="M344.065 84.3198L199.384 85.0025V42.4447L344.065 44.5714V84.3198Z" fill="#E9F0FC"/>
<path d="M344.065 94.357L199.384 95.7489V91.1787L344.065 90.0883V94.357Z" fill="white"/>
<path d="M344.065 104.827L199.384 106.96V102.39L344.065 100.56V104.827Z" fill="white"/>
<path d="M277.196 33.2238L199.384 31.6983V36.2685L277.196 37.632V33.2238Z" fill="white"/>
<path d="M335.809 34.3732V38.6581L344.065 38.8028V34.5342L335.809 34.3732Z" fill="white"/>
<path d="M384.412 30.5754L289.745 29.5819C285.268 29.535 281.625 33.3287 281.625 38.0569V187.515C281.625 192.242 285.268 195.823 289.745 195.515L384.412 188.993C388.476 188.713 391.757 184.856 391.757 180.376V38.7631C391.76 34.2835 388.476 30.6182 384.412 30.5754Z" fill="url(#paint2_linear)"/>
<g style="mix-blend-mode:soft-light" opacity="0.74">
<path d="M284.226 185.243V40.1713C284.226 35.7957 287.588 32.2801 291.734 32.3178L382.598 33.1575C386.368 33.1921 389.419 36.5895 389.419 40.745V178.531C389.419 182.686 386.371 186.261 382.598 186.517L291.734 192.658C287.593 192.938 284.226 189.619 284.226 185.243Z" fill="white"/>
</g>
<path d="M384.412 30.5754L289.745 29.5819C285.269 29.535 281.625 33.3287 281.625 38.0569V44.1975L391.761 44.5816V38.7631C391.761 34.2835 388.476 30.6182 384.412 30.5754Z" fill="#316FEA"/>
<path d="M296.066 37.3263C296.066 38.863 294.887 40.1021 293.431 40.0939C291.975 40.0858 290.791 38.8303 290.791 37.2906C290.791 35.7509 291.973 34.5108 293.431 34.522C294.889 34.5332 296.066 35.7845 296.066 37.3263Z" fill="white"/>
<path d="M305.267 37.3844C305.267 38.9129 304.098 40.1479 302.656 40.1357C301.213 40.1234 300.038 38.8782 300.038 37.3446C300.038 35.811 301.211 34.577 302.656 34.5933C304.1 34.6096 305.267 35.8548 305.267 37.3844Z" fill="white"/>
<path d="M314.387 37.4465C314.387 38.975 313.229 40.1978 311.799 40.1907C310.37 40.1835 309.204 38.9383 309.204 37.4108C309.204 35.8833 310.367 34.6595 311.799 34.6676C313.232 34.6758 314.387 35.9241 314.387 37.4465Z" fill="white"/>
<path d="M383.185 152.597L291.091 157.258V69.9722L383.185 69.162V152.597Z" fill="url(#paint3_linear)"/>
<path d="M383.185 162.383L291.091 167.495V163.142L383.185 158.221V162.383Z" fill="white"/>
<path d="M383.185 172.591L291.091 178.175V173.821L383.185 168.43V172.591Z" fill="white"/>
<path d="M361.822 59.459L291.091 59.7352V64.0884L361.822 63.6655V59.459Z" fill="white"/>
<path d="M375.338 59.4072V63.5841L383.186 63.5372V59.3756L375.338 59.4072Z" fill="white"/>
<path d="M150.93 162.858C150.93 162.858 117.324 98.5379 163.084 56.348L153.075 53.2492L185.964 47.767L173.33 72.0805L170.232 63.584C170.232 63.584 136.642 89.0917 150.93 162.858Z" fill="url(#paint4_linear)"/>
<path opacity="0.69" d="M165.24 181.636C165.24 181.636 230.578 213.205 271.305 166.135L274.718 176.044L279.157 142.997L255.257 156.389L263.845 159.219C263.845 159.219 239.412 193.597 165.24 181.636Z" fill="#6F9DF8"/>
<path d="M338.347 98.8972C330.215 99.3072 323.955 106.232 324.365 114.364C324.775 122.497 331.7 128.757 339.832 128.347C347.964 127.937 354.224 121.012 353.814 112.88C353.404 104.747 346.479 98.4872 338.347 98.8972ZM344.218 114.146L337.088 119.119C336.953 119.213 336.795 119.269 336.631 119.281C336.467 119.294 336.303 119.263 336.155 119.19C336.007 119.118 335.882 119.007 335.791 118.87C335.701 118.732 335.649 118.573 335.64 118.409L335.176 109.206C335.168 109.042 335.204 108.878 335.28 108.732C335.356 108.587 335.47 108.464 335.61 108.377C335.75 108.29 335.91 108.242 336.075 108.238C336.239 108.234 336.401 108.274 336.545 108.355L344.14 112.585C344.276 112.661 344.391 112.77 344.474 112.903C344.556 113.036 344.604 113.187 344.612 113.344C344.619 113.5 344.588 113.655 344.519 113.796C344.45 113.936 344.346 114.056 344.218 114.146Z" fill="#316FEA"/>
<path d="M214.972 132.979C206.84 133.389 200.58 140.313 200.99 148.446C201.4 156.578 208.325 162.838 216.457 162.428C224.589 162.018 230.849 155.094 230.439 146.961C230.029 138.829 223.104 132.569 214.972 132.979ZM220.843 148.227L213.713 153.2C213.578 153.294 213.42 153.35 213.256 153.363C213.092 153.376 212.928 153.344 212.78 153.272C212.632 153.199 212.507 153.089 212.416 152.951C212.326 152.814 212.274 152.655 212.265 152.49L211.801 143.288C211.793 143.123 211.829 142.96 211.905 142.814C211.981 142.668 212.095 142.545 212.235 142.459C212.375 142.372 212.535 142.324 212.7 142.32C212.864 142.316 213.026 142.356 213.17 142.436L220.765 146.666C220.901 146.742 221.016 146.852 221.099 146.985C221.181 147.117 221.229 147.269 221.237 147.425C221.244 147.581 221.213 147.737 221.144 147.877C221.075 148.017 220.971 148.138 220.843 148.227Z" fill="#316FEA"/>
<path d="M261.077 54.8605C256.011 54.8139 251.867 58.8829 251.82 63.9492C251.773 69.0155 255.843 73.16 260.909 73.2065C265.975 73.2531 270.119 69.1841 270.166 64.1178C270.213 59.0515 266.143 54.9071 261.077 54.8605ZM264.159 64.5489L259.546 67.3733C259.459 67.4268 259.359 67.4559 259.256 67.4576C259.154 67.4593 259.053 67.4337 258.964 67.3832C258.875 67.3328 258.801 67.2594 258.75 67.1707C258.699 67.0821 258.672 66.9813 258.673 66.879L258.726 61.1459C258.727 61.0435 258.755 60.9433 258.808 60.8556C258.861 60.7679 258.936 60.6959 259.026 60.6471C259.116 60.5983 259.217 60.5745 259.32 60.5781C259.422 60.5817 259.521 60.6127 259.608 60.6677L264.168 63.5764C264.25 63.6287 264.317 63.701 264.364 63.7865C264.41 63.872 264.434 63.9679 264.433 64.0651C264.432 64.1624 264.406 64.2578 264.359 64.3425C264.311 64.4271 264.242 64.4981 264.159 64.5489Z" fill="#316FEA"/>
<defs>
<linearGradient id="paint0_linear" x1="257379" y1="302545" x2="221748" y2="322811" gradientUnits="userSpaceOnUse">
<stop stop-color="#A5C3FF"/>
<stop offset="1" stop-color="#3C3B6B"/>
</linearGradient>
<linearGradient id="paint1_linear" x1="317.689" y1="-32.3941" x2="182.825" y2="237.3" gradientUnits="userSpaceOnUse">
<stop stop-color="#316FEA"/>
<stop offset="1" stop-color="#306EEA"/>
</linearGradient>
<linearGradient id="paint2_linear" x1="281.625" y1="112.555" x2="391.757" y2="112.555" gradientUnits="userSpaceOnUse">
<stop stop-color="#316FEA"/>
<stop offset="1" stop-color="#5B8FF6"/>
</linearGradient>
<linearGradient id="paint3_linear" x1="159417" y1="97942.2" x2="242660" y2="97942.2" gradientUnits="userSpaceOnUse">
<stop stop-color="#E9F0FC"/>
<stop offset="1" stop-color="#316FEA"/>
</linearGradient>
<linearGradient id="paint4_linear" x1="189.094" y1="33.8596" x2="97.7111" y2="216.604" gradientUnits="userSpaceOnUse">
<stop stop-color="#8CB3FF"/>
<stop offset="1" stop-color="#316FEA"/>
</linearGradient>
</defs>
</svg>
