<svg width="514" height="309" viewBox="0 0 514 309" fill="none" xmlns="http://www.w3.org/2000/svg">
<path d="M514 101.127V260.267C514 269.198 510.282 277.111 503.875 283.775C475.142 313.679 413.057 311.33 270.045 304.594C219.325 302.199 118.353 306.147 67.0109 306.472C49.5191 306.58 33.5885 301.964 21.6565 294.37C8.34359 285.906 0 273.732 0 260.267V101.127C0 75.6092 30.0661 53.4288 67.0109 54.9216C101.32 56.3186 151.784 61.8348 204.391 58.456C266.955 54.4366 385.712 51.022 446.989 54.9216C483.842 57.2686 514 75.6092 514 101.127Z" fill="#F6F9FF"/>
<path d="M289.028 273.859C285.067 268.591 286.233 213.441 286.233 213.441L286.035 212.924L284.385 212.847V210.35L257.313 211.593L230.218 210.35V212.847L228.568 212.924C228.502 213.1 228.436 213.276 228.359 213.441C228.359 213.441 229.536 268.591 225.575 273.859C221.615 279.128 202.364 283.286 202.364 283.286H312.228C312.228 283.286 292.988 279.139 289.028 273.859Z" fill="#316FEA"/>
<path d="M228.139 254.237H286.442C285.716 236.517 286.2 213.441 286.2 213.441L286.002 212.924L284.352 212.847V210.35L257.313 211.593L230.218 210.35V212.847L228.568 212.924C228.502 213.1 228.436 213.276 228.359 213.441C228.37 213.441 228.865 236.517 228.139 254.237Z" fill="#275ABE"/>
<path d="M392.137 223.186C392.137 233.734 382.501 242.281 370.609 242.281H143.994C132.103 242.281 122.466 233.734 122.466 223.186V102.117C122.466 91.5798 132.103 83.0334 143.994 83.0334H370.609C382.501 83.0334 392.137 91.5798 392.137 102.117V223.186Z" fill="#316FEA"/>
<path d="M378.936 94.0875H135.678V210.944H378.936V94.0875Z" fill="white"/>
<path d="M122.477 209.8V223.186C122.477 233.734 132.114 242.281 144.005 242.281H370.62C382.512 242.281 392.148 233.734 392.148 223.186V209.8H122.477Z" fill="#2A64D7"/>
<path opacity="0.2" d="M168.031 86.3772C176.391 90.8649 184.689 95.4663 192.925 100.181C231.076 122.048 267.928 146.169 304.252 170.917C321.457 182.643 338.244 194.984 355.681 206.39C367.273 214.024 379.275 221.019 391.631 227.344C391.967 225.983 392.137 224.587 392.137 223.186V102.117C392.137 91.5798 382.5 83.0334 370.609 83.0334H161.595C163.766 84.1333 165.911 85.2479 168.031 86.3772Z" fill="#A6BAE0"/>
<path d="M315.539 9.41537H233.309C233.111 4.13573 231.109 0 228.711 0H167.261C164.709 0 162.629 4.60869 162.629 10.2953V123.159C162.624 123.232 162.624 123.305 162.629 123.379C162.695 125.444 163.562 127.402 165.047 128.839C166.531 130.276 168.517 131.079 170.583 131.078H315.539C323.504 131.078 329.95 127.514 329.95 123.126V17.3678C329.95 12.9791 323.504 9.41537 315.539 9.41537Z" fill="#FDBC56"/>
<path d="M262.296 43.3041C284.583 60.3639 307.333 76.8188 329.95 93.4387V17.3678C329.95 12.9681 323.504 9.41537 315.539 9.41537H233.309C233.111 4.13572 231.109 0 228.711 0H206.016C225.158 13.8591 243.639 28.763 262.296 43.3041Z" fill="#FAA228"/>
<path d="M175.083 5.27975C175.083 5.69138 174.96 6.09374 174.731 6.43584C174.502 6.77794 174.177 7.04438 173.797 7.2014C173.416 7.35842 172.997 7.39894 172.594 7.31783C172.19 7.23672 171.82 7.03763 171.529 6.74579C171.239 6.45396 171.042 6.08251 170.963 5.67853C170.884 5.27455 170.927 4.85623 171.086 4.47656C171.245 4.0969 171.513 3.77299 171.856 3.54589C172.2 3.31879 172.603 3.19872 173.014 3.2009C173.287 3.20089 173.557 3.25474 173.808 3.35935C174.06 3.46396 174.289 3.61725 174.481 3.81044C174.673 4.00362 174.825 4.23288 174.928 4.48504C175.032 4.73719 175.084 5.00727 175.083 5.27975Z" fill="white"/>
<path d="M181.43 5.27975C181.432 5.69402 181.311 6.09958 181.082 6.44493C180.853 6.79029 180.527 7.05985 180.145 7.21939C179.762 7.37893 179.341 7.42124 178.935 7.34095C178.528 7.26067 178.155 7.06141 177.862 6.76848C177.569 6.47554 177.369 6.10215 177.289 5.69574C177.209 5.28933 177.251 4.86822 177.411 4.4859C177.57 4.10358 177.84 3.77731 178.185 3.54852C178.531 3.31972 178.936 3.19872 179.351 3.2009C179.902 3.2009 180.431 3.41991 180.821 3.80978C181.211 4.19964 181.43 4.7284 181.43 5.27975Z" fill="white"/>
<path d="M187.656 5.27975C187.656 5.69091 187.534 6.09284 187.306 6.4347C187.077 6.77657 186.753 7.04302 186.373 7.20037C185.993 7.35771 185.575 7.39888 185.171 7.31867C184.768 7.23845 184.398 7.04046 184.107 6.74973C183.816 6.459 183.618 6.08858 183.538 5.68532C183.458 5.28206 183.499 4.86407 183.656 4.48421C183.813 4.10434 184.08 3.77967 184.422 3.55124C184.764 3.32282 185.166 3.2009 185.577 3.2009C185.85 3.19944 186.121 3.25221 186.374 3.35617C186.627 3.46012 186.857 3.6132 187.05 3.80653C187.244 3.99986 187.397 4.22961 187.501 4.48249C187.605 4.73536 187.658 5.00635 187.656 5.27975Z" fill="white"/>
<path d="M319.147 124.578C319.147 124.241 319.081 123.908 318.952 123.597C318.823 123.286 318.635 123.003 318.397 122.765C318.159 122.527 317.876 122.339 317.565 122.21C317.254 122.081 316.921 122.015 316.584 122.015H270.535C270.198 122.013 269.863 122.079 269.551 122.207C269.239 122.335 268.955 122.523 268.716 122.762C268.477 123 268.287 123.283 268.157 123.594C268.028 123.906 267.961 124.24 267.961 124.578C267.961 125.26 268.232 125.915 268.715 126.398C269.198 126.88 269.853 127.151 270.535 127.151H316.584C316.922 127.151 317.256 127.085 317.568 126.955C317.879 126.826 318.162 126.636 318.401 126.397C318.639 126.158 318.827 125.874 318.955 125.562C319.084 125.25 319.149 124.915 319.147 124.578Z" fill="white"/>
<path opacity="0.5" d="M357.243 44.1841H254.541V148.468H357.243V44.1841Z" fill="#316FEA"/>
<path d="M297.102 50.2997H259.49V52.2686H297.102V50.2997Z" fill="white"/>
<path d="M307.916 66.9305H270.304V68.8994H307.916V66.9305Z" fill="white"/>
<path d="M330.489 74.652H270.304V76.6208H330.489V74.652Z" fill="white"/>
<path d="M297.531 83.8363H259.018V85.8052H297.531V83.8363Z" fill="white"/>
<path d="M322.239 87.8841H259.018V89.853H322.239V87.8841Z" fill="white"/>
<path d="M286.739 100.159H258.776V102.128H286.739V100.159Z" fill="white"/>
<path d="M279.226 103.844H258.776V105.813H279.226V103.844Z" fill="white"/>
<path d="M286.739 107.529H258.776V109.498H286.739V107.529Z" fill="white"/>
<path d="M322.239 91.7999H259.018V93.7687H322.239V91.7999Z" fill="white"/>
<path d="M297.531 124.446H259.018V126.414H297.531V124.446Z" fill="white"/>
<path d="M322.239 128.493H259.018V130.462H322.239V128.493Z" fill="white"/>
<path d="M322.239 132.409H259.018V134.378H322.239V132.409Z" fill="white"/>
<path d="M334.559 50.2997H298.257V52.2686H334.559V50.2997Z" fill="white"/>
<path d="M280.568 58.5271H259.49V60.4959H280.568V58.5271Z" fill="white"/>
<path d="M302.899 58.5271H281.811V60.4959H302.899V58.5271Z" fill="white"/>
<path d="M308.51 58.5271H304V60.4959H308.51V58.5271Z" fill="white"/>
<path d="M314.208 58.5271H309.698V60.4959H314.208V58.5271Z" fill="white"/>
<path d="M273.176 54.5124H268.665V56.4812H273.176V54.5124Z" fill="white"/>
<path d="M278.863 54.5124H274.353V56.4812H278.863V54.5124Z" fill="white"/>
<path d="M284.561 54.5124H280.051V56.4812H284.561V54.5124Z" fill="white"/>
<path d="M290.249 54.5124H285.738V56.4812H290.249V54.5124Z" fill="white"/>
<path d="M295.947 54.5124H291.437V56.4812H295.947V54.5124Z" fill="white"/>
<path d="M325.605 54.5124H297.124V56.4812H325.605V54.5124Z" fill="white"/>
<path d="M273.495 70.6702H270.304V72.6391H273.495V70.6702Z" fill="white"/>
<path d="M277.51 70.6702H274.32V72.6391H277.51V70.6702Z" fill="white"/>
<path d="M281.514 70.6702H278.335V72.6391H281.514V70.6702Z" fill="white"/>
<path d="M285.529 70.6702H282.35V72.6391H285.529V70.6702Z" fill="white"/>
<path d="M289.556 70.6702H286.376V72.6391H289.556V70.6702Z" fill="white"/>
<path d="M310.501 70.6702H290.392V72.6391H310.501V70.6702Z" fill="white"/>
<path d="M296.629 120.387H259.018V122.356H296.629V120.387Z" fill="white"/>
<path d="M319.202 112.665H259.018V114.634H319.202V112.665Z" fill="white"/>
<path d="M262.208 116.647H259.018V118.616H262.208V116.647Z" fill="white"/>
<path d="M266.223 116.647H263.033V118.616H266.223V116.647Z" fill="white"/>
<path d="M270.227 116.647H267.048V118.616H270.227V116.647Z" fill="white"/>
<path d="M274.265 116.647H271.074V118.616H274.265V116.647Z" fill="white"/>
<path d="M278.28 116.647H275.09V118.616H278.28V116.647Z" fill="white"/>
<path d="M299.215 116.647H279.105V118.616H299.215V116.647Z" fill="white"/>
<path d="M333.525 99.8073H309.676V101.776H333.525V99.8073Z" fill="white"/>
<path d="M333.525 107.529H295.364V109.498H333.525V107.529Z" fill="white"/>
<path d="M333.526 103.547H331.501V105.516H333.526V103.547Z" fill="white"/>
<path d="M330.984 103.547H328.96V105.516H330.984V103.547Z" fill="white"/>
<path d="M328.421 103.547H326.408V105.516H328.421V103.547Z" fill="white"/>
<path d="M325.891 103.547H323.867V105.516H325.891V103.547Z" fill="white"/>
<path d="M323.328 103.547H321.315V105.516H323.328V103.547Z" fill="white"/>
<path d="M320.786 103.547H308.037V105.516H320.786V103.547Z" fill="white"/>
<path d="M357.243 32.6018H254.541V44.184H357.243V32.6018Z" fill="#2A64D7"/>
<path d="M264.001 38.3876C264.001 38.9075 263.847 39.4158 263.558 39.8481C263.269 40.2804 262.858 40.6173 262.378 40.8163C261.898 41.0153 261.369 41.0673 260.859 40.9659C260.349 40.8644 259.88 40.6141 259.513 40.2464C259.145 39.8788 258.895 39.4104 258.793 38.9004C258.692 38.3905 258.744 37.8619 258.943 37.3816C259.142 36.9012 259.479 36.4907 259.911 36.2018C260.344 35.9129 260.852 35.7588 261.372 35.7588C261.717 35.7588 262.059 35.8268 262.378 35.9589C262.697 36.091 262.987 36.2846 263.231 36.5287C263.475 36.7728 263.669 37.0626 263.801 37.3816C263.933 37.7005 264.001 38.0424 264.001 38.3876Z" fill="white"/>
<path d="M272.021 38.3876C272.021 38.9075 271.866 39.4158 271.577 39.8481C271.289 40.2804 270.878 40.6173 270.397 40.8163C269.917 41.0153 269.388 41.0673 268.878 40.9659C268.368 40.8644 267.9 40.6141 267.532 40.2464C267.165 39.8788 266.914 39.4104 266.813 38.9004C266.711 38.3905 266.763 37.8619 266.962 37.3816C267.161 36.9012 267.498 36.4907 267.931 36.2018C268.363 35.9129 268.871 35.7588 269.391 35.7588C269.737 35.7588 270.079 35.8268 270.397 35.9589C270.716 36.091 271.006 36.2846 271.25 36.5287C271.495 36.7728 271.688 37.0626 271.82 37.3816C271.953 37.7005 272.021 38.0424 272.021 38.3876Z" fill="white"/>
<path d="M279.864 38.3876C279.864 38.9075 279.71 39.4158 279.421 39.8481C279.132 40.2804 278.721 40.6173 278.241 40.8163C277.761 41.0153 277.232 41.0673 276.722 40.9659C276.212 40.8644 275.743 40.6141 275.376 40.2464C275.008 39.8788 274.758 39.4104 274.656 38.9004C274.555 38.3905 274.607 37.8619 274.806 37.3816C275.005 36.9012 275.342 36.4907 275.774 36.2018C276.207 35.9129 276.715 35.7588 277.235 35.7588C277.58 35.7588 277.922 35.8268 278.241 35.9589C278.56 36.091 278.85 36.2846 279.094 36.5287C279.338 36.7728 279.532 37.0626 279.664 37.3816C279.796 37.7005 279.864 38.0424 279.864 38.3876Z" fill="white"/>
<path opacity="0.8" d="M326.144 71.3081H224.277V174.745H326.144V71.3081Z" fill="#FDBC56"/>
<path d="M266.487 77.3798H229.184V79.3267H266.487V77.3798Z" fill="white"/>
<path d="M277.202 93.8677H239.898V95.8146H277.202V93.8677Z" fill="white"/>
<path d="M299.588 101.534H239.898V103.481H299.588V101.534Z" fill="white"/>
<path d="M266.905 110.63H228.711V112.577H266.905V110.63Z" fill="white"/>
<path d="M291.415 114.645H228.711V116.592H291.415V114.645Z" fill="white"/>
<path d="M256.213 126.821H228.48V128.768H256.213V126.821Z" fill="white"/>
<path d="M248.765 130.484H228.48V132.431H248.765V130.484Z" fill="white"/>
<path d="M256.213 134.136H228.48V136.083H256.213V134.136Z" fill="white"/>
<path d="M291.415 118.539H228.711V120.486H291.415V118.539Z" fill="white"/>
<path d="M266.905 150.91H228.711V152.857H266.905V150.91Z" fill="white"/>
<path d="M291.415 154.925H228.711V156.871H291.415V154.925Z" fill="white"/>
<path d="M291.415 158.818H228.711V160.765H291.415V158.818Z" fill="white"/>
<path d="M303.636 77.3798H267.631V79.3267H303.636V77.3798Z" fill="white"/>
<path d="M250.096 85.5303H229.184V87.4772H250.096V85.5303Z" fill="white"/>
<path d="M272.229 85.5303H251.317V87.4772H272.229V85.5303Z" fill="white"/>
<path d="M277.807 85.5303H273.33V87.4772H277.807V85.5303Z" fill="white"/>
<path d="M283.45 85.5303H278.973V87.4772H283.45V85.5303Z" fill="white"/>
<path d="M242.759 81.5484H238.281V83.4953H242.759V81.5484Z" fill="white"/>
<path opacity="0.5" d="M248.402 81.5484H243.925V83.4953H248.402V81.5484Z" fill="white"/>
<path d="M254.045 81.5484H249.568V83.4953H254.045V81.5484Z" fill="white"/>
<path opacity="0.5" d="M259.7 81.5484H255.222V83.4953H259.7V81.5484Z" fill="white"/>
<path d="M265.343 81.5484H260.866V83.4953H265.343V81.5484Z" fill="white"/>
<path d="M294.759 81.5484H266.509V83.4953H294.759V81.5484Z" fill="white"/>
<path d="M243.056 97.5853H239.898V99.5322H243.056V97.5853Z" fill="white"/>
<path opacity="0.5" d="M247.049 97.5853H243.892V99.5322H247.049V97.5853Z" fill="white"/>
<path d="M251.031 97.5853H247.874V99.5322H251.031V97.5853Z" fill="white"/>
<path opacity="0.5" d="M255.013 97.5853H251.856V99.5322H255.013V97.5853Z" fill="white"/>
<path d="M258.996 97.5853H255.839V99.5322H258.996V97.5853Z" fill="white"/>
<path d="M279.776 97.5853H259.832V99.5322H279.776V97.5853Z" fill="white"/>
<path d="M266.014 146.895H228.711V148.842H266.014V146.895Z" fill="white"/>
<path d="M288.401 139.229H228.711V141.176H288.401V139.229Z" fill="white"/>
<path d="M231.868 143.177H228.711V145.124H231.868V143.177Z" fill="white"/>
<path opacity="0.5" d="M235.85 143.177H232.693V145.124H235.85V143.177Z" fill="white"/>
<path d="M239.843 143.177H236.686V145.124H239.843V143.177Z" fill="white"/>
<path opacity="0.5" d="M243.826 143.177H240.668V145.124H243.826V143.177Z" fill="white"/>
<path d="M247.808 143.177H244.651V145.124H247.808V143.177Z" fill="white"/>
<path d="M268.577 143.177H248.633V145.124H268.577V143.177Z" fill="white"/>
<path d="M302.602 126.48H278.951V128.427H302.602V126.48Z" fill="white"/>
<path d="M302.613 134.136H264.76V136.083H302.613V134.136Z" fill="white"/>
<path d="M302.613 130.187H300.611V132.134H302.613V130.187Z" fill="white"/>
<path opacity="0.5" d="M300.083 130.187H298.081V132.134H300.083V130.187Z" fill="white"/>
<path d="M297.553 130.187H295.551V132.134H297.553V130.187Z" fill="white"/>
<path opacity="0.5" d="M295.034 130.187H293.032V132.134H295.034V130.187Z" fill="white"/>
<path d="M292.504 130.187H290.502V132.134H292.504V130.187Z" fill="white"/>
<path d="M289.974 130.187H277.334V132.134H289.974V130.187Z" fill="white"/>
<path d="M326.144 59.825H224.277V71.3082H326.144V59.825Z" fill="#FAA228"/>
<path d="M233.65 65.5557C233.65 66.0712 233.497 66.5753 233.21 67.004C232.924 67.4326 232.517 67.7668 232.04 67.9641C231.564 68.1614 231.04 68.213 230.534 68.1124C230.028 68.0118 229.564 67.7635 229.199 67.399C228.835 67.0344 228.586 66.5699 228.486 66.0642C228.385 65.5586 228.437 65.0344 228.634 64.5581C228.831 64.0818 229.166 63.6746 229.594 63.3882C230.023 63.1017 230.527 62.9489 231.043 62.9489C231.734 62.9489 232.397 63.2235 232.886 63.7124C233.375 64.2012 233.65 64.8643 233.65 65.5557Z" fill="white"/>
<path d="M241.592 65.5557C241.592 66.0712 241.439 66.5753 241.153 67.004C240.866 67.4326 240.459 67.7668 239.983 67.9641C239.506 68.1614 238.982 68.213 238.476 68.1124C237.971 68.0118 237.506 67.7635 237.142 67.399C236.777 67.0344 236.529 66.5699 236.428 66.0642C236.327 65.5586 236.379 65.0344 236.576 64.5581C236.774 64.0818 237.108 63.6746 237.537 63.3882C237.965 63.1017 238.469 62.9489 238.985 62.9489C239.677 62.9489 240.34 63.2235 240.829 63.7124C241.318 64.2012 241.592 64.8643 241.592 65.5557Z" fill="white"/>
<path d="M249.392 65.5557C249.392 66.0712 249.239 66.5753 248.953 67.004C248.666 67.4326 248.259 67.7668 247.783 67.9641C247.306 68.1614 246.782 68.213 246.277 68.1124C245.771 68.0118 245.306 67.7635 244.942 67.399C244.577 67.0344 244.329 66.5699 244.228 66.0642C244.127 65.5586 244.179 65.0344 244.376 64.5581C244.574 64.0818 244.908 63.6746 245.337 63.3882C245.765 63.1017 246.269 62.9489 246.785 62.9489C247.477 62.9489 248.14 63.2235 248.629 63.7124C249.118 64.2012 249.392 64.8643 249.392 65.5557Z" fill="white"/>
<path d="M294.957 102.029H193.399V205.158H294.957V102.029Z" fill="white"/>
<path d="M235.487 108.079H198.294V110.026H235.487V108.079Z" fill="#456CBB"/>
<path d="M246.169 124.523H208.976V126.469H246.169V124.523Z" fill="#456CBB"/>
<path d="M268.489 132.156H208.976V134.103H268.489V132.156Z" fill="#456CBB"/>
<path d="M235.905 141.241H197.821V143.188H235.905V141.241Z" fill="#456CBB"/>
<path d="M260.338 145.245H197.821V147.192H260.338V145.245Z" fill="#456CBB"/>
<path d="M225.235 157.377H197.579V159.324H225.235V157.377Z" fill="#456CBB"/>
<path d="M217.809 161.018H197.579V162.965H217.809V161.018Z" fill="#456CBB"/>
<path d="M225.235 164.67H197.579V166.617H225.235V164.67Z" fill="#456CBB"/>
<path d="M260.338 149.117H197.821V151.064H260.338V149.117Z" fill="#456CBB"/>
<path d="M235.905 181.4H197.821V183.347H235.905V181.4Z" fill="#456CBB"/>
<path d="M260.338 185.392H197.821V187.339H260.338V185.392Z" fill="#456CBB"/>
<path d="M260.338 189.275H197.821V191.222H260.338V189.275Z" fill="#456CBB"/>
<path d="M272.516 108.079H236.62V110.026H272.516V108.079Z" fill="#456CBB"/>
<path d="M219.14 116.207H198.294V118.154H219.14V116.207Z" fill="#456CBB"/>
<path d="M241.208 116.207H220.361V118.154H241.208V116.207Z" fill="#456CBB"/>
<path d="M246.774 116.207H242.308V118.154H246.774V116.207Z" fill="#456CBB"/>
<path d="M252.395 116.207H247.929V118.154H252.395V116.207Z" fill="#456CBB"/>
<path d="M211.825 112.236H207.358V114.183H211.825V112.236Z" fill="#456CBB"/>
<path opacity="0.5" d="M217.457 112.236H212.991V114.183H217.457V112.236Z" fill="#456CBB"/>
<path d="M223.09 112.236H218.623V114.183H223.09V112.236Z" fill="#456CBB"/>
<path opacity="0.5" d="M228.711 112.236H224.245V114.183H228.711V112.236Z" fill="#456CBB"/>
<path d="M234.343 112.236H229.877V114.183H234.343V112.236Z" fill="#456CBB"/>
<path d="M263.682 112.236H235.509V114.183H263.682V112.236Z" fill="#456CBB"/>
<path d="M212.122 128.218H208.976V130.165H212.122V128.218Z" fill="#456CBB"/>
<path opacity="0.5" d="M216.093 128.218H212.947V130.165H216.093V128.218Z" fill="#456CBB"/>
<path d="M220.075 128.218H216.929V130.165H220.075V128.218Z" fill="#456CBB"/>
<path opacity="0.5" d="M224.046 128.218H220.9V130.165H224.046V128.218Z" fill="#456CBB"/>
<path d="M228.018 128.218H224.871V130.165H228.018V128.218Z" fill="#456CBB"/>
<path d="M248.721 128.218H228.843V130.165H248.721V128.218Z" fill="#456CBB"/>
<path d="M235.014 177.385H197.821V179.332H235.014V177.385Z" fill="#456CBB"/>
<path d="M257.335 169.751H197.821V171.698H257.335V169.751Z" fill="#456CBB"/>
<path d="M200.967 173.689H197.821V175.636H200.967V173.689Z" fill="#456CBB"/>
<path opacity="0.5" d="M204.938 173.689H201.792V175.636H204.938V173.689Z" fill="#456CBB"/>
<path d="M208.909 173.689H205.763V175.636H208.909V173.689Z" fill="#456CBB"/>
<path opacity="0.5" d="M212.881 173.689H209.735V175.636H212.881V173.689Z" fill="#456CBB"/>
<path d="M216.852 173.689H213.706V175.636H216.852V173.689Z" fill="#456CBB"/>
<path d="M237.567 173.689H217.688V175.636H237.567V173.689Z" fill="#456CBB"/>
<path d="M271.504 157.025H247.918V158.972H271.504V157.025Z" fill="#456CBB"/>
<path d="M271.492 164.67H233.76V166.617H271.492V164.67Z" fill="#456CBB"/>
<path d="M271.504 160.732H269.501V162.679H271.504V160.732Z" fill="#456CBB"/>
<path opacity="0.5" d="M268.984 160.732H266.982V162.679H268.984V160.732Z" fill="#456CBB"/>
<path d="M266.454 160.732H264.463V162.679H266.454V160.732Z" fill="#456CBB"/>
<path opacity="0.5" d="M263.946 160.732H261.944V162.679H263.946V160.732Z" fill="#456CBB"/>
<path d="M261.416 160.732H259.425V162.679H261.416V160.732Z" fill="#456CBB"/>
<path d="M258.897 160.732H246.29V162.679H258.897V160.732Z" fill="#456CBB"/>
<path d="M294.957 90.5788H193.399V102.029H294.957V90.5788Z" fill="#2A64D7"/>
<path d="M202.716 96.2875C202.718 96.8035 202.567 97.3086 202.282 97.7388C201.997 98.1689 201.59 98.5047 201.114 98.7037C200.638 98.9027 200.113 98.9559 199.607 98.8566C199.101 98.7572 198.635 98.5098 198.269 98.1457C197.904 97.7816 197.654 97.3171 197.553 96.8111C197.451 96.3052 197.502 95.7804 197.699 95.3035C197.896 94.8265 198.23 94.4187 198.659 94.1318C199.088 93.8449 199.593 93.6917 200.109 93.6917C200.798 93.6917 201.46 93.9648 201.949 94.4513C202.437 94.9378 202.713 95.598 202.716 96.2875Z" fill="white"/>
<path d="M210.659 96.2875C210.659 96.8009 210.506 97.3028 210.221 97.7297C209.936 98.1565 209.53 98.4893 209.056 98.6857C208.582 98.8822 208.06 98.9336 207.556 98.8334C207.052 98.7333 206.59 98.4861 206.227 98.123C205.864 97.76 205.616 97.2975 205.516 96.7939C205.416 96.2904 205.467 95.7684 205.664 95.2941C205.86 94.8198 206.193 94.4144 206.62 94.1292C207.047 93.8439 207.549 93.6917 208.062 93.6917C208.751 93.6917 209.411 93.9652 209.898 94.452C210.385 94.9388 210.659 95.5991 210.659 96.2875Z" fill="white"/>
<path d="M218.436 96.2875C218.438 96.804 218.287 97.3096 218.001 97.7399C217.716 98.1703 217.309 98.5061 216.832 98.7048C216.355 98.9035 215.83 98.956 215.323 98.8558C214.816 98.7556 214.351 98.5071 213.986 98.1418C213.62 97.7766 213.372 97.3111 213.271 96.8044C213.171 96.2977 213.224 95.7726 213.422 95.2959C213.621 94.8191 213.957 94.4121 214.387 94.1264C214.818 93.8408 215.323 93.6895 215.84 93.6917C216.528 93.6946 217.186 93.969 217.673 94.4552C218.159 94.9414 218.433 95.6 218.436 96.2875Z" fill="white"/>
</svg>
