<svg width="78" height="27" viewBox="0 0 78 27" fill="none" xmlns="http://www.w3.org/2000/svg">
<path d="M11.6316 12.0797H6.84209V13.5H11.6316V19.1849H4.10525L1.36841 16.3428V1.42108H6.84209V6.39477H11.6316V12.0797Z" fill="white"/>
<path d="M32.1579 19.1849H15.7368L13 16.3428V6.39471H18.4737V13.5H19.8421V6.39471H25.3158V13.5H26.6842V6.39471H32.1579V19.1849Z" fill="white"/>
<path d="M39.0001 6.39471H33.5264V19.1842H39.0001V6.39471Z" fill="white"/>
<path d="M39.0001 1.42108H33.5264V4.97371H39.0001V1.42108Z" fill="white"/>
<path d="M50.6316 12.0797H45.8421V13.5H50.6316V19.1849H43.1053L40.3684 16.3428V1.42108H45.8421V6.39477H50.6316V12.0797Z" fill="white"/>
<path d="M62.9474 12.0796H57.4737V13.5H62.9474V19.1849H54.7368L52 16.3428V9.23753L54.7368 6.39471H62.9474V12.0796Z" fill="white"/>
<path d="M76.6315 19.1849H71.1578V12.0797H69.7894V19.1849H64.3157V1.42108H69.7894V6.39477H73.8946L76.6315 9.23758V19.1849Z" fill="white"/>
<path d="M74.5789 4.97368H71.1579V0H63.6459L60.1914 4.97368H54.0526L52 7.10526V4.97368H47.2105V0H32.1579V4.97368H10.9816L7.52632 0H0V17.0526L9.57895 27H19.1579V24.1579L21.8947 27H40.3684V24.1579L43.1053 27H52V24.1579L54.7368 27H71.8421L78 20.6053V8.52632L74.5789 4.97368ZM11.6316 12.0789H6.8421V13.5H11.6316V19.1842H4.10526L1.36842 16.3421V1.42105H6.8421V6.39474H11.6316V12.0789ZM32.1579 19.1842H15.7368L13 16.3421V6.39474H18.4737V13.5H19.8421V6.39474H25.3158V13.5H26.6842V6.39474H32.1579V19.1842ZM39 19.1842H33.5263V6.39474H39V19.1842ZM39 4.97368H33.5263V1.42105H39V4.97368ZM50.6316 12.0789H45.8421V13.5H50.6316V19.1842H43.1053L40.3684 16.3421V1.42105H45.8421V6.39474H50.6316V12.0789ZM62.9474 12.0789H57.4737V13.5H62.9474V19.1842H54.7368L52 16.3421V9.23684L54.7368 6.39474H62.9474V12.0789ZM76.6316 19.1842H71.1579V12.0789H69.7895V19.1842H64.3158V1.42105H69.7895V6.39474H73.8947L76.6316 9.23684V19.1842Z" fill="#CECECE"/>
</svg>
