<svg width="93" height="21" viewBox="0 0 93 21" fill="none" xmlns="http://www.w3.org/2000/svg">
<g clip-path="url(#clip0)">
<path d="M29.0414 3.25694C28.6948 1.97512 27.6948 0.975178 26.413 0.628533C24.1084 0 14.8328 0 14.8328 0C14.8328 0 5.55715 0.0190465 3.25253 0.647579C1.97261 0.994225 0.970769 1.99416 0.624123 3.27599C-0.0729767 7.37098 -0.343436 13.6106 0.64317 17.5418C0.989815 18.8236 1.98975 19.8235 3.27158 20.1702C5.5762 20.7987 14.8518 20.7987 14.8518 20.7987C14.8518 20.7987 24.1274 20.7987 26.4321 20.1702C27.7139 19.8235 28.7138 18.8236 29.0605 17.5418C29.7957 13.4411 30.0223 7.20527 29.0414 3.25694Z" fill="#CECECE"/>
<path d="M11.8811 14.8562L19.5759 10.3994L11.8811 5.9425V14.8562Z" fill="white"/>
<path d="M43.0603 18.9131C42.4698 18.5131 42.0508 17.9036 41.8032 17.0656C41.5556 16.2275 41.4413 15.1229 41.4413 13.7325V11.8469C41.4413 10.4565 41.5746 9.31369 41.8603 8.47564C42.146 7.61855 42.5841 7.00907 43.1936 6.62814C43.8031 6.24721 44.584 6.0377 45.5553 6.0377C46.5077 6.0377 47.2886 6.22816 47.86 6.62814C48.4314 7.02811 48.8694 7.6376 49.1361 8.47564C49.4027 9.31369 49.5361 10.4374 49.5361 11.8278V13.7134C49.5361 15.1038 49.4027 16.2085 49.1361 17.0465C48.8694 17.8846 48.4504 18.4941 47.86 18.894C47.2695 19.275 46.4696 19.4845 45.4792 19.4845C44.4507 19.5035 43.6507 19.294 43.0603 18.9131ZM46.3553 16.8751C46.5267 16.4561 46.6029 15.7514 46.6029 14.7991V10.7422C46.6029 9.80889 46.5267 9.12322 46.3553 8.7042C46.1839 8.26613 45.8982 8.05662 45.4982 8.05662C45.0982 8.05662 44.8316 8.26613 44.6602 8.7042C44.4887 9.14227 44.4126 9.80889 44.4126 10.7422V14.7991C44.4126 15.7514 44.4887 16.4561 44.6411 16.8751C44.7935 17.2941 45.0792 17.5037 45.4982 17.5037C45.8982 17.5037 46.1839 17.2941 46.3553 16.8751ZM88.1051 13.7706V14.4372L88.1813 16.3228C88.2384 16.7418 88.3337 17.0465 88.486 17.237C88.6384 17.4275 88.886 17.5227 89.2098 17.5227C89.6479 17.5227 89.9526 17.3513 90.105 17.0085C90.2764 16.6656 90.3526 16.0942 90.3716 15.3133L92.9048 15.4657C92.9239 15.58 92.9239 15.7323 92.9239 15.9228C92.9239 17.1227 92.6001 18.0179 91.9334 18.6084C91.2668 19.1988 90.3526 19.5035 89.1527 19.5035C87.7051 19.5035 86.6957 19.0464 86.1243 18.1512C85.5529 17.2561 85.2481 15.8466 85.2481 13.961V11.6564C85.3129 8.4185 85.8824 6.04722 89.2289 6.0377C90.2383 6.0377 91.0002 6.22816 91.5335 6.59004C92.0668 6.95193 92.4477 7.52332 92.6763 8.30422C92.9048 9.08513 93 10.1517 93 11.5231V13.7515H88.1051V13.7706ZM88.486 8.28518C88.3337 8.47564 88.2384 8.76134 88.1813 9.18036C88.1242 9.59938 88.1051 11.085 88.1051 11.085V12.0183H90.2383V11.085C90.2383 12.0183 90.2193 9.61843 90.1621 9.18036C90.105 8.74229 90.0098 8.43755 89.8574 8.26613C89.705 8.09471 89.4765 7.99948 89.1717 7.99948C88.8479 8.01853 88.6194 8.11376 88.486 8.28518ZM35.9369 13.523L32.6038 1.4856H35.5179C35.5179 1.4856 36.8797 7.52332 37.3463 10.3612H37.4225C37.952 7.34809 39.2891 1.4856 39.2891 1.4856H42.2032L38.832 13.5039V19.275H35.9559V13.523H35.9369Z" fill="#CECECE"/>
<path d="M58.9831 6.28534V19.2941H56.6976L56.45 17.6942H56.3928C55.7643 18.8941 54.831 19.5036 53.593 19.5036C51.3512 19.4979 51.1017 17.5989 51.0789 15.999V6.28534H54.012V15.8276C54.012 16.399 54.0691 16.818 54.2025 17.0656C54.4729 17.5951 55.1738 17.4599 55.5548 17.199C55.7738 17.0504 55.9528 16.8466 56.069 16.6085V6.28534H58.9831Z" fill="#CECECE"/>
<path d="M66.9445 3.84736H64.0303V19.294H61.1734V3.84736H58.2593V1.4856H66.9254V3.84736H66.9445ZM83.6863 8.36136C83.5149 7.54237 83.2292 6.95193 82.8292 6.571C82.4292 6.20912 81.8959 6.01865 81.1912 6.01865C80.656 6.01675 80.1303 6.17674 79.6865 6.47577C79.2104 6.78051 78.8675 7.18048 78.6009 7.67569H78.5818V0.81897H75.763V19.275H78.1819L78.4866 18.037H78.5437C78.7761 18.4731 79.1266 18.835 79.5532 19.0845C80.0103 19.3321 80.5055 19.4654 81.0579 19.4654C82.0483 19.4654 82.7721 19.0083 83.2482 18.0941C83.7053 17.1799 83.9529 15.7514 83.9529 13.8277V11.7707C83.9529 10.3231 83.8577 9.18036 83.6863 8.36136ZM81.0007 13.6753C81.0007 14.6276 80.9626 15.3705 80.8865 15.9038C80.8103 16.4371 80.6769 16.818 80.4865 17.0465C80.296 17.2751 80.0484 17.3894 79.7437 17.3894C79.1532 17.3703 78.818 17.1037 78.5818 16.7037V9.31369C78.6771 8.9518 78.8485 8.66611 79.0961 8.43755C79.5151 7.9671 80.2313 7.96139 80.5627 8.43755C80.7341 8.66611 80.8293 9.06608 80.9055 9.61843C80.9626 10.1708 81.0007 10.9517 81.0007 11.9802V13.6753Z" fill="#CECECE"/>
<path d="M74.0107 6.28534V19.2941H71.7251L71.4775 17.6942H71.4204C70.7919 18.8941 69.8586 19.5036 68.6206 19.5036C66.3788 19.4979 66.1293 17.5989 66.1064 15.999V6.28534H69.0396V15.8276C69.0396 16.399 69.0967 16.818 69.2301 17.0656C69.5005 17.5951 70.2014 17.4599 70.5824 17.199C70.8014 17.0504 70.9804 16.8466 71.0966 16.6085V6.28534H74.0107Z" fill="#CECECE"/>
</g>
<defs>
<clipPath id="clip0">
<rect width="93" height="20.7987" fill="white"/>
</clipPath>
</defs>
</svg>
