<svg width="98" height="20" viewBox="0 0 98 20" fill="none" xmlns="http://www.w3.org/2000/svg">
<g clip-path="url(#clip0)">
<path d="M50.4515 9.42081C49.6441 9.42081 49.059 9.68388 48.4693 9.95603V16.0748C49.0363 16.1292 49.3583 16.1292 49.8981 16.1292C51.8394 16.1292 52.107 15.2402 52.107 13.9974V11.0764C52.107 10.1556 51.8031 9.42081 50.4515 9.42081ZM37.5517 9.08516C36.2046 9.08516 35.8961 9.82449 35.8961 10.7407V11.2533H39.2027V10.7407C39.2073 9.82449 38.8988 9.08516 37.5517 9.08516ZM12.5641 15.4534C12.5641 16.1791 12.9043 16.5556 13.6618 16.5556C14.4737 16.5556 14.9499 16.2925 15.5396 16.0204V14.5689H13.7706C12.9315 14.5689 12.5641 14.7231 12.5641 15.4534ZM62.9974 9.42081C61.6457 9.42081 61.1786 10.1556 61.1786 11.0764V14.4238C61.1786 15.3445 61.6457 16.0839 62.9974 16.0839C64.3445 16.0839 64.8163 15.3445 64.8163 14.4238V11.0764C64.8163 10.1556 64.3445 9.42081 62.9974 9.42081ZM5.95094 19.2045H1.98213V9.60224H0V6.29112H1.98213V4.30445C1.98213 1.60567 3.10247 0 6.28205 0H8.93095V3.31112H7.27539C6.03712 3.31112 5.95548 3.77377 5.95548 4.63556L5.95094 6.29112H8.94909L8.59983 9.60224H5.95094V19.2045ZM19.5129 19.2317H16.2063L16.0612 18.3971C14.5508 19.2317 13.2036 19.3678 12.3146 19.3678C9.88799 19.3678 8.59983 17.7485 8.59983 15.5078C8.59983 12.8635 10.1057 11.92 12.8 11.92H15.5441V11.3485C15.5441 10.0014 15.3899 9.60224 13.3125 9.60224H9.91975L10.2509 6.29112H13.9611C18.515 6.29112 19.5129 7.72896 19.5129 11.3712V19.2317ZM30.7571 9.84264C28.6979 9.48885 28.1082 9.41174 27.1194 9.41174C25.3414 9.41174 24.8016 9.80635 24.8016 11.3122V14.1698C24.8016 15.6802 25.3414 16.0748 27.1194 16.0748C28.1082 16.0748 28.7024 15.9977 30.7571 15.6394V18.8688C28.9564 19.2725 27.7816 19.3768 26.7883 19.3768C22.5292 19.3768 20.8328 17.1362 20.8328 13.9022V11.5844C20.8328 8.34583 22.5247 6.10062 26.7883 6.10062C27.7816 6.10062 28.9564 6.20948 30.7571 6.61316V9.84264ZM43.1761 13.9067H35.8961V14.1743C35.8961 15.6847 36.4359 16.0793 38.2139 16.0793C39.8105 16.0793 40.7902 16.0022 42.8404 15.6439V18.8734C40.8583 19.2771 39.8287 19.3814 37.8828 19.3814C33.6237 19.3814 31.9273 17.1407 31.9273 13.9067V11.2578C31.9273 8.42747 33.1837 6.10516 37.5517 6.10516C41.9197 6.10516 43.1715 8.39572 43.1715 11.2578V13.9067H43.1761ZM56.0713 13.9702C56.0713 17.0999 55.1777 19.3814 49.762 19.3814C47.8071 19.3814 46.6595 19.209 44.5005 18.8779V0.993335L48.4693 0.331112V6.58595C49.3266 6.26844 50.4378 6.10516 51.4448 6.10516C55.4136 6.10516 56.0713 7.88318 56.0713 10.7407V13.9702ZM68.7896 14.0382C68.7896 16.737 67.6738 19.3542 63.0155 19.3542C58.3528 19.3542 57.2188 16.737 57.2188 14.0382V11.4302C57.2188 8.73137 58.3528 6.11423 63.0155 6.11423C67.6783 6.11423 68.7896 8.73137 68.7896 11.4302V14.0382ZM81.4943 14.0382C81.4943 16.737 80.3785 19.3542 75.7203 19.3542C71.0575 19.3542 69.9235 16.737 69.9235 14.0382V11.4302C69.9235 8.73137 71.0575 6.11423 75.7203 6.11423C80.3785 6.11423 81.4943 8.73137 81.4943 11.4302V14.0382ZM94.5347 19.2045H90.2348L86.5971 13.1356V19.2045H82.6283V0.993335L86.5971 0.331112V12.0561L90.2348 6.29112H94.5347L90.5659 12.5822L94.5347 19.2045ZM75.7067 9.42081C74.3595 9.42081 73.8923 10.1556 73.8923 11.0764V14.4238C73.8923 15.3445 74.3595 16.0839 75.7067 16.0839C77.0538 16.0839 77.53 15.3445 77.53 14.4238V11.0764C77.5255 10.1556 77.0492 9.42081 75.7067 9.42081Z" fill="#CECECE"/>
<path d="M96.7981 16.9411C97.4649 16.9411 98.0001 17.4854 98.0001 18.1658C98.0001 18.8552 97.4694 19.395 96.7936 19.395C96.1223 19.395 95.5825 18.8552 95.5825 18.1658C95.5825 17.4854 96.1268 16.9411 96.7936 16.9411H96.7981ZM96.7936 17.1316C96.2538 17.1316 95.8138 17.5943 95.8138 18.1658C95.8138 18.7463 96.2538 19.2045 96.7981 19.2045C97.3424 19.209 97.7778 18.7463 97.7778 18.1703C97.7778 17.5943 97.3424 17.1316 96.7981 17.1316H96.7936ZM96.5668 18.8779H96.3491V17.5126C96.4625 17.4945 96.5713 17.4809 96.7346 17.4809C96.9433 17.4809 97.0748 17.5262 97.161 17.5852C97.2426 17.6441 97.2834 17.7394 97.2834 17.8664C97.2834 18.0478 97.1655 18.1567 97.0204 18.1975V18.2066C97.1383 18.2293 97.2199 18.3381 97.2471 18.5377C97.2789 18.7509 97.3107 18.8325 97.3333 18.8779H97.1065C97.0748 18.8325 97.043 18.7101 97.0158 18.5286C96.9841 18.3563 96.8979 18.2882 96.721 18.2882H96.5713V18.8779H96.5668ZM96.5668 18.1249H96.7255C96.9024 18.1249 97.0566 18.0614 97.0566 17.8891C97.0566 17.7711 96.9705 17.6487 96.7255 17.6487C96.653 17.6487 96.6031 17.6532 96.5668 17.6578V18.1249Z" fill="#CECECE"/>
</g>
<defs>
<clipPath id="clip0">
<rect width="98" height="19.395" fill="white"/>
</clipPath>
</defs>
</svg>
