<svg id="Layer_1" data-name="Layer 1" xmlns="http://www.w3.org/2000/svg" viewBox="0 0 12.78 20.45"><defs><style>.cls-1{fill:#686d71;}</style></defs><title>tumbler</title><path class="cls-1" d="M16.88,18.32a3,3,0,0,1-1.54-.4,2,2,0,0,1-.79-.89,9.33,9.33,0,0,1-.11-2.21V10.14h5.12V6.32H14.44V1.2H11.15a7.68,7.68,0,0,1-.72,2.6A5.65,5.65,0,0,1,9.06,5.56,7.26,7.26,0,0,1,6.78,6.69V9.58H9.52v7.17a5.9,5.9,0,0,0,.3,2.14,3.64,3.64,0,0,0,1,1.4,5.32,5.32,0,0,0,1.85,1,6.27,6.27,0,0,0,2.2.35,9.74,9.74,0,0,0,2.29-.25,11.35,11.35,0,0,0,2.35-.81V17.51a4.18,4.18,0,0,1-2.68.81Zm0,0" transform="translate(-6.78 -1.2)"/></svg>